# Blender v3.0.1 OBJ File: ''
# www.blender.org
mtllib Cooper.mtl
o Cooper.002
v 0.788992 0.878349 -0.153951
v 0.804884 0.878853 -0.050650
v 0.764693 -0.492451 -0.171700
v -0.479792 -1.264307 1.004939
v -0.487389 -1.327408 0.961041
v 0.002611 -1.413208 0.968380
v 0.000006 -1.314706 1.028776
v -0.530094 0.243894 1.033478
v 0.000003 0.337196 1.073213
v -0.514394 -0.507006 1.030108
v 0.000004 -0.547505 1.057947
v 0.681639 0.699177 0.575048
v 0.738141 0.619275 0.541155
v 0.543509 0.305293 0.993153
v 0.577809 0.235592 0.983758
v 0.000006 0.470395 1.026507
v 0.247907 0.461993 1.011626
v 0.530106 0.243894 1.033555
v 0.421608 0.420193 0.999940
v 0.687352 -1.622430 0.399537
v 0.788411 -1.468584 0.272539
v 0.761954 -1.445031 0.369936
v 0.672061 -1.682335 0.271639
v 0.814868 -1.492138 0.175142
v 0.804655 -0.828932 0.351315
v 0.784046 -0.559327 0.474004
v 0.771450 -1.151429 0.422125
v 0.700743 -1.540724 0.522835
v 0.798858 -1.296883 0.304033
v 0.835763 -1.148735 0.238130
v 0.000003 0.337196 1.073213
v 0.000004 -0.547505 1.057947
v 0.514306 -0.507006 1.030182
v 0.530106 0.243894 1.033555
v 0.480808 -1.265207 1.004209
v 0.000083 -1.791645 -0.030006
v 0.000091 -1.770750 -0.145107
v 0.505591 -1.719750 -0.145572
v 0.534982 -1.765346 -0.016768
v 0.516370 -1.767240 0.142131
v 0.000077 -1.801243 0.049395
v 0.000066 -1.783038 0.193794
v 0.520661 -1.733834 0.275930
v 0.000051 -1.732330 0.404392
v 0.545150 -1.688428 0.417230
v 0.556043 -1.626626 0.518628
v 0.000037 -1.633122 0.604488
v 0.554536 -1.568922 0.609626
v 0.484311 -1.328708 0.960312
v 0.566810 -0.515408 0.979286
v 0.663138 -1.510123 0.589631
v 0.529111 -1.212109 0.959210
v 0.676372 -1.714740 0.119840
v 0.671682 -1.709446 -0.017560
v 0.680089 -1.685749 -0.111761
v 0.764683 -1.612147 -0.037157
v 0.802775 -1.554543 0.073843
v 0.826363 -1.397536 0.239939
v 0.566810 -0.515408 0.979286
v 0.514306 -0.507006 1.030182
v 0.529111 -1.212109 0.959210
v 0.731038 -0.494823 0.587797
v 0.829362 -1.279735 0.260435
v 0.834469 -1.024638 0.165625
v 0.811571 -0.529840 0.136904
v 0.817878 -0.936144 0.035420
v 0.773193 -0.888651 -0.171185
v 0.577809 0.235592 0.983758
v 0.247907 0.461993 1.011626
v 0.421608 0.420193 0.999940
v 0.543509 0.305293 0.993153
v 0.000006 0.470395 1.026507
v 0.480808 -1.265207 1.004209
v 0.484311 -1.328708 0.960312
v 0.663138 -1.510123 0.589631
v 0.554536 -1.568922 0.609626
v 0.002611 -1.413208 0.968380
v 0.000006 -1.314706 1.028776
v 0.738141 0.619275 0.541155
v 0.681639 0.699177 0.575048
v 0.825055 0.712768 0.352658
v 0.817571 0.720761 0.136157
v 0.528037 0.824979 0.604932
v 0.719343 1.112675 0.516035
v 0.300736 0.911580 0.622312
v 0.640047 1.499372 0.462114
v 0.782749 1.044972 0.437242
v 0.424356 1.728669 0.344990
v 0.700751 1.528572 0.415518
v 0.391047 1.585272 0.462193
v 0.000041 1.385477 0.545372
v 0.000035 0.962779 0.635689
v 0.000048 1.634473 0.456563
v 0.000055 1.799569 0.349157
v 0.728258 1.617668 0.310916
v 0.612262 1.714166 0.259004
v 0.431362 1.793964 0.249788
v 0.000069 1.834562 0.154855
v 0.454869 1.822462 0.164189
v 0.476781 1.825056 -0.004410
v 0.000080 1.839655 0.002555
v 0.000090 1.836250 -0.130845
v 0.490590 1.752551 -0.133106
v 0.674469 1.712161 0.158809
v 0.649681 1.712755 -0.013793
v 0.820166 1.515363 0.194827
v 0.791375 1.572558 0.079622
v 0.670490 1.635049 -0.136889
v 0.746084 1.604554 -0.049882
v 0.826559 1.398366 0.291832
v 0.823363 1.456865 0.243330
v 0.830957 1.279568 0.323237
v 0.808853 1.162270 0.380239
v 0.839658 1.127867 0.311543
v 0.843163 0.986464 0.237249
v 0.824872 0.911559 0.120950
v -0.788808 0.878349 -0.154065
v -0.764607 -0.492451 -0.171811
v -0.804816 0.878853 -0.050766
v -0.788339 -1.468584 0.272425
v -0.687248 -1.622430 0.399438
v -0.761846 -1.445031 0.369826
v -0.814832 -1.492138 0.175024
v -0.671939 -1.682335 0.271542
v -0.804545 -0.828932 0.351199
v -0.771350 -1.151429 0.422014
v -0.783954 -0.559327 0.473890
v -0.700757 -1.540724 0.522734
v -0.798742 -1.296883 0.303917
v -0.835637 -1.148735 0.238009
v -0.514394 -0.507006 1.030108
v -0.530094 0.243894 1.033478
v -0.505409 -1.719750 -0.145645
v -0.534818 -1.765346 -0.016845
v -0.516230 -1.767240 0.142056
v -0.520639 -1.733834 0.275854
v -0.545150 -1.688428 0.417151
v -0.555957 -1.626626 0.518548
v -0.555264 -1.565021 0.611345
v -0.663062 -1.510123 0.589536
v -0.529089 -1.212109 0.959134
v -0.676328 -1.714740 0.119742
v -0.671518 -1.709446 -0.017657
v -0.680011 -1.685749 -0.111859
v -0.764617 -1.612147 -0.037268
v -0.802625 -1.554543 0.073727
v -0.808728 -1.523340 0.124375
v -0.826237 -1.397536 0.239819
v -0.566790 -0.515408 0.979204
v -0.730962 -0.494823 0.587692
v -0.829238 -1.279735 0.260315
v -0.834331 -1.024638 0.165505
v -0.811529 -0.529840 0.136787
v -0.817722 -0.936144 0.035302
v -0.761204 -0.888651 -0.171296
v -0.577791 0.235592 0.983675
v -0.243793 0.468095 1.021490
v -0.421493 0.421094 1.011579
v -0.539491 0.309093 0.994075
v -0.479792 -1.264307 1.004939
v -0.487389 -1.327408 0.961041
v -0.738059 0.619275 0.541049
v -0.681561 0.699278 0.580350
v -0.824945 0.712768 0.352539
v -0.817429 0.720761 0.136039
v -0.528363 0.824279 0.607756
v -0.719257 1.112675 0.515931
v -0.295265 0.918780 0.631269
v -0.639953 1.499372 0.462022
v -0.782651 1.044972 0.437129
v -0.424244 1.728669 0.344929
v -0.700650 1.528572 0.415416
v -0.391053 1.585272 0.462137
v -0.728142 1.617668 0.310811
v -0.612238 1.714166 0.258916
v -0.431338 1.793964 0.249726
v -0.454731 1.822462 0.164123
v -0.476619 1.825056 -0.004479
v -0.490410 1.752551 -0.133177
v -0.674431 1.712161 0.158711
v -0.649519 1.712755 -0.013887
v -0.820034 1.515363 0.194708
v -0.791225 1.572558 0.079508
v -0.670310 1.635049 -0.136986
v -0.746016 1.604554 -0.049990
v -0.826441 1.398366 0.291712
v -0.830843 1.279568 0.323116
v -0.808747 1.162270 0.380122
v -0.839642 1.127867 0.311422
v -0.843037 0.986464 0.237127
v -0.824728 0.911559 0.120831
v 0.712329 1.602066 0.021119
v 0.730107 1.507368 0.328471
v 0.604492 1.549349 -0.152590
v 0.564952 0.852570 0.496434
v 0.601592 0.820549 -0.159162
v 0.778365 0.841164 0.418950
v 0.787805 0.812649 -0.151352
v 0.790306 -0.873737 0.314315
v 0.756746 -0.871252 -0.167488
v 0.611192 -0.885651 -0.161796
v 0.615947 -0.883730 0.395401
v 0.608189 -1.598350 -0.124169
v 0.711529 -1.560244 0.105486
v 0.775876 -1.555727 0.083169
v 0.659859 -1.586797 -0.049341
v 0.736884 -1.598247 -0.053960
v -0.640666 -1.591072 -0.042160
v -0.582611 -1.604050 -0.114555
v -0.582648 -0.889930 0.391618
v -0.582607 -0.891851 -0.172682
v -0.794836 -0.869951 0.327501
v -0.750743 -0.868751 -0.160995
v -0.780935 0.806863 0.411738
v -0.785212 0.813649 -0.145259
v -0.595909 0.828350 -0.140249
v -0.594110 1.553250 -0.128677
v -0.679556 1.549919 0.328337
v -0.719159 1.600465 0.194651
v 0.041589 1.804450 -0.115641
v 0.566810 -0.515408 0.979286
v 0.663138 -1.510123 0.589631
v 0.731038 -0.494823 0.587797
v 0.529111 -1.212109 0.959210
v 0.484311 -1.328708 0.960312
v 0.002611 -1.413208 0.968380
v 0.554536 -1.568922 0.609626
v 0.000037 -1.633122 0.604488
v -0.522163 -1.171421 0.608633
v -0.555645 -1.108831 0.355328
v -0.551744 -1.152332 0.346430
v -0.544364 -1.215622 0.609833
v -0.003966 -1.222621 0.639272
v -0.003764 -1.172121 0.618870
v -0.002245 -1.103932 0.356368
v -0.519231 -1.049439 0.152628
v -0.000730 -1.045440 0.143266
v -0.000527 -1.081940 0.105067
v -0.524129 -1.089040 0.134329
v 0.569537 -1.171421 0.609012
v 0.591636 -1.215622 0.610215
v 0.594555 -1.152332 0.346713
v 0.605955 -1.108831 0.355512
v 0.555670 -1.049439 0.152706
v 0.560671 -1.089040 0.134408
v -0.522162 -1.255223 0.591536
v -0.530044 -1.195832 0.337633
v -0.002244 -1.200631 0.336771
v -0.003763 -1.259122 0.601173
v -0.502029 -1.133239 0.135533
v -0.000729 -1.132539 0.125569
v 0.569538 -1.255223 0.591915
v 0.563656 -1.195832 0.337812
v 0.538471 -1.133239 0.135708
v -0.597662 -0.126123 0.583387
v -0.622945 -0.077231 0.351083
v -0.647944 -0.120731 0.342283
v -0.606162 -0.169923 0.583888
v -0.400764 -0.175322 0.610803
v -0.400462 -0.126422 0.592801
v -0.398045 -0.072332 0.352200
v -0.631528 -0.031441 0.118181
v -0.395527 -0.028040 0.109598
v -0.395225 -0.066142 0.073900
v -0.639827 -0.071540 0.100682
v -0.203062 -0.126123 0.583716
v -0.194862 -0.169923 0.584118
v -0.148044 -0.120731 0.342419
v -0.173045 -0.077231 0.351316
v -0.159728 -0.031441 0.118215
v -0.151327 -0.071540 0.100717
v -0.597660 -0.209924 0.566390
v -0.622944 -0.164233 0.333387
v -0.398044 -0.169033 0.332503
v -0.400461 -0.213423 0.575105
v -0.631527 -0.115241 0.101184
v -0.395526 -0.115042 0.091901
v -0.203060 -0.209924 0.566719
v -0.173044 -0.164233 0.333619
v -0.159727 -0.115241 0.101218
v -0.492179 -0.166774 0.789162
v -0.503174 -0.149177 0.710261
v -0.515473 -0.187877 0.702361
v -0.496179 -0.204574 0.784563
v -0.391880 -0.206473 0.793771
v -0.391980 -0.165873 0.792470
v -0.392474 -0.144877 0.711169
v -0.506068 -0.134580 0.630860
v -0.393068 -0.132480 0.628068
v -0.393166 -0.169280 0.611070
v -0.510167 -0.171180 0.620261
v -0.291779 -0.166774 0.789177
v -0.287679 -0.204574 0.784578
v -0.269573 -0.187877 0.702379
v -0.281874 -0.149177 0.710277
v -0.280068 -0.134580 0.630876
v -0.275967 -0.171180 0.620278
v -0.492178 -0.241174 0.773965
v -0.503172 -0.226577 0.694564
v -0.392472 -0.230877 0.693672
v -0.391978 -0.243274 0.776772
v -0.506067 -0.208980 0.615663
v -0.393067 -0.209780 0.612371
v -0.291778 -0.241174 0.773980
v -0.281872 -0.226577 0.694580
v -0.280067 -0.208980 0.615679
v 0.285921 -0.165974 0.783918
v 0.273527 -0.148677 0.705117
v 0.261127 -0.187877 0.697217
v 0.281821 -0.204074 0.779420
v 0.386021 -0.200974 0.788527
v 0.386021 -0.160374 0.787326
v 0.385327 -0.139377 0.706025
v 0.269433 -0.133780 0.625716
v 0.384733 -0.126980 0.622924
v 0.384634 -0.163781 0.605926
v 0.265333 -0.170580 0.615017
v 0.486021 -0.156474 0.783932
v 0.490121 -0.194174 0.779434
v 0.509527 -0.176877 0.697235
v 0.497127 -0.138777 0.705133
v 0.500033 -0.124280 0.625732
v 0.504133 -0.160680 0.615034
v 0.285922 -0.240474 0.768821
v 0.273528 -0.225977 0.689420
v 0.385328 -0.225377 0.688528
v 0.386022 -0.237774 0.771529
v 0.269434 -0.208280 0.610519
v 0.384734 -0.204381 0.607227
v 0.486022 -0.230974 0.768835
v 0.497128 -0.216077 0.689436
v 0.500034 -0.198780 0.610535
v 0.195939 -0.126123 0.578545
v 0.163356 -0.077231 0.346140
v 0.138856 -0.120731 0.337240
v 0.187839 -0.169923 0.578946
v 0.384537 -0.175322 0.605860
v 0.384438 -0.126422 0.587858
v 0.383455 -0.072332 0.347156
v 0.146972 -0.031441 0.113037
v 0.382473 -0.028040 0.104454
v 0.382376 -0.066143 0.068756
v 0.138774 -0.071542 0.095538
v 0.572839 -0.126123 0.578572
v 0.581039 -0.169923 0.578974
v 0.628056 -0.120731 0.337276
v 0.603655 -0.077231 0.346172
v 0.618072 -0.031441 0.113071
v 0.626274 -0.071542 0.095573
v 0.195940 -0.209924 0.561448
v 0.163357 -0.164233 0.328444
v 0.383457 -0.169033 0.327460
v 0.384439 -0.213423 0.570161
v 0.146974 -0.115241 0.095941
v 0.382474 -0.115042 0.086758
v 0.572840 -0.209924 0.561475
v 0.603657 -0.164233 0.328475
v 0.618074 -0.115241 0.095975
v -0.753365 0.557280 0.627750
v -0.716661 0.612378 0.573850
v -0.753758 0.568376 0.527149
v -0.805160 0.538676 0.562847
v -0.801465 0.549079 0.633147
v -0.848261 0.518177 0.569544
v -0.863863 0.501878 0.606144
v -0.847366 0.506480 0.648845
v -0.868466 0.470180 0.650245
v -0.804568 0.493180 0.669248
v -0.749966 0.516079 0.646152
v -0.874763 0.472678 0.607544
v -0.868560 0.475176 0.558845
v -0.783859 0.498176 0.540350
v -0.718559 0.519876 0.543354
v -0.804568 0.493180 0.669548
v -0.710962 0.561778 0.585953
v 0.736335 0.557280 0.627857
v 0.736842 0.568376 0.527257
v 0.699739 0.612378 0.573953
v 0.788240 0.538676 0.562962
v 0.784435 0.549079 0.633261
v 0.831339 0.518177 0.569666
v 0.846837 0.501878 0.606267
v 0.830334 0.506480 0.648966
v 0.787632 0.493180 0.669363
v 0.851534 0.470180 0.650369
v 0.733034 0.516079 0.646259
v 0.857837 0.472678 0.607669
v 0.851640 0.475176 0.558969
v 0.766842 0.498176 0.540462
v 0.701541 0.519876 0.543456
v 0.787632 0.493180 0.669663
v 0.693938 0.561778 0.586054
v -0.555264 -1.565021 0.611345
v -0.487389 -1.327408 0.961041
v -0.595948 0.821371 0.498551
v 0.701494 1.371334 0.422909
v 0.608150 -1.596428 0.509831
v 0.711509 -1.544283 0.297486
v -0.573350 -1.602128 0.511446
v -0.694091 -1.547133 0.298235
v 0.242889 1.769451 -0.114025
v -0.710513 1.323642 0.402276
v -0.752800 1.515639 0.243182
v -0.750678 1.233783 0.370696
v 0.766226 1.225451 0.363073
v -0.698721 -1.563094 0.110234
v -0.681561 0.699278 0.580350
v -0.539491 0.309093 0.994075
v -0.738059 0.619275 0.541049
v -0.577791 0.235592 0.983675
v -0.243793 0.468095 1.021490
v -0.421493 0.421094 1.011579
v -0.566790 -0.515408 0.979204
v -0.529089 -1.212109 0.959134
v -0.663062 -1.510123 0.589536
v -0.555264 -1.565021 0.611345
v -0.577791 0.235592 0.983675
v -0.738059 0.619275 0.541049
v -0.730962 -0.494823 0.587692
v -0.566790 -0.515408 0.979204
v -0.663062 -1.510123 0.589536
v -0.529089 -1.212109 0.959134
v 0.577809 0.235592 0.983758
v 0.738141 0.619275 0.541155
v -0.645059 0.707576 0.550952
v -0.401857 1.030376 0.522057
v -0.401848 1.030371 0.393357
v -0.173848 0.621170 0.393389
v -0.173867 0.621180 0.652289
v -0.645059 0.707576 0.550952
v 0.184433 0.621180 0.652315
v -0.173867 0.621180 0.652289
v -0.173848 0.621170 0.393389
v 0.655541 0.707576 0.551046
v 0.184433 0.621180 0.652315
v 0.184452 0.621170 0.393415
v 0.412452 1.030371 0.393416
v 0.412443 1.030376 0.522116
v 0.655541 0.707576 0.551046
v -0.401857 1.030376 0.522057
v -0.645059 0.707576 0.550952
v -0.173867 0.621180 0.652289
v 0.140941 1.087776 0.550794
v -0.130459 1.087776 0.550774
v -0.173867 0.621180 0.652289
v 0.412443 1.030376 0.522116
v 0.140941 1.087776 0.550794
v 0.184433 0.621180 0.652315
v -0.645059 0.707576 0.550952
v -0.401848 1.030371 0.393357
v -0.645043 0.707567 0.329252
v -0.173848 0.621170 0.393389
v -0.645059 0.707576 0.550952
v -0.645043 0.707567 0.329252
v 0.184433 0.621180 0.652315
v -0.173848 0.621170 0.393389
v 0.184452 0.621170 0.393415
v 0.655541 0.707576 0.551046
v 0.184452 0.621170 0.393415
v 0.655557 0.707567 0.329346
v 0.412452 1.030371 0.393416
v 0.655541 0.707576 0.551046
v 0.655557 0.707567 0.329346
v -0.401857 1.030376 0.522057
v -0.173867 0.621180 0.652289
v -0.130459 1.087776 0.550774
v 0.140941 1.087776 0.550794
v -0.173867 0.621180 0.652289
v 0.184433 0.621180 0.652315
v 0.412443 1.030376 0.522116
v 0.184433 0.621180 0.652315
v 0.655541 0.707576 0.551046
v 0.300736 0.911580 0.622312
v 0.247907 0.461993 1.011626
v 0.528037 0.824979 0.604932
v 0.421608 0.420193 0.999940
v 0.000035 0.962779 0.635689
v 0.000006 0.470395 1.026507
v -0.295265 0.918780 0.631269
v -0.243793 0.468095 1.021490
v -0.528363 0.824279 0.607756
v -0.421493 0.421094 1.011579
v -0.681561 0.699278 0.580350
v -0.539491 0.309093 0.994075
v 0.681639 0.699177 0.575048
v 0.543509 0.305293 0.993153
vt 0.717500 0.265300
vt 0.683400 0.273100
vt 0.881900 0.552800
vt 0.244700 0.923300
vt 0.259800 0.934500
vt 0.489300 0.904300
vt 0.457300 0.888900
vt 0.406000 0.497900
vt 0.226300 0.493000
vt 0.460600 0.644000
vt 0.331400 0.712500
vt 0.479700 0.362000
vt 0.513800 0.372600
vt 0.413700 0.483700
vt 0.432600 0.496200
vt 0.224500 0.462800
vt 0.297400 0.458800
vt 0.406000 0.497900
vt 0.362700 0.463400
vt 0.804900 0.832800
vt 0.850150 0.794000
vt 0.811100 0.792500
vt 0.852000 0.845600
vt 0.889200 0.795500
vt 0.763900 0.670700
vt 0.691500 0.623800
vt 0.765700 0.737200
vt 0.757000 0.818200
vt 0.825200 0.760200
vt 0.839300 0.727900
vt 0.226300 0.493000
vt 0.331400 0.712500
vt 0.460600 0.644000
vt 0.406000 0.497900
vt 0.548800 0.798900
vt 0.900900 0.985700
vt 0.938400 0.989600
vt 0.999200 0.895300
vt 0.949200 0.886900
vt 0.889100 0.884800
vt 0.868800 0.980500
vt 0.814500 0.974900
vt 0.837800 0.876900
vt 0.724700 0.961700
vt 0.786700 0.863300
vt 0.746400 0.852000
vt 0.635100 0.949300
vt 0.710800 0.842400
vt 0.570000 0.809500
vt 0.488500 0.642000
vt 0.726400 0.817300
vt 0.563900 0.783000
vt 0.908600 0.851500
vt 0.956600 0.855000
vt 0.988700 0.852400
vt 0.968100 0.824600
vt 0.927900 0.808600
vt 0.861100 0.776800
vt 0.488500 0.642000
vt 0.460600 0.644000
vt 0.563900 0.783000
vt 0.641900 0.618800
vt 0.843800 0.754300
vt 0.848200 0.696700
vt 0.794000 0.590100
vt 0.878400 0.667300
vt 0.933400 0.636100
vt 0.432600 0.496200
vt 0.297400 0.458800
vt 0.362700 0.463400
vt 0.413700 0.483700
vt 0.224500 0.462800
vt 0.548800 0.798900
vt 0.570000 0.809500
vt 0.726400 0.817300
vt 0.710800 0.842400
vt 0.489300 0.904300
vt 0.457300 0.888900
vt 0.513800 0.372600
vt 0.479700 0.362000
vt 0.572700 0.338900
vt 0.641400 0.320200
vt 0.405000 0.346600
vt 0.449800 0.278300
vt 0.309000 0.339700
vt 0.392400 0.200900
vt 0.493800 0.283100
vt 0.331100 0.135100
vt 0.414600 0.190000
vt 0.314600 0.180500
vt 0.197800 0.231400
vt 0.210000 0.331200
vt 0.203400 0.154300
vt 0.212000 0.098400
vt 0.434100 0.162500
vt 0.403500 0.134700
vt 0.344500 0.109600
vt 0.223900 0.047900
vt 0.373400 0.097900
vt 0.422300 0.074900
vt 0.256900 0.022900
vt 0.294800 0.000500
vt 0.472000 0.058600
vt 0.449700 0.127200
vt 0.487900 0.098900
vt 0.501200 0.169300
vt 0.517000 0.143000
vt 0.535500 0.086000
vt 0.534200 0.113800
vt 0.491800 0.200700
vt 0.496500 0.185000
vt 0.501000 0.226300
vt 0.497400 0.254700
vt 0.527300 0.254700
vt 0.571500 0.276000
vt 0.621600 0.280300
vt 0.717500 0.265300
vt 0.881900 0.552800
vt 0.683400 0.273100
vt 0.850150 0.794000
vt 0.804900 0.832800
vt 0.811100 0.792500
vt 0.889200 0.795500
vt 0.852000 0.845600
vt 0.763900 0.670700
vt 0.765700 0.737200
vt 0.691500 0.623800
vt 0.757000 0.818200
vt 0.825200 0.760200
vt 0.839300 0.727900
vt 0.460600 0.644000
vt 0.406000 0.497900
vt 0.548800 0.798900
vt 0.999200 0.895300
vt 0.949200 0.886900
vt 0.889100 0.884800
vt 0.837800 0.876900
vt 0.786700 0.863300
vt 0.746400 0.852000
vt 0.710800 0.842400
vt 0.570000 0.809500
vt 0.726400 0.817300
vt 0.563900 0.783000
vt 0.908600 0.851500
vt 0.956600 0.855000
vt 0.988700 0.852400
vt 0.968100 0.824600
vt 0.927900 0.808600
vt 0.908550 0.802050
vt 0.861100 0.776800
vt 0.488500 0.642000
vt 0.641900 0.618800
vt 0.843800 0.754300
vt 0.848200 0.696700
vt 0.794000 0.590100
vt 0.878400 0.667300
vt 0.933400 0.636100
vt 0.432600 0.496200
vt 0.297400 0.458800
vt 0.362700 0.463400
vt 0.413700 0.483700
vt 0.244700 0.923300
vt 0.259800 0.934500
vt 0.513800 0.372600
vt 0.479700 0.362000
vt 0.572700 0.338900
vt 0.641400 0.320200
vt 0.405000 0.346600
vt 0.449800 0.278300
vt 0.309000 0.339700
vt 0.392400 0.200900
vt 0.493800 0.283100
vt 0.331100 0.135100
vt 0.414600 0.190000
vt 0.314600 0.180500
vt 0.434100 0.162500
vt 0.403500 0.134700
vt 0.344500 0.109600
vt 0.373400 0.097900
vt 0.422300 0.074900
vt 0.472000 0.058600
vt 0.449700 0.127200
vt 0.487900 0.098900
vt 0.501200 0.169300
vt 0.517000 0.143000
vt 0.535500 0.086000
vt 0.534200 0.113800
vt 0.491800 0.200700
vt 0.501000 0.226300
vt 0.497400 0.254700
vt 0.527300 0.254700
vt 0.571500 0.276000
vt 0.621600 0.280300
vt 0.184900 0.224900
vt 0.184900 0.224900
vt 0.184900 0.224900
vt 0.184900 0.224900
vt 0.184900 0.224900
vt 0.184900 0.224900
vt 0.184900 0.224900
vt 0.184900 0.224900
vt 0.184900 0.224900
vt 0.184900 0.224900
vt 0.184900 0.224900
vt 0.184900 0.224900
vt 0.184900 0.224900
vt 0.184900 0.224900
vt 0.184900 0.224900
vt 0.184900 0.224900
vt 0.184900 0.224900
vt 0.184900 0.224900
vt 0.184900 0.224900
vt 0.184900 0.224900
vt 0.184900 0.224900
vt 0.184900 0.224900
vt 0.184900 0.224900
vt 0.184900 0.224900
vt 0.184900 0.224900
vt 0.184900 0.224900
vt 0.184900 0.224900
vt 0.184900 0.224900
vt 0.184900 0.224900
vt 0.184900 0.224900
vt 0.184900 0.224900
vt 0.184900 0.224900
vt 0.184900 0.224900
vt 0.184900 0.224900
vt 0.184900 0.224900
vt 0.184900 0.224900
vt 0.184900 0.224900
vt 0.184900 0.224900
vt 0.184900 0.224900
vt 0.184900 0.224900
vt 0.184900 0.224900
vt 0.184900 0.224900
vt 0.184900 0.224900
vt 0.184900 0.224900
vt 0.184900 0.224900
vt 0.184900 0.224900
vt 0.184900 0.224900
vt 0.488500 0.642000
vt 0.726400 0.817300
vt 0.641900 0.618800
vt 0.563900 0.783000
vt 0.570000 0.809500
vt 0.489300 0.904300
vt 0.710800 0.842400
vt 0.635100 0.949300
vt 0.010227 0.999664
vt 0.127100 0.999664
vt 0.127100 0.775473
vt 0.243974 0.999664
vt 0.243974 0.775473
vt 0.127100 0.775473
vt 0.243974 0.775473
vt 0.127124 0.781302
vt 0.010227 0.999664
vt 0.127100 0.999664
vt 0.127100 0.775473
vt 0.243974 0.999664
vt 0.243974 0.775473
vt 0.010227 0.999664
vt 0.127100 0.999664
vt 0.243974 0.999664
vt 0.243974 0.775473
vt 0.127100 0.775473
vt 0.243974 0.551283
vt 0.127100 0.551283
vt 0.010227 0.999664
vt 0.127100 0.999664
vt 0.243974 0.999664
vt 0.243974 0.775473
vt 0.010227 0.551283
vt 0.010227 0.775473
vt 0.010227 0.551283
vt 0.010227 0.775473
vt 0.010227 0.999664
vt 0.127100 0.999664
vt 0.127357 0.780719
vt 0.243974 0.551283
vt 0.127100 0.551283
vt 0.010227 0.551283
vt 0.010227 0.775473
vt 0.243974 0.999664
vt 0.243974 0.775473
vt 0.243974 0.551283
vt 0.127100 0.551283
vt 0.010227 0.551283
vt 0.010227 0.775473
vt 0.010227 0.775473
vt 0.243974 0.551283
vt 0.127100 0.551283
vt 0.243974 0.551283
vt 0.127100 0.551283
vt 0.010227 0.551283
vt 0.010227 0.775473
vt 0.003483 0.999042
vt 0.123408 0.999042
vt 0.123408 0.785311
vt 0.243333 0.999042
vt 0.243333 0.785311
vt 0.123408 0.785311
vt 0.243333 0.785311
vt 0.123432 0.806001
vt 0.003483 0.999042
vt 0.123408 0.999042
vt 0.123408 0.785311
vt 0.243333 0.999042
vt 0.243333 0.785311
vt 0.003483 0.999042
vt 0.123408 0.999042
vt 0.243333 0.999042
vt 0.243333 0.785311
vt 0.123408 0.785311
vt 0.243333 0.571581
vt 0.123408 0.571581
vt 0.003483 0.999042
vt 0.123408 0.999042
vt 0.243333 0.999042
vt 0.243333 0.785311
vt 0.003483 0.571581
vt 0.003483 0.785311
vt 0.003483 0.571581
vt 0.003483 0.785311
vt 0.003483 0.999042
vt 0.123408 0.999042
vt 0.124536 0.803949
vt 0.243333 0.571581
vt 0.123408 0.571581
vt 0.003483 0.571581
vt 0.003483 0.785311
vt 0.243333 0.999042
vt 0.243333 0.785311
vt 0.243333 0.571581
vt 0.123408 0.571581
vt 0.003483 0.571581
vt 0.003483 0.785311
vt 0.003483 0.785311
vt 0.243333 0.571581
vt 0.123408 0.571581
vt 0.243333 0.571581
vt 0.123408 0.571581
vt 0.003483 0.571581
vt 0.003483 0.785311
vt 0.003483 0.999042
vt 0.123408 0.999042
vt 0.123408 0.785311
vt 0.243333 0.999042
vt 0.243333 0.785311
vt 0.123408 0.785311
vt 0.243333 0.785311
vt 0.123408 0.799760
vt 0.003483 0.999042
vt 0.123408 0.999042
vt 0.123408 0.785311
vt 0.243333 0.999042
vt 0.243333 0.785311
vt 0.003483 0.785311
vt 0.003483 0.999042
vt 0.123408 0.999042
vt 0.243333 0.999042
vt 0.243333 0.785311
vt 0.123408 0.785311
vt 0.243333 0.571581
vt 0.123408 0.571581
vt 0.003483 0.999042
vt 0.123408 0.999042
vt 0.243333 0.999042
vt 0.243333 0.785311
vt 0.003483 0.571581
vt 0.003483 0.571581
vt 0.003483 0.785311
vt 0.003483 0.999042
vt 0.123408 0.999042
vt 0.124224 0.798306
vt 0.243333 0.571581
vt 0.123408 0.571581
vt 0.003483 0.571581
vt 0.003483 0.785311
vt 0.243333 0.999042
vt 0.243333 0.785311
vt 0.243333 0.571581
vt 0.123408 0.571581
vt 0.003483 0.571581
vt 0.003483 0.785311
vt 0.003483 0.785311
vt 0.243333 0.571581
vt 0.123408 0.571581
vt 0.243333 0.571581
vt 0.123408 0.571581
vt 0.003483 0.571581
vt 0.003483 0.785311
vt 0.007745 0.995088
vt 0.116024 0.995088
vt 0.116024 0.827124
vt 0.224304 0.995088
vt 0.224304 0.827124
vt 0.116024 0.827124
vt 0.224304 0.827124
vt 0.115938 0.840293
vt 0.007745 0.995088
vt 0.116024 0.995088
vt 0.116024 0.827124
vt 0.224304 0.995088
vt 0.224304 0.827124
vt 0.007745 0.827124
vt 0.007745 0.995088
vt 0.116024 0.995088
vt 0.224304 0.995088
vt 0.224304 0.827124
vt 0.116024 0.827124
vt 0.224304 0.659161
vt 0.116024 0.659161
vt 0.007745 0.995088
vt 0.116024 0.995088
vt 0.224304 0.995088
vt 0.224304 0.827124
vt 0.007745 0.659161
vt 0.007745 0.659161
vt 0.007745 0.827124
vt 0.007745 0.995088
vt 0.116024 0.995088
vt 0.116977 0.838983
vt 0.224304 0.659161
vt 0.116024 0.659161
vt 0.007745 0.659161
vt 0.007745 0.827124
vt 0.224304 0.995088
vt 0.224304 0.827124
vt 0.224304 0.659161
vt 0.116024 0.659161
vt 0.007745 0.659161
vt 0.007745 0.827124
vt 0.007745 0.827124
vt 0.224304 0.659161
vt 0.116024 0.659161
vt 0.224304 0.659161
vt 0.116024 0.659161
vt 0.007745 0.659161
vt 0.007745 0.827124
vt 0.007745 0.995088
vt 0.116024 0.995088
vt 0.116024 0.827124
vt 0.224304 0.995088
vt 0.224304 0.827124
vt 0.116024 0.827124
vt 0.224304 0.827124
vt 0.116024 0.846944
vt 0.007745 0.995088
vt 0.116024 0.995088
vt 0.116024 0.827124
vt 0.224304 0.995088
vt 0.224304 0.827124
vt 0.007745 0.827124
vt 0.007745 0.995088
vt 0.116024 0.995088
vt 0.224304 0.995088
vt 0.224304 0.827124
vt 0.116024 0.827124
vt 0.224304 0.659161
vt 0.116024 0.659161
vt 0.007745 0.995088
vt 0.116024 0.995088
vt 0.224304 0.995088
vt 0.224304 0.827124
vt 0.007745 0.659161
vt 0.007745 0.659161
vt 0.007745 0.827124
vt 0.007745 0.995088
vt 0.116024 0.995088
vt 0.117302 0.844962
vt 0.224304 0.659161
vt 0.116024 0.659161
vt 0.007745 0.659161
vt 0.007745 0.827124
vt 0.224304 0.995088
vt 0.224304 0.827124
vt 0.224304 0.659161
vt 0.116024 0.659161
vt 0.007745 0.659161
vt 0.007745 0.827124
vt 0.007745 0.827124
vt 0.224304 0.659161
vt 0.116024 0.659161
vt 0.224304 0.659161
vt 0.116024 0.659161
vt 0.007745 0.659161
vt 0.007745 0.827124
vt 0.845796 0.127895
vt 0.771158 0.155304
vt 0.709751 0.136671
vt 0.690175 0.109351
vt 0.829444 0.100635
vt 0.687339 0.079956
vt 0.734251 0.075273
vt 0.792564 0.071166
vt 0.791558 0.062273
vt 0.829599 0.085974
vt 0.855029 0.112760
vt 0.734819 0.065252
vt 0.686126 0.070544
vt 0.983010 0.054916
vt 0.975229 0.091122
vt 0.862350 0.077562
vt 0.861721 0.045426
vt 0.968618 0.015471
vt 0.923464 0.012780
vt 0.873603 0.013765
vt 0.702143 0.100354
vt 0.738610 0.127140
vt 0.785652 0.139369
vt 0.854694 0.110152
vt 0.850706 0.128933
vt 0.705513 0.137727
vt 0.771050 0.156399
vt 0.684622 0.110350
vt 0.833255 0.101615
vt 0.681594 0.080893
vt 0.731662 0.076199
vt 0.793895 0.072084
vt 0.833421 0.086924
vt 0.792822 0.063171
vt 0.860560 0.113766
vt 0.732267 0.066157
vt 0.680301 0.071460
vt 0.983245 0.054903
vt 0.862411 0.077560
vt 0.975583 0.091103
vt 0.861550 0.045414
vt 0.968513 0.015582
vt 0.923417 0.012723
vt 0.873591 0.013776
vt 0.697394 0.101333
vt 0.736314 0.128175
vt 0.786519 0.140430
vt 0.860202 0.111152
vt 0.349000 0.990800
vt 0.259800 0.934500
vt 0.184900 0.224900
vt 0.184900 0.224900
vt 0.184900 0.224900
vt 0.184900 0.224900
vt 0.184900 0.224900
vt 0.184900 0.224900
vt 0.184900 0.224900
vt 0.184900 0.224900
vt 0.184900 0.224900
vt 0.184900 0.224900
vt 0.184900 0.224900
vt 0.184900 0.224900
vt 0.184900 0.224900
vt 0.184900 0.224900
vt 0.184900 0.224900
vt 0.184900 0.224900
vt 0.184900 0.224900
vt 0.184900 0.224900
vt 0.184900 0.224900
vt 0.184900 0.224900
vt 0.184900 0.224900
vt 0.184900 0.224900
vt 0.184900 0.224900
vt 0.184900 0.224900
vt 0.184900 0.224900
vt 0.184900 0.224900
vt 0.184900 0.224900
vt 0.184900 0.224900
vt 0.184900 0.224900
vt 0.184900 0.224900
vt 0.184900 0.224900
vt 0.184900 0.224900
vt 0.479700 0.362000
vt 0.413700 0.483700
vt 0.513800 0.372600
vt 0.432600 0.496200
vt 0.297400 0.458800
vt 0.362700 0.463400
vt 0.488500 0.642000
vt 0.563900 0.783000
vt 0.548800 0.798900
vt 0.570000 0.809500
vt 0.726400 0.817300
vt 0.710800 0.842400
vt 0.432600 0.496200
vt 0.513800 0.372600
vt 0.641900 0.618800
vt 0.488500 0.642000
vt 0.726400 0.817300
vt 0.563900 0.783000
vt 0.432600 0.496200
vt 0.513800 0.372600
vt 1.954300 0.667200
vt 2.310300 0.568000
vt 2.311600 0.426500
vt 0.650700 0.007459
vt 0.650700 0.064721
vt 0.746652 0.056658
vt 0.577741 0.064721
vt 0.650700 0.064721
vt 0.650700 0.007459
vt 0.481788 0.056658
vt 0.577741 0.064721
vt 0.577741 0.007459
vt -1.311600 0.426500
vt -1.310300 0.568000
vt -0.954300 0.667200
vt 0.086988 0.230555
vt 0.143969 0.269150
vt 0.159239 0.194369
vt 0.076936 0.144405
vt 0.076936 0.187487
vt 0.159239 0.194369
vt 0.086988 0.101323
vt 0.076936 0.144405
vt 0.159239 0.137509
vt 1.954300 0.667200
vt 2.311600 0.426500
vt 1.956400 0.423400
vt 0.650700 0.007459
vt 0.746652 0.056658
vt 0.746652 0.007640
vt 0.577741 0.064721
vt 0.650700 0.007459
vt 0.577741 0.007459
vt 0.481788 0.056658
vt 0.577741 0.007459
vt 0.481788 0.007640
vt -1.311600 0.426500
vt -0.954300 0.667200
vt -0.956400 0.423400
vt 0.086988 0.230555
vt 0.159239 0.194369
vt 0.076936 0.187487
vt 0.076936 0.144405
vt 0.159239 0.194369
vt 0.159239 0.137509
vt 0.086988 0.101323
vt 0.159239 0.137509
vt 0.143969 0.062729
vt 0.309000 0.339700
vt 0.297400 0.458800
vt 0.405000 0.346600
vt 0.362700 0.463400
vt 0.210000 0.331200
vt 0.224500 0.462800
vt 0.095900 0.340400
vt 0.163400 0.503300
vt 0.044500 0.385700
vt 0.116000 0.521500
vt 0.000700 0.419100
vt 0.070300 0.541500
vt 0.479700 0.362000
vt 0.413700 0.483700
vn 0.9883 -0.0156 -0.1520
vn 0.9923 -0.0256 -0.1209
vn 0.9893 0.0060 -0.1460
vn -0.4250 -0.2777 0.8615
vn -0.4703 -0.5640 0.6788
vn 0.0004 -0.7104 0.7038
vn -0.0005 -0.3026 0.9531
vn 0.4489 -0.1392 -0.8827
vn -0.0085 -0.1557 -0.9878
vn 0.4027 0.0322 -0.9148
vn -0.0001 0.0276 -0.9996
vn -0.8153 -0.2178 -0.5365
vn -0.7542 -0.3293 -0.5681
vn -0.6214 -0.3917 -0.6786
vn -0.8299 -0.1049 -0.5479
vn -0.0224 -0.4946 -0.8688
vn -0.1318 -0.4777 -0.8686
vn -0.4406 -0.1499 -0.8851
vn -0.3005 -0.4704 -0.8297
vn 0.6855 -0.6519 0.3242
vn 0.8913 -0.3214 0.3198
vn 0.9256 -0.2023 0.3200
vn 0.5999 -0.7705 0.2158
vn 0.7210 0.6898 -0.0660
vn 0.9832 0.0058 0.1823
vn 0.9594 -0.0146 0.2816
vn 0.9291 -0.0586 0.3653
vn 0.7670 -0.4567 0.4507
vn 0.8856 -0.0141 0.4641
vn 0.9551 -0.0154 0.2958
vn -0.0665 -0.0104 0.9977
vn -0.0554 -0.0172 0.9983
vn 0.4020 -0.0324 0.9151
vn 0.4406 0.1499 0.8851
vn 0.4380 -0.2865 0.8521
vn 0.0000 -0.9882 -0.1533
vn -0.0047 -0.6053 -0.7960
vn 0.1223 -0.5023 -0.8560
vn 0.2166 -0.9584 -0.1860
vn 0.1810 -0.9759 0.1218
vn 0.0000 -0.9999 -0.0112
vn -0.0000 -0.9830 0.1836
vn 0.1861 -0.9503 0.2495
vn -0.0000 -0.9374 0.3482
vn 0.2371 -0.8870 0.3962
vn 0.2767 -0.8227 0.4966
vn -0.0013 -0.8740 0.4859
vn 0.3073 -0.7838 0.5397
vn 0.4613 -0.5725 0.6778
vn -0.8249 0.0400 -0.5639
vn 0.7166 -0.4289 0.5500
vn 0.8268 -0.1289 0.5476
vn 0.5840 -0.8061 0.0953
vn 0.5223 -0.8424 -0.1328
vn 0.5388 -0.4686 -0.7001
vn 0.8816 -0.0944 -0.4624
vn 0.8832 0.3769 -0.2792
vn 0.8887 -0.3276 0.3206
vn 0.9042 -0.2134 0.3700
vn 0.8249 -0.0400 0.5639
vn -0.4020 0.0324 -0.9151
vn -0.8268 0.1289 -0.5476
vn 0.9147 -0.0233 0.4034
vn 0.8343 0.0247 0.5508
vn 0.9974 0.0555 0.0462
vn 0.9992 0.0177 -0.0352
vn 0.9883 0.0512 -0.1436
vn 0.9830 0.0471 -0.1773
vn 0.8299 0.1049 0.5479
vn 0.1318 0.4777 0.8686
vn 0.3005 0.4704 0.8297
vn 0.6214 0.3917 0.6786
vn 0.0224 0.4947 0.8688
vn -0.4380 0.2865 -0.8521
vn -0.4613 0.5725 -0.6778
vn -0.4672 0.6593 -0.5891
vn -0.5185 0.6538 -0.5510
vn -0.0004 0.7104 -0.7038
vn 0.0005 0.3026 -0.9531
vn 0.8564 0.0997 0.5066
vn 0.5867 0.2541 0.7689
vn 0.9796 -0.0124 0.2006
vn 0.9977 -0.0315 -0.0608
vn 0.3104 0.3620 0.8790
vn 0.5525 0.1589 0.8182
vn 0.1606 0.4118 0.8970
vn 0.2942 0.3705 0.8810
vn 0.8769 0.0475 0.4783
vn 0.2000 0.7091 0.6761
vn 0.6611 0.3836 0.6449
vn 0.1083 0.4458 0.8885
vn 0.0049 0.2612 0.9653
vn 0.0178 0.4089 0.9124
vn -0.0001 0.4632 0.8863
vn -0.0000 0.8254 0.5646
vn 0.6545 0.6141 0.4411
vn 0.3999 0.8179 0.4137
vn 0.2115 0.8780 0.4294
vn -0.0000 0.9936 0.1126
vn 0.2406 0.9485 0.2060
vn 0.2906 0.9377 -0.1905
vn -0.0000 1.0000 0.0042
vn -0.0025 0.7268 -0.6868
vn 0.2307 0.5725 -0.7868
vn 0.6174 0.7804 0.0993
vn 0.6027 0.7661 -0.2233
vn 0.8350 -0.5039 -0.2210
vn 0.8606 -0.2635 -0.4358
vn 0.5676 0.2610 -0.7808
vn 0.9253 -0.2344 -0.2980
vn 0.7777 -0.3154 -0.5438
vn 0.6119 -0.3197 -0.7235
vn 0.8926 -0.2047 -0.4017
vn 0.9287 0.0391 0.3688
vn 0.9732 -0.0380 0.2270
vn 0.9250 -0.0338 0.3785
vn 0.9931 -0.0903 0.0744
vn 0.9870 -0.0532 0.1514
vn 0.9942 -0.0660 -0.0848
vn -0.9881 -0.0155 -0.1530
vn -0.9890 -0.0077 -0.1478
vn -0.9923 -0.0256 -0.1211
vn -0.8912 -0.3213 0.3201
vn -0.6856 -0.6519 0.3239
vn -0.9257 -0.2022 0.3198
vn -0.7348 0.6703 -0.1042
vn -0.5998 -0.7705 0.2158
vn -0.9832 0.0058 0.1822
vn -0.9292 -0.0586 0.3648
vn -0.9594 -0.0146 0.2815
vn -0.7671 -0.4566 0.4507
vn -0.8857 -0.0142 0.4640
vn -0.9552 -0.0154 0.2957
vn -0.0616 -0.0134 0.9980
vn -0.0737 -0.0060 0.9973
vn -0.1232 -0.4611 -0.8788
vn -0.2165 -0.9584 -0.1861
vn -0.1810 -0.9759 0.1218
vn -0.1863 -0.9503 0.2493
vn -0.2373 -0.8870 0.3962
vn -0.2745 -0.8197 0.5027
vn -0.3028 -0.7811 0.5461
vn -0.7143 -0.4309 0.5515
vn -0.8266 -0.1236 0.5490
vn -0.5841 -0.8061 0.0953
vn -0.5220 -0.8426 -0.1329
vn -0.5841 -0.3400 -0.7371
vn -0.6324 0.3850 -0.6723
vn -0.9219 0.1953 -0.3346
vn -0.8565 0.4533 -0.2468
vn -0.9043 -0.2130 0.3700
vn -0.8889 -0.3269 0.3208
vn -0.8252 -0.0399 0.5634
vn -0.9148 -0.0233 0.4032
vn -0.8343 0.0247 0.5507
vn -0.9974 0.0554 0.0461
vn -0.9991 0.0140 -0.0397
vn -0.9844 0.0566 -0.1666
vn -0.9770 0.0425 -0.2091
vn -0.8286 0.1104 0.5488
vn -0.1163 0.4620 0.8792
vn -0.3064 0.4367 0.8458
vn -0.6362 0.3823 0.6702
vn 0.4250 0.2777 -0.8615
vn 0.4703 0.5640 -0.6788
vn -0.8614 0.0923 0.4994
vn -0.6106 0.2534 0.7503
vn -0.9796 -0.0124 0.2005
vn -0.9977 -0.0315 -0.0607
vn -0.3221 0.3643 0.8738
vn -0.5603 0.1598 0.8128
vn -0.1573 0.4126 0.8972
vn -0.2976 0.3734 0.8787
vn -0.8769 0.0473 0.4784
vn -0.2001 0.7091 0.6762
vn -0.6614 0.3850 0.6437
vn -0.1081 0.4506 0.8861
vn -0.6545 0.6140 0.4411
vn -0.4000 0.8178 0.4138
vn -0.2116 0.8780 0.4294
vn -0.2405 0.9486 0.2058
vn -0.2906 0.9377 -0.1906
vn -0.2276 0.5511 -0.8028
vn -0.6176 0.7803 0.0990
vn -0.6026 0.7661 -0.2235
vn -0.7458 -0.2788 -0.6050
vn -0.7789 -0.5482 -0.3046
vn -0.5502 0.1569 -0.8202
vn -0.9197 -0.2281 -0.3197
vn -0.7636 -0.3257 -0.5575
vn -0.8888 -0.2107 -0.4070
vn -0.9272 0.0366 0.3727
vn -0.9248 -0.0337 0.3789
vn -0.9720 -0.0401 0.2314
vn -0.9932 -0.0869 0.0773
vn -0.9870 -0.0534 0.1513
vn -0.9942 -0.0660 -0.0847
vn 0.1648 -0.9777 -0.1299
vn -0.5832 -0.6629 -0.4695
vn 0.2320 -0.5798 -0.7810
vn 0.4859 -0.1878 -0.8536
vn 0.7398 0.5394 -0.4021
vn 0.3085 0.3125 -0.8984
vn 0.6192 0.7848 -0.0273
vn 0.6067 0.5515 -0.5725
vn 0.6667 -0.7447 -0.0318
vn 0.5641 -0.5494 -0.6163
vn 0.3149 -0.3234 -0.8923
vn 0.8406 -0.5417 -0.0021
vn 0.4177 0.2520 -0.8729
vn -0.2629 0.9520 -0.1567
vn -0.1569 0.9191 -0.3613
vn -0.0593 0.9877 -0.1445
vn 0.4274 0.5310 -0.7317
vn 0.2285 0.9732 -0.0242
vn -0.3999 0.3252 -0.8569
vn -0.8228 -0.5683 0.0070
vn -0.3452 -0.3031 -0.8882
vn -0.7156 -0.6962 -0.0579
vn -0.6051 -0.5323 -0.5920
vn -0.6500 0.7599 0.0026
vn -0.5985 0.5518 -0.5807
vn -0.3281 0.3072 -0.8933
vn -0.1829 -0.5569 -0.8102
vn -0.4485 -0.3037 -0.8406
vn 0.1643 -0.8747 -0.4560
vn 0.0632 -0.9540 -0.2931
vn 0.0940 0.5292 0.8433
vn 0.0980 0.5748 0.8124
vn 0.0937 0.5263 0.8451
vn 0.9222 -0.0390 0.3848
vn 0.9216 -0.0609 0.3834
vn 0.9252 -0.0328 0.3780
vn 0.9216 -0.0609 0.3833
vn 0.1503 -0.8014 0.5790
vn -0.0006 -0.8383 0.5451
vn 0.1247 -0.8257 0.5502
vn -0.0023 -0.8558 0.5172
vn -0.4220 0.6204 0.6611
vn -0.7738 0.6167 0.1444
vn -0.9673 -0.2337 -0.0982
vn -0.7553 -0.1394 0.6404
vn -0.0016 -0.2100 0.9777
vn -0.0008 0.7487 0.6629
vn -0.0003 0.9661 0.2583
vn -0.5206 0.7811 -0.3447
vn -0.0004 0.9684 -0.2495
vn -0.0007 0.2100 -0.9777
vn -0.6855 0.0504 -0.7263
vn 0.4256 0.6192 0.6599
vn 0.7583 -0.1386 0.6370
vn 0.9222 -0.3563 -0.1501
vn 0.8270 0.5527 0.1028
vn 0.5085 0.7853 -0.3532
vn 0.6756 0.0530 -0.7353
vn -0.4234 -0.8430 0.3319
vn -0.5450 -0.8020 -0.2444
vn -0.0002 -0.9650 -0.2621
vn -0.0007 -0.9617 0.2740
vn -0.3935 -0.6003 -0.6963
vn -0.0003 -0.7297 -0.6838
vn 0.4276 -0.8418 0.3293
vn 0.4711 -0.8423 -0.2618
vn 0.3840 -0.6008 -0.7011
vn -0.4477 0.6573 0.6062
vn -0.5132 0.8330 0.2068
vn -0.9976 -0.0138 0.0678
vn -0.6949 -0.1434 0.7046
vn -0.0010 -0.1988 0.9800
vn -0.0006 0.7522 0.6589
vn -0.0011 0.9796 0.2012
vn -0.4605 0.8499 -0.2560
vn 0.0049 0.9786 -0.2055
vn 0.0003 0.1987 -0.9801
vn -0.7363 0.1344 -0.6631
vn 0.4453 0.6527 0.6129
vn 0.6875 -0.1449 0.7116
vn 0.9961 -0.0177 0.0861
vn 0.4098 0.8868 0.2135
vn 0.5520 0.7568 -0.3500
vn 0.7432 0.1328 -0.6557
vn -0.4478 -0.8418 0.3014
vn -0.5130 -0.8477 -0.1352
vn -0.0009 -0.9803 -0.1977
vn -0.0003 -0.9498 0.3129
vn -0.4602 -0.6827 -0.5676
vn 0.0049 -0.8208 -0.5712
vn 0.4455 -0.8401 0.3093
vn 0.4097 -0.8998 -0.1499
vn 0.5518 -0.5604 -0.6176
vn -0.4991 0.5241 0.6901
vn -0.4855 0.8506 0.2019
vn -0.9966 -0.0166 0.0812
vn -0.6565 -0.1509 0.7391
vn 0.0000 -0.1993 0.9799
vn -0.0001 0.6251 0.7806
vn 0.0021 0.9791 0.2034
vn -0.6145 0.6223 -0.4849
vn -0.0096 0.9431 -0.3323
vn 0.0001 0.1996 -0.9799
vn -0.7123 0.1404 -0.6877
vn 0.5014 0.5274 0.6859
vn 0.6615 -0.1500 0.7348
vn 0.9976 -0.0140 0.0684
vn 0.6070 0.7688 0.2011
vn 0.5228 0.7659 -0.3743
vn 0.7077 0.1413 -0.6922
vn -0.4990 -0.7521 0.4304
vn -0.4853 -0.8620 -0.1465
vn 0.0021 -0.9807 -0.1953
vn -0.0000 -0.8800 0.4750
vn -0.6132 -0.3832 -0.6907
vn -0.0095 -0.7384 -0.6743
vn 0.5014 -0.7535 0.4253
vn 0.6070 -0.7863 -0.1151
vn 0.5226 -0.5587 -0.6440
vn -0.5108 0.5148 0.6885
vn -0.5089 0.8352 0.2085
vn -0.9951 -0.0218 0.0961
vn -0.6464 -0.1521 0.7477
vn 0.0093 -0.1998 0.9798
vn -0.0296 0.6234 0.7814
vn -0.0443 0.9773 0.2070
vn -0.6307 0.6161 -0.4718
vn -0.0404 0.9712 -0.2346
vn -0.0082 0.1992 -0.9799
vn -0.7190 0.1385 -0.6811
vn 0.4822 0.5314 0.6965
vn 0.6592 -0.1490 0.7370
vn 0.9965 -0.0144 0.0824
vn 0.4590 0.8648 0.2037
vn 0.5987 0.6324 -0.4915
vn 0.7082 0.1416 -0.6916
vn -0.4716 -0.7636 0.4410
vn -0.4586 -0.8770 -0.1434
vn 0.0444 -0.9804 -0.1917
vn 0.0417 -0.8793 0.4745
vn -0.6084 -0.3911 -0.6906
vn 0.0343 -0.8025 -0.5956
vn 0.5207 -0.7407 0.4246
vn 0.5094 -0.8487 -0.1419
vn 0.6213 -0.3815 -0.6844
vn -0.4474 0.6492 0.6151
vn -0.4126 0.8844 0.2181
vn -0.9949 -0.0202 0.0985
vn -0.6871 -0.1457 0.7118
vn 0.0000 -0.1989 0.9800
vn -0.0001 0.7523 0.6588
vn -0.0000 0.9793 0.2026
vn -0.5565 0.7554 -0.3461
vn 0.0009 0.9911 -0.1335
vn -0.0000 0.1988 -0.9800
vn -0.7481 0.1325 -0.6502
vn 0.4485 0.6506 0.6128
vn 0.6898 -0.1452 0.7093
vn 0.9957 -0.0186 0.0903
vn 0.4134 0.8848 0.2150
vn 0.5555 0.7546 -0.3493
vn 0.7455 0.1331 -0.6531
vn -0.4473 -0.8380 0.3125
vn -0.4124 -0.8994 -0.1447
vn -0.0000 -0.9806 -0.1961
vn 0.0000 -0.9498 0.3129
vn -0.5564 -0.5603 -0.6136
vn 0.0000 -0.8603 -0.5097
vn 0.4484 -0.8384 0.3098
vn 0.4132 -0.8986 -0.1477
vn 0.5555 -0.5583 -0.6163
vn 0.1120 0.7511 0.6506
vn -0.4407 0.7603 0.4771
vn -0.6279 0.5380 -0.5624
vn -0.5004 0.7174 -0.4847
vn -0.2597 0.8640 0.4314
vn -0.6017 0.6514 -0.4622
vn -0.8358 0.5421 0.0865
vn -0.5878 0.5500 0.5932
vn -0.6214 -0.6010 0.5026
vn -0.1280 0.4828 0.8663
vn 0.5923 -0.3254 0.7371
vn -0.7658 -0.6409 0.0532
vn -0.6076 -0.5154 -0.6043
vn -0.0108 -0.6577 -0.7532
vn 0.5388 -0.7617 -0.3599
vn 0.3407 -0.9401 -0.0072
vn 0.8264 -0.0193 0.5628
vn -0.1126 0.7506 0.6511
vn 0.6281 0.5378 -0.5623
vn 0.4406 0.7600 0.4778
vn 0.5004 0.7173 -0.4848
vn 0.2595 0.8639 0.4317
vn 0.6022 0.6514 -0.4616
vn 0.8351 0.5431 0.0871
vn 0.5873 0.5508 0.5930
vn 0.1283 0.4830 0.8662
vn 0.6219 -0.6004 0.5027
vn -0.5920 -0.3256 0.7372
vn 0.7667 -0.6398 0.0533
vn 0.6082 -0.5152 -0.6038
vn 0.0106 -0.6581 -0.7528
vn -0.5388 -0.7620 -0.3593
vn -0.3407 -0.9402 -0.0071
vn -0.8263 -0.0194 0.5629
vn -0.1264 -0.8263 0.5488
vn -0.1494 -0.8041 0.5754
vn -0.7784 0.5327 -0.3321
vn -0.6482 -0.1160 -0.7526
vn -0.3054 -0.1508 -0.9402
vn -0.1180 0.9696 -0.2142
vn -0.6276 0.7614 -0.1625
vn -0.0450 0.9900 -0.1339
vn 0.5795 0.7981 -0.1654
vn 0.1022 0.6239 0.7748
vn 0.6762 -0.1430 -0.7227
vn 0.5985 -0.5176 -0.6115
vn 0.2274 -0.2020 -0.9526
vn 0.6621 -0.2811 -0.6947
vn -0.6227 -0.2856 -0.7285
vn 0.6552 0.6740 -0.3412
vn 0.6902 0.6794 -0.2489
vn 0.3152 0.9439 -0.0984
vn -0.7132 0.6120 -0.3417
vn -0.7563 0.5999 -0.2608
vn -0.5892 -0.3851 -0.7103
vn 0.6237 -0.3778 -0.6843
vn 0.8299 -0.1953 -0.5225
vn 0.6362 -0.3823 -0.6702
vn 0.7681 -0.3068 -0.5620
vn 0.8287 -0.1104 -0.5488
vn 0.1163 -0.4620 -0.8792
vn 0.3064 -0.4367 -0.8458
vn 0.8252 0.0399 -0.5634
vn 0.8266 0.1236 -0.5490
vn 0.4624 0.6636 -0.5880
vn 0.5099 0.6630 -0.5482
vn -0.9344 0.0029 0.3562
vn -0.9378 0.0086 0.3470
vn -0.9253 -0.0328 0.3779
vn -0.9222 -0.0390 0.3847
vn -0.9216 -0.0609 0.3832
vn -0.9217 -0.0609 0.3832
vn 0.9344 0.0029 0.3563
vn 0.9378 0.0086 0.3471
vn -0.7987 0.6017 -0.0001
vn -0.1804 -0.9836 0.0000
vn -0.0000 -1.0000 0.0000
vn 0.1804 -0.9836 0.0001
vn 0.7988 0.6016 0.0000
vn -0.1680 0.2127 0.9626
vn -0.0001 0.2126 0.9771
vn 0.1490 0.2235 0.9633
vn -0.1492 0.2234 0.9632
vn 0.1679 0.2127 0.9626
vn -0.3221 0.3642 0.8738
usemtl 52body.jpg.001
s 1
f 1/1/1 2/2/2 3/3/3
f 4/4/4 5/5/5 6/6/6
f 7/7/7 4/4/4 6/6/6
f 8/8/8 9/9/9 10/10/10
f 9/9/9 11/11/11 10/10/10
f 12/12/12 13/13/13 14/14/14
f 14/14/14 13/13/13 15/15/15
f 9/9/9 16/16/16 17/17/17
f 18/18/18 14/14/14 15/15/15
f 19/19/19 14/14/14 18/18/18
f 17/17/17 19/19/19 18/18/18
f 20/20/20 21/21/21 22/22/22
f 20/20/20 23/23/23 24/24/24
f 25/25/25 26/26/26 27/27/27
f 26/26/26 28/28/28 27/27/27
f 28/28/28 22/22/22 27/27/27
f 27/27/27 29/29/29 30/30/30
f 25/25/25 27/27/27 30/30/30
f 31/31/31 32/32/32 33/33/33
f 34/34/34 31/31/31 33/33/33
f 7/7/7 35/35/35 32/32/32
f 33/33/33 32/32/32 35/35/35
f 36/36/36 37/37/37 38/38/38
f 39/39/39 36/36/36 38/38/38
f 40/40/40 36/36/36 39/39/39
f 41/41/41 36/36/36 40/40/40
f 42/42/42 41/41/41 40/40/40
f 42/42/42 40/40/40 43/43/43
f 44/44/44 42/42/42 43/43/43
f 44/44/44 43/43/43 45/45/45
f 44/44/44 45/45/45 46/46/46
f 47/47/47 44/44/44 46/46/46
f 48/48/48 47/47/47 46/46/46
f 7/7/7 6/6/6 35/35/35
f 35/35/35 6/6/6 49/49/49
f 9/9/9 17/17/17 18/18/18
f 18/18/18 15/15/15 50/50/50
f 49/49/49 48/48/48 51/51/51
f 52/52/52 49/49/49 51/51/51
f 48/48/48 46/46/46 51/51/51
f 51/51/51 46/46/46 28/28/28
f 46/46/46 45/45/45 28/28/28
f 28/28/28 45/45/45 20/20/20
f 45/45/45 43/43/43 23/23/23
f 45/45/45 23/23/23 20/20/20
f 28/28/28 20/20/20 22/22/22
f 43/43/43 40/40/40 23/23/23
f 23/23/23 40/40/40 53/53/53
f 40/40/40 39/39/39 53/53/53
f 53/53/53 39/39/39 54/54/54
f 39/39/39 38/38/38 54/54/54
f 54/54/54 38/38/38 55/55/55
f 54/54/54 55/55/55 56/56/56
f 53/53/53 54/54/54 56/56/56
f 53/53/53 56/56/56 57/57/57
f 53/53/53 57/57/57 24/24/24
f 23/23/23 53/53/53 24/24/24
f 21/21/58 58/58/59 22/22/22
f 35/35/35 52/52/52 33/33/33
f 35/35/35 49/49/49 52/52/52
f 33/33/33 52/52/52 59/59/60
f 18/18/18 50/50/50 60/60/61
f 60/60/61 50/50/50 61/61/62
f 62/62/63 51/51/51 26/26/26
f 51/51/51 28/28/28 26/26/26
f 22/22/22 58/58/59 63/63/64
f 29/29/29 63/63/64 30/30/30
f 25/25/25 30/30/30 64/64/65
f 25/25/25 64/64/65 65/65/66
f 26/26/26 25/25/25 65/65/66
f 65/65/66 64/64/65 66/66/67
f 65/65/66 66/66/67 67/67/68
f 65/65/66 67/67/68 3/3/3
f 34/34/34 33/33/33 59/59/60
f 34/34/34 59/59/60 68/68/69
f 31/31/31 34/34/34 69/69/70
f 69/69/70 34/34/34 70/70/71
f 70/70/71 34/34/34 71/71/72
f 34/34/34 68/68/69 71/71/72
f 31/31/31 69/69/70 72/72/73
f 73/73/74 61/61/62 74/74/75
f 73/73/74 60/60/61 61/61/62
f 61/61/62 75/75/76 74/74/75
f 74/74/75 75/75/76 76/76/77
f 73/73/74 74/74/75 77/77/78
f 78/78/79 73/73/74 77/77/78
f 60/60/61 73/73/74 11/11/11
f 78/78/79 11/11/11 73/73/74
f 71/71/72 68/68/69 79/79/80
f 80/80/81 71/71/72 79/79/80
f 62/62/63 26/26/26 79/79/80
f 79/79/80 26/26/26 81/81/82
f 65/65/66 82/82/83 26/26/26
f 81/81/82 26/26/26 82/82/83
f 83/83/84 80/80/81 84/84/85
f 85/85/86 83/83/84 84/84/85
f 86/86/87 85/85/86 84/84/85
f 80/80/81 79/79/80 84/84/85
f 79/79/80 81/81/82 87/87/88
f 84/84/85 79/79/80 87/87/88
f 88/88/89 86/86/87 89/89/90
f 86/86/87 84/84/85 89/89/90
f 89/89/90 84/84/85 87/87/88
f 85/85/86 86/86/87 90/90/91
f 91/91/92 85/85/86 90/90/91
f 92/92/93 85/85/86 91/91/92
f 91/91/92 90/90/91 93/93/94
f 86/86/87 88/88/89 90/90/91
f 90/90/91 88/88/89 93/93/94
f 94/94/95 93/93/94 88/88/89
f 89/89/90 95/95/96 88/88/89
f 95/95/96 96/96/97 88/88/89
f 88/88/89 97/97/98 94/94/95
f 98/98/99 94/94/95 97/97/98
f 88/88/89 96/96/97 97/97/98
f 98/98/99 97/97/98 99/99/100
f 99/99/100 100/100/101 98/98/99
f 98/98/99 100/100/101 101/101/102
f 102/102/103 101/101/102 100/100/101
f 102/102/103 100/100/101 103/103/104
f 95/95/96 104/104/105 96/96/97
f 96/96/97 104/104/105 97/97/98
f 97/97/98 104/104/105 99/99/100
f 99/99/100 104/104/105 100/100/101
f 100/100/101 104/104/105 105/105/106
f 95/95/96 106/106/107 104/104/105
f 104/104/105 107/107/108 105/105/106
f 100/100/101 105/105/106 103/103/104
f 103/103/104 105/105/106 108/108/109
f 108/108/109 105/105/106 109/109/110
f 109/109/110 105/105/106 107/107/108
f 107/107/108 104/104/105 106/106/107
f 95/95/96 89/89/90 110/110/111
f 95/95/96 111/111/112 106/106/107
f 110/110/111 89/89/90 112/112/113
f 89/89/90 113/113/114 112/112/113
f 113/113/115 114/114/116 112/112/117
f 87/87/88 81/81/82 115/115/118
f 114/114/116 87/87/88 115/115/118
f 81/81/82 82/82/83 116/116/119
f 115/115/118 81/81/82 116/116/119
f 116/116/119 82/82/83 2/2/2
f 65/65/66 3/3/3 82/82/83
f 82/82/83 3/3/3 2/2/2
f 117/117/120 118/118/121 119/119/122
f 120/120/123 121/121/124 122/122/125
f 121/121/124 123/123/126 124/124/127
f 125/125/128 126/126/129 127/127/130
f 127/127/130 126/126/129 128/128/131
f 128/128/131 126/126/129 122/122/125
f 126/126/129 129/129/132 122/122/125
f 125/125/128 130/130/133 126/126/129
f 31/31/31 131/131/134 32/32/32
f 132/132/135 131/131/134 31/31/31
f 7/7/7 32/32/32 4/133/4
f 131/131/134 4/133/4 32/32/32
f 36/36/36 133/134/136 37/37/37
f 134/135/137 133/134/136 36/36/36
f 135/136/138 134/135/137 36/36/36
f 41/41/41 135/136/138 36/36/36
f 42/42/42 135/136/138 41/41/41
f 42/42/42 136/137/139 135/136/138
f 44/44/44 136/137/139 42/42/42
f 44/44/44 137/138/140 136/137/139
f 44/44/44 138/139/141 137/138/140
f 47/47/47 138/139/141 44/44/44
f 139/140/142 138/139/141 47/47/47
f 5/141/5 140/142/143 139/140/142
f 141/143/144 140/142/143 5/141/5
f 139/140/142 140/142/143 138/139/141
f 140/142/143 128/128/131 138/139/141
f 138/139/141 128/128/131 137/138/140
f 128/128/131 121/121/124 137/138/140
f 137/138/140 124/124/127 136/137/139
f 137/138/140 121/121/124 124/124/127
f 128/128/131 122/122/125 121/121/124
f 136/137/139 124/124/127 135/136/138
f 124/124/127 142/144/145 135/136/138
f 135/136/138 142/144/145 134/135/137
f 142/144/145 143/145/146 134/135/137
f 134/135/137 143/145/146 133/134/136
f 143/145/146 144/146/147 133/134/136
f 143/145/146 145/147/148 144/146/147
f 142/144/145 145/147/148 143/145/146
f 142/144/145 146/148/149 145/147/148
f 142/144/145 147/149/150 146/148/149
f 124/124/127 123/123/126 142/144/145
f 148/150/151 120/120/152 122/122/125
f 4/133/4 131/131/134 141/143/144
f 4/133/4 141/143/144 5/141/5
f 131/131/134 149/151/153 141/143/144
f 18/18/18 60/60/61 9/9/9
f 9/9/9 60/60/61 11/11/11
f 150/152/154 127/127/130 140/142/143
f 140/142/143 127/127/130 128/128/131
f 122/122/125 151/153/155 148/150/151
f 151/153/155 129/129/132 130/130/133
f 125/125/128 152/154/156 130/130/133
f 125/125/128 153/155/157 152/154/156
f 127/127/130 153/155/157 125/125/128
f 153/155/157 154/156/158 152/154/156
f 153/155/157 155/157/159 154/156/158
f 153/155/157 118/118/121 155/157/159
f 132/132/135 149/151/153 131/131/134
f 132/132/135 156/158/160 149/151/153
f 31/31/31 157/159/161 132/132/135
f 157/159/161 158/160/162 132/132/135
f 158/160/162 159/161/163 132/132/135
f 132/132/135 159/161/163 156/158/160
f 31/31/31 72/72/73 157/159/161
f 78/78/79 77/77/78 160/162/164
f 160/162/164 77/77/78 161/163/165
f 159/161/163 162/164/166 156/158/160
f 163/165/167 162/164/166 159/161/163
f 150/152/154 162/164/166 127/127/130
f 162/164/166 164/166/168 127/127/130
f 153/155/157 127/127/130 165/167/169
f 164/166/168 165/167/169 127/127/130
f 166/168/170 167/169/171 163/165/167
f 168/170/172 167/169/171 166/168/170
f 169/171/173 167/169/171 168/170/172
f 163/165/167 167/169/171 162/164/166
f 162/164/166 170/172/174 164/166/168
f 167/169/171 170/172/174 162/164/166
f 171/173/175 172/174/176 169/171/173
f 169/171/173 172/174/176 167/169/171
f 172/174/176 170/172/174 167/169/171
f 168/170/172 173/175/177 169/171/173
f 91/91/92 173/175/177 168/170/172
f 92/92/93 91/91/92 168/170/172
f 91/91/92 93/93/94 173/175/177
f 169/171/173 173/175/177 171/173/175
f 173/175/177 93/93/94 171/173/175
f 94/94/95 171/173/175 93/93/94
f 172/174/176 171/173/175 174/176/178
f 174/176/178 171/173/175 175/177/179
f 171/173/175 94/94/95 176/178/180
f 98/98/99 176/178/180 94/94/95
f 171/173/175 176/178/180 175/177/179
f 98/98/99 177/179/181 176/178/180
f 177/179/181 98/98/99 178/180/182
f 98/98/99 101/101/102 178/180/182
f 102/102/103 178/180/182 101/101/102
f 102/102/103 179/181/183 178/180/182
f 174/176/178 175/177/179 180/182/184
f 175/177/179 176/178/180 180/182/184
f 176/178/180 177/179/181 180/182/184
f 177/179/181 178/180/182 180/182/184
f 178/180/182 181/183/185 180/182/184
f 174/176/178 180/182/184 182/184/186
f 180/182/184 181/183/185 183/185/187
f 178/180/182 179/181/183 181/183/185
f 179/181/183 184/186/188 181/183/185
f 184/186/188 185/187/189 181/183/185
f 185/187/189 183/185/187 181/183/185
f 183/185/187 182/184/186 180/182/184
f 174/176/178 186/188/190 172/174/176
f 182/184/186 186/188/190 174/176/178
f 186/188/190 187/189/191 172/174/176
f 172/174/176 188/190/192 170/172/174
f 189/191/193 188/190/194 187/189/195
f 170/172/174 190/192/196 164/166/168
f 189/191/193 190/192/196 170/172/174
f 164/166/168 191/193/197 165/167/169
f 190/192/196 191/193/197 164/166/168
f 191/193/197 119/119/122 165/167/169
f 153/155/157 165/167/169 118/118/121
f 165/167/169 119/119/122 118/118/121
f 192/194/198 193/195/199 86/196/200
f 194/197/201 195/198/202 196/199/203
f 196/199/203 197/200/204 198/201/205
f 198/201/205 199/202/206 200/203/207
f 199/202/206 201/204/208 200/203/207
f 202/205/209 203/206/210 201/204/208
f 204/207/211 205/208/212 206/209/213
f 207/210/214 57/211/57 56/212/56
f 208/213/215 146/214/149 147/215/150
f 209/216/216 210/217/217 211/218/218
f 211/218/218 212/219/219 213/220/220
f 213/220/220 214/221/221 215/222/222
f 214/221/221 216/223/223 215/222/222
f 216/223/223 169/224/224 217/225/225
f 217/225/225 218/226/226 219/227/227
f 220/228/228 103/229/229 102/230/230
f 146/214/149 144/231/147 145/232/148
f 203/206/210 56/212/56 55/233/55
f 200/203/207 196/199/203 198/201/205
f 109/234/110 194/197/201 108/235/109
f 213/220/220 216/223/223 211/218/218
f 217/225/225 184/236/188 194/197/201
f 133/237/136 209/216/216 37/238/37
f 203/206/210 37/238/37 209/216/216
f 203/206/210 211/218/218 201/204/208
f 211/218/218 196/199/203 201/204/208
f 194/197/201 216/223/223 217/225/225
f 194/197/201 179/239/183 102/230/103
f 194/197/201 103/229/104 108/235/109
f 86/196/200 194/197/201 192/194/198
f 203/206/210 55/233/55 38/240/38
f 221/241/231 222/242/232 223/243/233
f 224/244/234 222/242/232 221/241/231
f 225/245/235 226/246/236 227/247/237
f 226/246/236 228/248/238 227/247/237
f 229/249/239 230/250/240 231/251/241
f 229/252/239 232/253/242 233/254/243
f 229/252/239 234/255/244 235/256/245
f 236/257/246 237/258/247 238/259/248
f 236/260/246 239/261/249 231/251/241
f 236/257/246 230/250/240 235/256/245
f 240/262/250 234/263/244 233/254/243
f 240/264/250 241/265/251 242/266/252
f 240/267/250 243/268/253 235/256/245
f 244/269/254 243/270/253 242/266/252
f 244/271/254 245/272/255 238/259/248
f 244/273/254 237/274/247 235/256/245
f 246/275/256 232/276/242 231/251/241
f 246/277/256 247/278/257 248/279/258
f 246/280/256 249/281/259 233/254/243
f 250/282/260 239/283/249 238/259/248
f 250/284/260 251/285/261 248/279/258
f 250/286/260 247/287/257 231/251/241
f 252/288/262 241/289/251 233/254/243
f 252/288/262 249/290/259 248/279/258
f 252/291/262 253/292/263 242/266/252
f 254/293/264 251/294/261 238/259/248
f 254/295/264 245/296/255 242/266/252
f 254/293/264 253/292/263 248/279/258
f 255/297/265 256/298/266 257/299/267
f 255/300/265 258/301/268 259/302/269
f 255/300/265 260/303/270 261/304/271
f 262/305/272 263/306/273 264/307/274
f 262/308/272 265/309/275 257/299/267
f 262/305/272 256/298/266 261/304/271
f 266/310/276 260/311/270 259/302/269
f 266/312/276 267/313/277 268/314/278
f 266/315/276 269/316/279 261/304/271
f 270/317/280 269/318/279 268/314/278
f 270/319/280 271/320/281 264/307/274
f 269/316/279 270/321/280 263/322/273
f 272/323/282 258/324/268 257/299/267
f 272/325/282 273/326/283 274/327/284
f 272/328/282 275/329/285 259/302/269
f 276/330/286 265/331/275 264/307/274
f 276/332/286 277/333/287 274/327/284
f 276/334/286 273/335/283 257/299/267
f 278/336/288 267/337/277 259/302/269
f 278/336/288 275/338/285 274/327/284
f 278/339/288 279/340/289 268/314/278
f 280/341/290 277/342/287 264/307/274
f 280/343/290 271/344/281 268/314/278
f 277/333/287 280/341/290 279/340/289
f 281/345/291 282/346/292 283/347/293
f 281/348/291 284/349/294 285/350/295
f 281/348/291 286/351/296 287/352/297
f 288/353/298 289/354/299 290/355/300
f 288/356/298 291/357/301 283/347/293
f 289/358/299 288/353/298 282/346/292
f 292/359/302 286/360/296 285/350/295
f 292/361/302 293/362/303 294/363/304
f 292/364/302 295/365/305 287/352/297
f 296/366/306 295/367/305 294/363/304
f 296/368/306 297/369/307 290/355/300
f 296/370/306 289/358/299 287/352/297
f 298/371/308 284/372/294 283/347/293
f 298/373/308 299/374/309 300/375/310
f 298/376/308 301/377/311 285/350/295
f 302/378/312 291/379/301 290/355/300
f 299/374/309 302/380/312 303/381/313
f 302/382/312 299/383/309 283/347/293
f 304/384/314 293/385/303 285/350/295
f 304/384/314 301/386/311 300/375/310
f 304/387/314 305/388/315 294/363/304
f 306/389/316 303/390/313 290/355/300
f 306/391/316 297/392/307 294/363/304
f 306/389/316 305/388/315 300/375/310
f 307/393/317 308/394/318 309/395/319
f 307/396/317 310/397/320 311/398/321
f 307/396/317 312/399/322 313/400/323
f 314/401/324 315/402/325 316/403/326
f 314/404/324 317/405/327 309/395/319
f 315/406/325 314/401/324 308/394/318
f 318/407/328 312/408/322 311/398/321
f 318/409/328 319/410/329 320/411/330
f 318/412/328 321/413/331 313/400/323
f 322/414/332 321/415/331 320/411/330
f 322/416/332 323/417/333 316/403/326
f 321/413/331 322/418/332 315/406/325
f 324/419/334 310/420/320 309/395/319
f 324/421/334 325/422/335 326/423/336
f 324/424/334 327/425/337 311/398/321
f 328/426/338 317/427/327 316/403/326
f 325/422/335 328/428/338 329/429/339
f 328/430/338 325/431/335 309/395/319
f 330/432/340 319/433/329 311/398/321
f 330/432/340 327/434/337 326/423/336
f 330/435/340 331/436/341 320/411/330
f 332/437/342 329/438/339 316/403/326
f 332/439/342 323/440/333 320/411/330
f 329/429/339 332/437/342 331/436/341
f 333/441/343 334/442/344 335/443/345
f 333/444/343 336/445/346 337/446/347
f 333/444/343 338/447/348 339/448/349
f 340/449/350 341/450/351 342/451/352
f 340/452/350 343/453/353 335/443/345
f 341/454/351 340/449/350 334/442/344
f 344/455/354 338/456/348 337/446/347
f 344/457/354 345/458/355 346/459/356
f 344/460/354 347/461/357 339/448/349
f 348/462/358 347/463/357 346/459/356
f 348/464/358 349/465/359 342/451/352
f 347/461/357 348/466/358 341/454/351
f 350/467/360 336/468/346 335/443/345
f 350/469/360 351/470/361 352/471/362
f 350/472/360 353/473/363 337/446/347
f 354/474/364 343/475/353 342/451/352
f 351/470/361 354/476/364 355/477/365
f 354/478/364 351/479/361 335/443/345
f 356/480/366 345/481/355 337/446/347
f 356/480/366 353/482/363 352/471/362
f 356/483/366 357/484/367 346/459/356
f 358/485/368 355/486/365 342/451/352
f 358/487/368 349/488/359 346/459/356
f 355/477/365 358/485/368 357/484/367
f 359/489/369 360/490/370 361/491/371
f 359/489/369 361/491/371 362/492/372
f 363/493/373 359/489/369 362/492/372
f 363/493/373 362/492/372 364/494/374
f 363/493/373 364/494/374 365/495/375
f 365/495/375 366/496/376 363/493/373
f 366/496/376 367/497/377 368/498/378
f 363/493/373 366/496/376 368/498/378
f 363/493/373 368/498/378 369/499/379
f 369/499/379 359/489/369 363/493/373
f 370/500/380 367/497/377 366/496/376
f 370/500/380 366/496/376 365/495/375
f 371/501/381 370/500/380 365/495/375
f 371/501/381 365/495/375 364/494/374
f 372/502/382 373/503/383 369/504/379
f 372/502/382 369/504/379 374/505/384
f 371/506/381 372/502/382 374/505/384
f 370/507/380 371/506/381 374/505/384
f 374/505/384 367/508/377 370/507/380
f 372/509/382 371/501/381 364/494/374
f 372/509/382 364/494/374 362/492/372
f 361/491/371 373/510/383 372/509/382
f 362/492/372 361/491/371 372/509/382
f 375/511/385 369/512/379 373/510/383
f 375/511/385 360/490/370 359/489/369
f 359/489/369 369/499/379 375/511/385
f 376/513/386 377/514/387 378/515/388
f 376/513/386 379/516/389 377/514/387
f 380/517/390 379/516/389 376/513/386
f 380/517/390 381/518/391 379/516/389
f 380/517/390 382/519/392 381/518/391
f 382/519/392 380/517/390 383/520/393
f 383/520/393 384/521/394 385/522/395
f 380/517/390 384/521/394 383/520/393
f 380/517/390 386/523/396 384/521/394
f 386/523/396 380/517/390 376/513/386
f 387/524/397 383/520/393 385/522/395
f 387/524/397 382/519/392 383/520/393
f 388/525/398 382/519/392 387/524/397
f 388/525/398 381/518/391 382/519/392
f 389/526/399 386/527/396 390/528/400
f 389/526/399 391/529/401 386/527/396
f 388/530/398 391/529/401 389/526/399
f 387/531/397 391/529/401 388/530/398
f 391/529/401 387/531/397 385/532/395
f 389/533/399 381/518/391 388/525/398
f 389/533/399 379/516/389 381/518/391
f 377/514/387 389/533/399 390/534/400
f 379/516/389 389/533/399 377/514/387
f 392/535/402 390/534/400 386/536/396
f 392/535/402 376/513/386 378/515/388
f 376/513/386 392/535/402 386/523/396
f 211/218/218 216/223/223 196/199/203
f 255/297/265 257/299/267 258/324/268
f 255/300/265 259/302/269 260/311/270
f 255/300/265 261/304/271 256/298/266
f 262/305/272 264/307/274 265/331/275
f 262/308/272 257/299/267 256/298/266
f 262/305/272 261/304/271 263/322/273
f 266/310/276 259/302/269 267/337/277
f 266/312/276 268/314/278 269/318/279
f 266/315/276 261/304/271 260/303/270
f 270/317/280 268/314/278 271/344/281
f 270/319/280 264/307/274 263/306/273
f 269/316/279 263/322/273 261/304/271
f 272/323/282 257/299/267 273/335/283
f 272/325/282 274/327/284 275/338/285
f 272/328/282 259/302/269 258/301/268
f 276/330/286 264/307/274 277/342/287
f 276/332/286 274/327/284 273/326/283
f 276/334/286 257/299/267 265/309/275
f 278/336/288 259/302/269 275/329/285
f 278/336/288 274/327/284 279/340/289
f 278/339/288 268/314/278 267/313/277
f 280/341/290 264/307/274 271/320/281
f 280/343/290 268/314/278 279/340/289
f 277/333/287 279/340/289 274/327/284
f 281/345/291 283/347/293 284/372/294
f 281/348/291 285/350/295 286/360/296
f 281/348/291 287/352/297 282/346/292
f 288/353/298 290/355/300 291/379/301
f 288/356/298 283/347/293 282/346/292
f 289/358/299 282/346/292 287/352/297
f 292/359/302 285/350/295 293/385/303
f 292/361/302 294/363/304 295/367/305
f 292/364/302 287/352/297 286/351/296
f 296/366/306 294/363/304 297/392/307
f 296/368/306 290/355/300 289/354/299
f 296/370/306 287/352/297 295/365/305
f 298/371/308 283/347/293 299/383/309
f 298/373/308 300/375/310 301/386/311
f 298/376/308 285/350/295 284/349/294
f 302/378/312 290/355/300 303/390/313
f 299/374/309 303/381/313 300/375/310
f 302/382/312 283/347/293 291/357/301
f 304/384/314 285/350/295 301/377/311
f 304/384/314 300/375/310 305/388/315
f 304/387/314 294/363/304 293/362/303
f 306/389/316 290/355/300 297/369/307
f 306/391/316 294/363/304 305/388/315
f 306/389/316 300/375/310 303/381/313
f 307/393/317 309/395/319 310/420/320
f 307/396/317 311/398/321 312/408/322
f 307/396/317 313/400/323 308/394/318
f 314/401/324 316/403/326 317/427/327
f 314/404/324 309/395/319 308/394/318
f 315/406/325 308/394/318 313/400/323
f 318/407/328 311/398/321 319/433/329
f 318/409/328 320/411/330 321/415/331
f 318/412/328 313/400/323 312/399/322
f 322/414/332 320/411/330 323/440/333
f 322/416/332 316/403/326 315/402/325
f 321/413/331 315/406/325 313/400/323
f 324/419/334 309/395/319 325/431/335
f 324/421/334 326/423/336 327/434/337
f 324/424/334 311/398/321 310/397/320
f 328/426/338 316/403/326 329/438/339
f 325/422/335 329/429/339 326/423/336
f 328/430/338 309/395/319 317/405/327
f 330/432/340 311/398/321 327/425/337
f 330/432/340 326/423/336 331/436/341
f 330/435/340 320/411/330 319/410/329
f 332/437/342 316/403/326 323/417/333
f 332/439/342 320/411/330 331/436/341
f 329/429/339 331/436/341 326/423/336
f 333/441/343 335/443/345 336/468/346
f 333/444/343 337/446/347 338/456/348
f 333/444/343 339/448/349 334/442/344
f 340/449/350 342/451/352 343/475/353
f 340/452/350 335/443/345 334/442/344
f 341/454/351 334/442/344 339/448/349
f 344/455/354 337/446/347 345/481/355
f 344/457/354 346/459/356 347/463/357
f 344/460/354 339/448/349 338/447/348
f 348/462/358 346/459/356 349/488/359
f 348/464/358 342/451/352 341/450/351
f 347/461/357 341/454/351 339/448/349
f 350/467/360 335/443/345 351/479/361
f 350/469/360 352/471/362 353/482/363
f 350/472/360 337/446/347 336/445/346
f 354/474/364 342/451/352 355/486/365
f 351/470/361 355/477/365 352/471/362
f 354/478/364 335/443/345 343/453/353
f 356/480/366 337/446/347 353/473/363
f 356/480/366 352/471/362 357/484/367
f 356/483/366 346/459/356 345/458/355
f 358/485/368 342/451/352 349/465/359
f 358/487/368 346/459/356 357/484/367
f 355/477/365 357/484/367 352/471/362
f 229/249/239 231/251/241 232/276/242
f 229/252/239 233/254/243 234/263/244
f 229/252/239 235/256/245 230/250/240
f 236/257/246 238/259/248 239/283/249
f 236/260/246 231/251/241 230/250/240
f 236/257/246 235/256/245 237/274/247
f 240/262/250 233/254/243 241/289/251
f 240/264/250 242/266/252 243/270/253
f 240/267/250 235/256/245 234/255/244
f 244/269/254 242/266/252 245/296/255
f 244/271/254 238/259/248 237/258/247
f 244/273/254 235/256/245 243/268/253
f 246/275/256 231/251/241 247/287/257
f 246/277/256 248/279/258 249/290/259
f 246/280/256 233/254/243 232/253/242
f 250/282/260 238/259/248 251/294/261
f 250/284/260 248/279/258 247/278/257
f 250/286/260 231/251/241 239/261/249
f 252/288/262 233/254/243 249/281/259
f 252/288/262 248/279/258 253/292/263
f 252/291/262 242/266/252 241/265/251
f 254/293/264 238/259/248 245/272/255
f 254/295/264 242/266/252 253/292/263
f 254/293/264 248/279/258 251/285/261
f 226/246/236 393/537/403 228/248/238
f 394/538/404 393/537/403 226/246/236
f 194/197/201 196/199/203 216/223/223
f 216/223/223 395/539/405 169/224/224
f 396/540/406 87/541/407 195/198/202
f 194/197/201 86/196/200 195/198/202
f 196/199/203 195/198/202 197/200/204
f 214/221/221 395/539/405 216/223/223
f 219/227/227 183/542/187 185/543/189
f 203/206/210 209/216/216 211/218/218
f 200/203/207 201/204/208 196/199/203
f 213/220/220 215/222/222 216/223/223
f 199/202/206 202/205/209 201/204/208
f 202/205/209 397/544/408 203/206/210
f 398/545/409 204/207/211 206/209/213
f 399/546/410 208/213/215 400/547/411
f 209/216/216 399/546/410 210/217/217
f 211/218/218 210/217/217 212/219/219
f 198/201/205 197/200/204 199/202/206
f 205/208/212 57/211/57 207/210/214
f 213/220/220 212/219/219 214/221/221
f 220/228/228 401/548/412 103/229/229
f 146/214/149 209/216/216 144/231/147
f 203/206/210 207/210/214 56/212/56
f 107/549/108 192/194/198 109/234/110
f 217/225/225 185/543/189 184/236/188
f 133/237/136 144/231/147 209/216/216
f 203/206/210 38/240/38 37/238/37
f 194/197/201 184/236/188 179/239/183
f 194/197/201 102/230/103 103/229/104
f 402/550/413 169/224/224 395/539/405
f 219/227/227 185/543/189 217/225/225
f 219/227/227 182/551/186 183/542/187
f 182/551/186 403/552/414 186/553/190
f 109/234/110 192/194/198 194/197/201
f 107/549/108 106/554/107 192/194/198
f 170/555/415 404/556/416 402/550/413
f 396/540/406 86/196/200 193/195/199
f 186/553/190 404/556/416 187/557/191
f 403/552/414 218/226/226 402/550/413
f 111/558/112 193/195/199 106/554/107
f 110/559/111 396/540/406 111/558/112
f 95/95/96 110/110/111 111/111/112
f 192/194/198 106/554/107 193/195/199
f 217/225/225 169/224/224 218/226/226
f 405/560/417 87/541/407 396/540/406
f 402/550/413 218/226/226 169/224/224
f 182/551/186 219/227/227 403/552/414
f 402/550/413 395/539/405 170/555/415
f 396/540/406 195/198/202 86/196/200
f 186/553/190 403/552/414 402/550/413
f 403/552/414 219/227/227 218/226/226
f 111/558/112 396/540/406 193/195/199
f 110/559/111 405/560/417 396/540/406
f 400/547/411 120/561/418 122/562/419
f 397/544/408 206/209/213 203/206/210
f 206/209/213 207/210/214 203/206/210
f 400/547/411 406/563/420 123/564/126
f 406/563/420 147/215/150 123/564/126
f 204/207/211 24/565/24 205/208/212
f 208/213/215 209/216/216 146/214/149
f 398/545/409 24/565/24 204/207/211
f 399/546/410 209/216/216 208/213/215
f 205/208/212 24/565/24 57/211/57
f 21/566/421 398/545/409 22/567/422
f 122/562/419 399/546/410 400/547/411
f 397/544/408 398/545/409 206/209/213
f 206/209/213 205/208/212 207/210/214
f 400/547/411 208/213/215 406/563/420
f 406/563/420 208/213/215 147/215/150
f 142/144/145 123/123/126 147/149/150
f 22/567/422 398/545/409 397/544/408
f 188/568/423 404/556/416 170/555/415
f 186/553/190 402/550/413 404/556/416
f 405/560/417 113/569/424 87/541/407
f 110/559/111 112/570/113 405/560/417
f 20/20/20 24/24/24 21/21/21
f 27/27/27 22/22/22 29/29/29
f 21/21/58 24/24/58 58/58/59
f 29/29/29 22/22/22 63/63/64
f 89/89/90 87/87/88 113/113/114
f 113/113/115 87/87/88 114/114/116
f 120/120/123 123/123/126 121/121/124
f 126/126/129 130/130/133 129/129/132
f 148/150/151 123/123/152 120/120/152
f 151/153/155 122/122/125 129/129/132
f 172/174/176 187/189/191 188/190/192
f 189/191/193 170/172/174 188/190/194
f 400/547/411 123/564/126 120/561/418
f 21/566/421 24/565/24 398/545/409
f 188/568/423 187/557/191 404/556/416
f 405/560/417 112/570/113 113/569/424
f 407/571/425 408/572/426 409/573/427
f 408/572/426 410/574/428 409/573/427
f 9/9/9 411/575/429 16/16/16
f 8/8/8 410/574/428 408/572/426
f 412/576/430 8/8/8 408/572/426
f 411/575/429 8/8/8 412/576/430
f 9/9/9 8/8/8 411/575/429
f 8/8/8 413/577/431 410/574/428
f 8/8/8 10/10/10 413/577/431
f 10/10/10 414/578/432 413/577/431
f 160/579/164 161/580/165 414/578/432
f 160/579/164 414/578/432 10/10/10
f 414/578/432 161/580/165 415/581/433
f 161/580/165 416/582/434 415/581/433
f 10/10/10 11/11/11 160/579/164
f 78/78/79 160/579/164 11/11/11
f 417/583/435 418/584/436 419/585/437
f 420/586/438 417/583/435 419/585/437
f 420/586/438 419/585/437 421/587/439
f 422/588/440 420/586/438 421/587/439
f 423/589/441 223/243/233 424/590/442
f 221/241/231 223/243/233 423/589/441
f 425/591/443 426/592/443 427/593/443
f 428/594/444 429/595/444 430/596/444
f 431/597/445 432/598/445 433/599/445
f 434/600/446 435/601/446 436/602/446
f 437/603/447 438/604/447 439/605/447
f 440/606/448 441/607/448 442/608/448
f 443/609/449 444/610/449 445/611/449
f 446/612/450 447/613/450 448/614/450
f 449/615/443 450/616/443 451/617/443
f 452/618/444 453/619/444 454/620/444
f 455/621/445 456/622/445 457/623/445
f 458/624/446 459/625/446 460/626/446
f 461/627/447 462/628/447 463/629/447
f 464/630/451 465/631/451 466/632/451
f 467/633/449 468/634/449 469/635/449
f 470/636/452 471/637/452 472/638/452
f 473/639/86 474/640/70 475/641/84
f 474/640/70 476/642/71 475/641/84
f 477/643/93 478/644/73 473/639/86
f 478/644/73 474/640/70 473/639/86
f 478/644/73 477/643/93 479/645/172
f 480/646/161 478/644/73 479/645/172
f 481/647/453 480/646/161 479/645/172
f 482/648/162 480/646/161 481/647/453
f 483/649/167 482/648/162 481/647/453
f 484/650/163 482/648/162 483/649/167
f 475/641/84 476/642/71 485/651/81
f 476/642/71 486/652/72 485/651/81
