# Blender 4.0.2
# www.blender.org
mtllib patrol_wheel.mtl
o DrawCall_7
v 0.312088 -0.445034 -0.912052
v -0.312088 -0.444940 -0.912040
v 0.312088 -0.801935 -0.631158
v -0.312088 -0.999897 -0.225257
v 0.312088 -1.000005 0.225262
v 0.312088 -1.000005 -0.225250
v 0.312088 -0.801935 0.631149
v 0.312088 -0.445034 0.912043
v 0.312088 0.801942 -0.631158
v 0.312088 0.801942 0.631149
v 0.450096 0.259868 -0.532382
v 0.450096 0.468205 0.368415
v 0.450096 0.259868 0.532361
v 0.450096 0.000090 0.590892
v 0.287684 0.000090 -0.000012
v 0.450096 -0.583622 -0.131488
v 0.312088 0.445041 -0.912052
v 0.450096 0.468205 -0.368419
v 0.450096 0.583817 -0.131488
v 0.312088 0.999998 -0.225250
v 0.312088 0.999998 0.225262
v 0.450096 0.583817 0.131484
v 0.312088 0.445041 0.912043
v 0.312088 -0.000004 1.012295
v 0.450096 -0.259688 0.532361
v 0.450096 -0.468012 0.368415
v 0.450096 -0.583622 0.131484
v 0.450096 -0.468012 -0.368419
v 0.450096 0.000090 -0.590894
v 0.312088 -0.000004 -1.012285
v 0.450096 -0.259688 -0.532382
v -0.312088 0.999996 -0.225252
v -0.312088 -0.000005 1.012293
v -0.312088 -0.801935 -0.631160
v -0.312088 0.999999 0.225260
v -0.312088 -0.445049 -0.912035
v -0.312088 0.445040 -0.912035
v -0.449904 0.259869 0.532376
v -0.287491 0.000090 -0.000014
v -0.449904 0.583818 -0.131490
v -0.449904 0.259869 -0.532384
v -0.449904 0.000090 -0.590896
v -0.449904 -0.468011 -0.368421
v -0.449904 -0.583622 0.131482
v -0.312088 0.801942 0.631147
v -0.312088 0.445040 0.912041
v -0.449904 0.468207 0.368413
v -0.449904 0.583818 0.131482
v -0.449904 0.468207 -0.368421
v -0.312088 0.801942 -0.631160
v -0.312088 -0.000005 -1.012287
v -0.449904 -0.259686 -0.532384
v -0.449904 -0.583622 -0.131490
v -0.312088 -1.000005 -0.225252
v -0.312088 -0.999991 0.225260
v -0.312088 -0.801935 0.631147
v -0.449904 -0.468011 0.368413
v -0.449904 -0.259686 0.532376
v -0.449904 0.000090 0.590890
v -0.312088 -0.445035 0.912041
vn 0.5851 0.7902 -0.1824
vn -0.5852 0.7901 -0.1824
vn 0.5851 0.7902 0.1824
vn -0.5852 0.7901 0.1824
vn 0.5843 -0.0000 -0.8115
vn -0.0001 -0.4296 -0.9030
vn -0.5845 -0.0000 -0.8114
vn 0.5845 -0.3488 -0.7326
vn -0.5850 -0.6313 -0.5091
vn 0.5848 -0.6314 -0.5092
vn -0.0001 -0.9743 -0.2251
vn 0.5851 -0.7902 -0.1824
vn -0.5853 -0.7900 0.1823
vn 0.5851 -0.7902 0.1824
vn -0.5850 -0.6313 0.5091
vn 0.5849 -0.6314 0.5092
vn -0.5847 -0.3488 0.7324
vn 0.5845 -0.3489 0.7326
vn 0.5845 0.3488 -0.7326
vn -0.5847 0.3488 -0.7325
vn 0.5848 0.6314 -0.5092
vn -0.5850 0.6313 -0.5091
vn -0.5845 -0.0000 0.8114
vn 0.5848 0.6314 0.5092
vn -0.5850 0.6313 0.5091
vn 0.5845 0.3489 0.7326
vn -0.5847 0.3488 0.7325
vn 0.5844 -0.0000 0.8115
vn 0.9980 0.0270 -0.0577
vn 1.0000 -0.0000 -0.0000
vn 0.9980 -0.0000 -0.0636
vn 0.9980 0.0493 -0.0405
vn 0.9980 0.0622 -0.0146
vn 0.9980 0.0622 0.0146
vn 0.9980 0.0493 0.0405
vn 0.9980 0.0270 0.0576
vn 0.9980 -0.0000 0.0636
vn 0.9980 -0.0269 0.0576
vn 0.9980 -0.0493 0.0405
vn 0.9980 -0.0621 0.0146
vn 0.9980 -0.0621 -0.0146
vn 0.9980 -0.0493 -0.0404
vn 0.9980 -0.0269 -0.0576
vn -0.9980 0.0269 0.0575
vn -1.0000 -0.0000 -0.0000
vn -0.9980 -0.0000 0.0634
vn -0.9980 0.0491 0.0403
vn -0.9980 0.0620 0.0146
vn -0.9980 0.0620 -0.0146
vn -0.9980 0.0491 -0.0403
vn -0.9980 0.0269 -0.0575
vn -0.9980 -0.0000 -0.0634
vn -0.9980 -0.0269 -0.0574
vn -0.9980 -0.0491 -0.0403
vn -0.9980 -0.0619 -0.0145
vn -0.9980 -0.0619 0.0145
vn -0.9980 -0.0491 0.0403
vn -0.9980 -0.0269 0.0574
vn -0.9507 -0.1336 -0.2799
vn -0.5851 -0.6313 -0.5091
vn -0.9516 -0.2994 -0.0690
vt 0.890158 0.371887
vt 0.890158 0.492587
vt 0.807805 0.371887
vt 0.807805 0.492587
vt 0.880232 0.371887
vt 0.958825 0.492587
vt 0.880232 0.492587
vt 0.958825 0.371887
vt 0.833825 0.371887
vt 0.913724 0.492587
vt 0.833825 0.492587
vt 0.913724 0.371887
vt 0.788724 0.371887
vt 0.870305 0.492587
vt 0.788724 0.492587
vt 0.870305 0.371887
vt 0.952658 0.492587
vt 0.952658 0.371887
vt 0.827658 0.371887
vt 0.909239 0.492587
vt 0.827658 0.492587
vt 0.909239 0.371887
vt 0.989138 0.492587
vt 0.989138 0.371887
vt 0.801638 0.371887
vt 0.801638 0.492587
vt 0.926638 0.371887
vt 0.926638 0.492587
vt 0.846739 0.371887
vt 0.846739 0.492587
vt 0.971739 0.371887
vt 0.971739 0.492587
vt 0.864138 0.371887
vt 0.942732 0.492587
vt 0.864138 0.492587
vt 0.932805 0.371887
vt 0.932805 0.492587
vt 0.851224 0.371887
vt 0.851224 0.492587
vt 0.976224 0.371887
vt 0.976224 0.492587
vt 0.896325 0.371887
vt 0.896325 0.492587
vt 0.817732 0.371887
vt 0.817732 0.492587
vt 0.942732 0.371887
vt 0.691649 0.407751
vt 0.625977 0.375977
vt 0.698869 0.375977
vt 0.671424 0.433233
vt 0.642197 0.447374
vt 0.609757 0.447374
vt 0.580529 0.433233
vt 0.560304 0.407751
vt 0.553084 0.375977
vt 0.560304 0.344202
vt 0.580529 0.318720
vt 0.609757 0.304579
vt 0.642197 0.304579
vt 0.671424 0.318720
vt 0.691652 0.344202
vt 0.749875 0.375000
vt 0.737508 0.430575
vt 0.702857 0.475142
vt 0.652788 0.499875
vt 0.597212 0.499875
vt 0.547143 0.475142
vt 0.512493 0.430575
vt 0.500125 0.375000
vt 0.512493 0.319425
vt 0.547143 0.274857
vt 0.597212 0.250125
vt 0.652788 0.250125
vt 0.702857 0.274857
vt 0.737508 0.319425
s 1
usemtl material_8
f 20/1/1 32/2/2 21/3/3
f 21/3/3 32/2/2 35/4/4
f 30/5/5 2/6/6 51/7/7
f 1/8/8 2/6/6 30/5/5
f 1/9/8 34/10/9 2/11/6
f 3/12/10 34/10/9 1/9/8
f 3/13/10 4/14/11 34/15/9
f 6/16/12 4/14/11 3/13/10
f 6/16/12 55/17/13 4/14/11
f 5/18/14 55/17/13 6/16/12
f 5/19/14 56/20/15 55/21/13
f 7/22/16 56/20/15 5/19/14
f 7/22/16 60/23/17 56/20/15
f 8/24/18 60/23/17 7/22/16
f 30/5/5 51/7/7 17/25/19
f 17/25/19 51/7/7 37/26/20
f 17/27/19 37/28/20 9/29/21
f 9/29/21 37/28/20 50/30/22
f 9/31/21 50/32/22 20/1/1
f 20/1/1 50/32/22 32/2/2
f 8/33/18 33/34/23 60/35/17
f 21/36/3 35/37/4 10/38/24
f 10/38/24 35/37/4 45/39/25
f 10/40/24 45/41/25 23/42/26
f 23/42/26 45/41/25 46/43/27
f 23/42/26 46/43/27 24/44/28
f 24/44/28 46/43/27 33/45/23
f 24/46/28 33/34/23 8/33/18
usemtl material_13
f 11/47/29 15/48/30 29/49/31
f 18/50/32 15/48/30 11/47/29
f 19/51/33 15/48/30 18/50/32
f 22/52/34 15/48/30 19/51/33
f 12/53/35 15/48/30 22/52/34
f 13/54/36 15/48/30 12/53/35
f 14/55/37 15/48/30 13/54/36
f 25/56/38 15/48/30 14/55/37
f 26/57/39 15/48/30 25/56/38
f 27/58/40 15/48/30 26/57/39
f 16/59/41 15/48/30 27/58/40
f 28/60/42 15/48/30 16/59/41
f 31/61/43 15/48/30 28/60/42
f 29/49/31 15/48/30 31/61/43
f 11/47/29 30/62/5 17/63/19
f 30/62/5 11/47/29 29/49/31
f 18/50/32 17/63/19 9/64/21
f 17/63/19 18/50/32 11/47/29
f 19/51/33 9/64/21 20/65/1
f 9/64/21 19/51/33 18/50/32
f 22/52/34 20/65/1 21/66/3
f 20/65/1 22/52/34 19/51/33
f 12/53/35 21/66/3 10/67/24
f 21/66/3 12/53/35 22/52/34
f 13/54/36 10/67/24 23/68/26
f 10/67/24 13/54/36 12/53/35
f 14/55/37 23/68/26 24/69/28
f 23/68/26 14/55/37 13/54/36
f 25/56/38 24/69/28 8/70/18
f 24/69/28 25/56/38 14/55/37
f 26/57/39 8/70/18 7/71/16
f 8/70/18 26/57/39 25/56/38
f 27/58/40 7/71/16 5/72/14
f 7/71/16 27/58/40 26/57/39
f 16/59/41 5/72/14 6/73/12
f 5/72/14 16/59/41 27/58/40
f 28/60/42 6/73/12 3/74/10
f 6/73/12 28/60/42 16/59/41
f 31/61/43 3/74/10 1/75/8
f 3/74/10 31/61/43 28/60/42
f 29/49/31 1/75/8 30/62/5
f 1/75/8 29/49/31 31/61/43
f 38/47/44 39/48/45 59/49/46
f 47/50/47 39/48/45 38/47/44
f 48/51/48 39/48/45 47/50/47
f 40/52/49 39/48/45 48/51/48
f 49/53/50 39/48/45 40/52/49
f 41/54/51 39/48/45 49/53/50
f 42/55/52 39/48/45 41/54/51
f 52/56/53 39/48/45 42/55/52
f 43/57/54 39/48/45 52/56/53
f 53/58/55 39/48/45 43/57/54
f 44/59/56 39/48/45 53/58/55
f 57/60/57 39/48/45 44/59/56
f 58/61/58 39/48/45 57/60/57
f 59/49/46 39/48/45 58/61/58
f 38/47/44 33/62/23 46/63/27
f 33/62/23 38/47/44 59/49/46
f 47/50/47 46/63/27 45/64/25
f 46/63/27 47/50/47 38/47/44
f 48/51/48 45/64/25 35/65/4
f 45/64/25 48/51/48 47/50/47
f 40/52/49 35/65/4 32/66/2
f 35/65/4 40/52/49 48/51/48
f 49/53/50 32/66/2 50/67/22
f 32/66/2 49/53/50 40/52/49
f 41/54/51 50/67/22 37/68/20
f 50/67/22 41/54/51 49/53/50
f 42/55/52 37/68/20 51/69/7
f 37/68/20 42/55/52 41/54/51
f 52/56/53 51/69/7 36/70/59
f 51/69/7 52/56/53 42/55/52
f 43/57/54 36/70/59 34/71/60
f 36/70/59 43/57/54 52/56/53
f 53/58/55 34/71/60 54/72/61
f 34/71/60 53/58/55 43/57/54
f 44/59/56 54/72/61 55/73/13
f 54/72/61 44/59/56 53/58/55
f 57/60/57 55/73/13 56/74/15
f 55/73/13 57/60/57 44/59/56
f 58/61/58 56/74/15 60/75/17
f 56/74/15 58/61/58 57/60/57
f 59/49/46 60/75/17 33/62/23
f 60/75/17 59/49/46 58/61/58
