# Blender v3.0.1 OBJ File: ''
# www.blender.org
mtllib truck_wheel.mtl
o Jeep.005
v 0.168353 -0.313683 0.066371
v 0.225749 -0.413916 0.424081
v 0.225749 -0.544755 0.233427
v 0.225749 -0.592652 0.007258
v 0.168353 -0.174899 0.268941
v 0.168353 -0.268823 -0.174984
v 0.225749 -0.219993 0.550250
v 0.225749 -0.550129 -0.220078
v 0.225749 0.007341 0.592539
v 0.225749 -0.424196 -0.413770
v 0.168352 0.066452 0.313801
v 0.168352 -0.066490 -0.313769
v 0.225749 0.233507 0.544642
v 0.225749 -0.233543 -0.544610
v 0.225749 0.424158 0.413801
v 0.225749 -0.007144 -0.592508
v 0.168352 0.268787 0.175017
v 0.168352 0.174863 -0.268910
v 0.225749 0.550325 0.220110
v 0.225749 0.220189 -0.550218
v 0.225749 0.592614 -0.007226
v 0.225749 0.413878 -0.424049
v 0.168352 0.313880 -0.066339
v 0.225749 0.544718 -0.233394
v 0.121423 -0.097564 0.149782
v 0.121423 -0.174899 0.036931
v 0.121423 -0.149900 -0.097414
v 0.121423 0.037014 0.175016
v 0.121423 -0.037051 -0.174984
v 0.121423 0.149863 0.097446
v 0.121423 0.097527 -0.149984
v 0.121423 0.174863 -0.037134
v 0.181611 -0.114153 0.024081
v 0.181611 -0.097797 -0.063769
v 0.181611 -0.063686 0.097913
v 0.181611 -0.024201 -0.114237
v 0.181611 0.063649 -0.097882
v 0.181611 0.114349 -0.024283
v 0.181611 0.024163 0.114268
v 0.181611 0.097761 0.063567
v -0.161199 0.919246 -0.393908
v -0.161199 0.698454 -0.715637
v -0.185973 0.669716 -0.686198
v -0.181611 0.097761 0.063567
v -0.181611 0.114349 -0.024283
v -0.181611 -0.063686 0.097913
v -0.121423 0.149863 0.097446
v -0.121423 0.174863 -0.037134
v -0.121423 0.037014 0.175016
v -0.181611 0.024163 0.114268
v -0.181611 0.063649 -0.097882
v -0.181611 -0.024201 -0.114237
v -0.181611 -0.097797 -0.063769
v -0.121423 -0.097564 0.149782
v -0.181611 -0.114153 0.024081
v -0.121423 -0.149900 -0.097414
v -0.168352 0.268787 0.175017
v -0.168352 0.174863 -0.268910
v -0.168352 -0.066490 -0.313769
v -0.121423 -0.037051 -0.174984
v -0.168353 -0.174899 0.268941
v -0.168352 0.066452 0.313801
v -0.121423 -0.174899 0.036931
v -0.168353 -0.268823 -0.174984
v -0.225749 0.592614 -0.007226
v -0.168352 0.313880 -0.066339
v -0.225749 0.220189 -0.550218
v -0.225749 -0.007144 -0.592508
v -0.225749 -0.233543 -0.544610
v -0.225749 -0.424196 -0.413770
v -0.225749 0.424158 0.413801
v -0.225749 0.233507 0.544642
v -0.225749 -0.219993 0.550250
v -0.225749 0.007341 0.592539
v -0.225749 -0.592652 0.007258
v -0.168353 -0.313683 0.066371
v -0.121423 0.097527 -0.149984
v -0.225749 0.550325 0.220110
v -0.185973 0.356169 -0.890404
v -0.225749 0.544718 -0.233394
v -0.225749 0.413878 -0.424049
v -0.225749 -0.550129 -0.220078
v -0.225749 -0.413916 0.424081
v -0.225749 -0.544755 0.233427
v 0.161199 0.919246 -0.393908
v 0.185973 0.669716 -0.686198
v 0.161199 0.698454 -0.715637
v 0.185973 0.356169 -0.890404
v 0.161199 0.371356 -0.928488
v 0.185973 0.881396 -0.377787
v 0.161199 1.000087 -0.012132
v 0.185973 -0.011817 -0.958863
v 0.185973 0.958732 -0.011665
v 0.161199 -0.012285 -0.999984
v 0.185973 -0.377701 -0.881293
v 0.161199 -0.394055 -0.919143
v 0.185973 -0.686343 -0.669611
v 0.161199 -0.715781 -0.698349
v 0.185973 -0.890312 -0.356060
v 0.161199 -0.928629 -0.371480
v 0.185973 -0.958768 0.011698
v 0.161199 -0.999890 0.012165
v 0.185973 -0.881433 0.377819
v 0.161199 -0.919283 0.393941
v 0.185973 -0.669753 0.686231
v 0.161199 -0.698492 0.715670
v 0.185973 -0.356207 0.890436
v 0.161199 -0.371393 0.928520
v 0.185973 0.011780 0.958894
v 0.161199 0.012247 1.000015
v 0.185973 0.377663 0.881324
v 0.161199 0.394018 0.919175
v 0.185973 0.686305 0.669643
v 0.161199 0.715744 0.698380
v 0.185973 0.890275 0.356092
v 0.161199 0.928592 0.371513
v 0.250000 -0.706902 0.303053
v 0.250000 -0.769050 0.009361
v 0.250000 -0.537278 0.550483
v 0.250000 -0.714146 -0.285732
v 0.250000 -0.550362 -0.537134
v 0.250000 -0.302935 -0.706994
v 0.250000 -0.009481 -0.769143
v 0.250000 0.285609 -0.714237
v 0.249999 0.537241 -0.550451
v 0.249999 0.706866 -0.303020
v 0.249999 0.769014 -0.009329
v 0.249999 0.714108 0.285530
v 0.249999 0.550559 0.537165
v 0.250000 0.302898 0.707026
v 0.250000 0.009444 0.769175
v 0.250000 -0.285646 0.714034
v -0.161199 0.371356 -0.928488
v -0.185973 0.881396 -0.377787
v -0.161199 1.000087 -0.012132
v -0.185973 -0.011817 -0.958863
v -0.185973 0.958732 -0.011665
v -0.161199 -0.012285 -0.999984
v -0.185973 -0.377701 -0.881293
v -0.161199 -0.394055 -0.919143
v -0.185973 -0.686343 -0.669611
v -0.161199 -0.715781 -0.698349
v -0.185973 -0.890312 -0.356060
v -0.161199 -0.928629 -0.371480
v -0.185973 -0.958768 0.011698
v -0.161199 -0.999890 0.012165
v -0.185973 -0.881433 0.377819
v -0.161199 -0.919283 0.393941
v -0.185973 -0.669753 0.686231
v -0.161199 -0.698492 0.715670
v -0.185973 -0.356207 0.890436
v -0.161199 -0.371393 0.928520
v -0.185973 0.011780 0.958894
v -0.161199 0.012247 1.000015
v -0.185973 0.377663 0.881324
v -0.161199 0.394018 0.919175
v -0.185973 0.686305 0.669643
v -0.161199 0.715744 0.698380
v -0.185973 0.890275 0.356092
v -0.161199 0.928592 0.371513
v -0.250000 -0.706902 0.303053
v -0.250000 -0.769050 0.009361
v -0.250000 -0.537278 0.550483
v -0.250000 -0.714146 -0.285732
v -0.250000 -0.550362 -0.537134
v -0.250000 -0.302935 -0.706994
v -0.250000 -0.009481 -0.769143
v -0.250000 0.285609 -0.714237
v -0.249999 0.537241 -0.550451
v -0.249999 0.706866 -0.303020
v -0.249999 0.769014 -0.009329
v -0.249999 0.714108 0.285530
v -0.249999 0.550559 0.537165
v -0.250000 0.302898 0.707026
v -0.250000 0.009444 0.769175
v -0.250000 -0.285646 0.714034
vt 0.459445 0.255951
vt 0.324455 0.220104
vt 0.396047 0.170505
vt 0.480183 0.152874
vt 0.380696 0.309537
vt 0.552029 0.274106
vt 0.276124 0.292661
vt 0.566103 0.169271
vt 0.259562 0.377513
vt 0.638152 0.216827
vt 0.363650 0.403619
vt 0.605454 0.352572
vt 0.278365 0.463597
vt 0.687820 0.289385
vt 0.326688 0.534930
vt 0.705278 0.374236
vt 0.416624 0.481677
vt 0.588418 0.446654
vt 0.399185 0.582476
vt 0.688725 0.460320
vt 0.484657 0.598875
vt 0.641731 0.532878
vt 0.509189 0.499814
vt 0.569233 0.581253
vt 0.429656 0.340221
vt 0.472372 0.311701
vt 0.522657 0.321474
vt 0.419875 0.390773
vt 0.550689 0.363461
vt 0.449235 0.433566
vt 0.540899 0.413593
vt 0.499512 0.442130
vt 0.477721 0.340221
vt 0.506190 0.345939
vt 0.453684 0.356526
vt 0.522657 0.369985
vt 0.516872 0.398514
vt 0.492843 0.414818
vt 0.448353 0.385064
vt 0.464811 0.409109
vt 0.713046 0.945429
vt 0.584452 0.945432
vt 0.584452 0.964181
vt 0.464811 0.409109
vt 0.492843 0.414818
vt 0.453684 0.356526
vt 0.449235 0.433566
vt 0.499512 0.442130
vt 0.419875 0.390773
vt 0.448353 0.385064
vt 0.516872 0.398514
vt 0.522657 0.369985
vt 0.506190 0.345939
vt 0.429656 0.340221
vt 0.477721 0.340221
vt 0.522657 0.321474
vt 0.416624 0.481677
vt 0.588418 0.446654
vt 0.605454 0.352572
vt 0.550689 0.363461
vt 0.380696 0.309537
vt 0.363650 0.403619
vt 0.472372 0.311701
vt 0.552029 0.274106
vt 0.484657 0.598875
vt 0.509189 0.499814
vt 0.688725 0.460320
vt 0.705278 0.374236
vt 0.687820 0.289385
vt 0.638152 0.216827
vt 0.326688 0.534930
vt 0.278365 0.463597
vt 0.276124 0.292661
vt 0.259562 0.377513
vt 0.480183 0.152874
vt 0.459445 0.255951
vt 0.540899 0.413593
vt 0.399185 0.582476
vt 0.455176 0.964183
vt 0.569233 0.581253
vt 0.641731 0.532878
vt 0.566103 0.169271
vt 0.324455 0.220104
vt 0.396047 0.170505
vt 0.707843 0.946622
vt 0.579661 0.962584
vt 0.579661 0.946625
vt 0.455555 0.962587
vt 0.580305 0.946625
vt 0.580305 0.962584
vt 0.455555 0.946627
vt 0.707844 0.962582
vt 0.836018 0.946620
vt 0.332464 0.962589
vt 0.836018 0.962580
vt 0.332464 0.946629
vt 0.711623 0.780695
vt 0.837071 0.796152
vt 0.837071 0.780691
vt 0.711625 0.796156
vt 0.584688 0.780699
vt 0.584688 0.796160
vt 0.458324 0.780703
vt 0.458326 0.796164
vt 0.331969 0.780706
vt 0.331969 0.796168
vt 0.709725 0.962580
vt 0.840812 0.946617
vt 0.840814 0.962577
vt 0.709723 0.946620
vt 0.588700 0.962584
vt 0.709172 0.946620
vt 0.709174 0.962580
vt 0.588700 0.946625
vt 0.459329 0.962589
vt 0.588381 0.946625
vt 0.588381 0.962584
vt 0.459329 0.946629
vt 0.335659 0.962592
vt 0.458899 0.946629
vt 0.458901 0.962589
vt 0.335659 0.946633
vt 0.714978 0.780695
vt 0.840819 0.796152
vt 0.840819 0.780691
vt 0.714978 0.796156
vt 0.587443 0.780699
vt 0.587443 0.796160
vt 0.460582 0.780703
vt 0.460582 0.796164
vt 0.333952 0.780706
vt 0.460806 0.796164
vt 0.460804 0.780703
vt 0.333952 0.796168
vt 0.478930 0.018685
vt 0.364969 0.102645
vt 0.341713 0.047204
vt 0.479737 0.079598
vt 0.617049 0.044971
vt 0.269561 0.168090
vt 0.224978 0.126062
vt 0.395077 0.168402
vt 0.322928 0.218453
vt 0.480754 0.150814
vt 0.274223 0.291508
vt 0.594496 0.101258
vt 0.567344 0.167497
vt 0.734658 0.121607
vt 0.692202 0.164860
vt 0.640838 0.215297
vt 0.813526 0.237448
vt 0.756726 0.261189
vt 0.690897 0.288352
vt 0.842035 0.374665
vt 0.780694 0.374570
vt 0.708486 0.373580
vt 0.815749 0.512775
vt 0.759034 0.488873
vt 0.691802 0.460162
vt 0.738667 0.629947
vt 0.695432 0.586580
vt 0.644002 0.533216
vt 0.622388 0.708805
vt 0.599103 0.652034
vt 0.570948 0.581922
vt 0.485171 0.737315
vt 0.484335 0.675993
vt 0.485263 0.599959
vt 0.347062 0.711038
vt 0.369576 0.653412
vt 0.398681 0.583267
vt 0.229434 0.633063
vt 0.273257 0.589810
vt 0.326245 0.535979
vt 0.150584 0.518123
vt 0.207337 0.493481
vt 0.276481 0.463318
vt 0.122075 0.380014
vt 0.183378 0.380099
vt 0.257539 0.377193
vt 0.148361 0.243234
vt 0.205038 0.265806
vt 0.455176 0.945434
vt 0.713048 0.964178
vt 0.831278 0.945393
vt 0.713167 0.945395
vt 0.713168 0.964144
vt 0.327615 0.964185
vt 0.831278 0.964142
vt 0.327615 0.945436
vt 0.706580 0.781013
vt 0.831791 0.781009
vt 0.831791 0.796943
vt 0.706582 0.796947
vt 0.583489 0.781017
vt 0.705993 0.781013
vt 0.705995 0.796947
vt 0.583489 0.796951
vt 0.455783 0.781021
vt 0.583276 0.781017
vt 0.583276 0.796951
vt 0.455785 0.796955
vt 0.327215 0.782255
vt 0.455164 0.782252
vt 0.455166 0.798185
vt 0.327215 0.798189
vt 0.780296 0.963356
vt 0.906150 0.963691
vt 0.906149 0.947139
vt 0.780296 0.947142
vt 0.652481 0.963698
vt 0.780746 0.963356
vt 0.780744 0.947142
vt 0.652481 0.947145
vt 0.532852 0.963701
vt 0.532850 0.947149
vt 0.404376 0.963704
vt 0.532366 0.963701
vt 0.532364 0.947149
vt 0.404376 0.947152
vt 0.778420 0.779524
vt 0.904607 0.779519
vt 0.904607 0.797792
vt 0.778420 0.797797
vt 0.657773 0.779528
vt 0.657773 0.797801
vt 0.533371 0.779682
vt 0.657847 0.779678
vt 0.657847 0.797948
vt 0.533372 0.797952
vt 0.402433 0.780238
vt 0.533203 0.780234
vt 0.533203 0.798504
vt 0.402433 0.798509
vt 0.478930 0.018685
vt 0.341713 0.047204
vt 0.364969 0.102645
vt 0.479737 0.079598
vt 0.617049 0.044971
vt 0.269561 0.168090
vt 0.224978 0.126062
vt 0.395077 0.168402
vt 0.322928 0.218453
vt 0.480754 0.150814
vt 0.274223 0.291508
vt 0.594496 0.101258
vt 0.567344 0.167497
vt 0.734658 0.121607
vt 0.692202 0.164860
vt 0.640838 0.215297
vt 0.813526 0.237448
vt 0.756726 0.261189
vt 0.690897 0.288352
vt 0.842035 0.374665
vt 0.780694 0.374570
vt 0.708486 0.373580
vt 0.815749 0.512775
vt 0.759034 0.488873
vt 0.691802 0.460162
vt 0.738667 0.629947
vt 0.695432 0.586580
vt 0.644002 0.533216
vt 0.622388 0.708805
vt 0.599103 0.652034
vt 0.570948 0.581922
vt 0.485171 0.737315
vt 0.484335 0.675993
vt 0.485263 0.599959
vt 0.347062 0.711038
vt 0.369576 0.653412
vt 0.398681 0.583267
vt 0.229434 0.633063
vt 0.273257 0.589810
vt 0.326213 0.536019
vt 0.150584 0.518123
vt 0.207337 0.493481
vt 0.276481 0.463318
vt 0.122075 0.380014
vt 0.183378 0.380099
vt 0.257539 0.377193
vt 0.148361 0.243234
vt 0.205038 0.265806
vt 0.654892 0.801304
vt 0.781716 0.941339
vt 0.781713 0.801299
vt 0.836028 0.801539
vt 0.708982 0.941433
vt 0.708980 0.801543
vt 0.836031 0.941429
vt 0.581926 0.941437
vt 0.581925 0.801547
vt 0.454196 0.941442
vt 0.454192 0.801552
vt 0.328161 0.941445
vt 0.328159 0.801557
vt 0.480581 0.941423
vt 0.353873 0.800901
vt 0.353875 0.941427
vt 0.480578 0.800896
vt 0.606184 0.941419
vt 0.606181 0.800891
vt 0.732998 0.941414
vt 0.732995 0.800887
vt 0.862300 0.800599
vt 0.732843 0.941696
vt 0.732846 0.800595
vt 0.862297 0.941701
vt 0.407912 0.800616
vt 0.282064 0.941748
vt 0.282059 0.800623
vt 0.407920 0.941741
vt 0.533775 0.800610
vt 0.533781 0.941735
vt 0.660207 0.800602
vt 0.660214 0.941727
vt 0.785158 0.800596
vt 0.785165 0.941720
vt 0.400564 0.941351
vt 0.274752 0.801317
vt 0.274754 0.941355
vt 0.400560 0.801312
vt 0.528067 0.941348
vt 0.528063 0.801307
vt 0.654896 0.941343
vn 0.9688 0.2314 -0.0882
vn 0.9856 0.1273 -0.1116
vn 0.9867 0.1523 -0.0559
vn 0.9856 0.1690 0.0111
vn 0.9687 0.1017 -0.2266
vn 0.9688 0.2263 0.1013
vn 0.9867 0.0682 -0.1473
vn 0.9867 0.1473 0.0683
vn 0.9856 0.0111 -0.1690
vn 0.9856 0.1117 0.1273
vn 0.9686 -0.0884 -0.2322
vn 0.9688 0.0884 0.2317
vn 0.9868 -0.0559 -0.1523
vn 0.9867 0.0559 0.1523
vn 0.9856 -0.1116 -0.1274
vn 0.9856 -0.0110 0.1690
vn 0.9687 -0.2266 -0.1018
vn 0.9687 -0.1014 0.2264
vn 0.9867 -0.1472 -0.0682
vn 0.9868 -0.0682 0.1472
vn 0.9855 -0.1691 -0.0110
vn 0.9856 -0.1272 0.1116
vn 0.9686 -0.2322 0.0884
vn 0.9867 -0.1524 0.0559
vn 0.9696 -0.1601 0.1849
vn 0.9698 -0.2434 0.0168
vn 0.9697 -0.1843 -0.1604
vn 0.9697 0.0178 0.2438
vn 0.9698 -0.0170 -0.2433
vn 0.9698 0.1850 0.1593
vn 0.9697 0.1600 -0.1844
vn 0.9696 0.2441 -0.0175
vn 0.8241 -0.5253 0.2119
vn 0.8935 -0.4096 -0.1841
vn 0.9772 -0.0826 0.1954
vn 0.8934 -0.1598 -0.4198
vn 0.8936 0.1836 -0.4095
vn 0.8934 0.4201 -0.1593
vn 0.8202 0.2010 0.5356
vn 0.8922 0.4119 0.1850
vn -0.4444 0.8277 -0.3427
vn -0.4614 0.6387 -0.6158
vn -0.8988 0.2968 -0.3226
vn -0.9036 0.3209 0.2838
vn -0.9145 0.4027 -0.0388
vn -0.7738 -0.4718 0.4228
vn -0.9738 0.2269 0.0177
vn -0.9968 -0.0533 -0.0603
vn -0.9895 0.1441 0.0036
vn -0.9387 -0.0268 0.3437
vn -0.9092 0.1775 -0.3766
vn -0.9216 -0.0917 -0.3771
vn -0.9170 -0.3534 -0.1849
vn -0.9896 0.0983 0.1050
vn -0.9068 -0.3540 0.2288
vn -0.9754 -0.0852 -0.2032
vn -0.9643 -0.2362 -0.1195
vn -0.9784 -0.0935 0.1843
vn -0.9784 0.0212 0.2055
vn -0.9738 -0.1486 -0.1719
vn -0.9616 0.1433 -0.2342
vn -0.9690 -0.0884 -0.2309
vn -0.9698 -0.2294 0.0833
vn -0.9800 0.1660 0.1093
vn -0.9877 -0.1563 0.0082
vn -0.9786 -0.1959 0.0631
vn -0.9848 -0.0562 0.1642
vn -0.9861 0.0118 0.1655
vn -0.9848 0.0764 0.1558
vn -0.9861 0.1254 0.1086
vn -0.9877 -0.1162 -0.1047
vn -0.9867 -0.0756 -0.1438
vn -0.9867 0.0483 -0.1552
vn -0.9882 -0.0006 -0.1530
vn -0.9849 0.1730 -0.0084
vn -0.9766 0.2146 -0.0144
vn -0.9699 0.1653 -0.1788
vn -0.9880 -0.1428 -0.0581
vn -0.8966 0.1735 -0.4074
vn -0.9867 -0.1439 0.0755
vn -0.9861 -0.1087 0.1254
vn -0.9874 0.1505 0.0489
vn -0.9856 0.1114 -0.1271
vn -0.9848 0.1559 -0.0763
vn 0.4513 0.8284 -0.3317
vn 0.9079 0.2978 -0.2950
vn 0.4771 0.5952 -0.6466
vn 0.9078 0.1620 -0.3868
vn 0.4766 0.3022 -0.8255
vn 0.9081 0.3877 -0.1583
vn 0.4522 0.8918 0.0104
vn 0.9078 0.0016 -0.4193
vn 0.9083 0.4182 0.0021
vn 0.4894 0.0025 -0.8721
vn 0.9081 -0.1588 -0.3875
vn 0.4895 -0.3313 -0.8066
vn 0.9081 -0.2950 -0.2972
vn 0.4896 -0.6147 -0.6184
vn 0.9082 -0.3861 -0.1616
vn 0.4898 -0.8045 -0.3360
vn 0.9081 -0.4188 -0.0016
vn 0.4892 -0.8722 -0.0025
vn 0.9080 -0.3877 0.1587
vn 0.4893 -0.8068 0.3313
vn 0.9080 -0.2974 0.2952
vn 0.4890 -0.6185 0.6151
vn 0.9079 -0.1620 0.3867
vn 0.4888 -0.3362 0.8050
vn 0.9078 -0.0016 0.4193
vn 0.4894 -0.0025 0.8721
vn 0.9081 0.1588 0.3875
vn 0.4895 0.3313 0.8066
vn 0.9081 0.2951 0.2972
vn 0.4896 0.6147 0.6184
vn 0.9082 0.3860 0.1616
vn 0.4901 0.8042 0.3362
vn 0.9961 -0.0873 0.0155
vn 0.9961 -0.0866 -0.0191
vn 0.9961 -0.0742 0.0480
vn 0.9960 -0.0728 -0.0510
vn 0.9960 -0.0477 -0.0750
vn 0.9960 -0.0154 -0.0876
vn 0.9960 0.0193 -0.0868
vn 0.9960 0.0511 -0.0729
vn 0.9960 0.0750 -0.0477
vn 0.9960 0.0875 -0.0154
vn 0.9960 0.0867 0.0193
vn 0.9960 0.0728 0.0510
vn 0.9960 0.0478 0.0750
vn 0.9960 0.0154 0.0876
vn 0.9960 -0.0193 0.0867
vn 0.9960 -0.0510 0.0727
vn -0.4607 0.3549 -0.8135
vn -0.9042 0.3981 -0.1547
vn -0.4568 0.8894 0.0140
vn -0.8972 0.0042 -0.4417
vn -0.9047 0.4259 0.0091
vn -0.4809 0.0127 -0.8767
vn -0.8974 -0.1650 -0.4092
vn -0.4812 -0.3238 -0.8146
vn -0.8970 -0.3095 -0.3155
vn -0.4811 -0.6106 -0.6290
vn -0.8976 -0.4055 -0.1726
vn -0.4817 -0.8047 -0.3470
vn -0.8969 -0.4421 -0.0043
vn -0.4810 -0.8766 -0.0128
vn -0.8971 -0.4098 0.1650
vn -0.4431 -0.8214 0.3592
vn -0.8971 -0.3154 0.3093
vn -0.4450 -0.6339 0.6326
vn -0.8966 -0.1735 0.4073
vn -0.4440 -0.3438 0.8274
vn -0.8972 -0.0042 0.4417
vn -0.4448 -0.0010 0.8956
vn -0.8974 0.1650 0.4092
vn -0.4453 0.3419 0.8275
vn -0.8970 0.3095 0.3155
vn -0.4447 0.6326 0.6341
vn -0.8977 0.4055 0.1725
vn -0.4455 0.8267 0.3438
vn -0.9907 -0.1032 0.0884
vn -0.9932 -0.1102 -0.0380
vn -0.9868 -0.1230 0.1050
vn -0.9870 -0.1550 -0.0426
vn -0.9871 -0.1263 -0.0986
vn -0.9870 -0.0794 -0.1397
vn -0.9870 -0.0199 -0.1594
vn -0.9870 0.0427 -0.1549
vn -0.9870 0.0986 -0.1267
vn -0.9871 0.1395 -0.0791
vn -0.9870 0.1593 -0.0198
vn -0.9870 0.1547 0.0427
vn -0.9870 0.1269 0.0987
vn -0.9870 0.0793 0.1397
vn -0.9870 0.0200 0.1594
vn -0.9871 -0.0428 0.1543
usemtl materials_are_bae.004
s 1
f 1/1/1 2/2/2 3/3/3
f 4/4/4 1/1/1 3/3/3
f 2/2/2 1/1/1 5/5/5
f 6/6/6 1/1/1 4/4/4
f 2/2/2 5/5/5 7/7/7
f 6/6/6 4/4/4 8/8/8
f 5/5/5 9/9/9 7/7/7
f 10/10/10 6/6/6 8/8/8
f 9/9/9 5/5/5 11/11/11
f 10/10/10 12/12/12 6/6/6
f 9/9/9 11/11/11 13/13/13
f 12/12/12 10/10/10 14/14/14
f 11/11/11 15/15/15 13/13/13
f 16/16/16 12/12/12 14/14/14
f 15/15/15 11/11/11 17/17/17
f 16/16/16 18/18/18 12/12/12
f 15/15/15 17/17/17 19/19/19
f 18/18/18 16/16/16 20/20/20
f 17/17/17 21/21/21 19/19/19
f 22/22/22 18/18/18 20/20/20
f 21/21/21 17/17/17 23/23/23
f 22/22/22 23/23/23 18/18/18
f 21/21/21 23/23/23 24/24/24
f 23/23/23 22/22/22 24/24/24
f 25/25/25 1/1/1 26/26/26
f 26/26/26 1/1/1 6/6/6
f 1/1/1 25/25/25 5/5/5
f 26/26/26 6/6/6 27/27/27
f 28/28/28 5/5/5 25/25/25
f 12/12/12 27/27/27 6/6/6
f 5/5/5 28/28/28 11/11/11
f 27/27/27 12/12/12 29/29/29
f 30/30/30 11/11/11 28/28/28
f 18/18/18 29/29/29 12/12/12
f 11/11/11 30/30/30 17/17/17
f 29/29/29 18/18/18 31/31/31
f 32/32/32 17/17/17 30/30/30
f 23/23/23 31/31/31 18/18/18
f 17/17/17 32/32/32 23/23/23
f 31/31/31 23/23/23 32/32/32
f 33/33/33 25/25/25 26/26/26
f 26/26/26 34/34/34 33/33/33
f 34/34/34 26/26/26 27/27/27
f 25/25/25 33/33/33 35/35/35
f 34/34/34 35/35/35 33/33/33
f 35/35/35 28/28/28 25/25/25
f 27/27/27 36/36/36 34/34/34
f 36/36/36 35/35/35 34/34/34
f 36/36/36 27/27/27 29/29/29
f 29/29/29 37/37/37 36/36/36
f 37/37/37 35/35/35 36/36/36
f 37/37/37 29/29/29 31/31/31
f 31/31/31 38/38/38 37/37/37
f 38/38/38 35/35/35 37/37/37
f 38/38/38 31/31/31 32/32/32
f 28/28/28 35/35/35 39/39/39
f 39/39/39 30/30/30 28/28/28
f 40/40/40 35/35/35 38/38/38
f 35/35/35 40/40/40 39/39/39
f 32/32/32 40/40/40 38/38/38
f 39/39/39 40/40/40 30/30/30
f 40/40/40 32/32/32 30/30/30
f 41/41/41 42/42/42 43/43/43
f 44/44/44 45/45/45 46/46/46
f 44/44/44 47/47/47 48/48/48
f 49/49/49 50/50/50 46/46/46
f 50/50/50 47/47/47 44/44/44
f 51/51/51 52/52/52 46/46/46
f 52/52/52 53/53/53 46/46/46
f 54/54/54 46/46/46 55/55/55
f 56/56/56 53/53/53 52/52/52
f 53/53/53 55/55/55 46/46/46
f 48/48/48 47/47/47 57/57/57
f 58/58/58 59/59/59 60/60/60
f 61/61/61 62/62/62 49/49/49
f 63/63/63 56/56/56 64/64/64
f 56/56/56 60/60/60 59/59/59
f 49/49/49 54/54/54 61/61/61
f 65/65/65 66/66/66 57/57/57
f 58/58/58 67/67/67 68/68/68
f 68/68/68 59/59/59 58/58/58
f 59/59/59 69/69/69 70/70/70
f 71/71/71 57/57/57 62/62/62
f 62/62/62 72/72/72 71/71/71
f 61/61/61 73/73/73 74/74/74
f 64/64/64 75/75/75 76/76/76
f 45/45/45 48/48/48 77/77/77
f 50/50/50 49/49/49 47/47/47
f 52/52/52 60/60/60 56/56/56
f 46/46/46 54/54/54 49/49/49
f 47/47/47 49/49/49 62/62/62
f 59/59/59 64/64/64 56/56/56
f 71/71/71 78/78/78 57/57/57
f 68/68/68 69/69/69 59/59/59
f 79/79/79 43/43/43 42/42/42
f 77/77/77 51/51/51 45/45/45
f 45/45/45 51/51/51 46/46/46
f 46/46/46 50/50/50 44/44/44
f 48/48/48 45/45/45 44/44/44
f 60/60/60 52/52/52 51/51/51
f 51/51/51 77/77/77 60/60/60
f 63/63/63 55/55/55 53/53/53
f 53/53/53 56/56/56 63/63/63
f 55/55/55 63/63/63 54/54/54
f 77/77/77 48/48/48 66/66/66
f 66/66/66 58/58/58 77/77/77
f 57/57/57 66/66/66 48/48/48
f 60/60/60 77/77/77 58/58/58
f 62/62/62 57/57/57 47/47/47
f 63/63/63 64/64/64 76/76/76
f 76/76/76 61/61/61 54/54/54
f 54/54/54 63/63/63 76/76/76
f 66/66/66 80/80/80 81/81/81
f 81/81/81 58/58/58 66/66/66
f 65/65/65 80/80/80 66/66/66
f 81/81/81 67/67/67 58/58/58
f 57/57/57 78/78/78 65/65/65
f 70/70/70 64/64/64 59/59/59
f 74/74/74 72/72/72 62/62/62
f 70/70/70 82/82/82 64/64/64
f 74/74/74 62/62/62 61/61/61
f 83/83/83 73/73/73 61/61/61
f 64/64/64 82/82/82 75/75/75
f 83/83/83 61/61/61 76/76/76
f 76/76/76 84/84/84 83/83/83
f 75/75/75 84/84/84 76/76/76
f 85/85/85 86/86/86 87/87/87
f 88/88/88 87/89/87 86/90/86
f 87/89/87 88/88/88 89/91/89
f 86/86/86 85/85/85 90/92/90
f 91/93/91 90/92/90 85/85/85
f 92/94/92 89/91/89 88/88/88
f 90/92/90 91/93/91 93/95/93
f 89/91/89 92/94/92 94/96/94
f 95/97/95 94/98/94 92/99/92
f 94/98/94 95/97/95 96/100/96
f 97/101/97 96/100/96 95/97/95
f 96/100/96 97/101/97 98/102/98
f 99/103/99 98/102/98 97/101/97
f 98/102/98 99/103/99 100/104/100
f 101/105/101 100/104/100 99/103/99
f 100/104/100 101/105/101 102/106/102
f 103/107/103 102/108/102 101/109/101
f 102/108/102 103/107/103 104/110/104
f 105/111/105 104/112/104 103/113/103
f 104/112/104 105/111/105 106/114/106
f 107/115/107 106/116/106 105/117/105
f 106/116/106 107/115/107 108/118/108
f 109/119/109 108/120/108 107/121/107
f 108/120/108 109/119/109 110/122/110
f 111/123/111 110/124/110 109/125/109
f 110/124/110 111/123/111 112/126/112
f 113/127/113 112/126/112 111/123/111
f 112/126/112 113/127/113 114/128/114
f 115/129/115 114/128/114 113/127/113
f 114/128/114 115/129/115 116/130/116
f 93/131/93 116/132/116 115/133/115
f 116/132/116 93/131/93 91/134/91
f 101/135/101 117/136/117 103/137/103
f 117/136/117 101/135/101 118/138/118
f 99/139/99 118/138/118 101/135/101
f 119/140/119 103/137/103 117/136/117
f 103/137/103 119/140/119 105/141/105
f 118/138/118 3/142/3 117/136/117
f 2/143/2 117/136/117 3/142/3
f 117/136/117 2/143/2 119/140/119
f 3/142/3 118/138/118 4/144/4
f 7/145/7 119/140/119 2/143/2
f 120/146/120 4/144/4 118/138/118
f 118/138/118 99/139/99 120/146/120
f 4/144/4 120/146/120 8/147/8
f 97/148/97 120/146/120 99/139/99
f 121/149/121 8/147/8 120/146/120
f 120/146/120 97/148/97 121/149/121
f 8/147/8 121/149/121 10/150/10
f 95/151/95 121/149/121 97/148/97
f 122/152/122 10/150/10 121/149/121
f 121/149/121 95/151/95 122/152/122
f 10/150/10 122/152/122 14/153/14
f 92/154/92 122/152/122 95/151/95
f 123/155/123 14/153/14 122/152/122
f 122/152/122 92/154/92 123/155/123
f 14/153/14 123/155/123 16/156/16
f 88/157/88 123/155/123 92/154/92
f 124/158/124 16/156/16 123/155/123
f 123/155/123 88/157/88 124/158/124
f 16/156/16 124/158/124 20/159/20
f 86/160/86 124/158/124 88/157/88
f 125/161/125 20/159/20 124/158/124
f 124/158/124 86/160/86 125/161/125
f 20/159/20 125/161/125 22/162/22
f 90/163/90 125/161/125 86/160/86
f 126/164/126 22/162/22 125/161/125
f 125/161/125 90/163/90 126/164/126
f 22/162/22 126/164/126 24/165/24
f 93/166/93 126/164/126 90/163/90
f 127/167/127 24/165/24 126/164/126
f 126/164/126 93/166/93 127/167/127
f 24/165/24 127/167/127 21/168/21
f 115/169/115 127/167/127 93/166/93
f 128/170/128 21/168/21 127/167/127
f 127/167/127 115/169/115 128/170/128
f 21/168/21 128/170/128 19/171/19
f 113/172/113 128/170/128 115/169/115
f 129/173/129 19/171/19 128/170/128
f 128/170/128 113/172/113 129/173/129
f 19/171/19 129/173/129 15/174/15
f 111/175/111 129/173/129 113/172/113
f 130/176/130 15/174/15 129/173/129
f 129/173/129 111/175/111 130/176/130
f 15/174/15 130/176/130 13/177/13
f 109/178/109 130/176/130 111/175/111
f 131/179/131 13/177/13 130/176/130
f 130/176/130 109/178/109 131/179/131
f 13/177/13 131/179/131 9/180/9
f 107/181/107 131/179/131 109/178/109
f 132/182/132 9/180/9 131/179/131
f 107/181/107 132/182/132 131/179/131
f 9/180/9 132/182/132 7/145/7
f 105/141/105 132/182/132 107/181/107
f 7/145/7 132/182/132 119/140/119
f 132/182/132 105/141/105 119/140/119
f 42/42/42 133/183/133 79/79/79
f 43/43/43 134/184/134 41/41/41
f 135/185/135 41/186/41 134/187/134
f 136/188/136 79/79/79 133/183/133
f 134/187/134 137/189/137 135/185/135
f 133/183/133 138/190/138 136/188/136
f 139/191/139 136/192/136 138/193/138
f 138/193/138 140/194/140 139/191/139
f 141/195/141 139/196/139 140/197/140
f 140/197/140 142/198/142 141/195/141
f 143/199/143 141/200/141 142/201/142
f 142/201/142 144/202/144 143/199/143
f 145/203/145 143/204/143 144/205/144
f 144/205/144 146/206/146 145/203/145
f 147/207/147 145/208/145 146/209/146
f 146/209/146 148/210/148 147/207/147
f 149/211/149 147/212/147 148/213/148
f 148/213/148 150/214/150 149/211/149
f 151/215/151 149/211/149 150/214/150
f 150/214/150 152/216/152 151/215/151
f 153/217/153 151/218/151 152/219/152
f 152/219/152 154/220/154 153/217/153
f 155/221/155 153/222/153 154/223/154
f 154/223/154 156/224/156 155/221/155
f 157/225/157 155/221/155 156/224/156
f 156/224/156 158/226/158 157/225/157
f 159/227/159 157/228/157 158/229/158
f 158/229/158 160/230/160 159/227/159
f 137/231/137 159/232/159 160/233/160
f 160/233/160 135/234/135 137/231/137
f 145/235/145 147/236/147 161/237/161
f 161/237/161 162/238/162 145/235/145
f 143/239/143 145/235/145 162/238/162
f 163/240/163 161/237/161 147/236/147
f 147/236/147 149/241/149 163/240/163
f 162/238/162 161/237/161 84/242/84
f 83/243/83 84/242/84 161/237/161
f 161/237/161 163/240/163 83/243/83
f 84/242/84 75/244/75 162/238/162
f 73/245/73 83/243/83 163/240/163
f 164/246/164 162/238/162 75/244/75
f 162/238/162 164/246/164 143/239/143
f 75/244/75 82/247/82 164/246/164
f 141/248/141 143/239/143 164/246/164
f 165/249/165 164/246/164 82/247/82
f 164/246/164 165/249/165 141/248/141
f 82/247/82 70/250/70 165/249/165
f 139/251/139 141/248/141 165/249/165
f 166/252/166 165/249/165 70/250/70
f 165/249/165 166/252/166 139/251/139
f 70/250/70 69/253/69 166/252/166
f 136/254/136 139/251/139 166/252/166
f 167/255/167 166/252/166 69/253/69
f 166/252/166 167/255/167 136/254/136
f 69/253/69 68/256/68 167/255/167
f 79/257/79 136/254/136 167/255/167
f 168/258/168 167/255/167 68/256/68
f 167/255/167 168/258/168 79/257/79
f 68/256/68 67/259/67 168/258/168
f 43/260/43 79/257/79 168/258/168
f 169/261/169 168/258/168 67/259/67
f 168/258/168 169/261/169 43/260/43
f 67/259/67 81/262/81 169/261/169
f 134/263/134 43/260/43 169/261/169
f 170/264/170 169/261/169 81/262/81
f 169/261/169 170/264/170 134/263/134
f 81/262/81 80/265/80 170/264/170
f 137/266/137 134/263/134 170/264/170
f 171/267/171 170/264/170 80/265/80
f 170/264/170 171/267/171 137/266/137
f 80/265/80 65/268/65 171/267/171
f 159/269/159 137/266/137 171/267/171
f 172/270/172 171/267/171 65/268/65
f 171/267/171 172/270/172 159/269/159
f 65/268/65 78/271/78 172/270/172
f 157/272/157 159/269/159 172/270/172
f 173/273/173 172/270/172 78/271/78
f 172/270/172 173/273/173 157/272/157
f 78/271/78 71/274/71 173/273/173
f 155/275/155 157/272/157 173/273/173
f 174/276/174 173/273/173 71/274/71
f 173/273/173 174/276/174 155/275/155
f 71/274/71 72/277/72 174/276/174
f 153/278/153 155/275/155 174/276/174
f 175/279/175 174/276/174 72/277/72
f 174/276/174 175/279/175 153/278/153
f 72/277/72 74/280/74 175/279/175
f 151/281/151 153/278/153 175/279/175
f 176/282/176 175/279/175 74/280/74
f 151/281/151 175/279/175 176/282/176
f 74/280/74 73/245/73 176/282/176
f 149/241/149 151/281/151 176/282/176
f 73/245/73 163/240/163 176/282/176
f 176/282/176 163/240/163 149/241/149
f 160/283/160 91/284/91 135/285/135
f 135/286/135 85/287/85 41/288/41
f 85/287/85 135/286/135 91/289/91
f 41/288/41 87/290/87 42/291/42
f 87/290/87 41/288/41 85/287/85
f 42/291/42 89/292/89 133/293/133
f 89/292/89 42/291/42 87/290/87
f 94/294/94 133/293/133 89/292/89
f 133/293/133 94/294/94 138/295/138
f 96/296/96 138/297/138 94/298/94
f 138/297/138 96/296/96 140/299/140
f 98/300/98 140/299/140 96/296/96
f 140/299/140 98/300/98 142/301/142
f 100/302/100 142/301/142 98/300/98
f 142/301/142 100/302/100 144/303/144
f 102/304/102 144/305/144 100/306/100
f 144/305/144 102/304/102 146/307/146
f 104/308/104 146/309/146 102/310/102
f 146/309/146 104/308/104 148/311/148
f 106/312/106 148/311/148 104/308/104
f 148/311/148 106/312/106 150/313/150
f 108/314/108 150/313/150 106/312/106
f 150/313/150 108/314/108 152/315/152
f 110/316/110 152/315/152 108/314/108
f 152/315/152 110/316/110 154/317/154
f 112/318/112 154/319/154 110/320/110
f 154/319/154 112/318/112 156/321/156
f 114/322/114 156/321/156 112/318/112
f 156/321/156 114/322/114 158/323/158
f 116/324/116 158/323/158 114/322/114
f 158/323/158 116/324/116 160/283/160
f 91/284/91 160/283/160 116/324/116
