# Blender v3.0.1 OBJ File: ''
# www.blender.org
mtllib farmtractor_wheel.mtl
o Tractor_(Low_Poly)
v 0.238993 0.000000 0.999969
v -0.236580 0.000000 0.999969
v 0.238993 -0.382709 0.923880
v -0.236580 -0.382709 0.923880
v 0.238993 -0.707109 0.707110
v -0.236580 -0.707109 0.707110
v 0.238993 -0.923879 0.382646
v -0.236580 -0.923879 0.382646
v 0.238993 -1.000031 -0.000000
v -0.236580 -1.000031 0.000000
v 0.238993 -0.923879 -0.382708
v -0.236580 -0.923879 -0.382708
v 0.238993 0.999968 -0.000000
v -0.236580 0.999968 0.000000
v 0.238993 0.923879 0.382646
v -0.236580 0.923879 0.382646
v 0.238993 0.707109 0.707110
v -0.236580 0.707109 0.707110
v 0.238993 0.382646 0.923880
v -0.236580 0.382646 0.923880
v -0.125620 -0.395715 0.395715
v -0.125620 -0.214194 0.517044
v -0.125620 0.000000 0.000000
v -0.125620 0.000000 0.559644
v -0.125620 0.214131 0.517044
v -0.236580 0.000000 0.610035
v -0.236580 -0.233483 0.563602
v -0.275662 0.000000 0.805002
v -0.275662 -0.308064 0.743741
v -0.236580 -0.431403 0.431404
v -0.275662 -0.569256 0.569257
v -0.125620 -0.559643 0.000000
v -0.125620 -0.517043 0.214131
v -0.236580 -0.563664 0.233421
v -0.275662 -0.743803 0.308065
v -0.236580 -0.610097 0.000000
v -0.275662 -0.805064 0.000000
v -0.125620 -0.395715 -0.395714
v -0.125620 -0.517043 -0.214193
v -0.236580 -0.563664 -0.233483
v -0.275662 -0.743803 -0.308064
v -0.236580 -0.431403 -0.431403
v -0.275662 -0.569256 -0.569256
v -0.125620 -0.000000 -0.559643
v -0.125620 -0.214194 -0.517043
v -0.125620 0.214131 -0.517043
v -0.236580 -0.233483 -0.563664
v -0.275662 -0.308064 -0.743740
v -0.236580 -0.000000 -0.610097
v -0.275662 -0.000000 -0.805064
v -0.125620 0.395714 -0.395715
v -0.236580 0.233420 -0.563664
v -0.275662 0.308064 -0.743740
v -0.236580 0.431340 -0.431403
v -0.275662 0.569193 -0.569256
v -0.125620 0.559580 0.000000
v -0.125620 0.516980 -0.214193
v -0.236580 0.563601 -0.233483
v -0.275662 0.743740 -0.308064
v -0.236580 0.610034 0.000000
v -0.275662 0.805001 0.000000
v -0.125620 0.395714 0.395715
v -0.125620 0.516980 0.214131
v -0.236580 0.563601 0.233483
v -0.275662 0.743740 0.308065
v -0.236580 0.431340 0.431341
v -0.275662 0.569193 0.569257
v -0.236580 0.233420 0.563602
v -0.275662 0.308064 0.743741
v -0.236580 0.923879 -0.382708
v 0.126525 -0.214194 0.517044
v 0.126525 -0.395715 0.395715
v 0.126525 0.000000 -0.000000
v 0.126525 0.000000 0.559644
v 0.126525 0.214131 0.517044
v 0.238993 0.000000 0.610035
v 0.238993 -0.233483 0.563602
v 0.278138 0.000000 0.805002
v 0.278138 -0.308064 0.743741
v 0.238993 -0.431403 0.431404
v 0.278138 -0.569256 0.569257
v 0.126525 -0.517043 0.214131
v 0.126525 -0.559643 -0.000000
v 0.238993 -0.563664 0.233483
v 0.278138 -0.743803 0.308065
v 0.238993 -0.610097 -0.000000
v 0.278138 -0.805064 -0.000000
v 0.126525 -0.517043 -0.214193
v 0.126525 -0.395715 -0.395714
v 0.238993 -0.563664 -0.233483
v 0.278138 -0.743803 -0.308064
v 0.238993 -0.431403 -0.431403
v 0.278138 -0.569256 -0.569256
v 0.126525 -0.214194 -0.517043
v 0.126525 -0.000000 -0.559643
v 0.238993 -0.233483 -0.563664
v 0.278138 -0.308064 -0.743740
v 0.238993 -0.000000 -0.610097
v 0.278138 -0.000000 -0.805064
v 0.126525 0.214131 -0.517043
v 0.126525 0.395714 -0.395715
v 0.238993 0.233420 -0.563664
v 0.278138 0.308064 -0.743740
v 0.238993 0.431340 -0.431403
v 0.278138 0.569193 -0.569256
v 0.126525 0.516980 -0.214193
v 0.126525 0.559580 -0.000000
v 0.238993 0.563601 -0.233483
v 0.278138 0.743740 -0.308064
v 0.238993 0.610034 -0.000000
v 0.278138 0.805001 -0.000000
v 0.126525 0.516980 0.214131
v 0.126525 0.395714 0.395715
v 0.238993 0.563601 0.233421
v 0.278138 0.743740 0.308065
v 0.238993 0.431340 0.431404
v 0.278138 0.569193 0.569257
v 0.238993 0.233420 0.563602
v 0.278138 0.308064 0.743741
v 0.238993 -0.707109 -0.707109
v 0.238993 0.707109 -0.707109
v 0.238993 0.923879 -0.382708
v 0.238993 -0.000000 -1.000031
v -0.236580 -0.000000 -1.000031
v 0.238993 0.382646 -0.923879
v -0.236580 0.382646 -0.923879
v -0.236580 0.707109 -0.707109
v -0.236580 -0.707109 -0.707109
v 0.238993 -0.382709 -0.923879
v -0.236580 -0.382709 -0.923879
vt 0.994600 0.755900
vt 0.921900 0.755900
vt 0.994600 0.696000
vt 0.921900 0.696000
vt 0.994600 0.636200
vt 0.921900 0.636200
vt 0.994600 0.576400
vt 0.921900 0.576400
vt 0.994600 0.516400
vt 0.921900 0.516400
vt 0.994600 0.995300
vt 0.921900 0.995300
vt 0.994600 0.935500
vt 0.921900 0.935500
vt 0.994600 0.995300
vt 0.921900 0.995300
vt 0.994600 0.935500
vt 0.921900 0.935500
vt 0.994600 0.875600
vt 0.921900 0.875600
vt 0.994600 0.815800
vt 0.921900 0.815800
vt 0.813500 0.487300
vt 0.829600 0.511000
vt 0.761200 0.539100
vt 0.835000 0.539100
vt 0.829600 0.567400
vt 0.853500 0.539100
vt 0.846200 0.503900
vt 0.882800 0.539100
vt 0.873500 0.492700
vt 0.826200 0.474100
vt 0.847200 0.453600
vt 0.761200 0.465300
vt 0.789600 0.471200
vt 0.796400 0.454100
vt 0.807600 0.427200
vt 0.761200 0.447300
vt 0.761200 0.418000
vt 0.813500 0.591300
vt 0.789600 0.607400
vt 0.761200 0.613000
vt 0.761200 0.631100
vt 0.796400 0.624300
vt 0.761200 0.660600
vt 0.807600 0.651400
vt 0.826200 0.604200
vt 0.847200 0.625000
vt 0.835000 0.539100
vt 0.829600 0.567400
vt 0.829600 0.511000
vt 0.846200 0.574500
vt 0.873500 0.585700
vt 0.853500 0.539100
vt 0.882800 0.539100
vt 0.813500 0.487300
vt 0.846200 0.503900
vt 0.873500 0.492700
vt 0.826200 0.474100
vt 0.847200 0.453600
vt 0.761200 0.465300
vt 0.789600 0.471200
vt 0.796400 0.454100
vt 0.807600 0.427200
vt 0.761200 0.447300
vt 0.761200 0.418000
vt 0.813500 0.591300
vt 0.789600 0.607400
vt 0.761200 0.613000
vt 0.761200 0.631100
vt 0.796400 0.624300
vt 0.761200 0.660600
vt 0.807600 0.651400
vt 0.826200 0.604200
vt 0.847200 0.625000
vt 0.846200 0.574500
vt 0.873500 0.585700
vt 0.912100 0.539100
vt 0.900900 0.481400
vt 0.868200 0.432600
vt 0.818800 0.399900
vt 0.761200 0.388700
vt 0.761200 0.689900
vt 0.818800 0.678500
vt 0.818800 0.399900
vt 0.761200 0.388700
vt 0.761200 0.689900
vt 0.818800 0.678500
vt 0.868200 0.645800
vt 0.900900 0.596900
vt 0.829600 0.511000
vt 0.813500 0.487300
vt 0.761200 0.539100
vt 0.835000 0.539100
vt 0.829600 0.567400
vt 0.853500 0.539100
vt 0.846200 0.503900
vt 0.882800 0.539100
vt 0.873500 0.492700
vt 0.826200 0.474100
vt 0.847200 0.453600
vt 0.789600 0.471200
vt 0.761200 0.465300
vt 0.796400 0.454100
vt 0.807600 0.427200
vt 0.761200 0.447300
vt 0.761200 0.418000
vt 0.789600 0.607400
vt 0.813500 0.591300
vt 0.761200 0.613000
vt 0.761200 0.631100
vt 0.796400 0.624300
vt 0.761200 0.660600
vt 0.807600 0.651400
vt 0.826200 0.604200
vt 0.847200 0.625000
vt 0.829600 0.567400
vt 0.835000 0.539100
vt 0.846200 0.574500
vt 0.873500 0.585700
vt 0.853500 0.539100
vt 0.882800 0.539100
vt 0.829600 0.511000
vt 0.813500 0.487300
vt 0.846200 0.503900
vt 0.873500 0.492700
vt 0.826200 0.474100
vt 0.847200 0.453600
vt 0.789600 0.471200
vt 0.761200 0.465300
vt 0.796400 0.454100
vt 0.807600 0.427200
vt 0.761200 0.447300
vt 0.761200 0.418000
vt 0.789600 0.607400
vt 0.813500 0.591300
vt 0.761200 0.613000
vt 0.761200 0.631100
vt 0.796400 0.624300
vt 0.761200 0.660600
vt 0.807600 0.651400
vt 0.826200 0.604200
vt 0.847200 0.625000
vt 0.846200 0.574500
vt 0.873500 0.585700
vt 0.912100 0.539100
vt 0.900900 0.481400
vt 0.868200 0.432600
vt 0.818800 0.399900
vt 0.761200 0.388700
vt 0.761200 0.689900
vt 0.818800 0.678500
vt 0.868200 0.645800
vt 0.868200 0.432600
vt 0.818800 0.399900
vt 0.761200 0.388700
vt 0.761200 0.689900
vt 0.818800 0.678500
vt 0.868200 0.645800
vt 0.900900 0.596900
vt 0.994600 0.755900
vt 0.921900 0.755900
vt 0.994600 0.696000
vt 0.921900 0.696000
vt 0.994600 0.636200
vt 0.921900 0.636200
vt 0.994600 0.576400
vt 0.921900 0.576400
vt 0.912100 0.539100
vt 0.900900 0.481400
vt 0.994600 0.875600
vt 0.921900 0.875600
vt 0.994600 0.815800
vt 0.921900 0.815800
vt 0.994600 0.516400
vt 0.921900 0.516400
vt 0.868200 0.645800
vt 0.900900 0.596900
vt 0.912100 0.539100
vt 0.900900 0.481400
vt 0.868200 0.432600
vt 0.900900 0.596900
vn 0.6389 0.0509 0.7676
vn -0.6393 -0.0339 0.7682
vn 0.6388 -0.2467 0.7287
vn -0.6393 -0.3253 0.6967
vn 0.6388 -0.5068 0.5788
vn -0.6393 -0.5672 0.5192
vn 0.6388 -0.6897 0.3408
vn -0.6393 -0.7227 0.2626
vn 0.6388 -0.7677 0.0509
vn -0.6393 -0.7682 -0.0339
vn 0.6388 -0.7287 -0.2467
vn -0.6393 -0.6967 -0.3253
vn 0.6388 0.7676 -0.0509
vn -0.6393 0.7682 0.0339
vn 0.6388 0.7287 0.2467
vn -0.6393 0.6967 0.3253
vn 0.6388 0.5788 0.5068
vn -0.6393 0.5192 0.5672
vn 0.6388 0.3408 0.6897
vn -0.6393 0.2626 0.7227
vn -0.7528 0.4984 -0.4300
vn -0.7530 0.2965 -0.5874
vn -1.0000 -0.0000 0.0000
vn -0.7530 0.0492 -0.6562
vn -0.7530 -0.2056 -0.6251
vn -0.7844 -0.0285 -0.6196
vn -0.7845 0.2104 -0.5833
vn -0.9999 -0.0133 0.0000
vn -0.9999 -0.0123 -0.0051
vn -0.7846 0.4176 -0.4583
vn -0.9999 -0.0094 -0.0094
vn -0.7528 0.6565 0.0484
vn -0.7530 0.6250 -0.2056
vn -0.7846 0.5612 -0.2637
vn -0.9999 -0.0051 -0.0123
vn -0.7846 0.6194 -0.0288
vn -0.9999 -0.0000 -0.0133
vn -0.7528 0.4300 0.4984
vn -0.7531 0.5873 0.2965
vn -0.7846 0.5833 0.2104
vn -0.9999 0.0051 -0.0123
vn -0.7846 0.4583 0.4176
vn -0.9999 0.0094 -0.0094
vn -0.7528 -0.0484 0.6565
vn -0.7530 0.2056 0.6250
vn -0.7528 -0.2959 0.5880
vn -0.7846 0.2637 0.5612
vn -0.9999 0.0123 -0.0051
vn -0.7846 0.0288 0.6194
vn -0.9999 0.0133 -0.0000
vn -0.7528 -0.4984 0.4300
vn -0.7846 -0.2104 0.5833
vn -0.9999 0.0123 0.0051
vn -0.7846 -0.4176 0.4584
vn -0.9999 0.0094 0.0094
vn -0.7528 -0.6565 -0.0484
vn -0.7530 -0.6250 0.2057
vn -0.7846 -0.5612 0.2637
vn -0.9999 0.0051 0.0123
vn -0.7846 -0.6194 0.0288
vn -0.9999 0.0000 0.0133
vn -0.7528 -0.4300 -0.4984
vn -0.7531 -0.5873 -0.2965
vn -0.7846 -0.5832 -0.2104
vn -0.9999 -0.0051 0.0123
vn -0.7845 -0.4584 -0.4176
vn -0.9999 -0.0094 0.0094
vn -0.7846 -0.2637 -0.5612
vn -0.9999 -0.0123 0.0051
vn -0.6393 0.7227 -0.2626
vn 0.7651 0.2852 -0.5773
vn 0.7651 0.4844 -0.4242
vn 1.0000 0.0000 -0.0000
vn 0.7651 0.0426 -0.6425
vn 0.7651 -0.2065 -0.6099
vn 0.7837 -0.0263 -0.6205
vn 0.7837 0.2131 -0.5834
vn 0.9999 -0.0133 -0.0000
vn 0.9999 -0.0123 -0.0051
vn 0.7838 0.4201 -0.4574
vn 0.9999 -0.0094 -0.0094
vn 0.7651 0.6099 -0.2065
vn 0.7651 0.6425 0.0426
vn 0.7838 0.5632 -0.2618
vn 0.9999 -0.0051 -0.0123
vn 0.7837 0.6205 -0.0264
vn 0.9999 0.0000 -0.0133
vn 0.7651 0.5773 0.2852
vn 0.7651 0.4242 0.4844
vn 0.7838 0.5834 0.2131
vn 0.9999 0.0051 -0.0123
vn 0.7837 0.4574 0.4201
vn 0.9999 0.0094 -0.0094
vn 0.7651 0.2065 0.6099
vn 0.7651 -0.0426 0.6425
vn 0.7837 0.2618 0.5632
vn 0.9999 0.0123 -0.0051
vn 0.7837 0.0264 0.6205
vn 0.9999 0.0133 -0.0000
vn 0.7651 -0.2852 0.5773
vn 0.7651 -0.4845 0.4242
vn 0.7838 -0.2131 0.5833
vn 0.9999 0.0123 0.0051
vn 0.7838 -0.4201 0.4574
vn 0.9999 0.0094 0.0094
vn 0.7651 -0.6099 0.2065
vn 0.7651 -0.6425 -0.0426
vn 0.7837 -0.5632 0.2618
vn 0.9999 0.0051 0.0123
vn 0.7837 -0.6205 0.0264
vn 0.9999 -0.0000 0.0133
vn 0.7651 -0.5773 -0.2852
vn 0.7651 -0.4242 -0.4844
vn 0.7838 -0.5833 -0.2131
vn 0.9999 -0.0051 0.0123
vn 0.7837 -0.4574 -0.4201
vn 0.9999 -0.0094 0.0094
vn 0.7837 -0.2618 -0.5632
vn 0.9999 -0.0123 0.0051
vn 0.6388 -0.5788 -0.5068
vn 0.6388 0.5068 -0.5788
vn 0.6388 0.6898 -0.3408
vn 0.6388 -0.0509 -0.7677
vn -0.6393 0.0339 -0.7682
vn 0.6388 0.2467 -0.7287
vn -0.6393 0.3253 -0.6967
vn -0.6393 0.5672 -0.5192
vn -0.6393 -0.5192 -0.5672
vn 0.6388 -0.3408 -0.6897
vn -0.6393 -0.2626 -0.7227
usemtl Tractor
s 1
f 1/1/1 2/2/2 3/3/3
f 3/3/3 2/2/2 4/4/4
f 4/4/4 5/5/5 3/3/3
f 5/5/5 4/4/4 6/6/6
f 5/5/5 6/6/6 7/7/7
f 7/7/7 6/6/6 8/8/8
f 7/7/7 8/8/8 9/9/9
f 9/9/9 8/8/8 10/10/10
f 9/11/9 10/12/10 11/13/11
f 11/13/11 10/12/10 12/14/12
f 13/15/13 14/16/14 15/17/15
f 15/17/15 14/16/14 16/18/16
f 15/17/15 16/18/16 17/19/17
f 17/19/17 16/18/16 18/20/18
f 17/19/17 18/20/18 19/21/19
f 19/21/19 18/20/18 20/22/20
f 19/21/19 20/22/20 1/1/1
f 1/1/1 20/22/20 2/2/2
f 21/23/21 22/24/22 23/25/23
f 24/26/24 23/25/23 22/24/22
f 23/25/23 24/26/24 25/27/25
f 26/28/26 24/26/24 27/29/27
f 27/29/27 24/26/24 22/24/22
f 28/30/28 26/28/26 29/31/29
f 29/31/29 26/28/26 27/29/27
f 27/29/27 22/24/22 30/32/30
f 30/32/30 22/24/22 21/23/21
f 29/31/29 27/29/27 31/33/31
f 31/33/31 27/29/27 30/32/30
f 32/34/32 33/35/33 23/25/23
f 21/23/21 23/25/23 33/35/33
f 30/32/30 21/23/21 34/36/34
f 34/36/34 21/23/21 33/35/33
f 31/33/31 30/32/30 35/37/35
f 35/37/35 30/32/30 34/36/34
f 34/36/34 33/35/33 36/38/36
f 36/38/36 33/35/33 32/34/32
f 35/37/35 34/36/34 37/39/37
f 37/39/37 34/36/34 36/38/36
f 38/40/38 39/41/39 23/25/23
f 32/42/32 23/25/23 39/41/39
f 36/43/36 32/42/32 40/44/40
f 40/44/40 32/42/32 39/41/39
f 37/45/37 36/43/36 41/46/41
f 41/46/41 36/43/36 40/44/40
f 40/44/40 39/41/39 42/47/42
f 42/47/42 39/41/39 38/40/38
f 41/46/41 40/44/40 43/48/43
f 43/48/43 40/44/40 42/47/42
f 44/49/44 45/50/45 23/25/23
f 44/49/44 23/25/23 46/51/46
f 38/40/38 23/25/23 45/50/45
f 42/47/42 38/40/38 47/52/47
f 47/52/47 38/40/38 45/50/45
f 43/48/43 42/47/42 48/53/48
f 48/53/48 42/47/42 47/52/47
f 47/52/47 45/50/45 49/54/49
f 49/54/49 45/50/45 44/49/44
f 48/53/48 47/52/47 50/55/50
f 50/55/50 47/52/47 49/54/49
f 51/56/51 46/51/46 23/25/23
f 49/54/49 44/49/44 52/57/52
f 52/57/52 44/49/44 46/51/46
f 50/55/50 49/54/49 53/58/53
f 53/58/53 49/54/49 52/57/52
f 52/57/52 46/51/46 54/59/54
f 54/59/54 46/51/46 51/56/51
f 53/58/53 52/57/52 55/60/55
f 55/60/55 52/57/52 54/59/54
f 56/61/56 57/62/57 23/25/23
f 51/56/51 23/25/23 57/62/57
f 54/59/54 51/56/51 58/63/58
f 58/63/58 51/56/51 57/62/57
f 55/60/55 54/59/54 59/64/59
f 59/64/59 54/59/54 58/63/58
f 58/63/58 57/62/57 60/65/60
f 60/65/60 57/62/57 56/61/56
f 59/64/59 58/63/58 61/66/61
f 61/66/61 58/63/58 60/65/60
f 62/67/62 63/68/63 23/25/23
f 56/69/56 23/25/23 63/68/63
f 60/70/60 56/69/56 64/71/64
f 64/71/64 56/69/56 63/68/63
f 61/72/61 60/70/60 65/73/65
f 65/73/65 60/70/60 64/71/64
f 64/71/64 63/68/63 66/74/66
f 66/74/66 63/68/63 62/67/62
f 65/73/65 64/71/64 67/75/67
f 67/75/67 64/71/64 66/74/66
f 62/67/62 23/25/23 25/27/25
f 66/74/66 62/67/62 68/76/68
f 68/76/68 62/67/62 25/27/25
f 67/75/67 66/74/66 69/77/69
f 69/77/69 66/74/66 68/76/68
f 68/76/68 25/27/25 26/28/26
f 26/28/26 25/27/25 24/26/24
f 69/77/69 68/76/68 28/30/28
f 28/30/28 68/76/68 26/28/26
f 2/78/2 28/30/28 4/79/4
f 4/79/4 28/30/28 29/31/29
f 4/79/4 29/31/29 6/80/6
f 6/80/6 29/31/29 31/33/31
f 6/80/6 31/33/31 8/81/8
f 8/81/8 31/33/31 35/37/35
f 8/81/8 35/37/35 10/82/10
f 10/82/10 35/37/35 37/39/37
f 10/83/10 37/45/37 12/84/12
f 12/84/12 37/45/37 41/46/41
f 70/85/70 59/64/59 14/86/14
f 14/86/14 59/64/59 61/66/61
f 14/87/14 61/72/61 16/88/16
f 16/88/16 61/72/61 65/73/65
f 16/88/16 65/73/65 18/89/18
f 18/89/18 65/73/65 67/75/67
f 18/89/18 67/75/67 20/90/20
f 20/90/20 67/75/67 69/77/69
f 20/90/20 69/77/69 2/78/2
f 2/78/2 69/77/69 28/30/28
f 71/91/71 72/92/72 73/93/73
f 73/93/73 74/94/74 71/91/71
f 74/94/74 73/93/73 75/95/75
f 76/96/76 77/97/77 74/94/74
f 74/94/74 77/97/77 71/91/71
f 78/98/78 79/99/79 76/96/76
f 76/96/76 79/99/79 77/97/77
f 77/97/77 80/100/80 71/91/71
f 71/91/71 80/100/80 72/92/72
f 79/99/79 81/101/81 77/97/77
f 77/97/77 81/101/81 80/100/80
f 82/102/82 83/103/83 73/93/73
f 73/93/73 72/92/72 82/102/82
f 80/100/80 84/104/84 72/92/72
f 72/92/72 84/104/84 82/102/82
f 81/101/81 85/105/85 80/100/80
f 80/100/80 85/105/85 84/104/84
f 84/104/84 86/106/86 82/102/82
f 82/102/82 86/106/86 83/103/83
f 85/105/85 87/107/87 84/104/84
f 84/104/84 87/107/87 86/106/86
f 88/108/88 89/109/89 73/93/73
f 73/93/73 83/110/83 88/108/88
f 86/111/86 90/112/90 83/110/83
f 83/110/83 90/112/90 88/108/88
f 87/113/87 91/114/91 86/111/86
f 86/111/86 91/114/91 90/112/90
f 90/112/90 92/115/92 88/108/88
f 88/108/88 92/115/92 89/109/89
f 91/114/91 93/116/93 90/112/90
f 90/112/90 93/116/93 92/115/92
f 94/117/94 95/118/95 73/93/73
f 73/93/73 89/109/89 94/117/94
f 92/115/92 96/119/96 89/109/89
f 89/109/89 96/119/96 94/117/94
f 93/116/93 97/120/97 92/115/92
f 92/115/92 97/120/97 96/119/96
f 96/119/96 98/121/98 94/117/94
f 94/117/94 98/121/98 95/118/95
f 97/120/97 99/122/99 96/119/96
f 96/119/96 99/122/99 98/121/98
f 100/123/100 101/124/101 73/93/73
f 73/93/73 95/118/95 100/123/100
f 98/121/98 102/125/102 95/118/95
f 95/118/95 102/125/102 100/123/100
f 99/122/99 103/126/103 98/121/98
f 98/121/98 103/126/103 102/125/102
f 102/125/102 104/127/104 100/123/100
f 100/123/100 104/127/104 101/124/101
f 103/126/103 105/128/105 102/125/102
f 102/125/102 105/128/105 104/127/104
f 106/129/106 107/130/107 73/93/73
f 73/93/73 101/124/101 106/129/106
f 104/127/104 108/131/108 101/124/101
f 101/124/101 108/131/108 106/129/106
f 105/128/105 109/132/109 104/127/104
f 104/127/104 109/132/109 108/131/108
f 108/131/108 110/133/110 106/129/106
f 106/129/106 110/133/110 107/130/107
f 109/132/109 111/134/111 108/131/108
f 108/131/108 111/134/111 110/133/110
f 112/135/112 113/136/113 73/93/73
f 73/93/73 107/137/107 112/135/112
f 110/138/110 114/139/114 107/137/107
f 107/137/107 114/139/114 112/135/112
f 111/140/111 115/141/115 110/138/110
f 110/138/110 115/141/115 114/139/114
f 114/139/114 116/142/116 112/135/112
f 112/135/112 116/142/116 113/136/113
f 115/141/115 117/143/117 114/139/114
f 114/139/114 117/143/117 116/142/116
f 73/93/73 113/136/113 75/95/75
f 116/142/116 118/144/118 113/136/113
f 113/136/113 118/144/118 75/95/75
f 117/143/117 119/145/119 116/142/116
f 116/142/116 119/145/119 118/144/118
f 118/144/118 76/96/76 75/95/75
f 75/95/75 76/96/76 74/94/74
f 119/145/119 78/98/78 118/144/118
f 118/144/118 78/98/78 76/96/76
f 1/146/1 3/147/3 78/98/78
f 78/98/78 3/147/3 79/99/79
f 3/147/3 5/148/5 79/99/79
f 79/99/79 5/148/5 81/101/81
f 5/148/5 7/149/7 81/101/81
f 81/101/81 7/149/7 85/105/85
f 7/149/7 9/150/9 85/105/85
f 85/105/85 9/150/9 87/107/87
f 9/151/9 11/152/11 87/113/87
f 87/113/87 11/152/11 91/114/91
f 11/152/11 120/153/120 91/114/91
f 91/114/91 120/153/120 93/116/93
f 121/154/121 122/155/122 105/128/105
f 105/128/105 122/155/122 109/132/109
f 122/155/122 13/156/13 109/132/109
f 109/132/109 13/156/13 111/134/111
f 13/157/13 15/158/15 111/140/111
f 111/140/111 15/158/15 115/141/115
f 15/158/15 17/159/17 115/141/115
f 115/141/115 17/159/17 117/143/117
f 17/159/17 19/160/19 117/143/117
f 117/143/117 19/160/19 119/145/119
f 19/160/19 1/146/1 119/145/119
f 119/145/119 1/146/1 78/98/78
f 123/161/123 124/162/124 125/163/125
f 125/163/125 124/162/124 126/164/126
f 125/163/125 126/164/126 121/165/121
f 121/165/121 126/164/126 127/166/127
f 121/165/121 127/166/127 122/167/122
f 122/167/122 127/166/127 70/168/70
f 123/169/123 125/170/125 99/122/99
f 99/122/99 125/170/125 103/126/103
f 125/170/125 121/154/121 103/126/103
f 103/126/103 121/154/121 105/128/105
f 11/13/11 12/14/12 120/171/120
f 120/171/120 12/14/12 128/172/128
f 120/171/120 128/172/128 129/173/129
f 129/173/129 128/172/128 130/174/130
f 129/173/129 130/174/130 123/161/123
f 123/161/123 130/174/130 124/162/124
f 122/167/122 70/168/70 13/175/13
f 13/175/13 70/168/70 14/176/14
f 12/84/12 41/46/41 128/177/128
f 128/177/128 41/46/41 43/48/43
f 128/177/128 43/48/43 130/178/130
f 130/178/130 43/48/43 48/53/48
f 130/178/130 48/53/48 124/179/124
f 124/179/124 48/53/48 50/55/50
f 124/179/124 50/55/50 126/180/126
f 126/180/126 50/55/50 53/58/53
f 126/180/126 53/58/53 127/181/127
f 127/181/127 53/58/53 55/60/55
f 127/181/127 55/60/55 70/85/70
f 70/85/70 55/60/55 59/64/59
f 120/153/120 129/182/129 93/116/93
f 93/116/93 129/182/129 97/120/97
f 129/182/129 123/169/123 97/120/97
f 97/120/97 123/169/123 99/122/99
