# Blender v3.0.1 OBJ File: ''
# www.blender.org
mtllib camero.mtl
o Camero
v -0.473318 -1.648548 0.033115
v -0.494740 -1.519867 0.252553
v -0.504854 -1.214088 0.356161
v -0.495518 -0.875353 0.260524
v -0.473956 -0.782828 0.039661
v -0.446171 -0.778800 -0.244958
v -0.446171 -1.664331 -0.187951
v 0.000000 -1.664331 -0.190862
v 0.000000 -0.778800 -0.247867
v 0.446171 -1.664331 -0.187951
v 0.446171 -0.778800 -0.244958
v 0.495518 -0.875353 0.260524
v 0.504854 -1.214088 0.356161
v 0.494740 -1.519867 0.252553
v 0.473318 -1.648548 0.033115
v 0.473956 -0.782828 0.039661
v -0.470685 2.086802 0.006146
v -0.446171 2.094082 -0.244959
v -0.446171 1.291226 -0.244959
v -0.472206 1.283178 0.021727
v -0.495129 1.395820 0.256538
v -0.504854 1.687819 0.356160
v -0.494350 1.989488 0.248568
v 0.000000 2.094082 -0.247868
v 0.000000 1.291226 -0.247868
v 0.446171 2.094082 -0.244959
v 0.446171 1.291226 -0.244959
v 0.495129 1.395820 0.256538
v 0.472206 1.283178 0.021727
v 0.470685 2.086802 0.006146
v 0.494350 1.989488 0.248568
v 0.504854 1.687819 0.356160
v -0.951720 -1.648548 0.033363
v -0.897137 -1.664331 -0.185010
v -0.888371 -2.005600 -0.107543
v -0.803221 -2.034879 0.086847
v -0.956138 -0.551472 0.055630
v -0.897137 -0.551472 -0.242017
v -0.897137 -0.778800 -0.242017
v -0.953006 -0.782828 0.039846
v -0.800695 2.264209 -0.051465
v -0.807033 2.188962 -0.228686
v -0.897137 2.094082 -0.242019
v -0.946430 2.086802 0.006656
v -0.790084 -2.039692 0.550739
v -0.492540 -1.670840 0.600592
v -0.751979 -1.168621 0.597805
v -0.839549 -1.652904 0.600808
v -0.994796 -1.519867 0.250677
v -0.888371 -2.036292 0.359007
v -0.861094 -0.515099 0.502813
v -1.015138 -0.551472 0.353276
v -0.996366 -0.875353 0.258570
v -0.833818 -0.760617 0.547518
v -0.848069 2.185762 0.367473
v -0.833519 2.294736 0.098312
v -0.994019 1.989488 0.246729
v -0.888371 2.091286 0.419001
v -0.888371 1.687819 0.486050
v -1.015138 1.687819 0.353275
v -0.995581 1.395820 0.254623
v -0.888371 1.294013 0.513984
v -1.015138 -1.214088 0.353276
v -0.949486 1.283178 0.022086
v -0.897137 1.291226 -0.242019
v -0.897137 0.827017 -0.242017
v -0.956138 0.827017 0.055630
v -1.015138 0.827017 0.353276
v -0.842911 0.854293 0.516781
v -0.956138 0.290663 0.055630
v -0.897137 0.290663 -0.242017
v -0.861094 0.290663 0.511348
v -1.015138 0.290663 0.353276
v -0.626890 -0.394576 0.893046
v -0.626890 0.139924 0.881254
v -0.626890 -0.771557 0.875387
v -0.626890 -0.573630 0.893487
v -0.585455 -1.030764 0.825886
v -0.626890 0.368396 0.814481
v -0.441812 1.294013 0.554279
v -0.409992 1.014413 0.570302
v -0.319460 1.035054 0.614349
v -0.329182 1.292556 0.598334
v -0.545786 2.413103 -0.105997
v -0.501329 2.454026 0.010753
v -0.496831 2.437914 0.004755
v -0.522212 2.402140 -0.093174
v -0.421767 2.361224 0.359335
v 0.000000 2.511801 0.351294
v 0.000000 2.553269 0.306029
v -0.408234 2.430150 0.315109
v -0.311769 -0.573630 0.907336
v 0.000000 -0.573630 0.921026
v 0.000000 -0.390190 0.929351
v -0.311769 -0.392372 0.911296
v -0.441812 -2.178946 0.583703
v 0.000000 -2.235750 0.597401
v 0.000000 -1.743308 0.641284
v -0.261005 -1.725536 0.621053
v 0.000000 -1.214088 0.359007
v 0.000000 -1.519867 0.254412
v 0.000000 -1.045673 0.857803
v -0.311769 -1.038156 0.841930
v 0.000000 -1.648548 0.032870
v 0.000000 2.566303 -0.128411
v 0.000000 2.526957 -0.225980
v -0.401359 2.393800 -0.227326
v 0.000000 2.086802 0.005642
v 0.000000 1.395820 0.258433
v 0.000000 1.283178 0.021374
v -0.403139 1.692227 0.524140
v -0.312608 1.696293 0.568187
v -0.441810 -2.128406 -0.096522
v 0.000000 -2.165585 -0.085617
v 0.000000 -2.178320 0.047586
v -0.441812 -2.098102 0.047584
v 0.000000 0.827017 -0.247867
v -0.446171 0.827017 -0.244958
v 0.000000 1.989488 0.250388
v -0.311769 -0.769353 0.893637
v 0.000000 -0.767172 0.911692
v 0.000000 -0.875353 0.262457
v 0.000000 1.687819 0.359006
v 0.000000 0.139924 0.917566
v -0.311769 0.139924 0.899511
v 0.000000 0.540384 0.855173
v -0.311769 0.494377 0.834935
v -0.446171 0.290663 -0.244958
v 0.000000 0.290663 -0.247867
v 0.000000 -0.551472 -0.247867
v -0.446171 -0.551472 -0.244958
v -0.441812 -2.189962 0.359007
v 0.000000 -2.257677 0.359007
v -0.292646 2.270844 0.444305
v 0.000000 2.284049 0.435726
v 0.000000 -0.782828 0.039479
v 0.000000 1.063369 0.594597
v 0.000000 2.518468 0.311052
v -0.394410 2.412296 0.316447
v -0.794216 2.354252 0.181043
v -0.394983 2.486579 0.144415
v -0.820859 2.282443 0.324293
v 0.000000 2.552567 0.141628
v -0.382484 2.459848 0.175900
v -0.769077 2.342870 0.210537
v -0.793058 2.281718 0.321902
v 0.000000 2.570660 0.015973
v 0.000000 2.576533 0.108176
v 0.000000 2.544205 0.005319
v 0.000000 2.530035 -0.095032
v 0.000000 1.067435 0.638651
v 0.000000 1.298087 0.624871
v 0.000000 1.700651 0.584561
v 0.951720 -1.648548 0.033363
v 0.803221 -2.034879 0.086847
v 0.888371 -2.005600 -0.107543
v 0.897137 -1.664331 -0.185010
v 0.956138 -0.551472 0.055630
v 0.953006 -0.782828 0.039846
v 0.897137 -0.778800 -0.242017
v 0.897137 -0.551472 -0.242017
v 0.800695 2.264209 -0.051465
v 0.946430 2.086802 0.006656
v 0.897137 2.094082 -0.242019
v 0.807033 2.188962 -0.228686
v 0.790084 -2.039692 0.550739
v 0.839549 -1.652904 0.600808
v 0.751979 -1.168621 0.597805
v 0.492540 -1.670840 0.600592
v 0.888371 -2.036292 0.359007
v 0.994796 -1.519867 0.250677
v 0.861094 -0.515099 0.502813
v 0.833818 -0.760617 0.547518
v 0.996366 -0.875353 0.258570
v 1.015138 -0.551472 0.353276
v 0.848069 2.185762 0.367473
v 0.888371 2.091286 0.419001
v 0.994019 1.989488 0.246729
v 0.833519 2.294736 0.098312
v 0.888371 1.687819 0.486050
v 0.888371 1.294013 0.513984
v 0.995581 1.395820 0.254623
v 1.015138 1.687819 0.353275
v 1.015138 -1.214088 0.353276
v 0.949486 1.283178 0.022086
v 0.956138 0.827017 0.055630
v 0.897137 0.827017 -0.242017
v 0.897137 1.291226 -0.242019
v 0.842911 0.854293 0.516781
v 1.015138 0.827017 0.353276
v 0.956138 0.290663 0.055630
v 0.897137 0.290663 -0.242017
v 0.861094 0.290663 0.511348
v 1.015138 0.290663 0.353276
v 0.626890 0.139924 0.881254
v 0.626890 -0.394576 0.893046
v 0.626890 -0.573630 0.893487
v 0.626890 -0.771557 0.875387
v 0.585455 -1.030764 0.825886
v 0.626890 0.368396 0.814481
v 0.441812 1.294013 0.554279
v 0.329182 1.292556 0.598334
v 0.319460 1.035054 0.614349
v 0.409992 1.014413 0.570302
v 0.545786 2.413103 -0.105997
v 0.522212 2.402140 -0.093174
v 0.496831 2.437914 0.004755
v 0.501329 2.454026 0.010753
v 0.421767 2.361224 0.359335
v 0.408234 2.430150 0.315109
v 0.311769 -0.573630 0.907336
v 0.311769 -0.392372 0.911296
v 0.441812 -2.178946 0.583703
v 0.261005 -1.725536 0.621053
v 0.311769 -1.038156 0.841930
v 0.401359 2.393800 -0.227326
v 0.403139 1.692227 0.524140
v 0.312608 1.696293 0.568187
v 0.441810 -2.128406 -0.096522
v 0.441812 -2.098102 0.047584
v 0.446171 0.827017 -0.244958
v 0.311769 -0.769353 0.893637
v 0.311769 0.139924 0.899511
v 0.311769 0.494377 0.834935
v 0.446171 0.290663 -0.244958
v 0.446171 -0.551472 -0.244958
v 0.441812 -2.189962 0.359007
v 0.292646 2.270844 0.444305
v 0.394410 2.412296 0.316447
v 0.394983 2.486579 0.144415
v 0.794216 2.354252 0.181043
v 0.820859 2.282443 0.324293
v 0.382484 2.459848 0.175900
v 0.769077 2.342870 0.210537
v 0.793058 2.281718 0.321902
vt 0.796801 0.883612
vt 0.796801 0.883612
vt 0.796801 0.883612
vt 0.796801 0.883612
vt 0.796801 0.883612
vt 0.796801 0.883612
vt 0.796801 0.883612
vt 0.796801 0.883612
vt 0.796801 0.883612
vt 0.796801 0.883612
vt 0.796801 0.883612
vt 0.381348 0.896013
vt 0.381348 0.896013
vt 0.381348 0.896013
vt 0.381348 0.896013
vt 0.381348 0.896013
vt 0.381348 0.896013
vt 0.381348 0.896013
vt 0.381348 0.896013
vt 0.381348 0.896013
vt 0.381348 0.896013
vt 0.381348 0.896013
vt 0.796801 0.883612
vt 0.796801 0.883612
vt 0.796801 0.883612
vt 0.796801 0.883612
vt 0.796801 0.883612
vt 0.381348 0.896013
vt 0.381348 0.896013
vt 0.381348 0.896013
vt 0.381348 0.896013
vt 0.381348 0.896013
vt 0.909117 0.686801
vt 0.912156 0.644752
vt 0.977869 0.659669
vt 0.983508 0.697100
vt 0.697866 0.691089
vt 0.697866 0.633775
vt 0.741640 0.633775
vt 0.742415 0.688050
vt 0.152487 0.670467
vt 0.166975 0.636342
vt 0.185245 0.633775
vt 0.187623 0.681659
vt 0.984434 0.786426
vt 0.913409 0.796026
vt 0.816703 0.795489
vt 0.909955 0.796067
vt 0.884338 0.728647
vt 0.983780 0.749507
vt 0.690862 0.777198
vt 0.697866 0.748404
vt 0.760232 0.730167
vt 0.738138 0.785805
vt 0.176784 0.742030
vt 0.149538 0.699308
vt 0.208804 0.718121
vt 0.200029 0.757571
vt 0.274424 0.773970
vt 0.266673 0.748404
vt 0.322899 0.729407
vt 0.342502 0.779350
vt 0.825458 0.748404
vt 0.344589 0.684630
vt 0.343040 0.633775
vt 0.432427 0.633775
vt 0.432427 0.691089
vt 0.432427 0.748404
vt 0.427174 0.779888
vt 0.535706 0.691089
vt 0.535706 0.633775
vt 0.535706 0.778841
vt 0.535706 0.748404
vt 0.667654 0.852340
vt 0.564732 0.850070
vt 0.740245 0.848940
vt 0.702132 0.852426
vt 0.790157 0.839407
vt 0.520738 0.837212
vt 0.104671 0.211846
vt 0.098306 0.267773
vt 0.081428 0.257492
vt 0.082142 0.212137
vt 0.508110 0.112561
vt 0.492743 0.152916
vt 0.488863 0.148517
vt 0.499962 0.116993
vt 0.465242 0.273406
vt 0.319456 0.270625
vt 0.319456 0.254979
vt 0.460564 0.258120
vt 0.078659 0.585422
vt 0.016298 0.585422
vt 0.016298 0.548729
vt 0.078659 0.549166
vt 0.104671 0.906525
vt 0.016298 0.917888
vt 0.016298 0.819386
vt 0.069188 0.818157
vt 0.826815 0.929178
vt 0.827454 0.868782
vt 0.866114 0.869262
vt 0.865452 0.928447
vt 0.016298 0.679842
vt 0.078659 0.678339
vt 0.896762 0.869703
vt 0.895921 0.926324
vt 0.319456 0.104814
vt 0.319456 0.071088
vt 0.458188 0.070623
vt 0.274791 0.923448
vt 0.273686 0.870082
vt 0.304016 0.869649
vt 0.304885 0.925947
vt 0.411392 0.927626
vt 0.410807 0.868401
vt 0.442203 0.868198
vt 0.442528 0.924684
vt 0.096936 0.132194
vt 0.078827 0.131381
vt 0.503641 0.357773
vt 0.656356 0.361542
vt 0.656356 0.407585
vt 0.503641 0.407584
vt 0.474423 0.921362
vt 0.474424 0.867988
vt 0.529955 0.867988
vt 0.529954 0.921363
vt 0.335518 0.869193
vt 0.336172 0.928324
vt 0.078659 0.624572
vt 0.016298 0.624136
vt 0.238770 0.918837
vt 0.221853 0.871167
vt 0.784718 0.927679
vt 0.785317 0.868401
vt 0.922481 0.923458
vt 0.923591 0.870088
vt 0.984853 0.871437
vt 0.979068 0.924181
vt 0.373867 0.868720
vt 0.374498 0.929107
vt 0.016298 0.442693
vt 0.078659 0.442693
vt 0.016298 0.362591
vt 0.078659 0.371794
vt 0.594117 0.921364
vt 0.594118 0.867988
vt 0.694862 0.867989
vt 0.694861 0.921366
vt 0.503641 0.515230
vt 0.656356 0.515230
vt 0.656356 0.597631
vt 0.503641 0.592898
vt 0.722058 0.867989
vt 0.722057 0.921367
vt 0.420611 0.302776
vt 0.319456 0.299810
vt 0.756436 0.868213
vt 0.756088 0.924913
vt 0.016298 0.257982
vt 0.320231 0.249739
vt 0.455786 0.251605
vt 0.607565 0.183181
vt 0.593980 0.211778
vt 0.455984 0.199117
vt 0.612596 0.276218
vt 0.603190 0.261294
vt 0.319456 0.198154
vt 0.451664 0.210000
vt 0.585293 0.221973
vt 0.592807 0.255041
vt 0.184900 0.299801
vt 0.193995 0.211846
vt 0.596220 0.131410
vt 0.141691 0.585422
vt 0.141691 0.549607
vt 0.174335 0.878671
vt 0.126814 0.804891
vt 0.826167 0.990223
vt 0.864781 0.988269
vt 0.133403 0.670659
vt 0.895067 0.983553
vt 0.598412 0.070153
vt 0.275930 0.977388
vt 0.305771 0.982851
vt 0.411983 0.987488
vt 0.442855 0.981777
vt 0.193995 0.133076
vt 0.349285 0.353963
vt 0.378716 0.421155
vt 0.474422 0.975310
vt 0.529953 0.975312
vt 0.336838 0.988092
vt 0.141691 0.625013
vt 0.264235 0.966865
vt 0.074834 0.012150
vt 0.193995 0.048065
vt 0.784111 0.987595
vt 0.921351 0.977401
vt 0.963229 0.977291
vt 0.375136 0.990146
vt 0.141691 0.442693
vt 0.141691 0.396993
vt 0.594116 0.975314
vt 0.694860 0.975317
vt 0.349285 0.515230
vt 0.383258 0.581502
vt 0.722056 0.975318
vt 0.626527 0.294029
vt 0.755734 0.982222
vt 0.319456 0.154720
vt 0.319456 0.186591
vt 0.319456 0.149488
vt 0.319456 0.116351
vt 0.016913 0.251016
vt 0.016298 0.211032
vt 0.016298 0.130508
vt 0.016298 0.009509
vt 0.909117 0.686801
vt 0.983508 0.697100
vt 0.977869 0.659669
vt 0.912156 0.644752
vt 0.697866 0.691089
vt 0.742415 0.688050
vt 0.741640 0.633775
vt 0.697866 0.633775
vt 0.152487 0.670467
vt 0.187623 0.681659
vt 0.185245 0.633775
vt 0.166975 0.636342
vt 0.984434 0.786426
vt 0.909955 0.796067
vt 0.816703 0.795489
vt 0.913409 0.796026
vt 0.983780 0.749507
vt 0.884338 0.728647
vt 0.690862 0.777198
vt 0.738138 0.785805
vt 0.760232 0.730167
vt 0.697866 0.748404
vt 0.176784 0.742030
vt 0.200029 0.757571
vt 0.208804 0.718121
vt 0.149538 0.699308
vt 0.274424 0.773970
vt 0.342502 0.779350
vt 0.322899 0.729407
vt 0.266673 0.748404
vt 0.825458 0.748404
vt 0.344589 0.684630
vt 0.432427 0.691089
vt 0.432427 0.633775
vt 0.343040 0.633775
vt 0.427174 0.779888
vt 0.432427 0.748404
vt 0.535706 0.691089
vt 0.535706 0.633775
vt 0.535706 0.778841
vt 0.535706 0.748404
vt 0.564732 0.850070
vt 0.667654 0.852340
vt 0.702132 0.852426
vt 0.740245 0.848940
vt 0.790157 0.839407
vt 0.520738 0.837212
vt 0.104671 0.211846
vt 0.082142 0.212137
vt 0.081428 0.257492
vt 0.098306 0.267773
vt 0.508110 0.112561
vt 0.499962 0.116993
vt 0.488863 0.148517
vt 0.492743 0.152916
vt 0.465242 0.273406
vt 0.460564 0.258120
vt 0.078659 0.585422
vt 0.078659 0.549166
vt 0.104671 0.906525
vt 0.069188 0.818157
vt 0.826815 0.929178
vt 0.865452 0.928447
vt 0.078659 0.678339
vt 0.895921 0.926324
vt 0.458188 0.070623
vt 0.274791 0.923448
vt 0.304885 0.925947
vt 0.411392 0.927626
vt 0.442528 0.924684
vt 0.096936 0.132194
vt 0.078827 0.131381
vt 0.503641 0.357773
vt 0.503641 0.407584
vt 0.474423 0.921362
vt 0.529954 0.921363
vt 0.336172 0.928324
vt 0.078659 0.624572
vt 0.238770 0.918837
vt 0.784718 0.927679
vt 0.922481 0.923458
vt 0.979068 0.924181
vt 0.374498 0.929107
vt 0.078659 0.442693
vt 0.078659 0.371794
vt 0.594117 0.921364
vt 0.694861 0.921366
vt 0.503641 0.515230
vt 0.503641 0.592898
vt 0.722057 0.921367
vt 0.420611 0.302776
vt 0.756088 0.924913
vt 0.455786 0.251605
vt 0.455984 0.199117
vt 0.593980 0.211778
vt 0.607565 0.183181
vt 0.603190 0.261294
vt 0.612596 0.276218
vt 0.451664 0.210000
vt 0.585293 0.221973
vt 0.592807 0.255041
vt 0.184900 0.299801
vt 0.193995 0.211846
vt 0.596220 0.131410
vt 0.141691 0.585422
vt 0.141691 0.549607
vt 0.174335 0.878671
vt 0.126814 0.804891
vt 0.826167 0.990223
vt 0.864781 0.988269
vt 0.133403 0.670659
vt 0.895067 0.983553
vt 0.598412 0.070153
vt 0.275930 0.977388
vt 0.305771 0.982851
vt 0.411983 0.987488
vt 0.442855 0.981777
vt 0.193995 0.133076
vt 0.349285 0.353963
vt 0.378716 0.421155
vt 0.474422 0.975310
vt 0.529953 0.975312
vt 0.336838 0.988092
vt 0.141691 0.625013
vt 0.264235 0.966865
vt 0.193995 0.048065
vt 0.074834 0.012150
vt 0.784111 0.987595
vt 0.921351 0.977401
vt 0.963229 0.977291
vt 0.375136 0.990146
vt 0.141691 0.442693
vt 0.141691 0.396993
vt 0.594116 0.975314
vt 0.694860 0.975317
vt 0.346087 0.515230
vt 0.383258 0.581502
vt 0.722056 0.975318
vt 0.626527 0.294029
vt 0.755734 0.982222
vn -0.9947 -0.0018 -0.1028
vn 0.0065 0.0643 0.9979
vn 0.0066 0.0642 0.9979
vn 0.0065 0.0642 0.9979
vn -0.0070 0.0642 0.9979
vn -0.0065 0.0638 0.9979
vn -0.0061 0.0640 0.9979
vn 0.9947 -0.0018 -0.1028
vn -0.9953 0.0000 -0.0972
vn -0.0065 0.0000 -1.0000
vn 0.0065 0.0000 -1.0000
vn 0.9953 -0.0000 -0.0972
vn 0.0069 0.0645 0.9979
vn 0.0065 0.0647 0.9979
vn 0.0070 0.0642 0.9979
vn -0.0065 0.0642 0.9979
vn -0.0066 0.0642 0.9979
vn -0.0065 0.0643 0.9979
vn -0.8736 0.4668 -0.1378
vn -0.5061 0.4936 -0.7073
vn -0.7306 -0.5291 -0.4316
vn -0.6473 -0.7622 0.0041
vn -0.9809 -0.0000 -0.1944
vn -0.6372 0.0000 -0.7707
vn -0.5154 -0.5839 -0.6272
vn -0.7402 -0.6046 -0.2943
vn -0.6398 0.6950 -0.3281
vn -0.4036 0.5371 -0.7407
vn -0.6807 -0.3350 -0.6515
vn -0.8645 -0.4110 -0.2892
vn -0.5314 -0.3566 0.7684
vn -0.2054 -0.1970 0.9586
vn -0.6513 -0.2213 0.7258
vn -0.3636 -0.2049 0.9088
vn -0.9490 0.1413 -0.2818
vn -0.7936 -0.5838 0.1711
vn -0.7883 -0.0753 0.6106
vn -0.9536 -0.0489 0.2970
vn -0.9495 -0.2363 -0.2062
vn -0.8434 -0.0063 0.5373
vn -0.4136 0.7284 0.5463
vn -0.8891 0.4562 -0.0370
vn -0.9667 0.0020 -0.2559
vn -0.6108 0.4055 0.6801
vn -0.6735 -0.1346 0.7268
vn -0.9357 -0.2316 -0.2663
vn -0.8065 0.5322 -0.2575
vn -0.5215 0.0408 0.8523
vn -0.9577 0.1316 -0.2559
vn -0.7173 0.5928 -0.3662
vn -0.5142 0.5989 -0.6139
vn -0.9633 0.0221 0.2674
vn -0.5496 0.0698 0.8325
vn -0.7738 0.0053 0.6334
vn -0.9327 0.0026 0.3608
vn -0.5769 0.0078 0.8168
vn -0.5317 0.1185 0.8386
vn -0.5402 -0.1357 0.8305
vn -0.5724 -0.0335 0.8193
vn -0.3906 -0.2899 0.8737
vn -0.3660 0.3193 0.8741
vn -0.2774 0.0398 0.9599
vn -0.1950 0.1923 0.9618
vn -0.1539 -0.5291 0.8345
vn -0.2523 0.0743 0.9648
vn -0.2828 0.9243 -0.2563
vn -0.1308 0.8820 -0.4528
vn 0.3542 0.6436 -0.6785
vn 0.1633 0.9660 0.2004
vn -0.2038 0.5928 0.7791
vn -0.0360 0.5784 0.8149
vn -0.1447 0.8982 -0.4151
vn -0.2712 0.8994 -0.3429
vn -0.0477 -0.0520 0.9975
vn -0.0063 -0.0531 0.9986
vn -0.0063 -0.0193 0.9998
vn -0.0558 0.0007 0.9984
vn -0.1741 -0.7066 0.6859
vn -0.0058 -0.7308 0.6826
vn -0.0061 -0.1377 0.9905
vn -0.0976 -0.1597 0.9823
vn 0.0366 -0.0047 -0.9993
vn 0.0008 -0.0181 -0.9998
vn 0.0008 0.5034 -0.8641
vn 0.0536 0.6226 -0.7807
vn -0.0135 -0.2701 0.9627
vn -0.0723 -0.2632 0.9620
vn 0.0003 0.9216 -0.3881
vn 0.0326 0.9505 -0.3089
vn -0.0247 0.9786 0.2042
vn -0.0095 0.7483 -0.6632
vn -0.3630 0.5543 -0.7489
vn 0.0095 -0.9997 -0.0243
vn 0.0000 -0.9996 -0.0287
vn 0.0000 -0.9918 -0.1277
vn 0.0257 -0.9768 -0.2127
vn 0.0466 0.6229 -0.7809
vn -0.0000 0.6200 -0.7846
vn 0.0002 0.9520 -0.3060
vn 0.0341 0.9750 -0.2195
vn -0.2673 0.1167 0.9565
vn -0.2397 0.1551 0.9584
vn -0.1004 -0.8316 -0.5462
vn 0.0000 -0.7614 -0.6483
vn -0.0119 -0.9985 -0.0536
vn -0.1914 -0.9807 -0.0390
vn -0.0059 0.4279 -0.9038
vn 0.0000 -0.0000 -1.0000
vn -0.0009 -0.0000 -1.0000
vn -0.0001 -0.8185 -0.5745
vn 0.0650 -0.6806 -0.7298
vn -0.0557 -0.1158 0.9917
vn -0.0082 -0.1292 0.9916
vn 0.0000 0.0543 -0.9985
vn -0.0283 -0.3676 -0.9295
vn 0.0475 -0.6854 -0.7266
vn 0.0000 -0.7142 -0.6999
vn -0.0026 0.2496 -0.9684
vn 0.0000 -0.2055 -0.9787
vn -0.0000 0.9996 0.0300
vn 0.0002 0.9995 0.0302
vn 0.0005 -0.1553 -0.9879
vn 0.0531 -0.0055 -0.9986
vn -0.0083 0.0600 0.9982
vn -0.0624 0.0859 0.9943
vn 0.0000 0.9975 -0.0706
vn -0.0005 0.9975 -0.0713
vn 0.0544 0.3719 0.9267
vn -0.1236 0.3026 0.9451
vn -0.2059 -0.9770 -0.0562
vn -0.0222 -0.9933 -0.1138
vn -0.0032 0.0000 -1.0000
vn -0.0059 -0.4208 -0.9071
vn -0.1185 0.3157 0.9414
vn 0.0017 0.2802 0.9599
vn -0.0000 -0.9999 -0.0141
vn 0.0033 -0.9999 -0.0140
vn -0.0000 -0.9926 -0.1213
vn 0.0280 -0.9765 -0.2135
vn -0.0109 -0.5583 0.8296
vn 0.0148 0.6606 -0.7506
vn -0.1780 0.7401 -0.6485
vn -0.5285 0.8417 -0.1102
vn -0.2390 0.9328 0.2697
vn -0.5798 0.6812 0.4470
vn -0.0375 0.9380 0.3447
vn -0.1932 0.8610 0.4704
vn -0.1957 0.8311 0.5205
vn -0.0811 0.9227 -0.3768
vn -0.0255 0.0580 -0.9980
vn -0.0478 0.6388 -0.7679
vn -0.0323 0.9583 -0.2841
vn -0.0255 -0.9806 -0.1946
vn -0.0397 0.7027 -0.7104
vn -0.0338 0.9802 -0.1950
vn -0.0599 -0.7027 -0.7090
vn -0.0405 -0.6365 -0.7702
vn -0.0430 -0.0073 -0.9990
vn -0.0274 -0.9806 -0.1939
vn 0.0000 0.8357 -0.5491
vn -0.0353 0.9330 0.3581
vn 0.0000 0.7046 -0.7096
vn -0.0598 0.9287 0.3659
vn 0.0000 -0.5415 0.8407
vn -0.0117 0.0709 0.9974
vn -0.0078 0.1569 0.9876
vn 0.7636 0.6090 -0.2144
vn 0.6735 -0.7356 -0.0727
vn 0.7306 -0.5291 -0.4316
vn 0.5061 0.4936 -0.7073
vn 0.9809 -0.0000 -0.1944
vn 0.7150 -0.6234 -0.3165
vn 0.5154 -0.5839 -0.6272
vn 0.6372 0.0000 -0.7707
vn 0.6582 0.6858 -0.3107
vn 0.8600 -0.3538 -0.3677
vn 0.6807 -0.3350 -0.6515
vn 0.3961 0.5733 -0.7172
vn 0.5862 -0.4314 0.6858
vn -0.3029 -0.2220 0.9268
vn 0.6363 0.0453 0.7701
vn 0.2054 -0.1970 0.9586
vn 0.7331 -0.6660 0.1378
vn 0.8714 0.1131 -0.4773
vn 0.8176 -0.0400 0.5744
vn 0.8434 -0.0063 0.5373
vn 0.9376 -0.2901 -0.1917
vn 0.9362 -0.1480 0.3189
vn 0.2523 0.5432 0.8008
vn 0.6108 0.4055 0.6801
vn 0.9643 -0.0191 -0.2641
vn 0.7782 0.6246 -0.0654
vn 0.4808 0.0475 0.8756
vn 0.5215 0.0408 0.8523
vn 0.8991 0.4158 -0.1367
vn 0.9914 -0.1085 -0.0730
vn 0.9568 0.1460 -0.2513
vn 0.6840 0.6664 -0.2967
vn 0.5142 0.5989 -0.6139
vn 0.5496 0.0698 0.8325
vn 0.9464 -0.0046 0.3231
vn 0.7712 0.0042 0.6366
vn 0.9327 0.0036 0.3608
vn 0.5317 0.1185 0.8386
vn 0.5737 0.0106 0.8190
vn 0.5724 -0.0335 0.8193
vn 0.5409 -0.1269 0.8315
vn 0.4018 -0.2741 0.8738
vn 0.3660 0.3193 0.8741
vn 0.2662 0.0458 0.9628
vn 0.2523 0.0743 0.9648
vn 0.1734 -0.4972 0.8501
vn 0.1835 0.1401 0.9730
vn 0.1903 0.9297 -0.3154
vn 0.0434 0.9931 0.1090
vn -0.3586 0.7342 -0.5765
vn 0.1566 0.8792 -0.4500
vn 0.1899 0.5683 0.8006
vn 0.3413 0.8784 -0.3345
vn 0.0493 -0.0490 0.9976
vn 0.0558 0.0005 0.9984
vn 0.1974 -0.6679 0.7176
vn 0.0976 -0.1597 0.9823
vn -0.0485 0.0253 -0.9985
vn -0.0368 0.6507 -0.7585
vn 0.0723 -0.2632 0.9620
vn -0.0207 0.9578 -0.2867
vn 0.0672 0.6055 -0.7930
vn -0.0029 -0.9998 -0.0188
vn -0.0200 -0.9731 -0.2295
vn -0.0599 0.6525 -0.7554
vn -0.0218 0.9805 -0.1955
vn 0.2791 0.1139 0.9535
vn 0.2397 0.1551 0.9584
vn 0.1655 -0.8626 -0.4780
vn 0.1914 -0.9807 -0.0390
vn 0.0059 0.4279 -0.9038
vn -0.0504 -0.6505 -0.7578
vn 0.0538 -0.1189 0.9914
vn 0.0087 -0.3565 -0.9343
vn -0.0692 -0.6512 -0.7557
vn 0.0051 0.2475 -0.9689
vn -0.0002 0.9995 0.0302
vn -0.0396 0.0272 -0.9988
vn 0.0624 0.0859 0.9943
vn -0.0011 0.9976 -0.0697
vn 0.1236 0.3026 0.9451
vn 0.2026 -0.9773 -0.0623
vn 0.0059 -0.4208 -0.9071
vn 0.1425 0.3399 0.9296
vn -0.0218 -0.9725 -0.2317
vn 0.2541 0.7142 -0.6522
vn 0.2390 0.9328 0.2697
vn 0.4489 0.8932 0.0266
vn 0.5798 0.6812 0.4470
vn 0.1932 0.8610 0.4704
vn 0.1118 0.8975 0.4266
vn 0.1086 0.9221 -0.3713
vn 0.0300 0.6107 -0.7913
vn 0.0383 0.0271 -0.9989
vn 0.0199 0.9515 -0.3069
vn 0.0197 -0.9839 -0.1776
vn 0.0213 0.9754 -0.2193
vn 0.0542 0.6731 -0.7376
vn 0.0440 -0.7328 -0.6790
vn 0.0641 -0.6711 -0.7386
vn 0.0284 -0.0410 -0.9988
vn 0.0212 -0.9842 -0.1755
usemtl Carcamero_ma
s off
f 5/1/1 1/2/1 3/3/1
f 8/4/2 7/5/3 6/6/4
f 8/4/5 9/7/6 11/8/7
f 16/9/8 13/10/8 15/11/8
f 20/12/9 21/13/9 22/14/9
f 18/15/10 25/16/10 19/17/10
f 24/18/11 27/19/11 25/16/11
f 29/20/12 30/21/12 32/22/12
f 7/5/1 1/2/1 6/6/1
f 1/2/1 2/23/1 3/3/1
f 6/6/1 1/2/1 5/1/1
f 3/3/1 4/24/1 5/1/1
f 8/4/13 6/6/14 9/7/15
f 8/4/16 11/8/17 10/25/18
f 16/9/8 12/26/8 13/10/8
f 13/10/8 14/27/8 15/11/8
f 15/11/8 10/25/8 11/8/8
f 11/8/8 16/9/8 15/11/8
f 23/28/9 17/29/9 22/14/9
f 17/29/9 18/15/9 19/17/9
f 22/14/9 17/29/9 20/12/9
f 19/17/9 20/12/9 17/29/9
f 18/15/10 24/18/10 25/16/10
f 24/18/11 26/30/11 27/19/11
f 32/22/12 28/31/12 29/20/12
f 29/20/12 27/19/12 30/21/12
f 27/19/12 26/30/12 30/21/12
f 30/21/12 31/32/12 32/22/12
s 1
f 33/33/19 34/34/20 35/35/21
f 33/33/19 35/35/21 36/36/22
f 37/37/23 38/38/24 39/39/25
f 37/37/23 39/39/25 40/40/26
f 41/41/27 42/42/28 43/43/29
f 41/41/27 43/43/29 44/44/30
f 45/45/31 46/46/32 47/47/33
f 45/45/31 47/47/33 48/48/34
f 48/48/34 49/49/35 50/50/36
f 48/48/34 50/50/36 45/45/31
f 51/51/37 52/52/38 53/53/39
f 51/51/37 53/53/39 54/54/40
f 55/55/41 56/56/42 57/57/43
f 55/55/41 57/57/43 58/58/44
f 59/59/45 60/60/46 61/61/47
f 59/59/45 61/61/47 62/62/48
f 58/58/44 57/57/43 60/60/46
f 58/58/44 60/60/46 59/59/45
f 54/54/40 53/53/39 63/63/49
f 54/54/40 63/63/49 47/47/33
f 64/64/50 65/65/51 66/66/24
f 64/64/50 66/66/24 67/67/23
f 62/62/48 61/61/47 68/68/52
f 62/62/48 68/68/52 69/69/53
f 70/70/23 71/71/24 38/38/24
f 70/70/23 38/38/24 37/37/23
f 72/72/54 73/73/55 52/52/38
f 72/72/54 52/52/38 51/51/37
f 52/52/38 37/37/23 40/40/26
f 52/52/38 40/40/26 53/53/39
f 61/61/47 64/64/50 67/67/23
f 61/61/47 67/67/23 68/68/52
f 73/73/55 70/70/23 37/37/23
f 73/73/55 37/37/23 52/52/38
f 56/56/42 41/41/27 44/44/30
f 56/56/42 44/44/30 57/57/43
f 49/49/35 33/33/19 36/36/22
f 49/49/35 36/36/22 50/50/36
f 72/72/54 51/51/37 74/74/56
f 72/72/54 74/74/56 75/75/57
f 54/54/40 47/47/33 76/76/58
f 54/54/40 76/76/58 77/77/59
f 51/51/37 54/54/40 77/77/59
f 51/51/37 77/77/59 74/74/56
f 47/47/33 46/46/32 78/78/60
f 47/47/33 78/78/60 76/76/58
f 67/67/23 66/66/24 71/71/24
f 67/67/23 71/71/24 70/70/23
f 69/69/53 68/68/52 73/73/55
f 69/69/53 73/73/55 72/72/54
f 68/68/52 67/67/23 70/70/23
f 68/68/52 70/70/23 73/73/55
f 69/69/53 72/72/54 75/75/57
f 69/69/53 75/75/57 79/79/61
f 80/80/62 81/81/63 82/82/64
f 80/80/62 82/82/64 83/83/65
f 84/84/66 85/85/67 86/86/68
f 84/84/66 86/86/68 87/87/69
f 88/88/70 89/89/71 90/90/72
f 88/88/70 90/90/72 91/91/73
f 92/92/74 93/93/75 94/94/76
f 92/92/74 94/94/76 95/95/77
f 96/96/78 97/97/79 98/98/80
f 96/96/78 98/98/80 99/99/81
f 3/100/82 100/101/83 101/102/84
f 3/100/82 101/102/84 2/103/85
f 99/99/81 98/98/80 102/104/86
f 99/99/81 102/104/86 103/105/87
f 2/103/85 101/102/84 104/106/88
f 2/103/85 104/106/88 1/107/89
f 84/84/66 105/108/90 106/109/91
f 84/84/66 106/109/91 107/110/92
f 18/111/93 24/112/94 108/113/95
f 18/111/93 108/113/95 17/114/96
f 21/115/97 109/116/98 110/117/99
f 21/115/97 110/117/99 20/118/100
f 111/119/101 80/80/62 83/83/65
f 111/119/101 83/83/65 112/120/102
f 113/121/103 114/122/104 115/123/105
f 113/121/103 115/123/105 116/124/106
f 19/125/107 25/126/108 117/127/109
f 19/125/107 117/127/109 118/128/10
f 17/114/96 108/113/95 119/129/110
f 17/114/96 119/129/110 23/130/111
f 120/131/112 121/132/113 93/93/75
f 120/131/112 93/93/75 92/92/74
f 107/133/92 106/134/91 24/112/114
f 107/133/92 24/112/114 18/111/115
f 4/135/116 122/136/117 100/101/83
f 4/135/116 100/101/83 3/100/82
f 7/137/118 8/138/119 114/139/104
f 7/137/118 114/139/104 113/140/103
f 20/118/100 110/117/99 25/126/120
f 20/118/100 25/126/120 19/125/121
f 23/130/111 119/129/110 123/141/122
f 23/130/111 123/141/122 22/142/123
f 95/95/77 94/94/76 124/143/124
f 95/95/77 124/143/124 125/144/125
f 1/107/89 104/106/88 8/138/126
f 1/107/89 8/138/126 7/137/127
f 125/144/125 124/143/124 126/145/128
f 125/144/125 126/145/128 127/146/129
f 128/147/10 129/148/109 130/149/109
f 128/147/10 130/149/109 131/150/10
f 118/128/10 117/127/109 129/148/109
f 118/128/10 129/148/109 128/147/10
f 103/105/87 102/104/86 121/132/113
f 103/105/87 121/132/113 120/131/112
f 132/151/130 133/152/131 97/153/79
f 132/151/130 97/153/79 96/154/78
f 131/150/10 130/149/109 9/155/132
f 131/150/10 9/155/132 6/156/133
f 134/157/134 135/158/135 89/89/71
f 134/157/134 89/89/71 88/88/70
f 6/156/136 9/155/137 136/159/138
f 6/156/136 136/159/138 5/160/139
f 116/124/106 115/123/105 133/152/131
f 116/124/106 133/152/131 132/151/130
f 22/142/123 123/141/122 109/116/98
f 22/142/123 109/116/98 21/115/97
f 5/160/139 136/159/138 122/136/117
f 5/160/139 122/136/117 4/135/116
f 127/146/129 126/145/128 137/161/140
f 127/146/129 137/161/140 81/81/63
f 91/91/73 90/90/72 138/162/141
f 91/91/73 138/162/141 139/163/142
f 85/85/67 56/164/42 140/165/143
f 85/85/67 140/165/143 141/166/144
f 56/164/42 55/167/41 142/168/145
f 56/164/42 142/168/145 140/165/143
f 139/163/142 138/162/141 143/169/146
f 139/163/142 143/169/146 144/170/147
f 141/166/144 140/165/143 145/171/148
f 141/166/144 145/171/148 144/170/147
f 140/165/143 142/168/145 146/172/149
f 140/165/143 146/172/149 145/171/148
f 69/173/53 81/81/63 80/80/62
f 69/173/53 80/80/62 62/174/48
f 56/164/42 85/85/67 84/84/66
f 56/164/42 84/84/66 41/175/27
f 55/167/41 88/88/70 91/91/73
f 55/167/41 91/91/73 142/168/145
f 77/176/59 92/92/74 95/95/77
f 77/176/59 95/95/77 74/177/56
f 45/178/31 96/96/78 99/99/81
f 45/178/31 99/99/81 46/179/32
f 63/180/49 3/100/150 2/103/151
f 63/180/49 2/103/151 49/181/35
f 46/179/32 99/99/81 103/105/87
f 46/179/32 103/105/87 78/182/60
f 49/181/35 2/103/151 1/107/152
f 49/181/35 1/107/152 33/183/19
f 41/175/27 84/84/66 107/110/92
f 41/175/27 107/110/92 42/184/28
f 43/185/29 18/111/115 17/114/153
f 43/185/29 17/114/153 44/186/30
f 61/187/47 21/115/154 20/118/155
f 61/187/47 20/118/155 64/188/50
f 62/174/48 80/80/62 111/119/101
f 62/174/48 111/119/101 59/189/45
f 35/190/21 113/121/103 116/124/106
f 35/190/21 116/124/106 36/191/22
f 65/192/51 19/125/107 118/128/10
f 65/192/51 118/128/10 66/193/24
f 44/186/30 17/114/153 23/130/156
f 44/186/30 23/130/156 57/194/43
f 76/195/58 120/131/112 92/92/74
f 76/195/58 92/92/74 77/176/59
f 42/196/28 107/133/92 18/111/115
f 42/196/28 18/111/115 43/185/29
f 59/189/45 111/119/101 134/197/134
f 59/189/45 134/197/134 58/198/44
f 53/199/39 4/135/157 3/100/150
f 53/199/39 3/100/150 63/180/49
f 34/200/20 7/137/118 113/140/103
f 34/200/20 113/140/103 35/201/21
f 64/188/50 20/118/155 19/125/107
f 64/188/50 19/125/107 65/192/51
f 57/194/43 23/130/156 22/142/158
f 57/194/43 22/142/158 60/202/46
f 74/177/56 95/95/77 125/144/125
f 74/177/56 125/144/125 75/203/57
f 33/183/19 1/107/152 7/137/118
f 33/183/19 7/137/118 34/200/20
f 75/203/57 125/144/125 127/146/129
f 75/203/57 127/146/129 79/204/61
f 71/205/24 128/147/10 131/150/10
f 71/205/24 131/150/10 38/206/24
f 66/193/24 118/128/10 128/147/10
f 66/193/24 128/147/10 71/205/24
f 78/182/60 103/105/87 120/131/112
f 78/182/60 120/131/112 76/195/58
f 50/207/36 132/151/130 96/154/78
f 50/207/36 96/154/78 45/208/31
f 38/206/24 131/150/10 6/156/133
f 38/206/24 6/156/133 39/209/25
f 88/88/70 55/167/41 58/210/44
f 88/88/70 58/210/44 134/157/134
f 39/209/25 6/156/133 5/160/159
f 39/209/25 5/160/159 40/211/26
f 36/191/22 116/124/106 132/151/130
f 36/191/22 132/151/130 50/207/36
f 60/202/46 22/142/158 21/115/154
f 60/202/46 21/115/154 61/187/47
f 40/211/26 5/160/159 4/135/157
f 40/211/26 4/135/157 53/199/39
f 79/204/61 127/146/129 81/81/63
f 79/204/61 81/81/63 69/173/53
f 142/168/145 91/91/73 139/163/142
f 142/168/145 139/163/142 146/172/149
f 147/212/160 85/85/67 141/166/144
f 147/212/160 141/166/144 148/213/161
f 146/172/149 139/163/142 144/170/147
f 146/172/149 144/170/147 145/171/148
f 148/213/161 141/166/144 144/170/147
f 148/213/161 144/170/147 143/169/146
f 86/86/68 149/214/162 150/215/163
f 86/86/68 150/215/163 87/87/69
f 85/85/67 147/212/160 149/214/162
f 85/85/67 149/214/162 86/86/68
f 105/108/90 84/84/66 87/87/69
f 105/108/90 87/87/69 150/215/163
f 82/82/64 151/216/164 152/217/165
f 82/82/64 152/217/165 83/83/65
f 81/81/63 137/161/140 151/216/164
f 81/81/63 151/216/164 82/82/64
f 63/63/49 49/49/35 48/48/34
f 63/63/49 48/48/34 47/47/33
f 112/120/102 153/218/166 135/219/135
f 112/120/102 135/219/135 134/197/134
f 83/83/65 152/217/165 153/218/166
f 83/83/65 153/218/166 112/120/102
f 134/197/134 111/119/101 112/120/102
f 154/220/167 155/221/168 156/222/169
f 154/220/167 156/222/169 157/223/170
f 158/224/171 159/225/172 160/226/173
f 158/224/171 160/226/173 161/227/174
f 162/228/175 163/229/176 164/230/177
f 162/228/175 164/230/177 165/231/178
f 166/232/179 167/233/180 168/234/181
f 166/232/179 168/234/181 169/235/182
f 167/233/180 166/232/179 170/236/183
f 167/233/180 170/236/183 171/237/184
f 172/238/185 173/239/186 174/240/187
f 172/238/185 174/240/187 175/241/188
f 176/242/189 177/243/190 178/244/191
f 176/242/189 178/244/191 179/245/192
f 180/246/193 181/247/194 182/248/195
f 180/246/193 182/248/195 183/249/196
f 177/243/190 180/246/193 183/249/196
f 177/243/190 183/249/196 178/244/191
f 173/239/186 168/234/181 184/250/197
f 173/239/186 184/250/197 174/240/187
f 185/251/198 186/252/171 187/253/174
f 185/251/198 187/253/174 188/254/199
f 181/247/194 189/255/200 190/256/201
f 181/247/194 190/256/201 182/248/195
f 191/257/171 158/224/171 161/227/174
f 191/257/171 161/227/174 192/258/174
f 193/259/202 172/238/185 175/241/188
f 193/259/202 175/241/188 194/260/203
f 175/241/188 174/240/187 159/225/172
f 175/241/188 159/225/172 158/224/171
f 182/248/195 190/256/201 186/252/171
f 182/248/195 186/252/171 185/251/198
f 194/260/203 175/241/188 158/224/171
f 194/260/203 158/224/171 191/257/171
f 179/245/192 178/244/191 163/229/176
f 179/245/192 163/229/176 162/228/175
f 171/237/184 170/236/183 155/221/168
f 171/237/184 155/221/168 154/220/167
f 193/259/202 195/261/204 196/262/205
f 193/259/202 196/262/205 172/238/185
f 173/239/186 197/263/206 198/264/207
f 173/239/186 198/264/207 168/234/181
f 172/238/185 196/262/205 197/263/206
f 172/238/185 197/263/206 173/239/186
f 168/234/181 198/264/207 199/265/208
f 168/234/181 199/265/208 169/235/182
f 186/252/171 191/257/171 192/258/174
f 186/252/171 192/258/174 187/253/174
f 189/255/200 193/259/202 194/260/203
f 189/255/200 194/260/203 190/256/201
f 190/256/201 194/260/203 191/257/171
f 190/256/201 191/257/171 186/252/171
f 189/255/200 200/266/209 195/261/204
f 189/255/200 195/261/204 193/259/202
f 201/267/210 202/268/211 203/269/212
f 201/267/210 203/269/212 204/270/213
f 205/271/214 206/272/215 207/273/216
f 205/271/214 207/273/216 208/274/217
f 209/275/218 210/276/219 90/90/72
f 209/275/218 90/90/72 89/89/71
f 211/277/220 212/278/221 94/94/76
f 211/277/220 94/94/76 93/93/75
f 213/279/222 214/280/223 98/98/80
f 213/279/222 98/98/80 97/97/79
f 13/281/224 14/282/225 101/102/84
f 13/281/224 101/102/84 100/101/83
f 214/280/223 215/283/226 102/104/86
f 214/280/223 102/104/86 98/98/80
f 14/282/225 15/284/227 104/106/88
f 14/282/225 104/106/88 101/102/84
f 205/271/214 216/285/228 106/109/91
f 205/271/214 106/109/91 105/108/90
f 26/286/229 30/287/230 108/113/95
f 26/286/229 108/113/95 24/112/94
f 28/288/231 29/289/232 110/117/99
f 28/288/231 110/117/99 109/116/98
f 217/290/233 218/291/234 202/268/211
f 217/290/233 202/268/211 201/267/210
f 219/292/235 220/293/236 115/123/105
f 219/292/235 115/123/105 114/122/104
f 27/294/237 221/295/11 117/127/109
f 27/294/237 117/127/109 25/126/108
f 30/287/230 31/296/238 119/129/110
f 30/287/230 119/129/110 108/113/95
f 222/297/239 211/277/220 93/93/75
f 222/297/239 93/93/75 121/132/113
f 216/298/228 26/286/240 24/112/114
f 216/298/228 24/112/114 106/134/91
f 12/299/241 13/281/224 100/101/83
f 12/299/241 100/101/83 122/136/117
f 10/300/242 219/301/235 114/139/104
f 10/300/242 114/139/104 8/138/119
f 29/289/232 27/294/243 25/126/120
f 29/289/232 25/126/120 110/117/99
f 31/296/238 32/302/244 123/141/122
f 31/296/238 123/141/122 119/129/110
f 212/278/221 223/303/245 124/143/124
f 212/278/221 124/143/124 94/94/76
f 15/284/227 10/300/246 8/138/126
f 15/284/227 8/138/126 104/106/88
f 223/303/245 224/304/247 126/145/128
f 223/303/245 126/145/128 124/143/124
f 225/305/11 226/306/11 130/149/109
f 225/305/11 130/149/109 129/148/109
f 221/295/11 225/305/11 129/148/109
f 221/295/11 129/148/109 117/127/109
f 215/283/226 222/297/239 121/132/113
f 215/283/226 121/132/113 102/104/86
f 227/307/248 213/308/222 97/153/79
f 227/307/248 97/153/79 133/152/131
f 226/306/11 11/309/249 9/155/132
f 226/306/11 9/155/132 130/149/109
f 228/310/250 209/275/218 89/89/71
f 228/310/250 89/89/71 135/158/135
f 11/309/136 16/311/251 136/159/138
f 11/309/136 136/159/138 9/155/137
f 220/293/236 227/307/248 133/152/131
f 220/293/236 133/152/131 115/123/105
f 32/302/244 28/288/231 109/116/98
f 32/302/244 109/116/98 123/141/122
f 16/311/251 12/299/241 122/136/117
f 16/311/251 122/136/117 136/159/138
f 224/304/247 204/270/213 137/161/140
f 224/304/247 137/161/140 126/145/128
f 210/276/219 229/312/252 138/162/141
f 210/276/219 138/162/141 90/90/72
f 208/274/217 230/313/253 231/314/254
f 208/274/217 231/314/254 179/315/192
f 179/315/192 231/314/254 232/316/255
f 179/315/192 232/316/255 176/317/189
f 229/312/252 233/318/256 143/169/146
f 229/312/252 143/169/146 138/162/141
f 230/313/253 233/318/256 234/319/257
f 230/313/253 234/319/257 231/314/254
f 231/314/254 234/319/257 235/320/258
f 231/314/254 235/320/258 232/316/255
f 189/321/200 181/322/194 201/267/210
f 189/321/200 201/267/210 204/270/213
f 179/315/192 162/323/175 205/271/214
f 179/315/192 205/271/214 208/274/217
f 176/317/189 232/316/255 210/276/219
f 176/317/189 210/276/219 209/275/218
f 197/324/206 196/325/205 212/278/221
f 197/324/206 212/278/221 211/277/220
f 166/326/179 169/327/182 214/280/223
f 166/326/179 214/280/223 213/279/222
f 184/328/197 171/329/184 14/282/259
f 184/328/197 14/282/259 13/281/260
f 169/327/182 199/330/208 215/283/226
f 169/327/182 215/283/226 214/280/223
f 171/329/184 154/331/167 15/284/261
f 171/329/184 15/284/261 14/282/259
f 162/323/175 165/332/178 216/285/228
f 162/323/175 216/285/228 205/271/214
f 164/333/177 163/334/176 30/287/262
f 164/333/177 30/287/262 26/286/240
f 182/335/195 185/336/198 29/289/263
f 182/335/195 29/289/263 28/288/264
f 181/322/194 180/337/193 217/290/233
f 181/322/194 217/290/233 201/267/210
f 156/338/169 155/339/168 220/293/236
f 156/338/169 220/293/236 219/292/235
f 188/340/199 187/341/174 221/295/11
f 188/340/199 221/295/11 27/294/237
f 163/334/176 178/342/191 31/296/265
f 163/334/176 31/296/265 30/287/262
f 198/343/207 197/324/206 211/277/220
f 198/343/207 211/277/220 222/297/239
f 165/344/178 164/333/177 26/286/240
f 165/344/178 26/286/240 216/298/228
f 180/337/193 177/345/190 228/346/250
f 180/337/193 228/346/250 217/290/233
f 174/347/187 184/328/197 13/281/260
f 174/347/187 13/281/260 12/299/266
f 157/348/170 156/349/169 219/301/235
f 157/348/170 219/301/235 10/300/242
f 185/336/198 188/340/199 27/294/237
f 185/336/198 27/294/237 29/289/263
f 178/342/191 183/350/196 32/302/267
f 178/342/191 32/302/267 31/296/265
f 196/325/205 195/351/204 223/303/245
f 196/325/205 223/303/245 212/278/221
f 154/331/167 157/348/170 10/300/242
f 154/331/167 10/300/242 15/284/261
f 195/351/204 200/352/209 224/304/247
f 195/351/204 224/304/247 223/303/245
f 192/353/174 161/354/174 226/306/11
f 192/353/174 226/306/11 225/305/11
f 187/341/174 192/353/174 225/305/11
f 187/341/174 225/305/11 221/295/11
f 199/330/208 198/343/207 222/297/239
f 199/330/208 222/297/239 215/283/226
f 170/355/183 166/356/179 213/308/222
f 170/355/183 213/308/222 227/307/248
f 161/354/174 160/357/173 11/309/249
f 161/354/174 11/309/249 226/306/11
f 177/358/190 176/317/189 209/275/218
f 177/358/190 209/275/218 228/310/250
f 160/357/173 159/359/172 16/311/268
f 160/357/173 16/311/268 11/309/249
f 155/339/168 170/355/183 227/307/248
f 155/339/168 227/307/248 220/293/236
f 183/350/196 182/335/195 28/288/264
f 183/350/196 28/288/264 32/302/267
f 159/359/172 174/347/187 12/299/266
f 159/359/172 12/299/266 16/311/268
f 200/352/209 189/321/200 204/270/213
f 200/352/209 204/270/213 224/304/247
f 232/316/255 235/320/258 229/312/252
f 232/316/255 229/312/252 210/276/219
f 147/212/160 148/213/161 230/313/253
f 147/212/160 230/313/253 208/274/217
f 235/320/258 234/319/257 233/318/256
f 235/320/258 233/318/256 229/312/252
f 148/213/161 143/169/146 233/318/256
f 148/213/161 233/318/256 230/313/253
f 207/273/216 206/272/215 150/215/163
f 207/273/216 150/215/163 149/214/162
f 208/274/217 207/273/216 149/214/162
f 208/274/217 149/214/162 147/212/160
f 105/108/90 150/215/163 206/272/215
f 105/108/90 206/272/215 205/271/214
f 203/269/212 202/268/211 152/217/165
f 203/269/212 152/217/165 151/216/164
f 204/270/213 203/269/212 151/216/164
f 204/270/213 151/216/164 137/161/140
f 184/250/197 168/234/181 167/233/180
f 184/250/197 167/233/180 171/237/184
f 218/291/234 228/346/250 135/219/135
f 218/291/234 135/219/135 153/218/166
f 202/268/211 218/291/234 153/218/166
f 202/268/211 153/218/166 152/217/165
f 228/346/250 218/291/234 217/290/233
