# Blender v3.0.1 OBJ File: ''
# www.blender.org
mtllib ZAZ1105_wheel.mtl
o tavria_wheel_Cylinder_Cylinder.002
v -0.137629 0.000000 1.000003
v 0.238327 -0.382685 0.923882
v 0.238332 0.000000 1.000003
v -0.137629 -0.382685 0.923882
v 0.238327 -0.707107 0.707107
v -0.137629 -0.707107 0.707107
v 0.238327 -0.923878 0.382685
v -0.137629 -0.923878 0.382685
v 0.238327 -0.999998 -0.000000
v -0.137629 -0.999998 0.000000
v 0.238327 -0.923878 -0.382682
v -0.137629 -0.707107 -0.707107
v 0.238332 -0.707107 -0.707107
v 0.238332 -0.382685 -0.923879
v -0.137629 -0.382685 -0.923879
v 0.238332 -0.000000 -0.999999
v -0.137629 -0.000000 -0.999999
v 0.238332 0.382682 -0.923879
v -0.137629 0.382682 -0.923879
v 0.238332 0.707108 -0.707108
v -0.137629 0.707108 -0.707108
v 0.238332 0.923879 -0.382682
v -0.137629 0.923879 -0.382682
v 0.238332 0.999999 -0.000000
v -0.137629 0.999999 0.000000
v 0.238332 0.923879 0.382685
v -0.137629 0.923879 0.382685
v 0.238332 0.707108 0.707107
v -0.137629 0.707108 0.707107
v 0.238332 0.382682 0.923882
v -0.137629 0.382682 0.923882
v -0.194505 -0.882175 -0.365407
v -0.137629 -0.923878 -0.382682
v -0.194505 0.675185 0.675188
v 0.295208 0.365407 -0.882171
v -0.194505 -0.365407 0.882174
v -0.194505 0.365407 -0.882171
v -0.194505 0.675185 -0.675185
v 0.295204 -0.675184 -0.675185
v 0.295204 -0.882175 -0.365407
v 0.295208 0.675185 0.675188
v -0.194505 -0.675184 -0.675185
v -0.194505 0.365407 0.882174
v 0.295204 -0.675184 0.675188
v 0.295204 -0.365407 0.882174
v 0.295208 0.675185 -0.675185
v -0.194505 -0.675184 0.675188
v -0.194505 0.882175 -0.365407
v 0.295204 0.000000 0.954860
v 0.295204 0.365407 0.882174
v -0.194505 -0.365407 -0.882171
v -0.194505 0.000000 0.954860
v 0.295208 0.882175 -0.365407
v -0.194505 -0.882175 0.365407
v -0.194505 0.954856 0.000000
v 0.295204 -0.365407 -0.882171
v -0.194505 -0.000000 -0.954856
v 0.295204 -0.882175 0.365407
v 0.295208 0.882175 0.365411
v 0.295208 0.954856 -0.000000
v -0.194505 -0.954856 0.000000
v -0.194505 0.882175 0.365407
v 0.295208 -0.000000 -0.954856
v 0.295204 -0.954856 -0.000000
v 0.332188 -0.879351 -0.000000
v 0.332188 -0.812417 0.336515
v 0.332188 0.812417 -0.336515
v 0.332188 0.621797 -0.621797
v -0.231485 -0.879351 0.000000
v -0.231485 0.812417 -0.336515
v 0.332188 0.879351 -0.000000
v -0.231485 -0.812417 -0.336515
v -0.231485 0.879351 0.000000
v 0.332188 -0.812417 -0.336515
v 0.332188 0.812417 0.336515
v -0.231485 -0.621797 -0.621797
v -0.231485 0.812417 0.336515
v 0.332188 -0.336514 -0.812413
v 0.332188 -0.621797 -0.621797
v 0.332188 0.621797 0.621796
v -0.231485 -0.336514 -0.812413
v 0.332188 0.000000 0.879355
v -0.231485 0.621797 0.621796
v 0.332188 -0.000000 -0.879351
v -0.231485 0.000000 0.879355
v -0.231485 -0.336514 0.812416
v 0.332188 0.336515 0.812416
v -0.231485 -0.000000 -0.879351
v 0.332188 -0.336514 0.812416
v -0.231485 0.336515 0.812416
v -0.231485 -0.621797 0.621796
v -0.231485 0.336515 -0.812413
v 0.332188 -0.621797 0.621796
v 0.332188 0.336515 -0.812413
v -0.231485 -0.812417 0.336515
v -0.231485 0.621797 -0.621797
v -0.232868 -0.686959 0.000000
v -0.170996 -0.594729 -0.246345
v -0.232868 -0.634666 -0.262888
v -0.232868 0.686960 0.000000
v -0.170996 0.594730 -0.246345
v -0.170996 0.643733 0.000000
v 0.333010 -0.535830 -0.535826
v 0.277525 -0.594922 -0.245877
v 0.333010 -0.700092 -0.289989
v 0.333010 0.757775 -0.000000
v 0.277525 0.594923 0.245879
v 0.277525 0.643732 -0.000504
v -0.170996 -0.455189 -0.455185
v -0.232868 -0.485753 -0.485753
v -0.170996 0.594730 0.246344
v -0.232868 0.634666 0.262888
v 0.333010 -0.289989 -0.700093
v 0.277525 -0.455546 -0.454831
v 0.333010 0.535830 0.535830
v 0.333010 0.700093 0.289989
v -0.170996 -0.246345 -0.594730
v -0.232868 -0.262888 -0.634666
v 0.333010 0.000000 0.757778
v 0.277525 -0.245878 0.594923
v 0.277525 0.000506 0.643733
v -0.232868 0.485754 0.485753
v -0.170996 0.455185 0.455189
v 0.277525 -0.000505 -0.643732
v 0.277525 -0.246811 -0.594539
v -0.232868 0.000000 0.686959
v -0.170996 -0.246344 0.594734
v -0.232868 -0.262888 0.634670
v 0.333010 0.289989 0.700092
v 0.277525 0.455542 0.454828
v -0.232868 -0.000000 -0.686960
v -0.170996 -0.000000 -0.643733
v 0.333010 -0.289989 0.700092
v 0.277525 -0.454831 0.455543
v -0.232868 0.262889 0.634670
v -0.170996 0.246345 0.594734
v 0.333010 0.289989 -0.700093
v 0.333010 -0.000000 -0.757774
v -0.170996 -0.455189 0.455189
v -0.232868 -0.485753 0.485753
v 0.277525 0.246812 0.594537
v -0.170996 0.246345 -0.594730
v -0.232868 0.262889 -0.634666
v 0.333010 -0.535830 0.535830
v 0.277525 -0.594535 0.246812
v -0.170996 0.000000 0.643732
v 0.277525 0.454828 -0.455546
v 0.277525 0.245878 -0.594926
v -0.232868 -0.634666 0.262888
v -0.170996 -0.594729 0.246345
v -0.170996 0.455185 -0.455185
v -0.232868 0.485754 -0.485754
v 0.333010 -0.757774 -0.000000
v 0.333010 -0.700092 0.289989
v 0.333010 0.535830 -0.535826
v 0.277525 0.594536 -0.246811
v -0.170996 -0.643732 0.000000
v -0.232868 0.634666 -0.262888
v 0.277525 -0.643732 0.000506
v 0.333010 0.700093 -0.289989
v -0.233128 -0.000000 -0.474181
v -0.233128 0.474181 0.000000
v -0.233128 -0.181463 0.438088
v -0.233128 0.181463 0.438088
v -0.233128 0.000000 0.474180
v -0.233128 -0.474180 0.000000
v -0.233128 -0.438088 -0.181463
v -0.233128 0.181463 -0.438088
v -0.233128 0.438088 0.181463
v -0.233128 -0.335296 0.335297
v -0.233128 -0.335296 -0.335297
v -0.233128 0.335297 -0.335297
v -0.233128 0.335297 0.335297
v -0.233128 -0.438088 0.181463
v -0.233128 -0.181463 -0.438088
v -0.233128 0.438088 -0.181463
v -0.271203 0.102738 -0.042554
v -0.271203 -0.102737 0.042554
v -0.271203 -0.111201 0.000000
v -0.271203 0.111202 0.000000
v -0.271203 -0.102737 -0.042554
v -0.271203 0.102738 0.042554
v -0.271203 -0.078630 -0.078631
v -0.271203 0.078631 0.078634
v -0.271203 -0.042554 -0.102738
v -0.271203 0.042554 0.102737
v -0.271203 -0.000000 -0.111201
v -0.271203 -0.042554 0.102737
v -0.271203 0.000000 0.111201
v -0.271203 0.042554 -0.102738
v -0.271203 -0.078630 0.078634
v -0.271203 0.078631 -0.078631
v 0.339658 0.438231 0.181120
v 0.339658 -0.335033 0.335561
v 0.339658 -0.181119 0.438231
v 0.339658 -0.335560 -0.335033
v 0.339658 -0.438230 -0.181118
v 0.339658 0.335034 -0.335559
v 0.339658 0.181807 0.437946
v 0.339658 0.335560 0.335034
v 0.339658 -0.437945 0.181808
v 0.339658 -0.181806 -0.437945
v 0.339658 0.474181 -0.000371
v 0.339658 0.437946 -0.181806
v 0.339658 0.000373 0.474182
v 0.339658 -0.474180 0.000373
v 0.339658 0.181119 -0.438230
v 0.339657 -0.000372 -0.474179
v 0.377732 0.102771 0.042474
v 0.377732 -0.102771 -0.042473
v 0.377732 -0.111201 0.000088
v 0.377732 0.111202 -0.000086
v 0.377732 -0.102704 0.042636
v 0.377732 0.102704 -0.042634
v 0.377732 -0.078568 0.078693
v 0.377732 0.078569 -0.078695
v 0.377732 -0.042473 0.102772
v 0.377732 0.042474 -0.102770
v 0.377732 0.000088 0.111202
v 0.377732 -0.042634 -0.102703
v 0.377732 -0.000087 -0.111200
v 0.377732 0.042635 0.102705
v 0.377732 -0.078692 -0.078572
v 0.377732 0.078692 0.078570
vt 0.037760 0.250821
vt 0.248517 0.189379
vt 0.248430 0.251577
vt 0.037654 0.188579
vt 0.248811 0.127141
vt 0.037372 0.126234
vt 0.249723 0.064687
vt 0.036587 0.063550
vt 0.252233 0.001035
vt 0.034062 0.998965
vt 0.249708 0.936451
vt 0.251737 1.000000
vt 0.037484 0.872859
vt 0.248923 0.873766
vt 0.248641 0.811421
vt 0.037778 0.810621
vt 0.248534 0.749180
vt 0.037865 0.748423
vt 0.248490 0.686969
vt 0.037884 0.686229
vt 0.248466 0.624766
vt 0.037881 0.624032
vt 0.248450 0.562566
vt 0.037871 0.561834
vt 0.248436 0.500366
vt 0.037859 0.499634
vt 0.248424 0.438166
vt 0.037845 0.437434
vt 0.248414 0.375968
vt 0.037829 0.375234
vt 0.248411 0.313771
vt 0.037805 0.313031
vt 0.002885 0.934384
vt 0.036572 0.935312
vt 0.003961 0.375289
vt 0.282356 0.686906
vt 0.003785 0.188741
vt 0.004025 0.686272
vt 0.004016 0.624081
vt 0.282820 0.873389
vt 0.283710 0.935446
vt 0.282279 0.375919
vt 0.003726 0.872605
vt 0.003939 0.313094
vt 0.282569 0.127395
vt 0.282332 0.189422
vt 0.282333 0.624712
vt 0.003475 0.126611
vt 0.004004 0.561884
vt 0.282275 0.251554
vt 0.282270 0.313728
vt 0.003962 0.810578
vt 0.003895 0.250909
vt 0.282318 0.562514
vt 0.002584 0.064554
vt 0.003991 0.499685
vt 0.282510 0.811259
vt 0.004019 0.748446
vt 0.283410 0.065616
vt 0.282291 0.438116
vt 0.282304 0.500315
vt 0.034557 0.000000
vt 0.000000 0.002670
vt 0.003977 0.437486
vt 0.282400 0.749092
vt 0.286295 0.997330
vt 0.496733 0.791655
vt 0.535397 0.700657
vt 0.535014 0.783627
vt 0.955122 0.603876
vt 0.954868 0.702429
vt 0.923077 0.626039
vt 0.886265 0.534700
vt 0.788603 0.535563
vt 0.795644 0.497262
vt 0.539241 0.883446
vt 0.629246 0.920245
vt 0.607960 0.952702
vt 0.535385 0.602777
vt 0.497034 0.693270
vt 0.992982 0.694320
vt 0.954653 0.785189
vt 0.697725 0.497701
vt 0.705974 0.535713
vt 0.705247 0.952237
vt 0.698052 0.990418
vt 0.605597 0.534125
vt 0.567880 0.624400
vt 0.992982 0.792441
vt 0.922425 0.861575
vt 0.607629 0.535703
vt 0.629815 0.567609
vt 0.795859 0.990566
vt 0.787808 0.952500
vt 0.704449 0.535680
vt 0.627313 0.566558
vt 0.955062 0.883032
vt 0.863287 0.919972
vt 0.571677 0.626234
vt 0.539008 0.605227
vt 0.604371 0.952390
vt 0.702828 0.951433
vt 0.695668 0.990005
vt 0.864256 0.920971
vt 0.886329 0.953070
vt 0.696631 0.497435
vt 0.787552 0.536028
vt 0.993015 0.694879
vt 0.954652 0.785886
vt 0.954828 0.702932
vt 0.885307 0.952309
vt 0.786225 0.951553
vt 0.540250 0.702599
vt 0.502055 0.695587
vt 0.534460 0.882679
vt 0.625739 0.919478
vt 0.922855 0.862452
vt 0.955569 0.883673
vt 0.885438 0.534909
vt 0.794708 0.497676
vt 0.955570 0.604157
vt 0.923364 0.626181
vt 0.794298 0.989897
vt 0.502143 0.793205
vt 0.540134 0.785215
vt 0.566767 0.860490
vt 0.993015 0.793006
vt 0.864297 0.567666
vt 0.864987 0.567369
vt 0.571312 0.861605
vt 0.781517 0.571000
vt 0.716168 0.580717
vt 0.713089 0.571132
vt 0.712434 0.916885
vt 0.654009 0.881529
vt 0.712844 0.906753
vt 0.643228 0.591268
vt 0.612561 0.654909
vt 0.592016 0.641062
vt 0.925959 0.779236
vt 0.877142 0.830729
vt 0.901672 0.774546
vt 0.657247 0.604932
vt 0.649989 0.597575
vt 0.777200 0.907261
vt 0.780837 0.917038
vt 0.709842 0.564649
vt 0.657050 0.612616
vt 0.847142 0.895317
vt 0.898160 0.844985
vt 0.611830 0.650305
vt 0.601778 0.646243
vt 0.708722 0.922497
vt 0.655524 0.872798
vt 0.712827 0.896798
vt 0.844178 0.890845
vt 0.836829 0.882972
vt 0.777673 0.590609
vt 0.715051 0.590437
vt 0.919068 0.778723
vt 0.908149 0.712819
vt 0.919183 0.709872
vt 0.780659 0.922568
vt 0.832691 0.873830
vt 0.575722 0.709675
vt 0.587343 0.710804
vt 0.642229 0.894990
vt 0.611690 0.828579
vt 0.892730 0.842273
vt 0.882694 0.837502
vt 0.847987 0.592074
vt 0.781666 0.564859
vt 0.884147 0.652624
vt 0.893098 0.646182
vt 0.775020 0.897136
vt 0.586730 0.776163
vt 0.575644 0.778344
vt 0.591322 0.844180
vt 0.587822 0.771772
vt 0.907758 0.777760
vt 0.879170 0.657383
vt 0.835376 0.614226
vt 0.844739 0.597395
vt 0.839172 0.606361
vt 0.609856 0.835785
vt 0.601454 0.841753
vt 0.564108 0.706671
vt 0.563865 0.778058
vt 0.898714 0.642302
vt 0.902326 0.713629
vt 0.780109 0.581067
vt 0.649480 0.890374
vt 0.588273 0.710857
vt 0.926142 0.708038
vt 0.774052 0.607371
vt 0.729352 0.647862
vt 0.720081 0.607348
vt 0.611381 0.716041
vt 0.651882 0.760855
vt 0.611405 0.770042
vt 0.774159 0.878596
vt 0.800004 0.824256
vt 0.823958 0.857908
vt 0.727132 0.837869
vt 0.764932 0.838305
vt 0.862032 0.666268
vt 0.842263 0.725504
vt 0.828244 0.690351
vt 0.670216 0.627985
vt 0.694273 0.661881
vt 0.632105 0.819914
vt 0.665945 0.795956
vt 0.862036 0.819771
vt 0.827020 0.797883
vt 0.823905 0.628063
vt 0.801867 0.663260
vt 0.632038 0.666152
vt 0.667218 0.688284
vt 0.692376 0.823002
vt 0.670318 0.858055
vt 0.882626 0.769996
vt 0.841878 0.763237
vt 0.767139 0.648342
vt 0.652329 0.723042
vt 0.720205 0.878656
vt 0.882626 0.716133
vt 0.729721 0.739127
vt 0.764536 0.746941
vt 0.764671 0.739973
vt 0.729545 0.746077
vt 0.762135 0.733511
vt 0.732051 0.752567
vt 0.757365 0.728475
vt 0.736846 0.757610
vt 0.751026 0.725657
vt 0.743215 0.760424
vt 0.744086 0.725490
vt 0.756676 0.758100
vt 0.750177 0.760608
vt 0.737607 0.728009
vt 0.761722 0.753306
vt 0.732551 0.732780
vt 0.670405 0.858134
vt 0.667273 0.797815
vt 0.632160 0.820016
vt 0.000000 0.995910
vt 0.286294 0.004090
vt 0.824103 0.857819
vt 0.828301 0.795533
vt 0.801974 0.822652
vt 0.861835 0.665956
vt 0.799782 0.661582
vt 0.826814 0.687857
vt 0.611370 0.716156
vt 0.665825 0.690141
vt 0.631989 0.666258
vt 0.729501 0.838158
vt 0.694377 0.824181
vt 0.862174 0.819556
vt 0.842240 0.760385
vt 0.823696 0.627918
vt 0.764705 0.647618
vt 0.652327 0.763078
vt 0.651819 0.725268
vt 0.720320 0.878696
vt 0.767274 0.837618
vt 0.882689 0.769632
vt 0.841672 0.722544
vt 0.719960 0.607385
vt 0.692198 0.663058
vt 0.726927 0.648128
vt 0.773885 0.607344
vt 0.611428 0.770154
vt 0.774286 0.878583
vt 0.670127 0.628066
vt 0.882537 0.715682
vt 0.732538 0.753221
vt 0.761676 0.732626
vt 0.764479 0.739007
vt 0.729705 0.746872
vt 0.764621 0.745948
vt 0.729524 0.739918
vt 0.762153 0.752430
vt 0.732012 0.733419
vt 0.757384 0.757468
vt 0.736811 0.728373
vt 0.751041 0.760290
vt 0.750131 0.725345
vt 0.743167 0.725528
vt 0.744092 0.760454
vt 0.756632 0.727832
vt 0.737590 0.757993
vn -0.3171 -0.0000 0.9484
vn 0.3171 -0.3629 0.8762
vn 0.3171 -0.0000 0.9484
vn -0.3171 -0.3629 0.8762
vn 0.3171 -0.6706 0.6706
vn -0.3171 -0.6706 0.6706
vn 0.3171 -0.8762 0.3629
vn -0.3171 -0.8762 0.3629
vn 0.3171 -0.9484 -0.0000
vn -0.3171 -0.9484 -0.0000
vn 0.3171 -0.8762 -0.3629
vn -0.3171 -0.6706 -0.6706
vn 0.3172 -0.6706 -0.6706
vn 0.3172 -0.3629 -0.8762
vn -0.3171 -0.3629 -0.8762
vn 0.3171 -0.0000 -0.9484
vn -0.3171 -0.0000 -0.9484
vn 0.3171 0.3629 -0.8762
vn -0.3171 0.3629 -0.8762
vn 0.3171 0.6706 -0.6706
vn -0.3171 0.6706 -0.6706
vn 0.3171 0.8762 -0.3629
vn -0.3171 0.8762 -0.3629
vn 0.3171 0.9484 -0.0000
vn -0.3171 0.9484 -0.0000
vn 0.3171 0.8762 0.3629
vn -0.3171 0.8762 0.3629
vn 0.3171 0.6706 0.6706
vn -0.3171 0.6706 0.6706
vn 0.3171 0.3629 0.8762
vn -0.3171 0.3629 0.8762
vn -0.7658 -0.5942 -0.2461
vn -0.3171 -0.8762 -0.3629
vn -0.7658 0.4547 0.4547
vn 0.7658 0.2461 -0.5941
vn -0.7658 -0.2461 0.5941
vn -0.7658 0.2461 -0.5941
vn -0.7658 0.4547 -0.4547
vn 0.7658 -0.4547 -0.4547
vn 0.7658 -0.5942 -0.2461
vn 0.7658 0.4547 0.4547
vn -0.7658 -0.4547 -0.4547
vn -0.7658 0.2461 0.5941
vn 0.7658 -0.4548 0.4548
vn 0.7658 -0.2461 0.5942
vn 0.7658 0.4547 -0.4547
vn -0.7658 -0.4547 0.4547
vn -0.7658 0.5942 -0.2461
vn 0.7658 -0.0000 0.6431
vn 0.7658 0.2461 0.5941
vn -0.7658 -0.2461 -0.5941
vn -0.7658 -0.0000 0.6431
vn 0.7658 0.5942 -0.2461
vn -0.7658 -0.5942 0.2461
vn -0.7658 0.6431 0.0000
vn 0.7658 -0.2461 -0.5941
vn -0.7658 -0.0000 -0.6431
vn 0.7658 -0.5942 0.2461
vn 0.7658 0.5942 0.2461
vn 0.7658 0.6431 -0.0000
vn -0.7658 -0.6431 0.0000
vn -0.7658 0.5942 0.2461
vn 0.7658 -0.0000 -0.6431
vn 0.7658 -0.6431 -0.0000
vn 0.8981 -0.4399 -0.0000
vn 0.8981 -0.4064 0.1683
vn 0.8981 0.4064 -0.1683
vn 0.8981 0.3110 -0.3110
vn -0.8981 -0.4398 0.0000
vn -0.8981 0.4064 -0.1683
vn 0.8981 0.4398 -0.0000
vn -0.8981 -0.4064 -0.1683
vn -0.8981 0.4398 0.0000
vn 0.8981 -0.4064 -0.1683
vn 0.8981 0.4064 0.1683
vn -0.8981 -0.3110 -0.3110
vn -0.8981 0.4064 0.1683
vn 0.8981 -0.1683 -0.4064
vn 0.8980 -0.3111 -0.3111
vn 0.8981 0.3110 0.3110
vn -0.8981 -0.1683 -0.4064
vn 0.8981 -0.0000 0.4399
vn -0.8981 0.3110 0.3110
vn 0.8981 -0.0000 -0.4399
vn -0.8981 -0.0000 0.4398
vn -0.8981 -0.1683 0.4064
vn 0.8981 0.1683 0.4064
vn -0.8981 -0.0000 -0.4398
vn 0.8981 -0.1683 0.4064
vn -0.8981 0.1683 0.4064
vn -0.8981 -0.3110 0.3110
vn -0.8981 0.1683 -0.4064
vn 0.8981 -0.3111 0.3110
vn 0.8981 0.1683 -0.4064
vn -0.8981 -0.4064 0.1683
vn -0.8981 0.3110 -0.3110
vn -0.5727 0.8197 0.0000
vn -0.5727 0.7573 0.3137
vn -0.5727 -0.8198 -0.0000
vn -0.5727 -0.7573 0.3137
vn 0.8969 0.3127 0.3127
vn 0.8969 0.4086 0.1692
vn 0.8969 -0.4422 -0.0000
vn 0.8970 -0.4084 -0.1693
vn 0.8969 -0.4422 0.0001
vn -0.5727 0.5797 0.5796
vn -0.5727 0.5797 0.5797
vn -0.5727 -0.7573 -0.3137
vn 0.8969 0.1692 0.4085
vn 0.8969 0.3131 0.3123
vn 0.8969 -0.3127 -0.3126
vn 0.8969 -0.4086 -0.1692
vn -0.5727 0.3137 0.7574
vn 0.8969 0.0000 -0.4422
vn 0.8969 0.1692 -0.4086
vn 0.8969 -0.0001 -0.4422
vn -0.5727 -0.5797 -0.5796
vn -0.5727 -0.5796 -0.5796
vn 0.8969 -0.0000 0.4422
vn 0.8969 0.1695 0.4085
vn -0.5727 0.0000 -0.8198
vn -0.5727 0.3137 -0.7574
vn 0.8969 -0.1692 -0.4086
vn 0.8969 -0.3129 -0.3126
vn -0.5727 0.0000 0.8198
vn 0.8969 0.3127 -0.3127
vn -0.5727 -0.3137 -0.7573
vn -0.5727 -0.3137 -0.7574
vn 0.8969 -0.1692 0.4085
vn 0.8969 -0.0000 0.4423
vn -0.5727 0.5797 -0.5797
vn -0.5727 -0.3137 0.7573
vn 0.8969 0.4086 -0.1692
vn 0.8969 -0.3130 0.3123
vn -0.5727 0.7573 -0.3137
vn -0.5728 -0.5796 0.5796
vn 0.8969 0.4422 -0.0000
vn 0.8972 -0.3128 0.3117
vn 0.8969 -0.4086 0.1692
vn -0.5727 0.8198 0.0000
vn -0.9389 -0.1317 -0.3179
vn -0.9707 -0.0000 -0.2404
vn -0.9389 -0.0000 -0.3441
vn -0.9389 0.3179 -0.1317
vn -0.9707 0.2404 0.0000
vn -0.9389 0.3441 0.0000
vn -0.9389 -0.0000 0.3441
vn -0.9707 -0.0920 0.2221
vn -0.9389 -0.1317 0.3179
vn -0.9707 0.0920 0.2221
vn -0.9707 -0.0000 0.2404
vn -0.9389 -0.3179 -0.1317
vn -0.9707 -0.2404 0.0000
vn -0.9707 -0.2221 -0.0920
vn -0.9389 0.1317 -0.3179
vn -0.9707 0.0920 -0.2221
vn -0.9389 0.3179 0.1317
vn -0.9707 0.2221 0.0920
vn -0.9389 -0.2433 0.2433
vn -0.9707 -0.1700 0.1700
vn -0.9389 -0.2433 -0.2433
vn -0.9707 -0.1700 -0.1700
vn -0.9389 0.2433 -0.2433
vn -0.9707 0.1700 -0.1700
vn -0.9707 0.1700 0.1700
vn -0.9389 0.2433 0.2433
vn -0.9389 -0.3179 0.1317
vn -0.9707 -0.2221 0.0920
vn -0.9707 -0.0920 -0.2221
vn -0.9707 0.2221 -0.0920
vn -0.9389 0.1317 0.3179
vn -0.9389 -0.3441 0.0000
vn -0.9983 0.0543 -0.0225
vn -0.9983 -0.0543 0.0225
vn -0.9983 -0.0587 0.0000
vn -0.9983 0.0587 -0.0000
vn -0.9983 -0.0543 -0.0225
vn -0.9983 0.0543 0.0225
vn -0.9983 -0.0415 -0.0415
vn -0.9983 0.0415 0.0415
vn -0.9983 -0.0225 -0.0543
vn -0.9983 0.0225 0.0543
vn -0.9983 -0.0000 -0.0587
vn -0.9983 -0.0225 0.0543
vn -0.9983 0.0000 0.0587
vn -0.9983 0.0225 -0.0543
vn -0.9983 -0.0415 0.0415
vn -0.9983 0.0415 -0.0415
vn -1.0000 0.0051 -0.0051
vn -1.0000 0.0066 -0.0028
vn -1.0000 -0.0066 0.0028
vn -1.0000 -0.0072 0.0000
vn -1.0000 0.0028 -0.0066
vn -1.0000 -0.0051 0.0051
vn -1.0000 0.0000 0.0072
vn -1.0000 0.0028 0.0066
vn -1.0000 -0.0000 -0.0072
vn -1.0000 -0.0028 0.0066
vn -1.0000 0.0051 0.0051
vn -1.0000 -0.0028 -0.0066
vn -1.0000 0.0066 0.0028
vn -1.0000 -0.0051 -0.0051
vn -1.0000 0.0072 0.0000
vn -1.0000 -0.0066 -0.0028
vn 1.0000 0.0068 -0.0000
vn 1.0000 0.0062 -0.0026
vn 1.0000 -0.0068 -0.0000
vn 1.0000 -0.0062 -0.0026
vn 1.0000 0.0048 -0.0048
vn 1.0000 -0.0062 0.0026
vn 1.0000 0.0026 -0.0062
vn 1.0000 -0.0048 0.0048
vn 1.0000 0.0026 0.0062
vn 1.0000 -0.0000 0.0068
vn 1.0000 -0.0000 -0.0068
vn 1.0000 -0.0026 0.0062
vn 1.0000 0.0048 0.0048
vn 1.0000 -0.0026 -0.0062
vn 1.0000 0.0062 0.0026
vn 1.0000 -0.0048 -0.0048
vn 0.9389 0.2435 0.2431
vn 0.9707 0.2222 0.0918
vn 0.9389 0.3180 0.1314
vn 0.9389 -0.1314 0.3180
vn 0.9707 -0.1699 0.1701
vn 0.9707 -0.0918 0.2222
vn 0.9389 -0.3180 -0.1314
vn 0.9707 -0.1701 -0.1699
vn 0.9707 -0.2222 -0.0918
vn 0.9389 0.3178 -0.1319
vn 0.9707 0.1699 -0.1701
vn 0.9389 0.2431 -0.2435
vn 0.9707 0.0922 0.2220
vn 0.9707 0.1701 0.1699
vn 0.9389 -0.2431 0.2435
vn 0.9707 -0.2220 0.0922
vn 0.9389 -0.2435 -0.2431
vn 0.9707 -0.0922 -0.2220
vn 0.9707 0.2404 -0.0002
vn 0.9707 0.2220 -0.0922
vn 0.9389 0.1319 0.3178
vn 0.9707 0.0002 0.2404
vn 0.9389 -0.3178 0.1319
vn 0.9707 -0.2404 0.0002
vn 0.9389 -0.0003 -0.3441
vn 0.9707 0.0918 -0.2222
vn 0.9707 -0.0002 -0.2404
vn 0.9389 -0.1319 -0.3178
vn 0.9389 0.3441 -0.0003
vn 0.9389 0.0003 0.3441
vn 0.9389 0.1314 -0.3180
vn 0.9389 -0.3441 0.0003
vn 0.9983 0.0543 0.0224
vn 0.9983 -0.0543 -0.0224
vn 0.9983 -0.0587 0.0000
vn 0.9983 0.0587 -0.0000
vn 0.9983 -0.0542 0.0225
vn 0.9983 0.0542 -0.0225
vn 0.9983 -0.0415 0.0416
vn 0.9983 0.0415 -0.0416
vn 0.9983 -0.0224 0.0543
vn 0.9983 0.0224 -0.0543
vn 0.9983 0.0000 0.0587
vn 0.9983 -0.0225 -0.0543
vn 0.9983 -0.0000 -0.0587
vn 0.9983 0.0225 0.0542
vn 0.9983 -0.0416 -0.0415
vn 0.9983 0.0416 0.0415
usemtl Material.003
s 1
f 1/1/1 2/2/2 3/3/3
f 4/4/4 5/5/5 2/2/2
f 6/6/6 7/7/7 5/5/5
f 8/8/8 9/9/9 7/7/7
f 10/10/10 11/11/11 9/12/9
f 11/11/11 12/13/12 13/14/13
f 12/13/12 14/15/14 13/14/13
f 15/16/15 16/17/16 14/15/14
f 17/18/17 18/19/18 16/17/16
f 19/20/19 20/21/20 18/19/18
f 21/22/21 22/23/22 20/21/20
f 23/24/23 24/25/24 22/23/22
f 25/26/25 26/27/26 24/25/24
f 27/28/27 28/29/28 26/27/26
f 29/30/29 30/31/30 28/29/28
f 31/32/31 3/3/3 30/31/30
f 10/10/10 32/33/32 33/34/33
f 27/28/27 34/35/34 29/30/29
f 20/21/20 35/36/35 18/19/18
f 1/1/1 36/37/36 4/4/4
f 21/22/21 37/38/37 38/39/38
f 11/11/11 39/40/39 40/41/40
f 30/31/30 41/42/41 28/29/28
f 33/34/33 42/43/42 12/13/12
f 31/32/31 34/35/34 43/44/43
f 2/2/2 44/45/44 45/46/45
f 22/23/22 46/47/46 20/21/20
f 4/4/4 47/48/47 6/6/6
f 23/24/23 38/39/38 48/49/48
f 14/15/14 39/40/39 13/14/13
f 30/31/30 49/50/49 50/51/50
f 15/16/15 42/43/42 51/52/51
f 31/32/31 52/53/52 1/1/1
f 7/7/7 44/45/44 5/5/5
f 24/25/24 53/54/53 22/23/22
f 8/8/8 47/48/47 54/55/54
f 25/26/25 48/49/48 55/56/55
f 16/17/16 56/57/56 14/15/14
f 17/18/17 51/52/51 57/58/57
f 9/9/9 58/59/58 7/7/7
f 24/25/24 59/60/59 60/61/60
f 10/62/10 54/55/54 61/63/61
f 25/26/25 62/64/62 27/28/27
f 18/19/18 63/65/63 16/17/16
f 19/20/19 57/58/57 37/38/37
f 9/12/9 40/41/40 64/66/64
f 28/29/28 59/60/59 26/27/26
f 3/3/3 45/46/45 49/50/49
f 58/67/58 65/68/65 66/69/66
f 46/70/46 67/71/67 68/72/68
f 54/73/54 69/74/69 61/75/61
f 38/76/38 70/77/70 48/78/48
f 40/79/40 65/68/65 64/80/64
f 53/81/53 71/82/71 67/71/67
f 32/83/32 69/74/69 72/84/72
f 48/78/48 73/85/73 55/86/55
f 39/87/39 74/88/74 40/79/40
f 60/89/60 75/90/75 71/82/71
f 42/91/42 72/84/72 76/92/76
f 62/93/62 73/85/73 77/94/77
f 39/87/39 78/95/78 79/96/79
f 59/97/59 80/98/80 75/90/75
f 42/91/42 81/99/81 51/100/51
f 45/101/45 82/102/82 49/103/49
f 62/93/62 83/104/83 34/105/34
f 56/106/56 84/107/84 78/95/78
f 36/108/36 85/109/85 86/110/86
f 41/111/41 87/112/87 80/98/80
f 51/100/51 88/113/88 57/114/57
f 44/115/44 89/116/89 45/101/45
f 34/105/34 90/117/90 43/118/43
f 35/119/35 84/107/84 63/120/63
f 47/121/47 86/110/86 91/122/91
f 50/123/50 82/102/82 87/112/87
f 37/124/37 88/113/88 92/125/92
f 58/67/58 93/126/93 44/115/44
f 43/118/43 85/109/85 52/127/52
f 46/70/46 94/128/94 35/119/35
f 54/73/54 91/122/91 95/129/95
f 38/76/38 92/125/92 96/130/96
f 97/131/97 98/132/98 99/133/98
f 100/134/99 101/135/100 102/136/99
f 103/137/101 104/138/102 105/139/102
f 106/140/103 107/141/104 108/142/105
f 99/133/98 109/143/106 110/144/107
f 100/134/99 111/145/108 112/146/108
f 113/147/109 114/148/110 103/137/101
f 115/149/111 107/141/104 116/150/112
f 110/144/107 117/151/113 118/152/113
f 119/153/114 120/154/115 121/155/116
f 122/156/117 111/145/108 123/157/118
f 113/147/109 124/158/119 125/159/120
f 126/160/121 127/161/122 128/162/122
f 129/163/123 130/164/124 115/149/111
f 131/165/125 117/151/113 132/166/125
f 133/167/115 134/168/126 120/154/115
f 135/169/127 123/157/118 136/170/128
f 137/171/129 124/158/119 138/172/130
f 128/162/122 139/173/131 140/174/131
f 119/153/114 141/175/123 129/163/123
f 131/165/125 142/176/132 143/177/132
f 144/178/126 145/179/133 134/168/126
f 126/160/121 136/170/128 146/180/121
f 137/171/129 147/181/134 148/182/129
f 149/183/135 139/173/131 150/184/135
f 143/177/132 151/185/136 152/186/136
f 153/187/137 145/179/133 154/188/133
f 155/189/138 156/190/139 147/181/134
f 97/131/97 150/184/135 157/191/140
f 158/192/100 151/185/136 101/135/100
f 153/187/137 104/138/102 159/193/137
f 106/140/103 156/190/139 160/194/139
f 117/195/141 161/196/142 132/197/143
f 101/198/144 162/199/145 102/200/146
f 146/201/147 163/202/148 127/203/149
f 146/201/147 164/204/150 165/205/151
f 98/206/152 166/207/153 167/208/154
f 142/209/155 161/196/142 168/210/156
f 111/211/157 162/199/145 169/212/158
f 139/213/159 163/202/148 170/214/160
f 109/215/161 167/208/154 171/216/162
f 151/217/163 168/210/156 172/218/164
f 111/211/157 173/219/165 123/220/166
f 150/221/167 170/214/160 174/222/168
f 117/195/141 171/216/162 175/223/169
f 151/217/163 176/224/170 101/198/144
f 123/220/166 164/204/150 136/225/171
f 150/221/167 166/207/153 157/226/172
f 172/218/164 177/227/173 176/224/170
f 166/207/153 178/228/174 179/229/175
f 162/199/145 177/227/173 180/230/176
f 166/207/153 181/231/177 167/208/154
f 162/199/145 182/232/178 169/212/158
f 171/216/162 181/231/177 183/233/179
f 169/212/158 184/234/180 173/219/165
f 171/216/162 185/235/181 175/223/169
f 164/204/150 184/234/180 186/236/182
f 161/196/142 185/235/181 187/237/183
f 165/205/151 188/238/184 163/202/148
f 165/205/151 186/236/182 189/239/185
f 161/196/142 190/240/186 168/210/156
f 163/202/148 191/241/187 170/214/160
f 172/218/164 190/240/186 192/242/188
f 174/222/168 191/241/187 178/228/174
f 190/240/186 181/231/177 188/238/184
f 96/130/189 158/192/190 70/77/190
f 95/129/191 97/131/192 69/74/192
f 92/125/193 152/186/189 96/130/189
f 91/122/194 149/183/191 95/129/191
f 85/109/195 135/169/196 126/160/195
f 92/125/193 131/165/197 143/177/193
f 91/122/194 128/162/198 140/174/194
f 83/104/199 135/169/196 90/117/196
f 81/99/200 131/165/197 88/113/197
f 85/109/195 128/162/198 86/110/198
f 83/104/199 112/146/201 122/156/199
f 81/99/200 110/144/202 118/152/200
f 77/94/201 100/134/203 112/146/201
f 76/92/202 99/133/204 110/144/202
f 70/77/190 100/134/203 73/85/203
f 72/84/204 97/131/192 99/133/204
f 71/82/205 160/194/206 67/71/206
f 65/68/207 105/139/208 153/187/207
f 67/71/206 155/189/209 68/72/209
f 65/68/207 154/188/210 66/69/210
f 68/72/209 137/171/211 94/128/211
f 93/126/212 154/188/210 144/178/212
f 87/112/213 119/153/214 129/163/213
f 84/107/215 137/171/211 138/172/215
f 89/116/216 144/178/212 133/167/216
f 87/112/213 115/149/217 80/98/217
f 84/107/215 113/147/218 78/95/218
f 89/116/216 119/153/214 82/102/214
f 80/98/217 116/150/219 75/90/219
f 79/96/220 113/147/218 103/137/220
f 71/82/205 116/150/219 106/140/205
f 74/88/208 103/137/220 105/139/208
f 130/243/221 193/244/222 107/245/223
f 1/1/1 4/4/4 2/2/2
f 4/4/4 6/6/6 5/5/5
f 6/6/6 8/8/8 7/7/7
f 8/8/8 10/62/10 9/9/9
f 10/10/10 33/34/33 11/11/11
f 11/11/11 33/34/33 12/13/12
f 12/13/12 15/16/15 14/15/14
f 15/16/15 17/18/17 16/17/16
f 17/18/17 19/20/19 18/19/18
f 19/20/19 21/22/21 20/21/20
f 21/22/21 23/24/23 22/23/22
f 23/24/23 25/26/25 24/25/24
f 25/26/25 27/28/27 26/27/26
f 27/28/27 29/30/29 28/29/28
f 29/30/29 31/32/31 30/31/30
f 31/32/31 1/1/1 3/3/3
f 10/10/10 61/246/61 32/33/32
f 27/28/27 62/64/62 34/35/34
f 20/21/20 46/47/46 35/36/35
f 1/1/1 52/53/52 36/37/36
f 21/22/21 19/20/19 37/38/37
f 11/11/11 13/14/13 39/40/39
f 30/31/30 50/51/50 41/42/41
f 33/34/33 32/33/32 42/43/42
f 31/32/31 29/30/29 34/35/34
f 2/2/2 5/5/5 44/45/44
f 22/23/22 53/54/53 46/47/46
f 4/4/4 36/37/36 47/48/47
f 23/24/23 21/22/21 38/39/38
f 14/15/14 56/57/56 39/40/39
f 30/31/30 3/3/3 49/50/49
f 15/16/15 12/13/12 42/43/42
f 31/32/31 43/44/43 52/53/52
f 7/7/7 58/59/58 44/45/44
f 24/25/24 60/61/60 53/54/53
f 8/8/8 6/6/6 47/48/47
f 25/26/25 23/24/23 48/49/48
f 16/17/16 63/65/63 56/57/56
f 17/18/17 15/16/15 51/52/51
f 9/9/9 64/247/64 58/59/58
f 24/25/24 26/27/26 59/60/59
f 10/62/10 8/8/8 54/55/54
f 25/26/25 55/56/55 62/64/62
f 18/19/18 35/36/35 63/65/63
f 19/20/19 17/18/17 57/58/57
f 9/12/9 11/11/11 40/41/40
f 28/29/28 41/42/41 59/60/59
f 3/3/3 2/2/2 45/46/45
f 58/67/58 64/80/64 65/68/65
f 46/70/46 53/81/53 67/71/67
f 54/73/54 95/129/95 69/74/69
f 38/76/38 96/130/96 70/77/70
f 40/79/40 74/88/74 65/68/65
f 53/81/53 60/89/60 71/82/71
f 32/83/32 61/75/61 69/74/69
f 48/78/48 70/77/70 73/85/73
f 39/87/39 79/96/79 74/88/74
f 60/89/60 59/97/59 75/90/75
f 42/91/42 32/83/32 72/84/72
f 62/93/62 55/86/55 73/85/73
f 39/87/39 56/106/56 78/95/78
f 59/97/59 41/111/41 80/98/80
f 42/91/42 76/92/76 81/99/81
f 45/101/45 89/116/89 82/102/82
f 62/93/62 77/94/77 83/104/83
f 56/106/56 63/120/63 84/107/84
f 36/108/36 52/127/52 85/109/85
f 41/111/41 50/123/50 87/112/87
f 51/100/51 81/99/81 88/113/88
f 44/115/44 93/126/93 89/116/89
f 34/105/34 83/104/83 90/117/90
f 35/119/35 94/128/94 84/107/84
f 47/121/47 36/108/36 86/110/86
f 50/123/50 49/103/49 82/102/82
f 37/124/37 57/114/57 88/113/88
f 58/67/58 66/69/66 93/126/93
f 43/118/43 90/117/90 85/109/85
f 46/70/46 68/72/68 94/128/94
f 54/73/54 47/121/47 91/122/91
f 38/76/38 37/124/37 92/125/92
f 97/131/97 157/191/140 98/132/98
f 100/134/99 158/192/100 101/135/100
f 103/137/101 114/148/110 104/138/102
f 106/140/103 116/150/112 107/141/104
f 99/133/98 98/132/98 109/143/106
f 100/134/99 102/136/99 111/145/108
f 113/147/109 125/159/120 114/148/110
f 115/149/111 130/164/124 107/141/104
f 110/144/107 109/143/106 117/151/113
f 119/153/114 133/167/115 120/154/115
f 122/156/117 112/146/108 111/145/108
f 113/147/109 138/172/130 124/158/119
f 126/160/121 146/180/121 127/161/122
f 129/163/123 141/175/123 130/164/124
f 131/165/125 118/152/113 117/151/113
f 133/167/115 144/178/126 134/168/126
f 135/169/127 122/156/117 123/157/118
f 137/171/129 148/182/129 124/158/119
f 128/162/122 127/161/122 139/173/131
f 119/153/114 121/155/116 141/175/123
f 131/165/125 132/166/125 142/176/132
f 144/178/126 154/188/133 145/179/133
f 126/160/121 135/169/127 136/170/128
f 137/171/129 155/189/138 147/181/134
f 149/183/135 140/174/131 139/173/131
f 143/177/132 142/176/132 151/185/136
f 153/187/137 159/193/137 145/179/133
f 155/189/138 160/194/139 156/190/139
f 97/131/97 149/183/135 150/184/135
f 158/192/100 152/186/136 151/185/136
f 153/187/137 105/139/102 104/138/102
f 106/140/103 108/142/105 156/190/139
f 117/195/141 175/223/169 161/196/142
f 101/198/144 176/224/170 162/199/145
f 146/201/147 165/205/151 163/202/148
f 146/201/147 136/225/171 164/204/150
f 98/206/152 157/226/172 166/207/153
f 142/209/155 132/197/143 161/196/142
f 111/211/157 102/200/146 162/199/145
f 139/213/159 127/203/149 163/202/148
f 109/215/161 98/206/152 167/208/154
f 151/217/163 142/209/155 168/210/156
f 111/211/157 169/212/158 173/219/165
f 150/221/167 139/213/159 170/214/160
f 117/195/141 109/215/161 171/216/162
f 151/217/163 172/218/164 176/224/170
f 123/220/166 173/219/165 164/204/150
f 150/221/167 174/222/168 166/207/153
f 172/218/164 192/242/188 177/227/173
f 166/207/153 174/222/168 178/228/174
f 162/199/145 176/224/170 177/227/173
f 166/207/153 179/229/175 181/231/177
f 162/199/145 180/230/176 182/232/178
f 171/216/162 167/208/154 181/231/177
f 169/212/158 182/232/178 184/234/180
f 171/216/162 183/233/179 185/235/181
f 164/204/150 173/219/165 184/234/180
f 161/196/142 175/223/169 185/235/181
f 165/205/151 189/239/185 188/238/184
f 165/205/151 164/204/150 186/236/182
f 161/196/142 187/237/183 190/240/186
f 163/202/148 188/238/184 191/241/187
f 172/218/164 168/210/156 190/240/186
f 174/222/168 170/214/160 191/241/187
f 188/238/184 189/239/185 182/232/178
f 189/239/185 186/236/182 182/232/178
f 186/236/182 184/234/180 182/232/178
f 182/232/178 180/230/176 177/227/173
f 177/227/173 192/242/188 182/232/178
f 192/242/188 190/240/186 182/232/178
f 190/240/186 187/237/183 185/235/181
f 185/235/181 183/233/179 190/240/186
f 183/233/179 181/231/177 190/240/186
f 181/231/177 179/229/175 188/238/184
f 179/229/175 178/228/174 188/238/184
f 178/228/174 191/241/187 188/238/184
f 188/238/184 182/232/178 190/240/186
f 96/130/189 152/186/189 158/192/190
f 95/129/191 149/183/191 97/131/192
f 92/125/193 143/177/193 152/186/189
f 91/122/194 140/174/194 149/183/191
f 85/109/195 90/117/196 135/169/196
f 92/125/193 88/113/197 131/165/197
f 91/122/194 86/110/198 128/162/198
f 83/104/199 122/156/199 135/169/196
f 81/99/200 118/152/200 131/165/197
f 85/109/195 126/160/195 128/162/198
f 83/104/199 77/94/201 112/146/201
f 81/99/200 76/92/202 110/144/202
f 77/94/201 73/85/203 100/134/203
f 76/92/202 72/84/204 99/133/204
f 70/77/190 158/192/190 100/134/203
f 72/84/204 69/74/192 97/131/192
f 71/82/205 106/140/205 160/194/206
f 65/68/207 74/88/208 105/139/208
f 67/71/206 160/194/206 155/189/209
f 65/68/207 153/187/207 154/188/210
f 68/72/209 155/189/209 137/171/211
f 93/126/212 66/69/210 154/188/210
f 87/112/213 82/102/214 119/153/214
f 84/107/215 94/128/211 137/171/211
f 89/116/216 93/126/212 144/178/212
f 87/112/213 129/163/213 115/149/217
f 84/107/215 138/172/215 113/147/218
f 89/116/216 133/167/216 119/153/214
f 80/98/217 115/149/217 116/150/219
f 79/96/220 78/95/218 113/147/218
f 71/82/205 75/90/219 116/150/219
f 74/88/208 79/96/220 103/137/220
f 120/248/224 194/249/225 195/250/226
f 104/251/227 196/252/228 197/253/229
f 156/254/230 198/255/231 147/256/232
f 130/243/221 199/257/233 200/258/234
f 134/259/235 201/260/236 194/249/225
f 114/261/237 202/262/238 196/252/228
f 156/254/230 203/263/239 204/264/240
f 141/265/241 205/266/242 199/257/233
f 145/267/243 206/268/244 201/260/236
f 124/269/245 207/270/246 208/271/247
f 124/269/245 202/262/238 125/272/248
f 107/245/223 203/263/239 108/273/249
f 120/248/224 205/266/242 121/274/250
f 147/256/232 207/270/246 148/275/251
f 104/251/227 206/268/244 159/276/252
f 200/258/234 209/277/253 193/244/222
f 206/268/244 210/278/254 211/279/255
f 203/263/239 209/277/253 212/280/256
f 206/268/244 213/281/257 201/260/236
f 203/263/239 214/282/258 204/264/240
f 194/249/225 213/281/257 215/283/259
f 204/264/240 216/284/260 198/255/231
f 194/249/225 217/285/261 195/250/226
f 207/270/246 216/284/260 218/286/262
f 205/266/242 217/285/261 219/287/263
f 208/271/247 220/288/264 202/262/238
f 208/271/247 218/286/262 221/289/265
f 205/266/242 222/290/266 199/257/233
f 202/262/238 223/291/267 196/252/228
f 200/258/234 222/290/266 224/292/268
f 197/253/229 223/291/267 210/278/254
f 222/290/266 213/281/257 220/288/264
f 120/248/224 195/250/226 205/266/242
f 107/245/223 193/244/222 203/263/239
f 124/269/245 208/271/247 202/262/238
f 124/269/245 148/275/251 207/270/246
f 145/267/243 159/276/252 206/268/244
f 141/265/241 121/274/250 205/266/242
f 156/254/230 108/273/249 203/263/239
f 114/261/237 125/272/248 202/262/238
f 134/259/235 145/267/243 201/260/236
f 130/243/221 141/265/241 199/257/233
f 156/254/230 204/264/240 198/255/231
f 104/251/227 114/261/237 196/252/228
f 120/248/224 134/259/235 194/249/225
f 130/243/221 200/258/234 193/244/222
f 147/256/232 198/255/231 207/270/246
f 104/251/227 197/253/229 206/268/244
f 200/258/234 224/292/268 209/277/253
f 206/268/244 197/253/229 210/278/254
f 203/263/239 193/244/222 209/277/253
f 206/268/244 211/279/255 213/281/257
f 203/263/239 212/280/256 214/282/258
f 194/249/225 201/260/236 213/281/257
f 204/264/240 214/282/258 216/284/260
f 194/249/225 215/283/259 217/285/261
f 207/270/246 198/255/231 216/284/260
f 205/266/242 195/250/226 217/285/261
f 208/271/247 221/289/265 220/288/264
f 208/271/247 207/270/246 218/286/262
f 205/266/242 219/287/263 222/290/266
f 202/262/238 220/288/264 223/291/267
f 200/258/234 199/257/233 222/290/266
f 197/253/229 196/252/228 223/291/267
f 220/288/264 221/289/265 214/282/258
f 221/289/265 218/286/262 214/282/258
f 218/286/262 216/284/260 214/282/258
f 214/282/258 212/280/256 209/277/253
f 209/277/253 224/292/268 214/282/258
f 224/292/268 222/290/266 214/282/258
f 222/290/266 219/287/263 217/285/261
f 217/285/261 215/283/259 222/290/266
f 215/283/259 213/281/257 222/290/266
f 213/281/257 211/279/255 220/288/264
f 211/279/255 210/278/254 220/288/264
f 210/278/254 223/291/267 220/288/264
f 220/288/264 214/282/258 222/290/266
