# Blender 4.0.2
# www.blender.org
mtllib mad_wheel.mtl
o DrawCall_7
v 0.269705 -0.445034 -0.912052
v -0.269705 -0.444995 -0.912037
v 0.269705 -0.801935 -0.631158
v -0.269705 -0.999897 -0.225257
v 0.269705 -1.000005 0.225262
v 0.269705 -1.000005 -0.225250
v 0.269705 -0.801935 0.631149
v 0.269705 -0.445034 0.912043
v 0.269705 0.801942 -0.631158
v 0.269705 0.801942 0.631149
v 0.388972 0.259868 -0.532382
v 0.388972 0.468205 0.368415
v 0.388972 0.259868 0.532361
v 0.388972 0.000090 0.590892
v 0.248616 0.000090 -0.000012
v 0.388972 -0.583622 -0.131488
v 0.269705 0.445041 -0.912052
v 0.388972 0.468205 -0.368419
v 0.388972 0.583817 -0.131488
v 0.269705 0.999998 -0.225250
v 0.269705 0.999998 0.225262
v 0.388972 0.583817 0.131484
v 0.269705 0.445041 0.912043
v 0.269705 -0.000004 1.012295
v 0.388972 -0.259688 0.532361
v 0.388972 -0.468012 0.368415
v 0.388972 -0.583622 0.131484
v 0.388972 -0.468012 -0.368419
v 0.388972 0.000090 -0.590894
v 0.269705 -0.000004 -1.012285
v 0.388972 -0.259688 -0.532382
v -0.269705 0.999996 -0.225252
v -0.269705 -0.000005 1.012293
v -0.269705 -0.801935 -0.631160
v -0.269705 0.999999 0.225260
v -0.269705 0.445040 -0.912035
v -0.388806 0.259869 0.532376
v -0.248449 0.000090 -0.000014
v -0.388806 0.583818 -0.131490
v -0.388806 0.259869 -0.532384
v -0.388806 0.000090 -0.590896
v -0.388806 -0.468011 -0.368421
v -0.388806 -0.583622 0.131482
v -0.269705 0.801942 0.631147
v -0.269705 0.445040 0.912041
v -0.388806 0.468207 0.368413
v -0.388806 0.583818 0.131482
v -0.388806 0.468207 -0.368421
v -0.269705 0.801942 -0.631160
v -0.269705 -0.000005 -1.012287
v -0.388806 -0.259686 -0.532384
v -0.388806 -0.583622 -0.131490
v -0.269705 -1.000005 -0.225252
v -0.269705 -0.999991 0.225260
v -0.269705 -0.801935 0.631147
v -0.388806 -0.468011 0.368413
v -0.388806 -0.259686 0.532376
v -0.388806 0.000090 0.590890
v -0.269705 -0.445035 0.912041
vn 0.5659 0.8034 -0.1854
vn -0.5660 0.8033 -0.1854
vn 0.5659 0.8034 0.1854
vn -0.5660 0.8033 0.1854
vn 0.5656 -0.0000 -0.8247
vn -0.5658 -0.3544 -0.7445
vn -0.5657 -0.0000 -0.8246
vn 0.5656 -0.3545 -0.7446
vn -0.5659 -0.6418 -0.5175
vn 0.5658 -0.6418 -0.5176
vn -0.0001 -0.9743 -0.2251
vn 0.5659 -0.8034 -0.1855
vn -0.5661 -0.8032 0.1854
vn 0.5659 -0.8033 0.1854
vn -0.5659 -0.6417 0.5176
vn 0.5658 -0.6418 0.5177
vn -0.5658 -0.3545 0.7445
vn 0.5656 -0.3545 0.7446
vn 0.5656 0.3545 -0.7446
vn -0.5658 0.3545 -0.7445
vn 0.5658 0.6418 -0.5177
vn -0.5659 0.6417 -0.5176
vn -0.5657 -0.0000 0.8246
vn 0.5658 0.6418 0.5177
vn -0.5659 0.6417 0.5176
vn 0.5656 0.3545 0.7446
vn -0.5658 0.3545 0.7445
vn 0.5656 -0.0000 0.8247
vn 0.9984 0.0240 -0.0514
vn 1.0000 -0.0000 -0.0000
vn 0.9984 -0.0000 -0.0567
vn 0.9984 0.0440 -0.0361
vn 0.9984 0.0554 -0.0130
vn 0.9984 0.0554 0.0130
vn 0.9984 0.0440 0.0361
vn 0.9984 0.0241 0.0514
vn 0.9984 -0.0000 0.0567
vn 0.9984 -0.0240 0.0514
vn 0.9984 -0.0439 0.0361
vn 0.9984 -0.0554 0.0130
vn 0.9984 -0.0554 -0.0130
vn 0.9984 -0.0439 -0.0361
vn 0.9984 -0.0240 -0.0514
vn -0.9984 0.0240 0.0512
vn -1.0000 -0.0000 -0.0000
vn -0.9984 -0.0000 0.0565
vn -0.9984 0.0438 0.0360
vn -0.9984 0.0552 0.0130
vn -0.9984 0.0552 -0.0130
vn -0.9984 0.0438 -0.0360
vn -0.9984 0.0240 -0.0512
vn -0.9984 -0.0000 -0.0565
vn -0.9984 -0.0240 -0.0512
vn -0.9984 -0.0438 -0.0359
vn -0.9984 -0.0552 -0.0130
vn -0.9984 -0.0552 0.0130
vn -0.9984 -0.0438 0.0359
vn -0.9984 -0.0239 0.0512
vn -0.9632 -0.2619 -0.0603
vt 0.890158 0.372411
vt 0.890158 0.492062
vt 0.807805 0.372411
vt 0.807805 0.492062
vt 0.880232 0.372411
vt 0.958825 0.492062
vt 0.880232 0.492062
vt 0.958825 0.372411
vt 0.833825 0.372411
vt 0.913724 0.492062
vt 0.833825 0.492062
vt 0.913724 0.372411
vt 0.788724 0.372411
vt 0.870305 0.492062
vt 0.788724 0.492062
vt 0.870305 0.372411
vt 0.952658 0.492062
vt 0.952658 0.372411
vt 0.827658 0.372411
vt 0.909239 0.492062
vt 0.827658 0.492062
vt 0.909239 0.372411
vt 0.989138 0.492062
vt 0.989138 0.372411
vt 0.801638 0.372411
vt 0.801638 0.492062
vt 0.926638 0.372411
vt 0.926638 0.492062
vt 0.846739 0.372411
vt 0.846739 0.492062
vt 0.971739 0.372411
vt 0.971739 0.492062
vt 0.864138 0.372411
vt 0.942732 0.492062
vt 0.864138 0.492062
vt 0.932805 0.372411
vt 0.932805 0.492062
vt 0.851224 0.372411
vt 0.851224 0.492062
vt 0.976224 0.372411
vt 0.976224 0.492062
vt 0.896325 0.372411
vt 0.896325 0.492062
vt 0.817732 0.372411
vt 0.817732 0.492062
vt 0.942732 0.372411
vt 0.691261 0.407363
vt 0.625977 0.375590
vt 0.698481 0.375589
vt 0.671036 0.432845
vt 0.641809 0.446986
vt 0.609369 0.446986
vt 0.580141 0.432845
vt 0.559916 0.407363
vt 0.552696 0.375589
vt 0.559916 0.343814
vt 0.580141 0.318332
vt 0.609369 0.304191
vt 0.641809 0.304191
vt 0.671036 0.318332
vt 0.691264 0.343814
vt 0.749875 0.375000
vt 0.737508 0.430575
vt 0.702857 0.475142
vt 0.652788 0.499875
vt 0.597212 0.499875
vt 0.547143 0.475142
vt 0.512493 0.430575
vt 0.500125 0.375000
vt 0.512493 0.319425
vt 0.547143 0.274857
vt 0.597212 0.250125
vt 0.652788 0.250125
vt 0.702857 0.274857
vt 0.737508 0.319425
s 1
usemtl material_8.002
f 20/1/1 32/2/2 21/3/3
f 21/3/3 32/2/2 35/4/4
f 30/5/5 2/6/6 50/7/7
f 1/8/8 2/6/6 30/5/5
f 1/9/8 34/10/9 2/11/6
f 3/12/10 34/10/9 1/9/8
f 3/13/10 4/14/11 34/15/9
f 6/16/12 4/14/11 3/13/10
f 6/16/12 54/17/13 4/14/11
f 5/18/14 54/17/13 6/16/12
f 5/19/14 55/20/15 54/21/13
f 7/22/16 55/20/15 5/19/14
f 7/22/16 59/23/17 55/20/15
f 8/24/18 59/23/17 7/22/16
f 30/5/5 50/7/7 17/25/19
f 17/25/19 50/7/7 36/26/20
f 17/27/19 36/28/20 9/29/21
f 9/29/21 36/28/20 49/30/22
f 9/31/21 49/32/22 20/1/1
f 20/1/1 49/32/22 32/2/2
f 8/33/18 33/34/23 59/35/17
f 21/36/3 35/37/4 10/38/24
f 10/38/24 35/37/4 44/39/25
f 10/40/24 44/41/25 23/42/26
f 23/42/26 44/41/25 45/43/27
f 23/42/26 45/43/27 24/44/28
f 24/44/28 45/43/27 33/45/23
f 24/46/28 33/34/23 8/33/18
usemtl material_13.002
f 11/47/29 15/48/30 29/49/31
f 18/50/32 15/48/30 11/47/29
f 19/51/33 15/48/30 18/50/32
f 22/52/34 15/48/30 19/51/33
f 12/53/35 15/48/30 22/52/34
f 13/54/36 15/48/30 12/53/35
f 14/55/37 15/48/30 13/54/36
f 25/56/38 15/48/30 14/55/37
f 26/57/39 15/48/30 25/56/38
f 27/58/40 15/48/30 26/57/39
f 16/59/41 15/48/30 27/58/40
f 28/60/42 15/48/30 16/59/41
f 31/61/43 15/48/30 28/60/42
f 29/49/31 15/48/30 31/61/43
f 11/47/29 30/62/5 17/63/19
f 30/62/5 11/47/29 29/49/31
f 18/50/32 17/63/19 9/64/21
f 17/63/19 18/50/32 11/47/29
f 19/51/33 9/64/21 20/65/1
f 9/64/21 19/51/33 18/50/32
f 22/52/34 20/65/1 21/66/3
f 20/65/1 22/52/34 19/51/33
f 12/53/35 21/66/3 10/67/24
f 21/66/3 12/53/35 22/52/34
f 13/54/36 10/67/24 23/68/26
f 10/67/24 13/54/36 12/53/35
f 14/55/37 23/68/26 24/69/28
f 23/68/26 14/55/37 13/54/36
f 25/56/38 24/69/28 8/70/18
f 24/69/28 25/56/38 14/55/37
f 26/57/39 8/70/18 7/71/16
f 8/70/18 26/57/39 25/56/38
f 27/58/40 7/71/16 5/72/14
f 7/71/16 27/58/40 26/57/39
f 16/59/41 5/72/14 6/73/12
f 5/72/14 16/59/41 27/58/40
f 28/60/42 6/73/12 3/74/10
f 6/73/12 28/60/42 16/59/41
f 31/61/43 3/74/10 1/75/8
f 3/74/10 31/61/43 28/60/42
f 29/49/31 1/75/8 30/62/5
f 1/75/8 29/49/31 31/61/43
f 37/47/44 38/48/45 58/49/46
f 46/50/47 38/48/45 37/47/44
f 47/51/48 38/48/45 46/50/47
f 39/52/49 38/48/45 47/51/48
f 48/53/50 38/48/45 39/52/49
f 40/54/51 38/48/45 48/53/50
f 41/55/52 38/48/45 40/54/51
f 51/56/53 38/48/45 41/55/52
f 42/57/54 38/48/45 51/56/53
f 52/58/55 38/48/45 42/57/54
f 43/59/56 38/48/45 52/58/55
f 56/60/57 38/48/45 43/59/56
f 57/61/58 38/48/45 56/60/57
f 58/49/46 38/48/45 57/61/58
f 37/47/44 33/62/23 45/63/27
f 33/62/23 37/47/44 58/49/46
f 46/50/47 45/63/27 44/64/25
f 45/63/27 46/50/47 37/47/44
f 47/51/48 44/64/25 35/65/4
f 44/64/25 47/51/48 46/50/47
f 39/52/49 35/65/4 32/66/2
f 35/65/4 39/52/49 47/51/48
f 48/53/50 32/66/2 49/67/22
f 32/66/2 48/53/50 39/52/49
f 40/54/51 49/67/22 36/68/20
f 49/67/22 40/54/51 48/53/50
f 41/55/52 36/68/20 50/69/7
f 36/68/20 41/55/52 40/54/51
f 51/56/53 50/69/7 2/70/6
f 50/69/7 51/56/53 41/55/52
f 42/57/54 2/70/6 34/71/9
f 2/70/6 42/57/54 51/56/53
f 52/58/55 34/71/9 53/72/59
f 34/71/9 52/58/55 42/57/54
f 43/59/56 53/72/59 54/73/13
f 53/72/59 43/59/56 52/58/55
f 56/60/57 54/73/13 55/74/15
f 54/73/13 56/60/57 43/59/56
f 57/61/58 55/74/15 59/75/17
f 55/74/15 57/61/58 56/60/57
f 58/49/46 59/75/17 33/62/23
f 59/75/17 58/49/46 57/61/58
