# Blender v3.0.1 OBJ File: ''
# www.blender.org
mtllib cordo_super500.mtl
o seat_seat.001
v -0.754603 0.581317 0.505184
v -0.754603 -1.826362 0.651398
v -0.262733 -1.872738 0.651398
v 0.267242 -1.872738 0.651398
v 0.267242 0.696433 0.505184
v 0.759112 -1.826362 0.651398
v 0.759112 0.581317 0.505184
v -0.262733 0.696433 0.505184
v -0.645059 0.186339 0.524526
v -0.401857 0.509139 0.495631
v -0.401848 0.509134 0.366931
v -0.173848 0.099933 0.366963
v -0.173867 0.099943 0.625863
v 0.184433 0.099943 0.625889
v 0.655541 0.186339 0.524620
v 0.184452 0.099933 0.366989
v 0.412452 0.509134 0.366990
v 0.412443 0.509139 0.495690
v 0.140941 0.566539 0.524368
v -0.130459 0.566539 0.524348
v -0.645043 0.186330 0.302826
v 0.655557 0.186330 0.302920
v -0.522163 -1.231124 0.736285
v -0.555645 -1.168534 0.482980
v -0.551744 -1.212035 0.474082
v -0.544364 -1.275325 0.737485
v -0.003966 -1.282324 0.766924
v -0.003764 -1.231824 0.746522
v -0.002245 -1.163635 0.484020
v -0.519231 -1.109142 0.280280
v -0.000730 -1.105143 0.270918
v -0.000527 -1.141643 0.232719
v -0.524129 -1.148743 0.261981
v 0.569537 -1.231124 0.736664
v 0.591636 -1.275325 0.737867
v 0.594555 -1.212035 0.474365
v 0.605955 -1.168534 0.483164
v 0.555670 -1.109142 0.280358
v 0.560671 -1.148743 0.262060
v -0.522162 -1.314926 0.719188
v -0.530044 -1.255535 0.465286
v -0.002244 -1.260334 0.464424
v -0.003763 -1.318825 0.728825
v -0.502029 -1.192942 0.263185
v -0.000729 -1.192242 0.253221
v 0.569538 -1.314926 0.719567
v 0.563656 -1.255535 0.465464
v 0.538471 -1.192942 0.263360
v -0.597662 -0.590594 0.621836
v -0.622945 -0.541702 0.389532
v -0.647944 -0.585202 0.380732
v -0.606162 -0.634394 0.622337
v -0.400764 -0.639793 0.649252
v -0.400462 -0.590893 0.631250
v -0.398045 -0.536803 0.390649
v -0.631528 -0.495912 0.156630
v -0.395527 -0.492511 0.148047
v -0.395225 -0.530613 0.112349
v -0.639827 -0.536011 0.139131
v -0.203062 -0.590594 0.622165
v -0.194862 -0.634394 0.622567
v -0.148044 -0.585202 0.380868
v -0.173045 -0.541702 0.389765
v -0.159728 -0.495912 0.156664
v -0.151327 -0.536011 0.139166
v -0.597660 -0.674395 0.604839
v -0.622944 -0.628704 0.371836
v -0.398044 -0.633504 0.370952
v -0.400461 -0.677894 0.613554
v -0.631527 -0.579712 0.139633
v -0.395526 -0.579513 0.130350
v -0.203060 -0.674395 0.605168
v -0.173044 -0.628704 0.372068
v -0.159727 -0.579712 0.139667
v -0.492179 -0.631245 0.827611
v -0.503174 -0.613648 0.748710
v -0.515473 -0.652348 0.740810
v -0.496179 -0.669045 0.823012
v -0.391880 -0.670944 0.832220
v -0.391980 -0.630344 0.830919
v -0.392474 -0.609348 0.749618
v -0.506068 -0.599051 0.669309
v -0.393068 -0.596951 0.666517
v -0.393166 -0.633751 0.649519
v -0.510167 -0.635651 0.658710
v -0.291779 -0.631245 0.827626
v -0.287679 -0.669045 0.823027
v -0.269573 -0.652348 0.740828
v -0.281874 -0.613648 0.748726
v -0.280068 -0.599051 0.669325
v -0.275967 -0.635651 0.658727
v -0.492178 -0.705645 0.812414
v -0.503172 -0.691048 0.733013
v -0.392472 -0.695348 0.732121
v -0.391978 -0.707745 0.815221
v -0.506067 -0.673451 0.654112
v -0.393067 -0.674251 0.650820
v -0.291778 -0.705645 0.812429
v -0.281872 -0.691048 0.733029
v -0.280067 -0.673451 0.654128
v 0.285921 -0.630445 0.822367
v 0.273527 -0.613148 0.743566
v 0.261127 -0.652348 0.735666
v 0.281821 -0.668545 0.817869
v 0.386021 -0.665445 0.826976
v 0.386021 -0.624845 0.825775
v 0.385327 -0.603848 0.744474
v 0.269433 -0.598251 0.664165
v 0.384733 -0.591451 0.661373
v 0.384634 -0.628252 0.644375
v 0.265333 -0.635051 0.653466
v 0.486021 -0.620945 0.822381
v 0.490121 -0.658645 0.817883
v 0.509527 -0.641348 0.735684
v 0.497127 -0.603248 0.743582
v 0.500033 -0.588751 0.664181
v 0.504133 -0.625151 0.653483
v 0.285922 -0.704945 0.807270
v 0.273528 -0.690448 0.727869
v 0.385328 -0.689848 0.726977
v 0.386022 -0.702245 0.809978
v 0.269434 -0.672751 0.648968
v 0.384734 -0.668852 0.645676
v 0.486022 -0.695445 0.807284
v 0.497128 -0.680548 0.727885
v 0.500034 -0.663251 0.648984
v 0.195939 -0.590594 0.616994
v 0.163356 -0.541702 0.384589
v 0.138856 -0.585202 0.375689
v 0.187839 -0.634394 0.617395
v 0.384537 -0.639793 0.644309
v 0.384438 -0.590893 0.626307
v 0.383455 -0.536803 0.385605
v 0.146972 -0.495912 0.151486
v 0.382473 -0.492511 0.142903
v 0.382376 -0.530614 0.107205
v 0.138774 -0.536013 0.133987
v 0.572839 -0.590594 0.617021
v 0.581039 -0.634394 0.617423
v 0.628056 -0.585202 0.375725
v 0.603655 -0.541702 0.384621
v 0.618072 -0.495912 0.151520
v 0.626274 -0.536013 0.134022
v 0.195940 -0.674395 0.599897
v 0.163357 -0.628704 0.366893
v 0.383457 -0.633504 0.365909
v 0.384439 -0.677894 0.608610
v 0.146974 -0.579712 0.134390
v 0.382474 -0.579513 0.125207
v 0.572840 -0.674395 0.599924
v 0.603657 -0.628704 0.366924
v 0.618074 -0.579712 0.134424
v 0.759112 -1.826362 0.651398
v 0.739732 -1.758128 0.700137
v 0.759112 0.581317 0.505184
v 0.640910 -1.387715 0.904839
v 0.600285 -1.212258 0.953577
v 0.577421 -0.510424 0.953578
v 0.600285 -0.159508 0.934082
v 0.535271 0.171022 0.776077
v 0.267242 -1.872738 0.651398
v 0.260457 -1.802577 0.700137
v 0.225858 -1.421703 0.904839
v 0.211634 -1.241289 0.979656
v 0.203629 -0.519633 0.979656
v 0.211634 -0.065315 0.960161
v 0.188872 0.274551 0.776077
v 0.267242 0.696433 0.505184
v -0.735221 -1.758128 0.700137
v -0.754603 -1.826362 0.651398
v -0.754603 0.581317 0.505184
v -0.636399 -1.387717 0.904839
v -0.595775 -1.212258 0.953577
v -0.572912 -0.510424 0.953578
v -0.595775 -0.159508 0.934082
v -0.530761 0.171022 0.776077
v -0.255946 -1.802577 0.700137
v -0.262733 -1.872738 0.651398
v -0.221347 -1.421703 0.904839
v -0.207124 -1.241289 0.979656
v -0.199119 -0.519633 0.979656
v -0.207124 -0.065315 0.960161
v -0.184362 0.274551 0.776077
v -0.262733 0.696433 0.505184
v -0.851768 0.423797 0.509458
v -0.889943 0.390981 0.559361
v -0.800640 0.412555 0.561008
v -0.901306 0.297075 0.591449
v -0.825860 0.317062 0.606981
v -0.749728 0.333283 0.590945
v -0.806038 0.398866 0.461384
v -0.732365 0.328513 0.519218
v -0.761814 0.311803 0.441556
v -0.887711 0.380122 0.467809
v -0.832946 0.291833 0.417867
v -0.897417 0.278651 0.435916
v -0.930755 0.280365 0.513786
v -0.833817 0.348778 0.511987
v 0.852656 1.380627 -0.011443
v 0.852656 1.409871 -0.284378
v 0.759112 1.692553 -0.245388
v 0.759112 1.692553 -0.167406
v 0.759112 1.624319 -0.069929
v 0.702751 -2.245512 -0.099174
v 0.852656 -1.875100 -0.196650
v 0.759112 -2.265007 0.154267
v 0.852656 -1.816613 0.027547
v 0.759112 -2.216269 0.212753
v 0.852656 -1.046547 -0.079678
v 0.852656 -1.046547 -0.235641
v 0.759112 -0.744368 -0.235641
v 0.759112 0.191409 -0.245388
v 0.852656 0.581317 -0.235641
v 0.852656 0.591064 -0.050434
v 0.852656 -1.728884 0.183510
v 0.653746 -2.148036 0.573606
v 0.739732 -1.758128 0.700137
v 0.852656 -1.602165 0.261491
v 0.852656 -1.465697 0.300482
v 0.640910 -1.387715 0.904839
v 0.852656 -1.338978 0.290734
v 0.600285 -1.212258 0.953577
v 0.577421 -0.510424 0.953578
v 0.852656 -1.192762 0.222501
v 0.759112 1.682805 0.008053
v 0.759112 1.651522 0.100114
v 0.778693 1.501897 0.099537
v 0.746253 1.629235 0.084177
v 0.707353 1.534241 0.239977
v 0.775877 1.451303 0.194730
v 0.788736 1.473590 0.210668
v 0.720212 1.556527 0.255914
v 0.759112 1.400122 0.358969
v 0.852656 1.185673 0.271239
v 0.852656 1.302646 0.164015
v 0.759112 0.912738 0.436951
v 0.852656 1.019962 0.290735
v 0.852656 0.893242 0.280988
v 0.852656 0.766523 0.232249
v 0.852656 0.639803 0.095781
v 0.600285 -0.159508 0.934082
v 0.535271 0.171022 0.776077
v 0.852656 -1.075790 0.076285
v 0.299993 1.454897 -0.284378
v 0.267242 1.839054 -0.245388
v 0.299993 1.424828 -0.011443
v 0.267242 1.839054 -0.167406
v 0.267242 1.768893 -0.069929
v 0.299993 -1.922852 -0.196650
v 0.299993 -1.862714 0.027547
v 0.247508 -2.303726 -0.099174
v 0.267242 -2.323773 0.154267
v 0.267242 -2.273657 0.212753
v 0.299993 -1.070897 -0.235641
v 0.267242 -0.760185 -0.235641
v 0.299993 -1.070897 -0.079678
v 0.299993 0.602942 -0.235639
v 0.299993 0.612965 -0.050434
v 0.267242 0.202023 -0.245388
v 0.299993 -1.772507 0.183510
v 0.230352 -2.203497 0.622155
v 0.299993 -1.642208 0.261491
v 0.260457 -1.802577 0.700137
v 0.299993 -1.501886 0.300482
v 0.225858 -1.421703 0.904839
v 0.299993 -1.371587 0.290734
v 0.211634 -1.241289 0.979656
v 0.203629 -0.519633 0.979656
v 0.299993 -1.221242 0.222501
v 0.299993 -1.100966 0.076285
v 0.267242 1.829031 0.008053
v 0.267242 1.819008 0.076286
v 0.417022 1.755389 0.103637
v 0.267242 1.668663 0.290735
v 0.653240 1.559247 0.233917
v 0.299993 1.344643 0.164015
v 0.523711 1.637383 0.228155
v 0.267242 1.538364 0.358969
v 0.299993 1.224367 0.271239
v 0.343403 1.425254 0.374731
v 0.267242 1.519058 0.399929
v 0.149603 1.093652 0.434350
v 0.267242 1.037214 0.436951
v 0.299993 1.053977 0.290735
v 0.299993 0.923678 0.280988
v 0.299993 0.793379 0.232249
v 0.299993 0.663080 0.095781
v 0.211634 -0.065315 0.960161
v 0.188872 0.274551 0.776077
v -0.848147 -1.875100 -0.196650
v -0.754603 -2.265007 0.154267
v -0.848147 -1.816613 0.027547
v -0.698240 -2.245512 -0.099174
v -0.754603 -2.216269 0.212753
v -0.848147 -1.046547 -0.235641
v -0.848147 -1.046547 -0.079678
v -0.754603 -0.744368 -0.235641
v -0.848147 0.581317 -0.235641
v -0.754603 0.191409 -0.245388
v -0.848147 0.591064 -0.050434
v -0.848147 -1.728884 0.183510
v -0.848147 -1.602164 0.261491
v -0.649237 -2.148036 0.573605
v -0.848147 -1.465697 0.300482
v -0.848147 -1.338978 0.290734
v -0.735221 -1.758128 0.700137
v -0.636399 -1.387717 0.904839
v -0.595775 -1.212258 0.953577
v -0.848147 -1.192762 0.222501
v -0.848147 -1.075790 0.076285
v -0.754770 1.400122 0.358969
v -0.848316 1.185673 0.271239
v -0.754603 0.912738 0.436951
v -0.848147 1.019962 0.290735
v -0.848147 0.893243 0.280988
v -0.848147 0.766523 0.232249
v -0.848147 0.639803 0.095781
v -0.572912 -0.510424 0.953578
v -0.595775 -0.159508 0.934082
v -0.530761 0.171022 0.776077
v -0.295483 1.454897 -0.284378
v -0.848315 1.409871 -0.284378
v -0.262900 1.839054 -0.245388
v -0.754770 1.692553 -0.245388
v -0.295483 1.424828 -0.011443
v -0.848316 1.380627 -0.011443
v -0.295484 -1.922852 -0.196650
v -0.295484 -1.862714 0.027547
v -0.242999 -2.303726 -0.099174
v -0.262733 -2.323771 0.154267
v -0.262733 -2.273657 0.212753
v -0.295484 -1.070897 -0.235641
v -0.262733 -0.760185 -0.235641
v -0.295484 -1.070897 -0.079678
v -0.295483 0.602942 -0.235639
v -0.295483 0.612965 -0.050434
v -0.262733 0.202023 -0.245388
v -0.295484 -1.772507 0.183510
v -0.225843 -2.203497 0.622155
v -0.295484 -1.642208 0.261491
v -0.255946 -1.802577 0.700137
v -0.295484 -1.501886 0.300482
v -0.221347 -1.421703 0.904839
v -0.295484 -1.371587 0.290734
v -0.207124 -1.241289 0.979656
v -0.199119 -0.519633 0.979656
v -0.295484 -1.221242 0.222501
v -0.295484 -1.100966 0.076285
v -0.295483 1.344643 0.164015
v -0.848316 1.302646 0.164015
v -0.295483 1.224368 0.271239
v -0.262900 1.519058 0.399929
v -0.339061 1.425254 0.374731
v -0.145094 1.093652 0.434350
v -0.262733 1.037214 0.436951
v -0.295483 1.053977 0.290735
v -0.295483 0.923677 0.280988
v -0.295483 0.793379 0.232249
v -0.295483 0.663080 0.095781
v -0.207124 -0.065315 0.960161
v -0.184362 0.274551 0.776077
v -0.262900 1.538364 0.358969
v -0.262900 1.668663 0.290735
v -0.262900 1.819008 0.076286
v -0.262900 1.829031 0.008053
v -0.262900 1.768893 -0.069929
v -0.262900 1.839054 -0.167406
v 0.791551 1.524185 0.115476
v 0.445456 1.681902 0.196423
v 0.404163 1.733102 0.087699
v 0.432597 1.659615 0.180486
v 0.510853 1.615097 0.212216
v 0.666097 1.581534 0.249855
v -0.754939 1.692553 -0.167406
v -0.754939 1.624318 -0.069929
v -0.754939 1.682804 0.008053
v -0.754939 1.651522 0.100114
v -0.742080 1.629235 0.084177
v -0.774520 1.501897 0.099537
v -0.703181 1.534239 0.239977
v -0.771706 1.451303 0.194730
v -0.716040 1.556526 0.255914
v -0.784564 1.473590 0.210668
v -0.412849 1.755389 0.103637
v -0.649067 1.559246 0.233917
v -0.519540 1.637383 0.228155
v -0.787379 1.524184 0.115476
v -0.441283 1.681901 0.196423
v -0.399991 1.733102 0.087699
v -0.428425 1.659614 0.180486
v -0.506681 1.615095 0.212216
v -0.661926 1.581533 0.249855
v 0.799325 0.412555 0.561008
v 0.888628 0.390981 0.559361
v 0.850453 0.423797 0.509458
v 0.824546 0.317062 0.606981
v 0.899991 0.297075 0.591449
v 0.748414 0.333283 0.590945
v 0.804723 0.398866 0.461384
v 0.731051 0.328513 0.519218
v 0.760499 0.311803 0.441556
v 0.886396 0.380122 0.467809
v 0.831631 0.291833 0.417867
v 0.896103 0.278651 0.435916
v 0.929440 0.280365 0.513786
v 0.832502 0.348778 0.511987
v 0.488552 -1.815882 0.848167
v 0.613469 -2.105678 0.837964
v 0.591914 -1.816065 0.813374
v 0.487765 -2.105377 0.865825
v 0.559784 -2.105437 0.794734
v 0.486720 -2.105374 0.827011
v 0.668699 -2.105753 0.667219
v 0.640283 -1.816115 0.682126
v 0.608700 -2.105465 0.698636
v 0.612773 -2.105687 0.571383
v 0.583507 -1.816047 0.569832
v 0.551072 -2.105396 0.569884
v -0.488497 -1.815882 0.848167
v -0.591859 -1.816065 0.813374
v -0.613413 -2.105678 0.837964
v -0.487710 -2.105377 0.865825
v -0.559729 -2.105437 0.794734
v -0.486664 -2.105374 0.827011
v -0.640228 -1.816115 0.682126
v -0.668644 -2.105753 0.667219
v -0.608643 -2.105465 0.698636
v -0.583451 -1.816047 0.569832
v -0.612718 -2.105687 0.571383
v -0.551016 -2.105396 0.569884
v -0.476754 -1.913828 -0.023188
v -0.476755 -0.994193 -0.134098
v -0.338628 -0.994193 -0.134098
v -0.338628 -1.913828 -0.023188
v -0.338628 -1.099277 0.312187
v -0.338628 -1.734364 0.312187
v -0.476754 -1.734364 0.312187
v -0.476755 -1.099277 0.312187
v 0.338531 0.534469 -0.107047
v 0.338531 1.554677 -0.213857
v 0.476657 1.554677 -0.213857
v 0.476657 0.534469 -0.107047
v 0.476657 1.346420 0.308655
v 0.476657 0.740395 0.350514
v 0.338531 0.740395 0.350514
v 0.338531 1.346420 0.308655
v -0.476754 0.534469 -0.107047
v -0.476755 1.554677 -0.213857
v -0.338628 1.554677 -0.213857
v -0.338628 0.534469 -0.107047
v -0.338628 1.346420 0.308655
v -0.338628 0.740395 0.350514
v -0.476754 0.740395 0.350514
v -0.476755 1.346420 0.308655
v 0.338531 -1.913828 -0.023188
v 0.338531 -0.994193 -0.134098
v 0.476657 -0.994193 -0.134098
v 0.476657 -1.913828 -0.023188
v 0.476657 -1.099277 0.312187
v 0.476657 -1.734364 0.312187
v 0.338531 -1.734364 0.312187
v 0.338531 -1.099277 0.312187
v -0.421718 -2.196729 -0.155286
v -0.465128 -2.286729 -0.111875
v -0.483111 -2.286729 -0.155286
v -0.421718 -2.286729 -0.093893
v -0.378306 -2.286728 -0.111875
v -0.360325 -2.286728 -0.155286
v -0.378306 -2.286728 -0.198697
v -0.421718 -2.286729 -0.216678
v -0.465128 -2.286729 -0.198697
v -0.465128 -1.921472 -0.074701
v -0.483111 -1.921472 -0.118112
v -0.421718 -1.921472 -0.056720
v -0.378306 -1.921472 -0.074701
v -0.360324 -1.921472 -0.118112
v -0.378306 -1.921472 -0.161523
v -0.421718 -1.921472 -0.179505
v -0.465128 -1.921472 -0.161523
v 0.757899 0.951611 -0.163715
v 0.168163 0.982811 -0.109676
v 0.168163 0.951611 -0.163715
v 0.757899 0.982811 -0.109676
v 0.168163 1.045210 -0.109676
v 0.757899 1.045210 -0.109676
v 0.168163 1.076410 -0.163715
v 0.757899 1.076410 -0.163715
v 0.168163 1.045210 -0.217754
v 0.757899 1.045210 -0.217754
v 0.168163 0.982811 -0.217754
v 0.757899 0.982811 -0.217754
v 0.149540 0.935699 -0.028076
v 0.149540 0.857389 -0.163715
v 0.149540 1.092322 -0.028076
v 0.149540 1.170633 -0.163715
v 0.149540 1.092322 -0.299353
v 0.149540 0.935699 -0.299353
v -0.151818 0.935699 -0.028076
v -0.151818 0.857389 -0.163715
v -0.151818 1.092322 -0.028076
v -0.151818 1.170633 -0.163715
v -0.151818 1.092322 -0.299353
v -0.151818 0.935699 -0.299353
v -0.170441 0.982811 -0.109676
v -0.170441 0.951611 -0.163715
v -0.170441 1.045210 -0.109676
v -0.170441 1.076410 -0.163715
v -0.170441 1.045210 -0.217754
v -0.170441 0.982811 -0.217754
v -0.760177 0.982811 -0.109676
v -0.760177 0.951611 -0.163715
v -0.760177 1.045210 -0.109676
v -0.760177 1.076410 -0.163715
v -0.760177 1.045210 -0.217754
v -0.760177 0.982811 -0.217754
v -0.073688 -1.471660 -0.133406
v -0.037196 -1.175876 -0.205416
v -0.073688 -1.188477 -0.267354
v -0.037196 -1.445951 -0.075663
v 0.035789 -1.175876 -0.205416
v 0.035789 -1.445951 -0.075663
v 0.072283 -1.188477 -0.267354
v 0.072283 -1.471660 -0.133406
v 0.035789 -1.201079 -0.329292
v 0.035789 -1.497369 -0.191149
v -0.037196 -1.201079 -0.329292
v -0.037196 -1.497369 -0.191149
v -0.037196 0.686058 -0.205528
v -0.073688 0.699199 -0.267354
v 0.035790 0.686058 -0.205528
v 0.072283 0.699199 -0.267354
v 0.035790 0.712341 -0.329179
v -0.037196 0.712341 -0.329179
v -0.037196 0.966100 -0.079513
v -0.073688 0.999125 -0.133406
v 0.035790 0.966100 -0.079513
v 0.072283 0.999125 -0.133406
v 0.035789 1.032152 -0.187298
v -0.037196 1.032152 -0.187298
v 0.757899 -1.532060 -0.163716
v 0.168163 -1.500859 -0.109676
v 0.168163 -1.532060 -0.163716
v 0.757899 -1.500859 -0.109676
v 0.168163 -1.438460 -0.109676
v 0.757899 -1.438460 -0.109676
v 0.168163 -1.407260 -0.163716
v 0.757899 -1.407260 -0.163716
v 0.168163 -1.438460 -0.217755
v 0.757899 -1.438460 -0.217755
v 0.168163 -1.500859 -0.217755
v 0.757899 -1.500859 -0.217755
v 0.149540 -1.547970 -0.028076
v 0.149540 -1.626282 -0.163716
v 0.149540 -1.391349 -0.028076
v 0.149540 -1.313038 -0.163716
v 0.149540 -1.391348 -0.299355
v 0.149540 -1.547970 -0.299355
v -0.151818 -1.547970 -0.028076
v -0.151818 -1.626282 -0.163716
v -0.151818 -1.391349 -0.028076
v -0.151818 -1.313038 -0.163716
v -0.151818 -1.391348 -0.299355
v -0.151818 -1.547970 -0.299355
v -0.170441 -1.500859 -0.109676
v -0.170441 -1.532060 -0.163716
v -0.170441 -1.438460 -0.109676
v -0.170441 -1.407260 -0.163716
v -0.170441 -1.438460 -0.217755
v -0.170441 -1.500859 -0.217755
v -0.760177 -1.500859 -0.109676
v -0.760177 -1.532060 -0.163716
v -0.760177 -1.438460 -0.109676
v -0.760177 -1.407260 -0.163716
v -0.760177 -1.438460 -0.217755
v -0.760177 -1.500859 -0.217755
v -0.754603 0.581317 0.505184
v -0.754603 -1.826362 0.651398
v 0.759112 -1.826362 0.651398
v 0.759112 0.581317 0.505184
v 0.852656 -1.338978 0.290734
v -0.848147 -1.338978 0.290734
vt 0.014648 0.021484
vt 0.014648 0.021484
vt 0.031150 0.023688
vt 0.014648 0.021484
vt 0.004640 0.003500
vt 0.004147 0.015876
vt 0.031916 0.016513
vt 0.024074 0.025002
vt 0.707010 0.275224
vt 0.753837 0.262175
vt 0.754009 0.243563
vt 0.798470 0.232818
vt 0.798470 0.239866
vt 0.780422 0.238874
vt 0.812193 0.239866
vt 0.830241 0.238874
vt 0.812193 0.232818
vt 0.755377 0.243563
vt 0.755206 0.262175
vt 0.708379 0.275224
vt 0.731125 0.225540
vt 0.738620 0.230617
vt 0.740628 0.220780
vt 0.729802 0.214208
vt 0.729802 0.219875
vt 0.731125 0.208541
vt 0.740628 0.213301
vt 0.707287 0.243155
vt 0.780422 0.232840
vt 0.830241 0.232840
vt 0.708656 0.243155
vt 0.738620 0.203465
vt 0.407715 0.800369
vt 0.407715 0.818186
vt 0.441894 0.818186
vt 0.407715 0.836004
vt 0.441894 0.836004
vt 0.441894 0.818186
vt 0.441894 0.836004
vt 0.441005 0.818190
vt 0.407715 0.800369
vt 0.407715 0.818186
vt 0.441894 0.818186
vt 0.407715 0.836004
vt 0.441894 0.836004
vt 0.407715 0.800369
vt 0.407715 0.818186
vt 0.407715 0.836004
vt 0.441894 0.836004
vt 0.441894 0.818186
vt 0.476072 0.836004
vt 0.476072 0.818186
vt 0.407715 0.800369
vt 0.407715 0.818186
vt 0.407715 0.836004
vt 0.441894 0.836004
vt 0.476072 0.800369
vt 0.441894 0.800369
vt 0.476072 0.800369
vt 0.441894 0.800369
vt 0.407715 0.800369
vt 0.407715 0.818186
vt 0.441094 0.818225
vt 0.476072 0.836004
vt 0.476072 0.818186
vt 0.476072 0.800369
vt 0.441894 0.800369
vt 0.407715 0.836004
vt 0.441894 0.836004
vt 0.476072 0.836004
vt 0.476072 0.818186
vt 0.476072 0.800369
vt 0.441894 0.800369
vt 0.441894 0.800369
vt 0.476072 0.836004
vt 0.476072 0.818186
vt 0.476072 0.836004
vt 0.476072 0.818186
vt 0.476072 0.800369
vt 0.441894 0.800369
vt 0.407810 0.799340
vt 0.407810 0.817623
vt 0.440394 0.817623
vt 0.407810 0.835907
vt 0.440394 0.835907
vt 0.440394 0.817623
vt 0.440394 0.835907
vt 0.437240 0.817627
vt 0.407810 0.799340
vt 0.407810 0.817623
vt 0.440394 0.817623
vt 0.407810 0.835907
vt 0.440394 0.835907
vt 0.407810 0.799340
vt 0.407810 0.817623
vt 0.407810 0.835907
vt 0.440394 0.835907
vt 0.440394 0.817623
vt 0.472978 0.835907
vt 0.472978 0.817624
vt 0.407810 0.799340
vt 0.407810 0.817623
vt 0.407810 0.835907
vt 0.440394 0.835907
vt 0.472978 0.799340
vt 0.440394 0.799340
vt 0.472978 0.799340
vt 0.440394 0.799340
vt 0.407810 0.799340
vt 0.407810 0.817623
vt 0.437552 0.817795
vt 0.472978 0.835907
vt 0.472978 0.817624
vt 0.472978 0.799340
vt 0.440394 0.799340
vt 0.407810 0.835907
vt 0.440394 0.835907
vt 0.472978 0.835907
vt 0.472978 0.817624
vt 0.472978 0.799340
vt 0.440394 0.799340
vt 0.440394 0.799340
vt 0.472978 0.835907
vt 0.472978 0.817624
vt 0.472978 0.835907
vt 0.472978 0.817624
vt 0.472978 0.799340
vt 0.440394 0.799340
vt 0.407810 0.799340
vt 0.407810 0.817623
vt 0.440394 0.817623
vt 0.407810 0.835907
vt 0.440394 0.835907
vt 0.440394 0.817623
vt 0.440394 0.835907
vt 0.438191 0.817623
vt 0.407810 0.799340
vt 0.407810 0.817623
vt 0.440394 0.817623
vt 0.407810 0.835907
vt 0.440394 0.835907
vt 0.440394 0.799340
vt 0.407810 0.799340
vt 0.407810 0.817623
vt 0.407810 0.835907
vt 0.440394 0.835907
vt 0.440394 0.817623
vt 0.472978 0.835907
vt 0.472978 0.817624
vt 0.407810 0.799340
vt 0.407810 0.817623
vt 0.407810 0.835907
vt 0.440394 0.835907
vt 0.472978 0.799340
vt 0.472978 0.799340
vt 0.440394 0.799340
vt 0.407810 0.799340
vt 0.407810 0.817623
vt 0.438413 0.817748
vt 0.472978 0.835907
vt 0.472978 0.817624
vt 0.472978 0.799340
vt 0.440394 0.799340
vt 0.407810 0.835907
vt 0.440394 0.835907
vt 0.472978 0.835907
vt 0.472978 0.817624
vt 0.472978 0.799340
vt 0.440394 0.799340
vt 0.440394 0.799340
vt 0.472978 0.835907
vt 0.472978 0.817624
vt 0.472978 0.835907
vt 0.472978 0.817624
vt 0.472978 0.799340
vt 0.440394 0.799340
vt 0.408413 0.799990
vt 0.408413 0.816498
vt 0.434019 0.816498
vt 0.408413 0.833005
vt 0.434019 0.833005
vt 0.434019 0.816498
vt 0.434019 0.833005
vt 0.432012 0.816485
vt 0.408413 0.799990
vt 0.408413 0.816498
vt 0.434019 0.816498
vt 0.408413 0.833005
vt 0.434019 0.833005
vt 0.434019 0.799990
vt 0.408413 0.799990
vt 0.408413 0.816498
vt 0.408413 0.833005
vt 0.434019 0.833005
vt 0.434019 0.816498
vt 0.459626 0.833006
vt 0.459626 0.816498
vt 0.408413 0.799990
vt 0.408413 0.816498
vt 0.408413 0.833005
vt 0.434019 0.833005
vt 0.459626 0.799990
vt 0.459626 0.799990
vt 0.434019 0.799990
vt 0.408413 0.799990
vt 0.408413 0.816498
vt 0.432211 0.816643
vt 0.459626 0.833006
vt 0.459626 0.816498
vt 0.459626 0.799990
vt 0.434019 0.799990
vt 0.408413 0.833005
vt 0.434019 0.833005
vt 0.459626 0.833006
vt 0.459626 0.816498
vt 0.459626 0.799990
vt 0.434019 0.799990
vt 0.434019 0.799990
vt 0.459626 0.833006
vt 0.459626 0.816498
vt 0.459626 0.833006
vt 0.459626 0.816498
vt 0.459626 0.799990
vt 0.434019 0.799990
vt 0.408413 0.799990
vt 0.408413 0.816498
vt 0.434019 0.816498
vt 0.408413 0.833005
vt 0.434019 0.833005
vt 0.434019 0.816498
vt 0.434019 0.833005
vt 0.430998 0.816498
vt 0.408413 0.799990
vt 0.408413 0.816498
vt 0.434019 0.816498
vt 0.408413 0.833005
vt 0.434019 0.833005
vt 0.434019 0.799990
vt 0.408413 0.799990
vt 0.408413 0.816498
vt 0.408413 0.833005
vt 0.434019 0.833005
vt 0.434019 0.816498
vt 0.459626 0.833006
vt 0.459626 0.816498
vt 0.408413 0.799990
vt 0.408413 0.816498
vt 0.408413 0.833005
vt 0.434019 0.833005
vt 0.459626 0.799990
vt 0.459626 0.799990
vt 0.434019 0.799990
vt 0.408413 0.799990
vt 0.408413 0.816498
vt 0.431300 0.816693
vt 0.459626 0.833006
vt 0.459626 0.816498
vt 0.459626 0.799990
vt 0.434019 0.799990
vt 0.408413 0.833005
vt 0.434019 0.833005
vt 0.459626 0.833006
vt 0.459626 0.816498
vt 0.459626 0.799990
vt 0.434019 0.799990
vt 0.434019 0.799990
vt 0.459626 0.833006
vt 0.459626 0.816498
vt 0.459626 0.833006
vt 0.459626 0.816498
vt 0.459626 0.799990
vt 0.434019 0.799990
vt 0.002417 0.236557
vt 0.020222 0.250087
vt 0.633449 0.200783
vt 0.116908 0.307797
vt 0.162737 0.322407
vt 0.346592 0.324039
vt 0.438647 0.318225
vt 0.057336 0.935216
vt 0.006335 0.849860
vt 0.033576 0.985955
vt 0.950116 0.878546
vt 0.857936 0.853856
vt 0.856526 0.870589
vt 0.954058 0.862311
vt 0.930615 0.960991
vt 0.849657 0.954978
vt 0.922868 0.996512
vt 0.846837 0.993047
vt 0.370778 0.809151
vt 0.444917 0.957285
vt 0.446539 0.811018
vt 0.366144 0.951401
vt 0.366144 0.738027
vt 0.444917 0.718935
vt 0.127943 0.994172
vt 0.136262 0.935216
vt 0.118405 0.849860
vt 0.979424 0.571005
vt 0.997229 0.557475
vt 0.366197 0.521701
vt 0.882738 0.628715
vt 0.836909 0.643325
vt 0.653054 0.644958
vt 0.560999 0.639143
vt 0.300227 0.935216
vt 0.323988 0.985955
vt 0.351229 0.849860
vt 0.755642 0.870560
vt 0.754244 0.853828
vt 0.662047 0.878448
vt 0.658117 0.862209
vt 0.762449 0.954952
vt 0.681487 0.960907
vt 0.765243 0.993024
vt 0.689209 0.996434
vt 0.528169 0.811018
vt 0.529792 0.957285
vt 0.603931 0.809151
vt 0.608565 0.951401
vt 0.529792 0.718935
vt 0.608565 0.738027
vt 0.221301 0.935216
vt 0.229620 0.994172
vt 0.239158 0.849860
vt 0.010971 0.013255
vt 0.006265 0.013283
vt 0.006265 0.013283
vt 0.007660 0.010020
vt 0.000000 0.000000
vt 0.000000 0.000000
vt 0.002417 0.236557
vt 0.633449 0.200783
vt 0.130549 0.139560
vt 0.997229 0.557475
vt 0.869097 0.460478
vt 0.366197 0.521701
vt 0.437679 0.633249
vt 0.429552 0.643873
vt 0.448563 0.644224
vt 0.427133 0.650704
vt 0.443194 0.654011
vt 0.459402 0.650597
vt 0.447414 0.623015
vt 0.452003 0.635779
vt 0.456365 0.645965
vt 0.456111 0.638374
vt 0.453238 0.623177
vt 0.458628 0.625960
vt 0.430027 0.624383
vt 0.456829 0.618794
vt 0.441686 0.613751
vt 0.427961 0.617593
vt 0.420864 0.634171
vt 0.413498 0.624674
vt 0.410210 0.645811
vt 0.393388 0.626903
vt 0.410103 0.603346
vt 0.394919 0.598481
vt 0.378478 0.606731
vt 0.373464 0.626659
vt 0.377284 0.644721
vt 0.393769 0.654061
vt 0.011463 0.573515
vt 0.011463 0.522145
vt 0.029070 0.529483
vt 0.029070 0.544161
vt 0.029070 0.562507
vt 0.906954 0.683814
vt 0.964666 0.678302
vt 0.907308 0.717775
vt 0.969218 0.710587
vt 0.909906 0.725499
vt 0.207248 0.044263
vt 0.207273 0.004039
vt 0.286128 0.008654
vt 0.531380 0.006892
vt 0.633906 0.005348
vt 0.636431 0.053122
vt 0.976994 0.735998
vt 0.899393 0.776571
vt 0.944715 0.797988
vt 0.002417 0.236557
vt 0.633449 0.200783
vt 0.020222 0.250087
vt 0.990988 0.752878
vt 0.061577 0.131806
vt 0.097336 0.141972
vt 0.116908 0.307797
vt 0.130549 0.139560
vt 0.162737 0.322407
vt 0.346592 0.324039
vt 0.168880 0.122079
vt 0.029070 0.577184
vt 0.028129 0.588795
vt 0.024420 0.588686
vt 0.030564 0.585795
vt 0.038811 0.620836
vt 0.025914 0.612320
vt 0.023494 0.615320
vt 0.036391 0.623836
vt 0.029070 0.636489
vt 0.011463 0.626720
vt 0.011463 0.606539
vt 0.015682 0.636332
vt 0.748784 0.141456
vt 0.792216 0.136561
vt 0.720319 0.183452
vt 0.715574 0.138841
vt 0.682371 0.126169
vt 0.649182 0.090871
vt 0.438647 0.318225
vt 0.057336 0.935216
vt 0.033576 0.985955
vt 0.006335 0.849860
vt 0.199559 0.084464
vt 0.290035 0.441819
vt 0.291242 0.407305
vt 0.306487 0.405031
vt 0.301163 0.435692
vt 0.279302 0.441108
vt 0.280420 0.406945
vt 0.121647 0.529483
vt 0.121647 0.544161
vt 0.121647 0.562507
vt 0.105804 0.441820
vt 0.104382 0.407209
vt 0.113567 0.406930
vt 0.114896 0.441244
vt 0.090803 0.432097
vt 0.088814 0.403734
vt 0.843283 0.714588
vt 0.842144 0.679273
vt 0.843488 0.725562
vt 0.164417 0.440756
vt 0.163632 0.406751
vt 0.175706 0.404808
vt 0.176266 0.435084
vt 0.158289 0.441092
vt 0.157566 0.406903
vt 0.228053 0.440788
vt 0.228763 0.406801
vt 0.235978 0.406957
vt 0.235329 0.441119
vt 0.212794 0.435117
vt 0.213179 0.404842
vt 0.120619 0.406824
vt 0.121922 0.441018
vt 0.838969 0.783487
vt 0.954058 0.862311
vt 0.857936 0.853856
vt 0.850604 0.789007
vt 0.933974 0.797622
vt 0.126548 0.406859
vt 0.127770 0.441074
vt 0.950116 0.878546
vt 0.856526 0.870589
vt 0.132248 0.406920
vt 0.133349 0.441186
vt 0.930615 0.960991
vt 0.849657 0.954978
vt 0.137378 0.406981
vt 0.138346 0.441299
vt 0.922868 0.996512
vt 0.846837 0.993047
vt 0.370778 0.809151
vt 0.446539 0.811018
vt 0.444917 0.957285
vt 0.366144 0.951401
vt 0.143879 0.407033
vt 0.144689 0.441390
vt 0.151336 0.407014
vt 0.152052 0.441335
vt 0.121647 0.577184
vt 0.121647 0.587883
vt 0.096657 0.593031
vt 0.121647 0.630389
vt 0.048996 0.619695
vt 0.271783 0.440879
vt 0.272915 0.406829
vt 0.073375 0.618611
vt 0.121647 0.636489
vt 0.265559 0.440900
vt 0.266665 0.406840
vt 0.101282 0.668905
vt 0.118898 0.647207
vt 0.146109 0.745605
vt 0.118898 0.758660
vt 0.005127 0.787452
vt 0.005127 0.674718
vt 0.259015 0.441072
vt 0.259992 0.406927
vt 0.254025 0.441195
vt 0.254888 0.406988
vt 0.118898 0.837484
vt 0.005127 0.846310
vt 0.248694 0.441291
vt 0.249436 0.407036
vt 0.241381 0.441279
vt 0.242031 0.407032
vt 0.366144 0.738027
vt 0.444917 0.718935
vt 0.136262 0.935216
vt 0.127943 0.994172
vt 0.118405 0.849860
vt 0.648578 0.678302
vt 0.706626 0.717400
vt 0.644797 0.710748
vt 0.706842 0.683396
vt 0.704070 0.725147
vt 0.792373 0.324958
vt 0.792398 0.365181
vt 0.713518 0.329572
vt 0.365740 0.326266
vt 0.468266 0.327811
vt 0.363214 0.374040
vt 0.637723 0.735938
vt 0.624432 0.752457
vt 0.669968 0.796732
vt 0.714439 0.775784
vt 0.997229 0.557475
vt 0.902310 0.462890
vt 0.938069 0.452724
vt 0.869097 0.460478
vt 0.979424 0.571005
vt 0.366197 0.521701
vt 0.882738 0.628715
vt 0.836909 0.643325
vt 0.830766 0.442998
vt 0.800087 0.405382
vt 0.331154 0.636489
vt 0.348761 0.626720
vt 0.344511 0.636332
vt 0.207429 0.457472
vt 0.250862 0.462374
vt 0.279327 0.504370
vt 0.284071 0.459759
vt 0.317275 0.447087
vt 0.350464 0.411789
vt 0.653054 0.644958
vt 0.560999 0.639143
vt 0.300227 0.935216
vt 0.351229 0.849860
vt 0.323988 0.985955
vt 0.291252 0.369924
vt 0.290052 0.335400
vt 0.306496 0.372188
vt 0.301178 0.341531
vt 0.280429 0.370273
vt 0.279322 0.336103
vt 0.104384 0.369754
vt 0.105829 0.335134
vt 0.113573 0.370043
vt 0.114923 0.335723
vt 0.088808 0.373202
vt 0.090817 0.344835
vt 0.770506 0.714430
vt 0.771821 0.679109
vt 0.770258 0.725390
vt 0.163643 0.370295
vt 0.164451 0.336291
vt 0.175716 0.372261
vt 0.176297 0.341985
vt 0.157577 0.370133
vt 0.158323 0.335944
vt 0.228775 0.370350
vt 0.228085 0.336366
vt 0.235989 0.370205
vt 0.235361 0.336046
vt 0.213190 0.372287
vt 0.212825 0.342013
vt 0.120627 0.370157
vt 0.121950 0.335959
vt 0.774382 0.783186
vt 0.754244 0.853828
vt 0.658117 0.862209
vt 0.761628 0.788986
vt 0.678251 0.797536
vt 0.126557 0.370131
vt 0.127800 0.335912
vt 0.755642 0.870560
vt 0.662047 0.878448
vt 0.132258 0.370078
vt 0.133380 0.335809
vt 0.762449 0.954952
vt 0.681487 0.960907
vt 0.137388 0.370024
vt 0.138377 0.335704
vt 0.765243 0.993024
vt 0.689209 0.996434
vt 0.528169 0.811018
vt 0.603931 0.809151
vt 0.529792 0.957285
vt 0.608565 0.951401
vt 0.143889 0.369982
vt 0.144722 0.335623
vt 0.151347 0.370012
vt 0.152086 0.335690
vt 0.272924 0.370381
vt 0.271806 0.336325
vt 0.266674 0.370363
vt 0.265583 0.336298
vt 0.241522 0.647207
vt 0.259139 0.668905
vt 0.214273 0.745605
vt 0.355255 0.787452
vt 0.241484 0.758660
vt 0.355294 0.674718
vt 0.260002 0.370269
vt 0.259041 0.336128
vt 0.254898 0.370201
vt 0.254053 0.335998
vt 0.241484 0.837484
vt 0.355255 0.846310
vt 0.249446 0.370145
vt 0.248723 0.335894
vt 0.242041 0.370139
vt 0.241412 0.335896
vt 0.529792 0.718935
vt 0.608565 0.738027
vt 0.221301 0.935216
vt 0.229620 0.994172
vt 0.239158 0.849860
vt 0.238578 0.636489
vt 0.238578 0.630389
vt 0.238578 0.587883
vt 0.238578 0.577184
vt 0.238578 0.562507
vt 0.238578 0.544161
vt 0.238578 0.529483
vt 0.021985 0.595259
vt 0.089934 0.612639
vt 0.097705 0.590031
vt 0.093726 0.609639
vt 0.075795 0.615611
vt 0.046576 0.622695
vt 0.348761 0.522145
vt 0.348761 0.573515
vt 0.331154 0.529483
vt 0.331186 0.544161
vt 0.331186 0.562507
vt 0.331186 0.577184
vt 0.332127 0.588795
vt 0.329692 0.585795
vt 0.335835 0.588686
vt 0.321445 0.620836
vt 0.334342 0.612320
vt 0.323865 0.623836
vt 0.336762 0.615320
vt 0.348761 0.606539
vt 0.266800 0.593031
vt 0.311260 0.619695
vt 0.286881 0.618611
vt 0.338270 0.595259
vt 0.272152 0.612639
vt 0.264380 0.590031
vt 0.269731 0.609639
vt 0.284460 0.615611
vt 0.313680 0.622695
vt 0.337249 0.599630
vt 0.336857 0.613461
vt 0.337155 0.615051
vt 0.118898 0.642742
vt 0.241522 0.642742
vt 0.437096 0.641686
vt 0.458103 0.641298
vt 0.449123 0.629559
vt 0.443029 0.652500
vt 0.460777 0.648847
vt 0.425120 0.648728
vt 0.438366 0.618250
vt 0.421035 0.631855
vt 0.427963 0.613586
vt 0.457578 0.619761
vt 0.444696 0.608013
vt 0.459862 0.612259
vt 0.467704 0.630577
vt 0.392936 0.624977
vt 0.409838 0.606422
vt 0.413142 0.627164
vt 0.409731 0.648095
vt 0.394474 0.652869
vt 0.377954 0.644772
vt 0.372915 0.625216
vt 0.376754 0.607491
vt 0.393318 0.598325
vt 0.559631 0.711892
vt 0.580153 0.668541
vt 0.576612 0.711865
vt 0.559502 0.668586
vt 0.571333 0.668577
vt 0.559330 0.668586
vt 0.589226 0.668530
vt 0.584558 0.711857
vt 0.579369 0.668573
vt 0.580039 0.668539
vt 0.575231 0.711867
vt 0.569902 0.668583
vt 0.399118 0.711892
vt 0.382138 0.711865
vt 0.378597 0.668541
vt 0.399248 0.668586
vt 0.387416 0.668577
vt 0.399419 0.668586
vt 0.374191 0.711857
vt 0.369523 0.668530
vt 0.379380 0.668573
vt 0.383519 0.711867
vt 0.378711 0.668539
vt 0.388848 0.668583
vt 0.490995 0.657425
vt 0.491107 0.617548
vt 0.496538 0.617566
vt 0.496426 0.657443
vt 0.502343 0.654786
vt 0.502329 0.618365
vt 0.519258 0.624562
vt 0.516278 0.649354
vt 0.490813 0.617130
vt 0.490799 0.653551
vt 0.476865 0.648119
vt 0.473884 0.623327
vt 0.501798 0.617130
vt 0.501922 0.657461
vt 0.496491 0.657478
vt 0.496367 0.617147
vt 0.502611 0.653878
vt 0.502611 0.617834
vt 0.520109 0.627024
vt 0.519355 0.648356
vt 0.491412 0.617185
vt 0.491412 0.651440
vt 0.475499 0.646192
vt 0.474782 0.625919
vt 0.490813 0.657461
vt 0.490937 0.617130
vt 0.496367 0.617147
vt 0.496244 0.657478
vt 0.502397 0.652620
vt 0.502396 0.620944
vt 0.517774 0.629020
vt 0.517111 0.647767
vt 0.490734 0.617845
vt 0.490734 0.652015
vt 0.474860 0.646780
vt 0.474145 0.626557
vt 0.501969 0.617548
vt 0.502080 0.657425
vt 0.496649 0.657443
vt 0.496538 0.617566
vt 0.502209 0.654477
vt 0.502195 0.618056
vt 0.519124 0.624253
vt 0.516143 0.649045
vt 0.491210 0.617130
vt 0.491196 0.653551
vt 0.477262 0.648119
vt 0.474281 0.623327
vt 0.381169 0.576803
vt 0.375672 0.590074
vt 0.367897 0.582300
vt 0.386666 0.590074
vt 0.394440 0.582300
vt 0.394440 0.571305
vt 0.386666 0.563531
vt 0.375671 0.563531
vt 0.367897 0.571305
vt 0.365980 0.651061
vt 0.355158 0.564110
vt 0.366103 0.565154
vt 0.355035 0.650017
vt 0.357436 0.564589
vt 0.365330 0.650913
vt 0.357533 0.650496
vt 0.365233 0.565006
vt 0.355960 0.564427
vt 0.367043 0.649895
vt 0.356057 0.650333
vt 0.366946 0.563988
vt 0.358832 0.564568
vt 0.366668 0.649437
vt 0.358929 0.650474
vt 0.366571 0.563531
vt 0.367897 0.649437
vt 0.356830 0.564575
vt 0.367775 0.563531
vt 0.356952 0.650481
vt 0.366530 0.649916
vt 0.358830 0.564427
vt 0.366627 0.564009
vt 0.358733 0.650333
vt 0.368006 0.650913
vt 0.357117 0.564568
vt 0.368103 0.565006
vt 0.357020 0.650475
vt 0.365134 0.649895
vt 0.357492 0.562951
vt 0.365231 0.563988
vt 0.357395 0.648858
vt 0.007845 0.323575
vt 0.046559 0.321527
vt 0.046559 0.323575
vt 0.007845 0.321527
vt 0.046559 0.317431
vt 0.007845 0.317431
vt 0.046559 0.315383
vt 0.007845 0.315383
vt 0.046559 0.317431
vt 0.007845 0.317431
vt 0.046559 0.321527
vt 0.007845 0.321527
vt 0.047781 0.324620
vt 0.047781 0.329761
vt 0.047781 0.314338
vt 0.047781 0.309198
vt 0.047781 0.314338
vt 0.047781 0.324620
vt 0.067564 0.324620
vt 0.067564 0.329761
vt 0.067564 0.314338
vt 0.067564 0.309198
vt 0.067564 0.314338
vt 0.067564 0.324620
vt 0.068787 0.321527
vt 0.068787 0.323575
vt 0.068787 0.317431
vt 0.068787 0.315383
vt 0.068787 0.317431
vt 0.068787 0.321527
vt 0.107500 0.321527
vt 0.107500 0.323575
vt 0.107500 0.317431
vt 0.107500 0.315383
vt 0.107500 0.317431
vt 0.107500 0.321527
vt 0.062435 0.482652
vt 0.060040 0.463235
vt 0.062435 0.464062
vt 0.060040 0.480964
vt 0.055249 0.463235
vt 0.055249 0.480964
vt 0.052853 0.464062
vt 0.052853 0.482652
vt 0.055249 0.464889
vt 0.055249 0.484340
vt 0.060040 0.464889
vt 0.060040 0.484340
vt 0.060040 0.341008
vt 0.062435 0.340145
vt 0.055248 0.341008
vt 0.052853 0.340145
vt 0.055248 0.339282
vt 0.060040 0.339282
vt 0.060040 0.322624
vt 0.062435 0.320456
vt 0.055248 0.322624
vt 0.052853 0.320456
vt 0.055249 0.318288
vt 0.060040 0.318288
vt 0.007845 0.486617
vt 0.046559 0.484569
vt 0.046559 0.486617
vt 0.007845 0.484569
vt 0.046559 0.480472
vt 0.007845 0.480472
vt 0.046559 0.478424
vt 0.007845 0.478424
vt 0.046559 0.480472
vt 0.007845 0.480472
vt 0.046559 0.484569
vt 0.007845 0.484569
vt 0.047781 0.487661
vt 0.047781 0.492802
vt 0.047781 0.477380
vt 0.047781 0.472239
vt 0.047781 0.477380
vt 0.047781 0.487661
vt 0.067564 0.487661
vt 0.067564 0.492802
vt 0.067564 0.477380
vt 0.067564 0.472239
vt 0.067564 0.477380
vt 0.067564 0.487661
vt 0.068787 0.484569
vt 0.068787 0.486617
vt 0.068787 0.480472
vt 0.068787 0.478424
vt 0.068787 0.480472
vt 0.068787 0.484569
vt 0.107500 0.484569
vt 0.107500 0.486617
vt 0.107500 0.480472
vt 0.107500 0.478424
vt 0.107500 0.480472
vt 0.107500 0.484569
vn 0.0000 -0.1070 0.9943
vn -0.8359 -0.1774 -0.5195
vn 0.0668 -0.7289 0.6814
vn -0.9737 -0.2279 -0.0000
vn 0.0000 0.0000 0.0000
vn -0.9737 -0.2278 0.0000
vn -0.0055 -0.0619 0.8835
vn 0.1832 -0.8367 -0.5162
vn 0.8359 -0.1774 -0.5195
vn 0.7224 0.1664 0.6712
vn -0.9019 0.1775 -0.3937
vn -0.0734 0.1543 0.9853
vn -0.7987 0.6017 -0.0001
vn -0.0036 -1.0000 0.0000
vn -0.0860 0.2178 0.9722
vn 0.8283 -0.1724 0.5331
vn 0.9020 0.1772 -0.3937
vn 0.1829 -0.9831 0.0001
vn 0.7988 0.6016 0.0000
vn 0.0732 0.1543 0.9853
vn -0.0067 0.2120 0.9772
vn -0.1407 0.2230 0.9646
vn -0.8069 0.5907 -0.0001
vn 0.8070 0.5906 0.0000
vn -0.4220 0.6204 0.6611
vn -0.7738 0.6167 0.1444
vn -0.9673 -0.2337 -0.0982
vn -0.7553 -0.1394 0.6404
vn -0.0016 -0.2100 0.9777
vn -0.0008 0.7487 0.6629
vn -0.0003 0.9661 0.2583
vn -0.5206 0.7811 -0.3447
vn -0.0004 0.9684 -0.2495
vn -0.0007 0.2100 -0.9777
vn -0.6855 0.0504 -0.7263
vn 0.4256 0.6192 0.6599
vn 0.7583 -0.1386 0.6370
vn 0.9222 -0.3563 -0.1501
vn 0.8270 0.5527 0.1028
vn 0.5085 0.7853 -0.3532
vn 0.6756 0.0530 -0.7353
vn -0.4234 -0.8430 0.3319
vn -0.5450 -0.8020 -0.2444
vn -0.0002 -0.9650 -0.2621
vn -0.0007 -0.9617 0.2740
vn -0.3935 -0.6003 -0.6963
vn -0.0003 -0.7297 -0.6838
vn 0.4276 -0.8418 0.3293
vn 0.4711 -0.8423 -0.2618
vn 0.3840 -0.6008 -0.7011
vn -0.4477 0.6573 0.6062
vn -0.5132 0.8330 0.2068
vn -0.9976 -0.0139 0.0683
vn -0.6946 -0.1434 0.7050
vn -0.0010 -0.1988 0.9800
vn -0.0006 0.7522 0.6589
vn -0.0010 0.9796 0.2011
vn -0.4605 0.8499 -0.2560
vn 0.0049 0.9786 -0.2055
vn 0.0003 0.1987 -0.9801
vn -0.7363 0.1344 -0.6631
vn 0.4453 0.6527 0.6129
vn 0.6875 -0.1449 0.7116
vn 0.9960 -0.0179 0.0872
vn 0.4098 0.8868 0.2135
vn 0.5520 0.7568 -0.3500
vn 0.7432 0.1328 -0.6557
vn -0.4478 -0.8418 0.3014
vn -0.5130 -0.8477 -0.1352
vn -0.0009 -0.9803 -0.1977
vn -0.0003 -0.9498 0.3129
vn -0.4602 -0.6827 -0.5676
vn 0.0049 -0.8208 -0.5712
vn 0.4455 -0.8401 0.3094
vn 0.4097 -0.8998 -0.1499
vn 0.5518 -0.5604 -0.6176
vn -0.4991 0.5241 0.6901
vn -0.4855 0.8506 0.2019
vn -0.9966 -0.0166 0.0812
vn -0.6565 -0.1509 0.7391
vn 0.0000 -0.1993 0.9799
vn -0.0001 0.6251 0.7806
vn 0.0021 0.9791 0.2034
vn -0.6145 0.6223 -0.4849
vn -0.0096 0.9431 -0.3323
vn -0.0000 0.1992 -0.9800
vn -0.7123 0.1404 -0.6877
vn 0.5014 0.5274 0.6859
vn 0.6615 -0.1500 0.7348
vn 0.9976 -0.0140 0.0684
vn 0.6070 0.7688 0.2011
vn 0.5228 0.7659 -0.3743
vn 0.7077 0.1413 -0.6922
vn -0.4990 -0.7522 0.4304
vn -0.4853 -0.8620 -0.1465
vn 0.0021 -0.9807 -0.1953
vn 0.0000 -0.8800 0.4750
vn -0.6132 -0.3832 -0.6907
vn -0.0095 -0.7384 -0.6743
vn 0.5014 -0.7535 0.4253
vn 0.6070 -0.7863 -0.1151
vn 0.5226 -0.5587 -0.6440
vn -0.5108 0.5148 0.6885
vn -0.5089 0.8352 0.2085
vn -0.9951 -0.0219 0.0961
vn -0.6464 -0.1521 0.7477
vn 0.0093 -0.1998 0.9798
vn -0.0296 0.6233 0.7814
vn -0.0443 0.9773 0.2070
vn -0.6307 0.6162 -0.4718
vn -0.0404 0.9712 -0.2347
vn -0.0082 0.1992 -0.9799
vn -0.7190 0.1385 -0.6811
vn 0.4822 0.5314 0.6965
vn 0.6592 -0.1490 0.7370
vn 0.9965 -0.0143 0.0824
vn 0.4590 0.8648 0.2037
vn 0.5987 0.6325 -0.4915
vn 0.7082 0.1416 -0.6916
vn -0.4716 -0.7636 0.4410
vn -0.4586 -0.8770 -0.1434
vn 0.0444 -0.9804 -0.1917
vn 0.0417 -0.8793 0.4745
vn -0.6084 -0.3912 -0.6906
vn 0.0343 -0.8025 -0.5957
vn 0.5207 -0.7407 0.4246
vn 0.5095 -0.8487 -0.1419
vn 0.6213 -0.3815 -0.6844
vn -0.4474 0.6492 0.6151
vn -0.4126 0.8844 0.2181
vn -0.9949 -0.0202 0.0985
vn -0.6869 -0.1457 0.7120
vn 0.0000 -0.1989 0.9800
vn -0.0001 0.7523 0.6588
vn -0.0000 0.9793 0.2026
vn -0.5565 0.7554 -0.3461
vn 0.0009 0.9910 -0.1335
vn -0.0000 0.1988 -0.9800
vn -0.7481 0.1325 -0.6502
vn 0.4485 0.6506 0.6128
vn 0.6894 -0.1452 0.7097
vn 0.9957 -0.0186 0.0910
vn 0.4135 0.8848 0.2150
vn 0.5555 0.7546 -0.3493
vn 0.7455 0.1331 -0.6531
vn -0.4473 -0.8380 0.3125
vn -0.4124 -0.8994 -0.1447
vn -0.0000 -0.9806 -0.1961
vn 0.0000 -0.9498 0.3129
vn -0.5564 -0.5603 -0.6136
vn 0.0000 -0.8603 -0.5098
vn 0.4484 -0.8384 0.3098
vn 0.4132 -0.8986 -0.1477
vn 0.5555 -0.5583 -0.6163
vn -0.4181 0.4464 -0.7912
vn -0.5927 0.3150 -0.7413
vn -0.3668 -0.4262 -0.8269
vn -0.5418 0.2168 -0.8121
vn -0.4819 0.0672 -0.8736
vn -0.5526 -0.0277 -0.8330
vn -0.6054 -0.1364 -0.7842
vn -0.1759 -0.4679 -0.8661
vn -0.0417 0.8778 -0.4773
vn -0.0235 0.5228 -0.8521
vn -0.0273 0.4199 -0.9072
vn -0.0393 0.1967 -0.9797
vn -0.0353 -0.0222 -0.9991
vn -0.0637 -0.2779 -0.9585
vn -0.0644 -0.5031 -0.8618
vn 0.5927 0.3150 -0.7413
vn 0.4181 0.4464 -0.7912
vn 0.3668 -0.4262 -0.8269
vn 0.5418 0.2168 -0.8121
vn 0.4819 0.0672 -0.8736
vn 0.5526 -0.0277 -0.8330
vn 0.6053 -0.1364 -0.7842
vn 0.1759 -0.4679 -0.8661
vn 0.0235 0.5228 -0.8521
vn 0.0237 0.9997 -0.0017
vn 0.0273 0.4199 -0.9072
vn 0.0393 0.1967 -0.9797
vn 0.0353 -0.0222 -0.9991
vn 0.0637 -0.2779 -0.9585
vn 0.0644 -0.5031 -0.8618
vn 0.0270 -0.5438 0.8388
vn 0.7168 -0.2909 0.6337
vn -0.6151 0.7885 -0.0000
vn -0.1473 -0.9891 -0.0000
vn 0.0000 0.5722 0.8201
vn 0.9338 -0.1696 0.3152
vn 0.9622 0.0165 0.2719
vn 0.8690 -0.2472 0.4287
vn -0.9370 -0.1723 0.3040
vn -0.8690 -0.2473 0.4286
vn -0.9621 0.0165 0.2722
vn -0.2256 0.9667 -0.1205
vn -0.6375 0.6069 0.4746
vn 0.3352 0.8258 0.4536
vn -0.3982 -0.6252 0.6712
vn 0.1360 -0.5937 0.7931
vn 0.6946 -0.3612 0.6222
vn 0.3216 0.7161 -0.6195
vn 0.8977 -0.4405 0.0035
vn 0.6742 -0.5351 -0.5090
vn -0.6335 0.5395 -0.5546
vn 0.1421 -0.6781 -0.7212
vn -0.3893 -0.7241 -0.5693
vn -0.6772 -0.7342 0.0481
vn 0.2064 -0.9719 0.1131
vn 0.8292 -0.5406 -0.1420
vn 0.6536 -0.4472 -0.6106
vn 0.5663 0.6105 -0.5537
vn 0.6469 0.7293 0.2227
vn 0.7689 0.6386 0.0316
vn 0.4220 -0.6897 -0.5884
vn 0.6295 0.3677 -0.6845
vn 0.6182 -0.7571 0.2112
vn 0.7841 0.5757 -0.2319
vn 0.7237 -0.5934 0.3523
vn 0.8462 -0.5314 -0.0397
vn 0.6747 -0.4749 -0.5651
vn 0.5854 0.0398 -0.8098
vn 0.6688 -0.0345 -0.7427
vn 0.6624 0.4837 -0.5720
vn 0.8396 0.5360 -0.0879
vn 0.8477 0.4013 -0.3469
vn 0.4561 -0.6539 0.6037
vn 0.7168 -0.2910 0.6337
vn 0.7224 0.1664 0.6711
vn 0.5927 -0.3150 0.7413
vn 0.8062 0.2182 -0.5499
vn 0.8344 0.0698 -0.5467
vn 0.5418 -0.2168 0.8121
vn 0.8358 -0.1774 -0.5195
vn 0.4819 -0.0672 0.8736
vn 0.5526 0.0277 0.8330
vn 0.8358 -0.1773 -0.5195
vn 0.8005 -0.3794 -0.4640
vn 0.6407 0.7568 -0.1294
vn 0.4576 0.3498 0.8175
vn -0.0738 0.5872 0.8061
vn -0.1189 0.0874 0.9891
vn 0.5149 0.7609 -0.3949
vn -0.0565 0.9966 -0.0600
vn 0.6868 0.7255 -0.0429
vn 0.5107 0.8596 0.0166
vn 0.5438 0.3400 0.7672
vn 0.9367 -0.2091 -0.2808
vn 0.8637 -0.4199 -0.2786
vn 0.5042 0.1407 0.8520
vn 0.9037 0.0185 -0.4277
vn 0.8809 0.1849 -0.4357
vn 0.8620 0.2872 -0.4178
vn 0.8764 0.4117 -0.2498
vn 0.6054 0.1364 0.7842
vn 0.1759 0.4679 0.8661
vn 0.8049 -0.5218 -0.2824
vn -0.0244 -0.6170 -0.7866
vn 0.1061 0.7619 -0.6390
vn -0.0376 -0.9637 -0.2642
vn 0.1348 0.9453 0.2969
vn 0.1516 0.9883 -0.0180
vn -0.0175 0.4874 -0.8730
vn -0.0389 0.9236 -0.3813
vn 0.0445 -0.7718 -0.6343
vn 0.0571 -0.9514 0.3025
vn 0.0592 -0.8983 0.4354
vn 0.0157 -0.7118 -0.7022
vn 0.0001 -0.0050 -1.0000
vn 0.0222 -0.9952 -0.0950
vn 0.0136 0.7007 -0.7133
vn 0.0194 0.9814 -0.1912
vn 0.0001 0.0072 -1.0000
vn -0.0290 0.7155 -0.6980
vn 0.0590 -0.6878 0.7235
vn 0.0160 -0.3332 0.9427
vn -0.0152 0.3972 -0.9176
vn 0.0235 -0.5228 0.8521
vn -0.0039 0.1019 -0.9948
vn 0.0273 -0.4199 0.9072
vn 0.0072 -0.2447 -0.9696
vn 0.0393 -0.1967 0.9797
vn 0.0353 0.0222 0.9991
vn 0.0163 -0.6065 -0.7949
vn 0.0216 -0.9044 -0.4260
vn 0.1350 0.9607 -0.2427
vn 0.1334 0.9234 0.3599
vn 0.4710 0.5620 0.6799
vn 0.1270 0.6516 0.7479
vn 0.4048 0.8837 -0.2349
vn -0.0298 -0.8064 -0.5907
vn 0.4735 0.8799 -0.0400
vn 0.2115 0.6275 0.7493
vn -0.0145 -0.4143 -0.9100
vn 0.1666 0.1373 0.9764
vn 0.3653 0.5530 0.7489
vn 0.0244 0.0783 0.9966
vn 0.0320 0.1641 0.9859
vn -0.0008 -0.0214 -0.9998
vn 0.0053 0.2126 -0.9771
vn 0.0442 0.3588 0.9324
vn 0.0124 0.5489 -0.8358
vn 0.0175 0.8538 -0.5204
vn 0.0637 0.2779 0.9585
vn 0.0644 0.5031 0.8618
vn -0.6295 0.3677 -0.6845
vn -0.6182 -0.7571 0.2112
vn -0.7841 0.5757 -0.2319
vn -0.4220 -0.6897 -0.5884
vn -0.7237 -0.5934 0.3523
vn -0.6747 -0.4749 -0.5651
vn -0.8462 -0.5314 -0.0397
vn -0.5854 0.0398 -0.8098
vn -0.6624 0.4837 -0.5720
vn -0.6688 -0.0345 -0.7427
vn -0.8396 0.5360 -0.0879
vn -0.8477 0.4013 -0.3469
vn -0.8062 0.2182 -0.5500
vn -0.7168 -0.2910 0.6337
vn -0.4561 -0.6539 0.6037
vn -0.8344 0.0698 -0.5467
vn -0.8358 -0.1773 -0.5196
vn -0.5927 -0.3150 0.7413
vn -0.7224 0.1664 0.6712
vn -0.5418 -0.2168 0.8121
vn -0.4819 -0.0672 0.8736
vn -0.8005 -0.3794 -0.4640
vn -0.8049 -0.5218 -0.2824
vn -0.5437 0.3397 0.7675
vn -0.9367 -0.2094 -0.2806
vn -0.5042 0.1406 0.8521
vn -0.9036 0.0179 -0.4280
vn -0.8809 0.1849 -0.4357
vn -0.8620 0.2872 -0.4178
vn -0.8764 0.4117 -0.2498
vn -0.5526 0.0277 0.8330
vn -0.6053 0.1364 0.7842
vn -0.1759 0.4679 0.8661
vn 0.0244 -0.6170 -0.7866
vn -0.6536 -0.4472 -0.6106
vn -0.1061 0.7619 -0.6390
vn -0.5661 0.6103 -0.5541
vn 0.0376 -0.9637 -0.2642
vn -0.8290 -0.5408 -0.1422
vn 0.0175 0.4874 -0.8730
vn 0.0389 0.9236 -0.3813
vn -0.0445 -0.7718 -0.6343
vn -0.0571 -0.9514 0.3025
vn -0.0592 -0.8983 0.4354
vn -0.0157 -0.7118 -0.7022
vn -0.0001 -0.0050 -1.0000
vn -0.0222 -0.9952 -0.0950
vn -0.0136 0.7007 -0.7133
vn -0.0194 0.9814 -0.1912
vn -0.0001 0.0072 -1.0000
vn 0.0290 0.7155 -0.6980
vn -0.0590 -0.6878 0.7235
vn -0.0160 -0.3332 0.9427
vn 0.0152 0.3972 -0.9176
vn -0.0235 -0.5228 0.8521
vn 0.0039 0.1019 -0.9948
vn -0.0273 -0.4199 0.9072
vn -0.0072 -0.2447 -0.9696
vn -0.0393 -0.1967 0.9797
vn -0.0353 0.0222 0.9991
vn -0.0163 -0.6065 -0.7949
vn -0.0216 -0.9044 -0.4260
vn 0.0298 -0.8064 -0.5907
vn -0.8636 -0.4203 -0.2785
vn 0.0145 -0.4143 -0.9100
vn -0.3653 0.5529 0.7489
vn -0.1667 0.1369 0.9765
vn -0.0248 0.0784 0.9966
vn -0.0320 0.1648 0.9858
vn 0.0008 -0.0214 -0.9998
vn -0.0053 0.2126 -0.9771
vn -0.0442 0.3588 0.9324
vn -0.0124 0.5489 -0.8358
vn -0.0175 0.8538 -0.5204
vn -0.0637 0.2779 0.9585
vn -0.0644 0.5031 0.8618
vn -0.2115 0.6275 0.7493
vn -0.1269 0.6516 0.7479
vn -0.1333 0.9234 0.3599
vn -0.1350 0.9607 -0.2427
vn -0.1516 0.9883 -0.0180
vn -0.1347 0.9453 0.2969
vn 0.2956 0.5005 0.8137
vn 0.6839 0.7294 0.0183
vn 0.7723 -0.0493 0.6334
vn 0.7967 0.5844 -0.1540
vn 0.4813 0.8393 -0.2529
vn 0.4119 0.9108 -0.0288
vn -0.6476 0.7290 0.2218
vn -0.7692 0.6382 0.0316
vn -0.6408 0.7567 -0.1294
vn -0.4577 0.3497 0.8174
vn 0.1189 0.0874 0.9890
vn 0.0738 0.5872 0.8061
vn -0.5148 0.7609 -0.3949
vn 0.0565 0.9966 -0.0600
vn -0.5109 0.8595 0.0167
vn -0.6873 0.7251 -0.0427
vn -0.4711 0.5625 0.6795
vn -0.4048 0.8837 -0.2349
vn -0.4735 0.8799 -0.0400
vn -0.2963 0.5005 0.8134
vn -0.6838 0.7294 0.0184
vn -0.7723 -0.0493 0.6334
vn -0.7967 0.5844 -0.1540
vn -0.4813 0.8393 -0.2529
vn -0.4119 0.9108 -0.0288
vn -0.3352 0.8258 0.4536
vn 0.6375 0.6069 0.4746
vn 0.2256 0.9667 -0.1205
vn -0.1360 -0.5937 0.7931
vn 0.3982 -0.6252 0.6712
vn -0.6945 -0.3612 0.6222
vn -0.3216 0.7161 -0.6195
vn -0.8977 -0.4405 0.0035
vn -0.6742 -0.5351 -0.5090
vn 0.6335 0.5395 -0.5546
vn -0.1421 -0.6781 -0.7212
vn 0.3893 -0.7241 -0.5694
vn 0.6772 -0.7342 0.0481
vn -0.2064 -0.9719 0.1131
vn -0.0644 0.9915 0.1134
vn 0.5565 -0.5755 0.5992
vn 0.1619 0.9647 0.2075
vn 0.0808 -0.6611 0.7459
vn -0.4524 -0.7592 -0.4680
vn -0.1356 -0.7277 -0.6723
vn 0.8053 -0.5858 -0.0908
vn 0.2648 0.9643 0.0059
vn -0.6138 -0.7892 -0.0221
vn 0.5533 -0.7723 -0.3121
vn -0.2810 0.9571 0.0707
vn -0.7699 -0.5372 0.3445
vn 0.0644 0.9915 0.1134
vn -0.1619 0.9647 0.2075
vn -0.5565 -0.5755 0.5992
vn -0.0808 -0.6611 0.7459
vn 0.4524 -0.7592 -0.4680
vn 0.1356 -0.7277 -0.6723
vn -0.2648 0.9643 0.0059
vn -0.8053 -0.5858 -0.0908
vn 0.6138 -0.7891 -0.0221
vn 0.2811 0.9571 0.0706
vn -0.5533 -0.7723 -0.3120
vn 0.7699 -0.5372 0.3445
vn -0.6069 -0.0952 -0.7891
vn -0.6132 -0.0946 -0.7842
vn 0.6132 -0.0946 -0.7842
vn 0.6069 -0.0952 -0.7891
vn 1.0000 0.0000 0.0000
vn -1.0000 -0.0000 0.0000
vn -0.6234 -0.0814 -0.7777
vn -0.5691 -0.0856 -0.8178
vn 0.5691 -0.0856 -0.8178
vn 0.6234 -0.0814 -0.7777
vn 0.0000 -1.0000 0.0000
vn -0.3376 -0.8931 0.2973
vn -0.4790 -0.8767 -0.0437
vn 0.0000 -0.8999 0.4360
vn 0.3376 -0.8931 0.2973
vn 0.4790 -0.8767 -0.0437
vn 0.3352 -0.8609 -0.3829
vn 0.0000 -0.8546 -0.5193
vn -0.3351 -0.8609 -0.3829
vn -0.6931 -0.0730 0.7171
vn -0.9997 -0.0025 0.0247
vn -0.0000 -0.1013 0.9949
vn 0.6931 -0.0730 0.7171
vn 0.9997 -0.0025 0.0247
vn 0.7179 0.0705 -0.6926
vn -0.0000 0.1013 -0.9949
vn -0.7179 0.0705 -0.6926
vn 0.7554 -0.3276 0.5674
vn 0.7554 -0.6552 -0.0000
vn 0.0000 -0.5000 0.8660
vn 0.7554 0.3276 0.5674
vn 0.0000 0.5000 0.8660
vn 0.7554 0.6552 0.0000
vn 0.0000 1.0000 -0.0000
vn 0.7554 0.3276 -0.5674
vn 0.0000 0.5000 -0.8660
vn 0.7554 -0.3276 -0.5674
vn 0.0000 -0.5000 -0.8660
vn 0.5505 -0.4174 0.7230
vn 0.5505 -0.8348 -0.0000
vn 0.5505 0.4174 0.7230
vn 0.5505 0.8348 -0.0000
vn 0.5505 0.4174 -0.7230
vn 0.5505 -0.4174 -0.7230
vn -0.5505 -0.4174 0.7230
vn -0.5505 -0.8348 -0.0000
vn -0.5505 0.4174 0.7230
vn -0.5505 0.8348 -0.0000
vn -0.5505 0.4174 -0.7230
vn -0.5505 -0.4174 -0.7230
vn -0.7554 -0.3276 0.5674
vn -0.7554 -0.6552 0.0000
vn -0.7554 0.3276 0.5674
vn -0.7554 0.6552 -0.0000
vn -0.7554 0.3276 -0.5674
vn -0.7554 -0.3276 -0.5674
vn -1.0000 0.0049 0.0068
vn -0.5337 0.1879 0.8245
vn -0.9976 -0.0158 -0.0678
vn -0.4959 0.3761 0.7827
vn 0.5332 0.1889 0.8246
vn 0.4951 0.3749 0.7838
vn 0.9975 -0.0163 -0.0686
vn 1.0000 0.0040 0.0053
vn 0.4726 -0.1908 -0.8604
vn 0.5024 -0.3654 -0.7837
vn -0.4723 -0.1903 -0.8607
vn -0.5016 -0.3668 -0.7835
vn -0.5313 -0.1778 0.8283
vn -0.9978 0.0137 -0.0654
vn 0.5315 -0.1774 0.8283
vn 0.9978 0.0135 -0.0650
vn 0.4734 0.1826 -0.8617
vn -0.4736 0.1828 -0.8616
vn -0.5148 -0.3511 0.7821
vn -0.9991 0.0165 -0.0387
vn 0.5152 -0.3517 0.7816
vn 0.9991 0.0162 -0.0379
vn 0.4791 0.3565 -0.8021
vn -0.4794 0.3559 -0.8022
vn 0.7554 -0.3276 -0.5675
vn -0.7554 -0.3276 -0.5675
usemtl inside.002
s 1
f 171/1/1 305/2/2 184/3/3
f 184/3/4 1/4/5 171/1/6
f 5/5/7 168/6/8 184/3/3
f 221/7/9 7/8/10 5/5/7
f 305/2/2 221/7/9 5/5/7
f 305/2/2 5/5/7 184/3/3
f 9/9/11 10/10/12 11/11/13
f 12/12/14 13/13/15 9/14/11
f 14/15/16 13/13/15 12/12/14
f 15/16/17 14/15/16 16/17/18
f 17/18/19 18/19/20 15/20/17
f 10/21/12 9/22/11 13/23/15
f 19/24/21 20/25/22 13/23/15
f 18/26/20 19/24/21 14/27/16
f 9/9/11 11/11/13 21/28/23
f 12/12/14 9/14/11 21/29/23
f 14/15/16 12/12/14 16/17/18
f 15/16/17 16/17/18 22/30/24
f 17/18/19 15/20/17 22/31/24
f 10/21/12 13/23/15 20/25/22
f 19/24/21 13/23/15 14/27/16
f 18/26/20 14/27/16 15/32/17
f 23/33/25 24/34/26 25/35/27
f 23/36/25 26/37/28 27/38/29
f 23/36/25 28/39/30 29/40/31
f 30/41/32 31/42/33 32/43/34
f 30/44/32 33/45/35 25/35/27
f 30/41/32 24/34/26 29/40/31
f 34/46/36 28/47/30 27/38/29
f 34/48/36 35/49/37 36/50/38
f 34/51/36 37/52/39 29/40/31
f 38/53/40 37/54/39 36/50/38
f 38/55/40 39/56/41 32/43/34
f 38/57/40 31/58/33 29/40/31
f 40/59/42 26/60/28 25/35/27
f 40/61/42 41/62/43 42/63/44
f 40/64/42 43/65/45 27/38/29
f 44/66/46 33/67/35 32/43/34
f 44/68/46 45/69/47 42/63/44
f 44/70/46 41/71/43 25/35/27
f 46/72/48 35/73/37 27/38/29
f 46/72/48 43/74/45 42/63/44
f 46/75/48 47/76/49 36/50/38
f 48/77/50 45/78/47 32/43/34
f 48/79/50 39/80/41 36/50/38
f 48/77/50 47/76/49 42/63/44
f 49/81/51 50/82/52 51/83/53
f 49/84/51 52/85/54 53/86/55
f 49/84/51 54/87/56 55/88/57
f 56/89/58 57/90/59 58/91/60
f 56/92/58 59/93/61 51/83/53
f 56/89/58 50/82/52 55/88/57
f 60/94/62 54/95/56 53/86/55
f 60/96/62 61/97/63 62/98/64
f 60/99/62 63/100/65 55/88/57
f 64/101/66 63/102/65 62/98/64
f 64/103/66 65/104/67 58/91/60
f 63/100/65 64/105/66 57/106/59
f 66/107/68 52/108/54 51/83/53
f 66/109/68 67/110/69 68/111/70
f 66/112/68 69/113/71 53/86/55
f 70/114/72 59/115/61 58/91/60
f 70/116/72 71/117/73 68/111/70
f 70/118/72 67/119/69 51/83/53
f 72/120/74 61/121/63 53/86/55
f 72/120/74 69/122/71 68/111/70
f 72/123/74 73/124/75 62/98/64
f 74/125/76 71/126/73 58/91/60
f 74/127/76 65/128/67 62/98/64
f 71/117/73 74/125/76 73/124/75
f 75/129/77 76/130/78 77/131/79
f 75/132/77 78/133/80 79/134/81
f 75/132/77 80/135/82 81/136/83
f 82/137/84 83/138/85 84/139/86
f 82/140/84 85/141/87 77/131/79
f 83/142/85 82/137/84 76/130/78
f 86/143/88 80/144/82 79/134/81
f 86/145/88 87/146/89 88/147/90
f 86/148/88 89/149/91 81/136/83
f 90/150/92 89/151/91 88/147/90
f 90/152/92 91/153/93 84/139/86
f 90/154/92 83/142/85 81/136/83
f 92/155/94 78/156/80 77/131/79
f 92/157/94 93/158/95 94/159/96
f 92/160/94 95/161/97 79/134/81
f 96/162/98 85/163/87 84/139/86
f 93/158/95 96/164/98 97/165/99
f 96/166/98 93/167/95 77/131/79
f 98/168/100 87/169/89 79/134/81
f 98/168/100 95/170/97 94/159/96
f 98/171/100 99/172/101 88/147/90
f 100/173/102 97/174/99 84/139/86
f 100/175/102 91/176/93 88/147/90
f 100/173/102 99/172/101 94/159/96
f 101/177/103 102/178/104 103/179/105
f 101/180/103 104/181/106 105/182/107
f 101/180/103 106/183/108 107/184/109
f 108/185/110 109/186/111 110/187/112
f 108/188/110 111/189/113 103/179/105
f 109/190/111 108/185/110 102/178/104
f 112/191/114 106/192/108 105/182/107
f 112/193/114 113/194/115 114/195/116
f 112/196/114 115/197/117 107/184/109
f 116/198/118 115/199/117 114/195/116
f 116/200/118 117/201/119 110/187/112
f 115/197/117 116/202/118 109/190/111
f 118/203/120 104/204/106 103/179/105
f 118/205/120 119/206/121 120/207/122
f 118/208/120 121/209/123 105/182/107
f 122/210/124 111/211/113 110/187/112
f 119/206/121 122/212/124 123/213/125
f 122/214/124 119/215/121 103/179/105
f 124/216/126 113/217/115 105/182/107
f 124/216/126 121/218/123 120/207/122
f 124/219/126 125/220/127 114/195/116
f 126/221/128 123/222/125 110/187/112
f 126/223/128 117/224/119 114/195/116
f 123/213/125 126/221/128 125/220/127
f 127/225/129 128/226/130 129/227/131
f 127/228/129 130/229/132 131/230/133
f 127/228/129 132/231/134 133/232/135
f 134/233/136 135/234/137 136/235/138
f 134/236/136 137/237/139 129/227/131
f 135/238/137 134/233/136 128/226/130
f 138/239/140 132/240/134 131/230/133
f 138/241/140 139/242/141 140/243/142
f 138/244/140 141/245/143 133/232/135
f 142/246/144 141/247/143 140/243/142
f 142/248/144 143/249/145 136/235/138
f 141/245/143 142/250/144 135/238/137
f 144/251/146 130/252/132 129/227/131
f 144/253/146 145/254/147 146/255/148
f 144/256/146 147/257/149 131/230/133
f 148/258/150 137/259/139 136/235/138
f 145/254/147 148/260/150 149/261/151
f 148/262/150 145/263/147 129/227/131
f 150/264/152 139/265/141 131/230/133
f 150/264/152 147/266/149 146/255/148
f 150/267/152 151/268/153 140/243/142
f 152/269/154 149/270/151 136/235/138
f 152/271/154 143/272/145 140/243/142
f 149/261/151 152/269/154 151/268/153
f 49/81/51 51/83/53 52/108/54
f 49/84/51 53/86/55 54/95/56
f 49/84/51 55/88/57 50/82/52
f 56/89/58 58/91/60 59/115/61
f 56/92/58 51/83/53 50/82/52
f 56/89/58 55/88/57 57/106/59
f 60/94/62 53/86/55 61/121/63
f 60/96/62 62/98/64 63/102/65
f 60/99/62 55/88/57 54/87/56
f 64/101/66 62/98/64 65/128/67
f 64/103/66 58/91/60 57/90/59
f 63/100/65 57/106/59 55/88/57
f 66/107/68 51/83/53 67/119/69
f 66/109/68 68/111/70 69/122/71
f 66/112/68 53/86/55 52/85/54
f 70/114/72 58/91/60 71/126/73
f 70/116/72 68/111/70 67/110/69
f 70/118/72 51/83/53 59/93/61
f 72/120/74 53/86/55 69/113/71
f 72/120/74 68/111/70 73/124/75
f 72/123/74 62/98/64 61/97/63
f 74/125/76 58/91/60 65/104/67
f 74/127/76 62/98/64 73/124/75
f 71/117/73 73/124/75 68/111/70
f 75/129/77 77/131/79 78/156/80
f 75/132/77 79/134/81 80/144/82
f 75/132/77 81/136/83 76/130/78
f 82/137/84 84/139/86 85/163/87
f 82/140/84 77/131/79 76/130/78
f 83/142/85 76/130/78 81/136/83
f 86/143/88 79/134/81 87/169/89
f 86/145/88 88/147/90 89/151/91
f 86/148/88 81/136/83 80/135/82
f 90/150/92 88/147/90 91/176/93
f 90/152/92 84/139/86 83/138/85
f 90/154/92 81/136/83 89/149/91
f 92/155/94 77/131/79 93/167/95
f 92/157/94 94/159/96 95/170/97
f 92/160/94 79/134/81 78/133/80
f 96/162/98 84/139/86 97/174/99
f 93/158/95 97/165/99 94/159/96
f 96/166/98 77/131/79 85/141/87
f 98/168/100 79/134/81 95/161/97
f 98/168/100 94/159/96 99/172/101
f 98/171/100 88/147/90 87/146/89
f 100/173/102 84/139/86 91/153/93
f 100/175/102 88/147/90 99/172/101
f 100/173/102 94/159/96 97/165/99
f 101/177/103 103/179/105 104/204/106
f 101/180/103 105/182/107 106/192/108
f 101/180/103 107/184/109 102/178/104
f 108/185/110 110/187/112 111/211/113
f 108/188/110 103/179/105 102/178/104
f 109/190/111 102/178/104 107/184/109
f 112/191/114 105/182/107 113/217/115
f 112/193/114 114/195/116 115/199/117
f 112/196/114 107/184/109 106/183/108
f 116/198/118 114/195/116 117/224/119
f 116/200/118 110/187/112 109/186/111
f 115/197/117 109/190/111 107/184/109
f 118/203/120 103/179/105 119/215/121
f 118/205/120 120/207/122 121/218/123
f 118/208/120 105/182/107 104/181/106
f 122/210/124 110/187/112 123/222/125
f 119/206/121 123/213/125 120/207/122
f 122/214/124 103/179/105 111/189/113
f 124/216/126 105/182/107 121/209/123
f 124/216/126 120/207/122 125/220/127
f 124/219/126 114/195/116 113/194/115
f 126/221/128 110/187/112 117/201/119
f 126/223/128 114/195/116 125/220/127
f 123/213/125 125/220/127 120/207/122
f 127/225/129 129/227/131 130/252/132
f 127/228/129 131/230/133 132/240/134
f 127/228/129 133/232/135 128/226/130
f 134/233/136 136/235/138 137/259/139
f 134/236/136 129/227/131 128/226/130
f 135/238/137 128/226/130 133/232/135
f 138/239/140 131/230/133 139/265/141
f 138/241/140 140/243/142 141/247/143
f 138/244/140 133/232/135 132/231/134
f 142/246/144 140/243/142 143/272/145
f 142/248/144 136/235/138 135/234/137
f 141/245/143 135/238/137 133/232/135
f 144/251/146 129/227/131 145/263/147
f 144/253/146 146/255/148 147/266/149
f 144/256/146 131/230/133 130/229/132
f 148/258/150 136/235/138 149/270/151
f 145/254/147 149/261/151 146/255/148
f 148/262/150 129/227/131 137/237/139
f 150/264/152 131/230/133 147/257/149
f 150/264/152 146/255/148 151/268/153
f 150/267/152 140/243/142 139/242/141
f 152/269/154 136/235/138 143/249/145
f 152/271/154 140/243/142 151/268/153
f 149/261/151 151/268/153 146/255/148
f 23/33/25 25/35/27 26/60/28
f 23/36/25 27/38/29 28/47/30
f 23/36/25 29/40/31 24/34/26
f 30/41/32 32/43/34 33/67/35
f 30/44/32 25/35/27 24/34/26
f 30/41/32 29/40/31 31/58/33
f 34/46/36 27/38/29 35/73/37
f 34/48/36 36/50/38 37/54/39
f 34/51/36 29/40/31 28/39/30
f 38/53/40 36/50/38 39/80/41
f 38/55/40 32/43/34 31/42/33
f 38/57/40 29/40/31 37/52/39
f 40/59/42 25/35/27 41/71/43
f 40/61/42 42/63/44 43/74/45
f 40/64/42 27/38/29 26/37/28
f 44/66/46 32/43/34 45/78/47
f 44/68/46 42/63/44 41/62/43
f 44/70/46 25/35/27 33/45/35
f 46/72/48 27/38/29 43/65/45
f 46/72/48 42/63/44 47/76/49
f 46/75/48 36/50/38 35/49/37
f 48/77/50 32/43/34 39/56/41
f 48/79/50 36/50/38 47/76/49
f 48/77/50 42/63/44 45/69/47
f 153/273/155 154/274/156 155/275/157
f 156/276/158 155/275/157 154/274/156
f 157/277/159 155/275/157 156/276/158
f 158/278/160 155/275/157 157/277/159
f 159/279/161 155/275/157 158/278/160
f 160/280/162 155/281/157 159/282/161
f 154/283/156 161/284/163 162/285/164
f 161/284/163 154/283/156 153/286/155
f 156/287/158 162/285/164 163/288/165
f 162/285/164 156/287/158 154/283/156
f 157/289/159 163/288/165 164/290/166
f 163/288/165 157/289/159 156/287/158
f 158/291/160 164/292/166 165/293/167
f 164/292/166 158/291/160 157/294/159
f 159/295/161 165/293/167 166/296/168
f 165/293/167 159/295/161 158/291/160
f 160/280/162 166/297/168 167/298/169
f 166/297/168 160/280/162 159/282/161
f 155/281/157 167/298/169 168/299/8
f 167/298/169 155/281/157 160/280/162
f 169/300/170 170/301/171 171/302/172
f 172/303/173 169/300/170 171/302/172
f 173/304/174 172/303/173 171/302/172
f 174/305/175 173/304/174 171/302/172
f 175/306/176 174/305/175 171/302/172
f 176/307/177 175/308/176 171/309/172
f 177/310/178 178/311/179 169/312/170
f 170/313/171 169/312/170 178/311/179
f 179/314/180 177/310/178 172/315/173
f 169/312/170 172/315/173 177/310/178
f 180/316/181 179/314/180 173/317/174
f 172/315/173 173/317/174 179/314/180
f 181/318/182 180/319/181 174/320/175
f 173/321/174 174/320/175 180/319/181
f 182/322/183 181/318/182 175/323/176
f 174/320/175 175/323/176 181/318/182
f 183/324/184 182/325/183 176/307/177
f 175/308/176 176/307/177 182/325/183
f 184/326/3 183/324/184 171/309/172
f 176/307/177 171/309/172 183/324/184
f 167/298/169 183/324/184 168/299/8
f 168/299/8 183/324/184 184/326/3
f 166/297/168 182/325/183 167/298/169
f 167/298/169 182/325/183 183/324/184
f 165/293/167 181/318/182 166/296/168
f 166/296/168 181/318/182 182/322/183
f 164/292/166 180/319/181 165/293/167
f 165/293/167 180/319/181 181/318/182
f 179/314/180 180/316/181 163/288/165
f 163/288/165 180/316/181 164/290/166
f 177/310/178 179/314/180 162/285/164
f 162/285/164 179/314/180 163/288/165
f 161/284/163 177/310/178 162/285/164
f 177/310/178 161/284/163 178/311/179
f 178/327/179 161/328/163 4/329/185
f 6/330/186 221/7/9 4/329/185
f 221/7/9 305/2/2 4/329/185
f 170/331/5 2/332/187 178/327/188
f 305/2/2 170/331/189 178/327/179
f 4/329/185 305/2/2 178/327/179
f 578/333/190 579/334/191 580/335/192
f 577/336/193 581/337/194 576/338/195
usemtl _cordo_super500.png.002
f 185/339/196 186/340/197 187/341/198
f 186/340/197 188/342/199 189/343/200
f 186/340/197 189/343/200 187/341/198
f 187/341/198 189/343/200 190/344/201
f 185/339/196 187/341/198 191/345/202
f 187/346/198 190/347/201 192/348/203
f 187/346/198 192/348/203 191/349/202
f 191/349/202 192/348/203 193/350/204
f 185/339/196 191/345/202 194/351/205
f 191/345/202 193/352/204 195/353/206
f 191/345/202 195/353/206 194/351/205
f 194/351/205 195/353/206 196/354/207
f 185/339/196 194/351/205 186/340/197
f 194/351/205 196/354/207 197/355/208
f 194/351/205 197/355/208 186/340/197
f 186/340/197 197/355/208 188/342/199
f 189/356/200 188/357/199 198/358/209
f 190/359/201 189/356/200 198/358/209
f 192/360/203 190/359/201 198/358/209
f 193/361/204 192/360/203 198/358/209
f 195/362/206 193/361/204 198/358/209
f 196/363/207 195/362/206 198/358/209
f 197/364/208 196/363/207 198/358/209
f 188/357/199 197/364/208 198/358/209
f 199/365/210 200/366/211 201/367/212
f 199/365/210 201/367/212 202/368/213
f 199/365/210 202/368/213 203/369/214
f 204/370/215 205/371/216 206/372/217
f 206/372/217 205/371/216 207/373/218
f 208/374/219 206/372/217 207/373/218
f 209/375/220 210/376/221 211/377/222
f 212/378/223 213/379/224 214/380/225
f 208/374/219 207/373/218 215/381/226
f 216/382/227 208/374/219 6/383/228
f 6/384/228 7/385/229 217/386/230
f 208/374/219 215/381/226 218/387/231
f 6/384/228 218/388/231 219/389/232
f 208/374/219 218/387/231 6/383/228
f 220/390/233 217/386/230 7/385/229
f 6/384/228 221/391/234 7/385/229
f 222/392/235 220/390/233 7/385/229
f 223/393/236 222/392/235 7/385/229
f 219/389/232 221/391/237 6/384/228
f 221/391/237 224/394/238 7/385/10
f 199/365/210 203/369/214 225/395/239
f 199/365/210 225/395/239 226/396/240
f 227/397/241 228/398/242 229/399/243
f 230/400/244 227/397/241 229/399/243
f 231/401/245 232/402/246 233/403/247
f 234/404/248 235/405/249 233/403/247
f 234/404/248 233/403/247 236/406/250
f 237/407/251 234/408/248 236/409/250
f 238/410/252 237/407/251 236/409/250
f 238/410/252 236/409/250 7/385/10
f 239/411/253 238/410/252 7/385/10
f 240/412/254 239/411/253 7/385/10
f 241/413/255 223/393/236 7/385/229
f 242/414/256 241/415/255 7/416/229
f 7/385/10 224/394/238 243/417/257
f 240/412/254 212/378/223 214/380/225
f 243/417/257 211/377/222 212/378/223
f 7/385/10 243/417/257 212/378/223
f 240/412/254 7/385/10 212/378/223
f 209/375/220 211/377/222 243/417/257
f 200/418/211 244/419/258 245/420/259
f 245/420/259 201/421/212 200/418/211
f 199/422/210 246/423/260 244/419/258
f 200/418/211 199/422/210 244/419/258
f 201/367/212 245/424/259 247/425/261
f 247/425/261 202/368/213 201/367/212
f 202/368/213 247/425/261 248/426/262
f 248/426/262 203/369/214 202/368/213
f 205/427/216 249/428/263 250/429/264
f 250/429/264 207/430/218 205/427/216
f 204/431/215 251/432/265 249/428/263
f 249/428/263 205/427/216 204/431/215
f 206/372/217 252/433/266 251/434/265
f 251/434/265 204/370/215 206/372/217
f 208/374/219 253/435/267 252/433/266
f 252/433/266 206/372/217 208/374/219
f 210/436/221 254/437/268 255/438/269
f 255/438/269 211/439/222 210/436/221
f 209/440/220 256/441/270 254/437/268
f 254/437/268 210/436/221 209/440/220
f 213/442/224 257/443/271 258/444/272
f 258/444/272 214/445/225 213/442/224
f 212/446/223 259/447/273 257/443/271
f 257/443/271 213/442/224 212/446/223
f 207/430/218 250/429/264 260/448/274
f 260/448/274 215/449/226 207/430/218
f 216/382/227 261/450/275 253/435/267
f 253/435/267 208/374/219 216/382/227
f 6/451/228 4/452/276 261/453/275
f 261/453/275 216/454/227 6/451/228
f 215/449/226 260/448/274 262/455/277
f 262/455/277 218/456/231 215/449/226
f 217/457/230 263/458/278 4/452/276
f 4/452/276 6/451/228 217/457/230
f 218/456/231 262/455/277 264/459/279
f 264/459/279 219/460/232 218/456/231
f 220/461/233 265/462/280 263/458/278
f 263/458/278 217/457/230 220/461/233
f 219/460/232 264/459/279 266/463/281
f 266/463/281 221/464/237 219/460/232
f 222/465/235 267/466/282 265/462/280
f 265/462/280 220/461/233 222/465/235
f 223/467/236 268/468/283 267/469/282
f 267/469/282 222/470/235 223/467/236
f 221/464/237 266/463/281 269/471/284
f 269/471/284 224/472/238 221/464/237
f 224/472/238 269/471/284 270/473/285
f 270/473/285 243/474/257 224/472/238
f 203/369/214 248/426/262 271/475/286
f 271/475/286 225/395/239 203/369/214
f 225/395/239 271/475/286 272/476/287
f 272/476/287 226/396/240 225/395/239
f 273/477/288 272/476/287 274/478/289
f 275/479/290 229/399/243 228/398/242
f 235/480/249 276/481/291 246/423/260
f 246/423/260 199/422/210 235/480/249
f 277/482/292 274/478/289 278/483/293
f 278/483/293 233/403/247 232/402/246
f 234/484/248 279/485/294 276/481/291
f 276/481/291 235/480/249 234/484/248
f 280/486/295 281/487/296 282/488/297
f 283/489/298 236/490/250 233/491/247
f 237/492/251 284/493/299 279/485/294
f 279/485/294 234/484/248 237/492/251
f 238/494/252 285/495/300 284/493/299
f 284/493/299 237/492/251 238/494/252
f 236/490/250 283/489/298 5/496/301
f 5/496/301 7/497/10 236/490/250
f 239/498/253 286/499/302 285/495/300
f 285/495/300 238/494/252 239/498/253
f 240/500/254 287/501/303 286/499/302
f 286/499/302 239/498/253 240/500/254
f 241/502/255 288/503/304 268/468/283
f 268/468/283 223/467/236 241/502/255
f 242/414/256 289/504/305 288/505/304
f 288/505/304 241/415/255 242/414/256
f 7/416/229 5/506/301 289/504/305
f 289/504/305 242/414/256 7/416/229
f 214/445/225 258/444/272 287/501/303
f 287/501/303 240/500/254 214/445/225
f 211/439/222 255/438/269 259/447/273
f 259/447/273 212/446/223 211/439/222
f 243/474/257 270/473/285 256/441/270
f 256/441/270 209/440/220 243/474/257
f 290/507/306 291/508/307 292/509/308
f 293/510/309 291/508/307 290/507/306
f 291/508/307 294/511/310 292/509/308
f 295/512/311 296/513/312 297/514/313
f 298/515/314 299/516/315 300/517/316
f 292/509/308 294/511/310 301/518/317
f 294/511/310 302/519/318 301/518/317
f 2/520/319 294/511/310 303/521/320
f 2/520/319 302/519/318 294/511/310
f 2/522/319 304/523/321 302/524/318
f 2/522/319 305/525/322 304/523/321
f 306/526/323 1/527/324 2/522/319
f 2/522/319 1/527/324 305/525/322
f 307/528/325 1/527/324 306/526/323
f 308/529/326 1/527/324 307/528/325
f 305/525/322 1/527/324 309/530/327
f 309/530/327 1/527/324 310/531/328
f 311/532/329 312/533/330 313/534/331
f 312/535/330 314/536/332 313/537/331
f 314/536/332 315/538/333 313/537/331
f 313/537/331 315/538/333 1/527/324
f 315/538/333 316/539/334 1/527/324
f 316/539/334 317/540/335 1/527/324
f 318/541/336 1/527/324 308/529/326
f 319/542/337 1/527/324 318/541/336
f 320/543/338 1/544/324 319/545/337
f 317/540/335 299/516/315 1/527/324
f 297/514/313 310/531/328 299/516/315
f 300/517/316 299/516/315 317/540/335
f 299/516/315 310/531/328 1/527/324
f 297/514/313 296/513/312 310/531/328
f 321/546/339 322/547/340 323/548/341
f 324/549/342 323/548/341 322/547/340
f 325/550/343 326/551/344 321/546/339
f 322/547/340 321/546/339 326/551/344
f 327/552/345 290/553/306 328/554/346
f 292/555/308 328/554/346 290/553/306
f 329/556/347 293/557/309 327/552/345
f 290/553/306 327/552/345 293/557/309
f 330/558/348 291/508/307 329/559/347
f 293/510/309 329/559/347 291/508/307
f 331/560/349 294/511/310 330/558/348
f 291/508/307 330/558/348 294/511/310
f 332/561/350 295/562/311 333/563/351
f 297/564/313 333/563/351 295/562/311
f 334/565/352 296/566/312 332/561/350
f 295/562/311 332/561/350 296/566/312
f 335/567/353 298/568/314 336/569/354
f 300/570/316 336/569/354 298/568/314
f 337/571/355 299/572/315 335/567/353
f 298/568/314 335/567/353 299/572/315
f 328/554/346 292/555/308 338/573/356
f 301/574/317 338/573/356 292/555/308
f 339/575/357 303/521/320 331/560/349
f 294/511/310 331/560/349 303/521/320
f 3/576/358 2/577/319 339/578/357
f 303/579/320 339/578/357 2/577/319
f 338/573/356 301/574/317 340/580/359
f 302/581/318 340/580/359 301/574/317
f 341/582/360 306/583/323 3/576/358
f 2/577/319 3/576/358 306/583/323
f 340/580/359 302/581/318 342/584/361
f 304/585/321 342/584/361 302/581/318
f 343/586/362 307/587/325 341/582/360
f 306/583/323 341/582/360 307/587/325
f 342/584/361 304/585/321 344/588/363
f 305/589/322 344/588/363 304/585/321
f 345/590/364 308/591/326 343/586/362
f 307/587/325 343/586/362 308/591/326
f 346/592/365 318/593/336 345/594/364
f 308/595/326 345/594/364 318/593/336
f 344/588/363 305/589/322 347/596/366
f 309/597/327 347/596/366 305/589/322
f 347/596/366 309/597/327 348/598/367
f 310/599/328 348/598/367 309/597/327
f 349/600/368 350/601/369 325/550/343
f 326/551/344 325/550/343 350/601/369
f 351/602/370 312/603/330 349/600/368
f 350/601/369 349/600/368 312/603/330
f 352/604/371 353/605/372 354/606/373
f 313/607/331 355/608/374 311/609/329
f 356/610/375 314/611/332 351/602/370
f 312/603/330 351/602/370 314/611/332
f 357/612/376 315/613/333 356/610/375
f 314/611/332 356/610/375 315/613/333
f 355/608/374 313/607/331 8/614/377
f 1/615/324 8/614/377 313/607/331
f 358/616/378 316/617/334 357/612/376
f 315/613/333 357/612/376 316/617/334
f 359/618/379 317/619/335 358/616/378
f 316/617/334 358/616/378 317/619/335
f 360/620/380 319/621/337 346/592/365
f 318/593/336 346/592/365 319/621/337
f 361/622/381 320/543/338 360/623/380
f 319/545/337 360/623/380 320/543/338
f 8/624/377 1/544/324 361/622/381
f 320/543/338 361/622/381 1/544/324
f 336/569/354 300/570/316 359/618/379
f 317/619/335 359/618/379 300/570/316
f 333/563/351 297/564/313 337/571/355
f 299/572/315 337/571/355 297/564/313
f 348/598/367 310/599/328 334/565/352
f 296/566/312 334/565/352 310/599/328
f 289/504/305 5/506/301 361/622/381
f 5/506/301 8/624/377 361/622/381
f 5/496/301 283/489/298 8/614/377
f 283/489/298 355/608/374 8/614/377
f 282/488/297 281/487/296 354/606/373
f 281/487/296 352/604/371 354/606/373
f 278/483/293 274/478/289 362/625/382
f 274/478/289 363/626/383 362/625/382
f 274/478/289 272/476/287 363/626/383
f 272/476/287 364/627/384 363/626/383
f 272/476/287 271/475/286 364/627/384
f 271/475/286 365/628/385 364/627/384
f 271/475/286 248/426/262 365/628/385
f 248/426/262 366/629/386 365/628/385
f 248/426/262 247/425/261 366/629/386
f 247/425/261 367/630/387 366/629/386
f 247/425/261 245/424/259 367/630/387
f 245/424/259 323/631/341 367/630/387
f 288/505/304 289/504/305 360/623/380
f 289/504/305 361/622/381 360/623/380
f 268/468/283 288/503/304 346/592/365
f 288/503/304 360/620/380 346/592/365
f 267/469/282 268/468/283 345/594/364
f 268/468/283 346/592/365 345/594/364
f 343/586/362 265/462/280 345/590/364
f 265/462/280 267/466/282 345/590/364
f 341/582/360 263/458/278 343/586/362
f 263/458/278 265/462/280 343/586/362
f 4/452/276 263/458/278 341/582/360
f 341/582/360 3/576/358 4/452/276
f 261/453/275 4/452/276 3/576/358
f 3/576/358 339/578/357 261/453/275
f 339/575/357 331/560/349 261/450/275
f 331/560/349 253/435/267 261/450/275
f 331/560/349 330/558/348 253/435/267
f 330/558/348 252/433/266 253/435/267
f 330/558/348 329/559/347 252/433/266
f 329/559/347 251/434/265 252/433/266
f 321/546/339 323/548/341 244/419/258
f 244/419/258 323/548/341 245/420/259
f 325/550/343 321/546/339 246/423/260
f 321/546/339 244/419/258 246/423/260
f 349/600/368 325/550/343 276/481/291
f 325/550/343 246/423/260 276/481/291
f 351/602/370 349/600/368 279/485/294
f 349/600/368 276/481/291 279/485/294
f 356/610/375 351/602/370 284/493/299
f 351/602/370 279/485/294 284/493/299
f 357/612/376 356/610/375 285/495/300
f 356/610/375 284/493/299 285/495/300
f 358/616/378 357/612/376 286/499/302
f 357/612/376 285/495/300 286/499/302
f 287/501/303 359/618/379 286/499/302
f 359/618/379 358/616/378 286/499/302
f 258/444/272 336/569/354 287/501/303
f 336/569/354 359/618/379 287/501/303
f 257/443/271 335/567/353 258/444/272
f 335/567/353 336/569/354 258/444/272
f 259/447/273 337/571/355 257/443/271
f 337/571/355 335/567/353 257/443/271
f 255/438/269 333/563/351 259/447/273
f 333/563/351 337/571/355 259/447/273
f 332/561/350 333/563/351 254/437/268
f 333/563/351 255/438/269 254/437/268
f 334/565/352 332/561/350 256/441/270
f 332/561/350 254/437/268 256/441/270
f 348/598/367 334/565/352 270/473/285
f 334/565/352 256/441/270 270/473/285
f 347/596/366 348/598/367 269/471/284
f 348/598/367 270/473/285 269/471/284
f 266/463/281 344/588/363 269/471/284
f 344/588/363 347/596/366 269/471/284
f 264/459/279 342/584/361 266/463/281
f 342/584/361 344/588/363 266/463/281
f 262/455/277 340/580/359 342/584/361
f 262/455/277 342/584/361 264/459/279
f 260/448/274 338/573/356 262/455/277
f 338/573/356 340/580/359 262/455/277
f 250/429/264 328/554/346 260/448/274
f 328/554/346 338/573/356 260/448/274
f 249/428/263 327/552/345 250/429/264
f 327/552/345 328/554/346 250/429/264
f 251/432/265 329/556/347 249/428/263
f 249/428/263 329/556/347 327/552/345
f 235/405/249 199/365/210 231/401/245
f 235/405/249 231/401/245 233/403/247
f 199/365/210 226/396/240 368/632/388
f 199/365/210 368/632/388 231/401/245
f 226/396/240 272/476/287 273/477/288
f 369/633/389 273/477/288 274/478/289
f 228/398/242 370/634/390 371/635/391
f 228/398/242 371/635/391 372/636/392
f 232/402/246 373/637/393 278/483/293
f 274/478/289 277/482/292 369/633/389
f 278/483/293 373/637/393 277/482/292
f 372/636/392 275/479/290 228/398/242
f 322/638/340 326/639/344 324/640/342
f 324/640/342 326/639/344 374/641/394
f 374/641/394 326/639/344 375/642/395
f 375/642/395 326/639/344 376/643/396
f 376/643/396 326/639/344 377/644/397
f 378/645/398 379/646/399 380/647/400
f 379/646/399 381/648/401 380/647/400
f 382/649/402 383/650/403 311/532/329
f 350/651/369 312/533/330 311/532/329
f 323/631/341 324/640/342 367/630/387
f 374/641/394 367/630/387 324/640/342
f 367/630/387 374/641/394 366/629/386
f 375/642/395 366/629/386 374/641/394
f 366/629/386 375/642/395 365/628/385
f 376/643/396 365/628/385 375/642/395
f 365/628/385 376/643/396 364/627/384
f 377/644/397 364/627/384 376/643/396
f 364/627/384 384/652/404 363/626/383
f 380/647/400 385/653/405 378/645/398
f 363/626/383 386/654/406 362/625/382
f 311/532/329 362/625/382 382/649/402
f 326/639/344 350/651/369 383/650/403
f 383/650/403 350/651/369 311/532/329
f 377/644/397 326/639/344 387/655/407
f 387/655/407 326/639/344 383/650/403
f 364/627/384 377/644/397 384/652/404
f 384/652/404 388/656/408 363/626/383
f 389/657/409 378/645/398 390/658/410
f 390/658/410 378/645/398 391/659/411
f 392/660/412 382/649/402 362/625/382
f 386/654/406 363/626/383 388/656/408
f 392/660/412 362/625/382 386/654/406
f 385/653/405 391/659/411 378/645/398
f 227/397/241 368/632/388 226/396/240
f 226/396/240 228/398/242 227/397/241
f 230/400/244 231/401/245 368/632/388
f 368/632/388 227/397/241 230/400/244
f 229/399/243 232/402/246 231/401/245
f 231/401/245 230/400/244 229/399/243
f 275/479/290 373/637/393 232/402/246
f 232/402/246 229/399/243 275/479/290
f 228/398/242 226/396/240 273/477/288
f 273/477/288 370/634/390 228/398/242
f 370/634/390 273/477/288 369/633/389
f 369/633/389 371/635/391 370/634/390
f 371/635/391 369/633/389 277/482/292
f 277/482/292 372/636/392 371/635/391
f 372/636/392 277/482/292 373/637/393
f 373/637/393 275/479/290 372/636/392
f 378/645/398 377/644/397 387/655/407
f 387/655/407 379/646/399 378/645/398
f 381/648/401 383/650/403 382/649/402
f 382/649/402 380/647/400 381/648/401
f 379/646/399 387/655/407 383/650/403
f 383/661/403 381/662/401 379/663/399
f 380/647/400 382/649/402 392/660/412
f 392/660/412 385/653/405 380/647/400
f 389/657/409 384/652/404 377/644/397
f 377/644/397 378/645/398 389/657/409
f 390/658/410 388/656/408 384/652/404
f 384/652/404 389/657/409 390/658/410
f 391/659/411 386/654/406 388/656/408
f 388/656/408 390/658/410 391/659/411
f 385/653/405 392/660/412 386/654/406
f 386/654/406 391/659/411 385/653/405
f 280/486/295 233/491/247 278/664/293
f 278/664/293 281/487/296 280/486/295
f 282/488/297 283/489/298 233/491/247
f 233/491/247 280/486/295 282/488/297
f 353/605/372 311/609/329 355/608/374
f 355/608/374 354/606/373 353/605/372
f 352/604/371 362/665/382 353/605/372
f 311/609/329 353/605/372 362/665/382
f 354/606/373 355/608/374 283/489/298
f 283/489/298 282/488/297 354/606/373
f 281/487/296 278/664/293 362/665/382
f 362/665/382 352/604/371 281/487/296
f 393/666/413 394/667/414 395/668/415
f 396/669/416 397/670/417 394/667/414
f 393/666/413 396/669/416 394/667/414
f 396/669/416 393/666/413 398/671/418
f 399/672/419 393/666/413 395/668/415
f 398/671/418 393/666/413 400/673/420
f 400/673/420 393/666/413 399/672/419
f 401/674/421 400/673/420 399/672/419
f 402/675/422 399/672/419 395/668/415
f 403/676/423 401/674/421 399/672/419
f 402/675/422 403/676/423 399/672/419
f 404/677/424 403/676/423 402/675/422
f 394/667/414 402/675/422 395/668/415
f 405/678/425 404/677/424 402/675/422
f 394/667/414 405/678/425 402/675/422
f 397/670/417 405/678/425 394/667/414
f 406/679/426 397/680/417 396/681/416
f 406/679/426 396/681/416 398/682/418
f 406/679/426 398/682/418 400/683/420
f 406/679/426 400/683/420 401/684/421
f 406/679/426 401/684/421 403/685/423
f 406/679/426 403/685/423 404/686/424
f 406/679/426 404/686/424 405/687/425
f 406/679/426 405/687/425 397/680/417
f 407/688/427 408/689/428 409/690/429
f 407/688/427 410/691/430 408/689/428
f 410/691/430 411/692/431 408/689/428
f 410/691/430 412/693/432 411/692/431
f 412/693/432 409/690/429 411/692/431
f 412/693/432 407/688/427 409/690/429
f 409/690/429 413/694/433 414/695/434
f 409/690/429 408/689/428 413/694/433
f 408/689/428 415/696/435 413/694/433
f 408/689/428 411/692/431 415/696/435
f 411/692/431 414/695/434 415/696/435
f 411/692/431 409/690/429 414/695/434
f 414/695/434 416/697/436 417/698/437
f 414/695/434 413/694/433 416/697/436
f 413/694/433 418/699/438 416/697/436
f 413/694/433 415/696/435 418/699/438
f 415/696/435 417/698/437 418/699/438
f 415/696/435 414/695/434 417/698/437
f 419/700/439 420/701/440 421/702/441
f 419/700/439 421/702/441 422/703/442
f 422/703/442 421/702/441 423/704/443
f 422/703/442 423/704/443 424/705/444
f 424/705/444 423/704/443 420/701/440
f 424/705/444 420/701/440 419/700/439
f 420/701/440 425/706/445 426/707/446
f 420/701/440 426/707/446 421/702/441
f 421/702/441 426/707/446 427/708/447
f 421/702/441 427/708/447 423/704/443
f 423/704/443 427/708/447 425/706/445
f 423/704/443 425/706/445 420/701/440
f 425/706/445 428/709/448 429/710/449
f 425/706/445 429/710/449 426/707/446
f 426/707/446 429/710/449 430/711/450
f 426/707/446 430/711/450 427/708/447
f 427/708/447 430/711/450 428/709/448
f 427/708/447 428/709/448 425/706/445
f 407/688/427 422/703/442 410/691/430
f 422/703/442 407/688/427 419/700/439
f 422/703/442 424/705/444 410/691/430
f 410/691/430 424/705/444 412/693/432
f 419/700/439 407/688/427 412/693/432
f 424/705/444 419/700/439 412/693/432
f 431/712/451 432/713/452 433/714/453
f 434/715/454 431/712/451 433/714/453
f 434/716/454 433/717/453 435/718/455
f 435/718/455 436/719/455 434/716/454
f 432/720/452 431/721/451 437/722/456
f 437/722/456 438/723/456 432/720/452
f 439/724/457 440/725/458 441/726/459
f 442/727/460 439/724/457 441/726/459
f 442/728/460 441/729/459 443/730/455
f 443/730/455 444/731/455 442/728/460
f 440/732/458 439/733/457 445/734/456
f 445/734/456 446/735/456 440/732/458
f 447/736/457 448/737/458 449/738/459
f 450/739/460 447/736/457 449/738/459
f 450/740/460 449/741/459 451/742/455
f 451/742/455 452/743/455 450/740/460
f 448/744/458 447/745/457 453/746/456
f 453/746/456 454/747/456 448/744/458
f 455/748/451 456/749/452 457/750/453
f 458/751/454 455/748/451 457/750/453
f 458/752/454 457/753/453 459/754/455
f 459/754/455 460/755/455 458/752/454
f 456/756/452 455/757/451 461/758/456
f 461/758/456 462/759/456 456/756/452
f 463/760/461 464/761/462 465/762/463
f 463/760/461 466/763/464 464/761/462
f 463/760/461 467/764/465 466/763/464
f 463/760/461 468/765/466 467/764/465
f 463/760/461 469/766/467 468/765/466
f 463/760/461 470/767/468 469/766/467
f 463/760/461 471/768/469 470/767/468
f 463/760/461 465/762/463 471/768/469
f 465/769/463 472/770/470 473/771/471
f 465/769/463 464/772/462 472/770/470
f 464/773/462 474/774/472 472/775/470
f 464/773/462 466/776/464 474/774/472
f 466/777/464 475/778/473 474/779/472
f 466/777/464 467/780/465 475/778/473
f 467/781/465 476/782/474 475/783/473
f 467/781/465 468/784/466 476/782/474
f 468/785/466 477/786/475 476/787/474
f 468/785/466 469/788/467 477/786/475
f 469/789/467 478/790/476 477/791/475
f 469/789/467 470/792/468 478/790/476
f 470/793/468 479/794/477 478/795/476
f 470/793/468 471/796/469 479/794/477
f 471/797/469 473/798/471 479/799/477
f 471/797/469 465/800/463 473/798/471
f 480/801/461 481/802/478 482/803/479
f 480/801/461 483/804/480 481/802/478
f 483/804/480 484/805/481 481/802/478
f 483/804/480 485/806/482 484/805/481
f 485/806/482 486/807/483 484/805/481
f 485/806/482 487/808/484 486/807/483
f 487/808/484 488/809/485 486/807/483
f 487/808/484 489/810/486 488/809/485
f 489/810/486 490/811/487 488/809/485
f 489/810/486 491/812/488 490/811/487
f 491/812/488 482/803/479 490/811/487
f 491/812/488 480/801/461 482/803/479
f 482/803/479 492/813/489 493/814/490
f 482/803/479 481/802/478 492/813/489
f 481/802/478 494/815/491 492/813/489
f 481/802/478 484/805/481 494/815/491
f 484/805/481 495/816/492 494/815/491
f 484/805/481 486/807/483 495/816/492
f 486/807/483 496/817/493 495/816/492
f 486/807/483 488/809/485 496/817/493
f 488/809/485 497/818/494 496/817/493
f 488/809/485 490/811/487 497/818/494
f 490/811/487 493/814/490 497/818/494
f 490/811/487 482/803/479 493/814/490
f 493/814/490 498/819/495 499/820/496
f 493/814/490 492/813/489 498/819/495
f 492/813/489 500/821/497 498/819/495
f 492/813/489 494/815/491 500/821/497
f 494/815/491 501/822/498 500/821/497
f 494/815/491 495/816/492 501/822/498
f 495/816/492 502/823/499 501/822/498
f 495/816/492 496/817/493 502/823/499
f 496/817/493 503/824/500 502/823/499
f 496/817/493 497/818/494 503/824/500
f 497/818/494 499/820/496 503/824/500
f 497/818/494 493/814/490 499/820/496
f 499/820/496 504/825/501 505/826/502
f 499/820/496 498/819/495 504/825/501
f 498/819/495 506/827/503 504/825/501
f 498/819/495 500/821/497 506/827/503
f 500/821/497 507/828/504 506/827/503
f 500/821/497 501/822/498 507/828/504
f 501/822/498 508/829/505 507/828/504
f 501/822/498 502/823/499 508/829/505
f 502/823/499 509/830/506 508/829/505
f 502/823/499 503/824/500 509/830/506
f 503/824/500 505/826/502 509/830/506
f 503/824/500 499/820/496 505/826/502
f 505/826/502 510/831/480 511/832/461
f 505/826/502 504/825/501 510/831/480
f 504/825/501 512/833/482 510/831/480
f 504/825/501 506/827/503 512/833/482
f 506/827/503 513/834/484 512/833/482
f 506/827/503 507/828/504 513/834/484
f 507/828/504 514/835/486 513/834/484
f 507/828/504 508/829/505 514/835/486
f 508/829/505 515/836/488 514/835/486
f 508/829/505 509/830/506 515/836/488
f 509/830/506 511/832/461 515/836/488
f 509/830/506 505/826/502 511/832/461
f 516/837/507 517/838/508 518/839/509
f 516/837/507 519/840/510 517/838/508
f 519/840/510 520/841/511 517/838/508
f 519/840/510 521/842/512 520/841/511
f 521/842/512 522/843/513 520/841/511
f 521/842/512 523/844/514 522/843/513
f 523/844/514 524/845/515 522/843/513
f 523/844/514 525/846/516 524/845/515
f 525/846/516 526/847/517 524/845/515
f 525/846/516 527/848/518 526/847/517
f 527/848/518 518/839/509 526/847/517
f 527/848/518 516/837/507 518/839/509
f 518/839/509 528/849/519 529/850/520
f 518/839/509 517/838/508 528/849/519
f 517/838/508 530/851/521 528/849/519
f 517/838/508 520/841/511 530/851/521
f 520/841/511 531/852/522 530/851/521
f 520/841/511 522/843/513 531/852/522
f 522/843/513 532/853/523 531/852/522
f 522/843/513 524/845/515 532/853/523
f 524/845/515 533/854/524 532/853/523
f 524/845/515 526/847/517 533/854/524
f 526/847/517 529/850/520 533/854/524
f 526/847/517 518/839/509 529/850/520
f 529/850/520 534/855/525 535/856/526
f 529/850/520 528/849/519 534/855/525
f 528/849/519 536/857/527 534/855/525
f 528/849/519 530/851/521 536/857/527
f 530/851/521 537/858/528 536/857/527
f 530/851/521 531/852/522 537/858/528
f 531/852/522 538/859/529 537/858/528
f 531/852/522 532/853/523 538/859/529
f 532/853/523 539/860/530 538/859/529
f 532/853/523 533/854/524 539/860/530
f 533/854/524 535/856/526 539/860/530
f 533/854/524 529/850/520 535/856/526
f 540/861/461 541/862/478 542/863/479
f 540/861/461 543/864/480 541/862/478
f 543/864/480 544/865/481 541/862/478
f 543/864/480 545/866/482 544/865/481
f 545/866/482 546/867/483 544/865/481
f 545/866/482 547/868/484 546/867/483
f 547/868/484 548/869/485 546/867/483
f 547/868/484 549/870/486 548/869/485
f 549/870/486 550/871/531 548/869/485
f 549/870/486 551/872/488 550/871/531
f 551/872/488 542/863/479 550/871/531
f 551/872/488 540/861/461 542/863/479
f 542/863/479 552/873/489 553/874/490
f 542/863/479 541/862/478 552/873/489
f 541/862/478 554/875/491 552/873/489
f 541/862/478 544/865/481 554/875/491
f 544/865/481 555/876/492 554/875/491
f 544/865/481 546/867/483 555/876/492
f 546/867/483 556/877/493 555/876/492
f 546/867/483 548/869/485 556/877/493
f 548/869/485 557/878/494 556/877/493
f 548/869/485 550/871/531 557/878/494
f 550/871/531 553/874/490 557/878/494
f 550/871/531 542/863/479 553/874/490
f 553/874/490 558/879/495 559/880/496
f 553/874/490 552/873/489 558/879/495
f 552/873/489 560/881/497 558/879/495
f 552/873/489 554/875/491 560/881/497
f 554/875/491 561/882/498 560/881/497
f 554/875/491 555/876/492 561/882/498
f 555/876/492 562/883/499 561/882/498
f 555/876/492 556/877/493 562/883/499
f 556/877/493 563/884/500 562/883/499
f 556/877/493 557/878/494 563/884/500
f 557/878/494 559/880/496 563/884/500
f 557/878/494 553/874/490 559/880/496
f 559/880/496 564/885/501 565/886/502
f 559/880/496 558/879/495 564/885/501
f 558/879/495 566/887/503 564/885/501
f 558/879/495 560/881/497 566/887/503
f 560/881/497 567/888/504 566/887/503
f 560/881/497 561/882/498 567/888/504
f 561/882/498 568/889/505 567/888/504
f 561/882/498 562/883/499 568/889/505
f 562/883/499 569/890/532 568/889/505
f 562/883/499 563/884/500 569/890/532
f 563/884/500 565/886/502 569/890/532
f 563/884/500 559/880/496 565/886/502
f 565/886/502 570/891/480 571/892/461
f 565/886/502 564/885/501 570/891/480
f 564/885/501 572/893/482 570/891/480
f 564/885/501 566/887/503 572/893/482
f 566/887/503 573/894/484 572/893/482
f 566/887/503 567/888/504 573/894/484
f 567/888/504 574/895/486 573/894/484
f 567/888/504 568/889/505 574/895/486
f 568/889/505 575/896/488 574/895/486
f 568/889/505 569/890/532 575/896/488
f 569/890/532 571/892/461 575/896/488
f 569/890/532 565/886/502 571/892/461
