# Blender v3.0.1 OBJ File: ''
# www.blender.org
mtllib nimrud.mtl
o body_Box01.006
v 0.310731 1.277315 0.475328
v -0.307023 1.277315 0.475328
v -0.275876 -1.754492 0.434467
v -0.730626 1.084365 0.460667
v -0.656762 -1.690645 0.420609
v 0.279584 -1.754492 0.434467
v 0.656762 -1.690644 0.420608
v 0.734335 1.084367 0.460667
v -0.645059 0.775301 0.476563
v -0.401857 1.098101 0.447668
v -0.401848 1.098096 0.318968
v -0.173848 0.688895 0.319000
v -0.173867 0.688905 0.577900
v 0.184433 0.688905 0.577926
v 0.655541 0.775301 0.476657
v 0.184452 0.688895 0.319026
v 0.412452 1.098096 0.319027
v 0.412443 1.098101 0.447727
v 0.140941 1.155501 0.476405
v -0.130459 1.155501 0.476385
v -0.645043 0.775292 0.254863
v 0.655557 0.775292 0.254957
v -0.543173 -0.822082 0.600106
v -0.576655 -0.759492 0.346801
v -0.572754 -0.802993 0.337903
v -0.565374 -0.866283 0.601306
v -0.001720 -0.873282 0.630745
v -0.001518 -0.822782 0.610343
v 0.000001 -0.754593 0.347841
v -0.540241 -0.700100 0.144101
v 0.001516 -0.696101 0.134739
v 0.001719 -0.732601 0.096540
v -0.545139 -0.739701 0.125802
v 0.548527 -0.822082 0.600485
v 0.570626 -0.866283 0.601688
v 0.573545 -0.802993 0.338186
v 0.584945 -0.759492 0.346985
v 0.534660 -0.700100 0.144179
v 0.539661 -0.739701 0.125881
v -0.543172 -0.905884 0.583009
v -0.551054 -0.846493 0.329106
v 0.000002 -0.851292 0.328244
v -0.001517 -0.909783 0.592646
v -0.523039 -0.783900 0.127006
v 0.001517 -0.783200 0.117042
v 0.548528 -0.905884 0.583388
v 0.542646 -0.846493 0.329285
v 0.517461 -0.783900 0.127181
v -0.597662 -0.028620 0.622758
v -0.622945 0.020272 0.390454
v -0.647944 -0.023228 0.381654
v -0.606162 -0.072420 0.623259
v -0.400764 -0.077819 0.650174
v -0.400462 -0.028919 0.632172
v -0.398045 0.025171 0.391571
v -0.631528 0.066062 0.157552
v -0.395527 0.069463 0.148969
v -0.395225 0.031361 0.113271
v -0.639827 0.025963 0.140053
v -0.203062 -0.028620 0.623087
v -0.194862 -0.072420 0.623489
v -0.148044 -0.023228 0.381790
v -0.173045 0.020272 0.390687
v -0.159728 0.066062 0.157586
v -0.151327 0.025963 0.140088
v -0.597660 -0.112421 0.605761
v -0.622944 -0.066730 0.372758
v -0.398044 -0.071530 0.371874
v -0.400461 -0.115920 0.614476
v -0.631527 -0.017738 0.140555
v -0.395526 -0.017539 0.131272
v -0.203060 -0.112421 0.606090
v -0.173044 -0.066730 0.372990
v -0.159727 -0.017738 0.140589
v -0.492179 -0.069271 0.828533
v -0.503174 -0.051674 0.749632
v -0.515473 -0.090374 0.741732
v -0.496179 -0.107071 0.823934
v -0.391880 -0.108970 0.833142
v -0.391980 -0.068370 0.831841
v -0.392474 -0.047374 0.750540
v -0.506068 -0.037077 0.670231
v -0.393068 -0.034977 0.667439
v -0.393166 -0.071777 0.650441
v -0.510167 -0.073677 0.659632
v -0.291779 -0.069271 0.828548
v -0.287679 -0.107071 0.823949
v -0.269573 -0.090374 0.741750
v -0.281874 -0.051674 0.749648
v -0.280068 -0.037077 0.670247
v -0.275967 -0.073677 0.659649
v -0.492178 -0.143671 0.813336
v -0.503172 -0.129074 0.733935
v -0.392472 -0.133374 0.733043
v -0.391978 -0.145771 0.816143
v -0.506067 -0.111477 0.655034
v -0.393067 -0.112277 0.651742
v -0.291778 -0.143671 0.813351
v -0.281872 -0.129074 0.733951
v -0.280067 -0.111477 0.655050
v 0.285921 -0.068471 0.823289
v 0.273527 -0.051174 0.744488
v 0.261127 -0.090374 0.736588
v 0.281821 -0.106571 0.818791
v 0.386021 -0.103471 0.827898
v 0.386021 -0.062871 0.826697
v 0.385327 -0.041874 0.745396
v 0.269433 -0.036277 0.665087
v 0.384733 -0.029477 0.662295
v 0.384634 -0.066278 0.645297
v 0.265333 -0.073077 0.654388
v 0.486021 -0.058971 0.823303
v 0.490121 -0.096671 0.818805
v 0.509527 -0.079374 0.736606
v 0.497127 -0.041274 0.744504
v 0.500033 -0.026777 0.665103
v 0.504133 -0.063177 0.654405
v 0.285922 -0.142971 0.808192
v 0.273528 -0.128474 0.728791
v 0.385328 -0.127874 0.727899
v 0.386022 -0.140271 0.810900
v 0.269434 -0.110777 0.649890
v 0.384734 -0.106878 0.646598
v 0.486022 -0.133471 0.808206
v 0.497128 -0.118574 0.728807
v 0.500034 -0.101277 0.649906
v 0.195939 -0.028620 0.617916
v 0.163356 0.020272 0.385511
v 0.138856 -0.023228 0.376611
v 0.187839 -0.072420 0.618317
v 0.384537 -0.077819 0.645231
v 0.384438 -0.028919 0.627229
v 0.383455 0.025171 0.386527
v 0.146972 0.066062 0.152408
v 0.382473 0.069463 0.143825
v 0.382376 0.031360 0.108127
v 0.138774 0.025961 0.134909
v 0.572839 -0.028620 0.617943
v 0.581039 -0.072420 0.618345
v 0.628056 -0.023228 0.376647
v 0.603655 0.020272 0.385543
v 0.618072 0.066062 0.152442
v 0.626274 0.025961 0.134944
v 0.195940 -0.112421 0.600819
v 0.163357 -0.066730 0.367815
v 0.383457 -0.071530 0.366831
v 0.384439 -0.115920 0.609532
v 0.146974 -0.017738 0.135312
v 0.382474 -0.017539 0.126129
v 0.572840 -0.112421 0.600846
v 0.603657 -0.066730 0.367846
v 0.618074 -0.017738 0.135346
v -0.066350 0.388931 0.900372
v 0.082893 0.388931 0.900372
v 0.082893 0.466731 0.890725
v -0.066350 0.466731 0.890725
v 0.082893 0.585770 0.852118
v -0.066350 0.585770 0.852118
v -0.112616 0.274278 0.893001
v 0.129158 0.274278 0.893001
v 0.129158 0.459738 0.845571
v 0.129158 0.523747 0.817745
v -0.112616 0.523747 0.817745
v -0.112616 0.459738 0.845571
v 0.012346 -0.383912 0.905060
v 0.002580 -0.365954 0.905060
v 0.002580 -0.678656 1.360189
v -0.007184 -0.383912 0.905060
v 0.012346 -0.998190 0.869654
v 0.002580 -0.980232 0.869654
v 0.002580 -1.052350 1.122966
v -0.007184 -0.998190 0.869654
v -0.715212 0.778936 0.557367
v -0.672503 0.773347 0.543305
v -0.681113 0.823590 0.534678
v -0.754590 0.820501 0.556603
v -0.766914 0.766440 0.606979
v -0.793313 0.811096 0.588611
v -0.811069 0.744086 0.628855
v -0.827863 0.797537 0.602725
v -0.863964 0.701884 0.618825
v -0.868670 0.764341 0.598941
v -0.741471 0.782855 0.478117
v -0.771532 0.823030 0.505474
v -0.697599 0.828444 0.483548
v -0.698055 0.780872 0.464055
v -0.811950 0.764352 0.472255
v -0.822368 0.809749 0.501691
v -0.854177 0.730093 0.494129
v -0.855675 0.788510 0.515805
v -0.889322 0.693652 0.539575
v -0.885031 0.759030 0.547813
v -0.430661 -0.812895 -0.117916
v -0.306738 -0.812895 -0.117916
v -0.306738 -1.585509 -0.047104
v -0.430661 -1.585509 -0.047104
v -0.430661 -0.883577 0.321879
v -0.430661 -1.488515 0.321879
v -0.306738 -1.488515 0.321879
v -0.306738 -0.883577 0.321879
v 0.300789 -0.812895 -0.117916
v 0.424712 -0.812895 -0.117916
v 0.424712 -1.585509 -0.047104
v 0.300789 -1.585509 -0.047104
v 0.300789 -0.883577 0.321879
v 0.300789 -1.488515 0.321879
v 0.424712 -1.488515 0.321879
v 0.424712 -0.883577 0.321879
v -0.430661 2.045542 -0.189207
v -0.306738 2.045542 -0.189207
v -0.306738 1.096492 -0.001551
v -0.430661 1.096492 -0.001551
v -0.430661 1.847172 0.279575
v -0.430661 1.269917 0.317130
v -0.306738 1.269916 0.317130
v -0.306738 1.847172 0.279575
v 0.300789 2.045542 -0.189207
v 0.424712 2.045542 -0.189207
v 0.424712 1.096492 -0.001551
v 0.300789 1.096492 -0.001551
v 0.300789 1.847172 0.279575
v 0.300789 1.269916 0.317130
v 0.424712 1.269916 0.317130
v 0.424712 1.847172 0.279575
v 0.580201 -1.801882 -0.154976
v 0.564069 -1.801882 -0.116029
v 0.525121 -1.711882 -0.154976
v 0.525121 -1.801882 -0.099897
v 0.486175 -1.801881 -0.116029
v 0.470042 -1.801881 -0.154976
v 0.486175 -1.801881 -0.193924
v 0.525121 -1.801882 -0.210055
v 0.564069 -1.801882 -0.193924
v 0.564069 -1.584638 -0.116028
v 0.580201 -1.584638 -0.154976
v 0.525121 -1.584638 -0.099897
v 0.486175 -1.584638 -0.116028
v 0.470042 -1.584638 -0.154976
v 0.486175 -1.584638 -0.193924
v 0.525121 -1.584638 -0.210055
v 0.564069 -1.584638 -0.193924
v 0.063116 -0.928091 -0.199127
v 0.030376 -0.916087 -0.143557
v 0.063116 -1.197831 -0.078953
v 0.030376 -1.173343 -0.027147
v -0.035105 -0.916087 -0.143557
v -0.035105 -1.173343 -0.027147
v -0.067845 -0.928091 -0.199127
v -0.067845 -1.197831 -0.078953
v -0.035105 -0.940094 -0.254695
v -0.035105 -1.222319 -0.130758
v 0.030376 -0.940094 -0.254695
v 0.030376 -1.222319 -0.130758
v 0.030376 1.208452 -0.143658
v 0.063116 1.220970 -0.199126
v -0.035105 1.208452 -0.143658
v -0.067845 1.220970 -0.199126
v -0.035105 1.233487 -0.254594
v 0.030376 1.233487 -0.254594
v 0.063116 1.506658 -0.078952
v 0.030376 1.475200 -0.030601
v -0.035105 1.475200 -0.030601
v -0.067845 1.506658 -0.078952
v -0.035105 1.538117 -0.127304
v 0.030376 1.538117 -0.127304
v -0.153866 1.461400 -0.106144
v -0.153866 1.491119 -0.057662
v -0.682960 1.461400 -0.106144
v -0.682960 1.491119 -0.057662
v -0.153866 1.550555 -0.057662
v -0.682960 1.550555 -0.057662
v -0.153866 1.580274 -0.106144
v -0.682960 1.580274 -0.106144
v -0.153866 1.550555 -0.154626
v -0.682960 1.550555 -0.154626
v -0.153866 1.491119 -0.154626
v -0.682960 1.491119 -0.154626
v -0.137158 1.446243 0.015546
v -0.137158 1.371650 -0.106144
v -0.137158 1.595429 0.015546
v -0.137158 1.670024 -0.106144
v -0.137158 1.595429 -0.227836
v -0.137158 1.446243 -0.227836
v 0.133211 1.371650 -0.106144
v 0.133211 1.446243 0.015546
v 0.133211 1.595429 0.015546
v 0.133211 1.670024 -0.106144
v 0.133211 1.595429 -0.227836
v 0.133211 1.446243 -0.227836
v 0.149920 1.461400 -0.106144
v 0.149920 1.491119 -0.057662
v 0.149920 1.550555 -0.057662
v 0.149920 1.580274 -0.106144
v 0.149920 1.550555 -0.154626
v 0.149920 1.491119 -0.154626
v 0.679013 1.461400 -0.106144
v 0.679013 1.491119 -0.057662
v 0.679013 1.550555 -0.057662
v 0.679013 1.580274 -0.106144
v 0.679013 1.550555 -0.154626
v 0.679013 1.491119 -0.154626
v -0.405729 -1.193882 0.846727
v -0.385912 -1.407496 0.877086
v -0.350941 -1.204951 0.847850
v -0.480986 -1.168162 0.852785
v -0.427594 -1.535402 0.867373
v -0.489019 -1.180345 0.831323
v -0.480986 -1.192529 0.809860
v -0.385912 -1.431863 0.834161
v -0.405729 -1.208943 0.820197
v -0.350941 -1.220011 0.821321
v -0.189465 -1.475298 0.883969
v -0.152813 -1.247085 0.852127
v -0.233700 -1.629625 0.876939
v -0.189465 -1.499665 0.841045
v -0.152813 -1.262145 0.825600
v 0.195188 -1.475298 0.883969
v 0.158535 -1.247085 0.852127
v 0.239423 -1.629625 0.876939
v 0.195188 -1.499665 0.841045
v 0.158535 -1.262145 0.825600
v 0.390798 -1.408733 0.877211
v 0.356664 -1.204951 0.847850
v 0.434991 -1.532928 0.867122
v 0.390798 -1.433101 0.834286
v 0.356664 -1.220011 0.821321
v 0.408914 -1.195654 0.846906
v 0.484172 -1.169933 0.852965
v 0.492204 -1.182117 0.831502
v 0.484172 -1.194301 0.810040
v 0.408914 -1.210715 0.820378
v 0.672470 0.823590 0.534678
v 0.663859 0.773347 0.543305
v 0.706568 0.778936 0.557367
v 0.745947 0.820501 0.556603
v 0.758270 0.766440 0.606979
v 0.784668 0.811096 0.588611
v 0.802424 0.744086 0.628855
v 0.819220 0.797537 0.602725
v 0.855319 0.701884 0.618825
v 0.860027 0.764341 0.598941
v 0.688954 0.828444 0.483548
v 0.762887 0.823030 0.505473
v 0.732827 0.782855 0.478117
v 0.689410 0.780872 0.464055
v 0.813724 0.809749 0.501691
v 0.803306 0.764353 0.472255
v 0.847030 0.788510 0.515805
v 0.845534 0.730093 0.494129
v 0.876386 0.759030 0.547813
v 0.880678 0.693652 0.539575
v 0.848309 1.934962 -0.240347
v 0.618445 2.275197 -0.250362
v 0.618445 2.275197 0.080117
v 0.848309 1.924328 -0.040057
v 0.777178 1.811774 0.351089
v 0.617911 2.108486 0.243504
v 0.848309 1.839269 0.120174
v 0.785609 1.786107 0.360523
v 0.848309 1.701047 0.220319
v 0.785609 1.509663 0.420610
v 0.848309 1.541560 0.270391
v 0.848309 1.382075 0.250363
v 0.848309 1.222588 0.150217
v 0.873703 -0.829470 -0.080116
v 0.873703 -0.829470 -0.240348
v 0.848309 1.105631 -0.230333
v 0.848309 1.105631 -0.160231
v 0.713162 -1.669379 -0.200290
v 0.873703 -1.584371 -0.200290
v 0.873703 -1.563106 -0.000000
v 0.713162 -1.733174 -0.070103
v 0.713162 -1.765070 0.120173
v 0.713162 -1.701276 0.170246
v 0.873703 -1.488680 0.140203
v 0.873703 -1.350459 0.270390
v 0.873703 -1.137810 0.290420
v 0.848309 1.148162 0.030043
v 0.873703 -0.871999 0.100144
v 0.581618 -1.488680 0.711029
v 0.485543 -1.254767 0.841218
v 0.873703 -0.978323 0.220318
v 0.485542 -0.627454 0.891290
v 0.485542 0.127448 0.891290
v 0.445605 0.340097 0.871262
v 0.534486 0.627172 0.751088
v 0.673738 0.978042 0.550798
v 0.358793 1.982844 -0.239707
v 0.261863 2.323082 -0.249921
v 0.261863 2.323082 0.087167
v 0.358793 1.972212 -0.035411
v 0.437212 2.291185 0.158670
v 0.301804 2.131700 0.271033
v 0.358793 1.887154 0.128026
v 0.332352 1.833991 0.373180
v 0.358793 1.748932 0.230173
v 0.332352 1.557549 0.434469
v 0.358793 1.589445 0.281248
v 0.358793 1.382075 0.260818
v -0.307023 1.277315 0.475328
v 0.358793 1.222587 0.158670
v 0.369501 -0.829470 -0.076271
v 0.369501 -0.774702 -0.183056
v 0.358793 1.050865 -0.172842
v 0.358793 1.105631 -0.157989
v 0.301804 -1.733225 -0.198849
v 0.369501 -1.584371 -0.198849
v 0.369501 -1.563106 0.005447
v 0.301804 -1.797020 -0.066057
v 0.301804 -1.828917 0.128025
v 0.301804 -1.765122 0.179098
v 0.369501 -1.488680 0.148454
v 0.279584 -1.754491 0.434468
v 0.369501 -1.350459 0.281247
v 0.246332 -1.532539 0.730698
v 0.358793 1.148162 0.036092
v 0.369501 -0.871999 0.107595
v 0.369501 -1.137810 0.301676
v 0.205820 -1.291608 0.863490
v 0.205820 -0.645476 0.914563
v 0.369501 -0.978324 0.230173
v 0.205819 0.132073 0.914563
v 0.188978 0.351101 0.894134
v 0.209533 0.646789 0.771556
v 0.256550 1.056069 0.567262
v -0.844600 1.934960 -0.240347
v -0.614736 2.275197 0.080117
v -0.614736 2.275197 -0.250362
v -0.844600 1.924328 -0.040057
v -0.773470 1.811774 0.351089
v -0.614202 2.108485 0.243504
v -0.844600 1.839269 0.120174
v -0.781900 1.786107 0.360523
v -0.844600 1.701047 0.220319
v -0.781900 1.509663 0.420610
v -0.844600 1.541560 0.270392
v -0.844600 1.382075 0.250363
v -0.844600 1.222587 0.150218
v -0.869994 -0.829470 -0.080116
v -0.844600 1.105631 -0.230333
v -0.869994 -0.829470 -0.240348
v -0.844600 1.105631 -0.160231
v -0.709452 -1.669379 -0.200290
v -0.869994 -1.563106 -0.000000
v -0.869994 -1.584371 -0.200290
v -0.709452 -1.733174 -0.070103
v -0.709452 -1.765070 0.120173
v -0.709452 -1.701276 0.170246
v -0.869994 -1.488680 0.140203
v -0.656762 -1.690644 0.420609
v -0.869994 -1.350459 0.270390
v -0.577909 -1.488680 0.711029
v -0.844600 1.148162 0.030043
v -0.869994 -0.871999 0.100144
v -0.869994 -1.137810 0.290420
v -0.481833 -1.254767 0.841218
v -0.481833 -0.627454 0.891290
v -0.869994 -0.978324 0.220318
v -0.481833 0.127448 0.891290
v -0.441896 0.340097 0.871262
v -0.530778 0.627172 0.751088
v -0.670029 0.978042 0.550798
v -0.355084 1.982844 -0.239707
v -0.258154 2.323082 -0.249921
v -0.258154 2.323082 0.087167
v -0.355084 1.972212 -0.035411
v -0.433503 2.291185 0.158670
v -0.298095 2.131700 0.271033
v -0.355084 1.887153 0.128026
v -0.328644 1.833991 0.373180
v -0.355084 1.748932 0.230173
v -0.328644 1.557548 0.434469
v -0.355084 1.589445 0.281248
v -0.355084 1.382075 0.260818
v 0.310731 1.277315 0.475328
v -0.355084 1.222587 0.158670
v -0.365792 -0.829470 -0.076271
v -0.365792 -0.774702 -0.183056
v -0.355084 1.050865 -0.172842
v -0.355084 1.105631 -0.157989
v -0.298094 -1.733225 -0.198849
v -0.365792 -1.584371 -0.198849
v -0.365792 -1.563106 0.005447
v -0.298094 -1.797020 -0.066057
v -0.298094 -1.828917 0.128025
v -0.298094 -1.765122 0.179098
v -0.365792 -1.488680 0.148454
v -0.275876 -1.754491 0.434468
v -0.365792 -1.350459 0.281247
v -0.242624 -1.532539 0.730698
v -0.355084 1.148162 0.036092
v -0.365792 -0.871999 0.107595
v -0.365792 -1.137810 0.301676
v -0.202111 -1.291609 0.863490
v -0.202111 -0.645476 0.914563
v -0.365792 -0.978324 0.230173
v -0.202111 0.132073 0.914563
v -0.185269 0.351101 0.894134
v -0.205824 0.646789 0.771556
v -0.252842 1.056069 0.567262
v -0.153866 -1.255362 -0.106145
v -0.153866 -1.225643 -0.057663
v -0.682960 -1.255362 -0.106145
v -0.682960 -1.225643 -0.057663
v -0.153866 -1.166206 -0.057663
v -0.682960 -1.166206 -0.057663
v -0.153866 -1.136488 -0.106145
v -0.682960 -1.136488 -0.106145
v -0.153866 -1.166206 -0.154627
v -0.682960 -1.166206 -0.154627
v -0.153866 -1.225643 -0.154627
v -0.682960 -1.225643 -0.154627
v -0.137158 -1.270519 0.015546
v -0.137158 -1.345112 -0.106145
v -0.137158 -1.121331 0.015546
v -0.137158 -1.046738 -0.106145
v -0.137158 -1.121331 -0.227836
v -0.137158 -1.270519 -0.227836
v 0.133211 -1.345112 -0.106145
v 0.133211 -1.270519 0.015546
v 0.133211 -1.121331 0.015546
v 0.133211 -1.046738 -0.106145
v 0.133211 -1.121331 -0.227836
v 0.133211 -1.270519 -0.227836
v 0.149920 -1.255362 -0.106145
v 0.149920 -1.225643 -0.057663
v 0.149920 -1.166206 -0.057663
v 0.149920 -1.136488 -0.106145
v 0.149920 -1.166206 -0.154627
v 0.149920 -1.225643 -0.154627
v 0.679012 -1.255362 -0.106145
v 0.679012 -1.225643 -0.057663
v 0.679012 -1.166206 -0.057663
v 0.679012 -1.136488 -0.106145
v 0.679012 -1.166206 -0.154627
v 0.679012 -1.225643 -0.154627
v -0.730626 1.084365 0.460667
v 0.656762 -1.690644 0.420608
v 0.734335 1.084367 0.460667
v 0.581618 -1.488680 0.711029
v 0.485543 -1.254767 0.841218
v 0.485542 -0.627454 0.891290
v 0.485542 0.127448 0.891290
v 0.445605 0.340097 0.871262
v 0.534486 0.627172 0.751088
v 0.673738 0.978042 0.550798
v 0.279584 -1.754491 0.434468
v 0.246332 -1.532539 0.730698
v 0.205820 -1.291608 0.863490
v 0.205820 -0.645476 0.914563
v 0.205819 0.132073 0.914563
v 0.188978 0.351101 0.894134
v 0.209533 0.646789 0.771556
v 0.256550 1.056069 0.567262
v -0.656762 -1.690644 0.420609
v -0.577909 -1.488680 0.711029
v -0.481833 -1.254767 0.841218
v -0.481833 -0.627454 0.891290
v -0.481833 0.127448 0.891290
v -0.441896 0.340097 0.871262
v -0.530778 0.627172 0.751088
v -0.670029 0.978042 0.550798
v -0.275876 -1.754491 0.434468
v -0.242624 -1.532539 0.730698
v -0.202111 -1.291609 0.863490
v -0.202111 -0.645476 0.914563
v -0.202111 0.132073 0.914563
v -0.185269 0.351101 0.894134
v -0.205824 0.646789 0.771556
v -0.252842 1.056069 0.567262
vt 0.361279 0.699528
vt 0.361279 0.699528
vt 0.361279 0.699528
vt 0.361279 0.699528
vt 0.361279 0.699528
vt 0.361279 0.699528
vt 0.361279 0.699528
vt 0.361279 0.699528
vt 0.757616 0.332647
vt 0.804443 0.319598
vt 0.804615 0.300986
vt 0.849076 0.290240
vt 0.849076 0.297289
vt 0.831028 0.296297
vt 0.862799 0.297289
vt 0.880847 0.296297
vt 0.862799 0.290240
vt 0.805983 0.300986
vt 0.805812 0.319598
vt 0.758985 0.332647
vt 0.781731 0.282963
vt 0.789226 0.288039
vt 0.791234 0.278203
vt 0.780408 0.271631
vt 0.780408 0.277298
vt 0.781731 0.265964
vt 0.791234 0.270724
vt 0.757893 0.300578
vt 0.831028 0.290263
vt 0.880847 0.290263
vt 0.759262 0.300578
vt 0.789226 0.260887
vt 0.655955 0.545980
vt 0.667679 0.545980
vt 0.667679 0.513043
vt 0.679404 0.545980
vt 0.679404 0.513043
vt 0.667679 0.513043
vt 0.679404 0.513043
vt 0.667682 0.513899
vt 0.655955 0.545980
vt 0.667679 0.545980
vt 0.667679 0.513043
vt 0.679404 0.545980
vt 0.679404 0.513043
vt 0.655955 0.545980
vt 0.667679 0.545980
vt 0.679404 0.545980
vt 0.679404 0.513043
vt 0.667679 0.513043
vt 0.679404 0.480105
vt 0.667679 0.480105
vt 0.655955 0.545980
vt 0.667679 0.545980
vt 0.679404 0.545980
vt 0.679404 0.513043
vt 0.655955 0.480105
vt 0.655955 0.513043
vt 0.655955 0.480105
vt 0.655955 0.513043
vt 0.655955 0.545980
vt 0.667679 0.545980
vt 0.667705 0.513813
vt 0.679404 0.480105
vt 0.667679 0.480105
vt 0.655955 0.480105
vt 0.655955 0.513043
vt 0.679404 0.545980
vt 0.679404 0.513043
vt 0.679404 0.480105
vt 0.667679 0.480105
vt 0.655955 0.480105
vt 0.655955 0.513043
vt 0.655955 0.513043
vt 0.679404 0.480105
vt 0.667679 0.480105
vt 0.679404 0.480105
vt 0.667679 0.480105
vt 0.655955 0.480105
vt 0.655955 0.513043
vt 0.655278 0.545888
vt 0.667309 0.545888
vt 0.667309 0.514487
vt 0.679340 0.545888
vt 0.679340 0.514487
vt 0.667309 0.514487
vt 0.679340 0.514487
vt 0.667312 0.517527
vt 0.655278 0.545888
vt 0.667309 0.545888
vt 0.667309 0.514487
vt 0.679340 0.545888
vt 0.679340 0.514487
vt 0.655278 0.545888
vt 0.667309 0.545888
vt 0.679340 0.545888
vt 0.679340 0.514487
vt 0.667309 0.514487
vt 0.679340 0.483086
vt 0.667309 0.483086
vt 0.655278 0.545888
vt 0.667309 0.545888
vt 0.679340 0.545888
vt 0.679340 0.514487
vt 0.655278 0.483086
vt 0.655278 0.514487
vt 0.655278 0.483086
vt 0.655278 0.514487
vt 0.655278 0.545888
vt 0.667309 0.545888
vt 0.667422 0.517225
vt 0.679340 0.483086
vt 0.667309 0.483086
vt 0.655278 0.483086
vt 0.655278 0.514487
vt 0.679340 0.545888
vt 0.679340 0.514487
vt 0.679340 0.483086
vt 0.667309 0.483086
vt 0.655278 0.483086
vt 0.655278 0.514487
vt 0.655278 0.514487
vt 0.679340 0.483086
vt 0.667309 0.483086
vt 0.679340 0.483086
vt 0.667309 0.483086
vt 0.655278 0.483086
vt 0.655278 0.514487
vt 0.655278 0.545888
vt 0.667309 0.545888
vt 0.667309 0.514487
vt 0.679340 0.545888
vt 0.679340 0.514487
vt 0.667309 0.514487
vt 0.679340 0.514487
vt 0.667309 0.516611
vt 0.655278 0.545888
vt 0.667309 0.545888
vt 0.667309 0.514487
vt 0.679340 0.545888
vt 0.679340 0.514487
vt 0.655278 0.514487
vt 0.655278 0.545888
vt 0.667309 0.545888
vt 0.679340 0.545888
vt 0.679340 0.514487
vt 0.667309 0.514487
vt 0.679340 0.483086
vt 0.667309 0.483086
vt 0.655278 0.545888
vt 0.667309 0.545888
vt 0.679340 0.545888
vt 0.679340 0.514487
vt 0.655278 0.483086
vt 0.655278 0.483086
vt 0.655278 0.514487
vt 0.655278 0.545888
vt 0.667309 0.545888
vt 0.667391 0.516397
vt 0.679340 0.483086
vt 0.667309 0.483086
vt 0.655278 0.483086
vt 0.655278 0.514487
vt 0.679340 0.545888
vt 0.679340 0.514487
vt 0.679340 0.483086
vt 0.667309 0.483086
vt 0.655278 0.483086
vt 0.655278 0.514487
vt 0.655278 0.514487
vt 0.679340 0.483086
vt 0.667309 0.483086
vt 0.679340 0.483086
vt 0.667309 0.483086
vt 0.655278 0.483086
vt 0.655278 0.514487
vt 0.655706 0.545308
vt 0.666569 0.545308
vt 0.666569 0.520631
vt 0.677431 0.545308
vt 0.677431 0.520631
vt 0.666569 0.520631
vt 0.677431 0.520631
vt 0.666560 0.522565
vt 0.655706 0.545308
vt 0.666569 0.545308
vt 0.666569 0.520631
vt 0.677431 0.545308
vt 0.677431 0.520631
vt 0.655706 0.520631
vt 0.655706 0.545308
vt 0.666569 0.545308
vt 0.677431 0.545308
vt 0.677431 0.520631
vt 0.666569 0.520631
vt 0.677431 0.495953
vt 0.666569 0.495953
vt 0.655706 0.545308
vt 0.666569 0.545308
vt 0.677431 0.545308
vt 0.677431 0.520631
vt 0.655706 0.495953
vt 0.655706 0.495953
vt 0.655706 0.520631
vt 0.655706 0.545308
vt 0.666569 0.545308
vt 0.666664 0.522373
vt 0.677431 0.495953
vt 0.666569 0.495953
vt 0.655706 0.495953
vt 0.655706 0.520631
vt 0.677431 0.545308
vt 0.677431 0.520631
vt 0.677431 0.495953
vt 0.666569 0.495953
vt 0.655706 0.495953
vt 0.655706 0.520631
vt 0.655706 0.520631
vt 0.677431 0.495953
vt 0.666569 0.495953
vt 0.677431 0.495953
vt 0.666569 0.495953
vt 0.655706 0.495953
vt 0.655706 0.520631
vt 0.655706 0.545308
vt 0.666569 0.545308
vt 0.666569 0.520631
vt 0.677431 0.545308
vt 0.677431 0.520631
vt 0.666569 0.520631
vt 0.677431 0.520631
vt 0.666569 0.523543
vt 0.655706 0.545308
vt 0.666569 0.545308
vt 0.666569 0.520631
vt 0.677431 0.545308
vt 0.677431 0.520631
vt 0.655706 0.520631
vt 0.655706 0.545308
vt 0.666569 0.545308
vt 0.677431 0.545308
vt 0.677431 0.520631
vt 0.666569 0.520631
vt 0.677431 0.495953
vt 0.666569 0.495953
vt 0.655706 0.545308
vt 0.666569 0.545308
vt 0.677431 0.545308
vt 0.677431 0.520631
vt 0.655706 0.495953
vt 0.655706 0.495953
vt 0.655706 0.520631
vt 0.655706 0.545308
vt 0.666569 0.545308
vt 0.666696 0.523251
vt 0.677431 0.495953
vt 0.666569 0.495953
vt 0.655706 0.495953
vt 0.655706 0.520631
vt 0.677431 0.545308
vt 0.677431 0.520631
vt 0.677431 0.495953
vt 0.666569 0.495953
vt 0.655706 0.495953
vt 0.655706 0.520631
vt 0.655706 0.520631
vt 0.677431 0.495953
vt 0.666569 0.495953
vt 0.677431 0.495953
vt 0.666569 0.495953
vt 0.655706 0.495953
vt 0.655706 0.520631
vt 0.419608 0.136159
vt 0.027306 0.130173
vt 0.061105 0.175038
vt 0.093785 0.195469
vt 0.182218 0.203089
vt 0.291998 0.201976
vt 0.319976 0.200692
vt 0.359255 0.182327
vt 0.409872 0.150243
vt 0.297097 0.932929
vt 0.414764 0.864794
vt 0.306863 0.867840
vt 0.397135 0.928607
vt 0.288195 0.962107
vt 0.376025 0.957213
vt 0.450385 0.551158
vt 0.552150 0.600761
vt 0.558304 0.551158
vt 0.447375 0.600761
vt 0.320518 0.551158
vt 0.321290 0.600761
vt 0.283935 0.548171
vt 0.285773 0.593679
vt 0.215597 0.548836
vt 0.247798 0.584620
vt 0.233215 0.545720
vt 0.217657 0.598093
vt 0.172626 0.555963
vt 0.180818 0.619201
vt 0.149396 0.564176
vt 0.169655 0.628386
vt 0.484908 0.366437
vt 0.518364 0.321349
vt 0.125765 0.327366
vt 0.453314 0.386680
vt 0.365262 0.395710
vt 0.261147 0.394978
vt 0.228376 0.394167
vt 0.182146 0.371233
vt 0.134703 0.341392
vt 0.189660 0.932929
vt 0.184746 0.867840
vt 0.072297 0.864794
vt 0.093529 0.928607
vt 0.198562 0.962107
vt 0.114639 0.957213
vt 0.450385 0.478821
vt 0.558304 0.478821
vt 0.552150 0.429218
vt 0.447375 0.429218
vt 0.320518 0.478821
vt 0.321290 0.429218
vt 0.283935 0.481807
vt 0.285773 0.436300
vt 0.215597 0.485876
vt 0.233215 0.488992
vt 0.247798 0.450092
vt 0.217657 0.436619
vt 0.172626 0.478749
vt 0.180818 0.415511
vt 0.149396 0.470536
vt 0.169655 0.406326
vt 0.267178 0.504031
vt 0.267178 0.529633
vt 0.254607 0.529633
vt 0.254607 0.504031
vt 0.236911 0.529325
vt 0.236911 0.503723
vt 0.285703 0.496095
vt 0.285703 0.537570
vt 0.255737 0.537570
vt 0.245394 0.537570
vt 0.271694 0.585401
vt 0.271694 0.543926
vt 0.261673 0.551862
vt 0.261673 0.577464
vt 0.245394 0.496095
vt 0.255737 0.496095
vt 0.667457 0.223131
vt 0.695437 0.243309
vt 0.679112 0.243309
vt 0.667457 0.263487
vt 0.683140 0.209531
vt 0.721352 0.209531
vt 0.704728 0.220421
vt 0.706088 0.244562
vt 0.618058 0.910767
vt 0.628715 0.911224
vt 0.627527 0.908588
vt 0.609382 0.907298
vt 0.602427 0.917446
vt 0.598107 0.911158
vt 0.590795 0.918602
vt 0.589256 0.911396
vt 0.579895 0.911945
vt 0.580517 0.907137
vt 0.618870 0.890978
vt 0.609906 0.894532
vt 0.628151 0.895859
vt 0.629683 0.891495
vt 0.603719 0.883773
vt 0.598940 0.889433
vt 0.592514 0.885090
vt 0.590366 0.889775
vt 0.580907 0.892232
vt 0.581169 0.894419
vt 0.539339 0.629833
vt 0.540737 0.667799
vt 0.553184 0.660441
vt 0.552362 0.638108
vt 0.526676 0.628159
vt 0.527587 0.666300
vt 0.509407 0.636068
vt 0.510001 0.658483
vt 0.497930 0.658826
vt 0.497157 0.636475
vt 0.715779 0.271450
vt 0.715779 0.271450
vt 0.603298 0.282396
vt 0.603298 0.282396
vt 0.705489 0.339429
vt 0.617419 0.339429
vt 0.617419 0.339429
vt 0.705489 0.339429
vt 0.715779 0.271450
vt 0.715779 0.271450
vt 0.603298 0.282396
vt 0.603298 0.282396
vt 0.705489 0.339429
vt 0.617419 0.339429
vt 0.617419 0.339429
vt 0.705489 0.339429
vt 0.729700 0.278308
vt 0.729700 0.278308
vt 0.591532 0.307313
vt 0.591532 0.307313
vt 0.700820 0.350767
vt 0.616780 0.356571
vt 0.616780 0.356571
vt 0.700820 0.350767
vt 0.729700 0.278308
vt 0.729700 0.278308
vt 0.591532 0.307313
vt 0.591532 0.307313
vt 0.700820 0.350767
vt 0.616780 0.356571
vt 0.616780 0.356571
vt 0.700820 0.350767
vt 0.542514 0.368227
vt 0.537481 0.380378
vt 0.525330 0.368227
vt 0.525330 0.385410
vt 0.513180 0.380378
vt 0.508147 0.368227
vt 0.513180 0.356076
vt 0.525330 0.351043
vt 0.537481 0.356076
vt 0.537481 0.380378
vt 0.542514 0.368227
vt 0.525330 0.385410
vt 0.513180 0.380378
vt 0.508147 0.368227
vt 0.513180 0.356076
vt 0.525330 0.351043
vt 0.537481 0.356076
vt 0.872173 0.140335
vt 0.880745 0.140133
vt 0.880629 0.176152
vt 0.889012 0.174349
vt 0.449454 0.930590
vt 0.449224 0.934602
vt 0.478491 0.951109
vt 0.477208 0.934733
vt 0.479609 0.951274
vt 0.910518 0.100918
vt 0.913849 0.099366
vt 0.913849 0.115630
vt 0.522094 0.920264
vt 0.449027 0.937956
vt 0.846243 0.137866
vt 0.854835 0.139222
vt 0.832920 0.172743
vt 0.494110 0.920133
vt 0.448830 0.941277
vt 0.863394 0.140525
vt 0.849001 0.177560
vt 0.522094 0.920264
vt 0.462246 0.951274
vt 0.872174 0.178865
vt 0.449652 0.927236
vt 0.477636 0.927400
vt 0.449849 0.923915
vt 0.883882 0.076701
vt 0.875494 0.075372
vt 0.493222 0.920133
vt 0.494110 0.920133
vt 0.899528 0.068728
vt 0.910518 0.181017
vt 0.895854 0.181017
vt 0.493222 0.920133
vt 0.849554 0.072953
vt 0.858345 0.072697
vt 0.866905 0.074000
vt 0.478951 0.920067
vt 0.478063 0.920034
vt 0.494110 0.920133
vt 0.895854 0.043031
vt 0.464910 0.950945
vt 0.478951 0.920067
vt 0.463364 0.951109
vt 0.476945 0.950945
vt 0.832921 0.037042
vt 0.841260 0.034247
vt 0.840762 0.073208
vt 0.849600 0.031452
vt 0.450079 0.919903
vt 0.472605 0.952918
vt 0.478951 0.920067
vt 0.873148 0.032970
vt 0.478063 0.920034
vt 0.493222 0.920133
vt 0.888564 0.038471
vt 0.921173 0.052169
vt 0.918492 0.054528
vt 0.897112 0.042300
vt 0.895854 0.045256
vt 0.502975 0.920837
vt 0.463249 0.944526
vt 0.503082 0.919047
vt 0.940374 0.083875
vt 0.910928 0.087751
vt 0.910518 0.083875
vt 0.463249 0.931090
vt 0.459084 0.940627
vt 0.923140 0.041636
vt 0.900019 0.034476
vt 0.901000 0.031452
vt 0.923129 0.045150
vt 0.899130 0.037102
vt 0.922576 0.048813
vt 0.898163 0.039714
vt 0.918516 0.058218
vt 0.923979 0.055781
vt 0.913254 0.055302
vt 0.469754 0.940627
vt 0.488104 0.917168
vt 0.925761 0.033515
vt 0.927824 0.041150
vt 0.921342 0.038224
vt 0.927548 0.046209
vt 0.926406 0.050822
vt 0.471137 0.934990
vt 0.469754 0.940627
vt 0.469754 0.940627
vt 0.923206 0.068728
vt 0.487891 0.920766
vt 0.459084 0.940627
vt 0.487997 0.918958
vt 0.487767 0.922928
vt 0.939758 0.036514
vt 0.936608 0.041627
vt 0.935804 0.046255
vt 0.935800 0.051314
vt 0.936985 0.058626
vt 0.943464 0.055294
vt 0.946841 0.058373
vt 0.946058 0.065198
vt 0.487076 0.926527
vt 0.463249 0.944526
vt 0.487182 0.924719
vt 0.941621 0.040659
vt 0.947139 0.037182
vt 0.939868 0.043035
vt 0.940334 0.046871
vt 0.941475 0.051008
vt 0.972322 0.041593
vt 0.973805 0.044728
vt 0.975549 0.048293
vt 0.469754 0.940627
vt 0.487288 0.922928
vt 0.939923 0.091626
vt 0.940333 0.095496
vt 0.910518 0.095496
vt 0.502745 0.924807
vt 0.463249 0.931090
vt 0.968134 0.031452
vt 0.969605 0.035185
vt 0.970920 0.038406
vt 0.541981 0.442713
vt 0.577659 0.446228
vt 0.543830 0.452429
vt 0.537685 0.429368
vt 0.599023 0.438836
vt 0.534959 0.423559
vt 0.537062 0.422087
vt 0.598348 0.433344
vt 0.539165 0.423559
vt 0.580476 0.440983
vt 0.541998 0.437351
vt 0.543909 0.447391
vt 0.588984 0.481063
vt 0.550867 0.487563
vt 0.614760 0.473219
vt 0.614612 0.468877
vt 0.592179 0.476983
vt 0.551181 0.483700
vt 0.588984 0.549273
vt 0.550867 0.542773
vt 0.614760 0.557117
vt 0.592179 0.547474
vt 0.614612 0.555581
vt 0.551181 0.540757
vt 0.577866 0.583960
vt 0.543830 0.577907
vt 0.598609 0.591796
vt 0.580690 0.583322
vt 0.597921 0.591420
vt 0.543909 0.577066
vt 0.538900 0.440100
vt 0.535000 0.426700
vt 0.538500 0.426700
vt 0.542277 0.587172
vt 0.537981 0.600517
vt 0.540600 0.449900
vt 0.536700 0.425300
vt 0.576100 0.442100
vt 0.539471 0.600433
vt 0.537368 0.601905
vt 0.542304 0.586642
vt 0.627674 0.907307
vt 0.629005 0.909874
vt 0.618339 0.910003
vt 0.609486 0.907017
vt 0.603099 0.917532
vt 0.598440 0.911491
vt 0.591548 0.919326
vt 0.589616 0.912215
vt 0.580299 0.913278
vt 0.580655 0.908444
vt 0.627598 0.894563
vt 0.609307 0.894241
vt 0.618061 0.890200
vt 0.628887 0.890121
vt 0.598077 0.889753
vt 0.602537 0.883838
vt 0.589534 0.890566
vt 0.591422 0.885770
vt 0.580607 0.895709
vt 0.580225 0.893539
vt 0.553313 0.660616
vt 0.540820 0.667962
vt 0.539507 0.629908
vt 0.552540 0.638231
vt 0.527645 0.666430
vt 0.526819 0.628201
vt 0.510037 0.658554
vt 0.509493 0.636088
vt 0.497938 0.658870
vt 0.497214 0.636468
vt 0.975658 0.711170
vt 0.912174 0.708404
vt 0.912174 0.799677
vt 0.975658 0.766487
vt 0.956013 0.874515
vt 0.912026 0.844801
vt 0.525863 0.085276
vt 0.537836 0.061332
vt 0.521993 0.119784
vt 0.518381 0.121194
vt 0.506408 0.100242
vt 0.479470 0.130173
vt 0.483960 0.107725
vt 0.461511 0.104732
vt 0.419608 0.136159
vt 0.439063 0.089766
vt 0.150961 0.055345
vt 0.151206 0.031401
vt 0.422601 0.032897
vt 0.422601 0.043373
vt 0.399671 0.693884
vt 0.441098 0.693884
vt 0.441394 0.737893
vt 0.399671 0.722490
vt 0.397846 0.776603
vt 0.405136 0.794158
vt 0.440104 0.792424
vt 0.414764 0.864794
vt 0.027306 0.130173
vt 0.062570 0.086560
vt 0.080072 0.105039
vt 0.109759 0.108277
vt 0.428587 0.071807
vt 0.145952 0.079842
vt 0.061105 0.175038
vt 0.093785 0.195469
vt 0.132207 0.096824
vt 0.182218 0.203089
vt 0.291998 0.201976
vt 0.319976 0.200692
vt 0.359255 0.182327
vt 0.409872 0.150243
vt 0.791910 0.907763
vt 0.779693 0.948153
vt 0.824635 0.942468
vt 0.853606 0.902079
vt 0.813692 0.708526
vt 0.813692 0.801624
vt 0.911932 0.356062
vt 0.975619 0.350194
vt 0.911932 0.354759
vt 0.975619 0.348891
vt 0.862120 0.821372
vt 0.824723 0.852404
vt 0.911932 0.344336
vt 0.975619 0.338468
vt 0.041566 0.551233
vt 0.073556 0.554718
vt 0.078702 0.606429
vt 0.075944 0.605467
vt 0.911932 0.327398
vt 0.975619 0.321530
vt 0.103262 0.554718
vt 0.108407 0.606429
vt 0.911932 0.307854
vt 0.975619 0.301986
vt 0.911932 0.282443
vt 0.975619 0.282443
vt 0.133375 0.552252
vt 0.144953 0.600579
vt 0.911932 0.262899
vt 0.975619 0.262899
vt 0.913325 0.339449
vt 0.913325 0.346160
vt 0.978923 0.339449
vt 0.978923 0.339449
vt 0.840386 0.381172
vt 0.838610 0.666403
vt 0.919812 0.674960
vt 0.924024 0.372615
vt 0.911932 0.241856
vt 0.911932 0.248567
vt 0.975619 0.248567
vt 0.975619 0.248567
vt 0.787979 0.915345
vt 0.796511 0.933016
vt 0.860058 0.933016
vt 0.839824 0.922924
vt 0.913325 0.246942
vt 0.913325 0.249548
vt 0.978923 0.249548
vt 0.978923 0.246942
vt 0.310835 0.723379
vt 0.310835 0.694201
vt 0.310048 0.778328
vt 0.309460 0.792412
vt 0.913325 0.258668
vt 0.978923 0.258668
vt 0.306863 0.867840
vt 0.913325 0.275606
vt 0.978923 0.275606
vt 0.297097 0.932929
vt 0.397135 0.928607
vt 0.911932 0.253779
vt 0.975619 0.253779
vt 0.913325 0.334237
vt 0.978923 0.334237
vt 0.913325 0.301665
vt 0.978923 0.301665
vt 0.288195 0.962107
vt 0.376025 0.957213
vt 0.450385 0.551158
vt 0.558304 0.551158
vt 0.552150 0.600761
vt 0.447375 0.600761
vt 0.913325 0.321208
vt 0.978923 0.321208
vt 0.320518 0.551158
vt 0.321290 0.600761
vt 0.283935 0.548171
vt 0.285773 0.593679
vt 0.215597 0.548836
vt 0.233215 0.545720
vt 0.247798 0.584620
vt 0.217657 0.598093
vt 0.172626 0.555963
vt 0.180818 0.619201
vt 0.149396 0.564176
vt 0.169655 0.628386
vt 0.508106 0.711170
vt 0.571591 0.799677
vt 0.571591 0.708404
vt 0.508106 0.766487
vt 0.527752 0.874515
vt 0.571738 0.844801
vt 0.018964 0.276222
vt 0.022854 0.310907
vt 0.006930 0.252154
vt 0.026485 0.312324
vt 0.038519 0.291264
vt 0.065595 0.321349
vt 0.061083 0.298786
vt 0.083646 0.295777
vt 0.125765 0.327366
vt 0.106210 0.280735
vt 0.394990 0.246137
vt 0.122757 0.223574
vt 0.394990 0.222069
vt 0.122757 0.234103
vt 0.087086 0.693884
vt 0.049125 0.737893
vt 0.051811 0.693884
vt 0.087086 0.722490
vt 0.088911 0.776603
vt 0.083171 0.794158
vt 0.049412 0.789278
vt 0.072297 0.864794
vt 0.518364 0.321349
vt 0.465622 0.296940
vt 0.484562 0.277078
vt 0.484908 0.366437
vt 0.116739 0.262684
vt 0.401007 0.271984
vt 0.437690 0.299948
vt 0.453314 0.386680
vt 0.365262 0.395710
vt 0.414203 0.289111
vt 0.261147 0.394978
vt 0.228376 0.394167
vt 0.182146 0.371233
vt 0.134703 0.341392
vt 0.701936 0.907763
vt 0.669211 0.942468
vt 0.714153 0.948153
vt 0.640240 0.902078
vt 0.670073 0.708526
vt 0.670073 0.801624
vt 0.819055 0.354759
vt 0.755368 0.350194
vt 0.819055 0.356062
vt 0.755368 0.348891
vt 0.621644 0.821372
vt 0.659042 0.852404
vt 0.819055 0.344336
vt 0.755368 0.338468
vt 0.041566 0.482793
vt 0.078702 0.427597
vt 0.073556 0.479308
vt 0.075944 0.428559
vt 0.819055 0.327398
vt 0.755368 0.321530
vt 0.108407 0.427597
vt 0.103262 0.479308
vt 0.819055 0.307854
vt 0.755368 0.301986
vt 0.819055 0.282443
vt 0.755368 0.282443
vt 0.144953 0.433447
vt 0.133375 0.481774
vt 0.819055 0.262899
vt 0.755368 0.262899
vt 0.817662 0.339449
vt 0.752064 0.339449
vt 0.817662 0.346160
vt 0.752064 0.339449
vt 0.718413 0.381172
vt 0.638987 0.674960
vt 0.720190 0.666403
vt 0.634775 0.372615
vt 0.819055 0.241856
vt 0.755368 0.248567
vt 0.819055 0.248567
vt 0.755368 0.248567
vt 0.712371 0.915345
vt 0.640291 0.933016
vt 0.703838 0.933016
vt 0.660525 0.922924
vt 0.817662 0.246942
vt 0.752064 0.249548
vt 0.817662 0.249548
vt 0.752064 0.246942
vt 0.179022 0.723379
vt 0.179022 0.694201
vt 0.179773 0.778328
vt 0.180513 0.792412
vt 0.752064 0.258668
vt 0.817662 0.258668
vt 0.184746 0.867840
vt 0.752064 0.275606
vt 0.817662 0.275606
vt 0.189660 0.932929
vt 0.093529 0.928607
vt 0.755368 0.253779
vt 0.819055 0.253779
vt 0.817662 0.334237
vt 0.752064 0.334237
vt 0.752064 0.301665
vt 0.817662 0.301665
vt 0.198562 0.962107
vt 0.114639 0.957213
vt 0.450385 0.478821
vt 0.552150 0.429218
vt 0.558304 0.478821
vt 0.447375 0.429218
vt 0.752064 0.321208
vt 0.817662 0.321208
vt 0.320518 0.478821
vt 0.321290 0.429218
vt 0.283935 0.481807
vt 0.285773 0.436300
vt 0.215597 0.485876
vt 0.247798 0.450092
vt 0.233215 0.488992
vt 0.217657 0.436619
vt 0.172626 0.478749
vt 0.180818 0.415511
vt 0.149396 0.470536
vt 0.169655 0.406326
vt 0.161500 0.518700
vt 0.229500 0.518700
vt 0.161500 0.493100
vt 0.981815 0.080092
vt 0.910532 0.076345
vt 0.910518 0.068728
vt 0.981719 0.083683
vt 0.910553 0.083875
vt 0.161500 0.527200
vt 0.229500 0.527200
vt 0.161500 0.501700
vt 0.982739 0.082930
vt 0.989265 0.083185
vt 0.989238 0.083875
vt 0.982958 0.082263
vt 0.989292 0.082494
vt 0.982979 0.081626
vt 0.989314 0.081804
vt 0.982803 0.080939
vt 0.989333 0.081113
vt 0.982352 0.081223
vt 0.982737 0.081379
vt 0.981993 0.082388
vt 0.982573 0.082587
vt 0.982825 0.082231
vt 0.982870 0.081788
vt 0.982750 0.081830
vt 0.982667 0.081840
vt 0.490624 0.933648
vt 0.474347 0.951767
vt 0.490526 0.936936
vt 0.457314 0.951767
vt 0.490756 0.930327
vt 0.474347 0.968800
vt 0.982706 0.082104
vt 0.982773 0.082038
vt 0.982789 0.081923
vt 0.982777 0.081924
vt 0.982763 0.081934
vt 0.982763 0.081990
vt 0.982619 0.082034
vt 0.982770 0.082021
vt 0.982782 0.082004
vt 0.982786 0.081959
vt 0.985663 0.082555
vt 0.985740 0.082516
vt 0.477997 0.933188
vt 0.454716 0.932366
vt 0.454617 0.935654
vt 0.939964 0.087751
vt 0.940374 0.091626
vt 0.910518 0.091626
vt 0.478129 0.929899
vt 0.454847 0.929077
vt 0.491480 0.930360
vt 0.939923 0.095496
vt 0.940333 0.099366
vt 0.910518 0.099366
vt 0.478260 0.925953
vt 0.454979 0.925131
vt 0.985591 0.082615
vt 0.985582 0.082592
vt 0.985611 0.082577
vn 0.0000 0.0513 0.9987
vn -0.0044 0.0513 0.9987
vn 0.0030 0.0523 0.9986
vn 0.0007 0.0513 0.9987
vn 0.2093 0.0212 0.9776
vn 0.2104 0.0261 0.9773
vn 0.2091 0.0190 0.9777
vn 0.0044 0.0512 0.9987
vn 0.0044 0.0513 0.9987
vn -0.9019 0.1775 -0.3937
vn -0.0734 0.1543 0.9853
vn -0.7987 0.6017 -0.0001
vn -0.0036 -1.0000 0.0000
vn -0.0860 0.2178 0.9722
vn 0.8283 -0.1724 0.5331
vn 0.9020 0.1772 -0.3937
vn 0.1829 -0.9831 0.0001
vn 0.7988 0.6016 0.0000
vn 0.0732 0.1543 0.9853
vn -0.0067 0.2120 0.9772
vn -0.1407 0.2230 0.9646
vn -0.8069 0.5907 -0.0001
vn 0.8070 0.5906 0.0000
vn -0.4214 0.6200 0.6618
vn -0.7737 0.6168 0.1444
vn -0.9673 -0.2337 -0.0982
vn -0.7547 -0.1395 0.6411
vn -0.0006 -0.2100 0.9777
vn -0.0003 0.7487 0.6629
vn -0.0001 0.9661 0.2583
vn -0.5200 0.7812 -0.3454
vn 0.0001 0.9684 -0.2494
vn 0.0004 0.2100 -0.9777
vn -0.6847 0.0507 -0.7270
vn 0.4262 0.6195 0.6592
vn 0.7588 -0.1385 0.6364
vn 0.9222 -0.3563 -0.1501
vn 0.8271 0.5526 0.1028
vn 0.5091 0.7852 -0.3525
vn 0.6764 0.0528 -0.7347
vn -0.4228 -0.8429 0.3327
vn -0.5449 -0.8021 -0.2444
vn 0.0001 -0.9650 -0.2621
vn -0.0002 -0.9617 0.2740
vn -0.3927 -0.5999 -0.6970
vn 0.0002 -0.7297 -0.6838
vn 0.4282 -0.8418 0.3286
vn 0.4712 -0.8423 -0.2618
vn 0.3847 -0.6012 -0.7004
vn -0.4477 0.6573 0.6062
vn -0.5132 0.8330 0.2068
vn -0.9976 -0.0139 0.0683
vn -0.6946 -0.1434 0.7050
vn -0.0010 -0.1988 0.9800
vn -0.0006 0.7522 0.6589
vn -0.0010 0.9796 0.2011
vn -0.4605 0.8499 -0.2560
vn 0.0049 0.9786 -0.2055
vn 0.0003 0.1987 -0.9801
vn -0.7363 0.1344 -0.6631
vn 0.4453 0.6527 0.6129
vn 0.6875 -0.1449 0.7116
vn 0.9960 -0.0179 0.0872
vn 0.4098 0.8868 0.2135
vn 0.5520 0.7568 -0.3500
vn 0.7432 0.1328 -0.6557
vn -0.4478 -0.8418 0.3014
vn -0.5130 -0.8477 -0.1352
vn -0.0009 -0.9803 -0.1977
vn -0.0003 -0.9498 0.3129
vn -0.4602 -0.6827 -0.5676
vn 0.0049 -0.8208 -0.5712
vn 0.4455 -0.8401 0.3094
vn 0.4097 -0.8998 -0.1499
vn 0.5518 -0.5604 -0.6176
vn -0.4991 0.5241 0.6901
vn -0.4855 0.8506 0.2019
vn -0.9966 -0.0166 0.0812
vn -0.6565 -0.1509 0.7391
vn 0.0000 -0.1993 0.9799
vn -0.0001 0.6251 0.7806
vn 0.0021 0.9791 0.2034
vn -0.6145 0.6223 -0.4849
vn -0.0096 0.9431 -0.3323
vn -0.0000 0.1992 -0.9800
vn -0.7123 0.1404 -0.6877
vn 0.5014 0.5274 0.6859
vn 0.6615 -0.1500 0.7348
vn 0.9976 -0.0140 0.0684
vn 0.6070 0.7688 0.2011
vn 0.5228 0.7659 -0.3743
vn 0.7077 0.1413 -0.6922
vn -0.4990 -0.7522 0.4304
vn -0.4853 -0.8620 -0.1465
vn 0.0021 -0.9807 -0.1953
vn 0.0000 -0.8800 0.4750
vn -0.6132 -0.3832 -0.6907
vn -0.0095 -0.7384 -0.6743
vn 0.5014 -0.7535 0.4253
vn 0.6070 -0.7863 -0.1151
vn 0.5226 -0.5587 -0.6440
vn -0.5108 0.5148 0.6885
vn -0.5089 0.8352 0.2085
vn -0.9951 -0.0217 0.0962
vn -0.6464 -0.1521 0.7477
vn 0.0093 -0.1998 0.9798
vn -0.0296 0.6233 0.7814
vn -0.0443 0.9773 0.2070
vn -0.6307 0.6162 -0.4718
vn -0.0404 0.9712 -0.2347
vn -0.0082 0.1992 -0.9799
vn -0.7190 0.1385 -0.6811
vn 0.4822 0.5314 0.6965
vn 0.6592 -0.1490 0.7370
vn 0.9965 -0.0145 0.0824
vn 0.4590 0.8648 0.2037
vn 0.5987 0.6325 -0.4915
vn 0.7082 0.1416 -0.6916
vn -0.4716 -0.7636 0.4410
vn -0.4586 -0.8770 -0.1434
vn 0.0444 -0.9804 -0.1917
vn 0.0417 -0.8793 0.4745
vn -0.6084 -0.3912 -0.6906
vn 0.0343 -0.8025 -0.5957
vn 0.5207 -0.7407 0.4246
vn 0.5095 -0.8487 -0.1419
vn 0.6213 -0.3815 -0.6844
vn -0.4474 0.6492 0.6151
vn -0.4126 0.8844 0.2181
vn -0.9949 -0.0202 0.0985
vn -0.6870 -0.1457 0.7119
vn 0.0000 -0.1989 0.9800
vn -0.0001 0.7523 0.6588
vn -0.0000 0.9793 0.2026
vn -0.5565 0.7554 -0.3461
vn 0.0009 0.9910 -0.1335
vn -0.0000 0.1988 -0.9800
vn -0.7481 0.1325 -0.6502
vn 0.4485 0.6506 0.6128
vn 0.6893 -0.1452 0.7098
vn 0.9957 -0.0186 0.0910
vn 0.4135 0.8848 0.2150
vn 0.5555 0.7546 -0.3493
vn 0.7455 0.1331 -0.6531
vn -0.4473 -0.8380 0.3125
vn -0.4124 -0.8994 -0.1447
vn -0.0000 -0.9806 -0.1961
vn 0.0000 -0.9498 0.3129
vn -0.5564 -0.5603 -0.6136
vn 0.0000 -0.8603 -0.5098
vn 0.4484 -0.8384 0.3098
vn 0.4132 -0.8986 -0.1477
vn 0.5555 -0.5583 -0.6163
vn -0.7233 -0.1348 -0.6773
vn -0.5780 0.5869 -0.5670
vn -0.6141 0.4262 -0.6642
vn -0.4606 0.1696 -0.8712
vn -0.5718 0.0390 -0.8195
vn -0.5235 -0.0444 -0.8509
vn -0.3284 -0.2254 -0.9172
vn -0.5334 -0.2139 -0.8184
vn -0.5577 -0.2590 -0.7886
vn -0.0668 0.6535 -0.7539
vn -0.0802 0.7934 -0.6034
vn -0.0507 0.2869 -0.9566
vn -0.0428 0.0403 -0.9983
vn -0.0428 -0.0483 -0.9979
vn -0.0448 -0.2424 -0.9692
vn -0.0423 -0.4099 -0.9111
vn -0.0503 -0.4092 -0.9110
vn -0.0615 -0.2529 -0.9655
vn 0.6141 0.4262 -0.6643
vn 0.5796 0.5829 -0.5695
vn 0.5149 -0.3793 -0.7688
vn 0.4606 0.1696 -0.8712
vn 0.5718 0.0390 -0.8195
vn 0.5235 -0.0444 -0.8509
vn 0.3284 -0.2254 -0.9172
vn 0.5334 -0.2139 -0.8184
vn 0.5577 -0.2590 -0.7886
vn 0.0666 0.6534 -0.7541
vn 0.0795 0.7935 -0.6034
vn 0.0507 0.2869 -0.9566
vn 0.0428 0.0403 -0.9983
vn 0.0428 -0.0483 -0.9979
vn 0.0448 -0.2424 -0.9692
vn 0.0423 -0.4099 -0.9111
vn 0.0503 -0.4092 -0.9110
vn 0.0615 -0.2529 -0.9655
vn -0.2958 0.0904 0.9510
vn 0.1879 0.0611 0.9803
vn 0.3576 0.2206 0.9074
vn -0.3786 0.2078 0.9019
vn 0.3715 0.9208 0.1186
vn -0.3817 0.9166 0.1192
vn -0.1879 0.0127 0.9821
vn 0.1902 0.0007 0.9818
vn 0.7137 0.2065 0.6694
vn 0.8340 0.5202 0.1839
vn -0.8168 0.5154 0.2593
vn -0.6820 0.2171 0.6984
vn 0.9713 -0.2085 -0.1142
vn -0.0000 0.8242 0.5663
vn -0.0141 -0.5509 0.8345
vn -0.9713 -0.2085 -0.1142
vn 0.9115 -0.4080 -0.0521
vn -0.0000 0.9618 0.2738
vn 0.0003 -0.2308 0.9730
vn -0.9115 -0.4081 -0.0521
vn 0.3699 -0.5998 0.7095
vn 0.1260 -0.7293 0.6725
vn 0.1684 0.7504 0.6391
vn 0.1382 0.8831 0.4483
vn 0.6301 -0.3360 0.7001
vn 0.0203 0.8533 0.5210
vn 0.3191 -0.3767 0.8696
vn -0.3063 0.7436 0.5944
vn -0.2345 -0.7173 0.6562
vn -0.7214 0.4232 0.5482
vn -0.0985 -0.4948 -0.8634
vn -0.1822 0.9037 -0.3874
vn -0.2007 0.8501 -0.4869
vn -0.2938 -0.5929 -0.7498
vn -0.0275 -0.3424 -0.9392
vn -0.4153 0.7878 -0.4549
vn -0.1962 -0.5697 -0.7981
vn -0.6981 0.6082 -0.3778
vn -0.5278 -0.8077 -0.2627
vn -0.9276 0.3603 -0.0989
vn -0.6434 -0.0699 -0.7624
vn 0.6434 -0.0699 -0.7624
vn 0.6667 -0.0680 -0.7422
vn -0.6667 -0.0680 -0.7422
vn -1.0000 -0.0000 0.0000
vn 1.0000 0.0000 0.0000
vn -0.5275 -0.1648 -0.8334
vn 0.5275 -0.1648 -0.8334
vn 0.6280 -0.1510 -0.7634
vn -0.6280 -0.1510 -0.7634
vn 0.4605 -0.8877 -0.0000
vn 0.3256 -0.8877 0.3256
vn 0.0000 -1.0000 -0.0000
vn -0.0000 -0.8877 0.4604
vn -0.3256 -0.8877 0.3256
vn -0.4605 -0.8877 0.0000
vn -0.3256 -0.8877 -0.3256
vn -0.0000 -0.8877 -0.4604
vn 0.3256 -0.8877 -0.3256
vn 0.7071 -0.0000 0.7071
vn -0.0000 -0.0000 1.0000
vn -0.7071 -0.0000 0.7071
vn -0.7071 0.0000 -0.7071
vn -0.0000 0.0000 -1.0000
vn 0.7071 0.0000 -0.7071
vn 0.9978 -0.0126 -0.0647
vn 0.5324 0.1776 0.8276
vn 1.0000 -0.0012 -0.0063
vn 0.5042 0.3560 0.7868
vn -0.5320 0.1786 0.8277
vn -0.5034 0.3549 0.7878
vn -0.9978 -0.0131 -0.0655
vn -1.0000 -0.0020 -0.0078
vn -0.4744 -0.1815 -0.8614
vn -0.4980 -0.3487 -0.7940
vn 0.4740 -0.1810 -0.8617
vn 0.4973 -0.3500 -0.7938
vn 0.5301 -0.1680 0.8311
vn 0.9980 0.0108 -0.0624
vn -0.5303 -0.1675 0.8311
vn -0.9980 0.0106 -0.0620
vn -0.4751 0.1736 -0.8626
vn 0.4753 0.1739 -0.8625
vn 0.9984 0.0216 -0.0531
vn 0.5229 -0.3320 0.7851
vn -0.5233 -0.3325 0.7846
vn -0.9984 0.0214 -0.0524
vn -0.4733 0.3401 -0.8126
vn 0.4736 0.3396 -0.8127
vn -0.7673 -0.6413 -0.0000
vn -0.7533 -0.3185 0.5754
vn 0.0000 -0.4886 0.8725
vn -0.7533 0.3185 0.5754
vn 0.0000 0.4886 0.8725
vn -0.7673 0.6413 -0.0000
vn 0.0000 1.0000 0.0000
vn -0.7533 0.3185 -0.5754
vn 0.0000 0.4886 -0.8725
vn -0.7533 -0.3185 -0.5754
vn 0.0000 -0.4886 -0.8725
vn -0.5531 -0.4078 0.7265
vn -0.5508 -0.8347 0.0000
vn -0.5531 0.4078 0.7265
vn -0.5508 0.8347 0.0000
vn -0.5531 0.4078 -0.7265
vn -0.5531 -0.4078 -0.7265
vn 0.5508 -0.8347 0.0000
vn 0.5531 -0.4078 0.7265
vn 0.5531 0.4078 0.7265
vn 0.5508 0.8347 0.0000
vn 0.5531 0.4078 -0.7265
vn 0.5531 -0.4078 -0.7265
vn 0.7673 -0.6413 0.0000
vn 0.7533 -0.3185 0.5754
vn 0.7533 0.3185 0.5754
vn 0.7673 0.6413 0.0000
vn 0.7533 0.3185 -0.5754
vn 0.7533 -0.3185 -0.5754
vn 0.0827 0.1477 0.9856
vn -0.0988 0.0429 0.9942
vn 0.0094 0.1401 0.9901
vn -0.5398 -0.0010 0.8418
vn -0.6932 -0.7159 0.0834
vn -0.9736 -0.1510 0.1712
vn -0.7192 -0.1869 -0.6692
vn -0.1092 -0.1680 -0.9797
vn 0.0777 -0.0555 -0.9954
vn 0.0082 -0.0618 -0.9981
vn -0.0096 0.0403 0.9991
vn 0.0038 0.1376 0.9905
vn -0.2024 -0.9734 0.1078
vn -0.0106 -0.1732 -0.9848
vn 0.0049 -0.0646 -0.9979
vn 0.0091 0.0399 0.9992
vn -0.0050 0.1385 0.9904
vn 0.2026 -0.9733 0.1079
vn 0.0107 -0.1726 -0.9849
vn -0.0036 -0.0654 -0.9978
vn 0.0993 0.0421 0.9942
vn -0.0080 0.1413 0.9899
vn 0.7010 -0.7083 0.0829
vn 0.1078 -0.1679 -0.9799
vn -0.0085 -0.0632 -0.9980
vn -0.0813 0.1471 0.9858
vn 0.5388 0.0047 0.8424
vn 0.9757 -0.1422 0.1668
vn 0.7160 -0.1797 -0.6746
vn -0.0764 -0.0560 -0.9955
vn -0.1684 0.7504 0.6391
vn -0.1260 -0.7293 0.6725
vn -0.3699 -0.5998 0.7095
vn -0.1382 0.8831 0.4483
vn -0.6301 -0.3360 0.7001
vn -0.0203 0.8533 0.5210
vn -0.3192 -0.3767 0.8696
vn 0.3063 0.7436 0.5944
vn 0.2345 -0.7173 0.6562
vn 0.7214 0.4232 0.5482
vn 0.2007 0.8501 -0.4869
vn 0.1822 0.9037 -0.3875
vn 0.0985 -0.4948 -0.8634
vn 0.2938 -0.5929 -0.7498
vn 0.4153 0.7878 -0.4549
vn 0.0275 -0.3424 -0.9392
vn 0.6981 0.6082 -0.3778
vn 0.1962 -0.5697 -0.7981
vn 0.9276 0.3603 -0.0989
vn 0.5278 -0.8077 -0.2627
vn 0.7214 -0.4128 -0.5560
vn 0.4106 0.6517 -0.6377
vn 0.5314 0.8025 0.2713
vn 0.9060 -0.4114 -0.0993
vn 0.5482 0.4632 0.6964
vn 0.3704 0.5258 0.7657
vn 0.9143 -0.2088 -0.3469
vn 0.5970 0.2929 0.7469
vn 0.8511 -0.2448 -0.4645
vn 0.5773 0.0886 0.8117
vn 0.8802 -0.0163 -0.4744
vn 0.8747 0.1849 -0.4479
vn 0.7233 0.1348 0.6773
vn 0.8741 0.3315 -0.3552
vn 0.7383 -0.6700 -0.0773
vn 0.5452 -0.5700 -0.6147
vn 0.5135 0.6087 -0.6048
vn 0.7089 0.6980 -0.1019
vn 0.2886 -0.5588 -0.7775
vn 0.8230 0.1488 -0.5481
vn 0.9375 0.2735 -0.2152
vn 0.4643 -0.8419 -0.2750
vn 0.4792 -0.8124 0.3322
vn 0.5904 -0.6924 0.4148
vn 0.9202 0.2832 -0.2701
vn 0.5615 -0.7120 0.4217
vn 0.9611 0.2321 -0.1495
vn 0.9524 -0.2416 -0.1860
vn 0.7768 0.6114 -0.1506
vn 0.7854 -0.5590 -0.2659
vn 0.6141 -0.4262 0.6642
vn 0.4606 -0.1696 0.8712
vn 0.7952 -0.3690 -0.4811
vn 0.5718 -0.0390 0.8195
vn 0.5235 0.0444 0.8509
vn 0.3284 0.2254 0.9172
vn 0.5334 0.2139 0.8184
vn 0.5577 0.2590 0.7886
vn -0.0346 -0.6880 -0.7249
vn 0.0474 0.7098 -0.7028
vn 0.0427 0.9811 0.1888
vn -0.0479 -0.9640 -0.2615
vn 0.1463 0.8249 0.5461
vn 0.0362 0.4514 0.8916
vn -0.0416 -0.7616 -0.6467
vn 0.0293 0.2737 0.9614
vn -0.0307 -0.4586 -0.8881
vn 0.0309 0.1740 0.9843
vn -0.0163 -0.1114 -0.9936
vn -0.0083 0.3285 -0.9445
vn 0.0615 0.2529 0.9655
vn -0.0067 0.7145 -0.6996
vn -0.0308 -0.9463 -0.3218
vn -0.0783 -0.5125 -0.8551
vn -0.0350 0.1523 -0.9877
vn -0.0019 0.7245 -0.6893
vn 0.0423 -0.5495 -0.8345
vn -0.0015 0.6700 -0.7423
vn -0.0021 0.9574 -0.2886
vn 0.0721 -0.9519 -0.2979
vn 0.0740 -0.9331 0.3520
vn 0.0763 -0.8845 0.4602
vn -0.0057 0.7998 -0.6003
vn 0.0811 -0.9366 0.3408
vn -0.0099 0.4164 -0.9091
vn 0.0668 -0.6535 0.7539
vn -0.0028 0.9280 -0.3725
vn -0.0030 -0.8906 -0.4548
vn -0.0105 -0.1614 -0.9868
vn 0.0507 -0.2869 0.9566
vn 0.0428 -0.0403 0.9983
vn -0.0072 -0.5953 -0.8035
vn 0.0428 0.0483 0.9979
vn 0.0448 0.2424 0.9692
vn 0.0423 0.4099 0.9111
vn 0.0503 0.4092 0.9110
vn -0.7214 -0.4128 -0.5560
vn -0.5314 0.8025 0.2713
vn -0.4106 0.6517 -0.6377
vn -0.9060 -0.4114 -0.0993
vn -0.5482 0.4632 0.6964
vn -0.3704 0.5258 0.7657
vn -0.9143 -0.2088 -0.3469
vn -0.5970 0.2929 0.7469
vn -0.8511 -0.2448 -0.4645
vn -0.5773 0.0886 0.8117
vn -0.8802 -0.0163 -0.4744
vn -0.8747 0.1849 -0.4479
vn -0.7233 0.1348 0.6773
vn -0.8741 0.3315 -0.3552
vn -0.7383 -0.6700 -0.0773
vn -0.5135 0.6087 -0.6048
vn -0.5452 -0.5700 -0.6147
vn -0.7089 0.6980 -0.1019
vn -0.2886 -0.5588 -0.7775
vn -0.9375 0.2735 -0.2152
vn -0.8230 0.1488 -0.5481
vn -0.4643 -0.8419 -0.2750
vn -0.4792 -0.8124 0.3322
vn -0.5904 -0.6924 0.4147
vn -0.9202 0.2832 -0.2703
vn -0.5617 -0.7119 0.4216
vn -0.9611 0.2321 -0.1497
vn -0.6141 -0.4262 0.6643
vn -0.7768 0.6114 -0.1506
vn -0.7854 -0.5590 -0.2659
vn -0.9524 -0.2416 -0.1860
vn -0.4606 -0.1696 0.8712
vn -0.5718 -0.0390 0.8195
vn -0.7952 -0.3690 -0.4811
vn -0.5235 0.0444 0.8509
vn -0.3284 0.2254 0.9172
vn -0.5334 0.2139 0.8184
vn -0.5577 0.2590 0.7886
vn 0.0346 -0.6880 -0.7249
vn -0.0474 0.7098 -0.7028
vn -0.0427 0.9811 0.1888
vn 0.0479 -0.9640 -0.2615
vn -0.1463 0.8249 0.5461
vn -0.0362 0.4514 0.8916
vn 0.0416 -0.7616 -0.6467
vn -0.0293 0.2737 0.9614
vn 0.0307 -0.4586 -0.8881
vn -0.0309 0.1740 0.9843
vn 0.0163 -0.1114 -0.9936
vn 0.0083 0.3285 -0.9445
vn -0.0615 0.2529 0.9655
vn 0.0067 0.7145 -0.6996
vn 0.0308 -0.9463 -0.3218
vn 0.0783 -0.5125 -0.8551
vn 0.0350 0.1523 -0.9877
vn 0.0019 0.7245 -0.6893
vn -0.0423 -0.5495 -0.8345
vn 0.0015 0.6700 -0.7423
vn 0.0021 0.9574 -0.2886
vn -0.0721 -0.9519 -0.2979
vn -0.0740 -0.9331 0.3520
vn -0.0763 -0.8845 0.4602
vn 0.0057 0.7998 -0.6003
vn -0.0806 -0.9368 0.3406
vn 0.0099 0.4164 -0.9091
vn -0.0666 -0.6534 0.7541
vn 0.0028 0.9280 -0.3725
vn 0.0030 -0.8906 -0.4548
vn 0.0105 -0.1614 -0.9868
vn -0.0507 -0.2869 0.9566
vn -0.0428 -0.0403 0.9983
vn 0.0072 -0.5953 -0.8035
vn -0.0428 0.0483 0.9979
vn -0.0448 0.2424 0.9692
vn -0.0423 0.4099 0.9111
vn -0.0503 0.4092 0.9110
usemtl Inside.011
s off
f 1/1/1 2/2/1 3/3/1
f 2/2/2 4/4/2 3/3/2
f 4/4/3 5/5/3 3/3/3
f 3/3/1 6/6/4 1/1/1
f 6/6/5 7/7/6 8/8/7
f 1/1/8 6/6/8 8/8/9
s 1
f 9/9/10 10/10/11 11/11/12
f 12/12/13 13/13/14 9/14/10
f 14/15/15 13/13/14 12/12/13
f 15/16/16 14/15/15 16/17/17
f 17/18/18 18/19/19 15/20/16
f 10/21/11 9/22/10 13/23/14
f 19/24/20 20/25/21 13/23/14
f 18/26/19 19/24/20 14/27/15
f 9/9/10 11/11/12 21/28/22
f 12/12/13 9/14/10 21/29/22
f 14/15/15 12/12/13 16/17/17
f 15/16/16 16/17/17 22/30/23
f 17/18/18 15/20/16 22/31/23
f 10/21/11 13/23/14 20/25/21
f 19/24/20 13/23/14 14/27/15
f 18/26/19 14/27/15 15/32/16
f 23/33/24 24/34/25 25/35/26
f 23/36/24 26/37/27 27/38/28
f 23/36/24 28/39/29 29/40/30
f 30/41/31 31/42/32 32/43/33
f 30/44/31 33/45/34 25/35/26
f 30/41/31 24/34/25 29/40/30
f 34/46/35 28/47/29 27/38/28
f 34/48/35 35/49/36 36/50/37
f 34/51/35 37/52/38 29/40/30
f 38/53/39 37/54/38 36/50/37
f 38/55/39 39/56/40 32/43/33
f 38/57/39 31/58/32 29/40/30
f 40/59/41 26/60/27 25/35/26
f 40/61/41 41/62/42 42/63/43
f 40/64/41 43/65/44 27/38/28
f 44/66/45 33/67/34 32/43/33
f 44/68/45 45/69/46 42/63/43
f 44/70/45 41/71/42 25/35/26
f 46/72/47 35/73/36 27/38/28
f 46/72/47 43/74/44 42/63/43
f 46/75/47 47/76/48 36/50/37
f 48/77/49 45/78/46 32/43/33
f 48/79/49 39/80/40 36/50/37
f 48/77/49 47/76/48 42/63/43
f 49/81/50 50/82/51 51/83/52
f 49/84/50 52/85/53 53/86/54
f 49/84/50 54/87/55 55/88/56
f 56/89/57 57/90/58 58/91/59
f 56/92/57 59/93/60 51/83/52
f 56/89/57 50/82/51 55/88/56
f 60/94/61 54/95/55 53/86/54
f 60/96/61 61/97/62 62/98/63
f 60/99/61 63/100/64 55/88/56
f 64/101/65 63/102/64 62/98/63
f 64/103/65 65/104/66 58/91/59
f 63/100/64 64/105/65 57/106/58
f 66/107/67 52/108/53 51/83/52
f 66/109/67 67/110/68 68/111/69
f 66/112/67 69/113/70 53/86/54
f 70/114/71 59/115/60 58/91/59
f 70/116/71 71/117/72 68/111/69
f 70/118/71 67/119/68 51/83/52
f 72/120/73 61/121/62 53/86/54
f 72/120/73 69/122/70 68/111/69
f 72/123/73 73/124/74 62/98/63
f 74/125/75 71/126/72 58/91/59
f 74/127/75 65/128/66 62/98/63
f 71/117/72 74/125/75 73/124/74
f 75/129/76 76/130/77 77/131/78
f 75/132/76 78/133/79 79/134/80
f 75/132/76 80/135/81 81/136/82
f 82/137/83 83/138/84 84/139/85
f 82/140/83 85/141/86 77/131/78
f 83/142/84 82/137/83 76/130/77
f 86/143/87 80/144/81 79/134/80
f 86/145/87 87/146/88 88/147/89
f 86/148/87 89/149/90 81/136/82
f 90/150/91 89/151/90 88/147/89
f 90/152/91 91/153/92 84/139/85
f 90/154/91 83/142/84 81/136/82
f 92/155/93 78/156/79 77/131/78
f 92/157/93 93/158/94 94/159/95
f 92/160/93 95/161/96 79/134/80
f 96/162/97 85/163/86 84/139/85
f 93/158/94 96/164/97 97/165/98
f 96/166/97 93/167/94 77/131/78
f 98/168/99 87/169/88 79/134/80
f 98/168/99 95/170/96 94/159/95
f 98/171/99 99/172/100 88/147/89
f 100/173/101 97/174/98 84/139/85
f 100/175/101 91/176/92 88/147/89
f 100/173/101 99/172/100 94/159/95
f 101/177/102 102/178/103 103/179/104
f 101/180/102 104/181/105 105/182/106
f 101/180/102 106/183/107 107/184/108
f 108/185/109 109/186/110 110/187/111
f 108/188/109 111/189/112 103/179/104
f 109/190/110 108/185/109 102/178/103
f 112/191/113 106/192/107 105/182/106
f 112/193/113 113/194/114 114/195/115
f 112/196/113 115/197/116 107/184/108
f 116/198/117 115/199/116 114/195/115
f 116/200/117 117/201/118 110/187/111
f 115/197/116 116/202/117 109/190/110
f 118/203/119 104/204/105 103/179/104
f 118/205/119 119/206/120 120/207/121
f 118/208/119 121/209/122 105/182/106
f 122/210/123 111/211/112 110/187/111
f 119/206/120 122/212/123 123/213/124
f 122/214/123 119/215/120 103/179/104
f 124/216/125 113/217/114 105/182/106
f 124/216/125 121/218/122 120/207/121
f 124/219/125 125/220/126 114/195/115
f 126/221/127 123/222/124 110/187/111
f 126/223/127 117/224/118 114/195/115
f 123/213/124 126/221/127 125/220/126
f 127/225/128 128/226/129 129/227/130
f 127/228/128 130/229/131 131/230/132
f 127/228/128 132/231/133 133/232/134
f 134/233/135 135/234/136 136/235/137
f 134/236/135 137/237/138 129/227/130
f 135/238/136 134/233/135 128/226/129
f 138/239/139 132/240/133 131/230/132
f 138/241/139 139/242/140 140/243/141
f 138/244/139 141/245/142 133/232/134
f 142/246/143 141/247/142 140/243/141
f 142/248/143 143/249/144 136/235/137
f 141/245/142 142/250/143 135/238/136
f 144/251/145 130/252/131 129/227/130
f 144/253/145 145/254/146 146/255/147
f 144/256/145 147/257/148 131/230/132
f 148/258/149 137/259/138 136/235/137
f 145/254/146 148/260/149 149/261/150
f 148/262/149 145/263/146 129/227/130
f 150/264/151 139/265/140 131/230/132
f 150/264/151 147/266/148 146/255/147
f 150/267/151 151/268/152 140/243/141
f 152/269/153 149/270/150 136/235/137
f 152/271/153 143/272/144 140/243/141
f 149/261/150 152/269/153 151/268/152
f 49/81/50 51/83/52 52/108/53
f 49/84/50 53/86/54 54/95/55
f 49/84/50 55/88/56 50/82/51
f 56/89/57 58/91/59 59/115/60
f 56/92/57 51/83/52 50/82/51
f 56/89/57 55/88/56 57/106/58
f 60/94/61 53/86/54 61/121/62
f 60/96/61 62/98/63 63/102/64
f 60/99/61 55/88/56 54/87/55
f 64/101/65 62/98/63 65/128/66
f 64/103/65 58/91/59 57/90/58
f 63/100/64 57/106/58 55/88/56
f 66/107/67 51/83/52 67/119/68
f 66/109/67 68/111/69 69/122/70
f 66/112/67 53/86/54 52/85/53
f 70/114/71 58/91/59 71/126/72
f 70/116/71 68/111/69 67/110/68
f 70/118/71 51/83/52 59/93/60
f 72/120/73 53/86/54 69/113/70
f 72/120/73 68/111/69 73/124/74
f 72/123/73 62/98/63 61/97/62
f 74/125/75 58/91/59 65/104/66
f 74/127/75 62/98/63 73/124/74
f 71/117/72 73/124/74 68/111/69
f 75/129/76 77/131/78 78/156/79
f 75/132/76 79/134/80 80/144/81
f 75/132/76 81/136/82 76/130/77
f 82/137/83 84/139/85 85/163/86
f 82/140/83 77/131/78 76/130/77
f 83/142/84 76/130/77 81/136/82
f 86/143/87 79/134/80 87/169/88
f 86/145/87 88/147/89 89/151/90
f 86/148/87 81/136/82 80/135/81
f 90/150/91 88/147/89 91/176/92
f 90/152/91 84/139/85 83/138/84
f 90/154/91 81/136/82 89/149/90
f 92/155/93 77/131/78 93/167/94
f 92/157/93 94/159/95 95/170/96
f 92/160/93 79/134/80 78/133/79
f 96/162/97 84/139/85 97/174/98
f 93/158/94 97/165/98 94/159/95
f 96/166/97 77/131/78 85/141/86
f 98/168/99 79/134/80 95/161/96
f 98/168/99 94/159/95 99/172/100
f 98/171/99 88/147/89 87/146/88
f 100/173/101 84/139/85 91/153/92
f 100/175/101 88/147/89 99/172/100
f 100/173/101 94/159/95 97/165/98
f 101/177/102 103/179/104 104/204/105
f 101/180/102 105/182/106 106/192/107
f 101/180/102 107/184/108 102/178/103
f 108/185/109 110/187/111 111/211/112
f 108/188/109 103/179/104 102/178/103
f 109/190/110 102/178/103 107/184/108
f 112/191/113 105/182/106 113/217/114
f 112/193/113 114/195/115 115/199/116
f 112/196/113 107/184/108 106/183/107
f 116/198/117 114/195/115 117/224/118
f 116/200/117 110/187/111 109/186/110
f 115/197/116 109/190/110 107/184/108
f 118/203/119 103/179/104 119/215/120
f 118/205/119 120/207/121 121/218/122
f 118/208/119 105/182/106 104/181/105
f 122/210/123 110/187/111 123/222/124
f 119/206/120 123/213/124 120/207/121
f 122/214/123 103/179/104 111/189/112
f 124/216/125 105/182/106 121/209/122
f 124/216/125 120/207/121 125/220/126
f 124/219/125 114/195/115 113/194/114
f 126/221/127 110/187/111 117/201/118
f 126/223/127 114/195/115 125/220/126
f 123/213/124 125/220/126 120/207/121
f 127/225/128 129/227/130 130/252/131
f 127/228/128 131/230/132 132/240/133
f 127/228/128 133/232/134 128/226/129
f 134/233/135 136/235/137 137/259/138
f 134/236/135 129/227/130 128/226/129
f 135/238/136 128/226/129 133/232/134
f 138/239/139 131/230/132 139/265/140
f 138/241/139 140/243/141 141/247/142
f 138/244/139 133/232/134 132/231/133
f 142/246/143 140/243/141 143/272/144
f 142/248/143 136/235/137 135/234/136
f 141/245/142 135/238/136 133/232/134
f 144/251/145 129/227/130 145/263/146
f 144/253/145 146/255/147 147/266/148
f 144/256/145 131/230/132 130/229/131
f 148/258/149 136/235/137 149/270/150
f 145/254/146 149/261/150 146/255/147
f 148/262/149 129/227/130 137/237/138
f 150/264/151 131/230/132 147/257/148
f 150/264/151 146/255/147 151/268/152
f 150/267/151 140/243/141 139/242/140
f 152/269/153 136/235/137 143/249/144
f 152/271/153 140/243/141 151/268/152
f 149/261/150 151/268/152 146/255/147
f 23/33/24 25/35/26 26/60/27
f 23/36/24 27/38/28 28/47/29
f 23/36/24 29/40/30 24/34/25
f 30/41/31 32/43/33 33/67/34
f 30/44/31 25/35/26 24/34/25
f 30/41/31 29/40/30 31/58/32
f 34/46/35 27/38/28 35/73/36
f 34/48/35 36/50/37 37/54/38
f 34/51/35 29/40/30 28/39/29
f 38/53/39 36/50/37 39/80/40
f 38/55/39 32/43/33 31/42/32
f 38/57/39 29/40/30 37/52/38
f 40/59/41 25/35/26 41/71/42
f 40/61/41 42/63/43 43/74/44
f 40/64/41 27/38/28 26/37/27
f 44/66/45 32/43/33 45/78/46
f 44/68/45 42/63/43 41/62/42
f 44/70/45 25/35/26 33/45/34
f 46/72/47 27/38/28 43/65/44
f 46/72/47 42/63/43 47/76/48
f 46/75/47 36/50/37 35/49/36
f 48/77/49 32/43/33 39/56/40
f 48/79/49 36/50/37 47/76/48
f 48/77/49 42/63/43 45/69/46
f 539/273/154 538/274/155 540/275/156
f 539/273/154 540/275/156 541/276/157
f 539/273/154 541/276/157 542/277/158
f 539/273/154 542/277/158 543/278/159
f 539/273/154 543/278/159 544/279/160
f 539/273/154 544/279/160 545/280/161
f 539/273/154 545/280/161 546/281/162
f 548/282/163 538/283/155 547/284/164
f 538/283/155 548/282/163 540/285/156
f 549/286/165 540/285/156 548/282/163
f 540/285/156 549/286/165 541/287/157
f 550/288/166 541/289/157 549/290/165
f 541/289/157 550/288/166 542/291/158
f 551/292/167 542/291/158 550/288/166
f 542/291/158 551/292/167 543/293/159
f 552/294/168 543/293/159 551/292/167
f 543/293/159 552/294/168 544/295/160
f 553/296/169 544/297/160 552/298/168
f 544/297/160 553/296/169 545/299/161
f 554/300/170 545/299/161 553/296/169
f 545/299/161 554/300/170 546/301/162
f 475/302/171 546/301/162 554/300/170
f 546/301/162 475/302/171 539/303/154
f 556/304/172 555/305/173 537/306/174
f 557/307/175 556/304/172 537/306/174
f 558/308/176 557/307/175 537/306/174
f 559/309/177 558/308/176 537/306/174
f 560/310/178 559/309/177 537/306/174
f 561/311/179 560/310/178 537/306/174
f 562/312/180 561/311/179 537/306/174
f 564/313/181 563/314/182 555/315/173
f 555/315/173 556/316/172 564/313/181
f 565/317/183 564/313/181 556/316/172
f 556/316/172 557/318/175 565/317/183
f 566/319/184 565/320/183 557/321/175
f 557/321/175 558/322/176 566/319/184
f 567/323/185 566/319/184 558/322/176
f 558/322/176 559/324/177 567/323/185
f 568/325/186 567/323/185 559/324/177
f 559/324/177 560/326/178 568/325/186
f 569/327/187 568/328/186 560/329/178
f 560/329/178 561/330/179 569/327/187
f 570/331/188 569/327/187 561/330/179
f 561/330/179 562/332/180 570/331/188
f 400/333/189 570/331/188 562/332/180
f 562/332/180 537/334/174 400/333/189
f 570/331/188 400/333/189 475/302/171
f 554/300/170 570/331/188 475/302/171
f 569/327/187 554/300/170 553/296/169
f 554/300/170 569/327/187 570/331/188
f 552/298/168 568/328/186 553/296/169
f 568/328/186 569/327/187 553/296/169
f 551/292/167 567/323/185 552/294/168
f 567/323/185 568/325/186 552/294/168
f 550/288/166 566/319/184 551/292/167
f 566/319/184 567/323/185 551/292/167
f 549/290/165 565/320/183 550/288/166
f 565/320/183 566/319/184 550/288/166
f 549/286/165 564/313/181 565/317/183
f 564/313/181 549/286/165 548/282/163
f 548/282/163 547/284/164 563/314/182
f 548/282/163 563/314/182 564/313/181
usemtl Material_nimrud.png.001
f 153/335/190 154/336/191 155/337/192
f 156/338/193 153/335/190 155/337/192
f 156/338/193 155/337/192 157/339/194
f 157/339/194 158/340/195 156/338/193
f 159/341/196 160/342/197 154/336/191
f 154/336/191 153/335/190 159/341/196
f 160/342/197 161/343/198 155/337/192
f 155/337/192 154/336/191 160/342/197
f 161/343/198 162/344/199 157/339/194
f 157/339/194 155/337/192 161/343/198
f 162/345/199 163/346/200 158/347/195
f 158/347/195 157/348/194 162/345/199
f 163/349/200 164/350/201 156/338/193
f 156/338/193 158/340/195 163/349/200
f 159/341/196 153/335/190 164/350/201
f 153/335/190 156/338/193 164/350/201
f 165/351/202 166/352/203 167/353/204
f 166/352/203 168/354/205 167/353/204
f 168/354/205 165/351/202 167/353/204
f 169/355/206 170/356/207 171/357/208
f 170/356/207 172/358/209 171/357/208
f 172/358/209 169/355/206 171/357/208
f 173/359/210 174/360/211 175/361/212
f 176/362/213 173/359/210 175/361/212
f 177/363/214 173/359/210 176/362/213
f 176/362/213 178/364/215 177/363/214
f 179/365/216 177/363/214 178/364/215
f 178/364/215 180/366/217 179/365/216
f 181/367/218 179/365/216 180/366/217
f 180/366/217 182/368/219 181/367/218
f 183/369/220 184/370/221 185/371/222
f 185/371/222 186/372/223 183/369/220
f 187/373/224 188/374/225 184/370/221
f 184/370/221 183/369/220 187/373/224
f 189/375/226 190/376/227 188/374/225
f 188/374/225 187/373/224 189/375/226
f 191/377/228 192/378/229 190/376/227
f 190/376/227 189/375/226 191/377/228
f 184/370/221 176/362/213 175/361/212
f 175/361/212 185/371/222 184/370/221
f 188/374/225 178/364/215 176/362/213
f 176/362/213 184/370/221 188/374/225
f 190/376/227 180/366/217 178/364/215
f 178/364/215 188/374/225 190/376/227
f 192/378/229 182/368/219 180/366/217
f 180/366/217 190/376/227 192/378/229
f 191/377/228 181/367/218 182/368/219
f 182/368/219 192/378/229 191/377/228
f 189/379/226 179/380/216 181/381/218
f 181/381/218 191/382/228 189/379/226
f 187/383/224 177/384/214 179/380/216
f 179/380/216 189/379/226 187/383/224
f 183/385/220 173/386/210 177/384/214
f 177/384/214 187/383/224 183/385/220
f 174/387/211 173/386/210 186/388/223
f 173/386/210 183/385/220 186/388/223
f 193/389/230 194/390/231 195/391/232
f 196/392/233 193/389/230 195/391/232
f 197/393/234 193/389/230 196/392/233
f 196/392/233 198/394/234 197/393/234
f 199/395/235 195/391/232 194/390/231
f 194/390/231 200/396/235 199/395/235
f 201/397/230 202/398/231 203/399/232
f 204/400/233 201/397/230 203/399/232
f 205/401/234 201/397/230 204/400/233
f 204/400/233 206/402/234 205/401/234
f 207/403/235 203/399/232 202/398/231
f 202/398/231 208/404/235 207/403/235
f 209/405/236 210/406/237 211/407/238
f 212/408/239 209/405/236 211/407/238
f 213/409/234 209/405/236 212/408/239
f 212/408/239 214/410/234 213/409/234
f 215/411/235 211/407/238 210/406/237
f 210/406/237 216/412/235 215/411/235
f 217/413/236 218/414/237 219/415/238
f 220/416/239 217/413/236 219/415/238
f 221/417/234 217/413/236 220/416/239
f 220/416/239 222/418/234 221/417/234
f 223/419/235 219/415/238 218/414/237
f 218/414/237 224/420/235 223/419/235
f 225/421/240 226/422/241 227/423/242
f 226/422/241 228/424/243 227/423/242
f 228/424/243 229/425/244 227/423/242
f 229/425/244 230/426/245 227/423/242
f 230/426/245 231/427/246 227/423/242
f 231/427/246 232/428/247 227/423/242
f 232/428/247 233/429/248 227/423/242
f 233/429/248 225/421/240 227/423/242
f 234/430/249 225/421/240 235/431/235
f 226/422/241 225/421/240 234/430/249
f 234/430/249 236/432/250 226/422/241
f 236/432/250 228/424/243 226/422/241
f 236/432/250 237/433/251 228/424/243
f 237/433/251 229/425/244 228/424/243
f 237/433/251 238/434/234 229/425/244
f 238/434/234 230/426/245 229/425/244
f 238/434/234 239/435/252 230/426/245
f 239/435/252 231/427/246 230/426/245
f 239/435/252 240/436/253 231/427/246
f 240/436/253 232/428/247 231/427/246
f 240/436/253 241/437/254 232/428/247
f 241/437/254 233/429/248 232/428/247
f 241/437/254 235/431/235 233/429/248
f 235/431/235 225/421/240 233/429/248
f 242/438/255 243/439/256 244/440/257
f 243/439/256 245/441/258 244/440/257
f 243/442/256 246/443/259 245/444/258
f 246/443/259 247/445/260 245/446/258
f 246/447/259 248/448/261 247/449/260
f 248/450/261 249/451/262 247/445/260
f 248/452/261 250/453/263 249/454/262
f 250/455/263 251/456/264 249/451/262
f 250/453/263 252/457/265 251/458/264
f 252/459/265 253/460/266 251/456/264
f 252/457/265 242/438/255 253/461/266
f 242/462/255 244/463/257 253/464/266
f 254/465/267 242/438/255 255/466/268
f 243/439/256 242/438/255 254/465/267
f 254/467/267 256/468/269 243/442/256
f 256/469/269 246/470/259 243/471/256
f 256/468/269 257/472/270 246/443/259
f 257/472/270 248/450/261 246/443/259
f 257/473/270 258/474/271 248/452/261
f 258/474/271 250/453/263 248/452/261
f 258/474/271 259/475/272 250/453/263
f 259/475/272 252/457/265 250/453/263
f 259/475/272 255/466/268 252/457/265
f 255/466/268 242/438/255 252/457/265
f 260/476/273 261/477/274 255/478/268
f 261/479/274 254/465/267 255/466/268
f 261/480/274 262/481/275 254/482/267
f 262/481/275 256/468/269 254/483/267
f 262/484/275 263/485/276 256/486/269
f 263/485/276 257/473/270 256/486/269
f 263/485/276 264/487/277 257/473/270
f 264/487/277 258/474/271 257/473/270
f 264/488/277 265/489/278 258/490/271
f 265/491/278 259/475/272 258/474/271
f 265/492/278 260/476/273 259/493/272
f 260/494/273 255/466/268 259/475/272
f 266/495/279 267/496/280 268/497/242
f 267/496/280 269/498/281 268/497/242
f 267/499/280 270/500/282 269/501/281
f 270/502/282 271/503/283 269/504/281
f 270/500/282 272/505/284 271/506/283
f 272/507/284 273/508/285 271/509/283
f 272/507/284 274/510/286 273/508/285
f 274/510/286 275/511/287 273/508/285
f 274/510/286 276/512/288 275/511/287
f 276/512/288 277/513/289 275/511/287
f 276/512/288 266/495/279 277/513/289
f 266/495/279 268/497/242 277/513/289
f 278/514/290 266/495/279 279/515/291
f 267/496/280 266/495/279 278/514/290
f 278/514/290 280/516/292 267/496/280
f 280/517/292 270/500/282 267/518/280
f 280/519/292 281/520/293 270/521/282
f 281/520/293 272/507/284 270/521/282
f 281/520/293 282/522/294 272/507/284
f 282/522/294 274/510/286 272/507/284
f 282/522/294 283/523/295 274/510/286
f 283/523/295 276/512/288 274/510/286
f 283/523/295 279/515/291 276/512/288
f 279/515/291 266/495/279 276/512/288
f 284/524/296 285/525/297 279/526/291
f 285/527/297 278/514/290 279/515/291
f 285/528/297 286/529/298 278/530/290
f 286/529/298 280/517/292 278/531/290
f 286/532/298 287/533/299 280/519/292
f 287/533/299 281/520/293 280/519/292
f 287/533/299 288/534/300 281/520/293
f 288/534/300 282/522/294 281/520/293
f 288/534/300 289/535/301 282/522/294
f 289/535/301 283/523/295 282/522/294
f 289/535/301 284/536/296 283/523/295
f 284/536/296 279/515/291 283/523/295
f 290/537/302 291/538/303 284/536/296
f 291/538/303 285/539/297 284/536/296
f 291/540/303 292/541/304 285/542/297
f 292/543/304 286/532/298 285/544/297
f 292/543/304 293/545/305 286/532/298
f 293/545/305 287/533/299 286/532/298
f 293/545/305 294/546/306 287/533/299
f 294/546/306 288/534/300 287/533/299
f 294/546/306 295/547/307 288/534/300
f 295/547/307 289/535/301 288/534/300
f 295/547/307 290/537/302 289/535/301
f 290/537/302 284/536/296 289/535/301
f 296/548/242 297/549/281 290/537/302
f 297/549/281 291/538/303 290/537/302
f 297/549/281 298/550/283 291/538/303
f 298/551/283 292/541/304 291/552/303
f 298/553/283 299/554/285 292/555/304
f 299/556/285 293/557/305 292/541/304
f 299/558/285 300/559/287 293/545/305
f 300/559/287 294/546/306 293/545/305
f 300/559/287 301/560/289 294/546/306
f 301/560/289 295/547/307 294/546/306
f 301/560/289 296/548/242 295/547/307
f 296/548/242 290/537/302 295/547/307
f 302/561/308 303/562/309 304/563/310
f 302/561/308 305/564/311 303/562/309
f 305/564/311 306/565/312 303/562/309
f 305/566/311 307/567/313 306/568/312
f 307/567/313 308/569/314 306/568/312
f 306/568/312 308/569/314 309/570/315
f 308/569/314 310/571/316 309/570/315
f 309/570/315 310/571/316 311/572/317
f 304/563/310 312/573/318 313/574/319
f 304/563/310 303/562/309 312/573/318
f 303/562/309 314/575/320 312/573/318
f 303/562/309 306/565/312 314/575/320
f 306/568/312 309/570/315 314/576/320
f 314/576/320 309/570/315 315/577/321
f 309/570/315 316/578/322 315/577/321
f 309/570/315 311/572/317 316/578/322
f 313/574/319 317/579/323 318/580/324
f 313/574/319 312/573/318 317/579/323
f 312/573/318 319/581/325 317/579/323
f 312/573/318 314/575/320 319/581/325
f 314/576/320 320/582/326 319/583/325
f 314/576/320 315/577/321 320/582/326
f 315/577/321 321/584/327 320/582/326
f 315/577/321 316/578/322 321/584/327
f 318/580/324 322/585/328 323/586/329
f 318/580/324 317/579/323 322/585/328
f 317/579/323 319/581/325 322/585/328
f 322/585/328 319/581/325 324/587/330
f 319/583/325 325/588/331 324/589/330
f 319/583/325 320/582/326 325/588/331
f 320/582/326 326/590/332 325/588/331
f 320/582/326 321/584/327 326/590/332
f 323/591/329 322/592/328 327/593/333
f 327/594/333 322/585/328 328/595/334
f 322/585/328 324/587/330 328/595/334
f 328/596/334 324/597/330 329/598/335
f 324/589/330 330/599/336 329/600/335
f 324/589/330 325/588/331 330/599/336
f 325/588/331 331/601/337 330/599/336
f 325/588/331 326/590/332 331/601/337
f 332/602/338 333/603/339 334/604/340
f 335/605/341 332/602/338 334/604/340
f 335/605/341 334/604/340 336/606/342
f 336/606/342 337/607/343 335/605/341
f 337/607/343 336/606/342 338/608/344
f 338/608/344 339/609/345 337/607/343
f 339/609/345 338/608/344 340/610/346
f 340/610/346 341/611/347 339/609/345
f 342/612/348 343/613/349 344/614/350
f 344/614/350 345/615/351 342/612/348
f 343/613/349 346/616/352 347/617/353
f 347/617/353 344/614/350 343/613/349
f 346/616/352 348/618/354 349/619/355
f 349/619/355 347/617/353 346/616/352
f 348/618/354 350/620/356 351/621/357
f 351/621/357 349/619/355 348/618/354
f 332/602/338 335/605/341 343/613/349
f 342/612/348 332/602/338 343/613/349
f 335/605/341 337/607/343 346/616/352
f 346/616/352 343/613/349 335/605/341
f 337/607/343 339/609/345 348/618/354
f 348/618/354 346/616/352 337/607/343
f 339/609/345 341/611/347 350/620/356
f 350/620/356 348/618/354 339/609/345
f 341/611/347 340/610/346 351/621/357
f 351/621/357 350/620/356 341/611/347
f 340/622/346 338/623/344 349/624/355
f 349/624/355 351/625/357 340/622/346
f 338/623/344 336/626/342 347/627/353
f 347/627/353 349/624/355 338/623/344
f 336/626/342 334/628/340 344/629/350
f 344/629/350 347/627/353 336/626/342
f 334/628/340 333/630/339 345/631/351
f 345/631/351 344/629/350 334/628/340
f 352/632/358 353/633/359 354/634/360
f 355/635/361 352/632/358 354/634/360
f 356/636/362 354/634/360 357/637/363
f 355/635/361 354/634/360 356/636/362
f 358/638/364 355/639/361 356/640/362
f 358/638/364 356/640/362 359/641/365
f 360/642/366 358/638/364 359/641/365
f 360/642/366 359/641/365 361/643/367
f 362/644/368 360/642/366 361/643/367
f 363/645/369 362/644/368 361/643/367
f 363/645/369 361/643/367 8/646/370
f 364/647/371 363/645/369 8/646/370
f 365/648/372 366/649/373 367/650/374
f 365/648/372 367/650/374 368/651/375
f 369/652/376 370/653/377 371/654/378
f 372/655/379 369/652/376 371/654/378
f 373/656/380 372/655/379 371/654/378
f 374/657/381 373/656/380 371/654/378
f 374/657/381 371/654/378 375/658/382
f 7/659/383 374/657/381 375/658/382
f 7/660/383 375/661/382 376/662/384
f 377/663/385 7/660/383 376/662/384
f 365/648/372 368/651/375 378/664/386
f 379/665/387 365/648/372 378/664/386
f 8/646/370 7/660/383 377/663/385
f 8/646/370 380/666/388 7/660/383
f 8/646/370 381/667/389 380/666/388
f 8/646/370 377/663/385 382/668/390
f 8/646/370 382/668/390 379/665/387
f 8/646/370 379/665/387 378/664/386
f 8/646/370 383/669/391 381/667/389
f 8/646/370 384/670/392 383/669/391
f 8/646/370 385/671/393 384/670/392
f 8/646/370 386/672/394 385/671/393
f 8/646/370 387/673/395 386/672/394
f 364/647/371 8/646/370 378/664/386
f 388/674/396 389/675/397 353/676/359
f 353/676/359 352/677/358 388/674/396
f 389/678/397 390/679/398 354/634/360
f 354/634/360 353/633/359 389/678/397
f 388/680/396 352/681/358 391/682/399
f 352/681/358 355/683/361 391/682/399
f 354/634/360 392/684/400 357/637/363
f 392/684/400 354/634/360 390/679/398
f 357/637/363 393/685/401 356/636/362
f 393/685/401 357/637/363 392/684/400
f 394/686/402 391/682/399 355/683/361
f 355/683/361 358/687/364 394/686/402
f 393/688/401 395/689/403 359/690/365
f 359/690/365 356/691/362 393/688/401
f 396/692/404 394/686/402 358/687/364
f 358/687/364 360/693/366 396/692/404
f 395/689/403 397/694/405 361/695/367
f 361/695/367 359/690/365 395/689/403
f 398/696/406 396/692/404 360/693/366
f 360/693/366 362/697/368 398/696/406
f 399/698/407 398/696/406 362/697/368
f 362/697/368 363/699/369 399/698/407
f 397/694/405 1/700/408 8/701/370
f 8/701/370 361/695/367 397/694/405
f 401/702/409 399/698/407 363/699/369
f 363/699/369 364/703/371 401/702/409
f 402/704/410 403/705/411 366/706/373
f 366/706/373 365/707/372 402/704/410
f 403/708/411 404/709/412 367/710/374
f 367/710/374 366/711/373 403/708/411
f 404/712/412 405/713/413 368/714/375
f 368/714/375 367/715/374 404/712/412
f 406/716/414 407/717/415 370/718/377
f 370/718/377 369/719/376 406/716/414
f 407/720/415 408/721/416 371/722/378
f 371/722/378 370/723/377 407/720/415
f 409/724/417 406/725/414 369/652/376
f 369/652/376 372/655/379 409/724/417
f 410/726/418 409/724/417 372/655/379
f 372/655/379 373/656/380 410/726/418
f 411/727/419 410/726/418 373/656/380
f 373/656/380 374/657/381 411/727/419
f 408/721/416 412/728/420 375/729/382
f 375/729/382 371/722/378 408/721/416
f 413/730/421 411/727/419 374/657/381
f 374/657/381 7/659/383 413/730/421
f 412/728/420 414/731/422 376/732/384
f 376/732/384 375/729/382 412/728/420
f 415/733/423 413/730/421 7/659/383
f 7/659/383 380/734/388 415/733/423
f 405/713/413 416/735/424 378/736/386
f 378/736/386 368/714/375 405/713/413
f 417/737/425 402/704/410 365/707/372
f 365/707/372 379/738/387 417/737/425
f 414/731/422 418/739/426 377/740/385
f 377/740/385 376/732/384 414/731/422
f 419/741/427 415/733/423 380/734/388
f 380/734/388 381/742/389 419/741/427
f 420/743/428 419/744/427 381/745/389
f 381/745/389 383/746/391 420/743/428
f 418/739/426 421/747/429 382/748/390
f 382/748/390 377/740/385 418/739/426
f 421/747/429 417/737/425 379/738/387
f 379/738/387 382/748/390 421/747/429
f 422/749/430 420/743/428 383/746/391
f 383/746/391 384/750/392 422/749/430
f 423/751/431 422/749/430 384/750/392
f 384/750/392 385/752/393 423/751/431
f 424/753/432 423/754/431 385/755/393
f 385/755/393 386/756/394 424/753/432
f 425/757/433 424/753/432 386/756/394
f 386/756/394 387/758/395 425/757/433
f 1/759/408 425/757/433 387/758/395
f 387/758/395 8/760/370 1/759/408
f 416/735/424 401/702/409 364/703/371
f 364/703/371 378/736/386 416/735/424
f 426/761/434 427/762/435 428/763/436
f 429/764/437 427/762/435 426/761/434
f 429/764/437 430/765/438 427/762/435
f 427/762/435 430/765/438 431/766/439
f 432/767/440 430/768/438 429/769/437
f 432/767/440 433/770/441 430/768/438
f 434/771/442 433/770/441 432/767/440
f 434/771/442 435/772/443 433/770/441
f 436/773/444 435/772/443 434/771/442
f 437/774/445 435/772/443 436/773/444
f 437/774/445 4/775/446 435/772/443
f 438/776/447 4/775/446 437/774/445
f 439/777/448 440/778/449 441/779/450
f 439/777/448 442/780/451 440/778/449
f 443/781/452 444/782/453 445/783/454
f 446/784/455 444/782/453 443/781/452
f 447/785/456 444/782/453 446/784/455
f 448/786/457 444/782/453 447/785/456
f 448/786/457 449/787/458 444/782/453
f 450/788/459 449/787/458 448/786/457
f 450/789/459 451/790/460 449/791/458
f 452/792/461 4/775/446 450/789/459
f 439/777/448 453/793/462 442/780/451
f 454/794/463 453/793/462 439/777/448
f 450/789/459 455/795/464 451/790/460
f 456/796/465 4/775/446 452/792/461
f 457/797/466 4/775/446 456/796/465
f 450/789/459 4/775/446 455/795/464
f 455/795/464 4/775/446 458/798/467
f 458/798/467 4/775/446 454/794/463
f 459/799/468 4/775/446 457/797/466
f 460/800/469 4/775/446 459/799/468
f 461/801/470 4/775/446 460/800/469
f 462/802/471 4/775/446 461/801/470
f 4/775/446 438/776/447 453/793/462
f 4/775/446 453/793/462 454/794/463
f 463/803/472 428/804/436 464/805/473
f 428/804/436 463/803/472 426/806/434
f 464/807/473 427/762/435 465/808/474
f 427/762/435 464/807/473 428/763/436
f 466/809/475 426/810/434 463/811/472
f 426/810/434 466/809/475 429/812/437
f 465/808/474 427/762/435 467/813/476
f 431/766/439 467/813/476 427/762/435
f 467/813/476 431/766/439 468/814/477
f 430/765/438 468/814/477 431/766/439
f 469/815/478 429/812/437 466/809/475
f 429/812/437 469/815/478 432/816/440
f 468/817/477 433/818/441 470/819/479
f 433/818/441 468/817/477 430/820/438
f 471/821/480 432/816/440 469/815/478
f 432/816/440 471/821/480 434/822/442
f 470/819/479 435/823/443 472/824/481
f 435/823/443 470/819/479 433/818/441
f 473/825/482 434/822/442 471/821/480
f 434/822/442 473/825/482 436/826/444
f 474/827/483 436/826/444 473/825/482
f 436/826/444 474/827/483 437/828/445
f 472/824/481 4/829/446 2/830/484
f 4/829/446 472/824/481 435/823/443
f 476/831/485 437/828/445 474/827/483
f 437/828/445 476/831/485 438/832/447
f 477/833/486 441/834/450 478/835/487
f 441/834/450 477/833/486 439/836/448
f 478/837/487 440/838/449 479/839/488
f 440/838/449 478/837/487 441/840/450
f 479/841/488 442/842/451 480/843/489
f 442/842/451 479/841/488 440/844/449
f 481/845/490 445/846/454 482/847/491
f 445/846/454 481/845/490 443/848/452
f 482/849/491 444/850/453 483/851/492
f 444/850/453 482/849/491 445/852/454
f 484/853/493 443/781/452 481/854/490
f 443/781/452 484/853/493 446/784/455
f 485/855/494 446/784/455 484/853/493
f 446/784/455 485/855/494 447/785/456
f 486/856/495 447/785/456 485/855/494
f 447/785/456 486/856/495 448/786/457
f 483/851/492 449/857/458 487/858/496
f 449/857/458 483/851/492 444/850/453
f 488/859/497 448/786/457 486/856/495
f 448/786/457 488/859/497 450/788/459
f 487/858/496 451/860/460 489/861/498
f 451/860/460 487/858/496 449/857/458
f 490/862/499 450/788/459 488/859/497
f 450/788/459 490/862/499 452/863/461
f 480/843/489 453/864/462 491/865/500
f 453/864/462 480/843/489 442/842/451
f 492/866/501 439/836/448 477/833/486
f 439/836/448 492/866/501 454/867/463
f 489/861/498 455/868/464 493/869/502
f 455/868/464 489/861/498 451/860/460
f 494/870/503 452/863/461 490/862/499
f 452/863/461 494/870/503 456/871/465
f 495/872/504 456/873/465 494/874/503
f 456/873/465 495/872/504 457/875/466
f 493/869/502 458/876/467 496/877/505
f 458/876/467 493/869/502 455/868/464
f 496/877/505 454/867/463 492/866/501
f 454/867/463 496/877/505 458/876/467
f 497/878/506 457/875/466 495/872/504
f 457/875/466 497/878/506 459/879/468
f 498/880/507 459/879/468 497/878/506
f 459/879/468 498/880/507 460/881/469
f 499/882/508 460/883/469 498/884/507
f 460/883/469 499/882/508 461/885/470
f 500/886/509 461/885/470 499/882/508
f 461/885/470 500/886/509 462/887/471
f 2/888/484 462/887/471 500/886/509
f 462/887/471 2/888/484 4/889/446
f 491/865/500 438/832/447 476/831/485
f 438/832/447 491/865/500 453/864/462
f 392/684/400 390/679/398 467/813/476
f 467/813/476 390/679/398 465/808/474
f 393/685/401 392/684/400 468/814/477
f 468/814/477 392/684/400 467/813/476
f 395/689/403 393/688/401 470/819/479
f 470/819/479 393/688/401 468/817/477
f 472/824/481 395/689/403 470/819/479
f 472/824/481 397/694/405 395/689/403
f 1/700/408 397/694/405 2/830/484
f 2/830/484 397/694/405 472/824/481
f 500/886/509 1/759/408 2/888/484
f 425/757/433 1/759/408 500/886/509
f 499/882/508 424/753/432 425/757/433
f 425/757/433 500/886/509 499/882/508
f 423/754/431 424/753/432 498/884/507
f 498/884/507 424/753/432 499/882/508
f 422/749/430 423/751/431 497/878/506
f 497/878/506 423/751/431 498/880/507
f 420/743/428 422/749/430 495/872/504
f 495/872/504 422/749/430 497/878/506
f 419/744/427 420/743/428 494/874/503
f 494/874/503 420/743/428 495/872/504
f 419/741/427 494/870/503 490/862/499
f 490/862/499 415/733/423 419/741/427
f 415/733/423 488/859/497 413/730/421
f 415/733/423 490/862/499 488/859/497
f 413/730/421 488/859/497 486/856/495
f 486/856/495 411/727/419 413/730/421
f 486/856/495 485/855/494 411/727/419
f 411/727/419 485/855/494 410/726/418
f 485/855/494 484/853/493 410/726/418
f 410/726/418 484/853/493 409/724/417
f 409/724/417 481/854/490 406/725/414
f 409/724/417 484/853/493 481/854/490
f 406/716/414 481/845/490 482/847/491
f 482/847/491 407/717/415 406/716/414
f 482/849/491 483/851/492 407/720/415
f 407/720/415 483/851/492 408/721/416
f 408/721/416 483/851/492 487/858/496
f 408/721/416 487/858/496 412/728/420
f 412/728/420 487/858/496 489/861/498
f 489/861/498 414/731/422 412/728/420
f 414/731/422 489/861/498 418/739/426
f 418/739/426 489/861/498 493/869/502
f 493/869/502 421/747/429 418/739/426
f 421/747/429 493/869/502 496/877/505
f 496/877/505 492/866/501 421/747/429
f 421/747/429 492/866/501 417/737/425
f 417/737/425 492/866/501 477/833/486
f 402/704/410 417/737/425 477/833/486
f 477/833/486 478/835/487 402/704/410
f 402/704/410 478/835/487 403/705/411
f 404/709/412 403/708/411 478/837/487
f 404/709/412 478/837/487 479/839/488
f 404/712/412 479/841/488 480/843/489
f 480/843/489 405/713/413 404/712/412
f 480/843/489 491/865/500 405/713/413
f 405/713/413 491/865/500 416/735/424
f 416/735/424 491/865/500 476/831/485
f 416/735/424 476/831/485 401/702/409
f 401/702/409 476/831/485 474/827/483
f 474/827/483 399/698/407 401/702/409
f 474/827/483 473/825/482 399/698/407
f 399/698/407 473/825/482 398/696/406
f 398/696/406 473/825/482 396/692/404
f 396/692/404 473/825/482 471/821/480
f 471/821/480 469/815/478 396/692/404
f 396/692/404 469/815/478 394/686/402
f 394/686/402 469/815/478 466/809/475
f 466/809/475 391/682/399 394/686/402
f 391/682/399 466/809/475 463/811/472
f 463/811/472 388/680/396 391/682/399
f 388/674/396 463/803/472 389/675/397
f 389/675/397 463/803/472 464/805/473
f 389/678/397 464/807/473 465/808/474
f 465/808/474 390/679/398 389/678/397
f 501/890/279 502/891/280 503/892/242
f 502/893/280 504/894/281 503/895/242
f 502/893/280 505/896/282 504/894/281
f 505/896/282 506/897/283 504/894/281
f 505/898/282 507/899/284 506/900/283
f 507/901/284 508/902/285 506/903/283
f 507/901/284 509/904/286 508/902/285
f 509/904/286 510/905/287 508/902/285
f 509/904/286 511/906/288 510/905/287
f 511/906/288 512/907/289 510/905/287
f 511/906/288 501/908/279 512/907/289
f 501/908/279 503/909/242 512/907/289
f 513/910/290 501/908/279 514/911/291
f 502/893/280 501/908/279 513/910/290
f 513/910/290 515/912/292 502/893/280
f 515/912/292 505/896/282 502/893/280
f 515/912/292 516/913/293 505/896/282
f 516/913/293 507/901/284 505/896/282
f 516/913/293 517/914/294 507/901/284
f 517/914/294 509/904/286 507/901/284
f 517/914/294 518/915/295 509/904/286
f 518/915/295 511/906/288 509/904/286
f 518/915/295 514/911/291 511/906/288
f 514/911/291 501/908/279 511/906/288
f 519/916/296 520/917/297 514/911/291
f 520/917/297 513/910/290 514/911/291
f 520/918/297 521/919/298 513/920/290
f 521/919/298 515/921/292 513/922/290
f 521/919/298 522/923/299 515/921/292
f 522/924/299 516/913/293 515/912/292
f 522/924/299 523/925/300 516/913/293
f 523/925/300 517/914/294 516/913/293
f 523/925/300 524/926/301 517/914/294
f 524/926/301 518/915/295 517/914/294
f 524/926/301 519/916/296 518/915/295
f 519/916/296 514/911/291 518/915/295
f 525/927/302 526/928/303 519/916/296
f 526/928/303 520/917/297 519/916/296
f 526/928/303 527/929/304 520/917/297
f 527/929/304 521/930/298 520/917/297
f 527/929/304 528/931/305 521/930/298
f 528/931/305 522/924/299 521/930/298
f 528/931/305 529/932/306 522/924/299
f 529/932/306 523/925/300 522/924/299
f 529/932/306 530/933/307 523/925/300
f 530/933/307 524/926/301 523/925/300
f 530/933/307 525/927/302 524/926/301
f 525/927/302 519/916/296 524/926/301
f 531/934/242 532/935/281 525/927/302
f 532/936/281 526/937/303 525/938/302
f 532/939/281 533/940/283 526/941/303
f 533/942/283 527/943/304 526/944/303
f 533/945/283 534/946/285 527/947/304
f 534/948/285 528/949/305 527/943/304
f 534/950/285 535/951/287 528/931/305
f 535/951/287 529/932/306 528/931/305
f 535/951/287 536/952/289 529/932/306
f 536/952/289 530/933/307 529/932/306
f 536/952/289 531/934/242 530/933/307
f 531/934/242 525/927/302 530/933/307
