# Blender v3.0.1 OBJ File: ''
# www.blender.org
mtllib Subaru_wheel.mtl
o car1-wheel.json.006
v -0.247666 0.188149 -0.516939
v -0.247666 0.000000 -0.550113
v 0.247666 0.188149 -0.516935
v 0.247666 0.000000 -0.550110
v 0.247666 0.353604 -0.421411
v -0.247666 0.353604 -0.421411
v 0.247666 0.476410 -0.275055
v -0.247666 0.476410 -0.275058
v 0.247666 0.541753 -0.095524
v -0.247666 0.541753 -0.095528
v 0.247666 0.541753 0.095528
v -0.247666 0.541753 0.095524
v 0.247666 0.476410 0.275058
v -0.247666 0.476410 0.275055
v 0.247666 0.353604 0.421411
v -0.247666 0.353604 0.421411
v 0.247666 0.188149 0.516939
v -0.247666 0.188149 0.516935
v 0.247666 -0.000000 0.550113
v -0.247666 -0.000000 0.550110
v 0.247666 -0.188153 0.516939
v -0.247666 -0.188153 0.516935
v 0.247666 -0.353608 0.421411
v -0.247666 -0.353608 0.421411
v 0.247666 -0.476414 0.275058
v -0.247666 -0.476414 0.275055
v 0.247666 -0.541757 0.095528
v -0.247666 -0.541757 0.095524
v 0.247666 -0.541757 -0.095524
v -0.247666 -0.541757 -0.095528
v 0.247666 -0.476414 -0.275055
v -0.247666 -0.476414 -0.275058
v 0.247666 -0.353608 -0.421411
v -0.247666 -0.353608 -0.421411
v 0.247666 -0.188152 -0.516935
v -0.247666 -0.188152 -0.516939
v -0.282640 0.347295 -0.954187
v 0.282667 0.347295 -0.954187
v -0.282640 0.000000 -1.015425
v 0.282667 0.000000 -1.015425
v -0.282640 0.652703 -0.777861
v 0.282667 0.652703 -0.777861
v -0.282653 0.879383 -0.507713
v 0.282667 0.879383 -0.507713
v -0.282653 0.999997 -0.176326
v 0.282667 0.999997 -0.176326
v -0.282653 0.999997 0.176329
v 0.282667 0.999997 0.176329
v -0.282653 0.879383 0.507713
v 0.282667 0.879383 0.507713
v -0.282653 0.652702 0.777861
v 0.282667 0.652702 0.777861
v -0.282653 0.347295 0.954190
v 0.282667 0.347295 0.954190
v -0.282653 -0.000000 1.015425
v 0.282667 -0.000000 1.015425
v -0.282653 -0.347298 0.954190
v 0.282667 -0.347298 0.954190
v -0.282653 -0.652706 0.777861
v 0.282667 -0.652706 0.777861
v -0.282653 -0.879386 0.507713
v 0.282667 -0.879386 0.507713
v -0.282653 -1.000001 0.176329
v 0.282667 -1.000001 0.176329
v -0.282640 -1.000001 -0.176326
v 0.282667 -1.000001 -0.176326
v -0.282640 -0.879386 -0.507713
v 0.282667 -0.879386 -0.507713
v -0.282640 -0.652702 -0.777861
v 0.282667 -0.652702 -0.777861
v -0.282640 -0.347298 -0.954187
v 0.282667 -0.347298 -0.954187
v -0.280948 0.224502 -0.616819
v -0.280948 0.421928 -0.502836
v -0.313140 0.327679 -0.900298
v -0.280948 0.568461 -0.328202
v -0.313140 0.829716 -0.479038
v -0.313140 0.615839 -0.733930
v -0.280948 0.646430 -0.113986
v -0.313140 0.943518 -0.166368
v -0.280948 0.646433 0.113983
v -0.313140 0.943518 0.166368
v -0.280948 0.568461 0.328202
v -0.313140 0.829716 0.479038
v -0.280948 0.421928 0.502836
v -0.313140 0.615839 0.733927
v -0.280948 0.224502 0.616819
v -0.313140 0.327679 0.900295
v 0.280948 0.224502 -0.616819
v 0.280948 0.000000 -0.656404
v 0.313140 0.327679 -0.900295
v 0.313140 0.000000 -0.958076
v 0.280948 0.421928 -0.502836
v 0.313140 0.615839 -0.733927
v 0.280948 0.568461 -0.328202
v 0.313140 0.829716 -0.479038
v 0.280948 0.646433 -0.113983
v 0.313140 0.943518 -0.166368
v 0.280948 0.646430 0.113986
v 0.313140 0.943518 0.166368
v 0.280948 0.568461 0.328202
v 0.313140 0.829716 0.479038
v 0.280948 0.421928 0.502836
v 0.313140 0.615839 0.733930
v 0.280948 0.224502 0.616819
v 0.313140 0.327679 0.900298
v 0.280948 -0.000000 0.656408
v 0.313140 -0.000000 0.958076
v 0.280948 -0.224506 0.616819
v 0.313140 -0.327682 0.900298
v 0.280948 -0.421931 0.502836
v 0.313140 -0.615843 0.733930
v 0.280948 -0.568465 0.328202
v 0.313140 -0.829719 0.479038
v 0.280948 -0.646433 0.113986
v 0.313140 -0.943521 0.166368
v 0.280948 -0.646433 -0.113983
v 0.313140 -0.943521 -0.166368
v 0.280948 -0.568465 -0.328202
v 0.313140 -0.829719 -0.479038
v 0.280948 -0.421931 -0.502836
v 0.313140 -0.615839 -0.733927
v 0.280948 -0.224506 -0.616819
v 0.313140 -0.327682 -0.900295
v 0.280948 0.000000 -0.656404
v 0.280948 0.224502 -0.616819
v 0.247666 0.000000 -0.550110
v 0.247666 0.188149 -0.516935
v 0.280948 0.421928 -0.502836
v 0.247666 0.353604 -0.421411
v 0.280948 0.568461 -0.328202
v 0.247666 0.476410 -0.275055
v 0.280948 0.646433 -0.113983
v 0.247666 0.541753 -0.095524
v 0.280948 0.646430 0.113986
v 0.247666 0.541753 0.095528
v 0.280948 0.568461 0.328202
v 0.247666 0.476410 0.275058
v 0.280948 0.421928 0.502836
v 0.247666 0.353604 0.421411
v 0.280948 0.224502 0.616819
v 0.247666 0.188149 0.516939
v 0.280948 -0.000000 0.656408
v 0.247666 -0.000000 0.550113
v 0.280948 -0.224506 0.616819
v 0.247666 -0.188153 0.516939
v 0.280948 -0.421931 0.502836
v 0.247666 -0.353608 0.421411
v 0.280948 -0.568465 0.328202
v 0.247666 -0.476414 0.275058
v 0.280948 -0.646433 0.113986
v 0.247666 -0.541757 0.095528
v 0.280948 -0.646433 -0.113983
v 0.247666 -0.541757 -0.095524
v 0.280948 -0.568465 -0.328202
v 0.247666 -0.476414 -0.275055
v 0.280948 -0.421931 -0.502836
v 0.247666 -0.353608 -0.421411
v 0.280948 -0.224506 -0.616819
v 0.247666 -0.188152 -0.516935
v 0.282667 0.347295 -0.954187
v 0.282667 0.000000 -1.015425
v 0.282667 0.652703 -0.777861
v 0.282667 0.879383 -0.507713
v 0.282667 0.999997 -0.176326
v 0.282667 0.999997 0.176329
v 0.282667 0.879383 0.507713
v 0.282667 0.652702 0.777861
v 0.282667 0.347295 0.954190
v 0.282667 -0.000000 1.015425
v 0.282667 -0.347298 0.954190
v 0.282667 -0.652706 0.777861
v 0.282667 -0.879386 0.507713
v 0.282667 -1.000001 0.176329
v 0.282667 -1.000001 -0.176326
v 0.282667 -0.879386 -0.507713
v 0.282667 -0.652702 -0.777861
v 0.282667 -0.347298 -0.954187
v 0.256435 0.078700 -0.216230
v 0.256435 -0.078704 -0.216230
v 0.033235 0.082181 -0.225788
v 0.033235 -0.082181 -0.225788
v 0.256435 0.199278 -0.115053
v 0.033235 0.208088 -0.120138
v 0.256435 0.226610 0.039958
v 0.033235 0.236628 0.041726
v 0.256435 0.147910 0.176272
v 0.033235 0.154447 0.184065
v 0.256435 -0.000000 0.230107
v 0.033235 -0.000000 0.240283
v 0.256435 -0.147910 0.176272
v 0.033235 -0.154451 0.184065
v 0.256435 -0.226613 0.039958
v 0.033235 -0.236631 0.041726
v 0.256435 -0.199278 -0.115053
v 0.033235 -0.208091 -0.120138
v -0.282640 -0.652702 -0.777861
v -0.282640 -0.879386 -0.507713
v -0.282640 -1.000001 -0.176326
v -0.280948 -0.000000 0.656404
v -0.313140 -0.000000 0.958076
v 0.256435 0.078700 -0.216230
v 0.256435 0.199278 -0.115053
v 0.256435 0.226610 0.039958
v 0.256435 0.147910 0.176272
v 0.256435 -0.000000 0.230107
v 0.256435 -0.147910 0.176272
v 0.256435 -0.226613 0.039958
v 0.256435 -0.199278 -0.115053
v 0.256435 -0.078704 -0.216230
v 0.256435 -0.078704 -0.216230
v 0.256435 0.078700 -0.216230
v 0.167046 0.000000 0.000000
v 0.256435 0.199278 -0.115053
v 0.256435 0.226610 0.039958
v 0.256435 0.147910 0.176272
v 0.256435 -0.000000 0.230107
v 0.256435 -0.147910 0.176272
v 0.256435 -0.226613 0.039958
v 0.256435 -0.199278 -0.115053
v -0.280948 0.000000 -0.656408
v -0.313140 0.000000 -0.958076
v -0.280948 -0.224506 -0.616819
v -0.313140 -0.327682 -0.900298
v -0.280948 -0.421931 -0.502836
v -0.313140 -0.615842 -0.733930
v -0.280948 -0.568465 -0.328202
v -0.313140 -0.829719 -0.479038
v -0.280948 -0.646433 -0.113986
v -0.313140 -0.943521 -0.166368
v -0.280948 -0.646433 0.113983
v -0.313140 -0.943521 0.166368
v -0.280948 -0.568465 0.328202
v -0.313140 -0.829719 0.479038
v -0.280948 -0.421931 0.502836
v -0.313140 -0.615839 0.733927
v -0.280948 -0.224506 0.616819
v -0.313140 -0.327682 0.900295
v -0.280948 -0.000000 0.656404
v -0.280948 0.224502 0.616819
v -0.280948 0.421928 0.502836
v -0.280948 0.568461 0.328202
v -0.280948 0.646433 0.113983
v -0.280948 0.646430 -0.113986
v -0.280948 0.568461 -0.328202
v -0.280948 0.421928 -0.502836
v -0.280948 0.224502 -0.616819
v -0.280948 0.000000 -0.656408
v -0.280948 -0.224506 -0.616819
v -0.280948 -0.421931 -0.502836
v -0.280948 -0.568465 -0.328202
v -0.280948 -0.646433 -0.113986
v -0.280948 -0.646433 0.113983
v -0.280948 -0.568465 0.328202
v -0.280948 -0.421931 0.502836
v -0.280948 -0.224506 0.616819
v -0.282667 0.652703 -0.777861
v -0.282667 0.347295 -0.954190
v -0.282667 0.000000 -1.015425
v -0.282667 -0.347298 -0.954190
v -0.282667 -0.652706 -0.777861
v -0.282667 -0.879386 -0.507713
v -0.282667 -1.000001 -0.176329
v -0.256435 0.078700 0.216230
v -0.256435 0.199278 0.115053
v -0.256435 0.226610 -0.039958
v -0.256435 0.147910 -0.176272
v -0.256435 0.000000 -0.230107
v -0.256435 -0.147910 -0.176272
v -0.256435 -0.226613 -0.039958
v -0.256435 -0.199278 0.115053
v -0.256435 -0.078704 0.216230
v -0.256435 -0.078704 0.216230
v -0.256435 0.078700 0.216230
v -0.167046 0.000000 0.000000
v -0.256435 0.199278 0.115053
v -0.256435 0.226610 -0.039958
v -0.256435 0.147910 -0.176272
v -0.256435 0.000000 -0.230107
v -0.256435 -0.147910 -0.176272
v -0.256435 -0.226613 -0.039958
v -0.256435 -0.199278 0.115053
vt 0.075195 0.400184
vt 0.075195 0.400184
vt 0.073730 0.400184
vt 0.073730 0.400184
vt 0.073730 0.400184
vt 0.075195 0.400184
vt 0.073730 0.400184
vt 0.075195 0.400184
vt 0.073730 0.400184
vt 0.075195 0.400184
vt 0.073730 0.400184
vt 0.075195 0.400184
vt 0.073730 0.400184
vt 0.075195 0.400184
vt 0.073730 0.400184
vt 0.075195 0.400184
vt 0.073730 0.400184
vt 0.075195 0.400184
vt 0.073730 0.400674
vt 0.075195 0.400674
vt 0.073730 0.400674
vt 0.075195 0.400674
vt 0.073730 0.400674
vt 0.075195 0.400674
vt 0.073730 0.400674
vt 0.075195 0.400674
vt 0.073730 0.400674
vt 0.075195 0.400674
vt 0.073730 0.400674
vt 0.075195 0.400674
vt 0.073730 0.400674
vt 0.075195 0.400674
vt 0.073730 0.400674
vt 0.075195 0.400674
vt 0.073730 0.400184
vt 0.073730 0.400184
vt 0.075195 0.400184
vt 0.075195 0.400184
vt 0.172850 0.249293
vt 0.172850 0.181413
vt 0.190920 0.249293
vt 0.190920 0.181413
vt 0.156740 0.249293
vt 0.156740 0.181413
vt 0.142580 0.249293
vt 0.142580 0.181413
vt 0.125000 0.249293
vt 0.125000 0.181413
vt 0.106440 0.249293
vt 0.106440 0.181413
vt 0.089355 0.249293
vt 0.089355 0.181413
vt 0.075195 0.249293
vt 0.075195 0.181413
vt 0.059082 0.249293
vt 0.059082 0.181413
vt 0.041016 0.249293
vt 0.041016 0.181413
vt 0.022949 0.249293
vt 0.022949 0.181413
vt 0.006836 0.249293
vt 0.006836 0.181413
vt 0.292480 0.249293
vt 0.292480 0.181413
vt 0.306640 0.249293
vt 0.306640 0.181413
vt 0.274900 0.249293
vt 0.274900 0.181413
vt 0.256350 0.249293
vt 0.256350 0.181413
vt 0.239260 0.249293
vt 0.239260 0.181413
vt 0.225100 0.249293
vt 0.225100 0.181413
vt 0.208980 0.249293
vt 0.208980 0.181413
vt 0.210940 0.373334
vt 0.197750 0.350384
vt 0.243160 0.361614
vt 0.178220 0.334264
vt 0.195310 0.303994
vt 0.224610 0.328404
vt 0.153810 0.324994
vt 0.160160 0.291784
vt 0.127930 0.324994
vt 0.122070 0.291784
vt 0.103030 0.334264
vt 0.086426 0.303994
vt 0.083496 0.350384
vt 0.057129 0.328404
vt 0.070313 0.373334
vt 0.037598 0.361614
vt 0.070313 0.373334
vt 0.065918 0.398724
vt 0.037598 0.361614
vt 0.031250 0.398724
vt 0.083496 0.350384
vt 0.057129 0.328404
vt 0.103030 0.334264
vt 0.086426 0.303994
vt 0.127930 0.324994
vt 0.122070 0.291784
vt 0.153810 0.324994
vt 0.160160 0.291784
vt 0.178220 0.334264
vt 0.195310 0.303994
vt 0.197750 0.350384
vt 0.224610 0.328404
vt 0.210940 0.373334
vt 0.243160 0.361614
vt 0.215330 0.398724
vt 0.250490 0.398724
vt 0.210940 0.424604
vt 0.243160 0.436804
vt 0.197750 0.447064
vt 0.224610 0.469034
vt 0.178220 0.463664
vt 0.195310 0.493444
vt 0.153810 0.472454
vt 0.160160 0.506634
vt 0.127930 0.472454
vt 0.122070 0.506634
vt 0.103030 0.463664
vt 0.086426 0.493444
vt 0.083496 0.447064
vt 0.057129 0.469034
vt 0.070313 0.424604
vt 0.037598 0.436804
vt 0.065918 0.398724
vt 0.070313 0.373334
vt 0.078163 0.398724
vt 0.081741 0.376914
vt 0.083496 0.350384
vt 0.092871 0.358574
vt 0.103030 0.334264
vt 0.109620 0.343904
vt 0.127930 0.324994
vt 0.129960 0.337254
vt 0.153810 0.324994
vt 0.151770 0.337264
vt 0.178220 0.334264
vt 0.171590 0.343944
vt 0.197750 0.350384
vt 0.188830 0.358634
vt 0.210940 0.373334
vt 0.199030 0.376894
vt 0.215330 0.398724
vt 0.203980 0.398734
vt 0.210940 0.424604
vt 0.199040 0.420554
vt 0.197750 0.447064
vt 0.188840 0.439314
vt 0.178220 0.463664
vt 0.171610 0.453014
vt 0.153810 0.472454
vt 0.151790 0.461074
vt 0.127930 0.472454
vt 0.129940 0.461104
vt 0.103030 0.463664
vt 0.109610 0.453034
vt 0.083496 0.447064
vt 0.092880 0.439354
vt 0.070313 0.424604
vt 0.081740 0.420544
vt 0.031738 0.359174
vt 0.024902 0.398724
vt 0.051758 0.324504
vt 0.083008 0.299114
vt 0.120120 0.284954
vt 0.160650 0.284954
vt 0.198730 0.299114
vt 0.229490 0.324504
vt 0.250000 0.359174
vt 0.255860 0.398724
vt 0.250000 0.438764
vt 0.229490 0.472944
vt 0.198730 0.498814
vt 0.160650 0.512984
vt 0.120120 0.512984
vt 0.083008 0.498814
vt 0.051758 0.472944
vt 0.031738 0.438764
vt 0.077637 0.377234
vt 0.077637 0.377234
vt 0.077637 0.377234
vt 0.077637 0.377234
vt 0.077637 0.377234
vt 0.077637 0.377234
vt 0.078125 0.377234
vt 0.078125 0.377234
vt 0.078125 0.377724
vt 0.078125 0.377724
vt 0.077637 0.377234
vt 0.077637 0.377724
vt 0.077637 0.377234
vt 0.077637 0.377724
vt 0.077637 0.377234
vt 0.077637 0.377724
vt 0.077637 0.377724
vt 0.077637 0.377724
vt 0.077637 0.377724
vt 0.077637 0.377724
vt 0.077637 0.377724
vt 0.077637 0.377234
vt 0.077637 0.377234
vt 0.051758 0.324504
vt 0.082520 0.298134
vt 0.120610 0.284954
vt 0.065918 0.398724
vt 0.031250 0.398724
vt 0.116210 0.389934
vt 0.127930 0.376754
vt 0.145510 0.373334
vt 0.160650 0.381634
vt 0.166990 0.398724
vt 0.160650 0.415814
vt 0.145510 0.425084
vt 0.127930 0.421674
vt 0.116210 0.407514
vt 0.116210 0.407514
vt 0.116210 0.389934
vt 0.140140 0.398724
vt 0.127930 0.376754
vt 0.145510 0.373334
vt 0.160650 0.381634
vt 0.166990 0.398724
vt 0.160650 0.415814
vt 0.145510 0.425084
vt 0.127930 0.421674
vt 0.215330 0.398724
vt 0.250490 0.398724
vt 0.210940 0.424604
vt 0.243160 0.436804
vt 0.197750 0.447064
vt 0.224610 0.469034
vt 0.178220 0.463664
vt 0.195310 0.493444
vt 0.153810 0.472454
vt 0.160160 0.506634
vt 0.127930 0.472454
vt 0.122070 0.506634
vt 0.103030 0.463664
vt 0.086426 0.493444
vt 0.083496 0.447064
vt 0.057129 0.469034
vt 0.070313 0.424604
vt 0.037598 0.436804
vt 0.065918 0.398724
vt 0.070313 0.373334
vt 0.078163 0.398724
vt 0.081741 0.376914
vt 0.083496 0.350384
vt 0.092871 0.358574
vt 0.103030 0.334264
vt 0.109620 0.343904
vt 0.127930 0.324994
vt 0.129960 0.337254
vt 0.153810 0.324994
vt 0.151770 0.337264
vt 0.178220 0.334264
vt 0.171590 0.343944
vt 0.197750 0.350384
vt 0.188830 0.358634
vt 0.210940 0.373334
vt 0.199030 0.376894
vt 0.215330 0.398724
vt 0.203980 0.398734
vt 0.210940 0.424604
vt 0.199040 0.420554
vt 0.197750 0.447064
vt 0.188840 0.439314
vt 0.178220 0.463664
vt 0.171610 0.453014
vt 0.153810 0.472454
vt 0.151790 0.461074
vt 0.127930 0.472454
vt 0.129940 0.461104
vt 0.103030 0.463664
vt 0.109610 0.453034
vt 0.083496 0.447064
vt 0.092880 0.439354
vt 0.070313 0.424604
vt 0.081740 0.420544
vt 0.031738 0.359174
vt 0.024902 0.398724
vt 0.051758 0.324504
vt 0.083008 0.299114
vt 0.120120 0.284954
vt 0.160650 0.284954
vt 0.198730 0.299114
vt 0.229490 0.324504
vt 0.250000 0.359174
vt 0.255860 0.398724
vt 0.250000 0.438764
vt 0.229490 0.472944
vt 0.198730 0.498814
vt 0.160650 0.512984
vt 0.120120 0.512984
vt 0.083008 0.498814
vt 0.051758 0.472944
vt 0.031738 0.438764
vt 0.116210 0.389934
vt 0.127930 0.376754
vt 0.145510 0.373334
vt 0.160650 0.381634
vt 0.166990 0.398724
vt 0.160650 0.415814
vt 0.145510 0.425084
vt 0.127930 0.421674
vt 0.116210 0.407514
vt 0.116210 0.407514
vt 0.116210 0.389934
vt 0.140140 0.398724
vt 0.127930 0.376754
vt 0.145510 0.373334
vt 0.160650 0.381634
vt 0.166990 0.398724
vt 0.160650 0.415814
vt 0.145510 0.425084
vt 0.127930 0.421674
vn -0.0000 -0.3420 0.9397
vn -0.0000 -0.0000 1.0000
vn -0.0000 -0.6428 0.7660
vn -0.0000 -0.8660 0.5000
vn -0.0000 -0.9848 0.1736
vn 0.0000 -0.9848 -0.1736
vn 0.0000 -0.8660 -0.5000
vn 0.0000 -0.6428 -0.7660
vn 0.0000 -0.3420 -0.9397
vn 0.0000 -0.0000 -1.0000
vn 0.0000 0.3420 -0.9397
vn 0.0000 0.6428 -0.7660
vn 0.0000 0.8660 -0.5000
vn 0.0000 0.9848 -0.1736
vn -0.0000 0.9848 0.1736
vn -0.0000 0.8660 0.5000
vn -0.0000 0.6428 0.7660
vn -0.0000 0.3420 0.9397
vn -0.4914 0.7542 -0.4355
vn -0.4914 0.8577 -0.1512
vn -0.4914 0.8577 0.1512
vn -0.4914 0.7542 0.4355
vn -0.4914 0.5598 0.6672
vn -0.4914 0.2979 0.8184
vn -0.4914 0.0000 0.8709
vn -0.4914 -0.2979 0.8184
vn -0.4914 -0.5598 0.6672
vn -0.4914 -0.7542 0.4355
vn -0.4914 -0.8577 0.1512
vn -0.9944 -0.0363 0.0997
vn -0.9944 -0.0682 0.0813
vn -0.9819 0.0648 -0.1780
vn -0.9944 -0.0919 0.0531
vn -0.9760 0.1708 -0.1352
vn -0.9806 0.1393 -0.1376
vn -0.9944 -0.1045 0.0184
vn -0.9760 0.2068 -0.0686
vn -0.9944 -0.1045 -0.0184
vn -0.9760 0.2178 0.0062
vn -0.9944 -0.0919 -0.0531
vn -0.9760 0.2025 0.0803
vn -0.9944 -0.0682 -0.0813
vn -0.9760 0.1628 0.1447
vn -0.9944 -0.0363 -0.0997
vn -0.9760 0.1034 0.1917
vn 0.9944 -0.0363 0.0997
vn 0.9944 -0.0000 0.1061
vn 0.9819 0.0648 -0.1780
vn 0.9819 -0.0000 -0.1894
vn 0.9944 -0.0682 0.0813
vn 0.9819 0.1217 -0.1451
vn 0.9944 -0.0919 0.0531
vn 0.9819 0.1640 -0.0947
vn 0.9944 -0.1045 0.0184
vn 0.9819 0.1865 -0.0329
vn 0.9944 -0.1045 -0.0184
vn 0.9819 0.1865 0.0329
vn 0.9944 -0.0919 -0.0531
vn 0.9819 0.1640 0.0947
vn 0.9944 -0.0682 -0.0813
vn 0.9819 0.1217 0.1451
vn 0.9944 -0.0363 -0.0997
vn 0.9819 0.0648 0.1780
vn 0.9944 -0.0000 -0.1061
vn 0.9819 -0.0000 0.1894
vn 0.9944 0.0363 -0.0997
vn 0.9819 -0.0648 0.1780
vn 0.9944 0.0682 -0.0813
vn 0.9819 -0.1217 0.1451
vn 0.9944 0.0919 -0.0531
vn 0.9819 -0.1640 0.0947
vn 0.9944 0.1045 -0.0184
vn 0.9819 -0.1865 0.0329
vn 0.9944 0.1045 0.0184
vn 0.9819 -0.1865 -0.0329
vn 0.9944 0.0919 0.0531
vn 0.9819 -0.1640 -0.0947
vn 0.9944 0.0682 0.0813
vn 0.9819 -0.1217 -0.1451
vn 0.9944 0.0363 0.0997
vn 0.9819 -0.0648 -0.1780
vn 0.9543 -0.0000 0.2988
vn 0.9543 -0.1022 0.2808
vn 0.9945 -0.0000 0.1046
vn 0.9905 -0.0470 0.1292
vn 0.9543 -0.1921 0.2289
vn 0.9945 -0.0672 0.0801
vn 0.9543 -0.2588 0.1494
vn 0.9905 -0.1190 0.0687
vn 0.9543 -0.2943 0.0519
vn 0.9945 -0.1030 0.0182
vn 0.9543 -0.2943 -0.0519
vn 0.9905 -0.1354 -0.0239
vn 0.9543 -0.2588 -0.1494
vn 0.9945 -0.0906 -0.0523
vn 0.9543 -0.1921 -0.2289
vn 0.9905 -0.0884 -0.1053
vn 0.9543 -0.1022 -0.2808
vn 0.9945 -0.0358 -0.0983
vn 0.9543 0.0000 -0.2988
vn 0.9905 0.0000 -0.1375
vn 0.9543 0.1022 -0.2808
vn 0.9945 0.0358 -0.0983
vn 0.9543 0.1921 -0.2289
vn 0.9905 0.0883 -0.1053
vn 0.9543 0.2588 -0.1494
vn 0.9945 0.0906 -0.0523
vn 0.9543 0.2943 -0.0519
vn 0.9905 0.1354 -0.0239
vn 0.9543 0.2943 0.0519
vn 0.9945 0.1030 0.0182
vn 0.9543 0.2588 0.1494
vn 0.9905 0.1190 0.0687
vn 0.9543 0.1921 0.2289
vn 0.9945 0.0672 0.0801
vn 0.9543 0.1022 0.2808
vn 0.9905 0.0470 0.1292
vn 0.8831 0.1605 -0.4409
vn 0.8831 0.0000 -0.4692
vn 0.8831 0.3016 -0.3594
vn 0.8831 0.4064 -0.2346
vn 0.8831 0.4621 -0.0815
vn 0.8831 0.4621 0.0815
vn 0.8831 0.4064 0.2346
vn 0.8831 0.3016 0.3595
vn 0.8831 0.1605 0.4409
vn 0.8831 -0.0000 0.4692
vn 0.8831 -0.1605 0.4409
vn 0.8831 -0.3016 0.3595
vn 0.8831 -0.4064 0.2346
vn 0.8831 -0.4621 0.0815
vn 0.8831 -0.4621 -0.0815
vn 0.8831 -0.4064 -0.2346
vn 0.8831 -0.3016 -0.3594
vn 0.8831 -0.1605 -0.4409
vn 0.0455 0.3417 -0.9387
vn 0.0455 -0.3417 -0.9387
vn 0.0455 0.8651 -0.4995
vn 0.0455 0.9838 0.1735
vn 0.0455 0.6421 0.7652
vn 0.0455 -0.0000 0.9990
vn 0.0455 -0.6421 0.7653
vn 0.0455 -0.6421 0.7652
vn 0.0455 -0.9838 0.1735
vn 0.0455 -0.8651 -0.4995
vn -1.0000 -0.0000 0.0000
vn -0.9944 -0.0000 -0.1061
vn -0.9819 -0.0000 0.1894
vn 0.9997 0.0087 -0.0240
vn 0.9997 0.0221 -0.0127
vn 0.9997 0.0251 0.0044
vn 0.9997 0.0164 0.0195
vn 0.9997 0.0000 0.0255
vn 0.9997 -0.0166 0.0198
vn 0.9997 -0.0260 0.0045
vn 0.9997 -0.0226 -0.0129
vn 0.9997 -0.0087 -0.0240
vn 0.9321 0.1238 0.3403
vn 0.9321 -0.1238 0.3403
vn 1.0000 -0.0000 0.0000
vn 0.9321 -0.3136 0.1811
vn 0.9321 -0.3566 -0.0629
vn 0.9321 -0.2328 -0.2774
vn 0.9321 0.0000 -0.3621
vn 0.9321 0.2328 -0.2774
vn 0.9321 0.3566 -0.0629
vn 0.9321 0.3136 0.1811
vn -0.9944 -0.0000 0.1061
vn -0.9819 -0.0000 -0.1894
vn -0.9944 0.0363 0.0997
vn -0.9819 -0.0648 -0.1780
vn -0.9944 0.0682 0.0813
vn -0.9819 -0.1217 -0.1451
vn -0.9944 0.0919 0.0531
vn -0.9819 -0.1640 -0.0947
vn -0.9944 0.1045 0.0184
vn -0.9819 -0.1865 -0.0329
vn -0.9944 0.1045 -0.0184
vn -0.9819 -0.1865 0.0329
vn -0.9944 0.0919 -0.0531
vn -0.9819 -0.1640 0.0947
vn -0.9944 0.0682 -0.0813
vn -0.9819 -0.1217 0.1451
vn -0.9944 0.0363 -0.0997
vn -0.9819 -0.0648 0.1781
vn -0.9543 -0.0000 -0.2988
vn -0.9543 -0.1022 -0.2808
vn -0.9945 0.0000 -0.1046
vn -0.9905 -0.0470 -0.1292
vn -0.9543 -0.1921 -0.2289
vn -0.9945 -0.0672 -0.0801
vn -0.9543 -0.2588 -0.1494
vn -0.9905 -0.1190 -0.0687
vn -0.9543 -0.2943 -0.0519
vn -0.9945 -0.1030 -0.0182
vn -0.9543 -0.2943 0.0519
vn -0.9905 -0.1354 0.0239
vn -0.9543 -0.2588 0.1494
vn -0.9945 -0.0906 0.0523
vn -0.9543 -0.1921 0.2289
vn -0.9905 -0.0884 0.1053
vn -0.9543 -0.1022 0.2808
vn -0.9945 -0.0358 0.0983
vn -0.9543 0.0000 0.2988
vn -0.9905 -0.0000 0.1375
vn -0.9543 0.1022 0.2808
vn -0.9945 0.0358 0.0983
vn -0.9543 0.1921 0.2289
vn -0.9905 0.0883 0.1053
vn -0.9543 0.2588 0.1494
vn -0.9945 0.0906 0.0523
vn -0.9543 0.2943 0.0519
vn -0.9905 0.1354 0.0239
vn -0.9543 0.2943 -0.0519
vn -0.9945 0.1030 -0.0182
vn -0.9543 0.2588 -0.1494
vn -0.9905 0.1190 -0.0687
vn -0.9543 0.1921 -0.2289
vn -0.9945 0.0672 -0.0801
vn -0.9543 0.1022 -0.2808
vn -0.9905 0.0470 -0.1292
vn -0.8831 0.3016 -0.3594
vn -0.8831 0.1605 -0.4409
vn -0.8831 -0.0000 -0.4692
vn -0.8831 -0.1605 -0.4409
vn -0.8831 -0.3016 -0.3595
vn -0.8831 -0.4064 -0.2346
vn -0.8831 -0.4621 -0.0815
vn -0.9997 0.0087 0.0240
vn -0.9997 0.0221 0.0127
vn -0.9997 0.0251 -0.0044
vn -0.9997 0.0164 -0.0195
vn -0.9997 0.0000 -0.0255
vn -0.9997 -0.0166 -0.0198
vn -0.9997 -0.0260 -0.0045
vn -0.9997 -0.0226 0.0129
vn -0.9997 -0.0087 0.0240
vn -0.9321 0.1238 -0.3403
vn -0.9321 -0.1238 -0.3403
vn -0.9321 -0.3136 -0.1811
vn -0.9321 -0.3566 0.0629
vn -0.9321 -0.2328 0.2774
vn -0.9321 -0.0000 0.3621
vn -0.9321 0.2328 0.2774
vn -0.9321 0.3566 0.0629
vn -0.9321 0.3136 -0.1811
usemtl Default_OBJ.006
s 1
f 1/1/1 2/2/2 3/3/1
f 2/2/2 4/4/2 3/3/1
f 3/3/1 5/5/3 1/1/1
f 5/5/3 6/6/3 1/1/1
f 5/5/3 7/7/4 6/6/3
f 7/7/4 8/8/4 6/6/3
f 7/7/4 9/9/5 8/8/4
f 9/9/5 10/10/5 8/8/4
f 9/9/5 11/11/6 10/10/5
f 11/11/6 12/12/6 10/10/5
f 11/11/6 13/13/7 12/12/6
f 13/13/7 14/14/7 12/12/6
f 13/13/7 15/15/8 14/14/7
f 15/15/8 16/16/8 14/14/7
f 15/15/8 17/17/9 16/16/8
f 17/17/9 18/18/9 16/16/8
f 17/17/9 19/19/10 18/18/9
f 19/19/10 20/20/10 18/18/9
f 19/19/10 21/21/11 20/20/10
f 21/21/11 22/22/11 20/20/10
f 21/21/11 23/23/12 22/22/11
f 23/23/12 24/24/12 22/22/11
f 23/23/12 25/25/13 24/24/12
f 25/25/13 26/26/13 24/24/12
f 25/25/13 27/27/14 26/26/13
f 27/27/14 28/28/14 26/26/13
f 27/27/14 29/29/15 28/28/14
f 29/29/15 30/30/15 28/28/14
f 29/29/15 31/31/16 30/30/15
f 31/31/16 32/32/16 30/30/15
f 31/31/16 33/33/17 32/32/16
f 33/33/17 34/34/17 32/32/16
f 33/35/17 35/36/18 34/37/17
f 35/36/18 36/38/18 34/37/17
f 2/2/2 36/38/18 4/4/2
f 36/38/18 35/36/18 4/4/2
f 37/39/11 38/40/11 39/41/10
f 38/40/11 40/42/10 39/41/10
f 41/43/12 42/44/12 37/39/11
f 42/44/12 38/40/11 37/39/11
f 43/45/19 44/46/13 41/43/12
f 44/46/13 42/44/12 41/43/12
f 45/47/20 46/48/14 43/45/19
f 46/48/14 44/46/13 43/45/19
f 47/49/21 48/50/15 45/47/20
f 48/50/15 46/48/14 45/47/20
f 49/51/22 50/52/16 47/49/21
f 50/52/16 48/50/15 47/49/21
f 51/53/23 52/54/17 49/51/22
f 52/54/17 50/52/16 49/51/22
f 53/55/24 54/56/18 51/53/23
f 54/56/18 52/54/17 51/53/23
f 55/57/25 56/58/2 53/55/24
f 56/58/2 54/56/18 53/55/24
f 57/59/26 58/60/1 55/57/25
f 58/60/1 56/58/2 55/57/25
f 59/61/27 60/62/3 57/59/26
f 60/62/3 58/60/1 57/59/26
f 61/63/28 62/64/4 59/65/27
f 62/64/4 60/66/3 59/65/27
f 63/67/29 64/68/5 61/63/28
f 64/68/5 62/64/4 61/63/28
f 65/69/6 66/70/6 63/67/29
f 66/70/6 64/68/5 63/67/29
f 67/71/7 68/72/7 65/69/6
f 68/72/7 66/70/6 65/69/6
f 69/73/8 70/74/8 67/71/7
f 70/74/8 68/72/7 67/71/7
f 71/75/9 72/76/9 69/73/8
f 72/76/9 70/74/8 69/73/8
f 39/41/10 40/42/10 71/75/9
f 40/42/10 72/76/9 71/75/9
f 73/77/30 74/78/31 75/79/32
f 76/80/33 77/81/34 78/82/35
f 74/78/31 76/80/33 78/82/35
f 79/83/36 80/84/37 77/81/34
f 76/80/33 79/83/36 77/81/34
f 81/85/38 82/86/39 80/84/37
f 79/83/36 81/85/38 80/84/37
f 83/87/40 84/88/41 82/86/39
f 81/85/38 83/87/40 82/86/39
f 85/89/42 86/90/43 84/88/41
f 83/87/40 85/89/42 84/88/41
f 87/91/44 88/92/45 86/90/43
f 89/93/46 90/94/47 91/95/48
f 90/94/47 92/96/49 91/95/48
f 93/97/50 89/93/46 94/98/51
f 89/93/46 91/95/48 94/98/51
f 95/99/52 93/97/50 96/100/53
f 93/97/50 94/98/51 96/100/53
f 97/101/54 95/99/52 98/102/55
f 95/99/52 96/100/53 98/102/55
f 99/103/56 97/101/54 100/104/57
f 97/101/54 98/102/55 100/104/57
f 101/105/58 99/103/56 102/106/59
f 99/103/56 100/104/57 102/106/59
f 103/107/60 101/105/58 104/108/61
f 101/105/58 102/106/59 104/108/61
f 105/109/62 103/107/60 106/110/63
f 103/107/60 104/108/61 106/110/63
f 107/111/64 105/109/62 108/112/65
f 105/109/62 106/110/63 108/112/65
f 109/113/66 107/111/64 110/114/67
f 107/111/64 108/112/65 110/114/67
f 111/115/68 109/113/66 112/116/69
f 109/113/66 110/114/67 112/116/69
f 113/117/70 111/115/68 114/118/71
f 111/115/68 112/116/69 114/118/71
f 115/119/72 113/117/70 116/120/73
f 113/117/70 114/118/71 116/120/73
f 117/121/74 115/119/72 118/122/75
f 115/119/72 116/120/73 118/122/75
f 119/123/76 117/121/74 120/124/77
f 117/121/74 118/122/75 120/124/77
f 121/125/78 119/123/76 122/126/79
f 119/123/76 120/124/77 122/126/79
f 123/127/80 121/125/78 124/128/81
f 121/125/78 122/126/79 124/128/81
f 90/94/47 123/127/80 92/96/49
f 123/127/80 124/128/81 92/96/49
f 125/129/82 126/130/83 127/131/84
f 126/130/83 128/132/85 127/131/84
f 126/130/83 129/133/86 128/132/85
f 129/133/86 130/134/87 128/132/85
f 129/133/86 131/135/88 130/134/87
f 131/135/88 132/136/89 130/134/87
f 131/135/88 133/137/90 132/136/89
f 133/137/90 134/138/91 132/136/89
f 133/137/90 135/139/92 134/138/91
f 135/139/92 136/140/93 134/138/91
f 135/139/92 137/141/94 136/140/93
f 137/141/94 138/142/95 136/140/93
f 137/141/94 139/143/96 138/142/95
f 139/143/96 140/144/97 138/142/95
f 139/143/96 141/145/98 140/144/97
f 141/145/98 142/146/99 140/144/97
f 141/145/98 143/147/100 142/146/99
f 143/147/100 144/148/101 142/146/99
f 143/147/100 145/149/102 144/148/101
f 145/149/102 146/150/103 144/148/101
f 145/149/102 147/151/104 146/150/103
f 147/151/104 148/152/105 146/150/103
f 147/151/104 149/153/106 148/152/105
f 149/153/106 150/154/107 148/152/105
f 149/153/106 151/155/108 150/154/107
f 151/155/108 152/156/109 150/154/107
f 151/155/108 153/157/110 152/156/109
f 153/157/110 154/158/111 152/156/109
f 153/157/110 155/159/112 154/158/111
f 155/159/112 156/160/113 154/158/111
f 155/159/112 157/161/114 156/160/113
f 157/161/114 158/162/115 156/160/113
f 157/161/114 159/163/116 158/162/115
f 159/163/116 160/164/117 158/162/115
f 159/163/116 125/129/82 160/164/117
f 125/129/82 127/131/84 160/164/117
f 161/165/118 91/95/48 162/166/119
f 91/95/48 92/96/49 162/166/119
f 163/167/120 94/98/51 161/165/118
f 94/98/51 91/95/48 161/165/118
f 164/168/121 96/100/53 163/167/120
f 96/100/53 94/98/51 163/167/120
f 165/169/122 98/102/55 164/168/121
f 98/102/55 96/100/53 164/168/121
f 166/170/123 100/104/57 165/169/122
f 100/104/57 98/102/55 165/169/122
f 167/171/124 102/106/59 166/170/123
f 102/106/59 100/104/57 166/170/123
f 168/172/125 104/108/61 167/171/124
f 104/108/61 102/106/59 167/171/124
f 169/173/126 106/110/63 168/172/125
f 106/110/63 104/108/61 168/172/125
f 170/174/127 108/112/65 169/173/126
f 108/112/65 106/110/63 169/173/126
f 171/175/128 110/114/67 170/174/127
f 110/114/67 108/112/65 170/174/127
f 172/176/129 112/116/69 171/175/128
f 112/116/69 110/114/67 171/175/128
f 173/177/130 114/118/71 172/176/129
f 114/118/71 112/116/69 172/176/129
f 174/178/131 116/120/73 173/177/130
f 116/120/73 114/118/71 173/177/130
f 175/179/132 118/122/75 174/178/131
f 118/122/75 116/120/73 174/178/131
f 176/180/133 120/124/77 175/179/132
f 120/124/77 118/122/75 175/179/132
f 177/181/134 122/126/79 176/180/133
f 122/126/79 120/124/77 176/180/133
f 178/182/135 124/128/81 177/181/134
f 124/128/81 122/126/79 177/181/134
f 92/96/49 124/128/81 162/166/119
f 124/128/81 178/182/135 162/166/119
f 179/183/136 180/184/137 181/185/136
f 180/184/137 182/186/137 181/185/136
f 183/187/138 179/183/136 184/188/138
f 179/183/136 181/185/136 184/188/138
f 185/189/139 183/190/138 186/191/139
f 183/190/138 184/192/138 186/191/139
f 187/193/140 185/189/139 188/194/140
f 185/189/139 186/191/139 188/194/140
f 189/195/141 187/193/140 190/196/141
f 187/193/140 188/194/140 190/196/141
f 191/197/142 189/195/141 192/198/143
f 189/195/141 190/196/141 192/198/143
f 193/199/144 191/200/142 194/201/144
f 191/200/142 192/198/143 194/201/144
f 195/202/145 193/199/144 196/203/145
f 193/199/144 194/201/144 196/203/145
f 180/184/137 195/204/145 182/186/137
f 195/204/145 196/205/145 182/186/137
f 197/206/146 198/207/146 199/208/146
f 85/89/42 87/91/44 86/90/43
f 200/209/147 201/210/148 88/92/45
f 87/91/44 200/209/147 88/92/45
f 127/131/84 128/132/85 202/211/149
f 128/132/85 130/134/87 202/211/149
f 130/134/87 132/136/89 203/212/150
f 132/136/89 134/138/91 203/212/150
f 134/138/91 136/140/93 204/213/151
f 136/140/93 138/142/95 204/213/151
f 138/142/95 140/144/97 205/214/152
f 140/144/97 142/146/99 205/214/152
f 142/146/99 144/148/101 206/215/153
f 144/148/101 146/150/103 206/215/153
f 146/150/103 148/152/105 207/216/154
f 148/152/105 150/154/107 207/216/154
f 150/154/107 152/156/109 208/217/155
f 152/156/109 154/158/111 208/217/155
f 154/158/111 209/218/156 208/217/155
f 156/160/113 158/162/115 209/218/156
f 158/162/115 160/164/117 210/219/157
f 160/164/117 127/131/84 210/219/157
f 211/220/158 212/221/159 213/222/160
f 212/221/159 214/223/161 213/222/160
f 214/223/161 215/224/162 213/222/160
f 215/224/162 216/225/163 213/222/160
f 216/225/163 217/226/164 213/222/160
f 217/226/164 218/227/165 213/222/160
f 218/227/165 219/228/166 213/222/160
f 219/228/166 220/229/167 213/222/160
f 220/229/167 211/220/158 213/222/160
f 202/211/149 210/219/157 127/131/84
f 210/219/157 209/218/156 158/162/115
f 154/158/111 156/160/113 209/218/156
f 208/217/155 207/216/154 150/154/107
f 207/216/154 206/215/153 146/150/103
f 206/215/153 205/214/152 142/146/99
f 205/214/152 204/213/151 138/142/95
f 204/213/151 203/212/150 134/138/91
f 203/212/150 202/211/149 130/134/87
f 74/78/31 78/82/35 75/79/32
f 221/230/168 73/77/30 222/231/169
f 73/77/30 75/79/32 222/231/169
f 223/232/170 221/230/168 224/233/171
f 221/230/168 222/231/169 224/233/171
f 225/234/172 223/232/170 226/235/173
f 223/232/170 224/233/171 226/235/173
f 227/236/174 225/234/172 228/237/175
f 225/234/172 226/235/173 228/237/175
f 229/238/176 227/236/174 230/239/177
f 227/236/174 228/237/175 230/239/177
f 231/240/178 229/238/176 232/241/179
f 229/238/176 230/239/177 232/241/179
f 233/242/180 231/240/178 234/243/181
f 231/240/178 232/241/179 234/243/181
f 235/244/182 233/242/180 236/245/183
f 233/242/180 234/243/181 236/245/183
f 237/246/184 235/244/182 238/247/185
f 235/244/182 236/245/183 238/247/185
f 200/209/147 237/246/184 201/210/148
f 237/246/184 238/247/185 201/210/148
f 239/248/186 240/249/187 20/250/188
f 240/249/187 18/251/189 20/250/188
f 240/249/187 241/252/190 18/251/189
f 241/252/190 16/253/191 18/251/189
f 241/252/190 242/254/192 16/253/191
f 242/254/192 14/255/193 16/253/191
f 242/254/192 243/256/194 14/255/193
f 243/256/194 12/257/195 14/255/193
f 243/256/194 244/258/196 12/257/195
f 244/258/196 10/259/197 12/257/195
f 244/258/196 245/260/198 10/259/197
f 245/260/198 8/261/199 10/259/197
f 245/260/198 246/262/200 8/261/199
f 246/262/200 6/263/201 8/261/199
f 246/262/200 247/264/202 6/263/201
f 247/264/202 1/265/203 6/263/201
f 247/264/202 248/266/204 1/265/203
f 248/266/204 2/267/205 1/265/203
f 248/266/204 249/268/206 2/267/205
f 249/268/206 36/269/207 2/267/205
f 249/268/206 250/270/208 36/269/207
f 250/270/208 34/271/209 36/269/207
f 250/270/208 251/272/210 34/271/209
f 251/272/210 32/273/211 34/271/209
f 251/272/210 252/274/212 32/273/211
f 252/274/212 30/275/213 32/273/211
f 252/274/212 253/276/214 30/275/213
f 253/276/214 28/277/215 30/275/213
f 253/276/214 254/278/216 28/277/215
f 254/278/216 26/279/217 28/277/215
f 254/278/216 255/280/218 26/279/217
f 255/280/218 24/281/219 26/279/217
f 255/280/218 256/282/220 24/281/219
f 256/282/220 22/283/221 24/281/219
f 256/282/220 239/248/186 22/283/221
f 239/248/186 20/250/188 22/283/221
f 53/284/24 88/92/45 55/285/25
f 88/92/45 201/210/148 55/285/25
f 51/286/23 86/90/43 53/284/24
f 86/90/43 88/92/45 53/284/24
f 49/287/22 84/88/41 51/286/23
f 84/88/41 86/90/43 51/286/23
f 47/288/21 82/86/39 49/287/22
f 82/86/39 84/88/41 49/287/22
f 45/289/20 80/84/37 47/288/21
f 80/84/37 82/86/39 47/288/21
f 43/290/19 77/81/34 45/289/20
f 77/81/34 80/84/37 45/289/20
f 257/291/222 78/82/35 43/290/19
f 78/82/35 77/81/34 43/290/19
f 258/292/223 75/79/32 257/291/222
f 75/79/32 78/82/35 257/291/222
f 259/293/224 222/231/169 258/292/223
f 222/231/169 75/79/32 258/292/223
f 260/294/225 224/233/171 259/293/224
f 224/233/171 222/231/169 259/293/224
f 261/295/226 226/235/173 260/294/225
f 226/235/173 224/233/171 260/294/225
f 262/296/227 228/237/175 261/295/226
f 228/237/175 226/235/173 261/295/226
f 263/297/228 230/239/177 262/296/227
f 230/239/177 228/237/175 262/296/227
f 63/298/29 232/241/179 263/297/228
f 232/241/179 230/239/177 263/297/228
f 61/299/28 234/243/181 63/298/29
f 234/243/181 232/241/179 63/298/29
f 59/300/27 236/245/183 61/299/28
f 236/245/183 234/243/181 61/299/28
f 57/301/26 238/247/185 59/300/27
f 238/247/185 236/245/183 59/300/27
f 201/210/148 238/247/185 55/285/25
f 238/247/185 57/301/26 55/285/25
f 20/250/188 18/251/189 264/302/229
f 18/251/189 16/253/191 264/302/229
f 16/253/191 14/255/193 265/303/230
f 14/255/193 12/257/195 265/303/230
f 12/257/195 10/259/197 266/304/231
f 10/259/197 8/261/199 266/304/231
f 8/261/199 6/263/201 267/305/232
f 6/263/201 1/265/203 267/305/232
f 1/265/203 2/267/205 268/306/233
f 2/267/205 36/269/207 268/306/233
f 36/269/207 34/271/209 269/307/234
f 34/271/209 32/273/211 269/307/234
f 32/273/211 30/275/213 270/308/235
f 30/275/213 28/277/215 270/308/235
f 28/277/215 271/309/236 270/308/235
f 26/279/217 24/281/219 271/309/236
f 24/281/219 22/283/221 272/310/237
f 22/283/221 20/250/188 272/310/237
f 273/311/238 274/312/239 275/313/146
f 274/312/239 276/314/240 275/313/146
f 276/314/240 277/315/241 275/313/146
f 277/315/241 278/316/242 275/313/146
f 278/316/242 279/317/243 275/313/146
f 279/317/243 280/318/244 275/313/146
f 280/318/244 281/319/245 275/313/146
f 281/319/245 282/320/246 275/313/146
f 282/320/246 273/311/238 275/313/146
f 264/302/229 272/310/237 20/250/188
f 272/310/237 271/309/236 24/281/219
f 28/277/215 26/279/217 271/309/236
f 270/308/235 269/307/234 32/273/211
f 269/307/234 268/306/233 36/269/207
f 268/306/233 267/305/232 1/265/203
f 267/305/232 266/304/231 8/261/199
f 266/304/231 265/303/230 12/257/195
f 265/303/230 264/302/229 16/253/191
