# Blender v3.0.1 OBJ File: ''
# www.blender.org
mtllib evo_wrc.mtl
o evo.003
v 0.316918 1.183663 0.530268
v -0.311967 1.183663 0.530268
v -0.324545 -1.455449 0.622063
v -0.800126 1.183663 0.530268
v -0.832231 -1.455449 0.622063
v 0.329496 -1.455449 0.622063
v 0.837182 -1.455449 0.622063
v 0.805078 1.183663 0.530268
v -0.645059 0.775301 0.525448
v -0.401857 1.098101 0.496553
v -0.401848 1.098096 0.367853
v -0.173848 0.688895 0.367885
v -0.173867 0.688905 0.626785
v 0.184433 0.688905 0.626811
v 0.655541 0.775301 0.525542
v 0.184452 0.688895 0.367911
v 0.412452 1.098096 0.367912
v 0.412443 1.098101 0.496612
v 0.140941 1.155501 0.525290
v -0.130459 1.155501 0.525270
v -0.645043 0.775292 0.303748
v 0.655557 0.775292 0.303842
v -0.522163 -0.822082 0.737208
v -0.555645 -0.759492 0.483903
v -0.551744 -0.802993 0.475005
v -0.544364 -0.866283 0.738408
v -0.003966 -0.873282 0.767847
v -0.003764 -0.822782 0.747445
v -0.002245 -0.754593 0.484943
v -0.519231 -0.700100 0.281203
v -0.000730 -0.696101 0.271841
v -0.000527 -0.732601 0.233642
v -0.524129 -0.739701 0.262904
v 0.569537 -0.822082 0.737587
v 0.591636 -0.866283 0.738790
v 0.594555 -0.802993 0.475288
v 0.605955 -0.759492 0.484087
v 0.555670 -0.700100 0.281281
v 0.560671 -0.739701 0.262983
v -0.522162 -0.905884 0.720111
v -0.530044 -0.846493 0.466208
v -0.002244 -0.851292 0.465346
v -0.003763 -0.909783 0.729748
v -0.502029 -0.783900 0.264108
v -0.000729 -0.783200 0.254144
v 0.569538 -0.905884 0.720490
v 0.563656 -0.846493 0.466387
v 0.538471 -0.783900 0.264283
v -0.597662 -0.028620 0.622758
v -0.622945 0.020272 0.390454
v -0.647944 -0.023228 0.381654
v -0.606162 -0.072420 0.623259
v -0.400764 -0.077819 0.650174
v -0.400462 -0.028919 0.632172
v -0.398045 0.025171 0.391571
v -0.631528 0.066062 0.157552
v -0.395527 0.069463 0.148969
v -0.395225 0.031361 0.113271
v -0.639827 0.025963 0.140053
v -0.203062 -0.028620 0.623087
v -0.194862 -0.072420 0.623489
v -0.148044 -0.023228 0.381790
v -0.173045 0.020272 0.390687
v -0.159728 0.066062 0.157586
v -0.151327 0.025963 0.140088
v -0.597660 -0.112421 0.605761
v -0.622944 -0.066730 0.372758
v -0.398044 -0.071530 0.371874
v -0.400461 -0.115920 0.614476
v -0.631527 -0.017738 0.140555
v -0.395526 -0.017539 0.131272
v -0.203060 -0.112421 0.606090
v -0.173044 -0.066730 0.372990
v -0.159727 -0.017738 0.140589
v -0.492179 -0.069271 0.828533
v -0.503174 -0.051674 0.749632
v -0.515473 -0.090374 0.741732
v -0.496179 -0.107071 0.823934
v -0.391880 -0.108970 0.833142
v -0.391980 -0.068370 0.831841
v -0.392474 -0.047374 0.750540
v -0.506068 -0.037077 0.670231
v -0.393068 -0.034977 0.667439
v -0.393166 -0.071777 0.650441
v -0.510167 -0.073677 0.659632
v -0.291779 -0.069271 0.828548
v -0.287679 -0.107071 0.823949
v -0.269573 -0.090374 0.741750
v -0.281874 -0.051674 0.749648
v -0.280068 -0.037077 0.670247
v -0.275967 -0.073677 0.659649
v -0.492178 -0.143671 0.813336
v -0.503172 -0.129074 0.733935
v -0.392472 -0.133374 0.733043
v -0.391978 -0.145771 0.816143
v -0.506067 -0.111477 0.655034
v -0.393067 -0.112277 0.651742
v -0.291778 -0.143671 0.813351
v -0.281872 -0.129074 0.733951
v -0.280067 -0.111477 0.655050
v 0.285921 -0.068471 0.823289
v 0.273527 -0.051174 0.744488
v 0.261127 -0.090374 0.736588
v 0.281821 -0.106571 0.818791
v 0.386021 -0.103471 0.827898
v 0.386021 -0.062871 0.826697
v 0.385327 -0.041874 0.745396
v 0.269433 -0.036277 0.665087
v 0.384733 -0.029477 0.662295
v 0.384634 -0.066278 0.645297
v 0.265333 -0.073077 0.654388
v 0.486021 -0.058971 0.823303
v 0.490121 -0.096671 0.818805
v 0.509527 -0.079374 0.736606
v 0.497127 -0.041274 0.744504
v 0.500033 -0.026777 0.665103
v 0.504133 -0.063177 0.654405
v 0.285922 -0.142971 0.808192
v 0.273528 -0.128474 0.728791
v 0.385328 -0.127874 0.727899
v 0.386022 -0.140271 0.810900
v 0.269434 -0.110777 0.649890
v 0.384734 -0.106878 0.646598
v 0.486022 -0.133471 0.808206
v 0.497128 -0.118574 0.728807
v 0.500034 -0.101277 0.649906
v 0.195939 -0.028620 0.617916
v 0.163356 0.020272 0.385511
v 0.138856 -0.023228 0.376611
v 0.187839 -0.072420 0.618317
v 0.384537 -0.077819 0.645231
v 0.384438 -0.028919 0.627229
v 0.383455 0.025171 0.386527
v 0.146972 0.066062 0.152408
v 0.382473 0.069463 0.143825
v 0.382376 0.031360 0.108127
v 0.138774 0.025961 0.134909
v 0.572839 -0.028620 0.617943
v 0.581039 -0.072420 0.618345
v 0.628056 -0.023228 0.376647
v 0.603655 0.020272 0.385543
v 0.618072 0.066062 0.152442
v 0.626274 0.025961 0.134944
v 0.195940 -0.112421 0.600819
v 0.163357 -0.066730 0.367815
v 0.383457 -0.071530 0.366831
v 0.384439 -0.115920 0.609532
v 0.146974 -0.017738 0.135312
v 0.382474 -0.017539 0.126129
v 0.572840 -0.112421 0.600846
v 0.603657 -0.066730 0.367846
v 0.618074 -0.017738 0.135346
v 0.663880 -1.157115 0.851552
v 0.663880 0.472250 0.908924
v 0.837182 -1.455449 0.622063
v 0.562902 -0.835832 0.977770
v 0.562902 0.185390 0.989245
v 0.805078 1.183663 0.530268
v 0.329496 -1.455449 0.622063
v 0.261600 -1.214745 0.874500
v 0.222038 -0.870972 1.000719
v 0.222038 0.221735 1.012193
v 0.261600 0.528675 0.931873
v 0.316918 1.183663 0.530268
v -0.658930 0.472250 0.908924
v -0.832231 -1.455449 0.622063
v -0.800126 1.183663 0.530268
v -0.658929 -1.157115 0.851552
v -0.557952 -0.835832 0.977770
v -0.557952 0.185390 0.989245
v -0.256650 -1.214745 0.874500
v -0.324545 -1.455449 0.622063
v -0.217089 -0.870972 1.000719
v -0.217089 0.221735 1.012193
v -0.256650 0.528675 0.931873
v -0.311967 1.183663 0.530268
v -0.148996 0.308234 1.036438
v -0.175909 0.501584 1.036565
v 0.149730 0.308234 1.036438
v 0.176642 0.501584 1.036565
v 0.347841 -1.575330 0.008113
v 0.347841 -0.741534 -0.073023
v 0.489829 -0.741534 -0.073023
v 0.489829 -1.575330 0.008113
v 0.489829 -0.817811 0.344829
v 0.489829 -1.470654 0.344829
v 0.347841 -1.470654 0.344829
v 0.347841 -0.817811 0.344829
v -0.490239 -1.575330 0.008113
v -0.490239 -0.741534 -0.073023
v -0.348251 -0.741534 -0.073023
v -0.348251 -1.575330 0.008113
v -0.348251 -0.817811 0.344829
v -0.348251 -1.470654 0.344829
v -0.490239 -1.470654 0.344829
v -0.490239 -0.817811 0.344829
v 0.347841 1.032198 0.072110
v 0.347841 2.056402 -0.142901
v 0.489829 2.056402 -0.142901
v 0.489829 1.032198 0.072110
v 0.489829 1.842323 0.394219
v 0.489829 1.219355 0.437248
v 0.347841 1.219355 0.437248
v 0.347841 1.842323 0.394219
v -0.490239 1.032198 0.072110
v -0.490239 2.056402 -0.142901
v -0.348251 2.056402 -0.142901
v -0.348251 1.032198 0.072110
v -0.348251 1.842323 0.394219
v -0.348251 1.219355 0.437248
v -0.490239 1.219355 0.437248
v -0.490239 1.842323 0.394219
v -0.813183 0.901772 0.601327
v -0.764247 0.895740 0.585215
v -0.774114 0.949961 0.575331
v -0.858302 0.946629 0.600452
v -0.872422 0.888286 0.658172
v -0.902669 0.936477 0.637126
v -0.923013 0.864162 0.683236
v -0.942256 0.921846 0.653297
v -0.983619 0.818616 0.671745
v -0.989012 0.886020 0.648963
v -0.843270 0.906000 0.510525
v -0.877712 0.949357 0.541870
v -0.793002 0.955198 0.516748
v -0.793525 0.903859 0.494412
v -0.924022 0.886033 0.503807
v -0.935959 0.935024 0.537535
v -0.972407 0.849060 0.528871
v -0.974122 0.912103 0.553706
v -1.012674 0.809734 0.580942
v -1.007757 0.880289 0.590380
v 0.776793 0.949961 0.575331
v 0.766926 0.895739 0.585215
v 0.815861 0.901772 0.601327
v 0.860981 0.946629 0.600452
v 0.875101 0.888286 0.658172
v 0.905348 0.936477 0.637126
v 0.925693 0.864161 0.683236
v 0.944934 0.921846 0.653297
v 0.986298 0.818616 0.671745
v 0.991691 0.886020 0.648963
v 0.795681 0.955198 0.516748
v 0.880392 0.949357 0.541870
v 0.845948 0.906000 0.510525
v 0.796204 0.903859 0.494412
v 0.938639 0.935024 0.537535
v 0.926701 0.886033 0.503807
v 0.976801 0.912103 0.553706
v 0.975085 0.849060 0.528871
v 1.010436 0.880289 0.590380
v 1.015353 0.809734 0.580942
v 0.541942 -1.973966 -0.219077
v 0.497317 -2.063966 -0.174452
v 0.478833 -2.063966 -0.219077
v 0.541942 -2.063966 -0.155968
v 0.586566 -2.063964 -0.174452
v 0.605051 -2.063964 -0.219077
v 0.586566 -2.063964 -0.263702
v 0.541942 -2.063966 -0.282186
v 0.497317 -2.063966 -0.263702
v 0.497317 -1.829518 -0.174452
v 0.478833 -1.829518 -0.219077
v 0.541942 -1.829518 -0.155968
v 0.586566 -1.829518 -0.174452
v 0.605051 -1.829518 -0.219077
v 0.586566 -1.829518 -0.263702
v 0.541942 -1.829518 -0.282186
v 0.497317 -1.829518 -0.263702
v 0.408512 -1.816167 -0.170435
v 0.382028 -1.816167 -0.219077
v 0.541941 -1.816167 -0.150288
v 0.675369 -1.816167 -0.170435
v 0.701853 -1.816167 -0.219077
v 0.675369 -1.816167 -0.267717
v 0.541941 -1.816167 -0.287866
v 0.408513 -1.816167 -0.267717
v 0.408512 -1.573607 -0.157463
v 0.382028 -1.573607 -0.173896
v 0.541941 -1.573607 -0.150657
v 0.675369 -1.573606 -0.157463
v 0.701854 -1.573606 -0.173896
v 0.675369 -1.573606 -0.190329
v 0.541941 -1.573607 -0.197136
v 0.408513 -1.573607 -0.190329
v 0.541941 -1.573607 -0.173896
v -0.714385 -1.845278 0.900258
v -0.746864 -1.546943 0.591857
v -0.681931 -1.546943 0.867803
v -0.746864 -1.845276 0.543175
v 0.682237 -1.546943 0.867609
v 0.714407 -1.845278 0.900345
v 0.746973 -1.546943 0.591706
v 0.746973 -1.845277 0.543025
v -0.763099 -1.546943 0.591706
v -0.726556 -1.845278 0.912428
v -0.694101 -1.546943 0.879973
v -0.763099 -1.845276 0.543025
v 0.726470 -1.845278 0.912622
v 0.694301 -1.546943 0.879885
v 0.763210 -1.845277 0.543175
v 0.763210 -1.546943 0.591857
v 0.837182 1.940973 0.094242
v 0.878917 1.940973 -0.261464
v 0.728306 2.250781 -0.227041
v 0.726042 2.250781 0.128665
v 0.837182 1.631164 0.392576
v 0.726042 2.101615 0.346679
v 0.726042 1.527895 0.472897
v 0.837182 1.504946 0.404050
v 0.837182 1.309881 0.369628
v 0.903958 -0.778459 0.025395
v 0.837182 -0.801408 -0.192618
v 0.837182 1.057444 -0.215567
v 0.837182 1.183663 0.254883
v 0.837182 -1.937373 -0.146721
v 0.837182 -1.547243 -0.146721
v 0.903958 -1.512821 0.140139
v 0.837182 -2.063592 0.117190
v 0.782575 -2.052117 -0.123772
v 0.837182 -2.017694 0.197511
v 0.865451 -1.803964 0.173223
v 0.808059 -1.730825 0.579227
v 0.782575 -1.971796 0.541742
v 0.886282 -1.409551 0.323729
v 0.886282 -1.088268 0.323729
v 0.663880 -1.157115 0.851552
v 0.663880 0.472250 0.908924
v 0.562902 -0.835832 0.977770
v 0.562902 0.185390 0.989245
v 0.903958 -0.904678 0.231935
v 0.837182 1.103342 -0.146721
v 0.837182 1.114817 0.094242
v 0.329496 2.032768 -0.261464
v 0.329496 2.342577 -0.227041
v 0.329496 2.032768 0.094242
v 0.368867 2.342577 0.128665
v 0.565423 1.990368 0.373976
v -0.006229 1.982499 0.408991
v 0.329496 1.527895 0.512421
v 0.649710 1.799747 0.420653
v 0.329496 1.631164 0.392576
v 0.329496 1.826228 0.312256
v 0.329496 1.504946 0.404050
v 0.329496 1.309881 0.369628
v 0.329496 -0.765661 -0.026487
v 0.329496 1.021697 -0.049436
v 0.329496 -0.778459 0.025395
v 0.329496 1.183663 0.254883
v 0.329496 -1.547243 -0.146721
v 0.329496 -1.512821 0.140139
v 0.329496 -1.986054 -0.146721
v 0.329496 -2.100799 -0.123772
v 0.329496 -2.112274 0.117190
v 0.329496 -2.066375 0.197511
v 0.329496 -2.020478 0.541742
v 0.329496 -1.409551 0.323729
v 0.329496 -1.088268 0.323729
v 0.261600 -1.214745 0.874500
v 0.222038 -0.870972 1.000719
v 0.329496 -0.904678 0.231935
v 0.222038 0.221735 1.012193
v 0.261600 0.528675 0.931873
v 0.329496 1.103342 0.033468
v 0.329496 1.114817 0.094242
v -0.873966 1.940973 -0.261464
v -0.832231 1.940973 0.094242
v -0.723355 2.250781 -0.227041
v -0.721091 2.250781 0.128665
v -0.721091 2.101615 0.346679
v -0.832231 1.826228 0.312256
v -0.832231 1.631164 0.392576
v -0.721091 1.527895 0.472897
v -0.832231 1.504946 0.404050
v -0.832231 1.309881 0.369628
v -0.832231 -0.801408 -0.192618
v -0.899007 -0.778459 0.025395
v -0.832231 1.057444 -0.215567
v -0.832231 1.183663 0.254883
v -0.832231 -1.547243 -0.146721
v -0.832231 -1.937373 -0.146721
v -0.899007 -1.512821 0.140139
v -0.777624 -2.052117 -0.123772
v -0.832231 -2.063592 0.117190
v -0.832231 -2.017694 0.197511
v -0.864732 -1.771962 0.169587
v -0.777624 -1.971796 0.541742
v -0.802874 -1.733035 0.578883
v -0.881331 -1.409551 0.323729
v -0.881331 -1.088268 0.323729
v -0.899007 -0.904678 0.231935
v -0.658930 0.472250 0.908924
v -0.658929 -1.157115 0.851552
v -0.557952 -0.835832 0.977770
v -0.557952 0.185390 0.989245
v -0.832231 1.103342 -0.146721
v -0.832231 1.114817 0.094242
v -0.324545 2.032768 -0.261464
v -0.324545 2.342577 -0.227041
v -0.324545 2.032768 0.094242
v -0.363657 2.342577 0.128665
v -0.572782 1.979380 0.380342
v -0.647212 1.773715 0.444075
v -0.324545 1.527895 0.512421
v -0.324545 1.631164 0.392576
v -0.324545 1.826228 0.312256
v -0.324545 1.504946 0.404050
v -0.324545 1.309881 0.369628
v -0.324545 -0.765661 -0.026487
v -0.324545 1.021697 -0.049436
v -0.324545 -0.778459 0.025395
v -0.324545 1.183663 0.254883
v -0.324545 -1.547243 -0.146721
v -0.324545 -1.512821 0.140139
v -0.324545 -1.986054 -0.146721
v -0.324545 -2.100799 -0.123772
v -0.324545 -2.112274 0.117190
v -0.324545 -2.066375 0.197511
v -0.324545 -2.020478 0.541742
v -0.324545 -1.409551 0.323729
v -0.324545 -1.088268 0.323729
v -0.256650 -1.214745 0.874500
v -0.217089 -0.870972 1.000719
v -0.324545 -0.904678 0.231935
v -0.217089 0.221735 1.012193
v -0.256650 0.528675 0.931873
v -0.324545 1.103342 0.033468
v -0.324545 1.114817 0.094242
v -0.148996 0.308234 1.036438
v 0.149730 0.308234 1.036438
v -0.175909 0.501584 1.036565
v 0.176642 0.501584 1.036565
v -0.454920 2.193409 0.346679
v 0.460737 2.193409 0.346679
v -0.174090 1.738556 0.464138
v 0.837182 1.826228 0.312256
v -0.075929 -1.170803 0.001333
v -0.038416 -0.866747 -0.072690
v -0.075929 -0.879702 -0.136359
v -0.038416 -1.144375 0.060690
v 0.036610 -0.866747 -0.072690
v 0.036610 -1.144375 0.060690
v 0.074123 -0.879702 -0.136359
v 0.074123 -1.170803 0.001332
v 0.036610 -0.892656 -0.200030
v 0.036610 -1.197230 -0.058024
v -0.038416 -0.892656 -0.200030
v -0.038416 -1.197230 -0.058024
v -0.038416 1.190738 -0.072804
v -0.075929 1.204247 -0.136359
v 0.036610 1.190738 -0.072804
v 0.074123 1.204247 -0.136359
v 0.036610 1.217756 -0.199914
v -0.038416 1.217756 -0.199913
v -0.038416 1.478609 0.056733
v -0.075929 1.512558 0.001334
v 0.036610 1.478609 0.056733
v 0.074123 1.512559 0.001334
v 0.036610 1.546508 -0.054066
v -0.038416 1.546508 -0.054066
v 0.778908 1.463716 -0.029823
v 0.172684 1.495788 0.025727
v 0.172684 1.463716 -0.029823
v 0.778908 1.495788 0.025727
v 0.172684 1.559932 0.025727
v 0.778908 1.559932 0.025727
v 0.172684 1.592004 -0.029823
v 0.778908 1.592004 -0.029823
v 0.172684 1.559932 -0.085373
v 0.778908 1.559932 -0.085373
v 0.172684 1.495788 -0.085373
v 0.778908 1.495788 -0.085373
v 0.153540 1.447360 0.109607
v 0.153540 1.366859 -0.029823
v 0.153540 1.608361 0.109607
v 0.153540 1.688861 -0.029823
v 0.153540 1.608361 -0.169254
v 0.153540 1.447360 -0.169254
v -0.156243 1.447360 0.109607
v -0.156243 1.366859 -0.029823
v -0.156243 1.608361 0.109607
v -0.156243 1.688861 -0.029823
v -0.156243 1.608361 -0.169254
v -0.156243 1.447360 -0.169254
v -0.175386 1.495788 0.025727
v -0.175386 1.463716 -0.029823
v -0.175386 1.559932 0.025727
v -0.175386 1.592004 -0.029823
v -0.175386 1.559932 -0.085373
v -0.175386 1.495788 -0.085373
v -0.781609 1.495788 0.025727
v -0.781609 1.463716 -0.029823
v -0.781609 1.559932 0.025727
v -0.781609 1.592004 -0.029823
v -0.781609 1.559932 -0.085373
v -0.781609 1.495788 -0.085373
v 0.778908 -1.232889 -0.029823
v 0.172684 -1.200818 0.025727
v 0.172684 -1.232889 -0.029823
v 0.778908 -1.200818 0.025727
v 0.172684 -1.136673 0.025727
v 0.778908 -1.136673 0.025727
v 0.172684 -1.104602 -0.029823
v 0.778908 -1.104602 -0.029823
v 0.172684 -1.136673 -0.085374
v 0.778908 -1.136673 -0.085374
v 0.172684 -1.200818 -0.085374
v 0.778908 -1.200818 -0.085374
v 0.153540 -1.249246 0.109607
v 0.153540 -1.329746 -0.029823
v 0.153540 -1.088245 0.109607
v 0.153540 -1.007745 -0.029823
v 0.153540 -1.088245 -0.169255
v 0.153540 -1.249246 -0.169255
v -0.156243 -1.249246 0.109607
v -0.156243 -1.329746 -0.029823
v -0.156243 -1.088245 0.109607
v -0.156243 -1.007745 -0.029823
v -0.156243 -1.088245 -0.169255
v -0.156243 -1.249246 -0.169255
v -0.175386 -1.200818 0.025727
v -0.175386 -1.232889 -0.029823
v -0.175386 -1.136673 0.025727
v -0.175386 -1.104602 -0.029823
v -0.175386 -1.136673 -0.085374
v -0.175386 -1.200818 -0.085374
v -0.781609 -1.200818 0.025727
v -0.781609 -1.232889 -0.029823
v -0.781609 -1.136673 0.025727
v -0.781609 -1.104602 -0.029823
v -0.781609 -1.136673 -0.085374
v -0.781609 -1.200818 -0.085374
v -0.800126 1.183663 0.530268
v -0.832231 -1.455449 0.622063
v 0.837182 -1.455449 0.622063
v 0.805078 1.183663 0.530268
v 0.886282 -1.088268 0.323729
v -0.881331 -1.088268 0.323729
vt 0.233089 0.566290
vt 0.229563 0.566290
vt 0.233881 0.561725
vt 0.232259 0.565253
vt 0.232529 0.565822
vt 0.229630 0.563190
vt 0.232529 0.565822
vt 0.232529 0.565822
vt 0.450677 0.630284
vt 0.497504 0.617235
vt 0.497676 0.598623
vt 0.542137 0.587877
vt 0.542137 0.594926
vt 0.524089 0.593934
vt 0.555860 0.594926
vt 0.573908 0.593934
vt 0.555860 0.587877
vt 0.499044 0.598623
vt 0.498873 0.617235
vt 0.452046 0.630284
vt 0.474792 0.580600
vt 0.482287 0.585676
vt 0.484295 0.575840
vt 0.473469 0.569268
vt 0.473469 0.574935
vt 0.474792 0.563601
vt 0.484295 0.568361
vt 0.450954 0.598215
vt 0.524089 0.587900
vt 0.573908 0.587900
vt 0.452323 0.598215
vt 0.482287 0.558524
vt 0.488070 0.919772
vt 0.505888 0.919772
vt 0.505888 0.898700
vt 0.523706 0.919772
vt 0.523706 0.898700
vt 0.505888 0.898700
vt 0.523706 0.898700
vt 0.505892 0.899248
vt 0.488070 0.919772
vt 0.505888 0.919772
vt 0.505888 0.898700
vt 0.523706 0.919772
vt 0.523706 0.898700
vt 0.488070 0.919772
vt 0.505888 0.919772
vt 0.523706 0.919772
vt 0.523706 0.898700
vt 0.505888 0.898700
vt 0.523706 0.877628
vt 0.505888 0.877628
vt 0.488070 0.919772
vt 0.505888 0.919772
vt 0.523706 0.919772
vt 0.523706 0.898700
vt 0.488070 0.877628
vt 0.488070 0.898700
vt 0.488070 0.877628
vt 0.488070 0.898700
vt 0.488070 0.919772
vt 0.505888 0.919772
vt 0.505927 0.899193
vt 0.523706 0.877628
vt 0.505888 0.877628
vt 0.488070 0.877628
vt 0.488070 0.898700
vt 0.523706 0.919772
vt 0.523706 0.898700
vt 0.523706 0.877628
vt 0.505888 0.877628
vt 0.488070 0.877628
vt 0.488070 0.898700
vt 0.488070 0.898700
vt 0.523706 0.877628
vt 0.505888 0.877628
vt 0.523706 0.877628
vt 0.505888 0.877628
vt 0.488070 0.877628
vt 0.488070 0.898700
vt 0.487042 0.919713
vt 0.505325 0.919713
vt 0.505325 0.899624
vt 0.523608 0.919713
vt 0.523608 0.899624
vt 0.505325 0.899624
vt 0.523608 0.899624
vt 0.505329 0.901569
vt 0.487042 0.919713
vt 0.505325 0.919713
vt 0.505325 0.899624
vt 0.523608 0.919713
vt 0.523608 0.899624
vt 0.487042 0.919713
vt 0.505325 0.919713
vt 0.523608 0.919713
vt 0.523608 0.899624
vt 0.505325 0.899624
vt 0.523608 0.879535
vt 0.505325 0.879535
vt 0.487042 0.919713
vt 0.505325 0.919713
vt 0.523608 0.919713
vt 0.523608 0.899624
vt 0.487042 0.879535
vt 0.487042 0.899624
vt 0.487042 0.879535
vt 0.487042 0.899624
vt 0.487042 0.919713
vt 0.505325 0.919713
vt 0.505497 0.901376
vt 0.523608 0.879535
vt 0.505325 0.879535
vt 0.487042 0.879535
vt 0.487042 0.899624
vt 0.523608 0.919713
vt 0.523608 0.899624
vt 0.523608 0.879535
vt 0.505325 0.879535
vt 0.487042 0.879535
vt 0.487042 0.899624
vt 0.487042 0.899624
vt 0.523608 0.879535
vt 0.505325 0.879535
vt 0.523608 0.879535
vt 0.505325 0.879535
vt 0.487042 0.879535
vt 0.487042 0.899624
vt 0.487042 0.919713
vt 0.505325 0.919713
vt 0.505325 0.899624
vt 0.523608 0.919713
vt 0.523608 0.899624
vt 0.505325 0.899624
vt 0.523608 0.899624
vt 0.505325 0.900983
vt 0.487042 0.919713
vt 0.505325 0.919713
vt 0.505325 0.899624
vt 0.523608 0.919713
vt 0.523608 0.899624
vt 0.487042 0.899624
vt 0.487042 0.919713
vt 0.505325 0.919713
vt 0.523608 0.919713
vt 0.523608 0.899624
vt 0.505325 0.899624
vt 0.523608 0.879535
vt 0.505325 0.879535
vt 0.487042 0.919713
vt 0.505325 0.919713
vt 0.523608 0.919713
vt 0.523608 0.899624
vt 0.487042 0.879535
vt 0.487042 0.879535
vt 0.487042 0.899624
vt 0.487042 0.919713
vt 0.505325 0.919713
vt 0.505450 0.900846
vt 0.523608 0.879535
vt 0.505325 0.879535
vt 0.487042 0.879535
vt 0.487042 0.899624
vt 0.523608 0.919713
vt 0.523608 0.899624
vt 0.523608 0.879535
vt 0.505325 0.879535
vt 0.487042 0.879535
vt 0.487042 0.899624
vt 0.487042 0.899624
vt 0.523608 0.879535
vt 0.505325 0.879535
vt 0.523608 0.879535
vt 0.505325 0.879535
vt 0.487042 0.879535
vt 0.487042 0.899624
vt 0.487692 0.919342
vt 0.504200 0.919342
vt 0.504200 0.903555
vt 0.520707 0.919342
vt 0.520707 0.903555
vt 0.504200 0.903555
vt 0.520707 0.903555
vt 0.504187 0.904792
vt 0.487692 0.919342
vt 0.504200 0.919342
vt 0.504200 0.903555
vt 0.520707 0.919342
vt 0.520707 0.903555
vt 0.487692 0.903555
vt 0.487692 0.919342
vt 0.504200 0.919342
vt 0.520707 0.919342
vt 0.520707 0.903555
vt 0.504200 0.903555
vt 0.520707 0.887767
vt 0.504200 0.887767
vt 0.487692 0.919342
vt 0.504200 0.919342
vt 0.520707 0.919342
vt 0.520707 0.903555
vt 0.487692 0.887767
vt 0.487692 0.887767
vt 0.487692 0.903555
vt 0.487692 0.919342
vt 0.504200 0.919342
vt 0.504345 0.904669
vt 0.520707 0.887767
vt 0.504200 0.887767
vt 0.487692 0.887767
vt 0.487692 0.903555
vt 0.520707 0.919342
vt 0.520707 0.903555
vt 0.520707 0.887767
vt 0.504200 0.887767
vt 0.487692 0.887767
vt 0.487692 0.903555
vt 0.487692 0.903555
vt 0.520707 0.887767
vt 0.504200 0.887767
vt 0.520707 0.887767
vt 0.504200 0.887767
vt 0.487692 0.887767
vt 0.487692 0.903555
vt 0.487692 0.919342
vt 0.504200 0.919342
vt 0.504200 0.903555
vt 0.520707 0.919342
vt 0.520707 0.903555
vt 0.504200 0.903555
vt 0.520707 0.903555
vt 0.504200 0.905418
vt 0.487692 0.919342
vt 0.504200 0.919342
vt 0.504200 0.903555
vt 0.520707 0.919342
vt 0.520707 0.903555
vt 0.487692 0.903555
vt 0.487692 0.919342
vt 0.504200 0.919342
vt 0.520707 0.919342
vt 0.520707 0.903555
vt 0.504200 0.903555
vt 0.520707 0.887767
vt 0.504200 0.887767
vt 0.487692 0.919342
vt 0.504200 0.919342
vt 0.520707 0.919342
vt 0.520707 0.903555
vt 0.487692 0.887767
vt 0.487692 0.887767
vt 0.487692 0.903555
vt 0.487692 0.919342
vt 0.504200 0.919342
vt 0.504394 0.905231
vt 0.520707 0.887767
vt 0.504200 0.887767
vt 0.487692 0.887767
vt 0.487692 0.903555
vt 0.520707 0.919342
vt 0.520707 0.903555
vt 0.520707 0.887767
vt 0.504200 0.887767
vt 0.487692 0.887767
vt 0.487692 0.903555
vt 0.487692 0.903555
vt 0.520707 0.887767
vt 0.504200 0.887767
vt 0.520707 0.887767
vt 0.504200 0.887767
vt 0.487692 0.887767
vt 0.487692 0.903555
vt 0.187222 0.235131
vt 0.510351 0.246509
vt 0.128058 0.189620
vt 0.250938 0.260162
vt 0.453462 0.262438
vt 0.651435 0.171416
vt 0.879105 0.648251
vt 0.824992 0.599972
vt 0.814004 0.638925
vt 0.907151 0.599972
vt 0.862764 0.700244
vt 0.807602 0.694558
vt 0.375792 0.801849
vt 0.435710 0.987543
vt 0.435710 0.795460
vt 0.375792 0.981366
vt 0.358041 0.751424
vt 0.428756 0.741505
vt 0.009927 0.846876
vt 0.114731 0.973184
vt 0.104064 0.846876
vt 0.037156 0.984065
vt 0.331615 0.505905
vt 0.718257 0.448369
vt 0.188925 0.429958
vt 0.658419 0.494398
vt 0.593979 0.519714
vt 0.389151 0.522015
vt 0.730136 0.638925
vt 0.719149 0.599972
vt 0.665036 0.648251
vt 0.636990 0.599972
vt 0.736538 0.694558
vt 0.681377 0.700244
vt 0.512903 0.795460
vt 0.512903 0.987543
vt 0.572822 0.801849
vt 0.572822 0.981366
vt 0.519857 0.741505
vt 0.590572 0.751424
vt 0.225338 0.846876
vt 0.214670 0.973184
vt 0.319474 0.846876
vt 0.292246 0.984065
vt 0.500933 0.780255
vt 0.505664 0.746267
vt 0.448421 0.780255
vt 0.443690 0.746267
vt 0.235917 0.562767
vt 0.236572 0.561667
vt 0.233994 0.563100
vt 0.233994 0.563100
vt 0.234170 0.562914
vt 0.237466 0.562767
vt 0.128058 0.189620
vt 0.651435 0.171416
vt 0.200876 0.130456
vt 0.718257 0.448369
vt 0.644611 0.388531
vt 0.188925 0.429958
vt 0.505858 0.597835
vt 0.505985 0.639318
vt 0.498944 0.639340
vt 0.498817 0.597857
vt 0.506175 0.639381
vt 0.506097 0.597835
vt 0.526366 0.603569
vt 0.523292 0.635799
vt 0.478547 0.597835
vt 0.478468 0.639381
vt 0.461352 0.635799
vt 0.458277 0.603569
vt 0.564518 0.597778
vt 0.564645 0.639261
vt 0.557604 0.639283
vt 0.557476 0.597800
vt 0.526445 0.639381
vt 0.526366 0.597835
vt 0.546636 0.603569
vt 0.543561 0.635799
vt 0.498817 0.597835
vt 0.498738 0.639381
vt 0.481622 0.635799
vt 0.478547 0.603569
vt 0.557317 0.597778
vt 0.557476 0.649600
vt 0.550435 0.649622
vt 0.550276 0.597800
vt 0.502528 0.597835
vt 0.502457 0.545935
vt 0.526366 0.561765
vt 0.522149 0.592445
vt 0.550276 0.545935
vt 0.550205 0.597835
vt 0.530583 0.592445
vt 0.526366 0.561765
vt 0.557317 0.545935
vt 0.557476 0.597757
vt 0.550435 0.597778
vt 0.550276 0.545957
vt 0.478618 0.597835
vt 0.478547 0.545935
vt 0.502457 0.561765
vt 0.498240 0.592445
vt 0.478547 0.545935
vt 0.478476 0.597835
vt 0.458854 0.592445
vt 0.454637 0.561765
vt 0.160940 0.469314
vt 0.152807 0.450907
vt 0.173606 0.447011
vt 0.183327 0.479564
vt 0.159597 0.500388
vt 0.182977 0.501777
vt 0.156930 0.523935
vt 0.182698 0.519162
vt 0.152930 0.546298
vt 0.178865 0.537300
vt 0.104906 0.467877
vt 0.082277 0.476156
vt 0.090762 0.447011
vt 0.111994 0.451460
vt 0.107427 0.491567
vt 0.083975 0.493343
vt 0.111689 0.516545
vt 0.085954 0.511148
vt 0.112131 0.545640
vt 0.087278 0.533785
vt 0.122179 0.507722
vt 0.146033 0.505827
vt 0.149007 0.538212
vt 0.125260 0.540611
vt 0.112131 0.486753
vt 0.152807 0.484425
vt 0.112225 0.468623
vt 0.152807 0.466892
vt 0.120240 0.448029
vt 0.144112 0.447011
vt 0.093838 0.556016
vt 0.075476 0.540479
vt 0.012884 0.518457
vt 0.075476 0.525181
vt 0.060589 0.548975
vt 0.023771 0.545020
vt 0.012761 0.493860
vt 0.075454 0.501439
vt 0.028755 0.465790
vt 0.065478 0.471021
vt 0.067718 0.452989
vt 0.031207 0.447011
vt 0.173047 0.450769
vt 0.152482 0.454622
vt 0.160524 0.472822
vt 0.182659 0.482957
vt 0.159195 0.503546
vt 0.182313 0.504920
vt 0.156559 0.526828
vt 0.182037 0.522108
vt 0.152604 0.548940
vt 0.178247 0.540043
vt 0.090653 0.447907
vt 0.082264 0.476725
vt 0.104639 0.468538
vt 0.111647 0.452307
vt 0.083943 0.493718
vt 0.107131 0.491962
vt 0.085899 0.511323
vt 0.111345 0.516659
vt 0.087208 0.533705
vt 0.111782 0.545427
vt 0.148894 0.537931
vt 0.145954 0.505911
vt 0.122368 0.507784
vt 0.125414 0.540302
vt 0.152651 0.484749
vt 0.112433 0.487051
vt 0.152652 0.467414
vt 0.112526 0.469125
vt 0.144054 0.447756
vt 0.120451 0.448762
vt 0.075539 0.540323
vt 0.093695 0.555686
vt 0.061302 0.548940
vt 0.076021 0.525414
vt 0.014133 0.518764
vt 0.024897 0.545028
vt 0.076000 0.501938
vt 0.014012 0.494444
vt 0.066136 0.471862
vt 0.029827 0.466690
vt 0.068351 0.454033
vt 0.032251 0.448122
vt 0.033490 0.612593
vt 0.024869 0.629823
vt 0.021273 0.611977
vt 0.033490 0.637478
vt 0.042019 0.630554
vt 0.045525 0.613270
vt 0.042019 0.595650
vt 0.033490 0.587857
vt 0.024869 0.594555
vt 0.037153 0.621538
vt 0.033154 0.601548
vt 0.046723 0.630186
vt 0.056166 0.622559
vt 0.060039 0.603351
vt 0.056166 0.583678
vt 0.046723 0.574841
vt 0.037153 0.582151
vt 0.018426 0.621924
vt 0.012523 0.599709
vt 0.047571 0.632246
vt 0.075569 0.624950
vt 0.080974 0.604334
vt 0.075569 0.582922
vt 0.047571 0.571527
vt 0.018426 0.578224
vt 0.032311 0.617471
vt 0.025599 0.608630
vt 0.065246 0.622794
vt 0.096511 0.621590
vt 0.102500 0.614053
vt 0.096511 0.605481
vt 0.065246 0.599369
vt 0.032311 0.600523
vt 0.065246 0.611065
vt 0.417930 0.658213
vt 0.372285 0.670050
vt 0.423191 0.670050
vt 0.371329 0.658214
vt 0.580186 0.666013
vt 0.579695 0.658437
vt 0.625203 0.669688
vt 0.625699 0.660347
vt 0.336467 0.705210
vt 0.375760 0.668207
vt 0.371987 0.704992
vt 0.330243 0.668487
vt 0.391529 0.674373
vt 0.575660 0.674373
vt 0.571584 0.712179
vt 0.395642 0.712179
vt 0.636362 0.674373
vt 0.636362 0.712179
vt 0.330816 0.657704
vt 0.364684 0.657972
vt 0.365715 0.659229
vt 0.330651 0.659229
vt 0.393071 0.674373
vt 0.574131 0.674373
vt 0.340733 0.658439
vt 0.361139 0.657905
vt 0.351109 0.658811
vt 0.578258 0.674373
vt 0.330651 0.659229
vt 0.365720 0.659229
vt 0.364679 0.660478
vt 0.330994 0.660478
vt 0.357763 0.660595
vt 0.358626 0.661973
vt 0.330651 0.661973
vt 0.570055 0.712179
vt 0.397184 0.712179
vt 0.364351 0.658019
vt 0.332850 0.659574
vt 0.347486 0.661735
vt 0.357835 0.661973
vt 0.331097 0.663440
vt 0.330651 0.661973
vt 0.330852 0.712179
vt 0.657702 0.936559
vt 0.649692 0.868292
vt 0.678597 0.874898
vt 0.679032 0.943165
vt 0.740181 0.144109
vt 0.833479 0.135007
vt 0.719702 0.160038
vt 0.715150 0.146385
vt 0.651435 0.171416
vt 0.676466 0.139558
vt 0.262316 0.071291
vt 0.257764 0.028056
vt 0.626404 0.023505
vt 0.651435 0.116802
vt 0.032485 0.037158
vt 0.109854 0.037158
vt 0.116680 0.094047
vt 0.007454 0.089496
vt 0.009729 0.041709
vt 0.016556 0.105425
vt 0.058942 0.100608
vt 0.986052 0.861666
vt 0.972376 0.854119
vt 0.983370 0.784815
vt 0.997118 0.778217
vt 0.128058 0.189620
vt 0.137160 0.130456
vt 0.200876 0.130456
vt 0.187222 0.235131
vt 0.510351 0.246509
vt 0.250938 0.260162
vt 0.453462 0.262438
vt 0.237284 0.112251
vt 0.977127 0.234630
vt 0.975284 0.231191
vt 0.972830 0.219134
vt 0.637782 0.084945
vt 0.972704 0.141745
vt 0.942556 0.139744
vt 0.941677 0.122804
vt 0.043254 0.328010
vt 0.102889 0.302237
vt 0.151429 0.328010
vt 0.969391 0.160583
vt 0.942179 0.158934
vt 0.755137 0.874898
vt 0.747581 0.943165
vt 0.056749 0.689636
vt 0.167132 0.691156
vt 0.100755 0.778937
vt 0.040474 0.726444
vt 0.024185 0.778937
vt 0.025735 0.668155
vt 0.969959 0.184869
vt 0.942960 0.186267
vt 0.942619 0.174888
vt 0.970207 0.191446
vt 0.943211 0.193237
vt 0.103959 0.845406
vt 0.009699 0.845406
vt 0.970833 0.201721
vt 0.943680 0.204209
vt 0.977126 0.344257
vt 0.945542 0.344214
vt 0.945519 0.235770
vt 0.977091 0.355829
vt 0.945241 0.348260
vt 0.971611 0.210387
vt 0.944230 0.213940
vt 0.968058 0.419438
vt 0.941693 0.418633
vt 0.942101 0.403371
vt 0.971984 0.404684
vt 0.967605 0.439670
vt 0.941173 0.441578
vt 0.964661 0.445692
vt 0.941036 0.447762
vt 0.983370 0.768645
vt 0.881158 0.768645
vt 0.881158 0.720132
vt 0.972376 0.720132
vt 0.881158 0.784815
vt 0.881158 0.854119
vt 0.906166 0.599741
vt 0.824007 0.599741
vt 0.824007 0.508303
vt 0.897329 0.516181
vt 0.901453 0.555177
vt 0.942470 0.392071
vt 0.971493 0.393938
vt 0.943237 0.374546
vt 0.972620 0.377611
vt 0.879105 0.648251
vt 0.814004 0.638925
vt 0.824992 0.599972
vt 0.907151 0.599972
vt 0.862764 0.700244
vt 0.807602 0.694558
vt 0.943995 0.362770
vt 0.974775 0.367692
vt 0.375792 0.801849
vt 0.435710 0.795460
vt 0.435710 0.987543
vt 0.375792 0.981366
vt 0.358041 0.751424
vt 0.428756 0.741505
vt 0.009927 0.846876
vt 0.104064 0.846876
vt 0.114731 0.973184
vt 0.037156 0.984065
vt 0.945160 0.228354
vt 0.944993 0.224256
vt 0.986105 0.868292
vt 0.978096 0.936559
vt 0.957200 0.874898
vt 0.956766 0.943165
vt 0.956766 0.985006
vt 0.978096 0.978400
vt 0.004810 0.393135
vt 0.099169 0.402340
vt 0.119882 0.418450
vt 0.188925 0.429958
vt 0.124485 0.404642
vt 0.163609 0.397737
vt 0.587075 0.284967
vt 0.582472 0.328694
vt 0.214241 0.280364
vt 0.188925 0.374723
vt 0.736668 0.294172
vt 0.814917 0.294172
vt 0.729764 0.351709
vt 0.837932 0.298775
vt 0.840233 0.347106
vt 0.831028 0.363216
vt 0.781741 0.357615
vt 0.073447 0.181125
vt 0.658264 0.854119
vt 0.643903 0.862328
vt 0.632670 0.777729
vt 0.647270 0.784815
vt 0.718257 0.448369
vt 0.709051 0.388531
vt 0.644611 0.388531
vt 0.607788 0.370120
vt 0.331615 0.505905
vt 0.658419 0.494398
vt 0.593979 0.519714
vt 0.389151 0.522015
vt 0.876045 0.231195
vt 0.874174 0.234565
vt 0.878529 0.219314
vt 0.202734 0.342503
vt 0.906770 0.140465
vt 0.877070 0.143462
vt 0.906959 0.123701
vt 0.091794 0.328010
vt 0.151429 0.353784
vt 0.043254 0.353784
vt 0.907786 0.159480
vt 0.880950 0.161917
vt 0.880661 0.874898
vt 0.888167 0.943165
vt 0.273111 0.691758
vt 0.289436 0.731470
vt 0.227046 0.778937
vt 0.305166 0.668155
vt 0.907689 0.186620
vt 0.881024 0.185775
vt 0.907782 0.175324
vt 0.907560 0.193535
vt 0.880907 0.192192
vt 0.303616 0.778937
vt 0.225392 0.845406
vt 0.319653 0.845406
vt 0.907246 0.204428
vt 0.880426 0.202259
vt 0.905165 0.344054
vt 0.873723 0.343891
vt 0.905640 0.235765
vt 0.905413 0.348071
vt 0.873724 0.355326
vt 0.906795 0.214093
vt 0.879722 0.210741
vt 0.907562 0.418064
vt 0.881475 0.418084
vt 0.907585 0.402903
vt 0.878004 0.403452
vt 0.907274 0.440815
vt 0.881268 0.438048
vt 0.907157 0.446850
vt 0.883984 0.444073
vt 0.749481 0.768645
vt 0.647270 0.768645
vt 0.749481 0.720132
vt 0.658264 0.720132
vt 0.749481 0.784815
vt 0.749481 0.854119
vt 0.718164 0.599741
vt 0.636005 0.599741
vt 0.718164 0.508303
vt 0.644842 0.516181
vt 0.640756 0.554819
vt 0.907487 0.391675
vt 0.878744 0.392909
vt 0.907061 0.374240
vt 0.877932 0.376809
vt 0.730136 0.638925
vt 0.665036 0.648251
vt 0.719149 0.599972
vt 0.636990 0.599972
vt 0.736538 0.694558
vt 0.681377 0.700244
vt 0.906483 0.362520
vt 0.875927 0.367036
vt 0.512903 0.795460
vt 0.572822 0.801849
vt 0.512903 0.987543
vt 0.572822 0.981366
vt 0.519857 0.741505
vt 0.590572 0.751424
vt 0.225338 0.846876
vt 0.319474 0.846876
vt 0.214670 0.973184
vt 0.292246 0.984065
vt 0.905968 0.228401
vt 0.906101 0.224345
vt 0.500933 0.780255
vt 0.448421 0.780255
vt 0.505664 0.746267
vt 0.443690 0.746267
vt 0.905682 0.985006
vt 0.729949 0.985006
vt 0.199544 0.738259
vt 0.076964 0.650430
vt 0.251330 0.650430
vt 0.881146 0.174838
vt 0.060045 0.386230
vt 0.443584 0.746477
vt 0.428497 0.727886
vt 0.520530 0.727886
vt 0.506191 0.746477
vt 0.657702 0.978400
vt 0.679032 0.985006
vt 0.969566 0.173724
vt 0.778866 0.128180
vt 0.413552 0.635230
vt 0.390088 0.629910
vt 0.391073 0.624734
vt 0.411528 0.640078
vt 0.406282 0.587652
vt 0.384830 0.593371
vt 0.384848 0.587586
vt 0.406265 0.593437
vt 0.411527 0.600188
vt 0.391073 0.615532
vt 0.390088 0.610356
vt 0.413552 0.605036
vt 0.392055 0.620133
vt 0.415574 0.609309
vt 0.204027 0.599871
vt 0.227516 0.594014
vt 0.227534 0.599799
vt 0.204010 0.594086
vt 0.415575 0.630957
vt 0.392055 0.620133
vt 0.231438 0.630388
vt 0.230382 0.625227
vt 0.226181 0.592885
vt 0.226199 0.587099
vt 0.230382 0.615039
vt 0.231438 0.609878
vt 0.229324 0.619625
vt 0.390247 0.593515
vt 0.390264 0.599300
vt 0.229324 0.620641
vt 0.209272 0.640395
vt 0.206642 0.635865
vt 0.204010 0.592817
vt 0.204027 0.587031
vt 0.206642 0.604401
vt 0.209272 0.599871
vt 0.204010 0.608357
vt 0.415575 0.593437
vt 0.415592 0.599222
vt 0.204010 0.631909
vt 0.204176 0.541435
vt 0.250928 0.539116
vt 0.250921 0.541578
vt 0.204183 0.538973
vt 0.250943 0.534170
vt 0.204198 0.534027
vt 0.250951 0.531686
vt 0.204206 0.531543
vt 0.300559 0.531543
vt 0.253822 0.534151
vt 0.253814 0.531686
vt 0.300567 0.534008
vt 0.253837 0.539097
vt 0.300582 0.538954
vt 0.253845 0.541578
vt 0.300590 0.541435
vt 0.244051 0.548115
vt 0.235296 0.541592
vt 0.247665 0.541578
vt 0.239123 0.548120
vt 0.229078 0.552337
vt 0.236646 0.552401
vt 0.235228 0.563068
vt 0.239096 0.556677
vt 0.247596 0.563055
vt 0.244024 0.556671
vt 0.253814 0.552310
vt 0.246501 0.552390
vt 0.228912 0.563145
vt 0.235165 0.587013
vt 0.228985 0.587031
vt 0.235092 0.563125
vt 0.247579 0.586974
vt 0.247506 0.563087
vt 0.253814 0.586955
vt 0.253741 0.563068
vt 0.228912 0.586955
vt 0.222652 0.563087
vt 0.228839 0.563068
vt 0.222725 0.586974
vt 0.210238 0.563125
vt 0.210311 0.587012
vt 0.204010 0.563145
vt 0.204083 0.587031
vt 0.222762 0.563068
vt 0.214221 0.556526
vt 0.219149 0.556532
vt 0.210394 0.563055
vt 0.211744 0.552245
vt 0.204176 0.552310
vt 0.214194 0.547970
vt 0.210325 0.541578
vt 0.219121 0.547975
vt 0.222694 0.541591
vt 0.221599 0.552256
vt 0.228912 0.552336
vt 0.204206 0.531543
vt 0.250943 0.528937
vt 0.250951 0.531399
vt 0.204198 0.529081
vt 0.250928 0.523991
vt 0.204183 0.524135
vt 0.250921 0.521507
vt 0.204176 0.521651
vt 0.300559 0.521507
vt 0.253822 0.524116
vt 0.253814 0.521651
vt 0.300567 0.523972
vt 0.253837 0.529061
vt 0.300582 0.528918
vt 0.253845 0.531543
vt 0.300590 0.531399
vt 0.204206 0.511472
vt 0.250943 0.508866
vt 0.250951 0.511328
vt 0.204198 0.509010
vt 0.250928 0.503920
vt 0.204183 0.504064
vt 0.250921 0.501436
vt 0.204176 0.501580
vt 0.250951 0.511615
vt 0.204198 0.513937
vt 0.204206 0.511472
vt 0.250943 0.514080
vt 0.204183 0.518883
vt 0.250928 0.519026
vt 0.204176 0.521364
vt 0.250921 0.521507
vt 0.293524 0.548115
vt 0.284769 0.541592
vt 0.297137 0.541578
vt 0.288596 0.548120
vt 0.278551 0.552337
vt 0.286119 0.552401
vt 0.284701 0.563068
vt 0.288569 0.556677
vt 0.297069 0.563055
vt 0.293497 0.556672
vt 0.303287 0.552310
vt 0.295974 0.552391
vt 0.278717 0.563145
vt 0.284969 0.587013
vt 0.278790 0.587031
vt 0.284896 0.563125
vt 0.297384 0.586974
vt 0.297311 0.563087
vt 0.303619 0.586955
vt 0.303546 0.563068
vt 0.278717 0.586955
vt 0.272457 0.563087
vt 0.278643 0.563068
vt 0.272530 0.586974
vt 0.260042 0.563125
vt 0.260116 0.587012
vt 0.253814 0.563145
vt 0.253888 0.587031
vt 0.272401 0.563068
vt 0.263860 0.556526
vt 0.268787 0.556532
vt 0.260033 0.563055
vt 0.261382 0.552245
vt 0.253814 0.552310
vt 0.263833 0.547970
vt 0.259964 0.541578
vt 0.268760 0.547975
vt 0.272332 0.541592
vt 0.271238 0.552256
vt 0.278551 0.552337
vt 0.253845 0.511472
vt 0.300582 0.508866
vt 0.300590 0.511328
vt 0.253837 0.509010
vt 0.300567 0.503920
vt 0.253822 0.504064
vt 0.300559 0.501436
vt 0.253814 0.501580
vt 0.300559 0.511472
vt 0.253822 0.514080
vt 0.253814 0.511615
vt 0.300567 0.513937
vt 0.253837 0.519026
vt 0.300582 0.518883
vt 0.253845 0.521507
vt 0.300590 0.521364
vt 0.773933 0.439708
vn 0.0000 -0.9737 0.2277
vn 0.5646 -0.8025 0.1929
vn -0.7175 0.2184 0.6614
vn -0.8197 -0.1591 -0.5502
vn 0.8197 -0.1591 -0.5502
vn 0.7125 0.1863 0.6765
vn -0.9584 -0.2707 0.0905
vn 0.0000 0.0000 -0.0453
vn 0.9657 0.2556 -0.0453
vn -0.8073 -0.2864 0.5160
vn -0.5218 0.4666 0.7141
vn -0.7987 0.6017 -0.0001
vn -0.0942 -0.9956 0.0000
vn -0.1300 -0.6219 0.7722
vn 0.1299 -0.6219 0.7722
vn 0.8072 -0.2865 0.5161
vn 0.0942 -0.9955 0.0000
vn 0.7988 0.6016 0.0000
vn 0.5218 0.4666 0.7142
vn 0.0656 0.2180 0.9737
vn -0.0657 0.2180 0.9737
vn -0.9265 -0.3762 -0.0001
vn 0.9265 -0.3763 0.0001
vn -0.4220 0.6204 0.6611
vn -0.7738 0.6167 0.1444
vn -0.9673 -0.2337 -0.0982
vn -0.7553 -0.1394 0.6404
vn -0.0016 -0.2100 0.9777
vn -0.0008 0.7487 0.6629
vn -0.0003 0.9661 0.2583
vn -0.5206 0.7811 -0.3447
vn -0.0004 0.9684 -0.2495
vn -0.0007 0.2100 -0.9777
vn -0.6855 0.0504 -0.7263
vn 0.4256 0.6192 0.6599
vn 0.7583 -0.1386 0.6370
vn 0.9222 -0.3563 -0.1501
vn 0.8270 0.5527 0.1028
vn 0.5085 0.7853 -0.3532
vn 0.6756 0.0530 -0.7353
vn -0.4234 -0.8430 0.3319
vn -0.5450 -0.8020 -0.2444
vn -0.0002 -0.9650 -0.2621
vn -0.0007 -0.9617 0.2740
vn -0.3935 -0.6003 -0.6963
vn -0.0003 -0.7297 -0.6838
vn 0.4276 -0.8418 0.3293
vn 0.4711 -0.8423 -0.2618
vn 0.3840 -0.6008 -0.7011
vn -0.4996 0.5785 0.6448
vn -0.5204 0.8285 0.2067
vn -0.9976 -0.0139 0.0683
vn -0.6932 -0.1438 0.7063
vn -0.0010 -0.1988 0.9800
vn -0.0005 0.7449 0.6672
vn 0.0017 0.9801 0.1983
vn -0.5409 0.7684 -0.3420
vn 0.0019 0.9473 -0.3203
vn 0.0003 0.1987 -0.9801
vn -0.7282 0.1362 -0.6717
vn 0.4948 0.5763 0.6504
vn 0.6854 -0.1453 0.7135
vn 0.9960 -0.0179 0.0872
vn 0.5183 0.8278 0.2147
vn 0.5450 0.7687 -0.3348
vn 0.7347 0.1348 -0.6649
vn -0.4994 -0.7844 0.3677
vn -0.5202 -0.8435 -0.1336
vn 0.0018 -0.9797 -0.2005
vn -0.0002 -0.9463 0.3233
vn -0.5409 -0.5741 -0.6147
vn 0.0018 -0.7473 -0.6645
vn 0.4949 -0.7845 0.3738
vn 0.5182 -0.8460 -0.1257
vn 0.5451 -0.5771 -0.6081
vn -0.5066 0.5019 0.7010
vn -0.6118 0.7641 0.2044
vn -0.9966 -0.0166 0.0812
vn -0.6642 -0.1495 0.7324
vn 0.0000 -0.1993 0.9799
vn -0.0001 0.6210 0.7838
vn -0.0037 0.9805 0.1965
vn -0.5533 0.7260 -0.4084
vn -0.0045 0.8792 -0.4763
vn -0.0000 0.1992 -0.9800
vn -0.7179 0.1392 -0.6821
vn 0.5102 0.5025 0.6980
vn 0.6696 -0.1485 0.7278
vn 0.9976 -0.0140 0.0684
vn 0.6153 0.7624 0.2003
vn 0.5525 0.7228 -0.4151
vn 0.7136 0.1401 -0.6864
vn -0.5067 -0.7362 0.4487
vn -0.6117 -0.7833 -0.1103
vn -0.0038 -0.9793 -0.2022
vn -0.0000 -0.8774 0.4798
vn -0.5530 -0.5085 -0.6601
vn -0.0046 -0.6235 -0.7818
vn 0.5103 -0.7355 0.4456
vn 0.6153 -0.7801 -0.1133
vn 0.5523 -0.5027 -0.6650
vn -0.5125 0.4896 0.7054
vn -0.6283 0.7484 0.2125
vn -0.9951 -0.0238 0.0955
vn -0.6547 -0.1521 0.7404
vn 0.0093 -0.1998 0.9798
vn -0.0288 0.6190 0.7849
vn -0.0442 0.9802 0.1932
vn -0.5711 0.7146 -0.4040
vn -0.0369 0.8803 -0.4730
vn -0.0082 0.1992 -0.9799
vn -0.7238 0.1362 -0.6764
vn 0.4928 0.5172 0.6998
vn 0.6672 -0.1463 0.7304
vn 0.9965 -0.0125 0.0825
vn 0.5926 0.7785 0.2066
vn 0.5378 0.7378 -0.4081
vn 0.7133 0.1419 -0.6864
vn -0.4823 -0.7511 0.4508
vn -0.5920 -0.7991 -0.1051
vn 0.0441 -0.9777 -0.2054
vn 0.0410 -0.8767 0.4793
vn -0.5465 -0.5206 -0.6560
vn 0.0265 -0.6261 -0.7793
vn 0.5227 -0.7242 0.4499
vn 0.6290 -0.7701 -0.1061
vn 0.5625 -0.4980 -0.6600
vn -0.4944 0.5766 0.6505
vn -0.5216 0.8242 0.2205
vn -0.9949 -0.0202 0.0985
vn -0.6845 -0.1461 0.7142
vn 0.0000 -0.1989 0.9800
vn -0.0001 0.7445 0.6676
vn -0.0000 0.9805 0.1964
vn -0.5510 0.7659 -0.3314
vn 0.0000 0.9479 -0.3186
vn -0.0000 0.1988 -0.9800
vn -0.7382 0.1347 -0.6610
vn 0.4962 0.5770 0.6487
vn 0.6874 -0.1456 0.7116
vn 0.9957 -0.0186 0.0910
vn 0.5226 0.8246 0.2165
vn 0.5485 0.7668 -0.3334
vn 0.7360 0.1352 -0.6634
vn -0.4942 -0.7853 0.3730
vn -0.5213 -0.8450 -0.1190
vn 0.0000 -0.9794 -0.2022
vn -0.0000 -0.9461 0.3240
vn -0.5509 -0.5753 -0.6046
vn 0.0000 -0.7485 -0.6631
vn 0.4961 -0.7850 0.3711
vn 0.5224 -0.8438 -0.1228
vn 0.5485 -0.5753 -0.6068
vn -0.4501 0.3250 -0.8317
vn -0.5693 -0.2139 -0.7938
vn -0.6612 0.7157 0.2250
vn -0.4063 0.1196 -0.9059
vn -0.3408 -0.0666 -0.9378
vn -0.3037 -0.4317 -0.8493
vn -0.0314 0.9987 0.0397
vn -0.0589 0.5456 -0.8360
vn -0.0405 0.1823 -0.9824
vn -0.1164 -0.0168 -0.9931
vn -0.1985 -0.3738 -0.9060
vn 0.5693 -0.2139 -0.7938
vn 0.3924 0.4248 -0.8159
vn 0.4501 0.3250 -0.8317
vn 0.4063 0.1196 -0.9059
vn 0.3408 -0.0666 -0.9378
vn 0.0589 0.5456 -0.8360
vn 0.0314 0.9987 0.0397
vn 0.0405 0.1823 -0.9824
vn 0.1170 -0.0149 -0.9930
vn 0.2019 -0.3738 -0.9053
vn 0.1089 0.1132 -0.9876
vn 0.4448 -0.0283 -0.8952
vn -0.1025 0.1135 -0.9882
vn -0.4297 -0.0317 -0.9024
vn 0.7369 -0.4684 0.4874
vn 0.7031 0.3351 0.6272
vn 0.0000 0.0000 -0.3325
vn -0.7409 -0.5835 -0.3325
vn -0.7195 -0.2207 0.6585
vn -0.9827 -0.0184 -0.1843
vn 0.9827 -0.0184 -0.1843
vn -0.6563 -0.0731 -0.7509
vn -0.6356 -0.0748 -0.7684
vn 0.6356 -0.0748 -0.7684
vn 0.6563 -0.0731 -0.7509
vn 1.0000 0.0000 0.0000
vn -1.0000 0.0000 0.0000
vn -0.6388 -0.1581 -0.7530
vn -0.5311 -0.1741 -0.8292
vn 0.5311 -0.1741 -0.8292
vn 0.6388 -0.1581 -0.7530
vn 0.3665 -0.5941 0.7161
vn 0.1334 -0.7244 0.6763
vn 0.1697 0.7551 0.6332
vn 0.1401 0.8891 0.4358
vn 0.6268 -0.3308 0.7055
vn 0.0253 0.8609 0.5082
vn 0.3111 -0.3732 0.8740
vn -0.2962 0.7547 0.5854
vn -0.2478 -0.7089 0.6604
vn -0.7176 0.4377 0.5418
vn -0.1047 -0.4894 -0.8658
vn -0.1726 0.9085 -0.3806
vn -0.1960 0.8534 -0.4830
vn -0.2924 -0.5886 -0.7537
vn -0.0326 -0.3372 -0.9409
vn -0.4042 0.7964 -0.4497
vn -0.2133 -0.5699 -0.7936
vn -0.6863 0.6218 -0.3772
vn -0.5423 -0.7989 -0.2601
vn -0.9219 0.3752 -0.0967
vn -0.1697 0.7551 0.6332
vn -0.1334 -0.7244 0.6763
vn -0.3665 -0.5941 0.7161
vn -0.1401 0.8891 0.4358
vn -0.6268 -0.3308 0.7055
vn -0.0253 0.8609 0.5082
vn -0.3111 -0.3732 0.8740
vn 0.2962 0.7547 0.5854
vn 0.2478 -0.7089 0.6604
vn 0.7176 0.4377 0.5418
vn 0.1960 0.8534 -0.4830
vn 0.1726 0.9085 -0.3806
vn 0.1047 -0.4894 -0.8658
vn 0.2924 -0.5886 -0.7537
vn 0.4043 0.7964 -0.4497
vn 0.0326 -0.3372 -0.9409
vn 0.6863 0.6218 -0.3772
vn 0.2132 -0.5699 -0.7936
vn 0.9219 0.3752 -0.0967
vn 0.5423 -0.7989 -0.2601
vn 0.0000 -1.0000 -0.0000
vn -0.3418 -0.8754 0.3418
vn -0.4833 -0.8754 0.0000
vn 0.0000 -0.8755 0.4833
vn 0.3418 -0.8754 0.3417
vn 0.4833 -0.8754 0.0000
vn 0.3418 -0.8754 -0.3417
vn 0.0000 -0.8755 -0.4833
vn -0.3418 -0.8754 -0.3418
vn -0.4512 -0.5763 0.6814
vn -0.6651 -0.7468 0.0031
vn -0.0602 -0.2480 0.9669
vn 0.4739 -0.6907 0.5463
vn 0.6651 -0.7468 -0.0031
vn 0.4512 -0.5763 -0.6814
vn 0.0602 -0.2480 -0.9669
vn -0.4739 -0.6907 -0.5463
vn -0.4835 -0.5714 0.6631
vn -0.8303 -0.5567 -0.0263
vn -0.0487 -0.2364 0.9704
vn 0.4756 -0.5881 0.6541
vn 0.8327 -0.5507 -0.0568
vn 0.4967 -0.4466 -0.7442
vn 0.0510 -0.0613 -0.9968
vn -0.4923 -0.4611 -0.7382
vn -0.2586 0.6178 0.7426
vn -0.8117 0.5728 0.1138
vn -0.0116 0.6898 0.7239
vn 0.2384 0.6429 0.7279
vn 0.8100 0.5839 0.0554
vn 0.2338 0.7407 -0.6298
vn 0.0091 0.8081 -0.5890
vn -0.2117 0.7641 -0.6094
vn -0.0000 1.0000 -0.0000
vn 0.2719 -0.9092 -0.3154
vn 0.6997 0.7063 -0.1078
vn 0.3293 0.8445 -0.4224
vn 0.6469 -0.7603 -0.0588
vn -0.3297 0.8445 -0.4220
vn -0.2718 -0.9092 -0.3154
vn -0.7035 0.7024 -0.1082
vn -0.6510 -0.7567 -0.0593
vn -0.7657 0.6316 0.1215
vn -0.5480 -0.5382 0.6403
vn -0.4676 0.6470 0.6023
vn -0.6850 -0.7254 0.0678
vn 0.5476 -0.5381 0.6407
vn 0.4680 0.6470 0.6020
vn 0.6806 -0.7295 0.0677
vn 0.7617 0.6365 0.1211
vn 0.8363 -0.5404 -0.0927
vn 0.6951 -0.4715 -0.5428
vn 0.5196 0.6416 -0.5642
vn 0.6343 0.7403 0.2226
vn 0.9843 -0.0432 -0.1708
vn 0.5440 0.4624 0.7002
vn 0.2361 0.1971 0.9515
vn 0.8359 0.0502 -0.5465
vn 0.7125 0.1863 0.6764
vn 0.8325 0.2501 -0.4944
vn 0.8013 -0.5490 -0.2378
vn 0.3638 -0.6314 -0.6848
vn 0.5024 0.3878 -0.7728
vn 0.8432 0.4176 -0.3385
vn 0.6661 -0.1927 -0.7206
vn 0.5051 0.5487 -0.6662
vn 0.8124 0.5509 -0.1912
vn 0.6540 -0.7427 0.1435
vn 0.3963 -0.6953 -0.5996
vn 0.7381 -0.6197 0.2668
vn 0.4107 -0.1426 -0.9005
vn 0.6429 -0.1821 0.7440
vn 0.5289 -0.5848 0.6151
vn 0.7190 -0.2192 0.6596
vn 0.8903 0.2602 -0.3737
vn 0.4501 -0.3250 0.8317
vn 0.5693 0.2139 0.7938
vn 0.4063 -0.1196 0.9059
vn 0.8197 -0.1592 -0.5502
vn 0.3408 0.0666 0.9378
vn 0.8259 -0.4365 -0.3569
vn 0.6046 0.7409 -0.2923
vn 0.9921 0.0793 -0.0972
vn -0.0557 -0.6399 -0.7664
vn 0.0788 0.7579 -0.6476
vn -0.0604 -0.9362 -0.3461
vn 0.1085 0.9562 0.2720
vn 0.0403 0.2143 0.9759
vn 0.0007 0.2481 0.9687
vn 0.0495 0.1444 0.9883
vn 0.0742 0.2306 0.9702
vn 0.0000 -0.2383 -0.9712
vn 0.0000 -0.5659 -0.8245
vn 0.0000 0.0420 -0.9991
vn 0.0135 0.3081 0.9513
vn 0.0000 0.4406 -0.8977
vn -0.1018 -0.6633 -0.7414
vn -0.1646 0.3825 -0.9092
vn 0.0000 -0.9229 -0.3850
vn 0.0000 0.8145 -0.5802
vn 0.0000 0.6636 -0.7480
vn 0.0000 0.9505 -0.3107
vn 0.0056 -0.1019 -0.9948
vn 0.0382 -0.7648 -0.6432
vn 0.0461 -0.9717 0.2315
vn 0.0471 -0.9452 0.3230
vn 0.0365 -0.7204 0.6926
vn 0.0218 -0.4352 0.9001
vn 0.0000 0.5048 -0.8632
vn 0.0000 -0.2298 -0.9732
vn 0.0589 -0.5456 0.8360
vn 0.0405 -0.1823 0.9824
vn 0.0000 -0.6765 -0.7365
vn 0.1164 0.0168 0.9931
vn 0.1798 0.4818 0.8576
vn -0.0779 0.8984 -0.4322
vn -0.0119 0.9593 -0.2821
vn -0.6951 -0.4715 -0.5428
vn -0.8330 -0.5427 -0.1081
vn -0.5196 0.6417 -0.5642
vn -0.6237 0.7458 0.2339
vn -0.5330 0.4830 0.6947
vn -0.9376 -0.2896 -0.1925
vn -0.9843 -0.0432 -0.1708
vn -0.2470 0.1821 0.9517
vn -0.7125 0.1863 0.6764
vn -0.8359 0.0502 -0.5465
vn -0.8325 0.2501 -0.4944
vn -0.3638 -0.6314 -0.6848
vn -0.8013 -0.5490 -0.2378
vn -0.5024 0.3878 -0.7728
vn -0.8432 0.4176 -0.3385
vn -0.5051 0.5487 -0.6662
vn -0.6661 -0.1927 -0.7206
vn -0.8133 0.5502 -0.1892
vn -0.3963 -0.6953 -0.5996
vn -0.6540 -0.7427 0.1435
vn -0.7387 -0.6179 0.2692
vn -0.9861 -0.1188 0.1165
vn -0.5324 -0.5835 0.6133
vn -0.6436 0.0387 -0.7644
vn -0.8903 0.2602 -0.3737
vn -0.8197 -0.1592 -0.5502
vn -0.8259 -0.4365 -0.3569
vn -0.5693 0.2139 0.7938
vn -0.4501 -0.3250 0.8317
vn -0.4063 -0.1196 0.9059
vn -0.3408 0.0666 0.9378
vn -0.6046 0.7409 -0.2923
vn -0.9921 0.0793 -0.0972
vn 0.0557 -0.6399 -0.7664
vn -0.0788 0.7579 -0.6475
vn 0.0604 -0.9362 -0.3461
vn -0.1145 0.9543 0.2761
vn -0.0226 0.2439 0.9695
vn -0.1454 0.2293 0.9624
vn -0.0431 0.1390 0.9893
vn -0.0135 0.3081 0.9513
vn 0.1018 -0.6633 -0.7414
vn 0.1646 0.3825 -0.9092
vn -0.0056 -0.1019 -0.9948
vn -0.0382 -0.7648 -0.6432
vn -0.0461 -0.9717 0.2315
vn -0.0471 -0.9452 0.3230
vn -0.0365 -0.7204 0.6926
vn -0.0218 -0.4352 0.9001
vn -0.0589 -0.5456 0.8360
vn -0.0405 -0.1823 0.9824
vn -0.1170 0.0149 0.9930
vn -0.1823 0.4848 0.8554
vn 0.0779 0.8984 -0.4322
vn 0.0119 0.9593 -0.2821
vn -0.1089 -0.1132 0.9876
vn 0.1025 -0.1135 0.9882
vn -0.3228 0.5327 0.7823
vn 0.3107 0.5358 0.7851
vn -0.1317 0.5990 0.7899
vn 0.1137 0.5794 0.8071
vn -0.0248 0.2384 0.9708
vn 0.9388 -0.2820 -0.1977
vn -1.0000 0.0049 0.0068
vn -0.5337 0.1879 0.8245
vn -0.9976 -0.0158 -0.0678
vn -0.4959 0.3760 0.7827
vn 0.5332 0.1889 0.8246
vn 0.4951 0.3749 0.7838
vn 0.9975 -0.0163 -0.0686
vn 1.0000 0.0040 0.0053
vn 0.4726 -0.1908 -0.8604
vn 0.5024 -0.3654 -0.7837
vn -0.4723 -0.1903 -0.8607
vn -0.5016 -0.3668 -0.7835
vn -0.5313 -0.1778 0.8283
vn -0.9978 0.0137 -0.0654
vn 0.5315 -0.1774 0.8283
vn 0.9978 0.0135 -0.0650
vn 0.4734 0.1826 -0.8617
vn -0.4736 0.1828 -0.8616
vn -0.5148 -0.3511 0.7821
vn -0.9991 0.0165 -0.0387
vn 0.5152 -0.3517 0.7816
vn 0.9991 0.0162 -0.0379
vn 0.4791 0.3565 -0.8021
vn -0.4794 0.3559 -0.8022
vn 0.7554 -0.3276 0.5674
vn 0.7554 -0.6552 0.0000
vn 0.0000 -0.5000 0.8660
vn 0.7554 0.3276 0.5674
vn 0.0000 0.5000 0.8660
vn 0.7554 0.6552 0.0000
vn 0.7554 0.3276 -0.5674
vn 0.0000 0.5000 -0.8660
vn 0.7554 -0.3276 -0.5674
vn 0.0000 -0.5000 -0.8660
vn 0.5505 -0.4174 0.7230
vn 0.5505 -0.8348 0.0000
vn 0.5505 0.4174 0.7230
vn 0.5505 0.8348 0.0000
vn 0.5505 0.4174 -0.7230
vn 0.5505 -0.4174 -0.7230
vn -0.5505 -0.4174 0.7230
vn -0.5505 -0.8348 0.0000
vn -0.5505 0.4174 0.7230
vn -0.5505 0.8348 0.0000
vn -0.5505 0.4174 -0.7230
vn -0.5505 -0.4174 -0.7230
vn -0.7554 -0.3276 0.5674
vn -0.7554 -0.6552 -0.0000
vn -0.7554 0.3276 0.5674
vn -0.7554 0.6552 -0.0000
vn -0.7554 0.3276 -0.5674
vn -0.7554 -0.3276 -0.5674
usemtl Inside.003
s 1
f 176/1/1 167/2/2 4/3/3
f 390/4/4 326/5/5 164/6/1
f 164/6/1 176/1/1 390/4/4
f 8/7/6 164/6/1 326/5/5
f 326/5/7 158/8/8 8/7/9
f 390/4/4 176/1/1 4/3/3
f 9/9/10 10/10/11 11/11/12
f 12/12/13 13/13/14 9/14/10
f 14/15/15 13/13/14 12/12/13
f 15/16/16 14/15/15 16/17/17
f 17/18/18 18/19/19 15/20/16
f 10/21/11 9/22/10 13/23/14
f 19/24/20 20/25/21 13/23/14
f 18/26/19 19/24/20 14/27/15
f 9/9/10 11/11/12 21/28/22
f 12/12/13 9/14/10 21/29/22
f 14/15/15 12/12/13 16/17/17
f 15/16/16 16/17/17 22/30/23
f 17/18/18 15/20/16 22/31/23
f 10/21/11 13/23/14 20/25/21
f 19/24/20 13/23/14 14/27/15
f 18/26/19 14/27/15 15/32/16
f 23/33/24 24/34/25 25/35/26
f 23/36/24 26/37/27 27/38/28
f 23/36/24 28/39/29 29/40/30
f 30/41/31 31/42/32 32/43/33
f 30/44/31 33/45/34 25/35/26
f 30/41/31 24/34/25 29/40/30
f 34/46/35 28/47/29 27/38/28
f 34/48/35 35/49/36 36/50/37
f 34/51/35 37/52/38 29/40/30
f 38/53/39 37/54/38 36/50/37
f 38/55/39 39/56/40 32/43/33
f 38/57/39 31/58/32 29/40/30
f 40/59/41 26/60/27 25/35/26
f 40/61/41 41/62/42 42/63/43
f 40/64/41 43/65/44 27/38/28
f 44/66/45 33/67/34 32/43/33
f 44/68/45 45/69/46 42/63/43
f 44/70/45 41/71/42 25/35/26
f 46/72/47 35/73/36 27/38/28
f 46/72/47 43/74/44 42/63/43
f 46/75/47 47/76/48 36/50/37
f 48/77/49 45/78/46 32/43/33
f 48/79/49 39/80/40 36/50/37
f 48/77/49 47/76/48 42/63/43
f 49/81/50 50/82/51 51/83/52
f 49/84/50 52/85/53 53/86/54
f 49/84/50 54/87/55 55/88/56
f 56/89/57 57/90/58 58/91/59
f 56/92/57 59/93/60 51/83/52
f 56/89/57 50/82/51 55/88/56
f 60/94/61 54/95/55 53/86/54
f 60/96/61 61/97/62 62/98/63
f 60/99/61 63/100/64 55/88/56
f 64/101/65 63/102/64 62/98/63
f 64/103/65 65/104/66 58/91/59
f 63/100/64 64/105/65 57/106/58
f 66/107/67 52/108/53 51/83/52
f 66/109/67 67/110/68 68/111/69
f 66/112/67 69/113/70 53/86/54
f 70/114/71 59/115/60 58/91/59
f 70/116/71 71/117/72 68/111/69
f 70/118/71 67/119/68 51/83/52
f 72/120/73 61/121/62 53/86/54
f 72/120/73 69/122/70 68/111/69
f 72/123/73 73/124/74 62/98/63
f 74/125/75 71/126/72 58/91/59
f 74/127/75 65/128/66 62/98/63
f 71/117/72 74/125/75 73/124/74
f 75/129/76 76/130/77 77/131/78
f 75/132/76 78/133/79 79/134/80
f 75/132/76 80/135/81 81/136/82
f 82/137/83 83/138/84 84/139/85
f 82/140/83 85/141/86 77/131/78
f 83/142/84 82/137/83 76/130/77
f 86/143/87 80/144/81 79/134/80
f 86/145/87 87/146/88 88/147/89
f 86/148/87 89/149/90 81/136/82
f 90/150/91 89/151/90 88/147/89
f 90/152/91 91/153/92 84/139/85
f 90/154/91 83/142/84 81/136/82
f 92/155/93 78/156/79 77/131/78
f 92/157/93 93/158/94 94/159/95
f 92/160/93 95/161/96 79/134/80
f 96/162/97 85/163/86 84/139/85
f 93/158/94 96/164/97 97/165/98
f 96/166/97 93/167/94 77/131/78
f 98/168/99 87/169/88 79/134/80
f 98/168/99 95/170/96 94/159/95
f 98/171/99 99/172/100 88/147/89
f 100/173/101 97/174/98 84/139/85
f 100/175/101 91/176/92 88/147/89
f 100/173/101 99/172/100 94/159/95
f 101/177/102 102/178/103 103/179/104
f 101/180/102 104/181/105 105/182/106
f 101/180/102 106/183/107 107/184/108
f 108/185/109 109/186/110 110/187/111
f 108/188/109 111/189/112 103/179/104
f 109/190/110 108/185/109 102/178/103
f 112/191/113 106/192/107 105/182/106
f 112/193/113 113/194/114 114/195/115
f 112/196/113 115/197/116 107/184/108
f 116/198/117 115/199/116 114/195/115
f 116/200/117 117/201/118 110/187/111
f 115/197/116 116/202/117 109/190/110
f 118/203/119 104/204/105 103/179/104
f 118/205/119 119/206/120 120/207/121
f 118/208/119 121/209/122 105/182/106
f 122/210/123 111/211/112 110/187/111
f 119/206/120 122/212/123 123/213/124
f 122/214/123 119/215/120 103/179/104
f 124/216/125 113/217/114 105/182/106
f 124/216/125 121/218/122 120/207/121
f 124/219/125 125/220/126 114/195/115
f 126/221/127 123/222/124 110/187/111
f 126/223/127 117/224/118 114/195/115
f 123/213/124 126/221/127 125/220/126
f 127/225/128 128/226/129 129/227/130
f 127/228/128 130/229/131 131/230/132
f 127/228/128 132/231/133 133/232/134
f 134/233/135 135/234/136 136/235/137
f 134/236/135 137/237/138 129/227/130
f 135/238/136 134/233/135 128/226/129
f 138/239/139 132/240/133 131/230/132
f 138/241/139 139/242/140 140/243/141
f 138/244/139 141/245/142 133/232/134
f 142/246/143 141/247/142 140/243/141
f 142/248/143 143/249/144 136/235/137
f 141/245/142 142/250/143 135/238/136
f 144/251/145 130/252/131 129/227/130
f 144/253/145 145/254/146 146/255/147
f 144/256/145 147/257/148 131/230/132
f 148/258/149 137/259/138 136/235/137
f 145/254/146 148/260/149 149/261/150
f 148/262/149 145/263/146 129/227/130
f 150/264/151 139/265/140 131/230/132
f 150/264/151 147/266/148 146/255/147
f 150/267/151 151/268/152 140/243/141
f 152/269/153 149/270/150 136/235/137
f 152/271/153 143/272/144 140/243/141
f 149/261/150 152/269/153 151/268/152
f 49/81/50 51/83/52 52/108/53
f 49/84/50 53/86/54 54/95/55
f 49/84/50 55/88/56 50/82/51
f 56/89/57 58/91/59 59/115/60
f 56/92/57 51/83/52 50/82/51
f 56/89/57 55/88/56 57/106/58
f 60/94/61 53/86/54 61/121/62
f 60/96/61 62/98/63 63/102/64
f 60/99/61 55/88/56 54/87/55
f 64/101/65 62/98/63 65/128/66
f 64/103/65 58/91/59 57/90/58
f 63/100/64 57/106/58 55/88/56
f 66/107/67 51/83/52 67/119/68
f 66/109/67 68/111/69 69/122/70
f 66/112/67 53/86/54 52/85/53
f 70/114/71 58/91/59 71/126/72
f 70/116/71 68/111/69 67/110/68
f 70/118/71 51/83/52 59/93/60
f 72/120/73 53/86/54 69/113/70
f 72/120/73 68/111/69 73/124/74
f 72/123/73 62/98/63 61/97/62
f 74/125/75 58/91/59 65/104/66
f 74/127/75 62/98/63 73/124/74
f 71/117/72 73/124/74 68/111/69
f 75/129/76 77/131/78 78/156/79
f 75/132/76 79/134/80 80/144/81
f 75/132/76 81/136/82 76/130/77
f 82/137/83 84/139/85 85/163/86
f 82/140/83 77/131/78 76/130/77
f 83/142/84 76/130/77 81/136/82
f 86/143/87 79/134/80 87/169/88
f 86/145/87 88/147/89 89/151/90
f 86/148/87 81/136/82 80/135/81
f 90/150/91 88/147/89 91/176/92
f 90/152/91 84/139/85 83/138/84
f 90/154/91 81/136/82 89/149/90
f 92/155/93 77/131/78 93/167/94
f 92/157/93 94/159/95 95/170/96
f 92/160/93 79/134/80 78/133/79
f 96/162/97 84/139/85 97/174/98
f 93/158/94 97/165/98 94/159/95
f 96/166/97 77/131/78 85/141/86
f 98/168/99 79/134/80 95/161/96
f 98/168/99 94/159/95 99/172/100
f 98/171/99 88/147/89 87/146/88
f 100/173/101 84/139/85 91/153/92
f 100/175/101 88/147/89 99/172/100
f 100/173/101 94/159/95 97/165/98
f 101/177/102 103/179/104 104/204/105
f 101/180/102 105/182/106 106/192/107
f 101/180/102 107/184/108 102/178/103
f 108/185/109 110/187/111 111/211/112
f 108/188/109 103/179/104 102/178/103
f 109/190/110 102/178/103 107/184/108
f 112/191/113 105/182/106 113/217/114
f 112/193/113 114/195/115 115/199/116
f 112/196/113 107/184/108 106/183/107
f 116/198/117 114/195/115 117/224/118
f 116/200/117 110/187/111 109/186/110
f 115/197/116 109/190/110 107/184/108
f 118/203/119 103/179/104 119/215/120
f 118/205/119 120/207/121 121/218/122
f 118/208/119 105/182/106 104/181/105
f 122/210/123 110/187/111 123/222/124
f 119/206/120 123/213/124 120/207/121
f 122/214/123 103/179/104 111/189/112
f 124/216/125 105/182/106 121/209/122
f 124/216/125 120/207/121 125/220/126
f 124/219/125 114/195/115 113/194/114
f 126/221/127 110/187/111 117/201/118
f 126/223/127 114/195/115 125/220/126
f 123/213/124 125/220/126 120/207/121
f 127/225/128 129/227/130 130/252/131
f 127/228/128 131/230/132 132/240/133
f 127/228/128 133/232/134 128/226/129
f 134/233/135 136/235/137 137/259/138
f 134/236/135 129/227/130 128/226/129
f 135/238/136 128/226/129 133/232/134
f 138/239/139 131/230/132 139/265/140
f 138/241/139 140/243/141 141/247/142
f 138/244/139 133/232/134 132/231/133
f 142/246/143 140/243/141 143/272/144
f 142/248/143 136/235/137 135/234/136
f 141/245/142 135/238/136 133/232/134
f 144/251/145 129/227/130 145/263/146
f 144/253/145 146/255/147 147/266/148
f 144/256/145 131/230/132 130/229/131
f 148/258/149 136/235/137 149/270/150
f 145/254/146 149/261/150 146/255/147
f 148/262/149 129/227/130 137/237/138
f 150/264/151 131/230/132 147/257/148
f 150/264/151 146/255/147 151/268/152
f 150/267/151 140/243/141 139/242/140
f 152/269/153 136/235/137 143/249/144
f 152/271/153 140/243/141 151/268/152
f 149/261/150 151/268/152 146/255/147
f 23/33/24 25/35/26 26/60/27
f 23/36/24 27/38/28 28/47/29
f 23/36/24 29/40/30 24/34/25
f 30/41/31 32/43/33 33/67/34
f 30/44/31 25/35/26 24/34/25
f 30/41/31 29/40/30 31/58/32
f 34/46/35 27/38/28 35/73/36
f 34/48/35 36/50/37 37/54/38
f 34/51/35 29/40/30 28/39/29
f 38/53/39 36/50/37 39/80/40
f 38/55/39 32/43/33 31/42/32
f 38/57/39 29/40/30 37/52/38
f 40/59/41 25/35/26 41/71/42
f 40/61/41 42/63/43 43/74/44
f 40/64/41 27/38/28 26/37/27
f 44/66/45 32/43/33 45/78/46
f 44/68/45 42/63/43 41/62/42
f 44/70/45 25/35/26 33/45/34
f 46/72/47 27/38/28 43/65/44
f 46/72/47 42/63/43 47/76/48
f 46/75/47 36/50/37 35/49/36
f 48/77/49 32/43/33 39/56/40
f 48/79/49 36/50/37 47/76/48
f 48/77/49 42/63/43 45/69/46
f 153/273/154 154/274/155 155/275/156
f 156/276/157 154/274/155 153/273/154
f 157/277/158 154/274/155 156/276/157
f 154/274/155 158/278/159 155/275/156
f 153/279/154 159/280/160 160/281/161
f 159/280/160 153/279/154 155/282/156
f 156/283/157 160/281/161 161/284/162
f 160/281/161 156/283/157 153/279/154
f 157/285/158 161/286/162 162/287/163
f 161/286/162 157/285/158 156/288/157
f 154/289/155 162/287/163 163/290/164
f 162/287/163 154/289/155 157/285/158
f 158/291/159 163/292/164 164/293/1
f 163/292/164 158/291/159 154/294/155
f 165/295/165 166/296/166 167/297/2
f 165/295/165 168/298/167 166/296/166
f 165/295/165 169/299/168 168/298/167
f 165/295/165 170/300/169 169/299/168
f 171/301/170 172/302/171 168/303/167
f 166/304/166 168/303/167 172/302/171
f 173/305/172 171/301/170 169/306/168
f 168/303/167 169/306/168 171/301/170
f 174/307/173 173/308/172 170/309/169
f 169/310/168 170/309/169 173/308/172
f 175/311/174 174/307/173 165/312/165
f 170/309/169 165/312/165 174/307/173
f 176/313/1 175/314/174 167/315/2
f 165/316/165 167/315/2 175/314/174
f 177/317/175 178/318/176 179/319/177
f 179/319/177 178/318/176 180/320/178
f 173/308/172 174/307/173 161/286/162
f 161/286/162 174/307/173 162/287/163
f 160/281/161 173/305/172 161/284/162
f 173/305/172 160/281/161 171/301/170
f 172/302/171 160/281/161 159/280/160
f 160/281/161 172/302/171 171/301/170
f 175/314/174 176/313/1 163/292/164
f 163/292/164 176/313/1 164/293/1
f 179/319/177 180/320/178 162/287/163
f 163/290/164 162/287/163 180/320/178
f 178/318/176 174/307/173 175/311/174
f 174/307/173 178/318/176 177/317/175
f 177/317/175 162/287/163 174/307/173
f 162/287/163 177/317/175 179/319/177
f 326/5/5 159/321/160 7/322/179
f 390/4/180 166/323/181 5/324/182
f 5/324/183 172/325/171 390/4/4
f 172/325/171 159/321/160 326/5/5
f 326/5/5 390/4/4 172/325/171
f 159/321/160 155/326/156 7/322/179
f 535/327/184 536/328/184 537/329/184
f 534/330/185 538/331/185 533/332/185
usemtl _eva.png.005
f 181/333/186 182/334/187 183/335/188
f 184/336/189 181/333/186 183/335/188
f 184/337/189 183/338/188 185/339/190
f 185/339/190 186/340/190 184/337/189
f 182/341/187 181/342/186 187/343/191
f 187/343/191 188/344/191 182/341/187
f 189/345/186 190/346/187 191/347/188
f 192/348/189 189/345/186 191/347/188
f 192/349/189 191/350/188 193/351/190
f 193/351/190 194/352/190 192/349/189
f 190/353/187 189/354/186 195/355/191
f 195/355/191 196/356/191 190/353/187
f 197/357/192 198/358/193 199/359/194
f 200/360/195 197/357/192 199/359/194
f 200/361/195 199/362/194 201/363/190
f 201/363/190 202/364/190 200/361/195
f 198/365/193 197/366/192 203/367/191
f 203/367/191 204/368/191 198/365/193
f 205/369/192 206/370/193 207/371/194
f 208/372/195 205/369/192 207/371/194
f 208/373/195 207/374/194 209/375/190
f 209/375/190 210/376/190 208/373/195
f 206/377/193 205/378/192 211/379/191
f 211/379/191 212/380/191 206/377/193
f 213/381/196 214/382/197 215/383/198
f 216/384/199 213/381/196 215/383/198
f 217/385/200 213/381/196 216/384/199
f 216/384/199 218/386/201 217/385/200
f 219/387/202 217/385/200 218/386/201
f 218/386/201 220/388/203 219/387/202
f 221/389/204 219/387/202 220/388/203
f 220/388/203 222/390/205 221/389/204
f 223/391/206 224/392/207 225/393/208
f 225/393/208 226/394/209 223/391/206
f 227/395/210 228/396/211 224/392/207
f 224/392/207 223/391/206 227/395/210
f 229/397/212 230/398/213 228/396/211
f 228/396/211 227/395/210 229/397/212
f 231/399/214 232/400/215 230/398/213
f 230/398/213 229/397/212 231/399/214
f 224/401/207 216/402/199 215/403/198
f 215/403/198 225/404/208 224/401/207
f 228/405/211 218/406/201 216/402/199
f 216/402/199 224/401/207 228/405/211
f 230/407/213 220/408/203 218/406/201
f 218/406/201 228/405/211 230/407/213
f 232/409/215 222/410/205 220/408/203
f 220/408/203 230/407/213 232/409/215
f 231/399/214 221/411/204 222/412/205
f 222/412/205 232/400/215 231/399/214
f 229/413/212 219/414/202 221/415/204
f 221/415/204 231/416/214 229/413/212
f 227/417/210 217/418/200 219/414/202
f 219/414/202 229/413/212 227/417/210
f 223/419/206 213/420/196 217/418/200
f 217/418/200 227/417/210 223/419/206
f 214/421/197 213/420/196 226/422/209
f 213/420/196 223/419/206 226/422/209
f 233/423/216 234/424/217 235/425/218
f 236/426/219 233/423/216 235/425/218
f 236/426/219 235/425/218 237/427/220
f 237/427/220 238/428/221 236/426/219
f 238/428/221 237/427/220 239/429/222
f 239/429/222 240/430/223 238/428/221
f 240/430/223 239/429/222 241/431/224
f 241/431/224 242/432/225 240/430/223
f 243/433/226 244/434/227 245/435/228
f 245/435/228 246/436/229 243/433/226
f 244/434/227 247/437/230 248/438/231
f 248/438/231 245/435/228 244/434/227
f 247/437/230 249/439/232 250/440/233
f 250/440/233 248/438/231 247/437/230
f 249/439/232 251/441/234 252/442/235
f 252/442/235 250/440/233 249/439/232
f 233/443/216 236/444/219 244/445/227
f 243/446/226 233/443/216 244/445/227
f 236/444/219 238/447/221 247/448/230
f 247/448/230 244/445/227 236/444/219
f 238/447/221 240/449/223 249/450/232
f 249/450/232 247/448/230 238/447/221
f 240/449/223 242/451/225 251/452/234
f 251/452/234 249/450/232 240/449/223
f 242/453/225 241/454/224 252/442/235
f 252/442/235 251/441/234 242/453/225
f 241/455/224 239/456/222 250/457/233
f 250/457/233 252/458/235 241/455/224
f 239/456/222 237/459/220 248/460/231
f 248/460/231 250/457/233 239/456/222
f 237/459/220 235/461/218 245/462/228
f 245/462/228 248/460/231 237/459/220
f 235/461/218 234/463/217 246/464/229
f 246/464/229 245/462/228 235/461/218
f 253/465/236 254/466/237 255/467/238
f 253/465/236 256/468/239 254/466/237
f 253/465/236 257/469/240 256/468/239
f 253/465/236 258/470/241 257/469/240
f 253/465/236 259/471/242 258/470/241
f 253/465/236 260/472/243 259/471/242
f 253/465/236 261/473/244 260/472/243
f 253/465/236 255/467/238 261/473/244
f 255/467/238 262/474/245 263/475/246
f 255/467/238 254/466/237 262/474/245
f 254/466/237 264/476/247 262/474/245
f 254/466/237 256/468/239 264/476/247
f 256/468/239 265/477/248 264/476/247
f 256/468/239 257/469/240 265/477/248
f 257/469/240 266/478/249 265/477/248
f 257/469/240 258/470/241 266/478/249
f 258/470/241 267/479/250 266/478/249
f 258/470/241 259/471/242 267/479/250
f 259/471/242 268/480/251 267/479/250
f 259/471/242 260/472/243 268/480/251
f 260/472/243 269/481/252 268/480/251
f 260/472/243 261/473/244 269/481/252
f 261/473/244 263/475/246 269/481/252
f 261/473/244 255/467/238 263/475/246
f 263/475/246 270/482/253 271/483/254
f 263/475/246 262/474/245 270/482/253
f 262/474/245 272/484/255 270/482/253
f 262/474/245 264/476/247 272/484/255
f 264/476/247 273/485/256 272/484/255
f 264/476/247 265/477/248 273/485/256
f 265/477/248 274/486/257 273/485/256
f 265/477/248 266/478/249 274/486/257
f 266/478/249 275/487/258 274/486/257
f 266/478/249 267/479/250 275/487/258
f 267/479/250 276/488/259 275/487/258
f 267/479/250 268/480/251 276/488/259
f 268/480/251 277/489/260 276/488/259
f 268/480/251 269/481/252 277/489/260
f 269/481/252 271/483/254 277/489/260
f 269/481/252 263/475/246 271/483/254
f 271/483/254 278/490/261 279/491/262
f 271/483/254 270/482/253 278/490/261
f 270/482/253 280/492/263 278/490/261
f 270/482/253 272/484/255 280/492/263
f 272/484/255 281/493/264 280/492/263
f 272/484/255 273/485/256 281/493/264
f 273/485/256 282/494/265 281/493/264
f 273/485/256 274/486/257 282/494/265
f 274/486/257 283/495/266 282/494/265
f 274/486/257 275/487/258 283/495/266
f 275/487/258 284/496/267 283/495/266
f 275/487/258 276/488/259 284/496/267
f 276/488/259 285/497/268 284/496/267
f 276/488/259 277/489/260 285/497/268
f 277/489/260 279/491/262 285/497/268
f 277/489/260 271/483/254 279/491/262
f 286/498/269 279/491/262 278/490/261
f 286/498/269 278/490/261 280/492/263
f 286/498/269 280/492/263 281/493/264
f 286/498/269 281/493/264 282/494/265
f 286/498/269 282/494/265 283/495/266
f 286/498/269 283/495/266 284/496/267
f 286/498/269 284/496/267 285/497/268
f 286/498/269 285/497/268 279/491/262
f 287/499/270 288/500/271 289/501/272
f 288/500/271 287/499/270 290/502/273
f 287/499/270 289/501/272 291/503/274
f 292/504/275 287/499/270 291/503/274
f 292/504/275 291/503/274 293/505/276
f 293/505/276 294/506/277 292/504/275
f 295/507/278 296/508/279 297/509/280
f 296/508/279 295/507/278 298/510/281
f 296/511/279 299/512/282 300/513/283
f 300/513/283 297/514/280 296/511/279
f 299/512/282 301/515/284 302/516/285
f 302/516/285 300/513/283 299/512/282
f 290/517/273 287/518/270 296/519/279
f 296/519/279 298/520/281 290/517/273
f 287/521/270 292/522/275 299/512/282
f 296/523/279 287/524/270 299/525/282
f 292/522/275 294/526/277 301/515/284
f 301/527/284 299/528/282 292/529/275
f 293/530/276 291/531/274 300/532/283
f 300/532/283 302/533/285 293/530/276
f 291/534/274 289/535/272 297/514/280
f 297/536/280 300/537/283 291/538/274
f 289/539/272 288/540/271 295/541/278
f 295/542/278 297/514/280 289/535/272
f 303/543/286 304/544/287 305/545/288
f 303/543/286 305/545/288 306/546/289
f 307/547/290 308/548/291 309/549/292
f 310/550/293 307/547/290 8/551/294
f 307/547/290 309/549/292 8/551/294
f 311/552/295 310/550/293 8/551/294
f 312/553/296 313/554/297 314/555/298
f 315/556/299 311/552/295 8/551/294
f 316/557/300 317/558/301 318/559/302
f 319/560/303 320/561/304 316/557/300
f 319/560/303 316/557/300 318/559/302
f 321/562/305 319/560/303 318/559/302
f 321/562/305 318/559/302 322/563/306
f 323/564/307 324/565/308 321/566/305
f 323/564/307 321/566/305 322/567/306
f 7/568/309 318/559/302 325/569/310
f 7/568/309 325/569/310 326/570/5
f 327/571/311 7/568/309 328/572/312
f 329/573/313 327/571/311 328/572/312
f 7/568/309 326/570/314 8/551/294
f 330/574/315 329/573/313 328/572/312
f 326/570/5 331/575/316 8/551/294
f 331/575/316 312/553/296 8/551/294
f 328/572/312 7/568/309 8/551/294
f 8/551/294 312/553/296 314/555/298
f 314/576/298 332/577/317 333/578/318
f 8/551/294 314/555/298 333/579/318
f 315/556/299 8/551/294 333/579/318
f 304/580/287 334/581/319 335/582/320
f 335/583/320 305/584/288 304/585/287
f 303/586/286 336/587/321 334/581/319
f 304/580/287 303/586/286 334/581/319
f 305/545/288 335/588/320 337/589/322
f 337/589/322 306/546/289 305/545/288
f 338/590/323 339/591/324 340/592/325
f 341/593/326 309/594/292 308/595/291
f 307/596/290 342/597/327 343/598/328
f 310/599/293 344/600/329 342/597/327
f 342/597/327 307/596/290 310/599/293
f 309/594/292 340/592/325 1/601/330
f 1/601/330 8/602/294 309/594/292
f 311/603/295 345/604/331 344/600/329
f 344/600/329 310/599/293 311/603/295
f 313/605/297 346/606/332 347/607/333
f 347/607/333 314/576/298 313/605/297
f 312/608/296 348/609/334 346/606/332
f 346/606/332 313/605/297 312/608/296
f 315/610/299 349/611/335 345/604/331
f 345/604/331 311/603/295 315/610/299
f 317/612/301 350/613/336 351/614/337
f 351/614/337 318/615/302 317/612/301
f 316/616/300 352/617/338 350/613/336
f 350/613/336 317/612/301 316/616/300
f 320/618/304 353/619/339 352/617/338
f 352/617/338 316/616/300 320/618/304
f 319/620/303 354/621/340 353/622/339
f 353/622/339 320/623/304 319/620/303
f 321/566/305 355/624/341 354/621/340
f 354/621/340 319/620/303 321/566/305
f 324/565/308 356/625/342 355/624/341
f 355/624/341 321/566/305 324/565/308
f 7/626/309 6/627/343 356/628/342
f 356/628/342 324/629/308 323/630/307
f 356/628/342 323/630/307 7/626/309
f 318/615/302 351/614/337 357/631/344
f 357/631/344 325/632/310 318/615/302
f 325/632/310 357/631/344 358/633/345
f 358/633/345 326/634/5 325/632/310
f 327/635/311 359/636/346 6/637/343
f 6/637/343 7/638/309 327/635/311
f 329/639/313 360/640/347 359/636/346
f 359/636/346 327/635/311 329/639/313
f 326/634/5 358/633/345 361/641/348
f 361/641/348 331/642/316 326/634/5
f 330/643/315 362/644/349 360/645/347
f 360/645/347 329/646/313 330/643/315
f 331/642/316 361/641/348 348/609/334
f 348/609/334 312/608/296 331/642/316
f 328/647/312 363/648/350 362/644/349
f 362/644/349 330/643/315 328/647/312
f 8/649/294 1/650/330 363/651/350
f 363/651/350 328/652/312 8/649/294
f 332/577/317 364/653/351 365/654/352
f 365/654/352 333/578/318 332/577/317
f 314/576/298 347/607/333 364/653/351
f 364/653/351 332/577/317 314/576/298
f 333/578/318 365/654/352 349/611/335
f 349/611/335 315/610/299 333/578/318
f 366/655/353 367/656/354 368/657/355
f 368/657/355 367/656/354 369/658/356
f 370/659/357 369/658/356 371/660/358
f 370/661/357 372/662/359 373/663/360
f 372/662/359 4/664/361 373/663/360
f 372/662/359 374/665/362 4/664/361
f 374/665/362 375/666/363 4/664/361
f 376/667/364 377/668/365 378/669/366
f 375/666/363 379/670/367 4/664/361
f 380/671/368 381/672/369 382/673/370
f 383/674/371 384/675/372 381/672/369
f 381/672/369 384/675/372 382/673/370
f 384/675/372 385/676/373 386/677/374
f 384/675/372 386/677/374 382/673/370
f 7/568/309 323/678/307 322/563/306
f 7/568/309 322/563/306 318/559/302
f 387/679/375 388/680/376 386/681/374
f 387/679/375 386/681/374 385/682/373
f 382/673/370 5/683/183 389/684/377
f 389/684/377 5/683/183 390/685/4
f 5/683/183 4/664/361 390/685/378
f 4/664/361 391/686/379 390/685/4
f 392/687/380 4/664/361 5/683/183
f 392/687/380 5/683/183 393/688/381
f 4/664/361 378/669/366 377/668/365
f 391/686/379 4/664/361 377/668/365
f 392/687/380 393/688/381 394/689/382
f 392/687/380 394/689/382 395/690/383
f 396/691/384 378/692/366 397/693/385
f 378/669/366 4/664/361 397/694/385
f 4/664/361 379/670/367 397/694/385
f 398/695/386 366/696/353 399/697/387
f 368/698/355 399/699/387 366/700/353
f 400/701/388 367/702/354 398/695/386
f 366/696/353 398/695/386 367/702/354
f 399/703/387 368/657/355 401/704/389
f 369/658/356 401/704/389 368/657/355
f 402/705/390 403/706/391 404/707/392
f 403/706/391 402/705/390 370/708/357
f 405/709/327 372/710/359 406/711/328
f 407/712/329 374/713/362 405/709/327
f 372/710/359 405/709/327 374/713/362
f 404/707/392 373/714/360 2/715/393
f 4/716/361 2/715/393 373/714/360
f 408/717/331 375/718/363 407/712/329
f 374/713/362 407/712/329 375/718/363
f 409/719/394 376/720/364 410/721/395
f 378/692/366 410/721/395 376/720/364
f 411/722/334 377/723/365 409/719/394
f 376/720/364 409/719/394 377/723/365
f 412/724/335 379/725/367 408/717/331
f 375/718/363 408/717/331 379/725/367
f 413/726/336 380/727/368 414/728/337
f 382/729/370 414/728/337 380/727/368
f 415/730/396 381/731/369 413/726/336
f 380/727/368 413/726/336 381/731/369
f 416/732/397 383/733/371 415/730/396
f 381/731/369 415/730/396 383/733/371
f 417/734/398 384/735/372 416/736/397
f 383/737/371 416/736/397 384/735/372
f 418/738/399 385/682/373 417/734/398
f 384/735/372 417/734/398 385/682/373
f 419/739/400 387/679/375 418/738/399
f 385/682/373 418/738/399 387/679/375
f 3/740/401 5/741/183 419/742/400
f 387/743/375 419/742/400 5/741/183
f 387/743/375 5/741/183 388/744/376
f 414/728/337 382/729/370 420/745/344
f 389/746/377 420/745/344 382/729/370
f 420/745/344 389/746/377 421/747/345
f 390/748/4 421/747/345 389/746/377
f 422/749/402 393/750/381 3/751/401
f 5/752/183 3/751/401 393/750/381
f 423/753/403 394/754/382 422/749/402
f 393/750/381 422/749/402 394/754/382
f 421/747/345 390/748/4 424/755/348
f 391/756/379 424/755/348 390/748/4
f 425/757/404 395/758/383 423/759/403
f 394/760/382 423/759/403 395/758/383
f 424/755/348 391/756/379 411/722/334
f 377/723/365 411/722/334 391/756/379
f 426/761/405 392/762/380 425/757/404
f 395/758/383 425/757/404 392/762/380
f 2/763/393 4/764/361 426/765/405
f 392/766/380 426/765/405 4/764/361
f 427/767/406 396/691/384 428/768/407
f 397/693/385 428/768/407 396/691/384
f 410/721/395 378/692/366 427/767/406
f 396/691/384 427/767/406 378/692/366
f 428/768/407 397/693/385 412/724/335
f 379/725/367 412/724/335 397/693/385
f 429/769/408 430/770/409 431/771/410
f 430/770/409 432/772/411 431/771/410
f 423/759/403 360/645/347 425/757/404
f 360/645/347 362/644/349 425/757/404
f 359/636/346 360/640/347 423/753/403
f 423/753/403 422/749/402 359/636/346
f 3/751/401 6/637/343 359/636/346
f 359/636/346 422/749/402 3/751/401
f 356/628/342 6/627/343 3/740/401
f 3/740/401 419/742/400 356/628/342
f 419/739/400 418/738/399 356/625/342
f 355/624/341 356/625/342 418/738/399
f 418/738/399 417/734/398 355/624/341
f 417/734/398 354/621/340 355/624/341
f 416/736/397 354/621/340 417/734/398
f 353/622/339 354/621/340 416/736/397
f 416/732/397 352/617/338 353/619/339
f 415/730/396 352/617/338 416/732/397
f 350/613/336 352/617/338 415/730/396
f 415/730/396 413/726/336 350/613/336
f 414/728/337 350/613/336 413/726/336
f 351/614/337 350/613/336 414/728/337
f 414/728/337 420/745/344 351/614/337
f 420/745/344 357/631/344 351/614/337
f 357/631/344 420/745/344 358/633/345
f 420/745/344 421/747/345 358/633/345
f 358/633/345 421/747/345 361/641/348
f 421/747/345 424/755/348 361/641/348
f 361/641/348 424/755/348 348/609/334
f 424/755/348 411/722/334 348/609/334
f 348/609/334 411/722/334 346/606/332
f 411/722/334 409/719/394 346/606/332
f 346/606/332 409/719/394 347/607/333
f 409/719/394 410/721/395 347/607/333
f 410/721/395 427/767/406 347/607/333
f 427/767/406 364/653/351 347/607/333
f 364/653/351 427/767/406 428/768/407
f 428/768/407 365/654/352 364/653/351
f 412/724/335 349/611/335 428/768/407
f 349/611/335 365/654/352 428/768/407
f 412/724/335 345/604/331 349/611/335
f 408/717/331 345/604/331 412/724/335
f 407/712/329 344/600/329 408/717/331
f 344/600/329 345/604/331 408/717/331
f 405/709/327 342/597/327 407/712/329
f 342/597/327 344/600/329 407/712/329
f 405/709/327 343/598/328 342/597/327
f 406/711/328 343/598/328 405/709/327
f 336/587/321 343/598/328 400/701/388
f 400/701/388 343/598/328 406/711/328
f 334/581/319 336/587/321 398/695/386
f 336/587/321 400/701/388 398/695/386
f 335/582/320 334/581/319 399/697/387
f 399/697/387 334/581/319 398/695/386
f 399/703/387 401/704/389 335/588/320
f 401/704/389 337/589/322 335/588/320
f 401/704/389 433/773/412 337/589/322
f 433/773/412 434/774/413 337/589/322
f 435/775/414 339/591/324 402/705/390
f 339/591/324 434/776/413 433/777/412
f 2/715/393 1/601/330 404/707/392
f 1/601/330 340/592/325 404/707/392
f 426/765/405 363/651/350 2/763/393
f 363/651/350 1/650/330 2/763/393
f 371/778/358 406/711/328 372/710/359
f 367/702/354 400/701/388 371/778/358
f 406/711/328 371/778/358 400/701/388
f 371/779/358 372/662/359 370/661/357
f 340/592/325 309/594/292 341/593/326
f 340/592/325 341/593/326 338/590/323
f 308/595/291 434/776/413 338/590/323
f 308/595/291 338/590/323 341/593/326
f 338/590/323 434/776/413 339/591/324
f 340/592/325 339/591/324 435/775/414
f 404/707/392 340/592/325 435/775/414
f 404/707/392 435/775/414 402/705/390
f 433/777/412 370/708/357 402/705/390
f 433/777/412 402/705/390 339/591/324
f 373/714/360 404/707/392 403/706/391
f 373/714/360 403/706/391 370/708/357
f 430/770/409 362/644/349 432/772/411
f 363/648/350 432/772/411 362/644/349
f 431/771/410 426/761/405 425/757/404
f 425/757/404 429/769/408 431/771/410
f 429/769/408 425/757/404 362/644/349
f 362/644/349 430/770/409 429/769/408
f 432/780/411 363/781/350 426/782/405
f 426/782/405 431/783/410 432/780/411
f 436/784/415 303/543/286 308/785/291
f 343/598/328 436/786/415 307/596/290
f 336/587/321 303/586/286 436/786/415
f 436/786/415 343/598/328 336/587/321
f 436/787/415 308/548/291 307/547/290
f 401/704/389 370/659/357 433/773/412
f 401/704/389 369/658/356 370/659/357
f 369/658/356 367/656/354 371/660/358
f 308/785/291 306/546/289 434/774/413
f 306/546/289 337/589/322 434/774/413
f 308/785/291 303/543/286 306/546/289
f 437/788/416 438/789/417 439/790/418
f 437/788/416 440/791/419 438/789/417
f 440/792/419 441/793/420 438/794/417
f 440/792/419 442/795/421 441/793/420
f 442/796/421 443/797/422 441/798/420
f 442/796/421 444/799/423 443/797/422
f 444/799/423 445/800/424 443/797/422
f 444/799/423 446/801/425 445/800/424
f 446/802/425 447/803/426 445/804/424
f 446/802/425 448/805/427 447/803/426
f 448/806/427 439/790/418 447/807/426
f 448/806/427 437/788/416 439/790/418
f 439/790/418 449/808/428 450/809/429
f 439/790/418 438/789/417 449/808/428
f 438/794/417 451/810/430 449/811/428
f 438/794/417 441/793/420 451/810/430
f 441/798/420 452/812/431 451/813/430
f 441/798/420 443/797/422 452/812/431
f 443/797/422 453/814/432 452/812/431
f 443/797/422 445/800/424 453/814/432
f 445/804/424 454/815/433 453/816/432
f 445/804/424 447/803/426 454/815/433
f 447/807/426 450/809/429 454/817/433
f 447/807/426 439/790/418 450/809/429
f 450/809/429 455/818/434 456/819/435
f 450/809/429 449/808/428 455/818/434
f 449/811/428 457/820/436 455/821/434
f 449/811/428 451/810/430 457/820/436
f 451/813/430 458/822/437 457/823/436
f 451/813/430 452/812/431 458/822/437
f 452/812/431 459/824/438 458/822/437
f 452/812/431 453/814/432 459/824/438
f 453/816/432 460/825/439 459/826/438
f 453/816/432 454/815/433 460/825/439
f 454/817/433 456/819/435 460/827/439
f 454/817/433 450/809/429 456/819/435
f 461/828/236 462/829/440 463/830/441
f 461/828/236 464/831/442 462/829/440
f 464/831/442 465/832/443 462/829/440
f 464/831/442 466/833/444 465/832/443
f 466/833/444 467/834/445 465/832/443
f 466/833/444 468/835/269 467/834/445
f 468/836/269 469/837/446 467/838/445
f 468/836/269 470/839/447 469/837/446
f 470/839/447 471/840/448 469/837/446
f 470/839/447 472/841/449 471/840/448
f 472/841/449 463/842/441 471/840/448
f 472/841/449 461/843/236 463/842/441
f 463/844/441 473/845/450 474/846/451
f 463/844/441 462/847/440 473/845/450
f 462/847/440 475/848/452 473/845/450
f 462/847/440 465/849/443 475/848/452
f 465/849/443 476/850/453 475/848/452
f 465/849/443 467/851/445 476/850/453
f 467/851/445 477/852/454 476/850/453
f 467/851/445 469/853/446 477/852/454
f 469/853/446 478/854/455 477/852/454
f 469/853/446 471/855/448 478/854/455
f 471/855/448 474/846/451 478/854/455
f 471/855/448 463/844/441 474/846/451
f 474/856/451 479/857/456 480/858/457
f 474/856/451 473/859/450 479/857/456
f 473/859/450 481/860/458 479/857/456
f 473/859/450 475/861/452 481/860/458
f 475/861/452 482/862/459 481/860/458
f 475/861/452 476/863/453 482/862/459
f 476/864/453 483/865/460 482/866/459
f 476/864/453 477/867/454 483/865/460
f 477/867/454 484/868/461 483/865/460
f 477/867/454 478/869/455 484/868/461
f 478/869/455 480/870/457 484/868/461
f 478/869/455 474/871/451 480/870/457
f 480/872/457 485/873/462 486/874/463
f 480/872/457 479/875/456 485/873/462
f 479/875/456 487/876/464 485/873/462
f 479/875/456 481/877/458 487/876/464
f 481/877/458 488/878/465 487/876/464
f 481/877/458 482/879/459 488/878/465
f 482/879/459 489/880/466 488/878/465
f 482/879/459 483/881/460 489/880/466
f 483/881/460 490/882/467 489/880/466
f 483/881/460 484/883/461 490/882/467
f 484/883/461 486/874/463 490/882/467
f 484/883/461 480/872/457 486/874/463
f 486/884/463 491/885/442 492/886/236
f 486/884/463 485/887/462 491/885/442
f 485/887/462 493/888/444 491/885/442
f 485/887/462 487/889/464 493/888/444
f 487/889/464 494/890/269 493/888/444
f 487/889/464 488/891/465 494/890/269
f 488/892/465 495/893/447 494/894/269
f 488/892/465 489/895/466 495/893/447
f 489/895/466 496/896/449 495/893/447
f 489/895/466 490/897/467 496/896/449
f 490/897/467 492/898/236 496/896/449
f 490/897/467 486/899/463 492/898/236
f 497/900/236 498/901/440 499/902/441
f 497/900/236 500/903/442 498/901/440
f 500/903/442 501/904/443 498/901/440
f 500/903/442 502/905/444 501/904/443
f 502/905/444 503/906/445 501/904/443
f 502/905/444 504/907/269 503/906/445
f 504/908/269 505/909/446 503/910/445
f 504/908/269 506/911/447 505/909/446
f 506/911/447 507/912/448 505/909/446
f 506/911/447 508/913/449 507/912/448
f 508/913/449 499/914/441 507/912/448
f 508/913/449 497/915/236 499/914/441
f 499/916/441 509/917/450 510/918/451
f 499/916/441 498/919/440 509/917/450
f 498/919/440 511/920/452 509/917/450
f 498/919/440 501/921/443 511/920/452
f 501/921/443 512/922/453 511/920/452
f 501/921/443 503/923/445 512/922/453
f 503/923/445 513/924/454 512/922/453
f 503/923/445 505/925/446 513/924/454
f 505/925/446 514/926/455 513/924/454
f 505/925/446 507/927/448 514/926/455
f 507/927/448 510/918/451 514/926/455
f 507/927/448 499/916/441 510/918/451
f 510/928/451 515/929/456 516/930/457
f 510/928/451 509/931/450 515/929/456
f 509/931/450 517/932/458 515/929/456
f 509/931/450 511/933/452 517/932/458
f 511/933/452 518/934/459 517/932/458
f 511/933/452 512/935/453 518/934/459
f 512/936/453 519/937/460 518/938/459
f 512/936/453 513/939/454 519/937/460
f 513/939/454 520/940/461 519/937/460
f 513/939/454 514/941/455 520/940/461
f 514/941/455 516/942/457 520/940/461
f 514/941/455 510/943/451 516/942/457
f 516/944/457 521/945/462 522/946/463
f 516/944/457 515/947/456 521/945/462
f 515/947/456 523/948/464 521/945/462
f 515/947/456 517/949/458 523/948/464
f 517/949/458 524/950/465 523/948/464
f 517/949/458 518/951/459 524/950/465
f 518/951/459 525/952/466 524/950/465
f 518/951/459 519/953/460 525/952/466
f 519/953/460 526/954/467 525/952/466
f 519/953/460 520/955/461 526/954/467
f 520/955/461 522/946/463 526/954/467
f 520/955/461 516/944/457 522/946/463
f 522/956/463 527/957/442 528/958/236
f 522/956/463 521/959/462 527/957/442
f 521/959/462 529/960/444 527/957/442
f 521/959/462 523/961/464 529/960/444
f 523/961/464 530/962/269 529/960/444
f 523/961/464 524/963/465 530/962/269
f 524/964/465 531/965/447 530/966/269
f 524/964/465 525/967/466 531/965/447
f 525/967/466 532/968/449 531/965/447
f 525/967/466 526/969/467 532/968/449
f 526/969/467 528/970/236 532/968/449
f 526/969/467 522/971/463 528/970/236
f 388/972/376 5/683/183 382/673/370
f 388/972/376 382/673/370 386/677/374
l 4 8
l 166 326
