# Blender v3.0.1 OBJ File: ''
# www.blender.org
mtllib hammer_wheel.mtl
o Cylinder.001
v -0.291429 1.000000 0.000000
v 0.291429 1.000000 0.000000
v 0.291429 0.980785 -0.195090
v 0.291429 0.923880 -0.382683
v -0.291429 0.923880 -0.382684
v 0.291429 0.831470 -0.555570
v 0.291429 0.707107 -0.707107
v -0.291429 0.707107 -0.707107
v 0.291429 0.555570 -0.831470
v 0.291429 0.382683 -0.923879
v -0.291429 0.382683 -0.923880
v 0.291429 0.195090 -0.980785
v -0.291429 0.195090 -0.980785
v 0.291429 0.000000 -1.000000
v -0.291429 0.000000 -1.000000
v 0.291429 -0.195090 -0.980785
v -0.291429 -0.195090 -0.980785
v 0.291429 -0.382683 -0.923879
v -0.291429 -0.382683 -0.923880
v 0.291429 -0.555570 -0.831470
v 0.291429 -0.707107 -0.707107
v -0.291429 -0.707107 -0.707107
v 0.291429 -0.831470 -0.555570
v -0.291429 -0.831470 -0.555570
v 0.291429 -0.923880 -0.382683
v -0.291429 -0.923880 -0.382683
v 0.291429 -0.980785 -0.195090
v 0.291429 -1.000000 -0.000000
v -0.291429 -1.000000 -0.000000
v 0.291429 -0.980785 0.195091
v -0.291429 -0.980785 0.195091
v 0.291429 -0.923879 0.382684
v -0.291429 -0.923879 0.382684
v 0.291429 -0.831469 0.555571
v -0.291429 -0.831469 0.555571
v 0.291429 -0.707106 0.707107
v 0.291429 -0.555570 0.831470
v -0.291429 -0.555570 0.831470
v 0.291429 -0.382683 0.923880
v -0.291429 -0.382683 0.923880
v 0.291429 -0.195089 0.980786
v -0.291429 -0.195089 0.980785
v 0.291429 0.000001 1.000000
v -0.291429 0.000001 1.000000
v 0.291429 0.195091 0.980785
v -0.291429 0.195091 0.980785
v 0.291429 0.382684 0.923879
v -0.291429 0.382684 0.923879
v 0.291429 0.555571 0.831469
v 0.291429 0.707108 0.707106
v -0.291429 0.707108 0.707106
v 0.291429 0.831470 0.555569
v -0.291429 0.831470 0.555569
v 0.291429 0.923880 0.382682
v -0.291429 0.923880 0.382682
v 0.363900 -0.723369 -0.483340
v 0.363900 -0.803765 -0.332930
v 0.291429 0.980786 0.195089
v -0.291429 0.980786 0.195089
v -0.363900 -0.169726 0.853272
v -0.363900 -0.332930 0.803765
v -0.363900 -0.615175 -0.615175
v -0.363900 -0.723369 -0.483340
v -0.363900 -0.606293 -0.405112
v -0.363900 0.332931 0.803765
v -0.363900 0.279047 0.673676
v -0.363900 0.142257 0.715171
v -0.363900 0.869989 0.000000
v 0.363900 -0.332930 0.803765
v 0.363900 -0.169726 0.853272
v -0.363900 0.332930 -0.803765
v -0.363900 0.483340 -0.723369
v 0.363900 0.853272 0.169725
v 0.363900 0.869989 0.000000
v -0.291429 -0.980785 -0.195090
v -0.363900 -0.853272 -0.169726
v -0.363900 -0.803765 -0.332930
v 0.363900 0.483340 -0.723369
v 0.363900 0.332930 -0.803765
v -0.363900 0.000001 0.869989
v 0.363900 -0.853272 -0.169726
v -0.363900 0.169726 -0.853272
v -0.363900 -0.869989 -0.000000
v 0.363900 0.169726 -0.853272
v -0.363900 0.169727 0.853272
v 0.363900 -0.869989 -0.000000
v 0.363900 0.000001 0.869989
v -0.363900 0.000000 -0.869989
v -0.363900 -0.853272 0.169727
v 0.363900 0.000000 -0.869989
v 0.363900 0.169727 0.853272
v 0.363900 0.332931 0.803765
v -0.363900 -0.169726 -0.853272
v -0.363900 -0.803765 0.332931
v 0.363900 -0.169726 -0.853272
v -0.291429 0.980785 -0.195090
v -0.363900 0.853272 -0.169726
v -0.291429 0.555571 0.831469
v -0.363900 0.483341 0.723369
v 0.363900 -0.853272 0.169727
v 0.363900 -0.803765 0.332931
v 0.363900 0.483341 0.723369
v -0.363900 -0.332930 -0.803765
v -0.363900 -0.723369 0.483340
v 0.363900 -0.332930 -0.803765
v -0.363900 0.615176 0.615174
v 0.363900 -0.723369 0.483340
v -0.363900 0.803765 -0.332930
v -0.291429 -0.555570 -0.831470
v -0.363900 -0.483340 -0.723369
v 0.363900 0.853272 -0.169726
v 0.363900 0.803765 -0.332930
v -0.291429 -0.707106 0.707107
v -0.363900 -0.615175 0.615175
v 0.363900 -0.483340 -0.723369
v -0.363900 0.723370 0.483339
v 0.363900 -0.615175 0.615175
v -0.291429 0.831470 -0.555570
v -0.363900 0.723369 -0.483340
v 0.363900 0.615176 0.615174
v 0.363900 0.723369 -0.483340
v -0.363900 -0.483339 0.723370
v 0.363900 -0.615175 -0.615175
v -0.363900 0.803765 0.332929
v -0.363900 0.615175 -0.615175
v 0.363900 0.723370 0.483339
v -0.363900 0.853272 0.169725
v 0.363900 -0.483339 0.723370
v -0.291429 0.555570 -0.831470
v 0.363900 0.803765 0.332929
v 0.363900 0.615175 -0.615175
v 0.363900 -0.673677 -0.279046
v 0.363900 -0.606293 -0.405112
v 0.310797 -0.517818 -0.345995
v 0.363900 0.279047 0.673677
v 0.310797 0.238326 0.575369
v 0.310797 0.345996 0.517818
v 0.363900 0.142257 0.715171
v 0.363900 -0.515610 -0.515610
v -0.363900 0.405113 0.606293
v -0.363900 -0.673677 -0.279046
v -0.363900 0.715171 -0.142256
v -0.363900 0.729183 0.000000
v 0.363900 0.729183 0.000000
v -0.363900 0.515611 0.515609
v -0.363900 -0.715171 -0.142256
v -0.363900 0.673677 -0.279046
v 0.363900 0.405113 0.606293
v 0.363900 -0.715171 -0.142256
v 0.363900 0.715171 -0.142256
v 0.363900 0.673677 -0.279046
v -0.363900 0.606294 0.405111
v -0.363900 -0.729182 -0.000000
v -0.363900 0.606293 -0.405112
v 0.363900 0.515611 0.515609
v 0.363900 -0.729182 -0.000000
v 0.363900 0.606293 -0.405112
v -0.363900 0.673677 0.279045
v -0.363900 -0.715171 0.142257
v -0.363900 0.515610 -0.515610
v 0.363900 0.606294 0.405111
v -0.363900 0.715172 0.142255
v -0.363900 -0.673677 0.279046
v -0.363900 0.405112 -0.606293
v 0.363900 0.673677 0.279045
v 0.363900 -0.715171 0.142257
v 0.363900 -0.673677 0.279046
v 0.363900 0.515610 -0.515610
v 0.363900 0.405112 -0.606293
v -0.363900 -0.606293 0.405112
v -0.363900 0.279046 -0.673677
v 0.363900 0.715172 0.142255
v 0.363900 -0.606293 0.405113
v 0.363900 0.279046 -0.673677
v -0.363900 -0.515610 0.515610
v -0.363900 0.142257 -0.715171
v 0.363900 -0.515610 0.515610
v 0.363900 0.142257 -0.715171
v -0.363900 -0.405112 0.606293
v -0.363900 0.000000 -0.729182
v 0.363900 0.000000 -0.729182
v -0.363900 -0.279045 0.673677
v -0.363900 -0.142256 -0.715172
v 0.363900 -0.405112 0.606293
v 0.363900 -0.279045 0.673677
v 0.363900 -0.142256 -0.715171
v -0.363900 -0.142256 0.715172
v -0.363900 -0.279046 -0.673677
v 0.363900 -0.279046 -0.673677
v -0.363900 0.000001 0.729182
v -0.363900 -0.405112 -0.606293
v 0.363900 -0.142256 0.715172
v 0.363900 0.000001 0.729183
v 0.363900 -0.405112 -0.606293
v -0.363900 -0.515610 -0.515610
v -0.310797 -0.610808 -0.121497
v -0.310797 -0.622775 -0.000000
v -0.310797 -0.537005 -0.000000
v -0.310797 0.440369 0.440368
v -0.310797 0.517819 0.345994
v -0.310797 0.446504 0.298344
v 0.310797 0.622775 0.000000
v -0.310797 0.345996 0.517818
v -0.310797 -0.575369 -0.238325
v -0.310797 0.575369 -0.238326
v 0.310797 -0.575369 -0.238325
v 0.310797 -0.610808 -0.121497
v 0.310797 0.610808 -0.121497
v 0.310797 0.575369 -0.238325
v -0.310797 0.517818 -0.345995
v 0.310797 0.440369 0.440368
v 0.310797 0.517819 0.345994
v 0.310797 -0.622775 -0.000000
v 0.310797 0.517818 -0.345995
v -0.310797 0.575369 0.238325
v -0.310797 -0.610808 0.121498
v -0.310797 0.440368 -0.440368
v 0.310797 0.575369 0.238325
v -0.310797 0.610809 0.121496
v -0.310797 -0.575369 0.238326
v -0.310797 0.345995 -0.517818
v 0.310797 -0.610808 0.121498
v 0.310797 -0.575369 0.238326
v 0.310797 0.440368 -0.440368
v 0.310797 0.345995 -0.517818
v -0.310797 0.622775 0.000000
v -0.310797 -0.517818 0.345995
v -0.310797 0.238326 -0.575369
v 0.310797 0.610809 0.121496
v 0.310797 -0.517818 0.345995
v -0.310797 -0.440368 0.440369
v -0.310797 0.121497 -0.610808
v 0.310797 0.238326 -0.575369
v 0.310797 0.121497 -0.610808
v -0.310797 -0.345995 0.517818
v -0.310797 0.000000 -0.622775
v 0.310797 -0.440368 0.440369
v 0.310797 0.000000 -0.622775
v -0.310797 -0.238325 0.575369
v -0.310797 -0.121497 -0.610808
v 0.310797 -0.345995 0.517819
v 0.310797 -0.238325 0.575369
v 0.310797 -0.121497 -0.610808
v -0.310797 -0.121497 0.610808
v -0.310797 -0.238325 -0.575369
v 0.310797 -0.238325 -0.575369
v -0.310797 0.000001 0.622775
v -0.310797 -0.345995 -0.517818
v 0.310797 -0.121497 0.610808
v 0.310797 0.000001 0.622775
v 0.310797 -0.345995 -0.517818
v -0.310797 0.121498 0.610808
v -0.310797 -0.440368 -0.440368
v -0.310797 0.238326 0.575369
v -0.310797 -0.517818 -0.345995
v 0.310797 0.121498 0.610808
v 0.310797 -0.440368 -0.440368
v -0.310797 0.610808 -0.121497
v 0.310797 -0.537005 -0.000000
v 0.136771 -0.537005 -0.000000
v 0.136771 -0.526687 0.104765
v 0.310797 0.446504 0.298344
v 0.136771 0.446504 0.298344
v 0.136771 0.496129 0.205502
v -0.310797 0.446504 -0.298344
v -0.310797 0.496128 -0.205503
v 0.310797 0.379721 0.379720
v 0.310797 -0.526687 -0.104764
v 0.310797 0.496128 -0.205503
v 0.310797 0.446504 -0.298344
v -0.310797 0.496129 0.205502
v -0.310797 -0.526687 0.104765
v -0.310797 0.379720 -0.379720
v 0.310797 0.379720 -0.379720
v -0.310797 0.526687 0.104764
v -0.310797 -0.496128 0.205503
v -0.310797 0.298344 -0.446504
v 0.310797 0.496129 0.205502
v 0.310797 0.526687 0.104764
v 0.310797 -0.526687 0.104765
v 0.310797 -0.496128 0.205503
v 0.310797 0.298344 -0.446503
v -0.310797 0.537005 0.000000
v -0.310797 -0.446503 0.298344
v -0.310797 0.205503 -0.496128
v 0.310797 -0.446503 0.298344
v -0.310797 -0.379720 0.379720
v -0.310797 0.104765 -0.526687
v 0.310797 0.205503 -0.496128
v -0.310797 -0.298344 0.446504
v -0.310797 0.000000 -0.537005
v 0.310797 -0.379720 0.379720
v 0.310797 -0.298344 0.446504
v 0.310797 0.104765 -0.526687
v 0.310797 0.000000 -0.537005
v -0.310797 -0.205502 0.496128
v -0.310797 -0.104764 -0.526687
v 0.310797 -0.205502 0.496128
v 0.310797 -0.104764 -0.526687
v -0.310797 -0.104764 0.526687
v -0.310797 -0.205503 -0.496128
v 0.310797 -0.205503 -0.496128
v -0.310797 0.000001 0.537005
v -0.310797 -0.298344 -0.446504
v 0.310797 -0.104764 0.526687
v 0.310797 0.000001 0.537005
v 0.310797 -0.298344 -0.446503
v -0.310797 0.104765 0.526687
v -0.310797 -0.379720 -0.379720
v -0.310797 0.205504 0.496128
v -0.310797 -0.446503 -0.298344
v 0.310797 0.104765 0.526687
v 0.310797 -0.379720 -0.379720
v 0.310797 -0.446503 -0.298344
v -0.310797 0.298345 0.446503
v -0.310797 -0.496128 -0.205503
v -0.310797 0.526687 -0.104765
v 0.310797 0.205504 0.496128
v 0.310797 0.537005 0.000000
v -0.310797 0.379721 0.379719
v -0.310797 -0.526687 -0.104764
v 0.310797 0.298345 0.446503
v 0.310797 -0.496128 -0.205503
v 0.310797 0.526687 -0.104764
v -0.136771 -0.496128 0.205503
v -0.136771 -0.446503 0.298344
v -0.136771 -0.264395 0.176664
v -0.136771 0.526687 0.104764
v -0.136771 0.537005 0.000000
v -0.136771 0.317986 0.000000
v 0.136771 0.446504 -0.298344
v 0.136771 0.379720 -0.379720
v -0.136771 0.496129 0.205502
v -0.136771 -0.526687 0.104765
v -0.136771 0.298344 -0.446504
v 0.136771 0.526687 0.104764
v 0.136771 -0.496128 0.205503
v 0.136771 0.298344 -0.446503
v -0.136771 0.205503 -0.496128
v 0.136771 0.537005 0.000000
v 0.136771 -0.446503 0.298344
v 0.136771 0.205503 -0.496128
v -0.136771 -0.379720 0.379720
v -0.136771 0.104765 -0.526687
v 0.136771 -0.379720 0.379720
v 0.136771 0.104765 -0.526687
v -0.136771 -0.298344 0.446504
v -0.136771 0.000000 -0.537005
v 0.136771 -0.298344 0.446504
v 0.136771 0.000000 -0.537005
v -0.136771 -0.205502 0.496128
v -0.136771 -0.104764 -0.526687
v 0.136771 -0.205502 0.496128
v 0.136771 -0.104764 -0.526687
v -0.136771 -0.104764 0.526687
v -0.136771 -0.205503 -0.496128
v 0.136771 -0.205503 -0.496128
v -0.136771 0.000001 0.537005
v -0.136771 -0.298344 -0.446504
v 0.136771 -0.104764 0.526687
v 0.136771 0.000001 0.537005
v 0.136771 -0.298344 -0.446503
v -0.136771 0.104765 0.526687
v -0.136771 -0.379720 -0.379720
v 0.136771 0.104765 0.526687
v 0.136771 -0.379720 -0.379720
v -0.136771 0.205504 0.496128
v -0.136771 -0.446503 -0.298344
v 0.136771 0.205504 0.496128
v 0.136771 -0.446503 -0.298344
v -0.136771 0.298345 0.446503
v -0.136771 -0.496128 -0.205503
v -0.136771 0.526687 -0.104765
v 0.136771 0.298345 0.446503
v 0.136771 -0.496128 -0.205503
v 0.136771 0.526687 -0.104764
v -0.136771 0.379721 0.379719
v -0.136771 -0.526687 -0.104764
v -0.136771 0.496128 -0.205503
v 0.136771 0.379721 0.379720
v 0.136771 -0.526687 -0.104764
v 0.136771 0.496128 -0.205503
v -0.136771 0.446504 0.298344
v -0.136771 -0.537005 -0.000000
v -0.136771 0.446504 -0.298344
v -0.136771 0.379720 -0.379720
v 0.136771 0.121688 -0.293781
v 0.137971 0.121688 -0.293781
v 0.137971 0.062036 -0.311876
v 0.136771 -0.264395 0.176664
v 0.137971 -0.264395 0.176664
v 0.137971 -0.224850 0.224850
v -0.136771 0.121688 -0.293781
v -0.136771 0.176664 -0.264396
v 0.136771 0.311876 0.062036
v 0.136771 0.317986 0.000000
v 0.136771 -0.293780 0.121688
v 0.136771 0.176664 -0.264396
v -0.136771 -0.224850 0.224850
v -0.136771 0.062036 -0.311876
v 0.136771 -0.224850 0.224850
v 0.136771 0.062036 -0.311876
v -0.136771 -0.176663 0.264396
v -0.136771 0.000000 -0.317986
v 0.136771 0.000000 -0.317986
v -0.136771 -0.121688 0.293781
v -0.136771 -0.062036 -0.311876
v 0.136771 -0.176663 0.264396
v 0.136771 -0.062036 -0.311876
v -0.136771 -0.062035 0.311876
v -0.136771 -0.121688 -0.293781
v 0.136771 -0.121688 0.293781
v 0.136771 -0.121688 -0.293781
v -0.136771 0.000001 0.317986
v -0.136771 -0.176663 -0.264396
v 0.136771 -0.062035 0.311876
v 0.136771 0.000001 0.317986
v 0.136771 -0.176663 -0.264396
v -0.136771 0.062037 0.311876
v -0.136771 -0.224850 -0.224850
v 0.136771 -0.224850 -0.224850
v -0.136771 0.121688 0.293781
v -0.136771 -0.264395 -0.176663
v 0.136771 0.062037 0.311876
v 0.136771 -0.264395 -0.176663
v -0.136771 0.176664 0.264395
v -0.136771 -0.293781 -0.121688
v -0.136771 0.311876 -0.062036
v 0.136771 0.121688 0.293781
v -0.136771 0.224850 0.224850
v -0.136771 -0.311876 -0.062036
v -0.136771 0.293781 -0.121688
v 0.136771 0.176664 0.264395
v 0.136771 0.224850 0.224850
v 0.136771 -0.293781 -0.121688
v 0.136771 -0.311876 -0.062036
v 0.136771 0.311876 -0.062036
v 0.136771 0.293781 -0.121688
v -0.136771 0.264396 0.176663
v -0.136771 -0.317986 -0.000000
v -0.136771 0.264396 -0.176664
v 0.136771 0.264396 0.176663
v 0.136771 -0.317986 -0.000000
v 0.136771 0.264396 -0.176663
v -0.136771 0.293781 0.121688
v -0.136771 -0.311876 0.062036
v -0.136771 0.224850 -0.224850
v 0.136771 0.293781 0.121688
v 0.136771 0.224850 -0.224850
v -0.136771 0.311876 0.062036
v -0.136771 -0.293780 0.121688
v 0.136771 -0.311876 0.062036
v -0.137971 0.000000 -0.317986
v -0.137971 -0.062036 -0.311876
v -0.136102 -0.047397 -0.238284
v -0.137971 -0.121688 0.293781
v -0.136102 -0.092973 0.224458
v -0.136102 -0.134977 0.202007
v -0.137971 -0.176663 0.264396
v -0.137971 0.062036 -0.311876
v 0.137971 -0.176663 0.264396
v 0.137971 0.000000 -0.317986
v 0.137971 -0.121688 0.293781
v 0.137971 -0.062036 -0.311876
v -0.137971 -0.062035 0.311876
v -0.137971 -0.121688 -0.293781
v 0.137971 -0.062035 0.311876
v 0.137971 -0.121688 -0.293781
v -0.137971 0.000001 0.317986
v -0.137971 -0.176663 -0.264396
v 0.137971 -0.176663 -0.264396
v -0.137971 0.062037 0.311876
v -0.137971 -0.224850 -0.224850
v 0.137971 0.000001 0.317986
v 0.137971 0.062037 0.311876
v 0.137971 -0.224850 -0.224850
v -0.137971 0.121688 0.293781
v -0.137971 -0.264395 -0.176663
v 0.137971 0.121688 0.293781
v 0.137971 -0.264395 -0.176663
v -0.137971 0.176664 0.264395
v -0.137971 -0.293781 -0.121688
v -0.137971 0.311876 -0.062036
v 0.137971 0.176664 0.264395
v 0.137971 -0.293781 -0.121688
v 0.137971 0.317986 0.000000
v 0.137971 0.311876 -0.062036
v -0.137971 0.224850 0.224850
v -0.137971 -0.311876 -0.062036
v -0.137971 0.293781 -0.121688
v 0.137971 0.224850 0.224850
v 0.137971 -0.311876 -0.062036
v 0.137971 0.293781 -0.121688
v -0.137971 0.264396 0.176663
v -0.137971 -0.317986 -0.000000
v -0.137971 0.264396 -0.176664
v 0.137971 0.264396 0.176663
v 0.137971 -0.317986 -0.000000
v 0.137971 0.264396 -0.176663
v -0.137971 0.293781 0.121688
v -0.137971 -0.311876 0.062036
v -0.137971 0.224850 -0.224850
v 0.137971 0.293781 0.121688
v 0.137971 -0.311876 0.062036
v 0.137971 0.224850 -0.224850
v -0.137971 0.311876 0.062036
v -0.137971 -0.293780 0.121688
v -0.137971 0.176664 -0.264396
v 0.137971 0.311876 0.062036
v 0.137971 -0.293780 0.121688
v 0.137971 0.176664 -0.264396
v -0.137971 0.317986 0.000000
v -0.137971 -0.264395 0.176664
v -0.137971 0.121688 -0.293781
v -0.137971 -0.224850 0.224850
v 0.136102 -0.047397 -0.238284
v 0.138837 -0.038600 -0.194054
v 0.138837 -0.075716 -0.182795
v 0.136102 -0.047397 0.238284
v 0.136102 -0.092973 0.224458
v 0.138837 -0.075716 0.182795
v 0.136102 -0.134977 0.202007
v 0.136102 0.000000 -0.242952
v -0.136102 -0.047397 0.238284
v -0.136102 -0.092973 -0.224458
v 0.136102 -0.092973 -0.224458
v -0.136102 -0.000000 0.242952
v -0.136102 -0.134977 -0.202007
v 0.136102 -0.000000 0.242952
v 0.136102 -0.134977 -0.202007
v -0.136102 0.047398 0.238284
v -0.136102 -0.171793 -0.171793
v 0.136102 -0.171793 -0.171793
v -0.136102 0.092974 0.224458
v -0.136102 -0.202007 -0.134977
v 0.136102 0.047398 0.238284
v 0.136102 0.092974 0.224458
v 0.136102 -0.202007 -0.134977
v -0.136102 0.134977 0.202007
v -0.136102 -0.224458 -0.092974
v -0.136102 0.238284 -0.047398
v -0.136102 0.242952 0.000000
v 0.136102 0.134977 0.202007
v 0.136102 -0.224458 -0.092974
v 0.136102 0.242952 0.000000
v -0.136102 0.171793 0.171793
v -0.136102 -0.238283 -0.047398
v -0.136102 0.224459 -0.092974
v 0.136102 0.171793 0.171793
v 0.136102 -0.238283 -0.047397
v 0.136102 0.238284 -0.047398
v 0.136102 0.224459 -0.092974
v -0.136102 0.202008 0.134977
v -0.136102 -0.242952 -0.000000
v -0.136102 0.202007 -0.134977
v 0.136102 -0.242952 -0.000000
v 0.136102 0.202007 -0.134977
v -0.136102 0.224459 0.092973
v -0.136102 -0.238283 0.047398
v -0.136102 0.171793 -0.171793
v 0.136102 0.202008 0.134977
v -0.136102 0.238284 0.047397
v -0.136102 -0.224458 0.092974
v -0.136102 0.134977 -0.202007
v 0.136102 0.224459 0.092973
v 0.136102 0.238284 0.047397
v 0.136102 -0.238283 0.047398
v 0.136102 0.171793 -0.171793
v 0.136102 0.134977 -0.202007
v -0.136102 -0.202007 0.134977
v -0.136102 0.092974 -0.224458
v 0.136102 -0.224458 0.092974
v 0.136102 -0.202007 0.134977
v 0.136102 0.092974 -0.224458
v -0.136102 -0.171793 0.171793
v -0.136102 0.047398 -0.238284
v -0.136102 0.000000 -0.242952
v 0.136102 -0.171793 0.171793
v 0.136102 0.047398 -0.238284
v 0.138837 -0.182795 0.075716
v 0.138837 0.182795 -0.075716
v -0.138837 -0.194054 -0.038600
v -0.138837 0.109923 0.164511
v -0.138837 0.194055 0.038600
v -0.138837 -0.000000 0.197856
v -0.138837 -0.038599 0.194054
v -0.138837 -0.109923 -0.164511
v 0.138837 -0.038599 0.194054
v 0.138837 -0.000000 0.197856
v 0.138837 -0.109923 -0.164511
v -0.138837 0.038600 0.194054
v -0.138837 -0.139905 -0.139905
v 0.138837 -0.139905 -0.139905
v -0.138837 0.075717 0.182795
v -0.138837 -0.164511 -0.109923
v 0.138837 0.038600 0.194054
v 0.138837 0.075717 0.182795
v 0.138837 -0.164511 -0.109923
v -0.138837 -0.182795 -0.075716
v -0.138837 0.194055 -0.038600
v -0.138837 0.197856 0.000000
v 0.138837 0.109923 0.164511
v 0.138837 -0.182795 -0.075716
v 0.138837 0.197856 0.000000
v -0.138837 0.139906 0.139905
v -0.138837 0.182795 -0.075716
v 0.138837 0.139906 0.139905
v 0.138837 -0.194054 -0.038600
v 0.138837 0.194055 -0.038600
v -0.138837 0.164512 0.109923
v -0.138837 -0.197856 -0.000000
v -0.138837 0.164512 -0.109923
v 0.138837 -0.197856 -0.000000
v 0.138837 0.164512 -0.109923
v -0.138837 0.182796 0.075716
v -0.138837 -0.194054 0.038600
v -0.138837 0.139906 -0.139905
v 0.138837 0.164512 0.109923
v 0.138837 0.182796 0.075716
v 0.138837 0.139906 -0.139905
v -0.138837 -0.182795 0.075716
v -0.138837 0.109923 -0.164511
v 0.138837 -0.194054 0.038600
v 0.138837 0.109923 -0.164511
v -0.138837 -0.164511 0.109923
v -0.138837 0.075717 -0.182795
v 0.138837 0.194055 0.038600
v 0.138837 -0.164511 0.109923
v 0.138837 0.075717 -0.182795
v -0.138837 -0.139905 0.139906
v -0.138837 0.038600 -0.194054
v 0.138837 -0.139905 0.139906
v 0.138837 0.038600 -0.194054
v -0.138837 -0.109923 0.164511
v -0.138837 0.000000 -0.197856
v -0.138837 -0.075716 0.182795
v -0.138837 -0.038600 -0.194054
v 0.138837 -0.109923 0.164511
v 0.138837 0.000000 -0.197856
v -0.138837 -0.075716 -0.182795
vt 0.274063 0.753835
vt 0.274063 0.997756
vt 0.194347 0.997756
vt 0.832082 0.997756
vt 0.752366 0.997756
vt 0.752366 0.753835
vt 0.672650 0.997756
vt 0.592933 0.997756
vt 0.592933 0.753835
vt 0.513217 0.997756
vt 0.433501 0.997756
vt 0.433501 0.753835
vt 0.353785 0.997756
vt 0.353785 0.753835
vt 0.274063 0.997756
vt 0.274063 0.753835
vt 0.194347 0.997756
vt 0.194352 0.753835
vt 0.832082 0.997756
vt 0.752366 0.997756
vt 0.752366 0.753835
vt 0.672636 0.997756
vt 0.592933 0.997756
vt 0.592933 0.753835
vt 0.513217 0.997756
vt 0.513202 0.753835
vt 0.433501 0.997756
vt 0.433501 0.753835
vt 0.353785 0.997756
vt 0.274063 0.997756
vt 0.274063 0.753835
vt 0.194347 0.997756
vt 0.194352 0.753835
vt 0.832082 0.997756
vt 0.752366 0.997756
vt 0.752366 0.753835
vt 0.672650 0.997756
vt 0.672650 0.753835
vt 0.592933 0.997756
vt 0.513217 0.997756
vt 0.513202 0.753835
vt 0.433501 0.997756
vt 0.433501 0.753835
vt 0.353785 0.997756
vt 0.353785 0.753835
vt 0.274063 0.997756
vt 0.274063 0.753835
vt 0.194347 0.997756
vt 0.832077 0.753834
vt 0.832082 0.997756
vt 0.752366 0.997756
vt 0.752366 0.753835
vt 0.672636 0.997756
vt 0.592933 0.997756
vt 0.592933 0.753835
vt 0.513217 0.997756
vt 0.513202 0.753835
vt 0.433501 0.997756
vt 0.433501 0.753835
vt 0.140103 0.210340
vt 0.181435 0.229401
vt 0.154600 0.286021
vt 0.353785 0.997756
vt 0.353785 0.753835
vt 0.615407 0.037617
vt 0.601991 0.076873
vt 0.532862 0.064957
vt 0.154303 0.467726
vt 0.140626 0.407515
vt 0.173500 0.404682
vt 0.775718 0.177942
vt 0.750109 0.196300
vt 0.704813 0.156825
vt 0.886850 0.480116
vt 0.856203 0.544405
vt 0.814700 0.525113
vt 0.379031 0.715529
vt 0.392699 0.676438
vt 0.461665 0.688713
vt 0.457696 0.729297
vt 0.462219 0.688628
vt 0.532566 0.688758
vt 0.902672 0.411940
vt 0.855792 0.408012
vt 0.855847 0.346396
vt 0.109494 0.274314
vt 0.154336 0.286016
vt 0.140634 0.346179
vt 0.689098 0.064042
vt 0.667166 0.100301
vt 0.601991 0.076873
vt 0.689099 0.064108
vt 0.667166 0.100301
vt 0.109827 0.274345
vt 0.140909 0.346097
vt 0.536651 0.729750
vt 0.456991 0.729422
vt 0.379762 0.715657
vt 0.393268 0.676550
vt 0.139834 0.210230
vt 0.181210 0.229330
vt 0.615367 0.037585
vt 0.532862 0.064957
vt 0.755466 0.102659
vt 0.725810 0.134465
vt 0.094403 0.342241
vt 0.140873 0.407338
vt 0.614904 0.716470
vt 0.532108 0.688983
vt 0.306384 0.689052
vt 0.328350 0.652995
vt 0.183907 0.152514
vt 0.220235 0.178288
vt 0.537173 0.024207
vt 0.462403 0.065100
vt 0.811938 0.151793
vt 0.109819 0.479317
vt 0.094403 0.411442
vt 0.601299 0.677232
vt 0.666559 0.653900
vt 0.240353 0.650508
vt 0.269939 0.618871
vt 0.240040 0.103381
vt 0.269925 0.134849
vt 0.457536 0.024403
vt 0.393386 0.077202
vt 0.811730 0.602195
vt 0.775383 0.576206
vt 0.856328 0.209622
vt 0.814939 0.229099
vt 0.154489 0.467411
vt 0.181234 0.524030
vt 0.887116 0.273897
vt 0.902704 0.342253
vt 0.688712 0.690084
vt 0.725359 0.619872
vt 0.184169 0.601490
vt 0.220264 0.575480
vt 0.306095 0.064720
vt 0.328384 0.100682
vt 0.379521 0.038144
vt 0.328434 0.100803
vt 0.886913 0.273919
vt 0.841948 0.285965
vt 0.140064 0.543285
vt 0.220095 0.575040
vt 0.755187 0.651226
vt 0.725383 0.619568
vt 0.811822 0.602479
vt 0.755212 0.651594
vt 0.139977 0.543829
vt 0.181211 0.524453
vt 0.842115 0.285953
vt 0.815080 0.229058
vt 0.379550 0.038026
vt 0.393380 0.077108
vt 0.306122 0.064876
vt 0.270031 0.134977
vt 0.902501 0.342201
vt 0.855697 0.346347
vt 0.183990 0.600915
vt 0.269600 0.618494
vt 0.688857 0.689649
vt 0.666724 0.653564
vt 0.856336 0.544629
vt 0.775417 0.576454
vt 0.109524 0.479710
vt 0.856489 0.209555
vt 0.775821 0.177889
vt 0.457595 0.024335
vt 0.462423 0.065040
vt 0.240143 0.103553
vt 0.220403 0.178400
vt 0.902482 0.411831
vt 0.855650 0.407913
vt 0.305774 0.688710
vt 0.239932 0.650014
vt 0.615261 0.716051
vt 0.601617 0.676924
vt 0.887017 0.480283
vt 0.814784 0.525317
vt 0.094034 0.411649
vt 0.755515 0.102574
vt 0.812044 0.151707
vt 0.537235 0.024192
vt 0.184095 0.152672
vt 0.841806 0.468281
vt 0.327872 0.652732
vt 0.537210 0.729435
vt 0.841927 0.468435
vt 0.094034 0.342315
vt 0.725870 0.134412
vt 0.186116 0.294339
vt 0.210507 0.242914
vt 0.252283 0.262306
vt 0.651035 0.628345
vt 0.628707 0.591773
vt 0.674292 0.565374
vt 0.591810 0.649543
vt 0.245918 0.196603
vt 0.785700 0.242744
vt 0.173467 0.348982
vt 0.749848 0.557841
vt 0.785492 0.511429
vt 0.822760 0.349209
vt 0.810208 0.294364
vt 0.185904 0.294346
vt 0.704428 0.597169
vt 0.704393 0.597446
vt 0.173669 0.348908
vt 0.810382 0.294345
vt 0.785832 0.242724
vt 0.822684 0.349173
vt 0.210316 0.242869
vt 0.651206 0.628080
vt 0.749813 0.558032
vt 0.173629 0.404539
vt 0.750211 0.196275
vt 0.822640 0.405052
vt 0.245766 0.196521
vt 0.592099 0.649312
vt 0.785533 0.511617
vt 0.810079 0.459842
vt 0.290899 0.157084
vt 0.529397 0.660076
vt 0.810162 0.459992
vt 0.185995 0.459111
vt 0.210297 0.510544
vt 0.704883 0.156799
vt 0.651606 0.125815
vt 0.343994 0.126071
vt 0.465510 0.659970
vt 0.822740 0.405151
vt 0.245608 0.556876
vt 0.592441 0.104515
vt 0.403018 0.104680
vt 0.402886 0.649009
vt 0.290589 0.596337
vt 0.529674 0.093705
vt 0.465710 0.093740
vt 0.343920 0.627620
vt 0.465724 0.093792
vt 0.529674 0.093705
vt 0.290873 0.596629
vt 0.343536 0.627412
vt 0.402438 0.648884
vt 0.403018 0.104680
vt 0.592421 0.104515
vt 0.245784 0.557229
vt 0.344060 0.126165
vt 0.651565 0.125834
vt 0.210323 0.510894
vt 0.465046 0.660060
vt 0.529009 0.660240
vt 0.291007 0.157180
vt 0.185847 0.459366
vt 0.231239 0.306271
vt 0.252127 0.262277
vt 0.296636 0.283246
vt 0.764760 0.306444
vt 0.775402 0.353273
vt 0.725028 0.357361
vt 0.775567 0.353214
vt 0.743837 0.262334
vt 0.220571 0.352975
vt 0.674461 0.565207
vt 0.231409 0.306260
vt 0.220747 0.352909
vt 0.763846 0.306527
vt 0.743936 0.262342
vt 0.628900 0.591595
vt 0.713096 0.531704
vt 0.743615 0.492055
vt 0.220696 0.400470
vt 0.713540 0.222642
vt 0.775351 0.401013
vt 0.282446 0.222673
vt 0.578364 0.609732
vt 0.764669 0.447958
vt 0.764606 0.447818
vt 0.321037 0.188980
vt 0.524767 0.618926
vt 0.231256 0.447129
vt 0.252024 0.491106
vt 0.674833 0.188893
vt 0.629326 0.162397
vt 0.743582 0.491877
vt 0.366429 0.162492
vt 0.470158 0.618831
vt 0.775449 0.401101
vt 0.282208 0.530722
vt 0.416884 0.144232
vt 0.416626 0.609457
vt 0.578783 0.144170
vt 0.525152 0.134905
vt 0.470466 0.134905
vt 0.366221 0.591166
vt 0.320663 0.564464
vt 0.470466 0.134905
vt 0.525119 0.134879
vt 0.320879 0.564665
vt 0.365929 0.591046
vt 0.416297 0.609467
vt 0.416884 0.144232
vt 0.578742 0.144161
vt 0.282414 0.530995
vt 0.366502 0.162563
vt 0.629326 0.162397
vt 0.252118 0.491396
vt 0.469846 0.618801
vt 0.524454 0.619012
vt 0.321140 0.189050
vt 0.674833 0.188893
vt 0.231291 0.447316
vt 0.713540 0.222642
vt 0.220515 0.400620
vt 0.578108 0.609883
vt 0.282577 0.222729
vt 0.713092 0.531456
vt 0.271020 0.396411
vt 0.268797 0.396125
vt 0.291885 0.430931
vt 0.699144 0.470963
vt 0.687406 0.465995
vt 0.703688 0.431994
vt 0.605393 0.552531
vt 0.642619 0.530876
vt 0.674216 0.503432
vt 0.271018 0.357468
vt 0.699243 0.282981
vt 0.674293 0.250506
vt 0.725035 0.396428
vt 0.321418 0.250805
vt 0.564052 0.567426
vt 0.642580 0.222910
vt 0.716293 0.434741
vt 0.352980 0.223198
vt 0.520187 0.574999
vt 0.716316 0.434866
vt 0.725047 0.396539
vt 0.279713 0.434607
vt 0.296764 0.470598
vt 0.605314 0.201252
vt 0.699141 0.470815
vt 0.390115 0.201487
vt 0.475481 0.574967
vt 0.321522 0.503010
vt 0.431400 0.186509
vt 0.431644 0.567336
vt 0.563932 0.186364
vt 0.475251 0.178841
vt 0.390350 0.552404
vt 0.353048 0.530603
vt 0.390141 0.552320
vt 0.520030 0.178811
vt 0.475251 0.178841
vt 0.519985 0.178786
vt 0.353165 0.530749
vt 0.431392 0.567317
vt 0.431456 0.186555
vt 0.563884 0.186350
vt 0.321423 0.503221
vt 0.390188 0.201540
vt 0.605256 0.201245
vt 0.296958 0.470604
vt 0.475222 0.574971
vt 0.519941 0.575061
vt 0.353072 0.223250
vt 0.642507 0.222905
vt 0.279754 0.434685
vt 0.674199 0.250496
vt 0.270939 0.396493
vt 0.563840 0.567533
vt 0.321528 0.250845
vt 0.296759 0.283265
vt 0.699108 0.282959
vt 0.270899 0.357515
vt 0.674251 0.503268
vt 0.605226 0.552664
vt 0.724934 0.357494
vt 0.716274 0.319044
vt 0.279579 0.319277
vt 0.642499 0.531019
vt 0.279707 0.319266
vt 0.716561 0.319094
vt 0.361563 0.231607
vt 0.396650 0.211208
vt 0.434390 0.273240
vt 0.703695 0.431875
vt 0.687444 0.465871
vt 0.616426 0.432548
vt 0.664555 0.258076
vt 0.634734 0.231978
vt 0.712024 0.395763
vt 0.331718 0.257581
vt 0.518422 0.563811
vt 0.712045 0.395871
vt 0.307886 0.464926
vt 0.599653 0.211468
vt 0.476249 0.563699
vt 0.712155 0.359017
vt 0.331171 0.495555
vt 0.560670 0.197332
vt 0.435633 0.197170
vt 0.434912 0.556414
vt 0.360854 0.521643
vt 0.519288 0.190109
vt 0.477017 0.190034
vt 0.395993 0.542241
vt 0.395801 0.542187
vt 0.477097 0.190070
vt 0.519210 0.190080
vt 0.360985 0.521720
vt 0.434678 0.556396
vt 0.435633 0.197170
vt 0.560670 0.197332
vt 0.331255 0.495639
vt 0.396744 0.211255
vt 0.599569 0.211449
vt 0.307941 0.464984
vt 0.475999 0.563717
vt 0.518182 0.563865
vt 0.361666 0.231654
vt 0.634641 0.231956
vt 0.291885 0.430931
vt 0.559600 0.556827
vt 0.331827 0.257622
vt 0.664453 0.258045
vt 0.283731 0.394905
vt 0.598660 0.542869
vt 0.308366 0.288159
vt 0.687858 0.288709
vt 0.283794 0.358137
vt 0.663902 0.496439
vt 0.633854 0.522520
vt 0.292179 0.322093
vt 0.704043 0.322841
vt 0.704043 0.322841
vt 0.292179 0.322093
vt 0.633984 0.522403
vt 0.663822 0.496563
vt 0.283878 0.358123
vt 0.687967 0.288761
vt 0.712111 0.358921
vt 0.308256 0.288132
vt 0.598836 0.542763
vt 0.559813 0.556743
vt 0.537040 0.264550
vt 0.535690 0.268940
vt 0.510817 0.264558
vt 0.393569 0.451195
vt 0.397478 0.448202
vt 0.415308 0.463917
vt 0.484389 0.493781
vt 0.510760 0.493848
vt 0.631783 0.388729
vt 0.631838 0.365679
vt 0.378990 0.432034
vt 0.561425 0.273394
vt 0.458772 0.264456
vt 0.458533 0.489226
vt 0.412144 0.467510
vt 0.511151 0.260031
vt 0.484660 0.259991
vt 0.434184 0.480357
vt 0.484756 0.260010
vt 0.511151 0.260031
vt 0.412275 0.467514
vt 0.434006 0.480354
vt 0.458772 0.264456
vt 0.537040 0.264550
vt 0.393569 0.451195
vt 0.458320 0.489235
vt 0.434489 0.273275
vt 0.561332 0.273385
vt 0.378990 0.432034
vt 0.484164 0.493807
vt 0.510549 0.493883
vt 0.412547 0.286046
vt 0.583279 0.286213
vt 0.368965 0.410745
vt 0.393885 0.302303
vt 0.601936 0.302530
vt 0.363846 0.388171
vt 0.536453 0.489451
vt 0.379218 0.321420
vt 0.616589 0.321711
vt 0.363866 0.365166
vt 0.601718 0.451680
vt 0.560886 0.480703
vt 0.626670 0.343017
vt 0.369025 0.342608
vt 0.583013 0.467929
vt 0.583013 0.467929
vt 0.601637 0.451718
vt 0.369025 0.342608
vt 0.363927 0.365208
vt 0.626670 0.343017
vt 0.616654 0.321746
vt 0.631838 0.365679
vt 0.379131 0.321363
vt 0.561041 0.480671
vt 0.616426 0.432548
vt 0.363846 0.388171
vt 0.602016 0.302552
vt 0.631762 0.388677
vt 0.393885 0.302303
vt 0.536642 0.489424
vt 0.626561 0.411324
vt 0.583365 0.286226
vt 0.626561 0.411324
vt 0.412450 0.286004
vt 0.368967 0.410765
vt 0.436525 0.476262
vt 0.415476 0.463872
vt 0.435701 0.442316
vt 0.510817 0.264558
vt 0.507624 0.292235
vt 0.488498 0.292137
vt 0.485305 0.264480
vt 0.459915 0.484829
vt 0.436293 0.476292
vt 0.485446 0.264497
vt 0.459625 0.484857
vt 0.460556 0.268759
vt 0.535690 0.268940
vt 0.397582 0.448136
vt 0.484444 0.489306
vt 0.437105 0.277176
vt 0.558989 0.277484
vt 0.383547 0.429666
vt 0.415989 0.289424
vt 0.580064 0.289850
vt 0.373897 0.409198
vt 0.509780 0.489450
vt 0.534684 0.485114
vt 0.398024 0.305027
vt 0.597973 0.305566
vt 0.369003 0.387480
vt 0.558228 0.476749
vt 0.383893 0.323388
vt 0.612028 0.324026
vt 0.369046 0.365378
vt 0.597553 0.448965
vt 0.579417 0.464535
vt 0.374137 0.343798
vt 0.626698 0.366326
vt 0.621702 0.344589
vt 0.621702 0.344589
vt 0.374029 0.343694
vt 0.579544 0.464557
vt 0.597553 0.448965
vt 0.369129 0.365471
vt 0.612028 0.324026
vt 0.626578 0.366267
vt 0.383785 0.323286
vt 0.558423 0.476770
vt 0.611665 0.430582
vt 0.369051 0.387582
vt 0.598058 0.305567
vt 0.626515 0.388424
vt 0.397898 0.304954
vt 0.534961 0.485152
vt 0.621489 0.410153
vt 0.373902 0.409279
vt 0.580170 0.289845
vt 0.621489 0.410153
vt 0.415989 0.289424
vt 0.510077 0.489358
vt 0.626515 0.388424
vt 0.383547 0.429666
vt 0.558989 0.277484
vt 0.611718 0.430585
vt 0.436962 0.277132
vt 0.484754 0.489246
vt 0.460413 0.268729
vt 0.469903 0.295320
vt 0.472457 0.302277
vt 0.456286 0.308013
vt 0.487515 0.461663
vt 0.468834 0.458204
vt 0.471197 0.451287
vt 0.451274 0.451762
vt 0.488668 0.292143
vt 0.526372 0.295588
vt 0.422195 0.430404
vt 0.452213 0.301629
vt 0.544017 0.302067
vt 0.411691 0.416408
vt 0.506706 0.461758
vt 0.436279 0.310831
vt 0.559883 0.311424
vt 0.404344 0.400983
vt 0.422715 0.322571
vt 0.573358 0.323299
vt 0.400753 0.384601
vt 0.525489 0.458511
vt 0.543183 0.452242
vt 0.412039 0.336393
vt 0.583924 0.337237
vt 0.400744 0.367957
vt 0.572869 0.431447
vt 0.583554 0.417573
vt 0.559150 0.443063
vt 0.404660 0.351768
vt 0.594913 0.369010
vt 0.591174 0.352703
vt 0.404479 0.351604
vt 0.559226 0.443110
vt 0.572765 0.431335
vt 0.400860 0.368104
vt 0.591174 0.352703
vt 0.583986 0.337181
vt 0.594829 0.369101
vt 0.411950 0.336277
vt 0.543333 0.452314
vt 0.400767 0.384763
vt 0.573453 0.323251
vt 0.594751 0.385802
vt 0.422572 0.322482
vt 0.525644 0.458637
vt 0.583499 0.417507
vt 0.590944 0.402165
vt 0.436279 0.310831
vt 0.506896 0.461678
vt 0.590944 0.402165
vt 0.594751 0.385802
vt 0.404419 0.401128
vt 0.559883 0.311424
vt 0.544155 0.302035
vt 0.452038 0.301585
vt 0.487840 0.461582
vt 0.411598 0.416597
vt 0.422091 0.430545
vt 0.526523 0.295565
vt 0.469728 0.295295
vt 0.469148 0.458214
vt 0.451544 0.451709
vt 0.435489 0.442420
vt 0.507624 0.292235
vt 0.419061 0.413030
vt 0.576592 0.340733
vt 0.412516 0.353635
vt 0.576478 0.340848
vt 0.582787 0.400184
vt 0.540073 0.308625
vt 0.523957 0.302663
vt 0.419204 0.412787
vt 0.488226 0.454246
vt 0.505709 0.454392
vt 0.441713 0.316394
vt 0.554555 0.317210
vt 0.412458 0.398685
vt 0.429306 0.327098
vt 0.566847 0.328089
vt 0.409014 0.383725
vt 0.522876 0.451546
vt 0.539066 0.445824
vt 0.419534 0.339713
vt 0.409047 0.368501
vt 0.566198 0.426832
vt 0.576003 0.414227
vt 0.553675 0.437455
vt 0.412783 0.353753
vt 0.586465 0.369862
vt 0.583078 0.354996
vt 0.553975 0.437594
vt 0.566198 0.426832
vt 0.409308 0.368681
vt 0.583167 0.354871
vt 0.586394 0.369987
vt 0.419204 0.339545
vt 0.539372 0.445947
vt 0.409245 0.383917
vt 0.566993 0.327984
vt 0.586294 0.385247
vt 0.428992 0.326966
vt 0.523204 0.451639
vt 0.575964 0.414136
vt 0.582787 0.400184
vt 0.554728 0.317116
vt 0.441419 0.316300
vt 0.506158 0.454546
vt 0.412588 0.398824
vt 0.540272 0.308546
vt 0.456003 0.307958
vt 0.488691 0.454376
vt 0.586294 0.385247
vt 0.428563 0.425887
vt 0.524178 0.302603
vt 0.472187 0.302255
vt 0.471618 0.451222
vt 0.440737 0.436788
vt 0.507069 0.299519
vt 0.489351 0.299418
vt 0.455582 0.445193
vt 0.506832 0.299555
vt 0.441202 0.436509
vt 0.455128 0.445359
vt 0.489605 0.299408
vt 0.429039 0.425493
vt 0.194352 0.753835
vt 0.832077 0.753834
vt 0.672650 0.753835
vt 0.513202 0.753835
vt 0.832077 0.753834
vt 0.672636 0.753835
vt 0.353785 0.753835
vt 0.832077 0.753834
vt 0.592933 0.753835
vt 0.194352 0.753835
vt 0.672636 0.753835
vn -0.4932 0.8699 -0.0000
vn 0.4932 0.8699 -0.0000
vn 0.4932 0.8532 -0.1697
vn 0.4932 0.8037 -0.3329
vn -0.4932 0.8037 -0.3329
vn 0.4932 0.7233 -0.4833
vn 0.4932 0.6151 -0.6151
vn -0.4932 0.6151 -0.6151
vn 0.4932 0.4833 -0.7233
vn 0.4932 0.3329 -0.8037
vn -0.4932 0.3329 -0.8037
vn 0.4932 0.1697 -0.8532
vn -0.4932 0.1697 -0.8532
vn 0.4932 -0.0000 -0.8699
vn -0.4932 -0.0000 -0.8699
vn 0.4932 -0.1697 -0.8532
vn -0.4932 -0.1697 -0.8532
vn 0.4932 -0.3329 -0.8037
vn -0.4932 -0.3329 -0.8037
vn 0.4932 -0.4833 -0.7233
vn 0.4932 -0.6151 -0.6151
vn -0.4932 -0.6151 -0.6151
vn 0.4932 -0.7233 -0.4833
vn -0.4932 -0.7233 -0.4833
vn 0.4932 -0.8037 -0.3329
vn -0.4932 -0.8037 -0.3329
vn 0.4932 -0.8532 -0.1697
vn 0.4932 -0.8699 -0.0000
vn -0.4932 -0.8699 -0.0000
vn 0.4932 -0.8532 0.1697
vn -0.4932 -0.8532 0.1697
vn 0.4932 -0.8037 0.3329
vn -0.4932 -0.8037 0.3329
vn 0.4932 -0.7233 0.4833
vn -0.4932 -0.7233 0.4833
vn 0.4932 -0.6151 0.6151
vn 0.4932 -0.4833 0.7233
vn -0.4932 -0.4833 0.7233
vn 0.4932 -0.3329 0.8037
vn -0.4932 -0.3329 0.8037
vn 0.4932 -0.1697 0.8532
vn -0.4932 -0.1697 0.8532
vn 0.4932 0.0000 0.8699
vn -0.4932 0.0000 0.8699
vn 0.4932 0.1697 0.8532
vn -0.4932 0.1697 0.8532
vn 0.4932 0.3329 0.8037
vn -0.4932 0.3329 0.8037
vn 0.4932 0.4833 0.7233
vn 0.4932 0.6151 0.6151
vn -0.4932 0.6151 0.6151
vn 0.4932 0.7233 0.4833
vn -0.4932 0.7233 0.4833
vn 0.4932 0.8037 0.3329
vn -0.4932 0.8037 0.3329
vn 0.9639 -0.2213 -0.1479
vn 0.9639 -0.2459 -0.1018
vn 0.4932 0.8532 0.1697
vn -0.4932 0.8532 0.1697
vn -0.9639 -0.0519 0.2610
vn -0.9639 -0.1018 0.2459
vn -0.9639 -0.1882 -0.1882
vn -0.9639 -0.2213 -0.1479
vn -0.9765 0.1794 0.1198
vn -0.9639 0.1018 0.2459
vn -0.9765 -0.0826 -0.1993
vn -0.9765 -0.0421 -0.2116
vn -0.9639 0.2661 -0.0000
vn 0.9639 -0.1018 0.2459
vn 0.9639 -0.0519 0.2610
vn -0.9639 0.1018 -0.2459
vn -0.9639 0.1479 -0.2213
vn 0.9639 0.2610 0.0519
vn 0.9639 0.2661 -0.0000
vn -0.4932 -0.8532 -0.1697
vn -0.9639 -0.2610 -0.0519
vn -0.9639 -0.2459 -0.1018
vn 0.9639 0.1479 -0.2213
vn 0.9639 0.1018 -0.2459
vn -0.9639 -0.0000 0.2661
vn 0.9639 -0.2610 -0.0519
vn -0.9639 0.0519 -0.2610
vn -0.9639 -0.2661 -0.0000
vn 0.9639 0.0519 -0.2610
vn -0.9639 0.0519 0.2610
vn 0.9639 -0.2661 -0.0000
vn 0.9639 -0.0000 0.2661
vn -0.9639 -0.0000 -0.2661
vn -0.9639 -0.2610 0.0519
vn 0.9639 -0.0000 -0.2661
vn 0.9639 0.0519 0.2610
vn 0.9639 0.1018 0.2459
vn -0.9639 -0.0519 -0.2610
vn -0.9639 -0.2459 0.1018
vn 0.9639 -0.0519 -0.2610
vn -0.4932 0.8532 -0.1697
vn -0.9639 0.2610 -0.0519
vn -0.4932 0.4833 0.7233
vn -0.9639 0.1479 0.2213
vn 0.9639 -0.2610 0.0519
vn 0.9639 -0.2459 0.1018
vn 0.9639 0.1479 0.2213
vn -0.9639 -0.1018 -0.2459
vn -0.9639 -0.2213 0.1479
vn 0.9639 -0.1018 -0.2459
vn -0.9639 0.1882 0.1882
vn 0.9639 -0.2213 0.1479
vn -0.9639 0.2459 -0.1018
vn -0.4932 -0.4833 -0.7233
vn -0.9639 -0.1479 -0.2213
vn 0.9639 0.2610 -0.0519
vn 0.9639 0.2459 -0.1018
vn -0.4932 -0.6151 0.6151
vn -0.9639 -0.1882 0.1882
vn 0.9639 -0.1479 -0.2213
vn -0.9639 0.2213 0.1479
vn 0.9639 -0.1882 0.1882
vn -0.4932 0.7233 -0.4833
vn -0.9639 0.2213 -0.1479
vn 0.9639 0.1882 0.1882
vn 0.9639 0.2213 -0.1479
vn -0.9639 -0.1479 0.2213
vn 0.9639 -0.1882 -0.1882
vn -0.9639 0.2459 0.1018
vn -0.9639 0.1882 -0.1882
vn 0.9639 0.2213 0.1479
vn -0.9639 0.2610 0.0519
vn 0.9639 -0.1479 0.2213
vn -0.4932 0.4833 -0.7233
vn 0.9639 0.2459 0.1018
vn 0.9639 0.1882 -0.1882
vn 0.9765 0.1993 0.0826
vn 0.9765 0.1794 0.1198
vn 0.9701 0.2019 0.1349
vn 0.9765 -0.0826 -0.1993
vn 0.9701 -0.0929 -0.2244
vn 0.9701 -0.1349 -0.2019
vn 0.9765 -0.0421 -0.2116
vn 0.9765 0.1525 0.1525
vn -0.9765 -0.1198 -0.1794
vn -0.9765 0.1993 0.0826
vn -0.9765 -0.2116 0.0421
vn -0.9765 -0.2157 0.0000
vn 0.9765 -0.2157 0.0000
vn -0.9765 -0.1525 -0.1525
vn -0.9765 0.2116 0.0421
vn -0.9765 -0.1993 0.0826
vn 0.9765 -0.1198 -0.1794
vn 0.9765 0.2116 0.0421
vn 0.9765 -0.2116 0.0421
vn 0.9765 -0.1993 0.0826
vn -0.9765 -0.1794 -0.1198
vn -0.9765 0.2157 0.0000
vn -0.9765 -0.1794 0.1198
vn 0.9765 -0.1525 -0.1525
vn 0.9765 0.2157 0.0000
vn 0.9765 -0.1794 0.1198
vn -0.9765 -0.1993 -0.0826
vn -0.9765 0.2116 -0.0421
vn -0.9765 -0.1525 0.1525
vn 0.9765 -0.1794 -0.1198
vn -0.9765 -0.2116 -0.0421
vn -0.9765 0.1993 -0.0826
vn -0.9765 -0.1198 0.1794
vn 0.9765 -0.1993 -0.0826
vn 0.9765 0.2116 -0.0421
vn 0.9765 0.1993 -0.0826
vn 0.9765 -0.1525 0.1525
vn 0.9765 -0.1198 0.1794
vn -0.9765 0.1794 -0.1198
vn -0.9765 -0.0826 0.1993
vn 0.9765 -0.2116 -0.0421
vn 0.9765 0.1794 -0.1198
vn 0.9765 -0.0826 0.1993
vn -0.9765 0.1525 -0.1525
vn -0.9765 -0.0421 0.2116
vn 0.9765 0.1525 -0.1525
vn 0.9765 -0.0421 0.2116
vn -0.9765 0.1198 -0.1794
vn -0.9765 -0.0000 0.2157
vn 0.9765 0.0000 0.2157
vn -0.9765 0.0826 -0.1993
vn -0.9765 0.0421 0.2116
vn 0.9765 0.1198 -0.1794
vn 0.9765 0.0826 -0.1993
vn 0.9765 0.0421 0.2116
vn -0.9765 0.0421 -0.2116
vn -0.9765 0.0826 0.1993
vn 0.9765 0.0826 0.1993
vn -0.9765 -0.0000 -0.2157
vn -0.9765 0.1198 0.1794
vn 0.9765 0.0421 -0.2116
vn 0.9765 -0.0000 -0.2157
vn 0.9765 0.1198 0.1794
vn -0.9765 0.1525 0.1525
vn -0.9701 0.2382 0.0474
vn -0.9701 0.2429 0.0000
vn -0.7298 0.6836 0.0000
vn -0.9701 -0.1717 -0.1717
vn -0.9701 -0.2019 -0.1349
vn -0.7298 -0.5684 -0.3798
vn 0.9701 -0.2429 0.0000
vn -0.9701 -0.1349 -0.2019
vn -0.9701 0.2244 0.0929
vn -0.9701 -0.2244 0.0929
vn 0.9701 0.2244 0.0929
vn 0.9701 0.2382 0.0474
vn 0.9701 -0.2382 0.0474
vn 0.9701 -0.2244 0.0929
vn -0.9701 -0.2019 0.1349
vn 0.9701 -0.1717 -0.1717
vn 0.9701 -0.2019 -0.1349
vn 0.9701 0.2429 0.0000
vn 0.9701 -0.2019 0.1349
vn -0.9701 -0.2244 -0.0929
vn -0.9701 0.2382 -0.0474
vn -0.9701 -0.1717 0.1717
vn 0.9701 -0.2244 -0.0929
vn -0.9701 -0.2382 -0.0474
vn -0.9701 0.2244 -0.0929
vn -0.9701 -0.1349 0.2019
vn 0.9701 0.2382 -0.0474
vn 0.9701 0.2244 -0.0929
vn 0.9701 -0.1717 0.1717
vn 0.9701 -0.1349 0.2019
vn -0.9701 -0.2429 0.0000
vn -0.9701 0.2019 -0.1349
vn -0.9701 -0.0929 0.2244
vn 0.9701 -0.2382 -0.0474
vn 0.9701 0.2019 -0.1349
vn -0.9701 0.1717 -0.1717
vn -0.9701 -0.0474 0.2382
vn 0.9701 -0.0929 0.2244
vn 0.9701 -0.0474 0.2382
vn -0.9701 0.1349 -0.2019
vn -0.9701 0.0000 0.2429
vn 0.9701 0.1717 -0.1717
vn 0.9701 0.0000 0.2429
vn -0.9701 0.0929 -0.2244
vn -0.9701 0.0474 0.2382
vn 0.9701 0.1349 -0.2019
vn 0.9701 0.0929 -0.2244
vn 0.9701 0.0474 0.2382
vn -0.9701 0.0474 -0.2382
vn -0.9701 0.0929 0.2244
vn 0.9701 0.0929 0.2244
vn -0.9701 -0.0000 -0.2429
vn -0.9701 0.1349 0.2019
vn 0.9701 0.0474 -0.2382
vn 0.9701 -0.0000 -0.2429
vn 0.9701 0.1349 0.2019
vn -0.9701 -0.0474 -0.2382
vn -0.9701 0.1717 0.1717
vn -0.9701 -0.0929 -0.2244
vn -0.9701 0.2019 0.1349
vn 0.9701 -0.0474 -0.2382
vn 0.9701 0.1717 0.1717
vn -0.9701 -0.2382 0.0474
vn 0.7298 0.6836 0.0000
vn 0.6857 0.7279 0.0000
vn 0.6857 0.7139 -0.1420
vn 0.7298 -0.5684 -0.3798
vn 0.6857 -0.6052 -0.4044
vn 0.6857 -0.6725 -0.2785
vn -0.7298 -0.5684 0.3798
vn -0.7298 -0.6316 0.2616
vn 0.7298 -0.4834 -0.4834
vn 0.7298 0.6705 0.1334
vn 0.7298 -0.6316 0.2616
vn 0.7298 -0.5684 0.3798
vn -0.7298 -0.6316 -0.2616
vn -0.7298 0.6705 -0.1334
vn -0.7298 -0.4834 0.4834
vn 0.7298 -0.4834 0.4834
vn -0.7298 -0.6705 -0.1334
vn -0.7298 0.6316 -0.2616
vn -0.7298 -0.3798 0.5684
vn 0.7298 -0.6316 -0.2616
vn 0.7298 -0.6705 -0.1334
vn 0.7298 0.6705 -0.1334
vn 0.7298 0.6316 -0.2616
vn 0.7298 -0.3798 0.5684
vn -0.7298 -0.6836 -0.0000
vn -0.7298 0.5684 -0.3798
vn -0.7298 -0.2616 0.6316
vn 0.7298 0.5684 -0.3798
vn -0.7298 0.4834 -0.4834
vn -0.7298 -0.1334 0.6705
vn 0.7298 -0.2616 0.6316
vn -0.7299 0.3798 -0.5684
vn -0.7298 0.0000 0.6836
vn 0.7298 0.4834 -0.4834
vn 0.7299 0.3798 -0.5684
vn 0.7298 -0.1334 0.6705
vn 0.7298 0.0000 0.6836
vn -0.7298 0.2616 -0.6316
vn -0.7298 0.1334 0.6705
vn 0.7298 0.2616 -0.6316
vn 0.7298 0.1334 0.6705
vn -0.7298 0.1334 -0.6705
vn -0.7298 0.2616 0.6316
vn 0.7298 0.2616 0.6316
vn -0.7298 -0.0000 -0.6836
vn -0.7298 0.3798 0.5684
vn 0.7298 0.1334 -0.6705
vn 0.7298 -0.0000 -0.6836
vn 0.7298 0.3798 0.5684
vn -0.7298 -0.1334 -0.6705
vn -0.7298 0.4834 0.4834
vn -0.7298 -0.2616 -0.6316
vn -0.7298 0.5684 0.3798
vn 0.7298 -0.1334 -0.6705
vn 0.7298 0.4834 0.4834
vn 0.7298 0.5684 0.3798
vn -0.7298 -0.3798 -0.5684
vn -0.7298 0.6316 0.2616
vn -0.7298 -0.6705 0.1334
vn 0.7298 -0.2616 -0.6316
vn 0.7298 -0.6836 0.0000
vn -0.7298 -0.4834 -0.4834
vn -0.7298 0.6705 0.1334
vn 0.7298 -0.3798 -0.5684
vn 0.7298 0.6316 0.2616
vn 0.7298 -0.6705 0.1334
vn -0.6857 0.6725 -0.2786
vn -0.6857 0.6052 -0.4044
vn -0.6857 -0.7139 -0.1420
vn -0.6857 -0.7279 -0.0000
vn 0.6857 -0.6052 0.4044
vn 0.6857 -0.5147 0.5147
vn -0.6857 -0.6725 -0.2785
vn -0.6857 0.7139 -0.1420
vn -0.6857 -0.4044 0.6052
vn 0.6857 -0.7139 -0.1420
vn 0.6857 0.6725 -0.2786
vn 0.6857 -0.4044 0.6052
vn -0.6857 -0.2786 0.6725
vn 0.6857 -0.7279 -0.0000
vn 0.6857 0.6052 -0.4044
vn 0.6857 -0.2786 0.6725
vn -0.6857 0.5147 -0.5147
vn -0.6857 -0.1420 0.7139
vn 0.6857 0.5147 -0.5147
vn 0.6857 -0.1420 0.7139
vn -0.6857 0.4044 -0.6052
vn -0.6857 0.0000 0.7279
vn 0.6857 0.4044 -0.6052
vn 0.6857 0.0000 0.7279
vn -0.6857 0.2785 -0.6725
vn -0.6857 0.1420 0.7139
vn 0.6857 0.2785 -0.6725
vn 0.6857 0.1420 0.7139
vn -0.6857 0.1420 -0.7139
vn -0.6857 0.2785 0.6725
vn 0.6857 0.2786 0.6725
vn -0.6857 -0.0000 -0.7279
vn -0.6857 0.4044 0.6052
vn 0.6857 0.1420 -0.7139
vn 0.6857 -0.0000 -0.7279
vn 0.6857 0.4044 0.6052
vn -0.6857 -0.1420 -0.7139
vn -0.6857 0.5147 0.5147
vn 0.6857 -0.1420 -0.7139
vn 0.6857 0.5147 0.5147
vn -0.6857 -0.2786 -0.6725
vn -0.6857 0.6052 0.4044
vn 0.6857 -0.2786 -0.6725
vn 0.6857 0.6052 0.4044
vn -0.6857 -0.4044 -0.6052
vn -0.6857 0.6725 0.2786
vn -0.6857 -0.7139 0.1420
vn 0.6857 -0.4044 -0.6052
vn 0.6857 0.6725 0.2786
vn 0.6857 -0.7139 0.1420
vn -0.6857 -0.5147 -0.5147
vn -0.6857 0.7139 0.1420
vn -0.6857 -0.6725 0.2786
vn 0.6857 -0.5147 -0.5147
vn 0.6857 0.7139 0.1420
vn 0.6857 -0.6725 0.2785
vn -0.6857 -0.6052 -0.4044
vn -0.6857 0.7279 0.0000
vn -0.6857 -0.6052 0.4044
vn -0.6857 -0.5147 0.5147
vn 0.6942 0.2755 -0.6650
vn 0.6942 0.1404 -0.7060
vn 0.6942 -0.5985 0.3999
vn 0.6942 -0.5090 0.5090
vn 0.7298 0.3798 -0.5684
vn -0.7299 -0.4834 -0.4834
vn -0.7299 0.2616 0.6316
vn -0.7299 -0.6316 -0.2616
vn 0.7299 0.2616 0.6316
vn 0.7299 -0.6316 -0.2616
vn -0.7299 0.5684 -0.3798
vn 0.7299 -0.6705 0.1334
vn -0.6942 0.0000 -0.7198
vn -0.6942 -0.1404 -0.7060
vn -0.9999 -0.0030 -0.0149
vn -0.6942 -0.2755 0.6650
vn -0.9999 -0.0058 0.0140
vn -0.9999 -0.0084 0.0126
vn -0.6942 -0.3999 0.5985
vn -0.6942 0.1404 -0.7060
vn 0.6942 -0.3999 0.5985
vn 0.6942 0.0000 -0.7198
vn 0.6942 -0.2755 0.6650
vn 0.6942 -0.1404 -0.7060
vn -0.6942 -0.1404 0.7060
vn -0.6942 -0.2755 -0.6650
vn 0.6942 -0.1404 0.7060
vn 0.6942 -0.2755 -0.6650
vn -0.6942 0.0000 0.7198
vn -0.6942 -0.3999 -0.5985
vn 0.6942 -0.3999 -0.5985
vn -0.6942 0.1404 0.7060
vn -0.6942 -0.5090 -0.5090
vn 0.6942 -0.0000 0.7198
vn 0.6942 0.1404 0.7060
vn 0.6942 -0.5090 -0.5090
vn -0.6942 0.2755 0.6650
vn -0.6942 -0.5985 -0.3999
vn 0.6942 0.2755 0.6650
vn 0.6942 -0.5985 -0.3999
vn -0.6942 0.3999 0.5985
vn -0.6942 -0.6650 -0.2755
vn -0.6942 0.7060 -0.1404
vn 0.6942 0.3999 0.5985
vn 0.6942 -0.6650 -0.2755
vn 0.6942 0.7198 -0.0000
vn 0.6942 0.7060 -0.1404
vn -0.6942 0.5090 0.5090
vn -0.6942 -0.7060 -0.1404
vn -0.6942 0.6650 -0.2755
vn 0.6942 0.5090 0.5090
vn 0.6942 -0.7060 -0.1404
vn 0.6942 0.6650 -0.2755
vn -0.6942 0.5985 0.3999
vn -0.6942 -0.7198 -0.0000
vn -0.6942 0.5985 -0.3999
vn 0.6942 0.5985 0.3999
vn 0.6942 -0.7198 0.0000
vn 0.6942 0.5985 -0.3999
vn -0.6942 0.6650 0.2755
vn -0.6942 -0.7060 0.1404
vn -0.6942 0.5090 -0.5090
vn 0.6942 0.6650 0.2755
vn 0.6942 -0.7060 0.1404
vn 0.6942 0.5090 -0.5090
vn -0.6942 0.7060 0.1404
vn -0.6942 -0.6650 0.2755
vn -0.6942 0.3999 -0.5985
vn 0.6942 0.7060 0.1404
vn 0.6942 -0.6650 0.2755
vn 0.6942 0.3999 -0.5985
vn -0.6942 0.7198 0.0000
vn -0.6942 -0.5985 0.3999
vn -0.6942 0.2755 -0.6650
vn -0.6942 -0.5090 0.5090
vn 0.9999 -0.0030 -0.0149
vn 0.9995 -0.0063 -0.0316
vn 0.9995 -0.0123 -0.0297
vn 0.9999 -0.0030 0.0149
vn 0.9999 -0.0058 0.0140
vn 0.9995 -0.0123 0.0297
vn 0.9999 -0.0084 0.0126
vn 0.9999 -0.0000 -0.0152
vn -0.9999 -0.0030 0.0149
vn -0.9999 -0.0058 -0.0140
vn 0.9999 -0.0058 -0.0140
vn -0.9999 -0.0000 0.0152
vn -0.9999 -0.0084 -0.0126
vn 0.9999 0.0000 0.0152
vn 0.9999 -0.0084 -0.0126
vn -0.9999 0.0030 0.0149
vn -0.9999 -0.0107 -0.0107
vn 0.9999 -0.0107 -0.0107
vn -0.9999 0.0058 0.0140
vn -0.9999 -0.0126 -0.0084
vn 0.9999 0.0030 0.0149
vn 0.9999 0.0058 0.0140
vn 0.9999 -0.0126 -0.0084
vn -0.9999 0.0084 0.0126
vn -0.9999 -0.0140 -0.0058
vn -0.9999 0.0149 -0.0030
vn -0.9999 0.0152 -0.0000
vn 0.9999 0.0084 0.0126
vn 0.9999 -0.0140 -0.0058
vn 0.9999 0.0152 0.0000
vn -0.9999 0.0107 0.0107
vn -0.9999 -0.0149 -0.0030
vn -0.9999 0.0140 -0.0058
vn 0.9999 0.0107 0.0107
vn 0.9999 -0.0149 -0.0030
vn 0.9999 0.0149 -0.0030
vn 0.9999 0.0140 -0.0058
vn -0.9999 0.0126 0.0084
vn -0.9999 -0.0152 0.0000
vn -0.9999 0.0126 -0.0084
vn 0.9999 -0.0152 -0.0000
vn 0.9999 0.0126 -0.0084
vn -0.9999 0.0140 0.0058
vn -0.9999 -0.0149 0.0030
vn -0.9999 0.0107 -0.0107
vn 0.9999 0.0126 0.0084
vn -0.9999 0.0149 0.0030
vn -0.9999 -0.0140 0.0058
vn -0.9999 0.0084 -0.0126
vn 0.9999 0.0140 0.0058
vn 0.9999 0.0149 0.0030
vn 0.9999 -0.0149 0.0030
vn 0.9999 0.0107 -0.0107
vn 0.9999 0.0084 -0.0126
vn -0.9999 -0.0126 0.0084
vn -0.9999 0.0058 -0.0140
vn 0.9999 -0.0140 0.0058
vn 0.9999 -0.0126 0.0084
vn 0.9999 0.0058 -0.0140
vn -0.9999 -0.0107 0.0107
vn -0.9999 0.0030 -0.0149
vn -0.9999 -0.0000 -0.0152
vn 0.9999 -0.0107 0.0107
vn 0.9999 0.0030 -0.0149
vn 0.9995 -0.0297 0.0123
vn 0.9995 0.0297 -0.0123
vn -0.9995 -0.0316 -0.0063
vn -0.9995 0.0179 0.0268
vn -0.9995 0.0316 0.0063
vn -0.9995 -0.0000 0.0322
vn -0.9995 -0.0063 0.0316
vn -0.9995 -0.0179 -0.0268
vn 0.9995 -0.0063 0.0316
vn 0.9995 0.0000 0.0322
vn 0.9995 -0.0179 -0.0268
vn -0.9995 0.0063 0.0316
vn -0.9995 -0.0227 -0.0227
vn 0.9995 -0.0227 -0.0227
vn -0.9995 0.0123 0.0297
vn -0.9995 -0.0268 -0.0179
vn 0.9995 0.0063 0.0316
vn 0.9995 0.0123 0.0297
vn 0.9995 -0.0268 -0.0179
vn -0.9995 -0.0297 -0.0123
vn -0.9995 0.0316 -0.0063
vn -0.9995 0.0322 -0.0000
vn 0.9995 0.0179 0.0268
vn 0.9995 -0.0297 -0.0123
vn 0.9995 0.0322 0.0000
vn -0.9995 0.0227 0.0228
vn -0.9995 0.0297 -0.0123
vn 0.9995 0.0227 0.0228
vn 0.9995 -0.0316 -0.0063
vn 0.9995 0.0316 -0.0063
vn -0.9995 0.0268 0.0179
vn -0.9995 -0.0322 0.0000
vn -0.9995 0.0268 -0.0179
vn 0.9995 -0.0322 -0.0000
vn 0.9995 0.0268 -0.0179
vn -0.9995 0.0297 0.0123
vn -0.9995 -0.0316 0.0063
vn -0.9995 0.0227 -0.0228
vn 0.9995 0.0268 0.0179
vn 0.9995 0.0297 0.0123
vn 0.9995 0.0227 -0.0228
vn -0.9995 -0.0297 0.0123
vn -0.9995 0.0179 -0.0268
vn 0.9995 -0.0316 0.0063
vn 0.9995 0.0179 -0.0268
vn -0.9995 -0.0268 0.0179
vn -0.9995 0.0123 -0.0297
vn 0.9995 0.0316 0.0063
vn 0.9995 -0.0268 0.0179
vn 0.9995 0.0123 -0.0297
vn -0.9995 -0.0227 0.0227
vn -0.9995 0.0063 -0.0316
vn 0.9995 -0.0227 0.0227
vn 0.9995 0.0063 -0.0316
vn -0.9995 -0.0179 0.0268
vn -0.9995 -0.0000 -0.0322
vn -0.9995 -0.0123 0.0297
vn -0.9995 -0.0063 -0.0316
vn 0.9995 -0.0179 0.0268
vn 0.9995 -0.0000 -0.0322
vn -0.9995 -0.0123 -0.0297
usemtl bluelives.001
s 1
f 1/1/1 2/2/2 3/3/3
f 3/4/3 4/5/4 5/6/5
f 5/6/5 4/5/4 6/7/6
f 6/7/6 7/8/7 8/9/8
f 8/9/8 7/8/7 9/10/9
f 9/10/9 10/11/10 11/12/11
f 10/11/10 12/13/12 13/14/13
f 12/13/12 14/15/14 15/16/15
f 14/15/14 16/17/16 17/18/17
f 16/19/16 18/20/18 19/21/19
f 19/21/19 18/20/18 20/22/20
f 20/22/20 21/23/21 22/24/22
f 21/23/21 23/25/23 24/26/24
f 23/25/23 25/27/25 26/28/26
f 26/28/26 25/27/25 27/29/27
f 27/29/27 28/30/28 29/31/29
f 28/30/28 30/32/30 31/33/31
f 30/34/30 32/35/32 33/36/33
f 32/35/32 34/37/34 35/38/35
f 35/38/35 34/37/34 36/39/36
f 36/39/36 37/40/37 38/41/38
f 37/40/37 39/42/39 40/43/40
f 39/42/39 41/44/41 42/45/42
f 41/44/41 43/46/43 44/47/44
f 44/47/44 43/46/43 45/48/45
f 46/49/46 45/50/45 47/51/47
f 48/52/48 47/51/47 49/53/49
f 49/53/49 50/54/50 51/55/51
f 50/54/50 52/56/52 53/57/53
f 52/56/52 54/58/54 55/59/55
f 23/60/23 56/61/56 57/62/57
f 58/63/58 2/2/2 1/1/1
f 54/58/54 58/63/58 59/64/59
f 42/65/42 60/66/60 61/67/61
f 62/68/62 63/69/63 64/70/64
f 65/71/65 66/72/66 67/73/67
f 59/74/59 1/75/1 68/76/68
f 39/77/39 69/78/69 70/79/70
f 11/80/11 71/81/71 72/82/72
f 58/83/58 73/84/73 74/85/74
f 75/86/75 76/87/76 77/88/77
f 9/89/9 78/90/78 79/91/79
f 44/92/44 80/93/80 60/66/60
f 25/94/25 57/62/57 81/95/81
f 43/96/43 41/97/41 70/79/70
f 11/80/11 13/98/13 82/99/82
f 75/86/75 29/100/29 83/101/83
f 10/102/10 79/91/79 84/103/84
f 46/104/46 85/105/85 80/93/80
f 27/106/27 81/95/81 86/107/86
f 45/108/45 43/96/43 87/109/87
f 13/98/13 15/110/15 88/111/88
f 31/112/31 89/113/89 83/101/83
f 12/114/12 84/103/84 90/115/90
f 48/116/48 65/71/65 85/105/85
f 30/117/30 28/118/28 86/107/86
f 45/108/45 91/119/91 92/120/92
f 15/110/15 17/121/17 93/122/93
f 33/123/33 94/124/94 89/113/89
f 14/125/14 90/115/90 95/126/95
f 96/127/96 97/128/97 68/76/68
f 98/129/98 99/130/99 65/71/65
f 30/117/30 100/131/100 101/132/101
f 3/133/3 2/134/2 74/85/74
f 47/135/47 92/120/92 102/136/102
f 19/137/19 103/138/103 93/122/93
f 35/139/35 104/140/104 94/124/94
f 16/141/16 95/126/95 105/142/105
f 51/143/51 106/144/106 99/130/99
f 32/145/32 101/132/101 107/146/107
f 5/147/5 108/148/108 97/128/97
f 50/149/50 49/150/49 102/136/102
f 19/137/19 109/151/109 110/152/110
f 3/133/3 111/153/111 112/154/112
f 113/155/113 114/156/114 104/140/104
f 18/157/18 105/142/105 115/158/115
f 53/159/53 116/160/116 106/144/106
f 34/161/34 107/146/107 117/162/117
f 118/163/118 119/164/119 108/148/108
f 52/165/52 50/149/50 120/166/120
f 22/167/22 62/68/62 110/152/110
f 4/168/4 112/154/112 121/169/121
f 38/170/38 122/171/122 114/156/114
f 20/172/20 115/158/115 123/173/123
f 55/174/55 124/175/124 116/160/116
f 37/176/37 36/177/36 117/162/117
f 118/163/118 8/178/8 125/179/125
f 54/180/54 52/165/52 126/181/126
f 24/182/24 63/69/63 62/68/62
f 7/183/7 6/184/6 121/169/121
f 40/185/40 61/67/61 122/171/122
f 21/186/21 123/173/123 56/61/56
f 59/74/59 127/187/127 124/175/124
f 39/77/39 37/176/37 128/188/128
f 8/178/8 129/189/129 72/82/72
f 58/83/58 54/180/54 130/190/130
f 24/182/24 26/191/26 77/88/77
f 7/183/7 131/192/131 78/90/78
f 132/193/132 133/194/133 134/195/134
f 135/196/135 136/197/136 137/198/137
f 92/120/92 91/119/91 138/199/138
f 123/173/123 139/200/139 133/194/133
f 99/130/99 140/201/140 66/72/66
f 77/88/77 141/202/141 64/70/64
f 97/128/97 142/203/142 143/204/143
f 102/136/102 92/120/92 135/196/135
f 57/62/57 56/61/56 133/194/133
f 111/153/111 74/85/74 144/205/144
f 106/144/106 145/206/145 140/201/140
f 76/87/76 146/207/146 141/202/141
f 97/128/97 108/148/108 147/208/147
f 120/166/120 102/136/102 148/209/148
f 57/62/57 132/193/132 149/210/149
f 111/153/111 150/211/150 151/212/151
f 106/144/106 116/160/116 152/213/152
f 76/87/76 83/101/83 153/214/153
f 119/164/119 154/215/154 147/208/147
f 126/181/126 120/166/120 155/216/155
f 81/95/81 149/210/149 156/217/156
f 112/154/112 151/212/151 157/218/157
f 124/175/124 158/219/158 152/213/152
f 89/113/89 159/220/159 153/214/153
f 125/179/125 160/221/160 154/215/154
f 130/190/130 126/181/126 161/222/161
f 100/131/100 86/107/86 156/217/156
f 131/192/131 121/169/121 157/218/157
f 127/187/127 162/223/162 158/219/158
f 89/113/89 94/124/94 163/224/163
f 125/179/125 72/82/72 164/225/164
f 73/84/73 130/190/130 165/226/165
f 100/131/100 166/227/166 167/228/167
f 131/192/131 168/229/168 169/230/169
f 68/76/68 143/204/143 162/223/162
f 104/140/104 170/231/170 163/224/163
f 71/81/71 171/232/171 164/225/164
f 73/84/73 172/233/172 144/205/144
f 101/132/101 167/228/167 173/234/173
f 78/90/78 169/230/169 174/235/174
f 114/156/114 175/236/175 170/231/170
f 71/81/71 82/99/82 176/237/176
f 107/146/107 173/234/173 177/238/177
f 79/91/79 174/235/174 178/239/178
f 122/171/122 179/240/179 175/236/175
f 82/99/82 88/111/88 180/241/180
f 128/188/128 117/162/117 177/238/177
f 84/103/84 178/239/178 181/242/181
f 61/67/61 182/243/182 179/240/179
f 88/111/88 93/122/93 183/244/183
f 128/188/128 184/245/184 185/246/185
f 90/115/90 181/242/181 186/247/186
f 60/66/60 187/248/187 182/243/182
f 103/138/103 188/249/188 183/244/183
f 70/79/70 69/78/69 185/246/185
f 95/126/95 186/247/186 189/250/189
f 80/93/80 190/251/190 187/248/187
f 103/138/103 110/152/110 191/252/191
f 70/79/70 192/253/192 193/254/193
f 105/142/105 189/250/189 194/255/194
f 80/93/80 85/105/85 67/73/67
f 110/152/110 62/68/62 195/256/195
f 91/119/91 87/109/87 193/254/193
f 115/158/115 194/255/194 139/200/139
f 196/257/196 197/258/197 198/259/198
f 199/260/199 200/261/200 201/262/201
f 150/211/150 144/205/144 202/263/202
f 145/206/145 199/260/199 203/264/203
f 146/207/146 196/257/196 204/265/204
f 142/203/142 147/208/147 205/266/205
f 155/216/155 148/209/148 137/198/137
f 132/193/132 206/267/206 207/268/207
f 150/211/150 208/269/208 209/270/209
f 145/206/145 152/213/152 200/261/200
f 146/207/146 153/214/153 197/258/197
f 154/215/154 210/271/210 205/266/205
f 155/216/155 211/272/211 212/273/212
f 149/210/149 207/268/207 213/274/213
f 151/212/151 209/270/209 214/275/214
f 158/219/158 215/276/215 200/261/200
f 159/220/159 216/277/216 197/258/197
f 154/215/154 160/221/160 217/278/217
f 161/222/161 212/273/212 218/279/218
f 166/227/166 156/217/156 213/274/213
f 168/229/168 157/218/157 214/275/214
f 162/223/162 219/280/219 215/276/215
f 159/220/159 163/224/163 220/281/220
f 160/221/160 164/225/164 221/282/221
f 172/233/172 165/226/165 218/279/218
f 166/227/166 222/283/222 223/284/223
f 168/229/168 224/285/224 225/286/225
f 162/223/162 143/204/143 226/287/226
f 163/224/163 170/231/170 227/288/227
f 171/232/171 228/289/228 221/282/221
f 144/205/144 172/233/172 229/290/229
f 167/228/167 223/284/223 230/291/230
f 174/235/174 169/230/169 225/286/225
f 175/236/175 231/292/231 227/288/227
f 171/232/171 176/237/176 232/293/232
f 177/238/177 173/234/173 230/291/230
f 174/235/174 233/294/233 234/295/234
f 179/240/179 235/296/235 231/292/231
f 180/241/180 236/297/236 232/293/232
f 184/245/184 177/238/177 237/298/237
f 178/239/178 234/295/234 238/299/238
f 182/243/182 239/300/239 235/296/235
f 180/241/180 183/244/183 240/301/240
f 184/245/184 241/302/241 242/303/242
f 181/242/181 238/299/238 243/304/243
f 187/248/187 244/305/244 239/300/239
f 188/249/188 245/306/245 240/301/240
f 192/253/192 185/246/185 242/303/242
f 186/247/186 243/304/243 246/307/246
f 187/248/187 190/251/190 247/308/247
f 188/249/188 191/252/191 248/309/248
f 192/253/192 249/310/249 250/311/250
f 189/250/189 246/307/246 251/312/251
f 190/251/190 67/73/67 252/313/252
f 195/256/195 253/314/253 248/309/248
f 138/199/138 193/254/193 250/311/250
f 139/200/139 194/255/194 251/312/251
f 66/72/66 254/315/254 252/313/252
f 195/256/195 64/70/64 255/316/255
f 135/196/135 138/199/138 256/317/256
f 139/200/139 257/318/257 134/195/134
f 140/201/140 203/264/203 254/315/254
f 141/202/141 204/265/204 255/316/255
f 142/203/142 258/319/258 226/287/226
f 259/320/259 260/321/260 261/322/261
f 262/323/262 263/324/263 264/325/264
f 210/271/210 265/326/265 266/327/266
f 212/273/212 211/272/211 267/328/267
f 207/268/207 268/329/268 259/320/259
f 209/270/209 269/330/269 270/331/270
f 215/276/215 271/332/271 201/262/201
f 216/277/216 272/333/272 198/259/198
f 210/271/210 217/278/217 273/334/273
f 218/279/218 212/273/212 262/323/262
f 222/283/222 213/274/213 259/320/259
f 214/275/214 270/331/270 274/335/274
f 215/276/215 219/280/219 275/336/275
f 216/277/216 220/281/220 276/337/276
f 217/278/217 221/282/221 277/338/277
f 218/279/218 278/339/278 279/340/279
f 222/283/222 280/341/280 281/342/281
f 224/285/224 274/335/274 282/343/282
f 219/280/219 226/287/226 283/344/283
f 227/288/227 284/345/284 276/337/276
f 228/289/228 285/346/285 277/338/277
f 202/263/202 229/290/229 279/340/279
f 223/284/223 281/342/281 286/347/286
f 233/294/233 225/286/225 282/343/282
f 227/288/227 231/292/231 287/348/287
f 228/289/228 232/293/232 288/349/288
f 237/298/237 230/291/230 286/347/286
f 234/295/234 233/294/233 289/350/289
f 235/296/235 290/351/290 287/348/287
f 232/293/232 236/297/236 291/352/291
f 237/298/237 292/353/292 293/354/293
f 234/295/234 294/355/294 295/356/295
f 235/296/235 239/300/239 296/357/296
f 236/297/236 240/301/240 297/358/297
f 241/302/241 293/354/293 298/359/298
f 238/299/238 295/356/295 299/360/299
f 244/305/244 300/361/300 296/357/296
f 245/306/245 301/362/301 297/358/297
f 249/310/249 242/303/242 298/359/298
f 243/304/243 299/360/299 302/363/302
f 244/305/244 247/308/247 303/364/303
f 245/306/245 248/309/248 304/365/304
f 249/310/249 305/366/305 306/367/306
f 246/307/246 302/363/302 307/368/307
f 252/313/252 308/369/308 303/364/303
f 248/309/248 253/314/253 309/370/309
f 256/317/256 250/311/250 306/367/306
f 257/318/257 251/312/251 307/368/307
f 254/315/254 310/371/310 308/369/308
f 253/314/253 255/316/255 311/372/311
f 136/197/136 256/317/256 312/373/312
f 257/318/257 313/374/313 314/375/314
f 203/264/203 315/376/315 310/371/310
f 204/265/204 316/377/316 311/372/311
f 258/319/258 317/378/317 283/344/283
f 137/198/137 136/197/136 318/379/318
f 206/267/206 134/195/134 314/375/314
f 208/269/208 202/263/202 319/380/319
f 199/260/199 320/381/320 315/376/315
f 196/257/196 321/382/321 316/377/316
f 258/319/258 205/266/205 266/327/266
f 211/272/211 137/198/137 322/383/322
f 206/267/206 323/384/323 268/329/268
f 208/269/208 324/385/324 269/330/269
f 325/386/325 326/387/326 327/388/265
f 328/389/327 329/390/328 330/391/198
f 270/331/270 331/392/329 332/393/330
f 275/336/275 328/389/327 333/394/331
f 276/337/276 325/386/325 334/395/332
f 273/334/273 277/338/277 335/396/333
f 278/339/278 264/325/264 336/397/334
f 280/341/280 261/322/261 337/398/335
f 274/335/274 332/393/330 338/399/336
f 283/344/283 329/390/328 328/389/327
f 284/345/284 326/387/326 325/386/325
f 285/346/285 339/400/337 335/396/333
f 279/340/279 336/397/334 340/401/338
f 281/342/281 337/398/335 341/402/339
f 282/343/282 338/399/336 342/403/340
f 287/348/287 343/404/341 326/387/326
f 288/349/288 344/405/342 339/400/337
f 286/347/286 341/402/339 345/406/343
f 289/350/289 342/403/340 346/407/344
f 290/351/290 347/408/345 343/404/341
f 291/352/291 348/409/346 344/405/342
f 292/353/292 345/406/343 349/410/347
f 294/355/294 346/407/344 350/411/348
f 296/357/296 351/412/349 347/408/345
f 297/358/297 352/413/350 348/409/346
f 293/354/293 349/410/347 353/414/351
f 295/356/295 350/411/348 354/415/352
f 300/361/300 355/416/353 351/412/349
f 301/362/301 356/417/354 352/413/350
f 305/366/305 298/359/298 353/414/351
f 299/360/299 354/415/352 357/418/355
f 303/364/303 358/419/356 355/416/353
f 301/362/301 304/365/304 359/420/357
f 305/366/305 360/421/358 361/422/359
f 302/363/302 357/418/355 362/423/360
f 308/369/308 363/424/361 358/419/356
f 309/370/309 364/425/362 359/420/357
f 306/367/306 361/422/359 365/426/363
f 307/368/307 362/423/360 366/427/364
f 310/371/310 367/428/365 363/424/361
f 309/370/309 311/372/311 368/429/366
f 312/373/312 365/426/363 369/430/367
f 313/374/313 366/427/364 370/431/368
f 315/376/315 371/432/369 367/428/365
f 316/377/316 372/433/370 368/429/366
f 317/378/317 373/434/371 329/390/328
f 318/379/318 369/430/367 374/435/372
f 314/375/314 370/431/368 375/436/373
f 319/380/319 340/401/338 376/437/374
f 315/376/315 320/381/320 377/438/375
f 321/382/321 378/439/376 372/433/370
f 317/378/317 266/327/266 379/440/377
f 322/383/322 374/435/372 380/441/378
f 323/384/323 375/436/373 381/442/379
f 324/385/324 376/437/374 382/443/380
f 201/262/201 383/444/381 377/438/375
f 321/382/321 198/259/198 384/445/382
f 265/326/265 385/446/383 379/440/377
f 267/328/267 380/441/378 263/324/263
f 268/329/268 381/442/379 260/321/260
f 269/330/269 382/443/380 331/392/329
f 271/332/271 333/394/331 383/444/381
f 272/333/272 334/395/332 384/445/382
f 273/334/273 386/447/384 385/446/383
f 387/448/298 388/449/385 389/450/386
f 390/451/270 391/452/387 392/453/388
f 339/400/337 393/454/296 394/455/290
f 336/397/334 395/456/268 396/457/259
f 337/398/335 397/458/269 390/451/270
f 338/399/336 398/459/389 387/448/298
f 343/404/341 399/460/273 327/388/265
f 339/400/337 344/405/342 400/461/300
f 341/402/339 390/451/270 401/462/274
f 342/403/340 387/448/298 402/463/305
f 347/408/345 403/464/277 399/460/273
f 348/409/346 404/465/303 400/461/300
f 349/410/347 345/406/343 401/462/274
f 346/407/344 402/463/305 405/466/306
f 351/412/349 406/467/285 403/464/277
f 348/409/346 352/413/350 407/468/308
f 353/414/351 349/410/347 408/469/282
f 350/411/348 405/466/306 409/470/312
f 355/416/353 410/471/288 406/467/285
f 356/417/354 411/472/310 407/468/308
f 360/421/358 353/414/351 412/473/289
f 354/415/352 409/470/312 413/474/318
f 358/419/356 414/475/291 410/471/288
f 359/420/357 415/476/315 411/472/310
f 360/421/358 416/477/294 417/478/295
f 357/418/355 413/474/318 418/479/322
f 363/424/361 419/480/297 414/475/291
f 364/425/362 420/481/390 415/476/315
f 365/426/363 361/422/359 417/478/295
f 362/423/360 418/479/322 421/482/267
f 367/428/365 422/483/391 419/480/297
f 368/429/366 423/484/201 420/481/390
f 369/430/367 365/426/363 424/485/299
f 366/427/364 421/482/267 425/486/262
f 371/432/369 426/487/304 422/483/391
f 372/433/370 427/488/392 423/484/201
f 373/434/371 428/489/272 330/391/198
f 374/435/372 369/430/367 429/490/393
f 375/436/373 370/431/368 425/486/262
f 376/437/374 340/401/338 396/457/259
f 371/432/369 377/438/375 430/491/309
f 372/433/370 378/439/376 431/492/275
f 373/434/371 379/440/377 432/493/276
f 374/435/372 433/494/307 434/495/313
f 375/436/373 435/496/394 436/497/279
f 376/437/374 437/498/280 438/499/281
f 377/438/375 383/444/381 439/500/311
f 384/445/382 440/501/283 431/492/275
f 385/446/383 441/502/395 432/493/276
f 380/441/378 434/495/313 442/503/314
f 381/442/379 436/497/279 443/504/319
f 382/443/380 438/499/281 444/505/286
f 333/394/331 445/506/316 439/500/311
f 334/395/332 446/507/317 440/501/283
f 386/447/384 447/508/287 441/502/395
f 263/324/263 442/503/314 448/509/323
f 261/322/261 260/321/260 443/504/319
f 331/392/329 444/505/286 449/510/292
f 328/389/327 450/511/321 445/506/316
f 334/395/332 325/386/325 451/512/266
f 386/447/384 335/396/333 394/455/290
f 264/325/264 448/509/323 395/456/268
f 261/322/261 452/513/396 397/458/269
f 332/393/330 449/510/292 398/459/389
f 453/514/397 454/515/398 455/516/399
f 456/517/400 457/518/401 458/519/402
f 399/460/273 403/464/277 459/520/403
f 404/465/303 453/514/397 460/521/404
f 401/462/274 392/453/388 461/522/405
f 402/463/305 389/450/386 462/523/406
f 406/467/285 456/517/400 459/520/403
f 404/465/303 407/468/308 454/515/398
f 408/469/282 461/522/405 463/524/407
f 405/466/306 462/523/406 464/525/408
f 410/471/288 465/526/409 456/517/400
f 411/472/310 466/527/410 454/515/398
f 412/473/289 463/524/407 467/528/411
f 409/470/312 464/525/408 468/529/412
f 414/475/291 469/530/413 465/526/409
f 415/476/315 470/531/414 466/527/410
f 417/478/295 416/477/294 467/528/411
f 413/474/318 468/529/412 471/532/415
f 419/480/297 472/533/416 469/530/413
f 415/476/315 420/481/390 473/534/417
f 417/478/295 474/535/418 475/536/419
f 418/479/322 471/532/415 476/537/420
f 422/483/391 477/538/421 472/533/416
f 423/484/201 478/539/422 473/534/417
f 424/485/299 475/536/419 479/540/423
f 421/482/267 476/537/420 480/541/424
f 426/487/304 481/542/425 477/538/421
f 423/484/201 427/488/392 482/543/426
f 330/391/198 428/489/272 483/544/427
f 429/490/393 479/540/423 484/545/428
f 425/486/262 480/541/424 485/546/429
f 396/457/259 486/547/430 487/548/431
f 430/491/309 488/549/432 481/542/425
f 431/492/275 489/550/433 482/543/426
f 432/493/276 490/551/434 483/544/427
f 433/494/307 484/545/428 491/552/435
f 435/496/394 485/546/429 492/553/436
f 437/498/280 487/548/431 493/554/437
f 439/500/311 494/555/438 488/549/432
f 440/501/283 495/556/439 489/550/433
f 432/493/276 441/502/395 496/557/440
f 434/495/313 491/552/435 497/558/441
f 436/497/279 492/553/436 498/559/442
f 438/499/281 493/554/437 499/560/443
f 445/506/316 500/561/444 494/555/438
f 446/507/317 501/562/445 495/556/439
f 447/508/287 502/563/446 496/557/440
f 442/503/314 497/558/441 503/564/447
f 443/504/319 498/559/442 504/565/448
f 444/505/286 499/560/443 505/566/449
f 450/511/321 506/567/450 500/561/444
f 451/512/266 507/568/451 501/562/445
f 394/455/290 508/569/452 502/563/446
f 448/509/323 503/564/447 509/570/453
f 452/513/396 504/565/448 510/571/454
f 449/510/292 505/566/449 511/572/455
f 330/391/198 512/573/456 506/567/450
f 327/388/265 513/574/457 507/568/451
f 393/454/296 514/575/458 508/569/452
f 395/456/268 509/570/453 486/547/430
f 397/458/269 510/571/454 391/452/387
f 398/459/389 511/572/455 388/449/385
f 399/460/273 515/576/459 513/574/457
f 400/461/300 460/521/404 514/575/458
f 516/577/460 517/578/461 518/579/462
f 519/580/463 520/581/464 521/582/465
f 461/522/405 522/583/466 520/581/464
f 462/523/406 523/584/467 516/577/460
f 465/526/409 524/585/468 457/518/401
f 466/527/410 525/586/469 455/516/399
f 463/524/407 520/581/464 519/580/463
f 464/525/408 516/577/460 526/587/470
f 469/530/413 527/588/471 524/585/468
f 466/527/410 470/531/414 528/589/472
f 467/528/411 519/580/463 529/590/473
f 468/529/412 526/587/470 530/591/474
f 472/533/416 531/592/475 527/588/471
f 470/531/414 473/534/417 532/593/476
f 475/536/419 474/535/418 529/590/473
f 471/532/415 530/591/474 533/594/477
f 477/538/421 534/595/478 531/592/475
f 478/539/422 535/596/479 532/593/476
f 475/536/419 536/597/480 537/598/481
f 476/537/420 533/594/477 538/599/482
f 481/542/425 539/600/483 534/595/478
f 482/543/426 540/601/484 535/596/479
f 483/544/427 541/602/485 542/603/486
f 479/540/423 537/598/481 543/604/487
f 480/541/424 538/599/482 544/605/488
f 487/548/431 486/547/430 545/606/489
f 481/542/425 488/549/432 546/607/490
f 482/543/426 489/550/433 547/608/491
f 483/544/427 490/551/434 548/609/492
f 484/545/428 543/604/487 549/610/493
f 485/546/429 544/605/488 550/611/494
f 487/548/431 551/612/495 552/613/496
f 488/549/432 494/555/438 553/614/497
f 495/556/439 554/615/498 547/608/491
f 490/551/434 496/557/440 555/616/499
f 497/558/441 491/552/435 549/610/493
f 492/553/436 550/611/494 556/617/500
f 493/554/437 552/613/496 557/618/501
f 500/561/444 558/619/502 553/614/497
f 501/562/445 559/620/503 554/615/498
f 502/563/446 560/621/504 555/616/499
f 503/564/447 497/558/441 561/622/505
f 504/565/448 498/559/442 556/617/500
f 505/566/449 499/560/443 557/618/501
f 506/567/450 562/623/506 558/619/502
f 507/568/451 563/624/507 559/620/503
f 502/563/446 508/569/452 564/625/508
f 503/564/447 565/626/509 566/627/510
f 510/571/454 504/565/448 567/628/511
f 505/566/449 568/629/512 569/630/513
f 512/573/456 542/603/486 562/623/506
f 507/568/451 513/574/457 570/631/514
f 514/575/458 571/632/515 564/625/508
f 509/570/453 566/627/510 545/606/489
f 510/571/454 572/633/516 573/634/517
f 511/572/455 569/630/513 574/635/518
f 515/576/459 575/636/519 570/631/514
f 514/575/458 460/521/404 576/637/520
f 392/453/388 391/452/387 573/634/517
f 389/450/386 388/449/385 574/635/518
f 459/520/403 458/519/402 575/636/519
f 460/521/404 453/514/397 577/638/521
f 461/522/405 392/453/388 578/639/522
f 389/450/386 579/640/523 523/584/467
f 580/641/524 518/579/462 581/642/525
f 582/643/526 583/644/527 584/645/528
f 527/588/471 585/646/529 586/647/530
f 525/586/469 528/589/472 587/648/531
f 519/580/463 588/649/532 589/650/533
f 526/587/470 518/579/462 590/651/534
f 531/592/475 591/652/535 585/646/529
f 532/593/476 592/653/536 587/648/531
f 536/597/480 529/590/473 589/650/533
f 530/591/474 590/651/534 593/654/537
f 534/595/478 594/655/538 591/652/535
f 532/593/476 535/596/479 595/656/539
f 536/597/480 596/657/540 597/658/541
f 533/594/477 593/654/537 598/659/542
f 539/600/483 583/644/527 594/655/538
f 540/601/484 599/660/543 595/656/539
f 541/602/485 600/661/544 601/662/545
f 537/598/481 597/658/541 602/663/546
f 538/599/482 598/659/542 603/664/547
f 551/612/495 545/606/489 604/665/548
f 539/600/483 546/607/490 605/666/549
f 540/601/484 547/608/491 582/643/526
f 541/602/485 548/609/492 606/667/550
f 543/604/487 602/663/546 607/668/551
f 544/605/488 603/664/547 608/669/552
f 551/612/495 609/670/553 581/642/525
f 546/607/490 553/614/497 610/671/554
f 547/608/491 554/615/498 611/672/555
f 555/616/499 612/673/556 606/667/550
f 561/622/505 549/610/493 607/668/551
f 550/611/494 608/669/552 613/674/557
f 552/613/496 581/642/525 614/675/558
f 558/619/502 615/676/559 610/671/554
f 559/620/503 616/677/560 611/672/555
f 560/621/504 617/678/561 612/673/556
f 561/622/505 618/679/562 619/680/563
f 567/628/511 556/617/500 613/674/557
f 557/618/501 614/675/558 620/681/564
f 558/619/502 562/623/506 584/645/528
f 559/620/503 563/624/507 621/682/565
f 560/621/504 564/625/508 622/683/566
f 566/627/510 565/626/509 619/680/563
f 567/628/511 623/684/567 580/641/524
f 568/629/512 620/681/564 624/685/568
f 542/603/486 601/662/545 584/645/528
f 563/624/507 570/631/514 625/686/569
f 571/632/515 626/687/570 622/683/566
f 566/627/510 627/688/571 604/665/548
f 572/633/516 580/641/524 628/689/572
f 569/630/513 624/685/568 629/690/573
f 570/631/514 575/636/519 630/691/574
f 571/632/515 576/637/520 631/692/575
f 573/634/517 628/689/572 632/693/576
f 574/635/518 629/690/573 633/694/577
f 458/519/402 634/695/578 630/691/574
f 576/637/520 577/638/521 635/696/579
f 522/583/466 578/639/522 632/693/576
f 523/584/467 579/640/523 633/694/577
f 457/518/401 636/697/580 634/695/578
f 455/516/399 637/698/581 635/696/579
f 522/583/466 638/699/582 521/582/465
f 523/584/467 639/700/583 517/578/461
f 524/585/468 586/647/530 636/697/580
f 525/586/469 640/701/584 637/698/581
f 96/702/96 1/1/1 3/3/3
f 96/703/96 3/4/3 5/6/5
f 118/704/118 5/6/5 6/7/6
f 118/704/118 6/7/6 8/9/8
f 129/705/129 8/9/8 9/10/9
f 129/705/129 9/10/9 11/12/11
f 11/12/11 10/11/10 13/14/13
f 13/14/13 12/13/12 15/16/15
f 15/16/15 14/15/14 17/18/17
f 17/706/17 16/19/16 19/21/19
f 109/707/109 19/21/19 20/22/20
f 109/707/109 20/22/20 22/24/22
f 22/24/22 21/23/21 24/26/24
f 24/26/24 23/25/23 26/28/26
f 75/708/75 26/28/26 27/29/27
f 75/708/75 27/29/27 29/31/29
f 29/31/29 28/30/28 31/33/31
f 31/709/31 30/34/30 33/36/33
f 33/36/33 32/35/32 35/38/35
f 113/710/113 35/38/35 36/39/36
f 113/710/113 36/39/36 38/41/38
f 38/41/38 37/40/37 40/43/40
f 40/43/40 39/42/39 42/45/42
f 42/45/42 41/44/41 44/47/44
f 46/711/46 44/47/44 45/48/45
f 48/52/48 46/49/46 47/51/47
f 98/712/98 48/52/48 49/53/49
f 98/712/98 49/53/49 51/55/51
f 51/55/51 50/54/50 53/57/53
f 53/57/53 52/56/52 55/59/55
f 25/94/25 23/60/23 57/62/57
f 59/64/59 58/63/58 1/1/1
f 55/59/55 54/58/54 59/64/59
f 40/185/40 42/65/42 61/67/61
f 195/256/195 62/68/62 64/70/64
f 85/105/85 65/71/65 67/73/67
f 127/187/127 59/74/59 68/76/68
f 41/97/41 39/77/39 70/79/70
f 129/189/129 11/80/11 72/82/72
f 2/134/2 58/83/58 74/85/74
f 26/191/26 75/86/75 77/88/77
f 10/102/10 9/89/9 79/91/79
f 42/65/42 44/92/44 60/66/60
f 27/106/27 25/94/25 81/95/81
f 87/109/87 43/96/43 70/79/70
f 71/81/71 11/80/11 82/99/82
f 76/87/76 75/86/75 83/101/83
f 12/114/12 10/102/10 84/103/84
f 44/92/44 46/104/46 80/93/80
f 28/118/28 27/106/27 86/107/86
f 91/119/91 45/108/45 87/109/87
f 82/99/82 13/98/13 88/111/88
f 29/100/29 31/112/31 83/101/83
f 14/125/14 12/114/12 90/115/90
f 46/104/46 48/116/48 85/105/85
f 100/131/100 30/117/30 86/107/86
f 47/135/47 45/108/45 92/120/92
f 88/111/88 15/110/15 93/122/93
f 31/112/31 33/123/33 89/113/89
f 16/141/16 14/125/14 95/126/95
f 1/75/1 96/127/96 68/76/68
f 48/116/48 98/129/98 65/71/65
f 32/145/32 30/117/30 101/132/101
f 111/153/111 3/133/3 74/85/74
f 49/150/49 47/135/47 102/136/102
f 17/121/17 19/137/19 93/122/93
f 33/123/33 35/139/35 94/124/94
f 18/157/18 16/141/16 105/142/105
f 98/129/98 51/143/51 99/130/99
f 34/161/34 32/145/32 107/146/107
f 96/127/96 5/147/5 97/128/97
f 120/166/120 50/149/50 102/136/102
f 103/138/103 19/137/19 110/152/110
f 4/168/4 3/133/3 112/154/112
f 35/139/35 113/155/113 104/140/104
f 20/172/20 18/157/18 115/158/115
f 51/143/51 53/159/53 106/144/106
f 36/177/36 34/161/34 117/162/117
f 5/147/5 118/163/118 108/148/108
f 126/181/126 52/165/52 120/166/120
f 109/151/109 22/167/22 110/152/110
f 6/184/6 4/168/4 121/169/121
f 113/155/113 38/170/38 114/156/114
f 21/186/21 20/172/20 123/173/123
f 53/159/53 55/174/55 116/160/116
f 128/188/128 37/176/37 117/162/117
f 119/164/119 118/163/118 125/179/125
f 130/190/130 54/180/54 126/181/126
f 22/167/22 24/182/24 62/68/62
f 131/192/131 7/183/7 121/169/121
f 38/170/38 40/185/40 122/171/122
f 23/60/23 21/186/21 56/61/56
f 55/174/55 59/74/59 124/175/124
f 69/78/69 39/77/39 128/188/128
f 125/179/125 8/178/8 72/82/72
f 73/84/73 58/83/58 130/190/130
f 63/69/63 24/182/24 77/88/77
f 9/89/9 7/183/7 78/90/78
f 206/267/206 132/193/132 134/195/134
f 148/209/148 135/196/135 137/198/137
f 135/196/135 92/120/92 138/199/138
f 56/61/56 123/173/123 133/194/133
f 65/71/65 99/130/99 66/72/66
f 63/69/63 77/88/77 64/70/64
f 68/76/68 97/128/97 143/204/143
f 148/209/148 102/136/102 135/196/135
f 132/193/132 57/62/57 133/194/133
f 150/211/150 111/153/111 144/205/144
f 99/130/99 106/144/106 140/201/140
f 77/88/77 76/87/76 141/202/141
f 142/203/142 97/128/97 147/208/147
f 155/216/155 120/166/120 148/209/148
f 81/95/81 57/62/57 149/210/149
f 112/154/112 111/153/111 151/212/151
f 145/206/145 106/144/106 152/213/152
f 146/207/146 76/87/76 153/214/153
f 108/148/108 119/164/119 147/208/147
f 161/222/161 126/181/126 155/216/155
f 86/107/86 81/95/81 156/217/156
f 121/169/121 112/154/112 157/218/157
f 116/160/116 124/175/124 152/213/152
f 83/101/83 89/113/89 153/214/153
f 119/164/119 125/179/125 154/215/154
f 165/226/165 130/190/130 161/222/161
f 166/227/166 100/131/100 156/217/156
f 168/229/168 131/192/131 157/218/157
f 124/175/124 127/187/127 158/219/158
f 159/220/159 89/113/89 163/224/163
f 160/221/160 125/179/125 164/225/164
f 172/233/172 73/84/73 165/226/165
f 101/132/101 100/131/100 167/228/167
f 78/90/78 131/192/131 169/230/169
f 127/187/127 68/76/68 162/223/162
f 94/124/94 104/140/104 163/224/163
f 72/82/72 71/81/71 164/225/164
f 74/85/74 73/84/73 144/205/144
f 107/146/107 101/132/101 173/234/173
f 79/91/79 78/90/78 174/235/174
f 104/140/104 114/156/114 170/231/170
f 171/232/171 71/81/71 176/237/176
f 117/162/117 107/146/107 177/238/177
f 84/103/84 79/91/79 178/239/178
f 114/156/114 122/171/122 175/236/175
f 176/237/176 82/99/82 180/241/180
f 184/245/184 128/188/128 177/238/177
f 90/115/90 84/103/84 181/242/181
f 122/171/122 61/67/61 179/240/179
f 180/241/180 88/111/88 183/244/183
f 69/78/69 128/188/128 185/246/185
f 95/126/95 90/115/90 186/247/186
f 61/67/61 60/66/60 182/243/182
f 93/122/93 103/138/103 183/244/183
f 192/253/192 70/79/70 185/246/185
f 105/142/105 95/126/95 189/250/189
f 60/66/60 80/93/80 187/248/187
f 188/249/188 103/138/103 191/252/191
f 87/109/87 70/79/70 193/254/193
f 115/158/115 105/142/105 194/255/194
f 190/251/190 80/93/80 67/73/67
f 191/252/191 110/152/110 195/256/195
f 138/199/138 91/119/91 193/254/193
f 123/173/123 115/158/115 139/200/139
f 321/382/321 196/257/196 198/259/198
f 320/381/320 199/260/199 201/262/201
f 208/269/208 150/211/150 202/263/202
f 140/201/140 145/206/145 203/264/203
f 141/202/141 146/207/146 204/265/204
f 258/319/258 142/203/142 205/266/205
f 211/272/211 155/216/155 137/198/137
f 149/210/149 132/193/132 207/268/207
f 151/212/151 150/211/150 209/270/209
f 199/260/199 145/206/145 200/261/200
f 196/257/196 146/207/146 197/258/197
f 147/208/147 154/215/154 205/266/205
f 161/222/161 155/216/155 212/273/212
f 156/217/156 149/210/149 213/274/213
f 157/218/157 151/212/151 214/275/214
f 152/213/152 158/219/158 200/261/200
f 153/214/153 159/220/159 197/258/197
f 210/271/210 154/215/154 217/278/217
f 165/226/165 161/222/161 218/279/218
f 222/283/222 166/227/166 213/274/213
f 224/285/224 168/229/168 214/275/214
f 158/219/158 162/223/162 215/276/215
f 216/277/216 159/220/159 220/281/220
f 217/278/217 160/221/160 221/282/221
f 229/290/229 172/233/172 218/279/218
f 167/228/167 166/227/166 223/284/223
f 169/230/169 168/229/168 225/286/225
f 219/280/219 162/223/162 226/287/226
f 220/281/220 163/224/163 227/288/227
f 164/225/164 171/232/171 221/282/221
f 202/263/202 144/205/144 229/290/229
f 173/234/173 167/228/167 230/291/230
f 233/294/233 174/235/174 225/286/225
f 170/231/170 175/236/175 227/288/227
f 228/289/228 171/232/171 232/293/232
f 237/298/237 177/238/177 230/291/230
f 178/239/178 174/235/174 234/295/234
f 175/236/175 179/240/179 231/292/231
f 176/237/176 180/241/180 232/293/232
f 241/302/241 184/245/184 237/298/237
f 181/242/181 178/239/178 238/299/238
f 179/240/179 182/243/182 235/296/235
f 236/297/236 180/241/180 240/301/240
f 185/246/185 184/245/184 242/303/242
f 186/247/186 181/242/181 243/304/243
f 182/243/182 187/248/187 239/300/239
f 183/244/183 188/249/188 240/301/240
f 249/310/249 192/253/192 242/303/242
f 189/250/189 186/247/186 246/307/246
f 244/305/244 187/248/187 247/308/247
f 245/306/245 188/249/188 248/309/248
f 193/254/193 192/253/192 250/311/250
f 194/255/194 189/250/189 251/312/251
f 247/308/247 190/251/190 252/313/252
f 191/252/191 195/256/195 248/309/248
f 256/317/256 138/199/138 250/311/250
f 257/318/257 139/200/139 251/312/251
f 67/73/67 66/72/66 252/313/252
f 253/314/253 195/256/195 255/316/255
f 136/197/136 135/196/135 256/317/256
f 133/194/133 139/200/139 134/195/134
f 66/72/66 140/201/140 254/315/254
f 64/70/64 141/202/141 255/316/255
f 143/204/143 142/203/142 226/287/226
f 280/341/280 259/320/259 261/322/261
f 278/339/278 262/323/262 264/325/264
f 205/266/205 210/271/210 266/327/266
f 262/323/262 212/273/212 267/328/267
f 213/274/213 207/268/207 259/320/259
f 214/275/214 209/270/209 270/331/270
f 200/261/200 215/276/215 201/262/201
f 197/258/197 216/277/216 198/259/198
f 265/326/265 210/271/210 273/334/273
f 278/339/278 218/279/218 262/323/262
f 280/341/280 222/283/222 259/320/259
f 224/285/224 214/275/214 274/335/274
f 271/332/271 215/276/215 275/336/275
f 272/333/272 216/277/216 276/337/276
f 273/334/273 217/278/217 277/338/277
f 229/290/229 218/279/218 279/340/279
f 223/284/223 222/283/222 281/342/281
f 225/286/225 224/285/224 282/343/282
f 275/336/275 219/280/219 283/344/283
f 220/281/220 227/288/227 276/337/276
f 221/282/221 228/289/228 277/338/277
f 319/380/319 202/263/202 279/340/279
f 230/291/230 223/284/223 286/347/286
f 289/350/289 233/294/233 282/343/282
f 284/345/284 227/288/227 287/348/287
f 285/346/285 228/289/228 288/349/288
f 292/353/292 237/298/237 286/347/286
f 294/355/294 234/295/234 289/350/289
f 231/292/231 235/296/235 287/348/287
f 288/349/288 232/293/232 291/352/291
f 241/302/241 237/298/237 293/354/293
f 238/299/238 234/295/234 295/356/295
f 290/351/290 235/296/235 296/357/296
f 291/352/291 236/297/236 297/358/297
f 242/303/242 241/302/241 298/359/298
f 243/304/243 238/299/238 299/360/299
f 239/300/239 244/305/244 296/357/296
f 240/301/240 245/306/245 297/358/297
f 305/366/305 249/310/249 298/359/298
f 246/307/246 243/304/243 302/363/302
f 300/361/300 244/305/244 303/364/303
f 301/362/301 245/306/245 304/365/304
f 250/311/250 249/310/249 306/367/306
f 251/312/251 246/307/246 307/368/307
f 247/308/247 252/313/252 303/364/303
f 304/365/304 248/309/248 309/370/309
f 312/373/312 256/317/256 306/367/306
f 313/374/313 257/318/257 307/368/307
f 252/313/252 254/315/254 308/369/308
f 309/370/309 253/314/253 311/372/311
f 318/379/318 136/197/136 312/373/312
f 134/195/134 257/318/257 314/375/314
f 254/315/254 203/264/203 310/371/310
f 255/316/255 204/265/204 311/372/311
f 226/287/226 258/319/258 283/344/283
f 322/383/322 137/198/137 318/379/318
f 323/384/323 206/267/206 314/375/314
f 324/385/324 208/269/208 319/380/319
f 203/264/203 199/260/199 315/376/315
f 204/265/204 196/257/196 316/377/316
f 317/378/317 258/319/258 266/327/266
f 267/328/267 211/272/211 322/383/322
f 207/268/207 206/267/206 268/329/268
f 209/270/209 208/269/208 269/330/269
f 451/512/266 325/386/325 327/388/265
f 450/511/321 328/389/327 330/391/198
f 274/335/274 270/331/270 332/393/330
f 271/332/271 275/336/275 333/394/331
f 272/333/272 276/337/276 334/395/332
f 386/447/384 273/334/273 335/396/333
f 279/340/279 278/339/278 336/397/334
f 281/342/281 280/341/280 337/398/335
f 282/343/282 274/335/274 338/399/336
f 275/336/275 283/344/283 328/389/327
f 276/337/276 284/345/284 325/386/325
f 277/338/277 285/346/285 335/396/333
f 319/380/319 279/340/279 340/401/338
f 286/347/286 281/342/281 341/402/339
f 289/350/289 282/343/282 342/403/340
f 284/345/284 287/348/287 326/387/326
f 285/346/285 288/349/288 339/400/337
f 292/353/292 286/347/286 345/406/343
f 294/355/294 289/350/289 346/407/344
f 287/348/287 290/351/290 343/404/341
f 288/349/288 291/352/291 344/405/342
f 293/354/293 292/353/292 349/410/347
f 295/356/295 294/355/294 350/411/348
f 290/351/290 296/357/296 347/408/345
f 291/352/291 297/358/297 348/409/346
f 298/359/298 293/354/293 353/414/351
f 299/360/299 295/356/295 354/415/352
f 296/357/296 300/361/300 351/412/349
f 297/358/297 301/362/301 352/413/350
f 360/421/358 305/366/305 353/414/351
f 302/363/302 299/360/299 357/418/355
f 300/361/300 303/364/303 355/416/353
f 356/417/354 301/362/301 359/420/357
f 306/367/306 305/366/305 361/422/359
f 307/368/307 302/363/302 362/423/360
f 303/364/303 308/369/308 358/419/356
f 304/365/304 309/370/309 359/420/357
f 312/373/312 306/367/306 365/426/363
f 313/374/313 307/368/307 366/427/364
f 308/369/308 310/371/310 363/424/361
f 364/425/362 309/370/309 368/429/366
f 318/379/318 312/373/312 369/430/367
f 314/375/314 313/374/313 370/431/368
f 310/371/310 315/376/315 367/428/365
f 311/372/311 316/377/316 368/429/366
f 283/344/283 317/378/317 329/390/328
f 322/383/322 318/379/318 374/435/372
f 323/384/323 314/375/314 375/436/373
f 324/385/324 319/380/319 376/437/374
f 371/432/369 315/376/315 377/438/375
f 316/377/316 321/382/321 372/433/370
f 373/434/371 317/378/317 379/440/377
f 267/328/267 322/383/322 380/441/378
f 268/329/268 323/384/323 381/442/379
f 269/330/269 324/385/324 382/443/380
f 320/381/320 201/262/201 377/438/375
f 378/439/376 321/382/321 384/445/382
f 266/327/266 265/326/265 379/440/377
f 262/323/262 267/328/267 263/324/263
f 259/320/259 268/329/268 260/321/260
f 270/331/270 269/330/269 331/392/329
f 201/262/201 271/332/271 383/444/381
f 198/259/198 272/333/272 384/445/382
f 265/326/265 273/334/273 385/446/383
f 402/463/305 387/448/298 389/450/386
f 401/462/274 390/451/270 392/453/388
f 335/396/333 339/400/337 394/455/290
f 340/401/338 336/397/334 396/457/259
f 341/402/339 337/398/335 390/451/270
f 342/403/340 338/399/336 387/448/298
f 326/387/326 343/404/341 327/388/265
f 393/454/296 339/400/337 400/461/300
f 345/406/343 341/402/339 401/462/274
f 346/407/344 342/403/340 402/463/305
f 343/404/341 347/408/345 399/460/273
f 344/405/342 348/409/346 400/461/300
f 408/469/282 349/410/347 401/462/274
f 350/411/348 346/407/344 405/466/306
f 347/408/345 351/412/349 403/464/277
f 404/465/303 348/409/346 407/468/308
f 412/473/289 353/414/351 408/469/282
f 354/415/352 350/411/348 409/470/312
f 351/412/349 355/416/353 406/467/285
f 352/413/350 356/417/354 407/468/308
f 416/477/294 360/421/358 412/473/289
f 357/418/355 354/415/352 413/474/318
f 355/416/353 358/419/356 410/471/288
f 356/417/354 359/420/357 411/472/310
f 361/422/359 360/421/358 417/478/295
f 362/423/360 357/418/355 418/479/322
f 358/419/356 363/424/361 414/475/291
f 359/420/357 364/425/362 415/476/315
f 424/485/299 365/426/363 417/478/295
f 366/427/364 362/423/360 421/482/267
f 363/424/361 367/428/365 419/480/297
f 364/425/362 368/429/366 420/481/390
f 429/490/393 369/430/367 424/485/299
f 370/431/368 366/427/364 425/486/262
f 367/428/365 371/432/369 422/483/391
f 368/429/366 372/433/370 423/484/201
f 329/390/328 373/434/371 330/391/198
f 433/494/307 374/435/372 429/490/393
f 435/496/394 375/436/373 425/486/262
f 437/498/280 376/437/374 396/457/259
f 426/487/304 371/432/369 430/491/309
f 427/488/392 372/433/370 431/492/275
f 428/489/272 373/434/371 432/493/276
f 380/441/378 374/435/372 434/495/313
f 381/442/379 375/436/373 436/497/279
f 382/443/380 376/437/374 438/499/281
f 430/491/309 377/438/375 439/500/311
f 378/439/376 384/445/382 431/492/275
f 379/440/377 385/446/383 432/493/276
f 263/324/263 380/441/378 442/503/314
f 260/321/260 381/442/379 443/504/319
f 331/392/329 382/443/380 444/505/286
f 383/444/381 333/394/331 439/500/311
f 384/445/382 334/395/332 440/501/283
f 385/446/383 386/447/384 441/502/395
f 264/325/264 263/324/263 448/509/323
f 452/513/396 261/322/261 443/504/319
f 332/393/330 331/392/329 449/510/292
f 333/394/331 328/389/327 445/506/316
f 446/507/317 334/395/332 451/512/266
f 447/508/287 386/447/384 394/455/290
f 336/397/334 264/325/264 395/456/268
f 337/398/335 261/322/261 397/458/269
f 338/399/336 332/393/330 398/459/389
f 577/638/521 453/514/397 455/516/399
f 459/520/403 456/517/400 458/519/402
f 515/576/459 399/460/273 459/520/403
f 400/461/300 404/465/303 460/521/404
f 408/469/282 401/462/274 461/522/405
f 405/466/306 402/463/305 462/523/406
f 403/464/277 406/467/285 459/520/403
f 453/514/397 404/465/303 454/515/398
f 412/473/289 408/469/282 463/524/407
f 409/470/312 405/466/306 464/525/408
f 406/467/285 410/471/288 456/517/400
f 407/468/308 411/472/310 454/515/398
f 416/477/294 412/473/289 467/528/411
f 413/474/318 409/470/312 468/529/412
f 410/471/288 414/475/291 465/526/409
f 411/472/310 415/476/315 466/527/410
f 474/535/418 417/478/295 467/528/411
f 418/479/322 413/474/318 471/532/415
f 414/475/291 419/480/297 469/530/413
f 470/531/414 415/476/315 473/534/417
f 424/485/299 417/478/295 475/536/419
f 421/482/267 418/479/322 476/537/420
f 419/480/297 422/483/391 472/533/416
f 420/481/390 423/484/201 473/534/417
f 429/490/393 424/485/299 479/540/423
f 425/486/262 421/482/267 480/541/424
f 422/483/391 426/487/304 477/538/421
f 478/539/422 423/484/201 482/543/426
f 512/573/456 330/391/198 483/544/427
f 433/494/307 429/490/393 484/545/428
f 435/496/394 425/486/262 485/546/429
f 437/498/280 396/457/259 487/548/431
f 426/487/304 430/491/309 481/542/425
f 427/488/392 431/492/275 482/543/426
f 428/489/272 432/493/276 483/544/427
f 434/495/313 433/494/307 491/552/435
f 436/497/279 435/496/394 492/553/436
f 438/499/281 437/498/280 493/554/437
f 430/491/309 439/500/311 488/549/432
f 431/492/275 440/501/283 489/550/433
f 490/551/434 432/493/276 496/557/440
f 442/503/314 434/495/313 497/558/441
f 443/504/319 436/497/279 498/559/442
f 444/505/286 438/499/281 499/560/443
f 439/500/311 445/506/316 494/555/438
f 440/501/283 446/507/317 495/556/439
f 441/502/395 447/508/287 496/557/440
f 448/509/323 442/503/314 503/564/447
f 452/513/396 443/504/319 504/565/448
f 449/510/292 444/505/286 505/566/449
f 445/506/316 450/511/321 500/561/444
f 446/507/317 451/512/266 501/562/445
f 447/508/287 394/455/290 502/563/446
f 395/456/268 448/509/323 509/570/453
f 397/458/269 452/513/396 510/571/454
f 398/459/389 449/510/292 511/572/455
f 450/511/321 330/391/198 506/567/450
f 451/512/266 327/388/265 507/568/451
f 394/455/290 393/454/296 508/569/452
f 396/457/259 395/456/268 486/547/430
f 390/451/270 397/458/269 391/452/387
f 387/448/298 398/459/389 388/449/385
f 327/388/265 399/460/273 513/574/457
f 393/454/296 400/461/300 514/575/458
f 526/587/470 516/577/460 518/579/462
f 588/649/532 519/580/463 521/582/465
f 463/524/407 461/522/405 520/581/464
f 464/525/408 462/523/406 516/577/460
f 456/517/400 465/526/409 457/518/401
f 454/515/398 466/527/410 455/516/399
f 467/528/411 463/524/407 519/580/463
f 468/529/412 464/525/408 526/587/470
f 465/526/409 469/530/413 524/585/468
f 525/586/469 466/527/410 528/589/472
f 474/535/418 467/528/411 529/590/473
f 471/532/415 468/529/412 530/591/474
f 469/530/413 472/533/416 527/588/471
f 528/589/472 470/531/414 532/593/476
f 536/597/480 475/536/419 529/590/473
f 476/537/420 471/532/415 533/594/477
f 472/533/416 477/538/421 531/592/475
f 473/534/417 478/539/422 532/593/476
f 479/540/423 475/536/419 537/598/481
f 480/541/424 476/537/420 538/599/482
f 477/538/421 481/542/425 534/595/478
f 478/539/422 482/543/426 535/596/479
f 512/573/456 483/544/427 542/603/486
f 484/545/428 479/540/423 543/604/487
f 485/546/429 480/541/424 544/605/488
f 551/612/495 487/548/431 545/606/489
f 539/600/483 481/542/425 546/607/490
f 540/601/484 482/543/426 547/608/491
f 541/602/485 483/544/427 548/609/492
f 491/552/435 484/545/428 549/610/493
f 492/553/436 485/546/429 550/611/494
f 493/554/437 487/548/431 552/613/496
f 546/607/490 488/549/432 553/614/497
f 489/550/433 495/556/439 547/608/491
f 548/609/492 490/551/434 555/616/499
f 561/622/505 497/558/441 549/610/493
f 498/559/442 492/553/436 556/617/500
f 499/560/443 493/554/437 557/618/501
f 494/555/438 500/561/444 553/614/497
f 495/556/439 501/562/445 554/615/498
f 496/557/440 502/563/446 555/616/499
f 565/626/509 503/564/447 561/622/505
f 567/628/511 504/565/448 556/617/500
f 568/629/512 505/566/449 557/618/501
f 500/561/444 506/567/450 558/619/502
f 501/562/445 507/568/451 559/620/503
f 560/621/504 502/563/446 564/625/508
f 509/570/453 503/564/447 566/627/510
f 572/633/516 510/571/454 567/628/511
f 511/572/455 505/566/449 569/630/513
f 506/567/450 512/573/456 562/623/506
f 563/624/507 507/568/451 570/631/514
f 508/569/452 514/575/458 564/625/508
f 486/547/430 509/570/453 545/606/489
f 391/452/387 510/571/454 573/634/517
f 388/449/385 511/572/455 574/635/518
f 513/574/457 515/576/459 570/631/514
f 571/632/515 514/575/458 576/637/520
f 578/639/522 392/453/388 573/634/517
f 579/640/523 389/450/386 574/635/518
f 515/576/459 459/520/403 575/636/519
f 576/637/520 460/521/404 577/638/521
f 522/583/466 461/522/405 578/639/522
f 462/523/406 389/450/386 523/584/467
f 581/642/525 609/670/553 619/680/563
f 604/665/548 627/688/571 619/680/563
f 619/680/563 618/679/562 607/668/551
f 607/668/551 602/663/546 619/680/563
f 597/658/541 596/657/540 589/650/533
f 589/650/533 588/649/532 597/658/541
f 521/582/465 638/699/582 580/641/524
f 632/693/576 628/689/572 580/641/524
f 580/641/524 623/684/567 603/664/547
f 613/674/557 608/669/552 603/664/547
f 603/664/547 598/659/542 593/654/537
f 593/654/537 590/651/534 518/579/462
f 518/579/462 517/578/461 639/700/583
f 639/700/583 633/694/577 629/690/573
f 629/690/573 624/685/568 620/681/564
f 620/681/564 614/675/558 581/642/525
f 609/670/553 604/665/548 619/680/563
f 619/680/563 602/663/546 597/658/541
f 597/658/541 588/649/532 521/582/465
f 638/699/582 632/693/576 580/641/524
f 623/684/567 613/674/557 603/664/547
f 603/664/547 593/654/537 580/641/524
f 518/579/462 639/700/583 581/642/525
f 629/690/573 620/681/564 581/642/525
f 581/642/525 619/680/563 597/658/541
f 597/658/541 521/582/465 580/641/524
f 580/641/524 593/654/537 518/579/462
f 639/700/583 629/690/573 581/642/525
f 581/642/525 597/658/541 580/641/524
f 584/645/528 601/662/545 600/661/544
f 600/661/544 606/667/550 612/673/556
f 612/673/556 617/678/561 631/692/575
f 622/683/566 626/687/570 631/692/575
f 631/692/575 635/696/579 637/698/581
f 637/698/581 640/701/584 631/692/575
f 587/648/531 592/653/536 582/643/526
f 595/656/539 599/660/543 582/643/526
f 582/643/526 611/672/555 616/677/560
f 616/677/560 621/682/565 625/686/569
f 625/686/569 630/691/574 634/695/578
f 634/695/578 636/697/580 586/647/530
f 586/647/530 585/646/529 583/644/527
f 591/652/535 594/655/538 583/644/527
f 583/644/527 605/666/549 610/671/554
f 610/671/554 615/676/559 583/644/527
f 584/645/528 600/661/544 631/692/575
f 617/678/561 622/683/566 631/692/575
f 631/692/575 640/701/584 587/648/531
f 592/653/536 595/656/539 582/643/526
f 582/643/526 616/677/560 586/647/530
f 625/686/569 634/695/578 586/647/530
f 585/646/529 591/652/535 583/644/527
f 583/644/527 615/676/559 584/645/528
f 600/661/544 612/673/556 631/692/575
f 631/692/575 587/648/531 582/643/526
f 616/677/560 625/686/569 586/647/530
f 586/647/530 583/644/527 582/643/526
f 584/645/528 631/692/575 582/643/526
f 524/585/468 527/588/471 586/647/530
f 640/701/584 525/586/469 587/648/531
f 529/590/473 519/580/463 589/650/533
f 530/591/474 526/587/470 590/651/534
f 527/588/471 531/592/475 585/646/529
f 528/589/472 532/593/476 587/648/531
f 596/657/540 536/597/480 589/650/533
f 533/594/477 530/591/474 593/654/537
f 531/592/475 534/595/478 591/652/535
f 592/653/536 532/593/476 595/656/539
f 537/598/481 536/597/480 597/658/541
f 538/599/482 533/594/477 598/659/542
f 534/595/478 539/600/483 594/655/538
f 535/596/479 540/601/484 595/656/539
f 542/603/486 541/602/485 601/662/545
f 543/604/487 537/598/481 602/663/546
f 544/605/488 538/599/482 603/664/547
f 609/670/553 551/612/495 604/665/548
f 583/644/527 539/600/483 605/666/549
f 599/660/543 540/601/484 582/643/526
f 600/661/544 541/602/485 606/667/550
f 549/610/493 543/604/487 607/668/551
f 550/611/494 544/605/488 608/669/552
f 552/613/496 551/612/495 581/642/525
f 605/666/549 546/607/490 610/671/554
f 582/643/526 547/608/491 611/672/555
f 548/609/492 555/616/499 606/667/550
f 618/679/562 561/622/505 607/668/551
f 556/617/500 550/611/494 613/674/557
f 557/618/501 552/613/496 614/675/558
f 553/614/497 558/619/502 610/671/554
f 554/615/498 559/620/503 611/672/555
f 555/616/499 560/621/504 612/673/556
f 565/626/509 561/622/505 619/680/563
f 623/684/567 567/628/511 613/674/557
f 568/629/512 557/618/501 620/681/564
f 615/676/559 558/619/502 584/645/528
f 616/677/560 559/620/503 621/682/565
f 617/678/561 560/621/504 622/683/566
f 627/688/571 566/627/510 619/680/563
f 572/633/516 567/628/511 580/641/524
f 569/630/513 568/629/512 624/685/568
f 562/623/506 542/603/486 584/645/528
f 621/682/565 563/624/507 625/686/569
f 564/625/508 571/632/515 622/683/566
f 545/606/489 566/627/510 604/665/548
f 573/634/517 572/633/516 628/689/572
f 574/635/518 569/630/513 629/690/573
f 625/686/569 570/631/514 630/691/574
f 626/687/570 571/632/515 631/692/575
f 578/639/522 573/634/517 632/693/576
f 579/640/523 574/635/518 633/694/577
f 575/636/519 458/519/402 630/691/574
f 631/692/575 576/637/520 635/696/579
f 638/699/582 522/583/466 632/693/576
f 639/700/583 523/584/467 633/694/577
f 458/519/402 457/518/401 634/695/578
f 577/638/521 455/516/399 635/696/579
f 520/581/464 522/583/466 521/582/465
f 516/577/460 523/584/467 517/578/461
f 457/518/401 524/585/468 636/697/580
f 455/516/399 525/586/469 637/698/581
