# Blender v3.0.1 OBJ File: ''
# www.blender.org
mtllib guncar_wheel.mtl
o wheel_Cylinder01x.017
v 0.195736 -0.000517 0.000915
v 0.377238 0.279056 0.769043
v 0.377238 -0.000517 0.818339
v 0.377238 0.524910 0.627098
v 0.377238 0.707390 0.409627
v 0.377238 0.804487 0.142861
v 0.377238 0.804487 -0.141030
v 0.377238 0.707390 -0.407796
v 0.377238 0.524911 -0.625267
v 0.377238 0.279056 -0.767213
v 0.377238 -0.000517 -0.816508
v 0.377238 -0.280094 -0.767213
v 0.377238 -0.525948 -0.625267
v 0.377238 -0.708428 -0.407797
v 0.377238 -0.805525 -0.141027
v 0.377238 -0.805525 0.142861
v 0.377238 -0.708428 0.409627
v 0.377238 -0.525948 0.627098
v 0.377238 -0.280094 0.769043
v 0.296708 0.346779 0.955112
v 0.296708 -0.000517 1.016351
v 0.296708 0.652191 0.778781
v 0.296708 0.878872 0.508633
v 0.296708 0.999488 0.177243
v 0.296708 0.999488 -0.175412
v 0.296708 0.878873 -0.506802
v 0.296708 0.652191 -0.776954
v 0.296708 0.346780 -0.953282
v 0.296708 -0.000517 -1.014520
v 0.296708 -0.347817 -0.953282
v 0.296708 -0.653225 -0.776951
v 0.296708 -0.879910 -0.506803
v 0.296708 -1.000525 -0.175413
v 0.296708 -1.000525 0.177243
v 0.296708 -0.879910 0.508633
v 0.296708 -0.653226 0.778781
v 0.296708 -0.347817 0.955112
v -0.299810 0.346779 0.955112
v -0.299810 -0.000517 1.016347
v -0.299810 0.652191 0.778781
v -0.299810 0.878872 0.508633
v -0.299810 0.999488 0.177243
v -0.299810 0.999488 -0.175412
v -0.299810 0.878873 -0.506802
v -0.299810 0.652191 -0.776954
v -0.299810 0.346780 -0.953282
v -0.299810 -0.000517 -1.014520
v -0.299810 -0.347817 -0.953282
v -0.299810 -0.653225 -0.776951
v -0.299810 -0.879910 -0.506803
v -0.299810 -1.000525 -0.175413
v -0.299810 -1.000525 0.177243
v -0.299810 -0.879910 0.508633
v -0.299810 -0.653226 0.778781
v -0.299810 -0.347817 0.955112
v -0.380338 0.279056 0.769043
v -0.380338 -0.000517 0.818339
v -0.380338 0.524910 0.627098
v -0.380338 0.707390 0.409627
v -0.380338 0.804487 0.142861
v -0.380338 0.804487 -0.141030
v -0.380338 0.707390 -0.407796
v -0.380338 0.524911 -0.625267
v -0.380338 0.279056 -0.767213
v -0.380338 -0.000517 -0.816508
v -0.380338 -0.280094 -0.767213
v -0.380338 -0.525948 -0.625267
v -0.380338 -0.708428 -0.407797
v -0.380338 -0.805525 -0.141027
v -0.380338 -0.805525 0.142861
v -0.380338 -0.708428 0.409627
v -0.380338 -0.525948 0.627098
v -0.380338 -0.280094 0.769043
v -0.198836 -0.000517 0.000915
vt 0.175717 0.941721
vt 0.216689 0.955144
vt 0.219337 0.941721
vt 0.209133 0.967028
vt 0.197527 0.975767
vt 0.183272 0.980451
vt 0.168161 0.980451
vt 0.153907 0.975767
vt 0.142301 0.967028
vt 0.134745 0.955144
vt 0.132097 0.941721
vt 0.134745 0.928229
vt 0.142301 0.916414
vt 0.153907 0.907606
vt 0.168161 0.902922
vt 0.183272 0.902922
vt 0.197527 0.907606
vt 0.209133 0.916414
vt 0.216689 0.928229
vt 0.226659 0.958430
vt 0.229931 0.941721
vt 0.217234 0.973110
vt 0.202824 0.984085
vt 0.185142 0.989889
vt 0.166292 0.989889
vt 0.148610 0.984085
vt 0.134200 0.973110
vt 0.124775 0.958430
vt 0.121503 0.941721
vt 0.124775 0.924943
vt 0.134200 0.910262
vt 0.148610 0.899357
vt 0.166292 0.893554
vt 0.185142 0.893554
vt 0.202824 0.899357
vt 0.217234 0.910262
vt 0.226659 0.924943
vt 0.094310 0.464930
vt 0.082627 0.433781
vt 0.094310 0.433781
vt 0.082627 0.464930
vt 0.070853 0.433781
vt 0.070853 0.464930
vt 0.058987 0.433781
vt 0.058987 0.464930
vt 0.047028 0.433781
vt 0.047028 0.464930
vt 0.260162 0.464930
vt 0.248203 0.433781
vt 0.260162 0.433781
vt 0.248203 0.464930
vt 0.236153 0.433781
vt 0.236153 0.464930
vt 0.224287 0.433781
vt 0.224287 0.464930
vt 0.212605 0.433781
vt 0.212605 0.464930
vt 0.200922 0.433781
vt 0.200922 0.464930
vt 0.189240 0.433781
vt 0.189240 0.464930
vt 0.177466 0.433781
vt 0.177466 0.464930
vt 0.165599 0.433781
vt 0.165599 0.464930
vt 0.153641 0.433781
vt 0.153641 0.464930
vt 0.141591 0.433781
vt 0.141591 0.464930
vt 0.129633 0.433781
vt 0.129633 0.464930
vt 0.117766 0.433781
vt 0.117766 0.464930
vt 0.105992 0.433781
vt 0.105992 0.464930
vt 0.229931 0.941721
vt 0.216689 0.955144
vt 0.219337 0.941721
vt 0.226659 0.958430
vt 0.209133 0.967028
vt 0.217234 0.973110
vt 0.197527 0.975767
vt 0.202824 0.984085
vt 0.183272 0.980451
vt 0.185142 0.989889
vt 0.168161 0.980451
vt 0.166292 0.989889
vt 0.153907 0.975767
vt 0.148610 0.984085
vt 0.142301 0.967028
vt 0.134200 0.973110
vt 0.134745 0.955144
vt 0.124775 0.958430
vt 0.132097 0.941721
vt 0.121503 0.941721
vt 0.134745 0.928229
vt 0.124775 0.924943
vt 0.142301 0.916414
vt 0.134200 0.910262
vt 0.153907 0.907606
vt 0.148610 0.899357
vt 0.168161 0.902922
vt 0.166292 0.893554
vt 0.183272 0.902922
vt 0.185142 0.893554
vt 0.197527 0.907606
vt 0.202824 0.899357
vt 0.209133 0.916414
vt 0.217234 0.910262
vt 0.216689 0.928229
vt 0.226659 0.924943
vt 0.175717 0.941721
vn 1.0000 -0.0000 -0.0000
vn 0.9932 0.0398 0.1094
vn 0.9932 0.0000 0.1164
vn 0.9932 0.0748 0.0892
vn 0.9932 0.1008 0.0582
vn 0.9932 0.1147 0.0202
vn 0.9932 0.1147 -0.0202
vn 0.9932 0.1008 -0.0582
vn 0.9932 0.0748 -0.0892
vn 0.9932 0.0398 -0.1094
vn 0.9932 -0.0000 -0.1164
vn 0.9932 -0.0398 -0.1094
vn 0.9932 -0.0748 -0.0892
vn 0.9932 -0.1008 -0.0582
vn 0.9932 -0.1147 -0.0202
vn 0.9932 -0.1147 0.0202
vn 0.9932 -0.1008 0.0582
vn 0.9932 -0.0748 0.0892
vn 0.9932 -0.0398 0.1094
vn 0.5314 0.2897 0.7961
vn 0.5314 -0.0000 0.8472
vn 0.5314 0.5445 0.6490
vn 0.5314 0.7337 0.4236
vn 0.5314 0.8343 0.1471
vn 0.5314 0.8343 -0.1471
vn 0.5314 0.7337 -0.4236
vn 0.5314 0.5445 -0.6490
vn 0.5314 0.2897 -0.7961
vn 0.5314 0.0000 -0.8471
vn 0.5314 -0.2897 -0.7961
vn 0.5314 -0.5445 -0.6490
vn 0.5314 -0.7337 -0.4236
vn 0.5314 -0.8343 -0.1471
vn 0.5314 -0.8343 0.1471
vn 0.5314 -0.7337 0.4236
vn 0.5314 -0.5445 0.6490
vn 0.5314 -0.2897 0.7961
vn -0.5314 0.2897 0.7961
vn -0.5314 -0.0000 0.8471
vn -0.5314 0.5445 0.6490
vn -0.5314 0.7337 0.4236
vn -0.5314 0.8343 0.1471
vn -0.5314 0.8343 -0.1471
vn -0.5314 0.7337 -0.4236
vn -0.5314 0.5445 -0.6490
vn -0.5314 0.2897 -0.7961
vn -0.5314 0.0000 -0.8471
vn -0.5314 -0.2897 -0.7961
vn -0.5314 -0.5445 -0.6490
vn -0.5314 -0.7337 -0.4236
vn -0.5314 -0.8343 -0.1471
vn -0.5314 -0.8343 0.1471
vn -0.5314 -0.7337 0.4236
vn -0.5314 -0.5445 0.6490
vn -0.5314 -0.2897 0.7961
vn -0.9932 0.0398 0.1094
vn -0.9932 0.0000 0.1164
vn -0.9932 0.0748 0.0892
vn -0.9932 0.1008 0.0582
vn -0.9932 0.1147 0.0202
vn -0.9932 0.1147 -0.0202
vn -0.9932 0.1008 -0.0582
vn -0.9932 0.0748 -0.0892
vn -0.9932 0.0398 -0.1094
vn -0.9932 0.0000 -0.1164
vn -0.9932 -0.0398 -0.1094
vn -0.9932 -0.0748 -0.0892
vn -0.9932 -0.1008 -0.0582
vn -0.9932 -0.1147 -0.0202
vn -0.9932 -0.1147 0.0202
vn -0.9932 -0.1008 0.0582
vn -0.9932 -0.0748 0.0892
vn -0.9932 -0.0398 0.1094
vn -1.0000 -0.0000 -0.0000
usemtl blinn7.001
s 1
f 1/1/1 2/2/2 3/3/3
f 1/1/1 4/4/4 2/2/2
f 1/1/1 5/5/5 4/4/4
f 1/1/1 6/6/6 5/5/5
f 1/1/1 7/7/7 6/6/6
f 1/1/1 8/8/8 7/7/7
f 1/1/1 9/9/9 8/8/8
f 1/1/1 10/10/10 9/9/9
f 1/1/1 11/11/11 10/10/10
f 1/1/1 12/12/12 11/11/11
f 1/1/1 13/13/13 12/12/12
f 1/1/1 14/14/14 13/13/13
f 1/1/1 15/15/15 14/14/14
f 1/1/1 16/16/16 15/15/15
f 1/1/1 17/17/17 16/16/16
f 1/1/1 18/18/18 17/17/17
f 1/1/1 19/19/19 18/18/18
f 1/1/1 3/3/3 19/19/19
f 3/3/3 20/20/20 21/21/21
f 3/3/3 2/2/2 20/20/20
f 2/2/2 22/22/22 20/20/20
f 2/2/2 4/4/4 22/22/22
f 4/4/4 23/23/23 22/22/22
f 4/4/4 5/5/5 23/23/23
f 5/5/5 24/24/24 23/23/23
f 5/5/5 6/6/6 24/24/24
f 6/6/6 25/25/25 24/24/24
f 6/6/6 7/7/7 25/25/25
f 7/7/7 26/26/26 25/25/25
f 7/7/7 8/8/8 26/26/26
f 8/8/8 27/27/27 26/26/26
f 8/8/8 9/9/9 27/27/27
f 9/9/9 28/28/28 27/27/27
f 9/9/9 10/10/10 28/28/28
f 10/10/10 29/29/29 28/28/28
f 10/10/10 11/11/11 29/29/29
f 11/11/11 30/30/30 29/29/29
f 11/11/11 12/12/12 30/30/30
f 12/12/12 31/31/31 30/30/30
f 12/12/12 13/13/13 31/31/31
f 13/13/13 32/32/32 31/31/31
f 13/13/13 14/14/14 32/32/32
f 14/14/14 33/33/33 32/32/32
f 14/14/14 15/15/15 33/33/33
f 15/15/15 34/34/34 33/33/33
f 15/15/15 16/16/16 34/34/34
f 16/16/16 35/35/35 34/34/34
f 16/16/16 17/17/17 35/35/35
f 17/17/17 36/36/36 35/35/35
f 17/17/17 18/18/18 36/36/36
f 18/18/18 37/37/37 36/36/36
f 18/18/18 19/19/19 37/37/37
f 19/19/19 21/21/21 37/37/37
f 19/19/19 3/3/3 21/21/21
f 21/38/21 38/39/38 39/40/39
f 21/38/21 20/41/20 38/39/38
f 20/41/20 40/42/40 38/39/38
f 20/41/20 22/43/22 40/42/40
f 22/43/22 41/44/41 40/42/40
f 22/43/22 23/45/23 41/44/41
f 23/45/23 42/46/42 41/44/41
f 23/45/23 24/47/24 42/46/42
f 24/48/24 43/49/43 42/50/42
f 24/48/24 25/51/25 43/49/43
f 25/51/25 44/52/44 43/49/43
f 25/51/25 26/53/26 44/52/44
f 26/53/26 45/54/45 44/52/44
f 26/53/26 27/55/27 45/54/45
f 27/55/27 46/56/46 45/54/45
f 27/55/27 28/57/28 46/56/46
f 28/57/28 47/58/47 46/56/46
f 28/57/28 29/59/29 47/58/47
f 29/59/29 48/60/48 47/58/47
f 29/59/29 30/61/30 48/60/48
f 30/61/30 49/62/49 48/60/48
f 30/61/30 31/63/31 49/62/49
f 31/63/31 50/64/50 49/62/49
f 31/63/31 32/65/32 50/64/50
f 32/65/32 51/66/51 50/64/50
f 32/65/32 33/67/33 51/66/51
f 33/67/33 52/68/52 51/66/51
f 33/67/33 34/69/34 52/68/52
f 34/69/34 53/70/53 52/68/52
f 34/69/34 35/71/35 53/70/53
f 35/71/35 54/72/54 53/70/53
f 35/71/35 36/73/36 54/72/54
f 36/73/36 55/74/55 54/72/54
f 36/73/36 37/75/37 55/74/55
f 37/75/37 39/40/39 55/74/55
f 37/75/37 21/38/21 39/40/39
f 39/76/39 56/77/56 57/78/57
f 39/76/39 38/79/38 56/77/56
f 38/79/38 58/80/58 56/77/56
f 38/79/38 40/81/40 58/80/58
f 40/81/40 59/82/59 58/80/58
f 40/81/40 41/83/41 59/82/59
f 41/83/41 60/84/60 59/82/59
f 41/83/41 42/85/42 60/84/60
f 42/85/42 61/86/61 60/84/60
f 42/85/42 43/87/43 61/86/61
f 43/87/43 62/88/62 61/86/61
f 43/87/43 44/89/44 62/88/62
f 44/89/44 63/90/63 62/88/62
f 44/89/44 45/91/45 63/90/63
f 45/91/45 64/92/64 63/90/63
f 45/91/45 46/93/46 64/92/64
f 46/93/46 65/94/65 64/92/64
f 46/93/46 47/95/47 65/94/65
f 47/95/47 66/96/66 65/94/65
f 47/95/47 48/97/48 66/96/66
f 48/97/48 67/98/67 66/96/66
f 48/97/48 49/99/49 67/98/67
f 49/99/49 68/100/68 67/98/67
f 49/99/49 50/101/50 68/100/68
f 50/101/50 69/102/69 68/100/68
f 50/101/50 51/103/51 69/102/69
f 51/103/51 70/104/70 69/102/69
f 51/103/51 52/105/52 70/104/70
f 52/105/52 71/106/71 70/104/70
f 52/105/52 53/107/53 71/106/71
f 53/107/53 72/108/72 71/106/71
f 53/107/53 54/109/54 72/108/72
f 54/109/54 73/110/73 72/108/72
f 54/109/54 55/111/55 73/110/73
f 55/111/55 57/78/57 73/110/73
f 55/111/55 39/76/39 57/78/57
f 74/112/74 57/78/57 56/77/56
f 74/112/74 56/77/56 58/80/58
f 74/112/74 58/80/58 59/82/59
f 74/112/74 59/82/59 60/84/60
f 74/112/74 60/84/60 61/86/61
f 74/112/74 61/86/61 62/88/62
f 74/112/74 62/88/62 63/90/63
f 74/112/74 63/90/63 64/92/64
f 74/112/74 64/92/64 65/94/65
f 74/112/74 65/94/65 66/96/66
f 74/112/74 66/96/66 67/98/67
f 74/112/74 67/98/67 68/100/68
f 74/112/74 68/100/68 69/102/69
f 74/112/74 69/102/69 70/104/70
f 74/112/74 70/104/70 71/106/71
f 74/112/74 71/106/71 72/108/72
f 74/112/74 72/108/72 73/110/73
f 74/112/74 73/110/73 57/78/57
