# Blender v3.0.1 OBJ File: ''
# www.blender.org
mtllib truck_wheel.mtl
o Cylinder
v -0.260276 1.000000 0.000000
v 0.260276 1.000000 0.000000
v 0.260276 0.980785 -0.195090
v 0.260276 0.923880 -0.382683
v -0.260276 0.923880 -0.382684
v 0.260276 0.831470 -0.555570
v 0.260276 0.707107 -0.707107
v -0.260276 0.707107 -0.707107
v 0.260276 0.555570 -0.831470
v 0.260276 0.382683 -0.923879
v -0.260276 0.382683 -0.923880
v 0.260276 0.195090 -0.980785
v -0.260276 0.195090 -0.980785
v 0.260276 0.000000 -1.000000
v -0.260276 0.000000 -1.000000
v 0.260276 -0.195090 -0.980785
v -0.260276 -0.195090 -0.980785
v 0.260276 -0.382683 -0.923879
v -0.260276 -0.382683 -0.923880
v 0.260276 -0.555570 -0.831470
v 0.260276 -0.707107 -0.707107
v -0.260276 -0.707107 -0.707107
v 0.260276 -0.831470 -0.555570
v -0.260276 -0.831470 -0.555570
v 0.260276 -0.923880 -0.382683
v -0.260276 -0.923880 -0.382683
v 0.260276 -0.980785 -0.195090
v 0.260276 -1.000000 -0.000000
v -0.260276 -1.000000 -0.000000
v 0.260276 -0.980785 0.195091
v -0.260276 -0.980785 0.195091
v 0.260276 -0.923879 0.382684
v -0.260276 -0.923879 0.382684
v 0.260276 -0.831469 0.555571
v -0.260276 -0.831469 0.555571
v 0.260276 -0.707106 0.707107
v 0.260276 -0.555570 0.831470
v -0.260276 -0.555570 0.831470
v 0.260276 -0.382683 0.923880
v -0.260276 -0.382683 0.923880
v 0.260276 -0.195089 0.980786
v -0.260276 -0.195089 0.980785
v 0.260276 0.000001 1.000000
v -0.260276 0.000001 1.000000
v 0.260276 0.195091 0.980785
v -0.260276 0.195091 0.980785
v 0.260276 0.382684 0.923879
v -0.260276 0.382684 0.923879
v 0.260276 0.555571 0.831469
v 0.260276 0.707108 0.707106
v -0.260276 0.707108 0.707106
v 0.260276 0.831470 0.555569
v -0.260276 0.831470 0.555569
v 0.260276 0.923880 0.382682
v -0.260276 0.923880 0.382682
v 0.325000 -0.723369 -0.483340
v 0.325000 -0.803765 -0.332930
v 0.260276 0.980786 0.195089
v -0.260276 0.980786 0.195089
v -0.325000 -0.169726 0.853272
v -0.325000 -0.332930 0.803765
v -0.325000 -0.615175 -0.615175
v -0.325000 -0.723369 -0.483340
v -0.325000 -0.606293 -0.405112
v -0.325000 0.332931 0.803765
v -0.325000 0.279047 0.673676
v -0.325000 0.142257 0.715171
v -0.325000 0.869989 0.000000
v 0.325000 -0.332930 0.803765
v 0.325000 -0.169726 0.853272
v -0.325000 0.332930 -0.803765
v -0.325000 0.483340 -0.723369
v 0.325000 0.853272 0.169725
v 0.325000 0.869989 0.000000
v -0.260276 -0.980785 -0.195090
v -0.325000 -0.853272 -0.169726
v -0.325000 -0.803765 -0.332930
v 0.325000 0.483340 -0.723369
v 0.325000 0.332930 -0.803765
v -0.325000 0.000001 0.869989
v 0.325000 -0.853272 -0.169726
v -0.325000 0.169726 -0.853272
v -0.325000 -0.869989 -0.000000
v 0.325000 0.169726 -0.853272
v -0.325000 0.169727 0.853272
v 0.325000 -0.869989 -0.000000
v 0.325000 0.000001 0.869989
v -0.325000 0.000000 -0.869989
v -0.325000 -0.853272 0.169727
v 0.325000 0.000000 -0.869989
v 0.325000 0.169727 0.853272
v 0.325000 0.332931 0.803765
v -0.325000 -0.169726 -0.853272
v -0.325000 -0.803765 0.332931
v 0.325000 -0.169726 -0.853272
v -0.260276 0.980785 -0.195090
v -0.325000 0.853272 -0.169726
v -0.260276 0.555571 0.831469
v -0.325000 0.483341 0.723369
v 0.325000 -0.853272 0.169727
v 0.325000 -0.803765 0.332931
v 0.325000 0.483341 0.723369
v -0.325000 -0.332930 -0.803765
v -0.325000 -0.723369 0.483340
v 0.325000 -0.332930 -0.803765
v -0.325000 0.615176 0.615174
v 0.325000 -0.723369 0.483340
v -0.325000 0.803765 -0.332930
v -0.260276 -0.555570 -0.831470
v -0.325000 -0.483340 -0.723369
v 0.325000 0.853272 -0.169726
v 0.325000 0.803765 -0.332930
v -0.260276 -0.707106 0.707107
v -0.325000 -0.615175 0.615175
v 0.325000 -0.483340 -0.723369
v -0.325000 0.723370 0.483339
v 0.325000 -0.615175 0.615175
v -0.260276 0.831470 -0.555570
v -0.325000 0.723369 -0.483340
v 0.325000 0.615176 0.615174
v 0.325000 0.723369 -0.483340
v -0.325000 -0.483339 0.723370
v 0.325000 -0.615175 -0.615175
v -0.325000 0.803765 0.332929
v -0.325000 0.615175 -0.615175
v 0.325000 0.723370 0.483339
v -0.325000 0.853272 0.169725
v 0.325000 -0.483339 0.723370
v -0.260276 0.555570 -0.831470
v 0.325000 0.803765 0.332929
v 0.325000 0.615175 -0.615175
v 0.325000 -0.673677 -0.279046
v 0.325000 -0.606293 -0.405112
v 0.277574 -0.517818 -0.345995
v 0.325000 0.279047 0.673677
v 0.277574 0.238326 0.575369
v 0.277574 0.345996 0.517818
v 0.325000 0.142257 0.715171
v 0.325000 -0.515610 -0.515610
v -0.325000 0.405113 0.606293
v -0.325000 -0.673677 -0.279046
v -0.325000 0.715171 -0.142256
v -0.325000 0.729183 0.000000
v 0.325000 0.729183 0.000000
v -0.325000 0.515611 0.515609
v -0.325000 -0.715171 -0.142256
v -0.325000 0.673677 -0.279046
v 0.325000 0.405113 0.606293
v 0.325000 -0.715171 -0.142256
v 0.325000 0.715171 -0.142256
v 0.325000 0.673677 -0.279046
v -0.325000 0.606294 0.405111
v -0.325000 -0.729182 -0.000000
v -0.325000 0.606293 -0.405112
v 0.325000 0.515611 0.515609
v 0.325000 -0.729182 -0.000000
v 0.325000 0.606293 -0.405112
v -0.325000 0.673677 0.279045
v -0.325000 -0.715171 0.142257
v -0.325000 0.515610 -0.515610
v 0.325000 0.606294 0.405111
v -0.325000 0.715172 0.142255
v -0.325000 -0.673677 0.279046
v -0.325000 0.405112 -0.606293
v 0.325000 0.673677 0.279045
v 0.325000 -0.715171 0.142257
v 0.325000 -0.673677 0.279046
v 0.325000 0.515610 -0.515610
v 0.325000 0.405112 -0.606293
v -0.325000 -0.606293 0.405112
v -0.325000 0.279046 -0.673677
v 0.325000 0.715172 0.142255
v 0.325000 -0.606293 0.405113
v 0.325000 0.279046 -0.673677
v -0.325000 -0.515610 0.515610
v -0.325000 0.142257 -0.715171
v 0.325000 -0.515610 0.515610
v 0.325000 0.142257 -0.715171
v -0.325000 -0.405112 0.606293
v -0.325000 0.000000 -0.729182
v 0.325000 0.000000 -0.729182
v -0.325000 -0.279045 0.673677
v -0.325000 -0.142256 -0.715172
v 0.325000 -0.405112 0.606293
v 0.325000 -0.279045 0.673677
v 0.325000 -0.142256 -0.715171
v -0.325000 -0.142256 0.715172
v -0.325000 -0.279046 -0.673677
v 0.325000 -0.279046 -0.673677
v -0.325000 0.000001 0.729182
v -0.325000 -0.405112 -0.606293
v 0.325000 -0.142256 0.715172
v 0.325000 0.000001 0.729183
v 0.325000 -0.405112 -0.606293
v -0.325000 -0.515610 -0.515610
v -0.277574 -0.610808 -0.121497
v -0.277574 -0.622775 -0.000000
v -0.277574 -0.537005 -0.000000
v -0.277574 0.440369 0.440368
v -0.277574 0.517819 0.345994
v -0.277574 0.446504 0.298344
v 0.277574 0.622775 0.000000
v -0.277574 0.345996 0.517818
v -0.277574 -0.575369 -0.238325
v -0.277574 0.575369 -0.238326
v 0.277574 -0.575369 -0.238325
v 0.277574 -0.610808 -0.121497
v 0.277574 0.610808 -0.121497
v 0.277574 0.575369 -0.238325
v -0.277574 0.517818 -0.345995
v 0.277574 0.440369 0.440368
v 0.277574 0.517819 0.345994
v 0.277574 -0.622775 -0.000000
v 0.277574 0.517818 -0.345995
v -0.277574 0.575369 0.238325
v -0.277574 -0.610808 0.121498
v -0.277574 0.440368 -0.440368
v 0.277574 0.575369 0.238325
v -0.277574 0.610809 0.121496
v -0.277574 -0.575369 0.238326
v -0.277574 0.345995 -0.517818
v 0.277574 -0.610808 0.121498
v 0.277574 -0.575369 0.238326
v 0.277574 0.440368 -0.440368
v 0.277574 0.345995 -0.517818
v -0.277574 0.622775 0.000000
v -0.277574 -0.517818 0.345995
v -0.277574 0.238326 -0.575369
v 0.277574 0.610809 0.121496
v 0.277574 -0.517818 0.345995
v -0.277574 -0.440368 0.440369
v -0.277574 0.121497 -0.610808
v 0.277574 0.238326 -0.575369
v 0.277574 0.121497 -0.610808
v -0.277574 -0.345995 0.517818
v -0.277574 0.000000 -0.622775
v 0.277574 -0.440368 0.440369
v 0.277574 0.000000 -0.622775
v -0.277574 -0.238325 0.575369
v -0.277574 -0.121497 -0.610808
v 0.277574 -0.345995 0.517819
v 0.277574 -0.238325 0.575369
v 0.277574 -0.121497 -0.610808
v -0.277574 -0.121497 0.610808
v -0.277574 -0.238325 -0.575369
v 0.277574 -0.238325 -0.575369
v -0.277574 0.000001 0.622775
v -0.277574 -0.345995 -0.517818
v 0.277574 -0.121497 0.610808
v 0.277574 0.000001 0.622775
v 0.277574 -0.345995 -0.517818
v -0.277574 0.121498 0.610808
v -0.277574 -0.440368 -0.440368
v -0.277574 0.238326 0.575369
v -0.277574 -0.517818 -0.345995
v 0.277574 0.121498 0.610808
v 0.277574 -0.440368 -0.440368
v -0.277574 0.610808 -0.121497
v 0.277574 -0.537005 -0.000000
v 0.122151 -0.537005 -0.000000
v 0.122151 -0.526687 0.104765
v 0.277574 0.446504 0.298344
v 0.122151 0.446504 0.298344
v 0.122151 0.496129 0.205502
v -0.277574 0.446504 -0.298344
v -0.277574 0.496128 -0.205503
v 0.277574 0.379721 0.379720
v 0.277574 -0.526687 -0.104764
v 0.277574 0.496128 -0.205503
v 0.277574 0.446504 -0.298344
v -0.277574 0.496129 0.205502
v -0.277574 -0.526687 0.104765
v -0.277574 0.379720 -0.379720
v 0.277574 0.379720 -0.379720
v -0.277574 0.526687 0.104764
v -0.277574 -0.496128 0.205503
v -0.277574 0.298344 -0.446504
v 0.277574 0.496129 0.205502
v 0.277574 0.526687 0.104764
v 0.277574 -0.526687 0.104765
v 0.277574 -0.496128 0.205503
v 0.277574 0.298344 -0.446503
v -0.277574 0.537005 0.000000
v -0.277574 -0.446503 0.298344
v -0.277574 0.205503 -0.496128
v 0.277574 -0.446503 0.298344
v -0.277574 -0.379720 0.379720
v -0.277574 0.104765 -0.526687
v 0.277574 0.205503 -0.496128
v -0.277574 -0.298344 0.446504
v -0.277574 0.000000 -0.537005
v 0.277574 -0.379720 0.379720
v 0.277574 -0.298344 0.446504
v 0.277574 0.104765 -0.526687
v 0.277574 0.000000 -0.537005
v -0.277574 -0.205502 0.496128
v -0.277574 -0.104764 -0.526687
v 0.277574 -0.205502 0.496128
v 0.277574 -0.104764 -0.526687
v -0.277574 -0.104764 0.526687
v -0.277574 -0.205503 -0.496128
v 0.277574 -0.205503 -0.496128
v -0.277574 0.000001 0.537005
v -0.277574 -0.298344 -0.446504
v 0.277574 -0.104764 0.526687
v 0.277574 0.000001 0.537005
v 0.277574 -0.298344 -0.446503
v -0.277574 0.104765 0.526687
v -0.277574 -0.379720 -0.379720
v -0.277574 0.205504 0.496128
v -0.277574 -0.446503 -0.298344
v 0.277574 0.104765 0.526687
v 0.277574 -0.379720 -0.379720
v 0.277574 -0.446503 -0.298344
v -0.277574 0.298345 0.446503
v -0.277574 -0.496128 -0.205503
v -0.277574 0.526687 -0.104765
v 0.277574 0.205504 0.496128
v 0.277574 0.537005 0.000000
v -0.277574 0.379721 0.379719
v -0.277574 -0.526687 -0.104764
v 0.277574 0.298345 0.446503
v 0.277574 -0.496128 -0.205503
v 0.277574 0.526687 -0.104764
v -0.122151 -0.496128 0.205503
v -0.122151 -0.446503 0.298344
v -0.172151 -0.264395 0.176664
v -0.122151 0.526687 0.104764
v -0.122151 0.537005 0.000000
v -0.172151 0.317986 0.000000
v 0.122151 0.446504 -0.298344
v 0.122151 0.379720 -0.379720
v -0.122151 0.496129 0.205502
v -0.122151 -0.526687 0.104765
v -0.122151 0.298344 -0.446504
v 0.122151 0.526687 0.104764
v 0.122151 -0.496128 0.205503
v 0.122151 0.298344 -0.446503
v -0.122151 0.205503 -0.496128
v 0.122151 0.537005 0.000000
v 0.122151 -0.446503 0.298344
v 0.122151 0.205503 -0.496128
v -0.122151 -0.379720 0.379720
v -0.122151 0.104765 -0.526687
v 0.122151 -0.379720 0.379720
v 0.122151 0.104765 -0.526687
v -0.122151 -0.298344 0.446504
v -0.122151 0.000000 -0.537005
v 0.122151 -0.298344 0.446504
v 0.122151 0.000000 -0.537005
v -0.122151 -0.205502 0.496128
v -0.122151 -0.104764 -0.526687
v 0.122151 -0.205502 0.496128
v 0.122151 -0.104764 -0.526687
v -0.122151 -0.104764 0.526687
v -0.122151 -0.205503 -0.496128
v 0.122151 -0.205503 -0.496128
v -0.122151 0.000001 0.537005
v -0.122151 -0.298344 -0.446504
v 0.122151 -0.104764 0.526687
v 0.122151 0.000001 0.537005
v 0.122151 -0.298344 -0.446503
v -0.122151 0.104765 0.526687
v -0.122151 -0.379720 -0.379720
v 0.122151 0.104765 0.526687
v 0.122151 -0.379720 -0.379720
v -0.122151 0.205504 0.496128
v -0.122151 -0.446503 -0.298344
v 0.122151 0.205504 0.496128
v 0.122151 -0.446503 -0.298344
v -0.122151 0.298345 0.446503
v -0.122151 -0.496128 -0.205503
v -0.122151 0.526687 -0.104765
v 0.122151 0.298345 0.446503
v 0.122151 -0.496128 -0.205503
v 0.122151 0.526687 -0.104764
v -0.122151 0.379721 0.379719
v -0.122151 -0.526687 -0.104764
v -0.122151 0.496128 -0.205503
v 0.122151 0.379721 0.379720
v 0.122151 -0.526687 -0.104764
v 0.122151 0.496128 -0.205503
v -0.122151 0.446504 0.298344
v -0.122151 -0.537005 -0.000000
v -0.122151 0.446504 -0.298344
v -0.122151 0.379720 -0.379720
v 0.172151 0.121688 -0.293781
v 0.186977 0.121688 -0.293781
v 0.186977 0.062036 -0.311876
v 0.172151 -0.264395 0.176664
v 0.186977 -0.264395 0.176664
v 0.186977 -0.224850 0.224850
v -0.172151 0.121688 -0.293781
v -0.172151 0.176664 -0.264396
v 0.172151 0.311876 0.062036
v 0.172151 0.317986 0.000000
v 0.172151 -0.293780 0.121688
v 0.172151 0.176664 -0.264396
v -0.172151 -0.224850 0.224850
v -0.172151 0.062036 -0.311876
v 0.172151 -0.224850 0.224850
v 0.172151 0.062036 -0.311876
v -0.172151 -0.176663 0.264396
v -0.172151 0.000000 -0.317986
v 0.172151 0.000000 -0.317986
v -0.172151 -0.121688 0.293781
v -0.172151 -0.062036 -0.311876
v 0.172151 -0.176663 0.264396
v 0.172151 -0.062036 -0.311876
v -0.172151 -0.062035 0.311876
v -0.172151 -0.121688 -0.293781
v 0.172151 -0.121688 0.293781
v 0.172151 -0.121688 -0.293781
v -0.172151 0.000001 0.317986
v -0.172151 -0.176663 -0.264396
v 0.172151 -0.062035 0.311876
v 0.172151 0.000001 0.317986
v 0.172151 -0.176663 -0.264396
v -0.172151 0.062037 0.311876
v -0.172151 -0.224850 -0.224850
v 0.172151 -0.224850 -0.224850
v -0.172151 0.121688 0.293781
v -0.172151 -0.264395 -0.176663
v 0.172151 0.062037 0.311876
v 0.172151 -0.264395 -0.176663
v -0.172151 0.176664 0.264395
v -0.172151 -0.293781 -0.121688
v -0.172151 0.311876 -0.062036
v 0.172151 0.121688 0.293781
v -0.172151 0.224850 0.224850
v -0.172151 -0.311876 -0.062036
v -0.172151 0.293781 -0.121688
v 0.172151 0.176664 0.264395
v 0.172151 0.224850 0.224850
v 0.172151 -0.293781 -0.121688
v 0.172151 -0.311876 -0.062036
v 0.172151 0.311876 -0.062036
v 0.172151 0.293781 -0.121688
v -0.172151 0.264396 0.176663
v -0.172151 -0.317986 -0.000000
v -0.172151 0.264396 -0.176664
v 0.172151 0.264396 0.176663
v 0.172151 -0.317986 -0.000000
v 0.172151 0.264396 -0.176663
v -0.172151 0.293781 0.121688
v -0.172151 -0.311876 0.062036
v -0.172151 0.224850 -0.224850
v 0.172151 0.293781 0.121688
v 0.172151 0.224850 -0.224850
v -0.172151 0.311876 0.062036
v -0.172151 -0.293780 0.121688
v 0.172151 -0.311876 0.062036
v -0.186977 0.000000 -0.317986
v -0.186977 -0.062036 -0.311876
v -0.244264 -0.047397 -0.238284
v -0.186977 -0.121688 0.293781
v -0.244264 -0.092973 0.224458
v -0.244264 -0.134977 0.202007
v -0.186977 -0.176663 0.264396
v -0.186977 0.062036 -0.311876
v 0.186977 -0.176663 0.264396
v 0.186977 0.000000 -0.317986
v 0.186977 -0.121688 0.293781
v 0.186977 -0.062036 -0.311876
v -0.186977 -0.062035 0.311876
v -0.186977 -0.121688 -0.293781
v 0.186977 -0.062035 0.311876
v 0.186977 -0.121688 -0.293781
v -0.186977 0.000001 0.317986
v -0.186977 -0.176663 -0.264396
v 0.186977 -0.176663 -0.264396
v -0.186977 0.062037 0.311876
v -0.186977 -0.224850 -0.224850
v 0.186977 0.000001 0.317986
v 0.186977 0.062037 0.311876
v 0.186977 -0.224850 -0.224850
v -0.186977 0.121688 0.293781
v -0.186977 -0.264395 -0.176663
v 0.186977 0.121688 0.293781
v 0.186977 -0.264395 -0.176663
v -0.186977 0.176664 0.264395
v -0.186977 -0.293781 -0.121688
v -0.186977 0.311876 -0.062036
v 0.186977 0.176664 0.264395
v 0.186977 -0.293781 -0.121688
v 0.186977 0.317986 0.000000
v 0.186977 0.311876 -0.062036
v -0.186977 0.224850 0.224850
v -0.186977 -0.311876 -0.062036
v -0.186977 0.293781 -0.121688
v 0.186977 0.224850 0.224850
v 0.186977 -0.311876 -0.062036
v 0.186977 0.293781 -0.121688
v -0.186977 0.264396 0.176663
v -0.186977 -0.317986 -0.000000
v -0.186977 0.264396 -0.176664
v 0.186977 0.264396 0.176663
v 0.186977 -0.317986 -0.000000
v 0.186977 0.264396 -0.176663
v -0.186977 0.293781 0.121688
v -0.186977 -0.311876 0.062036
v -0.186977 0.224850 -0.224850
v 0.186977 0.293781 0.121688
v 0.186977 -0.311876 0.062036
v 0.186977 0.224850 -0.224850
v -0.186977 0.311876 0.062036
v -0.186977 -0.293780 0.121688
v -0.186977 0.176664 -0.264396
v 0.186977 0.311876 0.062036
v 0.186977 -0.293780 0.121688
v 0.186977 0.176664 -0.264396
v -0.186977 0.317986 0.000000
v -0.186977 -0.264395 0.176664
v -0.186977 0.121688 -0.293781
v -0.186977 -0.224850 0.224850
v 0.244264 -0.047397 -0.238284
v 0.323924 -0.019300 -0.097027
v 0.323924 -0.037858 -0.091397
v 0.244264 -0.047397 0.238284
v 0.244264 -0.092973 0.224458
v 0.323924 -0.037858 0.091398
v 0.244264 -0.134977 0.202007
v 0.244264 0.000000 -0.242952
v -0.244264 -0.047397 0.238284
v -0.244264 -0.092973 -0.224458
v 0.244264 -0.092973 -0.224458
v -0.244264 -0.000000 0.242952
v -0.244264 -0.134977 -0.202007
v 0.244264 -0.000000 0.242952
v 0.244264 -0.134977 -0.202007
v -0.244264 0.047398 0.238284
v -0.244264 -0.171793 -0.171793
v 0.244264 -0.171793 -0.171793
v -0.244264 0.092974 0.224458
v -0.244264 -0.202007 -0.134977
v 0.244264 0.047398 0.238284
v 0.244264 0.092974 0.224458
v 0.244264 -0.202007 -0.134977
v -0.244264 0.134977 0.202007
v -0.244264 -0.224458 -0.092974
v -0.244264 0.238284 -0.047398
v -0.244264 0.242952 0.000000
v 0.244264 0.134977 0.202007
v 0.244264 -0.224458 -0.092974
v 0.244264 0.242952 0.000000
v -0.244264 0.171793 0.171793
v -0.244264 -0.238283 -0.047398
v -0.244264 0.224459 -0.092974
v 0.244264 0.171793 0.171793
v 0.244264 -0.238283 -0.047397
v 0.244264 0.238284 -0.047398
v 0.244264 0.224459 -0.092974
v -0.244264 0.202008 0.134977
v -0.244264 -0.242952 -0.000000
v -0.244264 0.202007 -0.134977
v 0.244264 -0.242952 -0.000000
v 0.244264 0.202007 -0.134977
v -0.244264 0.224459 0.092973
v -0.244264 -0.238283 0.047398
v -0.244264 0.171793 -0.171793
v 0.244264 0.202008 0.134977
v -0.244264 0.238284 0.047397
v -0.244264 -0.224458 0.092974
v -0.244264 0.134977 -0.202007
v 0.244264 0.224459 0.092973
v 0.244264 0.238284 0.047397
v 0.244264 -0.238283 0.047398
v 0.244264 0.171793 -0.171793
v 0.244264 0.134977 -0.202007
v -0.244264 -0.202007 0.134977
v -0.244264 0.092974 -0.224458
v 0.244264 -0.224458 0.092974
v 0.244264 -0.202007 0.134977
v 0.244264 0.092974 -0.224458
v -0.244264 -0.171793 0.171793
v -0.244264 0.047398 -0.238284
v -0.244264 0.000000 -0.242952
v 0.244264 -0.171793 0.171793
v 0.244264 0.047398 -0.238284
v 0.323924 -0.091397 0.037858
v 0.323924 0.091398 -0.037858
v -0.323924 -0.097027 -0.019300
v -0.323924 0.054962 0.082256
v -0.323924 0.097028 0.019300
v -0.323924 0.000000 0.098928
v -0.323924 -0.019299 0.097027
v -0.323924 -0.054961 -0.082255
v 0.323924 -0.019299 0.097027
v 0.323924 0.000000 0.098928
v 0.323924 -0.054961 -0.082255
v -0.323924 0.019300 0.097027
v -0.323924 -0.069952 -0.069952
v 0.323924 -0.069952 -0.069952
v -0.323924 0.037859 0.091398
v -0.323924 -0.082255 -0.054961
v 0.323924 0.019300 0.097027
v 0.323924 0.037859 0.091398
v 0.323924 -0.082255 -0.054961
v -0.323924 -0.091397 -0.037858
v -0.323924 0.097028 -0.019300
v -0.323924 0.098928 0.000000
v 0.323924 0.054962 0.082256
v 0.323924 -0.091397 -0.037858
v 0.323924 0.098928 0.000000
v -0.323924 0.069953 0.069953
v -0.323924 0.091398 -0.037858
v 0.323924 0.069953 0.069953
v 0.323924 -0.097027 -0.019300
v 0.323924 0.097028 -0.019300
v -0.323924 0.082256 0.054962
v -0.323924 -0.098928 0.000000
v -0.323924 0.082256 -0.054961
v 0.323924 -0.098928 0.000000
v 0.323924 0.082256 -0.054961
v -0.323924 0.091398 0.037858
v -0.323924 -0.097027 0.019300
v -0.323924 0.069953 -0.069952
v 0.323924 0.082256 0.054962
v 0.323924 0.091398 0.037858
v 0.323924 0.069953 -0.069952
v -0.323924 -0.091397 0.037858
v -0.323924 0.054962 -0.082255
v 0.323924 -0.097027 0.019300
v 0.323924 0.054962 -0.082255
v -0.323924 -0.082255 0.054962
v -0.323924 0.037859 -0.091397
v 0.323924 0.097028 0.019300
v 0.323924 -0.082255 0.054962
v 0.323924 0.037859 -0.091397
v -0.323924 -0.069952 0.069953
v -0.323924 0.019300 -0.097027
v 0.323924 -0.069952 0.069953
v 0.323924 0.019300 -0.097027
v -0.323924 -0.054961 0.082256
v -0.323924 0.000000 -0.098928
v -0.323924 -0.037858 0.091398
v -0.323924 -0.019300 -0.097027
v 0.323924 -0.054961 0.082256
v 0.323924 0.000000 -0.098928
v -0.323924 -0.037858 -0.091397
vt 0.300115 0.778872
vt 0.300115 0.964661
vt 0.237628 0.964661
vt 0.737528 0.964661
vt 0.675041 0.964661
vt 0.675041 0.778872
vt 0.612554 0.964661
vt 0.550067 0.964661
vt 0.550067 0.778872
vt 0.487580 0.964661
vt 0.425093 0.964661
vt 0.425093 0.778872
vt 0.362606 0.964661
vt 0.362606 0.778872
vt 0.300115 0.964661
vt 0.300115 0.778872
vt 0.237628 0.964661
vt 0.237632 0.778872
vt 0.737528 0.964661
vt 0.675041 0.964661
vt 0.675041 0.778872
vt 0.612543 0.964661
vt 0.550067 0.964661
vt 0.550067 0.778872
vt 0.487580 0.964661
vt 0.487568 0.778872
vt 0.425093 0.964661
vt 0.425093 0.778872
vt 0.362606 0.964661
vt 0.300115 0.964661
vt 0.300115 0.778872
vt 0.237628 0.964661
vt 0.237632 0.778872
vt 0.737528 0.964661
vt 0.675041 0.964661
vt 0.675041 0.778872
vt 0.612554 0.964661
vt 0.612554 0.778872
vt 0.550067 0.964661
vt 0.487580 0.964661
vt 0.487568 0.778872
vt 0.425093 0.964661
vt 0.425093 0.778872
vt 0.362606 0.964661
vt 0.362606 0.778872
vt 0.300115 0.964661
vt 0.300115 0.778872
vt 0.237628 0.964661
vt 0.737524 0.778871
vt 0.737528 0.964661
vt 0.675041 0.964661
vt 0.675041 0.778872
vt 0.612543 0.964661
vt 0.550067 0.964661
vt 0.550067 0.778872
vt 0.487580 0.964661
vt 0.487568 0.778872
vt 0.425093 0.964661
vt 0.425093 0.778872
vt 0.160126 0.204908
vt 0.207663 0.230092
vt 0.184362 0.286447
vt 0.362606 0.964661
vt 0.362606 0.778872
vt 0.588300 0.026554
vt 0.572839 0.078278
vt 0.512814 0.066418
vt 0.184104 0.467301
vt 0.172228 0.407372
vt 0.222426 0.402433
vt 0.723690 0.178874
vt 0.684637 0.210963
vt 0.648328 0.174691
vt 0.832827 0.483478
vt 0.805219 0.549863
vt 0.757538 0.524419
vt 0.375362 0.726566
vt 0.391108 0.675036
vt 0.450992 0.687253
vt 0.446227 0.740783
vt 0.451473 0.687169
vt 0.512557 0.687298
vt 0.847080 0.413080
vt 0.793219 0.407867
vt 0.793267 0.346539
vt 0.132552 0.270967
vt 0.184133 0.286442
vt 0.172235 0.346323
vt 0.654684 0.053841
vt 0.629432 0.101596
vt 0.572839 0.078278
vt 0.654685 0.053909
vt 0.629432 0.101596
vt 0.132852 0.270999
vt 0.172474 0.346242
vt 0.517353 0.741251
vt 0.445592 0.740912
vt 0.376021 0.726698
vt 0.391602 0.675147
vt 0.159883 0.204794
vt 0.207468 0.230021
vt 0.588264 0.026521
vt 0.512814 0.066418
vt 0.714471 0.093716
vt 0.680354 0.135601
vt 0.118957 0.341109
vt 0.172443 0.407196
vt 0.587847 0.727538
vt 0.512159 0.687522
vt 0.309919 0.699226
vt 0.335232 0.651702
vt 0.199586 0.145197
vt 0.241354 0.179218
vt 0.517823 0.012707
vt 0.451633 0.066560
vt 0.765343 0.144452
vt 0.132845 0.482654
vt 0.118957 0.412566
vt 0.572239 0.675826
vt 0.628905 0.652603
vt 0.250435 0.659425
vt 0.284513 0.617738
vt 0.250153 0.094462
vt 0.284501 0.135983
vt 0.446083 0.012909
vt 0.391704 0.078606
vt 0.765156 0.609537
vt 0.723399 0.575273
vt 0.805332 0.204166
vt 0.757746 0.229791
vt 0.184266 0.466988
vt 0.207489 0.523341
vt 0.833067 0.270537
vt 0.847109 0.341121
vt 0.654336 0.700291
vt 0.679962 0.618735
vt 0.199822 0.608809
vt 0.241379 0.574550
vt 0.309658 0.054541
vt 0.335262 0.101976
vt 0.375804 0.027098
vt 0.335305 0.102096
vt 0.832884 0.270559
vt 0.781198 0.286391
vt 0.160091 0.548707
vt 0.241233 0.574112
vt 0.714220 0.660167
vt 0.679983 0.618432
vt 0.765239 0.609830
vt 0.714242 0.660547
vt 0.160012 0.549269
vt 0.207469 0.523762
vt 0.781343 0.286379
vt 0.757868 0.229751
vt 0.375830 0.026976
vt 0.391699 0.078512
vt 0.309683 0.054702
vt 0.284593 0.136110
vt 0.846926 0.341068
vt 0.793137 0.346490
vt 0.199661 0.608216
vt 0.284219 0.617363
vt 0.654467 0.699842
vt 0.629048 0.652269
vt 0.805339 0.550095
vt 0.723428 0.575520
vt 0.132579 0.483059
vt 0.805477 0.204097
vt 0.723779 0.178821
vt 0.446136 0.012839
vt 0.451650 0.066501
vt 0.250246 0.094640
vt 0.241500 0.179330
vt 0.846909 0.412968
vt 0.793096 0.407768
vt 0.309369 0.698873
vt 0.250056 0.658915
vt 0.588168 0.727105
vt 0.572515 0.675519
vt 0.832978 0.483651
vt 0.757611 0.524622
vt 0.118625 0.412779
vt 0.714515 0.093629
vt 0.765439 0.144363
vt 0.517879 0.012691
vt 0.199756 0.145360
vt 0.781075 0.467853
vt 0.334817 0.651441
vt 0.517857 0.740925
vt 0.781180 0.468007
vt 0.118625 0.341185
vt 0.680406 0.135548
vt 0.232539 0.301045
vt 0.252091 0.253794
vt 0.289318 0.273611
vt 0.605219 0.607945
vt 0.585337 0.570598
vt 0.621185 0.546802
vt 0.557744 0.627423
vt 0.280476 0.211241
vt 0.713167 0.253637
vt 0.222399 0.351254
vt 0.684428 0.543163
vt 0.713000 0.500517
vt 0.742874 0.351462
vt 0.732813 0.301068
vt 0.232369 0.301052
vt 0.648019 0.579299
vt 0.647991 0.579554
vt 0.222561 0.351186
vt 0.732952 0.301051
vt 0.713273 0.253619
vt 0.742813 0.351429
vt 0.251938 0.253752
vt 0.605356 0.607702
vt 0.684400 0.543338
vt 0.222529 0.402302
vt 0.684719 0.210940
vt 0.742778 0.402773
vt 0.280354 0.211166
vt 0.557976 0.627211
vt 0.713033 0.500690
vt 0.732709 0.453117
vt 0.316533 0.174929
vt 0.507714 0.637101
vt 0.732776 0.453255
vt 0.232442 0.452445
vt 0.251922 0.499704
vt 0.648384 0.174667
vt 0.605677 0.146198
vt 0.359094 0.146433
vt 0.456502 0.637003
vt 0.742858 0.402864
vt 0.280228 0.542276
vt 0.558250 0.126626
vt 0.406408 0.126778
vt 0.406302 0.626932
vt 0.316285 0.578535
vt 0.507936 0.116694
vt 0.456662 0.116726
vt 0.359035 0.607279
vt 0.456673 0.116774
vt 0.507936 0.116694
vt 0.316512 0.578803
vt 0.358727 0.607088
vt 0.405943 0.626817
vt 0.406408 0.126778
vt 0.558234 0.126626
vt 0.280369 0.542600
vt 0.359147 0.146519
vt 0.605644 0.146215
vt 0.251943 0.500026
vt 0.456130 0.637086
vt 0.507403 0.637252
vt 0.316620 0.175017
vt 0.232323 0.452679
vt 0.272769 0.313242
vt 0.289195 0.273585
vt 0.315592 0.287916
vt 0.692329 0.313398
vt 0.700698 0.355610
vt 0.670718 0.358341
vt 0.700828 0.355557
vt 0.675875 0.273636
vt 0.264380 0.355342
vt 0.621318 0.546651
vt 0.272903 0.313232
vt 0.264518 0.355282
vt 0.692329 0.313398
vt 0.675953 0.273644
vt 0.585489 0.570438
vt 0.651701 0.516451
vt 0.675701 0.480711
vt 0.264478 0.398155
vt 0.652050 0.237857
vt 0.700658 0.398644
vt 0.313038 0.237885
vt 0.545748 0.586787
vt 0.692258 0.440961
vt 0.692208 0.440835
vt 0.343386 0.207514
vt 0.503599 0.595075
vt 0.272782 0.440214
vt 0.289114 0.479855
vt 0.621611 0.207435
vt 0.585824 0.183551
vt 0.675675 0.480550
vt 0.379082 0.183637
vt 0.460655 0.594989
vt 0.700735 0.398723
vt 0.312851 0.515566
vt 0.418760 0.167177
vt 0.418557 0.586539
vt 0.546077 0.167121
vt 0.503902 0.158770
vt 0.460897 0.158770
vt 0.378919 0.570051
vt 0.343092 0.545982
vt 0.460897 0.158770
vt 0.503876 0.158746
vt 0.343262 0.546163
vt 0.378689 0.569943
vt 0.418298 0.586548
vt 0.418760 0.167177
vt 0.546045 0.167113
vt 0.313013 0.515812
vt 0.379140 0.183701
vt 0.585824 0.183551
vt 0.289188 0.480117
vt 0.460409 0.594962
vt 0.503353 0.595152
vt 0.343467 0.207577
vt 0.621611 0.207435
vt 0.272810 0.440382
vt 0.652050 0.237857
vt 0.264336 0.398290
vt 0.545546 0.586923
vt 0.313141 0.237936
vt 0.651698 0.516228
vt 0.294357 0.395447
vt 0.308958 0.393595
vt 0.315524 0.427084
vt 0.649261 0.466288
vt 0.635977 0.459648
vt 0.649169 0.428072
vt 0.571544 0.543796
vt 0.602403 0.523219
vt 0.628596 0.497141
vt 0.294355 0.358443
vt 0.649343 0.287664
vt 0.628660 0.256806
vt 0.670724 0.395464
vt 0.336136 0.257090
vt 0.537273 0.557949
vt 0.602371 0.230583
vt 0.663477 0.431869
vt 0.362300 0.230857
vt 0.500910 0.565145
vt 0.663496 0.431988
vt 0.670734 0.395569
vt 0.301563 0.431742
vt 0.315698 0.465941
vt 0.571478 0.210003
vt 0.649258 0.466148
vt 0.393084 0.210227
vt 0.463850 0.565115
vt 0.336222 0.496740
vt 0.427308 0.195994
vt 0.427510 0.557864
vt 0.537174 0.195856
vt 0.463659 0.188708
vt 0.393279 0.543675
vt 0.362356 0.522959
vt 0.393105 0.543595
vt 0.500780 0.188679
vt 0.463659 0.188708
vt 0.500743 0.188656
vt 0.362453 0.523098
vt 0.427301 0.557846
vt 0.427354 0.196038
vt 0.537134 0.195843
vt 0.336140 0.496940
vt 0.393144 0.210277
vt 0.571430 0.209997
vt 0.315859 0.465947
vt 0.463635 0.565119
vt 0.500706 0.565204
vt 0.362376 0.230906
vt 0.602310 0.230578
vt 0.301597 0.431816
vt 0.628582 0.256796
vt 0.294290 0.395525
vt 0.537097 0.558051
vt 0.336227 0.257128
vt 0.315694 0.287934
vt 0.649231 0.287643
vt 0.294257 0.358488
vt 0.628625 0.496985
vt 0.571405 0.543922
vt 0.670640 0.358468
vt 0.663461 0.321932
vt 0.301452 0.322153
vt 0.602304 0.523355
vt 0.301558 0.322143
vt 0.663699 0.321979
vt 0.371978 0.241972
vt 0.400406 0.223026
vt 0.423213 0.266473
vt 0.649174 0.427962
vt 0.636008 0.459533
vt 0.586462 0.430235
vt 0.617464 0.266554
vt 0.593302 0.242316
vt 0.655923 0.394424
vt 0.347797 0.266094
vt 0.499066 0.550490
vt 0.655939 0.394524
vt 0.328488 0.458655
vt 0.564879 0.223269
vt 0.464897 0.550387
vt 0.656029 0.360297
vt 0.347354 0.487101
vt 0.533295 0.210140
vt 0.431990 0.209989
vt 0.431406 0.543622
vt 0.371403 0.511329
vt 0.499767 0.203432
vt 0.465520 0.203363
vt 0.399873 0.530459
vt 0.399718 0.530409
vt 0.465584 0.203396
vt 0.499704 0.203405
vt 0.371509 0.511401
vt 0.431216 0.543605
vt 0.431990 0.209989
vt 0.533295 0.210140
vt 0.347422 0.487179
vt 0.400481 0.223070
vt 0.564812 0.223251
vt 0.328533 0.458709
vt 0.464695 0.550403
vt 0.498871 0.550541
vt 0.372061 0.242015
vt 0.593226 0.242296
vt 0.315524 0.427084
vt 0.532428 0.544005
vt 0.347886 0.266132
vt 0.617380 0.266524
vt 0.308918 0.393627
vt 0.564075 0.531042
vt 0.328878 0.294492
vt 0.636343 0.295003
vt 0.308969 0.359480
vt 0.616934 0.487922
vt 0.592590 0.512144
vt 0.315762 0.326007
vt 0.649456 0.326701
vt 0.649456 0.326701
vt 0.315762 0.326007
vt 0.592695 0.512035
vt 0.616869 0.488037
vt 0.309037 0.359467
vt 0.636432 0.295050
vt 0.655993 0.360209
vt 0.328788 0.294466
vt 0.564217 0.530943
vt 0.532601 0.543926
vt 0.515268 0.257540
vt 0.513079 0.265248
vt 0.491416 0.260872
vt 0.386604 0.449403
vt 0.392703 0.444211
vt 0.408232 0.459900
vt 0.468051 0.493180
vt 0.491701 0.493248
vt 0.600234 0.385191
vt 0.600283 0.361497
vt 0.373530 0.429707
vt 0.537137 0.266631
vt 0.445079 0.257443
vt 0.444864 0.488497
vt 0.403263 0.466174
vt 0.492051 0.252895
vt 0.468294 0.252853
vt 0.423028 0.479381
vt 0.468381 0.252872
vt 0.492051 0.252895
vt 0.403381 0.466178
vt 0.422869 0.479378
vt 0.445079 0.257443
vt 0.515268 0.257540
vt 0.386604 0.449403
vt 0.444673 0.488506
vt 0.423301 0.266509
vt 0.537054 0.266622
vt 0.373530 0.429707
vt 0.467850 0.493206
vt 0.491511 0.493284
vt 0.403624 0.279637
vt 0.556735 0.279808
vt 0.364541 0.407822
vt 0.386888 0.296349
vt 0.573467 0.296581
vt 0.359949 0.384617
vt 0.514742 0.488728
vt 0.373735 0.315999
vt 0.586608 0.316299
vt 0.359967 0.360969
vt 0.573271 0.449902
vt 0.536654 0.479736
vt 0.595649 0.338200
vt 0.364594 0.337780
vt 0.556497 0.466605
vt 0.556497 0.466605
vt 0.573198 0.449941
vt 0.364594 0.337780
vt 0.360022 0.361012
vt 0.595649 0.338200
vt 0.586666 0.316335
vt 0.600283 0.361497
vt 0.373657 0.315941
vt 0.536792 0.479703
vt 0.586462 0.430235
vt 0.359949 0.384617
vt 0.573538 0.296604
vt 0.600214 0.385137
vt 0.386888 0.296349
vt 0.514912 0.488700
vt 0.595550 0.408417
vt 0.556813 0.279822
vt 0.595550 0.408417
vt 0.403537 0.279593
vt 0.364542 0.407843
vt 0.426711 0.472223
vt 0.408379 0.459854
vt 0.418227 0.447712
vt 0.491416 0.260872
vt 0.489865 0.276363
vt 0.470815 0.276250
vt 0.469196 0.260795
vt 0.447083 0.480777
vt 0.426509 0.472253
vt 0.469319 0.260812
vt 0.446830 0.480805
vt 0.447477 0.264711
vt 0.513079 0.265248
vt 0.392794 0.444145
vt 0.468446 0.485246
vt 0.427216 0.273469
vt 0.533371 0.273777
vt 0.380570 0.425705
vt 0.408826 0.285697
vt 0.551726 0.286123
vt 0.372166 0.405271
vt 0.490513 0.485390
vt 0.512202 0.481061
vt 0.393178 0.301275
vt 0.567324 0.301812
vt 0.367903 0.383589
vt 0.532708 0.472710
vt 0.380871 0.319605
vt 0.579565 0.320242
vt 0.367941 0.361525
vt 0.566959 0.444972
vt 0.551162 0.460516
vt 0.372375 0.339980
vt 0.592341 0.362471
vt 0.587990 0.340770
vt 0.587990 0.340770
vt 0.372281 0.339876
vt 0.551274 0.460539
vt 0.566959 0.444972
vt 0.368012 0.361617
vt 0.579565 0.320242
vt 0.592238 0.362413
vt 0.380777 0.319503
vt 0.532877 0.472731
vt 0.579248 0.426620
vt 0.367944 0.383691
vt 0.567398 0.301814
vt 0.592183 0.384532
vt 0.393069 0.301201
vt 0.512444 0.481099
vt 0.587806 0.406225
vt 0.372169 0.405352
vt 0.551818 0.286117
vt 0.587806 0.406225
vt 0.408826 0.285697
vt 0.490771 0.485297
vt 0.592183 0.384532
vt 0.380570 0.425705
vt 0.533371 0.273777
vt 0.579296 0.426623
vt 0.427092 0.273426
vt 0.468716 0.485186
vt 0.447370 0.264685
vt 0.453300 0.279884
vt 0.468416 0.338294
vt 0.462040 0.340886
vt 0.469836 0.469800
vt 0.451228 0.465851
vt 0.467919 0.405638
vt 0.433739 0.458496
vt 0.470984 0.276257
vt 0.508539 0.280190
vt 0.404775 0.434112
vt 0.434674 0.287087
vt 0.526114 0.287588
vt 0.394313 0.418133
vt 0.488950 0.469908
vt 0.418803 0.297594
vt 0.541917 0.298271
vt 0.386995 0.400522
vt 0.405293 0.310998
vt 0.555338 0.311829
vt 0.383418 0.381817
vt 0.507659 0.466202
vt 0.525283 0.459045
vt 0.394659 0.326778
vt 0.565862 0.327742
vt 0.383409 0.362815
vt 0.554851 0.435302
vt 0.565494 0.419462
vt 0.541187 0.448565
vt 0.387310 0.344332
vt 0.576807 0.364017
vt 0.573083 0.345399
vt 0.387129 0.344144
vt 0.541262 0.448618
vt 0.554747 0.435174
vt 0.383524 0.362983
vt 0.573083 0.345399
vt 0.565924 0.327678
vt 0.576724 0.364121
vt 0.394571 0.326646
vt 0.525433 0.459126
vt 0.383431 0.382003
vt 0.555433 0.311774
vt 0.576647 0.383189
vt 0.405150 0.310896
vt 0.507813 0.466345
vt 0.565439 0.419387
vt 0.572854 0.401871
vt 0.418803 0.297594
vt 0.489140 0.469818
vt 0.572854 0.401871
vt 0.576647 0.383189
vt 0.387070 0.400687
vt 0.541917 0.298271
vt 0.526251 0.287551
vt 0.434500 0.287037
vt 0.470160 0.469708
vt 0.394220 0.418349
vt 0.404671 0.434273
vt 0.508689 0.280164
vt 0.453125 0.279520
vt 0.451541 0.465862
vt 0.434008 0.458436
vt 0.418016 0.447831
vt 0.489865 0.276363
vt 0.447363 0.388348
vt 0.509473 0.355674
vt 0.444782 0.361505
vt 0.509429 0.355726
vt 0.511916 0.382543
vt 0.495075 0.341163
vt 0.488721 0.338469
vt 0.447419 0.388239
vt 0.474633 0.406975
vt 0.481526 0.407042
vt 0.456294 0.344674
vt 0.500785 0.345043
vt 0.444760 0.381865
vt 0.451402 0.349512
vt 0.505631 0.349960
vt 0.443402 0.375104
vt 0.488295 0.405755
vt 0.494678 0.403169
vt 0.447550 0.355213
vt 0.443415 0.368224
vt 0.505375 0.394586
vt 0.509241 0.388889
vt 0.500438 0.399387
vt 0.444888 0.361558
vt 0.513366 0.368839
vt 0.512031 0.362120
vt 0.500556 0.399450
vt 0.505375 0.394586
vt 0.443518 0.368305
vt 0.512066 0.362064
vt 0.513338 0.368895
vt 0.447419 0.355137
vt 0.494799 0.403225
vt 0.443493 0.375191
vt 0.505689 0.349912
vt 0.513299 0.375792
vt 0.451279 0.349452
vt 0.488424 0.405797
vt 0.509226 0.388848
vt 0.511916 0.382543
vt 0.500853 0.345001
vt 0.456178 0.344632
vt 0.481703 0.407111
vt 0.444811 0.381928
vt 0.495153 0.341127
vt 0.461928 0.340861
vt 0.474816 0.407034
vt 0.513299 0.375792
vt 0.451109 0.394159
vt 0.488808 0.338442
vt 0.468309 0.338284
vt 0.468085 0.405609
vt 0.455909 0.399085
vt 0.482062 0.337048
vt 0.475077 0.337002
vt 0.461762 0.402884
vt 0.481969 0.337064
vt 0.456093 0.398960
vt 0.461583 0.402959
vt 0.475177 0.336998
vt 0.451297 0.393981
vt 0.237632 0.778872
vt 0.737524 0.778871
vt 0.612554 0.778872
vt 0.487568 0.778872
vt 0.737524 0.778871
vt 0.612543 0.778872
vt 0.362606 0.778872
vt 0.737524 0.778871
vt 0.550067 0.778872
vt 0.237632 0.778872
vt 0.612543 0.778872
vn -0.5123 0.8588 -0.0000
vn 0.5123 0.8588 -0.0000
vn 0.5123 0.8423 -0.1675
vn 0.5123 0.7935 -0.3287
vn -0.5123 0.7935 -0.3287
vn 0.5123 0.7141 -0.4771
vn 0.5123 0.6073 -0.6073
vn -0.5123 0.6073 -0.6073
vn 0.5123 0.4771 -0.7141
vn 0.5123 0.3287 -0.7935
vn -0.5123 0.3287 -0.7935
vn 0.5123 0.1675 -0.8423
vn -0.5123 0.1675 -0.8423
vn 0.5123 -0.0000 -0.8588
vn -0.5123 -0.0000 -0.8588
vn 0.5123 -0.1675 -0.8423
vn -0.5123 -0.1675 -0.8423
vn 0.5123 -0.3287 -0.7935
vn -0.5123 -0.3287 -0.7935
vn 0.5123 -0.4771 -0.7141
vn 0.5123 -0.6073 -0.6073
vn -0.5123 -0.6073 -0.6073
vn 0.5123 -0.7141 -0.4771
vn -0.5123 -0.7141 -0.4771
vn 0.5123 -0.7935 -0.3287
vn -0.5123 -0.7935 -0.3287
vn 0.5123 -0.8423 -0.1675
vn 0.5123 -0.8588 -0.0000
vn -0.5123 -0.8588 -0.0000
vn 0.5123 -0.8423 0.1675
vn -0.5123 -0.8423 0.1675
vn 0.5123 -0.7935 0.3287
vn -0.5123 -0.7935 0.3287
vn 0.5123 -0.7141 0.4771
vn -0.5123 -0.7141 0.4771
vn 0.5123 -0.6073 0.6073
vn 0.5123 -0.4771 0.7141
vn -0.5123 -0.4771 0.7141
vn 0.5123 -0.3287 0.7935
vn -0.5123 -0.3287 0.7935
vn 0.5123 -0.1675 0.8423
vn -0.5123 -0.1675 0.8423
vn 0.5123 0.0000 0.8588
vn -0.5123 0.0000 0.8588
vn 0.5123 0.1675 0.8423
vn -0.5123 0.1675 0.8423
vn 0.5123 0.3287 0.7935
vn -0.5123 0.3287 0.7935
vn 0.5123 0.4771 0.7141
vn 0.5123 0.6073 0.6073
vn -0.5123 0.6073 0.6073
vn 0.5123 0.7141 0.4771
vn -0.5123 0.7141 0.4771
vn 0.5123 0.7935 0.3287
vn -0.5123 0.7935 0.3287
vn 0.9702 -0.2015 -0.1347
vn 0.9702 -0.2239 -0.0928
vn 0.5123 0.8423 0.1675
vn -0.5123 0.8423 0.1675
vn -0.9702 -0.0473 0.2377
vn -0.9702 -0.0928 0.2239
vn -0.9702 -0.1714 -0.1714
vn -0.9702 -0.2015 -0.1347
vn -0.9807 0.1626 0.1087
vn -0.9702 0.0928 0.2239
vn -0.9807 -0.0749 -0.1807
vn -0.9807 -0.0382 -0.1918
vn -0.9702 0.2424 -0.0000
vn 0.9702 -0.0928 0.2239
vn 0.9702 -0.0473 0.2377
vn -0.9702 0.0928 -0.2239
vn -0.9702 0.1347 -0.2015
vn 0.9702 0.2377 0.0473
vn 0.9702 0.2424 -0.0000
vn -0.5123 -0.8423 -0.1675
vn -0.9702 -0.2377 -0.0473
vn -0.9702 -0.2239 -0.0928
vn 0.9702 0.1347 -0.2015
vn 0.9702 0.0928 -0.2239
vn -0.9702 -0.0000 0.2424
vn 0.9702 -0.2377 -0.0473
vn -0.9702 0.0473 -0.2377
vn -0.9702 -0.2424 -0.0000
vn 0.9702 0.0473 -0.2377
vn -0.9702 0.0473 0.2377
vn 0.9702 -0.2424 -0.0000
vn 0.9702 -0.0000 0.2424
vn -0.9702 -0.0000 -0.2424
vn -0.9702 -0.2377 0.0473
vn 0.9702 -0.0000 -0.2424
vn 0.9702 0.0473 0.2377
vn 0.9702 0.0928 0.2239
vn -0.9702 -0.0473 -0.2377
vn -0.9702 -0.2239 0.0928
vn 0.9702 -0.0473 -0.2377
vn -0.5123 0.8423 -0.1675
vn -0.9702 0.2377 -0.0473
vn -0.5123 0.4771 0.7141
vn -0.9702 0.1347 0.2015
vn 0.9702 -0.2377 0.0473
vn 0.9702 -0.2239 0.0928
vn 0.9702 0.1347 0.2015
vn -0.9702 -0.0928 -0.2239
vn -0.9702 -0.2015 0.1347
vn 0.9702 -0.0928 -0.2239
vn -0.9702 0.1714 0.1714
vn 0.9702 -0.2015 0.1347
vn -0.9702 0.2239 -0.0928
vn -0.5123 -0.4771 -0.7141
vn -0.9702 -0.1347 -0.2015
vn 0.9702 0.2377 -0.0473
vn 0.9702 0.2239 -0.0928
vn -0.5123 -0.6073 0.6073
vn -0.9702 -0.1714 0.1714
vn 0.9702 -0.1347 -0.2015
vn -0.9702 0.2015 0.1347
vn 0.9702 -0.1714 0.1714
vn -0.5123 0.7141 -0.4771
vn -0.9702 0.2015 -0.1347
vn 0.9702 0.1714 0.1714
vn 0.9702 0.2015 -0.1347
vn -0.9702 -0.1347 0.2015
vn 0.9702 -0.1714 -0.1714
vn -0.9702 0.2239 0.0928
vn -0.9702 0.1714 -0.1714
vn 0.9702 0.2015 0.1347
vn -0.9702 0.2377 0.0473
vn 0.9702 -0.1347 0.2015
vn -0.5123 0.4771 -0.7141
vn 0.9702 0.2239 0.0928
vn 0.9702 0.1714 -0.1714
vn 0.9807 0.1807 0.0749
vn 0.9807 0.1626 0.1087
vn 0.9754 0.1833 0.1225
vn 0.9807 -0.0749 -0.1807
vn 0.9754 -0.0844 -0.2037
vn 0.9754 -0.1225 -0.1833
vn 0.9807 -0.0382 -0.1918
vn 0.9807 0.1383 0.1383
vn -0.9807 -0.1087 -0.1626
vn -0.9807 0.1807 0.0749
vn -0.9807 -0.1918 0.0382
vn -0.9807 -0.1956 0.0000
vn 0.9807 -0.1956 0.0000
vn -0.9807 -0.1383 -0.1383
vn -0.9807 0.1918 0.0382
vn -0.9807 -0.1807 0.0749
vn 0.9807 -0.1087 -0.1626
vn 0.9807 0.1918 0.0382
vn 0.9807 -0.1918 0.0382
vn 0.9807 -0.1807 0.0749
vn -0.9807 -0.1626 -0.1087
vn -0.9807 0.1956 0.0000
vn -0.9807 -0.1626 0.1087
vn 0.9807 -0.1383 -0.1383
vn 0.9807 0.1956 0.0000
vn 0.9807 -0.1626 0.1087
vn -0.9807 -0.1807 -0.0749
vn -0.9807 0.1918 -0.0382
vn -0.9807 -0.1383 0.1383
vn 0.9807 -0.1626 -0.1087
vn -0.9807 -0.1918 -0.0382
vn -0.9807 0.1807 -0.0749
vn -0.9807 -0.1087 0.1626
vn 0.9807 -0.1807 -0.0749
vn 0.9807 0.1918 -0.0382
vn 0.9807 0.1807 -0.0749
vn 0.9807 -0.1383 0.1383
vn 0.9807 -0.1087 0.1626
vn -0.9807 0.1626 -0.1087
vn -0.9807 -0.0749 0.1807
vn 0.9807 -0.1918 -0.0382
vn 0.9807 0.1626 -0.1087
vn 0.9807 -0.0749 0.1807
vn -0.9807 0.1383 -0.1383
vn -0.9807 -0.0382 0.1918
vn 0.9807 0.1383 -0.1383
vn 0.9807 -0.0382 0.1918
vn -0.9807 0.1087 -0.1626
vn -0.9807 -0.0000 0.1956
vn 0.9807 0.0000 0.1956
vn -0.9807 0.0749 -0.1807
vn -0.9807 0.0382 0.1918
vn 0.9807 0.1087 -0.1626
vn 0.9807 0.0749 -0.1807
vn 0.9807 0.0382 0.1918
vn -0.9807 0.0382 -0.1918
vn -0.9807 0.0749 0.1807
vn 0.9807 0.0749 0.1807
vn -0.9807 -0.0000 -0.1956
vn -0.9807 0.1087 0.1626
vn 0.9807 0.0382 -0.1918
vn 0.9807 -0.0000 -0.1956
vn 0.9807 0.1087 0.1626
vn -0.9807 0.1383 0.1383
vn -0.9754 0.2162 0.0430
vn -0.9754 0.2205 0.0000
vn -0.7298 0.6836 0.0000
vn -0.9754 -0.1559 -0.1559
vn -0.9754 -0.1833 -0.1225
vn -0.7298 -0.5684 -0.3798
vn 0.9754 -0.2205 0.0000
vn -0.9754 -0.1225 -0.1833
vn -0.9754 0.2037 0.0844
vn -0.9754 -0.2037 0.0844
vn 0.9754 0.2037 0.0844
vn 0.9754 0.2162 0.0430
vn 0.9754 -0.2162 0.0430
vn 0.9754 -0.2037 0.0844
vn -0.9754 -0.1833 0.1225
vn 0.9754 -0.1559 -0.1559
vn 0.9754 -0.1833 -0.1225
vn 0.9754 0.2205 0.0000
vn 0.9754 -0.1833 0.1225
vn -0.9754 -0.2037 -0.0844
vn -0.9754 0.2162 -0.0430
vn -0.9754 -0.1559 0.1559
vn 0.9754 -0.2037 -0.0844
vn -0.9754 -0.2162 -0.0430
vn -0.9754 0.2037 -0.0844
vn -0.9754 -0.1225 0.1833
vn 0.9754 0.2162 -0.0430
vn 0.9754 0.2037 -0.0844
vn 0.9754 -0.1559 0.1559
vn 0.9754 -0.1225 0.1833
vn -0.9754 -0.2205 0.0000
vn -0.9754 0.1833 -0.1225
vn -0.9754 -0.0844 0.2037
vn 0.9754 -0.2162 -0.0430
vn 0.9754 0.1833 -0.1225
vn -0.9754 0.1559 -0.1559
vn -0.9754 -0.0430 0.2162
vn 0.9754 -0.0844 0.2037
vn 0.9754 -0.0430 0.2162
vn -0.9754 0.1225 -0.1833
vn -0.9754 -0.0000 0.2205
vn 0.9754 0.1559 -0.1559
vn 0.9754 0.0000 0.2205
vn -0.9754 0.0844 -0.2037
vn -0.9754 0.0430 0.2162
vn 0.9754 0.1225 -0.1833
vn 0.9754 0.0844 -0.2037
vn 0.9754 0.0430 0.2162
vn -0.9754 0.0430 -0.2162
vn -0.9754 0.0844 0.2037
vn 0.9754 0.0844 0.2037
vn -0.9754 -0.0000 -0.2205
vn -0.9754 0.1225 0.1833
vn 0.9754 0.0430 -0.2162
vn 0.9754 -0.0000 -0.2205
vn 0.9754 0.1225 0.1833
vn -0.9754 -0.0430 -0.2162
vn -0.9754 0.1559 0.1559
vn -0.9754 -0.0844 -0.2037
vn -0.9754 0.1833 0.1225
vn 0.9754 -0.0430 -0.2162
vn 0.9754 0.1559 0.1559
vn -0.9754 -0.2162 0.0430
vn 0.7298 0.6836 0.0000
vn 0.7586 0.6516 0.0000
vn 0.7586 0.6391 -0.1271
vn 0.7298 -0.5684 -0.3798
vn 0.7586 -0.5418 -0.3620
vn 0.7586 -0.6020 -0.2494
vn -0.7298 -0.5684 0.3798
vn -0.7298 -0.6316 0.2616
vn 0.7298 -0.4834 -0.4834
vn 0.7298 0.6705 0.1334
vn 0.7298 -0.6316 0.2616
vn 0.7298 -0.5684 0.3798
vn -0.7298 -0.6316 -0.2616
vn -0.7298 0.6705 -0.1334
vn -0.7298 -0.4834 0.4834
vn 0.7298 -0.4834 0.4834
vn -0.7298 -0.6705 -0.1334
vn -0.7298 0.6316 -0.2616
vn -0.7298 -0.3798 0.5684
vn 0.7298 -0.6316 -0.2616
vn 0.7298 -0.6705 -0.1334
vn 0.7298 0.6705 -0.1334
vn 0.7298 0.6316 -0.2616
vn 0.7298 -0.3798 0.5684
vn -0.7298 -0.6836 -0.0000
vn -0.7298 0.5684 -0.3798
vn -0.7298 -0.2616 0.6316
vn 0.7298 0.5684 -0.3798
vn -0.7298 0.4834 -0.4834
vn -0.7298 -0.1334 0.6705
vn 0.7298 -0.2616 0.6316
vn -0.7299 0.3798 -0.5684
vn -0.7298 0.0000 0.6836
vn 0.7298 0.4834 -0.4834
vn 0.7299 0.3798 -0.5684
vn 0.7298 -0.1334 0.6705
vn 0.7298 0.0000 0.6836
vn -0.7298 0.2616 -0.6316
vn -0.7298 0.1334 0.6705
vn 0.7298 0.2616 -0.6316
vn 0.7298 0.1334 0.6705
vn -0.7298 0.1334 -0.6705
vn -0.7298 0.2616 0.6316
vn 0.7298 0.2616 0.6316
vn -0.7298 -0.0000 -0.6836
vn -0.7298 0.3798 0.5684
vn 0.7298 0.1334 -0.6705
vn 0.7298 -0.0000 -0.6836
vn 0.7298 0.3798 0.5684
vn -0.7298 -0.1334 -0.6705
vn -0.7298 0.4834 0.4834
vn -0.7298 -0.2616 -0.6316
vn -0.7298 0.5684 0.3798
vn 0.7298 -0.1334 -0.6705
vn 0.7298 0.4834 0.4834
vn 0.7298 0.5684 0.3798
vn -0.7298 -0.3798 -0.5684
vn -0.7298 0.6316 0.2616
vn -0.7298 -0.6705 0.1334
vn 0.7298 -0.2616 -0.6316
vn 0.7298 -0.6836 0.0000
vn -0.7298 -0.4834 -0.4834
vn -0.7298 0.6705 0.1334
vn 0.7298 -0.3798 -0.5684
vn 0.7298 0.6316 0.2616
vn 0.7298 -0.6705 0.1334
vn -0.7586 0.6020 -0.2494
vn -0.7586 0.5418 -0.3620
vn -0.6431 -0.6367 0.4254
vn -0.7586 -0.6391 -0.1271
vn -0.7586 -0.6516 -0.0000
vn -0.6431 0.7658 0.0000
vn 0.7586 -0.5418 0.3620
vn 0.7586 -0.4607 0.4608
vn -0.7586 -0.6020 -0.2494
vn -0.7586 0.6391 -0.1271
vn -0.7586 -0.3620 0.5418
vn 0.7586 -0.6391 -0.1271
vn 0.7586 0.6020 -0.2494
vn 0.7586 -0.3620 0.5418
vn -0.7586 -0.2494 0.6020
vn 0.7586 -0.6516 -0.0000
vn 0.7586 0.5418 -0.3620
vn 0.7586 -0.2494 0.6020
vn -0.7586 0.4608 -0.4607
vn -0.7586 -0.1271 0.6391
vn 0.7586 0.4608 -0.4607
vn 0.7586 -0.1271 0.6391
vn -0.7586 0.3620 -0.5418
vn -0.7586 0.0000 0.6516
vn 0.7586 0.3620 -0.5418
vn 0.7586 0.0000 0.6516
vn -0.7586 0.2494 -0.6020
vn -0.7586 0.1271 0.6391
vn 0.7586 0.2494 -0.6020
vn 0.7586 0.1271 0.6391
vn -0.7586 0.1271 -0.6391
vn -0.7586 0.2494 0.6020
vn 0.7586 0.2494 0.6020
vn -0.7586 -0.0000 -0.6516
vn -0.7586 0.3620 0.5418
vn 0.7586 0.1271 -0.6391
vn 0.7586 -0.0000 -0.6516
vn 0.7586 0.3620 0.5418
vn -0.7586 -0.1271 -0.6391
vn -0.7586 0.4608 0.4607
vn 0.7586 -0.1271 -0.6391
vn 0.7586 0.4607 0.4608
vn -0.7586 -0.2494 -0.6020
vn -0.7586 0.5418 0.3620
vn 0.7586 -0.2494 -0.6020
vn 0.7586 0.5418 0.3620
vn -0.7586 -0.3620 -0.5418
vn -0.7586 0.6020 0.2494
vn -0.7586 -0.6391 0.1271
vn 0.7586 -0.3620 -0.5418
vn 0.7586 0.6020 0.2494
vn 0.7586 -0.6391 0.1271
vn -0.7586 -0.4607 -0.4607
vn -0.7586 0.6391 0.1271
vn -0.7586 -0.6020 0.2494
vn 0.7586 -0.4608 -0.4608
vn 0.7586 0.6391 0.1271
vn 0.7586 -0.6020 0.2494
vn -0.7586 -0.5418 -0.3620
vn -0.7586 0.6516 0.0000
vn -0.7586 -0.5418 0.3620
vn -0.7586 -0.4607 0.4607
vn 0.6431 0.2930 -0.7075
vn 0.4327 0.3450 -0.8329
vn 0.4327 0.1759 -0.8842
vn 0.6431 -0.6367 0.4254
vn 0.4327 -0.7496 0.5009
vn 0.4327 -0.6375 0.6375
vn -0.6431 0.2930 -0.7075
vn -0.6431 0.4254 -0.6367
vn 0.6431 0.7510 0.1494
vn 0.6431 0.7658 0.0000
vn 0.6431 -0.7075 0.2930
vn 0.6431 0.4254 -0.6367
vn -0.6431 -0.5415 0.5415
vn -0.6431 0.1494 -0.7510
vn 0.6431 -0.5415 0.5415
vn 0.6431 0.1494 -0.7510
vn -0.6431 -0.4254 0.6367
vn -0.6431 -0.0000 -0.7658
vn 0.6431 -0.0000 -0.7658
vn -0.6431 -0.2930 0.7075
vn -0.6431 -0.1494 -0.7510
vn 0.6431 -0.4254 0.6367
vn 0.6431 -0.1494 -0.7510
vn -0.6431 -0.1494 0.7510
vn -0.6431 -0.2930 -0.7075
vn 0.6431 -0.2930 0.7075
vn 0.6431 -0.2930 -0.7075
vn -0.6431 -0.0000 0.7658
vn -0.6431 -0.4254 -0.6367
vn 0.6431 -0.1494 0.7510
vn 0.6431 0.0000 0.7658
vn 0.6431 -0.4254 -0.6367
vn -0.6431 0.1494 0.7510
vn -0.6431 -0.5415 -0.5415
vn 0.6431 -0.5415 -0.5415
vn -0.6431 0.2930 0.7075
vn -0.6431 -0.6367 -0.4254
vn 0.6431 0.1494 0.7510
vn 0.6431 -0.6367 -0.4254
vn -0.6431 0.4254 0.6367
vn -0.6431 -0.7075 -0.2930
vn -0.6431 0.7510 -0.1494
vn 0.6431 0.2930 0.7075
vn -0.6431 0.5415 0.5415
vn -0.6431 -0.7510 -0.1494
vn -0.6431 0.7075 -0.2930
vn 0.6431 0.4254 0.6367
vn 0.6431 0.5415 0.5415
vn 0.6431 -0.7075 -0.2930
vn 0.6431 -0.7510 -0.1494
vn 0.6431 0.7510 -0.1494
vn 0.6431 0.7075 -0.2930
vn -0.6431 0.6367 0.4254
vn -0.6431 -0.7658 -0.0000
vn -0.6431 0.6367 -0.4254
vn 0.6431 0.6367 0.4254
vn 0.6431 -0.7658 -0.0000
vn 0.6431 0.6367 -0.4254
vn -0.6431 0.7075 0.2930
vn -0.6431 -0.7510 0.1494
vn -0.6431 0.5415 -0.5415
vn 0.6431 0.7075 0.2930
vn 0.6431 0.5415 -0.5415
vn -0.6431 0.7510 0.1494
vn -0.6431 -0.7075 0.2930
vn 0.6431 -0.7510 0.1494
vn -0.4327 0.0000 -0.9015
vn -0.4327 -0.1759 -0.8842
vn -0.8351 -0.1073 -0.5395
vn -0.4327 -0.3450 0.8329
vn -0.8351 -0.2105 0.5082
vn -0.8351 -0.3056 0.4574
vn -0.4327 -0.5009 0.7496
vn -0.4327 0.1759 -0.8842
vn 0.4327 -0.5009 0.7496
vn 0.4327 0.0000 -0.9015
vn 0.4327 -0.3450 0.8329
vn 0.4327 -0.1759 -0.8842
vn -0.4327 -0.1759 0.8842
vn -0.4327 -0.3450 -0.8329
vn 0.4327 -0.1759 0.8842
vn 0.4327 -0.3450 -0.8329
vn -0.4327 0.0000 0.9015
vn -0.4327 -0.5009 -0.7496
vn 0.4327 -0.5009 -0.7496
vn -0.4327 0.1759 0.8842
vn -0.4327 -0.6375 -0.6375
vn 0.4327 0.0000 0.9015
vn 0.4327 0.1759 0.8842
vn 0.4327 -0.6375 -0.6375
vn -0.4327 0.3450 0.8329
vn -0.4327 -0.7496 -0.5009
vn 0.4327 0.3450 0.8329
vn 0.4327 -0.7496 -0.5009
vn -0.4327 0.5009 0.7496
vn -0.4327 -0.8329 -0.3450
vn -0.4327 0.8842 -0.1759
vn 0.4327 0.5009 0.7496
vn 0.4327 -0.8329 -0.3450
vn 0.4327 0.9015 0.0000
vn 0.4327 0.8842 -0.1759
vn -0.4327 0.6375 0.6375
vn -0.4327 -0.8842 -0.1759
vn -0.4327 0.8329 -0.3450
vn 0.4327 0.6375 0.6375
vn 0.4327 -0.8842 -0.1759
vn 0.4327 0.8329 -0.3450
vn -0.4327 0.7496 0.5009
vn -0.4327 -0.9015 -0.0000
vn -0.4327 0.7496 -0.5009
vn 0.4327 0.7496 0.5009
vn 0.4327 -0.9015 -0.0000
vn 0.4327 0.7496 -0.5009
vn -0.4327 0.8329 0.3450
vn -0.4327 -0.8842 0.1759
vn -0.4327 0.6375 -0.6375
vn 0.4327 0.8329 0.3450
vn 0.4327 -0.8842 0.1759
vn 0.4327 0.6375 -0.6375
vn -0.4327 0.8842 0.1759
vn -0.4327 -0.8329 0.3450
vn -0.4327 0.5009 -0.7496
vn 0.4327 0.8842 0.1759
vn 0.4327 -0.8329 0.3450
vn 0.4327 0.5009 -0.7496
vn -0.4327 0.9015 -0.0000
vn -0.4327 -0.7496 0.5009
vn -0.4327 0.3450 -0.8329
vn -0.4327 -0.6375 0.6375
vn 0.8351 -0.1073 -0.5395
vn 0.9644 -0.0516 -0.2594
vn 0.9644 -0.1012 -0.2443
vn 0.8351 -0.1073 0.5395
vn 0.8351 -0.2105 0.5082
vn 0.9644 -0.1012 0.2443
vn 0.8351 -0.3056 0.4574
vn 0.8351 -0.0000 -0.5501
vn -0.8351 -0.1073 0.5395
vn -0.8351 -0.2105 -0.5082
vn 0.8351 -0.2105 -0.5082
vn -0.8351 -0.0000 0.5501
vn -0.8351 -0.3056 -0.4574
vn 0.8351 -0.0000 0.5501
vn 0.8351 -0.3056 -0.4574
vn -0.8351 0.1073 0.5395
vn -0.8351 -0.3890 -0.3890
vn 0.8351 -0.3890 -0.3890
vn -0.8351 0.2105 0.5082
vn -0.8351 -0.4574 -0.3056
vn 0.8351 0.1073 0.5395
vn 0.8351 0.2105 0.5082
vn 0.8351 -0.4574 -0.3056
vn -0.8351 0.3056 0.4574
vn -0.8351 -0.5082 -0.2105
vn -0.8351 0.5395 -0.1073
vn -0.8351 0.5501 0.0000
vn 0.8351 0.3056 0.4574
vn 0.8351 -0.5082 -0.2105
vn 0.8351 0.5501 0.0000
vn -0.8351 0.3890 0.3890
vn -0.8351 -0.5395 -0.1073
vn -0.8351 0.5082 -0.2105
vn 0.8351 0.3890 0.3890
vn 0.8351 -0.5395 -0.1073
vn 0.8351 0.5395 -0.1073
vn 0.8351 0.5082 -0.2105
vn -0.8351 0.4574 0.3056
vn -0.8351 -0.5501 -0.0000
vn -0.8351 0.4574 -0.3056
vn 0.8351 -0.5501 -0.0000
vn 0.8351 0.4574 -0.3056
vn -0.8351 0.5082 0.2105
vn -0.8351 -0.5395 0.1073
vn -0.8351 0.3890 -0.3890
vn 0.8351 0.4574 0.3056
vn -0.8351 0.5395 0.1073
vn -0.8351 -0.5082 0.2105
vn -0.8351 0.3056 -0.4574
vn 0.8351 0.5082 0.2105
vn 0.8351 0.5395 0.1073
vn 0.8351 -0.5395 0.1073
vn 0.8351 0.3890 -0.3890
vn 0.8351 0.3056 -0.4574
vn -0.8351 -0.4574 0.3056
vn -0.8351 0.2105 -0.5082
vn 0.8351 -0.5082 0.2105
vn 0.8351 -0.4574 0.3056
vn 0.8351 0.2105 -0.5082
vn -0.8351 -0.3890 0.3890
vn -0.8351 0.1073 -0.5395
vn -0.8351 -0.0000 -0.5501
vn 0.8351 -0.3890 0.3890
vn 0.8351 0.1073 -0.5395
vn 0.9644 -0.2443 0.1012
vn 0.9644 0.2443 -0.1012
vn -0.9644 -0.2594 -0.0516
vn -0.9644 0.1469 0.2199
vn -0.9644 0.2594 0.0516
vn -0.9644 -0.0000 0.2645
vn -0.9644 -0.0516 0.2594
vn -0.9644 -0.1469 -0.2199
vn 0.9644 -0.0516 0.2594
vn 0.9644 -0.0000 0.2645
vn 0.9644 -0.1469 -0.2199
vn -0.9644 0.0516 0.2594
vn -0.9644 -0.1870 -0.1870
vn 0.9644 -0.1870 -0.1870
vn -0.9644 0.1012 0.2443
vn -0.9644 -0.2199 -0.1469
vn 0.9644 0.0516 0.2594
vn 0.9644 0.1012 0.2443
vn 0.9644 -0.2199 -0.1469
vn -0.9644 -0.2443 -0.1012
vn -0.9644 0.2594 -0.0516
vn -0.9644 0.2645 -0.0000
vn 0.9644 0.1469 0.2199
vn 0.9644 -0.2443 -0.1012
vn 0.9644 0.2645 0.0000
vn -0.9644 0.1870 0.1870
vn -0.9644 0.2443 -0.1012
vn 0.9644 0.1870 0.1870
vn 0.9644 -0.2594 -0.0516
vn 0.9644 0.2594 -0.0516
vn -0.9644 0.2199 0.1469
vn -0.9644 -0.2645 0.0000
vn -0.9644 0.2199 -0.1469
vn 0.9644 -0.2645 -0.0000
vn 0.9644 0.2199 -0.1469
vn -0.9644 0.2443 0.1012
vn -0.9644 -0.2594 0.0516
vn -0.9644 0.1870 -0.1870
vn 0.9644 0.2199 0.1469
vn 0.9644 0.2443 0.1012
vn 0.9644 0.1870 -0.1870
vn -0.9644 -0.2443 0.1012
vn -0.9644 0.1469 -0.2199
vn 0.9644 -0.2594 0.0516
vn 0.9644 0.1469 -0.2199
vn -0.9644 -0.2199 0.1469
vn -0.9644 0.1012 -0.2443
vn 0.9644 0.2594 0.0516
vn 0.9644 -0.2199 0.1469
vn 0.9644 0.1012 -0.2443
vn -0.9644 -0.1870 0.1870
vn -0.9644 0.0516 -0.2594
vn 0.9644 -0.1870 0.1870
vn 0.9644 0.0516 -0.2594
vn -0.9644 -0.1469 0.2199
vn -0.9644 -0.0000 -0.2645
vn -0.9644 -0.1012 0.2443
vn -0.9644 -0.0516 -0.2594
vn 0.9644 -0.1469 0.2199
vn 0.9644 -0.0000 -0.2645
vn -0.9644 -0.1012 -0.2443
usemtl bluelives
s 1
f 1/1/1 2/2/2 3/3/3
f 3/4/3 4/5/4 5/6/5
f 5/6/5 4/5/4 6/7/6
f 6/7/6 7/8/7 8/9/8
f 8/9/8 7/8/7 9/10/9
f 9/10/9 10/11/10 11/12/11
f 10/11/10 12/13/12 13/14/13
f 12/13/12 14/15/14 15/16/15
f 14/15/14 16/17/16 17/18/17
f 16/19/16 18/20/18 19/21/19
f 19/21/19 18/20/18 20/22/20
f 20/22/20 21/23/21 22/24/22
f 21/23/21 23/25/23 24/26/24
f 23/25/23 25/27/25 26/28/26
f 26/28/26 25/27/25 27/29/27
f 27/29/27 28/30/28 29/31/29
f 28/30/28 30/32/30 31/33/31
f 30/34/30 32/35/32 33/36/33
f 32/35/32 34/37/34 35/38/35
f 35/38/35 34/37/34 36/39/36
f 36/39/36 37/40/37 38/41/38
f 37/40/37 39/42/39 40/43/40
f 39/42/39 41/44/41 42/45/42
f 41/44/41 43/46/43 44/47/44
f 44/47/44 43/46/43 45/48/45
f 46/49/46 45/50/45 47/51/47
f 48/52/48 47/51/47 49/53/49
f 49/53/49 50/54/50 51/55/51
f 50/54/50 52/56/52 53/57/53
f 52/56/52 54/58/54 55/59/55
f 23/60/23 56/61/56 57/62/57
f 58/63/58 2/2/2 1/1/1
f 54/58/54 58/63/58 59/64/59
f 42/65/42 60/66/60 61/67/61
f 62/68/62 63/69/63 64/70/64
f 65/71/65 66/72/66 67/73/67
f 59/74/59 1/75/1 68/76/68
f 39/77/39 69/78/69 70/79/70
f 11/80/11 71/81/71 72/82/72
f 58/83/58 73/84/73 74/85/74
f 75/86/75 76/87/76 77/88/77
f 9/89/9 78/90/78 79/91/79
f 44/92/44 80/93/80 60/66/60
f 25/94/25 57/62/57 81/95/81
f 43/96/43 41/97/41 70/79/70
f 11/80/11 13/98/13 82/99/82
f 75/86/75 29/100/29 83/101/83
f 10/102/10 79/91/79 84/103/84
f 46/104/46 85/105/85 80/93/80
f 27/106/27 81/95/81 86/107/86
f 45/108/45 43/96/43 87/109/87
f 13/98/13 15/110/15 88/111/88
f 31/112/31 89/113/89 83/101/83
f 12/114/12 84/103/84 90/115/90
f 48/116/48 65/71/65 85/105/85
f 30/117/30 28/118/28 86/107/86
f 45/108/45 91/119/91 92/120/92
f 15/110/15 17/121/17 93/122/93
f 33/123/33 94/124/94 89/113/89
f 14/125/14 90/115/90 95/126/95
f 96/127/96 97/128/97 68/76/68
f 98/129/98 99/130/99 65/71/65
f 30/117/30 100/131/100 101/132/101
f 3/133/3 2/134/2 74/85/74
f 47/135/47 92/120/92 102/136/102
f 19/137/19 103/138/103 93/122/93
f 35/139/35 104/140/104 94/124/94
f 16/141/16 95/126/95 105/142/105
f 51/143/51 106/144/106 99/130/99
f 32/145/32 101/132/101 107/146/107
f 5/147/5 108/148/108 97/128/97
f 50/149/50 49/150/49 102/136/102
f 19/137/19 109/151/109 110/152/110
f 3/133/3 111/153/111 112/154/112
f 113/155/113 114/156/114 104/140/104
f 18/157/18 105/142/105 115/158/115
f 53/159/53 116/160/116 106/144/106
f 34/161/34 107/146/107 117/162/117
f 118/163/118 119/164/119 108/148/108
f 52/165/52 50/149/50 120/166/120
f 22/167/22 62/68/62 110/152/110
f 4/168/4 112/154/112 121/169/121
f 38/170/38 122/171/122 114/156/114
f 20/172/20 115/158/115 123/173/123
f 55/174/55 124/175/124 116/160/116
f 37/176/37 36/177/36 117/162/117
f 118/163/118 8/178/8 125/179/125
f 54/180/54 52/165/52 126/181/126
f 24/182/24 63/69/63 62/68/62
f 7/183/7 6/184/6 121/169/121
f 40/185/40 61/67/61 122/171/122
f 21/186/21 123/173/123 56/61/56
f 59/74/59 127/187/127 124/175/124
f 39/77/39 37/176/37 128/188/128
f 8/178/8 129/189/129 72/82/72
f 58/83/58 54/180/54 130/190/130
f 24/182/24 26/191/26 77/88/77
f 7/183/7 131/192/131 78/90/78
f 132/193/132 133/194/133 134/195/134
f 135/196/135 136/197/136 137/198/137
f 92/120/92 91/119/91 138/199/138
f 123/173/123 139/200/139 133/194/133
f 99/130/99 140/201/140 66/72/66
f 77/88/77 141/202/141 64/70/64
f 97/128/97 142/203/142 143/204/143
f 102/136/102 92/120/92 135/196/135
f 57/62/57 56/61/56 133/194/133
f 111/153/111 74/85/74 144/205/144
f 106/144/106 145/206/145 140/201/140
f 76/87/76 146/207/146 141/202/141
f 97/128/97 108/148/108 147/208/147
f 120/166/120 102/136/102 148/209/148
f 57/62/57 132/193/132 149/210/149
f 111/153/111 150/211/150 151/212/151
f 106/144/106 116/160/116 152/213/152
f 76/87/76 83/101/83 153/214/153
f 119/164/119 154/215/154 147/208/147
f 126/181/126 120/166/120 155/216/155
f 81/95/81 149/210/149 156/217/156
f 112/154/112 151/212/151 157/218/157
f 124/175/124 158/219/158 152/213/152
f 89/113/89 159/220/159 153/214/153
f 125/179/125 160/221/160 154/215/154
f 130/190/130 126/181/126 161/222/161
f 100/131/100 86/107/86 156/217/156
f 131/192/131 121/169/121 157/218/157
f 127/187/127 162/223/162 158/219/158
f 89/113/89 94/124/94 163/224/163
f 125/179/125 72/82/72 164/225/164
f 73/84/73 130/190/130 165/226/165
f 100/131/100 166/227/166 167/228/167
f 131/192/131 168/229/168 169/230/169
f 68/76/68 143/204/143 162/223/162
f 104/140/104 170/231/170 163/224/163
f 71/81/71 171/232/171 164/225/164
f 73/84/73 172/233/172 144/205/144
f 101/132/101 167/228/167 173/234/173
f 78/90/78 169/230/169 174/235/174
f 114/156/114 175/236/175 170/231/170
f 71/81/71 82/99/82 176/237/176
f 107/146/107 173/234/173 177/238/177
f 79/91/79 174/235/174 178/239/178
f 122/171/122 179/240/179 175/236/175
f 82/99/82 88/111/88 180/241/180
f 128/188/128 117/162/117 177/238/177
f 84/103/84 178/239/178 181/242/181
f 61/67/61 182/243/182 179/240/179
f 88/111/88 93/122/93 183/244/183
f 128/188/128 184/245/184 185/246/185
f 90/115/90 181/242/181 186/247/186
f 60/66/60 187/248/187 182/243/182
f 103/138/103 188/249/188 183/244/183
f 70/79/70 69/78/69 185/246/185
f 95/126/95 186/247/186 189/250/189
f 80/93/80 190/251/190 187/248/187
f 103/138/103 110/152/110 191/252/191
f 70/79/70 192/253/192 193/254/193
f 105/142/105 189/250/189 194/255/194
f 80/93/80 85/105/85 67/73/67
f 110/152/110 62/68/62 195/256/195
f 91/119/91 87/109/87 193/254/193
f 115/158/115 194/255/194 139/200/139
f 196/257/196 197/258/197 198/259/198
f 199/260/199 200/261/200 201/262/201
f 150/211/150 144/205/144 202/263/202
f 145/206/145 199/260/199 203/264/203
f 146/207/146 196/257/196 204/265/204
f 142/203/142 147/208/147 205/266/205
f 155/216/155 148/209/148 137/198/137
f 132/193/132 206/267/206 207/268/207
f 150/211/150 208/269/208 209/270/209
f 145/206/145 152/213/152 200/261/200
f 146/207/146 153/214/153 197/258/197
f 154/215/154 210/271/210 205/266/205
f 155/216/155 211/272/211 212/273/212
f 149/210/149 207/268/207 213/274/213
f 151/212/151 209/270/209 214/275/214
f 158/219/158 215/276/215 200/261/200
f 159/220/159 216/277/216 197/258/197
f 154/215/154 160/221/160 217/278/217
f 161/222/161 212/273/212 218/279/218
f 166/227/166 156/217/156 213/274/213
f 168/229/168 157/218/157 214/275/214
f 162/223/162 219/280/219 215/276/215
f 159/220/159 163/224/163 220/281/220
f 160/221/160 164/225/164 221/282/221
f 172/233/172 165/226/165 218/279/218
f 166/227/166 222/283/222 223/284/223
f 168/229/168 224/285/224 225/286/225
f 162/223/162 143/204/143 226/287/226
f 163/224/163 170/231/170 227/288/227
f 171/232/171 228/289/228 221/282/221
f 144/205/144 172/233/172 229/290/229
f 167/228/167 223/284/223 230/291/230
f 174/235/174 169/230/169 225/286/225
f 175/236/175 231/292/231 227/288/227
f 171/232/171 176/237/176 232/293/232
f 177/238/177 173/234/173 230/291/230
f 174/235/174 233/294/233 234/295/234
f 179/240/179 235/296/235 231/292/231
f 180/241/180 236/297/236 232/293/232
f 184/245/184 177/238/177 237/298/237
f 178/239/178 234/295/234 238/299/238
f 182/243/182 239/300/239 235/296/235
f 180/241/180 183/244/183 240/301/240
f 184/245/184 241/302/241 242/303/242
f 181/242/181 238/299/238 243/304/243
f 187/248/187 244/305/244 239/300/239
f 188/249/188 245/306/245 240/301/240
f 192/253/192 185/246/185 242/303/242
f 186/247/186 243/304/243 246/307/246
f 187/248/187 190/251/190 247/308/247
f 188/249/188 191/252/191 248/309/248
f 192/253/192 249/310/249 250/311/250
f 189/250/189 246/307/246 251/312/251
f 190/251/190 67/73/67 252/313/252
f 195/256/195 253/314/253 248/309/248
f 138/199/138 193/254/193 250/311/250
f 139/200/139 194/255/194 251/312/251
f 66/72/66 254/315/254 252/313/252
f 195/256/195 64/70/64 255/316/255
f 135/196/135 138/199/138 256/317/256
f 139/200/139 257/318/257 134/195/134
f 140/201/140 203/264/203 254/315/254
f 141/202/141 204/265/204 255/316/255
f 142/203/142 258/319/258 226/287/226
f 259/320/259 260/321/260 261/322/261
f 262/323/262 263/324/263 264/325/264
f 210/271/210 265/326/265 266/327/266
f 212/273/212 211/272/211 267/328/267
f 207/268/207 268/329/268 259/320/259
f 209/270/209 269/330/269 270/331/270
f 215/276/215 271/332/271 201/262/201
f 216/277/216 272/333/272 198/259/198
f 210/271/210 217/278/217 273/334/273
f 218/279/218 212/273/212 262/323/262
f 222/283/222 213/274/213 259/320/259
f 214/275/214 270/331/270 274/335/274
f 215/276/215 219/280/219 275/336/275
f 216/277/216 220/281/220 276/337/276
f 217/278/217 221/282/221 277/338/277
f 218/279/218 278/339/278 279/340/279
f 222/283/222 280/341/280 281/342/281
f 224/285/224 274/335/274 282/343/282
f 219/280/219 226/287/226 283/344/283
f 227/288/227 284/345/284 276/337/276
f 228/289/228 285/346/285 277/338/277
f 202/263/202 229/290/229 279/340/279
f 223/284/223 281/342/281 286/347/286
f 233/294/233 225/286/225 282/343/282
f 227/288/227 231/292/231 287/348/287
f 228/289/228 232/293/232 288/349/288
f 237/298/237 230/291/230 286/347/286
f 234/295/234 233/294/233 289/350/289
f 235/296/235 290/351/290 287/348/287
f 232/293/232 236/297/236 291/352/291
f 237/298/237 292/353/292 293/354/293
f 234/295/234 294/355/294 295/356/295
f 235/296/235 239/300/239 296/357/296
f 236/297/236 240/301/240 297/358/297
f 241/302/241 293/354/293 298/359/298
f 238/299/238 295/356/295 299/360/299
f 244/305/244 300/361/300 296/357/296
f 245/306/245 301/362/301 297/358/297
f 249/310/249 242/303/242 298/359/298
f 243/304/243 299/360/299 302/363/302
f 244/305/244 247/308/247 303/364/303
f 245/306/245 248/309/248 304/365/304
f 249/310/249 305/366/305 306/367/306
f 246/307/246 302/363/302 307/368/307
f 252/313/252 308/369/308 303/364/303
f 248/309/248 253/314/253 309/370/309
f 256/317/256 250/311/250 306/367/306
f 257/318/257 251/312/251 307/368/307
f 254/315/254 310/371/310 308/369/308
f 253/314/253 255/316/255 311/372/311
f 136/197/136 256/317/256 312/373/312
f 257/318/257 313/374/313 314/375/314
f 203/264/203 315/376/315 310/371/310
f 204/265/204 316/377/316 311/372/311
f 258/319/258 317/378/317 283/344/283
f 137/198/137 136/197/136 318/379/318
f 206/267/206 134/195/134 314/375/314
f 208/269/208 202/263/202 319/380/319
f 199/260/199 320/381/320 315/376/315
f 196/257/196 321/382/321 316/377/316
f 258/319/258 205/266/205 266/327/266
f 211/272/211 137/198/137 322/383/322
f 206/267/206 323/384/323 268/329/268
f 208/269/208 324/385/324 269/330/269
f 325/386/325 326/387/326 327/388/327
f 328/389/328 329/390/329 330/391/330
f 270/331/270 331/392/331 332/393/332
f 275/336/275 328/389/328 333/394/333
f 276/337/276 325/386/325 334/395/334
f 273/334/273 277/338/277 335/396/335
f 278/339/278 264/325/264 336/397/336
f 280/341/280 261/322/261 337/398/337
f 274/335/274 332/393/332 338/399/338
f 283/344/283 329/390/329 328/389/328
f 284/345/284 326/387/326 325/386/325
f 285/346/285 339/400/339 335/396/335
f 279/340/279 336/397/336 340/401/340
f 281/342/281 337/398/337 341/402/341
f 282/343/282 338/399/338 342/403/342
f 287/348/287 343/404/343 326/387/326
f 288/349/288 344/405/344 339/400/339
f 286/347/286 341/402/341 345/406/345
f 289/350/289 342/403/342 346/407/346
f 290/351/290 347/408/347 343/404/343
f 291/352/291 348/409/348 344/405/344
f 292/353/292 345/406/345 349/410/349
f 294/355/294 346/407/346 350/411/350
f 296/357/296 351/412/351 347/408/347
f 297/358/297 352/413/352 348/409/348
f 293/354/293 349/410/349 353/414/353
f 295/356/295 350/411/350 354/415/354
f 300/361/300 355/416/355 351/412/351
f 301/362/301 356/417/356 352/413/352
f 305/366/305 298/359/298 353/414/353
f 299/360/299 354/415/354 357/418/357
f 303/364/303 358/419/358 355/416/355
f 301/362/301 304/365/304 359/420/359
f 305/366/305 360/421/360 361/422/361
f 302/363/302 357/418/357 362/423/362
f 308/369/308 363/424/363 358/419/358
f 309/370/309 364/425/364 359/420/359
f 306/367/306 361/422/361 365/426/365
f 307/368/307 362/423/362 366/427/366
f 310/371/310 367/428/367 363/424/363
f 309/370/309 311/372/311 368/429/368
f 312/373/312 365/426/365 369/430/369
f 313/374/313 366/427/366 370/431/370
f 315/376/315 371/432/371 367/428/367
f 316/377/316 372/433/372 368/429/368
f 317/378/317 373/434/373 329/390/329
f 318/379/318 369/430/369 374/435/374
f 314/375/314 370/431/370 375/436/375
f 319/380/319 340/401/340 376/437/376
f 315/376/315 320/381/320 377/438/377
f 321/382/321 378/439/378 372/433/372
f 317/378/317 266/327/266 379/440/379
f 322/383/322 374/435/374 380/441/380
f 323/384/323 375/436/375 381/442/381
f 324/385/324 376/437/376 382/443/382
f 201/262/201 383/444/383 377/438/377
f 321/382/321 198/259/198 384/445/384
f 265/326/265 385/446/385 379/440/379
f 267/328/267 380/441/380 263/324/263
f 268/329/268 381/442/381 260/321/260
f 269/330/269 382/443/382 331/392/331
f 271/332/271 333/394/333 383/444/383
f 272/333/272 334/395/334 384/445/384
f 273/334/273 386/447/386 385/446/385
f 387/448/387 388/449/388 389/450/389
f 390/451/390 391/452/391 392/453/392
f 339/400/339 393/454/393 394/455/394
f 336/397/336 395/456/395 396/457/396
f 337/398/337 397/458/397 390/451/390
f 338/399/338 398/459/398 387/448/387
f 343/404/343 399/460/399 327/388/327
f 339/400/339 344/405/344 400/461/400
f 341/402/341 390/451/390 401/462/401
f 342/403/342 387/448/387 402/463/402
f 347/408/347 403/464/403 399/460/399
f 348/409/348 404/465/404 400/461/400
f 349/410/349 345/406/345 401/462/401
f 346/407/346 402/463/402 405/466/405
f 351/412/351 406/467/406 403/464/403
f 348/409/348 352/413/352 407/468/407
f 353/414/353 349/410/349 408/469/408
f 350/411/350 405/466/405 409/470/409
f 355/416/355 410/471/410 406/467/406
f 356/417/356 411/472/411 407/468/407
f 360/421/360 353/414/353 412/473/412
f 354/415/354 409/470/409 413/474/413
f 358/419/358 414/475/414 410/471/410
f 359/420/359 415/476/415 411/472/411
f 360/421/360 416/477/416 417/478/417
f 357/418/357 413/474/413 418/479/418
f 363/424/363 419/480/419 414/475/414
f 364/425/364 420/481/420 415/476/415
f 365/426/365 361/422/361 417/478/417
f 362/423/362 418/479/418 421/482/421
f 367/428/367 422/483/422 419/480/419
f 368/429/368 423/484/423 420/481/420
f 369/430/369 365/426/365 424/485/424
f 366/427/366 421/482/421 425/486/425
f 371/432/371 426/487/426 422/483/422
f 372/433/372 427/488/427 423/484/423
f 373/434/373 428/489/428 330/391/330
f 374/435/374 369/430/369 429/490/429
f 375/436/375 370/431/370 425/486/425
f 376/437/376 340/401/340 396/457/396
f 371/432/371 377/438/377 430/491/430
f 372/433/372 378/439/378 431/492/431
f 373/434/373 379/440/379 432/493/432
f 374/435/374 433/494/433 434/495/434
f 375/436/375 435/496/435 436/497/436
f 376/437/376 437/498/437 438/499/438
f 377/438/377 383/444/383 439/500/439
f 384/445/384 440/501/440 431/492/431
f 385/446/385 441/502/441 432/493/432
f 380/441/380 434/495/434 442/503/442
f 381/442/381 436/497/436 443/504/443
f 382/443/382 438/499/438 444/505/444
f 333/394/333 445/506/445 439/500/439
f 334/395/334 446/507/446 440/501/440
f 386/447/386 447/508/447 441/502/441
f 263/324/263 442/503/442 448/509/448
f 261/322/261 260/321/260 443/504/443
f 331/392/331 444/505/444 449/510/449
f 328/389/328 450/511/450 445/506/445
f 334/395/334 325/386/325 451/512/451
f 386/447/386 335/396/335 394/455/394
f 264/325/264 448/509/448 395/456/395
f 261/322/261 452/513/452 397/458/397
f 332/393/332 449/510/449 398/459/398
f 453/514/453 454/515/454 455/516/455
f 456/517/456 457/518/457 458/519/458
f 399/460/399 403/464/403 459/520/459
f 404/465/404 453/514/453 460/521/460
f 401/462/401 392/453/392 461/522/461
f 402/463/402 389/450/389 462/523/462
f 406/467/406 456/517/456 459/520/459
f 404/465/404 407/468/407 454/515/454
f 408/469/408 461/522/461 463/524/463
f 405/466/405 462/523/462 464/525/464
f 410/471/410 465/526/465 456/517/456
f 411/472/411 466/527/466 454/515/454
f 412/473/412 463/524/463 467/528/467
f 409/470/409 464/525/464 468/529/468
f 414/475/414 469/530/469 465/526/465
f 415/476/415 470/531/470 466/527/466
f 417/478/417 416/477/416 467/528/467
f 413/474/413 468/529/468 471/532/471
f 419/480/419 472/533/472 469/530/469
f 415/476/415 420/481/420 473/534/473
f 417/478/417 474/535/474 475/536/475
f 418/479/418 471/532/471 476/537/476
f 422/483/422 477/538/477 472/533/472
f 423/484/423 478/539/478 473/534/473
f 424/485/424 475/536/475 479/540/479
f 421/482/421 476/537/476 480/541/480
f 426/487/426 481/542/481 477/538/477
f 423/484/423 427/488/427 482/543/482
f 330/391/330 428/489/428 483/544/483
f 429/490/429 479/540/479 484/545/484
f 425/486/425 480/541/480 485/546/485
f 396/457/396 486/547/486 487/548/487
f 430/491/430 488/549/488 481/542/481
f 431/492/431 489/550/489 482/543/482
f 432/493/432 490/551/490 483/544/483
f 433/494/433 484/545/484 491/552/491
f 435/496/435 485/546/485 492/553/492
f 437/498/437 487/548/487 493/554/493
f 439/500/439 494/555/494 488/549/488
f 440/501/440 495/556/495 489/550/489
f 432/493/432 441/502/441 496/557/496
f 434/495/434 491/552/491 497/558/497
f 436/497/436 492/553/492 498/559/498
f 438/499/438 493/554/493 499/560/499
f 445/506/445 500/561/500 494/555/494
f 446/507/446 501/562/501 495/556/495
f 447/508/447 502/563/502 496/557/496
f 442/503/442 497/558/497 503/564/503
f 443/504/443 498/559/498 504/565/504
f 444/505/444 499/560/499 505/566/505
f 450/511/450 506/567/506 500/561/500
f 451/512/451 507/568/507 501/562/501
f 394/455/394 508/569/508 502/563/502
f 448/509/448 503/564/503 509/570/509
f 452/513/452 504/565/504 510/571/510
f 449/510/449 505/566/505 511/572/511
f 330/391/330 512/573/512 506/567/506
f 327/388/327 513/574/513 507/568/507
f 393/454/393 514/575/514 508/569/508
f 395/456/395 509/570/509 486/547/486
f 397/458/397 510/571/510 391/452/391
f 398/459/398 511/572/511 388/449/388
f 399/460/399 515/576/515 513/574/513
f 400/461/400 460/521/460 514/575/514
f 516/577/516 517/578/517 518/579/518
f 519/580/519 520/581/520 521/582/521
f 461/522/461 522/583/522 520/581/520
f 462/523/462 523/584/523 516/577/516
f 465/526/465 524/585/524 457/518/457
f 466/527/466 525/586/525 455/516/455
f 463/524/463 520/581/520 519/580/519
f 464/525/464 516/577/516 526/587/526
f 469/530/469 527/588/527 524/585/524
f 466/527/466 470/531/470 528/589/528
f 467/528/467 519/580/519 529/590/529
f 468/529/468 526/587/526 530/591/530
f 472/533/472 531/592/531 527/588/527
f 470/531/470 473/534/473 532/593/532
f 475/536/475 474/535/474 529/590/529
f 471/532/471 530/591/530 533/594/533
f 477/538/477 534/595/534 531/592/531
f 478/539/478 535/596/535 532/593/532
f 475/536/475 536/597/536 537/598/537
f 476/537/476 533/594/533 538/599/538
f 481/542/481 539/600/539 534/595/534
f 482/543/482 540/601/540 535/596/535
f 483/544/483 541/602/541 542/603/542
f 479/540/479 537/598/537 543/604/543
f 480/541/480 538/599/538 544/605/544
f 487/548/487 486/547/486 545/606/545
f 481/542/481 488/549/488 546/607/546
f 482/543/482 489/550/489 547/608/547
f 483/544/483 490/551/490 548/609/548
f 484/545/484 543/604/543 549/610/549
f 485/546/485 544/605/544 550/611/550
f 487/548/487 551/612/551 552/613/552
f 488/549/488 494/555/494 553/614/553
f 495/556/495 554/615/554 547/608/547
f 490/551/490 496/557/496 555/616/555
f 497/558/497 491/552/491 549/610/549
f 492/553/492 550/611/550 556/617/556
f 493/554/493 552/613/552 557/618/557
f 500/561/500 558/619/558 553/614/553
f 501/562/501 559/620/559 554/615/554
f 502/563/502 560/621/560 555/616/555
f 503/564/503 497/558/497 561/622/561
f 504/565/504 498/559/498 556/617/556
f 505/566/505 499/560/499 557/618/557
f 506/567/506 562/623/562 558/619/558
f 507/568/507 563/624/563 559/620/559
f 502/563/502 508/569/508 564/625/564
f 503/564/503 565/626/565 566/627/566
f 510/571/510 504/565/504 567/628/567
f 505/566/505 568/629/568 569/630/569
f 512/573/512 542/603/542 562/623/562
f 507/568/507 513/574/513 570/631/570
f 514/575/514 571/632/571 564/625/564
f 509/570/509 566/627/566 545/606/545
f 510/571/510 572/633/572 573/634/573
f 511/572/511 569/630/569 574/635/574
f 515/576/515 575/636/575 570/631/570
f 514/575/514 460/521/460 576/637/576
f 392/453/392 391/452/391 573/634/573
f 389/450/389 388/449/388 574/635/574
f 459/520/459 458/519/458 575/636/575
f 460/521/460 453/514/453 577/638/577
f 461/522/461 392/453/392 578/639/578
f 389/450/389 579/640/579 523/584/523
f 580/641/580 518/579/518 581/642/581
f 582/643/582 583/644/583 584/645/584
f 527/588/527 585/646/585 586/647/586
f 525/586/525 528/589/528 587/648/587
f 519/580/519 588/649/588 589/650/589
f 526/587/526 518/579/518 590/651/590
f 531/592/531 591/652/591 585/646/585
f 532/593/532 592/653/592 587/648/587
f 536/597/536 529/590/529 589/650/589
f 530/591/530 590/651/590 593/654/593
f 534/595/534 594/655/594 591/652/591
f 532/593/532 535/596/535 595/656/595
f 536/597/536 596/657/596 597/658/597
f 533/594/533 593/654/593 598/659/598
f 539/600/539 583/644/583 594/655/594
f 540/601/540 599/660/599 595/656/595
f 541/602/541 600/661/600 601/662/601
f 537/598/537 597/658/597 602/663/602
f 538/599/538 598/659/598 603/664/603
f 551/612/551 545/606/545 604/665/604
f 539/600/539 546/607/546 605/666/605
f 540/601/540 547/608/547 582/643/582
f 541/602/541 548/609/548 606/667/606
f 543/604/543 602/663/602 607/668/607
f 544/605/544 603/664/603 608/669/608
f 551/612/551 609/670/609 581/642/581
f 546/607/546 553/614/553 610/671/610
f 547/608/547 554/615/554 611/672/611
f 555/616/555 612/673/612 606/667/606
f 561/622/561 549/610/549 607/668/607
f 550/611/550 608/669/608 613/674/613
f 552/613/552 581/642/581 614/675/614
f 558/619/558 615/676/615 610/671/610
f 559/620/559 616/677/616 611/672/611
f 560/621/560 617/678/617 612/673/612
f 561/622/561 618/679/618 619/680/619
f 567/628/567 556/617/556 613/674/613
f 557/618/557 614/675/614 620/681/620
f 558/619/558 562/623/562 584/645/584
f 559/620/559 563/624/563 621/682/621
f 560/621/560 564/625/564 622/683/622
f 566/627/566 565/626/565 619/680/619
f 567/628/567 623/684/623 580/641/580
f 568/629/568 620/681/620 624/685/624
f 542/603/542 601/662/601 584/645/584
f 563/624/563 570/631/570 625/686/625
f 571/632/571 626/687/626 622/683/622
f 566/627/566 627/688/627 604/665/604
f 572/633/572 580/641/580 628/689/628
f 569/630/569 624/685/624 629/690/629
f 570/631/570 575/636/575 630/691/630
f 571/632/571 576/637/576 631/692/631
f 573/634/573 628/689/628 632/693/632
f 574/635/574 629/690/629 633/694/633
f 458/519/458 634/695/634 630/691/630
f 576/637/576 577/638/577 635/696/635
f 522/583/522 578/639/578 632/693/632
f 523/584/523 579/640/579 633/694/633
f 457/518/457 636/697/636 634/695/634
f 455/516/455 637/698/637 635/696/635
f 522/583/522 638/699/638 521/582/521
f 523/584/523 639/700/639 517/578/517
f 524/585/524 586/647/586 636/697/636
f 525/586/525 640/701/640 637/698/637
f 96/702/96 1/1/1 3/3/3
f 96/703/96 3/4/3 5/6/5
f 118/704/118 5/6/5 6/7/6
f 118/704/118 6/7/6 8/9/8
f 129/705/129 8/9/8 9/10/9
f 129/705/129 9/10/9 11/12/11
f 11/12/11 10/11/10 13/14/13
f 13/14/13 12/13/12 15/16/15
f 15/16/15 14/15/14 17/18/17
f 17/706/17 16/19/16 19/21/19
f 109/707/109 19/21/19 20/22/20
f 109/707/109 20/22/20 22/24/22
f 22/24/22 21/23/21 24/26/24
f 24/26/24 23/25/23 26/28/26
f 75/708/75 26/28/26 27/29/27
f 75/708/75 27/29/27 29/31/29
f 29/31/29 28/30/28 31/33/31
f 31/709/31 30/34/30 33/36/33
f 33/36/33 32/35/32 35/38/35
f 113/710/113 35/38/35 36/39/36
f 113/710/113 36/39/36 38/41/38
f 38/41/38 37/40/37 40/43/40
f 40/43/40 39/42/39 42/45/42
f 42/45/42 41/44/41 44/47/44
f 46/711/46 44/47/44 45/48/45
f 48/52/48 46/49/46 47/51/47
f 98/712/98 48/52/48 49/53/49
f 98/712/98 49/53/49 51/55/51
f 51/55/51 50/54/50 53/57/53
f 53/57/53 52/56/52 55/59/55
f 25/94/25 23/60/23 57/62/57
f 59/64/59 58/63/58 1/1/1
f 55/59/55 54/58/54 59/64/59
f 40/185/40 42/65/42 61/67/61
f 195/256/195 62/68/62 64/70/64
f 85/105/85 65/71/65 67/73/67
f 127/187/127 59/74/59 68/76/68
f 41/97/41 39/77/39 70/79/70
f 129/189/129 11/80/11 72/82/72
f 2/134/2 58/83/58 74/85/74
f 26/191/26 75/86/75 77/88/77
f 10/102/10 9/89/9 79/91/79
f 42/65/42 44/92/44 60/66/60
f 27/106/27 25/94/25 81/95/81
f 87/109/87 43/96/43 70/79/70
f 71/81/71 11/80/11 82/99/82
f 76/87/76 75/86/75 83/101/83
f 12/114/12 10/102/10 84/103/84
f 44/92/44 46/104/46 80/93/80
f 28/118/28 27/106/27 86/107/86
f 91/119/91 45/108/45 87/109/87
f 82/99/82 13/98/13 88/111/88
f 29/100/29 31/112/31 83/101/83
f 14/125/14 12/114/12 90/115/90
f 46/104/46 48/116/48 85/105/85
f 100/131/100 30/117/30 86/107/86
f 47/135/47 45/108/45 92/120/92
f 88/111/88 15/110/15 93/122/93
f 31/112/31 33/123/33 89/113/89
f 16/141/16 14/125/14 95/126/95
f 1/75/1 96/127/96 68/76/68
f 48/116/48 98/129/98 65/71/65
f 32/145/32 30/117/30 101/132/101
f 111/153/111 3/133/3 74/85/74
f 49/150/49 47/135/47 102/136/102
f 17/121/17 19/137/19 93/122/93
f 33/123/33 35/139/35 94/124/94
f 18/157/18 16/141/16 105/142/105
f 98/129/98 51/143/51 99/130/99
f 34/161/34 32/145/32 107/146/107
f 96/127/96 5/147/5 97/128/97
f 120/166/120 50/149/50 102/136/102
f 103/138/103 19/137/19 110/152/110
f 4/168/4 3/133/3 112/154/112
f 35/139/35 113/155/113 104/140/104
f 20/172/20 18/157/18 115/158/115
f 51/143/51 53/159/53 106/144/106
f 36/177/36 34/161/34 117/162/117
f 5/147/5 118/163/118 108/148/108
f 126/181/126 52/165/52 120/166/120
f 109/151/109 22/167/22 110/152/110
f 6/184/6 4/168/4 121/169/121
f 113/155/113 38/170/38 114/156/114
f 21/186/21 20/172/20 123/173/123
f 53/159/53 55/174/55 116/160/116
f 128/188/128 37/176/37 117/162/117
f 119/164/119 118/163/118 125/179/125
f 130/190/130 54/180/54 126/181/126
f 22/167/22 24/182/24 62/68/62
f 131/192/131 7/183/7 121/169/121
f 38/170/38 40/185/40 122/171/122
f 23/60/23 21/186/21 56/61/56
f 55/174/55 59/74/59 124/175/124
f 69/78/69 39/77/39 128/188/128
f 125/179/125 8/178/8 72/82/72
f 73/84/73 58/83/58 130/190/130
f 63/69/63 24/182/24 77/88/77
f 9/89/9 7/183/7 78/90/78
f 206/267/206 132/193/132 134/195/134
f 148/209/148 135/196/135 137/198/137
f 135/196/135 92/120/92 138/199/138
f 56/61/56 123/173/123 133/194/133
f 65/71/65 99/130/99 66/72/66
f 63/69/63 77/88/77 64/70/64
f 68/76/68 97/128/97 143/204/143
f 148/209/148 102/136/102 135/196/135
f 132/193/132 57/62/57 133/194/133
f 150/211/150 111/153/111 144/205/144
f 99/130/99 106/144/106 140/201/140
f 77/88/77 76/87/76 141/202/141
f 142/203/142 97/128/97 147/208/147
f 155/216/155 120/166/120 148/209/148
f 81/95/81 57/62/57 149/210/149
f 112/154/112 111/153/111 151/212/151
f 145/206/145 106/144/106 152/213/152
f 146/207/146 76/87/76 153/214/153
f 108/148/108 119/164/119 147/208/147
f 161/222/161 126/181/126 155/216/155
f 86/107/86 81/95/81 156/217/156
f 121/169/121 112/154/112 157/218/157
f 116/160/116 124/175/124 152/213/152
f 83/101/83 89/113/89 153/214/153
f 119/164/119 125/179/125 154/215/154
f 165/226/165 130/190/130 161/222/161
f 166/227/166 100/131/100 156/217/156
f 168/229/168 131/192/131 157/218/157
f 124/175/124 127/187/127 158/219/158
f 159/220/159 89/113/89 163/224/163
f 160/221/160 125/179/125 164/225/164
f 172/233/172 73/84/73 165/226/165
f 101/132/101 100/131/100 167/228/167
f 78/90/78 131/192/131 169/230/169
f 127/187/127 68/76/68 162/223/162
f 94/124/94 104/140/104 163/224/163
f 72/82/72 71/81/71 164/225/164
f 74/85/74 73/84/73 144/205/144
f 107/146/107 101/132/101 173/234/173
f 79/91/79 78/90/78 174/235/174
f 104/140/104 114/156/114 170/231/170
f 171/232/171 71/81/71 176/237/176
f 117/162/117 107/146/107 177/238/177
f 84/103/84 79/91/79 178/239/178
f 114/156/114 122/171/122 175/236/175
f 176/237/176 82/99/82 180/241/180
f 184/245/184 128/188/128 177/238/177
f 90/115/90 84/103/84 181/242/181
f 122/171/122 61/67/61 179/240/179
f 180/241/180 88/111/88 183/244/183
f 69/78/69 128/188/128 185/246/185
f 95/126/95 90/115/90 186/247/186
f 61/67/61 60/66/60 182/243/182
f 93/122/93 103/138/103 183/244/183
f 192/253/192 70/79/70 185/246/185
f 105/142/105 95/126/95 189/250/189
f 60/66/60 80/93/80 187/248/187
f 188/249/188 103/138/103 191/252/191
f 87/109/87 70/79/70 193/254/193
f 115/158/115 105/142/105 194/255/194
f 190/251/190 80/93/80 67/73/67
f 191/252/191 110/152/110 195/256/195
f 138/199/138 91/119/91 193/254/193
f 123/173/123 115/158/115 139/200/139
f 321/382/321 196/257/196 198/259/198
f 320/381/320 199/260/199 201/262/201
f 208/269/208 150/211/150 202/263/202
f 140/201/140 145/206/145 203/264/203
f 141/202/141 146/207/146 204/265/204
f 258/319/258 142/203/142 205/266/205
f 211/272/211 155/216/155 137/198/137
f 149/210/149 132/193/132 207/268/207
f 151/212/151 150/211/150 209/270/209
f 199/260/199 145/206/145 200/261/200
f 196/257/196 146/207/146 197/258/197
f 147/208/147 154/215/154 205/266/205
f 161/222/161 155/216/155 212/273/212
f 156/217/156 149/210/149 213/274/213
f 157/218/157 151/212/151 214/275/214
f 152/213/152 158/219/158 200/261/200
f 153/214/153 159/220/159 197/258/197
f 210/271/210 154/215/154 217/278/217
f 165/226/165 161/222/161 218/279/218
f 222/283/222 166/227/166 213/274/213
f 224/285/224 168/229/168 214/275/214
f 158/219/158 162/223/162 215/276/215
f 216/277/216 159/220/159 220/281/220
f 217/278/217 160/221/160 221/282/221
f 229/290/229 172/233/172 218/279/218
f 167/228/167 166/227/166 223/284/223
f 169/230/169 168/229/168 225/286/225
f 219/280/219 162/223/162 226/287/226
f 220/281/220 163/224/163 227/288/227
f 164/225/164 171/232/171 221/282/221
f 202/263/202 144/205/144 229/290/229
f 173/234/173 167/228/167 230/291/230
f 233/294/233 174/235/174 225/286/225
f 170/231/170 175/236/175 227/288/227
f 228/289/228 171/232/171 232/293/232
f 237/298/237 177/238/177 230/291/230
f 178/239/178 174/235/174 234/295/234
f 175/236/175 179/240/179 231/292/231
f 176/237/176 180/241/180 232/293/232
f 241/302/241 184/245/184 237/298/237
f 181/242/181 178/239/178 238/299/238
f 179/240/179 182/243/182 235/296/235
f 236/297/236 180/241/180 240/301/240
f 185/246/185 184/245/184 242/303/242
f 186/247/186 181/242/181 243/304/243
f 182/243/182 187/248/187 239/300/239
f 183/244/183 188/249/188 240/301/240
f 249/310/249 192/253/192 242/303/242
f 189/250/189 186/247/186 246/307/246
f 244/305/244 187/248/187 247/308/247
f 245/306/245 188/249/188 248/309/248
f 193/254/193 192/253/192 250/311/250
f 194/255/194 189/250/189 251/312/251
f 247/308/247 190/251/190 252/313/252
f 191/252/191 195/256/195 248/309/248
f 256/317/256 138/199/138 250/311/250
f 257/318/257 139/200/139 251/312/251
f 67/73/67 66/72/66 252/313/252
f 253/314/253 195/256/195 255/316/255
f 136/197/136 135/196/135 256/317/256
f 133/194/133 139/200/139 134/195/134
f 66/72/66 140/201/140 254/315/254
f 64/70/64 141/202/141 255/316/255
f 143/204/143 142/203/142 226/287/226
f 280/341/280 259/320/259 261/322/261
f 278/339/278 262/323/262 264/325/264
f 205/266/205 210/271/210 266/327/266
f 262/323/262 212/273/212 267/328/267
f 213/274/213 207/268/207 259/320/259
f 214/275/214 209/270/209 270/331/270
f 200/261/200 215/276/215 201/262/201
f 197/258/197 216/277/216 198/259/198
f 265/326/265 210/271/210 273/334/273
f 278/339/278 218/279/218 262/323/262
f 280/341/280 222/283/222 259/320/259
f 224/285/224 214/275/214 274/335/274
f 271/332/271 215/276/215 275/336/275
f 272/333/272 216/277/216 276/337/276
f 273/334/273 217/278/217 277/338/277
f 229/290/229 218/279/218 279/340/279
f 223/284/223 222/283/222 281/342/281
f 225/286/225 224/285/224 282/343/282
f 275/336/275 219/280/219 283/344/283
f 220/281/220 227/288/227 276/337/276
f 221/282/221 228/289/228 277/338/277
f 319/380/319 202/263/202 279/340/279
f 230/291/230 223/284/223 286/347/286
f 289/350/289 233/294/233 282/343/282
f 284/345/284 227/288/227 287/348/287
f 285/346/285 228/289/228 288/349/288
f 292/353/292 237/298/237 286/347/286
f 294/355/294 234/295/234 289/350/289
f 231/292/231 235/296/235 287/348/287
f 288/349/288 232/293/232 291/352/291
f 241/302/241 237/298/237 293/354/293
f 238/299/238 234/295/234 295/356/295
f 290/351/290 235/296/235 296/357/296
f 291/352/291 236/297/236 297/358/297
f 242/303/242 241/302/241 298/359/298
f 243/304/243 238/299/238 299/360/299
f 239/300/239 244/305/244 296/357/296
f 240/301/240 245/306/245 297/358/297
f 305/366/305 249/310/249 298/359/298
f 246/307/246 243/304/243 302/363/302
f 300/361/300 244/305/244 303/364/303
f 301/362/301 245/306/245 304/365/304
f 250/311/250 249/310/249 306/367/306
f 251/312/251 246/307/246 307/368/307
f 247/308/247 252/313/252 303/364/303
f 304/365/304 248/309/248 309/370/309
f 312/373/312 256/317/256 306/367/306
f 313/374/313 257/318/257 307/368/307
f 252/313/252 254/315/254 308/369/308
f 309/370/309 253/314/253 311/372/311
f 318/379/318 136/197/136 312/373/312
f 134/195/134 257/318/257 314/375/314
f 254/315/254 203/264/203 310/371/310
f 255/316/255 204/265/204 311/372/311
f 226/287/226 258/319/258 283/344/283
f 322/383/322 137/198/137 318/379/318
f 323/384/323 206/267/206 314/375/314
f 324/385/324 208/269/208 319/380/319
f 203/264/203 199/260/199 315/376/315
f 204/265/204 196/257/196 316/377/316
f 317/378/317 258/319/258 266/327/266
f 267/328/267 211/272/211 322/383/322
f 207/268/207 206/267/206 268/329/268
f 209/270/209 208/269/208 269/330/269
f 451/512/451 325/386/325 327/388/327
f 450/511/450 328/389/328 330/391/330
f 274/335/274 270/331/270 332/393/332
f 271/332/271 275/336/275 333/394/333
f 272/333/272 276/337/276 334/395/334
f 386/447/386 273/334/273 335/396/335
f 279/340/279 278/339/278 336/397/336
f 281/342/281 280/341/280 337/398/337
f 282/343/282 274/335/274 338/399/338
f 275/336/275 283/344/283 328/389/328
f 276/337/276 284/345/284 325/386/325
f 277/338/277 285/346/285 335/396/335
f 319/380/319 279/340/279 340/401/340
f 286/347/286 281/342/281 341/402/341
f 289/350/289 282/343/282 342/403/342
f 284/345/284 287/348/287 326/387/326
f 285/346/285 288/349/288 339/400/339
f 292/353/292 286/347/286 345/406/345
f 294/355/294 289/350/289 346/407/346
f 287/348/287 290/351/290 343/404/343
f 288/349/288 291/352/291 344/405/344
f 293/354/293 292/353/292 349/410/349
f 295/356/295 294/355/294 350/411/350
f 290/351/290 296/357/296 347/408/347
f 291/352/291 297/358/297 348/409/348
f 298/359/298 293/354/293 353/414/353
f 299/360/299 295/356/295 354/415/354
f 296/357/296 300/361/300 351/412/351
f 297/358/297 301/362/301 352/413/352
f 360/421/360 305/366/305 353/414/353
f 302/363/302 299/360/299 357/418/357
f 300/361/300 303/364/303 355/416/355
f 356/417/356 301/362/301 359/420/359
f 306/367/306 305/366/305 361/422/361
f 307/368/307 302/363/302 362/423/362
f 303/364/303 308/369/308 358/419/358
f 304/365/304 309/370/309 359/420/359
f 312/373/312 306/367/306 365/426/365
f 313/374/313 307/368/307 366/427/366
f 308/369/308 310/371/310 363/424/363
f 364/425/364 309/370/309 368/429/368
f 318/379/318 312/373/312 369/430/369
f 314/375/314 313/374/313 370/431/370
f 310/371/310 315/376/315 367/428/367
f 311/372/311 316/377/316 368/429/368
f 283/344/283 317/378/317 329/390/329
f 322/383/322 318/379/318 374/435/374
f 323/384/323 314/375/314 375/436/375
f 324/385/324 319/380/319 376/437/376
f 371/432/371 315/376/315 377/438/377
f 316/377/316 321/382/321 372/433/372
f 373/434/373 317/378/317 379/440/379
f 267/328/267 322/383/322 380/441/380
f 268/329/268 323/384/323 381/442/381
f 269/330/269 324/385/324 382/443/382
f 320/381/320 201/262/201 377/438/377
f 378/439/378 321/382/321 384/445/384
f 266/327/266 265/326/265 379/440/379
f 262/323/262 267/328/267 263/324/263
f 259/320/259 268/329/268 260/321/260
f 270/331/270 269/330/269 331/392/331
f 201/262/201 271/332/271 383/444/383
f 198/259/198 272/333/272 384/445/384
f 265/326/265 273/334/273 385/446/385
f 402/463/402 387/448/387 389/450/389
f 401/462/401 390/451/390 392/453/392
f 335/396/335 339/400/339 394/455/394
f 340/401/340 336/397/336 396/457/396
f 341/402/341 337/398/337 390/451/390
f 342/403/342 338/399/338 387/448/387
f 326/387/326 343/404/343 327/388/327
f 393/454/393 339/400/339 400/461/400
f 345/406/345 341/402/341 401/462/401
f 346/407/346 342/403/342 402/463/402
f 343/404/343 347/408/347 399/460/399
f 344/405/344 348/409/348 400/461/400
f 408/469/408 349/410/349 401/462/401
f 350/411/350 346/407/346 405/466/405
f 347/408/347 351/412/351 403/464/403
f 404/465/404 348/409/348 407/468/407
f 412/473/412 353/414/353 408/469/408
f 354/415/354 350/411/350 409/470/409
f 351/412/351 355/416/355 406/467/406
f 352/413/352 356/417/356 407/468/407
f 416/477/416 360/421/360 412/473/412
f 357/418/357 354/415/354 413/474/413
f 355/416/355 358/419/358 410/471/410
f 356/417/356 359/420/359 411/472/411
f 361/422/361 360/421/360 417/478/417
f 362/423/362 357/418/357 418/479/418
f 358/419/358 363/424/363 414/475/414
f 359/420/359 364/425/364 415/476/415
f 424/485/424 365/426/365 417/478/417
f 366/427/366 362/423/362 421/482/421
f 363/424/363 367/428/367 419/480/419
f 364/425/364 368/429/368 420/481/420
f 429/490/429 369/430/369 424/485/424
f 370/431/370 366/427/366 425/486/425
f 367/428/367 371/432/371 422/483/422
f 368/429/368 372/433/372 423/484/423
f 329/390/329 373/434/373 330/391/330
f 433/494/433 374/435/374 429/490/429
f 435/496/435 375/436/375 425/486/425
f 437/498/437 376/437/376 396/457/396
f 426/487/426 371/432/371 430/491/430
f 427/488/427 372/433/372 431/492/431
f 428/489/428 373/434/373 432/493/432
f 380/441/380 374/435/374 434/495/434
f 381/442/381 375/436/375 436/497/436
f 382/443/382 376/437/376 438/499/438
f 430/491/430 377/438/377 439/500/439
f 378/439/378 384/445/384 431/492/431
f 379/440/379 385/446/385 432/493/432
f 263/324/263 380/441/380 442/503/442
f 260/321/260 381/442/381 443/504/443
f 331/392/331 382/443/382 444/505/444
f 383/444/383 333/394/333 439/500/439
f 384/445/384 334/395/334 440/501/440
f 385/446/385 386/447/386 441/502/441
f 264/325/264 263/324/263 448/509/448
f 452/513/452 261/322/261 443/504/443
f 332/393/332 331/392/331 449/510/449
f 333/394/333 328/389/328 445/506/445
f 446/507/446 334/395/334 451/512/451
f 447/508/447 386/447/386 394/455/394
f 336/397/336 264/325/264 395/456/395
f 337/398/337 261/322/261 397/458/397
f 338/399/338 332/393/332 398/459/398
f 577/638/577 453/514/453 455/516/455
f 459/520/459 456/517/456 458/519/458
f 515/576/515 399/460/399 459/520/459
f 400/461/400 404/465/404 460/521/460
f 408/469/408 401/462/401 461/522/461
f 405/466/405 402/463/402 462/523/462
f 403/464/403 406/467/406 459/520/459
f 453/514/453 404/465/404 454/515/454
f 412/473/412 408/469/408 463/524/463
f 409/470/409 405/466/405 464/525/464
f 406/467/406 410/471/410 456/517/456
f 407/468/407 411/472/411 454/515/454
f 416/477/416 412/473/412 467/528/467
f 413/474/413 409/470/409 468/529/468
f 410/471/410 414/475/414 465/526/465
f 411/472/411 415/476/415 466/527/466
f 474/535/474 417/478/417 467/528/467
f 418/479/418 413/474/413 471/532/471
f 414/475/414 419/480/419 469/530/469
f 470/531/470 415/476/415 473/534/473
f 424/485/424 417/478/417 475/536/475
f 421/482/421 418/479/418 476/537/476
f 419/480/419 422/483/422 472/533/472
f 420/481/420 423/484/423 473/534/473
f 429/490/429 424/485/424 479/540/479
f 425/486/425 421/482/421 480/541/480
f 422/483/422 426/487/426 477/538/477
f 478/539/478 423/484/423 482/543/482
f 512/573/512 330/391/330 483/544/483
f 433/494/433 429/490/429 484/545/484
f 435/496/435 425/486/425 485/546/485
f 437/498/437 396/457/396 487/548/487
f 426/487/426 430/491/430 481/542/481
f 427/488/427 431/492/431 482/543/482
f 428/489/428 432/493/432 483/544/483
f 434/495/434 433/494/433 491/552/491
f 436/497/436 435/496/435 492/553/492
f 438/499/438 437/498/437 493/554/493
f 430/491/430 439/500/439 488/549/488
f 431/492/431 440/501/440 489/550/489
f 490/551/490 432/493/432 496/557/496
f 442/503/442 434/495/434 497/558/497
f 443/504/443 436/497/436 498/559/498
f 444/505/444 438/499/438 499/560/499
f 439/500/439 445/506/445 494/555/494
f 440/501/440 446/507/446 495/556/495
f 441/502/441 447/508/447 496/557/496
f 448/509/448 442/503/442 503/564/503
f 452/513/452 443/504/443 504/565/504
f 449/510/449 444/505/444 505/566/505
f 445/506/445 450/511/450 500/561/500
f 446/507/446 451/512/451 501/562/501
f 447/508/447 394/455/394 502/563/502
f 395/456/395 448/509/448 509/570/509
f 397/458/397 452/513/452 510/571/510
f 398/459/398 449/510/449 511/572/511
f 450/511/450 330/391/330 506/567/506
f 451/512/451 327/388/327 507/568/507
f 394/455/394 393/454/393 508/569/508
f 396/457/396 395/456/395 486/547/486
f 390/451/390 397/458/397 391/452/391
f 387/448/387 398/459/398 388/449/388
f 327/388/327 399/460/399 513/574/513
f 393/454/393 400/461/400 514/575/514
f 526/587/526 516/577/516 518/579/518
f 588/649/588 519/580/519 521/582/521
f 463/524/463 461/522/461 520/581/520
f 464/525/464 462/523/462 516/577/516
f 456/517/456 465/526/465 457/518/457
f 454/515/454 466/527/466 455/516/455
f 467/528/467 463/524/463 519/580/519
f 468/529/468 464/525/464 526/587/526
f 465/526/465 469/530/469 524/585/524
f 525/586/525 466/527/466 528/589/528
f 474/535/474 467/528/467 529/590/529
f 471/532/471 468/529/468 530/591/530
f 469/530/469 472/533/472 527/588/527
f 528/589/528 470/531/470 532/593/532
f 536/597/536 475/536/475 529/590/529
f 476/537/476 471/532/471 533/594/533
f 472/533/472 477/538/477 531/592/531
f 473/534/473 478/539/478 532/593/532
f 479/540/479 475/536/475 537/598/537
f 480/541/480 476/537/476 538/599/538
f 477/538/477 481/542/481 534/595/534
f 478/539/478 482/543/482 535/596/535
f 512/573/512 483/544/483 542/603/542
f 484/545/484 479/540/479 543/604/543
f 485/546/485 480/541/480 544/605/544
f 551/612/551 487/548/487 545/606/545
f 539/600/539 481/542/481 546/607/546
f 540/601/540 482/543/482 547/608/547
f 541/602/541 483/544/483 548/609/548
f 491/552/491 484/545/484 549/610/549
f 492/553/492 485/546/485 550/611/550
f 493/554/493 487/548/487 552/613/552
f 546/607/546 488/549/488 553/614/553
f 489/550/489 495/556/495 547/608/547
f 548/609/548 490/551/490 555/616/555
f 561/622/561 497/558/497 549/610/549
f 498/559/498 492/553/492 556/617/556
f 499/560/499 493/554/493 557/618/557
f 494/555/494 500/561/500 553/614/553
f 495/556/495 501/562/501 554/615/554
f 496/557/496 502/563/502 555/616/555
f 565/626/565 503/564/503 561/622/561
f 567/628/567 504/565/504 556/617/556
f 568/629/568 505/566/505 557/618/557
f 500/561/500 506/567/506 558/619/558
f 501/562/501 507/568/507 559/620/559
f 560/621/560 502/563/502 564/625/564
f 509/570/509 503/564/503 566/627/566
f 572/633/572 510/571/510 567/628/567
f 511/572/511 505/566/505 569/630/569
f 506/567/506 512/573/512 562/623/562
f 563/624/563 507/568/507 570/631/570
f 508/569/508 514/575/514 564/625/564
f 486/547/486 509/570/509 545/606/545
f 391/452/391 510/571/510 573/634/573
f 388/449/388 511/572/511 574/635/574
f 513/574/513 515/576/515 570/631/570
f 571/632/571 514/575/514 576/637/576
f 578/639/578 392/453/392 573/634/573
f 579/640/579 389/450/389 574/635/574
f 515/576/515 459/520/459 575/636/575
f 576/637/576 460/521/460 577/638/577
f 522/583/522 461/522/461 578/639/578
f 462/523/462 389/450/389 523/584/523
f 581/642/581 609/670/609 619/680/619
f 604/665/604 627/688/627 619/680/619
f 619/680/619 618/679/618 607/668/607
f 607/668/607 602/663/602 619/680/619
f 597/658/597 596/657/596 589/650/589
f 589/650/589 588/649/588 597/658/597
f 521/582/521 638/699/638 580/641/580
f 632/693/632 628/689/628 580/641/580
f 580/641/580 623/684/623 603/664/603
f 613/674/613 608/669/608 603/664/603
f 603/664/603 598/659/598 593/654/593
f 593/654/593 590/651/590 518/579/518
f 518/579/518 517/578/517 639/700/639
f 639/700/639 633/694/633 629/690/629
f 629/690/629 624/685/624 620/681/620
f 620/681/620 614/675/614 581/642/581
f 609/670/609 604/665/604 619/680/619
f 619/680/619 602/663/602 597/658/597
f 597/658/597 588/649/588 521/582/521
f 638/699/638 632/693/632 580/641/580
f 623/684/623 613/674/613 603/664/603
f 603/664/603 593/654/593 580/641/580
f 518/579/518 639/700/639 581/642/581
f 629/690/629 620/681/620 581/642/581
f 581/642/581 619/680/619 597/658/597
f 597/658/597 521/582/521 580/641/580
f 580/641/580 593/654/593 518/579/518
f 639/700/639 629/690/629 581/642/581
f 581/642/581 597/658/597 580/641/580
f 584/645/584 601/662/601 600/661/600
f 600/661/600 606/667/606 612/673/612
f 612/673/612 617/678/617 631/692/631
f 622/683/622 626/687/626 631/692/631
f 631/692/631 635/696/635 637/698/637
f 637/698/637 640/701/640 631/692/631
f 587/648/587 592/653/592 582/643/582
f 595/656/595 599/660/599 582/643/582
f 582/643/582 611/672/611 616/677/616
f 616/677/616 621/682/621 625/686/625
f 625/686/625 630/691/630 634/695/634
f 634/695/634 636/697/636 586/647/586
f 586/647/586 585/646/585 583/644/583
f 591/652/591 594/655/594 583/644/583
f 583/644/583 605/666/605 610/671/610
f 610/671/610 615/676/615 583/644/583
f 584/645/584 600/661/600 631/692/631
f 617/678/617 622/683/622 631/692/631
f 631/692/631 640/701/640 587/648/587
f 592/653/592 595/656/595 582/643/582
f 582/643/582 616/677/616 586/647/586
f 625/686/625 634/695/634 586/647/586
f 585/646/585 591/652/591 583/644/583
f 583/644/583 615/676/615 584/645/584
f 600/661/600 612/673/612 631/692/631
f 631/692/631 587/648/587 582/643/582
f 616/677/616 625/686/625 586/647/586
f 586/647/586 583/644/583 582/643/582
f 584/645/584 631/692/631 582/643/582
f 524/585/524 527/588/527 586/647/586
f 640/701/640 525/586/525 587/648/587
f 529/590/529 519/580/519 589/650/589
f 530/591/530 526/587/526 590/651/590
f 527/588/527 531/592/531 585/646/585
f 528/589/528 532/593/532 587/648/587
f 596/657/596 536/597/536 589/650/589
f 533/594/533 530/591/530 593/654/593
f 531/592/531 534/595/534 591/652/591
f 592/653/592 532/593/532 595/656/595
f 537/598/537 536/597/536 597/658/597
f 538/599/538 533/594/533 598/659/598
f 534/595/534 539/600/539 594/655/594
f 535/596/535 540/601/540 595/656/595
f 542/603/542 541/602/541 601/662/601
f 543/604/543 537/598/537 602/663/602
f 544/605/544 538/599/538 603/664/603
f 609/670/609 551/612/551 604/665/604
f 583/644/583 539/600/539 605/666/605
f 599/660/599 540/601/540 582/643/582
f 600/661/600 541/602/541 606/667/606
f 549/610/549 543/604/543 607/668/607
f 550/611/550 544/605/544 608/669/608
f 552/613/552 551/612/551 581/642/581
f 605/666/605 546/607/546 610/671/610
f 582/643/582 547/608/547 611/672/611
f 548/609/548 555/616/555 606/667/606
f 618/679/618 561/622/561 607/668/607
f 556/617/556 550/611/550 613/674/613
f 557/618/557 552/613/552 614/675/614
f 553/614/553 558/619/558 610/671/610
f 554/615/554 559/620/559 611/672/611
f 555/616/555 560/621/560 612/673/612
f 565/626/565 561/622/561 619/680/619
f 623/684/623 567/628/567 613/674/613
f 568/629/568 557/618/557 620/681/620
f 615/676/615 558/619/558 584/645/584
f 616/677/616 559/620/559 621/682/621
f 617/678/617 560/621/560 622/683/622
f 627/688/627 566/627/566 619/680/619
f 572/633/572 567/628/567 580/641/580
f 569/630/569 568/629/568 624/685/624
f 562/623/562 542/603/542 584/645/584
f 621/682/621 563/624/563 625/686/625
f 564/625/564 571/632/571 622/683/622
f 545/606/545 566/627/566 604/665/604
f 573/634/573 572/633/572 628/689/628
f 574/635/574 569/630/569 629/690/629
f 625/686/625 570/631/570 630/691/630
f 626/687/626 571/632/571 631/692/631
f 578/639/578 573/634/573 632/693/632
f 579/640/579 574/635/574 633/694/633
f 575/636/575 458/519/458 630/691/630
f 631/692/631 576/637/576 635/696/635
f 638/699/638 522/583/522 632/693/632
f 639/700/639 523/584/523 633/694/633
f 458/519/458 457/518/457 634/695/634
f 577/638/577 455/516/455 635/696/635
f 520/581/520 522/583/522 521/582/521
f 516/577/516 523/584/523 517/578/517
f 457/518/457 524/585/524 636/697/636
f 455/516/455 525/586/525 637/698/637
