# Blender v3.0.1 OBJ File: ''
# www.blender.org
mtllib evo.mtl
o Cube.002
v -0.645059 0.775301 0.525448
v -0.401857 1.098101 0.496553
v -0.401848 1.098096 0.367853
v -0.173848 0.688895 0.367885
v -0.173867 0.688905 0.626785
v 0.184433 0.688905 0.626811
v 0.655541 0.775301 0.525542
v 0.184452 0.688895 0.367911
v 0.412452 1.098096 0.367912
v 0.412443 1.098101 0.496612
v 0.140941 1.155501 0.525290
v -0.130459 1.155501 0.525270
v -0.645043 0.775292 0.303748
v 0.655557 0.775292 0.303842
v -0.522163 -0.822082 0.737208
v -0.555645 -0.759492 0.483903
v -0.551744 -0.802993 0.475005
v -0.544364 -0.866283 0.738408
v -0.003966 -0.873282 0.767847
v -0.003764 -0.822782 0.747445
v -0.002245 -0.754593 0.484943
v -0.519231 -0.700100 0.281203
v -0.000730 -0.696101 0.271841
v -0.000527 -0.732601 0.233642
v -0.524129 -0.739701 0.262904
v 0.569537 -0.822082 0.737587
v 0.591636 -0.866283 0.738790
v 0.594555 -0.802993 0.475288
v 0.605955 -0.759492 0.484087
v 0.555670 -0.700100 0.281281
v 0.560671 -0.739701 0.262983
v -0.522162 -0.905884 0.720111
v -0.530044 -0.846493 0.466208
v -0.002244 -0.851292 0.465346
v -0.003763 -0.909783 0.729748
v -0.502029 -0.783900 0.264108
v -0.000729 -0.783200 0.254144
v 0.569538 -0.905884 0.720490
v 0.563656 -0.846493 0.466387
v 0.538471 -0.783900 0.264283
v -0.597662 -0.028620 0.622758
v -0.622945 0.020272 0.390454
v -0.647944 -0.023228 0.381654
v -0.606162 -0.072420 0.623259
v -0.400764 -0.077819 0.650174
v -0.400462 -0.028919 0.632172
v -0.398045 0.025171 0.391571
v -0.631528 0.066062 0.157552
v -0.395527 0.069463 0.148969
v -0.395225 0.031361 0.113271
v -0.639827 0.025963 0.140053
v -0.203062 -0.028620 0.623087
v -0.194862 -0.072420 0.623489
v -0.148044 -0.023228 0.381790
v -0.173045 0.020272 0.390687
v -0.159728 0.066062 0.157586
v -0.151327 0.025963 0.140088
v -0.597660 -0.112421 0.605761
v -0.622944 -0.066730 0.372758
v -0.398044 -0.071530 0.371874
v -0.400461 -0.115920 0.614476
v -0.631527 -0.017738 0.140555
v -0.395526 -0.017539 0.131272
v -0.203060 -0.112421 0.606090
v -0.173044 -0.066730 0.372990
v -0.159727 -0.017738 0.140589
v -0.492179 -0.069271 0.828533
v -0.503174 -0.051674 0.749632
v -0.515473 -0.090374 0.741732
v -0.496179 -0.107071 0.823934
v -0.391880 -0.108970 0.833142
v -0.391980 -0.068370 0.831841
v -0.392474 -0.047374 0.750540
v -0.506068 -0.037077 0.670231
v -0.393068 -0.034977 0.667439
v -0.393166 -0.071777 0.650441
v -0.510167 -0.073677 0.659632
v -0.291779 -0.069271 0.828548
v -0.287679 -0.107071 0.823949
v -0.269573 -0.090374 0.741750
v -0.281874 -0.051674 0.749648
v -0.280068 -0.037077 0.670247
v -0.275967 -0.073677 0.659649
v -0.492178 -0.143671 0.813336
v -0.503172 -0.129074 0.733935
v -0.392472 -0.133374 0.733043
v -0.391978 -0.145771 0.816143
v -0.506067 -0.111477 0.655034
v -0.393067 -0.112277 0.651742
v -0.291778 -0.143671 0.813351
v -0.281872 -0.129074 0.733951
v -0.280067 -0.111477 0.655050
v 0.285921 -0.068471 0.823289
v 0.273527 -0.051174 0.744488
v 0.261127 -0.090374 0.736588
v 0.281821 -0.106571 0.818791
v 0.386021 -0.103471 0.827898
v 0.386021 -0.062871 0.826697
v 0.385327 -0.041874 0.745396
v 0.269433 -0.036277 0.665087
v 0.384733 -0.029477 0.662295
v 0.384634 -0.066278 0.645297
v 0.265333 -0.073077 0.654388
v 0.486021 -0.058971 0.823303
v 0.490121 -0.096671 0.818805
v 0.509527 -0.079374 0.736606
v 0.497127 -0.041274 0.744504
v 0.500033 -0.026777 0.665103
v 0.504133 -0.063177 0.654405
v 0.285922 -0.142971 0.808192
v 0.273528 -0.128474 0.728791
v 0.385328 -0.127874 0.727899
v 0.386022 -0.140271 0.810900
v 0.269434 -0.110777 0.649890
v 0.384734 -0.106878 0.646598
v 0.486022 -0.133471 0.808206
v 0.497128 -0.118574 0.728807
v 0.500034 -0.101277 0.649906
v 0.195939 -0.028620 0.617916
v 0.163356 0.020272 0.385511
v 0.138856 -0.023228 0.376611
v 0.187839 -0.072420 0.618317
v 0.384537 -0.077819 0.645231
v 0.384438 -0.028919 0.627229
v 0.383455 0.025171 0.386527
v 0.146972 0.066062 0.152408
v 0.382473 0.069463 0.143825
v 0.382376 0.031360 0.108127
v 0.138774 0.025961 0.134909
v 0.572839 -0.028620 0.617943
v 0.581039 -0.072420 0.618345
v 0.628056 -0.023228 0.376647
v 0.603655 0.020272 0.385543
v 0.618072 0.066062 0.152442
v 0.626274 0.025961 0.134944
v 0.195940 -0.112421 0.600819
v 0.163357 -0.066730 0.367815
v 0.383457 -0.071530 0.366831
v 0.384439 -0.115920 0.609532
v 0.146974 -0.017738 0.135312
v 0.382474 -0.017539 0.126129
v 0.572840 -0.112421 0.600846
v 0.603657 -0.066730 0.367846
v 0.618074 -0.017738 0.135346
v 0.347841 -1.575330 0.008113
v 0.347841 -0.741534 -0.073023
v 0.489829 -0.741534 -0.073023
v 0.489829 -1.575330 0.008113
v 0.489829 -0.817811 0.344829
v 0.489829 -1.470654 0.344829
v 0.347841 -1.470654 0.344829
v 0.347841 -0.817811 0.344829
v -0.490239 -1.575330 0.008113
v -0.490239 -0.741534 -0.073023
v -0.348251 -0.741534 -0.073023
v -0.348251 -1.575330 0.008113
v -0.348251 -0.817811 0.344829
v -0.348251 -1.470654 0.344829
v -0.490239 -1.470654 0.344829
v -0.490239 -0.817811 0.344829
v 0.347841 1.032198 0.072110
v 0.347841 2.056402 -0.142901
v 0.489829 2.056402 -0.142901
v 0.489829 1.032198 0.072110
v 0.489829 1.842323 0.394220
v 0.489829 1.219355 0.437249
v 0.347841 1.219355 0.437249
v 0.347841 1.842323 0.394220
v -0.490239 1.032198 0.072110
v -0.490239 2.056402 -0.142901
v -0.348251 2.056402 -0.142901
v -0.348251 1.032198 0.072110
v -0.348251 1.842323 0.394220
v -0.348251 1.219355 0.437249
v -0.490239 1.219355 0.437249
v -0.490239 1.842323 0.394220
v -0.813183 0.901772 0.601327
v -0.764247 0.895740 0.585215
v -0.774114 0.949961 0.575331
v -0.858302 0.946629 0.600452
v -0.872422 0.888286 0.658172
v -0.902669 0.936477 0.637126
v -0.923013 0.864162 0.683236
v -0.942256 0.921846 0.653297
v -0.983619 0.818616 0.671745
v -0.989012 0.886020 0.648963
v -0.843270 0.906000 0.510525
v -0.877712 0.949357 0.541870
v -0.793002 0.955198 0.516748
v -0.793525 0.903859 0.494413
v -0.924022 0.886033 0.503808
v -0.935959 0.935024 0.537535
v -0.972407 0.849060 0.528871
v -0.974122 0.912103 0.553706
v -1.012674 0.809734 0.580942
v -1.007757 0.880289 0.590380
v 0.776793 0.949961 0.575331
v 0.766926 0.895739 0.585215
v 0.815861 0.901772 0.601327
v 0.860981 0.946629 0.600452
v 0.875101 0.888286 0.658172
v 0.905348 0.936477 0.637126
v 0.925693 0.864161 0.683236
v 0.944934 0.921846 0.653297
v 0.986298 0.818616 0.671745
v 0.991691 0.886020 0.648963
v 0.795681 0.955198 0.516748
v 0.880392 0.949357 0.541870
v 0.845948 0.906000 0.510525
v 0.796204 0.903859 0.494413
v 0.938639 0.935024 0.537535
v 0.926701 0.886033 0.503808
v 0.976801 0.912103 0.553706
v 0.975085 0.849060 0.528871
v 1.010436 0.880289 0.590380
v 1.015353 0.809734 0.580942
v 0.541942 -1.973966 -0.219077
v 0.497317 -2.063966 -0.174452
v 0.478833 -2.063966 -0.219077
v 0.541942 -2.063966 -0.155968
v 0.586566 -2.063964 -0.174452
v 0.605051 -2.063964 -0.219077
v 0.586566 -2.063964 -0.263703
v 0.541942 -2.063966 -0.282187
v 0.497317 -2.063966 -0.263703
v 0.497317 -1.829518 -0.174452
v 0.478833 -1.829518 -0.219077
v 0.541942 -1.829518 -0.155968
v 0.586566 -1.829518 -0.174452
v 0.605051 -1.829518 -0.219077
v 0.586566 -1.829518 -0.263703
v 0.541942 -1.829518 -0.282186
v 0.497317 -1.829518 -0.263703
v 0.408512 -1.816167 -0.170436
v 0.382028 -1.816167 -0.219077
v 0.541941 -1.816167 -0.150288
v 0.675369 -1.816167 -0.170436
v 0.701853 -1.816167 -0.219077
v 0.675369 -1.816167 -0.267718
v 0.541941 -1.816167 -0.287867
v 0.408513 -1.816167 -0.267718
v 0.408512 -1.573607 -0.157463
v 0.382028 -1.573607 -0.173896
v 0.541941 -1.573607 -0.150657
v 0.675369 -1.573606 -0.157463
v 0.701854 -1.573606 -0.173896
v 0.675369 -1.573606 -0.190329
v 0.541941 -1.573607 -0.197136
v 0.408513 -1.573607 -0.190329
v 0.541941 -1.573607 -0.173896
v -0.714385 -1.845278 0.900257
v -0.746864 -1.546943 0.591857
v -0.681931 -1.546943 0.867802
v -0.746864 -1.845276 0.543174
v 0.682237 -1.546943 0.867609
v 0.714407 -1.845278 0.900345
v 0.746973 -1.546943 0.591706
v 0.746973 -1.845277 0.543025
v -0.763099 -1.546943 0.591706
v -0.726556 -1.845278 0.912428
v -0.694101 -1.546943 0.879973
v -0.763099 -1.845276 0.543025
v 0.726470 -1.845278 0.912621
v 0.694301 -1.546943 0.879885
v 0.763210 -1.845277 0.543174
v 0.763210 -1.546943 0.591857
v 0.837182 1.940973 0.094243
v 0.878917 1.940973 -0.261464
v 0.728306 2.250781 -0.227041
v 0.726042 2.250781 0.128666
v 0.837182 1.631164 0.392576
v 0.726042 2.101615 0.346679
v 0.726042 1.527895 0.472897
v 0.837182 1.504946 0.404051
v 0.805078 1.183663 0.530269
v 0.837182 1.309881 0.369628
v 0.903958 -0.778459 0.025395
v 0.837182 -0.801408 -0.192618
v 0.837182 1.057444 -0.215567
v 0.837182 1.183663 0.254883
v 0.837182 -1.937373 -0.146722
v 0.837182 -1.547243 -0.146722
v 0.903958 -1.530000 0.120000
v 0.837182 -2.063592 0.117189
v 0.782575 -2.052117 -0.123773
v 0.837182 -2.017694 0.197510
v 0.865451 -1.803964 0.173223
v 0.808059 -1.730825 0.579226
v 0.782575 -1.971796 0.541742
v 0.837182 -1.455449 0.622063
v 0.886282 -1.350000 0.323728
v 0.886282 -1.088268 0.323729
v 0.663880 -1.157115 0.851551
v 0.663880 0.472250 0.908924
v 0.562902 -0.835832 0.977770
v 0.562902 0.185390 0.989245
v 0.903958 -0.904678 0.231934
v 0.837182 1.103342 -0.146720
v 0.837182 1.114817 0.094242
v 0.329496 2.032768 -0.261463
v 0.329496 2.342577 -0.227041
v 0.329496 2.032768 0.094243
v 0.368867 2.342577 0.128666
v 0.565423 1.990368 0.373976
v -0.006229 1.982499 0.408991
v 0.329496 1.527895 0.512421
v 0.649710 1.799747 0.420653
v 0.329496 1.631164 0.392576
v 0.329496 1.826228 0.312256
v 0.329496 1.504946 0.404051
v 0.316918 1.183663 0.530269
v 0.329496 1.309881 0.369628
v 0.329496 -0.765661 -0.026487
v 0.329496 1.021697 -0.049436
v 0.329496 -0.778459 0.025395
v 0.329496 1.183663 0.254883
v 0.329496 -1.547243 -0.146722
v 0.329496 -1.530000 0.120000
v 0.329496 -1.986054 -0.146722
v 0.329496 -2.100799 -0.123773
v 0.329496 -2.112274 0.117189
v 0.329496 -2.066375 0.197510
v 0.329496 -2.020478 0.541742
v 0.329496 -1.455449 0.622063
v 0.329496 -1.350000 0.323728
v 0.329496 -1.088268 0.323729
v 0.261600 -1.214745 0.874499
v 0.222038 -0.870972 1.000719
v 0.329496 -0.904678 0.231934
v 0.222038 0.221735 1.012193
v 0.261600 0.528675 0.931873
v 0.329496 1.103342 0.033468
v 0.329496 1.114817 0.094242
v -0.873966 1.940973 -0.261464
v -0.832231 1.940973 0.094243
v -0.723355 2.250781 -0.227041
v -0.721091 2.250781 0.128666
v -0.721091 2.101615 0.346679
v -0.832231 1.826228 0.312256
v -0.832231 1.631164 0.392576
v -0.721091 1.527895 0.472897
v -0.800126 1.183663 0.530269
v -0.832231 1.504946 0.404051
v -0.832231 1.309881 0.369628
v -0.832231 -0.801408 -0.192618
v -0.899007 -0.778459 0.025395
v -0.832231 1.057444 -0.215567
v -0.832231 1.183663 0.254883
v -0.832231 -1.547243 -0.146722
v -0.832231 -1.937373 -0.146722
v -0.899007 -1.530000 0.120000
v -0.777624 -2.052117 -0.123773
v -0.832231 -2.063592 0.117189
v -0.832231 -2.017694 0.197510
v -0.864732 -1.771962 0.169586
v -0.777624 -1.971796 0.541742
v -0.802874 -1.733035 0.578883
v -0.832231 -1.455449 0.622063
v -0.881331 -1.350000 0.323728
v -0.881331 -1.088268 0.323729
v -0.899007 -0.904678 0.231934
v -0.658930 0.472250 0.908924
v -0.658929 -1.157115 0.851551
v -0.557952 -0.835832 0.977770
v -0.557952 0.185390 0.989245
v -0.832231 1.103342 -0.146720
v -0.832231 1.114817 0.094242
v -0.324545 2.032768 -0.261463
v -0.324545 2.342577 -0.227041
v -0.324545 2.032768 0.094243
v -0.363657 2.342577 0.128666
v -0.572782 1.979380 0.380343
v -0.647212 1.773715 0.444075
v -0.324545 1.527895 0.512421
v -0.324545 1.631164 0.392576
v -0.324545 1.826228 0.312256
v -0.324545 1.504946 0.404051
v -0.311967 1.183663 0.530269
v -0.324545 1.309881 0.369628
v -0.324545 -0.765661 -0.026487
v -0.324545 1.021697 -0.049436
v -0.324545 -0.778459 0.025395
v -0.324545 1.183663 0.254883
v -0.324545 -1.547243 -0.146722
v -0.324545 -1.530000 0.120000
v -0.324545 -1.986054 -0.146722
v -0.324545 -2.100799 -0.123773
v -0.324545 -2.112274 0.117189
v -0.324545 -2.066375 0.197510
v -0.324545 -2.020478 0.541742
v -0.324545 -1.455449 0.622063
v -0.324545 -1.350000 0.323728
v -0.324545 -1.088268 0.323729
v -0.256650 -1.214745 0.874499
v -0.217089 -0.870972 1.000719
v -0.324545 -0.904678 0.231934
v -0.217089 0.221735 1.012193
v -0.256650 0.528675 0.931873
v -0.324545 1.103342 0.033468
v -0.324545 1.114817 0.094242
v -0.148996 0.308234 1.036438
v 0.149730 0.308234 1.036438
v -0.175909 0.501584 1.036565
v 0.176642 0.501584 1.036565
v -0.454920 2.193409 0.346679
v 0.460737 2.193409 0.346679
v -0.174090 1.738556 0.464139
v 0.837182 1.826228 0.312256
v -0.075929 -1.170803 0.001333
v -0.038416 -0.866747 -0.072690
v -0.075929 -0.879702 -0.136359
v -0.038416 -1.144375 0.060689
v 0.036610 -0.866747 -0.072690
v 0.036610 -1.144375 0.060689
v 0.074123 -0.879702 -0.136359
v 0.074123 -1.170803 0.001332
v 0.036610 -0.892656 -0.200030
v 0.036610 -1.197230 -0.058024
v -0.038416 -0.892656 -0.200030
v -0.038416 -1.197230 -0.058024
v -0.038416 1.190738 -0.072804
v -0.075929 1.204247 -0.136359
v 0.036610 1.190738 -0.072804
v 0.074123 1.204247 -0.136359
v 0.036610 1.217756 -0.199914
v -0.038416 1.217756 -0.199913
v -0.038416 1.478609 0.056733
v -0.075929 1.512558 0.001334
v 0.036610 1.478609 0.056733
v 0.074123 1.512559 0.001334
v 0.036610 1.546508 -0.054066
v -0.038416 1.546508 -0.054066
v 0.778908 1.463716 -0.029822
v 0.172684 1.495788 0.025728
v 0.172684 1.463716 -0.029822
v 0.778908 1.495788 0.025728
v 0.172684 1.559932 0.025728
v 0.778908 1.559932 0.025728
v 0.172684 1.592004 -0.029822
v 0.778908 1.592004 -0.029822
v 0.172684 1.559932 -0.085372
v 0.778908 1.559932 -0.085372
v 0.172684 1.495788 -0.085372
v 0.778908 1.495788 -0.085372
v 0.153540 1.447360 0.109608
v 0.153540 1.366859 -0.029822
v 0.153540 1.608361 0.109608
v 0.153540 1.688861 -0.029822
v 0.153540 1.608361 -0.169254
v 0.153540 1.447360 -0.169254
v -0.156243 1.447360 0.109608
v -0.156243 1.366859 -0.029822
v -0.156243 1.608361 0.109608
v -0.156243 1.688861 -0.029822
v -0.156243 1.608361 -0.169254
v -0.156243 1.447360 -0.169254
v -0.175386 1.495788 0.025728
v -0.175386 1.463716 -0.029822
v -0.175386 1.559932 0.025728
v -0.175386 1.592004 -0.029822
v -0.175386 1.559932 -0.085372
v -0.175386 1.495788 -0.085372
v -0.781609 1.495788 0.025728
v -0.781609 1.463716 -0.029822
v -0.781609 1.559932 0.025728
v -0.781609 1.592004 -0.029822
v -0.781609 1.559932 -0.085372
v -0.781609 1.495788 -0.085372
v 0.778908 -1.232889 -0.029824
v 0.172684 -1.200818 0.025726
v 0.172684 -1.232889 -0.029824
v 0.778908 -1.200818 0.025726
v 0.172684 -1.136673 0.025727
v 0.778908 -1.136673 0.025727
v 0.172684 -1.104602 -0.029823
v 0.778908 -1.104602 -0.029823
v 0.172684 -1.136673 -0.085375
v 0.778908 -1.136673 -0.085375
v 0.172684 -1.200818 -0.085375
v 0.778908 -1.200818 -0.085375
v 0.153540 -1.249246 0.109607
v 0.153540 -1.329746 -0.029824
v 0.153540 -1.088245 0.109607
v 0.153540 -1.007745 -0.029823
v 0.153540 -1.088245 -0.169255
v 0.153540 -1.249246 -0.169255
v -0.156243 -1.249246 0.109607
v -0.156243 -1.329746 -0.029824
v -0.156243 -1.088245 0.109607
v -0.156243 -1.007745 -0.029823
v -0.156243 -1.088245 -0.169255
v -0.156243 -1.249246 -0.169255
v -0.175386 -1.200818 0.025726
v -0.175386 -1.232889 -0.029824
v -0.175386 -1.136673 0.025727
v -0.175386 -1.104602 -0.029823
v -0.175386 -1.136673 -0.085375
v -0.175386 -1.200818 -0.085375
v -0.781609 -1.200818 0.025726
v -0.781609 -1.232889 -0.029824
v -0.781609 -1.136673 0.025727
v -0.781609 -1.104602 -0.029823
v -0.781609 -1.136673 -0.085375
v -0.781609 -1.200818 -0.085375
v 0.805078 1.183663 0.530269
v 0.837182 -1.455449 0.622063
v 0.663880 -1.157115 0.851551
v 0.663880 0.472250 0.908924
v 0.562902 -0.835832 0.977770
v 0.562902 0.185390 0.989245
v 0.316918 1.183663 0.530269
v 0.329496 -1.455449 0.622063
v 0.261600 -1.214745 0.874499
v 0.222038 -0.870972 1.000719
v 0.222038 0.221735 1.012193
v 0.261600 0.528675 0.931873
v -0.800126 1.183663 0.530269
v -0.832231 -1.455449 0.622063
v -0.658930 0.472250 0.908924
v -0.658929 -1.157115 0.851551
v -0.557952 -0.835832 0.977770
v -0.557952 0.185390 0.989245
v -0.311967 1.183663 0.530269
v -0.324545 -1.455449 0.622063
v -0.256650 -1.214745 0.874499
v -0.217089 -0.870972 1.000719
v -0.217089 0.221735 1.012193
v -0.256650 0.528675 0.931873
v -0.148996 0.308234 1.036438
v 0.149730 0.308234 1.036438
v -0.175909 0.501584 1.036565
v 0.176642 0.501584 1.036565
vt 0.000000 0.000000
vt 0.000000 0.000000
vt 0.000000 0.000000
vt 0.000000 0.000000
vt 0.000000 0.000000
vt 0.000000 0.000000
vt 0.000000 0.000000
vt 0.000000 0.000000
vt 0.463079 0.614812
vt 0.509906 0.601763
vt 0.510077 0.583151
vt 0.554538 0.572406
vt 0.554538 0.579454
vt 0.536490 0.578462
vt 0.568261 0.579454
vt 0.586309 0.578462
vt 0.568261 0.572406
vt 0.511446 0.583151
vt 0.511275 0.601763
vt 0.464448 0.614812
vt 0.487193 0.565128
vt 0.494688 0.570205
vt 0.496697 0.560368
vt 0.485871 0.553796
vt 0.485871 0.559463
vt 0.487193 0.548129
vt 0.496697 0.552889
vt 0.463355 0.582743
vt 0.536490 0.572428
vt 0.586309 0.572428
vt 0.464724 0.582743
vt 0.494688 0.543053
vt 0.508090 0.892428
vt 0.525908 0.892428
vt 0.525908 0.871356
vt 0.543726 0.892428
vt 0.543726 0.871356
vt 0.525908 0.871356
vt 0.543726 0.871356
vt 0.525911 0.871904
vt 0.508090 0.892428
vt 0.525908 0.892428
vt 0.525908 0.871356
vt 0.543726 0.892428
vt 0.543726 0.871356
vt 0.508090 0.892428
vt 0.525908 0.892428
vt 0.543726 0.892428
vt 0.543726 0.871356
vt 0.525908 0.871356
vt 0.543726 0.850284
vt 0.525908 0.850284
vt 0.508090 0.892428
vt 0.525908 0.892428
vt 0.543726 0.892428
vt 0.543726 0.871356
vt 0.508090 0.850284
vt 0.508090 0.871356
vt 0.508090 0.850284
vt 0.508090 0.871356
vt 0.508090 0.892428
vt 0.525908 0.892428
vt 0.525947 0.871849
vt 0.543726 0.850284
vt 0.525908 0.850284
vt 0.508090 0.850284
vt 0.508090 0.871356
vt 0.543726 0.892428
vt 0.543726 0.871356
vt 0.543726 0.850284
vt 0.525908 0.850284
vt 0.508090 0.850284
vt 0.508090 0.871356
vt 0.508090 0.871356
vt 0.543726 0.850284
vt 0.525908 0.850284
vt 0.543726 0.850284
vt 0.525908 0.850284
vt 0.508090 0.850284
vt 0.508090 0.871356
vt 0.507062 0.892370
vt 0.525345 0.892370
vt 0.525345 0.872281
vt 0.543628 0.892370
vt 0.543628 0.872281
vt 0.525345 0.872281
vt 0.543628 0.872281
vt 0.525348 0.874225
vt 0.507062 0.892370
vt 0.525345 0.892370
vt 0.525345 0.872281
vt 0.543628 0.892370
vt 0.543628 0.872281
vt 0.507062 0.892370
vt 0.525345 0.892370
vt 0.543628 0.892370
vt 0.543628 0.872281
vt 0.525345 0.872281
vt 0.543628 0.852192
vt 0.525345 0.852192
vt 0.507062 0.892370
vt 0.525345 0.892370
vt 0.543628 0.892370
vt 0.543628 0.872281
vt 0.507062 0.852192
vt 0.507062 0.872281
vt 0.507062 0.852192
vt 0.507062 0.872281
vt 0.507062 0.892370
vt 0.525345 0.892370
vt 0.525517 0.874033
vt 0.543628 0.852192
vt 0.525345 0.852192
vt 0.507062 0.852192
vt 0.507062 0.872281
vt 0.543628 0.892370
vt 0.543628 0.872281
vt 0.543628 0.852192
vt 0.525345 0.852192
vt 0.507062 0.852192
vt 0.507062 0.872281
vt 0.507062 0.872281
vt 0.543628 0.852192
vt 0.525345 0.852192
vt 0.543628 0.852192
vt 0.525345 0.852192
vt 0.507062 0.852192
vt 0.507062 0.872281
vt 0.507062 0.892370
vt 0.525345 0.892370
vt 0.525345 0.872281
vt 0.543628 0.892370
vt 0.543628 0.872281
vt 0.525345 0.872281
vt 0.543628 0.872281
vt 0.525345 0.873639
vt 0.507062 0.892370
vt 0.525345 0.892370
vt 0.525345 0.872281
vt 0.543628 0.892370
vt 0.543628 0.872281
vt 0.507062 0.872281
vt 0.507062 0.892370
vt 0.525345 0.892370
vt 0.543628 0.892370
vt 0.543628 0.872281
vt 0.525345 0.872281
vt 0.543628 0.852192
vt 0.525345 0.852192
vt 0.507062 0.892370
vt 0.525345 0.892370
vt 0.543628 0.892370
vt 0.543628 0.872281
vt 0.507062 0.852192
vt 0.507062 0.852192
vt 0.507062 0.872281
vt 0.507062 0.892370
vt 0.525345 0.892370
vt 0.525469 0.873502
vt 0.543628 0.852192
vt 0.525345 0.852192
vt 0.507062 0.852192
vt 0.507062 0.872281
vt 0.543628 0.892370
vt 0.543628 0.872281
vt 0.543628 0.852192
vt 0.525345 0.852192
vt 0.507062 0.852192
vt 0.507062 0.872281
vt 0.507062 0.872281
vt 0.543628 0.852192
vt 0.525345 0.852192
vt 0.543628 0.852192
vt 0.525345 0.852192
vt 0.507062 0.852192
vt 0.507062 0.872281
vt 0.507712 0.891998
vt 0.524219 0.891998
vt 0.524219 0.876211
vt 0.540727 0.891998
vt 0.540727 0.876211
vt 0.524219 0.876211
vt 0.540727 0.876211
vt 0.524206 0.877449
vt 0.507712 0.891998
vt 0.524219 0.891998
vt 0.524219 0.876211
vt 0.540727 0.891998
vt 0.540727 0.876211
vt 0.507712 0.876211
vt 0.507712 0.891998
vt 0.524219 0.891998
vt 0.540727 0.891998
vt 0.540727 0.876211
vt 0.524219 0.876211
vt 0.540727 0.860424
vt 0.524219 0.860424
vt 0.507712 0.891998
vt 0.524219 0.891998
vt 0.540727 0.891998
vt 0.540727 0.876211
vt 0.507712 0.860424
vt 0.507712 0.860424
vt 0.507712 0.876211
vt 0.507712 0.891998
vt 0.524219 0.891998
vt 0.524364 0.877325
vt 0.540727 0.860424
vt 0.524219 0.860424
vt 0.507712 0.860424
vt 0.507712 0.876211
vt 0.540727 0.891998
vt 0.540727 0.876211
vt 0.540727 0.860424
vt 0.524219 0.860424
vt 0.507712 0.860424
vt 0.507712 0.876211
vt 0.507712 0.876211
vt 0.540727 0.860424
vt 0.524219 0.860424
vt 0.540727 0.860424
vt 0.524219 0.860424
vt 0.507712 0.860424
vt 0.507712 0.876211
vt 0.507712 0.891998
vt 0.524219 0.891998
vt 0.524219 0.876211
vt 0.540727 0.891998
vt 0.540727 0.876211
vt 0.524219 0.876211
vt 0.540727 0.876211
vt 0.524219 0.878074
vt 0.507712 0.891998
vt 0.524219 0.891998
vt 0.524219 0.876211
vt 0.540727 0.891998
vt 0.540727 0.876211
vt 0.507712 0.876211
vt 0.507712 0.891998
vt 0.524219 0.891998
vt 0.540727 0.891998
vt 0.540727 0.876211
vt 0.524219 0.876211
vt 0.540727 0.860424
vt 0.524219 0.860424
vt 0.507712 0.891998
vt 0.524219 0.891998
vt 0.540727 0.891998
vt 0.540727 0.876211
vt 0.507712 0.860424
vt 0.507712 0.860424
vt 0.507712 0.876211
vt 0.507712 0.891998
vt 0.524219 0.891998
vt 0.524414 0.877887
vt 0.540727 0.860424
vt 0.524219 0.860424
vt 0.507712 0.860424
vt 0.507712 0.876211
vt 0.540727 0.891998
vt 0.540727 0.876211
vt 0.540727 0.860424
vt 0.524219 0.860424
vt 0.507712 0.860424
vt 0.507712 0.876211
vt 0.507712 0.876211
vt 0.540727 0.860424
vt 0.524219 0.860424
vt 0.540727 0.860424
vt 0.524219 0.860424
vt 0.507712 0.860424
vt 0.507712 0.876211
vt 0.211001 0.217266
vt 0.526666 0.223218
vt 0.143598 0.165066
vt 0.272214 0.238421
vt 0.460476 0.239147
vt 0.652450 0.151830
vt 0.903349 0.636532
vt 0.836656 0.585207
vt 0.825668 0.624160
vt 0.921916 0.585207
vt 0.882326 0.685278
vt 0.828055 0.688094
vt 0.389006 0.787084
vt 0.448925 0.974328
vt 0.448925 0.780695
vt 0.387456 0.973577
vt 0.372806 0.736659
vt 0.442358 0.729066
vt 0.032583 0.845288
vt 0.140006 0.956094
vt 0.112768 0.845288
vt 0.073391 0.948403
vt 0.347155 0.479514
vt 0.741548 0.422753
vt 0.225392 0.408992
vt 0.666983 0.474208
vt 0.594017 0.498748
vt 0.410892 0.499499
vt 0.741800 0.624160
vt 0.730813 0.585207
vt 0.665641 0.635928
vt 0.647848 0.588625
vt 0.742343 0.688582
vt 0.689306 0.686456
vt 0.526118 0.780695
vt 0.526118 0.974328
vt 0.586037 0.787084
vt 0.584486 0.973577
vt 0.532684 0.728678
vt 0.605337 0.736659
vt 0.234817 0.846838
vt 0.216135 0.956295
vt 0.320427 0.846838
vt 0.282348 0.950698
vt 0.515698 0.765490
vt 0.521204 0.734603
vt 0.463186 0.765490
vt 0.453804 0.734603
vt 0.520623 0.583070
vt 0.520750 0.624553
vt 0.513709 0.624575
vt 0.513582 0.583092
vt 0.520940 0.624616
vt 0.520862 0.583070
vt 0.541131 0.588804
vt 0.538057 0.621034
vt 0.493312 0.583070
vt 0.493233 0.624616
vt 0.476117 0.621034
vt 0.473042 0.588804
vt 0.579283 0.583013
vt 0.579410 0.624496
vt 0.572369 0.624518
vt 0.572241 0.583035
vt 0.541210 0.624616
vt 0.541131 0.583070
vt 0.561401 0.588804
vt 0.558326 0.621034
vt 0.513582 0.583070
vt 0.513503 0.624616
vt 0.496387 0.621034
vt 0.493312 0.588804
vt 0.572082 0.583013
vt 0.572241 0.634835
vt 0.565200 0.634857
vt 0.565041 0.583035
vt 0.517293 0.583070
vt 0.517222 0.531170
vt 0.541131 0.547000
vt 0.536914 0.577680
vt 0.565041 0.531170
vt 0.564970 0.583070
vt 0.545348 0.577680
vt 0.541131 0.547000
vt 0.572082 0.531170
vt 0.572241 0.582992
vt 0.565200 0.583013
vt 0.565041 0.531192
vt 0.493383 0.583070
vt 0.493312 0.531170
vt 0.517222 0.547000
vt 0.513005 0.577680
vt 0.493312 0.531170
vt 0.493241 0.583070
vt 0.473619 0.577680
vt 0.469402 0.547000
vt 0.176320 0.458240
vt 0.168187 0.439833
vt 0.188986 0.435937
vt 0.198707 0.468490
vt 0.174977 0.489314
vt 0.198357 0.490703
vt 0.172310 0.512861
vt 0.198078 0.508088
vt 0.168310 0.535224
vt 0.194245 0.526226
vt 0.123977 0.456803
vt 0.101348 0.465082
vt 0.109833 0.435937
vt 0.131065 0.440386
vt 0.126498 0.480493
vt 0.103046 0.482269
vt 0.130760 0.505471
vt 0.105025 0.500074
vt 0.131202 0.534566
vt 0.106349 0.522711
vt 0.137559 0.496648
vt 0.161413 0.494753
vt 0.164387 0.527138
vt 0.140640 0.529537
vt 0.127511 0.475679
vt 0.168187 0.473351
vt 0.127605 0.457549
vt 0.168187 0.455818
vt 0.135620 0.436955
vt 0.159492 0.435937
vt 0.112909 0.544942
vt 0.094547 0.529405
vt 0.028264 0.507383
vt 0.090856 0.514107
vt 0.075969 0.537901
vt 0.039151 0.533946
vt 0.028141 0.482786
vt 0.090834 0.490365
vt 0.044135 0.454716
vt 0.080858 0.459947
vt 0.083098 0.441915
vt 0.046587 0.435937
vt 0.188427 0.439695
vt 0.167862 0.443548
vt 0.175904 0.461748
vt 0.198039 0.471883
vt 0.174575 0.492472
vt 0.197693 0.493846
vt 0.171939 0.515754
vt 0.197417 0.511034
vt 0.167984 0.537866
vt 0.193627 0.528969
vt 0.109724 0.436833
vt 0.101335 0.465651
vt 0.123710 0.457464
vt 0.130718 0.441233
vt 0.103014 0.482644
vt 0.126202 0.480888
vt 0.104970 0.500249
vt 0.130416 0.505585
vt 0.106279 0.522631
vt 0.130853 0.534353
vt 0.164274 0.526857
vt 0.161334 0.494837
vt 0.137748 0.496710
vt 0.140794 0.529228
vt 0.168031 0.473675
vt 0.127813 0.475977
vt 0.168032 0.456340
vt 0.127906 0.458051
vt 0.159434 0.436682
vt 0.135831 0.437688
vt 0.094610 0.529249
vt 0.112766 0.544612
vt 0.076682 0.537866
vt 0.091401 0.514340
vt 0.029513 0.507690
vt 0.040277 0.533954
vt 0.091380 0.490864
vt 0.029392 0.483370
vt 0.081516 0.460788
vt 0.045207 0.455616
vt 0.083731 0.442959
vt 0.047631 0.437048
vt 0.045929 0.600154
vt 0.037308 0.617384
vt 0.033712 0.599538
vt 0.045929 0.625039
vt 0.054458 0.618115
vt 0.057964 0.600831
vt 0.054458 0.583211
vt 0.045929 0.575418
vt 0.037308 0.582116
vt 0.049592 0.609099
vt 0.045593 0.589109
vt 0.059162 0.617747
vt 0.068605 0.610120
vt 0.072478 0.590912
vt 0.068605 0.571239
vt 0.059162 0.562402
vt 0.049592 0.569712
vt 0.030865 0.609485
vt 0.024962 0.587270
vt 0.060010 0.619807
vt 0.088008 0.612511
vt 0.093413 0.591895
vt 0.088008 0.570483
vt 0.060010 0.559088
vt 0.030865 0.565785
vt 0.044750 0.605032
vt 0.038038 0.596191
vt 0.077685 0.610355
vt 0.108950 0.609151
vt 0.114939 0.601614
vt 0.108950 0.593042
vt 0.077685 0.586930
vt 0.044750 0.588084
vt 0.077685 0.598626
vt 0.418545 0.647139
vt 0.371670 0.657131
vt 0.415809 0.657131
vt 0.371329 0.648371
vt 0.572804 0.657400
vt 0.574158 0.647363
vt 0.618436 0.657999
vt 0.618317 0.648043
vt 0.341389 0.705210
vt 0.406520 0.661132
vt 0.407053 0.704684
vt 0.337626 0.660797
vt 0.406602 0.660838
vt 0.587657 0.663299
vt 0.589425 0.705719
vt 0.406101 0.704796
vt 0.658202 0.659916
vt 0.655125 0.706027
vt 0.345581 0.642939
vt 0.379449 0.643207
vt 0.380480 0.644464
vt 0.345416 0.644464
vt 0.407221 0.661146
vt 0.588896 0.662376
vt 0.355498 0.643674
vt 0.375904 0.643140
vt 0.365874 0.644046
vt 0.593638 0.661146
vt 0.345416 0.644464
vt 0.380485 0.644464
vt 0.379444 0.645713
vt 0.345759 0.645713
vt 0.372528 0.645830
vt 0.373391 0.647208
vt 0.345416 0.647208
vt 0.584820 0.697414
vt 0.407027 0.704181
vt 0.379116 0.643254
vt 0.347615 0.644809
vt 0.362251 0.646970
vt 0.372600 0.647208
vt 0.345862 0.648675
vt 0.345416 0.647208
vt 0.341926 0.705104
vt 0.665700 0.922409
vt 0.664457 0.853527
vt 0.693977 0.853981
vt 0.693797 0.928400
vt 0.748745 0.130894
vt 0.827316 0.117142
vt 0.780973 0.135972
vt 0.729915 0.131620
vt 0.652450 0.151830
vt 0.674629 0.123816
vt 0.277081 0.056526
vt 0.272529 0.013291
vt 0.646594 0.007190
vt 0.657643 0.097527
vt 0.060353 0.022393
vt 0.133145 0.024719
vt 0.137670 0.090386
vt 0.028715 0.074731
vt 0.034250 0.031570
vt 0.038297 0.089885
vt 0.096751 0.097538
vt 0.968244 0.852327
vt 0.963113 0.839514
vt 0.994647 0.784001
vt 0.996075 0.812442
vt 0.143598 0.165066
vt 0.155800 0.118792
vt 0.215641 0.115691
vt 0.211001 0.217266
vt 0.526666 0.223218
vt 0.272214 0.238421
vt 0.460476 0.239147
vt 0.252049 0.097486
vt 0.991892 0.219865
vt 0.990049 0.216426
vt 0.987595 0.204369
vt 0.647896 0.070180
vt 0.987469 0.126980
vt 0.957321 0.124979
vt 0.956442 0.108039
vt 0.058019 0.313245
vt 0.117654 0.287472
vt 0.166194 0.313245
vt 0.984156 0.145818
vt 0.956944 0.144169
vt 0.766826 0.852751
vt 0.758039 0.929015
vt 0.063903 0.687273
vt 0.174286 0.688793
vt 0.109459 0.776574
vt 0.047628 0.724081
vt 0.032889 0.776574
vt 0.032889 0.665792
vt 0.984724 0.170104
vt 0.957725 0.171502
vt 0.957384 0.160123
vt 0.984972 0.176681
vt 0.957976 0.178472
vt 0.112663 0.843818
vt 0.030804 0.844593
vt 0.985598 0.186956
vt 0.958445 0.189444
vt 0.991891 0.329492
vt 0.960307 0.329449
vt 0.960284 0.221005
vt 0.991856 0.341064
vt 0.960006 0.333495
vt 0.986376 0.195622
vt 0.958995 0.199175
vt 0.982823 0.404673
vt 0.956458 0.403868
vt 0.956866 0.388606
vt 0.986749 0.389919
vt 0.982370 0.424905
vt 0.955938 0.426813
vt 0.979426 0.430927
vt 0.955801 0.432997
vt 0.997360 0.754710
vt 0.893078 0.751419
vt 0.892067 0.695704
vt 0.981715 0.699166
vt 0.906561 0.775931
vt 0.907826 0.845943
vt 0.920931 0.584976
vt 0.835671 0.584976
vt 0.835671 0.496468
vt 0.913187 0.497998
vt 0.919636 0.539924
vt 0.957235 0.377306
vt 0.986258 0.379173
vt 0.958002 0.359781
vt 0.987385 0.362846
vt 0.903349 0.636532
vt 0.825668 0.624160
vt 0.836656 0.585207
vt 0.921916 0.585207
vt 0.882326 0.685278
vt 0.828055 0.688094
vt 0.958760 0.348005
vt 0.989540 0.352927
vt 0.389006 0.787084
vt 0.448925 0.780695
vt 0.448925 0.974328
vt 0.387456 0.973577
vt 0.372806 0.736659
vt 0.442358 0.729066
vt 0.032583 0.845288
vt 0.112768 0.845288
vt 0.140006 0.956094
vt 0.073391 0.948403
vt 0.959925 0.213589
vt 0.959758 0.209491
vt 0.994718 0.854142
vt 0.992861 0.921794
vt 0.972580 0.854597
vt 0.971531 0.928400
vt 0.970300 0.967908
vt 0.985110 0.938228
vt 0.050579 0.376045
vt 0.119359 0.386800
vt 0.117595 0.397485
vt 0.225392 0.408992
vt 0.139250 0.389877
vt 0.182249 0.387623
vt 0.603390 0.274853
vt 0.601887 0.315479
vt 0.232881 0.267150
vt 0.221920 0.358750
vt 0.748332 0.281733
vt 0.825671 0.283283
vt 0.742683 0.348633
vt 0.845721 0.290986
vt 0.851122 0.340867
vt 0.840367 0.351552
vt 0.785654 0.353837
vt 0.066834 0.157926
vt 0.692407 0.841200
vt 0.683059 0.853032
vt 0.653942 0.816361
vt 0.655059 0.788265
vt 0.741548 0.422753
vt 0.726916 0.376227
vt 0.659376 0.373766
vt 0.622553 0.355355
vt 0.347155 0.479514
vt 0.666983 0.474208
vt 0.594017 0.498748
vt 0.410892 0.499499
vt 0.890810 0.216430
vt 0.888939 0.219800
vt 0.893294 0.204549
vt 0.230675 0.326963
vt 0.921535 0.125700
vt 0.891835 0.128697
vt 0.921724 0.108936
vt 0.106559 0.313245
vt 0.166194 0.339019
vt 0.058019 0.339019
vt 0.922551 0.144715
vt 0.895715 0.147152
vt 0.891735 0.853981
vt 0.901086 0.928400
vt 0.283683 0.689395
vt 0.298055 0.729107
vt 0.235750 0.776574
vt 0.312320 0.665792
vt 0.922454 0.171855
vt 0.895789 0.171010
vt 0.922547 0.160559
vt 0.922325 0.178770
vt 0.895672 0.177427
vt 0.312320 0.776574
vt 0.234871 0.846918
vt 0.319831 0.846918
vt 0.922011 0.189663
vt 0.895191 0.187494
vt 0.919930 0.329289
vt 0.888488 0.329126
vt 0.920405 0.221000
vt 0.920178 0.333306
vt 0.888489 0.340561
vt 0.921560 0.199328
vt 0.894487 0.195976
vt 0.922327 0.403299
vt 0.896240 0.403319
vt 0.922350 0.388138
vt 0.892769 0.388687
vt 0.922039 0.426050
vt 0.896033 0.423283
vt 0.921922 0.432085
vt 0.898749 0.429308
vt 0.755120 0.753720
vt 0.655059 0.758098
vt 0.754508 0.696946
vt 0.665278 0.702267
vt 0.743642 0.778712
vt 0.743430 0.846718
vt 0.729828 0.584976
vt 0.647840 0.588394
vt 0.730216 0.497445
vt 0.649032 0.498506
vt 0.648770 0.540054
vt 0.922252 0.376910
vt 0.893509 0.378144
vt 0.921826 0.359475
vt 0.892697 0.362044
vt 0.741800 0.624160
vt 0.665641 0.635928
vt 0.730813 0.585207
vt 0.647848 0.588625
vt 0.742343 0.688582
vt 0.689306 0.686456
vt 0.921248 0.347755
vt 0.890692 0.352271
vt 0.526118 0.780695
vt 0.586037 0.787084
vt 0.526118 0.974328
vt 0.584486 0.973577
vt 0.532684 0.728678
vt 0.605337 0.736659
vt 0.234817 0.846838
vt 0.320427 0.846838
vt 0.216135 0.956295
vt 0.282348 0.950698
vt 0.920733 0.213636
vt 0.920866 0.209580
vt 0.515698 0.765490
vt 0.463186 0.765490
vt 0.521204 0.734603
vt 0.453804 0.734603
vt 0.917986 0.967185
vt 0.741023 0.967175
vt 0.206698 0.735896
vt 0.084118 0.648067
vt 0.260925 0.648067
vt 0.895911 0.160073
vt 0.101163 0.376891
vt 0.442459 0.735200
vt 0.441324 0.713121
vt 0.532194 0.713509
vt 0.531420 0.734425
vt 0.675456 0.936629
vt 0.693797 0.968205
vt 0.984331 0.158959
vt 0.780454 0.114190
vt 0.428317 0.620465
vt 0.404853 0.615145
vt 0.405838 0.609969
vt 0.426293 0.625313
vt 0.421047 0.572887
vt 0.399595 0.578606
vt 0.399613 0.572821
vt 0.421030 0.578672
vt 0.426292 0.585423
vt 0.405838 0.600767
vt 0.404853 0.595591
vt 0.428317 0.590271
vt 0.406820 0.605368
vt 0.430339 0.594544
vt 0.218792 0.585106
vt 0.242281 0.579249
vt 0.242299 0.585034
vt 0.218775 0.579321
vt 0.430340 0.616192
vt 0.406820 0.605368
vt 0.246203 0.615623
vt 0.245147 0.610462
vt 0.240946 0.578120
vt 0.240964 0.572334
vt 0.245147 0.600274
vt 0.246203 0.595113
vt 0.244089 0.604860
vt 0.405012 0.578750
vt 0.405029 0.584535
vt 0.244089 0.605876
vt 0.223262 0.638032
vt 0.221407 0.621100
vt 0.218775 0.578052
vt 0.218792 0.572266
vt 0.221407 0.589636
vt 0.224037 0.585106
vt 0.218775 0.593592
vt 0.430340 0.578672
vt 0.430357 0.584457
vt 0.218775 0.617144
vt 0.218941 0.526670
vt 0.265693 0.524351
vt 0.265686 0.526813
vt 0.218948 0.524208
vt 0.265708 0.519405
vt 0.218963 0.519262
vt 0.265716 0.516921
vt 0.218971 0.516778
vt 0.315324 0.516778
vt 0.268587 0.519386
vt 0.268579 0.516921
vt 0.315332 0.519243
vt 0.268602 0.524332
vt 0.315347 0.524189
vt 0.268610 0.526813
vt 0.315355 0.526670
vt 0.258816 0.533350
vt 0.250061 0.526827
vt 0.262430 0.526813
vt 0.253888 0.533355
vt 0.243843 0.537572
vt 0.251411 0.537636
vt 0.249993 0.548303
vt 0.253861 0.541912
vt 0.262361 0.548290
vt 0.258789 0.541906
vt 0.268579 0.537545
vt 0.261266 0.537625
vt 0.243677 0.548380
vt 0.249930 0.572248
vt 0.243750 0.572266
vt 0.249857 0.548360
vt 0.262344 0.572209
vt 0.262271 0.548322
vt 0.268579 0.572190
vt 0.268506 0.548303
vt 0.243677 0.572190
vt 0.237417 0.548322
vt 0.243604 0.548303
vt 0.237490 0.572209
vt 0.225003 0.548360
vt 0.225076 0.572247
vt 0.218775 0.548380
vt 0.218848 0.572266
vt 0.237527 0.548303
vt 0.228986 0.541761
vt 0.233914 0.541767
vt 0.225159 0.548290
vt 0.226509 0.537480
vt 0.218941 0.537545
vt 0.228959 0.533205
vt 0.225090 0.526813
vt 0.233886 0.533210
vt 0.237459 0.526826
vt 0.236364 0.537491
vt 0.243677 0.537571
vt 0.218971 0.516778
vt 0.265708 0.514172
vt 0.265716 0.516634
vt 0.218963 0.514316
vt 0.265693 0.509226
vt 0.218948 0.509370
vt 0.265686 0.506742
vt 0.218941 0.506886
vt 0.315324 0.506742
vt 0.268587 0.509351
vt 0.268579 0.506886
vt 0.315332 0.509207
vt 0.268602 0.514296
vt 0.315347 0.514153
vt 0.268610 0.516778
vt 0.315355 0.516634
vt 0.218971 0.496707
vt 0.265708 0.494101
vt 0.265716 0.496563
vt 0.218963 0.494245
vt 0.265693 0.489155
vt 0.218948 0.489299
vt 0.265686 0.486671
vt 0.218941 0.486815
vt 0.265716 0.496850
vt 0.218963 0.499172
vt 0.218971 0.496707
vt 0.265708 0.499315
vt 0.218948 0.504118
vt 0.265693 0.504261
vt 0.218941 0.506599
vt 0.265686 0.506742
vt 0.308289 0.533350
vt 0.299534 0.526827
vt 0.311902 0.526813
vt 0.303361 0.533355
vt 0.293316 0.537572
vt 0.300884 0.537636
vt 0.299466 0.548303
vt 0.303334 0.541912
vt 0.311834 0.548290
vt 0.308262 0.541907
vt 0.318052 0.537545
vt 0.310739 0.537626
vt 0.293482 0.548380
vt 0.299734 0.572248
vt 0.293555 0.572266
vt 0.299661 0.548360
vt 0.312149 0.572209
vt 0.312076 0.548322
vt 0.318384 0.572190
vt 0.318311 0.548303
vt 0.293482 0.572190
vt 0.287222 0.548322
vt 0.293408 0.548303
vt 0.287295 0.572209
vt 0.274807 0.548360
vt 0.274881 0.572247
vt 0.268579 0.548380
vt 0.268653 0.572266
vt 0.287166 0.548303
vt 0.278625 0.541761
vt 0.283552 0.541767
vt 0.274798 0.548290
vt 0.276147 0.537480
vt 0.268579 0.537545
vt 0.278598 0.533205
vt 0.274729 0.526813
vt 0.283525 0.533210
vt 0.287097 0.526827
vt 0.286003 0.537491
vt 0.293316 0.537572
vt 0.268610 0.496707
vt 0.315347 0.494101
vt 0.315355 0.496563
vt 0.268602 0.494245
vt 0.315332 0.489155
vt 0.268587 0.489299
vt 0.315324 0.486671
vt 0.268579 0.486815
vt 0.315324 0.496707
vt 0.268587 0.499315
vt 0.268579 0.496850
vt 0.315332 0.499172
vt 0.268602 0.504261
vt 0.315347 0.504118
vt 0.268610 0.506742
vt 0.315355 0.506599
vt 0.817794 0.417464
vn 0.0000 0.0348 0.9994
vn -0.9019 0.1775 -0.3937
vn -0.0734 0.1543 0.9853
vn -0.7987 0.6017 -0.0001
vn -0.0036 -1.0000 0.0000
vn -0.0860 0.2178 0.9722
vn 0.8283 -0.1724 0.5331
vn 0.9020 0.1772 -0.3937
vn 0.1829 -0.9831 0.0001
vn 0.7988 0.6016 0.0000
vn 0.0732 0.1543 0.9853
vn -0.0067 0.2120 0.9772
vn -0.1407 0.2230 0.9646
vn -0.8069 0.5907 -0.0001
vn 0.8070 0.5906 0.0000
vn -0.4220 0.6204 0.6611
vn -0.7738 0.6167 0.1444
vn -0.9673 -0.2337 -0.0982
vn -0.7553 -0.1394 0.6404
vn -0.0016 -0.2100 0.9777
vn -0.0008 0.7487 0.6629
vn -0.0003 0.9661 0.2583
vn -0.5206 0.7811 -0.3447
vn -0.0004 0.9684 -0.2495
vn -0.0007 0.2100 -0.9777
vn -0.6855 0.0504 -0.7263
vn 0.4256 0.6192 0.6599
vn 0.7583 -0.1386 0.6370
vn 0.9222 -0.3563 -0.1501
vn 0.8270 0.5527 0.1028
vn 0.5085 0.7853 -0.3532
vn 0.6756 0.0530 -0.7353
vn -0.4234 -0.8430 0.3319
vn -0.5450 -0.8020 -0.2444
vn -0.0002 -0.9650 -0.2621
vn -0.0007 -0.9617 0.2740
vn -0.3935 -0.6003 -0.6963
vn -0.0003 -0.7297 -0.6838
vn 0.4276 -0.8418 0.3293
vn 0.4711 -0.8423 -0.2618
vn 0.3840 -0.6008 -0.7011
vn -0.4477 0.6573 0.6062
vn -0.5132 0.8330 0.2068
vn -0.9976 -0.0139 0.0683
vn -0.6946 -0.1434 0.7050
vn -0.0010 -0.1988 0.9800
vn -0.0006 0.7522 0.6589
vn -0.0010 0.9796 0.2011
vn -0.4605 0.8499 -0.2560
vn 0.0049 0.9786 -0.2055
vn 0.0003 0.1987 -0.9801
vn -0.7363 0.1344 -0.6631
vn 0.4453 0.6527 0.6129
vn 0.6875 -0.1449 0.7116
vn 0.9960 -0.0179 0.0872
vn 0.4098 0.8868 0.2135
vn 0.5520 0.7568 -0.3500
vn 0.7432 0.1328 -0.6557
vn -0.4478 -0.8418 0.3014
vn -0.5130 -0.8477 -0.1352
vn -0.0009 -0.9803 -0.1977
vn -0.0003 -0.9498 0.3129
vn -0.4602 -0.6827 -0.5676
vn 0.0049 -0.8208 -0.5712
vn 0.4455 -0.8401 0.3094
vn 0.4097 -0.8998 -0.1499
vn 0.5518 -0.5604 -0.6176
vn -0.4991 0.5241 0.6901
vn -0.4855 0.8506 0.2019
vn -0.9966 -0.0166 0.0812
vn -0.6565 -0.1509 0.7391
vn 0.0000 -0.1993 0.9799
vn -0.0001 0.6251 0.7806
vn 0.0021 0.9791 0.2034
vn -0.6145 0.6223 -0.4849
vn -0.0096 0.9431 -0.3323
vn -0.0000 0.1992 -0.9800
vn -0.7123 0.1404 -0.6877
vn 0.5014 0.5274 0.6859
vn 0.6615 -0.1500 0.7348
vn 0.9976 -0.0140 0.0684
vn 0.6070 0.7688 0.2011
vn 0.5228 0.7659 -0.3743
vn 0.7077 0.1413 -0.6922
vn -0.4990 -0.7522 0.4304
vn -0.4853 -0.8620 -0.1465
vn 0.0021 -0.9807 -0.1953
vn 0.0000 -0.8800 0.4750
vn -0.6132 -0.3832 -0.6907
vn -0.0095 -0.7384 -0.6743
vn 0.5014 -0.7535 0.4253
vn 0.6070 -0.7863 -0.1151
vn 0.5226 -0.5587 -0.6440
vn -0.5108 0.5148 0.6885
vn -0.5089 0.8352 0.2085
vn -0.9951 -0.0218 0.0961
vn -0.6464 -0.1521 0.7477
vn 0.0093 -0.1998 0.9798
vn -0.0296 0.6233 0.7814
vn -0.0443 0.9773 0.2070
vn -0.6307 0.6162 -0.4718
vn -0.0404 0.9712 -0.2347
vn -0.0082 0.1992 -0.9799
vn -0.7190 0.1385 -0.6811
vn 0.4822 0.5314 0.6965
vn 0.6592 -0.1490 0.7370
vn 0.9965 -0.0146 0.0824
vn 0.4590 0.8648 0.2037
vn 0.5987 0.6325 -0.4915
vn 0.7082 0.1416 -0.6916
vn -0.4716 -0.7636 0.4410
vn -0.4586 -0.8770 -0.1434
vn 0.0444 -0.9804 -0.1917
vn 0.0417 -0.8793 0.4745
vn -0.6084 -0.3912 -0.6906
vn 0.0343 -0.8025 -0.5957
vn 0.5207 -0.7407 0.4246
vn 0.5095 -0.8487 -0.1419
vn 0.6213 -0.3815 -0.6844
vn -0.4474 0.6492 0.6151
vn -0.4126 0.8844 0.2181
vn -0.9949 -0.0202 0.0985
vn -0.6870 -0.1457 0.7119
vn 0.0000 -0.1989 0.9800
vn -0.0001 0.7523 0.6588
vn -0.0000 0.9793 0.2026
vn -0.5565 0.7554 -0.3461
vn 0.0009 0.9910 -0.1335
vn -0.0000 0.1988 -0.9800
vn -0.7481 0.1325 -0.6502
vn 0.4485 0.6506 0.6128
vn 0.6894 -0.1452 0.7097
vn 0.9957 -0.0186 0.0910
vn 0.4135 0.8848 0.2150
vn 0.5555 0.7546 -0.3493
vn 0.7455 0.1331 -0.6531
vn -0.4473 -0.8380 0.3125
vn -0.4124 -0.8994 -0.1447
vn -0.0000 -0.9806 -0.1961
vn 0.0000 -0.9498 0.3129
vn -0.5564 -0.5603 -0.6136
vn 0.0000 -0.8603 -0.5098
vn 0.4484 -0.8384 0.3098
vn 0.4132 -0.8986 -0.1477
vn 0.5555 -0.5583 -0.6163
vn -0.4501 0.3250 -0.8317
vn -0.5693 -0.2139 -0.7938
vn -0.3924 0.4248 -0.8159
vn -0.4063 0.1196 -0.9059
vn -0.3408 -0.0666 -0.9378
vn -0.3037 -0.4317 -0.8493
vn -0.0415 0.6883 -0.7243
vn -0.0589 0.5456 -0.8360
vn -0.0405 0.1823 -0.9824
vn -0.1164 -0.0168 -0.9931
vn -0.1985 -0.3738 -0.9060
vn 0.0000 -0.5227 -0.8525
vn 0.5693 -0.2139 -0.7938
vn 0.3918 0.4231 -0.8170
vn 0.3037 -0.4317 -0.8493
vn 0.4501 0.3250 -0.8317
vn 0.4063 0.1196 -0.9059
vn 0.3408 -0.0666 -0.9378
vn 0.0589 0.5456 -0.8360
vn 0.0415 0.6883 -0.7243
vn 0.0405 0.1823 -0.9824
vn 0.1170 -0.0149 -0.9930
vn 0.2019 -0.3738 -0.9053
vn 0.1089 0.1132 -0.9876
vn 0.4448 -0.0283 -0.8952
vn -0.1025 0.1135 -0.9882
vn -0.4297 -0.0317 -0.9024
vn -0.6563 -0.0731 -0.7509
vn -0.6356 -0.0748 -0.7684
vn 0.6356 -0.0748 -0.7684
vn 0.6563 -0.0731 -0.7509
vn 1.0000 0.0000 0.0000
vn -1.0000 0.0000 0.0000
vn -0.6388 -0.1581 -0.7530
vn -0.5311 -0.1741 -0.8292
vn 0.5311 -0.1741 -0.8292
vn 0.6388 -0.1581 -0.7530
vn 0.3665 -0.5941 0.7161
vn 0.1334 -0.7244 0.6763
vn 0.1697 0.7551 0.6332
vn 0.1401 0.8891 0.4358
vn 0.6268 -0.3308 0.7055
vn 0.0253 0.8609 0.5082
vn 0.3111 -0.3732 0.8740
vn -0.2962 0.7547 0.5854
vn -0.2478 -0.7089 0.6604
vn -0.7176 0.4377 0.5418
vn -0.1047 -0.4894 -0.8658
vn -0.1726 0.9085 -0.3806
vn -0.1960 0.8534 -0.4830
vn -0.2923 -0.5886 -0.7537
vn -0.0326 -0.3372 -0.9409
vn -0.4042 0.7964 -0.4498
vn -0.2133 -0.5699 -0.7936
vn -0.6863 0.6218 -0.3772
vn -0.5423 -0.7989 -0.2601
vn -0.9219 0.3752 -0.0967
vn -0.1697 0.7551 0.6332
vn -0.1334 -0.7244 0.6763
vn -0.3665 -0.5941 0.7161
vn -0.1401 0.8891 0.4358
vn -0.6268 -0.3308 0.7055
vn -0.0253 0.8609 0.5082
vn -0.3111 -0.3732 0.8740
vn 0.2962 0.7547 0.5854
vn 0.2478 -0.7089 0.6604
vn 0.7176 0.4377 0.5418
vn 0.1960 0.8534 -0.4830
vn 0.1726 0.9085 -0.3806
vn 0.1047 -0.4894 -0.8658
vn 0.2923 -0.5886 -0.7537
vn 0.4043 0.7964 -0.4498
vn 0.0326 -0.3372 -0.9409
vn 0.6863 0.6218 -0.3772
vn 0.2132 -0.5699 -0.7936
vn 0.9219 0.3752 -0.0967
vn 0.5423 -0.7989 -0.2601
vn 0.0000 -1.0000 -0.0000
vn -0.3418 -0.8754 0.3418
vn -0.4833 -0.8754 0.0000
vn 0.0000 -0.8755 0.4833
vn 0.3418 -0.8754 0.3417
vn 0.4833 -0.8754 0.0000
vn 0.3418 -0.8754 -0.3418
vn 0.0000 -0.8754 -0.4833
vn -0.3418 -0.8754 -0.3418
vn -0.4512 -0.5763 0.6814
vn -0.6651 -0.7468 0.0031
vn -0.0602 -0.2480 0.9669
vn 0.4739 -0.6907 0.5463
vn 0.6651 -0.7468 -0.0031
vn 0.4512 -0.5763 -0.6814
vn 0.0602 -0.2480 -0.9669
vn -0.4739 -0.6907 -0.5463
vn -0.4835 -0.5714 0.6631
vn -0.8303 -0.5567 -0.0263
vn -0.0487 -0.2364 0.9704
vn 0.4756 -0.5881 0.6541
vn 0.8327 -0.5507 -0.0568
vn 0.4967 -0.4466 -0.7442
vn 0.0510 -0.0613 -0.9968
vn -0.4924 -0.4611 -0.7382
vn -0.2586 0.6178 0.7426
vn -0.8117 0.5728 0.1138
vn -0.0116 0.6898 0.7239
vn 0.2384 0.6429 0.7279
vn 0.8100 0.5839 0.0554
vn 0.2338 0.7407 -0.6298
vn 0.0091 0.8081 -0.5890
vn -0.2117 0.7641 -0.6094
vn -0.0000 1.0000 -0.0000
vn 0.2719 -0.9092 -0.3154
vn 0.6997 0.7063 -0.1078
vn 0.3293 0.8445 -0.4224
vn 0.6469 -0.7603 -0.0588
vn -0.3297 0.8445 -0.4220
vn -0.2718 -0.9092 -0.3154
vn -0.7035 0.7024 -0.1082
vn -0.6510 -0.7567 -0.0593
vn -0.7657 0.6316 0.1215
vn -0.5480 -0.5382 0.6403
vn -0.4676 0.6470 0.6023
vn -0.6850 -0.7254 0.0678
vn 0.5476 -0.5381 0.6407
vn 0.4680 0.6470 0.6020
vn 0.6806 -0.7295 0.0677
vn 0.7617 0.6365 0.1211
vn 0.8363 -0.5404 -0.0927
vn 0.6951 -0.4715 -0.5428
vn 0.5196 0.6416 -0.5642
vn 0.6343 0.7403 0.2226
vn 0.9843 -0.0432 -0.1708
vn 0.5440 0.4624 0.7002
vn 0.2361 0.1971 0.9515
vn 0.8359 0.0502 -0.5465
vn 0.8412 0.0561 0.5378
vn 0.8325 0.2501 -0.4944
vn 0.8013 -0.5490 -0.2378
vn 0.3638 -0.6314 -0.6848
vn 0.5024 0.3878 -0.7728
vn 0.8432 0.4176 -0.3385
vn 0.6643 -0.1946 -0.7217
vn 0.4976 0.5690 -0.6547
vn 0.8413 0.4888 -0.2308
vn 0.6530 -0.7436 0.1438
vn 0.3963 -0.6953 -0.5996
vn 0.7377 -0.6199 0.2673
vn 0.9803 0.1676 0.1050
vn 0.6455 -0.1784 0.7427
vn 0.5323 -0.5826 0.6142
vn 0.8305 -0.1102 0.5460
vn 0.8610 0.2397 -0.4485
vn 0.8197 -0.1591 -0.5502
vn 0.4501 -0.3250 0.8317
vn 0.3924 -0.4248 0.8159
vn 0.5693 0.2139 0.7938
vn 0.4063 -0.1196 0.9059
vn 0.3408 0.0666 0.9378
vn 0.8259 -0.4365 -0.3569
vn 0.3037 0.4317 0.8493
vn 0.6046 0.7409 -0.2923
vn 0.9921 0.0793 -0.0972
vn -0.0557 -0.6399 -0.7664
vn 0.0788 0.7579 -0.6476
vn -0.0604 -0.9362 -0.3461
vn 0.1085 0.9562 0.2720
vn 0.0403 0.2143 0.9759
vn 0.0007 0.2481 0.9687
vn 0.0495 0.1444 0.9883
vn 0.0742 0.2306 0.9702
vn 0.0000 -0.2383 -0.9712
vn 0.0000 -0.5659 -0.8245
vn 0.0000 0.0420 -0.9991
vn 0.0263 0.0762 0.9967
vn 0.0000 0.4406 -0.8977
vn -0.1018 -0.6633 -0.7414
vn -0.1646 0.3825 -0.9092
vn 0.0000 -0.9229 -0.3850
vn 0.0000 0.8145 -0.5802
vn 0.0000 0.6839 -0.7296
vn 0.0000 0.9233 -0.3840
vn 0.0056 -0.1019 -0.9948
vn 0.0382 -0.7648 -0.6432
vn 0.0461 -0.9717 0.2315
vn 0.0471 -0.9452 0.3230
vn 0.0365 -0.7204 0.6926
vn 0.0000 -0.1407 0.9900
vn 0.0000 0.4110 -0.9116
vn 0.0000 -0.2298 -0.9732
vn 0.0589 -0.5456 0.8360
vn 0.0415 -0.6883 0.7243
vn 0.0405 -0.1823 0.9824
vn 0.0000 -0.6765 -0.7365
vn 0.1164 0.0168 0.9931
vn 0.1798 0.4818 0.8576
vn 0.0000 0.5227 0.8525
vn -0.0779 0.8984 -0.4322
vn -0.0119 0.9593 -0.2821
vn -0.6951 -0.4715 -0.5428
vn -0.8330 -0.5427 -0.1081
vn -0.5196 0.6417 -0.5642
vn -0.6237 0.7458 0.2339
vn -0.5330 0.4830 0.6947
vn -0.9376 -0.2896 -0.1925
vn -0.9843 -0.0432 -0.1708
vn -0.2470 0.1821 0.9517
vn -0.8412 0.0561 0.5378
vn -0.8359 0.0502 -0.5465
vn -0.8325 0.2501 -0.4944
vn -0.3638 -0.6314 -0.6848
vn -0.8013 -0.5490 -0.2378
vn -0.5024 0.3878 -0.7728
vn -0.8432 0.4176 -0.3385
vn -0.4976 0.5690 -0.6547
vn -0.6643 -0.1946 -0.7217
vn -0.8416 0.4886 -0.2300
vn -0.3963 -0.6953 -0.5996
vn -0.6531 -0.7435 0.1440
vn -0.7376 -0.6201 0.2672
vn -0.9855 -0.1205 0.1194
vn -0.5325 -0.5828 0.6138
vn 0.3169 -0.4410 0.8397
vn -0.8311 -0.1145 0.5442
vn -0.8610 0.2397 -0.4485
vn -0.8197 -0.1591 -0.5502
vn -0.8259 -0.4365 -0.3569
vn -0.5693 0.2139 0.7938
vn -0.3037 0.4317 0.8493
vn -0.3918 -0.4231 0.8170
vn -0.4501 -0.3250 0.8317
vn -0.4063 -0.1196 0.9059
vn -0.3408 0.0666 0.9378
vn -0.6046 0.7409 -0.2923
vn -0.9921 0.0793 -0.0972
vn 0.0557 -0.6399 -0.7664
vn -0.0788 0.7579 -0.6475
vn 0.0604 -0.9362 -0.3461
vn -0.1145 0.9543 0.2761
vn -0.0226 0.2439 0.9695
vn -0.1454 0.2293 0.9624
vn -0.0431 0.1390 0.9893
vn -0.0263 0.0762 0.9967
vn 0.1018 -0.6633 -0.7414
vn 0.1646 0.3825 -0.9092
vn -0.0056 -0.1019 -0.9948
vn -0.0382 -0.7648 -0.6432
vn -0.0461 -0.9717 0.2315
vn -0.0471 -0.9452 0.3230
vn -0.0365 -0.7204 0.6926
vn -0.0589 -0.5456 0.8360
vn -0.0415 -0.6883 0.7243
vn -0.0405 -0.1823 0.9824
vn -0.1170 0.0149 0.9930
vn -0.1823 0.4848 0.8554
vn 0.0779 0.8984 -0.4322
vn 0.0119 0.9593 -0.2821
vn -0.1089 -0.1132 0.9876
vn 0.1025 -0.1135 0.9882
vn -0.3228 0.5327 0.7823
vn 0.3107 0.5358 0.7851
vn -0.1317 0.5990 0.7899
vn 0.1137 0.5794 0.8071
vn -0.0248 0.2384 0.9708
vn 0.9388 -0.2820 -0.1977
vn -1.0000 0.0049 0.0068
vn -0.5337 0.1879 0.8245
vn -0.9976 -0.0158 -0.0678
vn -0.4959 0.3760 0.7827
vn 0.5332 0.1889 0.8246
vn 0.4951 0.3749 0.7838
vn 0.9975 -0.0163 -0.0686
vn 1.0000 0.0040 0.0053
vn 0.4726 -0.1908 -0.8604
vn 0.5024 -0.3654 -0.7837
vn -0.4723 -0.1903 -0.8607
vn -0.5016 -0.3668 -0.7835
vn -0.5313 -0.1778 0.8283
vn -0.9978 0.0137 -0.0654
vn 0.5315 -0.1774 0.8283
vn 0.9978 0.0135 -0.0650
vn 0.4734 0.1826 -0.8617
vn -0.4736 0.1828 -0.8616
vn -0.5148 -0.3511 0.7821
vn -0.9991 0.0165 -0.0387
vn 0.5152 -0.3517 0.7816
vn 0.9991 0.0162 -0.0379
vn 0.4791 0.3565 -0.8021
vn -0.4794 0.3559 -0.8022
vn 0.7554 -0.3276 0.5674
vn 0.7554 -0.6552 0.0000
vn 0.0000 -0.5000 0.8660
vn 0.7554 0.3276 0.5674
vn 0.0000 0.5000 0.8660
vn 0.7554 0.6552 0.0000
vn 0.7554 0.3276 -0.5674
vn 0.0000 0.5000 -0.8660
vn 0.7554 -0.3276 -0.5674
vn 0.0000 -0.5000 -0.8660
vn 0.5505 -0.4174 0.7230
vn 0.5505 -0.8348 0.0000
vn 0.5505 0.4174 0.7230
vn 0.5505 0.8348 0.0000
vn 0.5505 0.4174 -0.7230
vn 0.5505 -0.4174 -0.7230
vn -0.5505 -0.4174 0.7230
vn -0.5505 -0.8348 0.0000
vn -0.5505 0.4174 0.7230
vn -0.5505 0.8348 0.0000
vn -0.5505 0.4174 -0.7230
vn -0.5505 -0.4174 -0.7230
vn -0.7554 -0.3276 0.5674
vn -0.7554 -0.6552 -0.0000
vn -0.7554 0.3276 0.5674
vn -0.7554 0.6552 -0.0000
vn -0.7554 0.3276 -0.5674
vn -0.7554 -0.3276 -0.5674
usemtl inside.007
s off
f 378/1/1 324/2/1 311/3/1
f 311/3/1 324/2/1 275/4/1
f 275/4/1 324/2/1 290/5/1
f 324/2/1 378/1/1 391/6/1
f 391/6/1 342/7/1 358/8/1
f 378/1/1 342/7/1 391/6/1
s 1
f 1/9/2 2/10/3 3/11/4
f 4/12/5 5/13/6 1/14/2
f 6/15/7 5/13/6 4/12/5
f 7/16/8 6/15/7 8/17/9
f 9/18/10 10/19/11 7/20/8
f 2/21/3 1/22/2 5/23/6
f 11/24/12 12/25/13 5/23/6
f 10/26/11 11/24/12 6/27/7
f 1/9/2 3/11/4 13/28/14
f 4/12/5 1/14/2 13/29/14
f 6/15/7 4/12/5 8/17/9
f 7/16/8 8/17/9 14/30/15
f 9/18/10 7/20/8 14/31/15
f 2/21/3 5/23/6 12/25/13
f 11/24/12 5/23/6 6/27/7
f 10/26/11 6/27/7 7/32/8
f 15/33/16 16/34/17 17/35/18
f 15/36/16 18/37/19 19/38/20
f 15/36/16 20/39/21 21/40/22
f 22/41/23 23/42/24 24/43/25
f 22/44/23 25/45/26 17/35/18
f 22/41/23 16/34/17 21/40/22
f 26/46/27 20/47/21 19/38/20
f 26/48/27 27/49/28 28/50/29
f 26/51/27 29/52/30 21/40/22
f 30/53/31 29/54/30 28/50/29
f 30/55/31 31/56/32 24/43/25
f 30/57/31 23/58/24 21/40/22
f 32/59/33 18/60/19 17/35/18
f 32/61/33 33/62/34 34/63/35
f 32/64/33 35/65/36 19/38/20
f 36/66/37 25/67/26 24/43/25
f 36/68/37 37/69/38 34/63/35
f 36/70/37 33/71/34 17/35/18
f 38/72/39 27/73/28 19/38/20
f 38/72/39 35/74/36 34/63/35
f 38/75/39 39/76/40 28/50/29
f 40/77/41 37/78/38 24/43/25
f 40/79/41 31/80/32 28/50/29
f 40/77/41 39/76/40 34/63/35
f 41/81/42 42/82/43 43/83/44
f 41/84/42 44/85/45 45/86/46
f 41/84/42 46/87/47 47/88/48
f 48/89/49 49/90/50 50/91/51
f 48/92/49 51/93/52 43/83/44
f 48/89/49 42/82/43 47/88/48
f 52/94/53 46/95/47 45/86/46
f 52/96/53 53/97/54 54/98/55
f 52/99/53 55/100/56 47/88/48
f 56/101/57 55/102/56 54/98/55
f 56/103/57 57/104/58 50/91/51
f 55/100/56 56/105/57 49/106/50
f 58/107/59 44/108/45 43/83/44
f 58/109/59 59/110/60 60/111/61
f 58/112/59 61/113/62 45/86/46
f 62/114/63 51/115/52 50/91/51
f 62/116/63 63/117/64 60/111/61
f 62/118/63 59/119/60 43/83/44
f 64/120/65 53/121/54 45/86/46
f 64/120/65 61/122/62 60/111/61
f 64/123/65 65/124/66 54/98/55
f 66/125/67 63/126/64 50/91/51
f 66/127/67 57/128/58 54/98/55
f 63/117/64 66/125/67 65/124/66
f 67/129/68 68/130/69 69/131/70
f 67/132/68 70/133/71 71/134/72
f 67/132/68 72/135/73 73/136/74
f 74/137/75 75/138/76 76/139/77
f 74/140/75 77/141/78 69/131/70
f 75/142/76 74/137/75 68/130/69
f 78/143/79 72/144/73 71/134/72
f 78/145/79 79/146/80 80/147/81
f 78/148/79 81/149/82 73/136/74
f 82/150/83 81/151/82 80/147/81
f 82/152/83 83/153/84 76/139/77
f 82/154/83 75/142/76 73/136/74
f 84/155/85 70/156/71 69/131/70
f 84/157/85 85/158/86 86/159/87
f 84/160/85 87/161/88 71/134/72
f 88/162/89 77/163/78 76/139/77
f 85/158/86 88/164/89 89/165/90
f 88/166/89 85/167/86 69/131/70
f 90/168/91 79/169/80 71/134/72
f 90/168/91 87/170/88 86/159/87
f 90/171/91 91/172/92 80/147/81
f 92/173/93 89/174/90 76/139/77
f 92/175/93 83/176/84 80/147/81
f 92/173/93 91/172/92 86/159/87
f 93/177/94 94/178/95 95/179/96
f 93/180/94 96/181/97 97/182/98
f 93/180/94 98/183/99 99/184/100
f 100/185/101 101/186/102 102/187/103
f 100/188/101 103/189/104 95/179/96
f 101/190/102 100/185/101 94/178/95
f 104/191/105 98/192/99 97/182/98
f 104/193/105 105/194/106 106/195/107
f 104/196/105 107/197/108 99/184/100
f 108/198/109 107/199/108 106/195/107
f 108/200/109 109/201/110 102/187/103
f 107/197/108 108/202/109 101/190/102
f 110/203/111 96/204/97 95/179/96
f 110/205/111 111/206/112 112/207/113
f 110/208/111 113/209/114 97/182/98
f 114/210/115 103/211/104 102/187/103
f 111/206/112 114/212/115 115/213/116
f 114/214/115 111/215/112 95/179/96
f 116/216/117 105/217/106 97/182/98
f 116/216/117 113/218/114 112/207/113
f 116/219/117 117/220/118 106/195/107
f 118/221/119 115/222/116 102/187/103
f 118/223/119 109/224/110 106/195/107
f 115/213/116 118/221/119 117/220/118
f 119/225/120 120/226/121 121/227/122
f 119/228/120 122/229/123 123/230/124
f 119/228/120 124/231/125 125/232/126
f 126/233/127 127/234/128 128/235/129
f 126/236/127 129/237/130 121/227/122
f 127/238/128 126/233/127 120/226/121
f 130/239/131 124/240/125 123/230/124
f 130/241/131 131/242/132 132/243/133
f 130/244/131 133/245/134 125/232/126
f 134/246/135 133/247/134 132/243/133
f 134/248/135 135/249/136 128/235/129
f 133/245/134 134/250/135 127/238/128
f 136/251/137 122/252/123 121/227/122
f 136/253/137 137/254/138 138/255/139
f 136/256/137 139/257/140 123/230/124
f 140/258/141 129/259/130 128/235/129
f 137/254/138 140/260/141 141/261/142
f 140/262/141 137/263/138 121/227/122
f 142/264/143 131/265/132 123/230/124
f 142/264/143 139/266/140 138/255/139
f 142/267/143 143/268/144 132/243/133
f 144/269/145 141/270/142 128/235/129
f 144/271/145 135/272/136 132/243/133
f 141/261/142 144/269/145 143/268/144
f 41/81/42 43/83/44 44/108/45
f 41/84/42 45/86/46 46/95/47
f 41/84/42 47/88/48 42/82/43
f 48/89/49 50/91/51 51/115/52
f 48/92/49 43/83/44 42/82/43
f 48/89/49 47/88/48 49/106/50
f 52/94/53 45/86/46 53/121/54
f 52/96/53 54/98/55 55/102/56
f 52/99/53 47/88/48 46/87/47
f 56/101/57 54/98/55 57/128/58
f 56/103/57 50/91/51 49/90/50
f 55/100/56 49/106/50 47/88/48
f 58/107/59 43/83/44 59/119/60
f 58/109/59 60/111/61 61/122/62
f 58/112/59 45/86/46 44/85/45
f 62/114/63 50/91/51 63/126/64
f 62/116/63 60/111/61 59/110/60
f 62/118/63 43/83/44 51/93/52
f 64/120/65 45/86/46 61/113/62
f 64/120/65 60/111/61 65/124/66
f 64/123/65 54/98/55 53/97/54
f 66/125/67 50/91/51 57/104/58
f 66/127/67 54/98/55 65/124/66
f 63/117/64 65/124/66 60/111/61
f 67/129/68 69/131/70 70/156/71
f 67/132/68 71/134/72 72/144/73
f 67/132/68 73/136/74 68/130/69
f 74/137/75 76/139/77 77/163/78
f 74/140/75 69/131/70 68/130/69
f 75/142/76 68/130/69 73/136/74
f 78/143/79 71/134/72 79/169/80
f 78/145/79 80/147/81 81/151/82
f 78/148/79 73/136/74 72/135/73
f 82/150/83 80/147/81 83/176/84
f 82/152/83 76/139/77 75/138/76
f 82/154/83 73/136/74 81/149/82
f 84/155/85 69/131/70 85/167/86
f 84/157/85 86/159/87 87/170/88
f 84/160/85 71/134/72 70/133/71
f 88/162/89 76/139/77 89/174/90
f 85/158/86 89/165/90 86/159/87
f 88/166/89 69/131/70 77/141/78
f 90/168/91 71/134/72 87/161/88
f 90/168/91 86/159/87 91/172/92
f 90/171/91 80/147/81 79/146/80
f 92/173/93 76/139/77 83/153/84
f 92/175/93 80/147/81 91/172/92
f 92/173/93 86/159/87 89/165/90
f 93/177/94 95/179/96 96/204/97
f 93/180/94 97/182/98 98/192/99
f 93/180/94 99/184/100 94/178/95
f 100/185/101 102/187/103 103/211/104
f 100/188/101 95/179/96 94/178/95
f 101/190/102 94/178/95 99/184/100
f 104/191/105 97/182/98 105/217/106
f 104/193/105 106/195/107 107/199/108
f 104/196/105 99/184/100 98/183/99
f 108/198/109 106/195/107 109/224/110
f 108/200/109 102/187/103 101/186/102
f 107/197/108 101/190/102 99/184/100
f 110/203/111 95/179/96 111/215/112
f 110/205/111 112/207/113 113/218/114
f 110/208/111 97/182/98 96/181/97
f 114/210/115 102/187/103 115/222/116
f 111/206/112 115/213/116 112/207/113
f 114/214/115 95/179/96 103/189/104
f 116/216/117 97/182/98 113/209/114
f 116/216/117 112/207/113 117/220/118
f 116/219/117 106/195/107 105/194/106
f 118/221/119 102/187/103 109/201/110
f 118/223/119 106/195/107 117/220/118
f 115/213/116 117/220/118 112/207/113
f 119/225/120 121/227/122 122/252/123
f 119/228/120 123/230/124 124/240/125
f 119/228/120 125/232/126 120/226/121
f 126/233/127 128/235/129 129/259/130
f 126/236/127 121/227/122 120/226/121
f 127/238/128 120/226/121 125/232/126
f 130/239/131 123/230/124 131/265/132
f 130/241/131 132/243/133 133/247/134
f 130/244/131 125/232/126 124/231/125
f 134/246/135 132/243/133 135/272/136
f 134/248/135 128/235/129 127/234/128
f 133/245/134 127/238/128 125/232/126
f 136/251/137 121/227/122 137/263/138
f 136/253/137 138/255/139 139/266/140
f 136/256/137 123/230/124 122/229/123
f 140/258/141 128/235/129 141/270/142
f 137/254/138 141/261/142 138/255/139
f 140/262/141 121/227/122 129/237/130
f 142/264/143 123/230/124 139/257/140
f 142/264/143 138/255/139 143/268/144
f 142/267/143 132/243/133 131/242/132
f 144/269/145 128/235/129 135/249/136
f 144/271/145 132/243/133 143/268/144
f 141/261/142 143/268/144 138/255/139
f 15/33/16 17/35/18 18/60/19
f 15/36/16 19/38/20 20/47/21
f 15/36/16 21/40/22 16/34/17
f 22/41/23 24/43/25 25/67/26
f 22/44/23 17/35/18 16/34/17
f 22/41/23 21/40/22 23/58/24
f 26/46/27 19/38/20 27/73/28
f 26/48/27 28/50/29 29/54/30
f 26/51/27 21/40/22 20/39/21
f 30/53/31 28/50/29 31/80/32
f 30/55/31 24/43/25 23/42/24
f 30/57/31 21/40/22 29/52/30
f 32/59/33 17/35/18 33/71/34
f 32/61/33 34/63/35 35/74/36
f 32/64/33 19/38/20 18/37/19
f 36/66/37 24/43/25 37/78/38
f 36/68/37 34/63/35 33/62/34
f 36/70/37 17/35/18 25/45/26
f 38/72/39 19/38/20 35/65/36
f 38/72/39 34/63/35 39/76/40
f 38/75/39 28/50/29 27/49/28
f 40/77/41 24/43/25 31/56/32
f 40/79/41 28/50/29 39/76/40
f 40/77/41 34/63/35 37/69/38
f 507/273/146 508/274/147 506/275/148
f 509/276/149 508/274/147 507/273/146
f 510/277/150 508/274/147 509/276/149
f 508/274/147 505/278/151 506/275/148
f 507/279/146 512/280/152 513/281/153
f 512/280/152 507/279/146 506/282/148
f 509/283/149 513/281/153 514/284/154
f 513/281/153 509/283/149 507/279/146
f 510/285/150 514/286/154 515/287/155
f 514/286/154 510/285/150 509/288/149
f 508/289/147 515/287/155 516/290/156
f 515/287/155 508/289/147 510/285/150
f 505/291/151 516/292/156 511/293/157
f 516/292/156 505/291/151 508/294/147
f 519/295/158 518/296/159 517/297/160
f 519/295/158 520/298/161 518/296/159
f 519/295/158 521/299/162 520/298/161
f 519/295/158 522/300/163 521/299/162
f 525/301/164 524/302/165 520/303/161
f 518/304/159 520/303/161 524/302/165
f 526/305/166 525/301/164 521/306/162
f 520/303/161 521/306/162 525/301/164
f 527/307/167 526/308/166 522/309/163
f 521/310/162 522/309/163 526/308/166
f 528/311/168 527/307/167 519/312/158
f 522/309/163 519/312/158 527/307/167
f 523/313/157 528/314/168 517/315/160
f 519/316/158 517/315/160 528/314/168
f 529/317/169 531/318/170 530/319/171
f 530/319/171 531/318/170 532/320/172
f 526/308/166 527/307/167 514/286/154
f 514/286/154 527/307/167 515/287/155
f 513/281/153 526/305/166 514/284/154
f 526/305/166 513/281/153 525/301/164
f 524/302/165 513/281/153 512/280/152
f 513/281/153 524/302/165 525/301/164
f 528/314/168 523/313/157 516/292/156
f 516/292/156 523/313/157 511/293/157
f 530/319/171 532/320/172 515/287/155
f 516/290/156 515/287/155 532/320/172
f 531/318/170 527/307/167 528/311/168
f 527/307/167 531/318/170 529/317/169
f 529/317/169 515/287/155 527/307/167
f 515/287/155 529/317/169 530/319/171
usemtl evo.png
f 145/321/173 146/322/174 147/323/175
f 148/324/176 145/321/173 147/323/175
f 148/325/176 147/326/175 149/327/177
f 149/327/177 150/328/177 148/325/176
f 146/329/174 145/330/173 151/331/178
f 151/331/178 152/332/178 146/329/174
f 153/333/173 154/334/174 155/335/175
f 156/336/176 153/333/173 155/335/175
f 156/337/176 155/338/175 157/339/177
f 157/339/177 158/340/177 156/337/176
f 154/341/174 153/342/173 159/343/178
f 159/343/178 160/344/178 154/341/174
f 161/345/179 162/346/180 163/347/181
f 164/348/182 161/345/179 163/347/181
f 164/349/182 163/350/181 165/351/177
f 165/351/177 166/352/177 164/349/182
f 162/353/180 161/354/179 167/355/178
f 167/355/178 168/356/178 162/353/180
f 169/357/179 170/358/180 171/359/181
f 172/360/182 169/357/179 171/359/181
f 172/361/182 171/362/181 173/363/177
f 173/363/177 174/364/177 172/361/182
f 170/365/180 169/366/179 175/367/178
f 175/367/178 176/368/178 170/365/180
f 177/369/183 178/370/184 179/371/185
f 180/372/186 177/369/183 179/371/185
f 181/373/187 177/369/183 180/372/186
f 180/372/186 182/374/188 181/373/187
f 183/375/189 181/373/187 182/374/188
f 182/374/188 184/376/190 183/375/189
f 185/377/191 183/375/189 184/376/190
f 184/376/190 186/378/192 185/377/191
f 187/379/193 188/380/194 189/381/195
f 189/381/195 190/382/196 187/379/193
f 191/383/197 192/384/198 188/380/194
f 188/380/194 187/379/193 191/383/197
f 193/385/199 194/386/200 192/384/198
f 192/384/198 191/383/197 193/385/199
f 195/387/201 196/388/202 194/386/200
f 194/386/200 193/385/199 195/387/201
f 188/389/194 180/390/186 179/391/185
f 179/391/185 189/392/195 188/389/194
f 192/393/198 182/394/188 180/390/186
f 180/390/186 188/389/194 192/393/198
f 194/395/200 184/396/190 182/394/188
f 182/394/188 192/393/198 194/395/200
f 196/397/202 186/398/192 184/396/190
f 184/396/190 194/395/200 196/397/202
f 195/387/201 185/399/191 186/400/192
f 186/400/192 196/388/202 195/387/201
f 193/401/199 183/402/189 185/403/191
f 185/403/191 195/404/201 193/401/199
f 191/405/197 181/406/187 183/402/189
f 183/402/189 193/401/199 191/405/197
f 187/407/193 177/408/183 181/406/187
f 181/406/187 191/405/197 187/407/193
f 178/409/184 177/408/183 190/410/196
f 177/408/183 187/407/193 190/410/196
f 197/411/203 198/412/204 199/413/205
f 200/414/206 197/411/203 199/413/205
f 200/414/206 199/413/205 201/415/207
f 201/415/207 202/416/208 200/414/206
f 202/416/208 201/415/207 203/417/209
f 203/417/209 204/418/210 202/416/208
f 204/418/210 203/417/209 205/419/211
f 205/419/211 206/420/212 204/418/210
f 207/421/213 208/422/214 209/423/215
f 209/423/215 210/424/216 207/421/213
f 208/422/214 211/425/217 212/426/218
f 212/426/218 209/423/215 208/422/214
f 211/425/217 213/427/219 214/428/220
f 214/428/220 212/426/218 211/425/217
f 213/427/219 215/429/221 216/430/222
f 216/430/222 214/428/220 213/427/219
f 197/431/203 200/432/206 208/433/214
f 207/434/213 197/431/203 208/433/214
f 200/432/206 202/435/208 211/436/217
f 211/436/217 208/433/214 200/432/206
f 202/435/208 204/437/210 213/438/219
f 213/438/219 211/436/217 202/435/208
f 204/437/210 206/439/212 215/440/221
f 215/440/221 213/438/219 204/437/210
f 206/441/212 205/442/211 216/430/222
f 216/430/222 215/429/221 206/441/212
f 205/443/211 203/444/209 214/445/220
f 214/445/220 216/446/222 205/443/211
f 203/444/209 201/447/207 212/448/218
f 212/448/218 214/445/220 203/444/209
f 201/447/207 199/449/205 209/450/215
f 209/450/215 212/448/218 201/447/207
f 199/449/205 198/451/204 210/452/216
f 210/452/216 209/450/215 199/449/205
f 217/453/223 218/454/224 219/455/225
f 217/453/223 220/456/226 218/454/224
f 217/453/223 221/457/227 220/456/226
f 217/453/223 222/458/228 221/457/227
f 217/453/223 223/459/229 222/458/228
f 217/453/223 224/460/230 223/459/229
f 217/453/223 225/461/231 224/460/230
f 217/453/223 219/455/225 225/461/231
f 219/455/225 226/462/232 227/463/233
f 219/455/225 218/454/224 226/462/232
f 218/454/224 228/464/234 226/462/232
f 218/454/224 220/456/226 228/464/234
f 220/456/226 229/465/235 228/464/234
f 220/456/226 221/457/227 229/465/235
f 221/457/227 230/466/236 229/465/235
f 221/457/227 222/458/228 230/466/236
f 222/458/228 231/467/237 230/466/236
f 222/458/228 223/459/229 231/467/237
f 223/459/229 232/468/238 231/467/237
f 223/459/229 224/460/230 232/468/238
f 224/460/230 233/469/239 232/468/238
f 224/460/230 225/461/231 233/469/239
f 225/461/231 227/463/233 233/469/239
f 225/461/231 219/455/225 227/463/233
f 227/463/233 234/470/240 235/471/241
f 227/463/233 226/462/232 234/470/240
f 226/462/232 236/472/242 234/470/240
f 226/462/232 228/464/234 236/472/242
f 228/464/234 237/473/243 236/472/242
f 228/464/234 229/465/235 237/473/243
f 229/465/235 238/474/244 237/473/243
f 229/465/235 230/466/236 238/474/244
f 230/466/236 239/475/245 238/474/244
f 230/466/236 231/467/237 239/475/245
f 231/467/237 240/476/246 239/475/245
f 231/467/237 232/468/238 240/476/246
f 232/468/238 241/477/247 240/476/246
f 232/468/238 233/469/239 241/477/247
f 233/469/239 235/471/241 241/477/247
f 233/469/239 227/463/233 235/471/241
f 235/471/241 242/478/248 243/479/249
f 235/471/241 234/470/240 242/478/248
f 234/470/240 244/480/250 242/478/248
f 234/470/240 236/472/242 244/480/250
f 236/472/242 245/481/251 244/480/250
f 236/472/242 237/473/243 245/481/251
f 237/473/243 246/482/252 245/481/251
f 237/473/243 238/474/244 246/482/252
f 238/474/244 247/483/253 246/482/252
f 238/474/244 239/475/245 247/483/253
f 239/475/245 248/484/254 247/483/253
f 239/475/245 240/476/246 248/484/254
f 240/476/246 249/485/255 248/484/254
f 240/476/246 241/477/247 249/485/255
f 241/477/247 243/479/249 249/485/255
f 241/477/247 235/471/241 243/479/249
f 250/486/256 243/479/249 242/478/248
f 250/486/256 242/478/248 244/480/250
f 250/486/256 244/480/250 245/481/251
f 250/486/256 245/481/251 246/482/252
f 250/486/256 246/482/252 247/483/253
f 250/486/256 247/483/253 248/484/254
f 250/486/256 248/484/254 249/485/255
f 250/486/256 249/485/255 243/479/249
f 251/487/257 252/488/258 253/489/259
f 252/488/258 251/487/257 254/490/260
f 251/487/257 253/489/259 255/491/261
f 256/492/262 251/487/257 255/491/261
f 256/492/262 255/491/261 257/493/263
f 257/493/263 258/494/264 256/492/262
f 259/495/265 260/496/266 261/497/267
f 260/496/266 259/495/265 262/498/268
f 260/499/266 263/500/269 264/501/270
f 264/501/270 261/502/267 260/499/266
f 263/500/269 265/503/271 266/504/272
f 266/504/272 264/501/270 263/500/269
f 254/505/260 251/506/257 260/507/266
f 260/507/266 262/508/268 254/505/260
f 251/509/257 256/510/262 263/500/269
f 260/511/266 251/512/257 263/513/269
f 256/510/262 258/514/264 265/503/271
f 265/515/271 263/516/269 256/517/262
f 257/518/263 255/519/261 264/520/270
f 264/520/270 266/521/272 257/518/263
f 255/522/261 253/523/259 261/502/267
f 261/524/267 264/525/270 255/526/261
f 253/527/259 252/528/258 259/529/265
f 259/530/265 261/502/267 253/523/259
f 267/531/273 268/532/274 269/533/275
f 267/531/273 269/533/275 270/534/276
f 271/535/277 272/536/278 273/537/279
f 274/538/280 271/535/277 275/539/281
f 271/535/277 273/537/279 275/539/281
f 276/540/282 274/538/280 275/539/281
f 277/541/283 278/542/284 279/543/285
f 280/544/286 276/540/282 275/539/281
f 281/545/287 282/546/288 283/547/289
f 284/548/290 285/549/291 281/545/287
f 284/548/290 281/545/287 283/547/289
f 286/550/292 284/548/290 283/547/289
f 286/550/292 283/547/289 287/551/293
f 288/552/294 289/553/295 286/554/292
f 288/552/294 286/554/292 287/555/293
f 290/556/296 283/547/289 291/557/297
f 290/556/296 291/557/297 292/558/298
f 293/559/299 290/556/300 294/560/301
f 295/561/302 293/559/299 294/560/301
f 290/556/296 292/558/298 275/539/281
f 296/562/303 295/561/302 294/560/301
f 292/558/298 297/563/304 275/539/281
f 297/563/304 277/541/283 275/539/281
f 294/560/301 290/556/300 275/539/305
f 275/539/281 277/541/283 279/543/285
f 279/564/285 298/565/306 299/566/307
f 275/539/281 279/543/285 299/567/307
f 280/544/286 275/539/281 299/567/307
f 268/568/274 300/569/308 301/570/309
f 301/571/309 269/572/275 268/573/274
f 267/574/273 302/575/310 300/569/308
f 268/568/274 267/574/273 300/569/308
f 269/533/275 301/576/309 303/577/311
f 303/577/311 270/534/276 269/533/275
f 304/578/312 305/579/313 306/580/314
f 307/581/315 273/582/279 272/583/278
f 271/584/277 308/585/316 309/586/317
f 274/587/280 310/588/318 308/585/316
f 308/585/316 271/584/277 274/587/280
f 273/582/279 306/580/314 311/589/319
f 311/589/319 275/590/281 273/582/279
f 276/591/282 312/592/320 310/588/318
f 310/588/318 274/587/280 276/591/282
f 278/593/284 313/594/321 314/595/322
f 314/595/322 279/564/285 278/593/284
f 277/596/283 315/597/323 313/594/321
f 313/594/321 278/593/284 277/596/283
f 280/598/286 316/599/324 312/592/320
f 312/592/320 276/591/282 280/598/286
f 282/600/288 317/601/325 318/602/326
f 318/602/326 283/603/289 282/600/288
f 281/604/287 319/605/327 317/601/325
f 317/601/325 282/600/288 281/604/287
f 285/606/291 320/607/328 319/605/327
f 319/605/327 281/604/287 285/606/291
f 284/608/290 321/609/329 320/610/328
f 320/610/328 285/611/291 284/608/290
f 286/554/292 322/612/330 321/609/329
f 321/609/329 284/608/290 286/554/292
f 289/553/295 323/613/331 322/612/330
f 322/612/330 286/554/292 289/553/295
f 290/614/296 324/615/332 323/616/331
f 323/616/331 289/617/295 288/618/294
f 323/616/331 288/618/294 290/614/296
f 283/603/289 318/602/326 325/619/333
f 325/619/333 291/620/297 283/603/289
f 291/620/297 325/619/333 326/621/334
f 326/621/334 292/622/298 291/620/297
f 293/623/299 327/624/335 324/625/336
f 324/625/336 290/626/300 293/623/299
f 295/627/302 328/628/337 327/624/335
f 327/624/335 293/623/299 295/627/302
f 292/622/298 326/621/334 329/629/338
f 329/629/338 297/630/304 292/622/298
f 296/631/303 330/632/339 328/633/337
f 328/633/337 295/634/302 296/631/303
f 297/630/304 329/629/338 315/597/323
f 315/597/323 277/596/283 297/630/304
f 294/635/301 331/636/340 330/632/339
f 330/632/339 296/631/303 294/635/301
f 275/637/305 311/638/341 331/639/340
f 331/639/340 294/640/301 275/637/305
f 298/565/306 332/641/342 333/642/343
f 333/642/343 299/566/307 298/565/306
f 279/564/285 314/595/322 332/641/342
f 332/641/342 298/565/306 279/564/285
f 299/566/307 333/642/343 316/599/324
f 316/599/324 280/598/286 299/566/307
f 334/643/344 335/644/345 336/645/346
f 336/645/346 335/644/345 337/646/347
f 338/647/348 337/646/347 339/648/349
f 338/649/348 340/650/350 341/651/351
f 340/650/350 342/652/352 341/651/351
f 340/650/350 343/653/353 342/652/352
f 343/653/353 344/654/354 342/652/352
f 345/655/355 346/656/356 347/657/357
f 344/654/354 348/658/358 342/652/352
f 349/659/359 350/660/360 351/661/361
f 352/662/362 353/663/363 350/660/360
f 350/660/360 353/663/363 351/661/361
f 353/663/363 354/664/364 355/665/365
f 353/663/363 355/665/365 351/661/361
f 290/556/296 288/666/294 287/551/293
f 290/556/296 287/551/293 283/547/289
f 356/667/366 357/668/367 355/669/365
f 356/667/366 355/669/365 354/670/364
f 351/661/361 358/671/368 359/672/369
f 359/672/369 358/671/368 360/673/370
f 358/671/368 342/652/352 360/673/370
f 342/652/352 361/674/371 360/673/370
f 362/675/372 342/652/373 358/671/374
f 362/675/372 358/671/374 363/676/375
f 342/652/352 347/657/357 346/656/356
f 361/674/371 342/652/352 346/656/356
f 362/675/372 363/676/375 364/677/376
f 362/675/372 364/677/376 365/678/377
f 366/679/378 347/680/357 367/681/379
f 347/657/357 342/652/352 367/682/379
f 342/652/352 348/658/358 367/682/379
f 368/683/380 334/684/344 369/685/381
f 336/686/346 369/687/381 334/688/344
f 370/689/382 335/690/345 368/683/380
f 334/684/344 368/683/380 335/690/345
f 369/691/381 336/645/346 371/692/383
f 337/646/347 371/692/383 336/645/346
f 372/693/384 373/694/385 374/695/386
f 373/694/385 372/693/384 338/696/348
f 375/697/316 340/698/350 376/699/317
f 377/700/318 343/701/353 375/697/316
f 340/698/350 375/697/316 343/701/353
f 374/695/386 341/702/351 378/703/387
f 342/704/352 378/703/387 341/702/351
f 379/705/320 344/706/354 377/700/318
f 343/701/353 377/700/318 344/706/354
f 380/707/388 345/708/355 381/709/389
f 347/680/357 381/709/389 345/708/355
f 382/710/323 346/711/356 380/707/388
f 345/708/355 380/707/388 346/711/356
f 383/712/324 348/713/358 379/705/320
f 344/706/354 379/705/320 348/713/358
f 384/714/325 349/715/359 385/716/326
f 351/717/361 385/716/326 349/715/359
f 386/718/390 350/719/360 384/714/325
f 349/715/359 384/714/325 350/719/360
f 387/720/391 352/721/362 386/718/390
f 350/719/360 386/718/390 352/721/362
f 388/722/392 353/723/363 387/724/391
f 352/725/362 387/724/391 353/723/363
f 389/726/393 354/670/364 388/722/392
f 353/723/363 388/722/392 354/670/364
f 390/727/394 356/667/366 389/726/393
f 354/670/364 389/726/393 356/667/366
f 391/728/332 358/729/368 390/730/394
f 356/731/366 390/730/394 358/729/368
f 356/731/366 358/729/368 357/732/367
f 385/716/326 351/717/361 392/733/333
f 359/734/369 392/733/333 351/717/361
f 392/733/333 359/734/369 393/735/334
f 360/736/370 393/735/334 359/734/369
f 394/737/395 363/738/375 391/739/396
f 358/740/374 391/739/396 363/738/375
f 395/741/397 364/742/376 394/737/395
f 363/738/375 394/737/395 364/742/376
f 393/735/334 360/736/370 396/743/338
f 361/744/371 396/743/338 360/736/370
f 397/745/398 365/746/377 395/747/397
f 364/748/376 395/747/397 365/746/377
f 396/743/338 361/744/371 382/710/323
f 346/711/356 382/710/323 361/744/371
f 398/749/399 362/750/372 397/745/398
f 365/746/377 397/745/398 362/750/372
f 378/751/341 342/752/373 398/753/399
f 362/754/372 398/753/399 342/752/373
f 399/755/400 366/679/378 400/756/401
f 367/681/379 400/756/401 366/679/378
f 381/709/389 347/680/357 399/755/400
f 366/679/378 399/755/400 347/680/357
f 400/756/401 367/681/379 383/712/324
f 348/713/358 383/712/324 367/681/379
f 401/757/402 402/758/403 403/759/404
f 402/758/403 404/760/405 403/759/404
f 395/747/397 328/633/337 397/745/398
f 328/633/337 330/632/339 397/745/398
f 327/624/335 328/628/337 395/741/397
f 395/741/397 394/737/395 327/624/335
f 391/739/396 324/625/336 327/624/335
f 327/624/335 394/737/395 391/739/396
f 323/616/331 324/615/332 391/728/332
f 391/728/332 390/730/394 323/616/331
f 390/727/394 389/726/393 323/613/331
f 322/612/330 323/613/331 389/726/393
f 389/726/393 388/722/392 322/612/330
f 388/722/392 321/609/329 322/612/330
f 387/724/391 321/609/329 388/722/392
f 320/610/328 321/609/329 387/724/391
f 387/720/391 319/605/327 320/607/328
f 386/718/390 319/605/327 387/720/391
f 317/601/325 319/605/327 386/718/390
f 386/718/390 384/714/325 317/601/325
f 385/716/326 317/601/325 384/714/325
f 318/602/326 317/601/325 385/716/326
f 385/716/326 392/733/333 318/602/326
f 392/733/333 325/619/333 318/602/326
f 325/619/333 392/733/333 326/621/334
f 392/733/333 393/735/334 326/621/334
f 326/621/334 393/735/334 329/629/338
f 393/735/334 396/743/338 329/629/338
f 329/629/338 396/743/338 315/597/323
f 396/743/338 382/710/323 315/597/323
f 315/597/323 382/710/323 313/594/321
f 382/710/323 380/707/388 313/594/321
f 313/594/321 380/707/388 314/595/322
f 380/707/388 381/709/389 314/595/322
f 381/709/389 399/755/400 314/595/322
f 399/755/400 332/641/342 314/595/322
f 332/641/342 399/755/400 400/756/401
f 400/756/401 333/642/343 332/641/342
f 383/712/324 316/599/324 400/756/401
f 316/599/324 333/642/343 400/756/401
f 383/712/324 312/592/320 316/599/324
f 379/705/320 312/592/320 383/712/324
f 377/700/318 310/588/318 379/705/320
f 310/588/318 312/592/320 379/705/320
f 375/697/316 308/585/316 377/700/318
f 308/585/316 310/588/318 377/700/318
f 375/697/316 309/586/317 308/585/316
f 376/699/317 309/586/317 375/697/316
f 302/575/310 309/586/317 370/689/382
f 370/689/382 309/586/317 376/699/317
f 300/569/308 302/575/310 368/683/380
f 302/575/310 370/689/382 368/683/380
f 301/570/309 300/569/308 369/685/381
f 369/685/381 300/569/308 368/683/380
f 369/691/381 371/692/383 301/576/309
f 371/692/383 303/577/311 301/576/309
f 371/692/383 405/761/406 303/577/311
f 405/761/406 406/762/407 303/577/311
f 407/763/408 305/579/313 372/693/384
f 305/579/313 406/764/407 405/765/406
f 378/703/387 311/589/319 374/695/386
f 311/589/319 306/580/314 374/695/386
f 398/753/399 331/639/340 378/751/341
f 331/639/340 311/638/341 378/751/341
f 339/766/349 376/699/317 340/698/350
f 335/690/345 370/689/382 339/766/349
f 376/699/317 339/766/349 370/689/382
f 339/767/349 340/650/350 338/649/348
f 306/580/314 273/582/279 307/581/315
f 306/580/314 307/581/315 304/578/312
f 272/583/278 406/764/407 304/578/312
f 272/583/278 304/578/312 307/581/315
f 304/578/312 406/764/407 305/579/313
f 306/580/314 305/579/313 407/763/408
f 374/695/386 306/580/314 407/763/408
f 374/695/386 407/763/408 372/693/384
f 405/765/406 338/696/348 372/693/384
f 405/765/406 372/693/384 305/579/313
f 341/702/351 374/695/386 373/694/385
f 341/702/351 373/694/385 338/696/348
f 402/758/403 330/632/339 404/760/405
f 331/636/340 404/760/405 330/632/339
f 403/759/404 398/749/399 397/745/398
f 397/745/398 401/757/402 403/759/404
f 401/757/402 397/745/398 330/632/339
f 330/632/339 402/758/403 401/757/402
f 404/768/405 331/769/340 398/770/399
f 398/770/399 403/771/404 404/768/405
f 408/772/409 267/531/273 272/773/278
f 309/586/317 408/774/409 271/584/277
f 302/575/310 267/574/273 408/774/409
f 408/774/409 309/586/317 302/575/310
f 408/775/409 272/536/278 271/535/277
f 371/692/383 338/647/348 405/761/406
f 371/692/383 337/646/347 338/647/348
f 337/646/347 335/644/345 339/648/349
f 272/773/278 270/534/276 406/762/407
f 270/534/276 303/577/311 406/762/407
f 272/773/278 267/531/273 270/534/276
f 409/776/410 410/777/411 411/778/412
f 409/776/410 412/779/413 410/777/411
f 412/780/413 413/781/414 410/782/411
f 412/780/413 414/783/415 413/781/414
f 414/784/415 415/785/416 413/786/414
f 414/784/415 416/787/417 415/785/416
f 416/787/417 417/788/418 415/785/416
f 416/787/417 418/789/419 417/788/418
f 418/790/419 419/791/420 417/792/418
f 418/790/419 420/793/421 419/791/420
f 420/794/421 411/778/412 419/795/420
f 420/794/421 409/776/410 411/778/412
f 411/778/412 421/796/422 422/797/423
f 411/778/412 410/777/411 421/796/422
f 410/782/411 423/798/424 421/799/422
f 410/782/411 413/781/414 423/798/424
f 413/786/414 424/800/425 423/801/424
f 413/786/414 415/785/416 424/800/425
f 415/785/416 425/802/426 424/800/425
f 415/785/416 417/788/418 425/802/426
f 417/792/418 426/803/427 425/804/426
f 417/792/418 419/791/420 426/803/427
f 419/795/420 422/797/423 426/805/427
f 419/795/420 411/778/412 422/797/423
f 422/797/423 427/806/428 428/807/429
f 422/797/423 421/796/422 427/806/428
f 421/799/422 429/808/430 427/809/428
f 421/799/422 423/798/424 429/808/430
f 423/801/424 430/810/431 429/811/430
f 423/801/424 424/800/425 430/810/431
f 424/800/425 431/812/432 430/810/431
f 424/800/425 425/802/426 431/812/432
f 425/804/426 432/813/433 431/814/432
f 425/804/426 426/803/427 432/813/433
f 426/805/427 428/807/429 432/815/433
f 426/805/427 422/797/423 428/807/429
f 433/816/223 434/817/434 435/818/435
f 433/816/223 436/819/436 434/817/434
f 436/819/436 437/820/437 434/817/434
f 436/819/436 438/821/438 437/820/437
f 438/821/438 439/822/439 437/820/437
f 438/821/438 440/823/256 439/822/439
f 440/824/256 441/825/440 439/826/439
f 440/824/256 442/827/441 441/825/440
f 442/827/441 443/828/442 441/825/440
f 442/827/441 444/829/443 443/828/442
f 444/829/443 435/830/435 443/828/442
f 444/829/443 433/831/223 435/830/435
f 435/832/435 445/833/444 446/834/445
f 435/832/435 434/835/434 445/833/444
f 434/835/434 447/836/446 445/833/444
f 434/835/434 437/837/437 447/836/446
f 437/837/437 448/838/447 447/836/446
f 437/837/437 439/839/439 448/838/447
f 439/839/439 449/840/448 448/838/447
f 439/839/439 441/841/440 449/840/448
f 441/841/440 450/842/449 449/840/448
f 441/841/440 443/843/442 450/842/449
f 443/843/442 446/834/445 450/842/449
f 443/843/442 435/832/435 446/834/445
f 446/844/445 451/845/450 452/846/451
f 446/844/445 445/847/444 451/845/450
f 445/847/444 453/848/452 451/845/450
f 445/847/444 447/849/446 453/848/452
f 447/849/446 454/850/453 453/848/452
f 447/849/446 448/851/447 454/850/453
f 448/852/447 455/853/454 454/854/453
f 448/852/447 449/855/448 455/853/454
f 449/855/448 456/856/455 455/853/454
f 449/855/448 450/857/449 456/856/455
f 450/857/449 452/858/451 456/856/455
f 450/857/449 446/859/445 452/858/451
f 452/860/451 457/861/456 458/862/457
f 452/860/451 451/863/450 457/861/456
f 451/863/450 459/864/458 457/861/456
f 451/863/450 453/865/452 459/864/458
f 453/865/452 460/866/459 459/864/458
f 453/865/452 454/867/453 460/866/459
f 454/867/453 461/868/460 460/866/459
f 454/867/453 455/869/454 461/868/460
f 455/869/454 462/870/461 461/868/460
f 455/869/454 456/871/455 462/870/461
f 456/871/455 458/862/457 462/870/461
f 456/871/455 452/860/451 458/862/457
f 458/872/457 463/873/436 464/874/223
f 458/872/457 457/875/456 463/873/436
f 457/875/456 465/876/438 463/873/436
f 457/875/456 459/877/458 465/876/438
f 459/877/458 466/878/256 465/876/438
f 459/877/458 460/879/459 466/878/256
f 460/880/459 467/881/441 466/882/256
f 460/880/459 461/883/460 467/881/441
f 461/883/460 468/884/443 467/881/441
f 461/883/460 462/885/461 468/884/443
f 462/885/461 464/886/223 468/884/443
f 462/885/461 458/887/457 464/886/223
f 469/888/223 470/889/434 471/890/435
f 469/888/223 472/891/436 470/889/434
f 472/891/436 473/892/437 470/889/434
f 472/891/436 474/893/438 473/892/437
f 474/893/438 475/894/439 473/892/437
f 474/893/438 476/895/256 475/894/439
f 476/896/256 477/897/440 475/898/439
f 476/896/256 478/899/441 477/897/440
f 478/899/441 479/900/442 477/897/440
f 478/899/441 480/901/443 479/900/442
f 480/901/443 471/902/435 479/900/442
f 480/901/443 469/903/223 471/902/435
f 471/904/435 481/905/444 482/906/445
f 471/904/435 470/907/434 481/905/444
f 470/907/434 483/908/446 481/905/444
f 470/907/434 473/909/437 483/908/446
f 473/909/437 484/910/447 483/908/446
f 473/909/437 475/911/439 484/910/447
f 475/911/439 485/912/448 484/910/447
f 475/911/439 477/913/440 485/912/448
f 477/913/440 486/914/449 485/912/448
f 477/913/440 479/915/442 486/914/449
f 479/915/442 482/906/445 486/914/449
f 479/915/442 471/904/435 482/906/445
f 482/916/445 487/917/450 488/918/451
f 482/916/445 481/919/444 487/917/450
f 481/919/444 489/920/452 487/917/450
f 481/919/444 483/921/446 489/920/452
f 483/921/446 490/922/453 489/920/452
f 483/921/446 484/923/447 490/922/453
f 484/924/447 491/925/454 490/926/453
f 484/924/447 485/927/448 491/925/454
f 485/927/448 492/928/455 491/925/454
f 485/927/448 486/929/449 492/928/455
f 486/929/449 488/930/451 492/928/455
f 486/929/449 482/931/445 488/930/451
f 488/932/451 493/933/456 494/934/457
f 488/932/451 487/935/450 493/933/456
f 487/935/450 495/936/458 493/933/456
f 487/935/450 489/937/452 495/936/458
f 489/937/452 496/938/459 495/936/458
f 489/937/452 490/939/453 496/938/459
f 490/939/453 497/940/460 496/938/459
f 490/939/453 491/941/454 497/940/460
f 491/941/454 498/942/461 497/940/460
f 491/941/454 492/943/455 498/942/461
f 492/943/455 494/934/457 498/942/461
f 492/943/455 488/932/451 494/934/457
f 494/944/457 499/945/436 500/946/223
f 494/944/457 493/947/456 499/945/436
f 493/947/456 501/948/438 499/945/436
f 493/947/456 495/949/458 501/948/438
f 495/949/458 502/950/256 501/948/438
f 495/949/458 496/951/459 502/950/256
f 496/952/459 503/953/441 502/954/256
f 496/952/459 497/955/460 503/953/441
f 497/955/460 504/956/443 503/953/441
f 497/955/460 498/957/461 504/956/443
f 498/957/461 500/958/223 504/956/443
f 498/957/461 494/959/457 500/958/223
f 357/960/367 358/671/368 351/661/361
f 357/960/367 351/661/361 355/665/365
