# Blender v3.0.1 OBJ File: ''
# www.blender.org
mtllib evo_wheel.mtl
o Mesh_wheel_Cylinder01x.002
v 0.197287 -0.000000 0.000001
v 0.378789 -0.768128 0.279574
v 0.378789 -0.817423 0.000001
v 0.378789 -0.626183 0.525429
v 0.378789 -0.408712 0.707908
v 0.378789 -0.141946 0.805005
v 0.378789 0.141945 0.805005
v 0.378789 0.408711 0.707909
v 0.378789 0.626182 0.525429
v 0.378789 0.768128 0.279575
v 0.378789 0.817423 0.000002
v 0.378789 0.768128 -0.279575
v 0.378789 0.626183 -0.525429
v 0.378789 0.408712 -0.707909
v 0.378789 0.141942 -0.805006
v 0.378789 -0.141945 -0.805006
v 0.378789 -0.408711 -0.707909
v 0.378789 -0.626182 -0.525430
v 0.378789 -0.768128 -0.279576
v 0.298258 -0.954197 0.347297
v 0.298258 -1.015435 0.000001
v 0.298258 -0.777866 0.652709
v 0.298258 -0.507718 0.879391
v 0.298258 -0.176328 1.000006
v 0.298258 0.176327 1.000006
v 0.298258 0.507717 0.879391
v 0.298258 0.777869 0.652710
v 0.298258 0.954197 0.347298
v 0.298258 1.015435 0.000002
v 0.298258 0.954197 -0.347298
v 0.298258 0.777866 -0.652707
v 0.298258 0.507718 -0.879392
v 0.298258 0.176328 -1.000007
v 0.298258 -0.176327 -1.000007
v 0.298258 -0.507717 -0.879392
v 0.298258 -0.777866 -0.652708
v 0.298258 -0.954197 -0.347299
v -0.298259 -0.954197 0.347297
v -0.298259 -1.015432 0.000001
v -0.298259 -0.777866 0.652709
v -0.298259 -0.507718 0.879391
v -0.298259 -0.176328 1.000006
v -0.298259 0.176327 1.000006
v -0.298259 0.507717 0.879391
v -0.298259 0.777869 0.652710
v -0.298259 0.954197 0.347298
v -0.298259 1.015435 0.000002
v -0.298259 0.954197 -0.347298
v -0.298259 0.777866 -0.652707
v -0.298259 0.507718 -0.879392
v -0.298259 0.176328 -1.000007
v -0.298259 -0.176327 -1.000007
v -0.298259 -0.507717 -0.879392
v -0.298259 -0.777866 -0.652708
v -0.298259 -0.954197 -0.347299
v -0.378787 -0.768128 0.279574
v -0.378787 -0.817423 0.000001
v -0.378787 -0.626183 0.525429
v -0.378787 -0.408712 0.707908
v -0.378787 -0.141946 0.805005
v -0.378787 0.141945 0.805005
v -0.378787 0.408711 0.707909
v -0.378787 0.626182 0.525429
v -0.378787 0.768128 0.279575
v -0.378787 0.817423 0.000002
v -0.378787 0.768128 -0.279575
v -0.378787 0.626183 -0.525429
v -0.378787 0.408712 -0.707909
v -0.378787 0.141942 -0.805006
v -0.378787 -0.141945 -0.805006
v -0.378787 -0.408711 -0.707909
v -0.378787 -0.626182 -0.525430
v -0.378787 -0.768128 -0.279576
v -0.197286 -0.000000 0.000001
vt 0.723917 0.058867
vt 0.680243 0.075200
vt 0.677476 0.058867
vt 0.688497 0.089036
vt 0.700115 0.099727
vt 0.715664 0.105756
vt 0.732171 0.106337
vt 0.747913 0.100696
vt 0.761276 0.090392
vt 0.769723 0.075587
vt 0.772103 0.058867
vt 0.768948 0.042448
vt 0.760113 0.028312
vt 0.747720 0.017340
vt 0.732365 0.012280
vt 0.715470 0.012474
vt 0.700503 0.018309
vt 0.688303 0.028893
vt 0.680050 0.042835
vt 0.669096 0.078711
vt 0.666215 0.058673
vt 0.678858 0.096805
vt 0.694194 0.110477
vt 0.713767 0.117705
vt 0.734261 0.117705
vt 0.753834 0.110864
vt 0.769945 0.097774
vt 0.780289 0.079293
vt 0.783946 0.058867
vt 0.780482 0.037967
vt 0.769364 0.020455
vt 0.753059 0.007258
vt 0.734455 0.000030
vt 0.713574 0.000030
vt 0.694969 0.008420
vt 0.679052 0.021230
vt 0.670453 0.038936
vt 0.850079 0.064359
vt 0.839509 0.010840
vt 0.850079 0.010840
vt 0.839509 0.064359
vt 0.828855 0.010840
vt 0.828855 0.064359
vt 0.818117 0.010840
vt 0.818117 0.064359
vt 0.809142 0.010840
vt 0.808527 0.064359
vt 1.000150 0.064359
vt 0.989329 0.010840
vt 1.000150 0.010840
vt 0.989329 0.064359
vt 0.978426 0.010840
vt 0.978426 0.064359
vt 0.967688 0.010840
vt 0.967688 0.064359
vt 0.957118 0.010840
vt 0.957118 0.064359
vt 0.946547 0.010840
vt 0.946547 0.064359
vt 0.935976 0.010840
vt 0.935976 0.064359
vt 0.925323 0.010840
vt 0.925323 0.064359
vt 0.914585 0.010840
vt 0.914585 0.064359
vt 0.903765 0.010840
vt 0.903765 0.064359
vt 0.892861 0.010840
vt 0.892861 0.064359
vt 0.882041 0.010840
vt 0.882041 0.064359
vt 0.871304 0.010840
vt 0.871304 0.064359
vt 0.860650 0.010840
vt 0.860650 0.064359
vt 0.783946 0.058673
vt 0.769918 0.075006
vt 0.772685 0.058867
vt 0.781065 0.078517
vt 0.761664 0.088842
vt 0.771496 0.096999
vt 0.750046 0.099533
vt 0.755967 0.110477
vt 0.734497 0.105949
vt 0.736587 0.117705
vt 0.717990 0.106143
vt 0.715900 0.118093
vt 0.702054 0.100696
vt 0.696133 0.111058
vt 0.688885 0.090392
vt 0.680409 0.097774
vt 0.680438 0.075587
vt 0.669872 0.079486
vt 0.678058 0.059061
vt 0.666022 0.058673
vt 0.681213 0.042448
vt 0.669872 0.037967
vt 0.690048 0.028312
vt 0.680797 0.020455
vt 0.702441 0.017534
vt 0.697102 0.007258
vt 0.717990 0.012280
vt 0.715706 0.000224
vt 0.734691 0.012474
vt 0.736781 0.000224
vt 0.749271 0.018503
vt 0.755385 0.008420
vt 0.762052 0.028700
vt 0.771109 0.021230
vt 0.770111 0.042835
vt 0.779514 0.039130
vt 0.726244 0.058867
vn 1.0000 -0.0000 -0.0000
vn 0.9932 -0.1094 0.0398
vn 0.9932 -0.1164 0.0000
vn 0.9932 -0.0892 0.0748
vn 0.9932 -0.0582 0.1008
vn 0.9932 -0.0202 0.1147
vn 0.9932 0.0202 0.1147
vn 0.9932 0.0582 0.1008
vn 0.9932 0.0892 0.0748
vn 0.9932 0.1094 0.0398
vn 0.9932 0.1164 -0.0000
vn 0.9932 0.1094 -0.0398
vn 0.9932 0.0892 -0.0748
vn 0.9932 0.0582 -0.1008
vn 0.9932 0.0202 -0.1147
vn 0.9932 -0.0202 -0.1147
vn 0.9932 -0.0582 -0.1008
vn 0.9932 -0.0892 -0.0748
vn 0.9932 -0.1094 -0.0398
vn 0.5314 -0.7961 0.2897
vn 0.5314 -0.8472 -0.0000
vn 0.5314 -0.6490 0.5445
vn 0.5314 -0.4236 0.7337
vn 0.5314 -0.1471 0.8343
vn 0.5314 0.1471 0.8343
vn 0.5314 0.4236 0.7337
vn 0.5314 0.6490 0.5445
vn 0.5314 0.7961 0.2897
vn 0.5314 0.8471 0.0000
vn 0.5314 0.7961 -0.2897
vn 0.5314 0.6490 -0.5445
vn 0.5314 0.4236 -0.7337
vn 0.5314 0.1471 -0.8343
vn 0.5314 -0.1471 -0.8343
vn 0.5314 -0.4236 -0.7337
vn 0.5314 -0.6490 -0.5445
vn 0.5314 -0.7961 -0.2897
vn -0.5314 -0.7961 0.2897
vn -0.5314 -0.8471 -0.0000
vn -0.5314 -0.6490 0.5445
vn -0.5314 -0.4236 0.7337
vn -0.5314 -0.1471 0.8343
vn -0.5314 0.1471 0.8343
vn -0.5314 0.4236 0.7337
vn -0.5314 0.6490 0.5445
vn -0.5314 0.7961 0.2897
vn -0.5314 0.8471 0.0000
vn -0.5314 0.7961 -0.2897
vn -0.5314 0.6490 -0.5445
vn -0.5314 0.4236 -0.7337
vn -0.5314 0.1471 -0.8343
vn -0.5314 -0.1471 -0.8343
vn -0.5314 -0.4236 -0.7337
vn -0.5314 -0.6490 -0.5445
vn -0.5314 -0.7961 -0.2897
vn -0.9932 -0.1094 0.0398
vn -0.9932 -0.1164 0.0000
vn -0.9932 -0.0892 0.0748
vn -0.9932 -0.0582 0.1008
vn -0.9932 -0.0202 0.1147
vn -0.9932 0.0202 0.1147
vn -0.9932 0.0582 0.1008
vn -0.9932 0.0892 0.0748
vn -0.9932 0.1094 0.0398
vn -0.9932 0.1164 0.0000
vn -0.9932 0.1094 -0.0398
vn -0.9932 0.0892 -0.0748
vn -0.9932 0.0582 -0.1008
vn -0.9932 0.0202 -0.1147
vn -0.9932 -0.0202 -0.1147
vn -0.9932 -0.0582 -0.1008
vn -0.9932 -0.0892 -0.0748
vn -0.9932 -0.1094 -0.0398
vn -1.0000 -0.0000 -0.0000
usemtl _evo.png
s 1
f 1/1/1 2/2/2 3/3/3
f 1/1/1 4/4/4 2/2/2
f 1/1/1 5/5/5 4/4/4
f 1/1/1 6/6/6 5/5/5
f 1/1/1 7/7/7 6/6/6
f 1/1/1 8/8/8 7/7/7
f 1/1/1 9/9/9 8/8/8
f 1/1/1 10/10/10 9/9/9
f 1/1/1 11/11/11 10/10/10
f 1/1/1 12/12/12 11/11/11
f 1/1/1 13/13/13 12/12/12
f 1/1/1 14/14/14 13/13/13
f 1/1/1 15/15/15 14/14/14
f 1/1/1 16/16/16 15/15/15
f 1/1/1 17/17/17 16/16/16
f 1/1/1 18/18/18 17/17/17
f 1/1/1 19/19/19 18/18/18
f 1/1/1 3/3/3 19/19/19
f 3/3/3 20/20/20 21/21/21
f 3/3/3 2/2/2 20/20/20
f 2/2/2 22/22/22 20/20/20
f 2/2/2 4/4/4 22/22/22
f 4/4/4 23/23/23 22/22/22
f 4/4/4 5/5/5 23/23/23
f 5/5/5 24/24/24 23/23/23
f 5/5/5 6/6/6 24/24/24
f 6/6/6 25/25/25 24/24/24
f 6/6/6 7/7/7 25/25/25
f 7/7/7 26/26/26 25/25/25
f 7/7/7 8/8/8 26/26/26
f 8/8/8 27/27/27 26/26/26
f 8/8/8 9/9/9 27/27/27
f 9/9/9 28/28/28 27/27/27
f 9/9/9 10/10/10 28/28/28
f 10/10/10 29/29/29 28/28/28
f 10/10/10 11/11/11 29/29/29
f 11/11/11 30/30/30 29/29/29
f 11/11/11 12/12/12 30/30/30
f 12/12/12 31/31/31 30/30/30
f 12/12/12 13/13/13 31/31/31
f 13/13/13 32/32/32 31/31/31
f 13/13/13 14/14/14 32/32/32
f 14/14/14 33/33/33 32/32/32
f 14/14/14 15/15/15 33/33/33
f 15/15/15 34/34/34 33/33/33
f 15/15/15 16/16/16 34/34/34
f 16/16/16 35/35/35 34/34/34
f 16/16/16 17/17/17 35/35/35
f 17/17/17 36/36/36 35/35/35
f 17/17/17 18/18/18 36/36/36
f 18/18/18 37/37/37 36/36/36
f 18/18/18 19/19/19 37/37/37
f 19/19/19 21/21/21 37/37/37
f 19/19/19 3/3/3 21/21/21
f 21/38/21 38/39/38 39/40/39
f 21/38/21 20/41/20 38/39/38
f 20/41/20 40/42/40 38/39/38
f 20/41/20 22/43/22 40/42/40
f 22/43/22 41/44/41 40/42/40
f 22/43/22 23/45/23 41/44/41
f 23/45/23 42/46/42 41/44/41
f 23/45/23 24/47/24 42/46/42
f 24/48/24 43/49/43 42/50/42
f 24/48/24 25/51/25 43/49/43
f 25/51/25 44/52/44 43/49/43
f 25/51/25 26/53/26 44/52/44
f 26/53/26 45/54/45 44/52/44
f 26/53/26 27/55/27 45/54/45
f 27/55/27 46/56/46 45/54/45
f 27/55/27 28/57/28 46/56/46
f 28/57/28 47/58/47 46/56/46
f 28/57/28 29/59/29 47/58/47
f 29/59/29 48/60/48 47/58/47
f 29/59/29 30/61/30 48/60/48
f 30/61/30 49/62/49 48/60/48
f 30/61/30 31/63/31 49/62/49
f 31/63/31 50/64/50 49/62/49
f 31/63/31 32/65/32 50/64/50
f 32/65/32 51/66/51 50/64/50
f 32/65/32 33/67/33 51/66/51
f 33/67/33 52/68/52 51/66/51
f 33/67/33 34/69/34 52/68/52
f 34/69/34 53/70/53 52/68/52
f 34/69/34 35/71/35 53/70/53
f 35/71/35 54/72/54 53/70/53
f 35/71/35 36/73/36 54/72/54
f 36/73/36 55/74/55 54/72/54
f 36/73/36 37/75/37 55/74/55
f 37/75/37 39/40/39 55/74/55
f 37/75/37 21/38/21 39/40/39
f 39/76/39 56/77/56 57/78/57
f 39/76/39 38/79/38 56/77/56
f 38/79/38 58/80/58 56/77/56
f 38/79/38 40/81/40 58/80/58
f 40/81/40 59/82/59 58/80/58
f 40/81/40 41/83/41 59/82/59
f 41/83/41 60/84/60 59/82/59
f 41/83/41 42/85/42 60/84/60
f 42/85/42 61/86/61 60/84/60
f 42/85/42 43/87/43 61/86/61
f 43/87/43 62/88/62 61/86/61
f 43/87/43 44/89/44 62/88/62
f 44/89/44 63/90/63 62/88/62
f 44/89/44 45/91/45 63/90/63
f 45/91/45 64/92/64 63/90/63
f 45/91/45 46/93/46 64/92/64
f 46/93/46 65/94/65 64/92/64
f 46/93/46 47/95/47 65/94/65
f 47/95/47 66/96/66 65/94/65
f 47/95/47 48/97/48 66/96/66
f 48/97/48 67/98/67 66/96/66
f 48/97/48 49/99/49 67/98/67
f 49/99/49 68/100/68 67/98/67
f 49/99/49 50/101/50 68/100/68
f 50/101/50 69/102/69 68/100/68
f 50/101/50 51/103/51 69/102/69
f 51/103/51 70/104/70 69/102/69
f 51/103/51 52/105/52 70/104/70
f 52/105/52 71/106/71 70/104/70
f 52/105/52 53/107/53 71/106/71
f 53/107/53 72/108/72 71/106/71
f 53/107/53 54/109/54 72/108/72
f 54/109/54 73/110/73 72/108/72
f 54/109/54 55/111/55 73/110/73
f 55/111/55 57/78/57 73/110/73
f 55/111/55 39/76/39 57/78/57
f 74/112/74 57/78/57 56/77/56
f 74/112/74 56/77/56 58/80/58
f 74/112/74 58/80/58 59/82/59
f 74/112/74 59/82/59 60/84/60
f 74/112/74 60/84/60 61/86/61
f 74/112/74 61/86/61 62/88/62
f 74/112/74 62/88/62 63/90/63
f 74/112/74 63/90/63 64/92/64
f 74/112/74 64/92/64 65/94/65
f 74/112/74 65/94/65 66/96/66
f 74/112/74 66/96/66 67/98/67
f 74/112/74 67/98/67 68/100/68
f 74/112/74 68/100/68 69/102/69
f 74/112/74 69/102/69 70/104/70
f 74/112/74 70/104/70 71/106/71
f 74/112/74 71/106/71 72/108/72
f 74/112/74 72/108/72 73/110/73
f 74/112/74 73/110/73 57/78/57
