# Blender v3.0.1 OBJ File: ''
# www.blender.org
mtllib policecar_wheel.mtl
o policecar_wheel_(null).001
v 0.316365 -0.129331 0.659891
v 0.347432 0.322506 0.767800
v 0.347962 -0.316993 0.770056
v 0.316365 0.134035 0.658959
v 0.316365 0.376995 0.557706
v 0.346828 0.773088 0.315775
v 0.316365 0.562561 0.371549
v 0.316365 0.662483 0.128825
v 0.346503 0.770809 -0.321228
v 0.316365 0.661547 -0.133510
v 0.316365 0.559897 -0.375520
v 0.346648 0.317004 -0.770063
v 0.316365 0.373008 -0.560360
v 0.316365 0.129332 -0.659891
v 0.347178 -0.322494 -0.767807
v 0.316365 -0.134034 -0.658959
v 0.316365 -0.376995 -0.557707
v 0.346411 -0.773100 -0.315769
v 0.316365 -0.562562 -0.371548
v 0.316365 -0.662483 -0.128826
v 0.270601 0.847307 -0.568845
v 0.270601 1.001305 -0.202207
v 0.270601 0.564175 -0.848874
v 0.270601 0.195011 -0.998251
v 0.270601 -0.203982 -0.998249
v 0.270601 -0.572062 -0.848855
v 0.270601 -0.853190 -0.569167
v 0.270601 -0.995293 -0.202377
v 0.270601 -0.995295 0.195054
v 0.346736 -0.770821 0.321235
v 0.316365 -0.661547 0.133510
v 0.316365 -0.559897 0.375520
v 0.316365 -0.373008 0.560360
v 0.270601 -0.853242 0.562979
v 0.270601 -0.572084 0.845002
v 0.270601 -0.203901 0.998367
v 0.270601 0.195220 0.998365
v 0.270601 0.564197 0.844970
v 0.270601 0.847075 0.562945
v 0.270601 1.001303 0.195225
v -0.270601 -0.995293 -0.202376
v -0.270601 -0.995295 0.195273
v -0.270293 -0.853344 -0.569014
v -0.270293 -0.572062 -0.848856
v -0.270293 -0.203781 -0.998333
v -0.270293 0.195430 -0.998336
v 0.211940 0.002096 0.587793
v 0.211940 0.418748 0.414157
v 0.211940 -0.415783 0.417109
v 0.211940 -0.590103 0.002088
v 0.211940 -0.418748 -0.414157
v 0.211940 -0.002096 -0.587793
v 0.211940 0.415783 -0.417109
v 0.211940 0.590102 -0.002088
v 0.211940 0.367762 -0.153262
v 0.211940 0.151248 -0.367402
v 0.211940 -0.153865 -0.366323
v 0.211940 -0.368845 -0.150656
v 0.211940 -0.367762 0.153262
v 0.211940 -0.151248 0.367402
v 0.211940 0.153865 0.366322
v 0.211940 0.368846 0.150656
v 0.313878 0.000000 0.000000
v -0.316365 -0.129331 0.659891
v -0.347573 -0.316993 0.770056
v -0.347043 0.322506 0.767800
v -0.316365 0.134035 0.658959
v -0.316365 0.376995 0.557706
v -0.346957 0.773088 0.315775
v -0.316365 0.562561 0.371549
v -0.316365 0.662483 0.128825
v -0.346633 0.770809 -0.321228
v -0.316365 0.661547 -0.133510
v -0.316365 0.559897 -0.375520
v -0.346778 0.317004 -0.770063
v -0.316365 0.373008 -0.560360
v -0.316365 0.129332 -0.659891
v -0.347308 -0.322494 -0.767807
v -0.316365 -0.134034 -0.658959
v -0.316365 -0.376995 -0.557707
v -0.346541 -0.773100 -0.315769
v -0.316365 -0.562562 -0.371548
v -0.316365 -0.662483 -0.128826
v -0.270724 1.001305 -0.202207
v -0.270724 0.847307 -0.568845
v -0.270724 0.564175 -0.848874
v -0.346865 -0.770821 0.321235
v -0.316365 -0.661547 0.133510
v -0.316365 -0.559897 0.375520
v -0.316365 -0.373008 0.560360
v -0.270724 -0.853242 0.562979
v -0.270724 -0.572084 0.845002
v -0.270724 -0.203901 0.998367
v -0.270724 0.195220 0.998365
v -0.270724 0.564197 0.844970
v -0.270724 0.847075 0.562945
v -0.270724 1.001303 0.195225
v -0.211940 0.002096 0.587793
v -0.211940 0.418748 0.414157
v -0.211940 -0.415783 0.417109
v -0.211940 -0.590103 0.002088
v -0.211940 -0.418748 -0.414157
v -0.211940 -0.002096 -0.587793
v -0.211940 0.415783 -0.417109
v -0.211940 0.590102 -0.002088
v -0.211940 0.367762 -0.153262
v -0.211940 0.151248 -0.367402
v -0.211940 -0.153865 -0.366323
v -0.211940 -0.368845 -0.150656
v -0.211940 -0.367762 0.153262
v -0.211940 -0.151248 0.367402
v -0.211940 0.153865 0.366322
v -0.211940 0.368846 0.150656
v -0.313878 0.000000 0.000000
vt 0.970923 0.910299
vt 0.978955 0.943784
vt 0.979123 0.896374
vt 0.970854 0.929823
vt 0.963318 0.947835
vt 0.945312 0.977188
vt 0.949462 0.961592
vt 0.931397 0.969000
vt 0.897902 0.977019
vt 0.911872 0.968931
vt 0.893860 0.961395
vt 0.864496 0.943376
vt 0.880103 0.947540
vt 0.872695 0.929475
vt 0.864664 0.895966
vt 0.872765 0.909950
vt 0.880301 0.891938
vt 0.898308 0.862550
vt 0.894156 0.878181
vt 0.912221 0.870774
vt 0.879467 0.982789
vt 0.906754 0.994205
vt 0.858625 0.961799
vt 0.847402 0.934431
vt 0.847507 0.904851
vt 0.858924 0.877564
vt 0.879914 0.856722
vt 0.907283 0.849284
vt 0.936862 0.849389
vt 0.945719 0.862719
vt 0.931746 0.870843
vt 0.949758 0.878379
vt 0.963515 0.892234
vt 0.964150 0.857022
vt 0.984992 0.878012
vt 0.996215 0.905380
vt 0.996110 0.934959
vt 0.984693 0.962246
vt 0.963703 0.983088
vt 0.936334 0.994310
vt 0.568172 0.890005
vt 0.532825 0.937567
vt 0.532825 0.890005
vt 0.568172 0.937567
vt 0.037967 0.890005
vt 0.002620 0.937567
vt 0.002620 0.890005
vt 0.037967 0.937567
vt 0.073314 0.890005
vt 0.073314 0.937567
vt 0.108661 0.937567
vt 0.108661 0.890005
vt 0.144008 0.937567
vt 0.144008 0.890005
vt 0.179355 0.937567
vt 0.961085 0.920052
vt 0.949482 0.947784
vt 0.949679 0.892239
vt 0.921948 0.880637
vt 0.894134 0.892042
vt 0.882532 0.919773
vt 0.893937 0.947586
vt 0.921669 0.959189
vt 0.909782 0.948470
vt 0.893076 0.931644
vt 0.893160 0.907934
vt 0.909986 0.891227
vt 0.933696 0.891312
vt 0.950403 0.908137
vt 0.950318 0.931847
vt 0.933493 0.948554
vt 0.921671 0.919867
vt 0.970923 0.910299
vt 0.979123 0.896374
vt 0.978955 0.943784
vt 0.970854 0.929823
vt 0.963318 0.947835
vt 0.945312 0.977188
vt 0.949462 0.961592
vt 0.931397 0.969000
vt 0.897902 0.977019
vt 0.911872 0.968931
vt 0.893860 0.961395
vt 0.864496 0.943376
vt 0.880103 0.947540
vt 0.872695 0.929475
vt 0.864664 0.895966
vt 0.872765 0.909950
vt 0.880301 0.891938
vt 0.898308 0.862550
vt 0.894156 0.878181
vt 0.912221 0.870774
vt 0.906754 0.994205
vt 0.879467 0.982789
vt 0.858625 0.961799
vt 0.945719 0.862719
vt 0.931746 0.870843
vt 0.949758 0.878379
vt 0.963515 0.892234
vt 0.964150 0.857022
vt 0.984992 0.878012
vt 0.996215 0.905380
vt 0.996110 0.934959
vt 0.984693 0.962246
vt 0.963703 0.983088
vt 0.936334 0.994310
vt 0.961085 0.920052
vt 0.949482 0.947784
vt 0.949679 0.892239
vt 0.921948 0.880637
vt 0.894134 0.892042
vt 0.882532 0.919773
vt 0.893937 0.947586
vt 0.921669 0.959189
vt 0.909782 0.948470
vt 0.893076 0.931644
vt 0.893160 0.907934
vt 0.909986 0.891227
vt 0.933696 0.891312
vt 0.950403 0.908137
vt 0.950318 0.931847
vt 0.933493 0.948554
vt 0.921671 0.919867
vt 0.285396 0.937567
vt 0.250049 0.937567
vt 0.250049 0.890005
vt 0.285396 0.890005
vt 0.320743 0.937567
vt 0.320743 0.890005
vt 0.356090 0.937567
vt 0.356090 0.890005
vt 0.391437 0.937567
vt 0.391437 0.890005
vt 0.426784 0.937567
vt 0.426784 0.890005
vt 0.462131 0.937567
vt 0.462131 0.890005
vt 0.497478 0.937567
vt 0.497478 0.890005
vt 0.179355 0.890005
vt 0.214702 0.937567
vt 0.214702 0.890005
vt 0.847402 0.934431
vt 0.847507 0.904851
vt 0.858924 0.877564
vt 0.879914 0.856722
vt 0.907283 0.849284
vt 0.936862 0.849389
vn 0.7542 0.0467 -0.6550
vn 0.9897 0.0561 0.1317
vn 0.9902 -0.0527 0.1292
vn 0.7577 -0.0500 -0.6506
vn 0.7597 -0.4247 -0.4924
vn 0.9896 0.1327 0.0552
vn 0.7643 -0.4888 -0.4206
vn 0.7656 -0.6417 -0.0453
vn 0.9900 0.1299 -0.0547
vn 0.7678 -0.6389 0.0487
vn 0.7670 -0.4831 0.4223
vn 0.9900 0.0534 -0.1309
vn 0.7656 -0.4182 0.4888
vn 0.7639 -0.0432 0.6439
vn 0.9905 -0.0517 -0.1277
vn 0.7602 0.0497 0.6478
vn 0.7118 0.5042 0.4890
vn 0.9900 -0.1321 -0.0502
vn 0.6635 0.5439 0.5137
vn 0.7770 0.6246 0.0786
vn 0.7315 0.5373 -0.4198
vn 0.5443 0.8248 -0.1529
vn 0.5445 0.4726 -0.6930
vn 0.7308 0.0847 -0.6773
vn 0.5449 -0.1479 -0.8254
vn 0.7301 -0.4154 -0.5426
vn 0.5451 -0.6944 -0.4698
vn 0.5433 -0.8274 -0.1418
vn 0.5435 -0.8275 0.1408
vn 0.9896 -0.1339 0.0526
vn 0.7768 0.6237 -0.0868
vn 0.6743 0.5781 -0.4596
vn 0.7530 0.4277 -0.5001
vn 0.5422 -0.6970 0.4693
vn 0.5443 -0.4786 0.6890
vn 0.7252 -0.0886 0.6828
vn 0.5429 0.1511 0.8261
vn 0.7259 0.4199 0.5447
vn 0.5426 0.6896 0.4796
vn 0.7291 0.6787 0.0881
vn -0.7595 -0.5368 -0.3674
vn -0.5079 -0.8494 -0.1431
vn -0.7733 -0.4925 -0.3994
vn -0.2992 -0.1196 -0.9466
vn -0.2377 -0.2674 -0.9338
vn -0.7218 0.4864 -0.4924
vn 0.7072 -0.0062 -0.7069
vn 0.5779 -0.5760 -0.5782
vn 0.5779 0.5761 -0.5781
vn 0.7079 0.7063 -0.0069
vn 0.5779 0.5762 0.5780
vn 0.7072 0.0062 0.7069
vn 0.5779 -0.5761 0.5781
vn 0.7079 -0.7063 0.0069
vn 1.0000 -0.0005 0.0001
vn 1.0000 -0.0001 0.0000
vn 1.0000 -0.0001 0.0001
vn 1.0000 0.0005 0.0001
vn 1.0000 0.0004 -0.0003
vn 1.0000 0.0001 -0.0000
vn 1.0000 0.0001 -0.0001
vn 1.0000 -0.0005 -0.0001
vn 1.0000 0.0000 0.0000
vn -0.7517 0.0686 -0.6559
vn -0.9903 -0.0524 0.1290
vn -0.9897 0.0559 0.1315
vn -0.7653 -0.0197 -0.6434
vn -0.9676 -0.0994 -0.2320
vn -0.9897 0.1323 0.0552
vn -0.7695 -0.4673 -0.4353
vn -0.9670 -0.2380 -0.0909
vn -0.9901 0.1296 -0.0546
vn -0.7723 -0.6347 0.0260
vn -0.9669 -0.2317 0.1068
vn -0.9899 0.0531 -0.1311
vn -0.7704 -0.4320 0.4689
vn -0.9670 -0.0887 0.2387
vn -0.9904 -0.0520 -0.1284
vn -0.7659 0.0214 0.6426
vn -0.9868 0.0728 0.1444
vn -0.9899 -0.1323 -0.0506
vn -0.6752 0.4965 0.5455
vn -0.9579 0.2612 0.1194
vn -0.7167 0.6011 -0.3537
vn -0.4879 0.8715 -0.0492
vn -0.3645 0.2976 -0.8824
vn -0.9896 -0.1336 0.0525
vn -0.7944 0.6074 -0.0039
vn -0.9805 0.1953 0.0216
vn -0.7612 0.4459 -0.4710
vn -0.6063 -0.4009 0.6868
vn -0.3642 -0.3054 0.8798
vn -0.5022 0.3524 0.7897
vn -0.5622 -0.1938 0.8040
vn -0.4884 0.0462 0.8714
vn -0.3643 0.8798 0.3054
vn -0.5128 0.7824 -0.3534
vn -0.9738 0.0755 -0.2144
vn -0.9852 0.0685 -0.1568
vn -0.9905 0.1274 0.0521
vn -0.9740 0.2137 0.0755
vn -0.9905 -0.0526 0.1272
vn -0.9738 -0.0755 0.2144
vn -0.9905 -0.1274 -0.0521
vn -0.9740 -0.2137 -0.0755
vn -1.0000 -0.0004 0.0003
vn -0.9823 0.0546 -0.1789
vn -0.9824 -0.0876 -0.1652
vn -0.9824 -0.1784 -0.0549
vn -0.9824 -0.1648 0.0876
vn -0.9823 -0.0546 0.1789
vn -0.9824 0.0876 0.1652
vn -0.9824 0.1784 0.0549
vn -1.0000 0.0000 0.0000
usemtl police_car.tga.001
s 1
f 1/1/1 2/2/2 3/3/3
f 1/1/1 4/4/4 2/2/2
f 4/4/4 5/5/5 2/2/2
f 5/5/5 6/6/6 2/2/2
f 5/5/5 7/7/7 6/6/6
f 7/7/7 8/8/8 6/6/6
f 8/8/8 9/9/9 6/6/6
f 8/8/8 10/10/10 9/9/9
f 10/10/10 11/11/11 9/9/9
f 11/11/11 12/12/12 9/9/9
f 11/11/11 13/13/13 12/12/12
f 13/13/13 14/14/14 12/12/12
f 14/14/14 15/15/15 12/12/12
f 14/14/14 16/16/16 15/15/15
f 16/16/16 17/17/17 15/15/15
f 17/17/17 18/18/18 15/15/15
f 17/17/17 19/19/19 18/18/18
f 19/19/19 20/20/20 18/18/18
f 9/9/9 21/21/21 22/22/22
f 9/9/9 23/23/23 21/21/21
f 9/9/9 12/12/12 23/23/23
f 12/12/12 24/24/24 23/23/23
f 12/12/12 25/25/25 24/24/24
f 12/12/12 15/15/15 25/25/25
f 15/15/15 26/26/26 25/25/25
f 15/15/15 27/27/27 26/26/26
f 18/18/18 27/27/27 15/15/15
f 18/18/18 28/28/28 27/27/27
f 18/18/18 29/29/29 28/28/28
f 18/18/18 30/30/30 29/29/29
f 20/20/20 30/30/30 18/18/18
f 20/20/20 31/31/31 30/30/30
f 31/31/31 32/32/32 30/30/30
f 32/32/32 3/3/3 30/30/30
f 32/32/32 33/33/33 3/3/3
f 33/33/33 1/1/1 3/3/3
f 30/30/30 34/34/34 29/29/29
f 30/30/30 35/35/35 34/34/34
f 30/30/30 3/3/3 35/35/35
f 3/3/3 36/36/36 35/35/35
f 3/3/3 37/37/37 36/36/36
f 3/3/3 2/2/2 37/37/37
f 2/2/2 38/38/38 37/37/37
f 2/2/2 39/39/39 38/38/38
f 2/2/2 6/6/6 39/39/39
f 6/6/6 40/40/40 39/39/39
f 6/6/6 22/22/22 40/40/40
f 6/6/6 9/9/9 22/22/22
f 41/41/41 29/42/29 42/43/42
f 41/41/41 28/44/28 29/42/29
f 43/45/43 28/46/28 41/47/41
f 43/45/43 27/48/27 28/46/28
f 44/49/44 27/48/27 43/45/43
f 44/49/44 26/50/26 27/48/27
f 25/51/25 26/50/26 44/49/44
f 25/51/25 44/49/44 45/52/45
f 24/53/24 25/51/25 45/52/45
f 24/53/24 45/52/45 46/54/46
f 46/54/46 23/55/23 24/53/24
f 47/56/47 48/57/48 5/5/5
f 47/56/47 5/5/5 4/4/4
f 47/56/47 4/4/4 1/1/1
f 49/58/49 47/56/47 1/1/1
f 49/58/49 1/1/1 33/33/33
f 49/58/49 33/33/33 32/32/32
f 50/59/50 49/58/49 32/32/32
f 50/59/50 32/32/32 31/31/31
f 50/59/50 31/31/31 20/20/20
f 51/60/51 50/59/50 20/20/20
f 51/60/51 20/20/20 19/19/19
f 51/60/51 19/19/19 17/17/17
f 52/61/52 51/60/51 17/17/17
f 52/61/52 17/17/17 16/16/16
f 52/61/52 16/16/16 14/14/14
f 53/62/53 52/61/52 14/14/14
f 53/62/53 14/14/14 13/13/13
f 53/62/53 13/13/13 11/11/11
f 54/63/54 53/62/53 11/11/11
f 54/63/54 11/11/11 10/10/10
f 54/63/54 10/10/10 8/8/8
f 48/57/48 54/63/54 8/8/8
f 48/57/48 8/8/8 7/7/7
f 48/57/48 7/7/7 5/5/5
f 54/63/54 55/64/55 53/62/53
f 53/62/53 55/64/55 56/65/56
f 53/62/53 56/65/56 52/61/52
f 57/66/57 52/61/52 56/65/56
f 57/66/57 51/60/51 52/61/52
f 58/67/58 51/60/51 57/66/57
f 51/60/51 58/67/58 50/59/50
f 58/67/58 59/68/59 50/59/50
f 50/59/50 59/68/59 49/58/49
f 59/68/59 60/69/60 49/58/49
f 49/58/49 60/69/60 47/56/47
f 47/56/47 60/69/60 61/70/61
f 47/56/47 61/70/61 48/57/48
f 48/57/48 61/70/61 62/71/62
f 48/57/48 62/71/62 54/63/54
f 54/63/54 62/71/62 55/64/55
f 63/72/63 59/68/59 58/67/58
f 63/72/63 58/67/58 57/66/57
f 63/72/63 57/66/57 56/65/56
f 63/72/63 56/65/56 55/64/55
f 63/72/63 55/64/55 62/71/62
f 63/72/63 62/71/62 61/70/61
f 63/72/63 61/70/61 60/69/60
f 63/72/63 60/69/60 59/68/59
f 64/73/64 65/74/65 66/75/66
f 64/73/64 66/75/66 67/76/67
f 67/76/67 66/75/66 68/77/68
f 68/77/68 66/75/66 69/78/69
f 68/77/68 69/78/69 70/79/70
f 70/79/70 69/78/69 71/80/71
f 71/80/71 69/78/69 72/81/72
f 71/80/71 72/81/72 73/82/73
f 73/82/73 72/81/72 74/83/74
f 74/83/74 72/81/72 75/84/75
f 74/83/74 75/84/75 76/85/76
f 76/85/76 75/84/75 77/86/77
f 77/86/77 75/84/75 78/87/78
f 77/86/77 78/87/78 79/88/79
f 79/88/79 78/87/78 80/89/80
f 80/89/80 78/87/78 81/90/81
f 80/89/80 81/90/81 82/91/82
f 82/91/82 81/90/81 83/92/83
f 72/81/72 84/93/84 85/94/85
f 72/81/72 85/94/85 86/95/86
f 72/81/72 86/95/86 75/84/75
f 83/92/83 81/90/81 87/96/87
f 83/92/83 87/96/87 88/97/88
f 88/97/88 87/96/87 89/98/89
f 89/98/89 87/96/87 65/74/65
f 89/98/89 65/74/65 90/99/90
f 90/99/90 65/74/65 64/73/64
f 87/96/87 91/100/91 92/101/92
f 87/96/87 92/101/92 65/74/65
f 65/74/65 92/101/92 93/102/93
f 65/74/65 93/102/93 94/103/94
f 65/74/65 94/103/94 66/75/66
f 66/75/66 94/103/94 95/104/95
f 66/75/66 95/104/95 96/105/96
f 66/75/66 96/105/96 69/78/69
f 69/78/69 96/105/96 97/106/97
f 69/78/69 97/106/97 84/93/84
f 69/78/69 84/93/84 72/81/72
f 98/107/98 68/77/68 99/108/99
f 98/107/98 67/76/67 68/77/68
f 98/107/98 64/73/64 67/76/67
f 100/109/100 64/73/64 98/107/98
f 100/109/100 90/99/90 64/73/64
f 100/109/100 89/98/89 90/99/90
f 101/110/101 89/98/89 100/109/100
f 101/110/101 88/97/88 89/98/89
f 101/110/101 83/92/83 88/97/88
f 102/111/102 83/92/83 101/110/101
f 102/111/102 82/91/82 83/92/83
f 102/111/102 80/89/80 82/91/82
f 103/112/103 80/89/80 102/111/102
f 103/112/103 79/88/79 80/89/80
f 103/112/103 77/86/77 79/88/79
f 104/113/104 77/86/77 103/112/103
f 104/113/104 76/85/76 77/86/77
f 104/113/104 74/83/74 76/85/76
f 105/114/105 74/83/74 104/113/104
f 105/114/105 73/82/73 74/83/74
f 105/114/105 71/80/71 73/82/73
f 99/108/99 71/80/71 105/114/105
f 99/108/99 70/79/70 71/80/71
f 99/108/99 68/77/68 70/79/70
f 105/114/105 104/113/104 106/115/106
f 104/113/104 107/116/107 106/115/106
f 104/113/104 103/112/103 107/116/107
f 108/117/108 107/116/107 103/112/103
f 108/117/108 103/112/103 102/111/102
f 109/118/109 108/117/108 102/111/102
f 102/111/102 101/110/101 109/118/109
f 109/118/109 101/110/101 110/119/110
f 101/110/101 100/109/100 110/119/110
f 110/119/110 100/109/100 111/120/111
f 100/109/100 98/107/98 111/120/111
f 98/107/98 112/121/112 111/120/111
f 98/107/98 99/108/99 112/121/112
f 99/108/99 113/122/113 112/121/112
f 99/108/99 105/114/105 113/122/113
f 105/114/105 106/115/106 113/122/113
f 114/123/114 109/118/109 110/119/110
f 114/123/114 108/117/108 109/118/109
f 114/123/114 107/116/107 108/117/108
f 114/123/114 106/115/106 107/116/107
f 114/123/114 113/122/113 106/115/106
f 114/123/114 112/121/112 113/122/113
f 114/123/114 111/120/111 112/121/112
f 114/123/114 110/119/110 111/120/111
f 40/124/40 22/125/22 84/126/84
f 40/124/40 84/126/84 97/127/97
f 39/128/39 40/124/40 97/127/97
f 39/128/39 97/127/97 96/129/96
f 96/129/96 38/130/38 39/128/39
f 96/129/96 95/131/95 38/130/38
f 37/132/37 38/130/38 95/131/95
f 37/132/37 95/131/95 94/133/94
f 36/134/36 37/132/37 94/133/94
f 36/134/36 94/133/94 93/135/93
f 35/136/35 36/134/36 93/135/93
f 35/136/35 93/135/93 92/137/92
f 92/137/92 34/138/34 35/136/35
f 92/137/92 91/139/91 34/138/34
f 29/42/29 34/138/34 91/139/91
f 29/42/29 91/139/91 42/43/42
f 46/54/46 86/140/86 23/55/23
f 86/140/86 21/141/21 23/55/23
f 86/140/86 85/142/85 21/141/21
f 22/125/22 21/141/21 85/142/85
f 22/125/22 85/142/85 84/126/84
f 75/84/75 86/95/86 46/143/46
f 75/84/75 46/143/46 45/144/45
f 75/84/75 45/144/45 78/87/78
f 78/87/78 45/144/45 44/145/44
f 78/87/78 44/145/44 43/146/43
f 81/90/81 78/87/78 43/146/43
f 81/90/81 43/146/43 41/147/41
f 81/90/81 41/147/41 42/148/42
f 81/90/81 42/148/42 87/96/87
f 87/96/87 42/148/42 91/100/91
