# Blender v3.0.1 OBJ File: ''
# www.blender.org
mtllib quadri_wheel.mtl
o Quadri.002
v -0.225465 -0.313781 -0.066354
v -0.302332 -0.414015 -0.424060
v -0.302332 -0.544854 -0.233408
v -0.302332 -0.592750 -0.007243
v -0.225465 -0.174998 -0.268922
v -0.225465 -0.268922 0.174998
v -0.302332 -0.220091 -0.550227
v -0.302332 -0.550228 0.220091
v -0.302332 0.007242 -0.592516
v -0.302332 -0.424294 0.413780
v -0.225464 0.066354 -0.313781
v -0.225464 -0.066588 0.313781
v -0.302332 0.233408 -0.544620
v -0.302332 -0.233642 0.544620
v -0.302332 0.424060 -0.413780
v -0.302332 -0.007243 0.592516
v -0.225464 0.268688 -0.174999
v -0.225464 0.174764 0.268922
v -0.302332 0.550227 -0.220091
v -0.302332 0.220090 0.550227
v -0.302332 0.592516 0.007242
v -0.302332 0.413780 0.424059
v -0.225464 0.313781 0.066354
v -0.302332 0.544619 0.233407
v -0.162614 -0.097662 -0.149765
v -0.162614 -0.174998 -0.036915
v -0.162614 -0.149998 0.097429
v -0.162614 0.036916 -0.174998
v -0.162614 -0.037150 0.174998
v -0.162614 0.149765 -0.097429
v -0.162614 0.097428 0.149998
v -0.162614 0.174764 0.037149
v -0.243221 -0.114252 -0.024065
v -0.243221 -0.097896 0.063784
v -0.243221 -0.063785 -0.097896
v -0.243221 -0.024299 0.114251
v -0.243221 0.063551 0.097896
v -0.243221 0.114250 0.024299
v -0.243221 0.024064 -0.114251
v -0.243221 0.097662 -0.063551
v 0.215885 0.919147 0.393919
v 0.215885 0.698356 0.715644
v 0.249062 0.669617 0.686205
v 0.243221 0.097662 -0.063551
v 0.243221 0.114250 0.024299
v 0.243221 -0.063785 -0.097896
v 0.162614 0.149765 -0.097429
v 0.162614 0.174764 0.037149
v 0.162614 0.036916 -0.174998
v 0.243221 0.024064 -0.114251
v 0.243221 0.063551 0.097896
v 0.243221 -0.024299 0.114251
v 0.243221 -0.097896 0.063784
v 0.162614 -0.097662 -0.149765
v 0.243221 -0.114252 -0.024065
v 0.162614 -0.149998 0.097429
v 0.225464 0.268688 -0.174999
v 0.225464 0.174764 0.268922
v 0.225464 -0.066588 0.313781
v 0.162614 -0.037150 0.174998
v 0.225465 -0.174998 -0.268922
v 0.225464 0.066354 -0.313781
v 0.162614 -0.174998 -0.036916
v 0.225465 -0.268922 0.174998
v 0.302332 0.592516 0.007241
v 0.225464 0.313781 0.066354
v 0.302332 0.220090 0.550227
v 0.302332 -0.007243 0.592516
v 0.302332 -0.233642 0.544619
v 0.302332 -0.424294 0.413780
v 0.302332 0.424060 -0.413780
v 0.302332 0.233408 -0.544620
v 0.302332 -0.220091 -0.550227
v 0.302332 0.007242 -0.592516
v 0.302332 -0.592750 -0.007243
v 0.225465 -0.313781 -0.066355
v 0.162614 0.097428 0.149998
v 0.302332 0.550227 -0.220091
v 0.249062 0.356071 0.890409
v 0.302332 0.544619 0.233407
v 0.302332 0.413780 0.424059
v 0.302332 -0.550228 0.220091
v 0.302332 -0.414015 -0.424060
v 0.302332 -0.544854 -0.233408
v -0.215885 0.919147 0.393919
v -0.249062 0.669617 0.686206
v -0.215884 0.698356 0.715644
v -0.249062 0.356071 0.890409
v -0.215884 0.371257 0.928492
v -0.249062 0.881298 0.377798
v -0.215885 0.999988 0.012148
v -0.249062 -0.011916 0.958867
v -0.249062 0.958634 0.011681
v -0.215884 -0.012383 0.999988
v -0.249062 -0.377799 0.881298
v -0.215884 -0.394154 0.919148
v -0.249062 -0.686441 0.669618
v -0.215884 -0.715879 0.698356
v -0.249062 -0.890410 0.356071
v -0.215885 -0.928727 0.371491
v -0.249062 -0.958867 -0.011682
v -0.215885 -0.999988 -0.012149
v -0.249062 -0.881532 -0.377799
v -0.215885 -0.919382 -0.393921
v -0.249062 -0.669852 -0.686207
v -0.215885 -0.698590 -0.715645
v -0.249062 -0.356305 -0.890410
v -0.215885 -0.371492 -0.928494
v -0.249062 0.011682 -0.958867
v -0.215885 0.012149 -0.999988
v -0.249062 0.377565 -0.881298
v -0.215885 0.393919 -0.919148
v -0.249062 0.686207 -0.669619
v -0.215885 0.715645 -0.698356
v -0.249062 0.890176 -0.356072
v -0.215885 0.928493 -0.371493
v -0.334810 -0.707000 -0.303034
v -0.334810 -0.769149 -0.009345
v -0.334810 -0.537377 -0.550461
v -0.334810 -0.714244 0.285745
v -0.334810 -0.550461 0.537143
v -0.334810 -0.303033 0.707001
v -0.334810 -0.009580 0.769150
v -0.334810 0.285510 0.714244
v -0.334809 0.537143 0.550460
v -0.334809 0.706767 0.303033
v -0.334809 0.768916 0.009344
v -0.334809 0.714010 -0.285511
v -0.334809 0.550461 -0.537143
v -0.334810 0.302800 -0.707002
v -0.334810 0.009345 -0.769150
v -0.334810 -0.285744 -0.714010
v 0.215885 0.371257 0.928492
v 0.249062 0.881298 0.377798
v 0.215885 0.999988 0.012148
v 0.249062 -0.011916 0.958867
v 0.249062 0.958634 0.011680
v 0.215885 -0.012383 0.999988
v 0.249062 -0.377799 0.881298
v 0.215885 -0.394154 0.919148
v 0.249062 -0.686441 0.669618
v 0.215885 -0.715879 0.698356
v 0.249062 -0.890410 0.356071
v 0.215885 -0.928727 0.371491
v 0.249062 -0.958867 -0.011682
v 0.215885 -0.999988 -0.012149
v 0.249062 -0.881532 -0.377799
v 0.215885 -0.919382 -0.393921
v 0.249062 -0.669852 -0.686207
v 0.215884 -0.698590 -0.715646
v 0.249062 -0.356305 -0.890410
v 0.215884 -0.371492 -0.928494
v 0.249062 0.011682 -0.958867
v 0.215884 0.012149 -0.999988
v 0.249062 0.377565 -0.881298
v 0.215884 0.393919 -0.919148
v 0.249062 0.686207 -0.669620
v 0.215884 0.715645 -0.698357
v 0.249062 0.890176 -0.356072
v 0.215885 0.928493 -0.371493
v 0.334810 -0.707000 -0.303034
v 0.334810 -0.769149 -0.009346
v 0.334810 -0.537377 -0.550461
v 0.334810 -0.714244 0.285744
v 0.334810 -0.550461 0.537143
v 0.334810 -0.303033 0.707001
v 0.334810 -0.009580 0.769150
v 0.334810 0.285510 0.714244
v 0.334809 0.537143 0.550460
v 0.334809 0.706767 0.303032
v 0.334809 0.768916 0.009344
v 0.334809 0.714010 -0.285511
v 0.334809 0.550461 -0.537143
v 0.334810 0.302800 -0.707002
v 0.334810 0.009345 -0.769150
v 0.334810 -0.285744 -0.714010
vt 0.343612 0.339328
vt 0.315557 0.331507
vt 0.330568 0.321108
vt 0.348210 0.317411
vt 0.327567 0.350246
vt 0.362473 0.343027
vt 0.305422 0.346722
vt 0.366226 0.320849
vt 0.301949 0.364514
vt 0.381334 0.330821
vt 0.324095 0.369413
vt 0.373358 0.359013
vt 0.305892 0.382565
vt 0.391749 0.346035
vt 0.316024 0.397523
vt 0.395409 0.363827
vt 0.334887 0.385316
vt 0.369887 0.378181
vt 0.331226 0.407492
vt 0.391938 0.381877
vt 0.349149 0.410931
vt 0.382083 0.397091
vt 0.353745 0.389011
vt 0.366882 0.407235
vt 0.337977 0.357111
vt 0.346197 0.351624
vt 0.355872 0.353504
vt 0.336095 0.366838
vt 0.361266 0.361582
vt 0.341745 0.375072
vt 0.359383 0.371229
vt 0.351419 0.376719
vt 0.347226 0.357111
vt 0.352703 0.358212
vt 0.342601 0.360248
vt 0.355872 0.362838
vt 0.354759 0.368328
vt 0.350135 0.371464
vt 0.341575 0.365739
vt 0.344742 0.370366
vt 0.417001 0.254459
vt 0.451438 0.254458
vt 0.451438 0.248989
vt 0.344742 0.370366
vt 0.350135 0.371464
vt 0.342601 0.360248
vt 0.341745 0.375072
vt 0.351419 0.376719
vt 0.336095 0.366838
vt 0.341575 0.365739
vt 0.354759 0.368328
vt 0.355872 0.362838
vt 0.352703 0.358212
vt 0.337977 0.357111
vt 0.347226 0.357111
vt 0.355872 0.353504
vt 0.334887 0.385316
vt 0.369887 0.378181
vt 0.373358 0.359013
vt 0.361266 0.361582
vt 0.327567 0.350246
vt 0.324095 0.369413
vt 0.346197 0.351624
vt 0.362473 0.343027
vt 0.349149 0.410931
vt 0.353745 0.389011
vt 0.391938 0.381877
vt 0.395409 0.363827
vt 0.391749 0.346035
vt 0.381334 0.330821
vt 0.316024 0.397523
vt 0.305892 0.382565
vt 0.305422 0.346722
vt 0.301949 0.364514
vt 0.348210 0.317411
vt 0.343612 0.339328
vt 0.359383 0.371229
vt 0.331226 0.407492
vt 0.486058 0.248988
vt 0.366882 0.407235
vt 0.382083 0.397091
vt 0.366226 0.320849
vt 0.315557 0.331507
vt 0.330568 0.321108
vt 0.417001 0.254459
vt 0.451438 0.248989
vt 0.451438 0.254458
vt 0.486058 0.248988
vt 0.486058 0.254457
vt 0.416156 0.254459
vt 0.416156 0.248990
vt 0.382566 0.254460
vt 0.417001 0.248990
vt 0.520218 0.248986
vt 0.382566 0.248992
vt 0.520218 0.254455
vt 0.266279 0.303642
vt 0.230996 0.298175
vt 0.230996 0.303643
vt 0.266279 0.298173
vt 0.301466 0.303641
vt 0.301466 0.298172
vt 0.336631 0.303055
vt 0.336750 0.298171
vt 0.372263 0.303054
vt 0.372030 0.298170
vt 0.407162 0.248971
vt 0.371881 0.254441
vt 0.371881 0.248972
vt 0.407162 0.254440
vt 0.442445 0.248970
vt 0.442445 0.254439
vt 0.477633 0.248968
vt 0.477633 0.254437
vt 0.512916 0.248967
vt 0.512916 0.254436
vt 0.267158 0.303334
vt 0.232158 0.297867
vt 0.232158 0.303336
vt 0.267158 0.297866
vt 0.302629 0.303333
vt 0.302629 0.297864
vt 0.337805 0.302745
vt 0.337912 0.297863
vt 0.373193 0.303331
vt 0.373193 0.297862
vt 0.348194 0.306691
vt 0.327673 0.314940
vt 0.326165 0.311269
vt 0.348280 0.310802
vt 0.370368 0.310910
vt 0.310544 0.326690
vt 0.307424 0.323929
vt 0.330470 0.321374
vt 0.315516 0.331748
vt 0.348227 0.317729
vt 0.305422 0.346888
vt 0.368885 0.314691
vt 0.366173 0.321186
vt 0.389249 0.323213
vt 0.386428 0.326111
vt 0.381405 0.331093
vt 0.401911 0.341811
vt 0.398013 0.343407
vt 0.391782 0.346234
vt 0.406488 0.363840
vt 0.402316 0.363764
vt 0.402268 0.386013
vt 0.398427 0.384287
vt 0.389893 0.404823
vt 0.387008 0.401830
vt 0.382061 0.396985
vt 0.371226 0.417484
vt 0.369713 0.413582
vt 0.366921 0.407080
vt 0.349196 0.422061
vt 0.349105 0.417883
vt 0.349162 0.410817
vt 0.327024 0.417843
vt 0.328501 0.413829
vt 0.331217 0.407359
vt 0.308140 0.405324
vt 0.311207 0.402410
vt 0.295481 0.386872
vt 0.299371 0.385113
vt 0.305889 0.382498
vt 0.290904 0.364699
vt 0.295070 0.364756
vt 0.301964 0.364647
vt 0.295124 0.342741
vt 0.298959 0.344235
vt 0.486058 0.254457
vt 0.417001 0.248990
vt 0.382566 0.254460
vt 0.520218 0.248986
vt 0.382566 0.248992
vt 0.520218 0.254455
vt 0.266279 0.303642
vt 0.230996 0.303643
vt 0.230996 0.298175
vt 0.266279 0.298173
vt 0.301466 0.303641
vt 0.301466 0.298172
vt 0.336631 0.303055
vt 0.336750 0.298171
vt 0.372263 0.303054
vt 0.372030 0.298170
vt 0.407162 0.248971
vt 0.371881 0.248972
vt 0.371881 0.254441
vt 0.407162 0.254440
vt 0.442445 0.248970
vt 0.442445 0.254439
vt 0.477633 0.248968
vt 0.477633 0.254437
vt 0.512916 0.248967
vt 0.512916 0.254436
vt 0.267158 0.303334
vt 0.232158 0.303336
vt 0.232158 0.297867
vt 0.267158 0.297866
vt 0.302629 0.303333
vt 0.302629 0.297864
vt 0.337805 0.302745
vt 0.337912 0.297863
vt 0.373193 0.303331
vt 0.373193 0.297862
vt 0.348194 0.306691
vt 0.326165 0.311269
vt 0.327673 0.314940
vt 0.348280 0.310802
vt 0.370368 0.310910
vt 0.310544 0.326690
vt 0.307424 0.323929
vt 0.330470 0.321374
vt 0.315516 0.331748
vt 0.348227 0.317729
vt 0.305422 0.346888
vt 0.368885 0.314691
vt 0.366173 0.321186
vt 0.389249 0.323213
vt 0.386428 0.326111
vt 0.381405 0.331093
vt 0.401911 0.341811
vt 0.398013 0.343407
vt 0.391782 0.346234
vt 0.406488 0.363840
vt 0.402316 0.363764
vt 0.402268 0.386013
vt 0.398427 0.384287
vt 0.389893 0.404823
vt 0.387008 0.401830
vt 0.382061 0.396985
vt 0.371226 0.417484
vt 0.369713 0.413582
vt 0.366921 0.407080
vt 0.349196 0.422061
vt 0.349105 0.417883
vt 0.349162 0.410817
vt 0.327024 0.417843
vt 0.328501 0.413829
vt 0.331217 0.407359
vt 0.308140 0.405324
vt 0.311207 0.402410
vt 0.295481 0.386872
vt 0.299371 0.385113
vt 0.305889 0.382498
vt 0.290904 0.364699
vt 0.295070 0.364756
vt 0.301964 0.364647
vt 0.295124 0.342741
vt 0.298959 0.344235
vt 0.337911 0.254197
vt 0.373192 0.254196
vt 0.382567 0.298126
vt 0.417002 0.298125
vt 0.451439 0.298124
vt 0.486059 0.298122
vt 0.520219 0.298121
vt 0.230994 0.254509
vt 0.266278 0.254508
vt 0.301465 0.254506
vt 0.336748 0.254505
vt 0.372029 0.254504
vt 0.371882 0.298107
vt 0.407163 0.298106
vt 0.442447 0.298104
vt 0.477634 0.298103
vt 0.512917 0.298102
vt 0.232157 0.254201
vt 0.267156 0.254200
vt 0.302627 0.254199
vn -0.9473 0.3033 0.1032
vn -0.9749 0.1650 0.1494
vn -0.9765 0.2012 0.0775
vn -0.9749 0.2224 -0.0110
vn -0.9473 0.1414 0.2874
vn -0.9473 0.2875 -0.1413
vn -0.9765 0.0875 0.1972
vn -0.9765 0.1971 -0.0876
vn -0.9749 0.0110 0.2224
vn -0.9749 0.1495 -0.1650
vn -0.9473 -0.1034 0.3033
vn -0.9473 0.1034 -0.3033
vn -0.9765 -0.0775 0.2012
vn -0.9765 0.0775 -0.2012
vn -0.9749 -0.1494 0.1651
vn -0.9749 -0.0110 -0.2224
vn -0.9473 -0.2874 0.1414
vn -0.9473 -0.1414 -0.2876
vn -0.9765 -0.1971 0.0875
vn -0.9765 -0.0875 -0.1970
vn -0.9749 -0.2225 0.0110
vn -0.9749 -0.1650 -0.1494
vn -0.9473 -0.3032 -0.1033
vn -0.9765 -0.2013 -0.0775
vn -0.9721 -0.1538 -0.1771
vn -0.9722 -0.2334 -0.0166
vn -0.9722 -0.1771 0.1535
vn -0.9722 0.0166 -0.2337
vn -0.9723 -0.0168 0.2333
vn -0.9722 0.1771 -0.1530
vn -0.9722 0.1531 0.1771
vn -0.9721 0.2341 0.0164
vn -0.7684 -0.6022 -0.2165
vn -0.8538 -0.4711 0.2217
vn -0.9592 -0.1206 -0.2557
vn -0.8537 -0.1767 0.4899
vn -0.8539 0.2211 0.4711
vn -0.8537 0.4901 0.1763
vn -0.7689 0.2173 -0.6014
vn -0.8536 0.4714 -0.2216
vn 0.3884 0.8513 0.3527
vn 0.4056 0.6573 0.6352
vn 0.8405 0.3688 0.3969
vn 0.8668 0.3795 -0.3235
vn 0.8790 0.4741 0.0516
vn 0.7184 -0.5135 -0.4693
vn 0.9759 0.2173 -0.0186
vn 0.9972 -0.0467 0.0589
vn 0.9906 0.1369 -0.0067
vn 0.9090 -0.0160 -0.4165
vn 0.8726 0.2150 0.4386
vn 0.8877 -0.1082 0.4475
vn 0.8818 -0.4157 0.2226
vn 0.9906 0.0910 -0.1022
vn 0.8634 -0.4351 -0.2553
vn 0.9775 -0.0834 0.1939
vn 0.9417 -0.2967 0.1587
vn 0.9599 -0.1337 -0.2464
vn 0.9600 0.0366 -0.2777
vn 0.9760 -0.1407 0.1665
vn 0.9380 0.1829 0.2945
vn 0.9476 -0.1034 0.3022
vn 0.9722 -0.2202 -0.0794
vn 0.9621 0.2278 -0.1500
vn 0.9777 -0.2098 -0.0082
vn 0.9603 -0.2680 -0.0780
vn 0.9739 -0.0755 -0.2139
vn 0.9757 0.0118 -0.2190
vn 0.9739 0.0980 -0.2046
vn 0.9757 0.1633 -0.1464
vn 0.9777 -0.1540 0.1425
vn 0.9764 -0.0972 0.1927
vn 0.9764 0.0676 0.2051
vn 0.9784 -0.0007 0.2065
vn 0.9740 0.2263 0.0085
vn 0.9575 0.2869 0.0296
vn 0.9724 0.1589 0.1709
vn 0.9782 -0.1928 0.0774
vn 0.8375 0.2120 0.5036
vn 0.9764 -0.1928 -0.0972
vn 0.9757 -0.1465 -0.1632
vn 0.9773 0.2004 -0.0682
vn 0.9750 0.1492 0.1649
vn 0.9739 0.2047 0.0979
vn -0.3953 0.8524 0.3424
vn -0.8518 0.3710 0.3699
vn -0.4219 0.6150 0.6662
vn -0.8516 0.2013 0.4840
vn -0.4213 0.3129 0.8512
vn -0.8521 0.4838 0.1996
vn -0.3963 0.9181 -0.0098
vn -0.8516 0.0007 0.5241
vn -0.8525 0.5228 -0.0008
vn -0.4340 0.0023 0.9009
vn -0.8520 -0.1997 0.4840
vn -0.4342 -0.3426 0.8331
vn -0.8520 -0.3697 0.3707
vn -0.4342 -0.6353 0.6387
vn -0.8521 -0.4832 0.2009
vn -0.4345 -0.8312 0.3468
vn -0.8520 -0.5236 0.0007
vn -0.4338 -0.9010 0.0023
vn -0.8519 -0.4842 -0.1996
vn -0.4339 -0.8333 -0.3425
vn -0.8518 -0.3709 -0.3699
vn -0.4336 -0.6387 -0.6356
vn -0.8517 -0.2013 -0.4839
vn -0.4334 -0.3470 -0.8317
vn -0.8516 -0.0007 -0.5241
vn -0.4340 -0.0023 -0.9009
vn -0.8520 0.1997 -0.4840
vn -0.4342 0.3426 -0.8331
vn -0.8519 0.3698 -0.3707
vn -0.4342 0.6353 -0.6387
vn -0.8522 0.4831 -0.2009
vn -0.4349 0.8309 -0.3470
vn -0.9925 -0.1188 -0.0285
vn -0.9925 -0.1207 0.0191
vn -0.9925 -0.0989 -0.0719
vn -0.9925 -0.1043 0.0638
vn -0.9925 -0.0718 0.0989
vn -0.9925 -0.0286 0.1189
vn -0.9925 0.0191 0.1208
vn -0.9925 0.0639 0.1043
vn -0.9925 0.0989 0.0719
vn -0.9925 0.1188 0.0285
vn -0.9925 0.1207 -0.0191
vn -0.9925 0.1042 -0.0638
vn -0.9925 0.0720 -0.0989
vn -0.9925 0.0286 -0.1189
vn -0.9925 -0.0191 -0.1207
vn -0.9925 -0.0638 -0.1041
vn 0.4048 0.3646 0.8386
vn 0.8472 0.4940 0.1956
vn 0.4013 0.9159 -0.0136
vn 0.8382 0.0029 0.5453
vn 0.8479 0.5301 -0.0080
vn 0.4255 0.0121 0.9049
vn 0.8386 -0.2058 0.5044
vn 0.4259 -0.3352 0.8404
vn 0.8381 -0.3836 0.3878
vn 0.4257 -0.6310 0.6485
vn 0.8389 -0.5017 0.2110
vn 0.4264 -0.8310 0.3573
vn 0.8380 -0.5457 0.0030
vn 0.4256 -0.9048 0.0122
vn 0.8382 -0.5050 -0.2058
vn 0.3870 -0.8449 -0.3692
vn 0.8382 -0.3878 -0.3835
vn 0.3889 -0.6518 -0.6511
vn 0.8376 -0.2120 -0.5035
vn 0.3879 -0.3532 -0.8514
vn 0.8382 -0.0029 -0.5453
vn 0.3887 -0.0005 -0.9214
vn 0.8386 0.2058 -0.5044
vn 0.3893 0.3522 -0.8511
vn 0.8381 0.3837 -0.3878
vn 0.3886 0.6511 -0.6519
vn 0.8389 0.5017 -0.2110
vn 0.3895 0.8506 -0.3532
vn 0.9856 -0.1344 -0.1030
vn 0.9887 -0.1448 0.0386
vn 0.9803 -0.1481 -0.1303
vn 0.9806 -0.1882 0.0554
vn 0.9807 -0.1520 0.1231
vn 0.9806 -0.0938 0.1723
vn 0.9806 -0.0207 0.1949
vn 0.9806 0.0555 0.1880
vn 0.9806 0.1232 0.1525
vn 0.9807 0.1720 0.0935
vn 0.9806 0.1948 0.0206
vn 0.9806 0.1878 -0.0555
vn 0.9806 0.1526 -0.1232
vn 0.9806 0.0937 -0.1722
vn 0.9806 0.0208 -0.1950
vn 0.9807 -0.0556 -0.1874
usemtl materials_are_bae.002
s 1
f 1/1/1 2/2/2 3/3/3
f 4/4/4 1/1/1 3/3/3
f 2/2/2 1/1/1 5/5/5
f 6/6/6 1/1/1 4/4/4
f 2/2/2 5/5/5 7/7/7
f 6/6/6 4/4/4 8/8/8
f 5/5/5 9/9/9 7/7/7
f 10/10/10 6/6/6 8/8/8
f 9/9/9 5/5/5 11/11/11
f 10/10/10 12/12/12 6/6/6
f 9/9/9 11/11/11 13/13/13
f 12/12/12 10/10/10 14/14/14
f 11/11/11 15/15/15 13/13/13
f 16/16/16 12/12/12 14/14/14
f 15/15/15 11/11/11 17/17/17
f 16/16/16 18/18/18 12/12/12
f 15/15/15 17/17/17 19/19/19
f 18/18/18 16/16/16 20/20/20
f 17/17/17 21/21/21 19/19/19
f 22/22/22 18/18/18 20/20/20
f 21/21/21 17/17/17 23/23/23
f 22/22/22 23/23/23 18/18/18
f 21/21/21 23/23/23 24/24/24
f 23/23/23 22/22/22 24/24/24
f 25/25/25 1/1/1 26/26/26
f 26/26/26 1/1/1 6/6/6
f 1/1/1 25/25/25 5/5/5
f 26/26/26 6/6/6 27/27/27
f 28/28/28 5/5/5 25/25/25
f 12/12/12 27/27/27 6/6/6
f 5/5/5 28/28/28 11/11/11
f 27/27/27 12/12/12 29/29/29
f 30/30/30 11/11/11 28/28/28
f 18/18/18 29/29/29 12/12/12
f 11/11/11 30/30/30 17/17/17
f 29/29/29 18/18/18 31/31/31
f 32/32/32 17/17/17 30/30/30
f 23/23/23 31/31/31 18/18/18
f 17/17/17 32/32/32 23/23/23
f 31/31/31 23/23/23 32/32/32
f 33/33/33 25/25/25 26/26/26
f 26/26/26 34/34/34 33/33/33
f 34/34/34 26/26/26 27/27/27
f 25/25/25 33/33/33 35/35/35
f 34/34/34 35/35/35 33/33/33
f 35/35/35 28/28/28 25/25/25
f 27/27/27 36/36/36 34/34/34
f 36/36/36 35/35/35 34/34/34
f 36/36/36 27/27/27 29/29/29
f 29/29/29 37/37/37 36/36/36
f 37/37/37 35/35/35 36/36/36
f 37/37/37 29/29/29 31/31/31
f 31/31/31 38/38/38 37/37/37
f 38/38/38 35/35/35 37/37/37
f 38/38/38 31/31/31 32/32/32
f 28/28/28 35/35/35 39/39/39
f 39/39/39 30/30/30 28/28/28
f 40/40/40 35/35/35 38/38/38
f 35/35/35 40/40/40 39/39/39
f 32/32/32 40/40/40 38/38/38
f 39/39/39 40/40/40 30/30/30
f 40/40/40 32/32/32 30/30/30
f 41/41/41 42/42/42 43/43/43
f 44/44/44 45/45/45 46/46/46
f 44/44/44 47/47/47 48/48/48
f 49/49/49 50/50/50 46/46/46
f 50/50/50 47/47/47 44/44/44
f 51/51/51 52/52/52 46/46/46
f 52/52/52 53/53/53 46/46/46
f 54/54/54 46/46/46 55/55/55
f 56/56/56 53/53/53 52/52/52
f 53/53/53 55/55/55 46/46/46
f 48/48/48 47/47/47 57/57/57
f 58/58/58 59/59/59 60/60/60
f 61/61/61 62/62/62 49/49/49
f 63/63/63 56/56/56 64/64/64
f 56/56/56 60/60/60 59/59/59
f 49/49/49 54/54/54 61/61/61
f 65/65/65 66/66/66 57/57/57
f 58/58/58 67/67/67 68/68/68
f 68/68/68 59/59/59 58/58/58
f 59/59/59 69/69/69 70/70/70
f 71/71/71 57/57/57 62/62/62
f 62/62/62 72/72/72 71/71/71
f 61/61/61 73/73/73 74/74/74
f 64/64/64 75/75/75 76/76/76
f 45/45/45 48/48/48 77/77/77
f 50/50/50 49/49/49 47/47/47
f 52/52/52 60/60/60 56/56/56
f 46/46/46 54/54/54 49/49/49
f 47/47/47 49/49/49 62/62/62
f 59/59/59 64/64/64 56/56/56
f 71/71/71 78/78/78 57/57/57
f 68/68/68 69/69/69 59/59/59
f 79/79/79 43/43/43 42/42/42
f 77/77/77 51/51/51 45/45/45
f 45/45/45 51/51/51 46/46/46
f 46/46/46 50/50/50 44/44/44
f 48/48/48 45/45/45 44/44/44
f 60/60/60 52/52/52 51/51/51
f 51/51/51 77/77/77 60/60/60
f 63/63/63 55/55/55 53/53/53
f 53/53/53 56/56/56 63/63/63
f 55/55/55 63/63/63 54/54/54
f 77/77/77 48/48/48 66/66/66
f 66/66/66 58/58/58 77/77/77
f 57/57/57 66/66/66 48/48/48
f 60/60/60 77/77/77 58/58/58
f 62/62/62 57/57/57 47/47/47
f 63/63/63 64/64/64 76/76/76
f 76/76/76 61/61/61 54/54/54
f 54/54/54 63/63/63 76/76/76
f 66/66/66 80/80/80 81/81/81
f 81/81/81 58/58/58 66/66/66
f 65/65/65 80/80/80 66/66/66
f 81/81/81 67/67/67 58/58/58
f 57/57/57 78/78/78 65/65/65
f 70/70/70 64/64/64 59/59/59
f 74/74/74 72/72/72 62/62/62
f 70/70/70 82/82/82 64/64/64
f 74/74/74 62/62/62 61/61/61
f 83/83/83 73/73/73 61/61/61
f 64/64/64 82/82/82 75/75/75
f 83/83/83 61/61/61 76/76/76
f 76/76/76 84/84/84 83/83/83
f 75/75/75 84/84/84 76/76/76
f 85/85/85 86/86/86 87/87/87
f 88/88/88 87/87/87 86/86/86
f 87/87/87 88/88/88 89/89/89
f 86/86/86 85/90/85 90/91/90
f 91/92/91 90/93/90 85/85/85
f 92/94/92 89/89/89 88/88/88
f 90/93/90 91/92/91 93/95/93
f 89/89/89 92/94/92 94/96/94
f 95/97/95 94/98/94 92/99/92
f 94/98/94 95/97/95 96/100/96
f 97/101/97 96/100/96 95/97/95
f 96/100/96 97/101/97 98/102/98
f 99/103/99 98/102/98 97/101/97
f 98/102/98 99/103/99 100/104/100
f 101/105/101 100/104/100 99/103/99
f 100/104/100 101/105/101 102/106/102
f 103/107/103 102/108/102 101/109/101
f 102/108/102 103/107/103 104/110/104
f 105/111/105 104/110/104 103/107/103
f 104/110/104 105/111/105 106/112/106
f 107/113/107 106/112/106 105/111/105
f 106/112/106 107/113/107 108/114/108
f 109/115/109 108/114/108 107/113/107
f 108/114/108 109/115/109 110/116/110
f 111/117/111 110/118/110 109/119/109
f 110/118/110 111/117/111 112/120/112
f 113/121/113 112/120/112 111/117/111
f 112/120/112 113/121/113 114/122/114
f 115/123/115 114/122/114 113/121/113
f 114/122/114 115/123/115 116/124/116
f 93/125/93 116/124/116 115/123/115
f 116/124/116 93/125/93 91/126/91
f 101/127/101 117/128/117 103/129/103
f 117/128/117 101/127/101 118/130/118
f 99/131/99 118/130/118 101/127/101
f 119/132/119 103/129/103 117/128/117
f 103/129/103 119/132/119 105/133/105
f 118/130/118 3/134/3 117/128/117
f 2/135/2 117/128/117 3/134/3
f 117/128/117 2/135/2 119/132/119
f 3/134/3 118/130/118 4/136/4
f 7/137/7 119/132/119 2/135/2
f 120/138/120 4/136/4 118/130/118
f 118/130/118 99/131/99 120/138/120
f 4/136/4 120/138/120 8/139/8
f 97/140/97 120/138/120 99/131/99
f 121/141/121 8/139/8 120/138/120
f 120/138/120 97/140/97 121/141/121
f 8/139/8 121/141/121 10/142/10
f 95/143/95 121/141/121 97/140/97
f 122/144/122 10/142/10 121/141/121
f 121/141/121 95/143/95 122/144/122
f 10/142/10 122/144/122 14/145/14
f 92/146/92 122/144/122 95/143/95
f 123/147/123 14/145/14 122/144/122
f 122/144/122 92/146/92 123/147/123
f 14/145/14 123/147/123 16/16/16
f 88/148/88 123/147/123 92/146/92
f 124/149/124 16/16/16 123/147/123
f 123/147/123 88/148/88 124/149/124
f 16/16/16 124/149/124 20/20/20
f 86/150/86 124/149/124 88/148/88
f 125/151/125 20/20/20 124/149/124
f 124/149/124 86/150/86 125/151/125
f 20/20/20 125/151/125 22/152/22
f 90/153/90 125/151/125 86/150/86
f 126/154/126 22/152/22 125/151/125
f 125/151/125 90/153/90 126/154/126
f 22/152/22 126/154/126 24/155/24
f 93/156/93 126/154/126 90/153/90
f 127/157/127 24/155/24 126/154/126
f 126/154/126 93/156/93 127/157/127
f 24/155/24 127/157/127 21/158/21
f 115/159/115 127/157/127 93/156/93
f 128/160/128 21/158/21 127/157/127
f 127/157/127 115/159/115 128/160/128
f 21/158/21 128/160/128 19/161/19
f 113/162/113 128/160/128 115/159/115
f 129/163/129 19/161/19 128/160/128
f 128/160/128 113/162/113 129/163/129
f 19/161/19 129/163/129 15/15/15
f 111/164/111 129/163/129 113/162/113
f 130/165/130 15/15/15 129/163/129
f 129/163/129 111/164/111 130/165/130
f 15/15/15 130/165/130 13/166/13
f 109/167/109 130/165/130 111/164/111
f 131/168/131 13/166/13 130/165/130
f 130/165/130 109/167/109 131/168/131
f 13/166/13 131/168/131 9/169/9
f 107/170/107 131/168/131 109/167/109
f 132/171/132 9/169/9 131/168/131
f 107/170/107 132/171/132 131/168/131
f 9/169/9 132/171/132 7/137/7
f 105/133/105 132/171/132 107/170/107
f 7/137/7 132/171/132 119/132/119
f 132/171/132 105/133/105 119/132/119
f 42/42/42 133/172/133 79/79/79
f 43/43/43 134/173/134 41/41/41
f 135/174/135 41/41/41 134/173/134
f 136/175/136 79/79/79 133/172/133
f 134/173/134 137/176/137 135/174/135
f 133/172/133 138/177/138 136/175/136
f 139/178/139 136/179/136 138/180/138
f 138/180/138 140/181/140 139/178/139
f 141/182/141 139/178/139 140/181/140
f 140/181/140 142/183/142 141/182/141
f 143/184/143 141/182/141 142/183/142
f 142/183/142 144/185/144 143/184/143
f 145/186/145 143/184/143 144/185/144
f 144/185/144 146/187/146 145/186/145
f 147/188/147 145/189/145 146/190/146
f 146/190/146 148/191/148 147/188/147
f 149/192/149 147/188/147 148/191/148
f 148/191/148 150/193/150 149/192/149
f 151/194/151 149/192/149 150/193/150
f 150/193/150 152/195/152 151/194/151
f 153/196/153 151/194/151 152/195/152
f 152/195/152 154/197/154 153/196/153
f 155/198/155 153/199/153 154/200/154
f 154/200/154 156/201/156 155/198/155
f 157/202/157 155/198/155 156/201/156
f 156/201/156 158/203/158 157/202/157
f 159/204/159 157/202/157 158/203/158
f 158/203/158 160/205/160 159/204/159
f 137/206/137 159/204/159 160/205/160
f 160/205/160 135/207/135 137/206/137
f 145/208/145 147/209/147 161/210/161
f 161/210/161 162/211/162 145/208/145
f 143/212/143 145/208/145 162/211/162
f 163/213/163 161/210/161 147/209/147
f 147/209/147 149/214/149 163/213/163
f 162/211/162 161/210/161 84/215/84
f 83/216/83 84/215/84 161/210/161
f 161/210/161 163/213/163 83/216/83
f 84/215/84 75/217/75 162/211/162
f 73/218/73 83/216/83 163/213/163
f 164/219/164 162/211/162 75/217/75
f 162/211/162 164/219/164 143/212/143
f 75/217/75 82/220/82 164/219/164
f 141/221/141 143/212/143 164/219/164
f 165/222/165 164/219/164 82/220/82
f 164/219/164 165/222/165 141/221/141
f 82/220/82 70/223/70 165/222/165
f 139/224/139 141/221/141 165/222/165
f 166/225/166 165/222/165 70/223/70
f 165/222/165 166/225/166 139/224/139
f 70/223/70 69/226/69 166/225/166
f 136/227/136 139/224/139 166/225/166
f 167/228/167 166/225/166 69/226/69
f 166/225/166 167/228/167 136/227/136
f 69/226/69 68/68/68 167/228/167
f 79/229/79 136/227/136 167/228/167
f 168/230/168 167/228/167 68/68/68
f 167/228/167 168/230/168 79/229/79
f 68/68/68 67/67/67 168/230/168
f 43/231/43 79/229/79 168/230/168
f 169/232/169 168/230/168 67/67/67
f 168/230/168 169/232/169 43/231/43
f 67/67/67 81/233/81 169/232/169
f 134/234/134 43/231/43 169/232/169
f 170/235/170 169/232/169 81/233/81
f 169/232/169 170/235/170 134/234/134
f 81/233/81 80/236/80 170/235/170
f 137/237/137 134/234/134 170/235/170
f 171/238/171 170/235/170 80/236/80
f 170/235/170 171/238/171 137/237/137
f 80/236/80 65/239/65 171/238/171
f 159/240/159 137/237/137 171/238/171
f 172/241/172 171/238/171 65/239/65
f 171/238/171 172/241/172 159/240/159
f 65/239/65 78/242/78 172/241/172
f 157/243/157 159/240/159 172/241/172
f 173/244/173 172/241/172 78/242/78
f 172/241/172 173/244/173 157/243/157
f 78/242/78 71/71/71 173/244/173
f 155/245/155 157/243/157 173/244/173
f 174/246/174 173/244/173 71/71/71
f 173/244/173 174/246/174 155/245/155
f 71/71/71 72/247/72 174/246/174
f 153/248/153 155/245/155 174/246/174
f 175/249/175 174/246/174 72/247/72
f 174/246/174 175/249/175 153/248/153
f 72/247/72 74/250/74 175/249/175
f 151/251/151 153/248/153 175/249/175
f 176/252/176 175/249/175 74/250/74
f 151/251/151 175/249/175 176/252/176
f 74/250/74 73/218/73 176/252/176
f 149/214/149 151/251/151 176/252/176
f 73/218/73 163/213/163 176/252/176
f 176/252/176 163/213/163 149/214/149
f 160/253/160 91/126/91 135/254/135
f 135/255/135 85/85/85 41/256/41
f 85/85/85 135/255/135 91/92/91
f 41/256/41 87/87/87 42/257/42
f 87/87/87 41/256/41 85/85/85
f 42/257/42 89/89/89 133/258/133
f 89/89/89 42/257/42 87/87/87
f 94/96/94 133/258/133 89/89/89
f 133/258/133 94/96/94 138/259/138
f 96/100/96 138/260/138 94/98/94
f 138/260/138 96/100/96 140/261/140
f 98/102/98 140/261/140 96/100/96
f 140/261/140 98/102/98 142/262/142
f 100/104/100 142/262/142 98/102/98
f 142/262/142 100/104/100 144/263/144
f 102/106/102 144/263/144 100/104/100
f 144/263/144 102/106/102 146/264/146
f 104/110/104 146/265/146 102/108/102
f 146/265/146 104/110/104 148/266/148
f 106/112/106 148/266/148 104/110/104
f 148/266/148 106/112/106 150/267/150
f 108/114/108 150/267/150 106/112/106
f 150/267/150 108/114/108 152/268/152
f 110/116/110 152/268/152 108/114/108
f 152/268/152 110/116/110 154/269/154
f 112/120/112 154/270/154 110/118/110
f 154/270/154 112/120/112 156/271/156
f 114/122/114 156/271/156 112/120/112
f 156/271/156 114/122/114 158/272/158
f 116/124/116 158/272/158 114/122/114
f 158/272/158 116/124/116 160/253/160
f 91/126/91 160/253/160 116/124/116
