# Blender v3.0.1 OBJ File: ''
# www.blender.org
mtllib fox.mtl
o body_Box01.003
v 0.310731 1.277315 0.475326
v -0.307023 1.277315 0.475326
v -0.275876 -1.754492 0.434467
v -0.730627 1.084366 0.460666
v -0.656762 -1.690645 0.420609
v 0.279584 -1.754492 0.434467
v 0.660472 -1.690644 0.420608
v 0.734335 1.084367 0.460666
v -0.645059 0.775301 0.476563
v -0.401857 1.098101 0.447668
v -0.401848 1.098096 0.318968
v -0.173848 0.688895 0.319000
v -0.173867 0.688905 0.577900
v 0.184433 0.688905 0.577926
v 0.655541 0.775301 0.476657
v 0.184452 0.688895 0.319026
v 0.412452 1.098096 0.319027
v 0.412443 1.098101 0.447727
v 0.140941 1.155501 0.476405
v -0.130459 1.155501 0.476385
v -0.645043 0.775292 0.254863
v 0.655557 0.775292 0.254957
v -0.543173 -0.822082 0.600106
v -0.576655 -0.759492 0.346801
v -0.572754 -0.802993 0.337903
v -0.565374 -0.866283 0.601306
v -0.001720 -0.873282 0.630745
v -0.001518 -0.822782 0.610343
v 0.000001 -0.754593 0.347841
v -0.540241 -0.700100 0.144101
v 0.001516 -0.696101 0.134739
v 0.001719 -0.732601 0.096540
v -0.545139 -0.739701 0.125802
v 0.548527 -0.822082 0.600485
v 0.570626 -0.866283 0.601688
v 0.573545 -0.802993 0.338186
v 0.584945 -0.759492 0.346985
v 0.534660 -0.700100 0.144179
v 0.539661 -0.739701 0.125881
v -0.543172 -0.905884 0.583009
v -0.551054 -0.846493 0.329106
v 0.000002 -0.851292 0.328244
v -0.001517 -0.909783 0.592646
v -0.523039 -0.783900 0.127006
v 0.001517 -0.783200 0.117042
v 0.548528 -0.905884 0.583388
v 0.542646 -0.846493 0.329285
v 0.517461 -0.783900 0.127181
v -0.597662 -0.028620 0.622758
v -0.622945 0.020272 0.390454
v -0.647944 -0.023228 0.381654
v -0.606162 -0.072420 0.623259
v -0.400764 -0.077819 0.650174
v -0.400462 -0.028919 0.632172
v -0.398045 0.025171 0.391571
v -0.631528 0.066062 0.157552
v -0.395527 0.069463 0.148969
v -0.395225 0.031361 0.113271
v -0.639827 0.025963 0.140053
v -0.203062 -0.028620 0.623087
v -0.194862 -0.072420 0.623489
v -0.148044 -0.023228 0.381790
v -0.173045 0.020272 0.390687
v -0.159728 0.066062 0.157586
v -0.151327 0.025963 0.140088
v -0.597660 -0.112421 0.605761
v -0.622944 -0.066730 0.372758
v -0.398044 -0.071530 0.371874
v -0.400461 -0.115920 0.614476
v -0.631527 -0.017738 0.140555
v -0.395526 -0.017539 0.131272
v -0.203060 -0.112421 0.606090
v -0.173044 -0.066730 0.372990
v -0.159727 -0.017738 0.140589
v -0.492179 -0.069271 0.828533
v -0.503174 -0.051674 0.749632
v -0.515473 -0.090374 0.741732
v -0.496179 -0.107071 0.823934
v -0.391880 -0.108970 0.833142
v -0.391980 -0.068370 0.831841
v -0.392474 -0.047374 0.750540
v -0.506068 -0.037077 0.670231
v -0.393068 -0.034977 0.667439
v -0.393166 -0.071777 0.650441
v -0.510167 -0.073677 0.659632
v -0.291779 -0.069271 0.828548
v -0.287679 -0.107071 0.823949
v -0.269573 -0.090374 0.741750
v -0.281874 -0.051674 0.749648
v -0.280068 -0.037077 0.670247
v -0.275967 -0.073677 0.659649
v -0.492178 -0.143671 0.813336
v -0.503172 -0.129074 0.733935
v -0.392472 -0.133374 0.733043
v -0.391978 -0.145771 0.816143
v -0.506067 -0.111477 0.655034
v -0.393067 -0.112277 0.651742
v -0.291778 -0.143671 0.813351
v -0.281872 -0.129074 0.733951
v -0.280067 -0.111477 0.655050
v 0.285921 -0.068471 0.823289
v 0.273527 -0.051174 0.744488
v 0.261127 -0.090374 0.736588
v 0.281821 -0.106571 0.818791
v 0.386021 -0.103471 0.827898
v 0.386021 -0.062871 0.826697
v 0.385327 -0.041874 0.745396
v 0.269433 -0.036277 0.665087
v 0.384733 -0.029477 0.662295
v 0.384634 -0.066278 0.645297
v 0.265333 -0.073077 0.654388
v 0.486021 -0.058971 0.823303
v 0.490121 -0.096671 0.818805
v 0.509527 -0.079374 0.736606
v 0.497127 -0.041274 0.744504
v 0.500033 -0.026777 0.665103
v 0.504133 -0.063177 0.654405
v 0.285922 -0.142971 0.808192
v 0.273528 -0.128474 0.728791
v 0.385328 -0.127874 0.727899
v 0.386022 -0.140271 0.810900
v 0.269434 -0.110777 0.649890
v 0.384734 -0.106878 0.646598
v 0.486022 -0.133471 0.808206
v 0.497128 -0.118574 0.728807
v 0.500034 -0.101277 0.649906
v 0.195939 -0.028620 0.617916
v 0.163356 0.020272 0.385511
v 0.138856 -0.023228 0.376611
v 0.187839 -0.072420 0.618317
v 0.384537 -0.077819 0.645231
v 0.384438 -0.028919 0.627229
v 0.383455 0.025171 0.386527
v 0.146972 0.066062 0.152408
v 0.382473 0.069463 0.143825
v 0.382376 0.031360 0.108127
v 0.138774 0.025961 0.134909
v 0.572839 -0.028620 0.617943
v 0.581039 -0.072420 0.618345
v 0.628056 -0.023228 0.376647
v 0.603655 0.020272 0.385543
v 0.618072 0.066062 0.152442
v 0.626274 0.025961 0.134944
v 0.195940 -0.112421 0.600819
v 0.163357 -0.066730 0.367815
v 0.383457 -0.071530 0.366831
v 0.384439 -0.115920 0.609532
v 0.146974 -0.017738 0.135312
v 0.382474 -0.017539 0.126129
v 0.572840 -0.112421 0.600846
v 0.603657 -0.066730 0.367846
v 0.618074 -0.017738 0.135346
v -0.066350 0.388931 0.900369
v 0.082893 0.388931 0.900369
v 0.082893 0.466731 0.890723
v -0.066350 0.466731 0.890723
v 0.082893 0.585770 0.852116
v -0.066350 0.585770 0.852116
v -0.112616 0.274278 0.892998
v 0.129158 0.274278 0.892998
v 0.129158 0.459739 0.845569
v 0.129158 0.523748 0.817743
v -0.112616 0.523748 0.817743
v -0.112616 0.459739 0.845569
v 0.012346 -0.383912 0.905057
v 0.002580 -0.365954 0.905057
v 0.002580 -0.678656 1.360185
v -0.007184 -0.383912 0.905057
v 0.012346 -0.998190 0.869652
v 0.002580 -0.980232 0.869652
v 0.002580 -1.052350 1.122963
v -0.007184 -0.998190 0.869652
v -0.715212 0.778937 0.557365
v -0.672503 0.773347 0.543304
v -0.681113 0.823590 0.534677
v -0.754590 0.820502 0.556601
v -0.766914 0.766441 0.606978
v -0.793313 0.811096 0.588609
v -0.811069 0.744087 0.628853
v -0.827863 0.797538 0.602723
v -0.863964 0.701884 0.618823
v -0.868670 0.764342 0.598939
v -0.741471 0.782855 0.478116
v -0.771532 0.823030 0.505473
v -0.697599 0.828444 0.483547
v -0.698055 0.780872 0.464054
v -0.811950 0.764352 0.472254
v -0.822368 0.809750 0.501690
v -0.854177 0.730093 0.494128
v -0.855675 0.788511 0.515804
v -0.889322 0.693652 0.539574
v -0.885031 0.759031 0.547812
v -0.430661 -0.812896 -0.117916
v -0.306738 -0.812896 -0.117916
v -0.306738 -1.585510 -0.047104
v -0.430661 -1.585510 -0.047104
v -0.430661 -0.883577 0.321878
v -0.430661 -1.488515 0.321878
v -0.306738 -1.488515 0.321878
v -0.306738 -0.883577 0.321878
v 0.300790 -0.812896 -0.117916
v 0.424712 -0.812896 -0.117916
v 0.424712 -1.585510 -0.047104
v 0.300790 -1.585510 -0.047104
v 0.300790 -0.883577 0.321878
v 0.300790 -1.488515 0.321878
v 0.424712 -1.488515 0.321878
v 0.424712 -0.883577 0.321878
v -0.430661 2.045543 -0.189206
v -0.306738 2.045543 -0.189206
v -0.306738 1.096492 -0.001551
v -0.430661 1.096492 -0.001551
v -0.430661 1.847173 0.279575
v -0.430661 1.269918 0.317129
v -0.306738 1.269917 0.317129
v -0.306738 1.847173 0.279575
v 0.300790 2.045543 -0.189206
v 0.424712 2.045543 -0.189206
v 0.424712 1.096492 -0.001551
v 0.300790 1.096492 -0.001551
v 0.300790 1.847173 0.279575
v 0.300790 1.269917 0.317129
v 0.424712 1.269917 0.317129
v 0.424712 1.847173 0.279575
v 0.580201 -1.801882 -0.154976
v 0.564069 -1.801882 -0.116028
v 0.525121 -1.711882 -0.154976
v 0.525121 -1.801882 -0.099897
v 0.486175 -1.801881 -0.116028
v 0.470042 -1.801881 -0.154976
v 0.486175 -1.801881 -0.193923
v 0.525121 -1.801882 -0.210055
v 0.564069 -1.801882 -0.193923
v 0.564069 -1.584639 -0.116028
v 0.580201 -1.584639 -0.154976
v 0.525121 -1.584639 -0.099897
v 0.486175 -1.584639 -0.116028
v 0.470042 -1.584639 -0.154976
v 0.486175 -1.584639 -0.193923
v 0.525121 -1.584639 -0.210055
v 0.564069 -1.584639 -0.193923
v 0.063116 -0.928091 -0.199126
v 0.030376 -0.916088 -0.143557
v 0.063116 -1.197831 -0.078952
v 0.030376 -1.173343 -0.027147
v -0.035105 -0.916088 -0.143557
v -0.035105 -1.173343 -0.027147
v -0.067845 -0.928091 -0.199126
v -0.067845 -1.197831 -0.078952
v -0.035105 -0.940094 -0.254695
v -0.035105 -1.222320 -0.130758
v 0.030376 -0.940094 -0.254695
v 0.030376 -1.222320 -0.130758
v 0.030376 1.208452 -0.143657
v 0.063116 1.220971 -0.199125
v -0.035105 1.208452 -0.143657
v -0.067845 1.220971 -0.199125
v -0.035105 1.233488 -0.254593
v 0.030376 1.233488 -0.254593
v 0.063116 1.506658 -0.078951
v 0.030376 1.475201 -0.030601
v -0.035105 1.475201 -0.030601
v -0.067845 1.506658 -0.078951
v -0.035105 1.538118 -0.127304
v 0.030376 1.538118 -0.127304
v -0.153866 1.461400 -0.106144
v -0.153866 1.491119 -0.057662
v -0.682960 1.461400 -0.106144
v -0.682960 1.491119 -0.057662
v -0.153866 1.550555 -0.057662
v -0.682960 1.550555 -0.057662
v -0.153866 1.580274 -0.106144
v -0.682960 1.580274 -0.106144
v -0.153866 1.550555 -0.154626
v -0.682960 1.550555 -0.154626
v -0.153866 1.491119 -0.154626
v -0.682960 1.491119 -0.154626
v -0.137158 1.446244 0.015547
v -0.137158 1.371650 -0.106144
v -0.137158 1.595430 0.015547
v -0.137158 1.670024 -0.106144
v -0.137158 1.595430 -0.227835
v -0.137158 1.446244 -0.227835
v 0.133211 1.371650 -0.106144
v 0.133211 1.446244 0.015547
v 0.133211 1.595430 0.015547
v 0.133211 1.670024 -0.106144
v 0.133211 1.595430 -0.227835
v 0.133211 1.446244 -0.227835
v 0.149920 1.461400 -0.106144
v 0.149920 1.491119 -0.057662
v 0.149920 1.550555 -0.057662
v 0.149920 1.580274 -0.106144
v 0.149920 1.550555 -0.154626
v 0.149920 1.491119 -0.154626
v 0.679013 1.461400 -0.106144
v 0.679013 1.491119 -0.057662
v 0.679013 1.550555 -0.057662
v 0.679013 1.580274 -0.106144
v 0.679013 1.550555 -0.154626
v 0.679013 1.491119 -0.154626
v -0.405729 -1.193882 0.846725
v -0.385912 -1.407497 0.877083
v -0.350941 -1.204952 0.847848
v -0.480986 -1.168162 0.852782
v -0.427594 -1.535403 0.867371
v -0.489019 -1.180346 0.831320
v -0.480986 -1.192529 0.809858
v -0.385912 -1.431864 0.834158
v -0.405729 -1.208943 0.820195
v -0.350941 -1.220011 0.821319
v -0.189465 -1.475298 0.883966
v -0.152813 -1.247086 0.852125
v -0.233700 -1.629626 0.876937
v -0.189465 -1.499665 0.841043
v -0.152813 -1.262145 0.825597
v 0.195188 -1.475298 0.883966
v 0.158535 -1.247086 0.852125
v 0.239423 -1.629626 0.876937
v 0.195188 -1.499665 0.841043
v 0.158535 -1.262145 0.825597
v 0.390798 -1.408733 0.877209
v 0.356664 -1.204952 0.847848
v 0.434991 -1.532929 0.867119
v 0.390798 -1.433101 0.834284
v 0.356664 -1.220011 0.821319
v 0.408914 -1.195654 0.846904
v 0.484172 -1.169933 0.852963
v 0.492204 -1.182118 0.831499
v 0.484172 -1.194301 0.810038
v 0.408914 -1.210715 0.820376
v 0.672470 0.823590 0.534677
v 0.663859 0.773347 0.543304
v 0.706568 0.778937 0.557365
v 0.745947 0.820502 0.556601
v 0.758270 0.766441 0.606978
v 0.784668 0.811096 0.588609
v 0.802424 0.744087 0.628853
v 0.819220 0.797538 0.602723
v 0.855319 0.701884 0.618823
v 0.860027 0.764342 0.598939
v 0.688955 0.828444 0.483547
v 0.762888 0.823030 0.505472
v 0.732827 0.782855 0.478116
v 0.689410 0.780872 0.464054
v 0.813724 0.809750 0.501690
v 0.803306 0.764353 0.472254
v 0.847031 0.788511 0.515804
v 0.845534 0.730093 0.494128
v 0.876386 0.759031 0.547812
v 0.880678 0.693652 0.539574
v 0.848310 1.934962 -0.240347
v 0.618445 2.275198 -0.250361
v 0.618445 2.275198 0.080117
v 0.848310 1.924329 -0.040057
v 0.777178 1.811774 0.351088
v 0.617911 2.108486 0.243502
v 0.848310 1.839269 0.120174
v 0.785609 1.786107 0.360522
v 0.848310 1.701048 0.220318
v 0.785609 1.509664 0.420609
v 0.848310 1.541561 0.270390
v 0.848310 1.382075 0.250362
v 0.848310 1.222589 0.150217
v 0.873703 -0.829470 -0.080116
v 0.873703 -0.829470 -0.240348
v 0.848310 1.105632 -0.230332
v 0.848310 1.105632 -0.160231
v 0.713162 -1.669380 -0.200290
v 0.873703 -1.584372 -0.200290
v 0.873703 -1.563107 -0.000000
v 0.713162 -1.733174 -0.070102
v 0.713162 -1.765071 0.120173
v 0.713162 -1.701276 0.170246
v 0.873703 -1.488681 0.140203
v 0.873703 -1.350459 0.270389
v 0.873703 -1.137810 0.290419
v 0.848310 1.148162 0.030042
v 0.873703 -0.871999 0.100143
v 0.581618 -1.488681 0.711027
v 0.485543 -1.254767 0.841215
v 0.873703 -0.978323 0.220318
v 0.485542 -0.627454 0.891288
v 0.485542 0.127448 0.891288
v 0.445605 0.340097 0.871260
v 0.534486 0.627173 0.751085
v 0.673738 0.978042 0.550797
v 0.358793 1.982845 -0.239707
v 0.261863 2.323083 -0.249920
v 0.261863 2.323083 0.087166
v 0.358793 1.972213 -0.035411
v 0.437212 2.291186 0.158669
v 0.301804 2.131700 0.271033
v 0.358793 1.887155 0.128026
v 0.332352 1.833992 0.373179
v 0.358793 1.748932 0.230172
v 0.332352 1.557549 0.434468
v 0.358793 1.589446 0.281247
v 0.358793 1.382075 0.260817
v 0.310731 1.277315 0.475326
v 0.358793 1.222588 0.158669
v 0.369501 -0.829470 -0.076271
v 0.369501 -0.774702 -0.183055
v 0.358793 1.050865 -0.172841
v 0.358793 1.105632 -0.157988
v 0.301804 -1.733226 -0.198849
v 0.369501 -1.584372 -0.198849
v 0.369501 -1.563107 0.005447
v 0.301804 -1.797021 -0.066057
v 0.301804 -1.828918 0.128025
v 0.301804 -1.765122 0.179098
v 0.369501 -1.488681 0.148453
v 0.369501 -1.350459 0.281246
v 0.246332 -1.532540 0.730696
v 0.358793 1.148162 0.036092
v 0.369501 -0.871999 0.107594
v 0.369501 -1.137810 0.301675
v 0.205820 -1.291608 0.863487
v 0.205820 -0.645476 0.914561
v 0.369501 -0.978324 0.230172
v 0.205819 0.132073 0.914561
v 0.188978 0.351101 0.894132
v 0.209533 0.646789 0.771554
v 0.256551 1.056070 0.567261
v -0.844601 1.934960 -0.240347
v -0.614736 2.275198 0.080117
v -0.614736 2.275198 -0.250361
v -0.844601 1.924329 -0.040057
v -0.773470 1.811774 0.351088
v -0.614202 2.108486 0.243502
v -0.844601 1.839269 0.120174
v -0.781900 1.786107 0.360522
v -0.844601 1.701048 0.220318
v -0.781900 1.509664 0.420609
v -0.844601 1.541561 0.270391
v -0.844601 1.382075 0.250362
v -0.844601 1.222588 0.150218
v -0.869994 -0.829470 -0.080116
v -0.844601 1.105632 -0.230332
v -0.869994 -0.829470 -0.240348
v -0.844601 1.105632 -0.160231
v -0.709452 -1.669380 -0.200290
v -0.869994 -1.563107 -0.000000
v -0.869994 -1.584372 -0.200290
v -0.709452 -1.733174 -0.070102
v -0.709452 -1.765071 0.120173
v -0.709452 -1.701276 0.170246
v -0.869994 -1.488681 0.140203
v -0.656762 -1.690645 0.420608
v -0.869994 -1.350459 0.270389
v -0.577909 -1.488681 0.711027
v -0.844601 1.148162 0.030042
v -0.869994 -0.871999 0.100143
v -0.869994 -1.137810 0.290419
v -0.481833 -1.254767 0.841215
v -0.481833 -0.627454 0.891288
v -0.869994 -0.978324 0.220318
v -0.481833 0.127448 0.891288
v -0.441896 0.340097 0.871260
v -0.530778 0.627173 0.751085
v -0.670029 0.978042 0.550797
v -0.355084 1.982845 -0.239707
v -0.258154 2.323083 -0.249920
v -0.258154 2.323083 0.087166
v -0.355084 1.972213 -0.035410
v -0.433503 2.291186 0.158669
v -0.298095 2.131700 0.271033
v -0.355084 1.887153 0.128026
v -0.328644 1.833992 0.373179
v -0.355084 1.748932 0.230172
v -0.328644 1.557548 0.434468
v -0.355084 1.589446 0.281247
v -0.355084 1.382075 0.260817
v -0.307023 1.277315 0.475326
v -0.355084 1.222588 0.158669
v -0.365792 -0.829470 -0.076271
v -0.365792 -0.774702 -0.183055
v -0.355084 1.050865 -0.172841
v -0.355084 1.105632 -0.157988
v -0.298094 -1.733226 -0.198849
v -0.365792 -1.584372 -0.198849
v -0.365792 -1.563107 0.005447
v -0.298094 -1.797021 -0.066057
v -0.298094 -1.828918 0.128025
v -0.298094 -1.765122 0.179098
v -0.365792 -1.488681 0.148453
v -0.365792 -1.350459 0.281246
v -0.242624 -1.532540 0.730696
v -0.355084 1.148162 0.036092
v -0.365792 -0.871999 0.107594
v -0.365792 -1.137810 0.301675
v -0.202111 -1.291609 0.863487
v -0.202111 -0.645476 0.914561
v -0.365792 -0.978324 0.230172
v -0.202111 0.132073 0.914561
v -0.185269 0.351101 0.894132
v -0.205824 0.646789 0.771554
v -0.252842 1.056070 0.567261
v -0.153866 -1.255363 -0.106145
v -0.153866 -1.225644 -0.057663
v -0.682960 -1.255363 -0.106145
v -0.682960 -1.225644 -0.057663
v -0.153866 -1.166207 -0.057663
v -0.682960 -1.166207 -0.057663
v -0.153866 -1.136489 -0.106145
v -0.682960 -1.136489 -0.106145
v -0.153866 -1.166207 -0.154627
v -0.682960 -1.166207 -0.154627
v -0.153866 -1.225644 -0.154627
v -0.682960 -1.225644 -0.154627
v -0.137158 -1.270519 0.015547
v -0.137158 -1.345113 -0.106145
v -0.137158 -1.121331 0.015547
v -0.137158 -1.046739 -0.106145
v -0.137158 -1.121331 -0.227836
v -0.137158 -1.270519 -0.227836
v 0.133211 -1.345113 -0.106145
v 0.133211 -1.270519 0.015547
v 0.133211 -1.121331 0.015547
v 0.133211 -1.046739 -0.106145
v 0.133211 -1.121331 -0.227836
v 0.133211 -1.270519 -0.227836
v 0.149920 -1.255363 -0.106145
v 0.149920 -1.225644 -0.057663
v 0.149920 -1.166207 -0.057663
v 0.149920 -1.136489 -0.106145
v 0.149920 -1.166207 -0.154627
v 0.149920 -1.225644 -0.154627
v 0.679012 -1.255363 -0.106145
v 0.679012 -1.225644 -0.057663
v 0.679012 -1.166207 -0.057663
v 0.679012 -1.136489 -0.106145
v 0.679012 -1.166207 -0.154627
v 0.679012 -1.225644 -0.154627
v -0.275876 -1.754492 0.434467
v -0.730627 1.084366 0.460666
v 0.279584 -1.754492 0.434467
v 0.660472 -1.690644 0.420608
v 0.734335 1.084367 0.460666
v -0.066350 0.388931 0.900369
v 0.082893 0.388931 0.900369
v 0.082893 0.466731 0.890723
v -0.066350 0.466731 0.890723
v 0.082893 0.585770 0.852116
v -0.066350 0.585770 0.852116
v -0.112616 0.274278 0.892998
v 0.129158 0.274278 0.892998
v 0.129158 0.459739 0.845569
v 0.129158 0.523748 0.817743
v -0.112616 0.523748 0.817743
v -0.112616 0.459739 0.845569
v 0.012346 -0.383912 0.905057
v 0.002580 -0.365954 0.905057
v 0.002580 -0.678656 1.360185
v 0.012346 -0.998190 0.869652
v 0.002580 -0.980232 0.869652
v 0.002580 -1.052350 1.122963
v 0.581618 -1.488681 0.711027
v 0.485543 -1.254767 0.841215
v 0.485542 -0.627454 0.891288
v 0.485542 0.127448 0.891288
v 0.445605 0.340097 0.871260
v 0.534486 0.627173 0.751085
v 0.673738 0.978042 0.550797
v 0.246332 -1.532540 0.730696
v 0.205820 -1.291608 0.863487
v 0.205820 -0.645476 0.914561
v 0.205819 0.132073 0.914561
v 0.188978 0.351101 0.894132
v 0.209533 0.646789 0.771554
v 0.256551 1.056070 0.567261
v -0.656762 -1.690645 0.420608
v -0.577909 -1.488681 0.711027
v -0.481833 -1.254767 0.841215
v -0.481833 -0.627454 0.891288
v -0.481833 0.127448 0.891288
v -0.441896 0.340097 0.871260
v -0.530778 0.627173 0.751085
v -0.670029 0.978042 0.550797
v -0.242624 -1.532540 0.730696
v -0.202111 -1.291609 0.863487
v -0.202111 -0.645476 0.914561
v -0.202111 0.132073 0.914561
v -0.185269 0.351101 0.894132
v -0.205824 0.646789 0.771554
v -0.252842 1.056070 0.567261
vt 0.666523 0.414490
vt 0.666523 0.414490
vt 0.666523 0.414490
vt 0.666523 0.414490
vt 0.666523 0.414490
vt 0.666523 0.414490
vt 0.666523 0.414490
vt 0.666523 0.414490
vt 0.757616 0.332647
vt 0.804443 0.319598
vt 0.804615 0.300986
vt 0.849076 0.290240
vt 0.849076 0.297289
vt 0.831028 0.296297
vt 0.862799 0.297289
vt 0.880847 0.296297
vt 0.862799 0.290240
vt 0.805983 0.300986
vt 0.805812 0.319598
vt 0.758985 0.332647
vt 0.781731 0.282963
vt 0.789226 0.288039
vt 0.791234 0.278203
vt 0.780408 0.271631
vt 0.780408 0.277298
vt 0.781731 0.265964
vt 0.791234 0.270724
vt 0.757893 0.300578
vt 0.831028 0.290263
vt 0.880847 0.290263
vt 0.759262 0.300578
vt 0.789226 0.260887
vt 0.318064 0.545980
vt 0.329789 0.545980
vt 0.329789 0.513043
vt 0.341514 0.545980
vt 0.341514 0.513043
vt 0.329789 0.513043
vt 0.341514 0.513043
vt 0.329791 0.513899
vt 0.318064 0.545980
vt 0.329789 0.545980
vt 0.329789 0.513043
vt 0.341514 0.545980
vt 0.341514 0.513043
vt 0.318064 0.545980
vt 0.329789 0.545980
vt 0.341514 0.545980
vt 0.341514 0.513043
vt 0.329789 0.513043
vt 0.341514 0.480105
vt 0.329789 0.480105
vt 0.318064 0.545980
vt 0.329789 0.545980
vt 0.341514 0.545980
vt 0.341514 0.513043
vt 0.318064 0.480105
vt 0.318064 0.513043
vt 0.318064 0.480105
vt 0.318064 0.513043
vt 0.318064 0.545980
vt 0.329789 0.545980
vt 0.329814 0.513813
vt 0.341514 0.480105
vt 0.329789 0.480105
vt 0.318064 0.480105
vt 0.318064 0.513043
vt 0.341514 0.545980
vt 0.341514 0.513043
vt 0.341514 0.480105
vt 0.329789 0.480105
vt 0.318064 0.480105
vt 0.318064 0.513043
vt 0.318064 0.513043
vt 0.341514 0.480105
vt 0.329789 0.480105
vt 0.341514 0.480105
vt 0.329789 0.480105
vt 0.318064 0.480105
vt 0.318064 0.513043
vt 0.317388 0.545888
vt 0.329418 0.545888
vt 0.329418 0.514487
vt 0.341449 0.545888
vt 0.341449 0.514487
vt 0.329418 0.514487
vt 0.341449 0.514487
vt 0.329421 0.517527
vt 0.317388 0.545888
vt 0.329418 0.545888
vt 0.329418 0.514487
vt 0.341449 0.545888
vt 0.341449 0.514487
vt 0.317388 0.545888
vt 0.329418 0.545888
vt 0.341449 0.545888
vt 0.341449 0.514487
vt 0.329418 0.514487
vt 0.341449 0.483086
vt 0.329418 0.483086
vt 0.317388 0.545888
vt 0.329418 0.545888
vt 0.341449 0.545888
vt 0.341449 0.514487
vt 0.317388 0.483086
vt 0.317388 0.514487
vt 0.317388 0.483086
vt 0.317388 0.514487
vt 0.317388 0.545888
vt 0.329418 0.545888
vt 0.329532 0.517225
vt 0.341449 0.483086
vt 0.329418 0.483086
vt 0.317388 0.483086
vt 0.317388 0.514487
vt 0.341449 0.545888
vt 0.341449 0.514487
vt 0.341449 0.483086
vt 0.329418 0.483086
vt 0.317388 0.483086
vt 0.317388 0.514487
vt 0.317388 0.514487
vt 0.341449 0.483086
vt 0.329418 0.483086
vt 0.341449 0.483086
vt 0.329418 0.483086
vt 0.317388 0.483086
vt 0.317388 0.514487
vt 0.317388 0.545888
vt 0.329418 0.545888
vt 0.329418 0.514487
vt 0.341449 0.545888
vt 0.341449 0.514487
vt 0.329418 0.514487
vt 0.341449 0.514487
vt 0.329418 0.516611
vt 0.317388 0.545888
vt 0.329418 0.545888
vt 0.329418 0.514487
vt 0.341449 0.545888
vt 0.341449 0.514487
vt 0.317388 0.514487
vt 0.317388 0.545888
vt 0.329418 0.545888
vt 0.341449 0.545888
vt 0.341449 0.514487
vt 0.329418 0.514487
vt 0.341449 0.483086
vt 0.329418 0.483086
vt 0.317388 0.545888
vt 0.329418 0.545888
vt 0.341449 0.545888
vt 0.341449 0.514487
vt 0.317388 0.483086
vt 0.317388 0.483086
vt 0.317388 0.514487
vt 0.317388 0.545888
vt 0.329418 0.545888
vt 0.329501 0.516397
vt 0.341449 0.483086
vt 0.329418 0.483086
vt 0.317388 0.483086
vt 0.317388 0.514487
vt 0.341449 0.545888
vt 0.341449 0.514487
vt 0.341449 0.483086
vt 0.329418 0.483086
vt 0.317388 0.483086
vt 0.317388 0.514487
vt 0.317388 0.514487
vt 0.341449 0.483086
vt 0.329418 0.483086
vt 0.341449 0.483086
vt 0.329418 0.483086
vt 0.317388 0.483086
vt 0.317388 0.514487
vt 0.317815 0.545308
vt 0.328678 0.545308
vt 0.328678 0.520631
vt 0.339540 0.545308
vt 0.339540 0.520631
vt 0.328678 0.520631
vt 0.339540 0.520631
vt 0.328670 0.522565
vt 0.317815 0.545308
vt 0.328678 0.545308
vt 0.328678 0.520631
vt 0.339540 0.545308
vt 0.339540 0.520631
vt 0.317815 0.520631
vt 0.317815 0.545308
vt 0.328678 0.545308
vt 0.339540 0.545308
vt 0.339540 0.520631
vt 0.328678 0.520631
vt 0.339540 0.495953
vt 0.328678 0.495953
vt 0.317815 0.545308
vt 0.328678 0.545308
vt 0.339540 0.545308
vt 0.339540 0.520631
vt 0.317815 0.495953
vt 0.317815 0.495953
vt 0.317815 0.520631
vt 0.317815 0.545308
vt 0.328678 0.545308
vt 0.328773 0.522373
vt 0.339540 0.495953
vt 0.328678 0.495953
vt 0.317815 0.495953
vt 0.317815 0.520631
vt 0.339540 0.545308
vt 0.339540 0.520631
vt 0.339540 0.495953
vt 0.328678 0.495953
vt 0.317815 0.495953
vt 0.317815 0.520631
vt 0.317815 0.520631
vt 0.339540 0.495953
vt 0.328678 0.495953
vt 0.339540 0.495953
vt 0.328678 0.495953
vt 0.317815 0.495953
vt 0.317815 0.520631
vt 0.317815 0.545308
vt 0.328678 0.545308
vt 0.328678 0.520631
vt 0.339540 0.545308
vt 0.339540 0.520631
vt 0.328678 0.520631
vt 0.339540 0.520631
vt 0.328678 0.523543
vt 0.317815 0.545308
vt 0.328678 0.545308
vt 0.328678 0.520631
vt 0.339540 0.545308
vt 0.339540 0.520631
vt 0.317815 0.520631
vt 0.317815 0.545308
vt 0.328678 0.545308
vt 0.339540 0.545308
vt 0.339540 0.520631
vt 0.328678 0.520631
vt 0.339540 0.495953
vt 0.328678 0.495953
vt 0.317815 0.545308
vt 0.328678 0.545308
vt 0.339540 0.545308
vt 0.339540 0.520631
vt 0.317815 0.495953
vt 0.317815 0.495953
vt 0.317815 0.520631
vt 0.317815 0.545308
vt 0.328678 0.545308
vt 0.328806 0.523251
vt 0.339540 0.495953
vt 0.328678 0.495953
vt 0.317815 0.495953
vt 0.317815 0.520631
vt 0.339540 0.545308
vt 0.339540 0.520631
vt 0.339540 0.495953
vt 0.328678 0.495953
vt 0.317815 0.495953
vt 0.317815 0.520631
vt 0.317815 0.520631
vt 0.339540 0.495953
vt 0.328678 0.495953
vt 0.339540 0.495953
vt 0.328678 0.495953
vt 0.317815 0.495953
vt 0.317815 0.520631
vt 0.267178 0.504031
vt 0.254607 0.529633
vt 0.267178 0.529633
vt 0.254607 0.504031
vt 0.235373 0.529633
vt 0.235373 0.504031
vt 0.285703 0.496095
vt 0.285703 0.537570
vt 0.255737 0.537570
vt 0.245394 0.537570
vt 0.245394 0.496095
vt 0.255737 0.496095
vt 0.667457 0.223131
vt 0.679112 0.243309
vt 0.695437 0.243309
vt 0.683140 0.209531
vt 0.704728 0.220421
vt 0.721352 0.209531
vt 0.419608 0.136159
vt 0.024709 0.132560
vt 0.057443 0.176341
vt 0.090675 0.196412
vt 0.181893 0.204202
vt 0.291531 0.204817
vt 0.323154 0.202286
vt 0.365099 0.182635
vt 0.297097 0.932929
vt 0.413973 0.864794
vt 0.304403 0.867840
vt 0.396647 0.928607
vt 0.288195 0.962107
vt 0.375537 0.957213
vt 0.450385 0.551158
vt 0.552150 0.600761
vt 0.558304 0.551158
vt 0.447375 0.600761
vt 0.320518 0.551158
vt 0.321290 0.600761
vt 0.283935 0.548171
vt 0.285773 0.593679
vt 0.215597 0.548836
vt 0.247798 0.584620
vt 0.233215 0.545720
vt 0.217657 0.598093
vt 0.172626 0.555963
vt 0.180818 0.619201
vt 0.149396 0.564176
vt 0.169655 0.628386
vt 0.488253 0.364972
vt 0.524516 0.321349
vt 0.125765 0.327366
vt 0.454852 0.383912
vt 0.367216 0.391926
vt 0.261147 0.392048
vt 0.223494 0.389772
vt 0.182635 0.371477
vt 0.131774 0.340904
vt 0.189660 0.932929
vt 0.182354 0.867840
vt 0.074250 0.864794
vt 0.091576 0.928607
vt 0.198562 0.962107
vt 0.112686 0.957213
vt 0.450385 0.478821
vt 0.558304 0.478821
vt 0.552150 0.429218
vt 0.447375 0.429218
vt 0.320518 0.478821
vt 0.321290 0.429218
vt 0.283935 0.481807
vt 0.285773 0.436300
vt 0.215597 0.485876
vt 0.233215 0.488992
vt 0.246568 0.448862
vt 0.217657 0.436619
vt 0.172626 0.478749
vt 0.180818 0.415511
vt 0.149396 0.470536
vt 0.169655 0.406326
vt 0.267178 0.504031
vt 0.267178 0.529633
vt 0.254607 0.529633
vt 0.254607 0.504031
vt 0.235373 0.529633
vt 0.235373 0.504031
vt 0.285703 0.496095
vt 0.285703 0.537570
vt 0.255737 0.537570
vt 0.245394 0.537570
vt 0.327215 0.538185
vt 0.327215 0.496710
vt 0.317194 0.504646
vt 0.317194 0.530248
vt 0.245394 0.496095
vt 0.255737 0.496095
vt 0.667457 0.223131
vt 0.695437 0.243309
vt 0.679112 0.243309
vt 0.667457 0.263487
vt 0.683140 0.209531
vt 0.721352 0.209531
vt 0.704728 0.220421
vt 0.706088 0.244562
vt 0.618058 0.910767
vt 0.628715 0.911224
vt 0.627527 0.908588
vt 0.609382 0.907298
vt 0.602427 0.917446
vt 0.598107 0.911158
vt 0.590795 0.918602
vt 0.589256 0.911396
vt 0.579895 0.911945
vt 0.580517 0.907137
vt 0.618870 0.890978
vt 0.609906 0.894532
vt 0.628151 0.895859
vt 0.629683 0.891495
vt 0.603719 0.883773
vt 0.598940 0.889433
vt 0.592514 0.885090
vt 0.590366 0.889775
vt 0.580907 0.892232
vt 0.581169 0.894419
vt 0.539339 0.629833
vt 0.540737 0.667799
vt 0.553184 0.660441
vt 0.552362 0.638108
vt 0.526676 0.628159
vt 0.527587 0.666300
vt 0.509407 0.636068
vt 0.510001 0.658483
vt 0.497930 0.658826
vt 0.497157 0.636475
vt 0.715779 0.271450
vt 0.715779 0.271450
vt 0.603298 0.282396
vt 0.603298 0.282396
vt 0.705489 0.339429
vt 0.617419 0.339429
vt 0.617419 0.339429
vt 0.705489 0.339429
vt 0.715779 0.271450
vt 0.715779 0.271450
vt 0.603298 0.282396
vt 0.603298 0.282396
vt 0.705489 0.339429
vt 0.617419 0.339429
vt 0.617419 0.339429
vt 0.705489 0.339429
vt 0.729700 0.278308
vt 0.729700 0.278308
vt 0.591532 0.307313
vt 0.591532 0.307313
vt 0.700820 0.350767
vt 0.616780 0.356571
vt 0.616780 0.356571
vt 0.700820 0.350767
vt 0.729700 0.278308
vt 0.729700 0.278308
vt 0.591532 0.307313
vt 0.591532 0.307313
vt 0.700820 0.350767
vt 0.616780 0.356571
vt 0.616780 0.356571
vt 0.700820 0.350767
vt 0.541782 0.368227
vt 0.536749 0.380378
vt 0.524598 0.368227
vt 0.524598 0.385410
vt 0.512448 0.380378
vt 0.507415 0.368227
vt 0.512448 0.356076
vt 0.524598 0.351043
vt 0.536749 0.356076
vt 0.536749 0.380378
vt 0.541782 0.368227
vt 0.524598 0.385410
vt 0.512448 0.380378
vt 0.507415 0.368227
vt 0.512448 0.356076
vt 0.524598 0.351043
vt 0.536749 0.356076
vt 0.872173 0.140335
vt 0.880745 0.140133
vt 0.880629 0.176152
vt 0.889012 0.174349
vt 0.449454 0.930590
vt 0.449224 0.934602
vt 0.478491 0.951109
vt 0.477208 0.934733
vt 0.479609 0.951274
vt 0.910518 0.100918
vt 0.913849 0.099366
vt 0.913849 0.115630
vt 0.522094 0.920264
vt 0.449027 0.937956
vt 0.846243 0.137866
vt 0.854835 0.139222
vt 0.832920 0.172743
vt 0.494110 0.920133
vt 0.448830 0.941277
vt 0.863394 0.140525
vt 0.849001 0.177560
vt 0.522094 0.920264
vt 0.462246 0.951274
vt 0.872174 0.178865
vt 0.449652 0.927236
vt 0.477636 0.927400
vt 0.449849 0.923915
vt 0.883882 0.076701
vt 0.875494 0.075372
vt 0.493222 0.920133
vt 0.494110 0.920133
vt 0.899528 0.068728
vt 0.910518 0.181017
vt 0.895854 0.181017
vt 0.493222 0.920133
vt 0.849554 0.072953
vt 0.858345 0.072697
vt 0.866905 0.074000
vt 0.478951 0.920067
vt 0.478063 0.920034
vt 0.494110 0.920133
vt 0.895854 0.043031
vt 0.464910 0.950945
vt 0.478951 0.920067
vt 0.463364 0.951109
vt 0.476945 0.950945
vt 0.832921 0.037042
vt 0.841260 0.034247
vt 0.840762 0.073208
vt 0.849600 0.031452
vt 0.450079 0.919903
vt 0.472605 0.952918
vt 0.478951 0.920067
vt 0.873148 0.032970
vt 0.478063 0.920034
vt 0.493222 0.920133
vt 0.888564 0.038471
vt 0.921173 0.052169
vt 0.918492 0.054528
vt 0.897112 0.042300
vt 0.895854 0.045256
vt 0.502975 0.920837
vt 0.463249 0.944526
vt 0.503082 0.919047
vt 0.940374 0.083875
vt 0.910928 0.087751
vt 0.910518 0.083875
vt 0.463249 0.931090
vt 0.459084 0.940627
vt 0.923140 0.041636
vt 0.900019 0.034476
vt 0.901000 0.031452
vt 0.923129 0.045150
vt 0.899130 0.037102
vt 0.922576 0.048813
vt 0.898163 0.039714
vt 0.918516 0.058218
vt 0.923979 0.055781
vt 0.913254 0.055302
vt 0.469754 0.940627
vt 0.488104 0.917168
vt 0.925761 0.033515
vt 0.927824 0.041150
vt 0.921342 0.038224
vt 0.927548 0.046209
vt 0.926406 0.050822
vt 0.471137 0.934990
vt 0.469754 0.940627
vt 0.469754 0.940627
vt 0.923206 0.068728
vt 0.487891 0.920766
vt 0.459084 0.940627
vt 0.487997 0.918958
vt 0.487767 0.922928
vt 0.939758 0.036514
vt 0.936608 0.041627
vt 0.935804 0.046255
vt 0.935800 0.051314
vt 0.936985 0.058626
vt 0.943464 0.055294
vt 0.946841 0.058373
vt 0.946058 0.065198
vt 0.487076 0.926527
vt 0.463249 0.944526
vt 0.487182 0.924719
vt 0.941621 0.040659
vt 0.947139 0.037182
vt 0.939868 0.043035
vt 0.940334 0.046871
vt 0.941475 0.051008
vt 0.972322 0.041593
vt 0.973805 0.044728
vt 0.975549 0.048293
vt 0.469754 0.940627
vt 0.487288 0.922928
vt 0.939923 0.091626
vt 0.940333 0.095496
vt 0.910518 0.095496
vt 0.502745 0.924807
vt 0.463249 0.931090
vt 0.968134 0.031452
vt 0.969605 0.035185
vt 0.970920 0.038406
vt 0.541981 0.442713
vt 0.577659 0.446228
vt 0.543830 0.452429
vt 0.537685 0.429368
vt 0.599023 0.438836
vt 0.534959 0.423559
vt 0.537062 0.422087
vt 0.598348 0.433344
vt 0.539165 0.423559
vt 0.580476 0.440983
vt 0.541998 0.437351
vt 0.543909 0.447391
vt 0.588984 0.481063
vt 0.550867 0.487563
vt 0.614760 0.473219
vt 0.614612 0.468877
vt 0.592179 0.476983
vt 0.551181 0.483700
vt 0.588984 0.549273
vt 0.550867 0.542773
vt 0.614760 0.557117
vt 0.592179 0.547474
vt 0.614612 0.555581
vt 0.551181 0.540757
vt 0.577866 0.583960
vt 0.543830 0.577907
vt 0.598609 0.591796
vt 0.580690 0.583322
vt 0.597921 0.591420
vt 0.543909 0.577066
vt 0.538900 0.440100
vt 0.535000 0.426700
vt 0.538500 0.426700
vt 0.542277 0.587172
vt 0.537981 0.600517
vt 0.540600 0.449900
vt 0.536700 0.425300
vt 0.576100 0.442100
vt 0.539471 0.600433
vt 0.537368 0.601905
vt 0.542304 0.586642
vt 0.627674 0.907307
vt 0.629005 0.909874
vt 0.618339 0.910003
vt 0.609486 0.907017
vt 0.603099 0.917532
vt 0.598440 0.911491
vt 0.591548 0.919326
vt 0.589616 0.912215
vt 0.580299 0.913278
vt 0.580655 0.908444
vt 0.627598 0.894563
vt 0.609307 0.894241
vt 0.618061 0.890200
vt 0.628887 0.890121
vt 0.598077 0.889753
vt 0.602537 0.883838
vt 0.589534 0.890566
vt 0.591422 0.885770
vt 0.580607 0.895709
vt 0.580225 0.893539
vt 0.553313 0.660616
vt 0.540820 0.667962
vt 0.539507 0.629908
vt 0.552540 0.638231
vt 0.527645 0.666430
vt 0.526819 0.628201
vt 0.510037 0.658554
vt 0.509493 0.636088
vt 0.497938 0.658870
vt 0.497214 0.636468
vt 0.975658 0.711170
vt 0.912174 0.708404
vt 0.912174 0.799677
vt 0.975658 0.766487
vt 0.956013 0.874515
vt 0.912026 0.844801
vt 0.525863 0.085276
vt 0.537836 0.061332
vt 0.521993 0.119784
vt 0.518381 0.121194
vt 0.506408 0.100242
vt 0.479470 0.130173
vt 0.483960 0.107725
vt 0.461511 0.104732
vt 0.419608 0.136159
vt 0.439063 0.089766
vt 0.150229 0.055345
vt 0.150229 0.031401
vt 0.422601 0.032897
vt 0.422601 0.043373
vt 0.399671 0.712439
vt 0.434946 0.712439
vt 0.434946 0.756448
vt 0.399671 0.741045
vt 0.399671 0.782854
vt 0.399671 0.809783
vt 0.434946 0.803182
vt 0.413973 0.864794
vt 0.024709 0.132560
vt 0.057443 0.088269
vt 0.076898 0.107725
vt 0.106829 0.110718
vt 0.428587 0.071807
vt 0.144243 0.082283
vt 0.057443 0.176341
vt 0.090675 0.196412
vt 0.129277 0.100242
vt 0.181893 0.204202
vt 0.291531 0.204817
vt 0.323154 0.202286
vt 0.365099 0.182635
vt 0.414794 0.152704
vt 0.791910 0.907763
vt 0.779693 0.948153
vt 0.824635 0.942468
vt 0.853606 0.902079
vt 0.813692 0.708526
vt 0.813692 0.801624
vt 0.911932 0.356062
vt 0.975619 0.350194
vt 0.911932 0.354759
vt 0.975619 0.348891
vt 0.862120 0.821372
vt 0.824723 0.852404
vt 0.911932 0.344336
vt 0.975619 0.338468
vt 0.041566 0.551233
vt 0.077462 0.554718
vt 0.078702 0.631278
vt 0.059831 0.605467
vt 0.911932 0.327398
vt 0.975619 0.321530
vt 0.108145 0.554718
vt 0.108407 0.631174
vt 0.911932 0.307854
vt 0.975619 0.301986
vt 0.911932 0.282443
vt 0.975619 0.282443
vt 0.133375 0.553426
vt 0.144953 0.631875
vt 0.911932 0.262899
vt 0.975619 0.262899
vt 0.913325 0.339449
vt 0.913325 0.346160
vt 0.978923 0.339449
vt 0.978923 0.339449
vt 0.840386 0.381172
vt 0.838610 0.666403
vt 0.919812 0.674960
vt 0.924024 0.372615
vt 0.911932 0.241856
vt 0.911932 0.248567
vt 0.975619 0.248567
vt 0.975619 0.248567
vt 0.787979 0.915345
vt 0.796511 0.933016
vt 0.860058 0.933016
vt 0.839824 0.922924
vt 0.913325 0.246942
vt 0.913325 0.249548
vt 0.978923 0.249548
vt 0.978923 0.246942
vt 0.309285 0.741934
vt 0.309285 0.712756
vt 0.309285 0.784579
vt 0.309285 0.811728
vt 0.913325 0.258668
vt 0.978923 0.258668
vt 0.304403 0.867840
vt 0.913325 0.275606
vt 0.978923 0.275606
vt 0.297097 0.932929
vt 0.396647 0.928607
vt 0.911932 0.253779
vt 0.975619 0.253779
vt 0.913325 0.334237
vt 0.978923 0.334237
vt 0.913325 0.301665
vt 0.978923 0.301665
vt 0.288195 0.962107
vt 0.375537 0.957213
vt 0.450385 0.551158
vt 0.558304 0.551158
vt 0.552150 0.600761
vt 0.447375 0.600761
vt 0.913325 0.321208
vt 0.978923 0.321208
vt 0.320518 0.551158
vt 0.321290 0.600761
vt 0.283935 0.548171
vt 0.285773 0.593679
vt 0.215597 0.548836
vt 0.233215 0.545720
vt 0.247798 0.584620
vt 0.217657 0.598093
vt 0.172626 0.555963
vt 0.180818 0.619201
vt 0.149396 0.564176
vt 0.169655 0.628386
vt 0.508106 0.711170
vt 0.571591 0.799677
vt 0.571591 0.708404
vt 0.508106 0.766487
vt 0.527752 0.874515
vt 0.571738 0.844801
vt 0.018964 0.276222
vt 0.022854 0.310907
vt 0.006930 0.252154
vt 0.026485 0.312324
vt 0.038519 0.291264
vt 0.065595 0.321349
vt 0.061083 0.298786
vt 0.083646 0.295777
vt 0.125765 0.327366
vt 0.106210 0.280735
vt 0.396528 0.246137
vt 0.122757 0.223574
vt 0.396528 0.222069
vt 0.122757 0.234103
vt 0.087086 0.712439
vt 0.051811 0.756448
vt 0.051811 0.712439
vt 0.087086 0.741045
vt 0.087086 0.782854
vt 0.087086 0.809783
vt 0.051811 0.803182
vt 0.074250 0.864794
vt 0.524516 0.321349
vt 0.469928 0.298478
vt 0.489483 0.278923
vt 0.488253 0.364972
vt 0.116739 0.262684
vt 0.402545 0.273214
vt 0.439843 0.301486
vt 0.454852 0.383912
vt 0.367216 0.391926
vt 0.417587 0.291264
vt 0.261147 0.392048
vt 0.223494 0.389772
vt 0.182635 0.371477
vt 0.131774 0.340904
vt 0.701936 0.907763
vt 0.669211 0.942468
vt 0.714153 0.948153
vt 0.640240 0.902078
vt 0.670073 0.708526
vt 0.670073 0.801624
vt 0.819055 0.354759
vt 0.755368 0.350194
vt 0.819055 0.356062
vt 0.755368 0.348891
vt 0.621644 0.821372
vt 0.659042 0.852404
vt 0.819055 0.344336
vt 0.755368 0.338468
vt 0.041566 0.482793
vt 0.078702 0.402748
vt 0.077462 0.479308
vt 0.059831 0.428559
vt 0.819055 0.327398
vt 0.755368 0.321530
vt 0.108407 0.400411
vt 0.108145 0.479308
vt 0.819055 0.307854
vt 0.755368 0.301986
vt 0.819055 0.282443
vt 0.755368 0.282443
vt 0.144953 0.399221
vt 0.133375 0.477670
vt 0.819055 0.262899
vt 0.755368 0.262899
vt 0.817662 0.339449
vt 0.752064 0.339449
vt 0.817662 0.346160
vt 0.752064 0.339449
vt 0.718413 0.381172
vt 0.638987 0.674960
vt 0.720190 0.666403
vt 0.634775 0.372615
vt 0.819055 0.241856
vt 0.755368 0.248567
vt 0.819055 0.248567
vt 0.755368 0.248567
vt 0.712371 0.915345
vt 0.640291 0.933016
vt 0.703838 0.933016
vt 0.660525 0.922924
vt 0.817662 0.246942
vt 0.752064 0.249548
vt 0.817662 0.249548
vt 0.752064 0.246942
vt 0.177472 0.741934
vt 0.177472 0.712756
vt 0.177472 0.784579
vt 0.177472 0.811728
vt 0.752064 0.258668
vt 0.817662 0.258668
vt 0.182354 0.867840
vt 0.752064 0.275606
vt 0.817662 0.275606
vt 0.189660 0.932929
vt 0.091576 0.928607
vt 0.755368 0.253779
vt 0.819055 0.253779
vt 0.817662 0.334237
vt 0.752064 0.334237
vt 0.752064 0.301665
vt 0.817662 0.301665
vt 0.198562 0.962107
vt 0.112686 0.957213
vt 0.450385 0.478821
vt 0.552150 0.429218
vt 0.558304 0.478821
vt 0.447375 0.429218
vt 0.752064 0.321208
vt 0.817662 0.321208
vt 0.320518 0.478821
vt 0.321290 0.429218
vt 0.283935 0.481807
vt 0.285773 0.436300
vt 0.215597 0.485876
vt 0.246568 0.448862
vt 0.233215 0.488992
vt 0.217657 0.436619
vt 0.172626 0.478749
vt 0.180818 0.415511
vt 0.149396 0.470536
vt 0.169655 0.406326
vt 0.161500 0.518700
vt 0.229500 0.518700
vt 0.161500 0.493100
vt 0.981815 0.080092
vt 0.910532 0.076345
vt 0.910518 0.068728
vt 0.981719 0.083683
vt 0.910553 0.083875
vt 0.161500 0.527200
vt 0.229500 0.527200
vt 0.161500 0.501700
vt 0.982739 0.082930
vt 0.989265 0.083185
vt 0.989238 0.083875
vt 0.982958 0.082263
vt 0.989292 0.082494
vt 0.982979 0.081626
vt 0.989314 0.081804
vt 0.982803 0.080939
vt 0.989333 0.081113
vt 0.982352 0.081223
vt 0.982737 0.081379
vt 0.981993 0.082388
vt 0.982573 0.082587
vt 0.982825 0.082231
vt 0.982870 0.081788
vt 0.982750 0.081830
vt 0.982667 0.081840
vt 0.490624 0.933648
vt 0.474347 0.951767
vt 0.490526 0.936936
vt 0.457314 0.951767
vt 0.490756 0.930327
vt 0.474347 0.968800
vt 0.982706 0.082104
vt 0.982773 0.082038
vt 0.982789 0.081923
vt 0.982777 0.081924
vt 0.982763 0.081934
vt 0.982763 0.081990
vt 0.982619 0.082034
vt 0.982770 0.082021
vt 0.982782 0.082004
vt 0.982786 0.081959
vt 0.985663 0.082555
vt 0.985740 0.082516
vt 0.477997 0.933188
vt 0.454716 0.932366
vt 0.454617 0.935654
vt 0.939964 0.087751
vt 0.940374 0.091626
vt 0.910518 0.091626
vt 0.478129 0.929899
vt 0.454847 0.929077
vt 0.491480 0.930360
vt 0.939923 0.095496
vt 0.940333 0.099366
vt 0.910518 0.099366
vt 0.478260 0.925953
vt 0.454979 0.925131
vt 0.985591 0.082615
vt 0.985582 0.082592
vt 0.985611 0.082577
vn -0.0000 0.0513 0.9987
vn -0.0044 0.0513 0.9987
vn -0.0045 0.0513 0.9987
vn 0.0030 0.0523 0.9986
vn 0.0007 0.0513 0.9987
vn 0.2090 0.0210 0.9777
vn 0.2100 0.0263 0.9773
vn 0.2087 0.0192 0.9778
vn 0.0044 0.0512 0.9987
vn 0.0044 0.0513 0.9987
vn -0.9019 0.1775 -0.3937
vn -0.0734 0.1543 0.9853
vn -0.7987 0.6017 -0.0001
vn -0.0036 -1.0000 0.0000
vn -0.0860 0.2178 0.9722
vn 0.8283 -0.1724 0.5331
vn 0.9020 0.1772 -0.3937
vn 0.1829 -0.9831 0.0001
vn 0.7988 0.6016 0.0000
vn 0.0732 0.1543 0.9853
vn -0.0067 0.2120 0.9772
vn -0.1407 0.2230 0.9646
vn -0.8069 0.5907 -0.0001
vn 0.8070 0.5906 0.0000
vn -0.4214 0.6200 0.6618
vn -0.7737 0.6168 0.1444
vn -0.9673 -0.2337 -0.0982
vn -0.7547 -0.1395 0.6411
vn -0.0006 -0.2100 0.9777
vn -0.0003 0.7487 0.6629
vn -0.0001 0.9661 0.2583
vn -0.5200 0.7812 -0.3454
vn 0.0001 0.9684 -0.2494
vn 0.0004 0.2100 -0.9777
vn -0.6847 0.0507 -0.7270
vn 0.4262 0.6195 0.6592
vn 0.7588 -0.1385 0.6364
vn 0.9222 -0.3563 -0.1501
vn 0.8271 0.5526 0.1028
vn 0.5091 0.7852 -0.3525
vn 0.6764 0.0528 -0.7347
vn -0.4228 -0.8429 0.3327
vn -0.5449 -0.8021 -0.2444
vn 0.0001 -0.9650 -0.2621
vn -0.0002 -0.9617 0.2740
vn -0.3927 -0.5999 -0.6970
vn 0.0002 -0.7297 -0.6838
vn 0.4282 -0.8418 0.3286
vn 0.4712 -0.8423 -0.2618
vn 0.3847 -0.6012 -0.7004
vn -0.4477 0.6573 0.6062
vn -0.5132 0.8330 0.2068
vn -0.9976 -0.0139 0.0683
vn -0.6946 -0.1434 0.7050
vn -0.0010 -0.1988 0.9800
vn -0.0006 0.7522 0.6589
vn -0.0010 0.9796 0.2011
vn -0.4605 0.8499 -0.2560
vn 0.0049 0.9786 -0.2055
vn 0.0003 0.1987 -0.9801
vn -0.7363 0.1344 -0.6631
vn 0.4453 0.6527 0.6129
vn 0.6875 -0.1449 0.7116
vn 0.9960 -0.0179 0.0872
vn 0.4098 0.8868 0.2135
vn 0.5520 0.7568 -0.3500
vn 0.7432 0.1328 -0.6557
vn -0.4478 -0.8418 0.3014
vn -0.5130 -0.8477 -0.1352
vn -0.0009 -0.9803 -0.1977
vn -0.0003 -0.9498 0.3129
vn -0.4602 -0.6827 -0.5676
vn 0.0049 -0.8208 -0.5712
vn 0.4455 -0.8401 0.3094
vn 0.4097 -0.8998 -0.1499
vn 0.5518 -0.5604 -0.6176
vn -0.4991 0.5241 0.6901
vn -0.4855 0.8506 0.2019
vn -0.9966 -0.0166 0.0812
vn -0.6565 -0.1509 0.7391
vn 0.0000 -0.1993 0.9799
vn -0.0001 0.6251 0.7806
vn 0.0021 0.9791 0.2034
vn -0.6145 0.6223 -0.4849
vn -0.0096 0.9431 -0.3323
vn -0.0000 0.1992 -0.9800
vn -0.7123 0.1404 -0.6877
vn 0.5014 0.5274 0.6859
vn 0.6615 -0.1500 0.7348
vn 0.9976 -0.0140 0.0684
vn 0.6070 0.7688 0.2011
vn 0.5228 0.7659 -0.3743
vn 0.7077 0.1413 -0.6922
vn -0.4990 -0.7522 0.4304
vn -0.4853 -0.8620 -0.1465
vn 0.0021 -0.9807 -0.1953
vn 0.0000 -0.8800 0.4750
vn -0.6132 -0.3832 -0.6907
vn -0.0095 -0.7384 -0.6743
vn 0.5014 -0.7535 0.4253
vn 0.6070 -0.7863 -0.1151
vn 0.5226 -0.5587 -0.6440
vn -0.5108 0.5148 0.6885
vn -0.5089 0.8352 0.2085
vn -0.9951 -0.0217 0.0962
vn -0.6464 -0.1521 0.7477
vn 0.0093 -0.1998 0.9798
vn -0.0296 0.6233 0.7814
vn -0.0443 0.9773 0.2070
vn -0.6307 0.6162 -0.4718
vn -0.0404 0.9712 -0.2347
vn -0.0082 0.1992 -0.9799
vn -0.7190 0.1385 -0.6811
vn 0.4822 0.5314 0.6965
vn 0.6592 -0.1490 0.7370
vn 0.9965 -0.0145 0.0824
vn 0.4590 0.8648 0.2037
vn 0.5987 0.6325 -0.4915
vn 0.7082 0.1416 -0.6916
vn -0.4716 -0.7636 0.4410
vn -0.4586 -0.8770 -0.1434
vn 0.0444 -0.9804 -0.1917
vn 0.0417 -0.8793 0.4745
vn -0.6084 -0.3912 -0.6906
vn 0.0343 -0.8025 -0.5957
vn 0.5207 -0.7407 0.4246
vn 0.5095 -0.8487 -0.1419
vn 0.6213 -0.3815 -0.6844
vn -0.4474 0.6492 0.6151
vn -0.4126 0.8844 0.2181
vn -0.9949 -0.0202 0.0985
vn -0.6870 -0.1457 0.7119
vn 0.0000 -0.1989 0.9800
vn -0.0001 0.7523 0.6588
vn -0.0000 0.9793 0.2026
vn -0.5565 0.7554 -0.3461
vn 0.0009 0.9910 -0.1335
vn -0.0000 0.1988 -0.9800
vn -0.7481 0.1325 -0.6502
vn 0.4485 0.6506 0.6128
vn 0.6893 -0.1452 0.7098
vn 0.9957 -0.0186 0.0910
vn 0.4135 0.8848 0.2150
vn 0.5555 0.7546 -0.3493
vn 0.7455 0.1331 -0.6531
vn -0.4473 -0.8380 0.3125
vn -0.4124 -0.8994 -0.1447
vn -0.0000 -0.9806 -0.1961
vn 0.0000 -0.9498 0.3129
vn -0.5564 -0.5603 -0.6136
vn 0.0000 -0.8603 -0.5098
vn 0.4484 -0.8384 0.3098
vn 0.4132 -0.8986 -0.1477
vn 0.5555 -0.5583 -0.6163
vn 0.2958 -0.0904 -0.9510
vn -0.3576 -0.2206 -0.9074
vn -0.1879 -0.0611 -0.9803
vn 0.3786 -0.2078 -0.9019
vn -0.3034 -0.3055 -0.9026
vn 0.3088 -0.2934 -0.9047
vn 0.1879 -0.0127 -0.9821
vn -0.1902 -0.0007 -0.9818
vn -0.7136 -0.2065 -0.6694
vn -0.7723 -0.2533 -0.5826
vn 0.7294 -0.2319 -0.6436
vn 0.6820 -0.2171 -0.6984
vn -0.8347 -0.4539 -0.3119
vn -0.8347 -0.4578 -0.3061
vn -0.8705 -0.4734 -0.1348
vn -0.9517 0.1275 -0.2794
vn -0.5617 0.7119 -0.4216
vn -0.6141 0.4262 -0.6643
vn -0.4606 0.1696 -0.8712
vn -0.5718 0.0390 -0.8195
vn -0.5235 -0.0444 -0.8509
vn -0.3284 -0.2254 -0.9172
vn -0.5299 -0.2160 -0.8201
vn -0.0666 0.6534 -0.7541
vn -0.0806 0.9368 -0.3406
vn -0.0507 0.2869 -0.9566
vn -0.0428 0.0403 -0.9983
vn -0.0428 -0.0483 -0.9979
vn -0.0448 -0.2424 -0.9692
vn -0.0423 -0.4099 -0.9111
vn -0.0503 -0.4092 -0.9110
vn -0.1795 -0.4727 -0.8628
vn -0.0615 -0.2529 -0.9655
vn -0.3834 -0.2709 -0.8829
vn 0.6141 0.4262 -0.6643
vn 0.5796 0.5829 -0.5695
vn 0.5149 -0.3793 -0.7688
vn 0.4606 0.1696 -0.8712
vn 0.5718 0.0390 -0.8195
vn 0.5235 -0.0444 -0.8509
vn 0.3284 -0.2254 -0.9172
vn 0.5334 -0.2139 -0.8184
vn 0.5577 -0.2590 -0.7886
vn 0.0666 0.6534 -0.7541
vn 0.0795 0.7935 -0.6034
vn 0.0507 0.2869 -0.9566
vn 0.0428 0.0403 -0.9983
vn 0.0428 -0.0483 -0.9979
vn 0.0448 -0.2424 -0.9692
vn 0.0423 -0.4099 -0.9111
vn 0.0503 -0.4092 -0.9110
vn 0.0615 -0.2529 -0.9655
vn -0.2958 0.0904 0.9510
vn 0.1879 0.0611 0.9803
vn 0.3576 0.2206 0.9074
vn -0.3786 0.2078 0.9019
vn 0.3715 0.9208 0.1186
vn -0.3817 0.9166 0.1192
vn -0.1879 0.0127 0.9821
vn 0.1902 0.0007 0.9818
vn 0.7136 0.2065 0.6694
vn 0.8340 0.5202 0.1839
vn -0.8168 0.5154 0.2593
vn -0.6820 0.2171 0.6984
vn 0.9713 -0.2085 -0.1142
vn -0.0000 0.8242 0.5663
vn -0.0154 -0.5496 0.8353
vn -0.9713 -0.2085 -0.1142
vn 0.9115 -0.4080 -0.0521
vn -0.0000 0.9618 0.2738
vn 0.0007 -0.2312 0.9729
vn -0.9115 -0.4081 -0.0521
vn 0.3699 -0.5998 0.7095
vn 0.1259 -0.7293 0.6725
vn 0.1684 0.7504 0.6392
vn 0.1382 0.8831 0.4483
vn 0.6301 -0.3360 0.7001
vn 0.0203 0.8533 0.5210
vn 0.3191 -0.3767 0.8696
vn -0.3063 0.7436 0.5944
vn -0.2345 -0.7173 0.6562
vn -0.7214 0.4232 0.5482
vn -0.0985 -0.4948 -0.8634
vn -0.1822 0.9037 -0.3875
vn -0.2007 0.8501 -0.4869
vn -0.2938 -0.5929 -0.7498
vn -0.0275 -0.3424 -0.9392
vn -0.4152 0.7878 -0.4549
vn -0.1962 -0.5697 -0.7981
vn -0.6981 0.6082 -0.3778
vn -0.5278 -0.8077 -0.2627
vn -0.9276 0.3603 -0.0989
vn -0.6434 -0.0699 -0.7624
vn 0.6434 -0.0699 -0.7624
vn 0.6667 -0.0680 -0.7422
vn -0.6667 -0.0680 -0.7422
vn -1.0000 -0.0000 0.0000
vn 1.0000 0.0000 0.0000
vn -0.5275 -0.1648 -0.8334
vn 0.5275 -0.1648 -0.8334
vn 0.6280 -0.1510 -0.7634
vn -0.6280 -0.1510 -0.7634
vn 0.4605 -0.8877 -0.0000
vn 0.3256 -0.8877 0.3256
vn 0.0000 -1.0000 0.0000
vn -0.0000 -0.8877 0.4604
vn -0.3256 -0.8877 0.3256
vn -0.4605 -0.8877 -0.0000
vn -0.3256 -0.8877 -0.3256
vn -0.0000 -0.8877 -0.4604
vn 0.3256 -0.8877 -0.3256
vn 0.7071 0.0000 0.7071
vn -0.0000 -0.0000 1.0000
vn -0.7071 0.0000 0.7071
vn -0.7071 0.0000 -0.7071
vn -0.0000 0.0000 -1.0000
vn 0.7071 0.0000 -0.7071
vn 0.9978 -0.0126 -0.0647
vn 0.5324 0.1776 0.8276
vn 1.0000 -0.0012 -0.0062
vn 0.5042 0.3560 0.7868
vn -0.5320 0.1786 0.8277
vn -0.5034 0.3549 0.7878
vn -0.9978 -0.0131 -0.0655
vn -1.0000 -0.0020 -0.0078
vn -0.4744 -0.1815 -0.8614
vn -0.4980 -0.3487 -0.7940
vn 0.4740 -0.1810 -0.8617
vn 0.4973 -0.3500 -0.7938
vn 0.5301 -0.1680 0.8311
vn 0.9980 0.0108 -0.0624
vn -0.5303 -0.1675 0.8311
vn -0.9980 0.0106 -0.0620
vn -0.4751 0.1736 -0.8626
vn 0.4753 0.1739 -0.8625
vn 0.9984 0.0216 -0.0531
vn 0.5229 -0.3320 0.7851
vn -0.5233 -0.3325 0.7846
vn -0.9984 0.0214 -0.0524
vn -0.4733 0.3401 -0.8126
vn 0.4736 0.3396 -0.8127
vn -0.7673 -0.6413 -0.0000
vn -0.7533 -0.3185 0.5754
vn 0.0000 -0.4886 0.8725
vn -0.7533 0.3185 0.5754
vn 0.0000 0.4886 0.8725
vn -0.7673 0.6413 -0.0000
vn 0.0000 1.0000 0.0000
vn -0.7533 0.3185 -0.5754
vn 0.0000 0.4886 -0.8725
vn -0.7533 -0.3185 -0.5754
vn 0.0000 -0.4886 -0.8725
vn -0.5531 -0.4078 0.7265
vn -0.5508 -0.8347 -0.0000
vn -0.5531 0.4078 0.7265
vn -0.5508 0.8347 0.0000
vn -0.5531 0.4078 -0.7265
vn -0.5531 -0.4078 -0.7265
vn 0.5508 -0.8347 0.0000
vn 0.5531 -0.4078 0.7265
vn 0.5531 0.4078 0.7265
vn 0.5508 0.8347 -0.0000
vn 0.5531 0.4078 -0.7265
vn 0.5531 -0.4078 -0.7265
vn 0.7673 -0.6413 0.0000
vn 0.7533 -0.3185 0.5754
vn 0.7533 0.3185 0.5754
vn 0.7673 0.6413 -0.0000
vn 0.7533 0.3185 -0.5754
vn 0.7533 -0.3185 -0.5754
vn 0.0827 0.1477 0.9856
vn -0.0988 0.0429 0.9942
vn 0.0094 0.1401 0.9901
vn -0.5398 -0.0010 0.8418
vn -0.6932 -0.7159 0.0834
vn -0.9736 -0.1510 0.1712
vn -0.7192 -0.1869 -0.6692
vn -0.1092 -0.1680 -0.9797
vn 0.0777 -0.0554 -0.9954
vn 0.0082 -0.0618 -0.9981
vn -0.0096 0.0403 0.9991
vn 0.0038 0.1376 0.9905
vn -0.2024 -0.9734 0.1078
vn -0.0106 -0.1732 -0.9848
vn 0.0049 -0.0646 -0.9979
vn 0.0091 0.0399 0.9992
vn -0.0050 0.1385 0.9904
vn 0.2026 -0.9733 0.1079
vn 0.0107 -0.1726 -0.9849
vn -0.0036 -0.0655 -0.9978
vn 0.0993 0.0421 0.9942
vn -0.0080 0.1413 0.9899
vn 0.7010 -0.7083 0.0829
vn 0.1078 -0.1679 -0.9799
vn -0.0085 -0.0632 -0.9980
vn -0.0813 0.1471 0.9858
vn 0.5388 0.0047 0.8424
vn 0.9757 -0.1422 0.1667
vn 0.7159 -0.1797 -0.6746
vn -0.0764 -0.0560 -0.9955
vn -0.1684 0.7504 0.6392
vn -0.1259 -0.7293 0.6725
vn -0.3699 -0.5998 0.7095
vn -0.1382 0.8831 0.4483
vn -0.6301 -0.3360 0.7001
vn -0.0203 0.8533 0.5210
vn -0.3192 -0.3767 0.8696
vn 0.3063 0.7436 0.5944
vn 0.2345 -0.7173 0.6562
vn 0.7214 0.4232 0.5482
vn 0.2007 0.8501 -0.4869
vn 0.1822 0.9037 -0.3875
vn 0.0985 -0.4948 -0.8634
vn 0.2938 -0.5929 -0.7498
vn 0.4153 0.7878 -0.4549
vn 0.0275 -0.3424 -0.9392
vn 0.6981 0.6082 -0.3778
vn 0.1962 -0.5697 -0.7981
vn 0.9276 0.3603 -0.0989
vn 0.5278 -0.8077 -0.2627
vn 0.7214 -0.4128 -0.5560
vn 0.4106 0.6517 -0.6377
vn 0.5314 0.8025 0.2714
vn 0.9060 -0.4114 -0.0993
vn 0.5482 0.4632 0.6964
vn 0.3704 0.5258 0.7657
vn 0.9143 -0.2088 -0.3469
vn 0.5970 0.2929 0.7469
vn 0.8511 -0.2448 -0.4645
vn 0.5773 0.0886 0.8117
vn 0.8802 -0.0163 -0.4744
vn 0.8747 0.1849 -0.4479
vn 0.7233 0.1348 0.6773
vn 0.8741 0.3315 -0.3552
vn 0.7383 -0.6700 -0.0773
vn 0.5452 -0.5700 -0.6147
vn 0.5135 0.6087 -0.6048
vn 0.7089 0.6980 -0.1019
vn 0.2886 -0.5588 -0.7775
vn 0.8230 0.1488 -0.5481
vn 0.9375 0.2735 -0.2152
vn 0.4643 -0.8419 -0.2750
vn 0.4792 -0.8124 0.3322
vn 0.5904 -0.6924 0.4148
vn 0.9202 0.2832 -0.2703
vn 0.5617 -0.7119 0.4216
vn 0.9611 0.2321 -0.1497
vn 0.9524 -0.2416 -0.1860
vn 0.7768 0.6114 -0.1506
vn 0.7854 -0.5590 -0.2659
vn 0.6141 -0.4262 0.6643
vn 0.4606 -0.1696 0.8712
vn 0.7952 -0.3690 -0.4811
vn 0.5718 -0.0390 0.8195
vn 0.5235 0.0444 0.8509
vn 0.3284 0.2254 0.9172
vn 0.5334 0.2139 0.8184
vn 0.5577 0.2590 0.7886
vn -0.0346 -0.6880 -0.7249
vn 0.0474 0.7098 -0.7028
vn 0.0427 0.9811 0.1888
vn -0.0479 -0.9640 -0.2615
vn 0.1463 0.8249 0.5461
vn 0.0362 0.4514 0.8916
vn -0.0416 -0.7616 -0.6467
vn 0.0293 0.2737 0.9614
vn -0.0307 -0.4586 -0.8881
vn 0.0309 0.1740 0.9843
vn -0.0163 -0.1114 -0.9936
vn -0.0083 0.3285 -0.9445
vn 0.0615 0.2529 0.9655
vn -0.0067 0.7145 -0.6996
vn -0.0308 -0.9463 -0.3218
vn -0.0783 -0.5125 -0.8551
vn -0.0350 0.1523 -0.9877
vn -0.0020 0.7245 -0.6893
vn 0.0423 -0.5495 -0.8345
vn -0.0015 0.6700 -0.7423
vn -0.0021 0.9574 -0.2886
vn 0.0721 -0.9519 -0.2979
vn 0.0740 -0.9331 0.3520
vn 0.0763 -0.8845 0.4602
vn -0.0057 0.7998 -0.6003
vn 0.0806 -0.9368 0.3406
vn -0.0099 0.4164 -0.9091
vn 0.0666 -0.6534 0.7541
vn -0.0028 0.9280 -0.3725
vn -0.0030 -0.8906 -0.4548
vn -0.0105 -0.1614 -0.9868
vn 0.0507 -0.2869 0.9566
vn 0.0428 -0.0403 0.9983
vn -0.0072 -0.5953 -0.8035
vn 0.0428 0.0483 0.9979
vn 0.0448 0.2424 0.9692
vn 0.0423 0.4099 0.9111
vn 0.0503 0.4092 0.9110
vn -0.7214 -0.4128 -0.5560
vn -0.5314 0.8025 0.2714
vn -0.4106 0.6517 -0.6377
vn -0.9060 -0.4114 -0.0993
vn -0.5482 0.4632 0.6964
vn -0.3704 0.5258 0.7657
vn -0.9143 -0.2088 -0.3469
vn -0.5970 0.2929 0.7469
vn -0.8511 -0.2448 -0.4645
vn -0.5773 0.0886 0.8117
vn -0.8802 -0.0163 -0.4744
vn -0.8747 0.1849 -0.4479
vn -0.7233 0.1348 0.6773
vn -0.8741 0.3315 -0.3552
vn -0.7383 -0.6700 -0.0773
vn -0.5135 0.6087 -0.6048
vn -0.5452 -0.5700 -0.6147
vn -0.7089 0.6980 -0.1019
vn -0.2886 -0.5588 -0.7775
vn -0.9375 0.2735 -0.2152
vn -0.8230 0.1488 -0.5481
vn -0.4643 -0.8419 -0.2750
vn -0.4792 -0.8124 0.3322
vn -0.5904 -0.6924 0.4148
vn -0.9202 0.2832 -0.2703
vn -0.5617 -0.7119 0.4216
vn -0.9611 0.2321 -0.1497
vn -0.6141 -0.4262 0.6643
vn -0.7768 0.6114 -0.1506
vn -0.7854 -0.5590 -0.2659
vn -0.9524 -0.2416 -0.1860
vn -0.4606 -0.1696 0.8712
vn -0.5718 -0.0390 0.8195
vn -0.7952 -0.3690 -0.4811
vn -0.5235 0.0444 0.8509
vn -0.3284 0.2254 0.9172
vn -0.5334 0.2139 0.8184
vn -0.5577 0.2590 0.7886
vn 0.0346 -0.6880 -0.7249
vn -0.0474 0.7098 -0.7028
vn -0.0427 0.9811 0.1888
vn 0.0479 -0.9640 -0.2615
vn -0.1463 0.8249 0.5461
vn -0.0362 0.4514 0.8916
vn 0.0416 -0.7616 -0.6467
vn -0.0293 0.2737 0.9614
vn 0.0307 -0.4586 -0.8881
vn -0.0309 0.1740 0.9843
vn 0.0163 -0.1114 -0.9936
vn 0.0083 0.3285 -0.9445
vn -0.0615 0.2529 0.9655
vn 0.0067 0.7145 -0.6996
vn 0.0308 -0.9463 -0.3218
vn 0.0783 -0.5125 -0.8551
vn 0.0350 0.1523 -0.9877
vn 0.0020 0.7245 -0.6893
vn -0.0423 -0.5495 -0.8345
vn 0.0015 0.6700 -0.7423
vn 0.0021 0.9574 -0.2886
vn -0.0721 -0.9519 -0.2979
vn -0.0740 -0.9331 0.3520
vn -0.0763 -0.8845 0.4602
vn 0.0057 0.7998 -0.6003
vn -0.0806 -0.9368 0.3406
vn 0.0099 0.4164 -0.9091
vn -0.0666 -0.6534 0.7541
vn 0.0028 0.9280 -0.3725
vn 0.0030 -0.8906 -0.4548
vn 0.0105 -0.1614 -0.9868
vn -0.0507 -0.2869 0.9566
vn -0.0428 -0.0403 0.9983
vn 0.0072 -0.5953 -0.8035
vn -0.0428 0.0483 0.9979
vn -0.0448 0.2424 0.9692
vn -0.0423 0.4099 0.9111
vn -0.0503 0.4092 0.9110
usemtl Inside.006
s off
f 1/1/1 2/2/1 3/3/1
f 2/2/2 4/4/3 3/3/3
f 4/4/4 5/5/4 3/3/4
f 3/3/1 6/6/5 1/1/1
f 6/6/6 7/7/7 8/8/8
f 1/1/9 6/6/9 8/8/10
s 1
f 9/9/11 10/10/12 11/11/13
f 12/12/14 13/13/15 9/14/11
f 14/15/16 13/13/15 12/12/14
f 15/16/17 14/15/16 16/17/18
f 17/18/19 18/19/20 15/20/17
f 10/21/12 9/22/11 13/23/15
f 19/24/21 20/25/22 13/23/15
f 18/26/20 19/24/21 14/27/16
f 9/9/11 11/11/13 21/28/23
f 12/12/14 9/14/11 21/29/23
f 14/15/16 12/12/14 16/17/18
f 15/16/17 16/17/18 22/30/24
f 17/18/19 15/20/17 22/31/24
f 10/21/12 13/23/15 20/25/22
f 19/24/21 13/23/15 14/27/16
f 18/26/20 14/27/16 15/32/17
f 23/33/25 24/34/26 25/35/27
f 23/36/25 26/37/28 27/38/29
f 23/36/25 28/39/30 29/40/31
f 30/41/32 31/42/33 32/43/34
f 30/44/32 33/45/35 25/35/27
f 30/41/32 24/34/26 29/40/31
f 34/46/36 28/47/30 27/38/29
f 34/48/36 35/49/37 36/50/38
f 34/51/36 37/52/39 29/40/31
f 38/53/40 37/54/39 36/50/38
f 38/55/40 39/56/41 32/43/34
f 38/57/40 31/58/33 29/40/31
f 40/59/42 26/60/28 25/35/27
f 40/61/42 41/62/43 42/63/44
f 40/64/42 43/65/45 27/38/29
f 44/66/46 33/67/35 32/43/34
f 44/68/46 45/69/47 42/63/44
f 44/70/46 41/71/43 25/35/27
f 46/72/48 35/73/37 27/38/29
f 46/72/48 43/74/45 42/63/44
f 46/75/48 47/76/49 36/50/38
f 48/77/50 45/78/47 32/43/34
f 48/79/50 39/80/41 36/50/38
f 48/77/50 47/76/49 42/63/44
f 49/81/51 50/82/52 51/83/53
f 49/84/51 52/85/54 53/86/55
f 49/84/51 54/87/56 55/88/57
f 56/89/58 57/90/59 58/91/60
f 56/92/58 59/93/61 51/83/53
f 56/89/58 50/82/52 55/88/57
f 60/94/62 54/95/56 53/86/55
f 60/96/62 61/97/63 62/98/64
f 60/99/62 63/100/65 55/88/57
f 64/101/66 63/102/65 62/98/64
f 64/103/66 65/104/67 58/91/60
f 63/100/65 64/105/66 57/106/59
f 66/107/68 52/108/54 51/83/53
f 66/109/68 67/110/69 68/111/70
f 66/112/68 69/113/71 53/86/55
f 70/114/72 59/115/61 58/91/60
f 70/116/72 71/117/73 68/111/70
f 70/118/72 67/119/69 51/83/53
f 72/120/74 61/121/63 53/86/55
f 72/120/74 69/122/71 68/111/70
f 72/123/74 73/124/75 62/98/64
f 74/125/76 71/126/73 58/91/60
f 74/127/76 65/128/67 62/98/64
f 71/117/73 74/125/76 73/124/75
f 75/129/77 76/130/78 77/131/79
f 75/132/77 78/133/80 79/134/81
f 75/132/77 80/135/82 81/136/83
f 82/137/84 83/138/85 84/139/86
f 82/140/84 85/141/87 77/131/79
f 83/142/85 82/137/84 76/130/78
f 86/143/88 80/144/82 79/134/81
f 86/145/88 87/146/89 88/147/90
f 86/148/88 89/149/91 81/136/83
f 90/150/92 89/151/91 88/147/90
f 90/152/92 91/153/93 84/139/86
f 90/154/92 83/142/85 81/136/83
f 92/155/94 78/156/80 77/131/79
f 92/157/94 93/158/95 94/159/96
f 92/160/94 95/161/97 79/134/81
f 96/162/98 85/163/87 84/139/86
f 93/158/95 96/164/98 97/165/99
f 96/166/98 93/167/95 77/131/79
f 98/168/100 87/169/89 79/134/81
f 98/168/100 95/170/97 94/159/96
f 98/171/100 99/172/101 88/147/90
f 100/173/102 97/174/99 84/139/86
f 100/175/102 91/176/93 88/147/90
f 100/173/102 99/172/101 94/159/96
f 101/177/103 102/178/104 103/179/105
f 101/180/103 104/181/106 105/182/107
f 101/180/103 106/183/108 107/184/109
f 108/185/110 109/186/111 110/187/112
f 108/188/110 111/189/113 103/179/105
f 109/190/111 108/185/110 102/178/104
f 112/191/114 106/192/108 105/182/107
f 112/193/114 113/194/115 114/195/116
f 112/196/114 115/197/117 107/184/109
f 116/198/118 115/199/117 114/195/116
f 116/200/118 117/201/119 110/187/112
f 115/197/117 116/202/118 109/190/111
f 118/203/120 104/204/106 103/179/105
f 118/205/120 119/206/121 120/207/122
f 118/208/120 121/209/123 105/182/107
f 122/210/124 111/211/113 110/187/112
f 119/206/121 122/212/124 123/213/125
f 122/214/124 119/215/121 103/179/105
f 124/216/126 113/217/115 105/182/107
f 124/216/126 121/218/123 120/207/122
f 124/219/126 125/220/127 114/195/116
f 126/221/128 123/222/125 110/187/112
f 126/223/128 117/224/119 114/195/116
f 123/213/125 126/221/128 125/220/127
f 127/225/129 128/226/130 129/227/131
f 127/228/129 130/229/132 131/230/133
f 127/228/129 132/231/134 133/232/135
f 134/233/136 135/234/137 136/235/138
f 134/236/136 137/237/139 129/227/131
f 135/238/137 134/233/136 128/226/130
f 138/239/140 132/240/134 131/230/133
f 138/241/140 139/242/141 140/243/142
f 138/244/140 141/245/143 133/232/135
f 142/246/144 141/247/143 140/243/142
f 142/248/144 143/249/145 136/235/138
f 141/245/143 142/250/144 135/238/137
f 144/251/146 130/252/132 129/227/131
f 144/253/146 145/254/147 146/255/148
f 144/256/146 147/257/149 131/230/133
f 148/258/150 137/259/139 136/235/138
f 145/254/147 148/260/150 149/261/151
f 148/262/150 145/263/147 129/227/131
f 150/264/152 139/265/141 131/230/133
f 150/264/152 147/266/149 146/255/148
f 150/267/152 151/268/153 140/243/142
f 152/269/154 149/270/151 136/235/138
f 152/271/154 143/272/145 140/243/142
f 149/261/151 152/269/154 151/268/153
f 49/81/51 51/83/53 52/108/54
f 49/84/51 53/86/55 54/95/56
f 49/84/51 55/88/57 50/82/52
f 56/89/58 58/91/60 59/115/61
f 56/92/58 51/83/53 50/82/52
f 56/89/58 55/88/57 57/106/59
f 60/94/62 53/86/55 61/121/63
f 60/96/62 62/98/64 63/102/65
f 60/99/62 55/88/57 54/87/56
f 64/101/66 62/98/64 65/128/67
f 64/103/66 58/91/60 57/90/59
f 63/100/65 57/106/59 55/88/57
f 66/107/68 51/83/53 67/119/69
f 66/109/68 68/111/70 69/122/71
f 66/112/68 53/86/55 52/85/54
f 70/114/72 58/91/60 71/126/73
f 70/116/72 68/111/70 67/110/69
f 70/118/72 51/83/53 59/93/61
f 72/120/74 53/86/55 69/113/71
f 72/120/74 68/111/70 73/124/75
f 72/123/74 62/98/64 61/97/63
f 74/125/76 58/91/60 65/104/67
f 74/127/76 62/98/64 73/124/75
f 71/117/73 73/124/75 68/111/70
f 75/129/77 77/131/79 78/156/80
f 75/132/77 79/134/81 80/144/82
f 75/132/77 81/136/83 76/130/78
f 82/137/84 84/139/86 85/163/87
f 82/140/84 77/131/79 76/130/78
f 83/142/85 76/130/78 81/136/83
f 86/143/88 79/134/81 87/169/89
f 86/145/88 88/147/90 89/151/91
f 86/148/88 81/136/83 80/135/82
f 90/150/92 88/147/90 91/176/93
f 90/152/92 84/139/86 83/138/85
f 90/154/92 81/136/83 89/149/91
f 92/155/94 77/131/79 93/167/95
f 92/157/94 94/159/96 95/170/97
f 92/160/94 79/134/81 78/133/80
f 96/162/98 84/139/86 97/174/99
f 93/158/95 97/165/99 94/159/96
f 96/166/98 77/131/79 85/141/87
f 98/168/100 79/134/81 95/161/97
f 98/168/100 94/159/96 99/172/101
f 98/171/100 88/147/90 87/146/89
f 100/173/102 84/139/86 91/153/93
f 100/175/102 88/147/90 99/172/101
f 100/173/102 94/159/96 97/165/99
f 101/177/103 103/179/105 104/204/106
f 101/180/103 105/182/107 106/192/108
f 101/180/103 107/184/109 102/178/104
f 108/185/110 110/187/112 111/211/113
f 108/188/110 103/179/105 102/178/104
f 109/190/111 102/178/104 107/184/109
f 112/191/114 105/182/107 113/217/115
f 112/193/114 114/195/116 115/199/117
f 112/196/114 107/184/109 106/183/108
f 116/198/118 114/195/116 117/224/119
f 116/200/118 110/187/112 109/186/111
f 115/197/117 109/190/111 107/184/109
f 118/203/120 103/179/105 119/215/121
f 118/205/120 120/207/122 121/218/123
f 118/208/120 105/182/107 104/181/106
f 122/210/124 110/187/112 123/222/125
f 119/206/121 123/213/125 120/207/122
f 122/214/124 103/179/105 111/189/113
f 124/216/126 105/182/107 121/209/123
f 124/216/126 120/207/122 125/220/127
f 124/219/126 114/195/116 113/194/115
f 126/221/128 110/187/112 117/201/119
f 126/223/128 114/195/116 125/220/127
f 123/213/125 125/220/127 120/207/122
f 127/225/129 129/227/131 130/252/132
f 127/228/129 131/230/133 132/240/134
f 127/228/129 133/232/135 128/226/130
f 134/233/136 136/235/138 137/259/139
f 134/236/136 129/227/131 128/226/130
f 135/238/137 128/226/130 133/232/135
f 138/239/140 131/230/133 139/265/141
f 138/241/140 140/243/142 141/247/143
f 138/244/140 133/232/135 132/231/134
f 142/246/144 140/243/142 143/272/145
f 142/248/144 136/235/138 135/234/137
f 141/245/143 135/238/137 133/232/135
f 144/251/146 129/227/131 145/263/147
f 144/253/146 146/255/148 147/266/149
f 144/256/146 131/230/133 130/229/132
f 148/258/150 136/235/138 149/270/151
f 145/254/147 149/261/151 146/255/148
f 148/262/150 129/227/131 137/237/139
f 150/264/152 131/230/133 147/257/149
f 150/264/152 146/255/148 151/268/153
f 150/267/152 140/243/142 139/242/141
f 152/269/154 136/235/138 143/249/145
f 152/271/154 140/243/142 151/268/153
f 149/261/151 151/268/153 146/255/148
f 23/33/25 25/35/27 26/60/28
f 23/36/25 27/38/29 28/47/30
f 23/36/25 29/40/31 24/34/26
f 30/41/32 32/43/34 33/67/35
f 30/44/32 25/35/27 24/34/26
f 30/41/32 29/40/31 31/58/33
f 34/46/36 27/38/29 35/73/37
f 34/48/36 36/50/38 37/54/39
f 34/51/36 29/40/31 28/39/30
f 38/53/40 36/50/38 39/80/41
f 38/55/40 32/43/34 31/42/33
f 38/57/40 29/40/31 37/52/39
f 40/59/42 25/35/27 41/71/43
f 40/61/42 42/63/44 43/74/45
f 40/64/42 27/38/29 26/37/28
f 44/66/46 32/43/34 45/78/47
f 44/68/46 42/63/44 41/62/43
f 44/70/46 25/35/27 33/45/35
f 46/72/48 27/38/29 43/65/45
f 46/72/48 42/63/44 47/76/49
f 46/75/48 36/50/38 35/49/37
f 48/77/50 32/43/34 39/56/41
f 48/79/50 36/50/38 47/76/49
f 48/77/50 42/63/44 45/69/47
f 540/273/155 542/274/156 541/275/157
f 543/276/158 542/274/156 540/273/155
f 543/276/158 544/277/159 542/274/156
f 544/277/159 543/276/158 545/278/160
f 546/279/161 541/275/157 547/280/162
f 541/275/157 546/279/161 540/273/155
f 547/280/162 542/274/156 548/281/163
f 542/274/156 547/280/162 541/275/157
f 548/281/163 544/277/159 549/282/164
f 544/277/159 548/281/163 542/274/156
f 550/283/165 543/276/158 551/284/166
f 543/276/158 550/283/165 545/278/160
f 546/279/161 551/284/166 540/273/155
f 540/273/155 551/284/166 543/276/158
f 552/285/167 554/286/168 553/287/167
f 555/288/169 557/289/169 556/290/169
f 539/291/170 538/292/171 558/293/172
f 539/291/170 558/293/172 559/294/173
f 539/291/170 559/294/173 560/295/174
f 539/291/170 560/295/174 561/296/175
f 539/291/170 561/296/175 562/297/176
f 539/291/170 562/297/176 563/298/177
f 565/299/178 538/300/171 537/301/179
f 538/300/171 565/299/178 558/302/172
f 566/303/180 558/302/172 565/299/178
f 558/302/172 566/303/180 559/304/173
f 567/305/181 559/306/173 566/307/180
f 559/306/173 567/305/181 560/308/174
f 568/309/182 560/308/174 567/305/181
f 560/308/174 568/309/182 561/310/175
f 569/311/183 561/310/175 568/309/182
f 561/310/175 569/311/183 562/312/176
f 570/313/184 562/314/176 569/315/183
f 562/314/176 570/313/184 563/316/177
f 571/317/185 563/316/177 570/313/184
f 563/316/177 571/317/185 564/318/186
f 400/319/187 564/318/186 571/317/185
f 564/318/186 400/319/187 539/320/188
f 573/321/189 572/322/190 536/323/191
f 574/324/192 573/321/189 536/323/191
f 575/325/193 574/324/192 536/323/191
f 576/326/194 575/325/193 536/323/191
f 577/327/195 576/326/194 536/323/191
f 578/328/196 577/327/195 536/323/191
f 579/329/197 578/328/196 536/323/191
f 580/330/198 535/331/199 572/332/190
f 572/332/190 573/333/189 580/330/198
f 581/334/200 580/330/198 573/333/189
f 573/333/189 574/335/192 581/334/200
f 582/336/201 581/337/200 574/338/192
f 574/338/192 575/339/193 582/336/201
f 583/340/202 582/336/201 575/339/193
f 575/339/193 576/341/194 583/340/202
f 584/342/203 583/340/202 576/341/194
f 576/341/194 577/343/195 584/342/203
f 585/344/204 584/345/203 577/346/195
f 577/346/195 578/347/196 585/344/204
f 586/348/205 585/344/204 578/347/196
f 578/347/196 579/349/197 586/348/205
f 474/350/206 586/348/205 579/349/197
f 579/349/197 536/351/191 474/350/206
f 586/348/205 474/350/206 400/319/187
f 571/317/185 586/348/205 400/319/187
f 585/344/204 571/317/185 570/313/184
f 571/317/185 585/344/204 586/348/205
f 569/315/183 584/345/203 570/313/184
f 584/345/203 585/344/204 570/313/184
f 568/309/182 583/340/202 569/311/183
f 583/340/202 584/342/203 569/311/183
f 567/305/181 582/336/201 568/309/182
f 582/336/201 583/340/202 568/309/182
f 566/307/180 581/337/200 567/305/181
f 581/337/200 582/336/201 567/305/181
f 566/303/180 580/330/198 581/334/200
f 580/330/198 566/303/180 565/299/178
f 565/299/178 537/301/179 535/331/199
f 565/299/178 535/331/199 580/330/198
usemtl _fox.png.003
f 153/352/207 154/353/208 155/354/209
f 156/355/210 153/352/207 155/354/209
f 156/355/210 155/354/209 157/356/211
f 157/356/211 158/357/212 156/355/210
f 159/358/213 160/359/214 154/353/208
f 154/353/208 153/352/207 159/358/213
f 160/359/214 161/360/215 155/354/209
f 155/354/209 154/353/208 160/359/214
f 161/360/215 162/361/216 157/356/211
f 157/356/211 155/354/209 161/360/215
f 162/362/216 163/363/217 158/364/212
f 158/364/212 157/365/211 162/362/216
f 163/366/217 164/367/218 156/355/210
f 156/355/210 158/357/212 163/366/217
f 159/358/213 153/352/207 164/367/218
f 153/352/207 156/355/210 164/367/218
f 165/368/219 166/369/220 167/370/221
f 166/369/220 168/371/222 167/370/221
f 168/371/222 165/368/219 167/370/221
f 169/372/223 170/373/224 171/374/225
f 170/373/224 172/375/226 171/374/225
f 172/375/226 169/372/223 171/374/225
f 173/376/227 174/377/228 175/378/229
f 176/379/230 173/376/227 175/378/229
f 177/380/231 173/376/227 176/379/230
f 176/379/230 178/381/232 177/380/231
f 179/382/233 177/380/231 178/381/232
f 178/381/232 180/383/234 179/382/233
f 181/384/235 179/382/233 180/383/234
f 180/383/234 182/385/236 181/384/235
f 183/386/237 184/387/238 185/388/239
f 185/388/239 186/389/240 183/386/237
f 187/390/241 188/391/242 184/387/238
f 184/387/238 183/386/237 187/390/241
f 189/392/243 190/393/244 188/391/242
f 188/391/242 187/390/241 189/392/243
f 191/394/245 192/395/246 190/393/244
f 190/393/244 189/392/243 191/394/245
f 184/387/238 176/379/230 175/378/229
f 175/378/229 185/388/239 184/387/238
f 188/391/242 178/381/232 176/379/230
f 176/379/230 184/387/238 188/391/242
f 190/393/244 180/383/234 178/381/232
f 178/381/232 188/391/242 190/393/244
f 192/395/246 182/385/236 180/383/234
f 180/383/234 190/393/244 192/395/246
f 191/394/245 181/384/235 182/385/236
f 182/385/236 192/395/246 191/394/245
f 189/396/243 179/397/233 181/398/235
f 181/398/235 191/399/245 189/396/243
f 187/400/241 177/401/231 179/397/233
f 179/397/233 189/396/243 187/400/241
f 183/402/237 173/403/227 177/401/231
f 177/401/231 187/400/241 183/402/237
f 174/404/228 173/403/227 186/405/240
f 173/403/227 183/402/237 186/405/240
f 193/406/247 194/407/248 195/408/249
f 196/409/250 193/406/247 195/408/249
f 197/410/251 193/406/247 196/409/250
f 196/409/250 198/411/251 197/410/251
f 199/412/252 195/408/249 194/407/248
f 194/407/248 200/413/252 199/412/252
f 201/414/247 202/415/248 203/416/249
f 204/417/250 201/414/247 203/416/249
f 205/418/251 201/414/247 204/417/250
f 204/417/250 206/419/251 205/418/251
f 207/420/252 203/416/249 202/415/248
f 202/415/248 208/421/252 207/420/252
f 209/422/253 210/423/254 211/424/255
f 212/425/256 209/422/253 211/424/255
f 213/426/251 209/422/253 212/425/256
f 212/425/256 214/427/251 213/426/251
f 215/428/252 211/424/255 210/423/254
f 210/423/254 216/429/252 215/428/252
f 217/430/253 218/431/254 219/432/255
f 220/433/256 217/430/253 219/432/255
f 221/434/251 217/430/253 220/433/256
f 220/433/256 222/435/251 221/434/251
f 223/436/252 219/432/255 218/431/254
f 218/431/254 224/437/252 223/436/252
f 225/438/257 226/439/258 227/440/259
f 226/439/258 228/441/260 227/440/259
f 228/441/260 229/442/261 227/440/259
f 229/442/261 230/443/262 227/440/259
f 230/443/262 231/444/263 227/440/259
f 231/444/263 232/445/264 227/440/259
f 232/445/264 233/446/265 227/440/259
f 233/446/265 225/438/257 227/440/259
f 234/447/266 225/438/257 235/448/252
f 226/439/258 225/438/257 234/447/266
f 234/447/266 236/449/267 226/439/258
f 236/449/267 228/441/260 226/439/258
f 236/449/267 237/450/268 228/441/260
f 237/450/268 229/442/261 228/441/260
f 237/450/268 238/451/251 229/442/261
f 238/451/251 230/443/262 229/442/261
f 238/451/251 239/452/269 230/443/262
f 239/452/269 231/444/263 230/443/262
f 239/452/269 240/453/270 231/444/263
f 240/453/270 232/445/264 231/444/263
f 240/453/270 241/454/271 232/445/264
f 241/454/271 233/446/265 232/445/264
f 241/454/271 235/448/252 233/446/265
f 235/448/252 225/438/257 233/446/265
f 242/455/272 243/456/273 244/457/274
f 243/456/273 245/458/275 244/457/274
f 243/459/273 246/460/276 245/461/275
f 246/460/276 247/462/277 245/463/275
f 246/464/276 248/465/278 247/466/277
f 248/467/278 249/468/279 247/462/277
f 248/469/278 250/470/280 249/471/279
f 250/472/280 251/473/281 249/468/279
f 250/470/280 252/474/282 251/475/281
f 252/476/282 253/477/283 251/473/281
f 252/474/282 242/455/272 253/478/283
f 242/479/272 244/480/274 253/481/283
f 254/482/284 242/455/272 255/483/285
f 243/456/273 242/455/272 254/482/284
f 254/484/284 256/485/286 243/459/273
f 256/486/286 246/487/276 243/488/273
f 256/485/286 257/489/287 246/460/276
f 257/489/287 248/467/278 246/460/276
f 257/490/287 258/491/288 248/469/278
f 258/491/288 250/470/280 248/469/278
f 258/491/288 259/492/289 250/470/280
f 259/492/289 252/474/282 250/470/280
f 259/492/289 255/483/285 252/474/282
f 255/483/285 242/455/272 252/474/282
f 260/493/290 261/494/291 255/495/285
f 261/496/291 254/482/284 255/483/285
f 261/497/291 262/498/292 254/499/284
f 262/498/292 256/485/286 254/500/284
f 262/501/292 263/502/293 256/503/286
f 263/502/293 257/490/287 256/503/286
f 263/502/293 264/504/294 257/490/287
f 264/504/294 258/491/288 257/490/287
f 264/505/294 265/506/295 258/507/288
f 265/508/295 259/492/289 258/491/288
f 265/509/295 260/493/290 259/510/289
f 260/511/290 255/483/285 259/492/289
f 266/512/296 267/513/297 268/514/259
f 267/513/297 269/515/298 268/514/259
f 267/516/297 270/517/299 269/518/298
f 270/519/299 271/520/300 269/521/298
f 270/517/299 272/522/301 271/523/300
f 272/524/301 273/525/302 271/526/300
f 272/524/301 274/527/303 273/525/302
f 274/527/303 275/528/304 273/525/302
f 274/527/303 276/529/305 275/528/304
f 276/529/305 277/530/306 275/528/304
f 276/529/305 266/512/296 277/530/306
f 266/512/296 268/514/259 277/530/306
f 278/531/307 266/512/296 279/532/308
f 267/513/297 266/512/296 278/531/307
f 278/531/307 280/533/309 267/513/297
f 280/534/309 270/517/299 267/535/297
f 280/536/309 281/537/310 270/538/299
f 281/537/310 272/524/301 270/538/299
f 281/537/310 282/539/311 272/524/301
f 282/539/311 274/527/303 272/524/301
f 282/539/311 283/540/312 274/527/303
f 283/540/312 276/529/305 274/527/303
f 283/540/312 279/532/308 276/529/305
f 279/532/308 266/512/296 276/529/305
f 284/541/313 285/542/314 279/543/308
f 285/544/314 278/531/307 279/532/308
f 285/545/314 286/546/315 278/547/307
f 286/546/315 280/534/309 278/548/307
f 286/549/315 287/550/316 280/536/309
f 287/550/316 281/537/310 280/536/309
f 287/550/316 288/551/317 281/537/310
f 288/551/317 282/539/311 281/537/310
f 288/551/317 289/552/318 282/539/311
f 289/552/318 283/540/312 282/539/311
f 289/552/318 284/553/313 283/540/312
f 284/553/313 279/532/308 283/540/312
f 290/554/319 291/555/320 284/553/313
f 291/555/320 285/556/314 284/553/313
f 291/557/320 292/558/321 285/559/314
f 292/560/321 286/549/315 285/561/314
f 292/560/321 293/562/322 286/549/315
f 293/562/322 287/550/316 286/549/315
f 293/562/322 294/563/323 287/550/316
f 294/563/323 288/551/317 287/550/316
f 294/563/323 295/564/324 288/551/317
f 295/564/324 289/552/318 288/551/317
f 295/564/324 290/554/319 289/552/318
f 290/554/319 284/553/313 289/552/318
f 296/565/259 297/566/298 290/554/319
f 297/566/298 291/555/320 290/554/319
f 297/566/298 298/567/300 291/555/320
f 298/568/300 292/558/321 291/569/320
f 298/570/300 299/571/302 292/572/321
f 299/573/302 293/574/322 292/558/321
f 299/575/302 300/576/304 293/562/322
f 300/576/304 294/563/323 293/562/322
f 300/576/304 301/577/306 294/563/323
f 301/577/306 295/564/324 294/563/323
f 301/577/306 296/565/259 295/564/324
f 296/565/259 290/554/319 295/564/324
f 302/578/325 303/579/326 304/580/327
f 302/578/325 305/581/328 303/579/326
f 305/581/328 306/582/329 303/579/326
f 305/583/328 307/584/330 306/585/329
f 307/584/330 308/586/331 306/585/329
f 306/585/329 308/586/331 309/587/332
f 308/586/331 310/588/333 309/587/332
f 309/587/332 310/588/333 311/589/334
f 304/580/327 312/590/335 313/591/336
f 304/580/327 303/579/326 312/590/335
f 303/579/326 314/592/337 312/590/335
f 303/579/326 306/582/329 314/592/337
f 306/585/329 309/587/332 314/593/337
f 314/593/337 309/587/332 315/594/338
f 309/587/332 316/595/339 315/594/338
f 309/587/332 311/589/334 316/595/339
f 313/591/336 317/596/340 318/597/341
f 313/591/336 312/590/335 317/596/340
f 312/590/335 319/598/342 317/596/340
f 312/590/335 314/592/337 319/598/342
f 314/593/337 320/599/343 319/600/342
f 314/593/337 315/594/338 320/599/343
f 315/594/338 321/601/344 320/599/343
f 315/594/338 316/595/339 321/601/344
f 318/597/341 322/602/345 323/603/346
f 318/597/341 317/596/340 322/602/345
f 317/596/340 319/598/342 322/602/345
f 322/602/345 319/598/342 324/604/347
f 319/600/342 325/605/348 324/606/347
f 319/600/342 320/599/343 325/605/348
f 320/599/343 326/607/349 325/605/348
f 320/599/343 321/601/344 326/607/349
f 323/608/346 322/609/345 327/610/350
f 327/611/350 322/602/345 328/612/351
f 322/602/345 324/604/347 328/612/351
f 328/613/351 324/614/347 329/615/352
f 324/606/347 330/616/353 329/617/352
f 324/606/347 325/605/348 330/616/353
f 325/605/348 331/618/354 330/616/353
f 325/605/348 326/607/349 331/618/354
f 332/619/355 333/620/356 334/621/357
f 335/622/358 332/619/355 334/621/357
f 335/622/358 334/621/357 336/623/359
f 336/623/359 337/624/360 335/622/358
f 337/624/360 336/623/359 338/625/361
f 338/625/361 339/626/362 337/624/360
f 339/626/362 338/625/361 340/627/363
f 340/627/363 341/628/364 339/626/362
f 342/629/365 343/630/366 344/631/367
f 344/631/367 345/632/368 342/629/365
f 343/630/366 346/633/369 347/634/370
f 347/634/370 344/631/367 343/630/366
f 346/633/369 348/635/371 349/636/372
f 349/636/372 347/634/370 346/633/369
f 348/635/371 350/637/373 351/638/374
f 351/638/374 349/636/372 348/635/371
f 332/619/355 335/622/358 343/630/366
f 342/629/365 332/619/355 343/630/366
f 335/622/358 337/624/360 346/633/369
f 346/633/369 343/630/366 335/622/358
f 337/624/360 339/626/362 348/635/371
f 348/635/371 346/633/369 337/624/360
f 339/626/362 341/628/364 350/637/373
f 350/637/373 348/635/371 339/626/362
f 341/628/364 340/627/363 351/638/374
f 351/638/374 350/637/373 341/628/364
f 340/639/363 338/640/361 349/641/372
f 349/641/372 351/642/374 340/639/363
f 338/640/361 336/643/359 347/644/370
f 347/644/370 349/641/372 338/640/361
f 336/643/359 334/645/357 344/646/367
f 344/646/367 347/644/370 336/643/359
f 334/645/357 333/647/356 345/648/368
f 345/648/368 344/646/367 334/645/357
f 352/649/375 353/650/376 354/651/377
f 355/652/378 352/649/375 354/651/377
f 356/653/379 354/651/377 357/654/380
f 355/652/378 354/651/377 356/653/379
f 358/655/381 355/656/378 356/657/379
f 358/655/381 356/657/379 359/658/382
f 360/659/383 358/655/381 359/658/382
f 360/659/383 359/658/382 361/660/384
f 362/661/385 360/659/383 361/660/384
f 363/662/386 362/661/385 361/660/384
f 363/662/386 361/660/384 8/663/387
f 364/664/388 363/662/386 8/663/387
f 365/665/389 366/666/390 367/667/391
f 365/665/389 367/667/391 368/668/392
f 369/669/393 370/670/394 371/671/395
f 372/672/396 369/669/393 371/671/395
f 373/673/397 372/672/396 371/671/395
f 374/674/398 373/673/397 371/671/395
f 374/674/398 371/671/395 375/675/399
f 7/676/400 374/674/398 375/675/399
f 7/677/400 375/678/399 376/679/401
f 377/680/402 7/677/400 376/679/401
f 365/665/389 368/668/392 378/681/403
f 379/682/404 365/665/389 378/681/403
f 8/663/387 7/677/400 377/680/402
f 8/663/387 380/683/405 7/677/400
f 8/663/387 381/684/406 380/683/405
f 8/663/387 377/680/402 382/685/407
f 8/663/387 382/685/407 379/682/404
f 8/663/387 379/682/404 378/681/403
f 8/663/387 383/686/408 381/684/406
f 8/663/387 384/687/409 383/686/408
f 8/663/387 385/688/410 384/687/409
f 8/663/387 386/689/411 385/688/410
f 8/663/387 387/690/412 386/689/411
f 364/664/388 8/663/387 378/681/403
f 388/691/413 389/692/414 353/693/376
f 353/693/376 352/694/375 388/691/413
f 389/695/414 390/696/415 354/651/377
f 354/651/377 353/650/376 389/695/414
f 388/697/413 352/698/375 391/699/416
f 352/698/375 355/700/378 391/699/416
f 354/651/377 392/701/417 357/654/380
f 392/701/417 354/651/377 390/696/415
f 357/654/380 393/702/418 356/653/379
f 393/702/418 357/654/380 392/701/417
f 394/703/419 391/699/416 355/700/378
f 355/700/378 358/704/381 394/703/419
f 393/705/418 395/706/420 359/707/382
f 359/707/382 356/708/379 393/705/418
f 396/709/421 394/703/419 358/704/381
f 358/704/381 360/710/383 396/709/421
f 395/706/420 397/711/422 361/712/384
f 361/712/384 359/707/382 395/706/420
f 398/713/423 396/709/421 360/710/383
f 360/710/383 362/714/385 398/713/423
f 399/715/424 398/713/423 362/714/385
f 362/714/385 363/716/386 399/715/424
f 397/711/422 1/717/425 8/718/387
f 8/718/387 361/712/384 397/711/422
f 401/719/426 399/715/424 363/716/386
f 363/716/386 364/720/388 401/719/426
f 402/721/427 403/722/428 366/723/390
f 366/723/390 365/724/389 402/721/427
f 403/725/428 404/726/429 367/727/391
f 367/727/391 366/728/390 403/725/428
f 404/729/429 405/730/430 368/731/392
f 368/731/392 367/732/391 404/729/429
f 406/733/431 407/734/432 370/735/394
f 370/735/394 369/736/393 406/733/431
f 407/737/432 408/738/433 371/739/395
f 371/739/395 370/740/394 407/737/432
f 409/741/434 406/742/431 369/669/393
f 369/669/393 372/672/396 409/741/434
f 410/743/435 409/741/434 372/672/396
f 372/672/396 373/673/397 410/743/435
f 411/744/436 410/743/435 373/673/397
f 373/673/397 374/674/398 411/744/436
f 408/738/433 412/745/437 375/746/399
f 375/746/399 371/739/395 408/738/433
f 6/747/438 411/744/436 374/674/398
f 374/674/398 7/676/400 6/747/438
f 412/745/437 413/748/439 376/749/401
f 376/749/401 375/746/399 412/745/437
f 414/750/440 6/747/438 7/676/400
f 7/676/400 380/751/405 414/750/440
f 405/730/430 415/752/441 378/753/403
f 378/753/403 368/731/392 405/730/430
f 416/754/442 402/721/427 365/724/389
f 365/724/389 379/755/404 416/754/442
f 413/748/439 417/756/443 377/757/402
f 377/757/402 376/749/401 413/748/439
f 418/758/444 414/750/440 380/751/405
f 380/751/405 381/759/406 418/758/444
f 419/760/445 418/761/444 381/762/406
f 381/762/406 383/763/408 419/760/445
f 417/756/443 420/764/446 382/765/407
f 382/765/407 377/757/402 417/756/443
f 420/764/446 416/754/442 379/755/404
f 379/755/404 382/765/407 420/764/446
f 421/766/447 419/760/445 383/763/408
f 383/763/408 384/767/409 421/766/447
f 422/768/448 421/766/447 384/767/409
f 384/767/409 385/769/410 422/768/448
f 423/770/449 422/771/448 385/772/410
f 385/772/410 386/773/411 423/770/449
f 424/774/450 423/770/449 386/773/411
f 386/773/411 387/775/412 424/774/450
f 1/776/425 424/774/450 387/775/412
f 387/775/412 8/777/387 1/776/425
f 415/752/441 401/719/426 364/720/388
f 364/720/388 378/753/403 415/752/441
f 425/778/451 426/779/452 427/780/453
f 428/781/454 426/779/452 425/778/451
f 428/781/454 429/782/455 426/779/452
f 426/779/452 429/782/455 430/783/456
f 431/784/457 429/785/455 428/786/454
f 431/784/457 432/787/458 429/785/455
f 433/788/459 432/787/458 431/784/457
f 433/788/459 434/789/460 432/787/458
f 435/790/461 434/789/460 433/788/459
f 436/791/462 434/789/460 435/790/461
f 436/791/462 4/792/463 434/789/460
f 437/793/464 4/792/463 436/791/462
f 438/794/465 439/795/466 440/796/467
f 438/794/465 441/797/468 439/795/466
f 442/798/469 443/799/470 444/800/471
f 445/801/472 443/799/470 442/798/469
f 446/802/473 443/799/470 445/801/472
f 447/803/474 443/799/470 446/802/473
f 447/803/474 448/804/475 443/799/470
f 449/805/476 448/804/475 447/803/474
f 449/806/476 450/807/477 448/808/475
f 451/809/478 4/792/463 449/806/476
f 438/794/465 452/810/479 441/797/468
f 453/811/480 452/810/479 438/794/465
f 449/806/476 454/812/481 450/807/477
f 455/813/482 4/792/463 451/809/478
f 456/814/483 4/792/463 455/813/482
f 449/806/476 4/792/463 454/812/481
f 454/812/481 4/792/463 457/815/484
f 457/815/484 4/792/463 453/811/480
f 458/816/485 4/792/463 456/814/483
f 459/817/486 4/792/463 458/816/485
f 460/818/487 4/792/463 459/817/486
f 461/819/488 4/792/463 460/818/487
f 4/792/463 437/793/464 452/810/479
f 4/792/463 452/810/479 453/811/480
f 462/820/489 427/821/453 463/822/490
f 427/821/453 462/820/489 425/823/451
f 463/824/490 426/779/452 464/825/491
f 426/779/452 463/824/490 427/780/453
f 465/826/492 425/827/451 462/828/489
f 425/827/451 465/826/492 428/829/454
f 464/825/491 426/779/452 466/830/493
f 430/783/456 466/830/493 426/779/452
f 466/830/493 430/783/456 467/831/494
f 429/782/455 467/831/494 430/783/456
f 468/832/495 428/829/454 465/826/492
f 428/829/454 468/832/495 431/833/457
f 467/834/494 432/835/458 469/836/496
f 432/835/458 467/834/494 429/837/455
f 470/838/497 431/833/457 468/832/495
f 431/833/457 470/838/497 433/839/459
f 469/836/496 434/840/460 471/841/498
f 434/840/460 469/836/496 432/835/458
f 472/842/499 433/839/459 470/838/497
f 433/839/459 472/842/499 435/843/461
f 473/844/500 435/843/461 472/842/499
f 435/843/461 473/844/500 436/845/462
f 471/841/498 4/846/463 2/847/501
f 4/846/463 471/841/498 434/840/460
f 475/848/502 436/845/462 473/844/500
f 436/845/462 475/848/502 437/849/464
f 476/850/503 440/851/467 477/852/504
f 440/851/467 476/850/503 438/853/465
f 477/854/504 439/855/466 478/856/505
f 439/855/466 477/854/504 440/857/467
f 478/858/505 441/859/468 479/860/506
f 441/859/468 478/858/505 439/861/466
f 480/862/507 444/863/471 481/864/508
f 444/863/471 480/862/507 442/865/469
f 481/866/508 443/867/470 482/868/509
f 443/867/470 481/866/508 444/869/471
f 483/870/510 442/798/469 480/871/507
f 442/798/469 483/870/510 445/801/472
f 484/872/511 445/801/472 483/870/510
f 445/801/472 484/872/511 446/802/473
f 485/873/512 446/802/473 484/872/511
f 446/802/473 485/873/512 447/803/474
f 482/868/509 448/874/475 486/875/513
f 448/874/475 482/868/509 443/867/470
f 3/876/514 447/803/474 485/873/512
f 447/803/474 3/876/514 449/805/476
f 486/875/513 450/877/477 487/878/515
f 450/877/477 486/875/513 448/874/475
f 488/879/516 449/805/476 3/876/514
f 449/805/476 488/879/516 451/880/478
f 479/860/506 452/881/479 489/882/517
f 452/881/479 479/860/506 441/859/468
f 490/883/518 438/853/465 476/850/503
f 438/853/465 490/883/518 453/884/480
f 487/878/515 454/885/481 491/886/519
f 454/885/481 487/878/515 450/877/477
f 492/887/520 451/880/478 488/879/516
f 451/880/478 492/887/520 455/888/482
f 493/889/521 455/890/482 492/891/520
f 455/890/482 493/889/521 456/892/483
f 491/886/519 457/893/484 494/894/522
f 457/893/484 491/886/519 454/885/481
f 494/894/522 453/884/480 490/883/518
f 453/884/480 494/894/522 457/893/484
f 495/895/523 456/892/483 493/889/521
f 456/892/483 495/895/523 458/896/485
f 496/897/524 458/896/485 495/895/523
f 458/896/485 496/897/524 459/898/486
f 497/899/525 459/900/486 496/901/524
f 459/900/486 497/899/525 460/902/487
f 498/903/526 460/902/487 497/899/525
f 460/902/487 498/903/526 461/904/488
f 2/905/501 461/904/488 498/903/526
f 461/904/488 2/905/501 4/906/463
f 489/882/517 437/849/464 475/848/502
f 437/849/464 489/882/517 452/881/479
f 392/701/417 390/696/415 466/830/493
f 466/830/493 390/696/415 464/825/491
f 393/702/418 392/701/417 467/831/494
f 467/831/494 392/701/417 466/830/493
f 395/706/420 393/705/418 469/836/496
f 469/836/496 393/705/418 467/834/494
f 471/841/498 395/706/420 469/836/496
f 471/841/498 397/711/422 395/706/420
f 1/717/425 397/711/422 2/847/501
f 2/847/501 397/711/422 471/841/498
f 498/903/526 1/776/425 2/905/501
f 424/774/450 1/776/425 498/903/526
f 497/899/525 423/770/449 424/774/450
f 424/774/450 498/903/526 497/899/525
f 422/771/448 423/770/449 496/901/524
f 496/901/524 423/770/449 497/899/525
f 421/766/447 422/768/448 495/895/523
f 495/895/523 422/768/448 496/897/524
f 419/760/445 421/766/447 493/889/521
f 493/889/521 421/766/447 495/895/523
f 418/761/444 419/760/445 492/891/520
f 492/891/520 419/760/445 493/889/521
f 418/758/444 492/887/520 488/879/516
f 488/879/516 414/750/440 418/758/444
f 414/750/440 3/876/514 6/747/438
f 414/750/440 488/879/516 3/876/514
f 6/747/438 3/876/514 485/873/512
f 485/873/512 411/744/436 6/747/438
f 485/873/512 484/872/511 411/744/436
f 411/744/436 484/872/511 410/743/435
f 484/872/511 483/870/510 410/743/435
f 410/743/435 483/870/510 409/741/434
f 409/741/434 480/871/507 406/742/431
f 409/741/434 483/870/510 480/871/507
f 406/733/431 480/862/507 481/864/508
f 481/864/508 407/734/432 406/733/431
f 481/866/508 482/868/509 407/737/432
f 407/737/432 482/868/509 408/738/433
f 408/738/433 482/868/509 486/875/513
f 408/738/433 486/875/513 412/745/437
f 412/745/437 486/875/513 487/878/515
f 487/878/515 413/748/439 412/745/437
f 413/748/439 487/878/515 417/756/443
f 417/756/443 487/878/515 491/886/519
f 491/886/519 420/764/446 417/756/443
f 420/764/446 491/886/519 494/894/522
f 494/894/522 490/883/518 420/764/446
f 420/764/446 490/883/518 416/754/442
f 416/754/442 490/883/518 476/850/503
f 402/721/427 416/754/442 476/850/503
f 476/850/503 477/852/504 402/721/427
f 402/721/427 477/852/504 403/722/428
f 404/726/429 403/725/428 477/854/504
f 404/726/429 477/854/504 478/856/505
f 404/729/429 478/858/505 479/860/506
f 479/860/506 405/730/430 404/729/429
f 479/860/506 489/882/517 405/730/430
f 405/730/430 489/882/517 415/752/441
f 415/752/441 489/882/517 475/848/502
f 415/752/441 475/848/502 401/719/426
f 401/719/426 475/848/502 473/844/500
f 473/844/500 399/715/424 401/719/426
f 473/844/500 472/842/499 399/715/424
f 399/715/424 472/842/499 398/713/423
f 398/713/423 472/842/499 396/709/421
f 396/709/421 472/842/499 470/838/497
f 470/838/497 468/832/495 396/709/421
f 396/709/421 468/832/495 394/703/419
f 394/703/419 468/832/495 465/826/492
f 465/826/492 391/699/416 394/703/419
f 391/699/416 465/826/492 462/828/489
f 462/828/489 388/697/413 391/699/416
f 388/691/413 462/820/489 389/692/414
f 389/692/414 462/820/489 463/822/490
f 389/695/414 463/824/490 464/825/491
f 464/825/491 390/696/415 389/695/414
f 499/907/296 500/908/297 501/909/259
f 500/910/297 502/911/298 501/912/259
f 500/910/297 503/913/299 502/911/298
f 503/913/299 504/914/300 502/911/298
f 503/915/299 505/916/301 504/917/300
f 505/918/301 506/919/302 504/920/300
f 505/918/301 507/921/303 506/919/302
f 507/921/303 508/922/304 506/919/302
f 507/921/303 509/923/305 508/922/304
f 509/923/305 510/924/306 508/922/304
f 509/923/305 499/925/296 510/924/306
f 499/925/296 501/926/259 510/924/306
f 511/927/307 499/925/296 512/928/308
f 500/910/297 499/925/296 511/927/307
f 511/927/307 513/929/309 500/910/297
f 513/929/309 503/913/299 500/910/297
f 513/929/309 514/930/310 503/913/299
f 514/930/310 505/918/301 503/913/299
f 514/930/310 515/931/311 505/918/301
f 515/931/311 507/921/303 505/918/301
f 515/931/311 516/932/312 507/921/303
f 516/932/312 509/923/305 507/921/303
f 516/932/312 512/928/308 509/923/305
f 512/928/308 499/925/296 509/923/305
f 517/933/313 518/934/314 512/928/308
f 518/934/314 511/927/307 512/928/308
f 518/935/314 519/936/315 511/937/307
f 519/936/315 513/938/309 511/939/307
f 519/936/315 520/940/316 513/938/309
f 520/941/316 514/930/310 513/929/309
f 520/941/316 521/942/317 514/930/310
f 521/942/317 515/931/311 514/930/310
f 521/942/317 522/943/318 515/931/311
f 522/943/318 516/932/312 515/931/311
f 522/943/318 517/933/313 516/932/312
f 517/933/313 512/928/308 516/932/312
f 523/944/319 524/945/320 517/933/313
f 524/945/320 518/934/314 517/933/313
f 524/945/320 525/946/321 518/934/314
f 525/946/321 519/947/315 518/934/314
f 525/946/321 526/948/322 519/947/315
f 526/948/322 520/941/316 519/947/315
f 526/948/322 527/949/323 520/941/316
f 527/949/323 521/942/317 520/941/316
f 527/949/323 528/950/324 521/942/317
f 528/950/324 522/943/318 521/942/317
f 528/950/324 523/944/319 522/943/318
f 523/944/319 517/933/313 522/943/318
f 529/951/259 530/952/298 523/944/319
f 530/953/298 524/954/320 523/955/319
f 530/956/298 531/957/300 524/958/320
f 531/959/300 525/960/321 524/961/320
f 531/962/300 532/963/302 525/964/321
f 532/965/302 526/966/322 525/960/321
f 532/967/302 533/968/304 526/948/322
f 533/968/304 527/949/323 526/948/322
f 533/968/304 534/969/306 527/949/323
f 534/969/306 528/950/324 527/949/323
f 534/969/306 529/951/259 528/950/324
f 529/951/259 523/944/319 528/950/324
