# Blender v3.0.1 OBJ File: ''
# www.blender.org
mtllib jeep_wheel.mtl
o Jeep.001
v 0.225465 -0.313683 0.066370
v 0.302332 -0.413916 0.424076
v 0.302332 -0.544755 0.233424
v 0.302332 -0.592652 0.007259
v 0.225465 -0.174899 0.268938
v 0.225465 -0.268823 -0.174982
v 0.302332 -0.219993 0.550243
v 0.302332 -0.550129 -0.220075
v 0.302332 0.007341 0.592532
v 0.302332 -0.424196 -0.413764
v 0.225464 0.066452 0.313797
v 0.225464 -0.066490 -0.313766
v 0.302332 0.233507 0.544635
v 0.302332 -0.233544 -0.544604
v 0.302332 0.424159 0.413796
v 0.302332 -0.007144 -0.592501
v 0.225464 0.268787 0.175015
v 0.225464 0.174863 -0.268907
v 0.302332 0.550325 0.220107
v 0.302332 0.220189 -0.550211
v 0.302332 0.592614 -0.007226
v 0.302332 0.413878 -0.424044
v 0.225464 0.313880 -0.066339
v 0.302332 0.544718 -0.233392
v 0.162614 -0.097564 0.149780
v 0.162614 -0.174899 0.036931
v 0.162614 -0.149900 -0.097413
v 0.162614 0.037014 0.175014
v 0.162614 -0.037051 -0.174982
v 0.162614 0.149863 0.097444
v 0.162614 0.097527 -0.149982
v 0.162614 0.174863 -0.037133
v 0.243221 -0.114153 0.024081
v 0.243221 -0.097797 -0.063769
v 0.243221 -0.063686 0.097912
v 0.243221 -0.024201 -0.114235
v 0.243221 0.063649 -0.097880
v 0.243221 0.114349 -0.024283
v 0.243221 0.024163 0.114267
v 0.243221 0.097761 0.063567
v -0.215885 0.919246 -0.393904
v -0.215885 0.698454 -0.715629
v -0.249062 0.669716 -0.686190
v -0.243221 0.097761 0.063567
v -0.243221 0.114349 -0.024283
v -0.243221 -0.063686 0.097912
v -0.162614 0.149863 0.097444
v -0.162614 0.174863 -0.037133
v -0.162614 0.037014 0.175014
v -0.243221 0.024163 0.114267
v -0.243221 0.063649 -0.097880
v -0.243221 -0.024201 -0.114235
v -0.243221 -0.097797 -0.063769
v -0.162614 -0.097564 0.149780
v -0.243221 -0.114153 0.024081
v -0.162614 -0.149900 -0.097413
v -0.225464 0.268787 0.175015
v -0.225464 0.174863 -0.268907
v -0.225464 -0.066490 -0.313766
v -0.162614 -0.037051 -0.174982
v -0.225465 -0.174899 0.268938
v -0.225464 0.066452 0.313797
v -0.162614 -0.174899 0.036931
v -0.225465 -0.268823 -0.174982
v -0.302332 0.592614 -0.007226
v -0.225464 0.313880 -0.066339
v -0.302332 0.220189 -0.550211
v -0.302332 -0.007144 -0.592501
v -0.302332 -0.233544 -0.544604
v -0.302332 -0.424196 -0.413764
v -0.302332 0.424159 0.413796
v -0.302332 0.233507 0.544635
v -0.302332 -0.219993 0.550243
v -0.302332 0.007341 0.592532
v -0.302332 -0.592652 0.007259
v -0.225465 -0.313683 0.066370
v -0.162614 0.097527 -0.149982
v -0.302332 0.550325 0.220107
v -0.249062 0.356169 -0.890393
v -0.302332 0.544718 -0.233392
v -0.302332 0.413878 -0.424044
v -0.302332 -0.550129 -0.220075
v -0.302332 -0.413916 0.424076
v -0.302332 -0.544755 0.233424
v 0.215885 0.919246 -0.393904
v 0.249062 0.669716 -0.686190
v 0.215885 0.698454 -0.715629
v 0.249062 0.356169 -0.890393
v 0.215885 0.371356 -0.928477
v 0.249062 0.881396 -0.377782
v 0.215885 1.000087 -0.012132
v 0.249062 -0.011817 -0.958851
v 0.249062 0.958732 -0.011665
v 0.215885 -0.012285 -0.999972
v 0.249062 -0.377701 -0.881282
v 0.215885 -0.394055 -0.919132
v 0.249062 -0.686343 -0.669603
v 0.215885 -0.715781 -0.698341
v 0.249062 -0.890312 -0.356055
v 0.215885 -0.928629 -0.371475
v 0.249062 -0.958768 0.011698
v 0.215885 -0.999890 0.012165
v 0.249062 -0.881433 0.377815
v 0.215885 -0.919283 0.393936
v 0.249062 -0.669753 0.686223
v 0.215885 -0.698492 0.715661
v 0.249062 -0.356206 0.890426
v 0.215885 -0.371393 0.928509
v 0.249062 0.011780 0.958882
v 0.215885 0.012247 1.000004
v 0.249062 0.377663 0.881314
v 0.215885 0.394018 0.919164
v 0.249062 0.686305 0.669635
v 0.215885 0.715744 0.698372
v 0.249062 0.890275 0.356088
v 0.215885 0.928592 0.371508
v 0.334810 -0.706902 0.303050
v 0.334810 -0.769050 0.009361
v 0.334810 -0.537278 0.550477
v 0.334810 -0.714146 -0.285729
v 0.334810 -0.550362 -0.537127
v 0.334810 -0.302935 -0.706985
v 0.334810 -0.009481 -0.769134
v 0.334810 0.285609 -0.714228
v 0.334809 0.537241 -0.550444
v 0.334809 0.706866 -0.303017
v 0.334809 0.769014 -0.009329
v 0.334809 0.714108 0.285526
v 0.334809 0.550559 0.537159
v 0.334810 0.302899 0.707018
v 0.334810 0.009444 0.769165
v 0.334810 -0.285646 0.714026
v -0.215885 0.371356 -0.928477
v -0.249062 0.881396 -0.377782
v -0.215885 1.000087 -0.012132
v -0.249062 -0.011817 -0.958851
v -0.249062 0.958732 -0.011665
v -0.215885 -0.012285 -0.999972
v -0.249062 -0.377701 -0.881282
v -0.215885 -0.394055 -0.919132
v -0.249062 -0.686343 -0.669603
v -0.215885 -0.715781 -0.698341
v -0.249062 -0.890312 -0.356055
v -0.215885 -0.928629 -0.371475
v -0.249062 -0.958768 0.011698
v -0.215885 -0.999890 0.012165
v -0.249062 -0.881433 0.377815
v -0.215885 -0.919283 0.393936
v -0.249062 -0.669753 0.686223
v -0.215885 -0.698492 0.715661
v -0.249062 -0.356206 0.890426
v -0.215885 -0.371393 0.928509
v -0.249062 0.011780 0.958882
v -0.215885 0.012247 1.000004
v -0.249062 0.377663 0.881314
v -0.215885 0.394018 0.919164
v -0.249062 0.686305 0.669635
v -0.215885 0.715744 0.698372
v -0.249062 0.890275 0.356088
v -0.215885 0.928592 0.371508
v -0.334810 -0.706902 0.303050
v -0.334810 -0.769050 0.009361
v -0.334810 -0.537278 0.550477
v -0.334810 -0.714146 -0.285729
v -0.334810 -0.550362 -0.537127
v -0.334810 -0.302935 -0.706985
v -0.334810 -0.009481 -0.769134
v -0.334810 0.285609 -0.714228
v -0.334809 0.537241 -0.550444
v -0.334809 0.706866 -0.303017
v -0.334809 0.769014 -0.009329
v -0.334809 0.714108 0.285526
v -0.334809 0.550559 0.537159
v -0.334810 0.302899 0.707018
v -0.334810 0.009444 0.769165
v -0.334810 -0.285646 0.714026
vt 0.068624 0.622465
vt 0.053105 0.618139
vt 0.061409 0.612386
vt 0.071168 0.610341
vt 0.059749 0.628504
vt 0.079058 0.624511
vt 0.047499 0.626555
vt 0.081134 0.612243
vt 0.045578 0.636397
vt 0.089491 0.617759
vt 0.057828 0.639107
vt 0.085079 0.633354
vt 0.047759 0.646382
vt 0.095252 0.626175
vt 0.053364 0.654656
vt 0.097277 0.636017
vt 0.063798 0.647904
vt 0.083159 0.643957
vt 0.061773 0.660171
vt 0.095357 0.646002
vt 0.071687 0.662073
vt 0.089906 0.654418
vt 0.074230 0.649948
vt 0.081497 0.660029
vt 0.064939 0.631927
vt 0.069922 0.628600
vt 0.075788 0.629740
vt 0.063798 0.637824
vt 0.079058 0.634638
vt 0.067223 0.642816
vt 0.077916 0.640486
vt 0.073088 0.643815
vt 0.070546 0.631927
vt 0.073867 0.632594
vt 0.067742 0.633829
vt 0.075788 0.635399
vt 0.075113 0.638727
vt 0.072310 0.640629
vt 0.067120 0.637158
vt 0.069040 0.639963
vt 0.006127 0.653149
vt 0.006127 0.635864
vt 0.003782 0.635864
vt 0.069040 0.639963
vt 0.072310 0.640629
vt 0.067742 0.633829
vt 0.067223 0.642816
vt 0.073088 0.643815
vt 0.063798 0.637824
vt 0.067120 0.637158
vt 0.075113 0.638727
vt 0.075788 0.635399
vt 0.073867 0.632594
vt 0.064939 0.631927
vt 0.070546 0.631927
vt 0.075788 0.629740
vt 0.063798 0.647904
vt 0.083159 0.643957
vt 0.085079 0.633354
vt 0.079058 0.634638
vt 0.059749 0.628504
vt 0.057828 0.639107
vt 0.069922 0.628600
vt 0.079058 0.624511
vt 0.071687 0.662073
vt 0.074230 0.649948
vt 0.095357 0.646002
vt 0.097277 0.636017
vt 0.095252 0.626175
vt 0.089491 0.617759
vt 0.053364 0.654656
vt 0.047759 0.646382
vt 0.047499 0.626555
vt 0.045578 0.636397
vt 0.071168 0.610341
vt 0.068624 0.622465
vt 0.077916 0.640486
vt 0.061773 0.660171
vt 0.003782 0.618487
vt 0.081497 0.660029
vt 0.089906 0.654418
vt 0.081134 0.612243
vt 0.053105 0.618139
vt 0.061409 0.612386
vt 0.006127 0.653149
vt 0.003782 0.635864
vt 0.006127 0.635864
vt 0.003782 0.618487
vt 0.006127 0.618487
vt 0.003782 0.653149
vt 0.006127 0.670433
vt 0.003782 0.601341
vt 0.003782 0.670433
vt 0.006127 0.601341
vt 0.003782 0.618626
vt 0.006127 0.618626
vt 0.003782 0.635864
vt 0.006127 0.635864
vt 0.003782 0.653149
vt 0.006127 0.653149
vt 0.003782 0.670433
vt 0.006127 0.670433
vt 0.003782 0.653149
vt 0.006127 0.653149
vt 0.003782 0.635864
vt 0.006127 0.635864
vt 0.003782 0.618626
vt 0.006127 0.618626
vt 0.003782 0.601341
vt 0.006127 0.601341
vt 0.003782 0.618487
vt 0.006127 0.618487
vt 0.003782 0.635864
vt 0.006127 0.635864
vt 0.003782 0.653149
vt 0.006127 0.653149
vt 0.070681 0.598559
vt 0.058685 0.607397
vt 0.056237 0.601561
vt 0.070766 0.604971
vt 0.085220 0.601326
vt 0.048642 0.614286
vt 0.043949 0.609862
vt 0.060614 0.611847
vt 0.052086 0.617763
vt 0.070741 0.609768
vt 0.046329 0.626398
vt 0.082846 0.607251
vt 0.080976 0.611740
vt 0.097600 0.609393
vt 0.093131 0.613946
vt 0.089663 0.617390
vt 0.105902 0.621587
vt 0.099923 0.624086
vt 0.095580 0.626025
vt 0.108903 0.636031
vt 0.102446 0.636021
vt 0.097659 0.636099
vt 0.106136 0.650569
vt 0.100166 0.648053
vt 0.095687 0.646333
vt 0.098022 0.662903
vt 0.093471 0.658338
vt 0.090037 0.654968
vt 0.085782 0.671204
vt 0.083331 0.665228
vt 0.081402 0.660725
vt 0.071338 0.674205
vt 0.071250 0.667750
vt 0.071274 0.662857
vt 0.056800 0.671439
vt 0.059170 0.665373
vt 0.061040 0.660884
vt 0.044418 0.663231
vt 0.049031 0.658678
vt 0.052352 0.655235
vt 0.036118 0.651132
vt 0.042092 0.648538
vt 0.046596 0.646706
vt 0.033117 0.636594
vt 0.039570 0.636603
vt 0.044357 0.636526
vt 0.035884 0.622196
vt 0.041850 0.624572
vt 0.006127 0.618487
vt 0.003782 0.653149
vt 0.006127 0.670433
vt 0.003782 0.601341
vt 0.003782 0.670433
vt 0.006127 0.601341
vt 0.003782 0.618626
vt 0.006127 0.618626
vt 0.003782 0.635864
vt 0.006127 0.635864
vt 0.003782 0.653149
vt 0.006127 0.653149
vt 0.003782 0.670433
vt 0.006127 0.670433
vt 0.003782 0.653149
vt 0.006127 0.653149
vt 0.003782 0.635864
vt 0.006127 0.635864
vt 0.003782 0.618626
vt 0.006127 0.618626
vt 0.003782 0.601341
vt 0.006127 0.601341
vt 0.003782 0.618487
vt 0.006127 0.618487
vt 0.003782 0.635864
vt 0.006127 0.635864
vt 0.003782 0.653149
vt 0.006127 0.653149
vt 0.070681 0.598559
vt 0.056237 0.601561
vt 0.058685 0.607397
vt 0.070766 0.604971
vt 0.085220 0.601326
vt 0.048642 0.614286
vt 0.043949 0.609862
vt 0.060614 0.611847
vt 0.052086 0.617763
vt 0.070741 0.609768
vt 0.046329 0.626398
vt 0.082846 0.607251
vt 0.080976 0.611740
vt 0.097600 0.609393
vt 0.093131 0.613946
vt 0.089663 0.617390
vt 0.105902 0.621587
vt 0.099923 0.624086
vt 0.095580 0.626025
vt 0.108903 0.636031
vt 0.102446 0.636021
vt 0.097659 0.636099
vt 0.106136 0.650569
vt 0.100166 0.648053
vt 0.095687 0.646333
vt 0.098022 0.662903
vt 0.093471 0.658338
vt 0.090037 0.654968
vt 0.085782 0.671204
vt 0.083331 0.665228
vt 0.081402 0.660725
vt 0.071338 0.674205
vt 0.071250 0.667750
vt 0.071274 0.662857
vt 0.056800 0.671439
vt 0.059170 0.665373
vt 0.061040 0.660884
vt 0.044418 0.663231
vt 0.049031 0.658678
vt 0.052352 0.655235
vt 0.036118 0.651132
vt 0.042092 0.648538
vt 0.046596 0.646706
vt 0.033117 0.636594
vt 0.039570 0.636603
vt 0.044357 0.636526
vt 0.035884 0.622196
vt 0.041850 0.624572
vt 0.024851 0.653149
vt 0.024851 0.670433
vt 0.024851 0.653149
vt 0.024851 0.635864
vt 0.024851 0.618487
vt 0.024851 0.601341
vt 0.024851 0.618626
vt 0.024851 0.635864
vt 0.024851 0.653149
vt 0.024851 0.670433
vt 0.024851 0.653149
vt 0.024851 0.635864
vt 0.024851 0.618626
vt 0.024851 0.601341
vt 0.024851 0.618487
vt 0.024851 0.635864
vn 0.9473 0.3033 -0.1032
vn 0.9749 0.1650 -0.1494
vn 0.9765 0.2012 -0.0775
vn 0.9749 0.2224 0.0110
vn 0.9473 0.1414 -0.2874
vn 0.9473 0.2875 0.1413
vn 0.9765 0.0875 -0.1972
vn 0.9765 0.1971 0.0876
vn 0.9749 0.0110 -0.2224
vn 0.9749 0.1495 0.1650
vn 0.9473 -0.1034 -0.3033
vn 0.9473 0.1034 0.3033
vn 0.9765 -0.0775 -0.2012
vn 0.9765 0.0775 0.2012
vn 0.9749 -0.1494 -0.1651
vn 0.9749 -0.0110 0.2224
vn 0.9473 -0.2874 -0.1414
vn 0.9473 -0.1414 0.2876
vn 0.9765 -0.1971 -0.0875
vn 0.9765 -0.0875 0.1970
vn 0.9749 -0.2225 -0.0110
vn 0.9749 -0.1650 0.1494
vn 0.9473 -0.3032 0.1033
vn 0.9765 -0.2013 0.0775
vn 0.9721 -0.1538 0.1771
vn 0.9722 -0.2334 0.0166
vn 0.9722 -0.1771 -0.1535
vn 0.9722 0.0166 0.2337
vn 0.9723 -0.0168 -0.2333
vn 0.9722 0.1771 0.1530
vn 0.9722 0.1531 -0.1771
vn 0.9721 0.2341 -0.0164
vn 0.7684 -0.6022 0.2165
vn 0.8538 -0.4711 -0.2217
vn 0.9592 -0.1206 0.2557
vn 0.8537 -0.1767 -0.4899
vn 0.8539 0.2211 -0.4711
vn 0.8537 0.4901 -0.1763
vn 0.7689 0.2173 0.6014
vn 0.8536 0.4714 0.2216
vn -0.3884 0.8513 -0.3527
vn -0.4056 0.6573 -0.6352
vn -0.8405 0.3688 -0.3969
vn -0.8668 0.3795 0.3235
vn -0.8790 0.4741 -0.0516
vn -0.7184 -0.5135 0.4693
vn -0.9759 0.2173 0.0186
vn -0.9972 -0.0467 -0.0589
vn -0.9906 0.1369 0.0067
vn -0.9090 -0.0160 0.4165
vn -0.8726 0.2150 -0.4386
vn -0.8877 -0.1082 -0.4475
vn -0.8818 -0.4157 -0.2226
vn -0.9906 0.0910 0.1022
vn -0.8634 -0.4351 0.2553
vn -0.9775 -0.0834 -0.1939
vn -0.9417 -0.2967 -0.1587
vn -0.9599 -0.1337 0.2464
vn -0.9600 0.0366 0.2777
vn -0.9760 -0.1407 -0.1665
vn -0.9380 0.1829 -0.2945
vn -0.9476 -0.1034 -0.3022
vn -0.9722 -0.2202 0.0794
vn -0.9621 0.2278 0.1500
vn -0.9777 -0.2098 0.0082
vn -0.9603 -0.2680 0.0780
vn -0.9739 -0.0755 0.2139
vn -0.9757 0.0118 0.2190
vn -0.9739 0.0980 0.2046
vn -0.9757 0.1633 0.1464
vn -0.9777 -0.1540 -0.1425
vn -0.9764 -0.0972 -0.1927
vn -0.9764 0.0676 -0.2051
vn -0.9784 -0.0007 -0.2065
vn -0.9740 0.2263 -0.0085
vn -0.9575 0.2869 -0.0296
vn -0.9724 0.1589 -0.1709
vn -0.9782 -0.1928 -0.0774
vn -0.8375 0.2120 -0.5036
vn -0.9764 -0.1928 0.0972
vn -0.9757 -0.1465 0.1632
vn -0.9773 0.2004 0.0682
vn -0.9750 0.1492 -0.1649
vn -0.9739 0.2047 -0.0979
vn 0.3953 0.8524 -0.3424
vn 0.8518 0.3710 -0.3699
vn 0.4219 0.6150 -0.6662
vn 0.8516 0.2013 -0.4840
vn 0.4213 0.3129 -0.8512
vn 0.8521 0.4838 -0.1996
vn 0.3963 0.9181 0.0098
vn 0.8516 0.0007 -0.5241
vn 0.8525 0.5228 0.0008
vn 0.4340 0.0023 -0.9009
vn 0.8520 -0.1997 -0.4840
vn 0.4342 -0.3426 -0.8331
vn 0.8520 -0.3697 -0.3707
vn 0.4342 -0.6353 -0.6387
vn 0.8521 -0.4832 -0.2009
vn 0.4345 -0.8312 -0.3468
vn 0.8520 -0.5236 -0.0007
vn 0.4338 -0.9010 -0.0023
vn 0.8519 -0.4842 0.1996
vn 0.4339 -0.8333 0.3425
vn 0.8518 -0.3709 0.3699
vn 0.4336 -0.6387 0.6356
vn 0.8517 -0.2013 0.4839
vn 0.4334 -0.3470 0.8317
vn 0.8516 -0.0007 0.5241
vn 0.4340 -0.0023 0.9009
vn 0.8520 0.1997 0.4840
vn 0.4342 0.3426 0.8331
vn 0.8519 0.3698 0.3707
vn 0.4342 0.6353 0.6387
vn 0.8522 0.4831 0.2009
vn 0.4349 0.8309 0.3470
vn 0.9925 -0.1188 0.0285
vn 0.9925 -0.1207 -0.0191
vn 0.9925 -0.0989 0.0719
vn 0.9925 -0.1043 -0.0638
vn 0.9925 -0.0718 -0.0989
vn 0.9925 -0.0286 -0.1189
vn 0.9925 0.0191 -0.1208
vn 0.9925 0.0639 -0.1043
vn 0.9925 0.0989 -0.0719
vn 0.9925 0.1188 -0.0285
vn 0.9925 0.1207 0.0191
vn 0.9925 0.1042 0.0638
vn 0.9925 0.0720 0.0989
vn 0.9925 0.0286 0.1189
vn 0.9925 -0.0191 0.1207
vn 0.9925 -0.0638 0.1041
vn -0.4048 0.3646 -0.8386
vn -0.8472 0.4940 -0.1956
vn -0.4013 0.9159 0.0136
vn -0.8382 0.0029 -0.5453
vn -0.8479 0.5301 0.0080
vn -0.4255 0.0121 -0.9049
vn -0.8386 -0.2058 -0.5044
vn -0.4259 -0.3352 -0.8404
vn -0.8381 -0.3836 -0.3878
vn -0.4257 -0.6310 -0.6485
vn -0.8389 -0.5017 -0.2110
vn -0.4264 -0.8310 -0.3573
vn -0.8380 -0.5457 -0.0030
vn -0.4256 -0.9048 -0.0122
vn -0.8382 -0.5050 0.2058
vn -0.3870 -0.8449 0.3692
vn -0.8382 -0.3878 0.3835
vn -0.3889 -0.6518 0.6511
vn -0.8376 -0.2120 0.5035
vn -0.3879 -0.3532 0.8514
vn -0.8382 -0.0029 0.5453
vn -0.3887 -0.0005 0.9214
vn -0.8386 0.2058 0.5044
vn -0.3893 0.3522 0.8511
vn -0.8381 0.3837 0.3878
vn -0.3886 0.6511 0.6519
vn -0.8389 0.5017 0.2110
vn -0.3895 0.8506 0.3532
vn -0.9856 -0.1344 0.1030
vn -0.9887 -0.1448 -0.0386
vn -0.9803 -0.1481 0.1303
vn -0.9806 -0.1882 -0.0554
vn -0.9807 -0.1520 -0.1231
vn -0.9806 -0.0938 -0.1723
vn -0.9806 -0.0207 -0.1949
vn -0.9806 0.0555 -0.1880
vn -0.9806 0.1232 -0.1525
vn -0.9807 0.1720 -0.0935
vn -0.9806 0.1948 -0.0206
vn -0.9806 0.1878 0.0555
vn -0.9806 0.1526 0.1232
vn -0.9806 0.0937 0.1722
vn -0.9806 0.0208 0.1950
vn -0.9807 -0.0556 0.1874
usemtl materials_are_bae
s 1
f 1/1/1 2/2/2 3/3/3
f 4/4/4 1/1/1 3/3/3
f 2/2/2 1/1/1 5/5/5
f 6/6/6 1/1/1 4/4/4
f 2/2/2 5/5/5 7/7/7
f 6/6/6 4/4/4 8/8/8
f 5/5/5 9/9/9 7/7/7
f 10/10/10 6/6/6 8/8/8
f 9/9/9 5/5/5 11/11/11
f 10/10/10 12/12/12 6/6/6
f 9/9/9 11/11/11 13/13/13
f 12/12/12 10/10/10 14/14/14
f 11/11/11 15/15/15 13/13/13
f 16/16/16 12/12/12 14/14/14
f 15/15/15 11/11/11 17/17/17
f 16/16/16 18/18/18 12/12/12
f 15/15/15 17/17/17 19/19/19
f 18/18/18 16/16/16 20/20/20
f 17/17/17 21/21/21 19/19/19
f 22/22/22 18/18/18 20/20/20
f 21/21/21 17/17/17 23/23/23
f 22/22/22 23/23/23 18/18/18
f 21/21/21 23/23/23 24/24/24
f 23/23/23 22/22/22 24/24/24
f 25/25/25 1/1/1 26/26/26
f 26/26/26 1/1/1 6/6/6
f 1/1/1 25/25/25 5/5/5
f 26/26/26 6/6/6 27/27/27
f 28/28/28 5/5/5 25/25/25
f 12/12/12 27/27/27 6/6/6
f 5/5/5 28/28/28 11/11/11
f 27/27/27 12/12/12 29/29/29
f 30/30/30 11/11/11 28/28/28
f 18/18/18 29/29/29 12/12/12
f 11/11/11 30/30/30 17/17/17
f 29/29/29 18/18/18 31/31/31
f 32/32/32 17/17/17 30/30/30
f 23/23/23 31/31/31 18/18/18
f 17/17/17 32/32/32 23/23/23
f 31/31/31 23/23/23 32/32/32
f 33/33/33 25/25/25 26/26/26
f 26/26/26 34/34/34 33/33/33
f 34/34/34 26/26/26 27/27/27
f 25/25/25 33/33/33 35/35/35
f 34/34/34 35/35/35 33/33/33
f 35/35/35 28/28/28 25/25/25
f 27/27/27 36/36/36 34/34/34
f 36/36/36 35/35/35 34/34/34
f 36/36/36 27/27/27 29/29/29
f 29/29/29 37/37/37 36/36/36
f 37/37/37 35/35/35 36/36/36
f 37/37/37 29/29/29 31/31/31
f 31/31/31 38/38/38 37/37/37
f 38/38/38 35/35/35 37/37/37
f 38/38/38 31/31/31 32/32/32
f 28/28/28 35/35/35 39/39/39
f 39/39/39 30/30/30 28/28/28
f 40/40/40 35/35/35 38/38/38
f 35/35/35 40/40/40 39/39/39
f 32/32/32 40/40/40 38/38/38
f 39/39/39 40/40/40 30/30/30
f 40/40/40 32/32/32 30/30/30
f 41/41/41 42/42/42 43/43/43
f 44/44/44 45/45/45 46/46/46
f 44/44/44 47/47/47 48/48/48
f 49/49/49 50/50/50 46/46/46
f 50/50/50 47/47/47 44/44/44
f 51/51/51 52/52/52 46/46/46
f 52/52/52 53/53/53 46/46/46
f 54/54/54 46/46/46 55/55/55
f 56/56/56 53/53/53 52/52/52
f 53/53/53 55/55/55 46/46/46
f 48/48/48 47/47/47 57/57/57
f 58/58/58 59/59/59 60/60/60
f 61/61/61 62/62/62 49/49/49
f 63/63/63 56/56/56 64/64/64
f 56/56/56 60/60/60 59/59/59
f 49/49/49 54/54/54 61/61/61
f 65/65/65 66/66/66 57/57/57
f 58/58/58 67/67/67 68/68/68
f 68/68/68 59/59/59 58/58/58
f 59/59/59 69/69/69 70/70/70
f 71/71/71 57/57/57 62/62/62
f 62/62/62 72/72/72 71/71/71
f 61/61/61 73/73/73 74/74/74
f 64/64/64 75/75/75 76/76/76
f 45/45/45 48/48/48 77/77/77
f 50/50/50 49/49/49 47/47/47
f 52/52/52 60/60/60 56/56/56
f 46/46/46 54/54/54 49/49/49
f 47/47/47 49/49/49 62/62/62
f 59/59/59 64/64/64 56/56/56
f 71/71/71 78/78/78 57/57/57
f 68/68/68 69/69/69 59/59/59
f 79/79/79 43/43/43 42/42/42
f 77/77/77 51/51/51 45/45/45
f 45/45/45 51/51/51 46/46/46
f 46/46/46 50/50/50 44/44/44
f 48/48/48 45/45/45 44/44/44
f 60/60/60 52/52/52 51/51/51
f 51/51/51 77/77/77 60/60/60
f 63/63/63 55/55/55 53/53/53
f 53/53/53 56/56/56 63/63/63
f 55/55/55 63/63/63 54/54/54
f 77/77/77 48/48/48 66/66/66
f 66/66/66 58/58/58 77/77/77
f 57/57/57 66/66/66 48/48/48
f 60/60/60 77/77/77 58/58/58
f 62/62/62 57/57/57 47/47/47
f 63/63/63 64/64/64 76/76/76
f 76/76/76 61/61/61 54/54/54
f 54/54/54 63/63/63 76/76/76
f 66/66/66 80/80/80 81/81/81
f 81/81/81 58/58/58 66/66/66
f 65/65/65 80/80/80 66/66/66
f 81/81/81 67/67/67 58/58/58
f 57/57/57 78/78/78 65/65/65
f 70/70/70 64/64/64 59/59/59
f 74/74/74 72/72/72 62/62/62
f 70/70/70 82/82/82 64/64/64
f 74/74/74 62/62/62 61/61/61
f 83/83/83 73/73/73 61/61/61
f 64/64/64 82/82/82 75/75/75
f 83/83/83 61/61/61 76/76/76
f 76/76/76 84/84/84 83/83/83
f 75/75/75 84/84/84 76/76/76
f 85/85/85 86/86/86 87/87/87
f 88/88/88 87/87/87 86/86/86
f 87/87/87 88/88/88 89/89/89
f 86/86/86 85/85/85 90/90/90
f 91/91/91 90/90/90 85/85/85
f 92/92/92 89/89/89 88/88/88
f 90/90/90 91/91/91 93/93/93
f 89/89/89 92/92/92 94/94/94
f 95/95/95 94/94/94 92/92/92
f 94/94/94 95/95/95 96/96/96
f 97/97/97 96/96/96 95/95/95
f 96/96/96 97/97/97 98/98/98
f 99/99/99 98/98/98 97/97/97
f 98/98/98 99/99/99 100/100/100
f 101/101/101 100/100/100 99/99/99
f 100/100/100 101/101/101 102/102/102
f 103/103/103 102/102/102 101/101/101
f 102/102/102 103/103/103 104/104/104
f 105/105/105 104/104/104 103/103/103
f 104/104/104 105/105/105 106/106/106
f 107/107/107 106/106/106 105/105/105
f 106/106/106 107/107/107 108/108/108
f 109/109/109 108/108/108 107/107/107
f 108/108/108 109/109/109 110/110/110
f 111/111/111 110/110/110 109/109/109
f 110/110/110 111/111/111 112/112/112
f 113/113/113 112/112/112 111/111/111
f 112/112/112 113/113/113 114/114/114
f 115/115/115 114/114/114 113/113/113
f 114/114/114 115/115/115 116/116/116
f 93/93/93 116/116/116 115/115/115
f 116/116/116 93/93/93 91/91/91
f 101/117/101 117/118/117 103/119/103
f 117/118/117 101/117/101 118/120/118
f 99/121/99 118/120/118 101/117/101
f 119/122/119 103/119/103 117/118/117
f 103/119/103 119/122/119 105/123/105
f 118/120/118 3/124/3 117/118/117
f 2/125/2 117/118/117 3/124/3
f 117/118/117 2/125/2 119/122/119
f 3/124/3 118/120/118 4/126/4
f 7/127/7 119/122/119 2/125/2
f 120/128/120 4/126/4 118/120/118
f 118/120/118 99/121/99 120/128/120
f 4/126/4 120/128/120 8/129/8
f 97/130/97 120/128/120 99/121/99
f 121/131/121 8/129/8 120/128/120
f 120/128/120 97/130/97 121/131/121
f 8/129/8 121/131/121 10/132/10
f 95/133/95 121/131/121 97/130/97
f 122/134/122 10/132/10 121/131/121
f 121/131/121 95/133/95 122/134/122
f 10/132/10 122/134/122 14/135/14
f 92/136/92 122/134/122 95/133/95
f 123/137/123 14/135/14 122/134/122
f 122/134/122 92/136/92 123/137/123
f 14/135/14 123/137/123 16/138/16
f 88/139/88 123/137/123 92/136/92
f 124/140/124 16/138/16 123/137/123
f 123/137/123 88/139/88 124/140/124
f 16/138/16 124/140/124 20/141/20
f 86/142/86 124/140/124 88/139/88
f 125/143/125 20/141/20 124/140/124
f 124/140/124 86/142/86 125/143/125
f 20/141/20 125/143/125 22/144/22
f 90/145/90 125/143/125 86/142/86
f 126/146/126 22/144/22 125/143/125
f 125/143/125 90/145/90 126/146/126
f 22/144/22 126/146/126 24/147/24
f 93/148/93 126/146/126 90/145/90
f 127/149/127 24/147/24 126/146/126
f 126/146/126 93/148/93 127/149/127
f 24/147/24 127/149/127 21/150/21
f 115/151/115 127/149/127 93/148/93
f 128/152/128 21/150/21 127/149/127
f 127/149/127 115/151/115 128/152/128
f 21/150/21 128/152/128 19/153/19
f 113/154/113 128/152/128 115/151/115
f 129/155/129 19/153/19 128/152/128
f 128/152/128 113/154/113 129/155/129
f 19/153/19 129/155/129 15/156/15
f 111/157/111 129/155/129 113/154/113
f 130/158/130 15/156/15 129/155/129
f 129/155/129 111/157/111 130/158/130
f 15/156/15 130/158/130 13/159/13
f 109/160/109 130/158/130 111/157/111
f 131/161/131 13/159/13 130/158/130
f 130/158/130 109/160/109 131/161/131
f 13/159/13 131/161/131 9/162/9
f 107/163/107 131/161/131 109/160/109
f 132/164/132 9/162/9 131/161/131
f 107/163/107 132/164/132 131/161/131
f 9/162/9 132/164/132 7/127/7
f 105/123/105 132/164/132 107/163/107
f 7/127/7 132/164/132 119/122/119
f 132/164/132 105/123/105 119/122/119
f 42/42/42 133/165/133 79/79/79
f 43/43/43 134/166/134 41/41/41
f 135/167/135 41/41/41 134/166/134
f 136/168/136 79/79/79 133/165/133
f 134/166/134 137/169/137 135/167/135
f 133/165/133 138/170/138 136/168/136
f 139/171/139 136/168/136 138/170/138
f 138/170/138 140/172/140 139/171/139
f 141/173/141 139/171/139 140/172/140
f 140/172/140 142/174/142 141/173/141
f 143/175/143 141/173/141 142/174/142
f 142/174/142 144/176/144 143/175/143
f 145/177/145 143/175/143 144/176/144
f 144/176/144 146/178/146 145/177/145
f 147/179/147 145/177/145 146/178/146
f 146/178/146 148/180/148 147/179/147
f 149/181/149 147/179/147 148/180/148
f 148/180/148 150/182/150 149/181/149
f 151/183/151 149/181/149 150/182/150
f 150/182/150 152/184/152 151/183/151
f 153/185/153 151/183/151 152/184/152
f 152/184/152 154/186/154 153/185/153
f 155/187/155 153/185/153 154/186/154
f 154/186/154 156/188/156 155/187/155
f 157/189/157 155/187/155 156/188/156
f 156/188/156 158/190/158 157/189/157
f 159/191/159 157/189/157 158/190/158
f 158/190/158 160/192/160 159/191/159
f 137/169/137 159/191/159 160/192/160
f 160/192/160 135/167/135 137/169/137
f 145/193/145 147/194/147 161/195/161
f 161/195/161 162/196/162 145/193/145
f 143/197/143 145/193/145 162/196/162
f 163/198/163 161/195/161 147/194/147
f 147/194/147 149/199/149 163/198/163
f 162/196/162 161/195/161 84/200/84
f 83/201/83 84/200/84 161/195/161
f 161/195/161 163/198/163 83/201/83
f 84/200/84 75/202/75 162/196/162
f 73/203/73 83/201/83 163/198/163
f 164/204/164 162/196/162 75/202/75
f 162/196/162 164/204/164 143/197/143
f 75/202/75 82/205/82 164/204/164
f 141/206/141 143/197/143 164/204/164
f 165/207/165 164/204/164 82/205/82
f 164/204/164 165/207/165 141/206/141
f 82/205/82 70/208/70 165/207/165
f 139/209/139 141/206/141 165/207/165
f 166/210/166 165/207/165 70/208/70
f 165/207/165 166/210/166 139/209/139
f 70/208/70 69/211/69 166/210/166
f 136/212/136 139/209/139 166/210/166
f 167/213/167 166/210/166 69/211/69
f 166/210/166 167/213/167 136/212/136
f 69/211/69 68/214/68 167/213/167
f 79/215/79 136/212/136 167/213/167
f 168/216/168 167/213/167 68/214/68
f 167/213/167 168/216/168 79/215/79
f 68/214/68 67/217/67 168/216/168
f 43/218/43 79/215/79 168/216/168
f 169/219/169 168/216/168 67/217/67
f 168/216/168 169/219/169 43/218/43
f 67/217/67 81/220/81 169/219/169
f 134/221/134 43/218/43 169/219/169
f 170/222/170 169/219/169 81/220/81
f 169/219/169 170/222/170 134/221/134
f 81/220/81 80/223/80 170/222/170
f 137/224/137 134/221/134 170/222/170
f 171/225/171 170/222/170 80/223/80
f 170/222/170 171/225/171 137/224/137
f 80/223/80 65/226/65 171/225/171
f 159/227/159 137/224/137 171/225/171
f 172/228/172 171/225/171 65/226/65
f 171/225/171 172/228/172 159/227/159
f 65/226/65 78/229/78 172/228/172
f 157/230/157 159/227/159 172/228/172
f 173/231/173 172/228/172 78/229/78
f 172/228/172 173/231/173 157/230/157
f 78/229/78 71/232/71 173/231/173
f 155/233/155 157/230/157 173/231/173
f 174/234/174 173/231/173 71/232/71
f 173/231/173 174/234/174 155/233/155
f 71/232/71 72/235/72 174/234/174
f 153/236/153 155/233/155 174/234/174
f 175/237/175 174/234/174 72/235/72
f 174/234/174 175/237/175 153/236/153
f 72/235/72 74/238/74 175/237/175
f 151/239/151 153/236/153 175/237/175
f 176/240/176 175/237/175 74/238/74
f 151/239/151 175/237/175 176/240/176
f 74/238/74 73/203/73 176/240/176
f 149/199/149 151/239/151 176/240/176
f 73/203/73 163/198/163 176/240/176
f 176/240/176 163/198/163 149/199/149
f 160/241/160 91/91/91 135/242/135
f 135/242/135 85/85/85 41/243/41
f 85/85/85 135/242/135 91/91/91
f 41/243/41 87/87/87 42/244/42
f 87/87/87 41/243/41 85/85/85
f 42/244/42 89/89/89 133/245/133
f 89/89/89 42/244/42 87/87/87
f 94/94/94 133/245/133 89/89/89
f 133/245/133 94/94/94 138/246/138
f 96/96/96 138/246/138 94/94/94
f 138/246/138 96/96/96 140/247/140
f 98/98/98 140/247/140 96/96/96
f 140/247/140 98/98/98 142/248/142
f 100/100/100 142/248/142 98/98/98
f 142/248/142 100/100/100 144/249/144
f 102/102/102 144/249/144 100/100/100
f 144/249/144 102/102/102 146/250/146
f 104/104/104 146/250/146 102/102/102
f 146/250/146 104/104/104 148/251/148
f 106/106/106 148/251/148 104/104/104
f 148/251/148 106/106/106 150/252/150
f 108/108/108 150/252/150 106/106/106
f 150/252/150 108/108/108 152/253/152
f 110/110/110 152/253/152 108/108/108
f 152/253/152 110/110/110 154/254/154
f 112/112/112 154/254/154 110/110/110
f 154/254/154 112/112/112 156/255/156
f 114/114/114 156/255/156 112/112/112
f 156/255/156 114/114/114 158/256/158
f 116/116/116 158/256/158 114/114/114
f 158/256/158 116/116/116 160/241/160
f 91/91/91 160/241/160 116/116/116
