# Blender v3.0.1 OBJ File: ''
# www.blender.org
mtllib pegeout.mtl
o Mesh.002
v -0.507914 -1.870330 -0.032917
v -0.532342 -1.863592 -0.069138
v -0.592147 -1.825687 -0.103673
v -0.795148 -1.727135 -0.101988
v -0.809468 -1.661434 -0.101988
v -0.269510 -1.871173 -0.103673
v -0.394200 -1.889704 -0.069138
v -0.424524 -1.886335 -0.032918
v 0.817034 -1.661433 -0.101988
v 0.278845 -1.871173 -0.103673
v 0.602241 -1.825687 -0.103673
v -0.785424 1.481532 -0.170103
v -0.788082 1.607895 -0.175118
v -0.644886 1.756987 -0.170064
v 0.217388 1.917501 -0.165010
v 0.443974 1.867804 -0.166695
v 0.793047 1.480859 -0.170068
v -0.202934 1.917501 -0.165010
v -0.421939 1.867803 -0.166695
v 0.802715 -1.727135 -0.101988
v 0.634046 1.757307 -0.170064
v 0.794088 1.607373 -0.175118
v -0.783028 1.603683 -0.114471
v -0.769551 1.546404 0.201402
v -0.757758 1.649169 0.155074
v -0.805846 0.867126 0.257981
v -0.803320 0.882288 0.219234
v -0.803320 0.805636 -0.113485
v -0.800793 1.066758 0.360745
v -0.794054 1.066758 0.411285
v -0.794820 1.311395 0.342913
v -0.789766 1.307183 0.387557
v -0.778816 1.461330 0.282266
v -0.787239 1.474807 0.177817
v -0.740145 -0.377911 -0.028486
v -0.769631 0.663911 -0.056148
v -0.789000 0.750042 0.229342
v -0.759518 0.767731 0.459298
v -0.690448 0.790474 0.520787
v -0.612727 1.142797 0.499370
v -0.617165 0.837644 0.559535
v -0.537303 0.271187 0.862781
v -0.476656 0.279610 0.900686
v -0.447174 0.022700 0.983234
v -0.510189 0.013772 0.946087
v -0.438751 -0.220732 1.025350
v -0.505135 -0.219553 0.981465
v -0.432855 -0.753926 1.031246
v -0.497714 -0.747187 0.984918
v -0.442679 -1.142076 0.969664
v -0.500800 -1.117017 0.928209
v -0.493502 -1.393775 0.824598
v -0.552465 -1.349974 0.797644
v -0.683708 -1.229757 0.588173
v -0.705609 -0.961054 0.567115
v -0.704767 -0.260827 0.519869
v -0.772153 -0.268408 0.428898
v -0.544976 -1.658906 0.622414
v -0.621035 -1.559947 0.616454
v -0.740987 -1.434443 0.484567
v -0.805004 -1.136259 0.404546
v -0.802477 -0.791746 0.230184
v -0.771311 -0.672136 -0.029253
v -0.773837 -0.376226 -0.095873
v -0.803319 -0.918938 -0.081478
v -0.826062 -0.923150 -0.171607
v -0.777207 -0.374541 -0.155678
v -0.826063 0.799740 -0.180029
v -0.672168 -1.600786 0.531442
v -0.566877 -1.713658 0.539023
v -0.698253 -1.637655 0.399030
v -0.819323 -1.007383 0.210810
v -0.819323 -1.186799 0.331263
v -0.804161 -1.436128 0.395280
v -0.819323 -1.408331 0.331263
v -0.813680 -1.594047 0.196196
v -0.800202 -1.609209 0.260213
v -0.796833 -1.766724 0.207988
v -0.745451 -1.699338 0.261055
v -0.718761 -1.644506 0.387684
v -0.809467 -1.766725 -0.073349
v -0.124563 0.101037 0.952068
v -0.090010 0.101952 1.012441
v 0.123924 0.101037 0.952068
v 0.089142 0.101962 1.013506
v 0.484441 -1.734076 0.957686
v 0.393469 -1.741656 1.002329
v 0.488652 -1.794723 0.977059
v 0.569516 -1.723968 0.847340
v 0.476860 -1.792197 0.967794
v 0.553512 -1.721441 0.842287
v 0.600682 -1.533602 0.621597
v 0.578782 -1.528547 0.614858
v 0.539192 -1.525178 0.871768
v 0.548458 -1.399672 0.723519
v 0.554354 -1.530232 0.876822
v 0.569516 -1.403883 0.729415
v 0.487810 -1.584141 0.977901
v 0.475175 -1.579087 0.962740
v 0.470121 -1.729864 0.942524
v 0.385046 -1.808201 1.033495
v 0.388415 -1.806516 1.046130
v -0.390738 -1.741657 1.002329
v 0.380834 -1.601830 1.016649
v -0.378103 -1.601830 1.016649
v 0.377465 -1.598461 1.001487
v -0.374734 -1.598461 1.001487
v 0.390942 -1.741656 0.986325
v -0.387369 -1.741657 0.986325
v -0.383999 -1.808201 1.033495
v -0.485921 -1.729864 0.942524
v -0.469917 -1.579087 0.962740
v -0.482552 -1.584141 0.977901
v -0.500241 -1.734076 0.957686
v -0.387369 -1.806516 1.046130
v -0.525510 -1.529390 0.875980
v -0.510349 -1.525178 0.871768
v -0.533934 -1.723125 0.843129
v -0.479182 -1.792197 0.967794
v -0.490975 -1.794723 0.977059
v -0.549096 -1.725652 0.847340
v -0.594581 -1.533602 0.622439
v -0.560888 -1.404726 0.730257
v -0.537303 -1.405568 0.730257
v -0.570996 -1.533602 0.622439
v 0.533354 1.422313 0.339755
v 0.534103 1.483523 -0.160799
v -0.496813 1.422313 0.339755
v -0.497748 1.483522 -0.160799
v 0.282215 -1.775990 0.424467
v -0.272879 -1.775990 0.424467
v -0.283830 -1.832426 0.299802
v 0.816192 -1.766724 -0.073349
v 0.602241 -1.855169 -0.072507
v 0.278845 -1.915816 -0.072507
v -0.269510 -1.915816 -0.072507
v -0.293938 -1.917501 0.210515
v -0.597201 -1.861065 0.211358
v -0.293938 -1.833268 0.269478
v -0.598044 -1.778517 0.266951
v -0.350374 -1.813895 0.429521
v 0.360551 -1.813895 0.429521
v 0.279890 -1.836181 0.270502
v -0.592147 -1.855169 -0.072507
v -0.672168 -1.715342 0.365504
v -0.582785 -1.756170 0.353348
v 0.261156 -1.797890 0.534812
v 0.576971 -1.713657 0.539023
v 0.555913 -1.658906 0.622414
v 0.592041 -1.756146 0.353380
v 0.656150 -1.706918 0.373927
v 0.707223 -1.634822 0.400007
v 0.678892 -1.600786 0.531442
v -0.223957 -1.426626 0.840602
v -0.250137 -1.737243 0.624098
v -0.181683 -1.161788 0.986165
v 0.192920 -1.165372 0.985226
v 0.232585 -1.426626 0.840602
v 0.452716 -1.146830 0.967525
v 0.502972 -1.393775 0.824598
v 0.259472 -1.737243 0.624098
v -0.250979 -1.797890 0.534812
v -0.646899 -1.706919 0.373927
v -0.482645 -1.567935 0.540708
v -0.507072 -1.664088 -0.090196
v 0.544120 -1.664088 -0.090196
v 0.518850 -1.567935 0.540708
v 0.727058 -1.642493 0.388523
v 0.680577 -1.715342 0.365504
v 0.752175 -1.699338 0.261055
v 0.304115 -1.917501 0.210515
v 0.607294 -1.861065 0.211358
v 0.803557 -1.766724 0.207988
v 0.608137 -1.778517 0.266951
v -0.538145 -1.572349 0.736996
v -0.368837 -1.627100 0.784166
v -0.540672 -1.510859 0.795116
v -0.341041 -1.543710 0.818701
v 0.363146 -1.627100 0.784166
v 0.389258 -1.701225 0.815332
v -0.399161 -1.701225 0.815332
v 0.321871 -1.517597 0.753000
v 0.561093 -1.427468 0.741208
v -0.550780 -1.427468 0.741208
v -0.316613 -1.517598 0.753000
v 0.343772 -1.543709 0.818701
v 0.561935 -1.510859 0.795116
v 0.561935 -1.572348 0.736996
v 0.580466 -1.628785 0.750473
v 0.592259 -1.549605 0.640970
v 0.363146 -1.632154 0.730257
v -0.367153 -1.631312 0.731100
v -0.573523 -1.549606 0.640970
v -0.563415 -1.629627 0.750473
v 0.794930 1.475127 0.177817
v 0.801669 1.311716 0.342913
v 0.807599 1.066758 0.360745
v 0.810126 0.882288 0.219234
v 0.810126 0.805636 -0.113485
v 0.831185 0.799740 -0.180029
v 0.782330 -0.374541 -0.155678
v 0.831185 -0.923149 -0.171607
v 0.810127 -0.918937 -0.081478
v 0.825289 -1.007382 0.210810
v 0.825289 -1.186798 0.331263
v 0.825289 -1.408331 0.331263
v 0.819561 -1.594047 0.196196
v -0.463614 -1.882834 -0.130455
v -0.463271 -1.668171 -0.130627
v -0.403466 -1.668171 -0.101988
v -0.520549 -1.668172 -0.099461
v -0.520549 -1.882123 -0.099461
v -0.496122 -1.668171 -0.050606
v -0.496121 -1.882123 -0.050606
v -0.423681 -1.882123 -0.052291
v -0.423681 -1.668171 -0.052291
v -0.403466 -1.890546 -0.101988
v 0.745268 -1.434442 0.484567
v 0.625657 0.837645 0.559535
v 0.279813 0.881539 0.581503
v 0.485283 0.279611 0.900686
v -0.270227 0.881539 0.581503
v -0.202057 0.290561 0.921744
v 0.211526 0.290561 0.921744
v -0.189422 0.032808 1.001765
v 0.198049 0.032809 1.001765
v -0.186053 -0.226629 1.043881
v 0.194680 -0.226628 1.043881
v -0.186053 -0.758980 1.045566
v 0.194680 -0.758980 1.045566
v 0.456644 0.022701 0.983234
v 0.447378 -0.220732 1.025350
v 0.441482 -0.753926 1.031246
v 0.068330 -0.053109 1.045566
v -0.068969 -0.053109 1.045566
v -0.098451 -0.134815 1.035458
v -0.124563 -0.184512 1.018612
v 0.098654 -0.134815 1.035458
v 0.123924 -0.184512 1.018612
v -0.491817 -1.224467 0.886088
v -0.454755 -1.246368 0.945893
v -0.472444 -1.162135 0.916412
v -0.445489 -1.167189 0.955159
v -0.202057 -1.259845 0.977901
v -0.188579 -1.158766 0.980429
v 0.198049 -1.158766 0.980429
v 0.216580 -1.259003 0.977901
v 0.454117 -1.168031 0.955159
v 0.467594 -1.246368 0.945893
v 0.479387 -1.165504 0.915570
v 0.502972 -1.225310 0.886088
v 0.760429 0.537776 0.537634
v 0.794122 0.539461 0.589016
v 0.756217 0.547042 0.565431
v 0.800861 0.520087 0.520787
v 0.911206 0.525141 0.601651
v 0.919629 0.507452 0.535950
v 0.627597 -1.557133 0.618154
v 0.691359 -1.229757 0.588173
v 0.711574 -0.961054 0.567115
v 0.510054 -1.125967 0.924452
v 0.503814 -0.747187 0.984918
v 0.711574 -0.260827 0.519869
v 0.511942 -0.219553 0.981465
v 0.516996 0.013772 0.946087
v 0.544246 0.271188 0.862781
v 0.697254 0.790474 0.520787
v 0.766325 0.767731 0.459298
v 0.778118 -0.268408 0.428898
v 0.816865 -1.136258 0.404546
v 0.808442 -1.436127 0.395280
v 0.559408 -1.349974 0.797644
v 0.808442 -0.791746 0.230184
v 0.799176 1.067601 0.411285
v 0.616391 1.073497 0.514049
v 0.803557 -1.608366 0.260213
v 0.794964 0.750043 0.229342
v 0.743583 -0.377910 -0.028486
v 0.776434 -0.672135 -0.029253
v 0.780645 -0.376225 -0.095873
v 0.774995 0.663784 -0.056005
v 0.811811 0.867969 0.257981
v 0.794930 1.307504 0.387557
v 0.786507 1.461650 0.282266
v 0.775557 1.545883 0.201402
v 0.787349 1.603161 -0.114471
v 0.764607 1.648647 0.155074
v 0.714101 0.600951 0.519945
v 0.760429 0.575681 0.537634
v 0.714943 0.573154 0.508995
v 0.784014 0.596739 0.518260
v 0.802545 0.557149 0.504783
v 0.757060 0.571469 0.559534
v 0.683777 0.607689 0.566273
v 0.683777 0.536934 0.578066
v 0.714943 0.529353 0.518260
v 0.761271 0.553780 0.530895
v 0.922950 0.542752 0.520785
v 0.907836 0.573154 0.532580
v 0.903625 0.564731 0.588174
v 0.778960 0.587474 0.574696
v -0.907768 0.573153 0.532580
v -0.784788 0.596739 0.518260
v -0.922950 0.542591 0.520782
v -0.803319 0.557149 0.504783
v -0.903556 0.564730 0.588174
v -0.778892 0.587473 0.574696
v -0.757834 0.571469 0.559534
v -0.760360 0.575681 0.537634
v -0.762045 0.553780 0.530895
v -0.911137 0.525141 0.601651
v -0.920403 0.507452 0.535950
v -0.794896 0.539460 0.589016
v -0.756991 0.547041 0.565431
v -0.683709 0.536934 0.578066
v -0.683709 0.607689 0.566273
v -0.714032 0.600950 0.519945
v -0.715717 0.573154 0.508995
v -0.760360 0.537775 0.537634
v -0.801635 0.520087 0.520787
v -0.715717 0.529353 0.518260
v -0.200372 -1.249737 0.909673
v 0.215738 -1.248895 0.909673
v 0.621051 1.403954 0.423764
v 0.356373 1.610894 0.353021
v 0.457544 1.360823 0.437465
v 0.548516 1.091278 0.513274
v 0.425536 1.366719 0.459365
v 0.330260 1.611736 0.366499
v -0.415107 1.366719 0.459365
v 0.607934 1.587157 0.317644
v 0.514823 1.100544 0.532648
v -0.505237 1.100543 0.532648
v -0.539772 1.091278 0.513274
v -0.448801 1.360823 0.437465
v -0.609509 1.424267 0.414511
v -0.347814 1.611736 0.353021
v -0.319175 1.611736 0.366499
v -0.600243 1.586837 0.317644
v -0.482495 1.655975 0.310392
v -0.283797 1.765882 0.280581
v -0.143128 1.795363 0.278054
v 0.157583 1.795363 0.278054
v -0.165029 1.830741 0.187083
v 0.179483 1.830741 0.187083
v 0.217388 1.899812 0.164340
v 0.419547 1.857696 0.167709
v 0.217388 1.906551 0.090215
v 0.504622 1.824845 0.090215
v 0.612145 1.771627 0.166025
v 0.495357 1.828214 0.045572
v 0.630676 1.748041 -0.090885
v 0.436394 1.849272 0.003455
v 0.441448 1.835795 -0.084147
v 0.217388 1.913289 -0.084989
v 0.441447 1.867804 -0.104363
v 0.635730 1.756465 -0.106890
v 0.594456 1.732037 0.190452
v 0.419547 1.795364 0.188768
v 0.291513 1.766724 0.280581
v 0.498181 1.654637 0.309833
v -0.412673 1.857695 0.167709
v -0.412673 1.795363 0.188768
v -0.202934 1.899812 0.164340
v -0.585081 1.731717 0.190452
v -0.602770 1.771307 0.166025
v -0.202934 1.906551 0.090215
v -0.490168 1.824845 0.090215
v -0.486798 1.828214 0.045572
v -0.647413 1.756145 -0.106890
v -0.419412 1.867803 -0.104363
v -0.211475 1.912563 -0.082555
v -0.642359 1.747721 -0.090885
v -0.417727 1.849272 0.003455
v 0.006806 1.909920 -0.057192
v -0.202934 1.909920 -0.048769
v 0.217388 1.909920 -0.048769
v 0.217388 1.810525 -0.042030
v 0.434709 1.800417 0.012721
v 0.495357 1.798733 0.070842
v 0.217388 1.810525 0.077580
v -0.202934 1.810525 0.077580
v -0.482587 1.798733 0.070842
v -0.418570 1.800417 0.012721
v -0.202934 1.810525 -0.042030
v -0.690448 0.790474 0.520787
v -0.617165 0.837644 0.559535
v -0.537303 0.271187 0.862781
v -0.476656 0.279610 0.900686
v -0.447174 0.022700 0.983234
v -0.510189 0.013772 0.946087
v -0.438751 -0.220732 1.025350
v -0.505135 -0.219553 0.981465
v -0.432855 -0.753926 1.031246
v -0.497714 -0.747187 0.984918
v -0.442679 -1.142076 0.969664
v -0.500800 -1.117017 0.928209
v -0.493502 -1.393775 0.824598
v -0.552465 -1.349974 0.797644
v -0.683708 -1.229757 0.588173
v -0.705609 -0.961054 0.567115
v -0.544976 -1.658906 0.622414
v -0.621035 -1.559947 0.616454
v 0.555913 -1.658906 0.622414
v -0.181683 -1.161788 0.986165
v 0.192920 -1.165372 0.985226
v 0.452716 -1.146830 0.967525
v 0.502972 -1.393775 0.824598
v 0.625657 0.837645 0.559535
v 0.485283 0.279611 0.900686
v -0.189422 0.032808 1.001765
v 0.198049 0.032809 1.001765
v -0.186053 -0.226629 1.043881
v 0.194680 -0.226628 1.043881
v -0.186053 -0.758980 1.045566
v 0.194680 -0.758980 1.045566
v 0.456644 0.022701 0.983234
v 0.447378 -0.220732 1.025350
v 0.441482 -0.753926 1.031246
v 0.627597 -1.557133 0.618154
v 0.691359 -1.229757 0.588173
v 0.711574 -0.961054 0.567115
v 0.510054 -1.125967 0.924452
v 0.503814 -0.747187 0.984918
v 0.511942 -0.219553 0.981465
v 0.516996 0.013772 0.946087
v 0.544246 0.271188 0.862781
v 0.697254 0.790474 0.520787
v 0.559408 -1.349974 0.797644
vt 0.295294 0.588127
vt 0.295294 0.588127
vt 0.295294 0.588127
vt 0.295294 0.588127
vt 0.295294 0.588127
vt 0.295294 0.588127
vt 0.295294 0.588127
vt 0.295294 0.588127
vt 0.295294 0.588127
vt 0.295294 0.588127
vt 0.295294 0.588127
vt 0.295294 0.588127
vt 0.295294 0.588127
vt 0.295294 0.588127
vt 0.295294 0.588127
vt 0.295294 0.588127
vt 0.295294 0.588127
vt 0.295294 0.588127
vt 0.021988 0.574637
vt 0.024780 0.569544
vt 0.033772 0.564414
vt 0.046724 0.537737
vt 0.055358 0.535856
vt 0.027795 0.606812
vt 0.019406 0.591824
vt 0.020203 0.585652
vt 0.055358 0.749595
vt 0.027795 0.678872
vt 0.033772 0.721369
vt 0.059685 0.746038
vt 0.043705 0.746406
vt 0.024868 0.728297
vt 0.004536 0.619342
vt 0.010805 0.590706
vt 0.059685 0.546576
vt 0.004559 0.672455
vt 0.010852 0.700128
vt 0.046724 0.747714
vt 0.024758 0.566678
vt 0.043686 0.546427
vt 0.386161 0.022447
vt 0.340799 0.030897
vt 0.347330 0.016049
vt 0.333299 0.128745
vt 0.338841 0.126528
vt 0.386662 0.137296
vt 0.318385 0.100096
vt 0.311102 0.100118
vt 0.320750 0.064877
vt 0.314323 0.065504
vt 0.329287 0.043221
vt 0.344306 0.041223
vt 0.394244 0.039981
vt 0.394886 0.021807
vt 0.375035 0.307450
vt 0.378394 0.157641
vt 0.337425 0.145522
vt 0.304280 0.143081
vt 0.004965 0.361173
vt 0.014898 0.363847
vt 0.000000 0.404560
vt 0.026061 0.414628
vt 0.025431 0.370245
vt 0.036951 0.286016
vt 0.045669 0.286860
vt 0.049916 0.249187
vt 0.040858 0.248263
vt 0.051131 0.213838
vt 0.041588 0.214429
vt 0.051972 0.137241
vt 0.042648 0.138654
vt 0.050544 0.082114
vt 0.042189 0.086110
vt 0.043214 0.047377
vt 0.034741 0.053924
vt 0.286874 0.430320
vt 0.256356 0.447440
vt 0.237239 0.413900
vt 0.289797 0.391707
vt 0.228826 0.360737
vt 0.296085 0.290943
vt 0.228981 0.284855
vt 0.233917 0.251277
vt 0.245806 0.214253
vt 0.295157 0.139681
vt 0.012828 0.212941
vt 0.309423 0.292135
vt 0.035779 0.011261
vt 0.024855 0.025524
vt 0.282793 0.477679
vt 0.302123 0.459829
vt 0.313660 0.417037
vt 0.338441 0.367339
vt 0.375477 0.349853
vt 0.384844 0.307242
vt 0.383277 0.385395
vt 0.396311 0.385989
vt 0.393442 0.306962
vt 0.396311 0.138151
vt 0.281700 0.491724
vt 0.295232 0.483618
vt 0.293798 0.499591
vt 0.314373 0.488885
vt 0.341441 0.398385
vt 0.324274 0.424287
vt 0.315198 0.460163
vt 0.324430 0.456154
vt 0.343928 0.482749
vt 0.334694 0.484945
vt 0.342289 0.507554
vt 0.871588 0.753489
vt 0.849516 0.753027
vt 0.858660 0.745619
vt 0.334416 0.497771
vt 0.316090 0.489914
vt 0.386768 0.492201
vt 0.382730 0.507369
vt 0.386756 0.501615
vt 0.123608 0.828036
vt 0.114938 0.823065
vt 0.123608 0.792285
vt 0.114785 0.797290
vt 0.092390 0.765556
vt 0.090875 0.778636
vt 0.083513 0.764947
vt 0.278087 0.950452
vt 0.286326 0.964447
vt 0.280877 0.971795
vt 0.724312 0.826897
vt 0.725621 0.825207
vt 0.742020 0.838600
vt 0.742730 0.836301
vt 0.772178 0.843168
vt 0.773105 0.840020
vt 0.683698 0.971888
vt 0.683368 0.929022
vt 0.707602 0.943957
vt 0.707759 0.971888
vt 0.891877 0.761153
vt 0.891164 0.758977
vt 0.912541 0.759662
vt 0.911697 0.756638
vt 0.305488 0.909772
vt 0.303165 0.937647
vt 0.281266 0.908002
vt 0.305488 0.954186
vt 0.876973 0.768651
vt 0.879135 0.770455
vt 0.709780 0.929039
vt 0.691314 0.917321
vt 0.686824 0.908760
vt 0.897445 0.125373
vt 0.909080 0.137545
vt 0.900024 0.138532
vt 0.716474 0.811952
vt 0.714643 0.812425
vt 0.081160 0.779355
vt 0.090875 0.891461
vt 0.110775 0.780449
vt 0.110775 0.889638
vt 0.872232 0.893266
vt 0.871588 0.784079
vt 0.873750 0.784550
vt 0.874390 0.892768
vt 0.927692 0.124263
vt 0.907200 0.126187
vt 0.927692 0.016044
vt 0.907200 0.014212
vt 0.897445 0.014731
vt 0.909080 0.000000
vt 0.930639 0.002321
vt 0.879938 0.906424
vt 0.877797 0.908256
vt 0.113682 0.904673
vt 0.092390 0.907223
vt 0.081160 0.890968
vt 0.715323 0.700814
vt 0.717148 0.701311
vt 0.930639 0.138291
vt 0.113682 0.765066
vt 0.475724 0.872134
vt 0.458712 0.845422
vt 0.478003 0.855546
vt 0.892198 0.914335
vt 0.892769 0.912149
vt 0.601005 0.929109
vt 0.619458 0.917393
vt 0.603348 0.944001
vt 0.627762 0.928844
vt 0.900024 0.000987
vt 0.726459 0.687663
vt 0.725171 0.685960
vt 0.083513 0.905887
vt 0.450288 0.859138
vt 0.453276 0.838071
vt 0.453805 0.901603
vt 0.478003 0.899678
vt 0.912525 0.915876
vt 0.912541 0.919269
vt 0.627093 0.970571
vt 0.603124 0.970571
vt 0.743581 0.679852
vt 0.773105 0.671207
vt 0.773085 0.674601
vt 0.743020 0.677669
vt 0.624019 0.908877
vt 0.714643 0.522969
vt 0.784673 0.522754
vt 0.714643 0.671180
vt 0.784673 0.671207
vt 0.126392 0.594088
vt 0.126392 0.673950
vt 0.107909 0.675503
vt 0.223060 0.700295
vt 0.217045 0.701463
vt 0.212875 0.669821
vt 0.208545 0.669262
vt 0.212582 0.622837
vt 0.206095 0.621987
vt 0.223059 0.544646
vt 0.216572 0.543797
vt 0.222655 0.526518
vt 0.913424 0.600510
vt 0.907425 0.578195
vt 0.912649 0.582558
vt 0.872919 0.597007
vt 0.872165 0.553349
vt 0.835949 0.724314
vt 0.827847 0.680688
vt 0.839352 0.680670
vt 0.847245 0.724417
vt 0.103557 0.676958
vt 0.103810 0.720736
vt 0.126690 0.685081
vt 0.223060 0.617652
vt 0.228523 0.526518
vt 0.228523 0.628799
vt 0.223060 0.537791
vt 0.126690 0.582800
vt 0.103671 0.594400
vt 0.911871 0.522754
vt 0.871588 0.524582
vt 0.907245 0.566190
vt 0.912743 0.554063
vt 0.067453 0.879185
vt 0.073565 0.910938
vt 0.069647 0.912868
vt 0.073565 0.878482
vt 0.912355 0.562671
vt 0.072296 0.921146
vt 0.319136 0.499968
vt 0.118631 0.731428
vt 0.103855 0.741982
vt 0.116432 0.718549
vt 0.141946 0.597103
vt 0.143495 0.551708
vt 0.156050 0.554761
vt 0.116437 0.549526
vt 0.119932 0.540326
vt 0.485260 0.008432
vt 0.481650 0.018806
vt 0.461274 0.007317
vt 0.462652 0.023601
vt 0.081930 0.042508
vt 0.078124 0.000000
vt 0.088032 0.079126
vt 0.141834 0.078621
vt 0.147500 0.042508
vt 0.179144 0.081452
vt 0.186331 0.047377
vt 0.193893 0.011261
vt 0.151316 0.000000
vt 0.155412 0.597372
vt 0.141946 0.670785
vt 0.143495 0.716273
vt 0.119932 0.727796
vt 0.317819 0.498698
vt 0.156050 0.713146
vt 0.155412 0.670689
vt 0.826636 0.055443
vt 0.897445 0.000000
vt 0.806044 0.486043
vt 0.897445 0.522706
vt 0.713233 0.000000
vt 0.714643 0.522732
vt 0.565036 0.000000
vt 0.563669 0.522732
vt 0.714643 0.036647
vt 0.806044 0.000000
vt 0.735230 0.467340
vt 0.806044 0.522754
vt 0.483376 0.017718
vt 0.486564 0.007235
vt 0.501808 0.009638
vt 0.838882 0.598113
vt 0.827802 0.594646
vt 0.872919 0.683049
vt 0.913424 0.679402
vt 0.872165 0.726640
vt 0.912743 0.725900
vt 0.911871 0.756638
vt 0.871588 0.754831
vt 0.835859 0.551022
vt 0.849396 0.522777
vt 0.858547 0.530154
vt 0.847154 0.550883
vt 0.103855 0.526518
vt 0.118631 0.536807
vt 0.103810 0.547203
vt 0.938174 0.291759
vt 0.943253 0.267129
vt 0.947195 0.291759
vt 0.897445 0.141814
vt 0.913998 0.166533
vt 0.902379 0.170540
vt 0.913998 0.271844
vt 0.924919 0.275606
vt 0.924919 0.162175
vt 0.962271 0.173079
vt 0.975299 0.138663
vt 0.975299 0.298629
vt 0.962270 0.264938
vt 0.962832 0.297166
vt 0.479510 0.633430
vt 0.473431 0.665665
vt 0.470205 0.636953
vt 0.470205 0.538428
vt 0.902379 0.269065
vt 0.897445 0.300448
vt 0.713551 0.899546
vt 0.704539 0.899546
vt 0.707325 0.870993
vt 0.905699 0.300436
vt 0.913916 0.303104
vt 0.912235 0.304758
vt 0.920708 0.332230
vt 0.897445 0.303104
vt 0.909302 0.336023
vt 0.909432 0.441092
vt 0.920708 0.445660
vt 0.897445 0.470826
vt 0.912225 0.469329
vt 0.914036 0.138532
vt 0.905699 0.142166
vt 0.479510 0.541571
vt 0.473431 0.507031
vt 0.962832 0.138532
vt 0.103557 0.754146
vt 0.053816 0.753902
vt 0.053810 0.526806
vt 0.103557 0.526518
vt 0.587880 0.753531
vt 0.563715 0.752562
vt 0.563669 0.524937
vt 0.587835 0.523845
vt 0.623077 0.522984
vt 0.623077 0.754382
vt 0.648954 0.754858
vt 0.648954 0.522732
vt 0.706665 0.526023
vt 0.706665 0.758152
vt 0.658534 0.526005
vt 0.658534 0.758134
vt 0.648954 0.761162
vt 0.648954 0.522732
vt 0.235828 0.586411
vt 0.466843 0.755355
vt 0.228826 0.755386
vt 0.459812 0.586381
vt 0.466843 0.507554
vt 0.228826 0.507586
vt 0.053810 0.526518
vt 0.053810 0.764947
vt 0.040858 0.529792
vt 0.040858 0.761919
vt 0.000000 0.527543
vt 0.000000 0.764154
vt 0.563669 0.507031
vt 0.563669 0.743640
vt 0.537396 0.507119
vt 0.537396 0.743728
vt 0.505593 0.507114
vt 0.505593 0.743723
vt 0.479510 0.507819
vt 0.479510 0.742792
vt 0.827802 0.522754
vt 0.827802 0.757730
vt 0.784674 0.523344
vt 0.784674 0.757351
vt 0.862815 0.841620
vt 0.862765 0.872491
vt 0.854154 0.872369
vt 0.870968 0.872356
vt 0.870968 0.841588
vt 0.910722 0.950105
vt 0.903610 0.950045
vt 0.903610 0.919269
vt 0.910722 0.919328
vt 0.308711 0.869379
vt 0.298307 0.900075
vt 0.298307 0.869362
vt 0.308711 0.900092
vt 0.713874 0.733773
vt 0.713874 0.764555
vt 0.706665 0.733766
vt 0.706665 0.765760
vt 0.854154 0.840390
vt 0.103557 0.750546
vt 0.114887 0.755484
vt 0.107812 0.758837
vt 0.114887 0.745060
vt 0.107746 0.741982
vt 0.474395 0.675959
vt 0.470647 0.676595
vt 0.479510 0.665665
vt 0.469167 0.688502
vt 0.472192 0.687949
vt 0.479510 0.716011
vt 0.776096 0.698716
vt 0.773105 0.698348
vt 0.783482 0.671207
vt 0.778239 0.711023
vt 0.774595 0.710486
vt 0.783482 0.721258
vt 0.203930 0.370245
vt 0.154263 0.376335
vt 0.183827 0.286860
vt 0.075264 0.376335
vt 0.085112 0.288230
vt 0.144513 0.288230
vt 0.086939 0.250460
vt 0.142589 0.250460
vt 0.087428 0.212813
vt 0.142110 0.212813
vt 0.087421 0.136378
vt 0.142103 0.136378
vt 0.179726 0.249187
vt 0.178400 0.213838
vt 0.177547 0.137241
vt 0.421701 0.980399
vt 0.418716 0.957830
vt 0.441420 0.980399
vt 0.444447 0.957822
vt 0.445658 0.992031
vt 0.123608 0.750105
vt 0.119516 0.785832
vt 0.114982 0.751896
vt 0.123608 0.792285
vt 0.417349 0.992031
vt 0.449412 0.999003
vt 0.413723 0.999003
vt 0.777784 0.727642
vt 0.781847 0.721258
vt 0.781847 0.763439
vt 0.773105 0.761523
vt 0.773105 0.832045
vt 0.782142 0.830050
vt 0.776433 0.841524
vt 0.782142 0.841545
vt 0.976087 0.522754
vt 0.978398 0.559111
vt 0.964832 0.524112
vt 0.963942 0.561081
vt 0.964053 0.616706
vt 0.978398 0.619341
vt 0.965212 0.653539
vt 0.976353 0.655453
vt 0.120634 0.891568
vt 0.123033 0.902660
vt 0.115058 0.893120
vt 0.113804 0.902660
vt 0.707719 0.860603
vt 0.714573 0.855038
vt 0.711844 0.860799
vt 0.704539 0.855070
vt 0.714527 0.838105
vt 0.704847 0.837858
vt 0.204189 0.025912
vt 0.449187 0.015128
vt 0.449986 0.029801
vt 0.469506 0.047591
vt 0.454292 0.076946
vt 0.457200 0.115626
vt 0.405281 0.091574
vt 0.396311 0.146024
vt 0.463492 0.216400
vt 0.396466 0.221940
vt 0.401400 0.255535
vt 0.413279 0.292638
vt 0.462570 0.367644
vt 0.224113 0.361173
vt 0.214205 0.363847
vt 0.216248 0.212941
vt 0.476799 0.215398
vt 0.471664 0.364441
vt 0.481045 0.090573
vt 0.482555 0.047435
vt 0.423824 0.059453
vt 0.505807 0.140256
vt 0.228826 0.404681
vt 0.202593 0.404539
vt 0.192288 0.286016
vt 0.188387 0.248263
vt 0.187665 0.214429
vt 0.186491 0.138654
vt 0.187371 0.084861
vt 0.194432 0.053924
vt 0.508800 0.109252
vt 0.550649 0.122174
vt 0.491632 0.083356
vt 0.491788 0.051485
vt 0.511290 0.024857
vt 0.502051 0.022746
vt 0.871588 0.522754
vt 0.509660 0.000000
vt 0.554140 0.015368
vt 0.550099 0.000200
vt 0.554135 0.005910
vt 0.504796 0.362067
vt 0.542421 0.199948
vt 0.542856 0.157631
vt 0.552229 0.200252
vt 0.563669 0.121638
vt 0.560820 0.200536
vt 0.563669 0.369515
vt 0.554034 0.370309
vt 0.545754 0.349847
vt 0.500663 0.379019
vt 0.478466 0.407629
vt 0.506210 0.381106
vt 0.485753 0.407546
vt 0.488120 0.442798
vt 0.481689 0.442159
vt 0.496668 0.464405
vt 0.511685 0.466420
vt 0.508179 0.476575
vt 0.561623 0.467485
vt 0.562263 0.485690
vt 0.553534 0.485040
vt 0.514719 0.491388
vt 0.067952 0.878482
vt 0.070907 0.871440
vt 0.071860 0.877940
vt 0.067453 0.868419
vt 0.072757 0.865167
vt 0.120921 0.870196
vt 0.114785 0.873526
vt 0.117766 0.870390
vt 0.115976 0.863536
vt 0.123033 0.859814
vt 0.479402 0.716614
vt 0.473668 0.726835
vt 0.469167 0.716011
vt 0.477226 0.726923
vt 0.714573 0.870993
vt 0.705519 0.867399
vt 0.076317 0.870847
vt 0.078149 0.877245
vt 0.073992 0.870985
vt 0.078139 0.864809
vt 0.078149 0.847608
vt 0.072996 0.847703
vt 0.063063 0.761940
vt 0.066304 0.754517
vt 0.066822 0.764763
vt 0.115071 0.891437
vt 0.122874 0.873546
vt 0.123033 0.891568
vt 0.473674 0.747963
vt 0.471339 0.729857
vt 0.478218 0.732449
vt 0.068943 0.850325
vt 0.479402 0.749395
vt 0.072287 0.754146
vt 0.072287 0.763961
vt 0.299811 0.866526
vt 0.298307 0.848572
vt 0.303883 0.869180
vt 0.303608 0.851847
vt 0.053810 0.757000
vt 0.057626 0.754146
vt 0.057058 0.764420
vt 0.115083 0.828171
vt 0.123043 0.828035
vt 0.122884 0.846070
vt 0.114785 0.845975
vt 0.120920 0.849291
vt 0.117776 0.849220
vt 0.301778 0.845403
vt 0.304848 0.845990
vt 0.063063 0.764771
vt 0.063063 0.754944
vt 0.782149 0.780260
vt 0.777612 0.764867
vt 0.783341 0.763439
vt 0.775278 0.782968
vt 0.781157 0.785776
vt 0.777599 0.785863
vt 0.783341 0.796212
vt 0.773105 0.796812
vt 0.123043 0.859814
vt 0.115986 0.856088
vt 0.298820 0.838387
vt 0.302713 0.839067
vt 0.307187 0.845998
vt 0.308993 0.852183
vt 0.309004 0.869362
vt 0.309004 0.839751
vt 0.783138 0.796812
vt 0.776292 0.807211
vt 0.774076 0.800531
vt 0.780404 0.807139
vt 0.562940 0.826759
vt 0.559844 0.868703
vt 0.554623 0.832104
vt 0.550189 0.868467
vt 0.550175 0.928696
vt 0.559831 0.928568
vt 0.554614 0.964803
vt 0.562940 0.969881
vt 0.783138 0.812889
vt 0.773105 0.812852
vt 0.783119 0.829687
vt 0.773429 0.830050
vt 0.203249 0.452844
vt 0.165224 0.483230
vt 0.179768 0.446521
vt 0.192845 0.407099
vt 0.175175 0.447157
vt 0.161477 0.483222
vt 0.054439 0.447157
vt 0.225400 0.475356
vt 0.201348 0.480163
vt 0.226987 0.462487
vt 0.228215 0.439347
vt 0.188010 0.408243
vt 0.041505 0.408243
vt 0.036541 0.407099
vt 0.049595 0.446521
vt 0.026510 0.455849
vt 0.064087 0.483351
vt 0.068202 0.483222
vt 0.003485 0.475430
vt 0.002169 0.462441
vt 0.027825 0.480117
vt 0.000614 0.439301
vt 0.044736 0.490112
vt 0.073269 0.506175
vt 0.093472 0.510432
vt 0.136662 0.510432
vt 0.963721 0.586355
vt 0.963719 0.629619
vt 0.950834 0.583214
vt 0.950832 0.632780
vt 0.090310 0.516385
vt 0.139790 0.516385
vt 0.145231 0.526518
vt 0.174266 0.520440
vt 0.156050 0.580692
vt 0.167141 0.609685
vt 0.156533 0.609762
vt 0.167247 0.568381
vt 0.156515 0.553002
vt 0.173648 0.569668
vt 0.193487 0.550080
vt 0.179651 0.578103
vt 0.192285 0.577290
vt 0.192256 0.609505
vt 0.706665 0.555025
vt 0.712680 0.522732
vt 0.711106 0.556799
vt 0.963942 0.566109
vt 0.195032 0.577261
vt 0.195739 0.549335
vt 0.712680 0.586726
vt 0.203722 0.609423
vt 0.203977 0.576834
vt 0.204804 0.549512
vt 0.206095 0.526518
vt 0.551789 0.507031
vt 0.549479 0.505806
vt 0.158529 0.531086
vt 0.197417 0.527551
vt 0.199390 0.502183
vt 0.223819 0.490553
vt 0.201926 0.508101
vt 0.174269 0.511290
vt 0.963942 0.648880
vt 0.950900 0.667308
vt 0.155897 0.506296
vt 0.950834 0.692455
vt 0.185584 0.489925
vt 0.054739 0.520440
vt 0.054742 0.511290
vt 0.084863 0.526518
vt 0.029980 0.502137
vt 0.027435 0.508055
vt 0.950841 0.522754
vt 0.950906 0.547576
vt 0.156957 0.670233
vt 0.167564 0.670156
vt 0.156889 0.700421
vt 0.168250 0.711499
vt 0.157742 0.727789
vt 0.174638 0.710968
vt 0.384419 0.000176
vt 0.393478 0.000000
vt 0.206095 0.733509
vt 0.197034 0.733937
vt 0.204850 0.701411
vt 0.195900 0.701111
vt 0.204146 0.669893
vt 0.192343 0.671207
vt 0.194772 0.733229
vt 0.180512 0.700983
vt 0.160062 0.750105
vt 0.005171 0.490628
vt 0.227880 0.695128
vt 0.223060 0.664952
vt 0.227880 0.628799
vt 0.382107 0.001388
vt 0.188495 0.639830
vt 0.187498 0.670013
vt 0.187074 0.609543
vt 0.220484 0.802759
vt 0.222458 0.834035
vt 0.215368 0.834276
vt 0.223257 0.842772
vt 0.218790 0.842767
vt 0.473876 0.754845
vt 0.469167 0.754845
vt 0.472655 0.749395
vt 0.973452 0.368822
vt 0.958056 0.408796
vt 0.969786 0.367474
vt 0.971788 0.408808
vt 0.971788 0.469280
vt 0.958056 0.469268
vt 0.973452 0.509518
vt 0.969786 0.510594
vt 0.971018 0.897262
vt 0.967069 0.894739
vt 0.971018 0.890811
vt 0.218790 0.701463
vt 0.223257 0.702074
vt 0.215368 0.711393
vt 0.222458 0.711273
vt 0.220484 0.742286
vt 0.206176 0.742286
vt 0.206095 0.772460
vt 0.206176 0.802759
vt 0.913565 0.897336
vt 0.912541 0.857099
vt 0.921900 0.888125
vt 0.929710 0.857098
vt 0.912541 0.796627
vt 0.929710 0.796626
vt 0.921900 0.765363
vt 0.913565 0.756638
vt 0.036951 0.286016
vt 0.014898 0.363847
vt 0.025431 0.370245
vt 0.045669 0.286860
vt 0.049916 0.249187
vt 0.040858 0.248263
vt 0.051131 0.213838
vt 0.041588 0.214429
vt 0.051972 0.137241
vt 0.042648 0.138654
vt 0.050544 0.082114
vt 0.042189 0.086110
vt 0.043214 0.047377
vt 0.034741 0.053924
vt 0.286874 0.430320
vt 0.237239 0.413900
vt 0.256356 0.447440
vt 0.289797 0.391707
vt 0.035779 0.011261
vt 0.024855 0.025524
vt 0.282793 0.477679
vt 0.086939 0.250460
vt 0.142589 0.250460
vt 0.087428 0.212813
vt 0.142110 0.212813
vt 0.087421 0.136378
vt 0.142103 0.136378
vt 0.088032 0.079126
vt 0.179726 0.249187
vt 0.178400 0.213838
vt 0.177547 0.137241
vt 0.141834 0.078621
vt 0.179144 0.081452
vt 0.193893 0.011261
vt 0.186331 0.047377
vt 0.204189 0.025912
vt 0.454292 0.076946
vt 0.405281 0.091574
vt 0.457200 0.115626
vt 0.396311 0.146024
vt 0.423824 0.059453
vt 0.449986 0.029801
vt 0.203930 0.370245
vt 0.214205 0.363847
vt 0.192288 0.286016
vt 0.183827 0.286860
vt 0.188387 0.248263
vt 0.187665 0.214429
vt 0.186491 0.138654
vt 0.187371 0.084861
vt 0.194432 0.053924
vn -0.0001 0.0197 0.9998
vn -0.0002 0.0197 0.9998
vn -0.1513 -0.8603 -0.4868
vn -0.0840 -0.6440 -0.7604
vn -0.1193 -0.3974 -0.9099
vn -0.3981 -0.2212 -0.8903
vn -0.6101 0.4760 -0.6334
vn -0.0370 -0.3166 -0.9478
vn -0.1373 -0.6386 -0.7572
vn -0.1649 -0.8456 -0.5077
vn 0.6086 0.4764 -0.6346
vn 0.0265 -0.3307 -0.9434
vn 0.1160 -0.4262 -0.8972
vn -0.6005 -0.5621 -0.5687
vn -0.7433 0.2905 -0.6025
vn -0.4346 0.5996 -0.6720
vn 0.0763 0.7455 -0.6622
vn 0.2727 0.6951 -0.6652
vn 0.6079 -0.5568 -0.5660
vn -0.0753 0.7455 -0.6622
vn -0.2472 0.6962 -0.6740
vn 0.4013 -0.2227 -0.8884
vn 0.4329 0.5907 -0.6810
vn 0.7433 0.3168 -0.5891
vn -0.9370 0.3441 0.0600
vn -0.8455 0.3901 0.3646
vn -0.7631 0.5100 0.3970
vn -0.9961 -0.0624 0.0630
vn -0.7573 0.5577 -0.3398
vn -0.7143 0.6987 0.0395
vn -0.8411 0.1816 -0.5095
vn -0.8371 0.0544 0.5443
vn -0.8500 -0.1776 -0.4959
vn -0.7680 0.2317 0.5970
vn -0.8131 0.3968 0.4259
vn -0.8739 -0.4340 -0.2191
vn -0.9811 0.0424 0.1890
vn -0.9757 -0.0779 0.2049
vn -0.9942 -0.0960 0.0483
vn -0.8707 -0.0140 0.4917
vn -0.6179 0.0770 0.7824
vn -0.2337 0.2156 0.9481
vn -0.3739 0.1716 0.9115
vn -0.7400 0.1696 0.6509
vn -0.3735 0.4172 0.8285
vn -0.7042 0.2338 0.6704
vn -0.3115 0.3464 0.8848
vn -0.3005 0.2075 0.9309
vn -0.7440 0.1120 0.6588
vn -0.3149 0.0760 0.9461
vn -0.7600 0.0403 0.6487
vn -0.3279 -0.0697 0.9422
vn -0.7589 -0.0365 0.6501
vn -0.3483 -0.2793 0.8948
vn -0.7470 -0.1424 0.6493
vn -0.3667 -0.4632 0.8068
vn -0.7398 -0.2369 0.6297
vn -0.8726 -0.0740 0.4829
vn -0.8874 -0.0168 0.4606
vn -0.9115 0.0171 0.4110
vn -0.8007 0.0164 0.5988
vn -0.9576 0.0184 0.2876
vn -0.8533 0.0049 0.5214
vn -0.3263 -0.5231 0.7873
vn -0.6959 -0.3290 0.6383
vn -0.8156 -0.1558 0.5572
vn -0.7363 -0.2952 0.6088
vn -0.8362 -0.0427 0.5468
vn -0.9378 0.0149 0.3468
vn -0.9972 0.0750 -0.0008
vn -0.9889 0.0944 0.1149
vn -0.9650 0.0304 0.2605
vn -0.7459 -0.6661 0.0005
vn -0.6656 -0.5519 -0.5023
vn -0.7178 0.0194 -0.6960
vn -0.6870 0.5248 -0.5026
vn -0.4532 -0.6702 0.5877
vn -0.7926 -0.4150 0.4468
vn -0.4661 -0.7748 0.4272
vn -0.5580 -0.5303 0.6383
vn -0.8317 -0.4489 -0.3269
vn -0.8408 -0.1733 -0.5129
vn -0.8986 -0.1593 0.4088
vn -0.8597 0.1512 -0.4879
vn -0.8498 0.4552 -0.2659
vn -0.9072 -0.2542 0.3352
vn -0.7241 -0.5531 0.4121
vn -0.5464 -0.5302 0.6483
vn -0.5976 -0.4814 0.6412
vn -0.7585 -0.5452 -0.3570
vn -0.6549 0.6495 0.3864
vn -0.4040 0.6728 0.6198
vn 0.6558 0.6515 0.3814
vn 0.4017 0.6716 0.6226
vn 0.6440 0.0966 0.7589
vn 0.2509 0.2215 0.9423
vn 0.6333 -0.6301 0.4493
vn 0.7672 -0.6381 -0.0657
vn -0.2430 -0.7816 -0.5745
vn -0.4621 -0.5948 -0.6578
vn 0.7069 -0.5788 -0.4066
vn -0.7000 -0.5145 -0.4953
vn -0.6955 0.6700 0.2597
vn -0.8428 0.4336 0.3188
vn 0.6965 0.4588 0.5518
vn 0.5753 0.5909 0.5656
vn 0.4614 0.4610 0.7580
vn -0.5372 0.8143 -0.2200
vn -0.6315 -0.1432 -0.7620
vn -0.0232 -0.9433 -0.3312
vn 0.2608 -0.3894 0.8834
vn -0.1892 0.2590 0.9472
vn 0.0959 0.5340 0.8400
vn -0.1030 0.5365 0.8376
vn -0.1906 0.8378 -0.5117
vn 0.1715 0.8355 -0.5221
vn -0.2446 -0.2789 -0.9287
vn 0.2355 -0.2446 -0.9406
vn 0.0111 -0.9469 -0.3214
vn 0.7296 -0.0840 -0.6787
vn 0.5919 0.7921 -0.1491
vn -0.4802 0.4967 0.7229
vn -0.7520 0.0587 0.6565
vn -0.2357 -0.4066 0.8827
vn -0.6578 0.5107 0.5536
vn 0.7444 0.6211 0.2452
vn 0.5280 -0.6008 -0.6002
vn 0.2143 -0.7867 -0.5789
vn -0.6300 -0.6836 0.3684
vn -0.7602 -0.6277 -0.1677
vn -0.8007 -0.5312 -0.2769
vn -0.6623 0.4823 0.5734
vn 0.7412 0.5737 0.3487
vn 0.5971 -0.5525 -0.5816
vn 0.7444 0.6622 0.0855
vn 0.5696 0.6097 -0.5512
vn -0.7473 0.6595 0.0820
vn -0.5719 0.6081 -0.5506
vn -0.1766 -0.8722 -0.4561
vn 0.1730 -0.8797 -0.4429
vn -0.0248 -0.9852 0.1699
vn 0.7580 -0.5471 -0.3551
vn 0.2509 -0.8942 -0.3708
vn 0.0779 -0.8861 -0.4570
vn -0.0891 -0.8835 -0.4599
vn -0.0855 -0.8929 0.4420
vn -0.2720 -0.8542 0.4431
vn -0.0913 -0.8615 0.4995
vn -0.3059 -0.7671 0.5639
vn -0.0845 -0.9810 0.1749
vn 0.0849 -0.9810 0.1742
vn 0.0256 -0.8178 0.5749
vn -0.2299 -0.8979 -0.3754
vn -0.4114 -0.6793 0.6077
vn -0.3705 -0.8804 0.2961
vn 0.0857 -0.9178 0.3877
vn 0.4701 -0.7725 0.4269
vn 0.4618 -0.6666 0.5852
vn 0.3719 -0.8795 0.2968
vn 0.4140 -0.6399 0.6474
vn 0.5642 -0.5187 0.6424
vn 0.7982 -0.4044 0.4465
vn -0.0605 -0.5282 0.8469
vn -0.0746 -0.5660 0.8210
vn -0.0400 -0.3181 0.9472
vn 0.0399 -0.3220 0.9459
vn 0.0602 -0.5291 0.8464
vn 0.3559 -0.2801 0.8916
vn 0.3751 -0.4608 0.8044
vn 0.3302 -0.5205 0.7874
vn 0.0743 -0.5659 0.8211
vn 0.1123 -0.8210 0.5598
vn -0.0841 -0.9185 0.3864
vn -0.4100 -0.6437 0.6461
vn -0.1091 -0.8202 0.5616
vn -0.9994 0.0030 0.0346
vn -0.6897 -0.0142 -0.7240
vn 0.6890 -0.0179 -0.7245
vn 0.9992 -0.0021 0.0403
vn 0.6076 -0.4728 0.6382
vn 0.4186 -0.6769 0.6055
vn 0.5585 -0.5202 0.6461
vn 0.0889 -0.8939 0.4394
vn 0.2742 -0.8526 0.4449
vn 0.7271 -0.5474 0.4144
vn 0.3089 -0.7659 0.5639
vn -0.3445 -0.1765 0.9220
vn -0.0944 0.0410 0.9947
vn -0.0746 0.1260 0.9892
vn -0.0110 0.3505 0.9365
vn 0.0817 0.0314 0.9962
vn 0.1830 -0.7788 0.6000
vn -0.2107 -0.7750 0.5958
vn -0.0316 0.6200 0.7840
vn -0.1269 0.4523 0.8828
vn 0.1314 0.4564 0.8800
vn 0.0335 0.6200 0.7839
vn 0.0134 0.3523 0.9358
vn 0.0741 0.0726 0.9946
vn 0.3033 -0.1945 0.9328
vn 0.4164 -0.8736 0.2519
vn 0.0828 -0.7977 -0.5973
vn 0.0144 -0.7741 -0.6329
vn -0.0109 -0.7677 -0.6407
vn -0.0825 -0.7914 -0.6057
vn -0.4529 -0.8724 0.1838
vn 0.8798 -0.4214 -0.2198
vn 0.8607 -0.1772 -0.4773
vn 0.8526 0.1753 -0.4924
vn 0.7682 0.5450 -0.3358
vn 0.7191 0.6940 0.0352
vn 0.6808 0.5254 -0.5103
vn 0.7078 0.0192 -0.7062
vn 0.6606 -0.5531 -0.5076
vn 0.7492 -0.6623 -0.0037
vn 0.8267 -0.4476 -0.3408
vn 0.8208 -0.1898 -0.5387
vn 0.8668 0.1478 -0.4763
vn 0.8538 0.4576 -0.2482
vn -0.0406 -0.6145 -0.7879
vn -0.0254 -0.0008 -0.9997
vn 0.9326 -0.0008 -0.3610
vn -0.9540 0.0000 -0.2997
vn -0.7806 -0.5757 -0.2434
vn -0.5158 -0.0000 0.8567
vn -0.4118 -0.6017 0.6844
vn 0.4394 -0.5826 0.6838
vn 0.5678 -0.0000 0.8231
vn 0.6989 -0.6645 -0.2644
vn 0.8176 -0.1563 0.5541
vn 0.3783 0.4151 0.8274
vn 0.0572 0.4975 0.8656
vn 0.3166 0.3449 0.8836
vn -0.0570 0.4975 0.8656
vn -0.0415 0.3978 0.9165
vn 0.0423 0.3972 0.9168
vn -0.0378 0.2291 0.9727
vn 0.0394 0.2286 0.9727
vn -0.0342 0.0823 0.9960
vn 0.0363 0.0820 0.9960
vn -0.0310 -0.0735 0.9968
vn 0.0308 -0.0711 0.9970
vn 0.3077 0.2056 0.9290
vn 0.3188 0.0756 0.9448
vn 0.3365 -0.0672 0.9393
vn 0.2369 0.0615 0.9696
vn -0.2452 0.0632 0.9674
vn -0.3809 -0.0699 0.9220
vn -0.3162 -0.1513 0.9365
vn 0.3881 -0.0700 0.9190
vn 0.3175 -0.1557 0.9354
vn -0.7752 -0.5703 0.2716
vn -0.4793 -0.7166 0.5068
vn -0.8329 0.0186 0.5531
vn -0.4906 -0.0321 0.8708
vn -0.0539 -0.7563 0.6520
vn -0.0441 -0.0191 0.9988
vn 0.0427 -0.0173 0.9989
vn 0.0558 -0.7545 0.6539
vn 0.4883 -0.0063 0.8727
vn 0.5001 -0.6994 0.5106
vn 0.8419 0.0775 0.5341
vn 0.7872 -0.5541 0.2706
vn -0.1362 -0.9239 -0.3575
vn -0.2967 -0.4621 0.8357
vn -0.2084 -0.5287 0.8228
vn -0.2562 -0.8393 -0.4795
vn 0.4978 -0.3866 0.7764
vn 0.5771 -0.7684 -0.2766
vn 0.7055 -0.3203 0.6322
vn 0.7468 -0.2797 0.6034
vn 0.8503 -0.0416 0.5247
vn 0.8435 0.0062 0.5371
vn 0.8726 -0.0725 0.4830
vn 0.8879 -0.0144 0.4598
vn 0.7527 -0.1416 0.6429
vn 0.7650 -0.0360 0.6430
vn 0.9115 0.0165 0.4111
vn 0.7644 0.0395 0.6435
vn 0.7504 0.1092 0.6519
vn 0.7449 0.1668 0.6460
vn 0.7092 0.2299 0.6664
vn 0.8717 -0.0124 0.4898
vn 0.6204 0.0794 0.7802
vn 0.8042 0.0156 0.5942
vn 0.9590 0.0187 0.2828
vn 0.9417 0.0019 0.3363
vn 0.8963 -0.1647 0.4117
vn 0.7461 -0.2335 0.6235
vn 0.9968 0.0796 -0.0109
vn 0.8335 0.0484 0.5504
vn 0.2571 0.1963 0.9462
vn 0.3854 0.1764 0.9057
vn 0.9035 -0.2540 0.3453
vn 0.9942 -0.0967 0.0469
vn 0.9777 0.0444 0.2052
vn 0.9870 0.0982 0.1274
vn 0.9635 0.0316 0.2658
vn 0.9740 -0.0816 0.2112
vn 0.9954 -0.0673 0.0681
vn 0.7586 0.2318 0.6089
vn 0.8131 0.3969 0.4259
vn 0.8433 0.3987 0.3604
vn 0.9234 0.3778 0.0672
vn 0.7685 0.5116 0.3843
vn 0.5520 0.7909 -0.2642
vn -0.1874 0.8336 -0.5196
vn 0.4679 0.1087 -0.8771
vn -0.3206 0.7729 -0.5476
vn -0.1595 -0.0230 -0.9869
vn -0.2612 0.6734 0.6916
vn 0.3537 0.5789 0.7347
vn 0.2026 -0.3779 0.9034
vn 0.3452 -0.8219 -0.4532
vn -0.1079 -0.1100 -0.9881
vn 0.7632 0.0714 -0.6422
vn 0.5456 0.7712 -0.3280
vn 0.4902 0.6379 0.5940
vn -0.3269 0.7187 0.6137
vn -0.5461 0.7708 -0.3281
vn 0.3139 0.7758 -0.5474
vn -0.7617 0.0747 -0.6436
vn 0.1574 -0.0233 -0.9873
vn -0.4900 0.6379 0.5941
vn 0.3362 0.7163 0.6115
vn 0.2751 0.6746 0.6850
vn 0.1537 0.8480 -0.5072
vn 0.1183 -0.1117 -0.9867
vn -0.4962 -0.3863 0.7775
vn -0.5882 -0.7611 -0.2734
vn 0.2949 -0.4629 0.8359
vn 0.2160 -0.5292 0.8206
vn -0.2011 -0.3735 0.9055
vn -0.3504 0.5804 0.7351
vn -0.5482 0.7959 -0.2571
vn -0.4729 0.1178 -0.8732
vn 0.1222 -0.9242 -0.3618
vn 0.2547 -0.8393 -0.4804
vn -0.3499 -0.8223 -0.4488
vn -0.0180 -0.9871 -0.1590
vn 0.0185 -0.9872 -0.1583
vn 0.2275 0.3757 0.8984
vn 0.2655 0.4634 0.8455
vn 0.2917 0.3805 0.8776
vn 0.3026 0.3009 0.9044
vn 0.2953 0.3909 0.8718
vn 0.2120 0.4498 0.8676
vn -0.2847 0.3890 0.8761
vn 0.4027 0.5573 0.7261
vn 0.2857 0.2913 0.9130
vn -0.2805 0.2907 0.9148
vn -0.2897 0.2918 0.9115
vn -0.2858 0.3805 0.8795
vn -0.2307 0.3924 0.8904
vn -0.0214 0.1957 0.9804
vn 0.0215 0.1956 0.9804
vn -0.2444 0.4590 0.8542
vn -0.1916 0.4450 0.8748
vn -0.4001 0.5621 0.7238
vn -0.2279 0.5762 0.7848
vn -0.1560 0.7066 0.6902
vn -0.0558 0.7435 0.6664
vn 0.0569 0.7436 0.6662
vn -0.0551 0.6592 0.7499
vn 0.0576 0.6591 0.7499
vn 0.0800 0.7895 0.6085
vn 0.2349 0.8072 0.5416
vn 0.0762 0.7973 -0.5988
vn 0.2323 0.9549 -0.1850
vn 0.4752 0.7356 0.4829
vn 0.0579 0.9587 0.2783
vn 0.5726 0.7813 0.2484
vn 0.0334 0.8606 0.5082
vn 0.3535 0.8400 0.4116
vn 0.1179 0.9898 0.0802
vn 0.3262 0.8349 0.4433
vn 0.5846 0.7653 0.2692
vn 0.3345 0.5206 0.7855
vn 0.1603 0.5684 0.8070
vn 0.1583 0.7071 0.6892
vn 0.2317 0.5752 0.7846
vn -0.2416 0.8138 0.5286
vn -0.1622 0.5623 0.8109
vn -0.0751 0.7910 0.6073
vn -0.3318 0.5218 0.7859
vn -0.4611 0.7350 0.4972
vn -0.0740 0.7968 -0.5996
vn -0.1992 0.9593 -0.1999
vn -0.0681 0.9689 0.2378
vn -0.5822 0.7689 0.2642
vn -0.3028 0.8219 0.4824
vn -0.1360 0.9870 0.0852
vn -0.5701 0.7791 0.2607
vn -0.0132 0.8587 0.5123
vn -0.0006 0.7213 0.6927
vn -0.0060 0.7393 0.6733
vn 0.0219 0.7423 0.6697
vn -0.0752 0.7074 0.7029
vn -0.3200 0.7303 0.6035
vn -0.5415 0.8255 -0.1593
vn 0.0086 0.7448 -0.6672
vn -0.0087 0.7448 -0.6672
vn 0.5206 0.8377 -0.1647
vn 0.3193 0.7250 0.6102
vn 0.0766 0.7069 0.7031
vn 0.5375 -0.2819 -0.7947
vn 0.5936 -0.3132 -0.7413
vn 0.5895 -0.3151 -0.7438
vn 0.5375 -0.2594 -0.8024
vn 0.3777 -0.1722 -0.9098
vn 0.5211 -0.1710 -0.8362
vn 0.3149 -0.0760 -0.9461
vn 0.5511 -0.0609 -0.8322
vn 0.3279 0.0697 -0.9422
vn 0.5856 0.0565 -0.8086
vn 0.4395 0.1924 -0.8774
vn 0.7024 0.1627 -0.6929
vn 0.5965 0.3542 -0.7203
vn 0.7398 0.2369 -0.6297
vn 0.8726 0.0740 -0.4829
vn 0.8755 0.0336 -0.4821
vn 0.5917 0.4131 -0.6923
vn 0.6959 0.3290 -0.6383
vn 0.0364 -0.1618 -0.9862
vn -0.0384 -0.1596 -0.9864
vn 0.0342 -0.0823 -0.9960
vn -0.0363 -0.0820 -0.9960
vn 0.0310 0.0735 -0.9968
vn -0.0308 0.0711 -0.9970
vn 0.0353 0.1464 -0.9886
vn -0.3881 -0.1683 -0.9061
vn -0.3188 -0.0756 -0.9448
vn -0.3365 0.0672 -0.9393
vn -0.0358 0.1503 -0.9880
vn -0.4495 0.1917 -0.8725
vn -0.6091 0.4004 -0.6846
vn -0.6116 0.3462 -0.7114
vn -0.7055 0.3203 -0.6322
vn -0.8726 0.0725 -0.4830
vn -0.7527 0.1416 -0.6429
vn -0.8784 0.0420 -0.4760
vn -0.6776 0.0583 -0.7331
vn -0.7461 0.2335 -0.6235
vn -0.5979 -0.3098 -0.7393
vn -0.6017 -0.3080 -0.7369
vn -0.5487 -0.2777 -0.7886
vn -0.5484 -0.2560 -0.7961
vn -0.5369 -0.1667 -0.8270
vn -0.5619 -0.0601 -0.8250
usemtl Default_OBJ.002
s off
f 54/1/1 155/2/1 259/3/1
f 222/4/1 41/5/1 39/6/2
f 39/6/1 56/7/1 222/4/1
f 56/7/1 55/8/1 260/9/1
f 222/4/1 56/7/1 263/10/1
f 55/8/1 54/1/1 260/9/1
f 54/1/1 59/11/1 155/2/1
f 59/11/1 58/12/1 155/2/1
f 155/2/1 161/13/1 259/3/1
f 161/13/1 149/14/1 258/15/1
f 259/3/1 161/13/1 258/15/1
f 259/3/1 260/9/1 54/1/1
f 260/9/1 263/10/1 56/7/1
f 263/10/1 267/16/1 220/17/1
f 267/16/1 219/18/1 220/17/1
f 220/17/1 222/4/1 263/10/1
s 1
f 1/19/3 2/20/4 3/21/5
f 4/22/6 5/23/7 3/21/5
f 6/24/8 7/25/9 8/26/10
f 3/21/5 5/23/7 6/24/8
f 6/24/8 9/27/11 10/28/12
f 11/29/13 10/28/12 9/27/11
f 12/30/14 13/31/15 14/32/16
f 8/26/10 1/19/3 3/21/5
f 5/23/7 9/27/11 6/24/8
f 15/33/17 16/34/18 17/35/19
f 18/36/20 15/33/17 17/35/19
f 12/30/14 18/36/20 17/35/19
f 19/37/21 18/36/20 12/30/14
f 9/27/11 20/38/22 11/29/13
f 21/39/23 22/40/24 17/35/19
f 16/34/18 21/39/23 17/35/19
f 6/24/8 8/26/10 3/21/5
f 19/37/21 12/30/14 14/32/16
f 23/41/25 24/42/26 25/43/27
f 26/44/28 27/45/29 28/46/30
f 29/47/31 27/45/29 26/44/28
f 30/48/32 29/47/31 26/44/28
f 31/49/33 29/47/31 30/48/32
f 31/49/33 30/48/32 32/50/34
f 33/51/35 31/49/33 32/50/34
f 34/52/36 31/49/33 33/51/35
f 24/42/26 34/52/36 33/51/35
f 12/53/14 34/52/36 24/42/26
f 23/41/25 12/53/14 24/42/26
f 13/54/15 12/53/14 23/41/25
f 35/55/37 36/56/38 28/46/30
f 36/56/38 37/57/39 28/46/30
f 28/46/30 37/57/39 26/44/28
f 37/57/39 38/58/40 26/44/28
f 26/44/28 38/58/40 30/48/32
f 38/59/40 39/60/41 30/61/32
f 30/61/32 39/60/41 40/62/42
f 39/60/41 41/63/43 40/62/42
f 42/64/44 41/63/45 39/60/46
f 41/63/45 42/64/44 43/65/47
f 43/65/47 42/64/44 44/66/48
f 42/64/44 45/67/49 44/66/48
f 44/66/48 45/67/49 46/68/50
f 45/67/49 47/69/51 46/68/50
f 46/68/50 47/69/51 48/70/52
f 47/69/51 49/71/53 48/70/52
f 48/70/52 49/71/53 50/72/54
f 49/71/53 51/73/55 50/72/54
f 50/72/54 51/73/55 52/74/56
f 51/73/55 53/75/57 52/74/56
f 54/76/58 53/77/57 51/78/55
f 55/79/59 54/76/58 51/78/55
f 49/80/53 55/79/59 51/78/55
f 56/81/60 55/79/59 49/80/53
f 47/82/51 56/81/60 49/80/53
f 45/83/49 56/81/60 47/82/51
f 45/83/49 42/84/44 56/81/60
f 56/81/60 42/84/44 39/85/46
f 38/59/40 56/86/61 39/60/41
f 57/87/62 56/81/61 38/58/40
f 37/57/39 57/87/62 38/58/40
f 35/55/37 57/87/62 37/57/39
f 36/56/38 35/55/37 37/57/39
f 57/87/62 55/79/63 56/81/61
f 58/88/64 52/74/56 59/89/65
f 52/74/56 53/75/57 59/89/65
f 53/77/57 54/76/58 59/90/65
f 60/91/66 59/90/67 54/76/68
f 60/91/66 54/76/68 55/79/63
f 60/91/66 55/79/63 61/92/69
f 57/87/62 61/92/69 55/79/63
f 57/87/62 62/93/70 61/92/69
f 57/87/62 35/55/37 62/93/70
f 63/94/71 62/93/70 35/55/37
f 63/94/71 35/55/37 64/95/72
f 65/96/73 63/94/71 64/95/72
f 64/95/72 66/97/74 65/96/73
f 64/95/72 67/98/75 66/97/74
f 64/95/72 68/99/76 67/98/75
f 64/95/72 28/46/30 68/99/76
f 64/95/72 35/55/37 28/46/30
f 58/100/77 69/101/78 70/102/79
f 59/90/67 69/101/78 58/100/77
f 60/91/66 69/101/78 59/90/67
f 60/91/66 71/103/80 69/101/78
f 62/93/70 63/94/71 65/96/73
f 72/104/81 62/93/70 65/96/73
f 61/92/69 62/93/70 72/104/81
f 73/105/82 61/92/69 72/104/81
f 74/106/83 61/92/69 73/105/82
f 75/107/84 74/106/83 73/105/82
f 76/108/85 74/106/83 75/107/84
f 77/109/86 74/106/83 76/108/85
f 77/109/86 76/108/85 78/110/87
f 77/111/86 78/112/87 79/113/88
f 77/109/86 79/114/88 80/115/89
f 77/109/86 80/115/89 74/106/83
f 60/91/66 74/106/83 80/115/89
f 60/91/66 61/92/69 74/106/83
f 76/108/85 5/116/7 78/110/87
f 78/110/87 5/116/7 81/117/90
f 81/117/90 5/116/7 4/118/6
f 82/119/91 83/120/92 84/121/93
f 84/121/93 83/120/92 85/122/94
f 86/123/95 87/124/96 88/125/97
f 89/126/98 86/127/95 88/128/97
f 88/129/97 90/130/99 89/131/98
f 90/130/99 91/132/100 89/131/98
f 89/131/98 91/132/100 92/133/101
f 91/132/100 93/134/102 92/133/101
f 93/135/102 91/136/100 94/137/103
f 94/137/103 95/138/104 93/135/102
f 94/139/103 96/140/105 95/141/104
f 96/140/105 97/142/106 95/141/104
f 97/143/106 96/144/105 92/145/101
f 92/145/101 96/144/105 89/126/98
f 96/144/105 86/127/95 89/126/98
f 96/144/105 98/146/107 86/127/95
f 98/147/107 96/140/105 94/139/103
f 99/148/108 98/147/107 94/139/103
f 94/137/103 91/136/100 99/149/108
f 91/136/100 100/150/109 99/149/108
f 100/150/109 91/136/100 90/151/99
f 101/152/110 100/153/109 90/154/99
f 101/155/110 90/130/99 88/129/97
f 102/156/111 101/155/110 88/129/97
f 88/125/97 87/124/96 102/157/111
f 87/124/96 103/158/112 102/157/111
f 87/124/96 104/159/113 103/158/112
f 104/159/113 105/160/114 103/158/112
f 105/161/114 104/162/113 106/163/115
f 107/164/116 105/161/114 106/163/115
f 106/165/115 108/166/117 107/167/116
f 108/166/117 109/168/118 107/167/116
f 109/168/118 108/166/117 110/169/119
f 109/168/118 111/170/120 112/171/121
f 107/167/116 109/168/118 112/171/121
f 112/172/121 113/173/122 107/164/116
f 113/173/122 105/161/114 107/164/116
f 103/158/112 105/160/114 113/174/122
f 113/174/122 114/175/123 103/158/112
f 103/158/112 114/175/123 115/176/124
f 102/157/111 103/158/112 115/176/124
f 115/177/124 110/178/119 102/156/111
f 110/178/119 101/155/110 102/156/111
f 110/169/119 108/166/117 101/152/110
f 108/166/117 100/153/109 101/152/110
f 100/153/109 108/166/117 106/165/115
f 99/179/108 100/153/109 106/165/115
f 106/163/115 104/162/113 99/148/108
f 104/162/113 98/147/107 99/148/108
f 98/180/107 104/159/113 87/124/96
f 86/123/95 98/180/107 87/124/96
f 116/181/125 114/182/123 113/183/122
f 116/184/125 113/173/122 112/172/121
f 117/185/126 116/184/125 112/172/121
f 112/186/121 111/187/120 117/188/126
f 111/187/120 118/189/127 117/188/126
f 119/190/128 109/168/118 110/169/119
f 119/191/128 110/178/119 115/177/124
f 120/192/129 119/191/128 115/177/124
f 115/176/124 114/175/123 120/193/129
f 114/182/123 121/194/130 120/195/129
f 116/181/125 121/194/130 114/182/123
f 116/181/125 122/196/131 121/194/130
f 116/181/125 123/197/132 122/196/131
f 116/184/125 124/198/133 123/199/132
f 124/198/133 116/184/125 117/185/126
f 117/188/126 125/200/134 124/201/133
f 117/188/126 118/189/127 125/200/134
f 118/202/127 122/203/131 125/204/134
f 122/203/131 118/202/127 121/205/130
f 121/205/130 118/202/127 120/192/129
f 118/202/127 119/191/128 120/192/129
f 118/189/127 111/187/120 119/206/128
f 111/170/120 109/168/118 119/190/128
f 126/207/135 127/208/136 128/209/137
f 128/209/137 127/208/136 129/210/138
f 130/211/139 131/212/140 132/213/141
f 20/214/22 133/215/142 11/216/13
f 11/216/13 133/215/142 134/217/143
f 10/218/12 11/216/13 134/217/143
f 134/217/143 135/219/144 10/218/12
f 10/218/12 135/219/144 6/220/8
f 135/219/144 136/221/145 6/220/8
f 6/220/8 136/221/145 7/222/9
f 136/223/145 8/224/10 7/225/9
f 136/223/145 137/226/146 8/224/10
f 137/226/146 138/227/147 8/224/10
f 138/228/147 137/229/146 139/230/148
f 140/231/149 138/228/147 139/230/148
f 139/232/148 132/213/141 140/233/149
f 132/213/141 141/234/150 140/233/149
f 132/213/141 131/212/140 141/234/150
f 131/235/140 142/236/151 141/237/150
f 130/238/139 142/236/151 131/235/140
f 142/239/151 130/211/139 143/240/152
f 81/241/90 138/227/147 78/242/87
f 79/113/88 78/112/87 138/228/147
f 79/113/88 138/228/147 140/231/149
f 8/224/10 138/227/147 1/243/3
f 138/227/147 144/244/153 1/243/3
f 81/241/90 144/244/153 138/227/147
f 81/245/90 3/246/5 144/247/153
f 81/245/90 4/248/6 3/246/5
f 1/243/3 144/244/153 2/249/4
f 144/247/153 3/246/5 2/250/4
f 145/251/154 80/115/89 79/114/88
f 140/233/149 145/252/154 79/253/88
f 146/254/155 145/252/154 140/233/149
f 140/233/149 141/234/150 146/254/155
f 141/234/150 142/239/151 147/255/156
f 147/255/156 142/239/151 148/256/157
f 147/255/156 148/256/157 149/257/158
f 148/256/157 150/258/159 151/259/160
f 151/260/160 152/261/161 148/262/157
f 148/262/157 152/261/161 153/263/162
f 154/264/163 58/88/64 155/265/164
f 154/264/163 52/74/56 58/88/64
f 154/264/163 50/72/54 52/74/56
f 154/264/163 156/266/165 50/72/54
f 154/264/163 157/267/166 156/266/165
f 158/268/167 157/267/166 154/264/163
f 158/268/167 159/269/168 157/267/166
f 158/268/167 160/270/169 159/269/168
f 158/268/167 149/271/170 160/270/169
f 158/268/167 161/272/171 149/271/170
f 149/257/158 161/273/172 147/255/156
f 147/255/156 161/273/172 162/274/173
f 162/274/173 141/234/150 147/255/156
f 70/275/79 141/234/150 162/274/173
f 70/275/79 146/254/155 141/234/150
f 70/275/79 163/276/174 146/254/155
f 70/102/79 71/103/80 163/277/174
f 70/102/79 69/101/78 71/103/80
f 58/278/77 70/275/79 155/279/175
f 155/279/175 70/275/79 162/274/173
f 161/273/172 155/279/175 162/274/173
f 158/268/167 155/265/164 161/272/171
f 158/268/167 154/264/163 155/265/164
f 128/280/137 129/281/138 164/282/176
f 164/282/176 129/281/138 165/283/177
f 127/284/136 166/285/178 129/286/138
f 129/286/138 166/285/178 165/287/177
f 167/288/179 166/289/178 126/290/135
f 126/290/135 166/289/178 127/291/136
f 168/292/180 169/293/181 170/294/182
f 143/240/152 130/211/139 132/213/141
f 143/240/152 132/213/141 139/232/148
f 139/230/148 137/229/146 143/295/152
f 137/229/146 171/296/183 143/295/152
f 171/297/183 137/226/146 136/223/145
f 135/298/144 171/297/183 136/223/145
f 172/299/184 171/297/183 135/298/144
f 134/300/143 172/299/184 135/298/144
f 133/301/142 172/299/184 134/300/143
f 172/299/184 133/301/142 173/302/185
f 172/303/184 173/304/185 170/305/182
f 174/306/186 172/303/184 170/305/182
f 170/307/182 169/308/181 174/309/186
f 169/308/181 150/258/159 174/309/186
f 174/309/186 150/258/159 142/239/151
f 142/239/151 150/258/159 148/256/157
f 174/309/186 142/239/151 143/240/152
f 143/295/152 171/296/183 174/306/186
f 171/296/183 172/303/184 174/306/186
f 175/310/187 176/311/188 177/312/189
f 177/313/189 176/314/188 178/315/190
f 176/314/188 179/316/191 178/315/190
f 176/314/188 180/317/192 179/316/191
f 181/318/193 180/317/192 176/314/188
f 182/319/194 183/320/195 184/321/196
f 185/322/197 182/319/194 184/321/196
f 185/322/197 184/321/196 177/323/189
f 185/324/197 177/325/189 178/326/190
f 185/324/197 178/326/190 186/327/198
f 178/315/190 179/316/191 186/328/198
f 179/316/191 187/329/199 186/328/198
f 188/330/200 187/331/199 179/332/191
f 180/317/192 188/333/200 179/316/191
f 188/333/200 180/317/192 189/334/201
f 189/335/201 180/336/192 190/337/202
f 190/337/202 180/336/192 191/338/203
f 191/338/203 180/336/192 192/339/204
f 180/336/192 181/340/193 192/339/204
f 192/339/204 181/340/193 193/341/205
f 181/340/193 194/342/206 193/341/205
f 194/343/206 181/318/193 175/344/187
f 175/344/187 181/318/193 176/314/188
f 185/324/197 186/327/198 182/345/194
f 186/327/198 187/346/199 182/345/194
f 187/347/199 183/320/195 182/319/194
f 34/348/36 12/349/14 17/350/19
f 195/351/207 34/348/36 17/350/19
f 31/352/33 34/353/36 195/354/207
f 196/355/208 31/352/33 195/354/207
f 197/356/209 31/352/33 196/355/208
f 31/352/33 197/356/209 29/357/31
f 29/357/31 197/356/209 27/358/29
f 197/356/209 198/359/210 27/358/29
f 27/360/29 198/361/210 28/362/30
f 198/361/210 199/363/211 28/362/30
f 28/362/30 199/363/211 200/364/212
f 68/365/76 28/362/30 200/364/212
f 201/366/213 68/367/76 200/368/212
f 201/366/213 67/369/75 68/367/76
f 201/366/213 66/370/74 67/369/75
f 201/366/213 202/371/214 66/370/74
f 66/372/74 202/373/214 65/374/73
f 202/373/214 203/375/215 65/374/73
f 65/374/73 203/375/215 72/376/81
f 203/375/215 204/377/216 72/376/81
f 72/378/81 204/379/216 73/380/82
f 204/379/216 205/381/217 73/380/82
f 73/380/82 205/381/217 75/382/84
f 205/381/217 206/383/218 75/382/84
f 75/382/84 206/383/218 76/384/85
f 206/383/218 207/385/219 76/384/85
f 76/386/85 207/387/219 5/388/7
f 207/387/219 9/389/11 5/388/7
f 208/390/220 209/391/221 210/392/222
f 211/393/223 209/391/221 208/390/220
f 212/394/224 211/393/223 208/390/220
f 213/395/225 211/396/223 212/397/224
f 214/398/226 213/395/225 212/397/224
f 215/399/227 213/400/225 214/401/226
f 213/400/225 215/399/227 216/402/228
f 216/403/228 215/404/227 210/405/222
f 215/404/227 217/406/229 210/405/222
f 210/392/222 217/407/229 208/390/220
f 208/408/220 214/409/226 212/410/224
f 208/408/220 215/411/227 214/409/226
f 208/408/220 217/412/229 215/411/227
f 163/413/174 145/414/154 146/415/155
f 80/416/89 145/414/154 163/413/174
f 71/417/80 80/416/89 163/413/174
f 60/418/66 80/416/89 71/417/80
f 152/419/161 168/420/180 218/421/230
f 151/422/160 168/420/180 152/419/161
f 168/420/180 151/422/160 169/423/181
f 169/423/181 151/422/160 150/424/159
f 219/425/231 220/426/232 221/427/233
f 220/426/232 222/428/234 223/429/235
f 224/430/236 220/426/232 223/429/235
f 223/429/235 225/431/237 224/430/236
f 224/430/236 225/431/237 226/432/238
f 225/431/237 227/433/239 226/432/238
f 226/432/238 227/433/239 228/434/240
f 227/433/239 229/435/241 228/434/240
f 228/434/240 229/435/241 230/436/242
f 229/435/241 156/266/165 230/436/242
f 221/427/233 220/426/232 224/430/236
f 226/432/238 221/427/233 224/430/236
f 231/437/243 221/427/233 226/432/238
f 228/434/240 231/437/243 226/432/238
f 232/438/244 231/437/243 228/434/240
f 230/436/242 232/438/244 228/434/240
f 233/439/245 232/438/244 230/436/242
f 157/267/166 233/439/245 230/436/242
f 230/436/242 156/266/165 157/267/166
f 229/435/241 50/72/54 156/266/165
f 48/70/52 50/72/54 229/435/241
f 227/433/239 48/70/52 229/435/241
f 46/68/50 48/70/52 227/433/239
f 225/431/237 46/68/50 227/433/239
f 44/66/48 46/68/50 225/431/237
f 159/269/168 233/439/245 157/267/166
f 223/429/235 44/66/48 225/431/237
f 43/65/47 44/66/48 223/429/235
f 223/429/235 222/428/234 43/65/47
f 222/428/234 41/63/45 43/65/47
f 234/440/246 85/441/94 235/442/247
f 235/442/247 85/441/94 83/443/92
f 236/444/248 235/442/247 83/443/92
f 82/445/91 236/446/248 83/447/92
f 237/448/249 236/446/248 82/445/91
f 238/449/250 236/444/248 237/450/249
f 238/449/250 237/450/249 239/451/251
f 238/452/250 239/453/251 84/454/93
f 238/452/250 84/454/93 85/455/94
f 238/449/250 85/441/94 234/440/246
f 238/449/250 234/440/246 235/442/247
f 238/449/250 235/442/247 236/444/248
f 240/456/252 241/457/253 242/458/254
f 242/458/254 241/457/253 243/459/255
f 241/460/253 244/461/256 243/462/255
f 243/462/255 244/461/256 245/463/257
f 245/463/257 244/461/256 246/464/258
f 244/461/256 247/465/259 246/464/258
f 246/464/258 247/465/259 248/466/260
f 247/465/259 249/467/261 248/466/260
f 248/468/260 249/469/261 250/470/262
f 249/469/261 251/471/263 250/470/262
f 252/472/264 253/473/265 254/474/266
f 252/472/264 255/475/267 253/473/265
f 253/473/265 255/475/267 256/476/268
f 255/475/267 257/477/269 256/476/268
f 149/271/170 258/478/270 160/270/169
f 153/263/162 149/479/158 148/262/157
f 258/480/271 149/479/158 153/263/162
f 218/481/230 258/480/271 153/263/162
f 218/481/230 153/263/162 152/261/161
f 218/481/230 259/482/272 258/480/271
f 218/481/230 260/483/273 259/482/272
f 259/482/274 260/483/275 261/484/276
f 261/484/276 260/483/275 262/485/277
f 260/483/275 263/486/278 262/485/277
f 262/485/277 263/486/278 264/487/279
f 263/486/278 265/488/280 264/487/279
f 266/489/281 265/488/280 263/486/278
f 267/490/282 266/489/281 263/486/278
f 268/491/283 267/492/284 263/493/285
f 269/494/286 268/495/283 263/486/285
f 269/494/286 263/486/285 260/483/273
f 269/494/286 260/483/273 270/496/287
f 218/481/230 270/496/287 260/483/273
f 218/481/230 271/497/288 270/496/287
f 218/481/230 168/292/180 271/497/288
f 272/498/289 259/482/274 261/484/276
f 258/480/270 259/482/274 272/498/289
f 269/494/286 270/496/287 273/499/290
f 267/492/284 268/491/283 274/500/291
f 275/501/292 267/492/284 274/500/291
f 219/425/293 267/492/284 275/501/292
f 219/425/231 266/502/281 267/492/282
f 266/502/281 219/425/231 221/427/233
f 231/437/243 266/502/281 221/427/233
f 265/503/280 266/502/281 231/437/243
f 232/438/244 265/503/280 231/437/243
f 264/504/279 265/503/280 232/438/244
f 233/439/245 264/504/279 232/438/244
f 262/505/277 264/504/279 233/439/245
f 159/269/168 262/505/277 233/439/245
f 261/506/276 262/505/277 159/269/168
f 160/270/169 261/506/276 159/269/168
f 272/507/289 261/506/276 160/270/169
f 258/478/270 272/507/289 160/270/169
f 204/508/216 203/509/215 273/499/290
f 270/496/287 204/508/216 273/499/290
f 205/510/217 204/508/216 270/496/287
f 271/497/288 205/510/217 270/496/287
f 206/511/218 205/510/217 271/497/288
f 206/511/218 271/497/288 207/512/219
f 271/497/288 276/513/294 207/512/219
f 168/292/180 276/513/294 271/497/288
f 170/294/182 276/513/294 168/292/180
f 170/305/182 173/304/185 276/514/294
f 276/513/294 173/515/185 207/512/219
f 207/512/219 173/515/185 9/516/11
f 173/515/185 133/517/142 9/516/11
f 133/517/142 20/518/22 9/516/11
f 277/519/295 268/495/283 269/494/286
f 278/520/296 277/519/295 269/494/286
f 269/494/286 273/499/290 278/520/296
f 273/499/290 279/521/297 278/520/296
f 273/499/290 203/509/215 279/521/297
f 203/509/215 280/522/298 279/521/297
f 280/522/298 203/509/215 202/523/214
f 280/522/298 202/523/214 201/524/213
f 280/522/298 201/524/213 200/525/212
f 280/522/298 200/525/212 199/526/211
f 280/522/298 199/526/211 278/520/296
f 278/520/296 199/526/211 281/527/299
f 277/519/295 281/527/299 199/526/211
f 282/528/300 277/519/295 199/526/211
f 268/495/283 277/519/295 282/528/300
f 274/529/291 268/495/283 282/528/300
f 279/521/297 280/522/298 278/520/296
f 281/527/299 277/519/295 278/520/296
f 282/528/300 199/526/211 198/530/210
f 197/531/209 282/528/300 198/530/210
f 274/529/291 282/528/300 197/531/209
f 197/531/209 196/532/208 274/529/291
f 274/529/291 196/532/208 283/533/301
f 283/533/301 196/532/208 284/534/302
f 196/532/208 195/535/207 284/534/302
f 284/534/302 195/535/207 285/536/303
f 195/535/207 17/537/19 285/536/303
f 17/537/19 22/538/24 286/539/304
f 285/536/303 17/537/19 286/539/304
f 285/536/303 286/539/304 287/540/305
f 288/541/306 289/542/307 290/543/308
f 289/542/307 291/544/309 292/545/310
f 293/546/311 291/547/309 289/548/307
f 293/546/311 289/548/307 288/549/306
f 294/550/312 293/546/311 288/549/306
f 295/551/313 293/552/311 294/553/312
f 293/552/311 295/551/313 254/554/266
f 254/474/266 295/555/313 252/472/264
f 295/555/313 296/556/314 252/472/264
f 252/557/264 296/558/314 290/543/308
f 290/543/308 297/559/315 252/557/264
f 289/542/307 297/559/315 290/543/308
f 297/559/315 289/542/307 292/545/310
f 255/560/267 297/559/315 292/545/310
f 292/545/310 257/561/269 255/560/267
f 292/545/310 298/562/316 257/561/269
f 299/563/317 300/564/318 298/565/316
f 252/557/264 297/559/315 255/560/267
f 299/566/317 301/567/319 300/568/318
f 300/569/318 301/570/319 253/571/265
f 253/571/265 301/570/319 254/554/266
f 301/570/319 293/552/311 254/554/266
f 301/567/319 291/547/309 293/546/311
f 299/566/317 291/547/309 301/567/319
f 299/572/317 298/562/316 291/544/309
f 291/544/309 298/562/316 292/545/310
f 256/573/268 300/569/318 253/571/265
f 298/565/316 300/564/318 256/574/268
f 257/575/269 298/565/316 256/574/268
f 302/576/320 303/577/321 304/578/322
f 304/578/322 303/577/321 305/579/323
f 302/580/320 304/581/322 306/582/324
f 302/583/320 306/584/324 307/585/325
f 302/583/320 307/585/325 303/586/321
f 303/586/321 307/585/325 308/587/326
f 303/586/321 308/587/326 309/588/327
f 305/579/323 303/577/321 309/589/327
f 305/579/323 309/589/327 310/590/328
f 311/591/329 304/581/322 312/592/330
f 306/582/324 304/581/322 311/591/329
f 313/593/331 306/594/324 311/595/329
f 307/596/325 306/594/324 313/593/331
f 314/597/332 307/596/325 313/593/331
f 308/598/326 307/596/325 314/597/332
f 315/599/333 308/598/326 314/597/332
f 315/599/333 316/600/334 308/598/326
f 316/601/334 317/602/335 308/587/326
f 308/587/326 317/602/335 309/588/327
f 317/603/335 318/604/336 309/589/327
f 309/589/327 318/604/336 310/590/328
f 318/604/336 319/605/337 310/590/328
f 319/605/337 320/606/338 310/590/328
f 310/590/328 320/606/338 305/579/323
f 320/606/338 312/607/330 305/579/323
f 312/607/330 304/578/322 305/579/323
f 319/605/337 318/604/336 321/608/339
f 315/609/333 319/610/337 321/611/339
f 315/609/333 314/612/332 319/610/337
f 240/613/252 322/614/340 241/615/253
f 241/615/253 322/614/340 244/616/256
f 244/616/256 322/614/340 247/617/259
f 322/614/340 323/618/341 247/617/259
f 247/617/259 323/618/341 249/619/261
f 323/618/341 251/620/263 249/619/261
f 314/612/332 313/621/331 319/610/337
f 319/610/337 313/621/331 320/622/338
f 313/621/331 311/623/329 320/622/338
f 320/622/338 311/623/329 312/624/330
f 324/625/342 325/626/343 326/627/344
f 326/627/344 327/628/345 324/625/342
f 328/629/346 327/628/345 326/627/344
f 329/630/347 326/627/344 325/626/343
f 329/630/347 328/629/346 326/627/344
f 330/631/348 328/629/346 329/630/347
f 285/632/303 331/633/349 284/634/302
f 283/635/301 284/634/302 331/633/349
f 283/635/301 331/633/349 324/625/342
f 283/635/301 324/625/342 275/501/292
f 324/625/342 327/628/345 275/501/292
f 327/628/345 219/425/293 275/501/292
f 332/636/350 219/425/293 327/628/345
f 332/636/350 327/628/345 328/629/346
f 332/636/350 328/629/346 333/637/351
f 328/629/346 330/631/348 333/637/351
f 333/637/351 330/631/348 334/638/352
f 334/638/352 330/631/348 335/639/353
f 334/638/352 335/639/353 40/62/42
f 40/62/42 335/639/353 336/640/354
f 283/635/301 275/501/292 274/500/291
f 41/63/43 334/638/352 40/62/42
f 41/63/43 333/637/351 334/638/352
f 222/428/355 333/637/351 41/63/43
f 332/636/350 333/637/351 222/428/355
f 332/636/350 222/428/355 220/426/356
f 332/636/350 220/426/356 219/425/293
f 335/639/353 337/641/357 336/640/354
f 335/639/353 338/642/358 337/641/357
f 24/643/26 33/644/35 339/645/359
f 32/646/34 339/645/359 33/644/35
f 32/646/34 336/640/354 339/645/359
f 32/646/34 40/62/42 336/640/354
f 32/646/34 30/61/32 40/62/42
f 336/640/354 337/641/357 340/647/360
f 337/641/357 341/648/361 340/647/360
f 337/641/357 338/642/358 341/648/361
f 338/642/358 342/649/362 341/648/361
f 343/650/363 342/649/362 338/642/358
f 342/651/362 343/652/363 344/653/364
f 344/653/364 343/652/363 345/654/365
f 344/655/364 345/656/365 346/657/366
f 345/656/365 347/658/367 346/657/366
f 347/659/367 348/660/368 346/661/366
f 349/662/369 348/660/368 347/659/367
f 350/663/370 349/662/369 347/659/367
f 351/664/371 349/662/369 350/663/370
f 352/665/372 351/664/371 350/663/370
f 353/666/373 351/664/371 352/665/372
f 354/667/374 353/666/373 352/665/372
f 355/668/375 353/666/373 354/667/374
f 356/669/376 355/670/375 354/671/374
f 341/672/361 342/651/362 344/653/364
f 356/673/376 352/665/372 357/674/377
f 354/671/374 352/675/372 356/669/376
f 15/676/17 355/668/375 356/673/376
f 15/676/17 356/673/376 16/677/18
f 16/677/18 356/673/376 21/678/23
f 356/673/376 357/674/377 21/678/23
f 21/678/23 357/674/377 22/679/24
f 357/680/377 286/539/304 22/538/24
f 352/681/372 286/539/304 357/680/377
f 287/682/305 286/683/304 352/665/372
f 350/663/370 287/682/305 352/665/372
f 358/684/378 287/685/305 350/686/370
f 347/658/367 358/684/378 350/686/370
f 359/687/379 358/684/378 347/658/367
f 359/687/379 347/658/367 345/656/365
f 360/688/380 359/689/379 345/654/365
f 343/652/363 360/688/380 345/654/365
f 329/630/347 360/690/380 343/650/363
f 329/630/347 343/650/363 338/642/358
f 329/630/347 338/642/358 330/631/348
f 330/631/348 338/642/358 335/639/353
f 285/632/303 358/684/378 331/633/349
f 285/632/303 287/685/305 358/684/378
f 359/689/379 360/688/380 358/691/378
f 358/684/378 360/690/380 361/692/381
f 358/684/378 361/692/381 331/633/349
f 331/633/349 361/692/381 324/625/342
f 361/692/381 325/626/343 324/625/342
f 361/692/381 360/690/380 325/626/343
f 329/630/347 325/626/343 360/690/380
f 362/693/382 363/694/383 364/695/384
f 365/696/385 363/694/383 362/693/382
f 366/697/386 365/696/385 362/693/382
f 341/648/361 365/696/385 340/647/360
f 365/698/385 341/672/361 363/699/383
f 363/699/383 341/672/361 344/653/364
f 363/694/383 344/655/364 364/695/384
f 364/695/384 344/655/364 346/657/366
f 346/661/366 348/660/368 364/700/384
f 348/660/368 367/701/387 364/700/384
f 364/700/384 367/701/387 362/702/382
f 367/701/387 368/703/388 362/702/382
f 362/702/382 368/703/388 366/704/386
f 368/703/388 369/705/389 366/704/386
f 23/41/25 370/706/390 13/54/15
f 13/54/15 370/706/390 14/707/16
f 14/708/16 370/709/390 19/710/21
f 370/709/390 371/711/391 19/710/21
f 19/710/21 371/711/391 18/712/20
f 371/711/391 372/713/392 18/712/20
f 373/714/393 374/715/394 372/713/392
f 369/705/389 374/715/394 373/714/393
f 366/704/386 369/705/389 373/714/393
f 373/714/393 25/716/27 366/704/386
f 25/717/27 365/696/385 366/697/386
f 24/643/26 365/696/385 25/717/27
f 24/643/26 339/645/359 365/696/385
f 340/647/360 365/696/385 339/645/359
f 339/645/359 336/640/354 340/647/360
f 372/718/392 371/719/391 373/720/393
f 371/711/391 370/709/390 373/714/393
f 373/721/393 370/706/390 23/41/25
f 23/41/25 25/43/27 373/721/393
f 375/722/395 372/713/392 376/723/396
f 372/713/392 374/715/394 376/723/396
f 18/712/20 372/713/392 15/676/17
f 372/713/392 355/668/375 15/676/17
f 355/668/375 372/713/392 375/722/395
f 377/724/397 355/668/375 375/722/395
f 353/666/373 355/668/375 377/724/397
f 378/725/398 379/726/399 353/727/373
f 380/728/400 353/727/373 379/726/399
f 380/728/400 351/729/371 353/727/373
f 380/730/400 349/731/369 351/732/371
f 380/733/400 348/734/368 349/735/369
f 348/734/368 380/733/400 381/736/401
f 382/737/402 348/734/368 381/736/401
f 367/738/387 348/734/368 382/737/402
f 383/739/403 367/738/387 382/737/402
f 368/740/388 367/738/387 383/739/403
f 368/741/388 383/742/403 369/743/389
f 369/744/389 383/745/403 374/746/394
f 383/745/403 384/747/404 374/746/394
f 374/746/394 384/747/404 385/748/405
f 374/746/394 385/748/405 376/749/396
f 376/749/396 385/748/405 375/750/395
f 385/748/405 378/725/398 375/750/395
f 375/750/395 378/725/398 377/751/397
f 378/725/398 353/727/373 377/751/397
f 383/752/403 382/753/402 384/754/404
f 384/754/404 382/753/402 385/755/405
f 382/753/402 381/756/401 385/755/405
f 385/755/405 381/756/401 378/757/398
f 381/756/401 379/758/399 378/757/398
f 380/759/400 379/758/399 381/756/401
f 388/760/406 386/761/407 387/762/408
f 387/762/408 389/763/409 388/760/406
f 389/763/409 390/764/410 388/760/406
f 388/760/406 390/764/410 391/765/411
f 390/764/410 392/766/412 391/765/411
f 391/765/411 392/766/412 393/767/413
f 392/766/412 394/768/414 393/767/413
f 393/767/413 394/768/414 395/769/415
f 394/768/414 396/770/416 395/769/415
f 395/769/415 396/770/416 397/771/417
f 396/770/416 398/772/418 397/771/417
f 397/771/417 398/772/418 399/773/419
f 400/774/420 397/775/417 399/776/419
f 401/777/421 397/775/417 400/774/420
f 402/778/422 403/779/423 398/772/418
f 398/772/418 403/779/423 399/773/419
f 399/776/419 403/780/423 400/774/420
f 411/781/424 412/782/425 413/783/426
f 412/782/425 414/784/427 413/783/426
f 413/783/426 414/784/427 415/785/428
f 414/784/427 416/786/429 415/785/428
f 415/785/428 416/786/429 405/787/430
f 414/784/427 412/782/425 417/788/431
f 418/789/432 414/784/427 417/788/431
f 416/786/429 414/784/427 418/789/432
f 419/790/433 416/786/429 418/789/432
f 406/791/434 416/786/429 419/790/433
f 416/786/429 406/791/434 405/787/430
f 415/785/428 405/787/430 396/770/416
f 394/768/414 415/785/428 396/770/416
f 413/783/426 415/785/428 394/768/414
f 392/766/412 413/783/426 394/768/414
f 411/781/424 413/783/426 392/766/412
f 390/764/410 411/781/424 392/766/412
f 407/792/435 406/791/434 419/790/433
f 404/793/436 408/794/437 420/795/438
f 421/796/439 423/797/440 422/798/441
f 423/797/440 424/799/442 422/798/441
f 429/800/443 423/797/440 421/796/439
f 420/801/438 429/800/443 421/796/439
f 409/802/444 428/803/445 427/804/446
f 427/804/446 410/805/447 409/802/444
f 417/788/431 410/805/447 427/804/446
f 426/806/448 417/788/431 427/804/446
f 418/789/432 417/788/431 426/806/448
f 425/807/449 418/789/432 426/806/448
f 419/790/433 418/789/432 425/807/449
f 424/808/442 419/790/433 425/807/449
f 407/792/435 419/790/433 424/808/442
f 423/809/440 407/792/435 424/808/442
f 408/794/437 407/792/435 423/809/440
f 429/810/443 408/794/437 423/809/440
f 420/795/438 408/794/437 429/810/443
