# Blender v3.0.1 OBJ File: ''
# www.blender.org
mtllib IZH_wheel.mtl
o Cylinder.002
v -0.218838 -0.963228 0.219362
v -0.276338 -0.774048 0.499402
v -0.276338 -0.898174 0.204546
v -0.218838 -0.291636 0.943850
v -0.276338 -0.556558 0.734018
v -0.218838 -0.596872 0.787186
v -0.276338 0.045474 0.920030
v -0.276338 -0.271942 0.880100
v -0.218838 0.048768 0.986672
v -0.276338 0.357402 0.848990
v -0.218838 0.383290 0.910484
v -0.276338 0.626222 0.675550
v -0.218838 0.671580 0.724478
v -0.276338 0.819510 0.420622
v -0.218838 0.980152 0.123292
v -0.218838 0.878870 0.451090
v -0.276338 0.898156 -0.204560
v -0.276338 0.913952 0.114966
v -0.218838 0.963212 -0.219378
v -0.276338 0.774026 -0.499414
v -0.218838 0.830092 -0.535588
v -0.276338 0.556540 -0.734034
v -0.218838 0.291622 -0.943866
v -0.218838 0.596852 -0.787200
v -0.218838 -0.048784 -0.986686
v -0.276338 0.271920 -0.880116
v -0.218838 -0.383306 -0.910500
v -0.276338 -0.045488 -0.920046
v -0.276338 -0.626240 -0.675564
v -0.276338 -0.357420 -0.849004
v 0.218692 -0.878888 -0.451112
v 0.276192 -0.913968 -0.115004
v 0.218692 -0.980166 -0.123314
v -0.218838 -0.980170 -0.123308
v -0.276338 -0.913968 -0.114980
v -0.218838 -0.830110 0.535576
v -0.235386 -0.619820 0.141154
v -0.297934 -0.804938 -0.101264
v -0.297934 -0.791030 0.180146
v 0.175302 -0.685194 -0.739160
v -0.175444 -0.896674 -0.460236
v -0.175444 -0.685194 -0.739160
v -0.297934 -0.681706 0.439822
v -0.235386 -0.534162 0.344628
v -0.297934 -0.490168 0.646454
v -0.235386 -0.384076 0.506534
v -0.297934 -0.239504 0.775108
v -0.235386 -0.187666 0.607346
v -0.297934 0.040048 0.810276
v -0.235386 0.031378 0.634902
v -0.297934 0.314766 0.747712
v -0.235386 0.246636 0.585874
v -0.297934 0.551518 0.594956
v -0.235386 0.432144 0.466184
v -0.235386 0.565532 0.290264
v -0.297934 0.721744 0.370444
v -0.235386 0.630702 0.079334
v -0.297934 0.804920 0.101248
v -0.297934 0.791008 -0.180158
v -0.235386 0.619802 -0.141168
v -0.297934 0.681690 -0.439838
v -0.235386 0.534144 -0.344644
v -0.297934 0.490146 -0.646470
v -0.235386 0.384058 -0.506550
v -0.297934 0.239482 -0.775124
v -0.235386 0.187648 -0.607362
v -0.235386 -0.031396 -0.634914
v -0.297934 -0.040068 -0.810290
v -0.235386 -0.246654 -0.585890
v -0.297934 -0.314782 -0.747726
v -0.297934 -0.551536 -0.594974
v -0.235386 -0.432162 -0.466198
v -0.297934 -0.721762 -0.370458
v -0.235386 -0.565550 -0.290278
v -0.156462 0.041720 -0.135078
v -0.296806 0.070950 -0.093594
v -0.156462 0.085406 -0.112658
v 0.302750 -0.000010 -0.000006
v 0.296666 -0.098698 0.063662
v 0.296666 -0.114526 0.026070
v 0.156320 -0.054858 -0.130304
v 0.296666 -0.005808 -0.117308
v 0.296666 -0.045574 -0.108254
v 0.156320 0.096094 0.103674
v 0.296666 0.104474 0.053626
v 0.156320 0.125762 0.064550
v 0.296666 -0.079850 -0.086140
v 0.156320 -0.096116 -0.103688
v 0.296666 0.116518 0.014654
v 0.156320 0.140256 0.017640
v 0.156320 -0.125778 -0.064566
v 0.296666 -0.104492 -0.053640
v 0.296666 0.114504 -0.026086
v 0.156320 0.137834 -0.031396
v 0.156320 -0.118802 0.076634
v 0.296666 -0.070970 0.093576
v 0.156320 -0.085424 0.112644
v 0.296666 -0.116538 -0.014668
v 0.156320 -0.140274 -0.017654
v 0.156320 0.118784 -0.076648
v 0.296666 0.098678 -0.063678
v 0.296666 -0.034682 0.112200
v 0.156320 -0.041746 0.135064
v 0.156320 -0.137852 0.031380
v 0.156320 0.085410 -0.112656
v 0.296666 0.070950 -0.093590
v 0.296666 0.005786 0.117294
v 0.156320 0.006966 0.141192
v 0.156320 0.041730 -0.135078
v 0.296666 0.034660 -0.112216
v 0.156320 0.054838 0.130288
v 0.296666 0.045556 0.108238
v 0.156320 -0.006984 -0.141208
v -0.218838 -0.878888 -0.451106
v -0.218838 -0.671602 -0.724496
v -0.276338 -0.819528 -0.420638
v -0.235386 -0.630722 -0.079350
v 0.175302 -0.846912 0.546412
v -0.175444 -0.608950 0.803118
v -0.175444 -0.846912 0.546412
v 0.175302 -0.608950 0.803118
v -0.175444 -0.297540 0.962954
v 0.175302 -0.297540 0.962954
v -0.175444 0.049750 1.006642
v 0.175302 0.049750 1.006642
v -0.175444 0.391048 0.928912
v 0.175302 0.685156 0.739160
v -0.175444 0.685174 0.739144
v 0.175302 0.896646 0.460242
v -0.175444 0.896654 0.460222
v 0.175302 0.999988 0.125788
v -0.175444 0.999988 0.125788
v 0.175302 0.982710 -0.223794
v -0.175444 0.982706 -0.223816
v 0.175302 0.846892 -0.546428
v -0.175444 0.846892 -0.546428
v 0.175302 0.608952 -0.803118
v -0.175444 0.608934 -0.803130
v 0.175302 0.297524 -0.962970
v -0.175444 0.297524 -0.962970
v 0.175302 -0.049748 -1.006658
v -0.175444 -0.049770 -1.006658
v 0.175302 -0.391070 -0.928926
v -0.175444 -0.391070 -0.928926
v 0.175302 -0.982722 0.223804
v -0.175444 -0.982722 0.223804
v -0.156462 -0.125782 -0.064562
v -0.156462 -0.140274 -0.017652
v -0.156462 -0.137852 0.031386
v -0.156462 -0.118800 0.076636
v -0.156462 -0.085422 0.112644
v -0.156462 -0.041742 0.135064
v -0.156462 0.006970 0.141192
v -0.156462 0.054840 0.130288
v -0.156462 0.096094 0.103670
v -0.156462 0.125762 0.064548
v -0.156462 0.140256 0.017636
v -0.156462 0.137834 -0.031400
v -0.156462 0.118778 -0.076652
v -0.156462 -0.006990 -0.141208
v -0.156462 -0.054862 -0.130304
v -0.156462 -0.096116 -0.103686
v -0.296806 0.005786 0.117294
v -0.296806 -0.005808 -0.117308
v -0.296806 0.034660 -0.112218
v -0.296806 0.045558 0.108236
v -0.296806 -0.104498 -0.053638
v -0.296806 0.104476 0.053622
v -0.296806 0.079832 0.086122
v -0.296806 -0.116538 -0.014666
v -0.296806 -0.045580 -0.108250
v -0.296806 -0.098698 0.063666
v -0.296806 -0.114520 0.026072
v -0.296806 -0.079850 -0.086136
v -0.296806 0.116518 0.014650
v -0.296806 -0.070970 0.093578
v -0.296806 0.114504 -0.026088
v -0.296806 -0.034682 0.112204
v -0.296806 0.098678 -0.063680
v -0.302892 -0.000010 -0.000006
v 0.235248 -0.534172 0.344614
v 0.235248 -0.187682 0.607340
v 0.235248 -0.384092 0.506526
v 0.235248 0.246620 0.585880
v 0.235248 0.031362 0.634902
v 0.235248 0.432132 0.466196
v 0.235248 0.630700 0.079350
v 0.235248 0.565522 0.290278
v 0.235248 0.619806 -0.141150
v 0.235248 0.534154 -0.344628
v 0.235248 0.384072 -0.506538
v 0.235248 0.187664 -0.607356
v 0.235248 -0.246640 -0.585896
v 0.235248 -0.031378 -0.634916
v 0.235248 -0.565540 -0.290294
v 0.235248 -0.432150 -0.466212
v 0.235248 -0.630718 -0.079364
v 0.235248 -0.619826 0.141134
v 0.218692 -0.671594 -0.724500
v 0.276192 -0.819516 -0.420662
v 0.218692 -0.291646 0.943850
v 0.276192 0.045450 0.920032
v 0.218692 0.048762 0.986672
v 0.276192 0.357378 0.848998
v 0.218692 0.383284 0.910488
v 0.276192 0.626204 0.675564
v 0.218698 0.671562 0.724496
v 0.218692 0.878858 0.451114
v 0.276192 0.913946 0.114990
v 0.218692 0.980152 0.123298
v 0.276192 0.898158 -0.204536
v 0.218692 0.963214 -0.219350
v 0.276192 0.774042 -0.499396
v 0.218692 0.830094 -0.535584
v 0.276192 0.556558 -0.734018
v 0.218692 0.596872 -0.787186
v 0.276192 0.271948 -0.880110
v 0.218692 0.291624 -0.943862
v 0.276192 -0.045464 -0.920048
v 0.218692 -0.048762 -0.986686
v 0.218692 -0.383302 -0.910502
v 0.276192 -0.626222 -0.675580
v 0.276192 0.819498 0.420646
v 0.276192 -0.357396 -0.849014
v 0.276192 -0.898176 0.204522
v 0.218692 -0.963230 0.219356
v 0.297794 -0.791032 0.180124
v 0.218692 -0.596872 0.787182
v 0.276192 -0.271964 0.880094
v 0.175302 -1.000006 -0.125802
v -0.175444 -1.000006 -0.125802
v 0.296666 0.079832 0.086124
v 0.297794 -0.681718 0.439804
v 0.297794 -0.239522 0.775102
v 0.297794 -0.490184 0.646442
v 0.297794 0.040026 0.810276
v 0.297794 0.314742 0.747718
v 0.297794 0.551498 0.594972
v 0.297794 0.721736 0.370462
v 0.297794 0.804916 0.101270
v 0.297788 0.681700 -0.439820
v 0.297794 0.791014 -0.180136
v 0.297788 0.490166 -0.646454
v 0.297788 0.239504 -0.775118
v 0.297788 -0.040044 -0.810290
v 0.297788 -0.314764 -0.747732
v 0.297788 -0.551520 -0.594988
v 0.297788 -0.804934 -0.101284
v 0.297788 -0.721756 -0.370480
v 0.218692 -0.830114 0.535570
v 0.276192 -0.556576 0.734004
v 0.276192 -0.774060 0.499380
v 0.175302 -0.896674 -0.460236
v 0.175302 0.391048 0.928912
vt 0.809256 0.743240
vt 0.819067 0.756817
vt 0.813528 0.742432
vt 0.841245 0.780005
vt 0.829192 0.768440
vt 0.826438 0.771806
vt 0.856176 0.778296
vt 0.842682 0.775900
vt 0.853582 0.782421
vt 0.838943 0.774277
vt 0.853881 0.778082
vt 0.837178 0.778251
vt 0.826207 0.765592
vt 0.823189 0.768723
vt 0.817210 0.753075
vt 0.808713 0.738695
vt 0.813304 0.754985
vt 0.814191 0.722864
vt 0.813037 0.738236
vt 0.809970 0.721817
vt 0.820533 0.708815
vt 0.816925 0.706386
vt 0.831297 0.697781
vt 0.843983 0.686915
vt 0.828737 0.694265
vt 0.860823 0.685223
vt 0.845186 0.691095
vt 0.839601 0.688431
vt 0.857818 0.689541
vt 0.857872 0.685193
vt 0.827935 0.700452
vt 0.841139 0.692499
vt 0.815328 0.759038
vt 0.813528 0.742432
vt 0.809256 0.743240
vt 0.808952 0.726318
vt 0.813244 0.727021
vt 0.815328 0.759038
vt 0.827567 0.739711
vt 0.818584 0.727868
vt 0.818837 0.741402
vt 0.923677 0.615848
vt 0.941114 0.601339
vt 0.939542 0.617180
vt 0.823703 0.754033
vt 0.831329 0.749459
vt 0.832597 0.764239
vt 0.838198 0.757332
vt 0.844444 0.770787
vt 0.847345 0.762381
vt 0.856269 0.772888
vt 0.856418 0.763997
vt 0.854928 0.763820
vt 0.841161 0.769345
vt 0.844805 0.761233
vt 0.829978 0.761716
vt 0.836177 0.755340
vt 0.830085 0.746851
vt 0.822080 0.750723
vt 0.827264 0.736791
vt 0.818417 0.737691
vt 0.819433 0.724192
vt 0.828054 0.726373
vt 0.825004 0.711855
vt 0.832360 0.716853
vt 0.834459 0.702168
vt 0.839662 0.709380
vt 0.846657 0.696298
vt 0.849079 0.704855
vt 0.859476 0.703823
vt 0.860127 0.694955
vt 0.846257 0.705852
vt 0.857725 0.694948
vt 0.843076 0.697548
vt 0.831481 0.704534
vt 0.837310 0.711249
vt 0.822976 0.715064
vt 0.830750 0.719380
vt 0.863067 0.729302
vt 0.859051 0.731792
vt 0.861256 0.727782
vt 0.857852 0.733678
vt 0.859500 0.735186
vt 0.858885 0.735659
vt 0.852637 0.738054
vt 0.855721 0.734351
vt 0.856080 0.735039
vt 0.861256 0.727782
vt 0.858334 0.731495
vt 0.859034 0.726973
vt 0.856652 0.735563
vt 0.854448 0.739573
vt 0.857558 0.731462
vt 0.856669 0.726973
vt 0.856669 0.740382
vt 0.857370 0.735860
vt 0.856818 0.731696
vt 0.854448 0.727782
vt 0.863067 0.738054
vt 0.859917 0.734531
vt 0.864249 0.736006
vt 0.858145 0.735893
vt 0.859034 0.740382
vt 0.852637 0.729302
vt 0.856203 0.732169
vt 0.860084 0.733773
vt 0.864659 0.733678
vt 0.861256 0.739573
vt 0.851454 0.731349
vt 0.855786 0.732824
vt 0.859982 0.733004
vt 0.864249 0.731349
vt 0.851044 0.733678
vt 0.855619 0.733582
vt 0.863067 0.729302
vt 0.859624 0.732316
vt 0.851454 0.736006
vt 0.814454 0.710313
vt 0.825098 0.697155
vt 0.818247 0.712441
vt 0.827366 0.729265
vt 0.923677 0.615848
vt 0.941114 0.601339
vt 0.939542 0.617180
vt 0.923680 0.615817
vt 0.941117 0.601308
vt 0.939580 0.617178
vt 0.923680 0.615817
vt 0.941117 0.601308
vt 0.939580 0.617178
vt 0.923680 0.615817
vt 0.941117 0.601308
vt 0.939580 0.617178
vt 0.939580 0.617178
vt 0.925253 0.599976
vt 0.941117 0.601308
vt 0.939580 0.617178
vt 0.925253 0.599976
vt 0.941117 0.601308
vt 0.939580 0.617178
vt 0.925253 0.599976
vt 0.941117 0.601308
vt 0.939580 0.617178
vt 0.925253 0.599976
vt 0.941117 0.601308
vt 0.939580 0.617177
vt 0.925253 0.599976
vt 0.941117 0.601308
vt 0.939580 0.617178
vt 0.925253 0.599976
vt 0.941117 0.601308
vt 0.939580 0.617177
vt 0.925253 0.599976
vt 0.941117 0.601308
vt 0.939580 0.617178
vt 0.925253 0.599976
vt 0.941117 0.601308
vt 0.939580 0.617178
vt 0.925253 0.599976
vt 0.941117 0.601308
vt 0.923677 0.615848
vt 0.941114 0.601339
vt 0.939542 0.617180
vt 0.923677 0.615848
vt 0.941114 0.601339
vt 0.939542 0.617180
vt 0.851284 0.730728
vt 0.850542 0.732907
vt 0.850589 0.735208
vt 0.851421 0.737353
vt 0.852936 0.739084
vt 0.854953 0.740192
vt 0.856859 0.740544
vt 0.856691 0.740429
vt 0.854463 0.739854
vt 0.852565 0.738552
vt 0.851226 0.736680
vt 0.850609 0.734462
vt 0.850786 0.732168
vt 0.851738 0.730072
vt 0.853348 0.728429
vt 0.855424 0.727437
vt 0.857714 0.727214
vt 0.857135 0.727293
vt 0.854694 0.727740
vt 0.852725 0.728933
vt 0.851044 0.733678
vt 0.855721 0.734351
vt 0.851454 0.736006
vt 0.859982 0.733004
vt 0.859624 0.732316
vt 0.851454 0.731349
vt 0.855619 0.733582
vt 0.861256 0.739573
vt 0.859500 0.735186
vt 0.863067 0.738054
vt 0.864659 0.733678
vt 0.864249 0.731349
vt 0.856203 0.732169
vt 0.855786 0.732824
vt 0.859034 0.740382
vt 0.858885 0.735659
vt 0.864249 0.736006
vt 0.860084 0.733773
vt 0.854448 0.727782
vt 0.852637 0.729302
vt 0.857370 0.735860
vt 0.858145 0.735893
vt 0.859917 0.734531
vt 0.856669 0.726973
vt 0.856818 0.731696
vt 0.856669 0.740382
vt 0.856652 0.735563
vt 0.859034 0.726973
vt 0.857558 0.731462
vt 0.854448 0.739573
vt 0.856080 0.735039
vt 0.858334 0.731495
vt 0.852637 0.738054
vt 0.857852 0.733678
vt 0.852725 0.728933
vt 0.830750 0.719380
vt 0.851284 0.730728
vt 0.846257 0.705852
vt 0.837310 0.711249
vt 0.857135 0.727293
vt 0.854694 0.727740
vt 0.857714 0.727214
vt 0.849079 0.704855
vt 0.859476 0.703823
vt 0.853348 0.728429
vt 0.855424 0.727437
vt 0.851738 0.730072
vt 0.839662 0.709380
vt 0.828054 0.726373
vt 0.832360 0.716853
vt 0.850609 0.734462
vt 0.850786 0.732168
vt 0.851226 0.736680
vt 0.827264 0.736791
vt 0.852565 0.738552
vt 0.830085 0.746851
vt 0.854463 0.739854
vt 0.836177 0.755340
vt 0.856691 0.740429
vt 0.844805 0.761233
vt 0.856859 0.740544
vt 0.847345 0.762381
vt 0.856418 0.763997
vt 0.852936 0.739084
vt 0.854953 0.740192
vt 0.831329 0.749459
vt 0.838198 0.757332
vt 0.850589 0.735208
vt 0.851421 0.737353
vt 0.850542 0.732907
vt 0.827567 0.739711
vt 0.827366 0.729265
vt 0.826438 0.771806
vt 0.819067 0.756817
vt 0.839601 0.688431
vt 0.857818 0.689541
vt 0.857872 0.685193
vt 0.860823 0.685223
vt 0.845186 0.691095
vt 0.843983 0.686915
vt 0.831297 0.697781
vt 0.828737 0.694265
vt 0.816925 0.706386
vt 0.814191 0.722864
vt 0.809970 0.721817
vt 0.813037 0.738236
vt 0.808713 0.738695
vt 0.817210 0.753075
vt 0.813304 0.754985
vt 0.826207 0.765592
vt 0.823189 0.768723
vt 0.838943 0.774277
vt 0.837178 0.778251
vt 0.853881 0.778082
vt 0.853582 0.782421
vt 0.841245 0.780005
vt 0.829192 0.768440
vt 0.820533 0.708815
vt 0.856122 0.782644
vt 0.842682 0.775900
vt 0.813244 0.727021
vt 0.808952 0.726318
vt 0.818584 0.727868
vt 0.825098 0.697155
vt 0.841139 0.692499
vt 0.860524 0.689562
vt 0.923677 0.615848
vt 0.941114 0.601339
vt 0.939542 0.617180
vt 0.859051 0.731792
vt 0.822976 0.715064
vt 0.843076 0.697548
vt 0.831481 0.704534
vt 0.857725 0.694948
vt 0.846657 0.696298
vt 0.860127 0.694955
vt 0.834459 0.702168
vt 0.825004 0.711855
vt 0.819433 0.724192
vt 0.822080 0.750723
vt 0.818417 0.737691
vt 0.829978 0.761716
vt 0.854928 0.763820
vt 0.841161 0.769345
vt 0.856269 0.772888
vt 0.844444 0.770787
vt 0.832597 0.764239
vt 0.818837 0.741402
vt 0.823703 0.754033
vt 0.814454 0.710313
vt 0.827935 0.700452
vt 0.818247 0.712441
vt 0.856176 0.778296
vt 0.860524 0.689562
vt 0.941114 0.601339
vt 0.940702 0.617276
vt 0.939542 0.617180
vt 0.942285 0.601521
vt 0.940702 0.617276
vt 0.940702 0.617276
vt 0.940702 0.617276
vt 0.942285 0.601487
vt 0.940743 0.617275
vt 0.940743 0.617275
vt 0.940743 0.617275
vt 0.940743 0.617275
vt 0.940743 0.617275
vt 0.940743 0.617275
vt 0.940743 0.617275
vt 0.940743 0.617275
vt 0.940743 0.617275
vt 0.940743 0.617275
vt 0.940743 0.617275
vt 0.942285 0.601487
vt 0.940743 0.617275
vt 0.942285 0.601521
vt 0.940702 0.617276
vt 0.940702 0.617276
vt 0.923677 0.615848
vt 0.924013 0.599881
vt 0.925215 0.599978
vt 0.924013 0.599881
vt 0.925215 0.599978
vt 0.924013 0.599881
vt 0.925215 0.599978
vt 0.924013 0.599881
vt 0.925215 0.599978
vt 0.924054 0.599880
vt 0.925253 0.599976
vt 0.924054 0.599880
vt 0.925253 0.599976
vt 0.924054 0.599880
vt 0.925253 0.599976
vt 0.924013 0.599881
vt 0.925215 0.599978
vt 0.924013 0.599881
vt 0.925215 0.599978
vt 0.923680 0.615817
vt 0.924054 0.599880
vt 0.923680 0.615817
vt 0.924054 0.599880
vt 0.923680 0.615817
vt 0.924054 0.599880
vt 0.923680 0.615817
vt 0.924054 0.599880
vt 0.923680 0.615817
vt 0.924054 0.599880
vt 0.923680 0.615817
vt 0.924054 0.599880
vt 0.923680 0.615817
vt 0.924054 0.599880
vt 0.923680 0.615817
vt 0.924054 0.599880
vt 0.923680 0.615817
vt 0.924054 0.599880
vt 0.856122 0.782644
vt 0.854278 0.772689
vt 0.857576 0.703840
vt 0.857576 0.703840
vt 0.854278 0.772689
vt 0.942285 0.601521
vt 0.942285 0.601521
vt 0.942285 0.601521
vt 0.942285 0.601487
vt 0.942285 0.601487
vt 0.942285 0.601487
vt 0.942285 0.601487
vt 0.942285 0.601488
vt 0.942285 0.601487
vt 0.942285 0.601487
vt 0.942285 0.601487
vt 0.942285 0.601487
vt 0.942285 0.601488
vt 0.942285 0.601521
vt 0.922471 0.615745
vt 0.922471 0.615745
vt 0.922471 0.615745
vt 0.922471 0.615745
vt 0.922471 0.615712
vt 0.922471 0.615712
vt 0.922471 0.615712
vt 0.922471 0.615745
vt 0.922471 0.615745
vt 0.922471 0.615712
vt 0.922471 0.615712
vt 0.922471 0.615712
vt 0.922471 0.615712
vt 0.922471 0.615712
vt 0.922471 0.615712
vt 0.922471 0.615712
vt 0.922471 0.615712
vt 0.922471 0.615712
vn -0.5906 -0.7868 0.1792
vn -0.8880 -0.3863 0.2493
vn -0.8880 -0.4483 0.1021
vn -0.5907 -0.2382 0.7710
vn -0.8880 -0.2778 0.3664
vn -0.5906 -0.4875 0.6430
vn -0.8880 0.0227 0.4592
vn -0.8880 -0.1357 0.4393
vn -0.5907 0.0398 0.8059
vn -0.8880 0.1784 0.4238
vn -0.5907 0.3131 0.7437
vn -0.8880 0.3126 0.3372
vn -0.5907 0.5486 0.5918
vn -0.8880 0.4090 0.2099
vn -0.5906 0.8006 0.1007
vn -0.5906 0.7179 0.3685
vn -0.8880 0.4483 -0.1021
vn -0.8880 0.4562 0.0574
vn -0.5906 0.7868 -0.1792
vn -0.8880 0.3863 -0.2493
vn -0.5907 0.6780 -0.4375
vn -0.8880 0.2778 -0.3664
vn -0.5907 0.2382 -0.7710
vn -0.5906 0.4875 -0.6430
vn -0.5907 -0.0398 -0.8059
vn -0.8880 0.1357 -0.4393
vn -0.5907 -0.3131 -0.7437
vn -0.8880 -0.0227 -0.4592
vn -0.8880 -0.3126 -0.3372
vn -0.8880 -0.1784 -0.4237
vn 0.5906 -0.7179 -0.3685
vn 0.8880 -0.4562 -0.0574
vn 0.5907 -0.8006 -0.1007
vn -0.5906 -0.8006 -0.1007
vn -0.8880 -0.4562 -0.0574
vn -0.5906 -0.6780 0.4375
vn -0.9420 0.3272 -0.0745
vn -0.9990 0.0443 0.0056
vn -0.9990 0.0435 -0.0099
vn 0.2095 -0.6647 -0.7171
vn -0.2094 -0.8699 -0.4465
vn -0.2094 -0.6648 -0.7171
vn -0.9990 0.0375 -0.0242
vn -0.9420 0.2820 -0.1819
vn -0.9990 0.0270 -0.0356
vn -0.9420 0.2027 -0.2674
vn -0.9990 0.0132 -0.0426
vn -0.9420 0.0991 -0.3206
vn -0.9990 -0.0022 -0.0446
vn -0.9420 -0.0166 -0.3352
vn -0.9990 -0.0173 -0.0411
vn -0.9420 -0.1302 -0.3093
vn -0.9990 -0.0303 -0.0327
vn -0.9420 -0.2281 -0.2461
vn -0.9420 -0.2985 -0.1532
vn -0.9990 -0.0397 -0.0204
vn -0.9420 -0.3329 -0.0419
vn -0.9990 -0.0443 -0.0056
vn -0.9990 -0.0435 0.0099
vn -0.9420 -0.3272 0.0745
vn -0.9990 -0.0375 0.0242
vn -0.9420 -0.2820 0.1819
vn -0.9990 -0.0270 0.0356
vn -0.9420 -0.2027 0.2674
vn -0.9990 -0.0132 0.0426
vn -0.9420 -0.0991 0.3206
vn -0.9420 0.0166 0.3352
vn -0.9990 0.0022 0.0446
vn -0.9420 0.1302 0.3093
vn -0.9990 0.0173 0.0411
vn -0.9990 0.0303 0.0327
vn -0.9420 0.2281 0.2461
vn -0.9990 0.0397 0.0204
vn -0.9420 0.2985 0.1532
vn -0.1681 0.2910 -0.9418
vn -0.1680 0.5956 -0.7855
vn -0.1681 0.5956 -0.7855
vn 1.0000 -0.0000 0.0000
vn 0.9987 -0.0435 0.0280
vn 0.9987 -0.0504 0.0115
vn 0.1681 -0.3825 -0.9086
vn 0.1681 -0.0486 -0.9846
vn 0.1680 -0.3824 -0.9086
vn 0.1681 0.6701 0.7230
vn 0.1681 0.8770 0.4502
vn 0.1681 -0.6701 -0.7230
vn 0.1681 0.9781 0.1231
vn 0.1680 -0.8770 -0.4501
vn 0.1681 -0.8770 -0.4502
vn 0.1681 0.9612 -0.2189
vn 0.1680 -0.8283 0.5344
vn 0.1681 -0.5956 0.7855
vn 0.1680 -0.9781 -0.1231
vn 0.1681 0.8284 -0.5344
vn 0.1681 0.8283 -0.5344
vn 0.1681 -0.2910 0.9418
vn 0.1680 -0.9612 0.2189
vn 0.1681 0.5956 -0.7855
vn 0.1681 0.0486 0.9846
vn 0.1681 0.0487 0.9846
vn 0.1681 -0.8283 0.5344
vn 0.1681 0.2910 -0.9418
vn 0.1680 0.3825 0.9086
vn 0.1681 -0.0487 -0.9846
vn -0.5906 -0.7179 -0.3685
vn -0.5907 -0.5486 -0.5918
vn -0.8880 -0.4090 -0.2099
vn -0.9420 0.3329 0.0419
vn 0.2094 -0.8216 0.5301
vn -0.2094 -0.5908 0.7792
vn -0.2094 -0.8217 0.5301
vn 0.2094 -0.5908 0.7792
vn -0.2094 -0.2887 0.9342
vn 0.2094 -0.2887 0.9343
vn -0.2094 0.0483 0.9766
vn 0.2094 0.0483 0.9766
vn -0.2094 0.3794 0.9012
vn 0.2094 0.6647 0.7171
vn -0.2094 0.6647 0.7171
vn 0.2094 0.8699 0.4465
vn -0.2094 0.8699 0.4465
vn 0.2094 0.9702 0.1220
vn -0.2094 0.9702 0.1220
vn 0.2094 0.9534 -0.2171
vn -0.2094 0.9534 -0.2171
vn 0.2094 0.8217 -0.5301
vn -0.2094 0.8217 -0.5301
vn 0.2094 0.5908 -0.7792
vn -0.2094 0.5908 -0.7792
vn 0.2095 0.2887 -0.9342
vn -0.2094 0.2887 -0.9342
vn 0.2095 -0.0483 -0.9766
vn -0.2094 -0.0483 -0.9766
vn 0.2094 -0.3794 -0.9012
vn -0.2094 -0.3794 -0.9012
vn 0.2094 -0.9534 0.2171
vn -0.2094 -0.9534 0.2171
vn -0.9875 0.1403 0.0720
vn -0.9875 0.1564 0.0197
vn -0.9875 0.1537 -0.0350
vn -0.9875 0.1325 -0.0855
vn -0.9875 0.0953 -0.1256
vn -0.9875 0.0465 -0.1506
vn -0.9875 -0.0078 -0.1575
vn -0.9875 -0.0612 -0.1453
vn -0.9875 -0.1072 -0.1156
vn -0.9875 -0.1403 -0.0720
vn -0.9875 -0.1564 -0.0197
vn -0.9875 -0.1537 0.0350
vn -0.9875 -0.1325 0.0855
vn -0.9875 -0.0953 0.1256
vn -0.9875 -0.0465 0.1506
vn -0.9875 0.0078 0.1575
vn -0.9875 0.0612 0.1453
vn -0.9875 0.1072 0.1156
vn -0.1681 0.3825 0.9085
vn -0.1681 0.0487 0.9846
vn -0.1681 -0.0487 -0.9846
vn -0.1681 0.2910 -0.9419
vn -0.1681 0.6701 0.7230
vn -0.1680 -0.9781 -0.1230
vn -0.1681 -0.8770 -0.4502
vn -0.1680 -0.8770 -0.4501
vn -0.1681 -0.3825 -0.9085
vn -0.1680 0.8770 0.4502
vn -0.1680 0.6701 0.7230
vn -0.1680 -0.9612 0.2189
vn -0.1681 -0.9781 -0.1230
vn -0.1681 -0.6701 -0.7230
vn -0.1681 0.9781 0.1231
vn -0.1681 0.8770 0.4502
vn -0.1681 -0.8283 0.5344
vn -0.1681 -0.9612 0.2189
vn -0.1681 0.9612 -0.2189
vn -0.1681 0.9781 0.1230
vn -0.1680 -0.8283 0.5345
vn -0.1680 -0.5956 0.7855
vn -0.1680 0.8283 -0.5345
vn -0.1681 -0.2910 0.9418
vn -0.1680 0.8283 -0.5344
vn -1.0000 -0.0000 0.0000
vn -0.9987 -0.0460 -0.0236
vn -0.9987 -0.0513 -0.0065
vn -0.9987 -0.0505 0.0115
vn -0.9987 -0.0435 0.0281
vn -0.9987 -0.0313 0.0412
vn -0.9987 -0.0153 0.0494
vn -0.9987 0.0026 0.0517
vn -0.9987 0.0201 0.0477
vn -0.9987 0.0352 0.0380
vn -0.9987 0.0460 0.0236
vn -0.9987 0.0513 0.0065
vn -0.9987 0.0505 -0.0115
vn -0.9987 0.0435 -0.0281
vn -0.9987 0.0313 -0.0412
vn -0.9987 0.0153 -0.0494
vn -0.9987 -0.0026 -0.0517
vn -0.9987 -0.0201 -0.0477
vn -0.9987 -0.0352 -0.0380
vn 0.9875 0.0953 -0.1256
vn 0.9875 0.1325 -0.0855
vn 0.9875 0.0466 -0.1506
vn 0.9875 -0.0078 -0.1575
vn 0.9875 0.0465 -0.1506
vn 0.9875 -0.0612 -0.1453
vn 0.9875 -0.1072 -0.1156
vn 0.9875 -0.1403 -0.0720
vn 0.9875 -0.1564 -0.0197
vn 0.9875 -0.1537 0.0350
vn 0.9875 -0.1325 0.0855
vn 0.9875 -0.0953 0.1256
vn 0.9875 -0.0466 0.1506
vn 0.9875 0.0078 0.1575
vn 0.9875 0.0612 0.1453
vn 0.9875 0.1072 0.1156
vn 0.9875 0.1403 0.0720
vn 0.9875 0.1564 0.0197
vn 0.9875 0.1537 -0.0350
vn 0.5907 -0.5485 -0.5918
vn 0.8880 -0.4090 -0.2100
vn 0.5907 -0.2382 0.7710
vn 0.8880 0.0227 0.4592
vn 0.5907 0.0398 0.8059
vn 0.8880 0.1784 0.4238
vn 0.5907 0.3131 0.7437
vn 0.8880 0.3126 0.3372
vn 0.5907 0.5485 0.5918
vn 0.5907 0.7179 0.3685
vn 0.8880 0.4562 0.0574
vn 0.5907 0.8006 0.1007
vn 0.8880 0.4483 -0.1021
vn 0.5907 0.7868 -0.1792
vn 0.8880 0.3864 -0.2492
vn 0.5907 0.6780 -0.4375
vn 0.8880 0.2778 -0.3664
vn 0.5907 0.4875 -0.6430
vn 0.8880 0.1357 -0.4393
vn 0.5907 0.2382 -0.7709
vn 0.8880 -0.0227 -0.4592
vn 0.5907 -0.0398 -0.8059
vn 0.5907 -0.3131 -0.7437
vn 0.8880 -0.3125 -0.3372
vn 0.8880 0.4090 0.2100
vn 0.8880 -0.1784 -0.4238
vn 0.8880 -0.4483 0.1021
vn 0.5907 -0.7868 0.1792
vn 0.9420 0.2820 -0.1819
vn 0.9990 0.0435 -0.0099
vn 0.9420 0.3272 -0.0745
vn 0.5907 -0.4875 0.6430
vn 0.8880 -0.1357 0.4393
vn 0.2094 -0.9702 -0.1220
vn -0.2094 -0.9702 -0.1220
vn 0.9420 0.2027 -0.2674
vn 0.9990 0.0375 -0.0242
vn 0.9990 0.0132 -0.0426
vn 0.9990 0.0269 -0.0355
vn 0.9420 0.0991 -0.3206
vn 0.9990 -0.0022 -0.0445
vn 0.9420 -0.0166 -0.3351
vn 0.9990 -0.0173 -0.0411
vn 0.9420 -0.1302 -0.3093
vn 0.9990 -0.0303 -0.0327
vn 0.9420 -0.2985 -0.1532
vn 0.9420 -0.2281 -0.2461
vn 0.9420 -0.3329 -0.0419
vn 0.9990 -0.0397 -0.0204
vn 0.9420 -0.3272 0.0745
vn 0.9990 -0.0442 -0.0056
vn 0.9990 -0.0375 0.0242
vn 0.9990 -0.0435 0.0099
vn 0.9420 -0.2027 0.2674
vn 0.9420 -0.2819 0.1819
vn 0.9420 -0.0991 0.3206
vn 0.9990 -0.0270 0.0355
vn 0.9420 0.0166 0.3351
vn 0.9990 -0.0132 0.0426
vn 0.9420 0.1302 0.3092
vn 0.9990 0.0022 0.0446
vn 0.9420 0.2281 0.2461
vn 0.9990 0.0173 0.0411
vn 0.9420 0.2985 0.1532
vn 0.9990 0.0303 0.0327
vn 0.9990 0.0443 0.0056
vn 0.9990 0.0397 0.0204
vn 0.5907 -0.6780 0.4375
vn 0.8880 -0.2778 0.3664
vn 0.9420 0.3329 0.0419
vn 0.9987 -0.0513 -0.0065
vn 0.9987 -0.0460 -0.0236
vn 0.9987 -0.0352 -0.0379
vn 0.9987 -0.0201 -0.0477
vn 0.9987 -0.0026 -0.0517
vn 0.9987 0.0153 -0.0494
vn 0.9987 0.0313 -0.0412
vn 0.9987 0.0435 -0.0280
vn 0.9987 0.0504 -0.0115
vn 0.9987 0.0513 0.0065
vn 0.9987 0.0460 0.0236
vn 0.9987 0.0352 0.0379
vn 0.9987 0.0201 0.0477
vn 0.9987 0.0026 0.0517
vn 0.9987 -0.0153 0.0494
vn 0.9987 -0.0313 0.0412
vn 0.8880 -0.3864 0.2493
vn 0.2094 -0.8699 -0.4465
vn 0.2094 0.3794 0.9012
usemtl OldCar
s 1
f 1/1/1 2/2/2 3/3/3
f 4/4/4 5/5/5 6/6/6
f 4/4/4 7/7/7 8/8/8
f 9/9/9 10/10/10 7/11/7
f 11/12/11 12/13/12 10/10/10
f 13/14/13 14/15/14 12/13/12
f 15/16/15 14/15/14 16/17/16
f 15/16/15 17/18/17 18/19/18
f 19/20/19 20/21/20 17/18/17
f 21/22/21 22/23/22 20/21/20
f 23/24/23 22/23/22 24/25/24
f 25/26/25 26/27/26 23/24/23
f 27/28/27 28/29/28 25/30/25
f 27/28/27 29/31/29 30/32/30
f 31/33/31 32/34/32 33/35/33
f 34/36/34 3/3/3 35/37/35
f 36/38/36 5/5/5 2/2/2
f 37/39/37 38/40/38 39/41/39
f 40/42/40 41/43/41 42/44/42
f 37/39/37 43/45/43 44/46/44
f 44/46/44 45/47/45 46/48/46
f 46/48/46 47/49/47 48/50/48
f 48/50/48 49/51/49 50/52/50
f 50/53/50 51/54/51 52/55/52
f 52/55/52 53/56/53 54/57/54
f 55/58/55 53/56/53 56/59/56
f 57/60/57 56/59/56 58/61/58
f 57/60/57 59/62/59 60/63/60
f 60/63/60 61/64/61 62/65/62
f 62/65/62 63/66/63 64/67/64
f 64/67/64 65/68/65 66/69/66
f 67/70/67 65/68/65 68/71/68
f 69/72/69 68/73/68 70/74/70
f 69/72/69 71/75/71 72/76/72
f 72/76/72 73/77/73 74/78/74
f 75/79/75 76/80/76 77/81/77
f 78/82/78 79/83/79 80/84/80
f 81/85/81 82/86/82 83/87/83
f 84/88/84 85/89/85 86/90/85
f 81/85/81 87/91/86 88/92/86
f 86/90/85 89/93/87 90/94/87
f 91/95/88 87/91/86 92/96/89
f 90/94/87 93/97/90 94/98/90
f 95/99/91 96/100/92 97/101/92
f 91/95/88 98/102/93 99/103/93
f 100/104/94 93/97/90 101/105/95
f 97/101/92 102/106/96 103/107/96
f 99/103/93 80/84/97 104/108/97
f 105/109/98 101/105/95 106/110/98
f 103/107/96 107/111/99 108/112/100
f 95/99/91 80/84/97 79/83/101
f 109/113/102 106/110/98 110/114/102
f 111/115/103 107/111/99 112/116/103
f 113/117/104 110/114/102 82/86/82
f 114/118/105 29/31/29 115/119/106
f 34/36/34 116/120/107 114/118/105
f 117/121/108 73/77/73 38/40/38
f 118/122/109 119/123/110 120/124/111
f 121/125/112 122/126/113 119/127/110
f 123/128/114 124/129/115 122/130/113
f 125/131/116 126/132/117 124/133/115
f 126/134/117 127/135/118 128/136/119
f 128/137/119 129/138/120 130/139/121
f 130/140/121 131/141/122 132/142/123
f 132/143/123 133/144/124 134/145/125
f 134/146/125 135/147/126 136/148/127
f 136/149/127 137/150/128 138/151/129
f 138/152/129 139/153/130 140/154/131
f 140/155/131 141/156/132 142/157/133
f 142/158/133 143/159/134 144/160/135
f 143/161/134 42/162/42 144/163/135
f 145/164/136 120/165/111 146/166/137
f 147/167/138 117/121/139 148/168/139
f 149/169/140 117/121/139 37/39/140
f 149/169/140 44/46/141 150/170/141
f 150/170/141 46/48/142 151/171/142
f 152/172/143 46/48/142 48/50/143
f 153/173/144 48/50/143 50/52/144
f 153/174/144 52/55/145 154/175/145
f 154/175/145 54/57/146 155/176/146
f 156/177/147 54/57/146 55/58/147
f 156/177/147 57/60/148 157/178/148
f 158/179/149 57/60/148 60/63/149
f 158/179/149 62/65/150 159/180/150
f 77/181/151 62/65/150 64/67/151
f 77/181/151 66/69/152 75/182/152
f 160/183/153 66/69/152 67/70/153
f 160/184/153 69/72/154 161/185/154
f 161/185/154 72/76/155 162/186/155
f 147/167/138 72/76/155 74/78/138
f 154/187/156 163/188/157 153/189/157
f 75/79/75 164/190/158 165/191/159
f 155/192/160 166/193/156 154/187/156
f 148/194/161 167/195/162 147/196/163
f 161/197/164 164/190/158 160/198/158
f 155/192/160 168/199/165 169/200/166
f 149/201/167 170/202/168 148/194/161
f 162/203/169 171/204/164 161/197/164
f 157/205/170 168/199/165 156/206/171
f 149/201/167 172/207/172 173/208/173
f 162/203/169 167/195/162 174/209/169
f 158/210/174 175/211/175 157/205/170
f 150/212/176 176/213/177 172/207/172
f 159/214/178 177/215/174 158/210/174
f 151/216/177 178/217/179 176/213/177
f 159/214/178 76/80/76 179/218/180
f 152/219/179 163/188/157 178/217/179
f 180/220/181 167/195/182 170/202/183
f 180/220/181 170/202/183 173/208/184
f 180/220/181 173/208/184 172/207/185
f 180/220/181 172/207/185 176/213/186
f 180/220/181 176/213/186 178/217/187
f 180/220/181 178/217/187 163/188/188
f 180/220/181 163/188/188 166/193/189
f 180/220/181 166/193/189 169/200/190
f 180/220/181 169/200/190 168/199/191
f 180/220/181 168/199/191 175/211/192
f 180/220/181 175/211/192 177/215/193
f 180/220/181 177/215/193 179/218/194
f 180/220/181 179/218/194 76/80/195
f 180/220/181 76/80/195 165/191/196
f 180/220/181 165/191/196 164/190/197
f 180/220/181 164/190/197 171/204/198
f 180/220/181 171/204/198 174/209/199
f 180/220/181 174/209/199 167/195/182
f 97/221/200 181/222/201 95/223/201
f 97/221/200 182/224/202 183/225/200
f 108/226/203 182/224/202 103/227/204
f 108/228/203 184/229/205 185/230/203
f 84/231/206 184/229/205 111/232/205
f 86/233/207 186/234/206 84/231/206
f 86/233/207 187/235/208 188/236/207
f 94/237/209 187/235/208 90/238/208
f 100/239/210 189/240/209 94/237/209
f 105/241/211 190/242/210 100/239/210
f 109/243/212 191/244/211 105/241/211
f 113/245/213 192/246/212 109/243/212
f 113/247/213 193/248/214 194/249/213
f 88/250/215 193/248/214 81/251/214
f 88/250/215 195/252/216 196/253/215
f 99/254/217 195/252/216 91/255/216
f 104/256/218 197/257/217 99/254/217
f 104/256/218 181/222/201 198/258/218
f 199/259/219 200/260/220 31/33/31
f 201/261/221 202/262/222 203/263/223
f 203/264/223 204/265/224 205/266/225
f 205/266/225 206/267/226 207/268/227
f 208/269/228 209/270/229 210/271/230
f 210/271/230 211/272/231 212/273/232
f 212/273/232 213/274/233 214/275/234
f 214/275/234 215/276/235 216/277/236
f 216/277/236 217/278/237 218/279/238
f 218/279/238 219/280/239 220/281/240
f 221/282/241 222/283/242 199/259/219
f 207/268/227 223/284/243 208/269/228
f 220/285/240 224/286/244 221/282/241
f 33/35/33 225/287/245 226/288/246
f 181/222/247 227/289/248 198/258/249
f 228/290/250 229/291/251 201/261/221
f 73/77/73 35/37/35 38/40/38
f 38/40/38 3/3/3 39/41/39
f 39/41/39 2/2/2 43/45/43
f 45/47/45 2/2/2 5/5/5
f 47/49/47 5/5/5 8/8/8
f 49/51/49 8/8/8 7/7/7
f 51/54/51 7/11/7 10/10/10
f 51/54/51 12/13/12 53/56/53
f 53/56/53 14/15/14 56/59/56
f 58/61/58 14/15/14 18/19/18
f 58/61/58 17/18/17 59/62/59
f 61/64/61 17/18/17 20/21/20
f 63/66/63 20/21/20 22/23/22
f 63/66/63 26/27/26 65/68/65
f 65/68/65 28/292/28 68/71/68
f 68/73/68 30/32/30 70/74/70
f 71/75/71 30/32/30 29/31/29
f 71/75/71 116/120/107 73/77/73
f 230/293/252 146/294/137 231/295/253
f 84/88/84 112/116/103 232/296/84
f 183/225/254 233/297/255 181/222/247
f 183/225/254 234/298/256 235/299/257
f 182/224/258 236/300/259 234/298/256
f 185/230/260 237/301/261 236/302/259
f 184/229/262 238/303/263 237/301/261
f 188/236/264 238/303/263 186/234/265
f 187/235/266 239/304/267 188/236/264
f 189/240/268 240/305/269 187/235/266
f 189/240/268 241/306/270 242/307/271
f 191/244/272 241/306/270 190/242/273
f 192/246/274 243/308/275 191/244/272
f 194/309/276 244/310/277 192/246/274
f 193/248/278 245/311/279 194/249/276
f 196/253/280 246/312/281 193/248/278
f 195/252/282 247/313/283 196/253/280
f 195/252/282 248/314/284 249/315/285
f 250/316/286 251/317/287 228/290/250
f 198/258/249 248/314/284 197/257/288
f 78/82/78 80/84/80 98/102/289
f 78/82/78 98/102/289 92/96/290
f 78/82/78 92/96/290 87/91/291
f 78/82/78 87/91/291 83/87/292
f 78/82/78 83/87/292 82/86/293
f 78/82/78 82/86/293 110/114/294
f 78/82/78 110/114/294 106/110/295
f 78/82/78 106/110/295 101/105/296
f 78/82/78 101/105/296 93/97/297
f 78/82/78 93/97/297 89/93/298
f 78/82/78 89/93/298 85/89/299
f 78/82/78 85/89/299 232/296/300
f 78/82/78 232/296/300 112/116/301
f 78/82/78 112/116/301 107/111/302
f 78/82/78 107/111/302 102/106/303
f 78/82/78 102/106/303 96/100/304
f 78/82/78 96/100/304 79/83/79
f 227/289/248 252/318/305 225/287/245
f 248/314/284 225/287/245 32/34/32
f 249/315/285 32/34/32 200/260/220
f 247/313/283 200/260/220 222/283/242
f 246/312/281 222/283/242 224/286/244
f 245/311/279 224/286/244 219/319/239
f 244/310/277 219/280/239 217/278/237
f 244/310/277 215/276/235 243/308/275
f 243/308/275 213/274/233 241/306/270
f 241/306/270 211/272/231 242/307/271
f 240/305/269 211/272/231 209/270/229
f 239/304/267 209/270/229 223/284/243
f 238/303/263 223/284/243 206/267/226
f 238/303/263 204/265/224 237/301/261
f 237/301/261 202/320/222 236/302/259
f 236/300/259 229/291/251 234/298/256
f 234/298/256 251/317/287 235/299/257
f 235/299/257 252/318/305 233/297/255
f 226/288/246 252/318/305 250/316/286
f 231/321/253 114/322/105 41/323/41
f 231/295/253 1/324/1 34/325/34
f 120/165/111 1/326/1 146/166/137
f 119/123/110 36/327/36 120/124/111
f 119/127/110 4/328/4 6/329/6
f 124/129/115 4/330/4 122/130/113
f 126/132/117 9/331/9 124/133/115
f 128/136/119 11/332/11 126/134/117
f 130/139/121 13/333/13 128/137/119
f 132/142/123 16/334/16 130/140/121
f 134/145/125 15/335/15 132/143/123
f 136/148/127 19/336/19 134/146/125
f 138/151/129 21/337/21 136/149/127
f 140/154/131 24/338/24 138/152/129
f 142/157/133 23/339/23 140/155/131
f 142/158/133 27/340/27 25/341/25
f 144/163/135 115/342/106 27/343/27
f 41/43/41 115/344/106 42/44/42
f 253/345/306 33/346/33 230/347/252
f 230/293/252 226/348/246 145/349/136
f 145/164/136 250/350/286 118/351/109
f 118/122/109 228/352/250 121/353/112
f 121/125/112 201/354/221 123/355/114
f 123/128/114 203/356/223 125/357/116
f 125/131/116 205/358/225 254/359/307
f 143/161/134 199/360/219 40/361/40
f 40/42/40 31/362/31 253/363/306
f 127/364/118 208/365/228 129/138/120
f 254/366/307 207/367/227 127/135/118
f 129/368/120 210/369/230 131/141/122
f 131/370/122 212/371/232 133/144/124
f 133/372/124 214/373/234 135/147/126
f 135/374/126 216/375/236 137/150/128
f 137/376/128 218/377/238 139/153/130
f 139/378/130 220/379/240 141/156/132
f 141/380/132 221/381/241 143/159/134
f 253/345/306 231/321/253 41/323/41
f 1/1/1 36/38/36 2/2/2
f 4/4/4 8/8/8 5/5/5
f 4/4/4 9/382/9 7/7/7
f 9/9/9 11/12/11 10/10/10
f 11/12/11 13/14/13 12/13/12
f 13/14/13 16/17/16 14/15/14
f 15/16/15 18/19/18 14/15/14
f 15/16/15 19/20/19 17/18/17
f 19/20/19 21/22/21 20/21/20
f 21/22/21 24/25/24 22/23/22
f 23/24/23 26/27/26 22/23/22
f 25/26/25 28/292/28 26/27/26
f 27/28/27 30/32/30 28/29/28
f 27/28/27 115/119/106 29/31/29
f 31/33/31 200/260/220 32/34/32
f 34/36/34 1/1/1 3/3/3
f 36/38/36 6/6/6 5/5/5
f 37/39/37 117/121/108 38/40/38
f 40/42/40 253/363/306 41/43/41
f 37/39/37 39/41/39 43/45/43
f 44/46/44 43/45/43 45/47/45
f 46/48/46 45/47/45 47/49/47
f 48/50/48 47/49/47 49/51/49
f 50/53/50 49/383/49 51/54/51
f 52/55/52 51/54/51 53/56/53
f 55/58/55 54/57/54 53/56/53
f 57/60/57 55/58/55 56/59/56
f 57/60/57 58/61/58 59/62/59
f 60/63/60 59/62/59 61/64/61
f 62/65/62 61/64/61 63/66/63
f 64/67/64 63/66/63 65/68/65
f 67/70/67 66/69/66 65/68/65
f 69/72/69 67/384/67 68/73/68
f 69/72/69 70/74/70 71/75/71
f 72/76/72 71/75/71 73/77/73
f 75/79/75 165/191/159 76/80/76
f 81/85/81 113/117/104 82/86/82
f 84/88/84 232/296/84 85/89/85
f 81/85/81 83/87/83 87/91/86
f 86/90/85 85/89/85 89/93/87
f 91/95/88 88/92/86 87/91/86
f 90/94/87 89/93/87 93/97/90
f 95/99/91 79/83/101 96/100/92
f 91/95/88 92/96/89 98/102/93
f 100/104/94 94/98/90 93/97/90
f 97/101/92 96/100/92 102/106/96
f 99/103/93 98/102/93 80/84/97
f 105/109/98 100/104/94 101/105/95
f 103/107/96 102/106/96 107/111/99
f 95/99/91 104/108/97 80/84/97
f 109/113/102 105/109/98 106/110/98
f 111/115/103 108/112/100 107/111/99
f 113/117/104 109/113/102 110/114/102
f 114/118/105 116/120/107 29/31/29
f 34/36/34 35/37/35 116/120/107
f 117/121/108 74/78/74 73/77/73
f 118/122/109 121/353/112 119/123/110
f 121/125/112 123/355/114 122/126/113
f 123/128/114 125/357/116 124/129/115
f 125/131/116 254/359/307 126/132/117
f 126/134/117 254/366/307 127/135/118
f 128/137/119 127/364/118 129/138/120
f 130/140/121 129/368/120 131/141/122
f 132/143/123 131/370/122 133/144/124
f 134/146/125 133/372/124 135/147/126
f 136/149/127 135/374/126 137/150/128
f 138/152/129 137/376/128 139/153/130
f 140/155/131 139/378/130 141/156/132
f 142/158/133 141/380/132 143/159/134
f 143/161/134 40/361/40 42/162/42
f 145/164/136 118/351/109 120/165/111
f 147/167/138 74/78/138 117/121/139
f 149/169/140 148/168/139 117/121/139
f 149/169/140 37/39/140 44/46/141
f 150/170/141 44/46/141 46/48/142
f 152/172/143 151/171/142 46/48/142
f 153/173/144 152/172/143 48/50/143
f 153/174/144 50/53/144 52/55/145
f 154/175/145 52/55/145 54/57/146
f 156/177/147 155/176/146 54/57/146
f 156/177/147 55/58/147 57/60/148
f 158/179/149 157/178/148 57/60/148
f 158/179/149 60/63/149 62/65/150
f 77/181/151 159/180/150 62/65/150
f 77/181/151 64/67/151 66/69/152
f 160/183/153 75/182/152 66/69/152
f 160/184/153 67/384/153 69/72/154
f 161/185/154 69/72/154 72/76/155
f 147/167/138 162/186/155 72/76/155
f 154/187/156 166/193/156 163/188/157
f 75/79/75 160/198/158 164/190/158
f 155/192/160 169/200/166 166/193/156
f 148/194/161 170/202/168 167/195/162
f 161/197/164 171/204/164 164/190/158
f 155/192/160 156/206/171 168/199/165
f 149/201/167 173/208/173 170/202/168
f 162/203/169 174/209/169 171/204/164
f 157/205/170 175/211/175 168/199/165
f 149/201/167 150/212/176 172/207/172
f 162/203/169 147/196/163 167/195/162
f 158/210/174 177/215/174 175/211/175
f 150/212/176 151/216/177 176/213/177
f 159/214/178 179/218/180 177/215/174
f 151/216/177 152/219/179 178/217/179
f 159/214/178 77/81/77 76/80/76
f 152/219/179 153/189/157 163/188/157
f 97/221/200 183/225/200 181/222/201
f 97/221/200 103/227/204 182/224/202
f 108/226/203 185/385/203 182/224/202
f 108/228/203 111/232/205 184/229/205
f 84/231/206 186/234/206 184/229/205
f 86/233/207 188/236/207 186/234/206
f 86/233/207 90/238/208 187/235/208
f 94/237/209 189/240/209 187/235/208
f 100/239/210 190/242/210 189/240/209
f 105/241/211 191/244/211 190/242/210
f 109/243/212 192/246/212 191/244/211
f 113/245/213 194/309/213 192/246/212
f 113/247/213 81/251/214 193/248/214
f 88/250/215 196/253/215 193/248/214
f 88/250/215 91/255/216 195/252/216
f 99/254/217 197/257/217 195/252/216
f 104/256/218 198/258/218 197/257/217
f 104/256/218 95/223/201 181/222/201
f 199/259/219 222/283/242 200/260/220
f 201/261/221 229/291/251 202/262/222
f 203/264/223 202/320/222 204/265/224
f 205/266/225 204/265/224 206/267/226
f 208/269/228 223/284/243 209/270/229
f 210/271/230 209/270/229 211/272/231
f 212/273/232 211/272/231 213/274/233
f 214/275/234 213/274/233 215/276/235
f 216/277/236 215/276/235 217/278/237
f 218/279/238 217/278/237 219/280/239
f 221/282/241 224/286/244 222/283/242
f 207/268/227 206/267/226 223/284/243
f 220/285/240 219/319/239 224/286/244
f 33/35/33 32/34/32 225/287/245
f 181/222/247 233/297/255 227/289/248
f 228/290/250 251/317/287 229/291/251
f 73/77/73 116/120/107 35/37/35
f 38/40/38 35/37/35 3/3/3
f 39/41/39 3/3/3 2/2/2
f 45/47/45 43/45/43 2/2/2
f 47/49/47 45/47/45 5/5/5
f 49/51/49 47/49/47 8/8/8
f 51/54/51 49/383/49 7/11/7
f 51/54/51 10/10/10 12/13/12
f 53/56/53 12/13/12 14/15/14
f 58/61/58 56/59/56 14/15/14
f 58/61/58 18/19/18 17/18/17
f 61/64/61 59/62/59 17/18/17
f 63/66/63 61/64/61 20/21/20
f 63/66/63 22/23/22 26/27/26
f 65/68/65 26/27/26 28/292/28
f 68/73/68 28/29/28 30/32/30
f 71/75/71 70/74/70 30/32/30
f 71/75/71 29/31/29 116/120/107
f 230/293/252 145/349/136 146/294/137
f 84/88/84 111/115/103 112/116/103
f 183/225/254 235/299/257 233/297/255
f 183/225/254 182/224/258 234/298/256
f 182/224/258 185/385/260 236/300/259
f 185/230/260 184/229/262 237/301/261
f 184/229/262 186/234/265 238/303/263
f 188/236/264 239/304/267 238/303/263
f 187/235/266 240/305/269 239/304/267
f 189/240/268 242/307/271 240/305/269
f 189/240/268 190/242/273 241/306/270
f 191/244/272 243/308/275 241/306/270
f 192/246/274 244/310/277 243/308/275
f 194/309/276 245/386/279 244/310/277
f 193/248/278 246/312/281 245/311/279
f 196/253/280 247/313/283 246/312/281
f 195/252/282 249/315/285 247/313/283
f 195/252/282 197/257/288 248/314/284
f 250/316/286 252/318/305 251/317/287
f 198/258/249 227/289/248 248/314/284
f 227/289/248 233/297/255 252/318/305
f 248/314/284 227/289/248 225/287/245
f 249/315/285 248/314/284 32/34/32
f 247/313/283 249/315/285 200/260/220
f 246/312/281 247/313/283 222/283/242
f 245/311/279 246/312/281 224/286/244
f 244/310/277 245/386/279 219/280/239
f 244/310/277 217/278/237 215/276/235
f 243/308/275 215/276/235 213/274/233
f 241/306/270 213/274/233 211/272/231
f 240/305/269 242/307/271 211/272/231
f 239/304/267 240/305/269 209/270/229
f 238/303/263 239/304/267 223/284/243
f 238/303/263 206/267/226 204/265/224
f 237/301/261 204/265/224 202/320/222
f 236/300/259 202/262/222 229/291/251
f 234/298/256 229/291/251 251/317/287
f 235/299/257 251/317/287 252/318/305
f 226/288/246 225/287/245 252/318/305
f 231/321/253 34/387/34 114/322/105
f 231/295/253 146/294/137 1/324/1
f 120/165/111 36/388/36 1/326/1
f 119/123/110 6/389/6 36/327/36
f 119/127/110 122/126/113 4/328/4
f 124/129/115 9/390/9 4/330/4
f 126/132/117 11/391/11 9/331/9
f 128/136/119 13/392/13 11/332/11
f 130/139/121 16/393/16 13/333/13
f 132/142/123 15/394/15 16/334/16
f 134/145/125 19/395/19 15/335/15
f 136/148/127 21/396/21 19/336/19
f 138/151/129 24/397/24 21/337/21
f 140/154/131 23/398/23 24/338/24
f 142/157/133 25/399/25 23/339/23
f 142/158/133 144/160/135 27/340/27
f 144/163/135 42/162/42 115/342/106
f 41/43/41 114/400/105 115/344/106
f 253/345/306 31/401/31 33/346/33
f 230/293/252 33/402/33 226/348/246
f 145/164/136 226/403/246 250/350/286
f 118/122/109 250/404/286 228/352/250
f 121/125/112 228/405/250 201/354/221
f 123/128/114 201/406/221 203/356/223
f 125/131/116 203/407/223 205/358/225
f 143/161/134 221/408/241 199/360/219
f 40/42/40 199/409/219 31/362/31
f 127/364/118 207/410/227 208/365/228
f 254/366/307 205/411/225 207/367/227
f 129/368/120 208/412/228 210/369/230
f 131/370/122 210/413/230 212/371/232
f 133/372/124 212/414/232 214/373/234
f 135/374/126 214/415/234 216/375/236
f 137/376/128 216/416/236 218/377/238
f 139/378/130 218/417/238 220/379/240
f 141/380/132 220/418/240 221/381/241
f 253/345/306 230/347/252 231/321/253
