# Blender v3.0.1 OBJ File: ''
# www.blender.org
mtllib pickup_wheel.mtl
o Cylinder.001
v -0.218839 -0.830113 0.532037
v -0.276338 -0.898177 0.203194
v -0.218839 -0.963230 0.217914
v -0.218839 -0.291638 0.937615
v -0.276338 -0.556560 0.729169
v -0.218839 -0.596875 0.781985
v -0.218839 0.048769 0.980154
v -0.276338 -0.271943 0.874287
v -0.276338 0.357404 0.843381
v -0.276338 0.045474 0.913952
v -0.218839 0.383292 0.904469
v -0.276338 0.626225 0.671086
v -0.218839 0.671583 0.719693
v -0.276338 0.819512 0.417844
v -0.218839 0.878873 0.448111
v -0.276338 0.913955 0.114206
v -0.218839 0.963215 -0.217929
v -0.218839 0.980154 0.122478
v -0.218839 0.830095 -0.532049
v -0.276338 0.898158 -0.203209
v -0.218839 0.596853 -0.782001
v -0.276338 0.774029 -0.496115
v -0.218839 0.291623 -0.937630
v -0.276338 0.556542 -0.729184
v -0.218839 -0.048784 -0.980169
v -0.276338 0.271922 -0.874302
v -0.276338 -0.357422 -0.843396
v -0.276338 -0.045489 -0.913967
v -0.218839 -0.383307 -0.904484
v -0.276338 -0.626243 -0.671101
v 0.218694 -0.878891 -0.448132
v 0.276193 -0.913970 -0.114245
v 0.218694 -0.980170 -0.122499
v -0.276338 -0.913970 -0.114221
v -0.218839 -0.980173 -0.122493
v -0.276338 -0.774050 0.496103
v -0.235387 -0.630723 -0.078825
v -0.297934 -0.791032 0.178956
v -0.235387 -0.619822 0.140221
v 0.175302 -0.685197 -0.734277
v -0.175445 -0.896676 -0.457196
v -0.175445 -0.685197 -0.734277
v -0.297934 -0.681708 0.436917
v -0.235387 -0.534164 0.342352
v -0.297934 -0.490170 0.642183
v -0.235387 -0.384077 0.503188
v -0.297934 -0.239504 0.769988
v -0.235387 -0.187667 0.603334
v -0.297934 0.040048 0.804923
v -0.235387 0.031378 0.630707
v -0.235387 0.246637 0.582004
v -0.297934 0.314767 0.742772
v -0.235387 0.432146 0.463104
v -0.297934 0.551519 0.591026
v -0.235387 0.565533 0.288346
v -0.297934 0.721747 0.367997
v -0.235387 0.630705 0.078810
v -0.297934 0.804922 0.100579
v -0.297934 0.791011 -0.178968
v -0.235387 0.619804 -0.140236
v -0.297934 0.681693 -0.436932
v -0.235387 0.534146 -0.342367
v -0.297934 0.490148 -0.642198
v -0.235387 0.384059 -0.503203
v -0.297934 0.239483 -0.770003
v -0.235387 0.187649 -0.603349
v -0.297934 -0.040069 -0.804938
v -0.235387 -0.031396 -0.630719
v -0.235387 -0.246655 -0.582020
v -0.297934 -0.314783 -0.742787
v -0.235387 -0.432164 -0.463119
v -0.297934 -0.551537 -0.591045
v -0.235387 -0.565551 -0.288361
v -0.297934 -0.721765 -0.368012
v -0.156462 0.041721 -0.134186
v -0.296806 0.070950 -0.092976
v -0.156462 0.085406 -0.111914
v 0.302751 -0.000009 -0.000006
v 0.296667 -0.098699 0.063241
v 0.296667 -0.114526 0.025898
v 0.156320 -0.006984 -0.140275
v 0.296667 -0.045574 -0.107538
v 0.156320 -0.054859 -0.129443
v 0.156320 0.096095 0.102988
v 0.296667 0.104474 0.053271
v 0.156320 0.125763 0.064124
v 0.296667 -0.079850 -0.085571
v 0.156320 -0.096116 -0.103003
v 0.296667 0.116518 0.014557
v 0.156320 0.140256 0.017523
v 0.296667 -0.104492 -0.053286
v 0.156320 -0.125778 -0.064139
v 0.156320 0.137834 -0.031189
v 0.296667 0.114505 -0.025913
v 0.156320 -0.085425 0.111899
v 0.296667 -0.070971 0.092957
v 0.296667 -0.116539 -0.014572
v 0.156320 -0.140275 -0.017538
v 0.156320 0.118785 -0.076142
v 0.296667 0.098678 -0.063257
v 0.156320 -0.041745 0.134171
v 0.296667 -0.034682 0.111459
v 0.156320 -0.137852 0.031174
v 0.156320 0.085409 -0.111911
v 0.296667 0.070950 -0.092973
v 0.156320 0.006966 0.140260
v 0.296667 0.005787 0.116518
v 0.156320 -0.118803 0.076127
v 0.156320 0.041730 -0.134186
v 0.296667 0.034661 -0.111474
v 0.296667 0.045556 0.107523
v 0.156320 0.054838 0.129428
v 0.296667 -0.005808 -0.116533
v -0.218839 -0.671604 -0.719711
v -0.276338 -0.819530 -0.417859
v -0.218839 -0.878891 -0.448126
v -0.297934 -0.804940 -0.100594
v 0.175302 -0.846916 0.542803
v -0.175445 -0.608952 0.797813
v -0.175445 -0.846916 0.542803
v 0.175302 -0.608952 0.797813
v -0.175445 -0.297540 0.956593
v 0.175302 -0.297540 0.956593
v -0.175445 0.049751 0.999992
v 0.175302 0.049751 0.999992
v -0.175445 0.391049 0.922775
v 0.175302 0.685158 0.734277
v -0.175445 0.685176 0.734262
v 0.175302 0.896649 0.457202
v -0.175445 0.896658 0.457181
v 0.175302 0.999992 0.124956
v -0.175445 0.999992 0.124956
v 0.175302 0.982713 -0.222316
v -0.175445 0.982710 -0.222337
v 0.175302 0.846895 -0.542818
v -0.175445 0.846895 -0.542818
v 0.175302 0.608955 -0.797813
v -0.175445 0.608937 -0.797825
v 0.175302 0.297525 -0.956608
v -0.175445 0.297525 -0.956608
v 0.175302 -0.049748 -1.000008
v -0.175445 -0.049769 -1.000008
v 0.175302 -0.391070 -0.922790
v -0.175445 -0.391070 -0.922790
v 0.175302 -0.982725 0.222325
v -0.175445 -0.982725 0.222325
v -0.156462 -0.140275 -0.017535
v -0.156462 -0.137852 0.031180
v -0.156462 -0.118800 0.076130
v -0.156462 -0.085422 0.111899
v -0.156462 -0.041742 0.134171
v -0.156462 0.006969 0.140260
v -0.156462 0.054841 0.129428
v -0.156462 0.096095 0.102985
v -0.156462 0.125763 0.064121
v -0.156462 0.140256 0.017520
v -0.156462 0.137834 -0.031192
v -0.156462 0.118779 -0.076145
v -0.156462 -0.006990 -0.140275
v -0.156462 -0.054862 -0.129443
v -0.156462 -0.096116 -0.103000
v -0.156462 -0.125781 -0.064136
v -0.296806 0.045559 0.107520
v -0.296806 0.005787 0.116518
v -0.296806 0.034661 -0.111477
v -0.296806 0.079832 0.085553
v -0.296806 -0.116539 -0.014569
v -0.296806 -0.104498 -0.053283
v -0.296806 -0.045580 -0.107535
v -0.296806 -0.005808 -0.116533
v -0.296806 0.104477 0.053268
v -0.296806 -0.079850 -0.085568
v -0.296806 0.116518 0.014554
v -0.296806 -0.114520 0.025901
v -0.296806 -0.098699 0.063244
v -0.296806 0.114505 -0.025916
v -0.296806 -0.070971 0.092961
v -0.296806 0.098678 -0.063260
v -0.296806 -0.034682 0.111462
v -0.302893 -0.000009 -0.000006
v 0.235248 -0.384092 0.503179
v 0.235248 -0.534173 0.342337
v 0.235248 -0.187682 0.603328
v 0.235248 0.031363 0.630707
v 0.235248 0.246622 0.582011
v 0.235248 0.432134 0.463116
v 0.235248 0.565524 0.288361
v 0.235248 0.619807 -0.140218
v 0.235248 0.630702 0.078825
v 0.235248 0.534155 -0.342352
v 0.235248 0.384074 -0.503191
v 0.235248 0.187664 -0.603343
v 0.235248 -0.031378 -0.630722
v 0.235248 -0.246640 -0.582026
v 0.235248 -0.432152 -0.463131
v 0.235248 -0.565542 -0.288376
v 0.235248 -0.619828 0.140203
v 0.235248 -0.630720 -0.078840
v 0.218694 -0.671595 -0.719714
v 0.276193 -0.819518 -0.417883
v 0.218694 0.048763 0.980154
v 0.276193 -0.271964 0.874281
v 0.276193 0.045450 0.913955
v 0.276193 0.357380 0.843390
v 0.218694 0.383286 0.904472
v 0.276193 0.626206 0.671101
v 0.218700 0.671565 0.719711
v 0.218694 0.878861 0.448135
v 0.276193 0.913949 0.114230
v 0.218694 0.980154 0.122484
v 0.218694 0.963218 -0.217902
v 0.276193 0.898161 -0.203185
v 0.218694 0.830098 -0.532046
v 0.276193 0.774044 -0.496096
v 0.218694 0.596875 -0.781985
v 0.276193 0.556560 -0.729169
v 0.218694 0.291626 -0.937627
v 0.276193 0.271949 -0.874296
v 0.218694 -0.048763 -0.980169
v 0.276193 -0.045465 -0.913970
v 0.218694 -0.383304 -0.904487
v 0.276193 -0.626225 -0.671116
v 0.276193 0.819500 0.417868
v 0.276193 -0.357398 -0.843405
v 0.218694 -0.963233 0.217908
v 0.276193 -0.898180 0.203170
v 0.297795 -0.681720 0.436899
v 0.297795 -0.791035 0.178935
v 0.218694 -0.291647 0.937615
v 0.276193 -0.556578 0.729154
v 0.175302 -1.000010 -0.124971
v -0.175445 -1.000010 -0.124971
v 0.296667 0.079832 0.085556
v 0.297795 -0.490185 0.642171
v 0.297795 -0.239522 0.769982
v 0.297795 0.040026 0.804923
v 0.297795 0.314743 0.742778
v 0.297795 0.551501 0.591042
v 0.297795 0.721738 0.368015
v 0.297795 0.791017 -0.178947
v 0.297795 0.804919 0.100600
v 0.297789 0.681702 -0.436914
v 0.297789 0.490167 -0.642183
v 0.297789 0.239504 -0.769997
v 0.297789 -0.040045 -0.804938
v 0.297789 -0.314764 -0.742793
v 0.297789 -0.551522 -0.591057
v 0.297789 -0.721759 -0.368033
v 0.218694 -0.596875 0.781983
v 0.276193 -0.774062 0.496081
v 0.297789 -0.804937 -0.100615
v 0.218694 -0.830116 0.532031
v 0.175302 -0.896676 -0.457196
v 0.175302 0.391049 0.922775
vt 0.203499 0.960333
vt 0.228258 0.962250
vt 0.226755 0.965423
vt 0.173856 0.940197
vt 0.190360 0.949624
vt 0.185128 0.951572
vt 0.170921 0.928961
vt 0.180106 0.939261
vt 0.170618 0.927194
vt 0.182834 0.916215
vt 0.177127 0.927418
vt 0.176873 0.914891
vt 0.195862 0.906663
vt 0.191165 0.904399
vt 0.214637 0.899915
vt 0.211772 0.896986
vt 0.236896 0.896785
vt 0.261524 0.894485
vt 0.236207 0.893542
vt 0.284671 0.899701
vt 0.259954 0.897651
vt 0.302852 0.908560
vt 0.281027 0.902407
vt 0.313877 0.919995
vt 0.297578 0.910480
vt 0.316415 0.932625
vt 0.307607 0.920897
vt 0.317065 0.930988
vt 0.304971 0.943274
vt 0.310546 0.930879
vt 0.310961 0.944566
vt 0.292149 0.952894
vt 0.203499 0.960333
vt 0.228258 0.962250
vt 0.226755 0.965423
vt 0.251331 0.962991
vt 0.252091 0.966231
vt 0.207083 0.957608
vt 0.248448 0.951479
vt 0.230166 0.958308
vt 0.232809 0.950971
vt 0.034780 0.905712
vt 0.061653 0.883756
vt 0.061123 0.905822
vt 0.211572 0.954230
vt 0.218460 0.947818
vt 0.196888 0.947217
vt 0.207133 0.942402
vt 0.187888 0.938116
vt 0.200194 0.935376
vt 0.185550 0.929185
vt 0.198689 0.928725
vt 0.202400 0.920611
vt 0.185216 0.927716
vt 0.190232 0.917878
vt 0.211240 0.914140
vt 0.201676 0.909491
vt 0.223973 0.909571
vt 0.218165 0.903568
vt 0.239063 0.907456
vt 0.237713 0.900820
vt 0.257962 0.901582
vt 0.254690 0.908048
vt 0.276467 0.905761
vt 0.268970 0.911278
vt 0.290998 0.912852
vt 0.280180 0.916754
vt 0.299803 0.922000
vt 0.286967 0.923817
vt 0.301817 0.932103
vt 0.288515 0.931615
vt 0.284825 0.938128
vt 0.302438 0.930764
vt 0.297538 0.941650
vt 0.276125 0.944646
vt 0.286276 0.950098
vt 0.263492 0.949282
vt 0.269915 0.956109
vt 0.250394 0.933799
vt 0.246562 0.930807
vt 0.252674 0.932441
vt 0.243733 0.930397
vt 0.241471 0.931633
vt 0.240761 0.931171
vt 0.240241 0.925598
vt 0.241691 0.929068
vt 0.237169 0.926485
vt 0.252577 0.932950
vt 0.247007 0.930758
vt 0.253790 0.931283
vt 0.240905 0.929497
vt 0.234890 0.927844
vt 0.247057 0.930176
vt 0.253790 0.929509
vt 0.240460 0.930035
vt 0.233677 0.929509
vt 0.252577 0.927844
vt 0.246706 0.929621
vt 0.240241 0.935194
vt 0.242453 0.931945
vt 0.240410 0.930616
vt 0.233677 0.931283
vt 0.250297 0.926485
vt 0.245996 0.929160
vt 0.243733 0.935502
vt 0.243590 0.932071
vt 0.234890 0.932950
vt 0.247226 0.925598
vt 0.245014 0.928847
vt 0.247226 0.935194
vt 0.244744 0.931994
vt 0.237169 0.934308
vt 0.243733 0.925291
vt 0.243877 0.928722
vt 0.245776 0.931726
vt 0.250297 0.934308
vt 0.242723 0.928798
vt 0.296896 0.955133
vt 0.273521 0.959742
vt 0.276450 0.962657
vt 0.250428 0.958961
vt 0.034780 0.905712
vt 0.061653 0.883756
vt 0.061123 0.905822
vt 0.034781 0.905669
vt 0.061654 0.883713
vt 0.061186 0.905815
vt 0.034781 0.905669
vt 0.061654 0.883713
vt 0.061186 0.905815
vt 0.034781 0.905669
vt 0.061654 0.883713
vt 0.061186 0.905815
vt 0.061186 0.905815
vt 0.035313 0.883603
vt 0.061654 0.883713
vt 0.061186 0.905815
vt 0.035313 0.883603
vt 0.061654 0.883713
vt 0.061186 0.905815
vt 0.035313 0.883603
vt 0.061654 0.883713
vt 0.061186 0.905815
vt 0.035313 0.883603
vt 0.061654 0.883713
vt 0.061185 0.905814
vt 0.035313 0.883603
vt 0.061654 0.883713
vt 0.061186 0.905815
vt 0.035313 0.883603
vt 0.061654 0.883713
vt 0.061185 0.905814
vt 0.035313 0.883603
vt 0.061654 0.883713
vt 0.061186 0.905815
vt 0.035313 0.883603
vt 0.061654 0.883713
vt 0.061186 0.905815
vt 0.035313 0.883603
vt 0.061654 0.883713
vt 0.034780 0.905712
vt 0.061653 0.883756
vt 0.061123 0.905822
vt 0.034780 0.905712
vt 0.061653 0.883756
vt 0.061123 0.905822
vt 0.244700 0.935608
vt 0.241256 0.935494
vt 0.238098 0.934797
vt 0.235608 0.933603
vt 0.234087 0.932054
vt 0.233689 0.930614
vt 0.234469 0.927855
vt 0.198520 0.928204
vt 0.236422 0.926431
vt 0.239230 0.925427
vt 0.242557 0.924964
vt 0.245998 0.925097
vt 0.249142 0.925811
vt 0.251606 0.927019
vt 0.253094 0.928576
vt 0.253429 0.930293
vt 0.252727 0.932674
vt 0.288371 0.930693
vt 0.250805 0.934108
vt 0.248016 0.935127
vt 0.240338 0.925089
vt 0.243877 0.928234
vt 0.242723 0.928310
vt 0.247323 0.934686
vt 0.245776 0.931237
vt 0.243830 0.924782
vt 0.245014 0.928359
vt 0.237265 0.933799
vt 0.240761 0.930683
vt 0.241471 0.931144
vt 0.243590 0.931582
vt 0.244744 0.931506
vt 0.247323 0.925089
vt 0.245996 0.928672
vt 0.233774 0.930774
vt 0.234987 0.932441
vt 0.243830 0.934993
vt 0.242453 0.931457
vt 0.250394 0.925977
vt 0.246706 0.929133
vt 0.233774 0.929001
vt 0.240410 0.930128
vt 0.240338 0.934686
vt 0.253887 0.929001
vt 0.252674 0.927335
vt 0.234987 0.927335
vt 0.240460 0.929547
vt 0.253887 0.930774
vt 0.247057 0.929688
vt 0.237265 0.925977
vt 0.240905 0.929008
vt 0.247007 0.930270
vt 0.241691 0.928579
vt 0.243733 0.929908
vt 0.248016 0.935127
vt 0.276125 0.944646
vt 0.263492 0.949282
vt 0.250805 0.934108
vt 0.284825 0.938128
vt 0.252727 0.932674
vt 0.288371 0.930693
vt 0.253094 0.928576
vt 0.288515 0.931615
vt 0.253429 0.930293
vt 0.251606 0.927019
vt 0.286967 0.923817
vt 0.249142 0.925811
vt 0.280180 0.916754
vt 0.245998 0.925097
vt 0.268970 0.911278
vt 0.239063 0.907456
vt 0.254690 0.908048
vt 0.242557 0.924964
vt 0.223973 0.909571
vt 0.239230 0.925427
vt 0.211240 0.914140
vt 0.236422 0.926431
vt 0.202400 0.920611
vt 0.234469 0.927855
vt 0.198520 0.928204
vt 0.234087 0.932054
vt 0.198689 0.928725
vt 0.233689 0.930614
vt 0.235608 0.933603
vt 0.200194 0.935376
vt 0.238098 0.934797
vt 0.207133 0.942402
vt 0.241256 0.935494
vt 0.218460 0.947818
vt 0.248448 0.951479
vt 0.232809 0.950971
vt 0.244700 0.935608
vt 0.185128 0.951572
vt 0.207083 0.957608
vt 0.317065 0.930988
vt 0.304971 0.943274
vt 0.310546 0.930879
vt 0.316415 0.932625
vt 0.307607 0.920897
vt 0.313877 0.919995
vt 0.297578 0.910480
vt 0.302852 0.908560
vt 0.284671 0.899701
vt 0.259954 0.897651
vt 0.261524 0.894485
vt 0.236207 0.893542
vt 0.236896 0.896785
vt 0.211772 0.896986
vt 0.214637 0.899915
vt 0.191165 0.904399
vt 0.195862 0.906663
vt 0.176873 0.914891
vt 0.182834 0.916215
vt 0.170618 0.927194
vt 0.177127 0.927418
vt 0.173856 0.940197
vt 0.190360 0.949624
vt 0.281027 0.902407
vt 0.170921 0.928961
vt 0.180106 0.939261
vt 0.252091 0.966231
vt 0.251331 0.962991
vt 0.269915 0.956109
vt 0.250428 0.958961
vt 0.310961 0.944566
vt 0.292149 0.952894
vt 0.177440 0.929069
vt 0.309907 0.932401
vt 0.034780 0.905712
vt 0.061653 0.883756
vt 0.061123 0.905822
vt 0.246562 0.931296
vt 0.286276 0.950098
vt 0.297538 0.941650
vt 0.302438 0.930764
vt 0.301817 0.932103
vt 0.299803 0.922000
vt 0.290998 0.912852
vt 0.276467 0.905761
vt 0.237713 0.900820
vt 0.257962 0.901582
vt 0.218165 0.903568
vt 0.201676 0.909491
vt 0.190232 0.917878
vt 0.185216 0.927716
vt 0.185550 0.929185
vt 0.187888 0.938116
vt 0.196888 0.947217
vt 0.211572 0.954230
vt 0.296896 0.955133
vt 0.273521 0.959742
vt 0.230166 0.958308
vt 0.177440 0.929069
vt 0.309907 0.932401
vt 0.276450 0.962657
vt 0.061123 0.905822
vt 0.063609 0.883880
vt 0.063049 0.905828
vt 0.063049 0.905828
vt 0.063049 0.905828
vt 0.063049 0.905828
vt 0.063117 0.905823
vt 0.063117 0.905823
vt 0.063604 0.883833
vt 0.063117 0.905823
vt 0.063604 0.883833
vt 0.063117 0.905823
vt 0.063604 0.883833
vt 0.063117 0.905823
vt 0.063604 0.883834
vt 0.063117 0.905823
vt 0.063117 0.905823
vt 0.063117 0.905823
vt 0.063117 0.905823
vt 0.063117 0.905823
vt 0.063117 0.905823
vt 0.063604 0.883833
vt 0.063117 0.905823
vt 0.063609 0.883880
vt 0.063049 0.905828
vt 0.063609 0.883880
vt 0.063049 0.905828
vt 0.034780 0.905712
vt 0.033255 0.883607
vt 0.035250 0.883610
vt 0.035250 0.883610
vt 0.032777 0.905702
vt 0.033255 0.883607
vt 0.035250 0.883610
vt 0.032777 0.905702
vt 0.033255 0.883607
vt 0.035250 0.883610
vt 0.032777 0.905702
vt 0.033255 0.883607
vt 0.035313 0.883603
vt 0.032773 0.905656
vt 0.033322 0.883601
vt 0.035313 0.883603
vt 0.032773 0.905656
vt 0.033322 0.883601
vt 0.033322 0.883601
vt 0.035313 0.883603
vt 0.033255 0.883607
vt 0.035250 0.883610
vt 0.033255 0.883607
vt 0.035250 0.883610
vt 0.034781 0.905669
vt 0.033322 0.883601
vt 0.034781 0.905669
vt 0.033322 0.883601
vt 0.034781 0.905669
vt 0.033322 0.883601
vt 0.032773 0.905656
vt 0.033322 0.883601
vt 0.032773 0.905656
vt 0.033322 0.883601
vt 0.032773 0.905656
vt 0.033322 0.883601
vt 0.032773 0.905656
vt 0.033322 0.883601
vt 0.032773 0.905656
vt 0.033322 0.883601
vt 0.034781 0.905669
vt 0.033322 0.883601
vt 0.061653 0.883756
vt 0.034781 0.905669
vt 0.034781 0.905669
vt 0.034781 0.905669
vt 0.034781 0.905669
vt 0.034781 0.905669
vt 0.233606 0.929526
vt 0.253564 0.930861
vt 0.253564 0.930861
vt 0.233606 0.929526
vt 0.063609 0.883880
vt 0.063609 0.883880
vt 0.063609 0.883880
vt 0.063604 0.883833
vt 0.063604 0.883833
vt 0.063604 0.883833
vt 0.063604 0.883833
vt 0.063604 0.883833
vt 0.063604 0.883833
vt 0.063604 0.883834
vt 0.032777 0.905702
vt 0.032773 0.905656
vt 0.032777 0.905702
vt 0.032777 0.905702
vt 0.032773 0.905656
vt 0.032773 0.905656
vt 0.032773 0.905656
vt 0.032773 0.905656
vn -0.5900 -0.6772 0.4397
vn -0.8879 -0.4484 0.1028
vn -0.5905 -0.7867 0.1803
vn -0.5886 -0.2373 0.7728
vn -0.8874 -0.2773 0.3683
vn -0.5892 -0.4862 0.6453
vn -0.5885 0.0397 0.8076
vn -0.8871 -0.1354 0.4412
vn -0.8872 0.1780 0.4257
vn -0.8870 0.0226 0.4611
vn -0.5888 0.3120 0.7457
vn -0.8875 0.3121 0.3391
vn -0.5894 0.5473 0.5941
vn -0.8878 0.4089 0.2113
vn -0.5901 0.7173 0.3705
vn -0.8880 0.4563 0.0578
vn -0.5905 0.7867 -0.1803
vn -0.5906 0.8006 0.1013
vn -0.5900 0.6772 -0.4397
vn -0.8879 0.4483 -0.1028
vn -0.5892 0.4862 -0.6453
vn -0.8877 0.3861 -0.2509
vn -0.5886 0.2373 -0.7728
vn -0.8874 0.2773 -0.3683
vn -0.5885 -0.0397 -0.8075
vn -0.8871 0.1354 -0.4412
vn -0.8872 -0.1780 -0.4257
vn -0.8870 -0.0226 -0.4611
vn -0.5888 -0.3119 -0.7457
vn -0.8875 -0.3121 -0.3391
vn 0.5901 -0.7173 -0.3705
vn 0.8880 -0.4563 -0.0578
vn 0.5906 -0.8006 -0.1013
vn -0.8880 -0.4563 -0.0578
vn -0.5906 -0.8006 -0.1013
vn -0.8877 -0.3861 0.2509
vn -0.9420 0.3329 0.0422
vn -0.9990 0.0434 -0.0099
vn -0.9420 0.3271 -0.0751
vn 0.2088 -0.6627 -0.7192
vn -0.2091 -0.8689 -0.4486
vn -0.2088 -0.6627 -0.7192
vn -0.9990 0.0375 -0.0242
vn -0.9418 0.2818 -0.1832
vn -0.9990 0.0271 -0.0357
vn -0.9416 0.2025 -0.2692
vn -0.9990 0.0133 -0.0430
vn -0.9414 0.0989 -0.3225
vn -0.9990 -0.0022 -0.0450
vn -0.9413 -0.0165 -0.3371
vn -0.9414 -0.1300 -0.3112
vn -0.9990 -0.0175 -0.0414
vn -0.9416 -0.2279 -0.2478
vn -0.9990 -0.0305 -0.0328
vn -0.9419 -0.2984 -0.1544
vn -0.9990 -0.0397 -0.0203
vn -0.9420 -0.3329 -0.0422
vn -0.9990 -0.0441 -0.0055
vn -0.9990 -0.0434 0.0099
vn -0.9420 -0.3271 0.0751
vn -0.9990 -0.0375 0.0242
vn -0.9418 -0.2818 0.1832
vn -0.9990 -0.0271 0.0357
vn -0.9416 -0.2025 0.2692
vn -0.9990 -0.0133 0.0430
vn -0.9414 -0.0989 0.3225
vn -0.9990 0.0022 0.0450
vn -0.9413 0.0165 0.3371
vn -0.9414 0.1300 0.3112
vn -0.9990 0.0175 0.0414
vn -0.9416 0.2279 0.2478
vn -0.9990 0.0305 0.0328
vn -0.9419 0.2984 0.1544
vn -0.9990 0.0397 0.0203
vn -0.1671 0.2895 -0.9425
vn -0.1674 0.5932 -0.7875
vn -0.1674 0.5934 -0.7873
vn 1.0000 0.0000 0.0000
vn 0.9987 -0.0435 0.0282
vn 0.9987 -0.0504 0.0115
vn 0.1670 -0.0484 -0.9848
vn 0.1671 -0.3804 -0.9096
vn 0.1671 -0.3806 -0.9095
vn 0.1675 0.6680 0.7251
vn 0.1678 0.8758 0.4525
vn 0.1678 0.8759 0.4523
vn 0.1675 -0.6679 -0.7252
vn 0.1675 -0.6680 -0.7250
vn 0.1680 0.9780 0.1239
vn 0.1680 0.9780 0.1238
vn 0.1678 -0.8758 -0.4525
vn 0.1678 -0.8759 -0.4523
vn 0.1680 0.9609 -0.2201
vn 0.1680 0.9609 -0.2203
vn 0.1674 -0.5934 0.7873
vn 0.1677 -0.8268 0.5369
vn 0.1674 -0.5932 0.7875
vn 0.1680 -0.9780 -0.1239
vn 0.1680 -0.9780 -0.1238
vn 0.1677 0.8269 -0.5367
vn 0.1677 0.8268 -0.5369
vn 0.1671 -0.2895 0.9425
vn 0.1671 -0.2894 0.9425
vn 0.1680 -0.9609 0.2201
vn 0.1680 -0.9609 0.2203
vn 0.1674 0.5934 -0.7873
vn 0.1674 0.5932 -0.7875
vn 0.1670 0.0484 0.9848
vn 0.1670 0.0483 0.9848
vn 0.1677 -0.8269 0.5367
vn 0.1671 0.2895 -0.9425
vn 0.1671 0.2893 -0.9425
vn 0.1671 0.3804 0.9096
vn 0.1671 0.3806 0.9095
vn 0.1670 -0.0483 -0.9848
vn -0.5894 -0.5473 -0.5941
vn -0.8878 -0.4089 -0.2113
vn -0.5901 -0.7173 -0.3705
vn -0.9990 0.0441 0.0055
vn 0.2091 -0.8203 0.5324
vn -0.2087 -0.5886 0.7810
vn -0.2091 -0.8203 0.5324
vn 0.2087 -0.5886 0.7810
vn -0.2084 -0.2872 0.9349
vn 0.2084 -0.2871 0.9350
vn -0.2083 0.0480 0.9769
vn 0.2083 0.0480 0.9769
vn -0.2084 0.3776 0.9022
vn 0.2088 0.6627 0.7192
vn -0.2088 0.6627 0.7192
vn 0.2091 0.8689 0.4487
vn -0.2091 0.8689 0.4486
vn 0.2094 0.9701 0.1228
vn -0.2094 0.9701 0.1228
vn 0.2093 0.9531 -0.2184
vn -0.2093 0.9532 -0.2184
vn 0.2091 0.8203 -0.5324
vn -0.2091 0.8203 -0.5324
vn 0.2087 0.5886 -0.7810
vn -0.2087 0.5886 -0.7810
vn 0.2084 0.2872 -0.9349
vn -0.2084 0.2872 -0.9349
vn 0.2083 -0.0480 -0.9769
vn -0.2083 -0.0480 -0.9769
vn 0.2084 -0.3776 -0.9022
vn -0.2085 -0.3776 -0.9022
vn 0.2093 -0.9531 0.2184
vn -0.2093 -0.9531 0.2184
vn -0.9875 0.1564 0.0198
vn -0.9875 0.1403 0.0724
vn -0.9875 0.1537 -0.0352
vn -0.9875 0.1537 -0.0353
vn -0.9874 0.1325 -0.0859
vn -0.9874 0.1324 -0.0861
vn -0.9874 0.0953 -0.1264
vn -0.9874 0.0952 -0.1265
vn -0.9873 0.0466 -0.1516
vn -0.9873 0.0465 -0.1516
vn -0.9873 -0.0078 -0.1585
vn -0.9874 -0.0611 -0.1463
vn -0.9874 -0.0613 -0.1462
vn -0.9874 -0.1071 -0.1165
vn -0.9874 -0.1073 -0.1163
vn -0.9875 -0.1402 -0.0725
vn -0.9875 -0.1403 -0.0724
vn -0.9875 -0.1564 -0.0198
vn -0.9875 -0.1537 0.0352
vn -0.9875 -0.1537 0.0353
vn -0.9874 -0.1325 0.0859
vn -0.9874 -0.1324 0.0861
vn -0.9874 -0.0953 0.1264
vn -0.9874 -0.0952 0.1265
vn -0.9873 -0.0466 0.1516
vn -0.9873 -0.0465 0.1516
vn -0.9873 0.0078 0.1585
vn -0.9874 0.0611 0.1463
vn -0.9874 0.0613 0.1462
vn -0.9874 0.1071 0.1165
vn -0.9874 0.1073 0.1163
vn -0.9875 0.1402 0.0725
vn -0.1670 0.0484 0.9848
vn -0.1672 0.3804 0.9096
vn -0.1670 -0.0484 -0.9848
vn -0.1671 0.2893 -0.9425
vn -0.1671 0.3806 0.9095
vn -0.1675 0.6679 0.7252
vn -0.1678 -0.8759 -0.4523
vn -0.1680 -0.9780 -0.1238
vn -0.1678 -0.8758 -0.4525
vn -0.1672 -0.3805 -0.9096
vn -0.1675 0.6680 0.7250
vn -0.1678 0.8758 0.4525
vn -0.1680 -0.9609 0.2202
vn -0.1671 -0.3806 -0.9095
vn -0.1675 -0.6679 -0.7252
vn -0.1678 0.8759 0.4523
vn -0.1680 0.9780 0.1238
vn -0.1677 -0.8269 0.5367
vn -0.1680 -0.9609 0.2203
vn -0.1675 -0.6681 -0.7250
vn -0.1680 0.9609 -0.2202
vn -0.1673 -0.5934 0.7873
vn -0.1677 -0.8268 0.5369
vn -0.1677 0.8269 -0.5367
vn -0.1680 0.9609 -0.2203
vn -0.1671 -0.2895 0.9425
vn -0.1673 -0.5932 0.7875
vn -0.1677 0.8268 -0.5369
vn -0.1671 -0.2893 0.9425
vn -1.0000 0.0000 0.0000
vn -0.9987 -0.0461 -0.0238
vn -0.9987 -0.0514 -0.0065
vn -0.9987 -0.0505 0.0116
vn -0.9987 -0.0435 0.0282
vn -0.9986 -0.0313 0.0415
vn -0.9986 -0.0153 0.0498
vn -0.9986 0.0026 0.0520
vn -0.9986 0.0201 0.0480
vn -0.9986 0.0352 0.0382
vn -0.9987 0.0461 0.0238
vn -0.9987 0.0514 0.0065
vn -0.9987 0.0505 -0.0116
vn -0.9987 0.0435 -0.0282
vn -0.9986 0.0313 -0.0415
vn -0.9986 0.0153 -0.0498
vn -0.9986 -0.0026 -0.0520
vn -0.9986 -0.0201 -0.0480
vn -0.9987 -0.0352 -0.0382
vn 0.9874 0.1324 -0.0861
vn 0.9874 0.0954 -0.1264
vn 0.9874 0.1325 -0.0859
vn 0.9874 0.0952 -0.1265
vn 0.9873 0.0466 -0.1516
vn 0.9873 0.0465 -0.1516
vn 0.9873 -0.0078 -0.1585
vn 0.9874 -0.0611 -0.1463
vn 0.9874 -0.1071 -0.1165
vn 0.9874 -0.0612 -0.1462
vn 0.9875 -0.1402 -0.0726
vn 0.9874 -0.1073 -0.1163
vn 0.9875 -0.1564 -0.0198
vn 0.9875 -0.1403 -0.0724
vn 0.9875 -0.1538 0.0352
vn 0.9875 -0.1537 0.0353
vn 0.9874 -0.1325 0.0859
vn 0.9874 -0.1324 0.0861
vn 0.9874 -0.0954 0.1264
vn 0.9874 -0.0952 0.1265
vn 0.9873 -0.0466 0.1516
vn 0.9873 -0.0465 0.1516
vn 0.9873 0.0078 0.1585
vn 0.9874 0.0611 0.1463
vn 0.9874 0.1071 0.1165
vn 0.9874 0.0612 0.1462
vn 0.9875 0.1402 0.0726
vn 0.9874 0.1073 0.1163
vn 0.9875 0.1564 0.0198
vn 0.9875 0.1403 0.0724
vn 0.9875 0.1537 -0.0352
vn 0.9875 0.1537 -0.0353
vn 0.5895 -0.5473 -0.5941
vn 0.8878 -0.4089 -0.2114
vn 0.5885 0.0397 0.8075
vn 0.8871 -0.1354 0.4412
vn 0.8870 0.0226 0.4612
vn 0.8872 0.1780 0.4257
vn 0.5888 0.3119 0.7457
vn 0.8875 0.3121 0.3391
vn 0.5894 0.5473 0.5941
vn 0.5901 0.7173 0.3705
vn 0.8879 0.4563 0.0578
vn 0.5906 0.8006 0.1014
vn 0.5905 0.7866 -0.1803
vn 0.8879 0.4484 -0.1028
vn 0.5900 0.6772 -0.4397
vn 0.8877 0.3861 -0.2508
vn 0.5892 0.4862 -0.6453
vn 0.8874 0.2773 -0.3683
vn 0.5887 0.2373 -0.7728
vn 0.8871 0.1354 -0.4412
vn 0.5885 -0.0397 -0.8075
vn 0.8870 -0.0226 -0.4611
vn 0.5888 -0.3119 -0.7457
vn 0.8875 -0.3121 -0.3391
vn 0.8878 0.4089 0.2114
vn 0.8872 -0.1780 -0.4257
vn 0.5905 -0.7867 0.1803
vn 0.8879 -0.4484 0.1028
vn 0.9420 0.3272 -0.0751
vn 0.9990 0.0375 -0.0241
vn 0.9990 0.0433 -0.0099
vn 0.5886 -0.2373 0.7728
vn 0.8874 -0.2773 0.3683
vn 0.2094 -0.9701 -0.1228
vn -0.2094 -0.9701 -0.1228
vn 0.1675 0.6679 0.7252
vn 0.9418 0.2818 -0.1832
vn 0.9990 0.0271 -0.0357
vn 0.9416 0.2025 -0.2691
vn 0.9990 0.0133 -0.0430
vn 0.9414 0.0989 -0.3225
vn 0.9990 -0.0022 -0.0450
vn 0.9414 -0.1300 -0.3112
vn 0.9413 -0.0165 -0.3371
vn 0.9416 -0.2279 -0.2478
vn 0.9990 -0.0175 -0.0414
vn 0.9419 -0.2984 -0.1544
vn 0.9990 -0.0304 -0.0328
vn 0.9420 -0.3329 -0.0422
vn 0.9990 -0.0396 -0.0203
vn 0.9990 -0.0433 0.0098
vn 0.9990 -0.0441 -0.0055
vn 0.9420 -0.3271 0.0751
vn 0.9990 -0.0375 0.0241
vn 0.9418 -0.2818 0.1832
vn 0.9990 -0.0271 0.0357
vn 0.9416 -0.2025 0.2691
vn 0.9990 -0.0133 0.0430
vn 0.9414 -0.0989 0.3225
vn 0.9990 0.0022 0.0450
vn 0.9414 0.1300 0.3112
vn 0.9413 0.0165 0.3371
vn 0.9417 0.2279 0.2477
vn 0.9990 0.0175 0.0414
vn 0.9419 0.2984 0.1544
vn 0.9990 0.0305 0.0328
vn 0.9420 0.3329 0.0422
vn 0.9990 0.0396 0.0203
vn 0.5892 -0.4862 0.6453
vn 0.8877 -0.3861 0.2509
vn 0.9990 0.0441 0.0055
vn 0.9987 -0.0513 -0.0065
vn 0.9987 -0.0460 -0.0238
vn 0.9987 -0.0352 -0.0382
vn 0.9986 -0.0201 -0.0480
vn 0.9986 -0.0026 -0.0520
vn 0.9986 0.0153 -0.0497
vn 0.9986 0.0313 -0.0415
vn 0.9987 0.0435 -0.0282
vn 0.9987 0.0504 -0.0115
vn 0.9987 0.0513 0.0065
vn 0.9987 0.0460 0.0238
vn 0.9987 0.0352 0.0382
vn 0.9986 0.0201 0.0480
vn 0.9986 0.0026 0.0520
vn 0.9986 -0.0153 0.0498
vn 0.9986 -0.0313 0.0415
vn 0.5900 -0.6772 0.4397
vn 0.2091 -0.8689 -0.4486
vn 0.2084 0.3776 0.9022
usemtl OldCar.001
s 1
f 1/1/1 2/2/2 3/3/3
f 4/4/4 5/5/5 6/6/6
f 7/7/7 8/8/8 4/4/4
f 7/9/7 9/10/9 10/11/10
f 11/12/11 12/13/12 9/10/9
f 13/14/13 14/15/14 12/13/12
f 15/16/15 16/17/16 14/15/14
f 17/18/17 16/17/16 18/19/18
f 19/20/19 20/21/20 17/18/17
f 21/22/21 22/23/22 19/20/19
f 23/24/23 24/25/24 21/22/21
f 25/26/25 26/27/26 23/24/23
f 25/28/25 27/29/27 28/30/28
f 29/31/29 30/32/30 27/29/27
f 31/33/31 32/34/32 33/35/33
f 3/3/3 34/36/34 35/37/35
f 6/6/6 36/38/36 1/1/1
f 37/39/37 38/40/38 39/41/39
f 40/42/40 41/43/41 42/44/42
f 39/41/39 43/45/43 44/46/44
f 44/46/44 45/47/45 46/48/46
f 46/48/46 47/49/47 48/50/48
f 48/50/48 49/51/49 50/52/50
f 51/53/51 49/54/49 52/55/52
f 53/56/53 52/55/52 54/57/54
f 55/58/55 54/57/54 56/59/56
f 57/60/57 56/59/56 58/61/58
f 57/60/57 59/62/59 60/63/60
f 60/63/60 61/64/61 62/65/62
f 62/65/62 63/66/63 64/67/64
f 64/67/64 65/68/65 66/69/66
f 66/69/66 67/70/67 68/71/68
f 69/72/69 67/73/67 70/74/70
f 71/75/71 70/74/70 72/76/72
f 73/77/73 72/76/72 74/78/74
f 75/79/75 76/80/76 77/81/77
f 78/82/78 79/83/79 80/84/80
f 81/85/81 82/86/82 83/87/83
f 84/88/84 85/89/85 86/90/86
f 83/87/83 87/91/87 88/92/88
f 86/90/86 89/93/89 90/94/90
f 88/92/88 91/95/91 92/96/92
f 93/97/93 89/93/89 94/98/94
f 95/99/95 79/83/96 96/100/97
f 92/96/92 97/101/98 98/102/99
f 99/103/100 94/98/94 100/104/101
f 101/105/102 96/100/97 102/106/103
f 103/107/104 97/101/98 80/84/105
f 104/108/106 100/104/101 105/109/107
f 106/110/108 102/106/103 107/111/109
f 108/112/110 80/84/105 79/83/96
f 109/113/111 105/109/107 110/114/112
f 106/110/108 111/115/113 112/116/114
f 81/85/81 110/114/112 113/117/115
f 114/118/116 115/119/117 30/32/30
f 116/120/118 34/36/34 115/119/117
f 37/39/37 74/78/74 117/121/119
f 118/122/120 119/123/121 120/124/122
f 121/125/123 122/126/124 119/127/121
f 123/128/125 124/129/126 122/130/124
f 125/131/127 126/132/128 124/133/126
f 126/134/128 127/135/129 128/136/130
f 128/137/130 129/138/131 130/139/132
f 130/140/132 131/141/133 132/142/134
f 132/143/134 133/144/135 134/145/136
f 134/146/136 135/147/137 136/148/138
f 136/149/138 137/150/139 138/151/140
f 138/152/140 139/153/141 140/154/142
f 140/155/142 141/156/143 142/157/144
f 142/158/144 143/159/145 144/160/146
f 143/161/145 42/162/42 144/163/146
f 145/164/147 120/165/122 146/166/148
f 147/167/149 73/77/150 37/39/149
f 147/167/149 39/41/151 148/168/152
f 148/168/152 44/46/153 149/169/154
f 149/169/154 46/48/155 150/170/156
f 150/170/156 48/50/157 151/171/158
f 151/171/158 50/52/159 152/172/159
f 153/173/160 50/174/159 51/53/161
f 154/175/162 51/53/161 53/56/163
f 155/176/164 53/56/163 55/58/165
f 156/177/166 55/58/165 57/60/166
f 156/177/166 60/63/167 157/178/168
f 157/178/168 62/65/169 158/179/170
f 158/179/170 64/67/171 77/180/172
f 77/180/172 66/69/173 75/181/174
f 75/181/174 68/71/175 159/182/175
f 160/183/176 68/184/175 69/72/177
f 161/185/178 69/72/177 71/75/179
f 162/186/180 71/75/179 73/77/150
f 152/187/181 163/188/182 164/189/181
f 159/190/183 165/191/184 75/79/75
f 153/192/185 166/193/186 163/188/182
f 162/194/187 167/195/188 168/196/189
f 159/190/183 169/197/190 170/198/183
f 154/199/191 171/200/192 166/193/186
f 148/201/193 167/195/188 147/202/188
f 160/203/194 172/204/195 169/197/190
f 155/205/196 173/206/197 171/200/192
f 149/207/198 174/208/199 148/201/193
f 161/209/200 168/196/189 172/204/195
f 157/210/201 173/206/197 156/211/197
f 150/212/202 175/213/203 149/207/198
f 158/214/204 176/215/205 157/210/201
f 151/216/206 177/217/207 150/212/202
f 77/81/77 178/218/208 158/214/204
f 152/187/181 179/219/209 151/216/206
f 180/220/210 168/196/211 167/195/212
f 180/220/210 167/195/212 174/208/213
f 180/220/210 174/208/213 175/213/214
f 180/220/210 175/213/214 177/217/215
f 180/220/210 177/217/215 179/219/216
f 180/220/210 179/219/216 164/189/217
f 180/220/210 164/189/217 163/188/218
f 180/220/210 163/188/218 166/193/219
f 180/220/210 166/193/219 171/200/220
f 180/220/210 171/200/220 173/206/221
f 180/220/210 173/206/221 176/215/222
f 180/220/210 176/215/222 178/218/223
f 180/220/210 178/218/223 76/80/224
f 180/220/210 76/80/224 165/191/225
f 180/220/210 165/191/225 170/198/226
f 180/220/210 170/198/226 169/197/227
f 180/220/210 169/197/227 172/204/228
f 180/220/210 172/204/228 168/196/211
f 108/221/229 181/222/230 182/223/231
f 95/224/232 183/225/233 181/222/230
f 101/226/234 184/227/235 183/225/233
f 112/228/236 184/229/235 106/230/235
f 84/231/237 185/232/238 112/228/236
f 86/233/239 186/234/240 84/231/237
f 90/235/241 187/236/242 86/233/239
f 90/235/241 188/237/243 189/238/241
f 93/239/244 190/240/245 188/237/243
f 99/241/246 191/242/247 190/240/245
f 104/243/248 192/244/249 191/242/247
f 109/245/250 193/246/251 192/244/249
f 83/247/252 193/248/251 81/249/251
f 88/250/253 194/251/254 83/247/252
f 92/252/255 195/253/256 88/250/253
f 98/254/257 196/255/258 92/252/255
f 98/254/257 197/256/259 198/257/257
f 103/258/260 182/223/231 197/256/259
f 199/259/261 200/260/262 31/33/31
f 201/261/263 202/262/264 203/263/265
f 201/264/263 204/265/266 205/266/267
f 205/266/267 206/267/268 207/268/269
f 208/269/270 209/270/271 210/271/272
f 211/272/273 209/270/271 212/273/274
f 213/274/275 212/273/274 214/275/276
f 215/276/277 214/275/276 216/277/278
f 217/278/279 216/277/278 218/279/280
f 219/280/281 218/279/280 220/281/282
f 221/282/283 222/283/284 199/259/261
f 207/268/269 223/284/285 208/269/270
f 219/285/281 224/286/286 221/282/283
f 225/287/287 32/34/32 226/288/288
f 197/256/289 227/289/290 228/290/291
f 229/291/292 230/292/293 202/262/264
f 117/121/119 115/119/117 34/36/34
f 117/121/119 2/2/2 38/40/38
f 38/40/38 36/38/36 43/45/43
f 43/45/43 5/5/5 45/47/45
f 45/47/45 8/8/8 47/49/47
f 47/49/47 10/293/10 49/51/49
f 52/55/52 10/11/10 9/10/9
f 54/57/54 9/10/9 12/13/12
f 56/59/56 12/13/12 14/15/14
f 58/61/58 14/15/14 16/17/16
f 58/61/58 20/21/20 59/62/59
f 59/62/59 22/23/22 61/64/61
f 61/64/61 24/25/24 63/66/63
f 63/66/63 26/27/26 65/68/65
f 65/68/65 28/294/28 67/70/67
f 70/74/70 28/30/28 27/29/27
f 72/76/72 27/29/27 30/32/30
f 74/78/74 30/32/30 115/119/117
f 231/295/294 146/296/148 232/297/295
f 112/116/114 233/298/296 84/88/84
f 182/223/297 234/299/298 227/289/290
f 181/222/299 235/300/300 234/299/298
f 183/225/301 236/301/302 235/300/300
f 185/232/303 236/302/302 184/229/304
f 186/234/305 237/303/306 185/232/303
f 187/236/307 238/304/308 186/234/305
f 189/238/309 239/305/310 187/236/307
f 189/238/309 240/306/311 241/307/312
f 188/237/313 242/308/314 240/306/311
f 190/240/315 243/309/316 242/308/314
f 191/242/317 244/310/318 243/309/316
f 192/244/319 245/311/320 244/310/318
f 194/251/321 245/312/320 193/248/322
f 195/253/323 246/313/324 194/251/321
f 196/255/325 247/314/326 195/253/323
f 198/257/327 248/315/328 196/255/325
f 249/316/329 250/317/330 230/292/293
f 198/257/327 228/290/291 251/318/331
f 78/82/78 80/84/80 97/101/332
f 78/82/78 97/101/332 91/95/333
f 78/82/78 91/95/333 87/91/334
f 78/82/78 87/91/334 82/86/335
f 78/82/78 82/86/335 113/117/336
f 78/82/78 113/117/336 110/114/337
f 78/82/78 110/114/337 105/109/338
f 78/82/78 105/109/338 100/104/339
f 78/82/78 100/104/339 94/98/340
f 78/82/78 94/98/340 89/93/341
f 78/82/78 89/93/341 85/89/342
f 78/82/78 85/89/342 233/298/343
f 78/82/78 233/298/343 111/115/344
f 78/82/78 111/115/344 107/111/345
f 78/82/78 107/111/345 102/106/346
f 78/82/78 102/106/346 96/100/347
f 78/82/78 96/100/347 79/83/79
f 228/290/291 250/317/330 226/288/288
f 251/318/331 226/288/288 32/34/32
f 251/318/331 200/260/262 248/315/328
f 248/315/328 222/283/284 247/314/326
f 247/314/326 224/286/286 246/313/324
f 246/313/324 220/319/282 245/312/320
f 244/310/318 220/281/282 218/279/280
f 243/309/316 218/279/280 216/277/278
f 242/308/314 216/277/278 214/275/276
f 240/306/311 214/275/276 212/273/274
f 241/307/312 212/273/274 209/270/271
f 241/307/312 223/284/285 239/305/310
f 239/305/310 206/267/268 238/304/308
f 238/304/308 204/265/266 237/303/306
f 237/303/306 203/320/265 236/302/302
f 235/300/300 203/263/265 202/262/264
f 234/299/298 202/262/264 230/292/293
f 227/289/290 230/292/293 250/317/330
f 252/321/348 226/288/288 250/317/330
f 41/322/41 35/323/35 116/324/118
f 146/296/148 35/325/35 232/297/295
f 120/165/122 3/326/3 146/166/148
f 119/123/121 1/327/1 120/124/122
f 122/126/124 6/328/6 119/127/121
f 124/129/126 4/329/4 122/130/124
f 124/133/126 11/330/11 7/331/7
f 126/134/128 13/332/13 11/333/11
f 128/137/130 15/334/15 13/335/13
f 130/140/132 18/336/18 15/337/15
f 134/145/136 18/338/18 132/143/134
f 136/148/138 17/339/17 134/146/136
f 138/151/140 19/340/19 136/149/138
f 140/154/142 21/341/21 138/152/140
f 142/157/144 23/342/23 140/155/142
f 142/158/144 29/343/29 25/344/25
f 144/163/146 114/345/116 29/346/29
f 42/44/42 116/347/118 114/348/116
f 253/349/349 33/350/33 231/351/294
f 145/352/147 33/353/33 225/354/287
f 118/355/120 225/356/287 252/357/348
f 121/358/123 252/359/348 249/360/329
f 123/361/125 249/362/329 229/363/292
f 125/364/127 229/365/292 201/366/263
f 125/131/127 205/367/267 254/368/350
f 143/161/145 199/369/261 40/370/40
f 40/42/40 31/371/31 253/372/349
f 127/373/129 208/374/270 129/138/131
f 254/375/350 207/376/269 127/135/129
f 129/377/131 210/378/272 131/141/133
f 133/144/135 210/379/272 211/380/273
f 135/147/137 211/381/273 213/382/275
f 137/150/139 213/383/275 215/384/277
f 139/153/141 215/385/277 217/386/279
f 141/156/143 217/387/279 219/388/281
f 141/389/143 221/390/283 143/159/145
f 253/349/349 232/391/295 41/322/41
f 1/1/1 36/38/36 2/2/2
f 4/4/4 8/8/8 5/5/5
f 7/7/7 10/293/10 8/8/8
f 7/9/7 11/12/11 9/10/9
f 11/12/11 13/14/13 12/13/12
f 13/14/13 15/16/15 14/15/14
f 15/16/15 18/19/18 16/17/16
f 17/18/17 20/21/20 16/17/16
f 19/20/19 22/23/22 20/21/20
f 21/22/21 24/25/24 22/23/22
f 23/24/23 26/27/26 24/25/24
f 25/26/25 28/294/28 26/27/26
f 25/28/25 29/31/29 27/29/27
f 29/31/29 114/118/116 30/32/30
f 31/33/31 200/260/262 32/34/32
f 3/3/3 2/2/2 34/36/34
f 6/6/6 5/5/5 36/38/36
f 37/39/37 117/121/119 38/40/38
f 40/42/40 253/372/349 41/43/41
f 39/41/39 38/40/38 43/45/43
f 44/46/44 43/45/43 45/47/45
f 46/48/46 45/47/45 47/49/47
f 48/50/48 47/49/47 49/51/49
f 51/53/51 50/174/50 49/54/49
f 53/56/53 51/53/51 52/55/52
f 55/58/55 53/56/53 54/57/54
f 57/60/57 55/58/55 56/59/56
f 57/60/57 58/61/58 59/62/59
f 60/63/60 59/62/59 61/64/61
f 62/65/62 61/64/61 63/66/63
f 64/67/64 63/66/63 65/68/65
f 66/69/66 65/68/65 67/70/67
f 69/72/69 68/184/68 67/73/67
f 71/75/71 69/72/69 70/74/70
f 73/77/73 71/75/71 72/76/72
f 75/79/75 165/191/184 76/80/76
f 81/85/81 113/117/115 82/86/82
f 84/88/84 233/298/296 85/89/85
f 83/87/83 82/86/82 87/91/87
f 86/90/86 85/89/85 89/93/89
f 88/92/88 87/91/87 91/95/91
f 93/97/93 90/94/90 89/93/89
f 95/99/95 108/112/110 79/83/96
f 92/96/92 91/95/91 97/101/98
f 99/103/100 93/97/93 94/98/94
f 101/105/102 95/99/95 96/100/97
f 103/107/104 98/102/99 97/101/98
f 104/108/106 99/103/100 100/104/101
f 106/110/108 101/105/102 102/106/103
f 108/112/110 103/107/104 80/84/105
f 109/113/111 104/108/106 105/109/107
f 106/110/108 107/111/109 111/115/113
f 81/85/81 109/113/111 110/114/112
f 114/118/116 116/120/118 115/119/117
f 116/120/118 35/37/35 34/36/34
f 37/39/37 73/77/73 74/78/74
f 118/122/120 121/358/123 119/123/121
f 121/125/123 123/361/125 122/126/124
f 123/128/125 125/364/127 124/129/126
f 125/131/127 254/368/350 126/132/128
f 126/134/128 254/375/350 127/135/129
f 128/137/130 127/373/129 129/138/131
f 130/140/132 129/377/131 131/141/133
f 132/143/134 131/392/133 133/144/135
f 134/146/136 133/393/135 135/147/137
f 136/149/138 135/394/137 137/150/139
f 138/152/140 137/395/139 139/153/141
f 140/155/142 139/396/141 141/156/143
f 142/158/144 141/389/143 143/159/145
f 143/161/145 40/370/40 42/162/42
f 145/164/147 118/355/120 120/165/122
f 147/167/149 162/186/180 73/77/150
f 147/167/149 37/39/149 39/41/151
f 148/168/152 39/41/151 44/46/153
f 149/169/154 44/46/153 46/48/155
f 150/170/156 46/48/155 48/50/157
f 151/171/158 48/50/157 50/52/159
f 153/173/160 152/397/159 50/174/159
f 154/175/162 153/173/160 51/53/161
f 155/176/164 154/175/162 53/56/163
f 156/177/166 155/176/164 55/58/165
f 156/177/166 57/60/166 60/63/167
f 157/178/168 60/63/167 62/65/169
f 158/179/170 62/65/169 64/67/171
f 77/180/172 64/67/171 66/69/173
f 75/181/174 66/69/173 68/71/175
f 160/183/176 159/398/175 68/184/175
f 161/185/178 160/183/176 69/72/177
f 162/186/180 161/185/178 71/75/179
f 152/187/181 153/192/185 163/188/182
f 159/190/183 170/198/183 165/191/184
f 153/192/185 154/199/191 166/193/186
f 162/194/187 147/202/188 167/195/188
f 159/190/183 160/203/194 169/197/190
f 154/199/191 155/205/196 171/200/192
f 148/201/193 174/208/199 167/195/188
f 160/203/194 161/209/200 172/204/195
f 155/205/196 156/211/197 173/206/197
f 149/207/198 175/213/203 174/208/199
f 161/209/200 162/194/187 168/196/189
f 157/210/201 176/215/205 173/206/197
f 150/212/202 177/217/207 175/213/203
f 158/214/204 178/218/208 176/215/205
f 151/216/206 179/219/209 177/217/207
f 77/81/77 76/80/76 178/218/208
f 152/187/181 164/189/181 179/219/209
f 108/221/229 95/224/232 181/222/230
f 95/224/232 101/226/234 183/225/233
f 101/226/234 106/399/235 184/227/235
f 112/228/236 185/232/238 184/229/235
f 84/231/237 186/234/240 185/232/238
f 86/233/239 187/236/242 186/234/240
f 90/235/241 189/238/241 187/236/242
f 90/235/241 93/239/244 188/237/243
f 93/239/244 99/241/246 190/240/245
f 99/241/246 104/243/248 191/242/247
f 104/243/248 109/245/250 192/244/249
f 109/245/250 81/400/251 193/246/251
f 83/247/252 194/251/254 193/248/251
f 88/250/253 195/253/256 194/251/254
f 92/252/255 196/255/258 195/253/256
f 98/254/257 198/257/257 196/255/258
f 98/254/257 103/258/260 197/256/259
f 103/258/260 108/221/229 182/223/231
f 199/259/261 222/283/284 200/260/262
f 201/261/263 229/291/292 202/262/264
f 201/264/263 203/320/265 204/265/266
f 205/266/267 204/265/266 206/267/268
f 208/269/270 223/284/285 209/270/271
f 211/272/273 210/271/272 209/270/271
f 213/274/275 211/272/273 212/273/274
f 215/276/277 213/274/275 214/275/276
f 217/278/279 215/276/277 216/277/278
f 219/280/281 217/278/279 218/279/280
f 221/282/283 224/286/286 222/283/284
f 207/268/269 206/267/268 223/284/285
f 219/285/281 220/319/282 224/286/286
f 225/287/287 33/35/33 32/34/32
f 197/256/289 182/223/297 227/289/290
f 229/291/292 249/316/329 230/292/293
f 117/121/119 74/78/74 115/119/117
f 117/121/119 34/36/34 2/2/2
f 38/40/38 2/2/2 36/38/36
f 43/45/43 36/38/36 5/5/5
f 45/47/45 5/5/5 8/8/8
f 47/49/47 8/8/8 10/293/10
f 52/55/52 49/54/49 10/11/10
f 54/57/54 52/55/52 9/10/9
f 56/59/56 54/57/54 12/13/12
f 58/61/58 56/59/56 14/15/14
f 58/61/58 16/17/16 20/21/20
f 59/62/59 20/21/20 22/23/22
f 61/64/61 22/23/22 24/25/24
f 63/66/63 24/25/24 26/27/26
f 65/68/65 26/27/26 28/294/28
f 70/74/70 67/73/67 28/30/28
f 72/76/72 70/74/70 27/29/27
f 74/78/74 72/76/72 30/32/30
f 231/295/294 145/352/147 146/296/148
f 112/116/114 111/115/113 233/298/296
f 182/223/297 181/222/299 234/299/298
f 181/222/299 183/225/301 235/300/300
f 183/225/301 184/227/304 236/301/302
f 185/232/303 237/303/306 236/302/302
f 186/234/305 238/304/308 237/303/306
f 187/236/307 239/305/310 238/304/308
f 189/238/309 241/307/312 239/305/310
f 189/238/309 188/237/313 240/306/311
f 188/237/313 190/240/315 242/308/314
f 190/240/315 191/242/317 243/309/316
f 191/242/317 192/244/319 244/310/318
f 192/244/319 193/246/322 245/311/320
f 194/251/321 246/313/324 245/312/320
f 195/253/323 247/314/326 246/313/324
f 196/255/325 248/315/328 247/314/326
f 198/257/327 251/318/331 248/315/328
f 249/316/329 252/321/348 250/317/330
f 198/257/327 197/256/289 228/290/291
f 228/290/291 227/289/290 250/317/330
f 251/318/331 228/290/291 226/288/288
f 251/318/331 32/34/32 200/260/262
f 248/315/328 200/260/262 222/283/284
f 247/314/326 222/283/284 224/286/286
f 246/313/324 224/286/286 220/319/282
f 244/310/318 245/311/320 220/281/282
f 243/309/316 244/310/318 218/279/280
f 242/308/314 243/309/316 216/277/278
f 240/306/311 242/308/314 214/275/276
f 241/307/312 240/306/311 212/273/274
f 241/307/312 209/270/271 223/284/285
f 239/305/310 223/284/285 206/267/268
f 238/304/308 206/267/268 204/265/266
f 237/303/306 204/265/266 203/320/265
f 235/300/300 236/301/302 203/263/265
f 234/299/298 235/300/300 202/262/264
f 227/289/290 234/299/298 230/292/293
f 252/321/348 225/287/287 226/288/288
f 41/322/41 232/391/295 35/323/35
f 146/296/148 3/401/3 35/325/35
f 120/165/122 1/402/1 3/326/3
f 119/123/121 6/403/6 1/327/1
f 122/126/124 4/404/4 6/328/6
f 124/129/126 7/405/7 4/329/4
f 124/133/126 126/132/128 11/330/11
f 126/134/128 128/136/130 13/332/13
f 128/137/130 130/139/132 15/334/15
f 130/140/132 132/142/134 18/336/18
f 134/145/136 17/406/17 18/338/18
f 136/148/138 19/407/19 17/339/17
f 138/151/140 21/408/21 19/340/19
f 140/154/142 23/409/23 21/341/21
f 142/157/144 25/410/25 23/342/23
f 142/158/144 144/160/146 29/343/29
f 144/163/146 42/162/42 114/345/116
f 42/44/42 41/43/41 116/347/118
f 253/349/349 31/411/31 33/350/33
f 145/352/147 231/295/294 33/353/33
f 118/355/120 145/164/147 225/356/287
f 121/358/123 118/122/120 252/359/348
f 123/361/125 121/125/123 249/362/329
f 125/364/127 123/128/125 229/365/292
f 125/131/127 201/412/263 205/367/267
f 143/161/145 221/413/283 199/369/261
f 40/42/40 199/414/261 31/371/31
f 127/373/129 207/415/269 208/374/270
f 254/375/350 205/416/267 207/376/269
f 129/377/131 208/417/270 210/378/272
f 133/144/135 131/392/133 210/379/272
f 135/147/137 133/393/135 211/381/273
f 137/150/139 135/394/137 213/383/275
f 139/153/141 137/395/139 215/385/277
f 141/156/143 139/396/141 217/387/279
f 141/389/143 219/418/281 221/390/283
f 253/349/349 231/351/294 232/391/295
