# Blender v2.76 (sub 0) OBJ File: 'truck_wheel.blend'
# www.blender.org
mtllib truck_wheel.mtl
o Cylinder
v -0.291429 1.000000 0.000000
v 0.291429 1.000000 0.000000
v -0.291429 0.980785 -0.195090
v 0.291429 0.980785 -0.195090
v -0.291429 0.923880 -0.382684
v 0.291429 0.923880 -0.382683
v -0.291429 0.831470 -0.555570
v 0.291429 0.831470 -0.555570
v -0.291429 0.707107 -0.707107
v 0.291429 0.707107 -0.707107
v -0.291429 0.555570 -0.831470
v 0.291429 0.555570 -0.831470
v -0.291429 0.382683 -0.923880
v 0.291429 0.382683 -0.923879
v -0.291429 0.195090 -0.980785
v 0.291429 0.195090 -0.980785
v -0.291429 0.000000 -1.000000
v 0.291429 0.000000 -1.000000
v -0.291429 -0.195090 -0.980785
v 0.291429 -0.195090 -0.980785
v -0.291429 -0.382683 -0.923880
v 0.291429 -0.382683 -0.923879
v -0.291429 -0.555570 -0.831470
v 0.291429 -0.555570 -0.831470
v -0.291429 -0.707107 -0.707107
v 0.291429 -0.707107 -0.707107
v -0.291429 -0.831470 -0.555570
v 0.291429 -0.831470 -0.555570
v -0.291429 -0.923880 -0.382683
v 0.291429 -0.923880 -0.382683
v -0.291429 -0.980785 -0.195090
v 0.291429 -0.980785 -0.195090
v -0.291429 -1.000000 0.000000
v 0.291429 -1.000000 0.000000
v -0.291429 -0.980785 0.195091
v 0.291429 -0.980785 0.195091
v -0.291429 -0.923879 0.382684
v 0.291429 -0.923879 0.382684
v -0.291429 -0.831469 0.555571
v 0.291429 -0.831469 0.555571
v -0.291429 -0.707106 0.707107
v 0.291429 -0.707106 0.707107
v -0.291429 -0.555570 0.831470
v 0.291429 -0.555570 0.831470
v -0.291429 -0.382683 0.923880
v 0.291429 -0.382683 0.923880
v -0.291429 -0.195089 0.980785
v 0.291429 -0.195089 0.980786
v -0.291429 0.000001 1.000000
v 0.291429 0.000001 1.000000
v -0.291429 0.195091 0.980785
v 0.291429 0.195091 0.980785
v -0.291429 0.382684 0.923879
v 0.291429 0.382684 0.923879
v -0.291429 0.555571 0.831469
v 0.291429 0.555571 0.831469
v -0.291429 0.707108 0.707106
v 0.291429 0.707108 0.707106
v -0.291429 0.831470 0.555569
v 0.291429 0.831470 0.555569
v -0.291429 0.923880 0.382682
v 0.291429 0.923880 0.382682
v -0.291429 0.980786 0.195089
v 0.291429 0.980786 0.195089
v -0.363900 0.869989 -0.000000
v -0.363900 0.853272 -0.169726
v 0.363900 0.853272 -0.169726
v 0.363900 0.869989 0.000000
v -0.363900 0.803765 -0.332930
v 0.363900 0.803765 -0.332930
v -0.363900 0.723369 -0.483340
v 0.363900 0.723369 -0.483340
v -0.363900 0.615175 -0.615175
v 0.363900 0.615175 -0.615175
v -0.363900 0.483340 -0.723369
v 0.363900 0.483340 -0.723369
v -0.363900 0.332930 -0.803765
v 0.363900 0.332930 -0.803765
v -0.363900 0.169726 -0.853272
v 0.363900 0.169726 -0.853272
v -0.363900 0.000000 -0.869989
v 0.363900 0.000000 -0.869989
v -0.363900 -0.169726 -0.853272
v 0.363900 -0.169726 -0.853272
v -0.363900 -0.332930 -0.803765
v 0.363900 -0.332930 -0.803765
v -0.363900 -0.483340 -0.723369
v 0.363900 -0.483340 -0.723369
v -0.363900 -0.615175 -0.615175
v 0.363900 -0.615175 -0.615175
v -0.363900 -0.723369 -0.483340
v 0.363900 -0.723369 -0.483340
v -0.363900 -0.803765 -0.332930
v 0.363900 -0.803765 -0.332930
v -0.363900 -0.853272 -0.169726
v 0.363900 -0.853272 -0.169726
v -0.363900 -0.869989 0.000000
v 0.363900 -0.869989 0.000000
v -0.363900 -0.853272 0.169727
v 0.363900 -0.853272 0.169727
v -0.363900 -0.803765 0.332931
v 0.363900 -0.803765 0.332931
v -0.363900 -0.723369 0.483340
v 0.363900 -0.723369 0.483340
v -0.363900 -0.615175 0.615175
v 0.363900 -0.615175 0.615175
v -0.363900 -0.483339 0.723370
v 0.363900 -0.483339 0.723370
v -0.363900 -0.332930 0.803765
v 0.363900 -0.332930 0.803765
v -0.363900 -0.169726 0.853272
v 0.363900 -0.169726 0.853272
v -0.363900 0.000001 0.869989
v 0.363900 0.000001 0.869989
v -0.363900 0.169727 0.853272
v 0.363900 0.169727 0.853272
v -0.363900 0.332931 0.803765
v 0.363900 0.332931 0.803765
v -0.363900 0.483341 0.723369
v 0.363900 0.483341 0.723369
v -0.363900 0.615176 0.615174
v 0.363900 0.615176 0.615174
v -0.363900 0.723370 0.483339
v 0.363900 0.723370 0.483339
v -0.363900 0.803765 0.332929
v 0.363900 0.803765 0.332929
v -0.363900 0.853272 0.169725
v 0.363900 0.853272 0.169725
v -0.363900 0.729183 0.000000
v -0.363900 0.715171 -0.142256
v 0.363900 0.715171 -0.142256
v 0.363900 0.729183 0.000000
v -0.363900 0.673677 -0.279046
v 0.363900 0.673677 -0.279046
v -0.363900 0.606293 -0.405112
v 0.363900 0.606293 -0.405112
v -0.363900 0.515610 -0.515610
v 0.363900 0.515610 -0.515610
v -0.363900 0.405112 -0.606293
v 0.363900 0.405112 -0.606293
v -0.363900 0.279046 -0.673677
v 0.363900 0.279046 -0.673677
v -0.363900 0.142257 -0.715171
v 0.363900 0.142257 -0.715171
v -0.363900 0.000000 -0.729182
v 0.363900 0.000000 -0.729182
v -0.363900 -0.142256 -0.715172
v 0.363900 -0.142256 -0.715171
v -0.363900 -0.279046 -0.673677
v 0.363900 -0.279046 -0.673677
v -0.363900 -0.405112 -0.606293
v 0.363900 -0.405112 -0.606293
v -0.363900 -0.515610 -0.515610
v 0.363900 -0.515610 -0.515610
v -0.363900 -0.606293 -0.405112
v 0.363900 -0.606293 -0.405112
v -0.363900 -0.673677 -0.279046
v 0.363900 -0.673677 -0.279046
v -0.363900 -0.715171 -0.142256
v 0.363900 -0.715171 -0.142256
v -0.363900 -0.729182 0.000000
v 0.363900 -0.729182 0.000000
v -0.363900 -0.715171 0.142257
v 0.363900 -0.715171 0.142257
v -0.363900 -0.673677 0.279046
v 0.363900 -0.673677 0.279046
v -0.363900 -0.606293 0.405112
v 0.363900 -0.606293 0.405113
v -0.363900 -0.515610 0.515610
v 0.363900 -0.515610 0.515610
v -0.363900 -0.405112 0.606293
v 0.363900 -0.405112 0.606293
v -0.363900 -0.279045 0.673677
v 0.363900 -0.279045 0.673677
v -0.363900 -0.142256 0.715172
v 0.363900 -0.142256 0.715172
v -0.363900 0.000001 0.729182
v 0.363900 0.000001 0.729183
v -0.363900 0.142257 0.715171
v 0.363900 0.142257 0.715171
v -0.363900 0.279047 0.673676
v 0.363900 0.279047 0.673677
v -0.363900 0.405113 0.606293
v 0.363900 0.405113 0.606293
v -0.363900 0.515611 0.515609
v 0.363900 0.515611 0.515609
v -0.363900 0.606294 0.405111
v 0.363900 0.606294 0.405111
v -0.363900 0.673677 0.279045
v 0.363900 0.673677 0.279045
v -0.363900 0.715172 0.142255
v 0.363900 0.715172 0.142255
v -0.310797 0.622775 0.000000
v -0.310797 0.610808 -0.121497
v 0.310797 0.610808 -0.121497
v 0.310797 0.622775 0.000000
v -0.310797 0.575369 -0.238326
v 0.310797 0.575369 -0.238325
v -0.310797 0.517818 -0.345995
v 0.310797 0.517818 -0.345995
v -0.310797 0.440368 -0.440368
v 0.310797 0.440368 -0.440368
v -0.310797 0.345995 -0.517818
v 0.310797 0.345995 -0.517818
v -0.310797 0.238326 -0.575369
v 0.310797 0.238326 -0.575369
v -0.310797 0.121497 -0.610808
v 0.310797 0.121497 -0.610808
v -0.310797 0.000000 -0.622775
v 0.310797 0.000000 -0.622775
v -0.310797 -0.121497 -0.610808
v 0.310797 -0.121497 -0.610808
v -0.310797 -0.238325 -0.575369
v 0.310797 -0.238325 -0.575369
v -0.310797 -0.345995 -0.517818
v 0.310797 -0.345995 -0.517818
v -0.310797 -0.440368 -0.440368
v 0.310797 -0.440368 -0.440368
v -0.310797 -0.517818 -0.345995
v 0.310797 -0.517818 -0.345995
v -0.310797 -0.575369 -0.238325
v 0.310797 -0.575369 -0.238325
v -0.310797 -0.610808 -0.121497
v 0.310797 -0.610808 -0.121497
v -0.310797 -0.622775 0.000000
v 0.310797 -0.622775 0.000000
v -0.310797 -0.610808 0.121498
v 0.310797 -0.610808 0.121498
v -0.310797 -0.575369 0.238326
v 0.310797 -0.575369 0.238326
v -0.310797 -0.517818 0.345995
v 0.310797 -0.517818 0.345995
v -0.310797 -0.440368 0.440369
v 0.310797 -0.440368 0.440369
v -0.310797 -0.345995 0.517818
v 0.310797 -0.345995 0.517819
v -0.310797 -0.238325 0.575369
v 0.310797 -0.238325 0.575369
v -0.310797 -0.121497 0.610808
v 0.310797 -0.121497 0.610808
v -0.310797 0.000001 0.622775
v 0.310797 0.000001 0.622775
v -0.310797 0.121498 0.610808
v 0.310797 0.121498 0.610808
v -0.310797 0.238326 0.575369
v 0.310797 0.238326 0.575369
v -0.310797 0.345996 0.517818
v 0.310797 0.345996 0.517818
v -0.310797 0.440369 0.440368
v 0.310797 0.440369 0.440368
v -0.310797 0.517819 0.345994
v 0.310797 0.517819 0.345994
v -0.310797 0.575369 0.238325
v 0.310797 0.575369 0.238325
v -0.310797 0.610809 0.121496
v 0.310797 0.610809 0.121496
v -0.310797 0.537005 -0.000000
v -0.310797 0.526687 -0.104765
v 0.310797 0.526687 -0.104764
v 0.310797 0.537005 0.000000
v -0.310797 0.496128 -0.205503
v 0.310797 0.496128 -0.205503
v -0.310797 0.446504 -0.298344
v 0.310797 0.446504 -0.298344
v -0.310797 0.379720 -0.379720
v 0.310797 0.379720 -0.379720
v -0.310797 0.298344 -0.446504
v 0.310797 0.298344 -0.446503
v -0.310797 0.205503 -0.496128
v 0.310797 0.205503 -0.496128
v -0.310797 0.104765 -0.526687
v 0.310797 0.104765 -0.526687
v -0.310797 0.000000 -0.537005
v 0.310797 0.000000 -0.537005
v -0.310797 -0.104764 -0.526687
v 0.310797 -0.104764 -0.526687
v -0.310797 -0.205503 -0.496128
v 0.310797 -0.205503 -0.496128
v -0.310797 -0.298344 -0.446504
v 0.310797 -0.298344 -0.446503
v -0.310797 -0.379720 -0.379720
v 0.310797 -0.379720 -0.379720
v -0.310797 -0.446503 -0.298344
v 0.310797 -0.446503 -0.298344
v -0.310797 -0.496128 -0.205503
v 0.310797 -0.496128 -0.205503
v -0.310797 -0.526687 -0.104764
v 0.310797 -0.526687 -0.104764
v -0.310797 -0.537005 0.000000
v 0.310797 -0.537005 0.000000
v -0.310797 -0.526687 0.104765
v 0.310797 -0.526687 0.104765
v -0.310797 -0.496128 0.205503
v 0.310797 -0.496128 0.205503
v -0.310797 -0.446503 0.298344
v 0.310797 -0.446503 0.298344
v -0.310797 -0.379720 0.379720
v 0.310797 -0.379720 0.379720
v -0.310797 -0.298344 0.446504
v 0.310797 -0.298344 0.446504
v -0.310797 -0.205502 0.496128
v 0.310797 -0.205502 0.496128
v -0.310797 -0.104764 0.526687
v 0.310797 -0.104764 0.526687
v -0.310797 0.000001 0.537005
v 0.310797 0.000001 0.537005
v -0.310797 0.104765 0.526687
v 0.310797 0.104765 0.526687
v -0.310797 0.205504 0.496128
v 0.310797 0.205504 0.496128
v -0.310797 0.298345 0.446503
v 0.310797 0.298345 0.446503
v -0.310797 0.379721 0.379719
v 0.310797 0.379721 0.379720
v -0.310797 0.446504 0.298344
v 0.310797 0.446504 0.298344
v -0.310797 0.496129 0.205502
v 0.310797 0.496129 0.205502
v -0.310797 0.526687 0.104764
v 0.310797 0.526687 0.104764
v -0.136771 0.537005 -0.000000
v -0.136771 0.526687 -0.104765
v 0.136771 0.526687 -0.104764
v 0.136771 0.537005 0.000000
v -0.136771 0.496128 -0.205503
v 0.136771 0.496128 -0.205503
v -0.136771 0.446504 -0.298344
v 0.136771 0.446504 -0.298344
v -0.136771 0.379720 -0.379720
v 0.136771 0.379720 -0.379720
v -0.136771 0.298344 -0.446504
v 0.136771 0.298344 -0.446503
v -0.136771 0.205503 -0.496128
v 0.136771 0.205503 -0.496128
v -0.136771 0.104765 -0.526687
v 0.136771 0.104765 -0.526687
v -0.136771 0.000000 -0.537005
v 0.136771 0.000000 -0.537005
v -0.136771 -0.104764 -0.526687
v 0.136771 -0.104764 -0.526687
v -0.136771 -0.205503 -0.496128
v 0.136771 -0.205503 -0.496128
v -0.136771 -0.298344 -0.446504
v 0.136771 -0.298344 -0.446503
v -0.136771 -0.379720 -0.379720
v 0.136771 -0.379720 -0.379720
v -0.136771 -0.446503 -0.298344
v 0.136771 -0.446503 -0.298344
v -0.136771 -0.496128 -0.205503
v 0.136771 -0.496128 -0.205503
v -0.136771 -0.526687 -0.104764
v 0.136771 -0.526687 -0.104764
v -0.136771 -0.537005 0.000000
v 0.136771 -0.537005 0.000000
v -0.136771 -0.526687 0.104765
v 0.136771 -0.526687 0.104765
v -0.136771 -0.496128 0.205503
v 0.136771 -0.496128 0.205503
v -0.136771 -0.446503 0.298344
v 0.136771 -0.446503 0.298344
v -0.136771 -0.379720 0.379720
v 0.136771 -0.379720 0.379720
v -0.136771 -0.298344 0.446504
v 0.136771 -0.298344 0.446504
v -0.136771 -0.205502 0.496128
v 0.136771 -0.205502 0.496128
v -0.136771 -0.104764 0.526687
v 0.136771 -0.104764 0.526687
v -0.136771 0.000001 0.537005
v 0.136771 0.000001 0.537005
v -0.136771 0.104765 0.526687
v 0.136771 0.104765 0.526687
v -0.136771 0.205504 0.496128
v 0.136771 0.205504 0.496128
v -0.136771 0.298345 0.446503
v 0.136771 0.298345 0.446503
v -0.136771 0.379721 0.379719
v 0.136771 0.379721 0.379720
v -0.136771 0.446504 0.298344
v 0.136771 0.446504 0.298344
v -0.136771 0.496129 0.205502
v 0.136771 0.496129 0.205502
v -0.136771 0.526687 0.104764
v 0.136771 0.526687 0.104764
v -0.136771 0.317986 0.000000
v -0.136771 0.311876 -0.062036
v 0.136771 0.311876 -0.062036
v 0.136771 0.317986 0.000000
v -0.136771 0.293781 -0.121688
v 0.136771 0.293781 -0.121688
v -0.136771 0.264396 -0.176664
v 0.136771 0.264396 -0.176663
v -0.136771 0.224850 -0.224850
v 0.136771 0.224850 -0.224850
v -0.136771 0.176664 -0.264396
v 0.136771 0.176664 -0.264396
v -0.136771 0.121688 -0.293781
v 0.136771 0.121688 -0.293781
v -0.136771 0.062036 -0.311876
v 0.136771 0.062036 -0.311876
v -0.136771 0.000000 -0.317986
v 0.136771 0.000000 -0.317986
v -0.136771 -0.062036 -0.311876
v 0.136771 -0.062036 -0.311876
v -0.136771 -0.121688 -0.293781
v 0.136771 -0.121688 -0.293781
v -0.136771 -0.176663 -0.264396
v 0.136771 -0.176663 -0.264396
v -0.136771 -0.224850 -0.224850
v 0.136771 -0.224850 -0.224850
v -0.136771 -0.264395 -0.176663
v 0.136771 -0.264395 -0.176663
v -0.136771 -0.293781 -0.121688
v 0.136771 -0.293781 -0.121688
v -0.136771 -0.311876 -0.062036
v 0.136771 -0.311876 -0.062036
v -0.136771 -0.317986 0.000000
v 0.136771 -0.317986 0.000000
v -0.136771 -0.311876 0.062036
v 0.136771 -0.311876 0.062036
v -0.136771 -0.293780 0.121688
v 0.136771 -0.293780 0.121688
v -0.136771 -0.264395 0.176664
v 0.136771 -0.264395 0.176664
v -0.136771 -0.224850 0.224850
v 0.136771 -0.224850 0.224850
v -0.136771 -0.176663 0.264396
v 0.136771 -0.176663 0.264396
v -0.136771 -0.121688 0.293781
v 0.136771 -0.121688 0.293781
v -0.136771 -0.062035 0.311876
v 0.136771 -0.062035 0.311876
v -0.136771 0.000001 0.317986
v 0.136771 0.000001 0.317986
v -0.136771 0.062037 0.311876
v 0.136771 0.062037 0.311876
v -0.136771 0.121688 0.293781
v 0.136771 0.121688 0.293781
v -0.136771 0.176664 0.264395
v 0.136771 0.176664 0.264395
v -0.136771 0.224850 0.224850
v 0.136771 0.224850 0.224850
v -0.136771 0.264396 0.176663
v 0.136771 0.264396 0.176663
v -0.136771 0.293781 0.121688
v 0.136771 0.293781 0.121688
v -0.136771 0.311876 0.062036
v 0.136771 0.311876 0.062036
v -0.231751 0.317986 0.000000
v -0.231751 0.311876 -0.062036
v 0.231751 0.311876 -0.062036
v 0.231751 0.317986 0.000000
v -0.231751 0.293781 -0.121688
v 0.231751 0.293781 -0.121688
v -0.231751 0.264396 -0.176664
v 0.231751 0.264396 -0.176663
v -0.231751 0.224850 -0.224850
v 0.231751 0.224850 -0.224850
v -0.231751 0.176664 -0.264396
v 0.231751 0.176664 -0.264396
v -0.231751 0.121688 -0.293781
v 0.231751 0.121688 -0.293781
v -0.231751 0.062036 -0.311876
v 0.231751 0.062036 -0.311876
v -0.231751 0.000000 -0.317986
v 0.231751 0.000000 -0.317986
v -0.231751 -0.062036 -0.311876
v 0.231751 -0.062036 -0.311876
v -0.231751 -0.121688 -0.293781
v 0.231751 -0.121688 -0.293781
v -0.231751 -0.176663 -0.264396
v 0.231751 -0.176663 -0.264396
v -0.231751 -0.224850 -0.224850
v 0.231751 -0.224850 -0.224850
v -0.231751 -0.264395 -0.176663
v 0.231751 -0.264395 -0.176663
v -0.231751 -0.293781 -0.121688
v 0.231751 -0.293781 -0.121688
v -0.231751 -0.311876 -0.062036
v 0.231751 -0.311876 -0.062036
v -0.231751 -0.317986 0.000000
v 0.231751 -0.317986 0.000000
v -0.231751 -0.311876 0.062036
v 0.231751 -0.311876 0.062036
v -0.231751 -0.293780 0.121688
v 0.231751 -0.293780 0.121688
v -0.231751 -0.264395 0.176664
v 0.231751 -0.264395 0.176664
v -0.231751 -0.224850 0.224850
v 0.231751 -0.224850 0.224850
v -0.231751 -0.176663 0.264396
v 0.231751 -0.176663 0.264396
v -0.231751 -0.121688 0.293781
v 0.231751 -0.121688 0.293781
v -0.231751 -0.062035 0.311876
v 0.231751 -0.062035 0.311876
v -0.231751 0.000001 0.317986
v 0.231751 0.000001 0.317986
v -0.231751 0.062037 0.311876
v 0.231751 0.062037 0.311876
v -0.231751 0.121688 0.293781
v 0.231751 0.121688 0.293781
v -0.231751 0.176664 0.264395
v 0.231751 0.176664 0.264395
v -0.231751 0.224850 0.224850
v 0.231751 0.224850 0.224850
v -0.231751 0.264396 0.176663
v 0.231751 0.264396 0.176663
v -0.231751 0.293781 0.121688
v 0.231751 0.293781 0.121688
v -0.231751 0.311876 0.062036
v 0.231751 0.311876 0.062036
v -0.273500 0.242952 0.000000
v -0.273500 0.238284 -0.047398
v 0.273500 0.238284 -0.047398
v 0.273500 0.242952 0.000000
v -0.273500 0.224459 -0.092974
v 0.273500 0.224459 -0.092974
v -0.273500 0.202007 -0.134977
v 0.273500 0.202007 -0.134977
v -0.273500 0.171793 -0.171793
v 0.273500 0.171793 -0.171793
v -0.273500 0.134977 -0.202007
v 0.273500 0.134977 -0.202007
v -0.273500 0.092974 -0.224458
v 0.273500 0.092974 -0.224458
v -0.273500 0.047398 -0.238284
v 0.273500 0.047398 -0.238284
v -0.273500 0.000000 -0.242952
v 0.273500 0.000000 -0.242952
v -0.273500 -0.047397 -0.238284
v 0.273500 -0.047397 -0.238284
v -0.273500 -0.092973 -0.224458
v 0.273500 -0.092973 -0.224458
v -0.273500 -0.134977 -0.202007
v 0.273500 -0.134977 -0.202007
v -0.273500 -0.171793 -0.171793
v 0.273500 -0.171793 -0.171793
v -0.273500 -0.202007 -0.134977
v 0.273500 -0.202007 -0.134977
v -0.273500 -0.224458 -0.092974
v 0.273500 -0.224458 -0.092974
v -0.273500 -0.238283 -0.047398
v 0.273500 -0.238283 -0.047397
v -0.273500 -0.242952 0.000000
v 0.273500 -0.242952 0.000000
v -0.273500 -0.238283 0.047398
v 0.273500 -0.238283 0.047398
v -0.273500 -0.224458 0.092974
v 0.273500 -0.224458 0.092974
v -0.273500 -0.202007 0.134977
v 0.273500 -0.202007 0.134977
v -0.273500 -0.171793 0.171793
v 0.273500 -0.171793 0.171793
v -0.273500 -0.134977 0.202007
v 0.273500 -0.134977 0.202007
v -0.273500 -0.092973 0.224458
v 0.273500 -0.092973 0.224458
v -0.273500 -0.047397 0.238284
v 0.273500 -0.047397 0.238284
v -0.273500 0.000000 0.242952
v 0.273500 0.000000 0.242952
v -0.273500 0.047398 0.238284
v 0.273500 0.047398 0.238284
v -0.273500 0.092974 0.224458
v 0.273500 0.092974 0.224458
v -0.273500 0.134977 0.202007
v 0.273500 0.134977 0.202007
v -0.273500 0.171793 0.171793
v 0.273500 0.171793 0.171793
v -0.273500 0.202008 0.134977
v 0.273500 0.202008 0.134977
v -0.273500 0.224459 0.092973
v 0.273500 0.224459 0.092973
v -0.273500 0.238284 0.047397
v 0.273500 0.238284 0.047397
v -0.222734 0.197856 0.000000
v -0.222734 0.194055 -0.038600
v 0.222734 0.194055 -0.038600
v 0.222734 0.197856 0.000000
v -0.222734 0.182795 -0.075716
v 0.222734 0.182795 -0.075716
v -0.222734 0.164512 -0.109923
v 0.222734 0.164512 -0.109923
v -0.222734 0.139906 -0.139905
v 0.222734 0.139906 -0.139905
v -0.222734 0.109923 -0.164511
v 0.222734 0.109923 -0.164511
v -0.222734 0.075717 -0.182795
v 0.222734 0.075717 -0.182795
v -0.222734 0.038600 -0.194054
v 0.222734 0.038600 -0.194054
v -0.222734 0.000000 -0.197856
v 0.222734 0.000000 -0.197856
v -0.222734 -0.038600 -0.194054
v 0.222734 -0.038600 -0.194054
v -0.222734 -0.075716 -0.182795
v 0.222734 -0.075716 -0.182795
v -0.222734 -0.109923 -0.164511
v 0.222734 -0.109923 -0.164511
v -0.222734 -0.139905 -0.139905
v 0.222734 -0.139905 -0.139905
v -0.222734 -0.164511 -0.109923
v 0.222734 -0.164511 -0.109923
v -0.222734 -0.182795 -0.075716
v 0.222734 -0.182795 -0.075716
v -0.222734 -0.194054 -0.038600
v 0.222734 -0.194054 -0.038600
v -0.222734 -0.197856 0.000000
v 0.222734 -0.197856 0.000000
v -0.222734 -0.194054 0.038600
v 0.222734 -0.194054 0.038600
v -0.222734 -0.182795 0.075716
v 0.222734 -0.182795 0.075716
v -0.222734 -0.164511 0.109923
v 0.222734 -0.164511 0.109923
v -0.222734 -0.139905 0.139906
v 0.222734 -0.139905 0.139906
v -0.222734 -0.109923 0.164511
v 0.222734 -0.109923 0.164511
v -0.222734 -0.075716 0.182795
v 0.222734 -0.075716 0.182795
v -0.222734 -0.038599 0.194054
v 0.222734 -0.038599 0.194054
v -0.222734 0.000000 0.197856
v 0.222734 0.000000 0.197856
v -0.222734 0.038600 0.194054
v 0.222734 0.038600 0.194054
v -0.222734 0.075717 0.182795
v 0.222734 0.075717 0.182795
v -0.222734 0.109923 0.164511
v 0.222734 0.109923 0.164511
v -0.222734 0.139906 0.139905
v 0.222734 0.139906 0.139905
v -0.222734 0.164512 0.109923
v 0.222734 0.164512 0.109923
v -0.222734 0.182796 0.075716
v 0.222734 0.182796 0.075716
v -0.222734 0.194055 0.038600
v 0.222734 0.194055 0.038600
vt 0.300115 0.778872
vt 0.300115 0.964661
vt 0.237628 0.964661
vt 0.737528 0.964661
vt 0.675041 0.964661
vt 0.675041 0.778872
vt 0.612554 0.964661
vt 0.550067 0.964661
vt 0.550067 0.778872
vt 0.487580 0.964661
vt 0.425093 0.964661
vt 0.425093 0.778872
vt 0.362606 0.964661
vt 0.362606 0.778872
vt 0.237632 0.778872
vt 0.612543 0.964661
vt 0.487568 0.778872
vt 0.612554 0.778872
vt 0.737524 0.778871
vt 0.160126 0.204908
vt 0.207663 0.230092
vt 0.184362 0.286447
vt 0.588300 0.026554
vt 0.572839 0.078278
vt 0.512814 0.066418
vt 0.184104 0.467301
vt 0.172228 0.407372
vt 0.222426 0.402433
vt 0.723690 0.178874
vt 0.684637 0.210963
vt 0.648328 0.174691
vt 0.832827 0.483478
vt 0.805219 0.549863
vt 0.757538 0.524419
vt 0.375362 0.726566
vt 0.391108 0.675036
vt 0.450992 0.687253
vt 0.446227 0.740783
vt 0.451473 0.687169
vt 0.512557 0.687298
vt 0.847080 0.413080
vt 0.793219 0.407867
vt 0.793267 0.346539
vt 0.132552 0.270967
vt 0.184133 0.286442
vt 0.172235 0.346323
vt 0.654684 0.053841
vt 0.629432 0.101596
vt 0.654685 0.053909
vt 0.132852 0.270999
vt 0.172474 0.346242
vt 0.517353 0.741251
vt 0.445592 0.740912
vt 0.376021 0.726698
vt 0.391602 0.675147
vt 0.159883 0.204794
vt 0.207468 0.230021
vt 0.588264 0.026521
vt 0.714471 0.093716
vt 0.680354 0.135601
vt 0.118957 0.341109
vt 0.172443 0.407196
vt 0.587847 0.727538
vt 0.512159 0.687522
vt 0.309919 0.699226
vt 0.335232 0.651702
vt 0.199586 0.145197
vt 0.241354 0.179218
vt 0.517823 0.012707
vt 0.451633 0.066560
vt 0.765343 0.144452
vt 0.132845 0.482654
vt 0.118957 0.412566
vt 0.572239 0.675826
vt 0.628905 0.652603
vt 0.250435 0.659425
vt 0.284513 0.617738
vt 0.250153 0.094462
vt 0.284501 0.135983
vt 0.446083 0.012909
vt 0.391704 0.078606
vt 0.765156 0.609537
vt 0.723399 0.575273
vt 0.805332 0.204166
vt 0.757746 0.229791
vt 0.184266 0.466988
vt 0.207489 0.523341
vt 0.833067 0.270537
vt 0.847109 0.341121
vt 0.654336 0.700291
vt 0.679962 0.618735
vt 0.199822 0.608809
vt 0.241379 0.574550
vt 0.309658 0.054541
vt 0.335262 0.101976
vt 0.375804 0.027098
vt 0.335305 0.102096
vt 0.832884 0.270559
vt 0.781198 0.286391
vt 0.160091 0.548707
vt 0.241233 0.574112
vt 0.714220 0.660167
vt 0.679983 0.618432
vt 0.765239 0.609830
vt 0.714242 0.660547
vt 0.160012 0.549269
vt 0.207469 0.523762
vt 0.781343 0.286379
vt 0.757868 0.229751
vt 0.375830 0.026976
vt 0.391699 0.078512
vt 0.309683 0.054702
vt 0.284593 0.136110
vt 0.846926 0.341068
vt 0.793137 0.346490
vt 0.199661 0.608216
vt 0.284219 0.617363
vt 0.654467 0.699842
vt 0.629048 0.652269
vt 0.805339 0.550095
vt 0.723428 0.575520
vt 0.132579 0.483059
vt 0.805477 0.204097
vt 0.723779 0.178821
vt 0.446136 0.012839
vt 0.451650 0.066501
vt 0.250246 0.094640
vt 0.241500 0.179330
vt 0.846909 0.412968
vt 0.793096 0.407768
vt 0.309369 0.698873
vt 0.250056 0.658915
vt 0.588168 0.727105
vt 0.572515 0.675519
vt 0.832978 0.483651
vt 0.757611 0.524622
vt 0.118625 0.412779
vt 0.714515 0.093629
vt 0.765439 0.144363
vt 0.517879 0.012691
vt 0.199756 0.145360
vt 0.781075 0.467853
vt 0.334817 0.651441
vt 0.517857 0.740925
vt 0.781180 0.468007
vt 0.118625 0.341185
vt 0.680406 0.135548
vt 0.232539 0.301045
vt 0.252091 0.253794
vt 0.289318 0.273611
vt 0.605219 0.607945
vt 0.585337 0.570598
vt 0.621185 0.546802
vt 0.557744 0.627423
vt 0.280476 0.211241
vt 0.713167 0.253637
vt 0.222399 0.351254
vt 0.684428 0.543163
vt 0.713000 0.500517
vt 0.742874 0.351462
vt 0.732813 0.301068
vt 0.232369 0.301052
vt 0.648019 0.579299
vt 0.647991 0.579554
vt 0.222561 0.351186
vt 0.732952 0.301051
vt 0.713273 0.253619
vt 0.742813 0.351429
vt 0.251938 0.253752
vt 0.605356 0.607702
vt 0.684400 0.543338
vt 0.222529 0.402302
vt 0.684719 0.210940
vt 0.742778 0.402773
vt 0.280354 0.211166
vt 0.557976 0.627211
vt 0.713033 0.500690
vt 0.732709 0.453117
vt 0.316533 0.174929
vt 0.507714 0.637101
vt 0.732776 0.453255
vt 0.232442 0.452445
vt 0.251922 0.499704
vt 0.648384 0.174667
vt 0.605677 0.146198
vt 0.359094 0.146433
vt 0.456502 0.637003
vt 0.742858 0.402864
vt 0.280228 0.542276
vt 0.558250 0.126626
vt 0.406408 0.126778
vt 0.406302 0.626932
vt 0.316285 0.578535
vt 0.507936 0.116694
vt 0.456662 0.116726
vt 0.359035 0.607279
vt 0.456673 0.116774
vt 0.316512 0.578803
vt 0.358727 0.607088
vt 0.405943 0.626817
vt 0.558234 0.126626
vt 0.280369 0.542600
vt 0.359147 0.146519
vt 0.605644 0.146215
vt 0.251943 0.500026
vt 0.456130 0.637086
vt 0.507403 0.637252
vt 0.316620 0.175017
vt 0.232323 0.452679
vt 0.272769 0.313242
vt 0.289195 0.273585
vt 0.315592 0.287916
vt 0.692329 0.313398
vt 0.700698 0.355610
vt 0.670718 0.358341
vt 0.700828 0.355557
vt 0.675875 0.273636
vt 0.264380 0.355342
vt 0.621318 0.546651
vt 0.272903 0.313232
vt 0.264518 0.355282
vt 0.675953 0.273644
vt 0.585489 0.570438
vt 0.651701 0.516451
vt 0.675701 0.480711
vt 0.264478 0.398155
vt 0.652050 0.237857
vt 0.700658 0.398644
vt 0.313038 0.237885
vt 0.545748 0.586787
vt 0.692258 0.440961
vt 0.692208 0.440835
vt 0.343386 0.207514
vt 0.503599 0.595075
vt 0.272782 0.440214
vt 0.289114 0.479855
vt 0.621611 0.207435
vt 0.585824 0.183551
vt 0.675675 0.480550
vt 0.379082 0.183637
vt 0.460655 0.594989
vt 0.700735 0.398723
vt 0.312851 0.515566
vt 0.418760 0.167177
vt 0.418557 0.586539
vt 0.546077 0.167121
vt 0.503902 0.158770
vt 0.460897 0.158770
vt 0.378919 0.570051
vt 0.343092 0.545982
vt 0.503876 0.158746
vt 0.343262 0.546163
vt 0.378689 0.569943
vt 0.418298 0.586548
vt 0.546045 0.167113
vt 0.313013 0.515812
vt 0.379140 0.183701
vt 0.289188 0.480117
vt 0.460409 0.594962
vt 0.503353 0.595152
vt 0.343467 0.207577
vt 0.272810 0.440382
vt 0.264336 0.398290
vt 0.545546 0.586923
vt 0.313141 0.237936
vt 0.651698 0.516228
vt 0.294357 0.395447
vt 0.347024 0.389944
vt 0.352150 0.416086
vt 0.649261 0.466288
vt 0.602301 0.441506
vt 0.612599 0.416857
vt 0.571544 0.543796
vt 0.602403 0.523219
vt 0.628596 0.497141
vt 0.294355 0.358443
vt 0.649343 0.287664
vt 0.628660 0.256806
vt 0.670724 0.395464
vt 0.336136 0.257090
vt 0.537273 0.557949
vt 0.602371 0.230583
vt 0.663477 0.431869
vt 0.362300 0.230857
vt 0.500910 0.565145
vt 0.663496 0.431988
vt 0.670734 0.395569
vt 0.301563 0.431742
vt 0.315698 0.465941
vt 0.571478 0.210003
vt 0.649258 0.466148
vt 0.393084 0.210227
vt 0.463850 0.565115
vt 0.336222 0.496740
vt 0.427308 0.195994
vt 0.427510 0.557864
vt 0.537174 0.195856
vt 0.463659 0.188708
vt 0.393279 0.543675
vt 0.362356 0.522959
vt 0.393105 0.543595
vt 0.500780 0.188679
vt 0.500743 0.188656
vt 0.362453 0.523098
vt 0.427301 0.557846
vt 0.427354 0.196038
vt 0.537134 0.195843
vt 0.336140 0.496940
vt 0.393144 0.210277
vt 0.571430 0.209997
vt 0.315859 0.465947
vt 0.463635 0.565119
vt 0.500706 0.565204
vt 0.362376 0.230906
vt 0.602310 0.230578
vt 0.301597 0.431816
vt 0.628582 0.256796
vt 0.294290 0.395525
vt 0.537097 0.558051
vt 0.336227 0.257128
vt 0.315694 0.287934
vt 0.649231 0.287643
vt 0.294257 0.358488
vt 0.628625 0.496985
vt 0.571405 0.543922
vt 0.670640 0.358468
vt 0.663461 0.321932
vt 0.301452 0.322153
vt 0.602304 0.523355
vt 0.301558 0.322143
vt 0.663699 0.321979
vt 0.396219 0.271584
vt 0.418410 0.256795
vt 0.444293 0.305481
vt 0.612603 0.416771
vt 0.602325 0.441416
vt 0.553737 0.415269
vt 0.587849 0.290773
vt 0.568988 0.271853
vt 0.617871 0.390591
vt 0.377343 0.290414
vt 0.495426 0.512419
vt 0.617884 0.390669
vt 0.362270 0.440731
vt 0.546801 0.256984
vt 0.468753 0.512338
vt 0.617954 0.363951
vt 0.376997 0.462936
vt 0.522146 0.246736
vt 0.443065 0.246618
vt 0.442609 0.507057
vt 0.395770 0.481849
vt 0.495973 0.241499
vt 0.469239 0.241445
vt 0.417994 0.496782
vt 0.417873 0.496743
vt 0.469289 0.241471
vt 0.495924 0.241478
vt 0.395853 0.481905
vt 0.442461 0.507044
vt 0.377050 0.462997
vt 0.418469 0.256829
vt 0.546748 0.256970
vt 0.362305 0.440773
vt 0.468595 0.512351
vt 0.495274 0.512458
vt 0.396284 0.271618
vt 0.568929 0.271837
vt 0.521469 0.507356
vt 0.377412 0.290444
vt 0.587784 0.290750
vt 0.346993 0.389969
vt 0.546173 0.497237
vt 0.362574 0.312582
vt 0.602587 0.312981
vt 0.347033 0.363313
vt 0.587436 0.463577
vt 0.568432 0.482485
vt 0.352336 0.337183
vt 0.612823 0.337725
vt 0.568514 0.482400
vt 0.587385 0.463667
vt 0.347086 0.363303
vt 0.602656 0.313018
vt 0.617926 0.363882
vt 0.362504 0.312562
vt 0.546284 0.497160
vt 0.521604 0.507295
vt 0.506008 0.299492
vt 0.499927 0.319755
vt 0.488436 0.317434
vt 0.419750 0.428120
vt 0.436075 0.414684
vt 0.444312 0.423006
vt 0.474353 0.457468
vt 0.490208 0.457514
vt 0.562970 0.385071
vt 0.563003 0.369186
vt 0.410985 0.414915
vt 0.520669 0.305587
vt 0.458952 0.299427
vt 0.458808 0.454329
vt 0.430918 0.439363
vt 0.490443 0.296378
vt 0.474516 0.296350
vt 0.444169 0.448217
vt 0.474574 0.296363
vt 0.430997 0.439366
vt 0.444062 0.448215
vt 0.458680 0.454335
vt 0.444352 0.305505
vt 0.520613 0.305581
vt 0.474218 0.457486
vt 0.490081 0.457538
vt 0.431160 0.314306
vt 0.533808 0.314421
vt 0.404958 0.400243
vt 0.419940 0.325510
vt 0.545025 0.325666
vt 0.401880 0.384686
vt 0.505655 0.454484
vt 0.411122 0.338684
vt 0.553835 0.338885
vt 0.401892 0.368832
vt 0.544894 0.428454
vt 0.520345 0.448455
vt 0.559896 0.353568
vt 0.404994 0.353286
vt 0.533648 0.439652
vt 0.544845 0.428480
vt 0.401929 0.368861
vt 0.553874 0.338909
vt 0.411070 0.338645
vt 0.520438 0.448433
vt 0.545073 0.325681
vt 0.562957 0.385035
vt 0.505769 0.454465
vt 0.559830 0.400642
vt 0.533860 0.314430
vt 0.431102 0.314277
vt 0.404959 0.400257
vt 0.454114 0.429543
vt 0.444390 0.422982
vt 0.454372 0.410800
vt 0.486862 0.333088
vt 0.478222 0.333037
vt 0.476650 0.317393
vt 0.464920 0.434080
vt 0.454007 0.429559
vt 0.476715 0.317402
vt 0.464786 0.434095
vt 0.465216 0.319659
vt 0.436123 0.414649
vt 0.476252 0.436451
vt 0.454382 0.324116
vt 0.510691 0.324279
vt 0.429639 0.404868
vt 0.444627 0.330602
vt 0.520427 0.330828
vt 0.425181 0.394029
vt 0.487957 0.436527
vt 0.499462 0.434231
vt 0.436327 0.338865
vt 0.528701 0.339150
vt 0.422920 0.382528
vt 0.510339 0.429801
vt 0.429799 0.348588
vt 0.535194 0.348926
vt 0.422940 0.370824
vt 0.528507 0.415088
vt 0.520128 0.423333
vt 0.425292 0.359396
vt 0.541971 0.371326
vt 0.539663 0.359815
vt 0.425242 0.359341
vt 0.520187 0.423345
vt 0.422978 0.370873
vt 0.541916 0.371295
vt 0.429749 0.348534
vt 0.510429 0.429812
vt 0.535026 0.405353
vt 0.422942 0.382582
vt 0.528740 0.339151
vt 0.541887 0.383028
vt 0.436269 0.338826
vt 0.499590 0.434251
vt 0.539565 0.394535
vt 0.425183 0.394072
vt 0.520476 0.330825
vt 0.488094 0.436478
vt 0.535051 0.405355
vt 0.454316 0.324093
vt 0.476395 0.436419
vt 0.465150 0.319643
vt 0.469822 0.334685
vt 0.473212 0.345841
vt 0.467334 0.348231
vt 0.477778 0.420818
vt 0.469339 0.419027
vt 0.472754 0.407927
vt 0.461407 0.415691
vt 0.478299 0.333040
vt 0.495331 0.334824
vt 0.448271 0.404632
vt 0.461831 0.337952
vt 0.503302 0.338179
vt 0.443526 0.397385
vt 0.486447 0.420867
vt 0.454633 0.342717
vt 0.510469 0.343024
vt 0.440207 0.389398
vt 0.448506 0.348796
vt 0.516556 0.349173
vt 0.438585 0.380915
vt 0.494932 0.419186
vt 0.502925 0.415940
vt 0.443683 0.355953
vt 0.521329 0.356390
vt 0.438581 0.372297
vt 0.516335 0.405172
vt 0.521162 0.397988
vt 0.510138 0.411187
vt 0.440350 0.363914
vt 0.526293 0.372842
vt 0.524604 0.364398
vt 0.440268 0.363829
vt 0.510172 0.411211
vt 0.516288 0.405114
vt 0.438633 0.372373
vt 0.521357 0.356361
vt 0.526255 0.372889
vt 0.443643 0.355893
vt 0.502993 0.415977
vt 0.438591 0.380999
vt 0.516599 0.349148
vt 0.526220 0.381537
vt 0.448441 0.348750
vt 0.495002 0.419251
vt 0.521137 0.397954
vt 0.524500 0.390010
vt 0.486533 0.420826
vt 0.440241 0.389473
vt 0.503364 0.338162
vt 0.461752 0.337929
vt 0.477925 0.420776
vt 0.443484 0.397483
vt 0.448224 0.404705
vt 0.495399 0.334812
vt 0.469743 0.334672
vt 0.469481 0.419032
vt 0.461529 0.415664
vt 0.454276 0.410854
vt 0.453803 0.391987
vt 0.511064 0.361864
vt 0.451424 0.367240
vt 0.511023 0.361912
vt 0.513316 0.386635
vt 0.497790 0.348486
vt 0.491932 0.346002
vt 0.453855 0.391886
vt 0.478944 0.409160
vt 0.485299 0.409221
vt 0.462037 0.351723
vt 0.503054 0.352063
vt 0.451403 0.386010
vt 0.457527 0.356183
vt 0.507522 0.356596
vt 0.450151 0.379777
vt 0.491539 0.408035
vt 0.497424 0.405651
vt 0.453975 0.361439
vt 0.450163 0.373434
vt 0.507286 0.397738
vt 0.510850 0.392486
vt 0.502734 0.402164
vt 0.451521 0.367289
vt 0.514653 0.374001
vt 0.513422 0.367807
vt 0.502843 0.402222
vt 0.450258 0.373509
vt 0.513454 0.367755
vt 0.514627 0.374053
vt 0.453855 0.361369
vt 0.497535 0.405702
vt 0.450235 0.379857
vt 0.507575 0.356552
vt 0.514591 0.380411
vt 0.457413 0.356128
vt 0.491658 0.408074
vt 0.510836 0.392448
vt 0.503117 0.352024
vt 0.461930 0.351684
vt 0.485462 0.409285
vt 0.451450 0.386068
vt 0.497862 0.348453
vt 0.467231 0.348208
vt 0.479113 0.409214
vt 0.457257 0.397344
vt 0.492012 0.345977
vt 0.473114 0.345832
vt 0.472907 0.407900
vt 0.461682 0.401886
vt 0.485793 0.344692
vt 0.479353 0.344650
vt 0.467078 0.405388
vt 0.485707 0.344707
vt 0.461851 0.401770
vt 0.466913 0.405457
vt 0.479445 0.344646
vt 0.457430 0.397180
vt 0.612543 0.778872
vn -0.493100 0.869900 0.000000
vn 0.493100 0.869900 0.000000
vn 0.493100 0.853200 -0.169700
vn 0.493100 0.803700 -0.332900
vn -0.493100 0.803700 -0.332900
vn 0.493100 0.723300 -0.483300
vn 0.493100 0.615100 -0.615100
vn -0.493100 0.615100 -0.615100
vn 0.493100 0.483300 -0.723300
vn 0.493100 0.332900 -0.803700
vn -0.493100 0.332900 -0.803700
vn 0.493100 0.169700 -0.853200
vn -0.493100 0.169700 -0.853200
vn 0.493100 0.000000 -0.869900
vn -0.493100 0.000000 -0.869900
vn 0.493100 -0.169700 -0.853200
vn -0.493100 -0.169700 -0.853200
vn 0.493100 -0.332900 -0.803700
vn -0.493100 -0.332900 -0.803700
vn 0.493100 -0.483300 -0.723300
vn 0.493100 -0.615100 -0.615100
vn -0.493100 -0.615100 -0.615100
vn 0.493100 -0.723300 -0.483300
vn -0.493100 -0.723300 -0.483300
vn 0.493100 -0.803700 -0.332900
vn -0.493100 -0.803700 -0.332900
vn 0.493100 -0.853200 -0.169700
vn 0.493100 -0.869900 0.000000
vn -0.493100 -0.869900 0.000000
vn 0.493100 -0.853200 0.169700
vn -0.493100 -0.853200 0.169700
vn 0.493100 -0.803700 0.332900
vn -0.493100 -0.803700 0.332900
vn 0.493100 -0.723300 0.483300
vn -0.493100 -0.723300 0.483300
vn 0.493100 -0.615100 0.615100
vn 0.493100 -0.483300 0.723300
vn -0.493100 -0.483300 0.723300
vn 0.493100 -0.332900 0.803700
vn -0.493100 -0.332900 0.803700
vn 0.493100 -0.169700 0.853200
vn -0.493100 -0.169700 0.853200
vn 0.493100 0.000000 0.869900
vn -0.493100 0.000000 0.869900
vn 0.493100 0.169700 0.853200
vn -0.493100 0.169700 0.853200
vn 0.493100 0.332900 0.803700
vn -0.493100 0.332900 0.803700
vn 0.493100 0.483300 0.723300
vn 0.493100 0.615100 0.615100
vn -0.493100 0.615100 0.615100
vn 0.493100 0.723300 0.483300
vn -0.493100 0.723300 0.483300
vn 0.493100 0.803700 0.332900
vn -0.493100 0.803700 0.332900
vn 0.963900 -0.221300 -0.147800
vn 0.963900 -0.245900 -0.101800
vn 0.493100 0.853200 0.169700
vn -0.493100 0.853200 0.169700
vn -0.963900 -0.051900 0.261000
vn -0.963900 -0.101800 0.245900
vn -0.963900 -0.188200 -0.188200
vn -0.963900 -0.221300 -0.147800
vn -0.976400 0.179400 0.119800
vn -0.963900 0.101800 0.245900
vn -0.976400 -0.082500 -0.199300
vn -0.976400 -0.042100 -0.211600
vn -0.963900 0.266100 0.000000
vn 0.963900 -0.101800 0.245900
vn 0.963900 -0.051900 0.261000
vn -0.963900 0.101800 -0.245900
vn -0.963900 0.147800 -0.221300
vn 0.963900 0.261000 0.051900
vn 0.963900 0.266100 0.000000
vn -0.493100 -0.853200 -0.169700
vn -0.963900 -0.261000 -0.051900
vn -0.963900 -0.245900 -0.101800
vn 0.963900 0.147800 -0.221300
vn 0.963900 0.101800 -0.245900
vn -0.963900 0.000000 0.266100
vn 0.963900 -0.261000 -0.051900
vn -0.963900 0.051900 -0.261000
vn -0.963900 -0.266100 0.000000
vn 0.963900 0.051900 -0.261000
vn -0.963900 0.051900 0.261000
vn 0.963900 -0.266100 0.000000
vn 0.963900 0.000000 0.266100
vn -0.963900 0.000000 -0.266100
vn -0.963900 -0.261000 0.051900
vn 0.963900 0.000000 -0.266100
vn 0.963900 0.051900 0.261000
vn 0.963900 0.101800 0.245900
vn -0.963900 -0.051900 -0.261000
vn -0.963900 -0.245900 0.101800
vn 0.963900 -0.051900 -0.261000
vn -0.493100 0.853200 -0.169700
vn -0.963900 0.261000 -0.051900
vn -0.493100 0.483300 0.723300
vn -0.963900 0.147800 0.221300
vn 0.963900 -0.261000 0.051900
vn 0.963900 -0.245900 0.101800
vn 0.963900 0.147800 0.221300
vn -0.963900 -0.101800 -0.245900
vn -0.963900 -0.221300 0.147800
vn 0.963900 -0.101800 -0.245900
vn -0.963900 0.188200 0.188200
vn 0.963900 -0.221300 0.147800
vn -0.963900 0.245900 -0.101800
vn -0.493100 -0.483300 -0.723300
vn -0.963900 -0.147800 -0.221300
vn 0.963900 0.261000 -0.051900
vn 0.963900 0.245900 -0.101800
vn -0.493100 -0.615100 0.615100
vn -0.963900 -0.188200 0.188200
vn 0.963900 -0.147800 -0.221300
vn -0.963900 0.221300 0.147800
vn 0.963900 -0.188200 0.188200
vn -0.493100 0.723300 -0.483300
vn -0.963900 0.221300 -0.147800
vn 0.963900 0.188200 0.188200
vn 0.963900 0.221300 -0.147800
vn -0.963900 -0.147800 0.221300
vn 0.963900 -0.188200 -0.188200
vn -0.963900 0.245900 0.101800
vn -0.963900 0.188200 -0.188200
vn 0.963900 0.221300 0.147800
vn -0.963900 0.261000 0.051900
vn 0.963900 -0.147800 0.221300
vn -0.493100 0.483300 -0.723300
vn 0.963900 0.245900 0.101800
vn 0.963900 0.188200 -0.188200
vn 0.976400 0.199300 0.082500
vn 0.976400 0.179400 0.119800
vn 0.970000 0.201900 0.134900
vn 0.976400 -0.082500 -0.199300
vn 0.970000 -0.092900 -0.224400
vn 0.970000 -0.134900 -0.201900
vn 0.976400 -0.042100 -0.211600
vn 0.976400 0.152500 0.152500
vn -0.976400 -0.119800 -0.179400
vn -0.976400 0.199300 0.082500
vn -0.976400 -0.211600 0.042100
vn -0.976400 -0.215700 0.000000
vn 0.976400 -0.215700 0.000000
vn -0.976400 -0.152500 -0.152500
vn -0.976400 0.211600 0.042100
vn -0.976400 -0.199300 0.082500
vn 0.976400 -0.119800 -0.179400
vn 0.976400 0.211600 0.042100
vn 0.976400 -0.211600 0.042100
vn 0.976400 -0.199300 0.082500
vn -0.976400 -0.179400 -0.119800
vn -0.976400 0.215700 0.000000
vn -0.976400 -0.179400 0.119800
vn 0.976400 -0.152500 -0.152500
vn 0.976400 0.215700 0.000000
vn 0.976400 -0.179400 0.119800
vn -0.976400 -0.199300 -0.082500
vn -0.976400 0.211600 -0.042100
vn -0.976400 -0.152500 0.152500
vn 0.976400 -0.179400 -0.119800
vn -0.976400 -0.211600 -0.042100
vn -0.976400 0.199300 -0.082500
vn -0.976400 -0.119800 0.179400
vn 0.976400 -0.199300 -0.082500
vn 0.976400 0.211600 -0.042100
vn 0.976400 0.199300 -0.082500
vn 0.976400 -0.152500 0.152500
vn 0.976400 -0.119800 0.179400
vn -0.976400 0.179400 -0.119800
vn -0.976400 -0.082500 0.199300
vn 0.976400 -0.211600 -0.042100
vn 0.976400 0.179400 -0.119800
vn 0.976400 -0.082500 0.199300
vn -0.976400 0.152500 -0.152500
vn -0.976400 -0.042100 0.211600
vn 0.976400 0.152500 -0.152500
vn 0.976400 -0.042100 0.211600
vn -0.976400 0.119800 -0.179400
vn -0.976400 0.000000 0.215700
vn 0.976400 0.000000 0.215700
vn -0.976400 0.082500 -0.199300
vn -0.976400 0.042100 0.211600
vn 0.976400 0.119800 -0.179400
vn 0.976400 0.082500 -0.199300
vn 0.976400 0.042100 0.211600
vn -0.976400 0.042100 -0.211600
vn -0.976400 0.082500 0.199300
vn 0.976400 0.082500 0.199300
vn -0.976400 0.000000 -0.215700
vn -0.976400 0.119800 0.179400
vn 0.976400 0.042100 -0.211600
vn 0.976400 0.000000 -0.215700
vn 0.976400 0.119800 0.179400
vn -0.976400 0.152500 0.152500
vn -0.970000 0.238200 0.047400
vn -0.970000 0.242900 0.000000
vn -0.729800 0.683600 0.000000
vn -0.970000 -0.171700 -0.171700
vn -0.970000 -0.201900 -0.134900
vn -0.729800 -0.568400 -0.379800
vn 0.970000 -0.242900 0.000000
vn -0.970000 -0.134900 -0.201900
vn -0.970000 0.224400 0.092900
vn -0.970000 -0.224400 0.092900
vn 0.970000 0.224400 0.092900
vn 0.970000 0.238200 0.047400
vn 0.970000 -0.238200 0.047400
vn 0.970000 -0.224400 0.092900
vn -0.970000 -0.201900 0.134900
vn 0.970000 -0.171700 -0.171700
vn 0.970000 -0.201900 -0.134900
vn 0.970000 0.242900 0.000000
vn 0.970000 -0.201900 0.134900
vn -0.970000 -0.224400 -0.092900
vn -0.970000 0.238200 -0.047400
vn -0.970000 -0.171700 0.171700
vn 0.970000 -0.224400 -0.092900
vn -0.970000 -0.238200 -0.047400
vn -0.970000 0.224400 -0.092900
vn -0.970000 -0.134900 0.201900
vn 0.970000 0.238200 -0.047400
vn 0.970000 0.224400 -0.092900
vn 0.970000 -0.171700 0.171700
vn 0.970000 -0.134900 0.201900
vn -0.970000 -0.242900 0.000000
vn -0.970000 0.201900 -0.134900
vn -0.970000 -0.092900 0.224400
vn 0.970000 -0.238200 -0.047400
vn 0.970000 0.201900 -0.134900
vn -0.970000 0.171700 -0.171700
vn -0.970000 -0.047400 0.238200
vn 0.970000 -0.092900 0.224400
vn 0.970000 -0.047400 0.238200
vn -0.970000 0.134900 -0.201900
vn -0.970000 0.000000 0.242900
vn 0.970000 0.171700 -0.171700
vn 0.970000 0.000000 0.242900
vn -0.970000 0.092900 -0.224400
vn -0.970000 0.047400 0.238200
vn 0.970000 0.134900 -0.201900
vn 0.970000 0.092900 -0.224400
vn 0.970000 0.047400 0.238200
vn -0.970000 0.047400 -0.238200
vn -0.970000 0.092900 0.224400
vn 0.970000 0.092900 0.224400
vn -0.970000 0.000000 -0.242900
vn -0.970000 0.134900 0.201900
vn 0.970000 0.047400 -0.238200
vn 0.970000 0.000000 -0.242900
vn 0.970000 0.134900 0.201900
vn -0.970000 -0.047400 -0.238200
vn -0.970000 0.171700 0.171700
vn -0.970000 -0.092900 -0.224400
vn -0.970000 0.201900 0.134900
vn 0.970000 -0.047400 -0.238200
vn 0.970000 0.171700 0.171700
vn -0.970000 -0.238200 0.047400
vn 0.729800 0.683600 0.000000
vn 0.685700 0.727900 0.000000
vn 0.685700 0.713900 -0.142000
vn 0.729800 -0.568400 -0.379800
vn 0.685700 -0.605200 -0.404400
vn 0.685700 -0.672500 -0.278500
vn -0.729800 -0.568400 0.379800
vn -0.729800 -0.631600 0.261600
vn 0.729800 -0.483400 -0.483400
vn 0.729800 0.670500 0.133300
vn 0.729800 -0.631600 0.261600
vn 0.729800 -0.568400 0.379800
vn -0.729800 -0.631600 -0.261600
vn -0.729800 0.670500 -0.133400
vn -0.729800 -0.483400 0.483400
vn 0.729800 -0.483400 0.483400
vn -0.729800 -0.670500 -0.133300
vn -0.729800 0.631600 -0.261600
vn -0.729800 -0.379800 0.568400
vn 0.729800 -0.631600 -0.261600
vn 0.729800 -0.670500 -0.133300
vn 0.729800 0.670500 -0.133300
vn 0.729800 0.631600 -0.261600
vn 0.729800 -0.379800 0.568400
vn -0.729800 -0.683600 0.000000
vn -0.729800 0.568400 -0.379800
vn -0.729800 -0.261600 0.631600
vn 0.729800 0.568400 -0.379800
vn -0.729800 0.483400 -0.483400
vn -0.729800 -0.133300 0.670500
vn 0.729800 -0.261600 0.631600
vn -0.729800 0.379800 -0.568400
vn -0.729800 0.000000 0.683600
vn 0.729800 0.483400 -0.483400
vn 0.729800 0.379800 -0.568400
vn 0.729800 -0.133300 0.670500
vn 0.729800 0.000000 0.683600
vn -0.729800 0.261600 -0.631600
vn -0.729800 0.133300 0.670500
vn 0.729800 0.261600 -0.631600
vn 0.729800 0.133300 0.670500
vn -0.729800 0.133300 -0.670500
vn -0.729800 0.261600 0.631600
vn 0.729800 0.261600 0.631600
vn -0.729800 0.000000 -0.683600
vn -0.729800 0.379800 0.568400
vn 0.729800 0.133300 -0.670500
vn 0.729800 0.000000 -0.683600
vn 0.729800 0.379800 0.568400
vn -0.729800 -0.133400 -0.670500
vn -0.729800 0.483400 0.483400
vn -0.729800 -0.261600 -0.631600
vn -0.729800 0.568400 0.379800
vn 0.729800 -0.133400 -0.670500
vn 0.729800 0.483400 0.483400
vn 0.729800 0.568400 0.379800
vn -0.729800 -0.379800 -0.568400
vn -0.729800 0.631600 0.261600
vn -0.729800 -0.670500 0.133300
vn 0.729800 -0.261600 -0.631600
vn 0.729800 -0.683600 0.000000
vn -0.729800 -0.483400 -0.483400
vn -0.729800 0.670500 0.133300
vn 0.729800 -0.379800 -0.568400
vn 0.729800 0.631600 0.261600
vn 0.729800 -0.670500 0.133300
vn -0.685700 0.672500 -0.278500
vn -0.685700 0.605200 -0.404400
vn -0.685700 -0.713900 -0.142000
vn -0.685700 -0.727900 0.000000
vn 0.685700 -0.605200 0.404400
vn 0.685700 -0.514700 0.514700
vn -0.685700 -0.672500 -0.278500
vn -0.685700 0.713900 -0.142000
vn -0.685700 -0.404400 0.605200
vn 0.685700 -0.713900 -0.142000
vn 0.685700 0.672500 -0.278500
vn 0.685700 -0.404400 0.605200
vn -0.685700 -0.278500 0.672500
vn 0.685700 -0.727900 0.000000
vn 0.685700 0.605200 -0.404400
vn 0.685700 -0.278500 0.672500
vn -0.685700 0.514700 -0.514700
vn -0.685700 -0.142000 0.713900
vn 0.685700 0.514700 -0.514700
vn 0.685700 -0.142000 0.713900
vn -0.685700 0.404400 -0.605200
vn -0.685700 0.000000 0.727900
vn 0.685700 0.404400 -0.605200
vn 0.685700 0.000000 0.727900
vn -0.685700 0.278500 -0.672500
vn -0.685700 0.142000 0.713900
vn 0.685700 0.278500 -0.672500
vn 0.685700 0.142000 0.713900
vn -0.685700 0.142000 -0.713900
vn -0.685700 0.278500 0.672500
vn 0.685700 0.278500 0.672500
vn -0.685700 0.000000 -0.727900
vn -0.685700 0.404400 0.605200
vn 0.685700 0.142000 -0.713900
vn 0.685700 0.000000 -0.727900
vn 0.685700 0.404400 0.605200
vn -0.685700 -0.142000 -0.713900
vn -0.685700 0.514700 0.514700
vn 0.685700 -0.142000 -0.713900
vn 0.685700 0.514700 0.514700
vn -0.685700 -0.278500 -0.672500
vn -0.685700 0.605200 0.404400
vn 0.685700 -0.278500 -0.672500
vn 0.685700 0.605200 0.404400
vn -0.685700 -0.404400 -0.605200
vn -0.685700 0.672500 0.278500
vn -0.685700 -0.713900 0.142000
vn 0.685700 -0.404400 -0.605200
vn 0.685700 0.672500 0.278500
vn 0.685700 -0.713900 0.142000
vn -0.685700 -0.514700 -0.514700
vn -0.685700 0.713900 0.142000
vn -0.685700 -0.672500 0.278500
vn 0.685700 -0.514700 -0.514700
vn 0.685700 0.713900 0.142000
vn 0.685700 -0.672500 0.278500
vn -0.685700 -0.605200 -0.404400
vn -0.685700 0.727900 0.000000
vn -0.685700 -0.605200 0.404400
vn -0.685700 -0.514700 0.514700
vn 0.493500 0.332800 -0.803500
vn 0.493500 0.169700 -0.853000
vn 0.493500 -0.723200 0.483200
vn 0.493500 -0.615000 0.615000
vn -0.729800 -0.133300 -0.670500
vn 0.729800 -0.133300 -0.670500
vn -0.729800 0.133400 0.670500
vn 0.729800 0.133400 0.670500
vn -0.729800 0.670500 -0.133300
vn 0.729800 -0.670500 0.133400
vn -0.493500 0.000000 -0.869700
vn -0.493500 -0.169700 -0.853000
vn -0.991600 0.025200 0.126600
vn -0.493500 -0.332800 0.803500
vn -0.991600 0.049400 -0.119300
vn -0.991600 0.071700 -0.107300
vn -0.493500 -0.483200 0.723200
vn -0.493500 0.169700 -0.853000
vn 0.493500 -0.483200 0.723200
vn 0.493500 0.000000 -0.869700
vn 0.493500 -0.332800 0.803500
vn 0.493500 -0.169700 -0.853000
vn -0.493500 -0.169700 0.853000
vn -0.493500 -0.332800 -0.803500
vn 0.493500 -0.169700 0.853000
vn 0.493500 -0.332800 -0.803500
vn -0.493500 0.000000 0.869700
vn -0.493500 -0.483200 -0.723200
vn 0.493500 -0.483200 -0.723200
vn -0.493500 0.169700 0.853000
vn -0.493500 -0.615000 -0.615000
vn 0.493500 0.000000 0.869700
vn 0.493500 0.169700 0.853000
vn 0.493500 -0.615000 -0.615000
vn -0.493500 0.332800 0.803500
vn -0.493500 -0.723200 -0.483200
vn 0.493500 0.332800 0.803500
vn 0.493500 -0.723200 -0.483200
vn -0.493500 0.483200 0.723200
vn -0.493500 -0.803500 -0.332800
vn -0.493500 0.853000 -0.169700
vn 0.493500 0.483200 0.723200
vn 0.493500 -0.803500 -0.332800
vn 0.493500 0.869700 0.000000
vn 0.493500 0.853000 -0.169700
vn -0.493500 0.615000 0.615000
vn -0.493500 -0.853000 -0.169700
vn -0.493500 0.803500 -0.332800
vn 0.493500 0.615000 0.615000
vn 0.493500 -0.853000 -0.169700
vn 0.493500 0.803500 -0.332800
vn -0.493500 0.723200 0.483200
vn -0.493500 -0.869700 0.000000
vn -0.493500 0.723200 -0.483200
vn 0.493500 0.723200 0.483200
vn 0.493500 -0.869700 0.000000
vn 0.493500 0.723200 -0.483200
vn -0.493500 0.803500 0.332800
vn -0.493500 -0.853000 0.169700
vn -0.493500 0.615000 -0.615000
vn 0.493500 0.803500 0.332800
vn 0.493500 -0.853000 0.169700
vn 0.493500 0.615000 -0.615000
vn -0.493500 0.853000 0.169700
vn -0.493500 -0.803500 0.332800
vn -0.493500 0.483200 -0.723200
vn 0.493500 0.853000 0.169700
vn 0.493500 -0.803500 0.332800
vn 0.493500 0.483200 -0.723200
vn -0.493500 0.869700 0.000000
vn -0.493500 -0.723200 0.483200
vn -0.493500 0.332800 -0.803500
vn -0.493500 -0.615000 0.615000
vn 0.991600 0.025200 0.126600
vn 0.902500 0.084000 0.422400
vn 0.902500 0.164800 0.397900
vn 0.991600 0.025200 -0.126600
vn 0.991600 0.049400 -0.119300
vn 0.902500 0.164800 -0.397900
vn 0.991600 0.071700 -0.107300
vn 0.991600 0.000000 0.129100
vn -0.991600 0.025200 -0.126600
vn -0.991600 0.049400 0.119300
vn 0.991600 0.049400 0.119300
vn -0.991600 0.000000 -0.129100
vn -0.991600 0.071700 0.107300
vn 0.991600 0.000000 -0.129100
vn 0.991600 0.071700 0.107300
vn -0.991600 -0.025200 -0.126600
vn -0.991600 0.091300 0.091300
vn 0.991600 0.091300 0.091300
vn -0.991600 -0.049400 -0.119300
vn -0.991600 0.107300 0.071700
vn 0.991600 -0.025200 -0.126600
vn 0.991600 -0.049400 -0.119300
vn 0.991600 0.107300 0.071700
vn -0.991600 -0.071700 -0.107300
vn -0.991600 0.119300 0.049400
vn -0.991600 -0.126600 0.025200
vn -0.991600 -0.129100 0.000000
vn 0.991600 -0.071700 -0.107300
vn 0.991600 0.119300 0.049400
vn 0.991600 -0.129100 0.000000
vn -0.991600 -0.091300 -0.091300
vn -0.991600 0.126600 0.025200
vn -0.991600 -0.119300 0.049400
vn 0.991600 -0.091300 -0.091300
vn 0.991600 0.126600 0.025200
vn 0.991600 -0.126600 0.025200
vn 0.991600 -0.119300 0.049400
vn -0.991600 -0.107300 -0.071700
vn -0.991600 0.129100 0.000000
vn -0.991600 -0.107300 0.071700
vn 0.991600 0.129100 0.000000
vn 0.991600 -0.107300 0.071700
vn -0.991600 -0.119300 -0.049400
vn -0.991600 0.126600 -0.025200
vn -0.991600 -0.091300 0.091300
vn 0.991600 -0.107300 -0.071700
vn -0.991600 -0.126600 -0.025200
vn -0.991600 0.119300 -0.049400
vn -0.991600 -0.071700 0.107300
vn 0.991600 -0.119300 -0.049400
vn 0.991600 -0.126600 -0.025200
vn 0.991600 0.126600 -0.025200
vn 0.991600 -0.091300 0.091300
vn 0.991600 -0.071700 0.107300
vn -0.991600 0.107300 -0.071700
vn -0.991600 -0.049400 0.119300
vn 0.991600 0.119300 -0.049400
vn 0.991600 0.107300 -0.071700
vn 0.991600 -0.049400 0.119300
vn -0.991600 0.091300 -0.091300
vn -0.991600 -0.025200 0.126600
vn -0.991600 0.000000 0.129100
vn 0.991600 0.091300 -0.091300
vn 0.991600 -0.025200 0.126600
vn 0.902500 0.397900 -0.164800
vn 0.902500 -0.397900 0.164800
vn -0.902500 0.422400 0.084000
vn -0.902500 -0.239300 -0.358100
vn -0.902500 -0.422400 -0.084000
vn -0.902500 0.000000 -0.430600
vn -0.902500 0.084000 -0.422400
vn -0.902500 0.239300 0.358100
vn 0.902500 0.084000 -0.422400
vn 0.902500 0.000000 -0.430600
vn 0.902500 0.239300 0.358100
vn -0.902500 -0.084000 -0.422400
vn -0.902500 0.304500 0.304500
vn 0.902500 0.304500 0.304500
vn -0.902500 -0.164800 -0.397900
vn -0.902500 0.358100 0.239300
vn 0.902500 -0.084000 -0.422400
vn 0.902500 -0.164800 -0.397900
vn 0.902500 0.358100 0.239300
vn -0.902500 0.397900 0.164800
vn -0.902500 -0.422400 0.084000
vn -0.902500 -0.430600 0.000000
vn 0.902500 -0.239300 -0.358100
vn 0.902500 0.397900 0.164800
vn 0.902500 -0.430600 0.000000
vn -0.902500 -0.304500 -0.304500
vn -0.902500 -0.397900 0.164800
vn 0.902500 -0.304500 -0.304500
vn 0.902500 0.422400 0.084000
vn 0.902500 -0.422400 0.084000
vn -0.902500 -0.358100 -0.239300
vn -0.902500 0.430600 0.000000
vn -0.902500 -0.358100 0.239300
vn 0.902500 0.430600 0.000000
vn 0.902500 -0.358100 0.239300
vn -0.902500 -0.397900 -0.164800
vn -0.902500 0.422400 -0.084000
vn -0.902500 -0.304500 0.304500
vn 0.902500 -0.358100 -0.239300
vn 0.902500 -0.397900 -0.164800
vn 0.902500 -0.304500 0.304500
vn -0.902500 0.397900 -0.164800
vn -0.902500 -0.239300 0.358100
vn 0.902500 0.422400 -0.084000
vn 0.902500 -0.239300 0.358100
vn -0.902500 0.358100 -0.239300
vn -0.902500 -0.164800 0.397900
vn 0.902500 -0.422400 -0.084000
vn 0.902500 0.358100 -0.239300
vn 0.902500 -0.164800 0.397900
vn -0.902500 0.304500 -0.304500
vn -0.902500 -0.084000 0.422400
vn 0.902500 0.304500 -0.304500
vn 0.902500 -0.084000 0.422400
vn -0.902500 0.239300 -0.358100
vn -0.902500 0.000000 0.430600
vn -0.902500 0.164800 -0.397900
vn -0.902500 0.084000 0.422400
vn 0.902500 0.239300 -0.358100
vn 0.902500 0.000000 0.430600
vn -0.902500 0.164800 0.397900
usemtl bluelives
s 1
f 1/1/1 2/2/2 4/3/3
f 4/4/3 6/5/4 5/6/5
f 5/6/5 6/5/4 8/7/6
f 8/7/6 10/8/7 9/9/8
f 9/9/8 10/8/7 12/10/9
f 12/10/9 14/11/10 13/12/11
f 14/11/10 16/13/12 15/14/13
f 16/13/12 18/2/14 17/1/15
f 18/2/14 20/3/16 19/15/17
f 20/4/16 22/5/18 21/6/19
f 21/6/19 22/5/18 24/16/20
f 24/16/20 26/8/21 25/9/22
f 26/8/21 28/10/23 27/17/24
f 28/10/23 30/11/25 29/12/26
f 29/12/26 30/11/25 32/13/27
f 32/13/27 34/2/28 33/1/29
f 34/2/28 36/3/30 35/15/31
f 36/4/30 38/5/32 37/6/33
f 38/5/32 40/7/34 39/18/35
f 39/18/35 40/7/34 42/8/36
f 42/8/36 44/10/37 43/17/38
f 44/10/37 46/11/39 45/12/40
f 46/11/39 48/13/41 47/14/42
f 48/13/41 50/2/43 49/1/44
f 49/1/44 50/2/43 52/3/45
f 51/19/46 52/4/45 54/5/47
f 53/6/48 54/5/47 56/16/49
f 56/16/49 58/8/50 57/9/51
f 58/8/50 60/10/52 59/17/53
f 60/10/52 62/11/54 61/12/55
f 28/20/23 92/21/56 94/22/57
f 64/13/58 2/2/2 1/1/1
f 62/11/54 64/13/58 63/14/59
f 47/23/42 111/24/60 109/25/61
f 89/26/62 91/27/63 155/28/64
f 117/29/65 181/30/66 179/31/67
f 63/32/59 1/33/1 65/34/68
f 46/35/39 110/36/69 112/37/70
f 13/38/11 77/39/71 75/40/72
f 64/41/58 128/42/73 68/43/74
f 31/44/75 95/45/76 93/46/77
f 12/47/9 76/48/78 78/24/79
f 49/49/44 113/48/80 111/24/60
f 30/50/25 94/22/57 96/51/81
f 50/52/43 48/53/41 112/37/70
f 13/38/11 15/54/13 79/55/82
f 31/44/75 33/56/29 97/57/83
f 14/58/10 78/24/79 80/25/84
f 51/59/46 115/60/85 113/48/80
f 32/61/27 96/51/81 98/62/86
f 52/63/45 50/52/43 114/64/87
f 15/54/13 17/65/15 81/66/88
f 35/67/31 99/68/89 97/57/83
f 16/69/12 80/25/84 82/70/90
f 53/71/48 117/29/65 115/60/85
f 36/72/30 34/73/28 98/62/86
f 52/63/45 116/74/91 118/75/92
f 17/65/15 19/76/17 83/77/93
f 37/78/33 101/79/94 99/68/89
f 18/80/14 82/70/90 84/81/95
f 3/82/96 66/83/97 65/34/68
f 55/84/98 119/85/99 117/29/65
f 36/72/30 100/86/100 102/87/101
f 4/88/3 2/89/2 68/43/74
f 54/90/47 118/75/92 120/91/102
f 21/92/19 85/93/103 83/77/93
f 39/94/35 103/95/104 101/79/94
f 20/96/16 84/81/95 86/97/105
f 57/98/51 121/99/106 119/85/99
f 38/100/32 102/87/101 104/101/107
f 5/102/5 69/103/108 66/83/97
f 58/104/50 56/105/49 120/91/102
f 21/92/19 23/106/109 87/107/110
f 4/88/3 67/108/111 70/109/112
f 41/110/113 105/111/114 103/95/104
f 22/112/18 86/97/105 88/113/115
f 59/114/53 123/115/116 121/99/106
f 40/116/34 104/101/107 106/117/117
f 7/118/118 71/119/119 69/103/108
f 60/120/52 58/104/50 122/121/120
f 25/122/22 89/26/62 87/107/110
f 6/123/4 70/109/112 72/124/121
f 43/125/38 107/126/122 105/111/114
f 24/127/20 88/113/115 90/128/123
f 61/129/55 125/130/124 123/115/116
f 44/131/37 42/132/36 106/117/117
f 7/118/118 9/133/8 73/134/125
f 62/135/54 60/120/52 124/136/126
f 27/137/24 91/27/63 89/26/62
f 10/138/7 8/139/6 72/124/121
f 45/140/40 109/25/61 107/126/122
f 26/141/21 90/128/123 92/21/56
f 63/32/59 127/142/127 125/130/124
f 46/35/39 44/131/37 108/143/128
f 9/133/8 11/144/129 75/40/72
f 64/41/58 62/135/54 126/145/130
f 27/137/24 29/146/26 93/46/77
f 10/138/7 74/147/131 76/48/78
f 158/148/132 156/149/133 220/150/134
f 182/151/135 246/152/136 248/153/137
f 118/75/92 116/74/91 180/154/138
f 90/128/123 154/155/139 156/149/133
f 119/85/99 183/156/140 181/30/66
f 93/46/77 157/157/141 155/28/64
f 66/83/97 130/158/142 129/159/143
f 120/91/102 118/75/92 182/151/135
f 94/22/57 92/21/56 156/149/133
f 67/108/111 68/43/74 132/160/144
f 121/99/106 185/161/145 183/156/140
f 95/45/76 159/162/146 157/157/141
f 66/83/97 69/103/108 133/163/147
f 122/121/120 120/91/102 184/164/148
f 94/22/57 158/148/132 160/165/149
f 67/108/111 131/166/150 134/167/151
f 121/99/106 123/115/116 187/168/152
f 95/45/76 97/57/83 161/169/153
f 71/119/119 135/170/154 133/163/147
f 124/136/126 122/121/120 186/171/155
f 96/51/81 160/165/149 162/172/156
f 70/109/112 134/167/151 136/173/157
f 125/130/124 189/174/158 187/168/152
f 99/68/89 163/175/159 161/169/153
f 73/134/125 137/176/160 135/170/154
f 126/145/130 124/136/126 188/177/161
f 100/86/100 98/62/86 162/172/156
f 74/147/131 72/124/121 136/173/157
f 127/142/127 191/178/162 189/174/158
f 99/68/89 101/79/94 165/179/163
f 73/134/125 75/40/72 139/180/164
f 128/42/73 126/145/130 190/181/165
f 100/86/100 164/182/166 166/183/167
f 74/147/131 138/184/168 140/185/169
f 65/34/68 129/159/143 191/178/162
f 103/95/104 167/186/170 165/179/163
f 77/39/71 141/187/171 139/180/164
f 128/42/73 192/188/172 132/160/144
f 102/87/101 166/183/167 168/189/173
f 76/48/78 140/185/169 142/190/174
f 105/111/114 169/191/175 167/186/170
f 77/39/71 79/55/82 143/192/176
f 104/101/107 168/189/173 170/193/177
f 78/24/79 142/190/174 144/194/178
f 107/126/122 171/195/179 169/191/175
f 79/55/82 81/66/88 145/196/180
f 108/143/128 106/117/117 170/193/177
f 80/25/84 144/194/178 146/197/181
f 109/25/61 173/194/182 171/195/179
f 81/66/88 83/77/93 147/198/183
f 108/143/128 172/199/184 174/200/185
f 82/70/90 146/197/181 148/191/186
f 111/24/60 175/201/187 173/194/182
f 85/93/103 149/202/188 147/198/183
f 112/37/70 110/36/69 174/200/185
f 84/81/95 148/191/186 150/203/189
f 113/48/80 177/204/190 175/201/187
f 85/93/103 87/107/110 151/205/191
f 112/37/70 176/206/192 178/207/193
f 86/97/105 150/203/189 152/208/194
f 113/48/80 115/60/85 179/31/67
f 87/107/110 89/26/62 153/209/195
f 116/74/91 114/64/87 178/207/193
f 88/113/115 152/208/194 154/155/139
f 223/210/196 225/211/197 289/212/198
f 249/213/199 251/214/200 315/215/201
f 131/166/150 132/160/144 196/216/202
f 185/161/145 249/213/199 247/217/203
f 159/162/146 223/210/196 221/218/204
f 130/158/142 133/163/147 197/219/205
f 186/171/155 184/164/148 248/153/137
f 158/148/132 222/220/206 224/221/207
f 131/166/150 195/213/208 198/222/209
f 185/161/145 187/168/152 251/214/200
f 159/162/146 161/169/153 225/211/197
f 135/170/154 199/223/210 197/219/205
f 186/171/155 250/224/211 252/225/212
f 160/165/149 224/221/207 226/226/213
f 134/167/151 198/222/209 200/227/214
f 189/174/158 253/228/215 251/214/200
f 163/175/159 227/229/216 225/211/197
f 135/170/154 137/176/160 201/230/217
f 188/177/161 252/225/212 254/231/218
f 164/182/166 162/172/156 226/226/213
f 138/184/168 136/173/157 200/227/214
f 191/178/162 255/232/219 253/228/215
f 163/175/159 165/179/163 229/233/220
f 137/176/160 139/180/164 203/234/221
f 192/188/172 190/181/165 254/231/218
f 164/182/166 228/235/222 230/236/223
f 138/184/168 202/237/224 204/238/225
f 191/178/162 129/159/143 193/239/226
f 165/179/163 167/186/170 231/240/227
f 141/187/171 205/241/228 203/234/221
f 132/160/144 192/188/172 256/242/229
f 166/183/167 230/236/223 232/243/230
f 142/190/174 140/185/169 204/238/225
f 169/191/175 233/244/231 231/240/227
f 141/187/171 143/192/176 207/245/232
f 170/193/177 168/189/173 232/243/230
f 142/190/174 206/246/233 208/247/234
f 171/195/179 235/248/235 233/244/231
f 145/196/180 209/249/236 207/245/232
f 172/199/184 170/193/177 234/250/237
f 144/194/178 208/247/234 210/248/238
f 173/194/182 237/251/239 235/248/235
f 145/196/180 147/198/183 211/252/240
f 172/199/184 236/253/241 238/254/242
f 146/197/181 210/248/238 212/244/243
f 175/201/187 239/255/244 237/251/239
f 149/202/188 213/256/245 211/252/240
f 176/206/192 174/200/185 238/254/242
f 148/191/186 212/244/243 214/257/246
f 175/201/187 177/204/190 241/238/247
f 149/202/188 151/205/191 215/258/248
f 176/206/192 240/259/249 242/260/250
f 150/203/189 214/257/246 216/261/251
f 177/204/190 179/31/67 243/237/252
f 153/209/195 217/262/253 215/258/248
f 180/154/138 178/207/193 242/260/250
f 154/155/139 152/208/194 216/261/251
f 181/30/66 245/227/254 243/237/252
f 153/209/195 155/28/64 219/263/255
f 182/151/135 180/154/138 244/264/256
f 154/155/139 218/265/257 220/150/134
f 183/156/140 247/217/203 245/227/254
f 157/157/141 221/218/204 219/263/255
f 130/158/142 194/266/258 193/239/226
f 290/267/259 354/268/260 356/269/261
f 316/270/262 380/271/263 382/272/264
f 199/223/210 263/273/265 261/274/266
f 252/225/212 250/224/211 314/275/267
f 224/221/207 288/276/268 290/267/259
f 198/222/209 262/277/269 264/278/270
f 253/228/215 317/279/271 315/215/201
f 227/229/216 291/280/272 289/212/198
f 199/223/210 201/230/217 265/281/273
f 254/231/218 252/225/212 316/270/262
f 228/235/222 226/226/213 290/267/259
f 200/227/214 264/278/270 266/282/274
f 253/228/215 255/232/219 319/283/275
f 227/229/216 229/233/220 293/284/276
f 201/230/217 203/234/221 267/285/277
f 254/231/218 318/286/278 320/287/279
f 228/235/222 292/288/280 294/289/281
f 202/237/224 266/282/274 268/290/282
f 255/232/219 193/239/226 257/291/283
f 231/240/227 295/292/284 293/284/276
f 205/241/228 269/293/285 267/285/277
f 196/216/202 256/242/229 320/287/279
f 230/236/223 294/289/281 296/294/286
f 206/246/233 204/238/225 268/290/282
f 231/240/227 233/244/231 297/295/287
f 205/241/228 207/245/232 271/296/288
f 234/250/237 232/243/230 296/294/286
f 208/247/234 206/246/233 270/297/289
f 235/248/235 299/298/290 297/295/287
f 207/245/232 209/249/236 273/299/291
f 234/250/237 298/300/292 300/301/293
f 208/247/234 272/302/294 274/298/295
f 235/248/235 237/251/239 301/303/296
f 209/249/236 211/252/240 275/304/297
f 236/253/241 300/301/293 302/305/298
f 210/248/238 274/298/295 276/306/299
f 239/255/244 303/307/300 301/303/296
f 213/256/245 277/308/301 275/304/297
f 240/259/249 238/254/242 302/305/298
f 212/244/243 276/306/299 278/309/302
f 239/255/244 241/238/247 305/310/303
f 213/256/245 215/258/248 279/311/304
f 240/259/249 304/312/305 306/313/306
f 214/257/246 278/309/302 280/314/307
f 243/237/252 307/315/308 305/310/303
f 215/258/248 217/262/253 281/316/309
f 244/264/256 242/260/250 306/313/306
f 218/265/257 216/261/251 280/314/307
f 245/227/254 309/317/310 307/315/308
f 217/262/253 219/263/255 283/318/311
f 246/152/136 244/264/256 308/319/312
f 218/265/257 282/320/313 284/321/314
f 247/217/203 311/322/315 309/317/310
f 221/218/204 285/323/316 283/318/311
f 194/266/258 258/324/317 257/291/283
f 248/153/137 246/152/136 310/325/318
f 222/220/206 220/150/134 284/321/314
f 195/213/208 196/216/202 260/326/319
f 249/213/199 313/327/320 311/322/315
f 223/210/196 287/328/321 285/323/316
f 194/266/258 197/219/205 261/274/266
f 250/224/211 248/153/137 312/329/322
f 222/220/206 286/330/323 288/276/268
f 195/213/208 259/331/324 262/277/269
f 357/332/325 359/333/326 423/334/265
f 383/335/327 321/336/328 385/337/198
f 264/278/270 328/338/329 330/339/330
f 319/283/275 383/335/327 381/340/331
f 293/284/276 357/332/325 355/341/332
f 265/281/273 267/285/277 331/342/333
f 318/286/278 382/272/264 384/343/334
f 292/288/280 356/269/261 358/344/335
f 266/282/274 330/339/330 332/345/336
f 257/291/283 321/336/328 383/335/327
f 295/292/284 359/333/326 357/332/325
f 269/293/285 333/346/337 331/342/333
f 320/287/279 384/343/334 324/347/338
f 294/289/281 358/344/335 360/348/339
f 268/290/282 332/345/336 334/349/340
f 297/295/287 361/350/341 359/333/326
f 271/296/288 335/351/342 333/346/337
f 296/294/286 360/348/339 362/352/343
f 270/297/289 334/349/340 336/353/344
f 299/298/290 363/354/345 361/350/341
f 273/299/291 337/355/346 335/351/342
f 298/300/292 362/352/343 364/356/347
f 272/302/294 336/353/344 338/357/348
f 301/303/296 365/358/349 363/354/345
f 275/304/297 339/359/350 337/355/346
f 300/301/293 364/356/347 366/360/351
f 274/298/295 338/357/348 340/350/352
f 303/307/300 367/349/353 365/358/349
f 277/308/301 341/361/354 339/359/350
f 304/312/305 302/305/298 366/360/351
f 276/306/299 340/350/352 342/362/355
f 305/310/303 369/363/356 367/349/353
f 277/308/301 279/311/304 343/364/357
f 304/312/305 368/365/358 370/366/359
f 278/309/302 342/362/355 344/367/360
f 307/315/308 371/368/361 369/363/356
f 281/316/309 345/269/362 343/364/357
f 306/313/306 370/366/359 372/369/363
f 280/314/307 344/367/360 346/370/364
f 309/317/310 373/371/365 371/368/361
f 281/316/309 283/318/311 347/372/366
f 308/319/312 372/369/363 374/373/367
f 282/320/313 346/370/364 348/374/368
f 311/322/315 375/375/369 373/371/365
f 285/323/316 349/376/370 347/372/366
f 258/324/317 322/377/371 321/336/328
f 310/325/318 374/373/367 376/378/372
f 284/321/314 348/374/368 350/379/373
f 260/326/319 324/347/338 323/380/374
f 311/322/315 313/327/320 377/380/375
f 287/328/321 351/379/376 349/376/370
f 258/324/317 261/274/266 325/381/377
f 312/329/322 376/378/372 378/382/378
f 286/330/323 350/379/373 352/383/379
f 259/331/324 323/380/374 326/384/380
f 315/215/201 379/385/381 377/380/375
f 287/328/321 289/212/198 353/386/382
f 263/273/265 327/387/383 325/381/377
f 314/275/267 378/382/378 380/271/263
f 288/276/268 352/383/379 354/268/260
f 262/277/269 326/384/380 328/338/329
f 317/279/271 381/340/331 379/385/381
f 291/280/272 355/341/332 353/386/382
f 265/281/273 329/388/384 327/387/383
f 398/389/298 462/390/385 464/391/386
f 424/392/270 488/393/387 490/394/388
f 333/346/337 397/395/296 395/396/290
f 384/343/334 448/397/268 388/398/259
f 358/344/335 422/399/269 424/392/270
f 332/345/336 396/400/293 398/389/298
f 361/350/341 425/401/273 423/334/265
f 333/346/337 335/351/342 399/402/300
f 360/348/339 424/392/270 426/403/274
f 334/349/340 398/389/298 400/404/305
f 363/354/345 427/405/277 425/401/273
f 337/355/346 401/406/303 399/402/300
f 364/356/347 362/352/343 426/403/274
f 336/353/344 400/404/305 402/407/306
f 365/358/349 429/404/285 427/405/277
f 337/355/346 339/359/350 403/408/389
f 366/360/351 364/356/347 428/409/282
f 338/357/348 402/407/306 404/401/390
f 367/349/353 431/389/288 429/404/285
f 341/361/354 405/392/310 403/408/389
f 368/365/358 366/360/351 430/410/289
f 340/350/352 404/401/390 406/411/318
f 369/363/356 433/412/291 431/389/288
f 343/364/357 407/399/315 405/392/310
f 368/365/358 432/413/294 434/414/295
f 342/362/355 406/411/318 408/415/322
f 371/368/361 435/416/391 433/412/291
f 345/269/362 409/417/320 407/399/315
f 372/369/363 370/366/359 434/414/295
f 344/367/360 408/415/322 410/418/267
f 373/371/365 437/419/301 435/416/391
f 347/372/366 411/420/201 409/417/320
f 374/373/367 372/369/363 436/421/392
f 346/370/364 410/418/267 412/422/262
f 375/375/369 439/423/304 437/419/301
f 349/376/370 413/424/271 411/420/201
f 322/377/371 386/425/393 385/337/198
f 376/378/372 374/373/367 438/426/302
f 350/379/373 348/374/368 412/422/262
f 323/380/374 324/347/338 388/398/259
f 375/375/369 377/380/375 441/427/309
f 349/376/370 351/379/376 415/428/275
f 322/377/371 325/381/377 389/429/276
f 376/378/372 440/429/307 442/430/313
f 350/379/373 414/428/278 416/431/279
f 323/380/374 387/427/280 390/432/281
f 377/380/375 379/385/381 443/398/311
f 353/386/382 417/433/283 415/428/275
f 327/387/383 391/434/284 389/429/276
f 378/382/378 442/430/313 444/337/314
f 352/383/379 416/431/279 418/420/319
f 326/384/380 390/432/281 392/435/286
f 381/340/331 445/436/316 443/398/311
f 355/341/332 419/418/317 417/433/283
f 329/388/384 393/437/287 391/434/284
f 380/271/263 444/337/314 446/438/323
f 356/269/261 354/268/260 418/420/319
f 328/338/329 392/435/286 394/439/292
f 383/335/327 447/438/321 445/436/316
f 355/341/332 357/332/325 421/440/266
f 329/388/384 331/342/333 395/396/290
f 382/272/264 446/438/323 448/397/268
f 356/269/261 420/441/394 422/399/269
f 330/339/330 394/439/292 396/400/293
f 465/442/395 467/443/396 531/444/397
f 493/391/398 557/445/399 555/446/400
f 425/401/273 427/405/277 491/447/401
f 401/406/303 465/442/395 463/448/402
f 426/403/274 490/394/388 492/449/403
f 400/404/305 464/391/386 466/450/404
f 429/404/285 493/391/398 491/447/401
f 401/406/303 403/408/389 467/443/396
f 428/409/282 492/449/403 494/451/405
f 402/407/306 466/450/404 468/452/406
f 431/389/288 495/390/407 493/391/398
f 405/392/310 469/453/408 467/443/396
f 430/410/289 494/451/405 496/454/409
f 404/401/390 468/452/406 470/455/410
f 433/412/291 497/456/411 495/390/407
f 407/399/315 471/457/412 469/453/408
f 434/414/295 432/413/294 496/454/409
f 406/411/318 470/455/410 472/458/413
f 435/416/391 499/459/414 497/456/411
f 407/399/315 409/417/320 473/460/415
f 434/414/295 498/461/416 500/462/417
f 408/415/322 472/458/413 474/463/418
f 437/419/301 501/464/419 499/459/414
f 411/420/201 475/465/420 473/460/415
f 436/421/392 500/462/417 502/466/421
f 410/418/267 474/463/418 476/467/422
f 439/423/304 503/468/423 501/464/419
f 411/420/201 413/424/271 477/469/424
f 385/337/198 386/425/393 450/470/425
f 438/426/302 502/466/421 504/471/426
f 412/422/262 476/467/422 478/472/427
f 388/398/259 452/473/428 451/474/429
f 441/427/309 505/474/430 503/468/423
f 415/428/275 479/475/431 477/469/424
f 389/429/276 453/476/432 450/470/425
f 440/429/307 504/471/426 506/470/433
f 414/428/278 478/472/427 480/477/434
f 387/427/280 451/474/429 454/468/435
f 443/398/311 507/478/436 505/474/430
f 417/433/283 481/479/437 479/475/431
f 389/429/276 391/434/284 455/480/438
f 442/430/313 506/470/433 508/481/439
f 416/431/279 480/477/434 482/482/440
f 390/432/281 454/468/435 456/483/441
f 445/436/316 509/484/442 507/478/436
f 419/418/317 483/485/443 481/479/437
f 393/437/287 457/486/444 455/480/438
f 444/337/314 508/481/439 510/487/445
f 418/420/319 482/482/440 484/488/446
f 392/435/286 456/483/441 458/489/447
f 447/438/321 511/487/448 509/484/442
f 421/440/266 485/458/449 483/485/443
f 395/396/290 459/490/450 457/486/444
f 446/438/323 510/487/445 512/484/451
f 420/441/394 484/488/446 486/457/452
f 394/439/292 458/489/447 460/456/453
f 385/337/198 449/491/454 511/487/448
f 423/334/265 487/492/455 485/458/449
f 397/395/296 461/493/456 459/490/450
f 448/397/268 512/484/451 452/473/428
f 422/399/269 486/457/452 488/393/387
f 396/400/293 460/456/453 462/390/385
f 425/401/273 489/494/457 487/492/455
f 399/402/300 463/448/402 461/493/456
f 532/495/458 596/496/459 598/497/460
f 560/498/461 558/499/462 622/500/463
f 492/449/403 556/501/464 558/499/462
f 466/450/404 530/502/465 532/495/458
f 495/390/407 559/503/466 557/445/399
f 469/453/408 533/504/467 531/444/397
f 494/451/405 558/499/462 560/498/461
f 468/452/406 532/495/458 534/505/468
f 497/456/411 561/506/469 559/503/466
f 469/453/408 471/457/412 535/507/470
f 496/454/409 560/498/461 562/508/471
f 470/455/410 534/505/468 536/509/472
f 499/459/414 563/510/473 561/506/469
f 471/457/412 473/460/415 537/511/474
f 500/462/417 498/461/416 562/508/471
f 472/458/413 536/509/472 538/512/475
f 501/464/419 565/513/476 563/510/473
f 475/465/420 539/514/477 537/511/474
f 500/462/417 564/515/478 566/516/479
f 474/463/418 538/512/475 540/517/480
f 503/468/423 567/518/481 565/513/476
f 477/469/424 541/519/482 539/514/477
f 450/470/425 514/520/483 513/521/484
f 502/466/421 566/516/479 568/522/485
f 476/467/422 540/517/480 542/523/486
f 451/474/429 452/473/428 516/524/487
f 503/468/423 505/474/430 569/525/488
f 477/469/424 479/475/431 543/526/489
f 450/470/425 453/476/432 517/527/490
f 504/471/426 568/522/485 570/528/491
f 478/472/427 542/523/486 544/529/492
f 451/474/429 515/525/493 518/530/494
f 505/474/430 507/478/436 571/531/495
f 481/479/437 545/532/496 543/526/489
f 453/476/432 455/480/438 519/533/497
f 508/481/439 506/470/433 570/528/491
f 480/477/434 544/529/492 546/534/498
f 454/468/435 518/530/494 520/535/499
f 509/484/442 573/536/500 571/531/495
f 483/485/443 547/537/501 545/532/496
f 457/486/444 521/538/502 519/533/497
f 510/487/445 508/481/439 572/539/503
f 484/488/446 482/482/440 546/534/498
f 458/489/447 456/483/441 520/535/499
f 511/487/448 575/540/504 573/536/500
f 485/458/449 549/509/505 547/537/501
f 457/486/444 459/490/450 523/541/506
f 510/487/445 574/540/507 576/536/508
f 486/457/452 484/488/446 548/542/509
f 458/489/447 522/510/510 524/543/511
f 449/491/454 513/521/484 575/540/504
f 485/458/449 487/492/455 551/544/512
f 461/493/456 525/545/513 523/541/506
f 512/484/451 576/536/508 516/524/487
f 486/457/452 550/546/514 552/547/515
f 460/456/453 524/543/511 526/548/516
f 489/494/457 553/549/517 551/544/512
f 461/493/456 463/448/402 527/550/518
f 490/394/388 488/393/387 552/547/515
f 464/391/386 462/390/385 526/548/516
f 491/447/401 555/446/400 553/549/517
f 463/448/402 465/442/395 529/551/519
f 492/449/403 490/394/388 554/552/520
f 464/391/386 528/445/521 530/502/465
f 614/553/522 598/497/460 582/554/523
f 607/555/524 631/556/525 639/557/526
f 561/506/469 625/558/527 623/559/528
f 533/504/467 535/507/470 599/560/529
f 560/498/461 624/561/530 626/562/531
f 534/505/468 598/497/460 600/563/532
f 563/510/473 627/564/533 625/558/527
f 537/511/474 601/565/534 599/560/529
f 564/515/478 562/508/471 626/562/531
f 536/509/472 600/563/532 602/566/535
f 565/513/476 629/567/536 627/564/533
f 537/511/474 539/514/477 603/568/537
f 564/515/478 628/569/538 630/570/539
f 538/512/475 602/566/535 604/571/540
f 567/518/481 631/556/525 629/567/536
f 541/519/482 605/572/541 603/568/537
f 514/520/483 578/573/542 577/574/543
f 566/516/479 630/570/539 632/575/544
f 540/517/480 604/571/540 606/576/545
f 515/525/493 516/524/487 580/577/546
f 567/518/481 569/525/488 633/578/547
f 541/519/482 543/526/489 607/555/524
f 514/520/483 517/527/490 581/579/548
f 568/522/485 632/575/544 634/573/549
f 542/523/486 606/576/545 608/580/550
f 515/525/493 579/581/551 582/554/523
f 569/525/488 571/531/495 635/582/552
f 543/526/489 545/532/496 609/583/553
f 519/533/497 583/584/554 581/579/548
f 572/539/503 570/528/491 634/573/549
f 544/529/492 608/580/550 610/585/555
f 518/530/494 582/554/523 584/586/556
f 573/536/500 637/587/557 635/582/552
f 547/537/501 611/588/558 609/583/553
f 521/538/502 585/589/559 583/584/554
f 572/539/503 636/590/560 638/557/561
f 548/542/509 546/534/498 610/585/555
f 520/535/499 584/586/556 586/591/562
f 573/536/500 575/540/504 639/557/526
f 547/537/501 549/509/505 613/592/563
f 521/538/502 523/541/506 587/593/564
f 576/536/508 574/540/507 638/557/561
f 548/542/509 612/594/565 614/553/522
f 522/510/510 586/591/562 588/595/566
f 513/521/484 577/574/543 639/557/526
f 549/509/505 551/544/512 615/596/567
f 525/545/513 589/597/568 587/593/564
f 576/536/508 640/587/569 580/577/546
f 550/546/514 614/553/522 616/598/570
f 524/543/511 588/595/566 590/599/571
f 551/544/512 553/549/517 617/600/572
f 525/545/513 527/550/518 591/601/573
f 552/547/515 616/598/570 618/602/574
f 526/548/516 590/599/571 592/603/575
f 555/446/400 619/604/576 617/600/572
f 527/550/518 529/551/519 593/605/577
f 556/501/464 554/552/520 618/602/574
f 530/502/465 528/445/521 592/603/575
f 557/445/399 621/606/578 619/604/576
f 531/444/397 595/607/579 593/605/577
f 556/501/464 620/608/580 622/500/463
f 530/502/465 594/609/581 596/496/459
f 559/503/466 623/559/528 621/606/578
f 533/504/467 597/610/582 595/607/579
f 3/15/96 1/1/1 4/3/3
f 3/19/96 4/4/3 5/6/5
f 7/18/118 5/6/5 8/7/6
f 7/18/118 8/7/6 9/9/8
f 11/17/129 9/9/8 12/10/9
f 11/17/129 12/10/9 13/12/11
f 13/12/11 14/11/10 15/14/13
f 15/14/13 16/13/12 17/1/15
f 17/1/15 18/2/14 19/15/17
f 19/19/17 20/4/16 21/6/19
f 23/611/109 21/6/19 24/16/20
f 23/611/109 24/16/20 25/9/22
f 25/9/22 26/8/21 27/17/24
f 27/17/24 28/10/23 29/12/26
f 31/14/75 29/12/26 32/13/27
f 31/14/75 32/13/27 33/1/29
f 33/1/29 34/2/28 35/15/31
f 35/19/31 36/4/30 37/6/33
f 37/6/33 38/5/32 39/18/35
f 41/9/113 39/18/35 42/8/36
f 41/9/113 42/8/36 43/17/38
f 43/17/38 44/10/37 45/12/40
f 45/12/40 46/11/39 47/14/42
f 47/14/42 48/13/41 49/1/44
f 51/15/46 49/1/44 52/3/45
f 53/6/48 51/19/46 54/5/47
f 55/611/98 53/6/48 56/16/49
f 55/611/98 56/16/49 57/9/51
f 57/9/51 58/8/50 59/17/53
f 59/17/53 60/10/52 61/12/55
f 30/50/25 28/20/23 94/22/57
f 63/14/59 64/13/58 1/1/1
f 61/12/55 62/11/54 63/14/59
f 45/140/40 47/23/42 109/25/61
f 153/209/195 89/26/62 155/28/64
f 115/60/85 117/29/65 179/31/67
f 127/142/127 63/32/59 65/34/68
f 48/53/41 46/35/39 112/37/70
f 11/144/129 13/38/11 75/40/72
f 2/89/2 64/41/58 68/43/74
f 29/146/26 31/44/75 93/46/77
f 14/58/10 12/47/9 78/24/79
f 47/23/42 49/49/44 111/24/60
f 32/61/27 30/50/25 96/51/81
f 114/64/87 50/52/43 112/37/70
f 77/39/71 13/38/11 79/55/82
f 95/45/76 31/44/75 97/57/83
f 16/69/12 14/58/10 80/25/84
f 49/49/44 51/59/46 113/48/80
f 34/73/28 32/61/27 98/62/86
f 116/74/91 52/63/45 114/64/87
f 79/55/82 15/54/13 81/66/88
f 33/56/29 35/67/31 97/57/83
f 18/80/14 16/69/12 82/70/90
f 51/59/46 53/71/48 115/60/85
f 100/86/100 36/72/30 98/62/86
f 54/90/47 52/63/45 118/75/92
f 81/66/88 17/65/15 83/77/93
f 35/67/31 37/78/33 99/68/89
f 20/96/16 18/80/14 84/81/95
f 1/33/1 3/82/96 65/34/68
f 53/71/48 55/84/98 117/29/65
f 38/100/32 36/72/30 102/87/101
f 67/108/111 4/88/3 68/43/74
f 56/105/49 54/90/47 120/91/102
f 19/76/17 21/92/19 83/77/93
f 37/78/33 39/94/35 101/79/94
f 22/112/18 20/96/16 86/97/105
f 55/84/98 57/98/51 119/85/99
f 40/116/34 38/100/32 104/101/107
f 3/82/96 5/102/5 66/83/97
f 122/121/120 58/104/50 120/91/102
f 85/93/103 21/92/19 87/107/110
f 6/123/4 4/88/3 70/109/112
f 39/94/35 41/110/113 103/95/104
f 24/127/20 22/112/18 88/113/115
f 57/98/51 59/114/53 121/99/106
f 42/132/36 40/116/34 106/117/117
f 5/102/5 7/118/118 69/103/108
f 124/136/126 60/120/52 122/121/120
f 23/106/109 25/122/22 87/107/110
f 8/139/6 6/123/4 72/124/121
f 41/110/113 43/125/38 105/111/114
f 26/141/21 24/127/20 90/128/123
f 59/114/53 61/129/55 123/115/116
f 108/143/128 44/131/37 106/117/117
f 71/119/119 7/118/118 73/134/125
f 126/145/130 62/135/54 124/136/126
f 25/122/22 27/137/24 89/26/62
f 74/147/131 10/138/7 72/124/121
f 43/125/38 45/140/40 107/126/122
f 28/20/23 26/141/21 92/21/56
f 61/129/55 63/32/59 125/130/124
f 110/36/69 46/35/39 108/143/128
f 73/134/125 9/133/8 75/40/72
f 128/42/73 64/41/58 126/145/130
f 91/27/63 27/137/24 93/46/77
f 12/47/9 10/138/7 76/48/78
f 222/220/206 158/148/132 220/150/134
f 184/164/148 182/151/135 248/153/137
f 182/151/135 118/75/92 180/154/138
f 92/21/56 90/128/123 156/149/133
f 117/29/65 119/85/99 181/30/66
f 91/27/63 93/46/77 155/28/64
f 65/34/68 66/83/97 129/159/143
f 184/164/148 120/91/102 182/151/135
f 158/148/132 94/22/57 156/149/133
f 131/166/150 67/108/111 132/160/144
f 119/85/99 121/99/106 183/156/140
f 93/46/77 95/45/76 157/157/141
f 130/158/142 66/83/97 133/163/147
f 186/171/155 122/121/120 184/164/148
f 96/51/81 94/22/57 160/165/149
f 70/109/112 67/108/111 134/167/151
f 185/161/145 121/99/106 187/168/152
f 159/162/146 95/45/76 161/169/153
f 69/103/108 71/119/119 133/163/147
f 188/177/161 124/136/126 186/171/155
f 98/62/86 96/51/81 162/172/156
f 72/124/121 70/109/112 136/173/157
f 123/115/116 125/130/124 187/168/152
f 97/57/83 99/68/89 161/169/153
f 71/119/119 73/134/125 135/170/154
f 190/181/165 126/145/130 188/177/161
f 164/182/166 100/86/100 162/172/156
f 138/184/168 74/147/131 136/173/157
f 125/130/124 127/142/127 189/174/158
f 163/175/159 99/68/89 165/179/163
f 137/176/160 73/134/125 139/180/164
f 192/188/172 128/42/73 190/181/165
f 102/87/101 100/86/100 166/183/167
f 76/48/78 74/147/131 140/185/169
f 127/142/127 65/34/68 191/178/162
f 101/79/94 103/95/104 165/179/163
f 75/40/72 77/39/71 139/180/164
f 68/43/74 128/42/73 132/160/144
f 104/101/107 102/87/101 168/189/173
f 78/24/79 76/48/78 142/190/174
f 103/95/104 105/111/114 167/186/170
f 141/187/171 77/39/71 143/192/176
f 106/117/117 104/101/107 170/193/177
f 80/25/84 78/24/79 144/194/178
f 105/111/114 107/126/122 169/191/175
f 143/192/176 79/55/82 145/196/180
f 172/199/184 108/143/128 170/193/177
f 82/70/90 80/25/84 146/197/181
f 107/126/122 109/25/61 171/195/179
f 145/196/180 81/66/88 147/198/183
f 110/36/69 108/143/128 174/200/185
f 84/81/95 82/70/90 148/191/186
f 109/25/61 111/24/60 173/194/182
f 83/77/93 85/93/103 147/198/183
f 176/206/192 112/37/70 174/200/185
f 86/97/105 84/81/95 150/203/189
f 111/24/60 113/48/80 175/201/187
f 149/202/188 85/93/103 151/205/191
f 114/64/87 112/37/70 178/207/193
f 88/113/115 86/97/105 152/208/194
f 177/204/190 113/48/80 179/31/67
f 151/205/191 87/107/110 153/209/195
f 180/154/138 116/74/91 178/207/193
f 90/128/123 88/113/115 154/155/139
f 287/328/321 223/210/196 289/212/198
f 313/327/320 249/213/199 315/215/201
f 195/213/208 131/166/150 196/216/202
f 183/156/140 185/161/145 247/217/203
f 157/157/141 159/162/146 221/218/204
f 194/266/258 130/158/142 197/219/205
f 250/224/211 186/171/155 248/153/137
f 160/165/149 158/148/132 224/221/207
f 134/167/151 131/166/150 198/222/209
f 249/213/199 185/161/145 251/214/200
f 223/210/196 159/162/146 225/211/197
f 133/163/147 135/170/154 197/219/205
f 188/177/161 186/171/155 252/225/212
f 162/172/156 160/165/149 226/226/213
f 136/173/157 134/167/151 200/227/214
f 187/168/152 189/174/158 251/214/200
f 161/169/153 163/175/159 225/211/197
f 199/223/210 135/170/154 201/230/217
f 190/181/165 188/177/161 254/231/218
f 228/235/222 164/182/166 226/226/213
f 202/237/224 138/184/168 200/227/214
f 189/174/158 191/178/162 253/228/215
f 227/229/216 163/175/159 229/233/220
f 201/230/217 137/176/160 203/234/221
f 256/242/229 192/188/172 254/231/218
f 166/183/167 164/182/166 230/236/223
f 140/185/169 138/184/168 204/238/225
f 255/232/219 191/178/162 193/239/226
f 229/233/220 165/179/163 231/240/227
f 139/180/164 141/187/171 203/234/221
f 196/216/202 132/160/144 256/242/229
f 168/189/173 166/183/167 232/243/230
f 206/246/233 142/190/174 204/238/225
f 167/186/170 169/191/175 231/240/227
f 205/241/228 141/187/171 207/245/232
f 234/250/237 170/193/177 232/243/230
f 144/194/178 142/190/174 208/247/234
f 169/191/175 171/195/179 233/244/231
f 143/192/176 145/196/180 207/245/232
f 236/253/241 172/199/184 234/250/237
f 146/197/181 144/194/178 210/248/238
f 171/195/179 173/194/182 235/248/235
f 209/249/236 145/196/180 211/252/240
f 174/200/185 172/199/184 238/254/242
f 148/191/186 146/197/181 212/244/243
f 173/194/182 175/201/187 237/251/239
f 147/198/183 149/202/188 211/252/240
f 240/259/249 176/206/192 238/254/242
f 150/203/189 148/191/186 214/257/246
f 239/255/244 175/201/187 241/238/247
f 213/256/245 149/202/188 215/258/248
f 178/207/193 176/206/192 242/260/250
f 152/208/194 150/203/189 216/261/251
f 241/238/247 177/204/190 243/237/252
f 151/205/191 153/209/195 215/258/248
f 244/264/256 180/154/138 242/260/250
f 218/265/257 154/155/139 216/261/251
f 179/31/67 181/30/66 243/237/252
f 217/262/253 153/209/195 219/263/255
f 246/152/136 182/151/135 244/264/256
f 156/149/133 154/155/139 220/150/134
f 181/30/66 183/156/140 245/227/254
f 155/28/64 157/157/141 219/263/255
f 129/159/143 130/158/142 193/239/226
f 292/288/280 290/267/259 356/269/261
f 318/286/278 316/270/262 382/272/264
f 197/219/205 199/223/210 261/274/266
f 316/270/262 252/225/212 314/275/267
f 226/226/213 224/221/207 290/267/259
f 200/227/214 198/222/209 264/278/270
f 251/214/200 253/228/215 315/215/201
f 225/211/197 227/229/216 289/212/198
f 263/273/265 199/223/210 265/281/273
f 318/286/278 254/231/218 316/270/262
f 292/288/280 228/235/222 290/267/259
f 202/237/224 200/227/214 266/282/274
f 317/279/271 253/228/215 319/283/275
f 291/280/272 227/229/216 293/284/276
f 265/281/273 201/230/217 267/285/277
f 256/242/229 254/231/218 320/287/279
f 230/236/223 228/235/222 294/289/281
f 204/238/225 202/237/224 268/290/282
f 319/283/275 255/232/219 257/291/283
f 229/233/220 231/240/227 293/284/276
f 203/234/221 205/241/228 267/285/277
f 260/326/319 196/216/202 320/287/279
f 232/243/230 230/236/223 296/294/286
f 270/297/289 206/246/233 268/290/282
f 295/292/284 231/240/227 297/295/287
f 269/293/285 205/241/228 271/296/288
f 298/300/292 234/250/237 296/294/286
f 272/302/294 208/247/234 270/297/289
f 233/244/231 235/248/235 297/295/287
f 271/296/288 207/245/232 273/299/291
f 236/253/241 234/250/237 300/301/293
f 210/248/238 208/247/234 274/298/295
f 299/298/290 235/248/235 301/303/296
f 273/299/291 209/249/236 275/304/297
f 238/254/242 236/253/241 302/305/298
f 212/244/243 210/248/238 276/306/299
f 237/251/239 239/255/244 301/303/296
f 211/252/240 213/256/245 275/304/297
f 304/312/305 240/259/249 302/305/298
f 214/257/246 212/244/243 278/309/302
f 303/307/300 239/255/244 305/310/303
f 277/308/301 213/256/245 279/311/304
f 242/260/250 240/259/249 306/313/306
f 216/261/251 214/257/246 280/314/307
f 241/238/247 243/237/252 305/310/303
f 279/311/304 215/258/248 281/316/309
f 308/319/312 244/264/256 306/313/306
f 282/320/313 218/265/257 280/314/307
f 243/237/252 245/227/254 307/315/308
f 281/316/309 217/262/253 283/318/311
f 310/325/318 246/152/136 308/319/312
f 220/150/134 218/265/257 284/321/314
f 245/227/254 247/217/203 309/317/310
f 219/263/255 221/218/204 283/318/311
f 193/239/226 194/266/258 257/291/283
f 312/329/322 248/153/137 310/325/318
f 286/330/323 222/220/206 284/321/314
f 259/331/324 195/213/208 260/326/319
f 247/217/203 249/213/199 311/322/315
f 221/218/204 223/210/196 285/323/316
f 258/324/317 194/266/258 261/274/266
f 314/275/267 250/224/211 312/329/322
f 224/221/207 222/220/206 288/276/268
f 198/222/209 195/213/208 262/277/269
f 421/440/266 357/332/325 423/334/265
f 447/438/321 383/335/327 385/337/198
f 266/282/274 264/278/270 330/339/330
f 317/279/271 319/283/275 381/340/331
f 291/280/272 293/284/276 355/341/332
f 329/388/384 265/281/273 331/342/333
f 320/287/279 318/286/278 384/343/334
f 294/289/281 292/288/280 358/344/335
f 268/290/282 266/282/274 332/345/336
f 319/283/275 257/291/283 383/335/327
f 293/284/276 295/292/284 357/332/325
f 267/285/277 269/293/285 331/342/333
f 260/326/319 320/287/279 324/347/338
f 296/294/286 294/289/281 360/348/339
f 270/297/289 268/290/282 334/349/340
f 295/292/284 297/295/287 359/333/326
f 269/293/285 271/296/288 333/346/337
f 298/300/292 296/294/286 362/352/343
f 272/302/294 270/297/289 336/353/344
f 297/295/287 299/298/290 361/350/341
f 271/296/288 273/299/291 335/351/342
f 300/301/293 298/300/292 364/356/347
f 274/298/295 272/302/294 338/357/348
f 299/298/290 301/303/296 363/354/345
f 273/299/291 275/304/297 337/355/346
f 302/305/298 300/301/293 366/360/351
f 276/306/299 274/298/295 340/350/352
f 301/303/296 303/307/300 365/358/349
f 275/304/297 277/308/301 339/359/350
f 368/365/358 304/312/305 366/360/351
f 278/309/302 276/306/299 342/362/355
f 303/307/300 305/310/303 367/349/353
f 341/361/354 277/308/301 343/364/357
f 306/313/306 304/312/305 370/366/359
f 280/314/307 278/309/302 344/367/360
f 305/310/303 307/315/308 369/363/356
f 279/311/304 281/316/309 343/364/357
f 308/319/312 306/313/306 372/369/363
f 282/320/313 280/314/307 346/370/364
f 307/315/308 309/317/310 371/368/361
f 345/269/362 281/316/309 347/372/366
f 310/325/318 308/319/312 374/373/367
f 284/321/314 282/320/313 348/374/368
f 309/317/310 311/322/315 373/371/365
f 283/318/311 285/323/316 347/372/366
f 257/291/283 258/324/317 321/336/328
f 312/329/322 310/325/318 376/378/372
f 286/330/323 284/321/314 350/379/373
f 259/331/324 260/326/319 323/380/374
f 375/375/369 311/322/315 377/380/375
f 285/323/316 287/328/321 349/376/370
f 322/377/371 258/324/317 325/381/377
f 314/275/267 312/329/322 378/382/378
f 288/276/268 286/330/323 352/383/379
f 262/277/269 259/331/324 326/384/380
f 313/327/320 315/215/201 377/380/375
f 351/379/376 287/328/321 353/386/382
f 261/274/266 263/273/265 325/381/377
f 316/270/262 314/275/267 380/271/263
f 290/267/259 288/276/268 354/268/260
f 264/278/270 262/277/269 328/338/329
f 315/215/201 317/279/271 379/385/381
f 289/212/198 291/280/272 353/386/382
f 263/273/265 265/281/273 327/387/383
f 400/404/305 398/389/298 464/391/386
f 426/403/274 424/392/270 490/394/388
f 331/342/333 333/346/337 395/396/290
f 324/347/338 384/343/334 388/398/259
f 360/348/339 358/344/335 424/392/270
f 334/349/340 332/345/336 398/389/298
f 359/333/326 361/350/341 423/334/265
f 397/395/296 333/346/337 399/402/300
f 362/352/343 360/348/339 426/403/274
f 336/353/344 334/349/340 400/404/305
f 361/350/341 363/354/345 425/401/273
f 335/351/342 337/355/346 399/402/300
f 428/409/282 364/356/347 426/403/274
f 338/357/348 336/353/344 402/407/306
f 363/354/345 365/358/349 427/405/277
f 401/406/303 337/355/346 403/408/389
f 430/410/289 366/360/351 428/409/282
f 340/350/352 338/357/348 404/401/390
f 365/358/349 367/349/353 429/404/285
f 339/359/350 341/361/354 403/408/389
f 432/413/294 368/365/358 430/410/289
f 342/362/355 340/350/352 406/411/318
f 367/349/353 369/363/356 431/389/288
f 341/361/354 343/364/357 405/392/310
f 370/366/359 368/365/358 434/414/295
f 344/367/360 342/362/355 408/415/322
f 369/363/356 371/368/361 433/412/291
f 343/364/357 345/269/362 407/399/315
f 436/421/392 372/369/363 434/414/295
f 346/370/364 344/367/360 410/418/267
f 371/368/361 373/371/365 435/416/391
f 345/269/362 347/372/366 409/417/320
f 438/426/302 374/373/367 436/421/392
f 348/374/368 346/370/364 412/422/262
f 373/371/365 375/375/369 437/419/301
f 347/372/366 349/376/370 411/420/201
f 321/336/328 322/377/371 385/337/198
f 440/429/307 376/378/372 438/426/302
f 414/428/278 350/379/373 412/422/262
f 387/427/280 323/380/374 388/398/259
f 439/423/304 375/375/369 441/427/309
f 413/424/271 349/376/370 415/428/275
f 386/425/393 322/377/371 389/429/276
f 378/382/378 376/378/372 442/430/313
f 352/383/379 350/379/373 416/431/279
f 326/384/380 323/380/374 390/432/281
f 441/427/309 377/380/375 443/398/311
f 351/379/376 353/386/382 415/428/275
f 325/381/377 327/387/383 389/429/276
f 380/271/263 378/382/378 444/337/314
f 354/268/260 352/383/379 418/420/319
f 328/338/329 326/384/380 392/435/286
f 379/385/381 381/340/331 443/398/311
f 353/386/382 355/341/332 417/433/283
f 327/387/383 329/388/384 391/434/284
f 382/272/264 380/271/263 446/438/323
f 420/441/394 356/269/261 418/420/319
f 330/339/330 328/338/329 394/439/292
f 381/340/331 383/335/327 445/436/316
f 419/418/317 355/341/332 421/440/266
f 393/437/287 329/388/384 395/396/290
f 384/343/334 382/272/264 448/397/268
f 358/344/335 356/269/261 422/399/269
f 332/345/336 330/339/330 396/400/293
f 529/551/519 465/442/395 531/444/397
f 491/447/401 493/391/398 555/446/400
f 489/494/457 425/401/273 491/447/401
f 399/402/300 401/406/303 463/448/402
f 428/409/282 426/403/274 492/449/403
f 402/407/306 400/404/305 466/450/404
f 427/405/277 429/404/285 491/447/401
f 465/442/395 401/406/303 467/443/396
f 430/410/289 428/409/282 494/451/405
f 404/401/390 402/407/306 468/452/406
f 429/404/285 431/389/288 493/391/398
f 403/408/389 405/392/310 467/443/396
f 432/413/294 430/410/289 496/454/409
f 406/411/318 404/401/390 470/455/410
f 431/389/288 433/412/291 495/390/407
f 405/392/310 407/399/315 469/453/408
f 498/461/416 434/414/295 496/454/409
f 408/415/322 406/411/318 472/458/413
f 433/412/291 435/416/391 497/456/411
f 471/457/412 407/399/315 473/460/415
f 436/421/392 434/414/295 500/462/417
f 410/418/267 408/415/322 474/463/418
f 435/416/391 437/419/301 499/459/414
f 409/417/320 411/420/201 473/460/415
f 438/426/302 436/421/392 502/466/421
f 412/422/262 410/418/267 476/467/422
f 437/419/301 439/423/304 501/464/419
f 475/465/420 411/420/201 477/469/424
f 449/491/454 385/337/198 450/470/425
f 440/429/307 438/426/302 504/471/426
f 414/428/278 412/422/262 478/472/427
f 387/427/280 388/398/259 451/474/429
f 439/423/304 441/427/309 503/468/423
f 413/424/271 415/428/275 477/469/424
f 386/425/393 389/429/276 450/470/425
f 442/430/313 440/429/307 506/470/433
f 416/431/279 414/428/278 480/477/434
f 390/432/281 387/427/280 454/468/435
f 441/427/309 443/398/311 505/474/430
f 415/428/275 417/433/283 479/475/431
f 453/476/432 389/429/276 455/480/438
f 444/337/314 442/430/313 508/481/439
f 418/420/319 416/431/279 482/482/440
f 392/435/286 390/432/281 456/483/441
f 443/398/311 445/436/316 507/478/436
f 417/433/283 419/418/317 481/479/437
f 391/434/284 393/437/287 455/480/438
f 446/438/323 444/337/314 510/487/445
f 420/441/394 418/420/319 484/488/446
f 394/439/292 392/435/286 458/489/447
f 445/436/316 447/438/321 509/484/442
f 419/418/317 421/440/266 483/485/443
f 393/437/287 395/396/290 457/486/444
f 448/397/268 446/438/323 512/484/451
f 422/399/269 420/441/394 486/457/452
f 396/400/293 394/439/292 460/456/453
f 447/438/321 385/337/198 511/487/448
f 421/440/266 423/334/265 485/458/449
f 395/396/290 397/395/296 459/490/450
f 388/398/259 448/397/268 452/473/428
f 424/392/270 422/399/269 488/393/387
f 398/389/298 396/400/293 462/390/385
f 423/334/265 425/401/273 487/492/455
f 397/395/296 399/402/300 461/493/456
f 534/505/468 532/495/458 598/497/460
f 624/561/530 560/498/461 622/500/463
f 494/451/405 492/449/403 558/499/462
f 468/452/406 466/450/404 532/495/458
f 493/391/398 495/390/407 557/445/399
f 467/443/396 469/453/408 531/444/397
f 496/454/409 494/451/405 560/498/461
f 470/455/410 468/452/406 534/505/468
f 495/390/407 497/456/411 559/503/466
f 533/504/467 469/453/408 535/507/470
f 498/461/416 496/454/409 562/508/471
f 472/458/413 470/455/410 536/509/472
f 497/456/411 499/459/414 561/506/469
f 535/507/470 471/457/412 537/511/474
f 564/515/478 500/462/417 562/508/471
f 474/463/418 472/458/413 538/512/475
f 499/459/414 501/464/419 563/510/473
f 473/460/415 475/465/420 537/511/474
f 502/466/421 500/462/417 566/516/479
f 476/467/422 474/463/418 540/517/480
f 501/464/419 503/468/423 565/513/476
f 475/465/420 477/469/424 539/514/477
f 449/491/454 450/470/425 513/521/484
f 504/471/426 502/466/421 568/522/485
f 478/472/427 476/467/422 542/523/486
f 515/525/493 451/474/429 516/524/487
f 567/518/481 503/468/423 569/525/488
f 541/519/482 477/469/424 543/526/489
f 514/520/483 450/470/425 517/527/490
f 506/470/433 504/471/426 570/528/491
f 480/477/434 478/472/427 544/529/492
f 454/468/435 451/474/429 518/530/494
f 569/525/488 505/474/430 571/531/495
f 479/475/431 481/479/437 543/526/489
f 517/527/490 453/476/432 519/533/497
f 572/539/503 508/481/439 570/528/491
f 482/482/440 480/477/434 546/534/498
f 456/483/441 454/468/435 520/535/499
f 507/478/436 509/484/442 571/531/495
f 481/479/437 483/485/443 545/532/496
f 455/480/438 457/486/444 519/533/497
f 574/540/507 510/487/445 572/539/503
f 548/542/509 484/488/446 546/534/498
f 522/510/510 458/489/447 520/535/499
f 509/484/442 511/487/448 573/536/500
f 483/485/443 485/458/449 547/537/501
f 521/538/502 457/486/444 523/541/506
f 512/484/451 510/487/445 576/536/508
f 550/546/514 486/457/452 548/542/509
f 460/456/453 458/489/447 524/543/511
f 511/487/448 449/491/454 575/540/504
f 549/509/505 485/458/449 551/544/512
f 459/490/450 461/493/456 523/541/506
f 452/473/428 512/484/451 516/524/487
f 488/393/387 486/457/452 552/547/515
f 462/390/385 460/456/453 526/548/516
f 487/492/455 489/494/457 551/544/512
f 525/545/513 461/493/456 527/550/518
f 554/552/520 490/394/388 552/547/515
f 528/445/521 464/391/386 526/548/516
f 489/494/457 491/447/401 553/549/517
f 527/550/518 463/448/402 529/551/519
f 556/501/464 492/449/403 554/552/520
f 466/450/404 464/391/386 530/502/465
f 582/554/523 579/581/551 638/557/561
f 580/577/546 640/587/569 638/557/561
f 638/557/561 636/590/560 634/573/549
f 634/573/549 632/575/544 638/557/561
f 630/570/539 628/569/538 626/562/531
f 626/562/531 624/561/530 630/570/539
f 622/500/463 620/608/580 614/553/522
f 618/602/574 616/598/570 614/553/522
f 614/553/522 612/594/565 606/576/545
f 610/585/555 608/580/550 606/576/545
f 606/576/545 604/571/540 602/566/535
f 602/566/535 600/563/532 598/497/460
f 598/497/460 596/496/459 594/609/581
f 594/609/581 592/603/575 590/599/571
f 590/599/571 588/595/566 586/591/562
f 586/591/562 584/586/556 582/554/523
f 579/581/551 580/577/546 638/557/561
f 638/557/561 632/575/544 630/570/539
f 630/570/539 624/561/530 622/500/463
f 620/608/580 618/602/574 614/553/522
f 612/594/565 610/585/555 606/576/545
f 606/576/545 602/566/535 614/553/522
f 598/497/460 594/609/581 582/554/523
f 590/599/571 586/591/562 582/554/523
f 582/554/523 638/557/561 630/570/539
f 630/570/539 622/500/463 614/553/522
f 614/553/522 602/566/535 598/497/460
f 594/609/581 590/599/571 582/554/523
f 582/554/523 630/570/539 614/553/522
f 639/557/526 577/574/543 578/573/542
f 578/573/542 581/579/548 583/584/554
f 583/584/554 585/589/559 591/601/573
f 587/593/564 589/597/568 591/601/573
f 591/601/573 593/605/577 595/607/579
f 595/607/579 597/610/582 591/601/573
f 599/560/529 601/565/534 607/555/524
f 603/568/537 605/572/541 607/555/524
f 607/555/524 609/583/553 611/588/558
f 611/588/558 613/592/563 615/596/567
f 615/596/567 617/600/572 619/604/576
f 619/604/576 621/606/578 623/559/528
f 623/559/528 625/558/527 631/556/525
f 627/564/533 629/567/536 631/556/525
f 631/556/525 633/578/547 635/582/552
f 635/582/552 637/587/557 631/556/525
f 639/557/526 578/573/542 591/601/573
f 585/589/559 587/593/564 591/601/573
f 591/601/573 597/610/582 599/560/529
f 601/565/534 603/568/537 607/555/524
f 607/555/524 611/588/558 623/559/528
f 615/596/567 619/604/576 623/559/528
f 625/558/527 627/564/533 631/556/525
f 631/556/525 637/587/557 639/557/526
f 578/573/542 583/584/554 591/601/573
f 591/601/573 599/560/529 607/555/524
f 611/588/558 615/596/567 623/559/528
f 623/559/528 631/556/525 607/555/524
f 639/557/526 591/601/573 607/555/524
f 559/503/466 561/506/469 623/559/528
f 597/610/582 533/504/467 599/560/529
f 562/508/471 560/498/461 626/562/531
f 536/509/472 534/505/468 600/563/532
f 561/506/469 563/510/473 625/558/527
f 535/507/470 537/511/474 599/560/529
f 628/569/538 564/515/478 626/562/531
f 538/512/475 536/509/472 602/566/535
f 563/510/473 565/513/476 627/564/533
f 601/565/534 537/511/474 603/568/537
f 566/516/479 564/515/478 630/570/539
f 540/517/480 538/512/475 604/571/540
f 565/513/476 567/518/481 629/567/536
f 539/514/477 541/519/482 603/568/537
f 513/521/484 514/520/483 577/574/543
f 568/522/485 566/516/479 632/575/544
f 542/523/486 540/517/480 606/576/545
f 579/581/551 515/525/493 580/577/546
f 631/556/525 567/518/481 633/578/547
f 605/572/541 541/519/482 607/555/524
f 578/573/542 514/520/483 581/579/548
f 570/528/491 568/522/485 634/573/549
f 544/529/492 542/523/486 608/580/550
f 518/530/494 515/525/493 582/554/523
f 633/578/547 569/525/488 635/582/552
f 607/555/524 543/526/489 609/583/553
f 517/527/490 519/533/497 581/579/548
f 636/590/560 572/539/503 634/573/549
f 546/534/498 544/529/492 610/585/555
f 520/535/499 518/530/494 584/586/556
f 571/531/495 573/536/500 635/582/552
f 545/532/496 547/537/501 609/583/553
f 519/533/497 521/538/502 583/584/554
f 574/540/507 572/539/503 638/557/561
f 612/594/565 548/542/509 610/585/555
f 522/510/510 520/535/499 586/591/562
f 637/587/557 573/536/500 639/557/526
f 611/588/558 547/537/501 613/592/563
f 585/589/559 521/538/502 587/593/564
f 640/587/569 576/536/508 638/557/561
f 550/546/514 548/542/509 614/553/522
f 524/543/511 522/510/510 588/595/566
f 575/540/504 513/521/484 639/557/526
f 613/592/563 549/509/505 615/596/567
f 523/541/506 525/545/513 587/593/564
f 516/524/487 576/536/508 580/577/546
f 552/547/515 550/546/514 616/598/570
f 526/548/516 524/543/511 590/599/571
f 615/596/567 551/544/512 617/600/572
f 589/597/568 525/545/513 591/601/573
f 554/552/520 552/547/515 618/602/574
f 528/445/521 526/548/516 592/603/575
f 553/549/517 555/446/400 617/600/572
f 591/601/573 527/550/518 593/605/577
f 620/608/580 556/501/464 618/602/574
f 594/609/581 530/502/465 592/603/575
f 555/446/400 557/445/399 619/604/576
f 529/551/519 531/444/397 593/605/577
f 558/499/462 556/501/464 622/500/463
f 532/495/458 530/502/465 596/496/459
f 557/445/399 559/503/466 621/606/578
f 531/444/397 533/504/467 595/607/579
