# Blender v3.0.1 OBJ File: ''
# www.blender.org
mtllib cordo_kitcar_wheel.mtl
o wheel_Cylinder01x.007
v 0.197287 -0.000000 0.000001
v 0.378789 -0.768121 0.279572
v 0.378789 -0.817416 0.000001
v 0.378789 -0.626177 0.525424
v 0.378789 -0.408709 0.707902
v 0.378789 -0.141945 0.804999
v 0.378789 0.141943 0.804999
v 0.378789 0.408707 0.707902
v 0.378789 0.626177 0.525424
v 0.378789 0.768121 0.279573
v 0.378789 0.817416 0.000002
v 0.378789 0.768121 -0.279572
v 0.378789 0.626177 -0.525425
v 0.378789 0.408709 -0.707903
v 0.378789 0.141942 -0.804999
v 0.378789 -0.141943 -0.804999
v 0.378789 -0.408707 -0.707903
v 0.378789 -0.626177 -0.525425
v 0.378789 -0.768121 -0.279574
v 0.298258 -0.954188 0.347294
v 0.298258 -1.015426 0.000001
v 0.298258 -0.777859 0.652704
v 0.298258 -0.507713 0.879383
v 0.298258 -0.176327 0.999997
v 0.298258 0.176326 0.999997
v 0.298258 0.507713 0.879383
v 0.298258 0.777862 0.652704
v 0.298258 0.954188 0.347295
v 0.298258 1.015426 0.000002
v 0.298258 0.954188 -0.347295
v 0.298258 0.777859 -0.652701
v 0.298258 0.507713 -0.879384
v 0.298258 0.176327 -0.999998
v 0.298258 -0.176326 -0.999998
v 0.298258 -0.507713 -0.879384
v 0.298258 -0.777858 -0.652702
v 0.298258 -0.954188 -0.347296
v -0.298259 -0.954188 0.347294
v -0.298259 -1.015423 0.000001
v -0.298259 -0.777859 0.652704
v -0.298259 -0.507713 0.879383
v -0.298259 -0.176327 0.999997
v -0.298259 0.176326 0.999997
v -0.298259 0.507713 0.879383
v -0.298259 0.777862 0.652704
v -0.298259 0.954188 0.347295
v -0.298259 1.015426 0.000002
v -0.298259 0.954188 -0.347295
v -0.298259 0.777859 -0.652701
v -0.298259 0.507713 -0.879384
v -0.298259 0.176327 -0.999998
v -0.298259 -0.176326 -0.999998
v -0.298259 -0.507713 -0.879384
v -0.298259 -0.777858 -0.652702
v -0.298259 -0.954188 -0.347296
v -0.378787 -0.768121 0.279572
v -0.378787 -0.817416 0.000001
v -0.378787 -0.626177 0.525424
v -0.378787 -0.408709 0.707902
v -0.378787 -0.141945 0.804999
v -0.378787 0.141943 0.804999
v -0.378787 0.408707 0.707902
v -0.378787 0.626177 0.525424
v -0.378787 0.768121 0.279573
v -0.378787 0.817416 0.000002
v -0.378787 0.768121 -0.279572
v -0.378787 0.626177 -0.525425
v -0.378787 0.408709 -0.707903
v -0.378787 0.141942 -0.804999
v -0.378787 -0.141943 -0.804999
v -0.378787 -0.408707 -0.707903
v -0.378787 -0.626177 -0.525425
v -0.378787 -0.768121 -0.279574
v -0.197286 -0.000000 0.000001
vt 0.919998 0.077153
vt 0.972597 0.096353
vt 0.975998 0.077153
vt 0.962897 0.113353
vt 0.947998 0.125853
vt 0.929698 0.132553
vt 0.910298 0.132553
vt 0.891998 0.125853
vt 0.877097 0.113353
vt 0.867397 0.096353
vt 0.863998 0.077153
vt 0.867397 0.057853
vt 0.877097 0.040953
vt 0.891998 0.028353
vt 0.910298 0.021653
vt 0.929698 0.021653
vt 0.947998 0.028353
vt 0.962897 0.040953
vt 0.972597 0.057853
vt 0.985398 0.101053
vt 0.989597 0.077153
vt 0.973297 0.122053
vt 0.954798 0.137752
vt 0.932097 0.146053
vt 0.907897 0.146053
vt 0.885198 0.137752
vt 0.866697 0.122053
vt 0.854598 0.101053
vt 0.850397 0.077153
vt 0.854598 0.053153
vt 0.866697 0.032153
vt 0.885198 0.016553
vt 0.907897 0.008253
vt 0.932097 0.008253
vt 0.954798 0.016553
vt 0.973297 0.032153
vt 0.985398 0.053153
vt 0.847749 0.234531
vt 0.913904 0.221464
vt 0.913904 0.234531
vt 0.847749 0.221464
vt 0.913904 0.208295
vt 0.847749 0.208295
vt 0.913904 0.195023
vt 0.847749 0.195023
vt 0.913904 0.181647
vt 0.847749 0.181647
vt 0.847749 0.420033
vt 0.913904 0.406658
vt 0.913904 0.420033
vt 0.847749 0.406658
vt 0.913904 0.393180
vt 0.847749 0.393180
vt 0.913904 0.379908
vt 0.847749 0.379908
vt 0.913904 0.366841
vt 0.847749 0.366841
vt 0.913904 0.353775
vt 0.847749 0.353775
vt 0.913904 0.340709
vt 0.847749 0.340709
vt 0.913904 0.327539
vt 0.847749 0.327539
vt 0.913904 0.314267
vt 0.847749 0.314267
vt 0.913904 0.300892
vt 0.847749 0.300892
vt 0.913904 0.287414
vt 0.847749 0.287414
vt 0.913904 0.274039
vt 0.847749 0.274039
vt 0.913904 0.260766
vt 0.847749 0.260766
vt 0.913904 0.247597
vt 0.847749 0.247597
vt 0.989597 0.077153
vt 0.972597 0.096353
vt 0.975998 0.077153
vt 0.985398 0.101053
vt 0.962897 0.113353
vt 0.973297 0.122053
vt 0.947998 0.125853
vt 0.954798 0.137752
vt 0.929698 0.132553
vt 0.932097 0.146053
vt 0.910298 0.132553
vt 0.907897 0.146053
vt 0.891998 0.125853
vt 0.885198 0.137752
vt 0.877097 0.113353
vt 0.866697 0.122053
vt 0.867397 0.096353
vt 0.854598 0.101053
vt 0.863998 0.077153
vt 0.850397 0.077153
vt 0.867397 0.057853
vt 0.854598 0.053153
vt 0.877097 0.040953
vt 0.866697 0.032153
vt 0.891998 0.028353
vt 0.885198 0.016553
vt 0.910298 0.021653
vt 0.907897 0.008253
vt 0.929698 0.021653
vt 0.932097 0.008253
vt 0.947998 0.028353
vt 0.954798 0.016553
vt 0.962897 0.040953
vt 0.973297 0.032153
vt 0.972597 0.057853
vt 0.985398 0.053153
vt 0.919998 0.077153
vn 1.0000 -0.0000 -0.0000
vn 0.9932 -0.1094 0.0398
vn 0.9932 -0.1164 0.0000
vn 0.9932 -0.0892 0.0748
vn 0.9932 -0.0582 0.1008
vn 0.9932 -0.0202 0.1147
vn 0.9932 0.0202 0.1147
vn 0.9932 0.0582 0.1008
vn 0.9932 0.0892 0.0748
vn 0.9932 0.1094 0.0398
vn 0.9932 0.1164 -0.0000
vn 0.9932 0.1094 -0.0398
vn 0.9932 0.0892 -0.0748
vn 0.9932 0.0582 -0.1008
vn 0.9932 0.0202 -0.1147
vn 0.9932 -0.0202 -0.1147
vn 0.9932 -0.0582 -0.1008
vn 0.9932 -0.0892 -0.0748
vn 0.9932 -0.1094 -0.0398
vn 0.5314 -0.7961 0.2897
vn 0.5314 -0.8472 0.0000
vn 0.5314 -0.6490 0.5445
vn 0.5314 -0.4236 0.7337
vn 0.5314 -0.1471 0.8343
vn 0.5313 0.1471 0.8343
vn 0.5314 0.4236 0.7337
vn 0.5314 0.6490 0.5445
vn 0.5314 0.7961 0.2897
vn 0.5314 0.8472 0.0000
vn 0.5314 0.7961 -0.2897
vn 0.5314 0.6490 -0.5445
vn 0.5314 0.4236 -0.7337
vn 0.5314 0.1471 -0.8343
vn 0.5314 -0.1471 -0.8343
vn 0.5314 -0.4236 -0.7337
vn 0.5314 -0.6490 -0.5445
vn 0.5313 -0.7961 -0.2897
vn -0.5314 -0.7961 0.2897
vn -0.5314 -0.8471 -0.0000
vn -0.5314 -0.6490 0.5445
vn -0.5314 -0.4236 0.7337
vn -0.5314 -0.1471 0.8343
vn -0.5314 0.1471 0.8343
vn -0.5314 0.4236 0.7337
vn -0.5314 0.6490 0.5445
vn -0.5314 0.7961 0.2897
vn -0.5314 0.8471 0.0000
vn -0.5314 0.7961 -0.2897
vn -0.5314 0.6490 -0.5445
vn -0.5314 0.4236 -0.7337
vn -0.5314 0.1471 -0.8343
vn -0.5314 -0.1471 -0.8343
vn -0.5314 -0.4236 -0.7337
vn -0.5314 -0.6490 -0.5445
vn -0.5314 -0.7961 -0.2897
vn -0.9932 -0.1094 0.0398
vn -0.9932 -0.1164 0.0000
vn -0.9932 -0.0892 0.0748
vn -0.9932 -0.0582 0.1008
vn -0.9932 -0.0202 0.1147
vn -0.9932 0.0202 0.1147
vn -0.9932 0.0582 0.1008
vn -0.9932 0.0892 0.0748
vn -0.9932 0.1094 0.0398
vn -0.9932 0.1164 0.0000
vn -0.9932 0.1094 -0.0398
vn -0.9932 0.0892 -0.0748
vn -0.9932 0.0582 -0.1008
vn -0.9932 0.0202 -0.1147
vn -0.9932 -0.0202 -0.1147
vn -0.9932 -0.0582 -0.1008
vn -0.9932 -0.0892 -0.0748
vn -0.9932 -0.1094 -0.0398
vn -1.0000 0.0000 -0.0000
usemtl _cordo_kitcar.png.001
s 1
f 1/1/1 2/2/2 3/3/3
f 1/1/1 4/4/4 2/2/2
f 1/1/1 5/5/5 4/4/4
f 1/1/1 6/6/6 5/5/5
f 1/1/1 7/7/7 6/6/6
f 1/1/1 8/8/8 7/7/7
f 1/1/1 9/9/9 8/8/8
f 1/1/1 10/10/10 9/9/9
f 1/1/1 11/11/11 10/10/10
f 1/1/1 12/12/12 11/11/11
f 1/1/1 13/13/13 12/12/12
f 1/1/1 14/14/14 13/13/13
f 1/1/1 15/15/15 14/14/14
f 1/1/1 16/16/16 15/15/15
f 1/1/1 17/17/17 16/16/16
f 1/1/1 18/18/18 17/17/17
f 1/1/1 19/19/19 18/18/18
f 1/1/1 3/3/3 19/19/19
f 3/3/3 20/20/20 21/21/21
f 3/3/3 2/2/2 20/20/20
f 2/2/2 22/22/22 20/20/20
f 2/2/2 4/4/4 22/22/22
f 4/4/4 23/23/23 22/22/22
f 4/4/4 5/5/5 23/23/23
f 5/5/5 24/24/24 23/23/23
f 5/5/5 6/6/6 24/24/24
f 6/6/6 25/25/25 24/24/24
f 6/6/6 7/7/7 25/25/25
f 7/7/7 26/26/26 25/25/25
f 7/7/7 8/8/8 26/26/26
f 8/8/8 27/27/27 26/26/26
f 8/8/8 9/9/9 27/27/27
f 9/9/9 28/28/28 27/27/27
f 9/9/9 10/10/10 28/28/28
f 10/10/10 29/29/29 28/28/28
f 10/10/10 11/11/11 29/29/29
f 11/11/11 30/30/30 29/29/29
f 11/11/11 12/12/12 30/30/30
f 12/12/12 31/31/31 30/30/30
f 12/12/12 13/13/13 31/31/31
f 13/13/13 32/32/32 31/31/31
f 13/13/13 14/14/14 32/32/32
f 14/14/14 33/33/33 32/32/32
f 14/14/14 15/15/15 33/33/33
f 15/15/15 34/34/34 33/33/33
f 15/15/15 16/16/16 34/34/34
f 16/16/16 35/35/35 34/34/34
f 16/16/16 17/17/17 35/35/35
f 17/17/17 36/36/36 35/35/35
f 17/17/17 18/18/18 36/36/36
f 18/18/18 37/37/37 36/36/36
f 18/18/18 19/19/19 37/37/37
f 19/19/19 21/21/21 37/37/37
f 19/19/19 3/3/3 21/21/21
f 21/38/21 38/39/38 39/40/39
f 21/38/21 20/41/20 38/39/38
f 20/41/20 40/42/40 38/39/38
f 20/41/20 22/43/22 40/42/40
f 22/43/22 41/44/41 40/42/40
f 22/43/22 23/45/23 41/44/41
f 23/45/23 42/46/42 41/44/41
f 23/45/23 24/47/24 42/46/42
f 24/48/24 43/49/43 42/50/42
f 24/48/24 25/51/25 43/49/43
f 25/51/25 44/52/44 43/49/43
f 25/51/25 26/53/26 44/52/44
f 26/53/26 45/54/45 44/52/44
f 26/53/26 27/55/27 45/54/45
f 27/55/27 46/56/46 45/54/45
f 27/55/27 28/57/28 46/56/46
f 28/57/28 47/58/47 46/56/46
f 28/57/28 29/59/29 47/58/47
f 29/59/29 48/60/48 47/58/47
f 29/59/29 30/61/30 48/60/48
f 30/61/30 49/62/49 48/60/48
f 30/61/30 31/63/31 49/62/49
f 31/63/31 50/64/50 49/62/49
f 31/63/31 32/65/32 50/64/50
f 32/65/32 51/66/51 50/64/50
f 32/65/32 33/67/33 51/66/51
f 33/67/33 52/68/52 51/66/51
f 33/67/33 34/69/34 52/68/52
f 34/69/34 53/70/53 52/68/52
f 34/69/34 35/71/35 53/70/53
f 35/71/35 54/72/54 53/70/53
f 35/71/35 36/73/36 54/72/54
f 36/73/36 55/74/55 54/72/54
f 36/73/36 37/75/37 55/74/55
f 37/75/37 39/40/39 55/74/55
f 37/75/37 21/38/21 39/40/39
f 39/76/39 56/77/56 57/78/57
f 39/76/39 38/79/38 56/77/56
f 38/79/38 58/80/58 56/77/56
f 38/79/38 40/81/40 58/80/58
f 40/81/40 59/82/59 58/80/58
f 40/81/40 41/83/41 59/82/59
f 41/83/41 60/84/60 59/82/59
f 41/83/41 42/85/42 60/84/60
f 42/85/42 61/86/61 60/84/60
f 42/85/42 43/87/43 61/86/61
f 43/87/43 62/88/62 61/86/61
f 43/87/43 44/89/44 62/88/62
f 44/89/44 63/90/63 62/88/62
f 44/89/44 45/91/45 63/90/63
f 45/91/45 64/92/64 63/90/63
f 45/91/45 46/93/46 64/92/64
f 46/93/46 65/94/65 64/92/64
f 46/93/46 47/95/47 65/94/65
f 47/95/47 66/96/66 65/94/65
f 47/95/47 48/97/48 66/96/66
f 48/97/48 67/98/67 66/96/66
f 48/97/48 49/99/49 67/98/67
f 49/99/49 68/100/68 67/98/67
f 49/99/49 50/101/50 68/100/68
f 50/101/50 69/102/69 68/100/68
f 50/101/50 51/103/51 69/102/69
f 51/103/51 70/104/70 69/102/69
f 51/103/51 52/105/52 70/104/70
f 52/105/52 71/106/71 70/104/70
f 52/105/52 53/107/53 71/106/71
f 53/107/53 72/108/72 71/106/71
f 53/107/53 54/109/54 72/108/72
f 54/109/54 73/110/73 72/108/72
f 54/109/54 55/111/55 73/110/73
f 55/111/55 57/78/57 73/110/73
f 55/111/55 39/76/39 57/78/57
f 74/112/74 57/78/57 56/77/56
f 74/112/74 56/77/56 58/80/58
f 74/112/74 58/80/58 59/82/59
f 74/112/74 59/82/59 60/84/60
f 74/112/74 60/84/60 61/86/61
f 74/112/74 61/86/61 62/88/62
f 74/112/74 62/88/62 63/90/63
f 74/112/74 63/90/63 64/92/64
f 74/112/74 64/92/64 65/94/65
f 74/112/74 65/94/65 66/96/66
f 74/112/74 66/96/66 67/98/67
f 74/112/74 67/98/67 68/100/68
f 74/112/74 68/100/68 69/102/69
f 74/112/74 69/102/69 70/104/70
f 74/112/74 70/104/70 71/106/71
f 74/112/74 71/106/71 72/108/72
f 74/112/74 72/108/72 73/110/73
f 74/112/74 73/110/73 57/78/57
