# Blender v3.0.1 OBJ File: ''
# www.blender.org
mtllib cordo_kitcar.mtl
o seat_seat.006
v -0.851768 0.423797 0.509458
v -0.889943 0.390981 0.559361
v -0.800640 0.412555 0.561008
v -0.901306 0.297075 0.591449
v -0.825860 0.317062 0.606981
v -0.749728 0.333283 0.590945
v -0.806038 0.398866 0.461384
v -0.732365 0.328513 0.519218
v -0.761814 0.311803 0.441556
v -0.887711 0.380122 0.467809
v -0.832946 0.291833 0.417867
v -0.897417 0.278651 0.435916
v -0.930755 0.280365 0.513786
v -0.833817 0.348778 0.511987
v 0.852656 1.380627 -0.011443
v 0.852656 1.409871 -0.284378
v 0.759112 1.692553 -0.245388
v 0.759112 1.692553 -0.167406
v 0.759112 1.624319 -0.069929
v 0.702751 -2.245512 -0.099174
v 0.852656 -1.875100 -0.196650
v 0.759112 -2.265007 0.154267
v 0.852656 -1.816613 0.027547
v 0.759112 -2.216269 0.212753
v 0.852656 -1.046547 -0.079678
v 0.852656 -1.046547 -0.235641
v 0.759112 -0.744368 -0.235641
v 0.759112 0.191409 -0.245388
v 0.852656 0.581317 -0.235641
v 0.852656 0.591064 -0.050434
v 0.852656 -1.728884 0.183510
v 0.653746 -2.148036 0.573606
v 0.759112 -1.826362 0.651398
v 0.759112 0.581317 0.505184
v 0.739732 -1.758128 0.700137
v 0.852656 -1.602165 0.261491
v 0.852656 -1.465697 0.300482
v 0.640910 -1.387715 0.904839
v 0.852656 -1.338978 0.290734
v 0.600285 -1.212258 0.953577
v 0.577421 -0.510424 0.953578
v 0.852656 -1.192762 0.222501
v 0.759112 1.682805 0.008053
v 0.759112 1.651522 0.100114
v 0.778693 1.501897 0.099537
v 0.746253 1.629235 0.084177
v 0.707353 1.534241 0.239977
v 0.775877 1.451303 0.194730
v 0.788736 1.473590 0.210668
v 0.720212 1.556527 0.255914
v 0.759112 1.400122 0.358969
v 0.852656 1.185673 0.271239
v 0.852656 1.302646 0.164015
v 0.759112 0.912738 0.436951
v 0.852656 1.019962 0.290735
v 0.852656 0.893242 0.280988
v 0.852656 0.766523 0.232249
v 0.852656 0.639803 0.095781
v 0.600285 -0.159508 0.934082
v 0.535271 0.171022 0.776077
v 0.852656 -1.075790 0.076285
v 0.299993 1.454897 -0.284378
v 0.267242 1.839054 -0.245388
v 0.299993 1.424828 -0.011443
v 0.267242 1.839054 -0.167406
v 0.267242 1.768893 -0.069929
v 0.299993 -1.922852 -0.196650
v 0.299993 -1.862714 0.027547
v 0.247508 -2.303726 -0.099174
v 0.267242 -2.323773 0.154267
v 0.267242 -2.273657 0.212753
v 0.299993 -1.070897 -0.235641
v 0.267242 -0.760185 -0.235641
v 0.299993 -1.070897 -0.079678
v 0.299993 0.602942 -0.235639
v 0.299993 0.612965 -0.050434
v 0.267242 0.202023 -0.245388
v 0.299993 -1.772507 0.183510
v 0.230352 -2.203497 0.622155
v 0.267242 -1.872738 0.651398
v 0.299993 -1.642208 0.261491
v 0.260457 -1.802577 0.700137
v 0.299993 -1.501886 0.300482
v 0.225858 -1.421703 0.904839
v 0.299993 -1.371587 0.290734
v 0.211634 -1.241289 0.979656
v 0.203629 -0.519633 0.979656
v 0.299993 -1.221242 0.222501
v 0.299993 -1.100966 0.076285
v 0.267242 1.829031 0.008053
v 0.267242 1.819008 0.076286
v 0.417022 1.755389 0.103637
v 0.267242 1.668663 0.290735
v 0.653240 1.559247 0.233917
v 0.299993 1.344643 0.164015
v 0.523711 1.637383 0.228155
v 0.267242 1.538364 0.358969
v 0.299993 1.224367 0.271239
v 0.343403 1.425254 0.374731
v 0.267242 1.519058 0.399929
v 0.149603 1.093652 0.434350
v 0.267242 1.037214 0.436951
v 0.299993 1.053977 0.290735
v 0.299993 0.923678 0.280988
v 0.267242 0.696433 0.505184
v 0.299993 0.793379 0.232249
v 0.299993 0.663080 0.095781
v 0.211634 -0.065315 0.960161
v 0.188872 0.274551 0.776077
v -0.848147 -1.875100 -0.196650
v -0.754603 -2.265007 0.154267
v -0.848147 -1.816613 0.027547
v -0.698240 -2.245512 -0.099174
v -0.754603 -2.216269 0.212753
v -0.848147 -1.046547 -0.235641
v -0.848147 -1.046547 -0.079678
v -0.754603 -0.744368 -0.235641
v -0.848147 0.581317 -0.235641
v -0.754603 0.191409 -0.245388
v -0.848147 0.591064 -0.050434
v -0.848147 -1.728884 0.183510
v -0.848147 -1.602164 0.261491
v -0.754603 -1.826362 0.651398
v -0.649237 -2.148036 0.573605
v -0.848147 -1.465697 0.300482
v -0.848147 -1.338978 0.290734
v -0.735221 -1.758128 0.700137
v -0.754603 0.581317 0.505184
v -0.636399 -1.387717 0.904839
v -0.595775 -1.212258 0.953577
v -0.848147 -1.192762 0.222501
v -0.848147 -1.075790 0.076285
v -0.754770 1.400122 0.358969
v -0.848316 1.185673 0.271239
v -0.754603 0.912738 0.436951
v -0.848147 1.019962 0.290735
v -0.848147 0.893243 0.280988
v -0.848147 0.766523 0.232249
v -0.848147 0.639803 0.095781
v -0.572912 -0.510424 0.953578
v -0.595775 -0.159508 0.934082
v -0.530761 0.171022 0.776077
v -0.295483 1.454897 -0.284378
v -0.848315 1.409871 -0.284378
v -0.262900 1.839054 -0.245388
v -0.754770 1.692553 -0.245388
v -0.295483 1.424828 -0.011443
v -0.848316 1.380627 -0.011443
v -0.295484 -1.922852 -0.196650
v -0.295484 -1.862714 0.027547
v -0.242999 -2.303726 -0.099174
v -0.262733 -2.323771 0.154267
v -0.262733 -2.273657 0.212753
v -0.295484 -1.070897 -0.235641
v -0.262733 -0.760185 -0.235641
v -0.295484 -1.070897 -0.079678
v -0.295483 0.602942 -0.235639
v -0.295483 0.612965 -0.050434
v -0.262733 0.202023 -0.245388
v -0.295484 -1.772507 0.183510
v -0.225843 -2.203497 0.622155
v -0.262733 -1.872738 0.651398
v -0.295484 -1.642208 0.261491
v -0.255946 -1.802577 0.700137
v -0.295484 -1.501886 0.300482
v -0.221347 -1.421703 0.904839
v -0.295484 -1.371587 0.290734
v -0.207124 -1.241289 0.979656
v -0.199119 -0.519633 0.979656
v -0.295484 -1.221242 0.222501
v -0.295484 -1.100966 0.076285
v -0.295483 1.344643 0.164015
v -0.848316 1.302646 0.164015
v -0.295483 1.224368 0.271239
v -0.262900 1.519058 0.399929
v -0.339061 1.425254 0.374731
v -0.145094 1.093652 0.434350
v -0.262733 1.037214 0.436951
v -0.295483 1.053977 0.290735
v -0.295483 0.923677 0.280988
v -0.262733 0.696433 0.505184
v -0.295483 0.793379 0.232249
v -0.295483 0.663080 0.095781
v -0.207124 -0.065315 0.960161
v -0.184362 0.274551 0.776077
v -0.262900 1.538364 0.358969
v -0.262900 1.668663 0.290735
v -0.262900 1.819008 0.076286
v -0.262900 1.829031 0.008053
v -0.262900 1.768893 -0.069929
v -0.262900 1.839054 -0.167406
v 0.791551 1.524185 0.115476
v 0.445456 1.681902 0.196423
v 0.404163 1.733102 0.087699
v 0.432597 1.659615 0.180486
v 0.510853 1.615097 0.212216
v 0.666097 1.581534 0.249855
v -0.754939 1.692553 -0.167406
v -0.754939 1.624318 -0.069929
v -0.754939 1.682804 0.008053
v -0.754939 1.651522 0.100114
v -0.742080 1.629235 0.084177
v -0.774520 1.501897 0.099537
v -0.703181 1.534239 0.239977
v -0.771706 1.451303 0.194730
v -0.716040 1.556526 0.255914
v -0.784564 1.473590 0.210668
v -0.412849 1.755389 0.103637
v -0.649067 1.559246 0.233917
v -0.519540 1.637383 0.228155
v -0.787379 1.524184 0.115476
v -0.441283 1.681901 0.196423
v -0.399991 1.733102 0.087699
v -0.428425 1.659614 0.180486
v -0.506681 1.615095 0.212216
v -0.661926 1.581533 0.249855
v 0.799325 0.412555 0.561008
v 0.888628 0.390981 0.559361
v 0.850453 0.423797 0.509458
v 0.824546 0.317062 0.606981
v 0.899991 0.297075 0.591449
v 0.748414 0.333283 0.590945
v 0.804723 0.398866 0.461384
v 0.731051 0.328513 0.519218
v 0.760499 0.311803 0.441556
v 0.886396 0.380122 0.467809
v 0.831631 0.291833 0.417867
v 0.896103 0.278651 0.435916
v 0.929440 0.280365 0.513786
v 0.832502 0.348778 0.511987
v 0.488552 -1.815882 0.848167
v 0.613469 -2.105678 0.837964
v 0.591914 -1.816065 0.813374
v 0.487765 -2.105377 0.865825
v 0.559784 -2.105437 0.794734
v 0.486720 -2.105374 0.827011
v 0.668699 -2.105753 0.667219
v 0.640283 -1.816115 0.682126
v 0.608700 -2.105465 0.698636
v 0.612773 -2.105687 0.571383
v 0.583507 -1.816047 0.569832
v 0.551072 -2.105396 0.569884
v -0.488497 -1.815882 0.848167
v -0.591859 -1.816065 0.813374
v -0.613413 -2.105678 0.837964
v -0.487710 -2.105377 0.865825
v -0.559729 -2.105437 0.794734
v -0.486664 -2.105374 0.827011
v -0.640228 -1.816115 0.682126
v -0.668644 -2.105753 0.667219
v -0.608643 -2.105465 0.698636
v -0.583451 -1.816047 0.569832
v -0.612718 -2.105687 0.571383
v -0.551016 -2.105396 0.569884
v -0.476754 -1.913828 -0.023188
v -0.476755 -0.994193 -0.134098
v -0.338628 -0.994193 -0.134098
v -0.338628 -1.913828 -0.023188
v -0.338628 -1.099277 0.312187
v -0.338628 -1.734364 0.312187
v -0.476754 -1.734364 0.312187
v -0.476755 -1.099277 0.312187
v 0.338531 0.534469 -0.107047
v 0.338531 1.554677 -0.213857
v 0.476657 1.554677 -0.213857
v 0.476657 0.534469 -0.107047
v 0.476657 1.346420 0.308655
v 0.476657 0.740395 0.350514
v 0.338531 0.740395 0.350514
v 0.338531 1.346420 0.308655
v -0.476754 0.534469 -0.107047
v -0.476755 1.554677 -0.213857
v -0.338628 1.554677 -0.213857
v -0.338628 0.534469 -0.107047
v -0.338628 1.346420 0.308655
v -0.338628 0.740395 0.350514
v -0.476754 0.740395 0.350514
v -0.476755 1.346420 0.308655
v 0.338531 -1.913828 -0.023188
v 0.338531 -0.994193 -0.134098
v 0.476657 -0.994193 -0.134098
v 0.476657 -1.913828 -0.023188
v 0.476657 -1.099277 0.312187
v 0.476657 -1.734364 0.312187
v 0.338531 -1.734364 0.312187
v 0.338531 -1.099277 0.312187
v -0.421718 -2.198345 -0.155286
v -0.465128 -2.286729 -0.111875
v -0.483111 -2.286729 -0.155286
v -0.421718 -2.286729 -0.093893
v -0.378306 -2.286728 -0.111875
v -0.360325 -2.286728 -0.155286
v -0.378306 -2.286728 -0.198697
v -0.421718 -2.286729 -0.216678
v -0.465128 -2.286729 -0.198697
v -0.465128 -1.921472 -0.074701
v -0.483111 -1.921472 -0.118112
v -0.421718 -1.921472 -0.056720
v -0.378306 -1.921472 -0.074701
v -0.360324 -1.921472 -0.118112
v -0.378306 -1.921472 -0.161523
v -0.421718 -1.921472 -0.179505
v -0.465128 -1.921472 -0.161523
v 0.757899 0.951611 -0.163715
v 0.168163 0.982811 -0.109676
v 0.168163 0.951611 -0.163715
v 0.757899 0.982811 -0.109676
v 0.168163 1.045210 -0.109676
v 0.757899 1.045210 -0.109676
v 0.168163 1.076410 -0.163715
v 0.757899 1.076410 -0.163715
v 0.168163 1.045210 -0.217754
v 0.757899 1.045210 -0.217754
v 0.168163 0.982811 -0.217754
v 0.757899 0.982811 -0.217754
v 0.149540 0.935699 -0.028076
v 0.149540 0.857389 -0.163715
v 0.149540 1.092322 -0.028076
v 0.149540 1.170633 -0.163715
v 0.149540 1.092322 -0.299353
v 0.149540 0.935699 -0.299353
v -0.151818 0.935699 -0.028076
v -0.151818 0.857389 -0.163715
v -0.151818 1.092322 -0.028076
v -0.151818 1.170633 -0.163715
v -0.151818 1.092322 -0.299353
v -0.151818 0.935699 -0.299353
v -0.170441 0.982811 -0.109676
v -0.170441 0.951611 -0.163715
v -0.170441 1.045210 -0.109676
v -0.170441 1.076410 -0.163715
v -0.170441 1.045210 -0.217754
v -0.170441 0.982811 -0.217754
v -0.760177 0.982811 -0.109676
v -0.760177 0.951611 -0.163715
v -0.760177 1.045210 -0.109676
v -0.760177 1.076410 -0.163715
v -0.760177 1.045210 -0.217754
v -0.760177 0.982811 -0.217754
v -0.073688 -1.471660 -0.133406
v -0.037196 -1.175876 -0.205416
v -0.073688 -1.188477 -0.267354
v -0.037196 -1.445951 -0.075663
v 0.035789 -1.175876 -0.205416
v 0.035789 -1.445951 -0.075663
v 0.072283 -1.188477 -0.267354
v 0.072283 -1.471660 -0.133406
v 0.035789 -1.201079 -0.329292
v 0.035789 -1.497369 -0.191149
v -0.037196 -1.201079 -0.329292
v -0.037196 -1.497369 -0.191149
v -0.037196 0.686058 -0.205528
v -0.073688 0.699199 -0.267354
v 0.035790 0.686058 -0.205528
v 0.072283 0.699199 -0.267354
v 0.035790 0.712341 -0.329179
v -0.037196 0.712341 -0.329179
v -0.037196 0.966100 -0.079513
v -0.073688 0.999125 -0.133406
v 0.035790 0.966100 -0.079513
v 0.072283 0.999125 -0.133406
v 0.035789 1.032152 -0.187298
v -0.037196 1.032152 -0.187298
v 0.757899 -1.532060 -0.163716
v 0.168163 -1.500859 -0.109676
v 0.168163 -1.532060 -0.163716
v 0.757899 -1.500859 -0.109676
v 0.168163 -1.438460 -0.109676
v 0.757899 -1.438460 -0.109676
v 0.168163 -1.407260 -0.163716
v 0.757899 -1.407260 -0.163716
v 0.168163 -1.438460 -0.217755
v 0.757899 -1.438460 -0.217755
v 0.168163 -1.500859 -0.217755
v 0.757899 -1.500859 -0.217755
v 0.149540 -1.547970 -0.028076
v 0.149540 -1.626282 -0.163716
v 0.149540 -1.391349 -0.028076
v 0.149540 -1.313038 -0.163716
v 0.149540 -1.391348 -0.299355
v 0.149540 -1.547970 -0.299355
v -0.151818 -1.547970 -0.028076
v -0.151818 -1.626282 -0.163716
v -0.151818 -1.391349 -0.028076
v -0.151818 -1.313038 -0.163716
v -0.151818 -1.391348 -0.299355
v -0.151818 -1.547970 -0.299355
v -0.170441 -1.500859 -0.109676
v -0.170441 -1.532060 -0.163716
v -0.170441 -1.438460 -0.109676
v -0.170441 -1.407260 -0.163716
v -0.170441 -1.438460 -0.217755
v -0.170441 -1.500859 -0.217755
v -0.760177 -1.500859 -0.109676
v -0.760177 -1.532060 -0.163716
v -0.760177 -1.438460 -0.109676
v -0.760177 -1.407260 -0.163716
v -0.760177 -1.438460 -0.217755
v -0.760177 -1.500859 -0.217755
vt 0.437679 0.633249
vt 0.429552 0.643873
vt 0.448563 0.644224
vt 0.427133 0.650704
vt 0.443194 0.654011
vt 0.459402 0.650597
vt 0.447414 0.623015
vt 0.452003 0.635779
vt 0.456365 0.645965
vt 0.456111 0.638374
vt 0.453238 0.623177
vt 0.458628 0.625960
vt 0.430027 0.624383
vt 0.456829 0.618794
vt 0.441686 0.613751
vt 0.427961 0.617593
vt 0.420864 0.634171
vt 0.413498 0.624674
vt 0.410210 0.645811
vt 0.393388 0.626903
vt 0.410103 0.603346
vt 0.394919 0.598481
vt 0.378478 0.606731
vt 0.373464 0.626659
vt 0.377284 0.644721
vt 0.393769 0.654061
vt 0.011463 0.573515
vt 0.011463 0.522145
vt 0.029070 0.529483
vt 0.029070 0.544161
vt 0.029070 0.562507
vt 0.906954 0.683814
vt 0.964666 0.678302
vt 0.907308 0.717775
vt 0.969218 0.710587
vt 0.909906 0.725499
vt 0.207248 0.044263
vt 0.207273 0.004039
vt 0.286128 0.008654
vt 0.531380 0.006892
vt 0.633906 0.005348
vt 0.636431 0.053122
vt 0.976994 0.735998
vt 0.899393 0.776571
vt 0.944715 0.797988
vt 0.002417 0.236557
vt 0.633449 0.200783
vt 0.020222 0.250087
vt 0.990988 0.752878
vt 0.061577 0.131806
vt 0.097336 0.141972
vt 0.116908 0.307797
vt 0.130549 0.139560
vt 0.162737 0.322407
vt 0.346592 0.324039
vt 0.168880 0.122079
vt 0.029070 0.577184
vt 0.028129 0.588795
vt 0.024420 0.588686
vt 0.030564 0.585795
vt 0.038811 0.620836
vt 0.025914 0.612320
vt 0.023494 0.615320
vt 0.036391 0.623836
vt 0.029070 0.636489
vt 0.011463 0.626720
vt 0.011463 0.606539
vt 0.015682 0.636332
vt 0.748784 0.141456
vt 0.792216 0.136561
vt 0.720319 0.183452
vt 0.715574 0.138841
vt 0.682371 0.126169
vt 0.649182 0.090871
vt 0.438647 0.318225
vt 0.057336 0.935216
vt 0.033576 0.985955
vt 0.006335 0.849860
vt 0.199559 0.084464
vt 0.290035 0.441819
vt 0.291242 0.407305
vt 0.306487 0.405031
vt 0.301163 0.435692
vt 0.279302 0.441108
vt 0.280420 0.406945
vt 0.121647 0.529483
vt 0.121647 0.544161
vt 0.121647 0.562507
vt 0.105804 0.441820
vt 0.104382 0.407209
vt 0.113567 0.406930
vt 0.114896 0.441244
vt 0.090803 0.432097
vt 0.088814 0.403734
vt 0.843283 0.714588
vt 0.842144 0.679273
vt 0.843488 0.725562
vt 0.164417 0.440756
vt 0.163632 0.406751
vt 0.175706 0.404808
vt 0.176266 0.435084
vt 0.158289 0.441092
vt 0.157566 0.406903
vt 0.228053 0.440788
vt 0.228763 0.406801
vt 0.235978 0.406957
vt 0.235329 0.441119
vt 0.212794 0.435117
vt 0.213179 0.404842
vt 0.120619 0.406824
vt 0.121922 0.441018
vt 0.838969 0.783487
vt 0.954058 0.862311
vt 0.857936 0.853856
vt 0.850604 0.789007
vt 0.933974 0.797622
vt 0.126548 0.406859
vt 0.127770 0.441074
vt 0.950116 0.878546
vt 0.856526 0.870589
vt 0.132248 0.406920
vt 0.133349 0.441186
vt 0.930615 0.960991
vt 0.849657 0.954978
vt 0.137378 0.406981
vt 0.138346 0.441299
vt 0.922868 0.996512
vt 0.846837 0.993047
vt 0.370778 0.809151
vt 0.446539 0.811018
vt 0.444917 0.957285
vt 0.366144 0.951401
vt 0.143879 0.407033
vt 0.144689 0.441390
vt 0.151336 0.407014
vt 0.152052 0.441335
vt 0.121647 0.577184
vt 0.121647 0.587883
vt 0.096657 0.593031
vt 0.121647 0.630389
vt 0.048996 0.619695
vt 0.271783 0.440879
vt 0.272915 0.406829
vt 0.073375 0.618611
vt 0.121647 0.636489
vt 0.265559 0.440900
vt 0.266665 0.406840
vt 0.101282 0.668905
vt 0.118898 0.647207
vt 0.146109 0.745605
vt 0.118898 0.758660
vt 0.005127 0.787452
vt 0.005127 0.674718
vt 0.259015 0.441072
vt 0.259992 0.406927
vt 0.254025 0.441195
vt 0.254888 0.406988
vt 0.118898 0.837484
vt 0.005127 0.846310
vt 0.248694 0.441291
vt 0.249436 0.407036
vt 0.241381 0.441279
vt 0.242031 0.407032
vt 0.366144 0.738027
vt 0.444917 0.718935
vt 0.136262 0.935216
vt 0.127943 0.994172
vt 0.118405 0.849860
vt 0.648578 0.678302
vt 0.706626 0.717400
vt 0.644797 0.710748
vt 0.706842 0.683396
vt 0.704070 0.725147
vt 0.792373 0.324958
vt 0.792398 0.365181
vt 0.713518 0.329572
vt 0.365740 0.326266
vt 0.468266 0.327811
vt 0.363214 0.374040
vt 0.637723 0.735938
vt 0.624432 0.752457
vt 0.669968 0.796732
vt 0.714439 0.775784
vt 0.997229 0.557475
vt 0.902310 0.462890
vt 0.938069 0.452724
vt 0.869097 0.460478
vt 0.979424 0.571005
vt 0.366197 0.521701
vt 0.882738 0.628715
vt 0.836909 0.643325
vt 0.830766 0.442998
vt 0.800087 0.405382
vt 0.331154 0.636489
vt 0.348761 0.626720
vt 0.344511 0.636332
vt 0.207429 0.457472
vt 0.250862 0.462374
vt 0.279327 0.504370
vt 0.284071 0.459759
vt 0.317275 0.447087
vt 0.350464 0.411789
vt 0.653054 0.644958
vt 0.560999 0.639143
vt 0.300227 0.935216
vt 0.351229 0.849860
vt 0.323988 0.985955
vt 0.291252 0.369924
vt 0.290052 0.335400
vt 0.306496 0.372188
vt 0.301178 0.341531
vt 0.280429 0.370273
vt 0.279322 0.336103
vt 0.104384 0.369754
vt 0.105829 0.335134
vt 0.113573 0.370043
vt 0.114923 0.335723
vt 0.088808 0.373202
vt 0.090817 0.344835
vt 0.770506 0.714430
vt 0.771821 0.679109
vt 0.770258 0.725390
vt 0.163643 0.370295
vt 0.164451 0.336291
vt 0.175716 0.372261
vt 0.176297 0.341985
vt 0.157577 0.370133
vt 0.158323 0.335944
vt 0.228775 0.370350
vt 0.228085 0.336366
vt 0.235989 0.370205
vt 0.235361 0.336046
vt 0.213190 0.372287
vt 0.212825 0.342013
vt 0.120627 0.370157
vt 0.121950 0.335959
vt 0.774382 0.783186
vt 0.754244 0.853828
vt 0.658117 0.862209
vt 0.761628 0.788986
vt 0.678251 0.797536
vt 0.126557 0.370131
vt 0.127800 0.335912
vt 0.755642 0.870560
vt 0.662047 0.878448
vt 0.132258 0.370078
vt 0.133380 0.335809
vt 0.762449 0.954952
vt 0.681487 0.960907
vt 0.137388 0.370024
vt 0.138377 0.335704
vt 0.765243 0.993024
vt 0.689209 0.996434
vt 0.528169 0.811018
vt 0.603931 0.809151
vt 0.529792 0.957285
vt 0.608565 0.951401
vt 0.143889 0.369982
vt 0.144722 0.335623
vt 0.151347 0.370012
vt 0.152086 0.335690
vt 0.272924 0.370381
vt 0.271806 0.336325
vt 0.266674 0.370363
vt 0.265583 0.336298
vt 0.241522 0.647207
vt 0.259139 0.668905
vt 0.214273 0.745605
vt 0.355255 0.787452
vt 0.241484 0.758660
vt 0.355294 0.674718
vt 0.260002 0.370269
vt 0.259041 0.336128
vt 0.254898 0.370201
vt 0.254053 0.335998
vt 0.241484 0.837484
vt 0.355255 0.846310
vt 0.249446 0.370145
vt 0.248723 0.335894
vt 0.242041 0.370139
vt 0.241412 0.335896
vt 0.529792 0.718935
vt 0.608565 0.738027
vt 0.221301 0.935216
vt 0.229620 0.994172
vt 0.239158 0.849860
vt 0.238578 0.636489
vt 0.238578 0.630389
vt 0.238578 0.587883
vt 0.238578 0.577184
vt 0.238578 0.562507
vt 0.238578 0.544161
vt 0.238578 0.529483
vt 0.021985 0.595259
vt 0.089934 0.612639
vt 0.097705 0.590031
vt 0.093726 0.609639
vt 0.075795 0.615611
vt 0.046576 0.622695
vt 0.348761 0.522145
vt 0.348761 0.573515
vt 0.331154 0.529483
vt 0.331186 0.544161
vt 0.331186 0.562507
vt 0.331186 0.577184
vt 0.332127 0.588795
vt 0.329692 0.585795
vt 0.335835 0.588686
vt 0.321445 0.620836
vt 0.334342 0.612320
vt 0.323865 0.623836
vt 0.336762 0.615320
vt 0.348761 0.606539
vt 0.266800 0.593031
vt 0.311260 0.619695
vt 0.286881 0.618611
vt 0.338270 0.595259
vt 0.272152 0.612639
vt 0.264380 0.590031
vt 0.269731 0.609639
vt 0.284460 0.615611
vt 0.313680 0.622695
vt 0.337249 0.599630
vt 0.336857 0.613461
vt 0.337155 0.615051
vt 0.118898 0.642742
vt 0.241522 0.642742
vt 0.437096 0.641686
vt 0.458103 0.641298
vt 0.449123 0.629559
vt 0.443029 0.652500
vt 0.460777 0.648847
vt 0.425120 0.648728
vt 0.438366 0.618250
vt 0.421035 0.631855
vt 0.427963 0.613586
vt 0.457578 0.619761
vt 0.444696 0.608013
vt 0.459862 0.612259
vt 0.467704 0.630577
vt 0.392936 0.624977
vt 0.409838 0.606422
vt 0.413142 0.627164
vt 0.409731 0.648095
vt 0.394474 0.652869
vt 0.377954 0.644772
vt 0.372915 0.625216
vt 0.376754 0.607491
vt 0.393318 0.598325
vt 0.559631 0.711892
vt 0.580153 0.668541
vt 0.576612 0.711865
vt 0.559502 0.668586
vt 0.571333 0.668577
vt 0.559330 0.668586
vt 0.589226 0.668530
vt 0.584558 0.711857
vt 0.579369 0.668573
vt 0.580039 0.668539
vt 0.575231 0.711867
vt 0.569902 0.668583
vt 0.399118 0.711892
vt 0.382138 0.711865
vt 0.378597 0.668541
vt 0.399248 0.668586
vt 0.387416 0.668577
vt 0.399419 0.668586
vt 0.374191 0.711857
vt 0.369523 0.668530
vt 0.379380 0.668573
vt 0.383519 0.711867
vt 0.378711 0.668539
vt 0.388848 0.668583
vt 0.490995 0.657425
vt 0.491107 0.617548
vt 0.496538 0.617566
vt 0.496426 0.657443
vt 0.502343 0.654786
vt 0.502329 0.618365
vt 0.519258 0.624562
vt 0.516278 0.649354
vt 0.490813 0.617130
vt 0.490799 0.653551
vt 0.476865 0.648119
vt 0.473884 0.623327
vt 0.501798 0.617130
vt 0.501922 0.657461
vt 0.496491 0.657478
vt 0.496367 0.617147
vt 0.502611 0.653878
vt 0.502611 0.617834
vt 0.520109 0.627024
vt 0.519355 0.648356
vt 0.491412 0.617185
vt 0.491412 0.651440
vt 0.475499 0.646192
vt 0.474782 0.625919
vt 0.490813 0.657461
vt 0.490937 0.617130
vt 0.496367 0.617147
vt 0.496244 0.657478
vt 0.502397 0.652620
vt 0.502396 0.620944
vt 0.517774 0.629020
vt 0.517111 0.647767
vt 0.490734 0.617845
vt 0.490734 0.652015
vt 0.474860 0.646780
vt 0.474145 0.626557
vt 0.501969 0.617548
vt 0.502080 0.657425
vt 0.496649 0.657443
vt 0.496538 0.617566
vt 0.502209 0.654477
vt 0.502195 0.618056
vt 0.519124 0.624253
vt 0.516143 0.649045
vt 0.491210 0.617130
vt 0.491196 0.653551
vt 0.477262 0.648119
vt 0.474281 0.623327
vt 0.381169 0.576803
vt 0.375672 0.590074
vt 0.367897 0.582300
vt 0.386666 0.590074
vt 0.394440 0.582300
vt 0.394440 0.571305
vt 0.386666 0.563531
vt 0.375671 0.563531
vt 0.367897 0.571305
vt 0.365980 0.651061
vt 0.355158 0.564110
vt 0.366103 0.565154
vt 0.355035 0.650017
vt 0.357436 0.564589
vt 0.365330 0.650913
vt 0.357533 0.650496
vt 0.365233 0.565006
vt 0.355960 0.564427
vt 0.367043 0.649895
vt 0.356057 0.650333
vt 0.366946 0.563988
vt 0.358832 0.564568
vt 0.366668 0.649437
vt 0.358929 0.650474
vt 0.366571 0.563531
vt 0.367897 0.649437
vt 0.356830 0.564575
vt 0.367775 0.563531
vt 0.356952 0.650481
vt 0.366530 0.649916
vt 0.358830 0.564427
vt 0.366627 0.564009
vt 0.358733 0.650333
vt 0.368006 0.650913
vt 0.357117 0.564568
vt 0.368103 0.565006
vt 0.357020 0.650475
vt 0.365134 0.649895
vt 0.357492 0.562951
vt 0.365231 0.563988
vt 0.357395 0.648858
vt 0.007845 0.323575
vt 0.046559 0.321527
vt 0.046559 0.323575
vt 0.007845 0.321527
vt 0.046559 0.317431
vt 0.007845 0.317431
vt 0.046559 0.315383
vt 0.007845 0.315383
vt 0.046559 0.317431
vt 0.007845 0.317431
vt 0.046559 0.321527
vt 0.007845 0.321527
vt 0.047781 0.324620
vt 0.047781 0.329761
vt 0.047781 0.314338
vt 0.047781 0.309198
vt 0.047781 0.314338
vt 0.047781 0.324620
vt 0.067564 0.324620
vt 0.067564 0.329761
vt 0.067564 0.314338
vt 0.067564 0.309198
vt 0.067564 0.314338
vt 0.067564 0.324620
vt 0.068787 0.321527
vt 0.068787 0.323575
vt 0.068787 0.317431
vt 0.068787 0.315383
vt 0.068787 0.317431
vt 0.068787 0.321527
vt 0.107500 0.321527
vt 0.107500 0.323575
vt 0.107500 0.317431
vt 0.107500 0.315383
vt 0.107500 0.317431
vt 0.107500 0.321527
vt 0.062435 0.482652
vt 0.060040 0.463235
vt 0.062435 0.464062
vt 0.060040 0.480964
vt 0.055249 0.463235
vt 0.055249 0.480964
vt 0.052853 0.464062
vt 0.052853 0.482652
vt 0.055249 0.464889
vt 0.055249 0.484340
vt 0.060040 0.464889
vt 0.060040 0.484340
vt 0.060040 0.341008
vt 0.062435 0.340145
vt 0.055248 0.341008
vt 0.052853 0.340145
vt 0.055248 0.339282
vt 0.060040 0.339282
vt 0.060040 0.322624
vt 0.062435 0.320456
vt 0.055248 0.322624
vt 0.052853 0.320456
vt 0.055249 0.318288
vt 0.060040 0.318288
vt 0.007845 0.486617
vt 0.046559 0.484569
vt 0.046559 0.486617
vt 0.007845 0.484569
vt 0.046559 0.480472
vt 0.007845 0.480472
vt 0.046559 0.478424
vt 0.007845 0.478424
vt 0.046559 0.480472
vt 0.007845 0.480472
vt 0.046559 0.484569
vt 0.007845 0.484569
vt 0.047781 0.487661
vt 0.047781 0.492802
vt 0.047781 0.477380
vt 0.047781 0.472239
vt 0.047781 0.477380
vt 0.047781 0.487661
vt 0.067564 0.487661
vt 0.067564 0.492802
vt 0.067564 0.477380
vt 0.067564 0.472239
vt 0.067564 0.477380
vt 0.067564 0.487661
vt 0.068787 0.484569
vt 0.068787 0.486617
vt 0.068787 0.480472
vt 0.068787 0.478424
vt 0.068787 0.480472
vt 0.068787 0.484569
vt 0.107500 0.484569
vt 0.107500 0.486617
vt 0.107500 0.480472
vt 0.107500 0.478424
vt 0.107500 0.480472
vt 0.107500 0.484569
vn -0.2256 0.9667 -0.1205
vn -0.6375 0.6069 0.4746
vn 0.3352 0.8258 0.4536
vn -0.3982 -0.6252 0.6712
vn 0.1360 -0.5937 0.7931
vn 0.6946 -0.3612 0.6222
vn 0.3216 0.7161 -0.6195
vn 0.8977 -0.4405 0.0035
vn 0.6742 -0.5351 -0.5090
vn -0.6335 0.5395 -0.5546
vn 0.1421 -0.6781 -0.7212
vn -0.3893 -0.7241 -0.5693
vn -0.6772 -0.7342 0.0481
vn 0.2064 -0.9719 0.1131
vn 0.8292 -0.5406 -0.1420
vn 0.6536 -0.4472 -0.6106
vn 0.5663 0.6105 -0.5537
vn 0.6469 0.7293 0.2227
vn 0.7689 0.6386 0.0316
vn 0.4220 -0.6897 -0.5884
vn 0.6295 0.3677 -0.6845
vn 0.6182 -0.7571 0.2112
vn 0.7841 0.5757 -0.2319
vn 0.7237 -0.5934 0.3523
vn 0.8462 -0.5314 -0.0397
vn 0.6747 -0.4749 -0.5651
vn 0.5854 0.0398 -0.8098
vn 0.6688 -0.0345 -0.7427
vn 0.6624 0.4837 -0.5720
vn 0.8396 0.5360 -0.0879
vn 0.8477 0.4013 -0.3469
vn 0.4561 -0.6539 0.6037
vn 0.7168 -0.2910 0.6337
vn 0.7224 0.1664 0.6712
vn 0.5927 -0.3150 0.7413
vn 0.8062 0.2182 -0.5499
vn 0.8344 0.0698 -0.5467
vn 0.5418 -0.2168 0.8121
vn 0.8358 -0.1773 -0.5196
vn 0.4819 -0.0672 0.8736
vn 0.5526 0.0277 0.8330
vn 0.8005 -0.3794 -0.4640
vn 0.6407 0.7568 -0.1294
vn 0.4576 0.3498 0.8175
vn -0.0738 0.5872 0.8061
vn -0.1189 0.0874 0.9891
vn 0.5149 0.7609 -0.3949
vn -0.0565 0.9966 -0.0600
vn 0.6868 0.7255 -0.0429
vn 0.5107 0.8596 0.0166
vn 0.5438 0.3400 0.7672
vn 0.9367 -0.2091 -0.2808
vn 0.8637 -0.4199 -0.2786
vn 0.5042 0.1407 0.8520
vn 0.9037 0.0185 -0.4277
vn 0.8809 0.1849 -0.4357
vn 0.8620 0.2872 -0.4178
vn 0.8764 0.4117 -0.2498
vn 0.6054 0.1364 0.7842
vn 0.1759 0.4679 0.8661
vn 0.8049 -0.5218 -0.2824
vn -0.0244 -0.6170 -0.7866
vn 0.1061 0.7619 -0.6390
vn -0.0376 -0.9637 -0.2642
vn 0.1348 0.9453 0.2969
vn 0.1516 0.9883 -0.0180
vn -0.0175 0.4874 -0.8730
vn -0.0389 0.9236 -0.3813
vn 0.0445 -0.7718 -0.6343
vn 0.0571 -0.9514 0.3025
vn 0.0592 -0.8983 0.4354
vn 0.0157 -0.7118 -0.7022
vn 0.0001 -0.0050 -1.0000
vn 0.0222 -0.9952 -0.0950
vn 0.0136 0.7007 -0.7133
vn 0.0194 0.9814 -0.1912
vn 0.0001 0.0072 -1.0000
vn -0.0290 0.7155 -0.6980
vn 0.0590 -0.6878 0.7235
vn 0.0160 -0.3332 0.9427
vn -0.0152 0.3972 -0.9176
vn 0.0235 -0.5228 0.8521
vn -0.0039 0.1019 -0.9948
vn 0.0273 -0.4199 0.9072
vn 0.0072 -0.2447 -0.9696
vn 0.0393 -0.1967 0.9797
vn 0.0353 0.0222 0.9991
vn 0.0163 -0.6065 -0.7949
vn 0.0216 -0.9044 -0.4260
vn 0.1350 0.9607 -0.2427
vn 0.1334 0.9234 0.3599
vn 0.4710 0.5620 0.6799
vn 0.1270 0.6516 0.7479
vn 0.4048 0.8837 -0.2349
vn -0.0298 -0.8064 -0.5907
vn 0.4735 0.8799 -0.0400
vn 0.2115 0.6275 0.7493
vn -0.0145 -0.4143 -0.9100
vn 0.1666 0.1373 0.9764
vn 0.3653 0.5530 0.7489
vn 0.0244 0.0783 0.9966
vn 0.0320 0.1641 0.9859
vn -0.0008 -0.0214 -0.9998
vn 0.0053 0.2126 -0.9771
vn 0.0442 0.3588 0.9324
vn 0.0124 0.5489 -0.8358
vn 0.0175 0.8538 -0.5204
vn 0.0637 0.2779 0.9585
vn 0.0644 0.5031 0.8618
vn -0.6295 0.3677 -0.6845
vn -0.6182 -0.7571 0.2112
vn -0.7841 0.5757 -0.2319
vn -0.4220 -0.6897 -0.5884
vn -0.7237 -0.5934 0.3523
vn -0.6747 -0.4749 -0.5651
vn -0.8462 -0.5314 -0.0397
vn -0.5854 0.0398 -0.8098
vn -0.6624 0.4837 -0.5720
vn -0.6688 -0.0345 -0.7427
vn -0.8396 0.5360 -0.0879
vn -0.8477 0.4013 -0.3469
vn -0.8062 0.2182 -0.5500
vn -0.7168 -0.2910 0.6337
vn -0.4561 -0.6539 0.6037
vn -0.8344 0.0698 -0.5467
vn -0.8358 -0.1773 -0.5196
vn -0.5927 -0.3150 0.7413
vn -0.7224 0.1664 0.6712
vn -0.5418 -0.2168 0.8121
vn -0.4819 -0.0672 0.8736
vn -0.8005 -0.3794 -0.4640
vn -0.8049 -0.5218 -0.2824
vn -0.5437 0.3397 0.7675
vn -0.9367 -0.2094 -0.2806
vn -0.5042 0.1406 0.8521
vn -0.9036 0.0179 -0.4280
vn -0.8809 0.1849 -0.4357
vn -0.8620 0.2872 -0.4178
vn -0.8764 0.4117 -0.2498
vn -0.5526 0.0277 0.8330
vn -0.6053 0.1364 0.7842
vn -0.1759 0.4679 0.8661
vn 0.0244 -0.6170 -0.7866
vn -0.6536 -0.4472 -0.6106
vn -0.1061 0.7619 -0.6390
vn -0.5661 0.6103 -0.5541
vn 0.0376 -0.9637 -0.2642
vn -0.8290 -0.5408 -0.1422
vn 0.0175 0.4874 -0.8730
vn 0.0389 0.9236 -0.3813
vn -0.0445 -0.7718 -0.6343
vn -0.0571 -0.9514 0.3025
vn -0.0592 -0.8983 0.4354
vn -0.0157 -0.7118 -0.7022
vn -0.0001 -0.0050 -1.0000
vn -0.0222 -0.9952 -0.0950
vn -0.0136 0.7007 -0.7133
vn -0.0194 0.9814 -0.1912
vn -0.0001 0.0072 -1.0000
vn 0.0290 0.7155 -0.6980
vn -0.0590 -0.6878 0.7235
vn -0.0160 -0.3332 0.9427
vn 0.0152 0.3972 -0.9176
vn -0.0235 -0.5228 0.8521
vn 0.0039 0.1019 -0.9948
vn -0.0273 -0.4199 0.9072
vn -0.0072 -0.2447 -0.9696
vn -0.0393 -0.1967 0.9797
vn -0.0353 0.0222 0.9991
vn -0.0163 -0.6065 -0.7949
vn -0.0216 -0.9044 -0.4260
vn 0.0298 -0.8064 -0.5907
vn -0.8636 -0.4203 -0.2785
vn 0.0145 -0.4143 -0.9100
vn -0.3653 0.5529 0.7489
vn -0.1667 0.1369 0.9765
vn -0.0248 0.0784 0.9966
vn -0.0320 0.1648 0.9858
vn 0.0008 -0.0214 -0.9998
vn -0.0053 0.2126 -0.9771
vn -0.0442 0.3588 0.9324
vn -0.0124 0.5489 -0.8358
vn -0.0175 0.8538 -0.5204
vn -0.0637 0.2779 0.9585
vn -0.0644 0.5031 0.8618
vn -0.2115 0.6275 0.7493
vn -0.1269 0.6516 0.7479
vn -0.1333 0.9234 0.3599
vn -0.1350 0.9607 -0.2427
vn -0.1516 0.9883 -0.0180
vn -0.1347 0.9453 0.2969
vn 0.2956 0.5005 0.8137
vn 0.6839 0.7294 0.0183
vn 0.7723 -0.0493 0.6334
vn 0.7967 0.5844 -0.1540
vn 0.4813 0.8393 -0.2529
vn 0.4119 0.9108 -0.0288
vn -0.6476 0.7290 0.2218
vn -0.7692 0.6382 0.0316
vn -0.6408 0.7567 -0.1294
vn -0.4577 0.3497 0.8174
vn 0.1189 0.0874 0.9890
vn 0.0738 0.5872 0.8061
vn -0.5148 0.7609 -0.3949
vn 0.0565 0.9966 -0.0600
vn -0.5109 0.8595 0.0167
vn -0.6873 0.7251 -0.0427
vn -0.4711 0.5625 0.6795
vn -0.4048 0.8837 -0.2349
vn -0.4735 0.8799 -0.0400
vn -0.2963 0.5005 0.8134
vn -0.6838 0.7294 0.0184
vn -0.7723 -0.0493 0.6334
vn -0.7967 0.5844 -0.1540
vn -0.4813 0.8393 -0.2529
vn -0.4119 0.9108 -0.0288
vn -0.3352 0.8258 0.4536
vn 0.6375 0.6069 0.4746
vn 0.2256 0.9667 -0.1205
vn -0.1360 -0.5937 0.7931
vn 0.3982 -0.6252 0.6712
vn -0.6945 -0.3612 0.6222
vn -0.3216 0.7161 -0.6195
vn -0.8977 -0.4405 0.0035
vn -0.6742 -0.5351 -0.5090
vn 0.6335 0.5395 -0.5546
vn -0.1421 -0.6781 -0.7212
vn 0.3893 -0.7241 -0.5694
vn 0.6772 -0.7342 0.0481
vn -0.2064 -0.9719 0.1131
vn -0.0644 0.9915 0.1134
vn 0.5565 -0.5755 0.5992
vn 0.1619 0.9647 0.2075
vn 0.0808 -0.6611 0.7459
vn -0.4524 -0.7592 -0.4680
vn -0.1356 -0.7277 -0.6723
vn 0.8053 -0.5858 -0.0908
vn 0.2648 0.9643 0.0059
vn -0.6138 -0.7892 -0.0221
vn 0.5533 -0.7723 -0.3121
vn -0.2810 0.9571 0.0707
vn -0.7699 -0.5372 0.3445
vn 0.0644 0.9915 0.1134
vn -0.1619 0.9647 0.2075
vn -0.5565 -0.5755 0.5992
vn -0.0808 -0.6611 0.7459
vn 0.4524 -0.7592 -0.4680
vn 0.1356 -0.7277 -0.6723
vn -0.2648 0.9643 0.0059
vn -0.8053 -0.5858 -0.0908
vn 0.6138 -0.7891 -0.0221
vn 0.2811 0.9571 0.0706
vn -0.5533 -0.7723 -0.3120
vn 0.7699 -0.5372 0.3445
vn -0.6069 -0.0952 -0.7891
vn -0.6132 -0.0946 -0.7842
vn 0.6132 -0.0946 -0.7842
vn 0.6069 -0.0952 -0.7891
vn 1.0000 0.0000 0.0000
vn -1.0000 -0.0000 0.0000
vn -0.6234 -0.0814 -0.7777
vn -0.5691 -0.0856 -0.8178
vn 0.5691 -0.0856 -0.8178
vn 0.6234 -0.0814 -0.7777
vn 0.0000 -1.0000 0.0000
vn -0.3396 -0.8916 0.2997
vn -0.4821 -0.8750 -0.0432
vn 0.0000 -0.8984 0.4392
vn 0.3396 -0.8915 0.2997
vn 0.4821 -0.8751 -0.0432
vn 0.3377 -0.8591 -0.3847
vn 0.0000 -0.8528 -0.5223
vn -0.3376 -0.8591 -0.3847
vn -0.6931 -0.0730 0.7171
vn -0.9997 -0.0025 0.0247
vn -0.0000 -0.1013 0.9949
vn 0.6931 -0.0730 0.7171
vn 0.9997 -0.0025 0.0247
vn 0.7179 0.0705 -0.6926
vn -0.0000 0.1013 -0.9949
vn -0.7179 0.0705 -0.6926
vn 0.7554 -0.3276 0.5674
vn 0.7554 -0.6552 -0.0000
vn 0.0000 -0.5000 0.8660
vn 0.7554 0.3276 0.5674
vn 0.0000 0.5000 0.8660
vn 0.7554 0.6552 0.0000
vn 0.0000 1.0000 -0.0000
vn 0.7554 0.3276 -0.5674
vn 0.0000 0.5000 -0.8660
vn 0.7554 -0.3276 -0.5674
vn 0.0000 -0.5000 -0.8660
vn 0.5505 -0.4174 0.7230
vn 0.5505 -0.8348 -0.0000
vn 0.5505 0.4174 0.7230
vn 0.5505 0.8348 -0.0000
vn 0.5505 0.4174 -0.7230
vn 0.5505 -0.4174 -0.7230
vn -0.5505 -0.4174 0.7230
vn -0.5505 -0.8348 -0.0000
vn -0.5505 0.4174 0.7230
vn -0.5505 0.8348 -0.0000
vn -0.5505 0.4174 -0.7230
vn -0.5505 -0.4174 -0.7230
vn -0.7554 -0.3276 0.5674
vn -0.7554 -0.6552 0.0000
vn -0.7554 0.3276 0.5674
vn -0.7554 0.6552 -0.0000
vn -0.7554 0.3276 -0.5674
vn -0.7554 -0.3276 -0.5674
vn -1.0000 0.0049 0.0068
vn -0.5337 0.1879 0.8245
vn -0.9976 -0.0158 -0.0678
vn -0.4959 0.3761 0.7827
vn 0.5332 0.1889 0.8246
vn 0.4951 0.3749 0.7838
vn 0.9975 -0.0163 -0.0686
vn 1.0000 0.0040 0.0053
vn 0.4726 -0.1908 -0.8604
vn 0.5024 -0.3654 -0.7837
vn -0.4723 -0.1903 -0.8607
vn -0.5016 -0.3668 -0.7835
vn -0.5313 -0.1778 0.8283
vn -0.9978 0.0137 -0.0654
vn 0.5315 -0.1774 0.8283
vn 0.9978 0.0135 -0.0650
vn 0.4734 0.1826 -0.8617
vn -0.4736 0.1828 -0.8616
vn -0.5148 -0.3511 0.7821
vn -0.9991 0.0165 -0.0387
vn 0.5152 -0.3517 0.7816
vn 0.9991 0.0162 -0.0379
vn 0.4791 0.3565 -0.8021
vn -0.4794 0.3559 -0.8022
vn 0.7554 -0.3276 -0.5675
vn -0.7554 -0.3276 -0.5675
usemtl _cordo_kitcar.png.001
s 1
f 1/1/1 2/2/2 3/3/3
f 2/2/2 4/4/4 5/5/5
f 2/2/2 5/5/5 3/3/3
f 3/3/3 5/5/5 6/6/6
f 1/1/1 3/3/3 7/7/7
f 3/8/3 6/9/6 8/10/8
f 3/8/3 8/10/8 7/11/7
f 7/11/7 8/10/8 9/12/9
f 1/1/1 7/7/7 10/13/10
f 7/7/7 9/14/9 11/15/11
f 7/7/7 11/15/11 10/13/10
f 10/13/10 11/15/11 12/16/12
f 1/1/1 10/13/10 2/2/2
f 10/13/10 12/16/12 13/17/13
f 10/13/10 13/17/13 2/2/2
f 2/2/2 13/17/13 4/4/4
f 5/18/5 4/19/4 14/20/14
f 6/21/6 5/18/5 14/20/14
f 8/22/8 6/21/6 14/20/14
f 9/23/9 8/22/8 14/20/14
f 11/24/11 9/23/9 14/20/14
f 12/25/12 11/24/11 14/20/14
f 13/26/13 12/25/12 14/20/14
f 4/19/4 13/26/13 14/20/14
f 15/27/15 16/28/16 17/29/17
f 15/27/15 17/29/17 18/30/18
f 15/27/15 18/30/18 19/31/19
f 20/32/20 21/33/21 22/34/22
f 22/34/22 21/33/21 23/35/23
f 24/36/24 22/34/22 23/35/23
f 25/37/25 26/38/26 27/39/27
f 28/40/28 29/41/29 30/42/30
f 24/36/24 23/35/23 31/43/31
f 32/44/32 24/36/24 33/45/33
f 33/46/33 34/47/34 35/48/35
f 24/36/24 31/43/31 36/49/36
f 33/46/33 36/50/36 37/51/37
f 24/36/24 36/49/36 33/45/33
f 38/52/38 35/48/35 34/47/34
f 33/46/33 39/53/39 34/47/34
f 40/54/40 38/52/38 34/47/34
f 41/55/41 40/54/40 34/47/34
f 37/51/37 39/53/39 33/46/33
f 39/53/39 42/56/42 34/47/34
f 15/27/15 19/31/19 43/57/43
f 15/27/15 43/57/43 44/58/44
f 45/59/45 46/60/46 47/61/47
f 48/62/48 45/59/45 47/61/47
f 49/63/49 50/64/50 51/65/51
f 52/66/52 53/67/53 51/65/51
f 52/66/52 51/65/51 54/68/54
f 55/69/55 52/70/52 54/71/54
f 56/72/56 55/69/55 54/71/54
f 56/72/56 54/71/54 34/47/34
f 57/73/57 56/72/56 34/47/34
f 58/74/58 57/73/57 34/47/34
f 59/75/59 41/55/41 34/47/34
f 60/76/60 59/77/59 34/78/34
f 34/47/34 42/56/42 61/79/61
f 58/74/58 28/40/28 30/42/30
f 61/79/61 27/39/27 28/40/28
f 34/47/34 61/79/61 28/40/28
f 58/74/58 34/47/34 28/40/28
f 25/37/25 27/39/27 61/79/61
f 16/80/16 62/81/62 63/82/63
f 63/82/63 17/83/17 16/80/16
f 15/84/15 64/85/64 62/81/62
f 16/80/16 15/84/15 62/81/62
f 17/29/17 63/86/63 65/87/65
f 65/87/65 18/30/18 17/29/17
f 18/30/18 65/87/65 66/88/66
f 66/88/66 19/31/19 18/30/18
f 21/89/21 67/90/67 68/91/68
f 68/91/68 23/92/23 21/89/21
f 20/93/20 69/94/69 67/90/67
f 67/90/67 21/89/21 20/93/20
f 22/34/22 70/95/70 69/96/69
f 69/96/69 20/32/20 22/34/22
f 24/36/24 71/97/71 70/95/70
f 70/95/70 22/34/22 24/36/24
f 26/98/26 72/99/72 73/100/73
f 73/100/73 27/101/27 26/98/26
f 25/102/25 74/103/74 72/99/72
f 72/99/72 26/98/26 25/102/25
f 29/104/29 75/105/75 76/106/76
f 76/106/76 30/107/30 29/104/29
f 28/108/28 77/109/77 75/105/75
f 75/105/75 29/104/29 28/108/28
f 23/92/23 68/91/68 78/110/78
f 78/110/78 31/111/31 23/92/23
f 32/44/32 79/112/79 71/97/71
f 71/97/71 24/36/24 32/44/32
f 33/113/33 80/114/80 79/115/79
f 79/115/79 32/116/32 33/113/33
f 31/111/31 78/110/78 81/117/81
f 81/117/81 36/118/36 31/111/31
f 35/119/35 82/120/82 80/114/80
f 80/114/80 33/113/33 35/119/35
f 36/118/36 81/117/81 83/121/83
f 83/121/83 37/122/37 36/118/36
f 38/123/38 84/124/84 82/120/82
f 82/120/82 35/119/35 38/123/38
f 37/122/37 83/121/83 85/125/85
f 85/125/85 39/126/39 37/122/37
f 40/127/40 86/128/86 84/124/84
f 84/124/84 38/123/38 40/127/40
f 41/129/41 87/130/87 86/131/86
f 86/131/86 40/132/40 41/129/41
f 39/126/39 85/125/85 88/133/88
f 88/133/88 42/134/42 39/126/39
f 42/134/42 88/133/88 89/135/89
f 89/135/89 61/136/61 42/134/42
f 19/31/19 66/88/66 90/137/90
f 90/137/90 43/57/43 19/31/19
f 43/57/43 90/137/90 91/138/91
f 91/138/91 44/58/44 43/57/43
f 92/139/92 91/138/91 93/140/93
f 94/141/94 47/61/47 46/60/46
f 53/142/53 95/143/95 64/85/64
f 64/85/64 15/84/15 53/142/53
f 96/144/96 93/140/93 97/145/97
f 97/145/97 51/65/51 50/64/50
f 52/146/52 98/147/98 95/143/95
f 95/143/95 53/142/53 52/146/52
f 99/148/99 100/149/100 101/150/101
f 102/151/102 54/152/54 51/153/51
f 55/154/55 103/155/103 98/147/98
f 98/147/98 52/146/52 55/154/55
f 56/156/56 104/157/104 103/155/103
f 103/155/103 55/154/55 56/156/56
f 54/152/54 102/151/102 105/158/105
f 105/158/105 34/159/34 54/152/54
f 57/160/57 106/161/106 104/157/104
f 104/157/104 56/156/56 57/160/57
f 58/162/58 107/163/107 106/161/106
f 106/161/106 57/160/57 58/162/58
f 59/164/59 108/165/108 87/130/87
f 87/130/87 41/129/41 59/164/59
f 60/76/60 109/166/109 108/167/108
f 108/167/108 59/77/59 60/76/60
f 34/78/34 105/168/105 109/166/109
f 109/166/109 60/76/60 34/78/34
f 30/107/30 76/106/76 107/163/107
f 107/163/107 58/162/58 30/107/30
f 27/101/27 73/100/73 77/109/77
f 77/109/77 28/108/28 27/101/27
f 61/136/61 89/135/89 74/103/74
f 74/103/74 25/102/25 61/136/61
f 110/169/110 111/170/111 112/171/112
f 113/172/113 111/170/111 110/169/110
f 111/170/111 114/173/114 112/171/112
f 115/174/115 116/175/116 117/176/117
f 118/177/118 119/178/119 120/179/120
f 112/171/112 114/173/114 121/180/121
f 114/173/114 122/181/122 121/180/121
f 123/182/123 114/173/114 124/183/124
f 123/182/123 122/181/122 114/173/114
f 123/184/123 125/185/125 122/186/122
f 123/184/123 126/187/126 125/185/125
f 127/188/127 128/189/128 123/184/123
f 123/184/123 128/189/128 126/187/126
f 129/190/129 128/189/128 127/188/127
f 130/191/130 128/189/128 129/190/129
f 126/187/126 128/189/128 131/192/131
f 131/192/131 128/189/128 132/193/132
f 133/194/133 134/195/134 135/196/135
f 134/197/134 136/198/136 135/199/135
f 136/198/136 137/200/137 135/199/135
f 135/199/135 137/200/137 128/189/128
f 137/200/137 138/201/138 128/189/128
f 138/201/138 139/202/139 128/189/128
f 140/203/140 128/189/128 130/191/130
f 141/204/141 128/189/128 140/203/140
f 142/205/142 128/206/128 141/207/141
f 139/202/139 119/178/119 128/189/128
f 117/176/117 132/193/132 119/178/119
f 120/179/120 119/178/119 139/202/139
f 119/178/119 132/193/132 128/189/128
f 117/176/117 116/175/116 132/193/132
f 143/208/143 144/209/144 145/210/145
f 146/211/146 145/210/145 144/209/144
f 147/212/147 148/213/148 143/208/143
f 144/209/144 143/208/143 148/213/148
f 149/214/149 110/215/110 150/216/150
f 112/217/112 150/216/150 110/215/110
f 151/218/151 113/219/113 149/214/149
f 110/215/110 149/214/149 113/219/113
f 152/220/152 111/170/111 151/221/151
f 113/172/113 151/221/151 111/170/111
f 153/222/153 114/173/114 152/220/152
f 111/170/111 152/220/152 114/173/114
f 154/223/154 115/224/115 155/225/155
f 117/226/117 155/225/155 115/224/115
f 156/227/156 116/228/116 154/223/154
f 115/224/115 154/223/154 116/228/116
f 157/229/157 118/230/118 158/231/158
f 120/232/120 158/231/158 118/230/118
f 159/233/159 119/234/119 157/229/157
f 118/230/118 157/229/157 119/234/119
f 150/216/150 112/217/112 160/235/160
f 121/236/121 160/235/160 112/217/112
f 161/237/161 124/183/124 153/222/153
f 114/173/114 153/222/153 124/183/124
f 162/238/162 123/239/123 161/240/161
f 124/241/124 161/240/161 123/239/123
f 160/235/160 121/236/121 163/242/163
f 122/243/122 163/242/163 121/236/121
f 164/244/164 127/245/127 162/238/162
f 123/239/123 162/238/162 127/245/127
f 163/242/163 122/243/122 165/246/165
f 125/247/125 165/246/165 122/243/122
f 166/248/166 129/249/129 164/244/164
f 127/245/127 164/244/164 129/249/129
f 165/246/165 125/247/125 167/250/167
f 126/251/126 167/250/167 125/247/125
f 168/252/168 130/253/130 166/248/166
f 129/249/129 166/248/166 130/253/130
f 169/254/169 140/255/140 168/256/168
f 130/257/130 168/256/168 140/255/140
f 167/250/167 126/251/126 170/258/170
f 131/259/131 170/258/170 126/251/126
f 170/258/170 131/259/131 171/260/171
f 132/261/132 171/260/171 131/259/131
f 172/262/172 173/263/173 147/212/147
f 148/213/148 147/212/147 173/263/173
f 174/264/174 134/265/134 172/262/172
f 173/263/173 172/262/172 134/265/134
f 175/266/175 176/267/176 177/268/177
f 135/269/135 178/270/178 133/271/133
f 179/272/179 136/273/136 174/264/174
f 134/265/134 174/264/174 136/273/136
f 180/274/180 137/275/137 179/272/179
f 136/273/136 179/272/179 137/275/137
f 178/270/178 135/269/135 181/276/181
f 128/277/128 181/276/181 135/269/135
f 182/278/182 138/279/138 180/274/180
f 137/275/137 180/274/180 138/279/138
f 183/280/183 139/281/139 182/278/182
f 138/279/138 182/278/182 139/281/139
f 184/282/184 141/283/141 169/254/169
f 140/255/140 169/254/169 141/283/141
f 185/284/185 142/205/142 184/285/184
f 141/207/141 184/285/184 142/205/142
f 181/286/181 128/206/128 185/284/185
f 142/205/142 185/284/185 128/206/128
f 158/231/158 120/232/120 183/280/183
f 139/281/139 183/280/183 120/232/120
f 155/225/155 117/226/117 159/233/159
f 119/234/119 159/233/159 117/226/117
f 171/260/171 132/261/132 156/227/156
f 116/228/116 156/227/156 132/261/132
f 109/166/109 105/168/105 185/284/185
f 105/168/105 181/286/181 185/284/185
f 105/158/105 102/151/102 181/276/181
f 102/151/102 178/270/178 181/276/181
f 101/150/101 100/149/100 177/268/177
f 100/149/100 175/266/175 177/268/177
f 97/145/97 93/140/93 186/287/186
f 93/140/93 187/288/187 186/287/186
f 93/140/93 91/138/91 187/288/187
f 91/138/91 188/289/188 187/288/187
f 91/138/91 90/137/90 188/289/188
f 90/137/90 189/290/189 188/289/188
f 90/137/90 66/88/66 189/290/189
f 66/88/66 190/291/190 189/290/189
f 66/88/66 65/87/65 190/291/190
f 65/87/65 191/292/191 190/291/190
f 65/87/65 63/86/63 191/292/191
f 63/86/63 145/293/145 191/292/191
f 108/167/108 109/166/109 184/285/184
f 109/166/109 185/284/185 184/285/184
f 87/130/87 108/165/108 169/254/169
f 108/165/108 184/282/184 169/254/169
f 86/131/86 87/130/87 168/256/168
f 87/130/87 169/254/169 168/256/168
f 166/248/166 84/124/84 168/252/168
f 84/124/84 86/128/86 168/252/168
f 164/244/164 82/120/82 166/248/166
f 82/120/82 84/124/84 166/248/166
f 80/114/80 82/120/82 164/244/164
f 164/244/164 162/238/162 80/114/80
f 79/115/79 80/114/80 162/238/162
f 162/238/162 161/240/161 79/115/79
f 161/237/161 153/222/153 79/112/79
f 153/222/153 71/97/71 79/112/79
f 153/222/153 152/220/152 71/97/71
f 152/220/152 70/95/70 71/97/71
f 152/220/152 151/221/151 70/95/70
f 151/221/151 69/96/69 70/95/70
f 143/208/143 145/210/145 62/81/62
f 62/81/62 145/210/145 63/82/63
f 147/212/147 143/208/143 64/85/64
f 143/208/143 62/81/62 64/85/64
f 172/262/172 147/212/147 95/143/95
f 147/212/147 64/85/64 95/143/95
f 174/264/174 172/262/172 98/147/98
f 172/262/172 95/143/95 98/147/98
f 179/272/179 174/264/174 103/155/103
f 174/264/174 98/147/98 103/155/103
f 180/274/180 179/272/179 104/157/104
f 179/272/179 103/155/103 104/157/104
f 182/278/182 180/274/180 106/161/106
f 180/274/180 104/157/104 106/161/106
f 107/163/107 183/280/183 106/161/106
f 183/280/183 182/278/182 106/161/106
f 76/106/76 158/231/158 107/163/107
f 158/231/158 183/280/183 107/163/107
f 75/105/75 157/229/157 76/106/76
f 157/229/157 158/231/158 76/106/76
f 77/109/77 159/233/159 75/105/75
f 159/233/159 157/229/157 75/105/75
f 73/100/73 155/225/155 77/109/77
f 155/225/155 159/233/159 77/109/77
f 154/223/154 155/225/155 72/99/72
f 155/225/155 73/100/73 72/99/72
f 156/227/156 154/223/154 74/103/74
f 154/223/154 72/99/72 74/103/74
f 171/260/171 156/227/156 89/135/89
f 156/227/156 74/103/74 89/135/89
f 170/258/170 171/260/171 88/133/88
f 171/260/171 89/135/89 88/133/88
f 85/125/85 167/250/167 88/133/88
f 167/250/167 170/258/170 88/133/88
f 83/121/83 165/246/165 85/125/85
f 165/246/165 167/250/167 85/125/85
f 81/117/81 163/242/163 165/246/165
f 81/117/81 165/246/165 83/121/83
f 78/110/78 160/235/160 81/117/81
f 160/235/160 163/242/163 81/117/81
f 68/91/68 150/216/150 78/110/78
f 150/216/150 160/235/160 78/110/78
f 67/90/67 149/214/149 68/91/68
f 149/214/149 150/216/150 68/91/68
f 69/94/69 151/218/151 67/90/67
f 67/90/67 151/218/151 149/214/149
f 53/67/53 15/27/15 49/63/49
f 53/67/53 49/63/49 51/65/51
f 15/27/15 44/58/44 192/294/192
f 15/27/15 192/294/192 49/63/49
f 44/58/44 91/138/91 92/139/92
f 193/295/193 92/139/92 93/140/93
f 46/60/46 194/296/194 195/297/195
f 46/60/46 195/297/195 196/298/196
f 50/64/50 197/299/197 97/145/97
f 93/140/93 96/144/96 193/295/193
f 97/145/97 197/299/197 96/144/96
f 196/298/196 94/141/94 46/60/46
f 144/300/144 148/301/148 146/302/146
f 146/302/146 148/301/148 198/303/198
f 198/303/198 148/301/148 199/304/199
f 199/304/199 148/301/148 200/305/200
f 200/305/200 148/301/148 201/306/201
f 202/307/202 203/308/203 204/309/204
f 203/308/203 205/310/205 204/309/204
f 206/311/206 207/312/207 133/194/133
f 173/313/173 134/195/134 133/194/133
f 145/293/145 146/302/146 191/292/191
f 198/303/198 191/292/191 146/302/146
f 191/292/191 198/303/198 190/291/190
f 199/304/199 190/291/190 198/303/198
f 190/291/190 199/304/199 189/290/189
f 200/305/200 189/290/189 199/304/199
f 189/290/189 200/305/200 188/289/188
f 201/306/201 188/289/188 200/305/200
f 188/289/188 208/314/208 187/288/187
f 204/309/204 209/315/209 202/307/202
f 187/288/187 210/316/210 186/287/186
f 133/194/133 186/287/186 206/311/206
f 148/301/148 173/313/173 207/312/207
f 207/312/207 173/313/173 133/194/133
f 201/306/201 148/301/148 211/317/211
f 211/317/211 148/301/148 207/312/207
f 188/289/188 201/306/201 208/314/208
f 208/314/208 212/318/212 187/288/187
f 213/319/213 202/307/202 214/320/214
f 214/320/214 202/307/202 215/321/215
f 216/322/216 206/311/206 186/287/186
f 210/316/210 187/288/187 212/318/212
f 216/322/216 186/287/186 210/316/210
f 209/315/209 215/321/215 202/307/202
f 45/59/45 192/294/192 44/58/44
f 44/58/44 46/60/46 45/59/45
f 48/62/48 49/63/49 192/294/192
f 192/294/192 45/59/45 48/62/48
f 47/61/47 50/64/50 49/63/49
f 49/63/49 48/62/48 47/61/47
f 94/141/94 197/299/197 50/64/50
f 50/64/50 47/61/47 94/141/94
f 46/60/46 44/58/44 92/139/92
f 92/139/92 194/296/194 46/60/46
f 194/296/194 92/139/92 193/295/193
f 193/295/193 195/297/195 194/296/194
f 195/297/195 193/295/193 96/144/96
f 96/144/96 196/298/196 195/297/195
f 196/298/196 96/144/96 197/299/197
f 197/299/197 94/141/94 196/298/196
f 202/307/202 201/306/201 211/317/211
f 211/317/211 203/308/203 202/307/202
f 205/310/205 207/312/207 206/311/206
f 206/311/206 204/309/204 205/310/205
f 203/308/203 211/317/211 207/312/207
f 207/323/207 205/324/205 203/325/203
f 204/309/204 206/311/206 216/322/216
f 216/322/216 209/315/209 204/309/204
f 213/319/213 208/314/208 201/306/201
f 201/306/201 202/307/202 213/319/213
f 214/320/214 212/318/212 208/314/208
f 208/314/208 213/319/213 214/320/214
f 215/321/215 210/316/210 212/318/212
f 212/318/212 214/320/214 215/321/215
f 209/315/209 216/322/216 210/316/210
f 210/316/210 215/321/215 209/315/209
f 99/148/99 51/153/51 97/326/97
f 97/326/97 100/149/100 99/148/99
f 101/150/101 102/151/102 51/153/51
f 51/153/51 99/148/99 101/150/101
f 176/267/176 133/271/133 178/270/178
f 178/270/178 177/268/177 176/267/176
f 175/266/175 186/327/186 176/267/176
f 133/271/133 176/267/176 186/327/186
f 177/268/177 178/270/178 102/151/102
f 102/151/102 101/150/101 177/268/177
f 100/149/100 97/326/97 186/327/186
f 186/327/186 175/266/175 100/149/100
f 217/328/217 218/329/218 219/330/219
f 220/331/220 221/332/221 218/329/218
f 217/328/217 220/331/220 218/329/218
f 220/331/220 217/328/217 222/333/222
f 223/334/223 217/328/217 219/330/219
f 222/333/222 217/328/217 224/335/224
f 224/335/224 217/328/217 223/334/223
f 225/336/225 224/335/224 223/334/223
f 226/337/226 223/334/223 219/330/219
f 227/338/227 225/336/225 223/334/223
f 226/337/226 227/338/227 223/334/223
f 228/339/228 227/338/227 226/337/226
f 218/329/218 226/337/226 219/330/219
f 229/340/229 228/339/228 226/337/226
f 218/329/218 229/340/229 226/337/226
f 221/332/221 229/340/229 218/329/218
f 230/341/230 221/342/221 220/343/220
f 230/341/230 220/343/220 222/344/222
f 230/341/230 222/344/222 224/345/224
f 230/341/230 224/345/224 225/346/225
f 230/341/230 225/346/225 227/347/227
f 230/341/230 227/347/227 228/348/228
f 230/341/230 228/348/228 229/349/229
f 230/341/230 229/349/229 221/342/221
f 231/350/231 232/351/232 233/352/233
f 231/350/231 234/353/234 232/351/232
f 234/353/234 235/354/235 232/351/232
f 234/353/234 236/355/236 235/354/235
f 236/355/236 233/352/233 235/354/235
f 236/355/236 231/350/231 233/352/233
f 233/352/233 237/356/237 238/357/238
f 233/352/233 232/351/232 237/356/237
f 232/351/232 239/358/239 237/356/237
f 232/351/232 235/354/235 239/358/239
f 235/354/235 238/357/238 239/358/239
f 235/354/235 233/352/233 238/357/238
f 238/357/238 240/359/240 241/360/241
f 238/357/238 237/356/237 240/359/240
f 237/356/237 242/361/242 240/359/240
f 237/356/237 239/358/239 242/361/242
f 239/358/239 241/360/241 242/361/242
f 239/358/239 238/357/238 241/360/241
f 243/362/243 244/363/244 245/364/245
f 243/362/243 245/364/245 246/365/246
f 246/365/246 245/364/245 247/366/247
f 246/365/246 247/366/247 248/367/248
f 248/367/248 247/366/247 244/363/244
f 248/367/248 244/363/244 243/362/243
f 244/363/244 249/368/249 250/369/250
f 244/363/244 250/369/250 245/364/245
f 245/364/245 250/369/250 251/370/251
f 245/364/245 251/370/251 247/366/247
f 247/366/247 251/370/251 249/368/249
f 247/366/247 249/368/249 244/363/244
f 249/368/249 252/371/252 253/372/253
f 249/368/249 253/372/253 250/369/250
f 250/369/250 253/372/253 254/373/254
f 250/369/250 254/373/254 251/370/251
f 251/370/251 254/373/254 252/371/252
f 251/370/251 252/371/252 249/368/249
f 231/350/231 246/365/246 234/353/234
f 246/365/246 231/350/231 243/362/243
f 246/365/246 248/367/248 234/353/234
f 234/353/234 248/367/248 236/355/236
f 243/362/243 231/350/231 236/355/236
f 248/367/248 243/362/243 236/355/236
f 255/374/255 256/375/256 257/376/257
f 258/377/258 255/374/255 257/376/257
f 258/378/258 257/379/257 259/380/259
f 259/380/259 260/381/259 258/378/258
f 256/382/256 255/383/255 261/384/260
f 261/384/260 262/385/260 256/382/256
f 263/386/261 264/387/262 265/388/263
f 266/389/264 263/386/261 265/388/263
f 266/390/264 265/391/263 267/392/259
f 267/392/259 268/393/259 266/390/264
f 264/394/262 263/395/261 269/396/260
f 269/396/260 270/397/260 264/394/262
f 271/398/261 272/399/262 273/400/263
f 274/401/264 271/398/261 273/400/263
f 274/402/264 273/403/263 275/404/259
f 275/404/259 276/405/259 274/402/264
f 272/406/262 271/407/261 277/408/260
f 277/408/260 278/409/260 272/406/262
f 279/410/255 280/411/256 281/412/257
f 282/413/258 279/410/255 281/412/257
f 282/414/258 281/415/257 283/416/259
f 283/416/259 284/417/259 282/414/258
f 280/418/256 279/419/255 285/420/260
f 285/420/260 286/421/260 280/418/256
f 287/422/265 288/423/266 289/424/267
f 287/422/265 290/425/268 288/423/266
f 287/422/265 291/426/269 290/425/268
f 287/422/265 292/427/270 291/426/269
f 287/422/265 293/428/271 292/427/270
f 287/422/265 294/429/272 293/428/271
f 287/422/265 295/430/273 294/429/272
f 287/422/265 289/424/267 295/430/273
f 289/431/267 296/432/274 297/433/275
f 289/431/267 288/434/266 296/432/274
f 288/435/266 298/436/276 296/437/274
f 288/435/266 290/438/268 298/436/276
f 290/439/268 299/440/277 298/441/276
f 290/439/268 291/442/269 299/440/277
f 291/443/269 300/444/278 299/445/277
f 291/443/269 292/446/270 300/444/278
f 292/447/270 301/448/279 300/449/278
f 292/447/270 293/450/271 301/448/279
f 293/451/271 302/452/280 301/453/279
f 293/451/271 294/454/272 302/452/280
f 294/455/272 303/456/281 302/457/280
f 294/455/272 295/458/273 303/456/281
f 295/459/273 297/460/275 303/461/281
f 295/459/273 289/462/267 297/460/275
f 304/463/265 305/464/282 306/465/283
f 304/463/265 307/466/284 305/464/282
f 307/466/284 308/467/285 305/464/282
f 307/466/284 309/468/286 308/467/285
f 309/468/286 310/469/287 308/467/285
f 309/468/286 311/470/288 310/469/287
f 311/470/288 312/471/289 310/469/287
f 311/470/288 313/472/290 312/471/289
f 313/472/290 314/473/291 312/471/289
f 313/472/290 315/474/292 314/473/291
f 315/474/292 306/465/283 314/473/291
f 315/474/292 304/463/265 306/465/283
f 306/465/283 316/475/293 317/476/294
f 306/465/283 305/464/282 316/475/293
f 305/464/282 318/477/295 316/475/293
f 305/464/282 308/467/285 318/477/295
f 308/467/285 319/478/296 318/477/295
f 308/467/285 310/469/287 319/478/296
f 310/469/287 320/479/297 319/478/296
f 310/469/287 312/471/289 320/479/297
f 312/471/289 321/480/298 320/479/297
f 312/471/289 314/473/291 321/480/298
f 314/473/291 317/476/294 321/480/298
f 314/473/291 306/465/283 317/476/294
f 317/476/294 322/481/299 323/482/300
f 317/476/294 316/475/293 322/481/299
f 316/475/293 324/483/301 322/481/299
f 316/475/293 318/477/295 324/483/301
f 318/477/295 325/484/302 324/483/301
f 318/477/295 319/478/296 325/484/302
f 319/478/296 326/485/303 325/484/302
f 319/478/296 320/479/297 326/485/303
f 320/479/297 327/486/304 326/485/303
f 320/479/297 321/480/298 327/486/304
f 321/480/298 323/482/300 327/486/304
f 321/480/298 317/476/294 323/482/300
f 323/482/300 328/487/305 329/488/306
f 323/482/300 322/481/299 328/487/305
f 322/481/299 330/489/307 328/487/305
f 322/481/299 324/483/301 330/489/307
f 324/483/301 331/490/308 330/489/307
f 324/483/301 325/484/302 331/490/308
f 325/484/302 332/491/309 331/490/308
f 325/484/302 326/485/303 332/491/309
f 326/485/303 333/492/310 332/491/309
f 326/485/303 327/486/304 333/492/310
f 327/486/304 329/488/306 333/492/310
f 327/486/304 323/482/300 329/488/306
f 329/488/306 334/493/284 335/494/265
f 329/488/306 328/487/305 334/493/284
f 328/487/305 336/495/286 334/493/284
f 328/487/305 330/489/307 336/495/286
f 330/489/307 337/496/288 336/495/286
f 330/489/307 331/490/308 337/496/288
f 331/490/308 338/497/290 337/496/288
f 331/490/308 332/491/309 338/497/290
f 332/491/309 339/498/292 338/497/290
f 332/491/309 333/492/310 339/498/292
f 333/492/310 335/494/265 339/498/292
f 333/492/310 329/488/306 335/494/265
f 340/499/311 341/500/312 342/501/313
f 340/499/311 343/502/314 341/500/312
f 343/502/314 344/503/315 341/500/312
f 343/502/314 345/504/316 344/503/315
f 345/504/316 346/505/317 344/503/315
f 345/504/316 347/506/318 346/505/317
f 347/506/318 348/507/319 346/505/317
f 347/506/318 349/508/320 348/507/319
f 349/508/320 350/509/321 348/507/319
f 349/508/320 351/510/322 350/509/321
f 351/510/322 342/501/313 350/509/321
f 351/510/322 340/499/311 342/501/313
f 342/501/313 352/511/323 353/512/324
f 342/501/313 341/500/312 352/511/323
f 341/500/312 354/513/325 352/511/323
f 341/500/312 344/503/315 354/513/325
f 344/503/315 355/514/326 354/513/325
f 344/503/315 346/505/317 355/514/326
f 346/505/317 356/515/327 355/514/326
f 346/505/317 348/507/319 356/515/327
f 348/507/319 357/516/328 356/515/327
f 348/507/319 350/509/321 357/516/328
f 350/509/321 353/512/324 357/516/328
f 350/509/321 342/501/313 353/512/324
f 353/512/324 358/517/329 359/518/330
f 353/512/324 352/511/323 358/517/329
f 352/511/323 360/519/331 358/517/329
f 352/511/323 354/513/325 360/519/331
f 354/513/325 361/520/332 360/519/331
f 354/513/325 355/514/326 361/520/332
f 355/514/326 362/521/333 361/520/332
f 355/514/326 356/515/327 362/521/333
f 356/515/327 363/522/334 362/521/333
f 356/515/327 357/516/328 363/522/334
f 357/516/328 359/518/330 363/522/334
f 357/516/328 353/512/324 359/518/330
f 364/523/265 365/524/282 366/525/283
f 364/523/265 367/526/284 365/524/282
f 367/526/284 368/527/285 365/524/282
f 367/526/284 369/528/286 368/527/285
f 369/528/286 370/529/287 368/527/285
f 369/528/286 371/530/288 370/529/287
f 371/530/288 372/531/289 370/529/287
f 371/530/288 373/532/290 372/531/289
f 373/532/290 374/533/335 372/531/289
f 373/532/290 375/534/292 374/533/335
f 375/534/292 366/525/283 374/533/335
f 375/534/292 364/523/265 366/525/283
f 366/525/283 376/535/293 377/536/294
f 366/525/283 365/524/282 376/535/293
f 365/524/282 378/537/295 376/535/293
f 365/524/282 368/527/285 378/537/295
f 368/527/285 379/538/296 378/537/295
f 368/527/285 370/529/287 379/538/296
f 370/529/287 380/539/297 379/538/296
f 370/529/287 372/531/289 380/539/297
f 372/531/289 381/540/298 380/539/297
f 372/531/289 374/533/335 381/540/298
f 374/533/335 377/536/294 381/540/298
f 374/533/335 366/525/283 377/536/294
f 377/536/294 382/541/299 383/542/300
f 377/536/294 376/535/293 382/541/299
f 376/535/293 384/543/301 382/541/299
f 376/535/293 378/537/295 384/543/301
f 378/537/295 385/544/302 384/543/301
f 378/537/295 379/538/296 385/544/302
f 379/538/296 386/545/303 385/544/302
f 379/538/296 380/539/297 386/545/303
f 380/539/297 387/546/304 386/545/303
f 380/539/297 381/540/298 387/546/304
f 381/540/298 383/542/300 387/546/304
f 381/540/298 377/536/294 383/542/300
f 383/542/300 388/547/305 389/548/306
f 383/542/300 382/541/299 388/547/305
f 382/541/299 390/549/307 388/547/305
f 382/541/299 384/543/301 390/549/307
f 384/543/301 391/550/308 390/549/307
f 384/543/301 385/544/302 391/550/308
f 385/544/302 392/551/309 391/550/308
f 385/544/302 386/545/303 392/551/309
f 386/545/303 393/552/336 392/551/309
f 386/545/303 387/546/304 393/552/336
f 387/546/304 389/548/306 393/552/336
f 387/546/304 383/542/300 389/548/306
f 389/548/306 394/553/284 395/554/265
f 389/548/306 388/547/305 394/553/284
f 388/547/305 396/555/286 394/553/284
f 388/547/305 390/549/307 396/555/286
f 390/549/307 397/556/288 396/555/286
f 390/549/307 391/550/308 397/556/288
f 391/550/308 398/557/290 397/556/288
f 391/550/308 392/551/309 398/557/290
f 392/551/309 399/558/292 398/557/290
f 392/551/309 393/552/336 399/558/292
f 393/552/336 395/554/265 399/558/292
f 393/552/336 389/548/306 395/554/265
