# Blender v3.0.1 OBJ File: ''
# www.blender.org
mtllib evo_ase.mtl
o evo.ase.001
v 0.320227 1.196022 0.535805
v -0.315224 1.196022 0.535805
v -0.327934 -1.470646 0.628559
v -0.808481 1.196022 0.535805
v -0.840920 -1.470646 0.628559
v 0.332936 -1.470646 0.628559
v 0.845923 -1.470646 0.628559
v 0.813484 1.196022 0.535805
v -0.645059 0.775301 0.525448
v -0.401857 1.098101 0.496553
v -0.401848 1.098096 0.367853
v -0.173848 0.688895 0.367885
v -0.173867 0.688905 0.626785
v 0.184433 0.688905 0.626811
v 0.655541 0.775301 0.525542
v 0.184452 0.688895 0.367911
v 0.412452 1.098096 0.367912
v 0.412443 1.098101 0.496612
v 0.140941 1.155501 0.525290
v -0.130459 1.155501 0.525270
v -0.645043 0.775292 0.303748
v 0.655557 0.775292 0.303842
v -0.522163 -0.822082 0.737208
v -0.555645 -0.759492 0.483903
v -0.551744 -0.802993 0.475005
v -0.544364 -0.866283 0.738408
v -0.003966 -0.873282 0.767847
v -0.003764 -0.822782 0.747445
v -0.002245 -0.754593 0.484943
v -0.519231 -0.700100 0.281203
v -0.000730 -0.696101 0.271841
v -0.000527 -0.732601 0.233642
v -0.524129 -0.739701 0.262904
v 0.569537 -0.822082 0.737587
v 0.591636 -0.866283 0.738790
v 0.594555 -0.802993 0.475288
v 0.605955 -0.759492 0.484087
v 0.555670 -0.700100 0.281281
v 0.560671 -0.739701 0.262983
v -0.522162 -0.905884 0.720111
v -0.530044 -0.846493 0.466208
v -0.002244 -0.851292 0.465346
v -0.003763 -0.909783 0.729748
v -0.502029 -0.783900 0.264108
v -0.000729 -0.783200 0.254144
v 0.569538 -0.905884 0.720490
v 0.563656 -0.846493 0.466387
v 0.538471 -0.783900 0.264283
v -0.597662 -0.028620 0.622758
v -0.622945 0.020272 0.390454
v -0.647944 -0.023228 0.381654
v -0.606162 -0.072420 0.623259
v -0.400764 -0.077819 0.650174
v -0.400462 -0.028919 0.632172
v -0.398045 0.025171 0.391571
v -0.631528 0.066062 0.157552
v -0.395527 0.069463 0.148969
v -0.395225 0.031361 0.113271
v -0.639827 0.025963 0.140053
v -0.203062 -0.028620 0.623087
v -0.194862 -0.072420 0.623489
v -0.148044 -0.023228 0.381790
v -0.173045 0.020272 0.390687
v -0.159728 0.066062 0.157586
v -0.151327 0.025963 0.140088
v -0.597660 -0.112421 0.605761
v -0.622944 -0.066730 0.372758
v -0.398044 -0.071530 0.371874
v -0.400461 -0.115920 0.614476
v -0.631527 -0.017738 0.140555
v -0.395526 -0.017539 0.131272
v -0.203060 -0.112421 0.606090
v -0.173044 -0.066730 0.372990
v -0.159727 -0.017738 0.140589
v -0.492179 -0.069271 0.828533
v -0.503174 -0.051674 0.749632
v -0.515473 -0.090374 0.741732
v -0.496179 -0.107071 0.823934
v -0.391880 -0.108970 0.833142
v -0.391980 -0.068370 0.831841
v -0.392474 -0.047374 0.750540
v -0.506068 -0.037077 0.670231
v -0.393068 -0.034977 0.667439
v -0.393166 -0.071777 0.650441
v -0.510167 -0.073677 0.659632
v -0.291779 -0.069271 0.828548
v -0.287679 -0.107071 0.823949
v -0.269573 -0.090374 0.741750
v -0.281874 -0.051674 0.749648
v -0.280068 -0.037077 0.670247
v -0.275967 -0.073677 0.659649
v -0.492178 -0.143671 0.813336
v -0.503172 -0.129074 0.733935
v -0.392472 -0.133374 0.733043
v -0.391978 -0.145771 0.816143
v -0.506067 -0.111477 0.655034
v -0.393067 -0.112277 0.651742
v -0.291778 -0.143671 0.813351
v -0.281872 -0.129074 0.733951
v -0.280067 -0.111477 0.655050
v 0.285921 -0.068471 0.823289
v 0.273527 -0.051174 0.744488
v 0.261127 -0.090374 0.736588
v 0.281821 -0.106571 0.818791
v 0.386021 -0.103471 0.827898
v 0.386021 -0.062871 0.826697
v 0.385327 -0.041874 0.745396
v 0.269433 -0.036277 0.665087
v 0.384733 -0.029477 0.662295
v 0.384634 -0.066278 0.645297
v 0.265333 -0.073077 0.654388
v 0.486021 -0.058971 0.823303
v 0.490121 -0.096671 0.818805
v 0.509527 -0.079374 0.736606
v 0.497127 -0.041274 0.744504
v 0.500033 -0.026777 0.665103
v 0.504133 -0.063177 0.654405
v 0.285922 -0.142971 0.808192
v 0.273528 -0.128474 0.728791
v 0.385328 -0.127874 0.727899
v 0.386022 -0.140271 0.810900
v 0.269434 -0.110777 0.649890
v 0.384734 -0.106878 0.646598
v 0.486022 -0.133471 0.808206
v 0.497128 -0.118574 0.728807
v 0.500034 -0.101277 0.649906
v 0.195939 -0.028620 0.617916
v 0.163356 0.020272 0.385511
v 0.138856 -0.023228 0.376611
v 0.187839 -0.072420 0.618317
v 0.384537 -0.077819 0.645231
v 0.384438 -0.028919 0.627229
v 0.383455 0.025171 0.386527
v 0.146972 0.066062 0.152408
v 0.382473 0.069463 0.143825
v 0.382376 0.031360 0.108127
v 0.138774 0.025961 0.134909
v 0.572839 -0.028620 0.617943
v 0.581039 -0.072420 0.618345
v 0.628056 -0.023228 0.376647
v 0.603655 0.020272 0.385543
v 0.618072 0.066062 0.152442
v 0.626274 0.025961 0.134944
v 0.195940 -0.112421 0.600819
v 0.163357 -0.066730 0.367815
v 0.383457 -0.071530 0.366831
v 0.384439 -0.115920 0.609532
v 0.146974 -0.017738 0.135312
v 0.382474 -0.017539 0.126129
v 0.572840 -0.112421 0.600846
v 0.603657 -0.066730 0.367846
v 0.618074 -0.017738 0.135346
v 0.351473 1.042975 0.072863
v 0.351473 2.077873 -0.144392
v 0.494944 2.077873 -0.144392
v 0.494944 1.042975 0.072863
v 0.494944 1.861559 0.398336
v 0.494944 1.232087 0.441814
v 0.351473 1.232087 0.441814
v 0.351473 1.861559 0.398336
v 0.390449 1.496148 0.523640
v 0.419435 1.496148 0.523640
v 0.419435 1.510114 0.521590
v 0.390449 1.510114 0.521590
v 0.381608 1.486926 0.504198
v 0.428275 1.486925 0.504198
v 0.428275 1.523436 0.504198
v 0.381608 1.523436 0.504198
v 0.547601 -1.995516 -0.221365
v 0.502510 -2.085516 -0.176274
v 0.483833 -2.085516 -0.221365
v 0.547601 -2.085516 -0.157597
v 0.592691 -2.085515 -0.176274
v 0.611369 -2.085515 -0.221365
v 0.592691 -2.085515 -0.266456
v 0.547601 -2.085516 -0.285133
v 0.502510 -2.085516 -0.266456
v 0.502510 -1.848620 -0.176274
v 0.483833 -1.848620 -0.221365
v 0.547601 -1.848620 -0.157597
v 0.592691 -1.848620 -0.176274
v 0.611369 -1.848620 -0.221365
v 0.592691 -1.848620 -0.266456
v 0.547601 -1.848620 -0.285133
v 0.502510 -1.848620 -0.266456
v 0.412777 -1.835130 -0.172216
v 0.386017 -1.835130 -0.221365
v 0.547600 -1.835130 -0.151858
v 0.682421 -1.835130 -0.172216
v 0.709181 -1.835130 -0.221365
v 0.682421 -1.835130 -0.270514
v 0.547600 -1.835130 -0.290873
v 0.412778 -1.835130 -0.270514
v 0.412777 -1.590037 -0.159108
v 0.386017 -1.590037 -0.175712
v 0.547600 -1.590037 -0.152231
v 0.682421 -1.590036 -0.159108
v 0.709182 -1.590036 -0.175712
v 0.682421 -1.590036 -0.192317
v 0.547600 -1.590037 -0.199195
v 0.412778 -1.590037 -0.192317
v 0.547600 -1.590037 -0.175712
v 0.787040 -1.245762 -0.030135
v 0.174487 -1.213356 0.025996
v 0.174487 -1.245762 -0.030135
v 0.787040 -1.213356 0.025996
v 0.174487 -1.148542 0.025996
v 0.787040 -1.148542 0.025996
v 0.174487 -1.116136 -0.030134
v 0.787040 -1.116136 -0.030134
v 0.174487 -1.148542 -0.086266
v 0.787040 -1.148542 -0.086266
v 0.174487 -1.213356 -0.086266
v 0.787040 -1.213356 -0.086266
v 0.155143 -1.262290 0.110751
v 0.155143 -1.343630 -0.030135
v 0.155143 -1.099608 0.110752
v 0.155143 -1.018267 -0.030134
v 0.155143 -1.099608 -0.171022
v 0.155143 -1.262290 -0.171022
v -0.157874 -1.262290 0.110751
v -0.157874 -1.343630 -0.030135
v -0.157874 -1.099608 0.110752
v -0.157874 -1.018267 -0.030134
v -0.157874 -1.099608 -0.171022
v -0.157874 -1.262290 -0.171022
v -0.177217 -1.213356 0.025996
v -0.177217 -1.245762 -0.030135
v -0.177217 -1.148542 0.025996
v -0.177217 -1.116136 -0.030134
v -0.177217 -1.148542 -0.086266
v -0.177217 -1.213356 -0.086266
v -0.789770 -1.213356 0.025996
v -0.789770 -1.245762 -0.030135
v -0.789770 -1.148542 0.025996
v -0.789770 -1.116136 -0.030134
v -0.789770 -1.148542 -0.086266
v -0.789770 -1.213356 -0.086266
v -0.495358 -1.591778 0.008197
v -0.495358 -0.749276 -0.073786
v -0.351887 -0.749276 -0.073786
v -0.351887 -1.591778 0.008197
v -0.351887 -0.826350 0.348430
v -0.351887 -1.486009 0.348429
v -0.495358 -1.486009 0.348429
v -0.495358 -0.826350 0.348430
v 0.845923 1.961239 0.095227
v 0.888094 1.961239 -0.264193
v 0.735911 2.274282 -0.229411
v 0.733622 2.274282 0.130009
v 0.837218 1.975307 0.115050
v 0.706355 2.232991 0.135488
v 0.706355 2.104037 0.323960
v 0.837218 1.876111 0.303522
v 0.845923 1.845297 0.315517
v 0.733622 2.123558 0.350299
v 0.845923 1.648195 0.396676
v 0.733622 1.543848 0.477834
v 0.845923 1.520659 0.408269
v -0.327934 -1.470646 0.628559
v 0.845923 1.323558 0.373487
v 0.913397 -0.786587 0.025661
v 0.845923 -0.809776 -0.194629
v 0.845923 1.068485 -0.217818
v 0.845923 1.196022 0.257544
v 0.845923 -1.957602 -0.148254
v 0.845923 -1.563398 -0.148254
v 0.913397 -1.528616 0.141602
v 0.845923 -2.085138 0.118412
v 0.790746 -2.073544 -0.125065
v 0.845923 -2.038762 0.199572
v 0.790746 -1.992384 0.547398
v 0.813484 1.196022 0.535805
v 0.895536 -1.424268 0.327109
v 0.895536 -1.099631 0.327109
v 0.670812 -1.169196 0.860443
v 0.670812 0.477181 0.918414
v 0.568780 -0.844559 0.987979
v 0.568780 0.187326 0.999574
v 0.913397 -0.914124 0.234356
v 0.845923 1.114862 -0.148253
v 0.845923 1.126457 0.095226
v 0.332936 2.053992 -0.264193
v 0.332936 2.367036 -0.229411
v 0.332936 2.053992 0.095227
v 0.372719 2.367036 0.130009
v 0.406998 2.312348 0.135488
v 0.508396 2.183394 0.323960
v 0.332936 1.845297 0.315517
v 0.571327 2.011150 0.377881
v -0.006294 2.003198 0.413262
v 0.332936 1.543848 0.517771
v 0.656494 1.818539 0.425046
v 0.332936 1.648195 0.396676
v 0.332936 1.520659 0.408269
v 0.320227 1.196022 0.535805
v 0.332936 1.323558 0.373487
v 0.332936 -0.773656 -0.026764
v 0.332936 1.032365 -0.049952
v 0.332936 -0.786587 0.025661
v 0.332936 1.196022 0.257544
v 0.332936 -1.563398 -0.148254
v 0.332936 -1.528616 0.141602
v 0.332936 -2.006791 -0.148254
v 0.332936 -2.122734 -0.125065
v 0.332936 -2.134328 0.118412
v 0.332936 -2.087951 0.199572
v 0.332936 -2.041574 0.547398
v 0.845923 -1.470646 0.628559
v 0.332936 -1.424268 0.327109
v 0.332936 -1.099631 0.327109
v 0.264331 -1.227428 0.883631
v 0.224357 -0.880066 1.011168
v 0.332936 -0.914124 0.234356
v 0.224357 0.224051 1.022761
v 0.264331 0.534195 0.941603
v 0.332936 1.114862 0.033817
v 0.332936 1.126457 0.095226
v -0.883091 1.961239 -0.264193
v -0.840920 1.961239 0.095227
v -0.730908 2.274282 -0.229411
v -0.728620 2.274282 0.130009
v -0.714395 2.232634 0.128663
v -0.833194 1.976875 0.113396
v -0.714395 2.100420 0.321900
v -0.833194 1.875172 0.306634
v -0.728620 2.123558 0.350299
v -0.840920 1.648195 0.396676
v -0.728620 1.543848 0.477834
v -0.840920 1.845297 0.315517
v -0.808481 1.196022 0.535805
v -0.840920 1.520659 0.408269
v -0.840920 1.323558 0.373487
v -0.840920 -0.809776 -0.194629
v -0.908394 -0.786587 0.025661
v -0.840920 1.068485 -0.217818
v -0.840920 1.196022 0.257544
v -0.840920 -1.563398 -0.148254
v -0.840920 -1.957602 -0.148254
v -0.908394 -1.528616 0.141602
v -0.785743 -2.073544 -0.125065
v -0.840920 -2.085138 0.118412
v -0.840920 -2.038762 0.199572
v -0.840920 -1.470646 0.628559
v -0.785743 -1.992384 0.547398
v -0.890533 -1.424268 0.327109
v -0.890533 -1.099631 0.327109
v -0.908394 -0.914124 0.234356
v -0.665810 0.477181 0.918414
v -0.665809 -1.169196 0.860443
v -0.563778 -0.844559 0.987979
v -0.563778 0.187326 0.999574
v -0.840920 1.114862 -0.148253
v -0.840920 1.126457 0.095226
v -0.327934 2.053992 -0.264193
v -0.327934 2.367036 -0.229411
v -0.327934 2.053992 0.095227
v -0.367454 2.367036 0.130009
v -0.406634 2.313997 0.128663
v -0.508645 2.181782 0.321900
v -0.327934 1.845297 0.315517
v -0.578762 2.000047 0.384314
v -0.653970 1.792235 0.448712
v -0.327934 1.543848 0.517771
v -0.327934 1.648195 0.396676
v -0.327934 1.520659 0.408269
v -0.315224 1.196022 0.535805
v -0.327934 1.323558 0.373487
v -0.327934 -0.773656 -0.026764
v -0.327934 1.032365 -0.049952
v -0.327934 -0.786587 0.025661
v -0.327934 1.196022 0.257544
v -0.327934 -1.563398 -0.148254
v -0.327934 -1.528616 0.141602
v -0.327934 -2.006791 -0.148254
v -0.327934 -2.122734 -0.125065
v -0.327934 -2.134328 0.118412
v -0.327934 -2.087951 0.199572
v -0.327934 -2.041574 0.547398
v 0.332936 -1.470646 0.628559
v -0.327934 -1.424268 0.327109
v -0.327934 -1.099631 0.327109
v -0.259330 -1.227428 0.883631
v -0.219355 -0.880066 1.011168
v -0.327934 -0.914124 0.234356
v -0.219355 0.224051 1.022761
v -0.259330 0.534195 0.941603
v -0.327934 1.114862 0.033817
v -0.327934 1.126457 0.095226
v -0.150552 0.311453 1.047259
v 0.151294 0.311453 1.047259
v -0.177745 0.506821 1.047388
v 0.178487 0.506821 1.047388
v -0.459670 2.216311 0.350299
v 0.465547 2.216311 0.350299
v -0.175908 1.756709 0.468985
v -0.418920 1.496148 0.523640
v -0.389934 1.496148 0.523640
v -0.389934 1.510114 0.521590
v -0.418920 1.510114 0.521590
v -0.427760 1.486926 0.504198
v -0.381094 1.486925 0.504198
v -0.381094 1.523436 0.504198
v -0.427760 1.523436 0.504198
v 0.351473 -1.591778 0.008197
v 0.351473 -0.749276 -0.073786
v 0.494944 -0.749276 -0.073786
v 0.494944 -1.591778 0.008197
v 0.494944 -0.826350 0.348430
v 0.494944 -1.486009 0.348429
v 0.351473 -1.486009 0.348429
v 0.351473 -0.826350 0.348430
v 0.787040 1.478999 -0.030134
v 0.174487 1.511406 0.025996
v 0.174487 1.478999 -0.030134
v 0.787040 1.511406 0.025996
v 0.174487 1.576219 0.025997
v 0.787040 1.576219 0.025997
v 0.174487 1.608626 -0.030133
v 0.787040 1.608626 -0.030133
v 0.174487 1.576219 -0.086263
v 0.787040 1.576219 -0.086263
v 0.174487 1.511406 -0.086264
v 0.787040 1.511406 -0.086264
v 0.155143 1.462472 0.110752
v 0.155143 1.381130 -0.030134
v 0.155143 1.625154 0.110753
v 0.155143 1.706495 -0.030133
v 0.155143 1.625154 -0.171020
v 0.155143 1.462472 -0.171021
v -0.157874 1.462472 0.110752
v -0.157874 1.381130 -0.030134
v -0.157874 1.625154 0.110753
v -0.157874 1.706495 -0.030133
v -0.157874 1.625154 -0.171020
v -0.157874 1.462472 -0.171021
v -0.177217 1.511406 0.025996
v -0.177217 1.478999 -0.030134
v -0.177217 1.576219 0.025997
v -0.177217 1.608626 -0.030133
v -0.177217 1.576219 -0.086263
v -0.177217 1.511406 -0.086264
v -0.789770 1.511406 0.025996
v -0.789770 1.478999 -0.030134
v -0.789770 1.576219 0.025997
v -0.789770 1.608626 -0.030133
v -0.789770 1.576219 -0.086263
v -0.789770 1.511406 -0.086264
v -0.076722 -1.183027 0.001348
v -0.038818 -0.875797 -0.073448
v -0.076722 -0.888887 -0.137783
v -0.038818 -1.156324 0.061323
v 0.036992 -0.875797 -0.073448
v 0.036992 -1.156324 0.061323
v 0.074897 -0.888887 -0.137783
v 0.074897 -1.183027 0.001346
v 0.036992 -0.901976 -0.202119
v 0.036992 -1.209731 -0.058630
v -0.038818 -0.901976 -0.202119
v -0.038818 -1.209731 -0.058630
v -0.038818 1.203170 -0.073565
v -0.076722 1.216820 -0.137783
v 0.036992 1.203170 -0.073565
v 0.074897 1.216820 -0.137783
v 0.036992 1.230470 -0.202002
v -0.038818 1.230470 -0.202001
v -0.038818 1.494048 0.057325
v -0.076722 1.528351 0.001348
v 0.036992 1.494048 0.057325
v 0.074897 1.528352 0.001348
v 0.036992 1.562656 -0.054630
v -0.038818 1.562656 -0.054630
v -0.495358 1.042975 0.072863
v -0.495358 2.077873 -0.144392
v -0.351887 2.077873 -0.144392
v -0.351887 1.042975 0.072863
v -0.351887 1.861559 0.398336
v -0.351887 1.232087 0.441814
v -0.495358 1.232087 0.441814
v -0.495358 1.861559 0.398336
v -0.721844 -1.864544 0.909656
v -0.754662 -1.563095 0.598036
v -0.689051 -1.563095 0.876863
v -0.754662 -1.864543 0.548845
v 0.689360 -1.563095 0.876667
v 0.721866 -1.864544 0.909745
v 0.754772 -1.563095 0.597883
v 0.754772 -1.864544 0.548694
v -0.771067 -1.563095 0.597883
v -0.734142 -1.864544 0.921954
v -0.701348 -1.563095 0.889160
v -0.771067 -1.864543 0.548694
v 0.734056 -1.864544 0.922150
v 0.701550 -1.563095 0.889072
v 0.771179 -1.864544 0.548845
v 0.771179 -1.563095 0.598036
v -0.821674 0.911188 0.607606
v -0.772226 0.905093 0.591325
v -0.782197 0.959880 0.581338
v -0.867264 0.956513 0.606721
v -0.881531 0.897560 0.665044
v -0.912094 0.946255 0.643779
v -0.932651 0.873185 0.690370
v -0.952094 0.931471 0.660118
v -0.993889 0.827164 0.678759
v -0.999338 0.895271 0.655739
v -0.852074 0.915460 0.515855
v -0.886877 0.959269 0.547528
v -0.801282 0.965172 0.522143
v -0.801810 0.913296 0.499574
v -0.933670 0.895284 0.509068
v -0.945732 0.944786 0.543148
v -0.982560 0.857926 0.534392
v -0.984293 0.921626 0.559487
v -1.023247 0.818189 0.587008
v -1.018279 0.889481 0.596544
v -0.367454 2.367036 0.130009
v -0.728620 2.123558 0.350299
v -0.459670 2.216311 0.350299
v -0.728620 2.274282 0.130009
v -0.840920 1.845297 0.315517
v -0.833194 1.976875 0.113396
v 0.733622 2.123558 0.350299
v 0.733622 2.274282 0.130009
v 0.465547 2.216311 0.350299
v 0.372719 2.367036 0.130009
v 0.845923 1.961239 0.095227
v 0.845923 1.845297 0.315517
v 0.784903 0.959880 0.581338
v 0.774934 0.905092 0.591325
v 0.824380 0.911188 0.607606
v 0.869971 0.956513 0.606721
v 0.884238 0.897560 0.665044
v 0.914801 0.946255 0.643779
v 0.935358 0.873183 0.690370
v 0.954800 0.931471 0.660118
v 0.996596 0.827164 0.678759
v 1.002046 0.895271 0.655739
v 0.803989 0.965172 0.522143
v 0.889584 0.959269 0.547528
v 0.854780 0.915460 0.515855
v 0.804517 0.913296 0.499574
v 0.948439 0.944786 0.543148
v 0.936377 0.895284 0.509068
v 0.987000 0.921626 0.559487
v 0.985266 0.857926 0.534392
v 1.020986 0.889481 0.596544
v 1.025954 0.818189 0.587008
v 0.670812 -1.169196 0.860443
v 0.670812 0.477181 0.918414
v 0.568780 -0.844559 0.987979
v 0.568780 0.187326 0.999574
v 0.264331 -1.227428 0.883631
v 0.224357 -0.880066 1.011168
v 0.224357 0.224051 1.022761
v 0.264331 0.534195 0.941603
v -0.665810 0.477181 0.918414
v -0.665809 -1.169196 0.860443
v -0.563778 -0.844559 0.987979
v -0.563778 0.187326 0.999574
v -0.259330 -1.227428 0.883631
v -0.219355 -0.880066 1.011168
v -0.219355 0.224051 1.022761
v -0.259330 0.534195 0.941603
v -0.150552 0.311453 1.047259
v 0.151294 0.311453 1.047259
v -0.177745 0.506821 1.047388
v 0.178487 0.506821 1.047388
vt 0.093750 0.289062
vt 0.093750 0.289062
vt 0.093750 0.289062
vt 0.093750 0.289062
vt 0.093750 0.289062
vt 0.093750 0.289062
vt 0.093750 0.289062
vt 0.093750 0.289062
vt 0.450677 0.874425
vt 0.497504 0.861376
vt 0.497676 0.842764
vt 0.542137 0.832018
vt 0.542137 0.839067
vt 0.524089 0.838075
vt 0.555860 0.839067
vt 0.573908 0.838075
vt 0.555860 0.832018
vt 0.499044 0.842764
vt 0.498873 0.861376
vt 0.452046 0.874425
vt 0.474792 0.824741
vt 0.482287 0.829817
vt 0.484295 0.819981
vt 0.473469 0.813409
vt 0.473469 0.819076
vt 0.474792 0.807742
vt 0.484295 0.812502
vt 0.450954 0.842356
vt 0.524089 0.832041
vt 0.573908 0.832041
vt 0.452323 0.842356
vt 0.482287 0.802665
vt 0.488070 0.919772
vt 0.505888 0.919772
vt 0.505888 0.898700
vt 0.523706 0.919772
vt 0.523706 0.898700
vt 0.505888 0.898700
vt 0.523706 0.898700
vt 0.505892 0.899248
vt 0.488070 0.919772
vt 0.505888 0.919772
vt 0.505888 0.898700
vt 0.523706 0.919772
vt 0.523706 0.898700
vt 0.488070 0.919772
vt 0.505888 0.919772
vt 0.523706 0.919772
vt 0.523706 0.898700
vt 0.505888 0.898700
vt 0.523706 0.877628
vt 0.505888 0.877628
vt 0.488070 0.919772
vt 0.505888 0.919772
vt 0.523706 0.919772
vt 0.523706 0.898700
vt 0.488070 0.877628
vt 0.488070 0.898700
vt 0.488070 0.877628
vt 0.488070 0.898700
vt 0.488070 0.919772
vt 0.505888 0.919772
vt 0.505927 0.899193
vt 0.523706 0.877628
vt 0.505888 0.877628
vt 0.488070 0.877628
vt 0.488070 0.898700
vt 0.523706 0.919772
vt 0.523706 0.898700
vt 0.523706 0.877628
vt 0.505888 0.877628
vt 0.488070 0.877628
vt 0.488070 0.898700
vt 0.488070 0.898700
vt 0.523706 0.877628
vt 0.505888 0.877628
vt 0.523706 0.877628
vt 0.505888 0.877628
vt 0.488070 0.877628
vt 0.488070 0.898700
vt 0.487042 0.919713
vt 0.505325 0.919713
vt 0.505325 0.899624
vt 0.523608 0.919713
vt 0.523608 0.899624
vt 0.505325 0.899624
vt 0.523608 0.899624
vt 0.505329 0.901569
vt 0.487042 0.919713
vt 0.505325 0.919713
vt 0.505325 0.899624
vt 0.523608 0.919713
vt 0.523608 0.899624
vt 0.487042 0.919713
vt 0.505325 0.919713
vt 0.523608 0.919713
vt 0.523608 0.899624
vt 0.505325 0.899624
vt 0.523608 0.879535
vt 0.505325 0.879535
vt 0.487042 0.919713
vt 0.505325 0.919713
vt 0.523608 0.919713
vt 0.523608 0.899624
vt 0.487042 0.879535
vt 0.487042 0.899624
vt 0.487042 0.879535
vt 0.487042 0.899624
vt 0.487042 0.919713
vt 0.505325 0.919713
vt 0.505497 0.901376
vt 0.523608 0.879535
vt 0.505325 0.879535
vt 0.487042 0.879535
vt 0.487042 0.899624
vt 0.523608 0.919713
vt 0.523608 0.899624
vt 0.523608 0.879535
vt 0.505325 0.879535
vt 0.487042 0.879535
vt 0.487042 0.899624
vt 0.487042 0.899624
vt 0.523608 0.879535
vt 0.505325 0.879535
vt 0.523608 0.879535
vt 0.505325 0.879535
vt 0.487042 0.879535
vt 0.487042 0.899624
vt 0.487042 0.919713
vt 0.505325 0.919713
vt 0.505325 0.899624
vt 0.523608 0.919713
vt 0.523608 0.899624
vt 0.505325 0.899624
vt 0.523608 0.899624
vt 0.505325 0.900983
vt 0.487042 0.919713
vt 0.505325 0.919713
vt 0.505325 0.899624
vt 0.523608 0.919713
vt 0.523608 0.899624
vt 0.487042 0.899624
vt 0.487042 0.919713
vt 0.505325 0.919713
vt 0.523608 0.919713
vt 0.523608 0.899624
vt 0.505325 0.899624
vt 0.523608 0.879535
vt 0.505325 0.879535
vt 0.487042 0.919713
vt 0.505325 0.919713
vt 0.523608 0.919713
vt 0.523608 0.899624
vt 0.487042 0.879535
vt 0.487042 0.879535
vt 0.487042 0.899624
vt 0.487042 0.919713
vt 0.505325 0.919713
vt 0.505450 0.900846
vt 0.523608 0.879535
vt 0.505325 0.879535
vt 0.487042 0.879535
vt 0.487042 0.899624
vt 0.523608 0.919713
vt 0.523608 0.899624
vt 0.523608 0.879535
vt 0.505325 0.879535
vt 0.487042 0.879535
vt 0.487042 0.899624
vt 0.487042 0.899624
vt 0.523608 0.879535
vt 0.505325 0.879535
vt 0.523608 0.879535
vt 0.505325 0.879535
vt 0.487042 0.879535
vt 0.487042 0.899624
vt 0.487692 0.919342
vt 0.504200 0.919342
vt 0.504200 0.903555
vt 0.520707 0.919342
vt 0.520707 0.903555
vt 0.504200 0.903555
vt 0.520707 0.903555
vt 0.504187 0.904792
vt 0.487692 0.919342
vt 0.504200 0.919342
vt 0.504200 0.903555
vt 0.520707 0.919342
vt 0.520707 0.903555
vt 0.487692 0.903555
vt 0.487692 0.919342
vt 0.504200 0.919342
vt 0.520707 0.919342
vt 0.520707 0.903555
vt 0.504200 0.903555
vt 0.520707 0.887767
vt 0.504200 0.887767
vt 0.487692 0.919342
vt 0.504200 0.919342
vt 0.520707 0.919342
vt 0.520707 0.903555
vt 0.487692 0.887767
vt 0.487692 0.887767
vt 0.487692 0.903555
vt 0.487692 0.919342
vt 0.504200 0.919342
vt 0.504345 0.904669
vt 0.520707 0.887767
vt 0.504200 0.887767
vt 0.487692 0.887767
vt 0.487692 0.903555
vt 0.520707 0.919342
vt 0.520707 0.903555
vt 0.520707 0.887767
vt 0.504200 0.887767
vt 0.487692 0.887767
vt 0.487692 0.903555
vt 0.487692 0.903555
vt 0.520707 0.887767
vt 0.504200 0.887767
vt 0.520707 0.887767
vt 0.504200 0.887767
vt 0.487692 0.887767
vt 0.487692 0.903555
vt 0.487692 0.919342
vt 0.504200 0.919342
vt 0.504200 0.903555
vt 0.520707 0.919342
vt 0.520707 0.903555
vt 0.504200 0.903555
vt 0.520707 0.903555
vt 0.504200 0.905418
vt 0.487692 0.919342
vt 0.504200 0.919342
vt 0.504200 0.903555
vt 0.520707 0.919342
vt 0.520707 0.903555
vt 0.487692 0.903555
vt 0.487692 0.919342
vt 0.504200 0.919342
vt 0.520707 0.919342
vt 0.520707 0.903555
vt 0.504200 0.903555
vt 0.520707 0.887767
vt 0.504200 0.887767
vt 0.487692 0.919342
vt 0.504200 0.919342
vt 0.520707 0.919342
vt 0.520707 0.903555
vt 0.487692 0.887767
vt 0.487692 0.887767
vt 0.487692 0.903555
vt 0.487692 0.919342
vt 0.504200 0.919342
vt 0.504394 0.905231
vt 0.520707 0.887767
vt 0.504200 0.887767
vt 0.487692 0.887767
vt 0.487692 0.903555
vt 0.520707 0.919342
vt 0.520707 0.903555
vt 0.520707 0.887767
vt 0.504200 0.887767
vt 0.487692 0.887767
vt 0.487692 0.903555
vt 0.487692 0.903555
vt 0.520707 0.887767
vt 0.504200 0.887767
vt 0.520707 0.887767
vt 0.504200 0.887767
vt 0.487692 0.887767
vt 0.487692 0.903555
vt 0.758949 0.277225
vt 0.408364 0.283671
vt 0.829089 0.230601
vt 0.689760 0.304132
vt 0.466982 0.304058
vt 0.281720 0.214498
vt 0.361564 0.902528
vt 0.272273 0.862183
vt 0.262316 0.901768
vt 0.378027 0.858707
vt 0.354782 0.937905
vt 0.259027 0.937565
vt 0.904551 0.824777
vt 0.723959 0.868471
vt 0.910379 0.868479
vt 0.730185 0.824871
vt 0.954322 0.811943
vt 0.963621 0.863375
vt 0.513881 0.592392
vt 0.661798 0.686282
vt 0.640700 0.592392
vt 0.556128 0.683768
vt 0.424883 0.293740
vt 0.829584 0.231898
vt 0.281424 0.214040
vt 0.760735 0.276127
vt 0.691619 0.305203
vt 0.474557 0.305019
vt 0.181545 0.901627
vt 0.170511 0.862183
vt 0.074971 0.900880
vt 0.054818 0.858733
vt 0.185496 0.937770
vt 0.089331 0.938160
vt 0.910684 0.924582
vt 0.723959 0.924672
vt 0.904551 0.968234
vt 0.730185 0.968322
vt 0.963698 0.929696
vt 0.954322 0.981244
vt 0.804069 0.592392
vt 0.793272 0.686282
vt 0.930888 0.592392
vt 0.890466 0.683768
vt 0.925107 0.915817
vt 0.958063 0.919040
vt 0.925107 0.877584
vt 0.958130 0.874040
vt 0.598726 0.925651
vt 0.540198 0.933777
vt 0.539095 0.925836
vt 0.597624 0.917710
vt 0.553244 0.896414
vt 0.588502 0.896414
vt 0.595752 0.948626
vt 0.561827 0.958232
vt 0.348274 0.610002
vt 0.348274 0.614465
vt 0.346106 0.614461
vt 0.346106 0.609998
vt 0.343518 0.598766
vt 0.343518 0.605953
vt 0.340521 0.604591
vt 0.340521 0.600128
vt 0.349187 0.598768
vt 0.349187 0.604383
vt 0.346419 0.602384
vt 0.346102 0.600232
vt 0.343514 0.613138
vt 0.343514 0.605951
vt 0.346102 0.607311
vt 0.346102 0.611774
vt 0.352188 0.598760
vt 0.352188 0.604375
vt 0.349187 0.602910
vt 0.349504 0.600767
vt 0.347750 0.608396
vt 0.355905 0.588724
vt 0.367438 0.600248
vt 0.339595 0.588724
vt 0.328061 0.600248
vt 0.328061 0.616545
vt 0.339595 0.628073
vt 0.355905 0.628073
vt 0.367438 0.616545
vt 0.301806 0.592858
vt 0.303646 0.604483
vt 0.301806 0.604449
vt 0.303646 0.592887
vt 0.305015 0.604077
vt 0.302750 0.592273
vt 0.305022 0.592223
vt 0.302743 0.604127
vt 0.300499 0.592218
vt 0.300493 0.604072
vt 0.298115 0.593329
vt 0.300195 0.603926
vt 0.298115 0.603953
vt 0.300195 0.593302
vt 0.298991 0.594207
vt 0.301926 0.602006
vt 0.300091 0.601786
vt 0.300412 0.593976
vt 0.303623 0.601464
vt 0.301904 0.593688
vt 0.305293 0.601304
vt 0.303310 0.593373
vt 0.306715 0.600494
vt 0.304855 0.592990
vt 0.308922 0.600229
vt 0.308942 0.601652
vt 0.306827 0.599258
vt 0.306224 0.598052
vt 0.218153 0.854294
vt 0.211174 0.854446
vt 0.211166 0.852417
vt 0.190425 0.852219
vt 0.298561 0.599220
vt 0.298801 0.600740
vt 0.297942 0.603470
vt 0.299199 0.604078
vt 0.298766 0.605146
vt 0.299076 0.608585
vt 0.297356 0.608770
vt 0.301668 0.605494
vt 0.304480 0.605396
vt 0.303705 0.601944
vt 0.307513 0.602263
vt 0.304350 0.604637
vt 0.306991 0.604383
vt 0.310501 0.605899
vt 0.312760 0.604933
vt 0.309239 0.603102
vt 0.699309 0.828827
vt 0.699309 0.866226
vt 0.695171 0.865891
vt 0.300178 0.601746
vt 0.298599 0.600537
vt 0.298914 0.594290
vt 0.231977 0.852264
vt 0.211189 0.814728
vt 0.231977 0.814697
vt 0.310138 0.593204
vt 0.190425 0.814636
vt 0.186328 0.814499
vt 0.298745 0.610106
vt 0.299686 0.610084
vt 0.300287 0.603961
vt 0.304408 0.610218
vt 0.309000 0.609660
vt 0.310138 0.609590
vt 0.256048 0.558826
vt 0.254780 0.533978
vt 0.257542 0.537964
vt 0.259657 0.558643
vt 0.259657 0.579430
vt 0.257313 0.583675
vt 0.254551 0.579689
vt 0.304343 0.611037
vt 0.252436 0.559010
vt 0.252436 0.538223
vt 0.488205 0.909943
vt 0.492923 0.909302
vt 0.492093 0.912060
vt 0.489040 0.911887
vt 0.490104 0.908195
vt 0.490796 0.911682
vt 0.488534 0.909469
vt 0.491633 0.910543
vt 0.488526 0.911168
vt 0.491260 0.909286
vt 0.489822 0.912414
vt 0.489728 0.908696
vt 0.539095 0.897003
vt 0.493474 0.915706
vt 0.488099 0.904593
vt 0.486184 0.909149
vt 0.486818 0.912149
vt 0.488827 0.914352
vt 0.469823 0.958232
vt 0.484896 0.921475
vt 0.025037 0.989923
vt 0.000000 0.941741
vt 0.025037 0.941727
vt 0.448905 0.897003
vt 0.478416 0.910794
vt 0.481981 0.914205
vt 0.483777 0.917046
vt 0.475670 0.923425
vt 0.480722 0.920574
vt 0.471132 0.917445
vt 0.477398 0.915024
vt 0.480031 0.916384
vt 0.481070 0.918200
vt 0.479227 0.918351
vt 0.479015 0.918328
vt 0.479150 0.918502
vt 0.478955 0.918457
vt 0.478840 0.918422
vt 0.478696 0.918497
vt 0.562160 0.896414
vt 0.562160 0.849113
vt 0.570177 0.849113
vt 0.570177 0.896414
vt 0.593242 0.855685
vt 0.589672 0.892373
vt 0.542665 0.892373
vt 0.539095 0.855685
vt 0.031755 0.078312
vt 0.099163 0.068230
vt 0.106374 0.118738
vt 0.048425 0.128550
vt 0.486515 0.503799
vt 0.524904 0.505043
vt 0.538996 0.548287
vt 0.492480 0.549456
vt 0.163052 0.176876
vt 0.070682 0.174346
vt 0.209605 0.178350
vt 0.214384 0.204398
vt 0.239468 0.166640
vt 0.281720 0.214498
vt 0.261850 0.142968
vt 0.678655 0.104178
vt 0.682515 0.055571
vt 0.299062 0.050764
vt 0.270261 0.112388
vt 0.912651 0.066468
vt 0.831272 0.065929
vt 0.825059 0.121655
vt 0.404313 0.000000
vt 0.441001 0.003723
vt 0.444468 0.021378
vt 0.939099 0.120204
vt 0.929562 0.136437
vt 0.919467 0.208226
vt 0.829089 0.230601
vt 0.803379 0.159409
vt 0.743201 0.160918
vt 0.758949 0.277225
vt 0.408364 0.283671
vt 0.689760 0.304132
vt 0.466982 0.304058
vt 0.704111 0.144318
vt 0.362119 0.859463
vt 0.357050 0.847677
vt 0.362119 0.810589
vt 0.441872 0.617973
vt 0.441872 0.501820
vt 0.443949 0.549978
vt 0.299084 0.050846
vt 0.685937 0.986826
vt 0.687498 0.932177
vt 0.703620 0.929657
vt 0.701036 0.969184
vt 0.668337 0.981450
vt 0.669321 0.932179
vt 0.460615 0.389111
vt 0.603659 0.390329
vt 0.603355 0.500138
vt 0.482713 0.498202
vt 0.595960 0.510332
vt 0.579141 0.542760
vt 0.655751 0.982485
vt 0.654124 0.933637
vt 0.193871 0.520847
vt 0.118963 0.519833
vt 0.163061 0.459123
vt 0.205011 0.495506
vt 0.215105 0.459453
vt 0.214970 0.535645
vt 0.645085 0.983769
vt 0.643414 0.934710
vt 0.638666 0.984573
vt 0.636942 0.935348
vt 0.161344 0.413861
vt 0.225554 0.413861
vt 0.628664 0.985897
vt 0.626723 0.936366
vt 0.502791 0.985563
vt 0.499860 0.933373
vt 0.599041 0.938734
vt 0.594945 0.992124
vt 0.492499 0.987851
vt 0.497038 0.932972
vt 0.620039 0.987199
vt 0.617823 0.937250
vt 0.433070 0.971874
vt 0.434196 0.926398
vt 0.447970 0.927459
vt 0.446432 0.979191
vt 0.414803 0.970381
vt 0.413458 0.924954
vt 0.409415 0.965128
vt 0.407967 0.924601
vt 0.391290 0.690817
vt 0.285891 0.690817
vt 0.285891 0.638876
vt 0.379950 0.638876
vt 0.391290 0.710739
vt 0.285891 0.710739
vt 0.379875 0.778697
vt 0.285584 0.779177
vt 0.378027 0.858707
vt 0.272273 0.862183
vt 0.458105 0.928324
vt 0.456386 0.978774
vt 0.473950 0.929908
vt 0.471446 0.981119
vt 0.361564 0.902528
vt 0.262316 0.901768
vt 0.354782 0.937905
vt 0.259027 0.937565
vt 0.484319 0.931148
vt 0.481071 0.984726
vt 0.904551 0.824777
vt 0.910379 0.868479
vt 0.723959 0.868471
vt 0.730185 0.824871
vt 0.954322 0.811943
vt 0.963621 0.863375
vt 0.513881 0.592392
vt 0.640700 0.592392
vt 0.661798 0.686282
vt 0.556128 0.683768
vt 0.599159 0.991514
vt 0.605285 0.938552
vt 0.608543 0.938161
vt 0.611207 0.988756
vt 0.099163 0.068230
vt 0.106374 0.118738
vt 0.031755 0.078312
vt 0.048425 0.128550
vt 0.524904 0.505043
vt 0.486515 0.503799
vt 0.538996 0.548287
vt 0.492480 0.549456
vt 0.070884 0.174335
vt 0.209521 0.178745
vt 0.214207 0.204141
vt 0.138860 0.163537
vt 0.164187 0.177415
vt 0.281424 0.214040
vt 0.239591 0.166618
vt 0.261573 0.142921
vt 0.683725 0.054786
vt 0.679393 0.104717
vt 0.299114 0.050901
vt 0.270057 0.112637
vt 0.836876 0.064252
vt 0.908653 0.065758
vt 0.825318 0.121605
vt 0.936978 0.071060
vt 0.936605 0.117235
vt 0.928263 0.133781
vt 0.829584 0.231898
vt 0.919217 0.208085
vt 0.802270 0.159114
vt 0.744244 0.161210
vt 0.703815 0.144728
vt 0.424883 0.293740
vt 0.760735 0.276127
vt 0.691619 0.305203
vt 0.474557 0.305019
vt 0.357050 0.773399
vt 0.362119 0.761568
vt 0.362119 0.810589
vt 0.443949 0.617973
vt 0.443949 0.734127
vt 0.441872 0.666132
vt 0.299114 0.050978
vt 0.686231 0.866735
vt 0.681950 0.812573
vt 0.702135 0.866361
vt 0.697748 0.827565
vt 0.667779 0.869862
vt 0.664548 0.820963
vt 0.837514 0.390329
vt 0.980619 0.389111
vt 0.837897 0.500301
vt 0.979817 0.499084
vt 0.595960 0.510332
vt 0.579141 0.542760
vt 0.652751 0.870867
vt 0.651977 0.822101
vt 0.044171 0.519365
vt 0.034451 0.491922
vt 0.076970 0.459169
vt 0.024621 0.535645
vt 0.642110 0.871586
vt 0.641290 0.822739
vt 0.635694 0.872013
vt 0.634873 0.823137
vt 0.024757 0.459453
vt 0.078628 0.413861
vt 0.014417 0.413861
vt 0.625664 0.872652
vt 0.624850 0.823760
vt 0.500419 0.866853
vt 0.504775 0.815779
vt 0.598998 0.872442
vt 0.596997 0.818756
vt 0.497695 0.867013
vt 0.495459 0.811339
vt 0.617019 0.873159
vt 0.616221 0.824286
vt 0.435071 0.867352
vt 0.435341 0.821955
vt 0.448862 0.867778
vt 0.448861 0.816159
vt 0.414375 0.866515
vt 0.417107 0.821409
vt 0.408888 0.866251
vt 0.411580 0.826042
vt 0.150117 0.690817
vt 0.044718 0.690817
vt 0.150117 0.638876
vt 0.056058 0.638876
vt 0.150117 0.710739
vt 0.044718 0.710739
vt 0.150543 0.778790
vt 0.056256 0.778310
vt 0.170511 0.862183
vt 0.054818 0.858733
vt 0.459015 0.867986
vt 0.458752 0.817667
vt 0.474796 0.867981
vt 0.473746 0.816996
vt 0.181545 0.901627
vt 0.074971 0.900880
vt 0.185496 0.937770
vt 0.089331 0.938160
vt 0.485109 0.867719
vt 0.483358 0.814451
vt 0.910684 0.924582
vt 0.904551 0.968234
vt 0.723959 0.924672
vt 0.730185 0.968322
vt 0.963698 0.929696
vt 0.954322 0.981244
vt 0.804069 0.592392
vt 0.930888 0.592392
vt 0.793272 0.686282
vt 0.890466 0.683768
vt 0.605045 0.872998
vt 0.601156 0.819916
vt 0.608180 0.873617
vt 0.819213 0.761871
vt 0.819213 0.696054
vt 0.856777 0.761871
vt 0.607384 0.824811
vt 0.925107 0.915817
vt 0.925107 0.877584
vt 0.958063 0.919040
vt 0.958130 0.874040
vt 0.886400 0.555468
vt 0.573254 0.554867
vt 0.096784 0.487092
vt 0.180081 0.547697
vt 0.059639 0.547697
vt 0.525580 0.499950
vt 0.482805 0.499772
vt 0.488639 0.552818
vt 0.537365 0.554440
vt 0.599809 0.505829
vt 0.584594 0.545142
vt 0.482805 0.499772
vt 0.525580 0.499950
vt 0.488639 0.552818
vt 0.537365 0.554440
vt 0.599809 0.505829
vt 0.584594 0.545142
vt 0.993198 0.977072
vt 0.977103 0.990294
vt 0.977103 0.909658
vt 0.993198 0.922216
vt 0.356785 0.608456
vt 0.356785 0.612919
vt 0.354616 0.612915
vt 0.354616 0.608452
vt 0.348943 0.604401
vt 0.348943 0.611587
vt 0.345946 0.610226
vt 0.345946 0.605762
vt 0.354613 0.602833
vt 0.354613 0.608448
vt 0.351845 0.606449
vt 0.351528 0.604298
vt 0.351528 0.597216
vt 0.351528 0.604402
vt 0.348939 0.603042
vt 0.348939 0.598579
vt 0.357613 0.602833
vt 0.357613 0.608448
vt 0.354613 0.606983
vt 0.354929 0.604839
vt 0.616307 0.896414
vt 0.616307 0.849113
vt 0.624325 0.849113
vt 0.624325 0.896414
vt 0.647390 0.855685
vt 0.643820 0.892373
vt 0.596813 0.892373
vt 0.593242 0.855685
vt 0.665509 0.874206
vt 0.665891 0.874482
vt 0.665677 0.874662
vt 0.665441 0.874409
vt 0.665820 0.874229
vt 0.665572 0.874559
vt 0.665576 0.874183
vt 0.665743 0.874509
vt 0.665435 0.874361
vt 0.665813 0.874358
vt 0.665484 0.874579
vt 0.665704 0.874216
vt 0.666269 0.874592
vt 0.665690 0.875052
vt 0.666052 0.873952
vt 0.665442 0.873901
vt 0.665189 0.874331
vt 0.665288 0.874766
vt 0.677190 0.867433
vt 0.667983 0.877040
vt 0.663697 0.860515
vt 0.651298 0.870511
vt 0.662048 0.876783
vt 0.665095 0.877651
vt 0.678933 0.881163
vt 0.672117 0.883699
vt 0.385270 0.960915
vt 0.376718 0.940903
vt 0.385362 0.945892
vt 0.363570 0.948402
vt 0.376718 0.930923
vt 0.363570 0.923355
vt 0.385362 0.925934
vt 0.661283 0.882930
vt 0.666183 0.883994
vt 0.679764 0.945904
vt 0.673841 0.945875
vt 0.686653 0.945949
vt 0.185893 0.982361
vt 0.175921 0.982368
vt 0.175921 0.888054
vt 0.647958 0.882930
vt 0.654620 0.945895
vt 0.647958 0.945895
vt 0.654620 0.882930
vt 0.661283 0.945895
vt 0.667945 0.945895
vt 0.679145 0.914267
vt 0.674076 0.924867
vt 0.674236 0.919749
vt 0.678689 0.914285
vt 0.674185 0.901956
vt 0.678561 0.913580
vt 0.674281 0.907001
vt 0.678707 0.913822
vt 0.674656 0.911226
vt 0.679156 0.914162
vt 0.674636 0.915493
vt 0.680000 0.914310
vt 0.444448 0.902470
vt 0.443853 0.902105
vt 0.444349 0.903500
vt 0.977102 0.546379
vt 0.988784 0.546387
vt 0.988789 0.866035
vt 0.443799 0.903734
vt 0.443201 0.903197
vt 0.443203 0.902693
vt 0.842659 0.373253
vt 0.872808 0.416069
vt 0.864172 0.421165
vt 0.852570 0.371338
vt 0.439107 0.903033
vt 0.438935 0.902249
vt 0.438796 0.903571
vt 0.438216 0.903233
vt 0.437441 0.902552
vt 0.438328 0.901956
vt 0.658357 0.925651
vt 0.599829 0.933777
vt 0.598726 0.925836
vt 0.657255 0.917710
vt 0.612875 0.896414
vt 0.648133 0.896414
vt 0.655383 0.948626
vt 0.621458 0.958232
vt 0.883931 0.274413
vt 0.828743 0.233808
vt 0.834421 0.280419
vt 0.887384 0.221723
vt 0.954693 0.929319
vt 0.949704 0.975667
vt 0.737462 0.975667
vt 0.732396 0.929319
vt 0.883931 0.274413
vt 0.834421 0.280419
vt 0.828743 0.233808
vt 0.887384 0.221723
vt 0.830568 0.231485
vt 0.881898 0.273254
vt 0.835276 0.279444
vt 0.886820 0.223145
vt 0.025692 0.504339
vt 0.206098 0.504339
vt 0.202083 0.532172
vt 0.029698 0.532172
vt 0.884274 0.273100
vt 0.888180 0.221213
vt 0.830572 0.233214
vt 0.834707 0.280150
vt 0.970765 0.002525
vt 0.915164 0.007576
vt 0.913270 0.005684
vt 0.970788 0.000000
vt 0.915148 0.229889
vt 0.913240 0.231766
vt 0.970788 0.234955
vt 0.970765 0.237480
vt 0.441876 0.780701
vt 0.441876 0.734131
vt 0.444403 0.734131
vt 0.444403 0.780701
vt 0.958083 0.240005
vt 0.915164 0.250084
vt 0.913255 0.248207
vt 0.958060 0.237480
vt 0.915133 0.462334
vt 0.913240 0.464230
vt 0.958060 0.472435
vt 0.958083 0.474964
vt 0.792912 0.322861
vt 0.792912 0.369431
vt 0.790385 0.369431
vt 0.790385 0.322861
vt 0.724185 0.885407
vt 0.727598 0.892231
vt 0.719076 0.893765
vt 0.715182 0.881279
vt 0.723406 0.875958
vt 0.714556 0.874210
vt 0.724368 0.867237
vt 0.714663 0.867619
vt 0.727598 0.855938
vt 0.717290 0.858860
vt 0.769522 0.871529
vt 0.761421 0.874631
vt 0.764444 0.861813
vt 0.772126 0.864258
vt 0.768865 0.884469
vt 0.760940 0.883961
vt 0.772126 0.893281
vt 0.762589 0.890637
vt 0.735673 0.915628
vt 0.746668 0.917169
vt 0.750081 0.924032
vt 0.739598 0.925119
vt 0.737611 0.880187
vt 0.747180 0.879691
vt 0.748343 0.893302
vt 0.738819 0.893874
vt 0.733583 0.872031
vt 0.749908 0.871207
vt 0.733610 0.865638
vt 0.749908 0.864593
vt 0.736807 0.858764
vt 0.746394 0.858146
vt 0.740957 0.902422
vt 0.750081 0.908647
vt 0.564807 0.656798
vt 0.589761 0.660575
vt 0.583968 0.668227
vt 0.569290 0.666007
vt 0.564655 0.648322
vt 0.589761 0.651786
vt 0.571175 0.637526
vt 0.585924 0.639602
vt 0.787965 0.893736
vt 0.802659 0.895926
vt 0.801524 0.903861
vt 0.786775 0.901785
vt 0.869217 0.601042
vt 0.756980 0.659274
vt 0.839116 0.655771
vt 0.748575 0.599106
vt 0.464586 0.225436
vt 0.507581 0.231864
vt 0.448495 0.271654
vt 0.486391 0.270269
vt 0.756980 0.659274
vt 0.748575 0.599106
vt 0.839116 0.655771
vt 0.869217 0.601042
vt 0.466104 0.224346
vt 0.500095 0.272651
vt 0.509163 0.231428
vt 0.471097 0.266983
vt 0.728390 0.879999
vt 0.736903 0.881533
vt 0.733490 0.888414
vt 0.724496 0.892572
vt 0.732666 0.898043
vt 0.723847 0.899759
vt 0.733628 0.906835
vt 0.723954 0.906397
vt 0.736903 0.918085
vt 0.726611 0.915129
vt 0.768230 0.909034
vt 0.765198 0.896141
vt 0.773322 0.899337
vt 0.775934 0.906661
vt 0.764733 0.886821
vt 0.772689 0.886417
vt 0.766374 0.880100
vt 0.775934 0.877532
vt 0.757930 0.920706
vt 0.754410 0.927244
vt 0.743415 0.928818
vt 0.747462 0.919718
vt 0.756421 0.874757
vt 0.755254 0.888368
vt 0.745683 0.887864
vt 0.746895 0.874185
vt 0.757982 0.896852
vt 0.741656 0.896020
vt 0.757982 0.903459
vt 0.741684 0.902406
vt 0.754470 0.909898
vt 0.744882 0.909272
vt 0.757930 0.935913
vt 0.748867 0.942253
vt 0.584276 0.637833
vt 0.590069 0.645485
vt 0.565116 0.649262
vt 0.569598 0.640053
vt 0.590069 0.654274
vt 0.564964 0.657738
vt 0.586233 0.666458
vt 0.571483 0.668533
vt 0.755008 0.854695
vt 0.756142 0.862630
vt 0.741448 0.864820
vt 0.740258 0.856771
vn 0.0000 0.0336 0.9994
vn 0.0000 0.0348 0.9994
vn 0.0000 0.0358 0.9994
vn -0.9019 0.1775 -0.3937
vn -0.0734 0.1543 0.9853
vn -0.7987 0.6017 -0.0001
vn -0.0036 -1.0000 0.0000
vn -0.0860 0.2178 0.9722
vn 0.8283 -0.1724 0.5331
vn 0.9020 0.1772 -0.3937
vn 0.1829 -0.9831 0.0001
vn 0.7988 0.6016 0.0000
vn 0.0732 0.1543 0.9853
vn -0.0067 0.2120 0.9772
vn -0.1407 0.2230 0.9646
vn -0.8069 0.5907 -0.0001
vn 0.8070 0.5906 0.0000
vn -0.4220 0.6204 0.6611
vn -0.7738 0.6167 0.1444
vn -0.9673 -0.2337 -0.0982
vn -0.7553 -0.1394 0.6404
vn -0.0016 -0.2100 0.9777
vn -0.0008 0.7487 0.6629
vn -0.0003 0.9661 0.2583
vn -0.5206 0.7811 -0.3447
vn -0.0004 0.9684 -0.2495
vn -0.0007 0.2100 -0.9777
vn -0.6855 0.0504 -0.7263
vn 0.4256 0.6192 0.6599
vn 0.7583 -0.1386 0.6370
vn 0.9222 -0.3563 -0.1501
vn 0.8270 0.5527 0.1028
vn 0.5085 0.7853 -0.3532
vn 0.6756 0.0530 -0.7353
vn -0.4234 -0.8430 0.3319
vn -0.5450 -0.8020 -0.2444
vn -0.0002 -0.9650 -0.2621
vn -0.0007 -0.9617 0.2740
vn -0.3935 -0.6003 -0.6963
vn -0.0003 -0.7297 -0.6838
vn 0.4276 -0.8418 0.3293
vn 0.4711 -0.8423 -0.2618
vn 0.3840 -0.6008 -0.7011
vn -0.4477 0.6573 0.6062
vn -0.5132 0.8330 0.2068
vn -0.9976 -0.0139 0.0683
vn -0.6946 -0.1434 0.7050
vn -0.0010 -0.1988 0.9800
vn -0.0006 0.7522 0.6589
vn -0.0010 0.9796 0.2011
vn -0.4605 0.8499 -0.2560
vn 0.0049 0.9786 -0.2055
vn 0.0003 0.1987 -0.9801
vn -0.7363 0.1344 -0.6631
vn 0.4453 0.6527 0.6129
vn 0.6875 -0.1449 0.7116
vn 0.9960 -0.0179 0.0872
vn 0.4098 0.8868 0.2135
vn 0.5520 0.7568 -0.3500
vn 0.7432 0.1328 -0.6557
vn -0.4478 -0.8418 0.3014
vn -0.5130 -0.8477 -0.1352
vn -0.0009 -0.9803 -0.1977
vn -0.0003 -0.9498 0.3129
vn -0.4602 -0.6827 -0.5676
vn 0.0049 -0.8208 -0.5712
vn 0.4455 -0.8401 0.3094
vn 0.4097 -0.8998 -0.1499
vn 0.5518 -0.5604 -0.6176
vn -0.4991 0.5241 0.6901
vn -0.4855 0.8506 0.2019
vn -0.9966 -0.0166 0.0812
vn -0.6565 -0.1509 0.7391
vn 0.0000 -0.1993 0.9799
vn -0.0001 0.6251 0.7806
vn 0.0021 0.9791 0.2034
vn -0.6145 0.6223 -0.4849
vn -0.0096 0.9431 -0.3323
vn -0.0000 0.1992 -0.9800
vn -0.7123 0.1404 -0.6877
vn 0.5014 0.5274 0.6859
vn 0.6615 -0.1500 0.7348
vn 0.9976 -0.0140 0.0684
vn 0.6070 0.7688 0.2011
vn 0.5228 0.7659 -0.3743
vn 0.7077 0.1413 -0.6922
vn -0.4990 -0.7522 0.4304
vn -0.4853 -0.8620 -0.1465
vn 0.0021 -0.9807 -0.1953
vn 0.0000 -0.8800 0.4750
vn -0.6132 -0.3832 -0.6907
vn -0.0095 -0.7384 -0.6743
vn 0.5014 -0.7535 0.4253
vn 0.6070 -0.7863 -0.1151
vn 0.5226 -0.5587 -0.6440
vn -0.5108 0.5148 0.6885
vn -0.5089 0.8352 0.2085
vn -0.9951 -0.0217 0.0962
vn -0.6464 -0.1521 0.7477
vn 0.0093 -0.1998 0.9798
vn -0.0296 0.6233 0.7814
vn -0.0443 0.9773 0.2070
vn -0.6307 0.6162 -0.4718
vn -0.0404 0.9712 -0.2347
vn -0.0082 0.1992 -0.9799
vn -0.7190 0.1385 -0.6811
vn 0.4822 0.5314 0.6965
vn 0.6592 -0.1490 0.7370
vn 0.9965 -0.0145 0.0824
vn 0.4590 0.8648 0.2037
vn 0.5987 0.6325 -0.4915
vn 0.7082 0.1416 -0.6916
vn -0.4716 -0.7636 0.4410
vn -0.4586 -0.8770 -0.1434
vn 0.0444 -0.9804 -0.1917
vn 0.0417 -0.8793 0.4745
vn -0.6084 -0.3912 -0.6906
vn 0.0343 -0.8025 -0.5957
vn 0.5207 -0.7407 0.4246
vn 0.5095 -0.8487 -0.1419
vn 0.6213 -0.3815 -0.6844
vn -0.4474 0.6492 0.6151
vn -0.4126 0.8844 0.2181
vn -0.9949 -0.0202 0.0985
vn -0.6870 -0.1457 0.7119
vn 0.0000 -0.1989 0.9800
vn -0.0001 0.7523 0.6588
vn -0.0000 0.9793 0.2026
vn -0.5565 0.7554 -0.3461
vn 0.0009 0.9910 -0.1335
vn -0.0000 0.1988 -0.9800
vn -0.7481 0.1325 -0.6502
vn 0.4485 0.6506 0.6128
vn 0.6893 -0.1452 0.7098
vn 0.9957 -0.0186 0.0910
vn 0.4135 0.8848 0.2150
vn 0.5555 0.7546 -0.3493
vn 0.7455 0.1331 -0.6531
vn -0.4473 -0.8380 0.3125
vn -0.4124 -0.8994 -0.1447
vn -0.0000 -0.9806 -0.1961
vn 0.0000 -0.9498 0.3129
vn -0.5564 -0.5603 -0.6136
vn 0.0000 -0.8603 -0.5098
vn 0.4484 -0.8384 0.3098
vn 0.4132 -0.8986 -0.1477
vn 0.5555 -0.5583 -0.6163
vn -0.4501 0.3250 -0.8317
vn -0.5693 -0.2139 -0.7938
vn -0.8699 0.0574 -0.4898
vn -0.4063 0.1196 -0.9059
vn -0.3408 -0.0666 -0.9378
vn -0.8766 -0.0087 -0.4812
vn -0.0415 0.6883 -0.7243
vn -0.0589 0.5456 -0.8360
vn -0.0405 0.1823 -0.9824
vn -0.1164 -0.0168 -0.9931
vn -0.1985 -0.3738 -0.9060
vn -0.0263 -0.0762 -0.9967
vn 0.5693 -0.2139 -0.7938
vn 0.8699 0.0574 -0.4898
vn 0.8766 -0.0087 -0.4812
vn 0.4501 0.3250 -0.8317
vn 0.4063 0.1196 -0.9059
vn 0.3408 -0.0666 -0.9378
vn 0.0589 0.5456 -0.8360
vn 0.0415 0.6883 -0.7243
vn 0.0405 0.1823 -0.9824
vn 0.1170 -0.0149 -0.9930
vn 0.2019 -0.3738 -0.9053
vn 0.0263 -0.0762 -0.9967
vn 0.1089 0.1132 -0.9876
vn 0.4448 -0.0283 -0.8952
vn -0.1025 0.1135 -0.9882
vn -0.4297 -0.0317 -0.9024
vn -0.6388 -0.1581 -0.7530
vn -0.5311 -0.1741 -0.8292
vn 0.5311 -0.1741 -0.8292
vn 0.6388 -0.1581 -0.7530
vn 1.0000 -0.0000 0.0000
vn -1.0000 -0.0000 0.0000
vn -0.4244 -0.3849 0.8196
vn 0.4430 -0.3756 0.8140
vn 0.4466 0.3933 0.8036
vn -0.4164 0.4076 0.8127
vn -0.5887 -0.5932 0.5491
vn 0.5877 -0.5820 0.5620
vn 0.5010 0.5451 0.6722
vn -0.5023 0.5558 0.6624
vn 0.0000 -1.0000 -0.0000
vn -0.3430 -0.8745 0.3430
vn -0.4851 -0.8745 -0.0000
vn 0.0000 -0.8745 0.4851
vn 0.3430 -0.8745 0.3430
vn 0.4851 -0.8745 -0.0000
vn 0.3430 -0.8745 -0.3430
vn 0.0000 -0.8745 -0.4851
vn -0.3430 -0.8745 -0.3430
vn -0.4512 -0.5763 0.6814
vn -0.6651 -0.7468 0.0031
vn -0.0602 -0.2480 0.9669
vn 0.4739 -0.6907 0.5463
vn 0.6651 -0.7468 -0.0031
vn 0.4512 -0.5763 -0.6814
vn 0.0602 -0.2480 -0.9669
vn -0.4739 -0.6907 -0.5463
vn -0.4835 -0.5714 0.6631
vn -0.8303 -0.5567 -0.0263
vn -0.0487 -0.2364 0.9704
vn 0.4756 -0.5881 0.6541
vn 0.8327 -0.5507 -0.0568
vn 0.4967 -0.4466 -0.7442
vn 0.0510 -0.0613 -0.9968
vn -0.4924 -0.4611 -0.7382
vn -0.2586 0.6178 0.7426
vn -0.8117 0.5728 0.1138
vn -0.0116 0.6898 0.7239
vn 0.2384 0.6429 0.7279
vn 0.8100 0.5839 0.0554
vn 0.2338 0.7407 -0.6298
vn 0.0091 0.8081 -0.5890
vn -0.2117 0.7641 -0.6094
vn -0.0000 1.0000 -0.0000
vn 0.7554 -0.3276 0.5674
vn 0.7554 -0.6552 0.0000
vn 0.0000 -0.5000 0.8660
vn 0.7554 0.3276 0.5674
vn 0.0000 0.5000 0.8660
vn 0.7554 0.6552 0.0000
vn 0.7554 0.3276 -0.5674
vn 0.0000 0.5000 -0.8660
vn 0.7554 -0.3276 -0.5674
vn 0.0000 -0.5000 -0.8660
vn 0.5505 -0.4174 0.7230
vn 0.5505 -0.8348 0.0000
vn 0.5505 0.4174 0.7230
vn 0.5505 0.8348 0.0000
vn 0.5505 0.4174 -0.7230
vn 0.5505 -0.4174 -0.7230
vn -0.5505 -0.4174 0.7230
vn -0.5505 -0.8348 0.0000
vn -0.5505 0.4174 0.7230
vn -0.5505 0.8348 0.0000
vn -0.5505 0.4174 -0.7230
vn -0.5505 -0.4174 -0.7230
vn -0.7554 -0.3276 0.5674
vn -0.7554 -0.6552 -0.0000
vn -0.7554 0.3276 0.5674
vn -0.7554 0.6552 0.0000
vn -0.7554 0.3276 -0.5674
vn -0.7554 -0.3276 -0.5674
vn -0.6563 -0.0731 -0.7509
vn -0.6356 -0.0748 -0.7684
vn 0.6356 -0.0748 -0.7684
vn 0.6563 -0.0731 -0.7509
vn 0.8344 -0.5416 -0.1016
vn 0.6951 -0.4715 -0.5428
vn 0.5196 0.6416 -0.5642
vn 0.5494 0.5938 0.5878
vn 0.9060 0.3577 0.2264
vn 0.3178 0.3633 0.8758
vn 0.6649 0.6940 -0.2763
vn 0.8620 0.3938 0.3193
vn 0.9418 -0.2714 -0.1984
vn 0.6363 0.7464 0.1949
vn 0.9844 -0.0432 -0.1708
vn 0.2360 0.1971 0.9515
vn 0.8359 0.0502 -0.5465
vn 0.8766 0.0087 0.4812
vn 0.8325 0.2501 -0.4944
vn 0.8013 -0.5490 -0.2378
vn 0.3638 -0.6314 -0.6848
vn 0.5024 0.3878 -0.7728
vn 0.8432 0.4176 -0.3385
vn 0.6661 -0.1927 -0.7206
vn 0.5051 0.5487 -0.6662
vn 0.8124 0.5509 -0.1912
vn 0.6540 -0.7427 0.1435
vn 0.3963 -0.6953 -0.5996
vn 0.7376 -0.6206 0.2661
vn 0.5289 -0.5848 0.6151
vn 0.8699 -0.0574 0.4898
vn 0.8903 0.2602 -0.3737
vn 0.8197 -0.1591 -0.5502
vn 0.4501 -0.3250 0.8317
vn 0.5693 0.2139 0.7938
vn 0.4063 -0.1196 0.9059
vn 0.3408 0.0666 0.9378
vn 0.8259 -0.4365 -0.3569
vn 0.6046 0.7409 -0.2923
vn 0.9921 0.0793 -0.0972
vn -0.0557 -0.6399 -0.7664
vn 0.0788 0.7579 -0.6476
vn -0.0604 -0.9362 -0.3461
vn 0.1922 0.9283 0.3184
vn 0.5473 0.5658 0.6167
vn 0.4210 0.9066 -0.0288
vn 0.0000 -0.5659 -0.8245
vn 0.0403 0.2143 0.9759
vn 0.0007 0.2481 0.9687
vn 0.0495 0.1444 0.9883
vn 0.0742 0.2306 0.9702
vn 0.0000 -0.2383 -0.9712
vn 0.0000 0.0420 -0.9991
vn 0.0263 0.0762 0.9967
vn 0.0000 0.4406 -0.8977
vn -0.1018 -0.6633 -0.7414
vn -0.1646 0.3825 -0.9092
vn 0.0000 -0.9229 -0.3850
vn 0.0000 0.8145 -0.5802
vn 0.0000 0.6636 -0.7480
vn 0.0000 0.9505 -0.3107
vn 0.0056 -0.1019 -0.9948
vn 0.0382 -0.7648 -0.6432
vn 0.0461 -0.9717 0.2315
vn 0.0471 -0.9452 0.3230
vn 0.0365 -0.7204 0.6926
vn 0.0414 -0.6882 0.7243
vn 0.0000 0.5048 -0.8632
vn 0.0000 -0.2298 -0.9732
vn 0.0589 -0.5456 0.8360
vn 0.0415 -0.6883 0.7243
vn 0.0405 -0.1823 0.9824
vn 0.0000 -0.6765 -0.7365
vn 0.1164 0.0168 0.9931
vn 0.1798 0.4818 0.8576
vn -0.0779 0.8984 -0.4322
vn -0.0119 0.9593 -0.2821
vn -0.6951 -0.4715 -0.5428
vn -0.8295 -0.5452 -0.1214
vn -0.5196 0.6417 -0.5642
vn -0.5297 0.5683 0.6296
vn -0.2632 0.2989 0.9173
vn -0.9209 0.3425 0.1860
vn -0.7024 0.6797 -0.2113
vn -0.9148 0.3391 0.2193
vn -0.6044 0.7596 0.2403
vn -0.9844 -0.0432 -0.1708
vn -0.2470 0.1821 0.9517
vn -0.9360 -0.2979 -0.1875
vn -0.8766 0.0087 0.4812
vn -0.8359 0.0502 -0.5465
vn -0.8325 0.2501 -0.4944
vn -0.3638 -0.6314 -0.6848
vn -0.8013 -0.5490 -0.2378
vn -0.5024 0.3878 -0.7728
vn -0.8432 0.4176 -0.3385
vn -0.5051 0.5487 -0.6662
vn -0.6661 -0.1927 -0.7206
vn -0.8124 0.5509 -0.1912
vn -0.3963 -0.6953 -0.5996
vn -0.6540 -0.7427 0.1435
vn -0.7376 -0.6206 0.2661
vn -0.8699 -0.0574 0.4898
vn -0.5289 -0.5848 0.6151
vn -0.8903 0.2602 -0.3737
vn -0.8197 -0.1591 -0.5502
vn -0.8259 -0.4365 -0.3569
vn -0.5693 0.2139 0.7938
vn -0.4501 -0.3250 0.8317
vn -0.4063 -0.1196 0.9059
vn -0.3408 0.0666 0.9378
vn -0.6046 0.7409 -0.2923
vn -0.9921 0.0793 -0.0972
vn 0.0557 -0.6399 -0.7664
vn -0.0788 0.7579 -0.6475
vn 0.0604 -0.9362 -0.3461
vn -0.1957 0.9285 0.3154
vn -0.4906 0.5181 0.7007
vn -0.4112 0.9116 -0.0055
vn -0.0226 0.2439 0.9695
vn -0.1454 0.2293 0.9624
vn -0.0431 0.1390 0.9894
vn -0.0263 0.0762 0.9967
vn 0.1018 -0.6633 -0.7414
vn 0.1646 0.3825 -0.9092
vn -0.0056 -0.1019 -0.9948
vn -0.0382 -0.7648 -0.6432
vn -0.0461 -0.9717 0.2315
vn -0.0471 -0.9452 0.3230
vn -0.0365 -0.7204 0.6926
vn -0.0414 -0.6882 0.7243
vn -0.0589 -0.5456 0.8360
vn -0.0415 -0.6883 0.7243
vn -0.0405 -0.1823 0.9824
vn -0.1170 0.0149 0.9930
vn -0.1823 0.4848 0.8554
vn 0.0779 0.8984 -0.4322
vn 0.0119 0.9593 -0.2821
vn -0.1089 -0.1132 0.9876
vn 0.1025 -0.1135 0.9882
vn -0.3228 0.5327 0.7823
vn 0.3107 0.5358 0.7851
vn -0.2783 0.6489 0.7081
vn 0.2942 0.6446 0.7056
vn -0.0248 0.2384 0.9708
vn 0.7554 0.3276 0.5675
vn -1.0000 0.0049 0.0069
vn -0.5337 0.1879 0.8245
vn -0.9976 -0.0158 -0.0678
vn -0.4959 0.3760 0.7827
vn 0.5332 0.1889 0.8246
vn 0.4951 0.3749 0.7838
vn 0.9975 -0.0163 -0.0686
vn 1.0000 0.0040 0.0053
vn 0.4726 -0.1908 -0.8604
vn 0.5024 -0.3654 -0.7837
vn -0.4723 -0.1903 -0.8607
vn -0.5016 -0.3668 -0.7835
vn -0.5313 -0.1778 0.8283
vn -0.9978 0.0137 -0.0654
vn 0.5315 -0.1774 0.8283
vn 0.9978 0.0135 -0.0650
vn 0.4734 0.1826 -0.8617
vn -0.4736 0.1828 -0.8616
vn -0.5148 -0.3511 0.7821
vn -0.9991 0.0165 -0.0387
vn 0.5152 -0.3517 0.7816
vn 0.9991 0.0162 -0.0379
vn 0.4791 0.3565 -0.8021
vn -0.4794 0.3559 -0.8022
vn 0.2719 -0.9092 -0.3154
vn 0.5405 0.6203 -0.5683
vn 0.3293 0.8445 -0.4224
vn 0.5445 -0.5363 -0.6449
vn -0.3297 0.8445 -0.4220
vn -0.2718 -0.9092 -0.3154
vn -0.5357 0.6195 -0.5737
vn -0.5391 -0.5350 -0.6505
vn -0.6280 0.6164 -0.4750
vn -0.5480 -0.5382 0.6403
vn -0.4676 0.6470 0.6023
vn -0.5955 -0.5288 -0.6047
vn 0.5476 -0.5381 0.6407
vn 0.4680 0.6470 0.6020
vn 0.6006 -0.5300 -0.5986
vn 0.6323 0.6167 -0.4690
vn 0.3665 -0.5941 0.7161
vn 0.1334 -0.7244 0.6763
vn 0.1697 0.7551 0.6332
vn 0.1401 0.8891 0.4358
vn 0.6268 -0.3308 0.7055
vn 0.0253 0.8609 0.5082
vn 0.3111 -0.3732 0.8741
vn -0.2962 0.7547 0.5854
vn -0.2478 -0.7089 0.6604
vn -0.7176 0.4376 0.5418
vn -0.1047 -0.4893 -0.8658
vn -0.1726 0.9085 -0.3806
vn -0.1960 0.8534 -0.4830
vn -0.2924 -0.5886 -0.7537
vn -0.0326 -0.3372 -0.9409
vn -0.4043 0.7964 -0.4497
vn -0.2133 -0.5699 -0.7936
vn -0.6863 0.6218 -0.3772
vn -0.5423 -0.7989 -0.2600
vn -0.9219 0.3752 -0.0967
vn -0.2481 0.8260 0.5062
vn -0.7061 0.5941 0.3854
vn -0.2904 0.8420 0.4546
vn -0.5379 0.6997 0.4702
vn -0.9234 0.3280 0.1995
vn -0.9324 0.3183 0.1715
vn 0.7295 0.5712 0.3762
vn 0.5744 0.6888 0.4424
vn 0.2408 0.8256 0.5103
vn 0.2174 0.8458 0.4871
vn 0.9230 0.3313 0.1956
vn 0.9194 0.3481 0.1832
vn -0.1697 0.7551 0.6332
vn -0.1334 -0.7244 0.6763
vn -0.3665 -0.5941 0.7161
vn -0.1401 0.8891 0.4358
vn -0.6268 -0.3308 0.7055
vn -0.0253 0.8609 0.5082
vn -0.3111 -0.3732 0.8740
vn 0.2962 0.7547 0.5854
vn 0.2478 -0.7089 0.6604
vn 0.7176 0.4377 0.5418
vn 0.1960 0.8534 -0.4830
vn 0.1726 0.9085 -0.3806
vn 0.1047 -0.4894 -0.8658
vn 0.2924 -0.5886 -0.7537
vn 0.4043 0.7964 -0.4497
vn 0.0326 -0.3372 -0.9409
vn 0.6863 0.6218 -0.3772
vn 0.2133 -0.5699 -0.7936
vn 0.9219 0.3752 -0.0967
vn 0.5423 -0.7989 -0.2600
usemtl Inside.004
s off
f 1/1/1 2/2/2 3/3/2
f 2/2/2 4/4/2 3/3/2
f 4/4/2 5/5/3 3/3/2
f 3/3/2 6/6/2 1/1/2
f 6/6/2 7/7/2 8/8/2
f 1/1/2 6/6/2 8/8/2
s 1
f 9/9/4 10/10/5 11/11/6
f 12/12/7 13/13/8 9/14/4
f 14/15/9 13/13/8 12/12/7
f 15/16/10 14/15/9 16/17/11
f 17/18/12 18/19/13 15/20/10
f 10/21/5 9/22/4 13/23/8
f 19/24/14 20/25/15 13/23/8
f 18/26/13 19/24/14 14/27/9
f 9/9/4 11/11/6 21/28/16
f 12/12/7 9/14/4 21/29/16
f 14/15/9 12/12/7 16/17/11
f 15/16/10 16/17/11 22/30/17
f 17/18/12 15/20/10 22/31/17
f 10/21/5 13/23/8 20/25/15
f 19/24/14 13/23/8 14/27/9
f 18/26/13 14/27/9 15/32/10
f 23/33/18 24/34/19 25/35/20
f 23/36/18 26/37/21 27/38/22
f 23/36/18 28/39/23 29/40/24
f 30/41/25 31/42/26 32/43/27
f 30/44/25 33/45/28 25/35/20
f 30/41/25 24/34/19 29/40/24
f 34/46/29 28/47/23 27/38/22
f 34/48/29 35/49/30 36/50/31
f 34/51/29 37/52/32 29/40/24
f 38/53/33 37/54/32 36/50/31
f 38/55/33 39/56/34 32/43/27
f 38/57/33 31/58/26 29/40/24
f 40/59/35 26/60/21 25/35/20
f 40/61/35 41/62/36 42/63/37
f 40/64/35 43/65/38 27/38/22
f 44/66/39 33/67/28 32/43/27
f 44/68/39 45/69/40 42/63/37
f 44/70/39 41/71/36 25/35/20
f 46/72/41 35/73/30 27/38/22
f 46/72/41 43/74/38 42/63/37
f 46/75/41 47/76/42 36/50/31
f 48/77/43 45/78/40 32/43/27
f 48/79/43 39/80/34 36/50/31
f 48/77/43 47/76/42 42/63/37
f 49/81/44 50/82/45 51/83/46
f 49/84/44 52/85/47 53/86/48
f 49/84/44 54/87/49 55/88/50
f 56/89/51 57/90/52 58/91/53
f 56/92/51 59/93/54 51/83/46
f 56/89/51 50/82/45 55/88/50
f 60/94/55 54/95/49 53/86/48
f 60/96/55 61/97/56 62/98/57
f 60/99/55 63/100/58 55/88/50
f 64/101/59 63/102/58 62/98/57
f 64/103/59 65/104/60 58/91/53
f 63/100/58 64/105/59 57/106/52
f 66/107/61 52/108/47 51/83/46
f 66/109/61 67/110/62 68/111/63
f 66/112/61 69/113/64 53/86/48
f 70/114/65 59/115/54 58/91/53
f 70/116/65 71/117/66 68/111/63
f 70/118/65 67/119/62 51/83/46
f 72/120/67 61/121/56 53/86/48
f 72/120/67 69/122/64 68/111/63
f 72/123/67 73/124/68 62/98/57
f 74/125/69 71/126/66 58/91/53
f 74/127/69 65/128/60 62/98/57
f 71/117/66 74/125/69 73/124/68
f 75/129/70 76/130/71 77/131/72
f 75/132/70 78/133/73 79/134/74
f 75/132/70 80/135/75 81/136/76
f 82/137/77 83/138/78 84/139/79
f 82/140/77 85/141/80 77/131/72
f 83/142/78 82/137/77 76/130/71
f 86/143/81 80/144/75 79/134/74
f 86/145/81 87/146/82 88/147/83
f 86/148/81 89/149/84 81/136/76
f 90/150/85 89/151/84 88/147/83
f 90/152/85 91/153/86 84/139/79
f 90/154/85 83/142/78 81/136/76
f 92/155/87 78/156/73 77/131/72
f 92/157/87 93/158/88 94/159/89
f 92/160/87 95/161/90 79/134/74
f 96/162/91 85/163/80 84/139/79
f 93/158/88 96/164/91 97/165/92
f 96/166/91 93/167/88 77/131/72
f 98/168/93 87/169/82 79/134/74
f 98/168/93 95/170/90 94/159/89
f 98/171/93 99/172/94 88/147/83
f 100/173/95 97/174/92 84/139/79
f 100/175/95 91/176/86 88/147/83
f 100/173/95 99/172/94 94/159/89
f 101/177/96 102/178/97 103/179/98
f 101/180/96 104/181/99 105/182/100
f 101/180/96 106/183/101 107/184/102
f 108/185/103 109/186/104 110/187/105
f 108/188/103 111/189/106 103/179/98
f 109/190/104 108/185/103 102/178/97
f 112/191/107 106/192/101 105/182/100
f 112/193/107 113/194/108 114/195/109
f 112/196/107 115/197/110 107/184/102
f 116/198/111 115/199/110 114/195/109
f 116/200/111 117/201/112 110/187/105
f 115/197/110 116/202/111 109/190/104
f 118/203/113 104/204/99 103/179/98
f 118/205/113 119/206/114 120/207/115
f 118/208/113 121/209/116 105/182/100
f 122/210/117 111/211/106 110/187/105
f 119/206/114 122/212/117 123/213/118
f 122/214/117 119/215/114 103/179/98
f 124/216/119 113/217/108 105/182/100
f 124/216/119 121/218/116 120/207/115
f 124/219/119 125/220/120 114/195/109
f 126/221/121 123/222/118 110/187/105
f 126/223/121 117/224/112 114/195/109
f 123/213/118 126/221/121 125/220/120
f 127/225/122 128/226/123 129/227/124
f 127/228/122 130/229/125 131/230/126
f 127/228/122 132/231/127 133/232/128
f 134/233/129 135/234/130 136/235/131
f 134/236/129 137/237/132 129/227/124
f 135/238/130 134/233/129 128/226/123
f 138/239/133 132/240/127 131/230/126
f 138/241/133 139/242/134 140/243/135
f 138/244/133 141/245/136 133/232/128
f 142/246/137 141/247/136 140/243/135
f 142/248/137 143/249/138 136/235/131
f 141/245/136 142/250/137 135/238/130
f 144/251/139 130/252/125 129/227/124
f 144/253/139 145/254/140 146/255/141
f 144/256/139 147/257/142 131/230/126
f 148/258/143 137/259/132 136/235/131
f 145/254/140 148/260/143 149/261/144
f 148/262/143 145/263/140 129/227/124
f 150/264/145 139/265/134 131/230/126
f 150/264/145 147/266/142 146/255/141
f 150/267/145 151/268/146 140/243/135
f 152/269/147 149/270/144 136/235/131
f 152/271/147 143/272/138 140/243/135
f 149/261/144 152/269/147 151/268/146
f 49/81/44 51/83/46 52/108/47
f 49/84/44 53/86/48 54/95/49
f 49/84/44 55/88/50 50/82/45
f 56/89/51 58/91/53 59/115/54
f 56/92/51 51/83/46 50/82/45
f 56/89/51 55/88/50 57/106/52
f 60/94/55 53/86/48 61/121/56
f 60/96/55 62/98/57 63/102/58
f 60/99/55 55/88/50 54/87/49
f 64/101/59 62/98/57 65/128/60
f 64/103/59 58/91/53 57/90/52
f 63/100/58 57/106/52 55/88/50
f 66/107/61 51/83/46 67/119/62
f 66/109/61 68/111/63 69/122/64
f 66/112/61 53/86/48 52/85/47
f 70/114/65 58/91/53 71/126/66
f 70/116/65 68/111/63 67/110/62
f 70/118/65 51/83/46 59/93/54
f 72/120/67 53/86/48 69/113/64
f 72/120/67 68/111/63 73/124/68
f 72/123/67 62/98/57 61/97/56
f 74/125/69 58/91/53 65/104/60
f 74/127/69 62/98/57 73/124/68
f 71/117/66 73/124/68 68/111/63
f 75/129/70 77/131/72 78/156/73
f 75/132/70 79/134/74 80/144/75
f 75/132/70 81/136/76 76/130/71
f 82/137/77 84/139/79 85/163/80
f 82/140/77 77/131/72 76/130/71
f 83/142/78 76/130/71 81/136/76
f 86/143/81 79/134/74 87/169/82
f 86/145/81 88/147/83 89/151/84
f 86/148/81 81/136/76 80/135/75
f 90/150/85 88/147/83 91/176/86
f 90/152/85 84/139/79 83/138/78
f 90/154/85 81/136/76 89/149/84
f 92/155/87 77/131/72 93/167/88
f 92/157/87 94/159/89 95/170/90
f 92/160/87 79/134/74 78/133/73
f 96/162/91 84/139/79 97/174/92
f 93/158/88 97/165/92 94/159/89
f 96/166/91 77/131/72 85/141/80
f 98/168/93 79/134/74 95/161/90
f 98/168/93 94/159/89 99/172/94
f 98/171/93 88/147/83 87/146/82
f 100/173/95 84/139/79 91/153/86
f 100/175/95 88/147/83 99/172/94
f 100/173/95 94/159/89 97/165/92
f 101/177/96 103/179/98 104/204/99
f 101/180/96 105/182/100 106/192/101
f 101/180/96 107/184/102 102/178/97
f 108/185/103 110/187/105 111/211/106
f 108/188/103 103/179/98 102/178/97
f 109/190/104 102/178/97 107/184/102
f 112/191/107 105/182/100 113/217/108
f 112/193/107 114/195/109 115/199/110
f 112/196/107 107/184/102 106/183/101
f 116/198/111 114/195/109 117/224/112
f 116/200/111 110/187/105 109/186/104
f 115/197/110 109/190/104 107/184/102
f 118/203/113 103/179/98 119/215/114
f 118/205/113 120/207/115 121/218/116
f 118/208/113 105/182/100 104/181/99
f 122/210/117 110/187/105 123/222/118
f 119/206/114 123/213/118 120/207/115
f 122/214/117 103/179/98 111/189/106
f 124/216/119 105/182/100 121/209/116
f 124/216/119 120/207/115 125/220/120
f 124/219/119 114/195/109 113/194/108
f 126/221/121 110/187/105 117/201/112
f 126/223/121 114/195/109 125/220/120
f 123/213/118 125/220/120 120/207/115
f 127/225/122 129/227/124 130/252/125
f 127/228/122 131/230/126 132/240/127
f 127/228/122 133/232/128 128/226/123
f 134/233/129 136/235/131 137/259/132
f 134/236/129 129/227/124 128/226/123
f 135/238/130 128/226/123 133/232/128
f 138/239/133 131/230/126 139/265/134
f 138/241/133 140/243/135 141/247/136
f 138/244/133 133/232/128 132/231/127
f 142/246/137 140/243/135 143/272/138
f 142/248/137 136/235/131 135/234/130
f 141/245/136 135/238/130 133/232/128
f 144/251/139 129/227/124 145/263/140
f 144/253/139 146/255/141 147/266/142
f 144/256/139 131/230/126 130/229/125
f 148/258/143 136/235/131 149/270/144
f 145/254/140 149/261/144 146/255/141
f 148/262/143 129/227/124 137/237/132
f 150/264/145 131/230/126 147/257/142
f 150/264/145 146/255/141 151/268/146
f 150/267/145 140/243/135 139/242/134
f 152/269/147 136/235/131 143/249/138
f 152/271/147 140/243/135 151/268/146
f 149/261/144 151/268/146 146/255/141
f 23/33/18 25/35/20 26/60/21
f 23/36/18 27/38/22 28/47/23
f 23/36/18 29/40/24 24/34/19
f 30/41/25 32/43/27 33/67/28
f 30/44/25 25/35/20 24/34/19
f 30/41/25 29/40/24 31/58/26
f 34/46/29 27/38/22 35/73/30
f 34/48/29 36/50/31 37/54/32
f 34/51/29 29/40/24 28/39/23
f 38/53/33 36/50/31 39/80/34
f 38/55/33 32/43/27 31/42/26
f 38/57/33 29/40/24 37/52/32
f 40/59/35 25/35/20 41/71/36
f 40/61/35 42/63/37 43/74/38
f 40/64/35 27/38/22 26/37/21
f 44/66/39 32/43/27 45/78/40
f 44/68/39 42/63/37 41/62/36
f 44/70/39 25/35/20 33/45/28
f 46/72/41 27/38/22 43/65/38
f 46/72/41 42/63/37 47/76/42
f 46/75/41 36/50/31 35/49/30
f 48/77/43 32/43/27 39/56/34
f 48/79/43 36/50/31 47/76/42
f 48/77/43 42/63/37 45/69/40
f 549/273/148 550/274/149 309/275/150
f 551/276/151 550/274/149 549/273/148
f 552/277/152 550/274/149 551/276/151
f 550/274/149 273/278/153 309/275/150
f 549/279/148 380/280/154 553/281/155
f 380/280/154 549/279/148 309/282/150
f 551/283/151 553/281/155 554/284/156
f 553/281/155 551/283/151 549/279/148
f 552/285/152 554/286/156 555/287/157
f 554/286/156 552/285/152 551/288/151
f 550/289/149 555/287/157 556/290/158
f 555/287/157 550/289/149 552/285/152
f 273/291/153 556/292/158 296/293/159
f 556/292/158 273/291/153 550/294/149
f 557/295/160 344/296/161 331/297/162
f 557/295/160 558/298/163 344/296/161
f 557/295/160 559/299/164 558/298/163
f 557/295/160 560/300/165 559/299/164
f 561/301/166 260/302/167 558/303/163
f 344/304/161 558/303/163 260/302/167
f 562/305/168 561/301/166 559/306/164
f 558/303/163 559/306/164 561/301/166
f 563/307/169 562/308/168 560/309/165
f 559/310/164 560/309/165 562/308/168
f 564/311/170 563/307/169 557/312/160
f 560/309/165 557/312/160 563/307/169
f 367/313/171 564/314/170 331/315/162
f 557/316/160 331/315/162 564/314/170
f 565/317/172 567/318/173 566/319/174
f 566/319/174 567/318/173 568/320/175
f 562/308/168 563/307/169 554/286/156
f 554/286/156 563/307/169 555/287/157
f 553/281/155 562/305/168 554/284/156
f 562/305/168 553/281/155 561/301/166
f 260/302/167 553/281/155 380/280/154
f 553/281/155 260/302/167 561/301/166
f 564/314/170 367/313/171 556/292/158
f 556/292/158 367/313/171 296/293/159
f 566/319/174 568/320/175 555/287/157
f 556/290/158 555/287/157 568/320/175
f 567/318/173 563/307/169 564/311/170
f 563/307/169 567/318/173 565/317/172
f 565/317/172 555/287/157 563/307/169
f 555/287/157 565/317/172 566/319/174
usemtl _evo.png
f 153/321/176 154/322/177 155/323/178
f 155/323/178 156/324/179 153/321/176
f 156/324/179 155/323/178 157/325/180
f 157/325/180 158/326/180 156/324/179
f 154/322/177 153/321/176 159/327/181
f 159/327/181 160/328/181 154/322/177
f 161/329/182 162/330/183 163/331/184
f 163/331/184 164/332/185 161/329/182
f 165/333/186 166/334/187 162/335/183
f 162/335/183 161/336/182 165/333/186
f 166/337/187 167/338/188 163/339/184
f 163/339/184 162/340/183 166/337/187
f 167/341/188 168/342/189 164/343/185
f 164/343/185 163/344/184 167/341/188
f 168/345/189 165/346/186 161/347/182
f 161/347/182 164/348/185 168/345/189
f 169/349/190 170/350/191 171/351/192
f 169/349/190 172/352/193 170/350/191
f 169/349/190 173/353/194 172/352/193
f 169/349/190 174/354/195 173/353/194
f 169/349/190 175/355/196 174/354/195
f 169/349/190 176/356/197 175/355/196
f 169/349/190 177/357/198 176/356/197
f 169/349/190 171/351/192 177/357/198
f 171/358/192 178/359/199 179/360/200
f 171/358/192 170/361/191 178/359/199
f 170/362/191 180/363/201 178/364/199
f 170/362/191 172/365/193 180/363/201
f 172/365/193 181/366/202 180/363/201
f 172/365/193 173/367/194 181/366/202
f 173/368/194 182/369/203 181/370/202
f 173/368/194 174/371/195 182/369/203
f 174/372/195 183/373/204 182/374/203
f 174/372/195 175/375/196 183/373/204
f 175/375/196 184/376/205 183/373/204
f 175/375/196 176/377/197 184/376/205
f 176/377/197 185/378/206 184/376/205
f 176/377/197 177/379/198 185/378/206
f 177/379/198 179/380/200 185/378/206
f 177/379/198 171/381/192 179/380/200
f 179/380/200 186/382/207 187/383/208
f 179/380/200 178/384/199 186/382/207
f 178/384/199 188/385/209 186/382/207
f 178/386/199 180/387/201 188/388/209
f 180/387/201 189/389/210 188/388/209
f 180/390/201 181/391/202 189/392/210
f 181/391/202 190/393/211 189/392/210
f 181/391/202 182/374/203 190/393/211
f 182/394/203 191/395/212 190/396/211
f 182/394/203 183/397/204 191/395/212
f 183/397/204 192/398/213 191/395/212
f 183/373/204 184/376/205 192/399/213
f 184/376/205 193/400/214 192/399/213
f 184/401/205 185/402/206 193/403/214
f 185/402/206 187/404/208 193/403/214
f 185/402/206 179/405/200 187/404/208
f 187/406/208 194/407/215 195/408/216
f 187/409/208 186/410/207 194/411/215
f 186/412/207 196/413/217 194/414/215
f 186/382/207 188/385/209 196/415/217
f 188/388/209 197/416/218 196/413/217
f 188/388/209 189/389/210 197/416/218
f 189/389/210 198/417/219 197/416/218
f 189/392/210 190/393/211 198/418/219
f 190/393/211 199/419/220 198/418/219
f 190/393/211 191/420/212 199/419/220
f 191/420/212 200/421/221 199/419/220
f 191/420/212 192/399/213 200/421/221
f 192/399/213 201/422/222 200/421/221
f 192/399/213 193/400/214 201/422/222
f 193/400/214 195/423/216 201/422/222
f 193/400/214 187/383/208 195/423/216
f 202/424/223 195/425/216 194/426/215
f 202/424/223 194/426/215 196/427/217
f 202/424/223 196/427/217 197/428/218
f 202/424/223 197/428/218 198/429/219
f 202/424/223 198/429/219 199/430/220
f 202/431/223 199/419/220 200/421/221
f 202/424/223 200/432/221 201/433/222
f 202/424/223 201/433/222 195/425/216
f 203/434/190 204/435/224 205/436/225
f 203/434/190 206/437/226 204/435/224
f 206/437/226 207/438/227 204/435/224
f 206/437/226 208/439/228 207/438/227
f 208/439/228 209/440/229 207/438/227
f 208/439/228 210/441/223 209/440/229
f 210/441/223 211/442/230 209/440/229
f 210/441/223 212/443/231 211/442/230
f 212/443/231 213/444/232 211/442/230
f 212/443/231 214/445/233 213/444/232
f 214/445/233 205/436/225 213/444/232
f 214/445/233 203/434/190 205/436/225
f 205/436/225 215/446/234 216/447/235
f 205/436/225 204/435/224 215/446/234
f 204/435/224 217/448/236 215/446/234
f 204/435/224 207/438/227 217/448/236
f 207/438/227 218/449/237 217/448/236
f 207/438/227 209/440/229 218/449/237
f 209/440/229 219/450/238 218/449/237
f 209/440/229 211/442/230 219/450/238
f 211/442/230 220/451/239 219/450/238
f 211/442/230 213/444/232 220/451/239
f 213/444/232 216/447/235 220/451/239
f 213/444/232 205/436/225 216/447/235
f 216/447/235 221/452/240 222/453/241
f 216/447/235 215/446/234 221/452/240
f 215/454/234 223/455/242 221/456/240
f 215/446/234 217/448/236 223/457/242
f 217/448/236 224/458/243 223/457/242
f 217/448/236 218/449/237 224/458/243
f 218/449/237 225/459/244 224/458/243
f 218/449/237 219/450/238 225/459/244
f 219/450/238 226/460/245 225/459/244
f 219/450/238 220/451/239 226/460/245
f 220/451/239 222/453/241 226/460/245
f 220/451/239 216/447/235 222/453/241
f 222/453/241 227/461/246 228/462/247
f 222/453/241 221/452/240 227/461/246
f 221/452/240 229/463/248 227/461/246
f 221/452/240 223/457/242 229/463/248
f 223/457/242 230/464/249 229/463/248
f 223/457/242 224/458/243 230/464/249
f 224/458/243 231/465/250 230/464/249
f 224/458/243 225/459/244 231/465/250
f 225/459/244 232/466/251 231/465/250
f 225/459/244 226/460/245 232/466/251
f 226/460/245 228/462/247 232/466/251
f 226/460/245 222/453/241 228/462/247
f 228/462/247 233/467/226 234/468/190
f 228/462/247 227/461/246 233/467/226
f 227/461/246 235/469/228 233/467/226
f 227/461/246 229/463/248 235/469/228
f 229/463/248 236/470/223 235/469/228
f 229/463/248 230/464/249 236/470/223
f 230/464/249 237/471/231 236/470/223
f 230/464/249 231/465/250 237/471/231
f 231/465/250 238/472/233 237/471/231
f 231/465/250 232/466/251 238/472/233
f 232/466/251 234/468/190 238/472/233
f 232/466/251 228/462/247 234/468/190
f 239/473/252 240/474/253 241/475/254
f 241/475/254 242/476/255 239/473/252
f 242/476/255 241/475/254 243/477/180
f 243/477/180 244/478/180 242/476/255
f 240/474/253 239/473/252 245/479/181
f 245/479/181 246/480/181 240/474/253
f 247/481/256 248/482/257 249/483/258
f 247/481/256 249/483/258 250/484/259
f 251/485/260 252/486/261 253/487/262
f 254/488/263 251/485/260 253/487/262
f 255/489/264 256/490/265 257/491/266
f 257/491/266 256/490/265 258/492/267
f 259/493/268 257/491/266 8/494/269
f 257/491/266 258/492/267 8/494/269
f 261/495/270 259/493/268 8/494/269
f 262/496/271 263/497/272 264/498/273
f 265/499/274 261/495/270 8/494/269
f 266/500/275 267/501/276 268/502/277
f 269/503/278 270/504/279 266/505/275
f 269/506/278 266/500/275 268/502/277
f 271/507/280 269/506/278 268/502/277
f 272/508/281 271/507/280 7/509/282
f 7/509/282 271/507/280 268/502/277
f 7/509/282 268/502/277 274/510/283
f 7/509/282 274/510/283 275/511/284
f 276/512/285 7/509/282 277/513/286
f 278/514/287 276/512/285 277/513/286
f 7/509/282 275/511/284 8/494/269
f 279/515/288 278/514/287 277/513/286
f 275/511/284 280/516/289 8/494/269
f 280/516/289 262/496/271 8/494/269
f 277/513/286 7/509/282 8/494/269
f 8/494/269 262/496/271 264/498/273
f 264/517/273 281/518/290 282/519/291
f 8/520/269 264/521/273 282/522/291
f 265/499/274 8/494/269 282/523/291
f 248/524/257 283/525/292 284/526/293
f 284/526/293 249/527/258 248/524/257
f 247/528/256 285/529/294 283/525/292
f 283/525/292 248/524/257 247/528/256
f 249/530/258 284/531/293 286/532/295
f 286/532/295 250/533/259 249/530/258
f 252/486/261 287/534/296 288/535/297
f 288/535/297 253/487/262 252/486/261
f 255/536/264 289/537/298 285/529/294
f 285/529/294 247/528/256 255/536/264
f 290/538/299 291/539/300 292/540/301
f 293/541/302 258/542/267 256/543/265
f 257/544/266 294/545/303 289/537/298
f 289/537/298 255/536/264 257/544/266
f 259/546/268 295/547/304 294/545/303
f 294/545/303 257/544/266 259/546/268
f 258/542/267 292/540/301 1/548/305
f 1/548/305 8/549/269 258/542/267
f 261/550/270 297/551/306 295/547/304
f 295/547/304 259/546/268 261/550/270
f 263/552/272 298/553/307 299/554/308
f 299/554/308 264/555/273 263/552/272
f 262/556/271 300/557/309 298/553/307
f 298/553/307 263/552/272 262/556/271
f 265/558/274 301/559/310 297/551/306
f 297/551/306 261/550/270 265/558/274
f 267/560/276 302/561/311 303/562/312
f 303/562/312 268/563/277 267/560/276
f 266/564/275 304/565/313 302/561/311
f 302/561/311 267/560/276 266/564/275
f 270/566/279 305/567/314 304/565/313
f 304/565/313 266/564/275 270/566/279
f 269/568/278 306/569/315 305/570/314
f 305/570/314 270/571/279 269/568/278
f 271/572/280 307/573/316 306/569/315
f 306/569/315 269/568/278 271/572/280
f 272/574/281 308/575/317 307/573/316
f 307/573/316 271/572/280 272/574/281
f 7/576/282 6/577/318 308/575/317
f 308/575/317 272/574/281 7/576/282
f 268/563/277 303/562/312 310/578/319
f 310/578/319 274/579/283 268/563/277
f 274/579/283 310/578/319 311/580/320
f 311/580/320 275/581/284 274/579/283
f 276/582/285 312/583/321 6/577/322
f 6/577/322 7/576/282 276/582/285
f 278/584/287 313/585/323 312/583/321
f 312/583/321 276/582/285 278/584/287
f 275/581/284 311/580/320 314/586/324
f 314/586/324 280/587/289 275/581/284
f 279/588/288 315/589/325 313/590/323
f 313/590/323 278/591/287 279/588/288
f 280/587/289 314/586/324 300/557/309
f 300/557/309 262/556/271 280/587/289
f 277/592/286 316/593/326 315/589/325
f 315/589/325 279/588/288 277/592/286
f 8/594/269 1/595/305 316/596/326
f 316/596/326 277/597/286 8/594/269
f 281/598/290 317/599/327 318/600/328
f 318/600/328 282/601/291 281/598/290
f 264/555/273 299/554/308 317/599/327
f 317/599/327 281/598/290 264/555/273
f 282/601/291 318/600/328 301/559/310
f 301/559/310 265/558/274 282/601/291
f 319/602/329 320/603/330 321/604/331
f 321/604/331 320/603/330 322/605/332
f 323/606/333 324/607/334 325/608/335
f 324/607/334 326/609/336 325/608/335
f 327/610/337 328/611/338 329/612/339
f 330/613/340 328/614/338 327/610/337
f 328/611/338 4/615/341 329/612/339
f 328/611/338 332/616/342 4/615/341
f 332/616/342 333/617/343 4/615/341
f 334/618/344 335/619/345 336/620/346
f 333/617/343 337/621/347 4/615/341
f 338/622/348 339/623/349 340/624/350
f 341/625/351 342/626/352 339/623/349
f 339/623/349 342/626/352 340/624/350
f 342/626/352 343/627/353 340/624/350
f 343/627/353 5/628/354 340/624/350
f 345/629/355 5/628/354 343/627/353
f 340/624/350 5/628/354 346/630/356
f 346/630/356 5/628/354 347/631/357
f 5/628/354 4/615/341 347/631/357
f 4/615/341 348/632/358 347/631/357
f 349/633/359 4/615/341 5/628/354
f 349/633/359 5/628/354 350/634/360
f 4/615/341 336/620/346 335/619/345
f 348/632/358 4/615/341 335/619/345
f 349/633/359 350/634/360 351/635/361
f 349/633/359 351/635/361 352/636/362
f 353/637/363 336/638/346 354/639/364
f 336/640/346 4/641/341 354/642/364
f 4/615/341 337/621/347 354/643/364
f 355/644/365 319/645/329 356/646/366
f 321/647/331 356/646/366 319/645/329
f 357/648/367 320/649/330 355/644/365
f 319/645/329 355/644/365 320/649/330
f 356/650/366 321/651/331 358/652/368
f 322/653/332 358/652/368 321/651/331
f 359/654/369 323/606/333 360/655/370
f 325/608/335 360/655/370 323/606/333
f 361/656/298 330/657/340 357/648/367
f 320/649/330 357/648/367 330/657/340
f 362/658/371 363/659/372 364/660/373
f 363/659/372 362/658/371 327/661/337
f 365/662/303 328/663/338 361/656/298
f 330/657/340 361/656/298 328/663/338
f 366/664/304 332/665/342 365/662/303
f 328/663/338 365/662/303 332/665/342
f 364/660/373 329/666/339 2/667/374
f 4/668/341 2/667/374 329/666/339
f 368/669/306 333/670/343 366/664/304
f 332/665/342 366/664/304 333/670/343
f 369/671/375 334/672/344 370/673/376
f 336/674/346 370/673/376 334/672/344
f 371/675/309 335/676/345 369/671/375
f 334/672/344 369/671/375 335/676/345
f 372/677/310 337/678/347 368/669/306
f 333/670/343 368/669/306 337/678/347
f 373/679/311 338/680/348 374/681/312
f 340/682/350 374/681/312 338/680/348
f 375/683/377 339/684/349 373/679/311
f 338/680/348 373/679/311 339/684/349
f 376/685/378 341/686/351 375/683/377
f 339/684/349 375/683/377 341/686/351
f 377/687/379 342/688/352 376/689/378
f 341/690/351 376/689/378 342/688/352
f 378/691/380 343/692/353 377/687/379
f 342/688/352 377/687/379 343/692/353
f 379/693/381 345/694/355 378/691/380
f 343/692/353 378/691/380 345/694/355
f 3/695/382 5/696/354 379/693/381
f 345/694/355 379/693/381 5/696/354
f 374/681/312 340/682/350 381/697/319
f 346/698/356 381/697/319 340/682/350
f 381/697/319 346/698/356 382/699/320
f 347/700/357 382/699/320 346/698/356
f 383/701/383 350/702/360 3/695/384
f 5/696/354 3/695/384 350/702/360
f 384/703/385 351/704/361 383/701/383
f 350/702/360 383/701/383 351/704/361
f 382/699/320 347/700/357 385/705/324
f 348/706/358 385/705/324 347/700/357
f 386/707/386 352/708/362 384/709/385
f 351/710/361 384/709/385 352/708/362
f 385/705/324 348/706/358 371/675/309
f 335/676/345 371/675/309 348/706/358
f 387/711/387 349/712/359 386/707/386
f 352/708/362 386/707/386 349/712/359
f 2/713/374 4/714/341 387/715/387
f 349/716/359 387/715/387 4/714/341
f 388/717/388 353/718/363 389/719/389
f 354/720/364 389/721/389 353/722/363
f 370/673/376 336/674/346 388/717/388
f 353/718/363 388/717/388 336/674/346
f 389/719/389 354/723/364 372/677/310
f 337/678/347 372/677/310 354/723/364
f 390/724/390 391/725/391 392/726/392
f 391/725/391 393/727/393 392/726/392
f 384/709/385 313/590/323 386/707/386
f 313/590/323 315/589/325 386/707/386
f 312/583/321 313/585/323 384/703/385
f 384/703/385 383/701/383 312/583/321
f 3/695/384 6/577/322 312/583/321
f 312/583/321 383/701/383 3/695/384
f 308/575/317 6/577/318 3/695/382
f 3/695/382 379/693/381 308/575/317
f 379/693/381 378/691/380 308/575/317
f 307/573/316 308/575/317 378/691/380
f 378/691/380 377/687/379 307/573/316
f 377/687/379 306/569/315 307/573/316
f 376/689/378 306/569/315 377/687/379
f 305/570/314 306/569/315 376/689/378
f 376/685/378 304/565/313 305/567/314
f 375/683/377 304/565/313 376/685/378
f 302/561/311 304/565/313 375/683/377
f 375/683/377 373/679/311 302/561/311
f 374/681/312 302/561/311 373/679/311
f 303/562/312 302/561/311 374/681/312
f 374/681/312 381/697/319 303/562/312
f 381/697/319 310/578/319 303/562/312
f 310/578/319 381/697/319 311/580/320
f 381/697/319 382/699/320 311/580/320
f 311/580/320 382/699/320 314/586/324
f 382/699/320 385/705/324 314/586/324
f 314/586/324 385/705/324 300/557/309
f 385/705/324 371/675/309 300/557/309
f 300/557/309 371/675/309 298/553/307
f 371/675/309 369/671/375 298/553/307
f 298/553/307 369/671/375 299/554/308
f 369/671/375 370/673/376 299/554/308
f 370/673/376 388/717/388 299/554/308
f 388/717/388 317/599/327 299/554/308
f 317/599/327 388/717/388 389/719/389
f 389/719/389 318/600/328 317/599/327
f 372/677/310 301/559/310 389/719/389
f 301/559/310 318/600/328 389/719/389
f 372/677/310 297/551/306 301/559/310
f 368/669/306 297/551/306 372/677/310
f 366/664/304 295/547/304 368/669/306
f 295/547/304 297/551/306 368/669/306
f 365/662/303 294/545/303 366/664/304
f 294/545/303 295/547/304 366/664/304
f 365/662/303 289/537/298 294/545/303
f 361/656/298 289/537/298 365/662/303
f 285/529/294 289/537/298 357/648/367
f 357/648/367 289/537/298 361/656/298
f 283/525/292 285/529/294 355/644/365
f 285/529/294 357/648/367 355/644/365
f 284/526/293 283/525/292 356/646/366
f 356/646/366 283/525/292 355/644/365
f 356/650/366 358/652/368 284/531/293
f 358/652/368 286/532/295 284/531/293
f 358/652/368 394/728/394 286/532/295
f 394/728/394 395/729/395 286/532/295
f 396/730/396 291/539/300 362/658/371
f 291/539/300 395/731/395 394/732/394
f 2/667/374 1/548/305 364/660/373
f 1/548/305 292/540/301 364/660/373
f 387/715/387 316/596/326 2/713/374
f 316/596/326 1/595/305 2/713/374
f 323/606/333 322/733/332 324/607/334
f 320/734/330 324/607/334 322/733/332
f 326/609/336 330/735/340 327/736/337
f 327/736/337 325/608/335 326/609/336
f 324/607/334 320/734/330 330/735/340
f 330/735/340 326/609/336 324/607/334
f 359/654/369 358/737/368 322/733/332
f 322/733/332 323/606/333 359/654/369
f 360/655/370 394/738/394 358/737/368
f 358/737/368 359/654/369 360/655/370
f 325/608/335 327/736/337 360/655/370
f 394/738/394 360/655/370 327/736/337
f 251/485/260 247/739/256 250/740/259
f 250/740/259 252/486/261 251/485/260
f 254/488/263 255/741/264 247/739/256
f 247/739/256 251/485/260 254/488/263
f 253/487/262 256/742/265 255/741/264
f 255/741/264 254/488/263 253/487/262
f 252/486/261 250/740/259 286/743/295
f 286/743/295 287/534/296 252/486/261
f 287/534/296 286/743/295 288/535/297
f 395/744/395 288/535/297 286/743/295
f 288/535/297 395/744/395 256/742/265
f 256/742/265 253/487/262 288/535/297
f 292/540/301 258/542/267 293/541/302
f 292/540/301 293/541/302 290/538/299
f 256/543/265 395/731/395 290/538/299
f 256/543/265 290/538/299 293/541/302
f 290/538/299 395/731/395 291/539/300
f 292/540/301 291/539/300 396/730/396
f 364/660/373 292/540/301 396/730/396
f 364/660/373 396/730/396 362/658/371
f 394/732/394 327/661/337 362/658/371
f 394/732/394 362/658/371 291/539/300
f 329/666/339 364/660/373 363/659/372
f 329/666/339 363/659/372 327/661/337
f 391/725/391 315/589/325 393/727/393
f 316/593/326 393/727/393 315/589/325
f 392/726/392 387/711/387 386/707/386
f 386/707/386 390/724/390 392/726/392
f 390/724/390 386/707/386 315/589/325
f 315/589/325 391/725/391 390/724/390
f 393/745/393 316/746/326 387/747/387
f 387/747/387 392/748/392 393/745/393
f 397/749/182 398/750/183 399/751/184
f 399/751/184 400/752/185 397/749/182
f 401/753/186 402/754/187 398/755/183
f 398/755/183 397/756/182 401/753/186
f 402/757/187 403/758/188 399/759/184
f 399/759/184 398/760/183 402/757/187
f 403/761/188 404/762/189 400/763/185
f 400/763/185 399/764/184 403/761/188
f 404/765/189 401/766/186 397/767/182
f 397/767/182 400/768/185 404/765/189
f 405/769/252 406/770/253 407/771/254
f 407/771/254 408/772/255 405/769/252
f 408/772/255 407/771/254 409/773/180
f 409/773/180 410/774/180 408/772/255
f 406/770/253 405/769/252 411/775/181
f 411/775/181 412/776/181 406/770/253
f 413/777/190 414/778/224 415/779/225
f 413/777/190 416/780/226 414/778/224
f 416/780/226 417/781/397 414/778/224
f 416/780/226 418/782/228 417/781/397
f 418/782/228 419/783/229 417/781/397
f 418/782/228 420/784/223 419/783/229
f 420/784/223 421/785/230 419/783/229
f 420/784/223 422/786/231 421/785/230
f 422/786/231 423/787/232 421/785/230
f 422/786/231 424/788/233 423/787/232
f 424/788/233 415/779/225 423/787/232
f 424/788/233 413/777/190 415/779/225
f 415/779/225 425/789/234 426/790/235
f 415/779/225 414/778/224 425/789/234
f 414/778/224 427/791/236 425/789/234
f 414/778/224 417/781/397 427/791/236
f 417/781/397 428/792/237 427/791/236
f 417/781/397 419/783/229 428/792/237
f 419/783/229 429/793/238 428/792/237
f 419/783/229 421/785/230 429/793/238
f 421/785/230 430/794/239 429/793/238
f 421/785/230 423/787/232 430/794/239
f 423/787/232 426/790/235 430/794/239
f 423/787/232 415/779/225 426/790/235
f 426/790/235 431/795/240 432/796/241
f 426/790/235 425/789/234 431/795/240
f 425/789/234 433/797/242 431/795/240
f 425/789/234 427/791/236 433/797/242
f 427/791/236 434/798/243 433/797/242
f 427/791/236 428/792/237 434/798/243
f 428/792/237 435/799/244 434/798/243
f 428/792/237 429/793/238 435/799/244
f 429/793/238 436/800/245 435/799/244
f 429/793/238 430/794/239 436/800/245
f 430/794/239 432/796/241 436/800/245
f 430/794/239 426/790/235 432/796/241
f 432/796/241 437/801/246 438/802/247
f 432/796/241 431/795/240 437/801/246
f 431/803/240 439/804/248 437/805/246
f 431/803/240 433/806/242 439/804/248
f 433/806/242 440/807/249 439/804/248
f 433/806/242 434/808/243 440/807/249
f 434/808/243 441/809/250 440/807/249
f 434/798/243 435/799/244 441/810/250
f 435/799/244 442/811/251 441/810/250
f 435/799/244 436/800/245 442/811/251
f 436/800/245 438/802/247 442/811/251
f 436/800/245 432/796/241 438/802/247
f 438/802/247 443/812/226 444/813/190
f 438/802/247 437/801/246 443/812/226
f 437/801/246 445/814/228 443/812/226
f 437/815/246 439/816/248 445/817/228
f 439/818/248 446/819/223 445/820/228
f 439/818/248 440/821/249 446/819/223
f 440/821/249 447/822/231 446/819/223
f 440/821/249 441/810/250 447/822/231
f 441/810/250 448/823/233 447/822/231
f 441/810/250 442/811/251 448/823/233
f 442/811/251 444/813/190 448/823/233
f 442/811/251 438/802/247 444/813/190
f 449/824/398 450/825/399 451/826/400
f 449/824/398 452/827/401 450/825/399
f 452/827/401 453/828/402 450/825/399
f 452/827/401 454/829/403 453/828/402
f 454/829/403 455/830/404 453/828/402
f 454/829/403 456/831/405 455/830/404
f 456/831/405 457/832/406 455/830/404
f 456/831/405 458/833/407 457/832/406
f 458/833/407 459/834/408 457/832/406
f 458/833/407 460/835/409 459/834/408
f 460/835/409 451/826/400 459/834/408
f 460/835/409 449/824/398 451/826/400
f 451/826/400 461/836/410 462/837/411
f 451/826/400 450/825/399 461/836/410
f 450/825/399 463/838/412 461/836/410
f 450/839/399 453/840/402 463/841/412
f 453/828/402 464/842/413 463/838/412
f 453/828/402 455/830/404 464/842/413
f 455/830/404 465/843/414 464/842/413
f 455/830/404 457/832/406 465/843/414
f 457/832/406 466/844/415 465/843/414
f 457/832/406 459/834/408 466/844/415
f 459/834/408 462/837/411 466/844/415
f 459/834/408 451/826/400 462/837/411
f 462/845/411 467/846/416 468/847/417
f 462/845/411 461/848/410 467/846/416
f 461/836/410 469/849/418 467/850/416
f 461/836/410 463/838/412 469/849/418
f 463/838/412 470/851/419 469/849/418
f 463/838/412 464/842/413 470/851/419
f 464/842/413 471/852/420 470/851/419
f 464/842/413 465/843/414 471/852/420
f 465/843/414 472/853/421 471/852/420
f 465/843/414 466/844/415 472/853/421
f 466/844/415 468/854/417 472/853/421
f 466/844/415 462/837/411 468/854/417
f 473/855/176 474/856/177 475/857/178
f 475/857/178 476/858/179 473/855/176
f 476/858/179 475/857/178 477/859/180
f 477/859/180 478/860/180 476/858/179
f 474/856/177 473/855/176 479/861/181
f 479/861/181 480/862/181 474/856/177
f 481/863/422 482/864/423 483/865/424
f 482/864/423 481/863/422 484/866/425
f 481/867/422 483/868/424 485/869/426
f 485/869/426 486/870/427 481/867/422
f 486/871/427 485/872/426 487/873/428
f 487/873/428 488/874/429 486/871/427
f 489/875/430 490/876/431 491/877/432
f 490/876/431 489/875/430 492/878/433
f 490/879/431 493/880/434 494/881/435
f 494/881/435 491/882/432 490/879/431
f 493/883/434 495/884/436 496/885/437
f 496/885/437 494/886/435 493/883/434
f 484/887/425 481/888/422 490/889/431
f 490/889/431 492/890/433 484/887/425
f 481/888/422 486/891/427 493/892/434
f 493/892/434 490/889/431 481/888/422
f 486/891/427 488/893/429 495/894/436
f 495/894/436 493/892/434 486/891/427
f 488/895/429 487/896/428 496/897/437
f 496/897/437 495/898/436 488/895/429
f 487/899/428 485/900/426 494/901/435
f 494/901/435 496/902/437 487/899/428
f 485/900/426 483/903/424 491/904/432
f 491/904/432 494/901/435 485/900/426
f 483/903/424 482/905/423 489/906/430
f 489/906/430 491/904/432 483/903/424
f 482/907/423 484/908/425 492/909/433
f 492/909/433 489/910/430 482/907/423
f 497/911/438 498/912/439 499/913/440
f 499/913/440 500/914/441 497/911/438
f 501/915/442 497/911/438 500/914/441
f 500/914/441 502/916/443 501/915/442
f 503/917/444 501/915/442 502/916/443
f 502/916/443 504/918/445 503/917/444
f 505/919/446 503/917/444 504/918/445
f 504/918/445 506/920/447 505/919/446
f 507/921/448 508/922/449 509/923/450
f 509/923/450 510/924/451 507/921/448
f 511/925/452 512/926/453 508/922/449
f 508/922/449 507/921/448 511/925/452
f 513/927/454 514/928/455 512/926/453
f 512/926/453 511/925/452 513/927/454
f 515/929/456 516/930/457 514/931/455
f 514/931/455 513/932/454 515/929/456
f 508/933/449 500/934/441 499/935/440
f 499/935/440 509/936/450 508/933/449
f 512/937/453 502/938/443 500/934/441
f 500/934/441 508/933/449 512/937/453
f 514/939/455 504/940/445 502/938/443
f 502/938/443 512/937/453 514/939/455
f 516/941/457 506/942/447 504/940/445
f 504/940/445 514/939/455 516/941/457
f 515/929/456 505/943/446 506/944/447
f 506/944/447 516/930/457 515/929/456
f 513/945/454 503/946/444 505/947/446
f 505/947/446 515/948/456 513/945/454
f 511/949/452 501/950/442 503/946/444
f 503/946/444 513/945/454 511/949/452
f 507/951/448 497/952/438 501/950/442
f 501/950/442 511/949/452 507/951/448
f 510/953/451 498/954/439 497/955/438
f 497/955/438 507/956/448 510/953/451
f 517/957/458 518/958/459 519/959/460
f 517/957/458 520/960/461 518/958/459
f 518/961/459 520/962/461 521/963/462
f 520/962/461 522/964/463 521/963/462
f 523/965/464 524/966/465 525/967/466
f 524/966/465 526/968/467 525/967/466
f 523/969/464 527/970/468 524/971/465
f 528/972/469 527/970/468 523/969/464
f 529/973/470 530/974/471 531/975/472
f 531/975/472 532/976/473 529/973/470
f 532/976/473 531/975/472 533/977/474
f 533/977/474 534/978/475 532/976/473
f 534/978/475 533/977/474 535/979/476
f 535/979/476 536/980/477 534/978/475
f 536/980/477 535/979/476 537/981/478
f 537/981/478 538/982/479 536/980/477
f 539/983/480 540/984/481 541/985/482
f 541/985/482 542/986/483 539/983/480
f 540/984/481 543/987/484 544/988/485
f 544/988/485 541/985/482 540/984/481
f 543/987/484 545/989/486 546/990/487
f 546/990/487 544/988/485 543/987/484
f 545/991/486 547/992/488 548/993/489
f 548/993/489 546/994/487 545/991/486
f 529/995/470 532/996/473 540/997/481
f 540/997/481 539/998/480 529/995/470
f 532/996/473 534/999/475 543/1000/484
f 543/1000/484 540/997/481 532/996/473
f 534/999/475 536/1001/477 545/1002/486
f 545/1002/486 543/1000/484 534/999/475
f 536/1001/477 538/1003/479 547/1004/488
f 547/1004/488 545/1002/486 536/1001/477
f 538/1005/479 537/1006/478 548/993/489
f 548/993/489 547/992/488 538/1005/479
f 537/1007/478 535/1008/476 546/1009/487
f 546/1009/487 548/1010/489 537/1007/478
f 535/1008/476 533/1011/474 544/1012/485
f 544/1012/485 546/1009/487 535/1008/476
f 533/1011/474 531/1013/472 541/1014/482
f 541/1014/482 544/1012/485 533/1011/474
f 531/1015/472 530/1016/471 542/1017/483
f 542/1017/483 541/1018/482 531/1015/472
