# Blender 4.0.2
# www.blender.org
mtllib Ford_wheel.mtl
o DrawCall_9
v -0.317139 0.272200 1.000005
v -0.317139 0.743636 0.732122
v 0.317139 0.272200 1.000005
v 0.317139 0.743636 0.732122
v -0.317139 1.015744 0.267983
v 0.317139 1.015744 0.267983
v -0.317139 1.015744 -0.267975
v 0.317139 1.015744 -0.267975
v -0.317139 0.743636 -0.732114
v 0.317139 0.743636 -0.732114
v -0.317139 0.272200 -0.999997
v 0.317139 0.272200 -0.999997
v -0.317139 -0.272208 -0.999997
v 0.317139 -0.272208 -0.999997
v -0.317139 -0.743644 -0.732114
v 0.317137 -0.743644 -0.732114
v -0.317139 -1.015752 -0.267975
v 0.317139 -1.015752 -0.267975
v -0.317139 -1.015752 0.267983
v 0.317139 -1.015752 0.267983
v -0.317139 -0.743644 0.732122
v 0.317137 -0.743644 0.732122
v -0.317139 -0.272208 1.000005
v 0.317139 -0.272208 1.000005
v -0.317139 -0.272208 -0.999997
v -0.317139 0.272200 -0.999997
v -0.434086 0.000092 -0.000092
v -0.317139 0.743636 -0.732114
v -0.317139 1.015744 0.267983
v -0.317139 0.743636 0.732122
v -0.317139 -0.743644 -0.732114
v -0.317139 -1.015752 -0.267975
v -0.317139 -1.015752 0.267983
v -0.317139 -0.743644 0.732122
v -0.317139 -0.272208 1.000005
v -0.317139 0.272200 1.000005
v -0.317139 1.015744 -0.267975
v 0.317139 0.272200 1.000005
v 0.317139 0.743636 0.732122
v 0.434086 0.000092 -0.000092
v 0.317139 1.015744 0.267983
v 0.317139 1.015744 -0.267975
v 0.317139 0.743636 -0.732114
v 0.317139 0.272200 -0.999997
v 0.317139 -0.272208 -0.999997
v 0.317137 -0.743644 -0.732114
v 0.317139 -1.015752 -0.267975
v 0.317139 -1.015752 0.267983
v 0.317137 -0.743644 0.732122
v 0.317139 -0.272208 1.000005
vn -0.0000 0.2555 0.9668
vn -0.0000 0.7023 0.7119
vn -0.0000 0.9651 0.2620
vn -0.0000 0.9651 -0.2620
vn -0.0000 0.7023 -0.7119
vn -0.0000 0.2555 -0.9668
vn -0.0000 -0.2555 -0.9668
vn -0.0000 -0.7023 -0.7119
vn -0.0000 -0.9651 -0.2620
vn -0.0000 -0.9651 0.2620
vn -0.0000 -0.7023 0.7119
vn -0.0000 -0.2555 0.9668
vn -0.9937 -0.0288 -0.1084
vn -1.0000 -0.0000 -0.0000
vn -0.9937 0.0288 -0.1084
vn -0.9938 0.0784 -0.0791
vn -0.9939 0.1068 0.0289
vn -0.9938 0.0784 0.0791
vn -0.9938 -0.0784 -0.0791
vn -0.9939 -0.1068 -0.0289
vn -0.9939 -0.1068 0.0289
vn -0.9938 -0.0784 0.0791
vn -0.9937 -0.0288 0.1084
vn -0.9937 0.0288 0.1084
vn -0.9939 0.1068 -0.0289
vn 0.9937 0.0288 0.1084
vn 1.0000 -0.0000 -0.0000
vn 0.9938 0.0784 0.0791
vn 0.9939 0.1068 0.0289
vn 0.9939 0.1068 -0.0289
vn 0.9938 0.0784 -0.0791
vn 0.9937 0.0288 -0.1084
vn 0.9937 -0.0288 -0.1084
vn 0.9938 -0.0784 -0.0791
vn 0.9939 -0.1068 -0.0289
vn 0.9939 -0.1068 0.0289
vn 0.9938 -0.0784 0.0791
vn 0.9937 -0.0288 0.1084
vt 0.583319 0.494151
vt 0.583319 0.369276
vt 0.666656 0.494151
vt 0.666656 0.369276
vt 0.749981 0.494151
vt 0.749981 0.369276
vt 0.624981 0.494151
vt 0.624981 0.369276
vt 0.708319 0.494151
vt 0.708319 0.369276
vt 0.312625 0.375000
vt 0.435962 0.376538
vt 0.329350 0.437450
vt 0.375075 0.483150
vt 0.499950 0.483150
vt 0.545650 0.437450
vt 0.329350 0.312575
vt 0.375075 0.266850
vt 0.437500 0.250125
vt 0.499950 0.266850
vt 0.545650 0.312575
vt 0.562375 0.375000
vt 0.437500 0.499875
vt 0.375050 0.483150
vt 0.499925 0.483150
vt 0.499925 0.266850
vt 0.375050 0.266850
s 1
usemtl material_2.001
f 1/1/1 3/2/1 2/3/2
f 2/3/2 3/2/1 4/4/2
f 2/3/2 4/4/2 5/5/3
f 5/5/3 4/4/2 6/6/3
f 5/7/3 6/8/3 7/9/4
f 7/9/4 6/8/3 8/10/4
f 7/1/4 8/2/4 9/3/5
f 9/3/5 8/2/4 10/4/5
f 9/3/5 10/4/5 11/5/6
f 11/5/6 10/4/5 12/6/6
f 11/7/6 12/8/6 13/9/7
f 13/9/7 12/8/6 14/10/7
f 13/1/7 14/2/7 15/3/8
f 15/3/8 14/2/7 16/4/8
f 15/3/8 16/4/8 17/5/9
f 17/5/9 16/4/8 18/6/9
f 17/7/9 18/8/9 19/9/10
f 19/9/10 18/8/9 20/10/10
f 19/1/10 20/2/10 21/3/11
f 21/3/11 20/2/10 22/4/11
f 21/3/11 22/4/11 23/5/12
f 23/5/12 22/4/11 24/6/12
f 23/7/12 24/8/12 1/9/1
f 1/9/1 24/8/12 3/10/1
usemtl material_8.001
f 25/11/13 27/12/14 26/13/15
f 26/13/15 27/12/14 28/14/16
f 29/15/17 27/12/14 30/16/18
f 31/17/19 27/12/14 25/11/13
f 32/18/20 27/12/14 31/17/19
f 33/19/21 27/12/14 32/18/20
f 34/20/22 27/12/14 33/19/21
f 35/21/23 27/12/14 34/20/22
f 36/22/24 27/12/14 35/21/23
f 28/14/16 27/12/14 37/23/25
f 38/11/26 40/12/27 39/13/28
f 39/13/28 40/12/27 41/24/29
f 41/24/29 40/12/27 42/23/30
f 42/23/30 40/12/27 43/25/31
f 43/25/31 40/12/27 44/16/32
f 44/16/32 40/12/27 45/22/33
f 45/22/33 40/12/27 46/21/34
f 46/21/34 40/12/27 47/26/35
f 47/26/35 40/12/27 48/19/36
f 48/19/36 40/12/27 49/27/37
f 49/27/37 40/12/27 50/17/38
f 50/17/38 40/12/27 38/11/26
f 30/16/18 27/12/14 36/22/24
f 37/23/25 27/12/14 29/15/17
