# Blender v3.0.1 OBJ File: ''
# www.blender.org
mtllib 240sx_wheel.mtl
o 01WhlLOD01.002
v -0.378789 0.692844 0.400000
v -0.327486 1.000012 0.000000
v -0.378789 0.800010 0.000000
v -0.378789 -0.400005 0.692835
v -0.327486 -0.000000 1.000000
v -0.378789 -0.000000 0.800000
v -0.327486 -0.499982 0.866044
v -0.378789 0.400005 0.692835
v -0.327486 0.866054 0.499976
v -0.327486 0.499983 0.866044
v -0.378789 -0.692844 0.400000
v -0.327424 -0.866055 0.499977
v -0.378789 -0.800009 -0.000000
v -0.327486 -1.000012 -0.000000
v -0.327486 0.866054 -0.499976
v 0.327484 0.866055 -0.499976
v -0.327486 0.499982 -0.866044
v 0.327484 0.499982 -0.866044
v -0.327486 0.000000 -1.000000
v 0.327484 0.000000 -1.000000
v -0.327486 -0.499983 -0.866044
v 0.327484 -0.499983 -0.866044
v -0.327486 -0.866055 -0.499976
v 0.327484 -0.866055 -0.499976
v 0.327484 -1.000012 -0.000000
v 0.327484 -0.866055 0.499977
v 0.327484 -0.000000 1.000000
v 0.327484 -0.499982 0.866044
v 0.327484 0.866055 0.499976
v 0.327484 1.000012 0.000000
v 0.327484 0.499983 0.866044
v 0.378787 0.692844 0.400000
v 0.378787 0.800010 0.000000
v 0.378787 0.400005 0.692835
v 0.378787 -0.000000 0.800000
v 0.378787 -0.400004 0.692835
v 0.378787 -0.692844 0.400000
v 0.378787 -0.800009 -0.000000
v 0.378787 -0.692844 -0.400000
v 0.378787 -0.400005 -0.692835
v 0.378787 0.000000 -0.800000
v 0.378787 0.400005 -0.692835
v 0.378787 0.692844 -0.400000
v 0.306790 0.000000 0.000000
v -0.378789 -0.692844 -0.400000
v -0.378789 -0.400005 -0.692835
v -0.378789 0.000000 -0.800000
v -0.378789 0.400004 -0.692835
v -0.378789 0.692844 -0.400000
v -0.306793 0.000000 0.000000
vt 0.831504 0.424825
vt 0.812368 0.374985
vt 0.824829 0.374985
vt 0.899584 0.461309
vt 0.874665 0.499582
vt 0.874665 0.474660
vt 0.905814 0.482887
vt 0.849746 0.461309
vt 0.820716 0.437284
vt 0.843517 0.482887
vt 0.917827 0.424825
vt 0.928616 0.437284
vt 0.924502 0.374989
vt 0.936962 0.374989
vt 0.905120 0.311658
vt 0.844076 0.311658
vt 0.905120 0.374766
vt 0.844076 0.374766
vt 0.905120 0.437845
vt 0.844076 0.437845
vt 0.905120 0.311658
vt 0.844076 0.311658
vt 0.905120 0.374766
vt 0.844076 0.374766
vt 0.905120 0.437845
vt 0.844076 0.437845
vt 0.905120 0.311658
vt 0.844076 0.311658
vt 0.905120 0.374766
vt 0.844076 0.374766
vt 0.905120 0.437845
vt 0.844076 0.437845
vt 0.844076 0.437845
vt 0.905120 0.437845
vt 0.844076 0.374737
vt 0.905120 0.374737
vt 0.844076 0.311658
vt 0.905120 0.311658
vt 0.905120 0.311658
vt 0.844076 0.311658
vt 0.905120 0.374766
vt 0.844076 0.374766
vt 0.905120 0.437845
vt 0.844076 0.437845
vt 0.905120 0.311658
vt 0.844076 0.311658
vt 0.905120 0.374766
vt 0.844076 0.374766
vt 0.905120 0.437845
vt 0.844076 0.437845
vt 0.917827 0.424825
vt 0.924501 0.374985
vt 0.936962 0.374985
vt 0.928615 0.437284
vt 0.899584 0.461309
vt 0.905813 0.482887
vt 0.874667 0.474660
vt 0.874667 0.499582
vt 0.849746 0.461309
vt 0.843517 0.482887
vt 0.831504 0.424825
vt 0.820716 0.437284
vt 0.824828 0.374989
vt 0.812368 0.374989
vt 0.831504 0.325149
vt 0.820716 0.312690
vt 0.849746 0.288665
vt 0.843517 0.267087
vt 0.874665 0.275314
vt 0.874665 0.250393
vt 0.899584 0.288665
vt 0.905813 0.267087
vt 0.917827 0.325149
vt 0.928615 0.312690
vt 0.811863 0.374640
vt 0.803508 0.437011
vt 0.749496 0.373702
vt 0.780680 0.482668
vt 0.749496 0.499378
vt 0.718311 0.482668
vt 0.695482 0.437011
vt 0.687127 0.374645
vt 0.695482 0.312274
vt 0.718311 0.266617
vt 0.749494 0.249907
vt 0.780680 0.266617
vt 0.803508 0.312274
vt 0.917827 0.325149
vt 0.928616 0.312690
vt 0.899584 0.288665
vt 0.905814 0.267087
vt 0.874667 0.275314
vt 0.874667 0.250393
vt 0.849746 0.288665
vt 0.843517 0.267087
vt 0.831504 0.325149
vt 0.820716 0.312690
vt 0.687127 0.374640
vt 0.749494 0.373702
vt 0.695482 0.437011
vt 0.718310 0.482668
vt 0.749494 0.499378
vt 0.780679 0.482668
vt 0.803508 0.437011
vt 0.811863 0.374645
vt 0.803508 0.312274
vt 0.780679 0.266617
vt 0.749496 0.249907
vt 0.718310 0.266617
vt 0.695482 0.312274
vn -0.9792 0.1902 -0.0708
vn -0.6605 0.7151 0.2290
vn -0.9860 0.0667 0.1527
vn -0.9792 0.0708 0.1902
vn -0.6606 -0.2290 0.7150
vn -0.9860 -0.1527 0.0667
vn -0.7508 -0.2383 0.6161
vn -0.9792 0.2001 0.0338
vn -0.6605 0.5048 0.5559
vn -0.7508 0.4141 0.5146
vn -0.9792 -0.0339 0.2001
vn -0.7503 -0.5141 0.4156
vn -0.9792 -0.1293 0.1564
vn -0.7511 -0.6525 0.1009
vn -0.4346 0.6398 -0.6339
vn 0.1700 0.5787 -0.7976
vn -0.3783 0.6023 -0.7030
vn 0.0257 0.4998 -0.8657
vn -0.3783 0.1700 -0.9099
vn 0.0257 -0.0000 -0.9997
vn -0.3784 -0.3074 -0.8731
vn 0.0256 -0.4998 -0.8658
vn -0.3783 -0.7030 -0.6023
vn 0.0257 -0.8657 -0.4998
vn 0.0257 -0.9997 0.0000
vn 0.0257 -0.8657 0.4998
vn 0.0257 0.0000 0.9997
vn 0.5434 0.1472 0.8264
vn 0.1700 0.9801 0.1024
vn 0.0257 0.9997 -0.0000
vn 0.0257 0.4998 0.8657
vn 0.9865 0.1331 -0.0949
vn 0.9655 0.2603 -0.0000
vn 0.9865 0.1628 -0.0157
vn 0.9865 0.1489 0.0678
vn 0.9865 0.0950 0.1332
vn 0.9865 0.0157 0.1628
vn 0.9865 -0.0678 0.1489
vn 0.9865 -0.1331 0.0949
vn 0.9865 -0.1628 0.0157
vn 0.9865 -0.1489 -0.0678
vn 0.9865 -0.0950 -0.1332
vn 0.9865 -0.0157 -0.1628
vn 1.0000 0.0000 -0.0000
vn -0.9792 -0.1902 0.0708
vn -0.9792 -0.2001 -0.0338
vn -0.9792 -0.1564 -0.1293
vn -0.9792 -0.0708 -0.1902
vn -0.9792 0.0338 -0.2001
vn -1.0000 0.0000 0.0000
usemtl 01WhlLOD01_2.002
s 1
f 1/1/1 2/2/2 3/3/3
f 4/4/4 5/5/5 6/6/6
f 7/7/7 5/5/5 4/4/4
f 8/8/8 9/9/9 1/1/1
f 10/10/10 9/9/9 8/8/8
f 6/6/6 10/10/10 8/8/8
f 5/5/5 10/10/10 6/6/6
f 11/11/11 7/7/7 4/4/4
f 12/12/12 7/7/7 11/11/11
f 13/13/13 12/12/12 11/11/11
f 14/14/14 12/12/12 13/13/13
f 9/9/9 2/2/2 1/1/1
f 15/15/15 16/16/16 17/17/17
f 16/16/16 18/18/18 17/17/17
f 17/17/17 18/18/18 19/19/19
f 18/18/18 20/20/20 19/19/19
f 19/21/19 20/22/20 21/23/21
f 20/22/20 22/24/22 21/23/21
f 21/23/21 22/24/22 23/25/23
f 22/24/22 24/26/24 23/25/23
f 23/27/23 24/28/24 14/29/14
f 24/28/24 25/30/25 14/29/14
f 14/29/14 25/30/25 12/31/12
f 25/30/25 26/32/26 12/31/12
f 27/33/27 5/34/5 28/35/28
f 5/34/5 7/36/7 28/35/28
f 28/35/28 7/36/7 26/37/26
f 7/36/7 12/38/12 26/37/26
f 9/39/9 29/40/29 2/41/2
f 29/40/29 30/42/30 2/41/2
f 2/41/2 30/42/30 15/43/15
f 30/42/30 16/44/16 15/43/15
f 5/45/5 27/46/27 10/47/10
f 27/46/27 31/48/31 10/47/10
f 10/47/10 31/48/31 9/49/9
f 31/48/31 29/50/29 9/49/9
f 32/51/32 33/52/33 30/53/30
f 29/54/29 32/51/32 30/53/30
f 34/55/34 32/51/32 29/54/29
f 31/56/31 34/55/34 29/54/29
f 35/57/35 34/55/34 31/56/31
f 27/58/27 35/57/35 31/56/31
f 36/59/36 35/57/35 27/58/27
f 28/60/28 36/59/36 27/58/27
f 37/61/37 36/59/36 28/60/28
f 26/62/26 37/61/37 28/60/28
f 38/63/38 37/61/37 26/62/26
f 25/64/25 38/63/38 26/62/26
f 39/65/39 38/63/38 25/64/25
f 24/66/24 39/65/39 25/64/25
f 40/67/40 39/65/39 24/66/24
f 22/68/22 40/67/40 24/66/24
f 41/69/41 40/67/40 22/68/22
f 20/70/20 41/69/41 22/68/22
f 42/71/42 41/69/41 20/70/20
f 18/72/18 42/71/42 20/70/20
f 43/73/43 42/71/42 18/72/18
f 16/74/16 43/73/43 18/72/18
f 33/52/33 43/73/43 16/74/16
f 30/53/30 33/52/33 16/74/16
f 33/75/33 32/76/32 44/77/44
f 32/76/32 34/78/34 44/77/44
f 34/78/34 35/79/35 44/77/44
f 35/79/35 36/80/36 44/77/44
f 36/80/36 37/81/37 44/77/44
f 37/81/37 38/82/38 44/77/44
f 38/82/38 39/83/39 44/77/44
f 39/83/39 40/84/40 44/77/44
f 40/84/40 41/85/41 44/77/44
f 41/85/41 42/86/42 44/77/44
f 42/86/42 43/87/43 44/77/44
f 43/87/43 33/75/33 44/77/44
f 45/88/45 14/14/14 13/13/13
f 23/89/23 14/14/14 45/88/45
f 46/90/46 23/89/23 45/88/45
f 21/91/21 23/89/23 46/90/46
f 47/92/47 21/91/21 46/90/46
f 19/93/19 21/91/21 47/92/47
f 48/94/48 19/93/19 47/92/47
f 17/95/17 19/93/19 48/94/48
f 49/96/49 17/95/17 48/94/48
f 15/97/15 17/95/17 49/96/49
f 3/3/3 15/97/15 49/96/49
f 2/2/2 15/97/15 3/3/3
f 3/98/3 50/99/50 1/100/1
f 1/100/1 50/99/50 8/101/8
f 8/101/8 50/99/50 6/102/6
f 6/102/6 50/99/50 4/103/4
f 4/103/4 50/99/50 11/104/11
f 11/104/11 50/99/50 13/105/13
f 13/105/13 50/99/50 45/106/45
f 45/106/45 50/99/50 46/107/46
f 46/107/46 50/99/50 47/108/47
f 47/108/47 50/99/50 48/109/48
f 48/109/48 50/99/50 49/110/49
f 49/110/49 50/99/50 3/98/3
