# Blender v3.0.1 OBJ File: ''
# www.blender.org
mtllib fordpolice_wheel.mtl
o Cylinder_Cylinder.002
v 0.359121 -0.923870 0.382679
v -0.359121 -0.923870 0.382679
v -0.359121 -0.999990 -0.000000
v 0.359121 -0.707100 0.707099
v -0.359121 -0.707100 0.707099
v 0.359121 -0.382680 0.923870
v -0.359122 -0.382680 0.923870
v 0.359121 -0.000000 0.999990
v -0.359122 -0.000000 0.999990
v 0.359121 0.382680 0.923870
v -0.359122 0.382680 0.923870
v 0.359121 0.707100 0.707100
v -0.359121 0.707100 0.707100
v 0.359121 0.923870 0.382680
v -0.359121 0.923870 0.382680
v 0.359121 0.999990 0.000000
v -0.359121 0.999990 0.000000
v 0.359121 0.923870 -0.382679
v -0.359121 0.923870 -0.382679
v 0.359121 0.707100 -0.707099
v -0.359121 0.707100 -0.707099
v 0.359122 0.382680 -0.923870
v -0.359121 0.382680 -0.923870
v 0.359122 0.000000 -0.999990
v -0.359121 0.000000 -0.999990
v 0.359122 -0.382680 -0.923870
v -0.359122 -0.382680 -0.923870
v 0.359121 -0.707100 -0.707099
v -0.359121 -0.707100 -0.707099
v -0.378788 -0.598714 -0.598713
v -0.378788 -0.324021 -0.782257
v 0.359121 -0.999990 -0.000000
v -0.359121 -0.923871 -0.382679
v 0.359121 -0.923871 -0.382679
v -0.378788 0.324021 0.782257
v -0.378788 -0.000000 0.846709
v 0.363161 0.510737 -0.510736
v 0.363161 0.276409 -0.667309
v 0.378788 0.324022 -0.782257
v 0.378788 -0.324022 0.782257
v 0.363161 -0.276409 0.667309
v 0.363161 -0.000000 0.722290
v -0.378788 -0.782257 0.324021
v -0.378788 -0.846709 -0.000000
v 0.378788 0.782257 -0.324021
v 0.378788 0.598714 -0.598713
v -0.378788 0.598714 -0.598713
v -0.378788 0.782257 -0.324021
v 0.378788 0.324021 0.782257
v 0.378788 0.598713 0.598713
v 0.378788 -0.598714 -0.598713
v 0.378788 -0.782257 -0.324021
v -0.378788 0.598713 0.598713
v -0.378788 -0.782257 -0.324021
v 0.378788 -0.782257 0.324021
v 0.378788 -0.598713 0.598713
v -0.378788 -0.598713 0.598713
v -0.378788 0.324022 -0.782257
v 0.378788 0.782257 0.324022
v 0.378788 -0.846709 -0.000000
v -0.378788 0.782257 0.324021
v 0.378788 0.000000 -0.846709
v -0.378788 -0.324022 0.782257
v -0.378788 0.000000 -0.846709
v 0.378788 0.846709 0.000000
v -0.378788 0.846709 0.000000
v 0.378788 -0.000000 0.846709
v 0.378788 -0.324021 -0.782257
v -0.363161 0.000000 -0.675005
v -0.363161 0.258313 -0.623623
v -0.363161 0.276409 -0.667309
v -0.363161 0.258313 0.623623
v -0.363161 -0.000000 0.675005
v -0.363161 -0.000000 0.722290
v -0.363161 -0.276409 0.667309
v -0.363161 0.510737 -0.510736
v 0.363161 0.276408 0.667309
v 0.363161 0.000000 -0.722290
v -0.363161 0.276408 0.667309
v -0.363161 0.000000 -0.722290
v 0.363161 0.510736 0.510736
v 0.363161 -0.276408 -0.667309
v -0.363161 0.510736 0.510736
v -0.363161 -0.276408 -0.667309
v 0.363161 0.667309 0.276409
v 0.363161 -0.510736 -0.510736
v -0.363161 0.667309 0.276408
v 0.363161 -0.722290 -0.000000
v 0.363161 -0.667309 0.276408
v -0.363161 -0.510736 -0.510736
v 0.363161 0.722290 0.000000
v -0.363161 -0.667309 0.276408
v -0.363161 -0.722290 -0.000000
v 0.363161 -0.667309 -0.276408
v -0.363161 0.722290 0.000000
v 0.363161 -0.510736 0.510736
v -0.363161 -0.667309 -0.276408
v 0.363161 0.667309 -0.276408
v -0.363161 -0.510736 0.510736
v -0.363161 0.667309 -0.276408
v 0.191933 -0.258313 -0.623623
v 0.191933 -0.477301 -0.477300
v 0.363161 -0.477301 -0.477300
v 0.191933 0.477300 0.477301
v 0.191933 0.623623 0.258313
v 0.363161 0.623623 0.258313
v 0.363161 0.258313 0.623623
v 0.363161 0.477300 0.477301
v 0.363161 0.000000 -0.675005
v 0.363161 -0.258313 -0.623623
v -0.363161 0.477300 0.477301
v -0.363161 -0.258313 -0.623623
v -0.363161 0.623623 0.258313
v 0.363161 -0.675005 -0.000000
v 0.363161 -0.623623 0.258313
v -0.363161 -0.477301 -0.477301
v 0.363161 0.675005 0.000000
v -0.363161 -0.623623 0.258313
v -0.363161 -0.675005 -0.000000
v 0.363161 -0.623623 -0.258313
v -0.363161 0.675005 0.000000
v 0.363161 -0.477301 0.477300
v -0.363161 -0.623623 -0.258313
v 0.363161 0.623623 -0.258313
v -0.363161 -0.477301 0.477300
v -0.363161 0.623623 -0.258313
v 0.363161 -0.258313 0.623623
v 0.363161 0.477301 -0.477300
v -0.363161 -0.258313 0.623623
v -0.363161 0.477301 -0.477300
v 0.363161 -0.000000 0.675005
v 0.363161 0.258313 -0.623623
v 0.150637 -0.249510 0.103350
v 0.150637 -0.190967 0.190967
v 0.191933 -0.477301 0.477300
v -0.150637 0.270068 0.000000
v -0.150637 0.249510 0.103351
v -0.191933 0.623623 0.258313
v -0.191933 0.477300 0.477301
v 0.191933 -0.675005 -0.000000
v 0.191933 -0.623623 0.258313
v -0.191933 -0.477301 -0.477301
v -0.191933 -0.258313 -0.623623
v 0.191933 0.675005 0.000000
v -0.191933 -0.623623 0.258313
v -0.191933 -0.675005 -0.000000
v 0.191933 -0.623623 -0.258313
v -0.191933 0.675005 0.000000
v -0.191933 -0.623623 -0.258313
v 0.191933 0.623623 -0.258313
v -0.191933 -0.477301 0.477300
v -0.191933 0.623623 -0.258313
v 0.191933 -0.258313 0.623623
v 0.191933 0.477301 -0.477300
v -0.191933 -0.258313 0.623623
v -0.191933 0.477301 -0.477300
v 0.191933 -0.000000 0.675005
v 0.191933 0.258313 -0.623623
v -0.191933 -0.000000 0.675005
v -0.191933 0.258313 -0.623623
v 0.191933 0.258313 0.623623
v 0.191933 0.000000 -0.675005
v -0.191933 0.258313 0.623623
v -0.191933 0.000000 -0.675005
v -0.150637 -0.103351 0.249510
v -0.206196 -0.073448 0.177319
v -0.206196 -0.135714 0.135714
v 0.206196 0.177319 -0.073448
v 0.206196 0.135714 -0.135714
v 0.150637 0.190967 -0.190967
v 0.150637 0.249510 0.103351
v -0.150637 0.190967 0.190967
v 0.150637 -0.103351 -0.249510
v -0.150637 -0.103351 -0.249510
v -0.150637 0.000000 -0.270068
v -0.150637 -0.190967 0.190967
v -0.150637 -0.249510 0.103350
v 0.150637 -0.249510 -0.103350
v 0.150637 -0.270068 0.000000
v 0.150637 0.190967 0.190967
v -0.150637 -0.270068 -0.000000
v -0.150637 -0.249510 -0.103350
v 0.150637 0.249510 -0.103350
v -0.150637 0.190967 -0.190967
v -0.150637 0.249510 -0.103350
v 0.150637 -0.103351 0.249510
v 0.150637 -0.000000 0.270068
v -0.150637 -0.000000 0.270068
v 0.150637 0.000000 -0.270068
v 0.150637 0.103351 -0.249510
v -0.150637 0.103351 -0.249510
v 0.150637 0.103351 0.249510
v -0.150637 0.103351 0.249510
v 0.150637 0.270068 0.000000
v 0.150637 -0.190967 -0.190967
v -0.150637 -0.190967 -0.190967
v -0.206196 0.177319 -0.073448
v -0.206196 0.000000 -0.191929
v -0.206196 -0.000000 0.191929
v 0.206196 0.177319 0.073448
v 0.206196 -0.135714 -0.135714
v -0.206196 0.135714 -0.135714
v 0.206196 -0.073448 0.177319
v 0.206196 -0.000000 0.191929
v 0.206196 0.073448 -0.177319
v -0.206196 0.073448 -0.177319
v 0.206196 0.073448 0.177319
v 0.206196 0.000000 -0.191929
v -0.206196 0.073448 0.177319
v 0.206196 0.135714 0.135714
v 0.206196 -0.073448 -0.177319
v -0.206196 0.135714 0.135714
v -0.206196 -0.073448 -0.177319
v -0.206196 0.177319 0.073448
v 0.206196 -0.191929 0.000000
v 0.206196 -0.177319 0.073448
v -0.206196 -0.135714 -0.135714
v 0.206196 0.191929 0.000000
v -0.206196 -0.177319 0.073448
v -0.206196 -0.191929 -0.000000
v 0.206196 -0.177319 -0.073448
v -0.206196 0.191929 0.000000
v 0.206196 -0.135714 0.135714
v -0.206196 -0.177319 -0.073448
vt 0.146531 0.187660
vt 0.000256 0.187660
vt 0.000256 0.250128
vt 0.146531 0.125192
vt 0.000256 0.125192
vt 0.146531 0.062724
vt 0.000256 0.062724
vt 0.146531 0.000256
vt 0.000256 0.000256
vt 0.146530 0.937276
vt 0.000256 0.937276
vt 0.000256 0.999744
vt 0.146530 0.874808
vt 0.000256 0.874808
vt 0.146530 0.812340
vt 0.000256 0.812340
vt 0.146530 0.749872
vt 0.000256 0.749872
vt 0.146530 0.687404
vt 0.000256 0.687404
vt 0.146530 0.624936
vt 0.000256 0.624936
vt 0.146530 0.562468
vt 0.000256 0.562468
vt 0.146530 0.500000
vt 0.000256 0.500000
vt 0.146531 0.437532
vt 0.000256 0.437532
vt 0.146531 0.375064
vt 0.000256 0.375064
vt 0.628126 0.777523
vt 0.500670 0.777508
vt 0.492948 0.816402
vt 0.146531 0.250128
vt 0.000256 0.312596
vt 0.146531 0.312596
vt 0.635812 0.097687
vt 0.628085 0.136580
vt 0.745838 0.185388
vt 0.507336 0.169846
vt 0.621527 0.169867
vt 0.628135 0.136574
vt 0.500670 0.777508
vt 0.507291 0.744228
vt 0.401810 0.700490
vt 0.884706 0.520832
vt 0.835965 0.638607
vt 0.868959 0.660601
vt 0.360890 0.152401
vt 0.382948 0.185348
vt 0.500688 0.136563
vt 0.244042 0.520746
vt 0.244046 0.393259
vt 0.205143 0.385553
vt 0.259889 0.660583
vt 0.292865 0.638550
vt 0.244121 0.520756
vt 0.923689 0.385565
vt 0.884788 0.393325
vt 0.884790 0.520813
vt 0.492874 0.097682
vt 0.500688 0.136563
vt 0.745870 0.728747
vt 0.635885 0.816406
vt 0.745870 0.728747
vt 0.628126 0.777523
vt 0.635885 0.816406
vt 0.492929 0.097683
vt 0.884712 0.393346
vt 0.923614 0.528538
vt 0.292802 0.638538
vt 0.205143 0.528499
vt 0.205220 0.528509
vt 0.244046 0.393259
vt 0.836012 0.638595
vt 0.868959 0.660601
vt 0.360828 0.152396
vt 0.382881 0.185344
vt 0.767926 0.761693
vt 0.492948 0.816402
vt 0.745838 0.185388
vt 0.767907 0.152404
vt 0.835953 0.275553
vt 0.923615 0.385592
vt 0.382918 0.728702
vt 0.259829 0.660580
vt 0.205198 0.385571
vt 0.292847 0.275495
vt 0.292782 0.275485
vt 0.382918 0.728702
vt 0.836009 0.275539
vt 0.767907 0.152404
vt 0.360927 0.761686
vt 0.767939 0.761694
vt 0.698802 0.251323
vt 0.766881 0.318978
vt 0.780897 0.309817
vt 0.514636 0.696198
vt 0.426387 0.659427
vt 0.416943 0.673153
vt 0.726977 0.213625
vt 0.807718 0.294429
vt 0.321033 0.619662
vt 0.277350 0.514102
vt 0.321101 0.619685
vt 0.726977 0.213625
vt 0.621527 0.169867
vt 0.401810 0.700490
vt 0.277437 0.514113
vt 0.807778 0.294420
vt 0.507268 0.169852
vt 0.507291 0.744228
vt 0.277420 0.399861
vt 0.851481 0.399973
vt 0.401763 0.213546
vt 0.807760 0.619755
vt 0.726993 0.700528
vt 0.621482 0.744237
vt 0.321101 0.294321
vt 0.851383 0.514240
vt 0.807713 0.619785
vt 0.851475 0.514215
vt 0.321029 0.294306
vt 0.621482 0.744237
vt 0.726993 0.700528
vt 0.401838 0.213550
vt 0.851400 0.399988
vt 0.277364 0.399849
vt 0.527728 0.628747
vt 0.464698 0.602132
vt 0.426520 0.660259
vt 0.660759 0.310659
vt 0.709641 0.359117
vt 0.767265 0.320174
vt 0.610515 0.215532
vt 0.699282 0.252315
vt 0.708752 0.238498
vt 0.613066 0.712956
vt 0.610038 0.696613
vt 0.514710 0.696690
vt 0.610313 0.696461
vt 0.511142 0.712499
vt 0.610117 0.215217
vt 0.708196 0.237497
vt 0.781318 0.311056
vt 0.417149 0.674006
vt 0.707984 0.674080
vt 0.698909 0.660048
vt 0.321807 0.504815
vt 0.321573 0.409031
vt 0.305220 0.405607
vt 0.511397 0.199082
vt 0.514467 0.215459
vt 0.803703 0.409037
vt 0.321888 0.407953
vt 0.358533 0.319595
vt 0.344784 0.310148
vt 0.358686 0.593075
vt 0.766878 0.592386
vt 0.358065 0.320359
vt 0.426184 0.252051
vt 0.803098 0.504904
vt 0.819411 0.508463
vt 0.321953 0.503625
vt 0.305568 0.404501
vt 0.305399 0.507916
vt 0.803722 0.503736
vt 0.780665 0.601883
vt 0.425795 0.252375
vt 0.416649 0.238359
vt 0.417105 0.238081
vt 0.765951 0.593057
vt 0.779643 0.602538
vt 0.358806 0.591813
vt 0.305568 0.506707
vt 0.803741 0.407683
vt 0.820100 0.507216
vt 0.514467 0.215459
vt 0.511397 0.199082
vt 0.698279 0.660363
vt 0.344854 0.600918
vt 0.613983 0.199147
vt 0.459296 0.434639
vt 0.474891 0.397552
vt 0.416218 0.358665
vt 0.645767 0.512578
vt 0.617107 0.540802
vt 0.660089 0.602305
vt 0.596579 0.628326
vt 0.389873 0.490767
vt 0.389914 0.422150
vt 0.528408 0.283517
vt 0.597118 0.283693
vt 0.735439 0.422683
vt 0.390045 0.421142
vt 0.416447 0.357918
vt 0.415907 0.554034
vt 0.708824 0.553891
vt 0.465026 0.309593
vt 0.734883 0.491303
vt 0.389792 0.489574
vt 0.735298 0.490437
vt 0.464852 0.310068
vt 0.708008 0.554481
vt 0.416436 0.552768
vt 0.735435 0.421644
vt 0.528423 0.283826
vt 0.659605 0.602979
vt 0.464767 0.601543
vt 0.709227 0.358065
vt 0.597219 0.284000
vt 0.596175 0.628541
vt 0.528001 0.628047
vt 0.660799 0.309437
vt 0.474455 0.511109
vt 0.507589 0.485984
vt 0.497984 0.462217
vt 0.625922 0.465290
vt 0.615835 0.488642
vt 0.645873 0.513262
vt 0.250843 0.784082
vt 0.189486 0.784082
vt 0.189486 0.800952
vt 0.250843 0.784082
vt 0.189486 0.784082
vt 0.189482 0.800947
vt 0.459194 0.473797
vt 0.459413 0.433491
vt 0.474448 0.512104
vt 0.459200 0.474878
vt 0.250843 0.800952
vt 0.181076 0.865783
vt 0.181072 0.907945
vt 0.189482 0.972776
vt 0.250838 0.972776
vt 0.475038 0.396453
vt 0.503611 0.368312
vt 0.661581 0.476321
vt 0.181076 0.907950
vt 0.259253 0.907950
vt 0.661697 0.435116
vt 0.661440 0.475462
vt 0.503531 0.369232
vt 0.540861 0.354030
vt 0.181076 0.865783
vt 0.259249 0.907945
vt 0.502709 0.539732
vt 0.250838 0.972776
vt 0.250838 0.800947
vt 0.617203 0.541431
vt 0.579963 0.556439
vt 0.250843 0.784082
vt 0.189486 0.784082
vt 0.189486 0.800952
vt 0.618068 0.368960
vt 0.646472 0.397706
vt 0.581189 0.354277
vt 0.618343 0.369930
vt 0.181072 0.907945
vt 0.189482 0.972776
vt 0.250866 0.972774
vt 0.579852 0.555806
vt 0.539691 0.555439
vt 0.259248 0.865787
vt 0.250843 0.800952
vt 0.250866 0.784075
vt 0.189486 0.784082
vt 0.189482 0.800947
vt 0.539755 0.556263
vt 0.502805 0.540609
vt 0.181076 0.865783
vt 0.181076 0.907950
vt 0.259248 0.907953
vt 0.259277 0.865777
vt 0.250866 0.800945
vt 0.540739 0.353213
vt 0.580893 0.353374
vt 0.646765 0.398640
vt 0.661933 0.436049
vt 0.189482 0.972776
vt 0.250838 0.972776
vt 0.181076 0.865783
vt 0.259277 0.907943
vt 0.625686 0.464407
vt 0.598599 0.396832
vt 0.525479 0.504285
vt 0.616807 0.416077
vt 0.525073 0.504968
vt 0.625978 0.438876
vt 0.526295 0.396823
vt 0.549976 0.387378
vt 0.597576 0.506218
vt 0.616468 0.415143
vt 0.575492 0.387721
vt 0.574120 0.515338
vt 0.548615 0.514459
vt 0.598957 0.397790
vt 0.548649 0.514989
vt 0.573814 0.514956
vt 0.575087 0.386741
vt 0.597405 0.505618
vt 0.497927 0.463438
vt 0.498069 0.438036
vt 0.549698 0.386463
vt 0.626273 0.439799
vt 0.498227 0.436691
vt 0.508229 0.413307
vt 0.507313 0.486807
vt 0.615650 0.487830
vt 0.508064 0.414612
vt 0.526376 0.395697
vt 0.181076 0.907950
vt 0.189482 0.972776
vt 0.250838 0.972776
vt 0.250843 0.784082
vt 0.189486 0.784082
vt 0.189486 0.800952
vt 0.250843 0.800952
vt 0.181076 0.865783
vt 0.259248 0.907953
vt 0.181076 0.907950
vt 0.189482 0.972776
vt 0.250838 0.972776
vt 0.181076 0.865783
vt 0.259248 0.907953
vt 0.250843 0.800952
vt 0.189486 0.800952
vt 0.250843 0.784082
vt 0.189486 0.784082
vt 0.250843 0.800952
vt 0.189486 0.800952
vt 0.181076 0.865783
vt 0.250838 0.972776
vt 0.259253 0.907950
vt 0.181076 0.907950
vt 0.250843 0.784082
vt 0.189486 0.784082
vt 0.181076 0.907950
vt 0.189482 0.972776
vt 0.250838 0.972776
vt 0.250843 0.800952
vt 0.250843 0.784082
vt 0.189486 0.784082
vt 0.181076 0.865783
vt 0.259277 0.865777
vt 0.146530 0.999744
vt 0.923699 0.528526
vt 0.635859 0.097684
vt 0.868931 0.253511
vt 0.360927 0.761686
vt 0.259853 0.253499
vt 0.259793 0.253490
vt 0.868931 0.253511
vt 0.511282 0.712956
vt 0.613320 0.712877
vt 0.613503 0.198885
vt 0.820179 0.406050
vt 0.344756 0.602216
vt 0.344256 0.310925
vt 0.820207 0.404610
vt 0.707312 0.674329
vt 0.259277 0.865777
vt 0.259248 0.865787
vt 0.189482 0.972776
vt 0.259248 0.865787
vt 0.259248 0.865787
vt 0.259277 0.865777
vt 0.189482 0.972776
vt 0.259253 0.907950
vt 0.189486 0.800952
vn 0.6224 -0.7231 0.2995
vn -0.6224 -0.7231 0.2995
vn -0.6224 -0.7827 0.0000
vn 0.6224 -0.5534 0.5534
vn -0.6224 -0.5534 0.5534
vn 0.6224 -0.2995 0.7231
vn -0.6224 -0.2995 0.7231
vn 0.6224 0.0000 0.7827
vn -0.6224 0.0000 0.7827
vn 0.6224 0.2995 0.7231
vn -0.6224 0.2995 0.7231
vn 0.6224 0.5534 0.5534
vn -0.6224 0.5534 0.5534
vn 0.6224 0.7231 0.2995
vn -0.6224 0.7231 0.2995
vn 0.6224 0.7827 0.0000
vn -0.6224 0.7827 -0.0000
vn 0.6224 0.7231 -0.2995
vn -0.6224 0.7231 -0.2995
vn 0.6224 0.5534 -0.5534
vn -0.6224 0.5534 -0.5534
vn 0.6224 0.2995 -0.7231
vn -0.6224 0.2995 -0.7231
vn 0.6224 -0.0000 -0.7827
vn -0.6224 0.0000 -0.7827
vn 0.6224 -0.2995 -0.7231
vn -0.6224 -0.2995 -0.7231
vn 0.6224 -0.5534 -0.5534
vn -0.6224 -0.5534 -0.5534
vn -0.9999 -0.0121 -0.0121
vn -0.9999 -0.0065 -0.0158
vn 0.6224 -0.7827 0.0000
vn -0.6224 -0.7231 -0.2995
vn 0.6224 -0.7231 -0.2995
vn -0.9999 0.0065 0.0158
vn -0.9999 0.0000 0.0171
vn 0.9975 -0.0496 0.0496
vn 0.9975 -0.0269 0.0649
vn 0.9999 0.0065 -0.0158
vn 0.9999 -0.0065 0.0158
vn 0.9975 0.0269 -0.0649
vn 0.9975 -0.0000 -0.0702
vn -0.9999 -0.0158 0.0065
vn -0.9999 -0.0171 -0.0000
vn 0.9999 0.0158 -0.0065
vn 0.9999 0.0121 -0.0121
vn -0.9999 0.0121 -0.0121
vn -0.9999 0.0158 -0.0065
vn 0.9999 0.0065 0.0158
vn 0.9999 0.0121 0.0121
vn 0.9999 -0.0121 -0.0121
vn 0.9999 -0.0158 -0.0065
vn -0.9999 0.0121 0.0121
vn -0.9999 -0.0158 -0.0065
vn 0.9999 -0.0158 0.0065
vn 0.9999 -0.0121 0.0121
vn -0.9999 -0.0121 0.0121
vn -0.9999 0.0065 -0.0158
vn 0.9999 0.0158 0.0065
vn 0.9999 -0.0171 0.0000
vn -0.9999 0.0158 0.0065
vn 0.9999 -0.0000 -0.0171
vn -0.9999 -0.0065 0.0158
vn -0.9999 0.0000 -0.0171
vn 0.9999 0.0171 -0.0000
vn -0.9999 0.0171 -0.0000
vn 0.9999 -0.0000 0.0171
vn 0.9999 -0.0065 -0.0158
vn -0.7538 0.0000 0.6571
vn -0.7538 -0.2515 0.6071
vn -0.9975 -0.0269 0.0649
vn -0.7538 -0.2515 -0.6071
vn -0.7538 -0.0000 -0.6571
vn -0.9975 -0.0000 -0.0702
vn -0.9975 0.0269 -0.0649
vn -0.9975 -0.0496 0.0496
vn 0.9975 -0.0269 -0.0649
vn 0.9975 -0.0000 0.0702
vn -0.9975 -0.0269 -0.0649
vn -0.9975 0.0000 0.0702
vn 0.9975 -0.0496 -0.0496
vn 0.9975 0.0269 0.0649
vn -0.9975 -0.0496 -0.0496
vn -0.9975 0.0269 0.0649
vn 0.9975 -0.0649 -0.0269
vn 0.9975 0.0496 0.0496
vn -0.9975 -0.0649 -0.0269
vn 0.9975 0.0702 -0.0000
vn 0.9975 0.0649 -0.0269
vn -0.9975 0.0496 0.0496
vn 0.9975 -0.0702 0.0000
vn -0.9975 0.0649 -0.0269
vn -0.9975 0.0702 -0.0000
vn 0.9975 0.0649 0.0269
vn -0.9975 -0.0702 -0.0000
vn 0.9975 0.0496 -0.0496
vn -0.9975 0.0649 0.0269
vn 0.9975 -0.0649 0.0269
vn -0.9975 0.0496 -0.0496
vn -0.9975 -0.0649 0.0269
vn 0.2685 0.5735 0.7740
vn 0.2685 0.4956 0.8260
vn 0.7538 0.4647 0.4647
vn 0.2685 -0.4956 -0.8260
vn 0.2685 -0.9528 -0.1418
vn 0.7538 -0.6071 -0.2515
vn 0.7538 -0.2515 -0.6071
vn 0.7538 -0.4647 -0.4647
vn 0.7538 0.0000 0.6571
vn 0.7538 0.2515 0.6071
vn -0.7538 -0.4647 -0.4647
vn -0.7538 0.2515 0.6071
vn -0.7538 -0.6071 -0.2515
vn 0.7538 0.6571 -0.0000
vn 0.7538 0.6071 -0.2515
vn -0.7538 0.4647 0.4647
vn 0.7538 -0.6571 -0.0000
vn -0.7538 0.6071 -0.2515
vn -0.7538 0.6571 -0.0000
vn 0.7538 0.6071 0.2515
vn -0.7538 -0.6571 -0.0000
vn 0.7538 0.4647 -0.4647
vn -0.7538 0.6071 0.2515
vn 0.7538 -0.6071 0.2515
vn -0.7538 0.4647 -0.4647
vn -0.7538 -0.6071 0.2515
vn 0.7538 0.2515 -0.6071
vn 0.7538 -0.4647 0.4647
vn -0.7538 0.2515 -0.6071
vn -0.7538 -0.4647 0.4647
vn 0.7538 -0.0000 -0.6571
vn 0.7538 -0.2515 0.6071
vn 0.7465 -0.6520 -0.1327
vn 0.7465 -0.1269 0.6531
vn 0.2685 0.8260 -0.4956
vn -0.7465 0.5516 -0.3721
vn -0.7465 0.3672 0.5549
vn -0.2685 -0.9528 -0.1418
vn -0.2685 -0.4956 -0.8260
vn 0.2685 0.9345 0.2337
vn 0.2685 0.7740 -0.5735
vn -0.2685 0.4956 0.8260
vn -0.2685 0.5735 0.7740
vn 0.2685 -0.9345 -0.2337
vn -0.2685 0.7740 -0.5735
vn -0.2685 0.9345 0.2337
vn 0.2685 0.9528 0.1418
vn -0.2685 -0.9345 -0.2337
vn -0.2685 0.9528 0.1418
vn 0.2685 -0.7740 0.5735
vn -0.2685 0.8260 -0.4956
vn -0.2685 -0.7740 0.5735
vn 0.2685 0.1418 -0.9528
vn 0.2685 -0.8260 0.4956
vn -0.2685 0.1418 -0.9528
vn -0.2685 -0.8260 0.4956
vn 0.2685 0.2337 -0.9345
vn 0.2685 -0.1418 0.9528
vn -0.2685 0.2337 -0.9345
vn -0.2685 -0.1418 0.9528
vn 0.2685 -0.5735 -0.7740
vn 0.2685 -0.2337 0.9345
vn -0.2685 -0.5735 -0.7740
vn -0.2685 -0.2337 0.9345
vn -0.7465 -0.5549 0.3672
vn -0.9412 -0.1293 0.3121
vn -0.9412 -0.2389 0.2389
vn 0.9412 0.3121 -0.1293
vn 0.9412 0.2389 -0.2389
vn 0.7465 0.1269 -0.6531
vn 0.7465 0.3672 0.5549
vn -0.7465 0.6531 0.1269
vn 0.7465 0.1327 -0.6520
vn -0.7465 0.1327 -0.6520
vn -0.7465 -0.3721 -0.5516
vn -0.7465 -0.1269 0.6531
vn -0.7465 -0.6520 -0.1327
vn 0.7465 -0.3672 -0.5549
vn 0.7465 -0.5516 0.3721
vn 0.7465 0.6531 0.1269
vn -0.7465 -0.5516 0.3721
vn -0.7465 -0.3672 -0.5549
vn 0.7465 0.6520 0.1327
vn -0.7465 0.1269 -0.6531
vn -0.7465 0.6520 0.1327
vn 0.7465 -0.5549 0.3672
vn 0.7465 0.3721 0.5516
vn -0.7465 0.3721 0.5516
vn 0.7465 -0.3721 -0.5516
vn 0.7465 0.5549 -0.3672
vn -0.7465 0.5549 -0.3672
vn 0.7465 -0.1327 0.6520
vn -0.7465 -0.1327 0.6520
vn 0.7465 0.5516 -0.3721
vn 0.7465 -0.6531 -0.1269
vn -0.7465 -0.6531 -0.1269
vn -0.9412 0.3121 -0.1293
vn -0.9412 0.0000 -0.3378
vn -0.9412 0.0000 0.3378
vn 0.9412 0.3121 0.1293
vn 0.9412 -0.2389 -0.2389
vn -0.9412 0.2389 -0.2389
vn 0.9412 -0.1293 0.3121
vn 0.9412 -0.0000 0.3378
vn 0.9412 0.1293 -0.3121
vn -0.9412 0.1293 -0.3121
vn 0.9412 0.1293 0.3121
vn 0.9412 0.0000 -0.3378
vn -0.9412 0.1293 0.3121
vn 0.9412 0.2389 0.2389
vn 0.9412 -0.1293 -0.3121
vn -0.9412 0.2389 0.2389
vn -0.9412 -0.1293 -0.3121
vn -0.9412 0.3121 0.1293
vn 0.9412 -0.3378 0.0000
vn 0.9412 -0.3121 0.1293
vn -0.9412 -0.2389 -0.2389
vn 0.9412 0.3378 0.0000
vn -0.9412 -0.3121 0.1293
vn -0.9412 -0.3378 -0.0000
vn 0.9412 -0.3121 -0.1293
vn -0.9412 0.3378 -0.0000
vn 0.9412 -0.2389 0.2389
vn -0.9412 -0.3121 -0.1293
usemtl wheel.001
s 1
f 1/1/1 2/2/2 3/3/3
f 1/1/1 4/4/4 5/5/5
f 6/6/6 7/7/7 5/5/5
f 8/8/8 9/9/9 7/7/7
f 10/10/10 11/11/11 9/12/9
f 12/13/12 13/14/13 11/11/11
f 14/15/14 15/16/15 13/14/13
f 16/17/16 17/18/17 15/16/15
f 18/19/18 19/20/19 17/18/17
f 20/21/20 21/22/21 19/20/19
f 22/23/22 23/24/23 21/22/21
f 22/23/22 24/25/24 25/26/25
f 26/27/26 27/28/27 25/26/25
f 28/29/28 29/30/29 27/28/27
f 30/31/30 31/32/31 27/33/27
f 32/34/32 3/3/3 33/35/33
f 34/36/34 33/35/33 29/30/29
f 11/37/11 35/38/35 36/39/36
f 37/40/37 38/41/38 39/42/39
f 40/43/40 41/44/41 42/45/42
f 43/46/43 44/47/44 3/48/3
f 18/49/18 45/50/45 46/51/46
f 47/52/47 48/53/48 19/54/19
f 10/55/10 49/56/49 50/57/50
f 28/58/28 51/59/51 52/60/52
f 13/61/13 53/62/53 35/38/35
f 54/63/54 30/31/30 29/64/29
f 55/65/55 56/66/56 4/67/4
f 20/68/20 46/51/46 39/42/39
f 57/69/57 43/46/43 2/70/2
f 58/71/58 47/52/47 21/72/21
f 12/73/12 50/57/50 59/74/59
f 52/60/52 60/75/60 32/76/32
f 15/77/15 61/78/61 53/62/53
f 44/47/44 54/63/54 33/79/33
f 56/66/56 40/43/40 6/80/6
f 39/42/39 62/81/62 24/82/24
f 63/83/63 57/69/57 5/84/5
f 64/85/64 58/71/58 23/86/23
f 14/87/14 59/74/59 65/88/65
f 66/89/66 61/78/61 15/77/15
f 6/80/6 40/43/40 67/90/67
f 24/82/24 62/81/62 68/91/68
f 9/92/9 36/39/36 63/83/63
f 27/33/27 31/32/31 64/85/64
f 65/88/65 45/50/45 18/49/18
f 19/54/19 48/53/48 66/89/66
f 8/93/8 67/90/67 49/56/49
f 68/91/68 51/59/51 28/58/28
f 60/75/60 55/65/55 1/94/1
f 69/95/69 70/96/70 71/97/71
f 72/98/72 73/99/73 74/100/74
f 74/101/74 75/102/75 63/83/63
f 71/103/71 76/104/76 47/52/47
f 42/45/42 77/105/77 49/56/49
f 38/41/38 78/106/78 62/81/62
f 79/107/79 74/101/74 36/39/36
f 80/108/80 71/103/71 58/71/58
f 77/105/77 81/109/81 50/57/50
f 62/81/62 78/106/78 82/110/82
f 83/111/83 79/107/79 35/38/35
f 31/32/31 84/112/84 80/108/80
f 81/109/81 85/113/85 59/74/59
f 68/91/68 82/110/82 86/114/86
f 61/78/61 87/115/87 83/111/83
f 88/116/88 89/117/89 55/65/55
f 90/118/90 84/112/84 31/32/31
f 85/113/85 91/119/91 65/88/65
f 43/46/43 92/120/92 93/121/93
f 51/59/51 86/114/86 94/122/94
f 95/123/95 87/115/87 61/78/61
f 89/117/89 96/124/96 56/66/56
f 97/125/97 90/118/90 30/31/30
f 91/119/91 98/126/98 45/50/45
f 99/127/99 92/120/92 43/46/43
f 94/122/94 88/116/88 60/75/60
f 100/128/100 95/123/95 66/89/66
f 96/124/96 41/44/41 40/43/40
f 93/121/93 97/125/97 54/63/54
f 98/126/98 37/40/37 46/51/46
f 75/102/75 99/127/99 57/69/57
f 76/104/76 100/128/100 48/53/48
f 101/129/101 102/130/102 103/131/103
f 104/132/104 105/133/105 106/134/106
f 107/135/107 108/136/108 81/137/81
f 78/138/78 109/139/109 110/140/110
f 111/141/111 72/98/72 79/142/79
f 112/143/112 69/95/69 80/144/80
f 108/136/108 106/134/106 85/145/85
f 110/140/110 103/131/103 86/146/86
f 87/147/87 113/148/113 111/141/111
f 114/149/114 115/150/115 89/151/89
f 90/152/90 116/153/116 112/143/112
f 85/145/85 106/134/106 117/154/117
f 118/155/118 119/156/119 93/157/93
f 86/146/86 103/131/103 120/158/120
f 121/159/121 113/148/113 87/147/87
f 89/151/89 115/150/115 122/160/122
f 123/161/123 116/153/116 90/152/90
f 117/154/117 124/162/124 98/163/98
f 125/164/125 118/155/118 92/165/92
f 120/158/120 114/149/114 88/166/88
f 126/167/126 121/159/121 95/168/95
f 122/160/122 127/169/127 41/170/41
f 119/156/119 123/161/123 97/171/97
f 124/162/124 128/172/128 37/173/37
f 129/174/129 125/164/125 99/175/99
f 130/176/130 126/167/126 100/177/100
f 127/169/127 131/178/131 42/179/42
f 37/173/37 128/172/128 132/180/132
f 73/99/73 129/174/129 75/181/75
f 71/97/71 70/96/70 130/176/130
f 131/178/131 107/135/107 77/182/77
f 132/180/132 109/139/109 78/138/78
f 133/183/133 134/184/134 135/185/135
f 136/186/136 137/187/137 138/188/138
f 138/188/138 139/189/139 111/141/111
f 140/190/140 141/191/141 115/150/115
f 116/153/116 142/192/142 143/193/143
f 105/133/105 144/194/144 117/154/117
f 145/195/145 146/196/146 119/156/119
f 102/130/102 147/197/147 120/158/120
f 148/198/148 138/188/138 113/148/113
f 141/191/141 135/185/135 122/160/122
f 149/199/149 142/192/142 116/153/116
f 117/154/117 144/194/144 150/200/150
f 151/201/151 145/195/145 118/155/118
f 147/197/147 140/190/140 114/149/114
f 152/202/152 148/198/148 121/159/121
f 135/185/135 153/203/153 127/169/127
f 146/196/146 149/199/149 123/161/123
f 150/200/150 154/204/154 128/172/128
f 155/205/155 151/201/151 125/164/125
f 156/206/156 152/202/152 126/167/126
f 153/203/153 157/207/157 131/178/131
f 154/204/154 158/208/158 132/180/132
f 159/209/159 155/205/155 129/174/129
f 160/210/160 156/206/156 130/176/130
f 131/178/131 157/207/157 161/211/161
f 158/208/158 162/212/162 109/139/109
f 72/98/72 163/213/163 159/209/159
f 164/214/164 160/210/160 70/96/70
f 161/211/161 104/132/104 108/136/108
f 162/212/162 101/129/101 110/140/110
f 111/141/111 139/189/139 163/213/163
f 143/193/143 164/214/164 69/95/69
f 165/215/165 166/216/166 167/217/167
f 168/218/168 169/219/169 170/220/170
f 171/221/171 137/222/137 172/223/172
f 173/224/173 174/225/174 175/226/175
f 176/227/176 177/228/177 145/195/145
f 178/229/178 179/230/179 140/190/140
f 180/231/180 172/223/172 139/232/139
f 143/233/143 174/234/174 173/235/173
f 146/196/146 181/236/181 182/237/182
f 150/200/150 183/238/183 170/220/170
f 139/232/139 138/239/138 105/240/105
f 184/241/184 185/242/185 152/202/152
f 153/203/153 186/243/186 187/244/187
f 164/245/164 143/233/143 101/246/101
f 188/247/188 165/215/165 155/205/155
f 171/248/171 105/240/105 138/239/138
f 189/249/189 175/226/175 164/245/164
f 190/250/190 189/251/189 162/212/162
f 183/252/183 185/253/185 136/254/136
f 164/214/164 175/255/175 191/256/191
f 192/257/192 180/258/180 104/132/104
f 160/259/160 191/260/191 190/261/190
f 139/189/139 172/262/172 193/263/193
f 144/264/144 194/265/194 136/254/136
f 190/266/190 191/267/191 184/268/184
f 173/269/173 195/270/195 102/130/102
f 148/271/148 152/272/152 150/273/150
f 154/274/154 170/275/170 184/268/184
f 142/192/142 196/276/196 174/277/174
f 105/133/105 171/278/171 194/279/194
f 152/272/152 185/280/185 183/281/183
f 156/282/156 160/259/160 158/283/158
f 197/284/197 198/285/198 199/286/199
f 200/287/200 201/288/201 168/218/168
f 202/289/202 197/284/197 185/242/185
f 203/290/203 204/291/204 187/244/187
f 170/220/170 169/219/169 205/292/205
f 188/247/188 199/286/199 166/216/166
f 206/293/206 202/289/202 184/241/184
f 204/291/204 207/294/207 192/257/192
f 205/292/205 208/295/208 189/251/189
f 209/296/209 199/286/199 188/247/188
f 198/285/198 206/293/206 191/256/191
f 192/257/192 207/294/207 210/297/210
f 189/251/189 208/295/208 211/298/211
f 212/299/212 209/296/209 193/263/193
f 174/277/174 213/300/213 198/285/198
f 210/297/210 200/287/200 171/278/171
f 211/298/211 201/288/201 195/270/195
f 214/301/214 212/299/212 172/262/172
f 215/302/215 216/303/216 133/183/133
f 217/304/217 213/300/213 174/277/174
f 200/287/200 218/305/218 194/279/194
f 177/228/177 219/306/219 220/307/220
f 195/270/195 201/288/201 221/308/221
f 222/309/222 214/301/214 137/187/137
f 216/303/216 223/310/223 134/184/134
f 182/237/182 224/311/224 217/304/217
f 218/305/218 168/218/168 183/238/183
f 167/217/167 219/306/219 177/228/177
f 221/308/221 215/302/215 179/230/179
f 197/284/197 222/309/222 136/186/136
f 134/184/134 223/310/223 203/290/203
f 181/236/181 220/307/220 224/311/224
f 163/312/163 193/313/193 192/314/192
f 192/315/192 193/316/193 188/317/188
f 187/318/187 188/317/188 159/319/159
f 159/319/159 163/312/163 161/320/161
f 155/321/155 165/322/165 186/323/186
f 151/324/151 155/321/155 153/325/153
f 134/326/134 176/327/176 151/324/151
f 134/326/134 186/328/186 165/329/165
f 179/330/179 181/331/181 146/332/146
f 133/333/133 141/334/141 145/335/145
f 179/330/179 133/336/133 177/337/177
f 146/332/146 145/335/145 141/334/141
f 149/338/149 182/339/182 178/340/178
f 195/341/195 178/342/178 182/343/182
f 142/344/142 102/345/102 195/341/195
f 102/345/102 142/344/142 149/338/149
f 32/34/32 1/1/1 3/3/3
f 2/2/2 1/1/1 5/5/5
f 4/4/4 6/6/6 5/5/5
f 6/6/6 8/8/8 7/7/7
f 8/346/8 10/10/10 9/12/9
f 10/10/10 12/13/12 11/11/11
f 12/13/12 14/15/14 13/14/13
f 14/15/14 16/17/16 15/16/15
f 16/17/16 18/19/18 17/18/17
f 18/19/18 20/21/20 19/20/19
f 20/21/20 22/23/22 21/22/21
f 23/24/23 22/23/22 25/26/25
f 24/25/24 26/27/26 25/26/25
f 26/27/26 28/29/28 27/28/27
f 29/64/29 30/31/30 27/33/27
f 34/36/34 32/34/32 33/35/33
f 28/29/28 34/36/34 29/30/29
f 9/92/9 11/37/11 36/39/36
f 46/51/46 37/40/37 39/42/39
f 67/90/67 40/43/40 42/45/42
f 2/70/2 43/46/43 3/48/3
f 20/68/20 18/49/18 46/51/46
f 21/72/21 47/52/47 19/54/19
f 12/73/12 10/55/10 50/57/50
f 34/347/34 28/58/28 52/60/52
f 11/37/11 13/61/13 35/38/35
f 33/79/33 54/63/54 29/64/29
f 1/94/1 55/65/55 4/67/4
f 22/348/22 20/68/20 39/42/39
f 5/84/5 57/69/57 2/70/2
f 23/86/23 58/71/58 21/72/21
f 14/87/14 12/73/12 59/74/59
f 34/347/34 52/60/52 32/76/32
f 13/61/13 15/77/15 53/62/53
f 3/48/3 44/47/44 33/79/33
f 4/67/4 56/66/56 6/80/6
f 22/348/22 39/42/39 24/82/24
f 7/349/7 63/83/63 5/84/5
f 25/350/25 64/85/64 23/86/23
f 16/351/16 14/87/14 65/88/65
f 17/352/17 66/89/66 15/77/15
f 8/93/8 6/80/6 67/90/67
f 26/353/26 24/82/24 68/91/68
f 7/349/7 9/92/9 63/83/63
f 25/350/25 27/33/27 64/85/64
f 16/351/16 65/88/65 18/49/18
f 17/352/17 19/54/19 66/89/66
f 10/55/10 8/93/8 49/56/49
f 26/353/26 68/91/68 28/58/28
f 32/76/32 60/75/60 1/94/1
f 80/144/80 69/95/69 71/97/71
f 79/142/79 72/98/72 74/100/74
f 36/39/36 74/101/74 63/83/63
f 58/71/58 71/103/71 47/52/47
f 67/90/67 42/45/42 49/56/49
f 39/42/39 38/41/38 62/81/62
f 35/38/35 79/107/79 36/39/36
f 64/85/64 80/108/80 58/71/58
f 49/56/49 77/105/77 50/57/50
f 68/91/68 62/81/62 82/110/82
f 53/62/53 83/111/83 35/38/35
f 64/85/64 31/32/31 80/108/80
f 50/57/50 81/109/81 59/74/59
f 51/59/51 68/91/68 86/114/86
f 53/62/53 61/78/61 83/111/83
f 60/75/60 88/116/88 55/65/55
f 30/31/30 90/118/90 31/32/31
f 59/74/59 85/113/85 65/88/65
f 44/47/44 43/46/43 93/121/93
f 52/60/52 51/59/51 94/122/94
f 66/89/66 95/123/95 61/78/61
f 55/65/55 89/117/89 56/66/56
f 54/63/54 97/125/97 30/31/30
f 65/88/65 91/119/91 45/50/45
f 57/69/57 99/127/99 43/46/43
f 52/60/52 94/122/94 60/75/60
f 48/53/48 100/128/100 66/89/66
f 56/66/56 96/124/96 40/43/40
f 44/47/44 93/121/93 54/63/54
f 45/50/45 98/126/98 46/51/46
f 63/83/63 75/102/75 57/69/57
f 47/52/47 76/104/76 48/53/48
f 110/140/110 101/129/101 103/131/103
f 108/136/108 104/132/104 106/134/106
f 77/182/77 107/135/107 81/137/81
f 82/354/82 78/138/78 110/140/110
f 83/355/83 111/141/111 79/142/79
f 84/356/84 112/143/112 80/144/80
f 81/137/81 108/136/108 85/145/85
f 82/354/82 110/140/110 86/146/86
f 83/355/83 87/147/87 111/141/111
f 88/166/88 114/149/114 89/151/89
f 84/356/84 90/152/90 112/143/112
f 91/357/91 85/145/85 117/154/117
f 92/165/92 118/155/118 93/157/93
f 94/358/94 86/146/86 120/158/120
f 95/168/95 121/159/121 87/147/87
f 96/359/96 89/151/89 122/160/122
f 97/171/97 123/161/123 90/152/90
f 91/357/91 117/154/117 98/163/98
f 99/175/99 125/164/125 92/165/92
f 94/358/94 120/158/120 88/166/88
f 100/177/100 126/167/126 95/168/95
f 96/359/96 122/160/122 41/170/41
f 93/157/93 119/156/119 97/171/97
f 98/163/98 124/162/124 37/173/37
f 75/181/75 129/174/129 99/175/99
f 76/360/76 130/176/130 100/177/100
f 41/170/41 127/169/127 42/179/42
f 38/361/38 37/173/37 132/180/132
f 74/100/74 73/99/73 75/181/75
f 76/360/76 71/97/71 130/176/130
f 42/179/42 131/178/131 77/182/77
f 38/361/38 132/180/132 78/138/78
f 141/191/141 133/183/133 135/185/135
f 148/198/148 136/186/136 138/188/138
f 113/148/113 138/188/138 111/141/111
f 114/149/114 140/190/140 115/150/115
f 112/143/112 116/153/116 143/193/143
f 106/134/106 105/133/105 117/154/117
f 118/155/118 145/195/145 119/156/119
f 103/131/103 102/130/102 120/158/120
f 121/159/121 148/198/148 113/148/113
f 115/150/115 141/191/141 122/160/122
f 123/161/123 149/199/149 116/153/116
f 124/162/124 117/154/117 150/200/150
f 125/164/125 151/201/151 118/155/118
f 120/158/120 147/197/147 114/149/114
f 126/167/126 152/202/152 121/159/121
f 122/160/122 135/185/135 127/169/127
f 119/156/119 146/196/146 123/161/123
f 124/162/124 150/200/150 128/172/128
f 129/174/129 155/205/155 125/164/125
f 130/176/130 156/206/156 126/167/126
f 127/169/127 153/203/153 131/178/131
f 128/172/128 154/204/154 132/180/132
f 73/99/73 159/209/159 129/174/129
f 70/96/70 160/210/160 130/176/130
f 107/135/107 131/178/131 161/211/161
f 132/180/132 158/208/158 109/139/109
f 73/99/73 72/98/72 159/209/159
f 69/95/69 164/214/164 70/96/70
f 107/135/107 161/211/161 108/136/108
f 109/139/109 162/212/162 110/140/110
f 72/98/72 111/141/111 163/213/163
f 112/143/112 143/193/143 69/95/69
f 176/227/176 165/215/165 167/217/167
f 183/238/183 168/218/168 170/220/170
f 180/231/180 171/221/171 172/223/172
f 189/249/189 173/224/173 175/226/175
f 151/201/151 176/227/176 145/195/145
f 147/197/147 178/229/178 140/190/140
f 104/362/104 180/231/180 139/232/139
f 101/246/101 143/233/143 173/235/173
f 149/199/149 146/196/146 182/237/182
f 154/204/154 150/200/150 170/220/170
f 104/362/104 139/232/139 105/240/105
f 156/206/156 184/241/184 152/202/152
f 157/207/157 153/203/153 187/244/187
f 162/363/162 164/245/164 101/246/101
f 159/209/159 188/247/188 155/205/155
f 137/364/137 171/248/171 138/239/138
f 162/363/162 189/249/189 164/245/164
f 158/208/158 190/250/190 162/212/162
f 194/265/194 183/252/183 136/254/136
f 160/210/160 164/214/164 191/256/191
f 161/211/161 192/257/192 104/132/104
f 158/283/158 160/259/160 190/261/190
f 163/213/163 139/189/139 193/263/193
f 148/271/148 144/264/144 136/254/136
f 170/275/170 190/266/190 184/268/184
f 101/129/101 173/269/173 102/130/102
f 144/264/144 148/271/148 150/273/150
f 156/282/156 154/274/154 184/268/184
f 143/193/143 142/192/142 174/277/174
f 144/194/144 105/133/105 194/279/194
f 150/273/150 152/272/152 183/281/183
f 154/274/154 156/282/156 158/283/158
f 220/307/220 219/306/219 199/286/199
f 167/217/167 166/216/166 199/286/199
f 199/286/199 209/296/209 212/299/212
f 212/299/212 214/301/214 222/309/222
f 222/309/222 197/284/197 199/286/199
f 202/289/202 206/293/206 198/285/198
f 198/285/198 213/300/213 217/304/217
f 217/304/217 224/311/224 220/307/220
f 219/306/219 167/217/167 199/286/199
f 199/286/199 212/299/212 222/309/222
f 197/284/197 202/289/202 198/285/198
f 198/285/198 217/304/217 199/286/199
f 220/307/220 199/286/199 217/304/217
f 216/303/216 215/302/215 201/288/201
f 221/308/221 201/288/201 215/302/215
f 211/298/211 208/295/208 201/288/201
f 205/292/205 169/219/169 208/295/208
f 168/218/168 218/305/218 200/287/200
f 200/287/200 210/297/210 207/294/207
f 207/294/207 204/291/204 216/303/216
f 203/290/203 223/310/223 216/303/216
f 216/303/216 201/288/201 207/294/207
f 208/295/208 169/219/169 168/218/168
f 168/218/168 201/288/201 208/295/208
f 204/291/204 203/290/203 216/303/216
f 201/288/201 200/287/200 207/294/207
f 184/241/184 202/289/202 185/242/185
f 186/243/186 203/290/203 187/244/187
f 190/250/190 170/220/170 205/292/205
f 165/215/165 188/247/188 166/216/166
f 191/256/191 206/293/206 184/241/184
f 187/244/187 204/291/204 192/257/192
f 190/250/190 205/292/205 189/251/189
f 193/263/193 209/296/209 188/247/188
f 175/255/175 198/285/198 191/256/191
f 180/258/180 192/257/192 210/297/210
f 173/269/173 189/251/189 211/298/211
f 172/262/172 212/299/212 193/263/193
f 175/255/175 174/277/174 198/285/198
f 180/258/180 210/297/210 171/278/171
f 173/269/173 211/298/211 195/270/195
f 137/187/137 214/301/214 172/262/172
f 179/230/179 215/302/215 133/183/133
f 196/276/196 217/304/217 174/277/174
f 171/278/171 200/287/200 194/279/194
f 181/236/181 177/228/177 220/307/220
f 178/229/178 195/270/195 221/308/221
f 136/186/136 222/309/222 137/187/137
f 133/183/133 216/303/216 134/184/134
f 196/276/196 182/237/182 217/304/217
f 194/279/194 218/305/218 183/238/183
f 176/227/176 167/217/167 177/228/177
f 178/229/178 221/308/221 179/230/179
f 185/242/185 197/284/197 136/186/136
f 186/243/186 134/184/134 203/290/203
f 182/237/182 181/236/181 224/311/224
f 161/320/161 163/312/163 192/314/192
f 187/318/187 192/315/192 188/317/188
f 157/365/157 187/318/187 159/319/159
f 157/365/157 159/319/159 161/320/161
f 153/325/153 155/321/155 186/323/186
f 135/366/135 151/324/151 153/325/153
f 135/366/135 134/326/134 151/324/151
f 176/327/176 134/326/134 165/329/165
f 140/367/140 179/330/179 146/332/146
f 177/368/177 133/333/133 145/335/145
f 181/331/181 179/330/179 177/337/177
f 140/367/140 146/332/146 141/334/141
f 147/369/147 149/338/149 178/340/178
f 196/370/196 195/341/195 182/343/182
f 196/370/196 142/344/142 195/341/195
f 147/369/147 102/345/102 149/338/149
