# Blender v3.0.1 OBJ File: ''
# www.blender.org
mtllib evo_super500.mtl
o evo.002
v 0.316918 1.183663 0.530268
v -0.311967 1.183663 0.530268
v -0.327934 -1.470646 0.547215
v -0.800126 1.183663 0.530268
v -0.840920 -1.470646 0.547215
v 0.332936 -1.470646 0.547215
v 0.845923 -1.470646 0.547215
v 0.805078 1.183663 0.530268
v -0.645059 0.775301 0.525448
v -0.401857 1.098101 0.496553
v -0.401848 1.098096 0.367853
v -0.173848 0.688895 0.367885
v -0.173867 0.688905 0.626785
v 0.184433 0.688905 0.626811
v 0.655541 0.775301 0.525542
v 0.184452 0.688895 0.367911
v 0.412452 1.098096 0.367912
v 0.412443 1.098101 0.496612
v 0.140941 1.155501 0.525290
v -0.130459 1.155501 0.525270
v -0.645043 0.775292 0.303748
v 0.655557 0.775292 0.303842
v -0.522163 -0.822082 0.737208
v -0.555645 -0.759492 0.483903
v -0.551744 -0.802993 0.475005
v -0.544364 -0.866283 0.738408
v -0.003966 -0.873282 0.767847
v -0.003764 -0.822782 0.747445
v -0.002245 -0.754593 0.484943
v -0.519231 -0.700100 0.281203
v -0.000730 -0.696101 0.271841
v -0.000527 -0.732601 0.233642
v -0.524129 -0.739701 0.262904
v 0.569537 -0.822082 0.737587
v 0.591636 -0.866283 0.738790
v 0.594555 -0.802993 0.475288
v 0.605955 -0.759492 0.484087
v 0.555670 -0.700100 0.281281
v 0.560671 -0.739701 0.262983
v -0.522162 -0.905884 0.720111
v -0.530044 -0.846493 0.466208
v -0.002244 -0.851292 0.465346
v -0.003763 -0.909783 0.729748
v -0.502029 -0.783900 0.264108
v -0.000729 -0.783200 0.254144
v 0.569538 -0.905884 0.720490
v 0.563656 -0.846493 0.466387
v 0.538471 -0.783900 0.264283
v -0.597662 -0.028620 0.622758
v -0.622945 0.020272 0.390454
v -0.647944 -0.023228 0.381654
v -0.606162 -0.072420 0.623259
v -0.400764 -0.077819 0.650174
v -0.400462 -0.028919 0.632172
v -0.398045 0.025171 0.391571
v -0.631528 0.066062 0.157552
v -0.395527 0.069463 0.148969
v -0.395225 0.031361 0.113271
v -0.639827 0.025963 0.140053
v -0.203062 -0.028620 0.623087
v -0.194862 -0.072420 0.623489
v -0.148044 -0.023228 0.381790
v -0.173045 0.020272 0.390687
v -0.159728 0.066062 0.157586
v -0.151327 0.025963 0.140088
v -0.597660 -0.112421 0.605761
v -0.622944 -0.066730 0.372758
v -0.398044 -0.071530 0.371874
v -0.400461 -0.115920 0.614476
v -0.631527 -0.017738 0.140555
v -0.395526 -0.017539 0.131272
v -0.203060 -0.112421 0.606090
v -0.173044 -0.066730 0.372990
v -0.159727 -0.017738 0.140589
v -0.492179 -0.069271 0.828533
v -0.503174 -0.051674 0.749632
v -0.515473 -0.090374 0.741732
v -0.496179 -0.107071 0.823934
v -0.391880 -0.108970 0.833142
v -0.391980 -0.068370 0.831841
v -0.392474 -0.047374 0.750540
v -0.506068 -0.037077 0.670231
v -0.393068 -0.034977 0.667439
v -0.393166 -0.071777 0.650441
v -0.510167 -0.073677 0.659632
v -0.291779 -0.069271 0.828548
v -0.287679 -0.107071 0.823949
v -0.269573 -0.090374 0.741750
v -0.281874 -0.051674 0.749648
v -0.280068 -0.037077 0.670247
v -0.275967 -0.073677 0.659649
v -0.492178 -0.143671 0.813336
v -0.503172 -0.129074 0.733935
v -0.392472 -0.133374 0.733043
v -0.391978 -0.145771 0.816143
v -0.506067 -0.111477 0.655034
v -0.393067 -0.112277 0.651742
v -0.291778 -0.143671 0.813351
v -0.281872 -0.129074 0.733951
v -0.280067 -0.111477 0.655050
v 0.285921 -0.068471 0.823289
v 0.273527 -0.051174 0.744488
v 0.261127 -0.090374 0.736588
v 0.281821 -0.106571 0.818791
v 0.386021 -0.103471 0.827898
v 0.386021 -0.062871 0.826697
v 0.385327 -0.041874 0.745396
v 0.269433 -0.036277 0.665087
v 0.384733 -0.029477 0.662295
v 0.384634 -0.066278 0.645297
v 0.265333 -0.073077 0.654388
v 0.486021 -0.058971 0.823303
v 0.490121 -0.096671 0.818805
v 0.509527 -0.079374 0.736606
v 0.497127 -0.041274 0.744504
v 0.500033 -0.026777 0.665103
v 0.504133 -0.063177 0.654405
v 0.285922 -0.142971 0.808192
v 0.273528 -0.128474 0.728791
v 0.385328 -0.127874 0.727899
v 0.386022 -0.140271 0.810900
v 0.269434 -0.110777 0.649890
v 0.384734 -0.106878 0.646598
v 0.486022 -0.133471 0.808206
v 0.497128 -0.118574 0.728807
v 0.500034 -0.101277 0.649906
v 0.195939 -0.028620 0.617916
v 0.163356 0.020272 0.385511
v 0.138856 -0.023228 0.376611
v 0.187839 -0.072420 0.618317
v 0.384537 -0.077819 0.645231
v 0.384438 -0.028919 0.627229
v 0.383455 0.025171 0.386527
v 0.146972 0.066062 0.152408
v 0.382473 0.069463 0.143825
v 0.382376 0.031360 0.108127
v 0.138774 0.025961 0.134909
v 0.572839 -0.028620 0.617943
v 0.581039 -0.072420 0.618345
v 0.628056 -0.023228 0.376647
v 0.603655 0.020272 0.385543
v 0.618072 0.066062 0.152442
v 0.626274 0.025961 0.134944
v 0.195940 -0.112421 0.600819
v 0.163357 -0.066730 0.367815
v 0.383457 -0.071530 0.366831
v 0.384439 -0.115920 0.609532
v 0.146974 -0.017738 0.135312
v 0.382474 -0.017539 0.126129
v 0.572840 -0.112421 0.600846
v 0.603657 -0.066730 0.367846
v 0.618074 -0.017738 0.135346
v 0.347841 -1.575330 0.008113
v 0.347841 -0.741534 -0.073023
v 0.489829 -0.741534 -0.073023
v 0.489829 -1.575330 0.008113
v 0.489829 -0.817811 0.344829
v 0.489829 -1.470654 0.344829
v 0.347841 -1.470654 0.344829
v 0.347841 -0.817811 0.344829
v -0.490239 -1.575330 0.008113
v -0.490239 -0.741534 -0.073023
v -0.348251 -0.741534 -0.073023
v -0.348251 -1.575330 0.008113
v -0.348251 -0.817811 0.344829
v -0.348251 -1.470654 0.344829
v -0.490239 -1.470654 0.344829
v -0.490239 -0.817811 0.344829
v 0.347841 1.032198 0.072110
v 0.347841 2.056402 -0.142901
v 0.489829 2.056402 -0.142901
v 0.489829 1.032198 0.072110
v 0.489829 1.842323 0.394219
v 0.489829 1.219355 0.437248
v 0.347841 1.219355 0.437248
v 0.347841 1.842323 0.394219
v -0.490239 1.032198 0.072110
v -0.490239 2.056402 -0.142901
v -0.348251 2.056402 -0.142901
v -0.348251 1.032198 0.072110
v -0.348251 1.842323 0.394219
v -0.348251 1.219355 0.437248
v -0.490239 1.219355 0.437248
v -0.490239 1.842323 0.394219
v -0.813183 0.901772 0.601327
v -0.764247 0.895740 0.585215
v -0.774114 0.949961 0.575331
v -0.858302 0.946629 0.600452
v -0.872422 0.888286 0.658172
v -0.902669 0.936477 0.637126
v -0.923013 0.864162 0.683236
v -0.942256 0.921846 0.653297
v -0.983619 0.818616 0.671745
v -0.989012 0.886020 0.648963
v -0.843270 0.906000 0.510525
v -0.877712 0.949357 0.541870
v -0.793002 0.955198 0.516748
v -0.793525 0.903859 0.494412
v -0.924022 0.886033 0.503807
v -0.935959 0.935024 0.537535
v -0.972407 0.849060 0.528871
v -0.974122 0.912103 0.553706
v -1.012674 0.809734 0.580942
v -1.007757 0.880289 0.590380
v 0.776793 0.949961 0.575331
v 0.766926 0.895739 0.585215
v 0.815861 0.901772 0.601327
v 0.860981 0.946629 0.600452
v 0.875101 0.888286 0.658172
v 0.905348 0.936477 0.637126
v 0.925693 0.864161 0.683236
v 0.944934 0.921846 0.653297
v 0.986298 0.818616 0.671745
v 0.991691 0.886020 0.648963
v 0.795681 0.955198 0.516748
v 0.880392 0.949357 0.541870
v 0.845948 0.906000 0.510525
v 0.796204 0.903859 0.494412
v 0.938639 0.935024 0.537535
v 0.926701 0.886033 0.503807
v 0.976801 0.912103 0.553706
v 0.975085 0.849060 0.528871
v 1.010436 0.880289 0.590380
v 1.015353 0.809734 0.580942
v 0.541942 -1.973966 -0.219077
v 0.497317 -2.063966 -0.174452
v 0.478833 -2.063966 -0.219077
v 0.541942 -2.063966 -0.155968
v 0.586566 -2.063964 -0.174452
v 0.605051 -2.063964 -0.219077
v 0.586566 -2.063964 -0.263702
v 0.541942 -2.063966 -0.282186
v 0.497317 -2.063966 -0.263702
v 0.497317 -1.829518 -0.174452
v 0.478833 -1.829518 -0.219077
v 0.541942 -1.829518 -0.155968
v 0.586566 -1.829518 -0.174452
v 0.605051 -1.829518 -0.219077
v 0.586566 -1.829518 -0.263702
v 0.541942 -1.829518 -0.282186
v 0.497317 -1.829518 -0.263702
v 0.408512 -1.816167 -0.170435
v 0.382028 -1.816167 -0.219077
v 0.541941 -1.816167 -0.150288
v 0.675369 -1.816167 -0.170435
v 0.701853 -1.816167 -0.219077
v 0.675369 -1.816167 -0.267717
v 0.541941 -1.816167 -0.287866
v 0.408513 -1.816167 -0.267717
v 0.408512 -1.573607 -0.157463
v 0.382028 -1.573607 -0.173896
v 0.541941 -1.573607 -0.150657
v 0.675369 -1.573606 -0.157463
v 0.701854 -1.573606 -0.173896
v 0.675369 -1.573606 -0.190329
v 0.541941 -1.573607 -0.197136
v 0.408513 -1.573607 -0.190329
v 0.541941 -1.573607 -0.173896
v -0.714385 -1.845278 0.900258
v -0.746864 -1.546943 0.591857
v -0.681931 -1.546943 0.867803
v -0.746864 -1.845276 0.543175
v 0.682237 -1.546943 0.867609
v 0.714407 -1.845278 0.900345
v 0.746973 -1.546943 0.591706
v 0.746973 -1.845277 0.543025
v -0.763099 -1.546943 0.591706
v -0.726556 -1.845278 0.912428
v -0.694101 -1.546943 0.879973
v -0.763099 -1.845276 0.543025
v 0.726470 -1.845278 0.912622
v 0.694301 -1.546943 0.879885
v 0.763210 -1.845277 0.543175
v 0.763210 -1.546943 0.591857
v 0.837182 1.940973 0.094242
v 0.878917 1.940973 -0.261464
v 0.728306 2.250781 -0.227041
v 0.726042 2.250781 0.128665
v 0.837182 1.631164 0.392576
v 0.726042 2.101615 0.346679
v 0.726042 1.527895 0.472897
v 0.837182 1.504946 0.404050
v 0.837182 1.309881 0.369628
v 0.903958 -0.778459 0.025395
v 0.837182 -0.801408 -0.192618
v 0.837182 1.057444 -0.215567
v 0.837182 1.183663 0.254883
v 0.837182 -1.937373 -0.146721
v 0.837182 -1.547243 -0.146721
v 0.903958 -1.512821 0.140139
v 0.837182 -2.063592 0.117190
v 0.782575 -2.052117 -0.123772
v 0.837182 -2.017694 0.197511
v 0.865451 -1.803964 0.173223
v 0.808059 -1.730825 0.579227
v 0.782575 -1.971796 0.541742
v 0.837182 -1.455449 0.622063
v 0.886282 -1.409551 0.323729
v 0.886282 -1.088268 0.323729
v 0.663880 -1.157115 0.851552
v 0.663880 0.472250 0.908924
v 0.562902 -0.835832 0.977770
v 0.562902 0.185390 0.989245
v 0.903958 -0.904678 0.231935
v 0.837182 1.103342 -0.146721
v 0.837182 1.114817 0.094242
v 0.329496 2.032768 -0.261464
v 0.329496 2.342577 -0.227041
v 0.329496 2.032768 0.094242
v 0.368867 2.342577 0.128665
v 0.565423 1.990368 0.373976
v -0.006229 1.982499 0.408991
v 0.329496 1.527895 0.512421
v 0.649710 1.799747 0.420653
v 0.329496 1.631164 0.392576
v 0.329496 1.826228 0.312256
v 0.329496 1.504946 0.404050
v -0.311967 1.183663 0.530268
v 0.329496 1.309881 0.369628
v 0.329496 -0.765661 -0.026487
v 0.329496 1.021697 -0.049436
v 0.329496 -0.778459 0.025395
v 0.329496 1.183663 0.254883
v 0.329496 -1.547243 -0.146721
v 0.329496 -1.512821 0.140139
v 0.329496 -1.986054 -0.146721
v 0.329496 -2.100799 -0.123772
v 0.329496 -2.112274 0.117190
v 0.329496 -2.066375 0.197511
v 0.329496 -2.020478 0.541742
v 0.329496 -1.455449 0.622063
v 0.329496 -1.409551 0.323729
v 0.329496 -1.088268 0.323729
v 0.261600 -1.214745 0.874500
v 0.222038 -0.870972 1.000719
v 0.329496 -0.904678 0.231935
v 0.222038 0.221735 1.012193
v 0.261600 0.528675 0.931873
v 0.329496 1.103342 0.033468
v 0.329496 1.114817 0.094242
v -0.873966 1.940973 -0.261464
v -0.832231 1.940973 0.094242
v -0.723355 2.250781 -0.227041
v -0.721091 2.250781 0.128665
v -0.721091 2.101615 0.346679
v -0.832231 1.826228 0.312256
v -0.832231 1.631164 0.392576
v -0.721091 1.527895 0.472897
v -0.832231 1.504946 0.404050
v -0.832231 1.309881 0.369628
v -0.832231 -0.801408 -0.192618
v -0.899007 -0.778459 0.025395
v -0.832231 1.057444 -0.215567
v -0.832231 1.183663 0.254883
v -0.832231 -1.547243 -0.146721
v -0.832231 -1.937373 -0.146721
v -0.899007 -1.512821 0.140139
v -0.777624 -2.052117 -0.123772
v -0.832231 -2.063592 0.117190
v -0.832231 -2.017694 0.197511
v -0.864732 -1.771962 0.169587
v -0.777624 -1.971796 0.541742
v -0.802874 -1.733035 0.578883
v -0.832231 -1.455449 0.622063
v -0.881331 -1.409551 0.323729
v -0.881331 -1.088268 0.323729
v -0.899007 -0.904678 0.231935
v -0.658930 0.472250 0.908924
v -0.658929 -1.157115 0.851552
v -0.557952 -0.835832 0.977770
v -0.557952 0.185390 0.989245
v -0.832231 1.103342 -0.146721
v -0.832231 1.114817 0.094242
v -0.324545 2.032768 -0.261464
v -0.324545 2.342577 -0.227041
v -0.324545 2.032768 0.094242
v -0.363657 2.342577 0.128665
v -0.572782 1.979380 0.380342
v -0.647212 1.773715 0.444075
v -0.324545 1.527895 0.512421
v -0.324545 1.631164 0.392576
v -0.324545 1.826228 0.312256
v -0.324545 1.504946 0.404050
v 0.316918 1.183663 0.530268
v -0.324545 1.309881 0.369628
v -0.324545 -0.765661 -0.026487
v -0.324545 1.021697 -0.049436
v -0.324545 -0.778459 0.025395
v -0.324545 1.183663 0.254883
v -0.324545 -1.547243 -0.146721
v -0.324545 -1.512821 0.140139
v -0.324545 -1.986054 -0.146721
v -0.324545 -2.100799 -0.123772
v -0.324545 -2.112274 0.117190
v -0.324545 -2.066375 0.197511
v -0.324545 -2.020478 0.541742
v -0.324545 -1.455449 0.622063
v -0.324545 -1.409551 0.323729
v -0.324545 -1.088268 0.323729
v -0.256650 -1.214745 0.874500
v -0.217089 -0.870972 1.000719
v -0.324545 -0.904678 0.231935
v -0.217089 0.221735 1.012193
v -0.256650 0.528675 0.931873
v -0.324545 1.103342 0.033468
v -0.324545 1.114817 0.094242
v -0.148996 0.308234 1.036438
v 0.149730 0.308234 1.036438
v -0.175909 0.501584 1.036565
v 0.176642 0.501584 1.036565
v -0.454920 2.193409 0.346679
v 0.460737 2.193409 0.346679
v -0.174090 1.738556 0.464138
v 0.837182 1.826228 0.312256
v -0.075929 -1.170803 0.001333
v -0.038416 -0.866747 -0.072690
v -0.075929 -0.879702 -0.136359
v -0.038416 -1.144375 0.060690
v 0.036610 -0.866747 -0.072690
v 0.036610 -1.144375 0.060690
v 0.074123 -0.879702 -0.136359
v 0.074123 -1.170803 0.001332
v 0.036610 -0.892656 -0.200030
v 0.036610 -1.197230 -0.058024
v -0.038416 -0.892656 -0.200030
v -0.038416 -1.197230 -0.058024
v -0.038416 1.190738 -0.072804
v -0.075929 1.204247 -0.136359
v 0.036610 1.190738 -0.072804
v 0.074123 1.204247 -0.136359
v 0.036610 1.217756 -0.199914
v -0.038416 1.217756 -0.199913
v -0.038416 1.478609 0.056733
v -0.075929 1.512558 0.001334
v 0.036610 1.478609 0.056733
v 0.074123 1.512559 0.001334
v 0.036610 1.546508 -0.054066
v -0.038416 1.546508 -0.054066
v 0.778908 1.463716 -0.029823
v 0.172684 1.495788 0.025727
v 0.172684 1.463716 -0.029823
v 0.778908 1.495788 0.025727
v 0.172684 1.559932 0.025727
v 0.778908 1.559932 0.025727
v 0.172684 1.592004 -0.029823
v 0.778908 1.592004 -0.029823
v 0.172684 1.559932 -0.085373
v 0.778908 1.559932 -0.085373
v 0.172684 1.495788 -0.085373
v 0.778908 1.495788 -0.085373
v 0.153540 1.447360 0.109607
v 0.153540 1.366859 -0.029823
v 0.153540 1.608361 0.109607
v 0.153540 1.688861 -0.029823
v 0.153540 1.608361 -0.169254
v 0.153540 1.447360 -0.169254
v -0.156243 1.447360 0.109607
v -0.156243 1.366859 -0.029823
v -0.156243 1.608361 0.109607
v -0.156243 1.688861 -0.029823
v -0.156243 1.608361 -0.169254
v -0.156243 1.447360 -0.169254
v -0.175386 1.495788 0.025727
v -0.175386 1.463716 -0.029823
v -0.175386 1.559932 0.025727
v -0.175386 1.592004 -0.029823
v -0.175386 1.559932 -0.085373
v -0.175386 1.495788 -0.085373
v -0.781609 1.495788 0.025727
v -0.781609 1.463716 -0.029823
v -0.781609 1.559932 0.025727
v -0.781609 1.592004 -0.029823
v -0.781609 1.559932 -0.085373
v -0.781609 1.495788 -0.085373
v 0.778908 -1.232889 -0.029823
v 0.172684 -1.200818 0.025727
v 0.172684 -1.232889 -0.029823
v 0.778908 -1.200818 0.025727
v 0.172684 -1.136673 0.025727
v 0.778908 -1.136673 0.025727
v 0.172684 -1.104602 -0.029823
v 0.778908 -1.104602 -0.029823
v 0.172684 -1.136673 -0.085374
v 0.778908 -1.136673 -0.085374
v 0.172684 -1.200818 -0.085374
v 0.778908 -1.200818 -0.085374
v 0.153540 -1.249246 0.109607
v 0.153540 -1.329746 -0.029823
v 0.153540 -1.088245 0.109607
v 0.153540 -1.007745 -0.029823
v 0.153540 -1.088245 -0.169255
v 0.153540 -1.249246 -0.169255
v -0.156243 -1.249246 0.109607
v -0.156243 -1.329746 -0.029823
v -0.156243 -1.088245 0.109607
v -0.156243 -1.007745 -0.029823
v -0.156243 -1.088245 -0.169255
v -0.156243 -1.249246 -0.169255
v -0.175386 -1.200818 0.025727
v -0.175386 -1.232889 -0.029823
v -0.175386 -1.136673 0.025727
v -0.175386 -1.104602 -0.029823
v -0.175386 -1.136673 -0.085374
v -0.175386 -1.200818 -0.085374
v -0.781609 -1.200818 0.025727
v -0.781609 -1.232889 -0.029823
v -0.781609 -1.136673 0.025727
v -0.781609 -1.104602 -0.029823
v -0.781609 -1.136673 -0.085374
v -0.781609 -1.200818 -0.085374
v -0.800126 1.183663 0.530268
v 0.805078 1.183663 0.530268
v 0.837182 -1.455449 0.622063
v 0.663880 -1.157115 0.851552
v 0.663880 0.472250 0.908924
v 0.562902 -0.835832 0.977770
v 0.562902 0.185390 0.989245
v 0.329496 -1.455449 0.622063
v 0.261600 -1.214745 0.874500
v 0.222038 -0.870972 1.000719
v 0.222038 0.221735 1.012193
v 0.261600 0.528675 0.931873
v -0.832231 -1.455449 0.622063
v -0.658930 0.472250 0.908924
v -0.658929 -1.157115 0.851552
v -0.557952 -0.835832 0.977770
v -0.557952 0.185390 0.989245
v -0.324545 -1.455449 0.622063
v -0.256650 -1.214745 0.874500
v -0.217089 -0.870972 1.000719
v -0.217089 0.221735 1.012193
v -0.256650 0.528675 0.931873
v -0.148996 0.308234 1.036438
v 0.149730 0.308234 1.036438
v -0.175909 0.501584 1.036565
v 0.176642 0.501584 1.036565
vt 0.240234 0.568359
vt 0.240234 0.568359
vt 0.240234 0.568359
vt 0.240234 0.568359
vt 0.240234 0.568359
vt 0.240234 0.568359
vt 0.240234 0.568359
vt 0.240234 0.568359
vt 0.450677 0.630284
vt 0.497504 0.617235
vt 0.497676 0.598623
vt 0.542137 0.587877
vt 0.542137 0.594926
vt 0.524089 0.593934
vt 0.555860 0.594926
vt 0.573908 0.593934
vt 0.555860 0.587877
vt 0.499044 0.598623
vt 0.498873 0.617235
vt 0.452046 0.630284
vt 0.474792 0.580600
vt 0.482287 0.585676
vt 0.484295 0.575840
vt 0.473469 0.569268
vt 0.473469 0.574935
vt 0.474792 0.563601
vt 0.484295 0.568361
vt 0.450954 0.598215
vt 0.524089 0.587900
vt 0.573908 0.587900
vt 0.452323 0.598215
vt 0.482287 0.558524
vt 0.485140 0.919772
vt 0.502958 0.919772
vt 0.502958 0.898700
vt 0.520776 0.919772
vt 0.520776 0.898700
vt 0.502958 0.898700
vt 0.520776 0.898700
vt 0.502962 0.899248
vt 0.485140 0.919772
vt 0.502958 0.919772
vt 0.502958 0.898700
vt 0.520776 0.919772
vt 0.520776 0.898700
vt 0.485140 0.919772
vt 0.502958 0.919772
vt 0.520776 0.919772
vt 0.520776 0.898700
vt 0.502958 0.898700
vt 0.520776 0.877628
vt 0.502958 0.877628
vt 0.485140 0.919772
vt 0.502958 0.919772
vt 0.520776 0.919772
vt 0.520776 0.898700
vt 0.485140 0.877628
vt 0.485140 0.898700
vt 0.485140 0.877628
vt 0.485140 0.898700
vt 0.485140 0.919772
vt 0.502958 0.919772
vt 0.502997 0.899193
vt 0.520776 0.877628
vt 0.502958 0.877628
vt 0.485140 0.877628
vt 0.485140 0.898700
vt 0.520776 0.919772
vt 0.520776 0.898700
vt 0.520776 0.877628
vt 0.502958 0.877628
vt 0.485140 0.877628
vt 0.485140 0.898700
vt 0.485140 0.898700
vt 0.520776 0.877628
vt 0.502958 0.877628
vt 0.520776 0.877628
vt 0.502958 0.877628
vt 0.485140 0.877628
vt 0.485140 0.898700
vt 0.484112 0.919713
vt 0.502395 0.919713
vt 0.502395 0.899624
vt 0.520678 0.919713
vt 0.520678 0.899624
vt 0.502395 0.899624
vt 0.520678 0.899624
vt 0.502399 0.901569
vt 0.484112 0.919713
vt 0.502395 0.919713
vt 0.502395 0.899624
vt 0.520678 0.919713
vt 0.520678 0.899624
vt 0.484112 0.919713
vt 0.502395 0.919713
vt 0.520678 0.919713
vt 0.520678 0.899624
vt 0.502395 0.899624
vt 0.520678 0.879535
vt 0.502395 0.879535
vt 0.484112 0.919713
vt 0.502395 0.919713
vt 0.520678 0.919713
vt 0.520678 0.899624
vt 0.484112 0.879535
vt 0.484112 0.899624
vt 0.484112 0.879535
vt 0.484112 0.899624
vt 0.484112 0.919713
vt 0.502395 0.919713
vt 0.502567 0.901376
vt 0.520678 0.879535
vt 0.502395 0.879535
vt 0.484112 0.879535
vt 0.484112 0.899624
vt 0.520678 0.919713
vt 0.520678 0.899624
vt 0.520678 0.879535
vt 0.502395 0.879535
vt 0.484112 0.879535
vt 0.484112 0.899624
vt 0.484112 0.899624
vt 0.520678 0.879535
vt 0.502395 0.879535
vt 0.520678 0.879535
vt 0.502395 0.879535
vt 0.484112 0.879535
vt 0.484112 0.899624
vt 0.484112 0.919713
vt 0.502395 0.919713
vt 0.502395 0.899624
vt 0.520678 0.919713
vt 0.520678 0.899624
vt 0.502395 0.899624
vt 0.520678 0.899624
vt 0.502395 0.900983
vt 0.484112 0.919713
vt 0.502395 0.919713
vt 0.502395 0.899624
vt 0.520678 0.919713
vt 0.520678 0.899624
vt 0.484112 0.899624
vt 0.484112 0.919713
vt 0.502395 0.919713
vt 0.520678 0.919713
vt 0.520678 0.899624
vt 0.502395 0.899624
vt 0.520678 0.879535
vt 0.502395 0.879535
vt 0.484112 0.919713
vt 0.502395 0.919713
vt 0.520678 0.919713
vt 0.520678 0.899624
vt 0.484112 0.879535
vt 0.484112 0.879535
vt 0.484112 0.899624
vt 0.484112 0.919713
vt 0.502395 0.919713
vt 0.502520 0.900846
vt 0.520678 0.879535
vt 0.502395 0.879535
vt 0.484112 0.879535
vt 0.484112 0.899624
vt 0.520678 0.919713
vt 0.520678 0.899624
vt 0.520678 0.879535
vt 0.502395 0.879535
vt 0.484112 0.879535
vt 0.484112 0.899624
vt 0.484112 0.899624
vt 0.520678 0.879535
vt 0.502395 0.879535
vt 0.520678 0.879535
vt 0.502395 0.879535
vt 0.484112 0.879535
vt 0.484112 0.899624
vt 0.484762 0.919342
vt 0.501270 0.919342
vt 0.501270 0.903555
vt 0.517777 0.919342
vt 0.517777 0.903555
vt 0.501270 0.903555
vt 0.517777 0.903555
vt 0.501257 0.904792
vt 0.484762 0.919342
vt 0.501270 0.919342
vt 0.501270 0.903555
vt 0.517777 0.919342
vt 0.517777 0.903555
vt 0.484762 0.903555
vt 0.484762 0.919342
vt 0.501270 0.919342
vt 0.517777 0.919342
vt 0.517777 0.903555
vt 0.501270 0.903555
vt 0.517777 0.887767
vt 0.501270 0.887767
vt 0.484762 0.919342
vt 0.501270 0.919342
vt 0.517777 0.919342
vt 0.517777 0.903555
vt 0.484762 0.887767
vt 0.484762 0.887767
vt 0.484762 0.903555
vt 0.484762 0.919342
vt 0.501270 0.919342
vt 0.501415 0.904669
vt 0.517777 0.887767
vt 0.501270 0.887767
vt 0.484762 0.887767
vt 0.484762 0.903555
vt 0.517777 0.919342
vt 0.517777 0.903555
vt 0.517777 0.887767
vt 0.501270 0.887767
vt 0.484762 0.887767
vt 0.484762 0.903555
vt 0.484762 0.903555
vt 0.517777 0.887767
vt 0.501270 0.887767
vt 0.517777 0.887767
vt 0.501270 0.887767
vt 0.484762 0.887767
vt 0.484762 0.903555
vt 0.484762 0.919342
vt 0.501270 0.919342
vt 0.501270 0.903555
vt 0.517777 0.919342
vt 0.517777 0.903555
vt 0.501270 0.903555
vt 0.517777 0.903555
vt 0.501270 0.905418
vt 0.484762 0.919342
vt 0.501270 0.919342
vt 0.501270 0.903555
vt 0.517777 0.919342
vt 0.517777 0.903555
vt 0.484762 0.903555
vt 0.484762 0.919342
vt 0.501270 0.919342
vt 0.517777 0.919342
vt 0.517777 0.903555
vt 0.501270 0.903555
vt 0.517777 0.887767
vt 0.501270 0.887767
vt 0.484762 0.919342
vt 0.501270 0.919342
vt 0.517777 0.919342
vt 0.517777 0.903555
vt 0.484762 0.887767
vt 0.484762 0.887767
vt 0.484762 0.903555
vt 0.484762 0.919342
vt 0.501270 0.919342
vt 0.501464 0.905231
vt 0.517777 0.887767
vt 0.501270 0.887767
vt 0.484762 0.887767
vt 0.484762 0.903555
vt 0.517777 0.919342
vt 0.517777 0.903555
vt 0.517777 0.887767
vt 0.501270 0.887767
vt 0.484762 0.887767
vt 0.484762 0.903555
vt 0.484762 0.903555
vt 0.517777 0.887767
vt 0.501270 0.887767
vt 0.517777 0.887767
vt 0.501270 0.887767
vt 0.484762 0.887767
vt 0.484762 0.903555
vt 0.187222 0.235131
vt 0.510351 0.246509
vt 0.128058 0.189620
vt 0.250938 0.260162
vt 0.453462 0.262438
vt 0.651435 0.171416
vt 0.876014 0.648251
vt 0.824992 0.599972
vt 0.814004 0.638925
vt 0.907151 0.599972
vt 0.861100 0.691943
vt 0.807602 0.695535
vt 0.375792 0.801849
vt 0.435710 0.987543
vt 0.435174 0.795460
vt 0.375792 0.981366
vt 0.356364 0.751424
vt 0.427779 0.741505
vt 0.009927 0.846876
vt 0.113999 0.973184
vt 0.104064 0.846876
vt 0.037156 0.984065
vt 0.331615 0.505905
vt 0.718257 0.448369
vt 0.188925 0.429958
vt 0.658419 0.494398
vt 0.593979 0.519714
vt 0.389151 0.522015
vt 0.730136 0.638925
vt 0.719149 0.599972
vt 0.668127 0.648251
vt 0.636990 0.599972
vt 0.736538 0.695535
vt 0.683041 0.691943
vt 0.513439 0.795460
vt 0.512903 0.987543
vt 0.572822 0.801849
vt 0.572822 0.981366
vt 0.519857 0.741505
vt 0.592637 0.751424
vt 0.225338 0.846876
vt 0.213938 0.973184
vt 0.319474 0.846876
vt 0.292246 0.984065
vt 0.499445 0.780255
vt 0.500817 0.746267
vt 0.448932 0.780255
vt 0.447136 0.746267
vt 0.505858 0.597835
vt 0.505985 0.639318
vt 0.498944 0.639340
vt 0.498817 0.597857
vt 0.506175 0.639381
vt 0.506097 0.597835
vt 0.526366 0.603569
vt 0.523292 0.635799
vt 0.478547 0.597835
vt 0.478468 0.639381
vt 0.461352 0.635799
vt 0.458277 0.603569
vt 0.564518 0.597778
vt 0.564645 0.639261
vt 0.557604 0.639283
vt 0.557476 0.597800
vt 0.526445 0.639381
vt 0.526366 0.597835
vt 0.546636 0.603569
vt 0.543561 0.635799
vt 0.498817 0.597835
vt 0.498738 0.639381
vt 0.481622 0.635799
vt 0.478547 0.603569
vt 0.557317 0.597778
vt 0.557476 0.649600
vt 0.550435 0.649622
vt 0.550276 0.597800
vt 0.502528 0.597835
vt 0.502457 0.545935
vt 0.526366 0.561765
vt 0.522149 0.592445
vt 0.550276 0.545935
vt 0.550205 0.597835
vt 0.530583 0.592445
vt 0.526366 0.561765
vt 0.557317 0.545935
vt 0.557476 0.597757
vt 0.550435 0.597778
vt 0.550276 0.545957
vt 0.478618 0.597835
vt 0.478547 0.545935
vt 0.502457 0.561765
vt 0.498240 0.592445
vt 0.478547 0.545935
vt 0.478476 0.597835
vt 0.458854 0.592445
vt 0.454637 0.561765
vt 0.160940 0.469314
vt 0.152807 0.450907
vt 0.173606 0.447011
vt 0.183327 0.479564
vt 0.159597 0.500388
vt 0.182977 0.501777
vt 0.156930 0.523935
vt 0.182698 0.519162
vt 0.152930 0.546298
vt 0.178865 0.537300
vt 0.104906 0.467877
vt 0.082277 0.476156
vt 0.090762 0.447011
vt 0.111994 0.451460
vt 0.107427 0.491567
vt 0.083975 0.493343
vt 0.111689 0.516545
vt 0.085954 0.511148
vt 0.112131 0.545640
vt 0.087278 0.533785
vt 0.122179 0.507722
vt 0.146033 0.505827
vt 0.149007 0.538212
vt 0.125260 0.540611
vt 0.112131 0.486753
vt 0.152807 0.484425
vt 0.112225 0.468623
vt 0.152807 0.466892
vt 0.120240 0.448029
vt 0.144112 0.447011
vt 0.093838 0.556016
vt 0.075476 0.540479
vt 0.012884 0.518457
vt 0.075476 0.525181
vt 0.060589 0.548975
vt 0.023771 0.545020
vt 0.012761 0.493860
vt 0.075454 0.501439
vt 0.028755 0.465790
vt 0.065478 0.471021
vt 0.067718 0.452989
vt 0.031207 0.447011
vt 0.173047 0.450769
vt 0.152482 0.454622
vt 0.160524 0.472822
vt 0.182659 0.482957
vt 0.159195 0.503546
vt 0.182313 0.504920
vt 0.156559 0.526828
vt 0.182037 0.522108
vt 0.152604 0.548940
vt 0.178247 0.540043
vt 0.090653 0.447907
vt 0.082264 0.476725
vt 0.104639 0.468538
vt 0.111647 0.452307
vt 0.083943 0.493718
vt 0.107131 0.491962
vt 0.085899 0.511323
vt 0.111345 0.516659
vt 0.087208 0.533705
vt 0.111782 0.545427
vt 0.148894 0.537931
vt 0.145954 0.505911
vt 0.122368 0.507784
vt 0.125414 0.540302
vt 0.152651 0.484749
vt 0.112433 0.487051
vt 0.152652 0.467414
vt 0.112526 0.469125
vt 0.144054 0.447756
vt 0.120451 0.448762
vt 0.075539 0.540323
vt 0.093695 0.555686
vt 0.061302 0.548940
vt 0.076021 0.525414
vt 0.014133 0.518764
vt 0.024897 0.545028
vt 0.076000 0.501938
vt 0.014012 0.494444
vt 0.066136 0.471862
vt 0.029827 0.466690
vt 0.068351 0.454033
vt 0.032251 0.448122
vt 0.033490 0.612593
vt 0.024869 0.629823
vt 0.021273 0.611977
vt 0.032567 0.637478
vt 0.042019 0.630554
vt 0.045525 0.613270
vt 0.042019 0.595650
vt 0.033490 0.587857
vt 0.024869 0.594555
vt 0.037153 0.621538
vt 0.033154 0.601548
vt 0.046723 0.630186
vt 0.056166 0.622559
vt 0.060039 0.603351
vt 0.056166 0.583678
vt 0.046723 0.574841
vt 0.037153 0.582151
vt 0.018426 0.621924
vt 0.012523 0.599709
vt 0.047571 0.632246
vt 0.075569 0.624950
vt 0.080974 0.604334
vt 0.075569 0.582922
vt 0.047571 0.571527
vt 0.018426 0.578224
vt 0.032311 0.617471
vt 0.025599 0.608630
vt 0.065246 0.622794
vt 0.096511 0.621590
vt 0.102500 0.614053
vt 0.096511 0.605481
vt 0.065246 0.599369
vt 0.032311 0.600523
vt 0.065246 0.611065
vt 0.417930 0.658213
vt 0.372285 0.670050
vt 0.423191 0.670050
vt 0.371329 0.658214
vt 0.580186 0.666013
vt 0.579695 0.658437
vt 0.625203 0.669688
vt 0.625699 0.660347
vt 0.336467 0.705210
vt 0.375760 0.668207
vt 0.371987 0.704992
vt 0.330243 0.668487
vt 0.391529 0.674373
vt 0.575660 0.674373
vt 0.571584 0.712179
vt 0.395642 0.712179
vt 0.636362 0.674373
vt 0.636362 0.712179
vt 0.330816 0.657704
vt 0.364684 0.657972
vt 0.365715 0.659229
vt 0.330651 0.659229
vt 0.393071 0.674373
vt 0.574131 0.674373
vt 0.340733 0.658439
vt 0.361139 0.657905
vt 0.351109 0.658811
vt 0.578258 0.674373
vt 0.330651 0.659229
vt 0.365720 0.659229
vt 0.364679 0.660478
vt 0.330994 0.660478
vt 0.357763 0.660595
vt 0.358626 0.661973
vt 0.330651 0.661973
vt 0.570055 0.712179
vt 0.397184 0.712179
vt 0.364351 0.658019
vt 0.332850 0.659574
vt 0.347486 0.661735
vt 0.357835 0.661973
vt 0.331097 0.663440
vt 0.330651 0.661973
vt 0.330852 0.712179
vt 0.657702 0.936559
vt 0.649692 0.868292
vt 0.678597 0.874898
vt 0.679032 0.943165
vt 0.740181 0.144109
vt 0.833479 0.135007
vt 0.719702 0.160038
vt 0.715150 0.146385
vt 0.651435 0.171416
vt 0.676466 0.139558
vt 0.262316 0.071291
vt 0.257764 0.028056
vt 0.626404 0.023505
vt 0.651435 0.116802
vt 0.032485 0.037158
vt 0.109854 0.037158
vt 0.116680 0.094047
vt 0.007454 0.089496
vt 0.009729 0.041709
vt 0.016556 0.105425
vt 0.058942 0.100608
vt 0.984831 0.861666
vt 0.972376 0.854119
vt 0.983370 0.784815
vt 0.996385 0.779926
vt 0.128058 0.189620
vt 0.137160 0.130456
vt 0.200876 0.130456
vt 0.187222 0.235131
vt 0.510351 0.246509
vt 0.250938 0.260162
vt 0.453462 0.262438
vt 0.237284 0.112251
vt 0.977127 0.234630
vt 0.975284 0.231191
vt 0.972830 0.219134
vt 0.637782 0.084945
vt 0.972704 0.141745
vt 0.942556 0.139744
vt 0.941677 0.122804
vt 0.043254 0.328010
vt 0.102889 0.302237
vt 0.151429 0.328010
vt 0.969391 0.160583
vt 0.942179 0.158934
vt 0.755137 0.874898
vt 0.747581 0.943165
vt 0.055826 0.689636
vt 0.166209 0.691156
vt 0.101382 0.778937
vt 0.039551 0.726444
vt 0.024812 0.778937
vt 0.024812 0.668155
vt 0.969959 0.184869
vt 0.942960 0.186267
vt 0.942619 0.174888
vt 0.970207 0.191446
vt 0.943211 0.193237
vt 0.103811 0.845406
vt 0.009551 0.845406
vt 0.970833 0.201721
vt 0.943680 0.204209
vt 0.977126 0.344257
vt 0.945542 0.344214
vt 0.945519 0.235770
vt 0.977091 0.355829
vt 0.945241 0.348260
vt 0.971611 0.210387
vt 0.944230 0.213940
vt 0.968058 0.419438
vt 0.941693 0.418633
vt 0.942101 0.403371
vt 0.971984 0.404684
vt 0.967605 0.439670
vt 0.941173 0.441578
vt 0.964661 0.445692
vt 0.941036 0.447762
vt 0.983370 0.768645
vt 0.881158 0.768645
vt 0.881158 0.720132
vt 0.972376 0.720132
vt 0.881158 0.784815
vt 0.881158 0.854119
vt 0.906166 0.599741
vt 0.824007 0.599741
vt 0.824007 0.508303
vt 0.897329 0.516181
vt 0.901453 0.555177
vt 0.942470 0.392071
vt 0.971493 0.393938
vt 0.943237 0.374546
vt 0.972620 0.377611
vt 0.876014 0.648251
vt 0.814004 0.638925
vt 0.824992 0.599972
vt 0.907151 0.599972
vt 0.861100 0.691943
vt 0.807602 0.695535
vt 0.943995 0.362770
vt 0.974775 0.367692
vt 0.375792 0.801849
vt 0.435174 0.795460
vt 0.435710 0.987543
vt 0.375792 0.981366
vt 0.356364 0.751424
vt 0.427779 0.741505
vt 0.009927 0.846876
vt 0.104064 0.846876
vt 0.113999 0.973184
vt 0.037156 0.984065
vt 0.945160 0.228354
vt 0.944993 0.224256
vt 0.986105 0.868292
vt 0.978096 0.936559
vt 0.957200 0.874898
vt 0.956766 0.943165
vt 0.956766 0.985006
vt 0.978096 0.978400
vt 0.004810 0.393135
vt 0.099169 0.402340
vt 0.119882 0.418450
vt 0.188925 0.429958
vt 0.124485 0.404642
vt 0.163609 0.397737
vt 0.587075 0.284967
vt 0.582472 0.328694
vt 0.214241 0.280364
vt 0.188925 0.374723
vt 0.736668 0.294172
vt 0.814917 0.294172
vt 0.729764 0.351709
vt 0.837932 0.298775
vt 0.840233 0.347106
vt 0.831028 0.363216
vt 0.781741 0.357615
vt 0.073447 0.181125
vt 0.658264 0.854119
vt 0.645060 0.861596
vt 0.632607 0.779194
vt 0.647270 0.784815
vt 0.718257 0.448369
vt 0.709051 0.388531
vt 0.644611 0.388531
vt 0.607788 0.370120
vt 0.331615 0.505905
vt 0.658419 0.494398
vt 0.593979 0.519714
vt 0.389151 0.522015
vt 0.876045 0.231195
vt 0.874174 0.234565
vt 0.878529 0.219314
vt 0.202734 0.342503
vt 0.906770 0.140465
vt 0.877070 0.143462
vt 0.906959 0.123701
vt 0.091794 0.328010
vt 0.151429 0.353784
vt 0.043254 0.353784
vt 0.907786 0.159480
vt 0.880950 0.161917
vt 0.880661 0.874898
vt 0.888167 0.943165
vt 0.275606 0.691758
vt 0.289978 0.731470
vt 0.227673 0.778937
vt 0.304243 0.668155
vt 0.907689 0.186620
vt 0.881024 0.185775
vt 0.907782 0.175324
vt 0.907560 0.193535
vt 0.880907 0.192192
vt 0.304243 0.778937
vt 0.225244 0.845406
vt 0.319505 0.845406
vt 0.907246 0.204428
vt 0.880426 0.202259
vt 0.905165 0.344054
vt 0.873723 0.343891
vt 0.905640 0.235765
vt 0.905413 0.348071
vt 0.873724 0.355326
vt 0.906795 0.214093
vt 0.879722 0.210741
vt 0.907562 0.418064
vt 0.881475 0.418084
vt 0.907585 0.402903
vt 0.878004 0.403452
vt 0.907274 0.440815
vt 0.881268 0.438048
vt 0.907157 0.446850
vt 0.883984 0.444073
vt 0.749481 0.768645
vt 0.647270 0.768645
vt 0.749481 0.720132
vt 0.658264 0.720132
vt 0.749481 0.784815
vt 0.749481 0.854119
vt 0.718164 0.599741
vt 0.636005 0.599741
vt 0.718164 0.508303
vt 0.644842 0.516181
vt 0.640756 0.554819
vt 0.907487 0.391675
vt 0.878744 0.392909
vt 0.907061 0.374240
vt 0.877932 0.376809
vt 0.730136 0.638925
vt 0.668127 0.648251
vt 0.719149 0.599972
vt 0.636990 0.599972
vt 0.736538 0.695535
vt 0.683041 0.691943
vt 0.906483 0.362520
vt 0.875927 0.367036
vt 0.513439 0.795460
vt 0.572822 0.801849
vt 0.512903 0.987543
vt 0.572822 0.981366
vt 0.519857 0.741505
vt 0.592637 0.751424
vt 0.225338 0.846876
vt 0.319474 0.846876
vt 0.213938 0.973184
vt 0.292246 0.984065
vt 0.905968 0.228401
vt 0.906101 0.224345
vt 0.499445 0.780255
vt 0.448932 0.780255
vt 0.500817 0.746267
vt 0.447136 0.746267
vt 0.905682 0.985006
vt 0.729949 0.985006
vt 0.198621 0.738259
vt 0.076041 0.650430
vt 0.252848 0.650430
vt 0.881146 0.174838
vt 0.060045 0.386230
vt 0.441897 0.744524
vt 0.428497 0.727886
vt 0.520530 0.727886
vt 0.505925 0.744524
vt 0.657702 0.978400
vt 0.679032 0.985006
vt 0.969566 0.173724
vt 0.778866 0.128180
vt 0.413552 0.635230
vt 0.390088 0.629910
vt 0.391073 0.624734
vt 0.411528 0.640078
vt 0.406282 0.587652
vt 0.384830 0.593371
vt 0.384848 0.587586
vt 0.406265 0.593437
vt 0.411527 0.600188
vt 0.391073 0.615532
vt 0.390088 0.610356
vt 0.413552 0.605036
vt 0.392055 0.620133
vt 0.415574 0.609309
vt 0.204027 0.599871
vt 0.227516 0.594014
vt 0.227534 0.599799
vt 0.204010 0.594086
vt 0.415575 0.630957
vt 0.392055 0.620133
vt 0.231438 0.630388
vt 0.230382 0.625227
vt 0.226181 0.592885
vt 0.226199 0.587099
vt 0.230382 0.615039
vt 0.231438 0.609878
vt 0.229324 0.619625
vt 0.390247 0.593515
vt 0.390264 0.599300
vt 0.229324 0.620641
vt 0.208349 0.640395
vt 0.206642 0.635865
vt 0.204010 0.592817
vt 0.204027 0.587031
vt 0.206642 0.604401
vt 0.209272 0.599871
vt 0.204010 0.608357
vt 0.415575 0.593437
vt 0.415592 0.599222
vt 0.204010 0.631909
vt 0.204176 0.541435
vt 0.250928 0.539116
vt 0.250921 0.541578
vt 0.204183 0.538973
vt 0.250943 0.534170
vt 0.204198 0.534027
vt 0.250951 0.531686
vt 0.204206 0.531543
vt 0.300559 0.531543
vt 0.253822 0.534151
vt 0.253814 0.531686
vt 0.300567 0.534008
vt 0.253837 0.539097
vt 0.300582 0.538954
vt 0.253845 0.541578
vt 0.300590 0.541435
vt 0.244051 0.548115
vt 0.235296 0.541592
vt 0.247665 0.541578
vt 0.239123 0.548120
vt 0.229078 0.552337
vt 0.236646 0.552401
vt 0.235228 0.563068
vt 0.239096 0.556677
vt 0.247596 0.563055
vt 0.244024 0.556671
vt 0.253814 0.552310
vt 0.246501 0.552390
vt 0.228912 0.563145
vt 0.235165 0.587013
vt 0.228985 0.587031
vt 0.235092 0.563125
vt 0.247579 0.586974
vt 0.247506 0.563087
vt 0.253814 0.586955
vt 0.253741 0.563068
vt 0.228912 0.586955
vt 0.222652 0.563087
vt 0.228839 0.563068
vt 0.222725 0.586974
vt 0.210238 0.563125
vt 0.210311 0.587012
vt 0.204010 0.563145
vt 0.204083 0.587031
vt 0.222762 0.563068
vt 0.214221 0.556526
vt 0.219149 0.556532
vt 0.210394 0.563055
vt 0.211744 0.552245
vt 0.204176 0.552310
vt 0.214194 0.547970
vt 0.210325 0.541578
vt 0.219121 0.547975
vt 0.222694 0.541591
vt 0.221599 0.552256
vt 0.228912 0.552336
vt 0.204206 0.531543
vt 0.250943 0.528937
vt 0.250951 0.531399
vt 0.204198 0.529081
vt 0.250928 0.523991
vt 0.204183 0.524135
vt 0.250921 0.521507
vt 0.204176 0.521651
vt 0.300559 0.521507
vt 0.253822 0.524116
vt 0.253814 0.521651
vt 0.300567 0.523972
vt 0.253837 0.529061
vt 0.300582 0.528918
vt 0.253845 0.531543
vt 0.300590 0.531399
vt 0.204206 0.511472
vt 0.250943 0.508866
vt 0.250951 0.511328
vt 0.204198 0.509010
vt 0.250928 0.503920
vt 0.204183 0.504064
vt 0.250921 0.501436
vt 0.204176 0.501580
vt 0.250951 0.511615
vt 0.204198 0.513937
vt 0.204206 0.511472
vt 0.250943 0.514080
vt 0.204183 0.518883
vt 0.250928 0.519026
vt 0.204176 0.521364
vt 0.250921 0.521507
vt 0.293524 0.548115
vt 0.284769 0.541592
vt 0.297137 0.541578
vt 0.288596 0.548120
vt 0.278551 0.552337
vt 0.286119 0.552401
vt 0.284701 0.563068
vt 0.288569 0.556677
vt 0.297069 0.563055
vt 0.293497 0.556672
vt 0.303287 0.552310
vt 0.295974 0.552391
vt 0.278717 0.563145
vt 0.284969 0.587013
vt 0.278790 0.587031
vt 0.284896 0.563125
vt 0.297384 0.586974
vt 0.297311 0.563087
vt 0.303619 0.586955
vt 0.303546 0.563068
vt 0.278717 0.586955
vt 0.272457 0.563087
vt 0.278643 0.563068
vt 0.272530 0.586974
vt 0.260042 0.563125
vt 0.260116 0.587012
vt 0.253814 0.563145
vt 0.253888 0.587031
vt 0.272401 0.563068
vt 0.263860 0.556526
vt 0.268787 0.556532
vt 0.260033 0.563055
vt 0.261382 0.552245
vt 0.253814 0.552310
vt 0.263833 0.547970
vt 0.259964 0.541578
vt 0.268760 0.547975
vt 0.272332 0.541592
vt 0.271238 0.552256
vt 0.278551 0.552337
vt 0.253845 0.511472
vt 0.300582 0.508866
vt 0.300590 0.511328
vt 0.253837 0.509010
vt 0.300567 0.503920
vt 0.253822 0.504064
vt 0.300559 0.501436
vt 0.253814 0.501580
vt 0.300559 0.511472
vt 0.253822 0.514080
vt 0.253814 0.511615
vt 0.300567 0.513937
vt 0.253837 0.519026
vt 0.300582 0.518883
vt 0.253845 0.521507
vt 0.300590 0.521364
vt 0.773933 0.439708
vn 0.0000 0.0348 0.9994
vn 0.0002 0.0348 0.9994
vn -0.0002 0.0348 0.9994
vn -0.9019 0.1775 -0.3937
vn -0.0734 0.1543 0.9853
vn -0.7987 0.6017 -0.0001
vn -0.0036 -1.0000 0.0000
vn -0.0860 0.2178 0.9722
vn 0.8283 -0.1724 0.5331
vn 0.9020 0.1772 -0.3937
vn 0.1829 -0.9831 0.0001
vn 0.7988 0.6016 0.0000
vn 0.0732 0.1543 0.9853
vn -0.0067 0.2120 0.9772
vn -0.1407 0.2230 0.9646
vn -0.8069 0.5907 -0.0001
vn 0.8070 0.5906 0.0000
vn -0.4220 0.6204 0.6611
vn -0.7738 0.6167 0.1444
vn -0.9673 -0.2337 -0.0982
vn -0.7553 -0.1394 0.6404
vn -0.0016 -0.2100 0.9777
vn -0.0008 0.7487 0.6629
vn -0.0003 0.9661 0.2583
vn -0.5206 0.7811 -0.3447
vn -0.0004 0.9684 -0.2495
vn -0.0007 0.2100 -0.9777
vn -0.6855 0.0504 -0.7263
vn 0.4256 0.6192 0.6599
vn 0.7583 -0.1386 0.6370
vn 0.9222 -0.3563 -0.1501
vn 0.8270 0.5527 0.1028
vn 0.5085 0.7853 -0.3532
vn 0.6756 0.0530 -0.7353
vn -0.4234 -0.8430 0.3319
vn -0.5450 -0.8020 -0.2444
vn -0.0002 -0.9650 -0.2621
vn -0.0007 -0.9617 0.2740
vn -0.3935 -0.6003 -0.6963
vn -0.0003 -0.7297 -0.6838
vn 0.4276 -0.8418 0.3293
vn 0.4711 -0.8423 -0.2618
vn 0.3840 -0.6008 -0.7011
vn -0.4477 0.6573 0.6062
vn -0.5132 0.8330 0.2068
vn -0.9976 -0.0139 0.0683
vn -0.6946 -0.1434 0.7050
vn -0.0010 -0.1988 0.9800
vn -0.0006 0.7522 0.6589
vn -0.0010 0.9796 0.2011
vn -0.4605 0.8499 -0.2560
vn 0.0049 0.9786 -0.2055
vn 0.0003 0.1987 -0.9801
vn -0.7363 0.1344 -0.6631
vn 0.4453 0.6527 0.6129
vn 0.6875 -0.1449 0.7116
vn 0.9960 -0.0179 0.0872
vn 0.4098 0.8868 0.2135
vn 0.5520 0.7568 -0.3500
vn 0.7432 0.1328 -0.6557
vn -0.4478 -0.8418 0.3014
vn -0.5130 -0.8477 -0.1352
vn -0.0009 -0.9803 -0.1977
vn -0.0003 -0.9498 0.3129
vn -0.4602 -0.6827 -0.5676
vn 0.0049 -0.8208 -0.5712
vn 0.4455 -0.8401 0.3094
vn 0.4097 -0.8998 -0.1499
vn 0.5518 -0.5604 -0.6176
vn -0.4991 0.5241 0.6901
vn -0.4855 0.8506 0.2019
vn -0.9966 -0.0166 0.0812
vn -0.6565 -0.1509 0.7391
vn 0.0000 -0.1993 0.9799
vn -0.0001 0.6251 0.7806
vn 0.0021 0.9791 0.2034
vn -0.6145 0.6223 -0.4849
vn -0.0096 0.9431 -0.3323
vn -0.0000 0.1992 -0.9800
vn -0.7123 0.1404 -0.6877
vn 0.5014 0.5274 0.6859
vn 0.6615 -0.1500 0.7348
vn 0.9976 -0.0140 0.0684
vn 0.6070 0.7688 0.2011
vn 0.5228 0.7659 -0.3743
vn 0.7077 0.1413 -0.6922
vn -0.4990 -0.7522 0.4304
vn -0.4853 -0.8620 -0.1465
vn 0.0021 -0.9807 -0.1953
vn 0.0000 -0.8800 0.4750
vn -0.6132 -0.3832 -0.6907
vn -0.0095 -0.7384 -0.6743
vn 0.5014 -0.7535 0.4253
vn 0.6070 -0.7863 -0.1151
vn 0.5226 -0.5587 -0.6440
vn -0.5108 0.5148 0.6885
vn -0.5089 0.8352 0.2085
vn -0.9951 -0.0217 0.0962
vn -0.6464 -0.1521 0.7477
vn 0.0093 -0.1998 0.9798
vn -0.0296 0.6233 0.7814
vn -0.0443 0.9773 0.2070
vn -0.6307 0.6162 -0.4718
vn -0.0404 0.9712 -0.2347
vn -0.0082 0.1992 -0.9799
vn -0.7190 0.1385 -0.6811
vn 0.4822 0.5314 0.6965
vn 0.6592 -0.1490 0.7370
vn 0.9965 -0.0145 0.0824
vn 0.4590 0.8648 0.2037
vn 0.5987 0.6325 -0.4915
vn 0.7082 0.1416 -0.6916
vn -0.4716 -0.7636 0.4410
vn -0.4586 -0.8770 -0.1434
vn 0.0444 -0.9804 -0.1917
vn 0.0417 -0.8793 0.4745
vn -0.6084 -0.3912 -0.6906
vn 0.0343 -0.8025 -0.5957
vn 0.5207 -0.7407 0.4246
vn 0.5095 -0.8487 -0.1419
vn 0.6213 -0.3815 -0.6844
vn -0.4474 0.6492 0.6151
vn -0.4126 0.8844 0.2181
vn -0.9949 -0.0202 0.0985
vn -0.6870 -0.1457 0.7119
vn 0.0000 -0.1989 0.9800
vn -0.0001 0.7523 0.6588
vn -0.0000 0.9793 0.2026
vn -0.5565 0.7554 -0.3461
vn 0.0009 0.9910 -0.1335
vn -0.0000 0.1988 -0.9800
vn -0.7481 0.1325 -0.6502
vn 0.4485 0.6506 0.6128
vn 0.6893 -0.1452 0.7098
vn 0.9957 -0.0186 0.0910
vn 0.4135 0.8848 0.2150
vn 0.5555 0.7546 -0.3493
vn 0.7455 0.1331 -0.6531
vn -0.4473 -0.8380 0.3125
vn -0.4124 -0.8994 -0.1447
vn -0.0000 -0.9806 -0.1961
vn 0.0000 -0.9498 0.3129
vn -0.5564 -0.5603 -0.6136
vn 0.0000 -0.8603 -0.5098
vn 0.4484 -0.8384 0.3098
vn 0.4132 -0.8986 -0.1477
vn 0.5555 -0.5583 -0.6163
vn -0.4501 0.3250 -0.8317
vn -0.5693 -0.2139 -0.7938
vn -0.3923 0.4245 -0.8160
vn -0.4063 0.1196 -0.9059
vn -0.3408 -0.0666 -0.9378
vn -0.3037 -0.4317 -0.8493
vn -0.0415 0.6883 -0.7243
vn -0.0589 0.5456 -0.8360
vn -0.0405 0.1823 -0.9824
vn -0.1164 -0.0168 -0.9931
vn -0.1985 -0.3738 -0.9060
vn -0.0135 -0.3081 -0.9512
vn 0.5693 -0.2139 -0.7938
vn 0.3917 0.4230 -0.8171
vn 0.3037 -0.4317 -0.8493
vn 0.4501 0.3250 -0.8317
vn 0.4063 0.1196 -0.9059
vn 0.3408 -0.0666 -0.9378
vn 0.0589 0.5456 -0.8360
vn 0.0415 0.6883 -0.7243
vn 0.0405 0.1823 -0.9824
vn 0.1170 -0.0149 -0.9930
vn 0.2019 -0.3738 -0.9053
vn 0.0135 -0.3081 -0.9512
vn 0.1089 0.1132 -0.9876
vn 0.4448 -0.0283 -0.8952
vn -0.1025 0.1135 -0.9882
vn -0.4297 -0.0317 -0.9024
vn -0.6563 -0.0731 -0.7509
vn -0.6356 -0.0748 -0.7684
vn 0.6356 -0.0748 -0.7684
vn 0.6563 -0.0731 -0.7509
vn 1.0000 0.0000 0.0000
vn -1.0000 0.0000 0.0000
vn -0.6388 -0.1581 -0.7530
vn -0.5311 -0.1741 -0.8292
vn 0.5311 -0.1741 -0.8292
vn 0.6388 -0.1581 -0.7530
vn 0.3665 -0.5941 0.7161
vn 0.1334 -0.7244 0.6763
vn 0.1697 0.7551 0.6332
vn 0.1401 0.8891 0.4358
vn 0.6268 -0.3308 0.7055
vn 0.0253 0.8609 0.5082
vn 0.3111 -0.3732 0.8740
vn -0.2962 0.7547 0.5854
vn -0.2478 -0.7089 0.6604
vn -0.7176 0.4377 0.5418
vn -0.1047 -0.4894 -0.8658
vn -0.1726 0.9085 -0.3806
vn -0.1960 0.8534 -0.4830
vn -0.2924 -0.5886 -0.7537
vn -0.0326 -0.3372 -0.9409
vn -0.4042 0.7964 -0.4497
vn -0.2133 -0.5699 -0.7936
vn -0.6863 0.6218 -0.3772
vn -0.5423 -0.7989 -0.2601
vn -0.9219 0.3752 -0.0967
vn -0.1697 0.7551 0.6332
vn -0.1334 -0.7244 0.6763
vn -0.3665 -0.5941 0.7161
vn -0.1401 0.8891 0.4358
vn -0.6268 -0.3308 0.7055
vn -0.0253 0.8609 0.5082
vn -0.3111 -0.3732 0.8740
vn 0.2962 0.7547 0.5854
vn 0.2478 -0.7089 0.6604
vn 0.7176 0.4377 0.5418
vn 0.1960 0.8534 -0.4830
vn 0.1726 0.9085 -0.3806
vn 0.1047 -0.4894 -0.8658
vn 0.2924 -0.5886 -0.7537
vn 0.4043 0.7964 -0.4497
vn 0.0326 -0.3372 -0.9409
vn 0.6863 0.6218 -0.3772
vn 0.2132 -0.5699 -0.7936
vn 0.9219 0.3752 -0.0967
vn 0.5423 -0.7989 -0.2601
vn 0.0000 -1.0000 -0.0000
vn -0.3418 -0.8754 0.3418
vn -0.4833 -0.8754 0.0000
vn 0.0000 -0.8755 0.4833
vn 0.3418 -0.8754 0.3417
vn 0.4833 -0.8754 0.0000
vn 0.3418 -0.8754 -0.3417
vn 0.0000 -0.8755 -0.4833
vn -0.3418 -0.8754 -0.3418
vn -0.4512 -0.5763 0.6814
vn -0.6651 -0.7468 0.0031
vn -0.0602 -0.2480 0.9669
vn 0.4739 -0.6907 0.5463
vn 0.6651 -0.7468 -0.0031
vn 0.4512 -0.5763 -0.6814
vn 0.0602 -0.2480 -0.9669
vn -0.4739 -0.6907 -0.5463
vn -0.4835 -0.5714 0.6631
vn -0.8303 -0.5567 -0.0263
vn -0.0487 -0.2364 0.9704
vn 0.4756 -0.5881 0.6541
vn 0.8327 -0.5507 -0.0568
vn 0.4967 -0.4466 -0.7442
vn 0.0510 -0.0613 -0.9968
vn -0.4923 -0.4611 -0.7382
vn -0.2586 0.6178 0.7426
vn -0.8117 0.5728 0.1138
vn -0.0116 0.6898 0.7239
vn 0.2384 0.6429 0.7279
vn 0.8100 0.5839 0.0554
vn 0.2338 0.7407 -0.6298
vn 0.0091 0.8081 -0.5890
vn -0.2117 0.7641 -0.6094
vn -0.0000 1.0000 -0.0000
vn 0.2719 -0.9092 -0.3154
vn 0.6997 0.7063 -0.1078
vn 0.3293 0.8445 -0.4224
vn 0.6469 -0.7603 -0.0588
vn -0.3297 0.8445 -0.4220
vn -0.2718 -0.9092 -0.3154
vn -0.7035 0.7024 -0.1082
vn -0.6510 -0.7567 -0.0593
vn -0.7657 0.6316 0.1215
vn -0.5480 -0.5382 0.6403
vn -0.4676 0.6470 0.6023
vn -0.6850 -0.7254 0.0678
vn 0.5476 -0.5381 0.6407
vn 0.4680 0.6470 0.6020
vn 0.6806 -0.7295 0.0677
vn 0.7617 0.6365 0.1211
vn 0.8363 -0.5404 -0.0927
vn 0.6951 -0.4715 -0.5428
vn 0.5196 0.6416 -0.5642
vn 0.6343 0.7403 0.2226
vn 0.9843 -0.0432 -0.1708
vn 0.5440 0.4624 0.7002
vn 0.2361 0.1971 0.9515
vn 0.8359 0.0502 -0.5465
vn 0.7125 0.1863 0.6764
vn 0.8325 0.2501 -0.4944
vn 0.8013 -0.5490 -0.2378
vn 0.3638 -0.6314 -0.6848
vn 0.5024 0.3878 -0.7728
vn 0.8432 0.4176 -0.3385
vn 0.6661 -0.1927 -0.7206
vn 0.5051 0.5487 -0.6662
vn 0.8135 0.5497 -0.1899
vn 0.6540 -0.7427 0.1435
vn 0.3963 -0.6953 -0.5996
vn 0.7381 -0.6197 0.2668
vn 0.9978 0.0506 -0.0418
vn 0.6455 -0.1784 0.7427
vn 0.5323 -0.5826 0.6142
vn 0.7192 -0.2189 0.6594
vn 0.8903 0.2602 -0.3737
vn 0.8197 -0.1591 -0.5502
vn 0.4501 -0.3250 0.8317
vn 0.5693 0.2139 0.7938
vn 0.4063 -0.1196 0.9059
vn 0.3408 0.0666 0.9378
vn 0.8259 -0.4365 -0.3569
vn 0.6046 0.7409 -0.2923
vn 0.9921 0.0793 -0.0972
vn -0.0557 -0.6399 -0.7664
vn 0.0788 0.7579 -0.6476
vn -0.0604 -0.9362 -0.3461
vn 0.1085 0.9562 0.2720
vn 0.0403 0.2143 0.9759
vn 0.0007 0.2481 0.9687
vn 0.0495 0.1444 0.9883
vn 0.0742 0.2306 0.9702
vn 0.0000 -0.2383 -0.9712
vn 0.0000 -0.5659 -0.8245
vn 0.0000 0.0420 -0.9991
vn 0.0135 0.3081 0.9513
vn 0.0000 0.4406 -0.8977
vn -0.1018 -0.6633 -0.7414
vn -0.1646 0.3825 -0.9092
vn 0.0000 -0.9229 -0.3850
vn 0.0000 0.8145 -0.5802
vn 0.0000 0.6636 -0.7480
vn 0.0000 0.9505 -0.3107
vn 0.0056 -0.1019 -0.9948
vn 0.0382 -0.7648 -0.6432
vn 0.0461 -0.9717 0.2315
vn 0.0471 -0.9452 0.3230
vn 0.0365 -0.7204 0.6926
vn 0.0218 -0.4352 0.9001
vn 0.0000 0.5048 -0.8632
vn 0.0000 -0.2298 -0.9732
vn 0.0589 -0.5456 0.8360
vn 0.0405 -0.1823 0.9824
vn 0.0000 -0.6765 -0.7365
vn 0.1164 0.0168 0.9931
vn 0.1798 0.4818 0.8576
vn 0.0135 0.3081 0.9512
vn -0.0779 0.8984 -0.4322
vn -0.0119 0.9593 -0.2821
vn -0.6951 -0.4715 -0.5428
vn -0.8330 -0.5427 -0.1081
vn -0.5196 0.6417 -0.5642
vn -0.6237 0.7458 0.2339
vn -0.5330 0.4830 0.6947
vn -0.9376 -0.2896 -0.1925
vn -0.9843 -0.0432 -0.1708
vn -0.2470 0.1821 0.9517
vn -0.7125 0.1863 0.6764
vn -0.8359 0.0502 -0.5465
vn -0.8325 0.2501 -0.4944
vn -0.3638 -0.6314 -0.6848
vn -0.8013 -0.5490 -0.2378
vn -0.5024 0.3878 -0.7728
vn -0.8432 0.4176 -0.3385
vn -0.5051 0.5487 -0.6662
vn -0.6661 -0.1927 -0.7206
vn -0.8133 0.5502 -0.1892
vn -0.3963 -0.6953 -0.5996
vn -0.6540 -0.7427 0.1435
vn -0.7376 -0.6201 0.2672
vn -0.9859 -0.1215 0.1150
vn -0.5324 -0.5835 0.6133
vn 0.6573 -0.3784 0.6517
vn -0.7194 -0.2187 0.6593
vn -0.8903 0.2602 -0.3737
vn -0.8197 -0.1591 -0.5502
vn -0.8259 -0.4365 -0.3569
vn -0.5693 0.2139 0.7938
vn -0.4501 -0.3250 0.8317
vn -0.4063 -0.1196 0.9059
vn -0.3408 0.0666 0.9378
vn -0.6046 0.7409 -0.2923
vn -0.9921 0.0793 -0.0972
vn 0.0557 -0.6399 -0.7664
vn -0.0788 0.7579 -0.6475
vn 0.0604 -0.9362 -0.3461
vn -0.1145 0.9543 0.2761
vn -0.0226 0.2439 0.9695
vn -0.1454 0.2293 0.9624
vn -0.0431 0.1390 0.9893
vn -0.0135 0.3081 0.9513
vn 0.1018 -0.6633 -0.7414
vn 0.1646 0.3825 -0.9092
vn -0.0056 -0.1019 -0.9948
vn -0.0382 -0.7648 -0.6432
vn -0.0461 -0.9717 0.2315
vn -0.0471 -0.9452 0.3230
vn -0.0365 -0.7204 0.6926
vn -0.0218 -0.4352 0.9001
vn -0.0589 -0.5456 0.8360
vn -0.0405 -0.1823 0.9824
vn -0.1170 0.0149 0.9930
vn -0.1823 0.4848 0.8554
vn -0.0135 0.3081 0.9512
vn 0.0779 0.8984 -0.4322
vn 0.0119 0.9593 -0.2821
vn -0.1089 -0.1132 0.9876
vn 0.1025 -0.1135 0.9882
vn -0.3228 0.5327 0.7823
vn 0.3107 0.5358 0.7851
vn -0.1317 0.5990 0.7899
vn 0.1137 0.5794 0.8071
vn -0.0248 0.2384 0.9708
vn 0.9388 -0.2820 -0.1977
vn -1.0000 0.0049 0.0068
vn -0.5337 0.1879 0.8245
vn -0.9976 -0.0158 -0.0678
vn -0.4959 0.3760 0.7827
vn 0.5332 0.1889 0.8246
vn 0.4951 0.3749 0.7838
vn 0.9975 -0.0163 -0.0686
vn 1.0000 0.0040 0.0053
vn 0.4726 -0.1908 -0.8604
vn 0.5024 -0.3654 -0.7837
vn -0.4723 -0.1903 -0.8607
vn -0.5016 -0.3668 -0.7835
vn -0.5313 -0.1778 0.8283
vn -0.9978 0.0137 -0.0654
vn 0.5315 -0.1774 0.8283
vn 0.9978 0.0135 -0.0650
vn 0.4734 0.1826 -0.8617
vn -0.4736 0.1828 -0.8616
vn -0.5148 -0.3511 0.7821
vn -0.9991 0.0165 -0.0387
vn 0.5152 -0.3517 0.7816
vn 0.9991 0.0162 -0.0379
vn 0.4791 0.3565 -0.8021
vn -0.4794 0.3559 -0.8022
vn 0.7554 -0.3276 0.5674
vn 0.7554 -0.6552 0.0000
vn 0.0000 -0.5000 0.8660
vn 0.7554 0.3276 0.5674
vn 0.0000 0.5000 0.8660
vn 0.7554 0.6552 0.0000
vn 0.7554 0.3276 -0.5674
vn 0.0000 0.5000 -0.8660
vn 0.7554 -0.3276 -0.5674
vn 0.0000 -0.5000 -0.8660
vn 0.5505 -0.4174 0.7230
vn 0.5505 -0.8348 0.0000
vn 0.5505 0.4174 0.7230
vn 0.5505 0.8348 0.0000
vn 0.5505 0.4174 -0.7230
vn 0.5505 -0.4174 -0.7230
vn -0.5505 -0.4174 0.7230
vn -0.5505 -0.8348 0.0000
vn -0.5505 0.4174 0.7230
vn -0.5505 0.8348 0.0000
vn -0.5505 0.4174 -0.7230
vn -0.5505 -0.4174 -0.7230
vn -0.7554 -0.3276 0.5674
vn -0.7554 -0.6552 -0.0000
vn -0.7554 0.3276 0.5674
vn -0.7554 0.6552 -0.0000
vn -0.7554 0.3276 -0.5674
vn -0.7554 -0.3276 -0.5674
usemtl Inside.002
s off
f 1/1/1 2/2/1 3/3/1
f 2/2/1 4/4/1 3/3/2
f 4/4/1 5/5/1 3/3/1
f 3/3/1 6/6/3 1/1/1
f 6/6/1 7/7/1 8/8/1
f 1/1/1 6/6/1 8/8/1
s 1
f 9/9/4 10/10/5 11/11/6
f 12/12/7 13/13/8 9/14/4
f 14/15/9 13/13/8 12/12/7
f 15/16/10 14/15/9 16/17/11
f 17/18/12 18/19/13 15/20/10
f 10/21/5 9/22/4 13/23/8
f 19/24/14 20/25/15 13/23/8
f 18/26/13 19/24/14 14/27/9
f 9/9/4 11/11/6 21/28/16
f 12/12/7 9/14/4 21/29/16
f 14/15/9 12/12/7 16/17/11
f 15/16/10 16/17/11 22/30/17
f 17/18/12 15/20/10 22/31/17
f 10/21/5 13/23/8 20/25/15
f 19/24/14 13/23/8 14/27/9
f 18/26/13 14/27/9 15/32/10
f 23/33/18 24/34/19 25/35/20
f 23/36/18 26/37/21 27/38/22
f 23/36/18 28/39/23 29/40/24
f 30/41/25 31/42/26 32/43/27
f 30/44/25 33/45/28 25/35/20
f 30/41/25 24/34/19 29/40/24
f 34/46/29 28/47/23 27/38/22
f 34/48/29 35/49/30 36/50/31
f 34/51/29 37/52/32 29/40/24
f 38/53/33 37/54/32 36/50/31
f 38/55/33 39/56/34 32/43/27
f 38/57/33 31/58/26 29/40/24
f 40/59/35 26/60/21 25/35/20
f 40/61/35 41/62/36 42/63/37
f 40/64/35 43/65/38 27/38/22
f 44/66/39 33/67/28 32/43/27
f 44/68/39 45/69/40 42/63/37
f 44/70/39 41/71/36 25/35/20
f 46/72/41 35/73/30 27/38/22
f 46/72/41 43/74/38 42/63/37
f 46/75/41 47/76/42 36/50/31
f 48/77/43 45/78/40 32/43/27
f 48/79/43 39/80/34 36/50/31
f 48/77/43 47/76/42 42/63/37
f 49/81/44 50/82/45 51/83/46
f 49/84/44 52/85/47 53/86/48
f 49/84/44 54/87/49 55/88/50
f 56/89/51 57/90/52 58/91/53
f 56/92/51 59/93/54 51/83/46
f 56/89/51 50/82/45 55/88/50
f 60/94/55 54/95/49 53/86/48
f 60/96/55 61/97/56 62/98/57
f 60/99/55 63/100/58 55/88/50
f 64/101/59 63/102/58 62/98/57
f 64/103/59 65/104/60 58/91/53
f 63/100/58 64/105/59 57/106/52
f 66/107/61 52/108/47 51/83/46
f 66/109/61 67/110/62 68/111/63
f 66/112/61 69/113/64 53/86/48
f 70/114/65 59/115/54 58/91/53
f 70/116/65 71/117/66 68/111/63
f 70/118/65 67/119/62 51/83/46
f 72/120/67 61/121/56 53/86/48
f 72/120/67 69/122/64 68/111/63
f 72/123/67 73/124/68 62/98/57
f 74/125/69 71/126/66 58/91/53
f 74/127/69 65/128/60 62/98/57
f 71/117/66 74/125/69 73/124/68
f 75/129/70 76/130/71 77/131/72
f 75/132/70 78/133/73 79/134/74
f 75/132/70 80/135/75 81/136/76
f 82/137/77 83/138/78 84/139/79
f 82/140/77 85/141/80 77/131/72
f 83/142/78 82/137/77 76/130/71
f 86/143/81 80/144/75 79/134/74
f 86/145/81 87/146/82 88/147/83
f 86/148/81 89/149/84 81/136/76
f 90/150/85 89/151/84 88/147/83
f 90/152/85 91/153/86 84/139/79
f 90/154/85 83/142/78 81/136/76
f 92/155/87 78/156/73 77/131/72
f 92/157/87 93/158/88 94/159/89
f 92/160/87 95/161/90 79/134/74
f 96/162/91 85/163/80 84/139/79
f 93/158/88 96/164/91 97/165/92
f 96/166/91 93/167/88 77/131/72
f 98/168/93 87/169/82 79/134/74
f 98/168/93 95/170/90 94/159/89
f 98/171/93 99/172/94 88/147/83
f 100/173/95 97/174/92 84/139/79
f 100/175/95 91/176/86 88/147/83
f 100/173/95 99/172/94 94/159/89
f 101/177/96 102/178/97 103/179/98
f 101/180/96 104/181/99 105/182/100
f 101/180/96 106/183/101 107/184/102
f 108/185/103 109/186/104 110/187/105
f 108/188/103 111/189/106 103/179/98
f 109/190/104 108/185/103 102/178/97
f 112/191/107 106/192/101 105/182/100
f 112/193/107 113/194/108 114/195/109
f 112/196/107 115/197/110 107/184/102
f 116/198/111 115/199/110 114/195/109
f 116/200/111 117/201/112 110/187/105
f 115/197/110 116/202/111 109/190/104
f 118/203/113 104/204/99 103/179/98
f 118/205/113 119/206/114 120/207/115
f 118/208/113 121/209/116 105/182/100
f 122/210/117 111/211/106 110/187/105
f 119/206/114 122/212/117 123/213/118
f 122/214/117 119/215/114 103/179/98
f 124/216/119 113/217/108 105/182/100
f 124/216/119 121/218/116 120/207/115
f 124/219/119 125/220/120 114/195/109
f 126/221/121 123/222/118 110/187/105
f 126/223/121 117/224/112 114/195/109
f 123/213/118 126/221/121 125/220/120
f 127/225/122 128/226/123 129/227/124
f 127/228/122 130/229/125 131/230/126
f 127/228/122 132/231/127 133/232/128
f 134/233/129 135/234/130 136/235/131
f 134/236/129 137/237/132 129/227/124
f 135/238/130 134/233/129 128/226/123
f 138/239/133 132/240/127 131/230/126
f 138/241/133 139/242/134 140/243/135
f 138/244/133 141/245/136 133/232/128
f 142/246/137 141/247/136 140/243/135
f 142/248/137 143/249/138 136/235/131
f 141/245/136 142/250/137 135/238/130
f 144/251/139 130/252/125 129/227/124
f 144/253/139 145/254/140 146/255/141
f 144/256/139 147/257/142 131/230/126
f 148/258/143 137/259/132 136/235/131
f 145/254/140 148/260/143 149/261/144
f 148/262/143 145/263/140 129/227/124
f 150/264/145 139/265/134 131/230/126
f 150/264/145 147/266/142 146/255/141
f 150/267/145 151/268/146 140/243/135
f 152/269/147 149/270/144 136/235/131
f 152/271/147 143/272/138 140/243/135
f 149/261/144 152/269/147 151/268/146
f 49/81/44 51/83/46 52/108/47
f 49/84/44 53/86/48 54/95/49
f 49/84/44 55/88/50 50/82/45
f 56/89/51 58/91/53 59/115/54
f 56/92/51 51/83/46 50/82/45
f 56/89/51 55/88/50 57/106/52
f 60/94/55 53/86/48 61/121/56
f 60/96/55 62/98/57 63/102/58
f 60/99/55 55/88/50 54/87/49
f 64/101/59 62/98/57 65/128/60
f 64/103/59 58/91/53 57/90/52
f 63/100/58 57/106/52 55/88/50
f 66/107/61 51/83/46 67/119/62
f 66/109/61 68/111/63 69/122/64
f 66/112/61 53/86/48 52/85/47
f 70/114/65 58/91/53 71/126/66
f 70/116/65 68/111/63 67/110/62
f 70/118/65 51/83/46 59/93/54
f 72/120/67 53/86/48 69/113/64
f 72/120/67 68/111/63 73/124/68
f 72/123/67 62/98/57 61/97/56
f 74/125/69 58/91/53 65/104/60
f 74/127/69 62/98/57 73/124/68
f 71/117/66 73/124/68 68/111/63
f 75/129/70 77/131/72 78/156/73
f 75/132/70 79/134/74 80/144/75
f 75/132/70 81/136/76 76/130/71
f 82/137/77 84/139/79 85/163/80
f 82/140/77 77/131/72 76/130/71
f 83/142/78 76/130/71 81/136/76
f 86/143/81 79/134/74 87/169/82
f 86/145/81 88/147/83 89/151/84
f 86/148/81 81/136/76 80/135/75
f 90/150/85 88/147/83 91/176/86
f 90/152/85 84/139/79 83/138/78
f 90/154/85 81/136/76 89/149/84
f 92/155/87 77/131/72 93/167/88
f 92/157/87 94/159/89 95/170/90
f 92/160/87 79/134/74 78/133/73
f 96/162/91 84/139/79 97/174/92
f 93/158/88 97/165/92 94/159/89
f 96/166/91 77/131/72 85/141/80
f 98/168/93 79/134/74 95/161/90
f 98/168/93 94/159/89 99/172/94
f 98/171/93 88/147/83 87/146/82
f 100/173/95 84/139/79 91/153/86
f 100/175/95 88/147/83 99/172/94
f 100/173/95 94/159/89 97/165/92
f 101/177/96 103/179/98 104/204/99
f 101/180/96 105/182/100 106/192/101
f 101/180/96 107/184/102 102/178/97
f 108/185/103 110/187/105 111/211/106
f 108/188/103 103/179/98 102/178/97
f 109/190/104 102/178/97 107/184/102
f 112/191/107 105/182/100 113/217/108
f 112/193/107 114/195/109 115/199/110
f 112/196/107 107/184/102 106/183/101
f 116/198/111 114/195/109 117/224/112
f 116/200/111 110/187/105 109/186/104
f 115/197/110 109/190/104 107/184/102
f 118/203/113 103/179/98 119/215/114
f 118/205/113 120/207/115 121/218/116
f 118/208/113 105/182/100 104/181/99
f 122/210/117 110/187/105 123/222/118
f 119/206/114 123/213/118 120/207/115
f 122/214/117 103/179/98 111/189/106
f 124/216/119 105/182/100 121/209/116
f 124/216/119 120/207/115 125/220/120
f 124/219/119 114/195/109 113/194/108
f 126/221/121 110/187/105 117/201/112
f 126/223/121 114/195/109 125/220/120
f 123/213/118 125/220/120 120/207/115
f 127/225/122 129/227/124 130/252/125
f 127/228/122 131/230/126 132/240/127
f 127/228/122 133/232/128 128/226/123
f 134/233/129 136/235/131 137/259/132
f 134/236/129 129/227/124 128/226/123
f 135/238/130 128/226/123 133/232/128
f 138/239/133 131/230/126 139/265/134
f 138/241/133 140/243/135 141/247/136
f 138/244/133 133/232/128 132/231/127
f 142/246/137 140/243/135 143/272/138
f 142/248/137 136/235/131 135/234/130
f 141/245/136 135/238/130 133/232/128
f 144/251/139 129/227/124 145/263/140
f 144/253/139 146/255/141 147/266/142
f 144/256/139 131/230/126 130/229/125
f 148/258/143 136/235/131 149/270/144
f 145/254/140 149/261/144 146/255/141
f 148/262/143 129/227/124 137/237/132
f 150/264/145 131/230/126 147/257/142
f 150/264/145 146/255/141 151/268/146
f 150/267/145 140/243/135 139/242/134
f 152/269/147 136/235/131 143/249/138
f 152/271/147 140/243/135 151/268/146
f 149/261/144 151/268/146 146/255/141
f 23/33/18 25/35/20 26/60/21
f 23/36/18 27/38/22 28/47/23
f 23/36/18 29/40/24 24/34/19
f 30/41/25 32/43/27 33/67/28
f 30/44/25 25/35/20 24/34/19
f 30/41/25 29/40/24 31/58/26
f 34/46/29 27/38/22 35/73/30
f 34/48/29 36/50/31 37/54/32
f 34/51/29 29/40/24 28/39/23
f 38/53/33 36/50/31 39/80/34
f 38/55/33 32/43/27 31/42/26
f 38/57/33 29/40/24 37/52/32
f 40/59/35 25/35/20 41/71/36
f 40/61/35 42/63/37 43/74/38
f 40/64/35 27/38/22 26/37/21
f 44/66/39 32/43/27 45/78/40
f 44/68/39 42/63/37 41/62/36
f 44/70/39 25/35/20 33/45/28
f 46/72/41 27/38/22 43/65/38
f 46/72/41 42/63/37 47/76/42
f 46/75/41 36/50/31 35/49/30
f 48/77/43 32/43/27 39/56/34
f 48/79/43 36/50/31 47/76/42
f 48/77/43 42/63/37 45/69/40
f 514/273/148 515/274/149 513/275/150
f 516/276/151 515/274/149 514/273/148
f 517/277/152 515/274/149 516/276/151
f 515/274/149 512/278/153 513/275/150
f 514/279/148 518/280/154 519/281/155
f 518/280/154 514/279/148 513/282/150
f 516/283/151 519/281/155 520/284/156
f 519/281/155 516/283/151 514/279/148
f 517/285/152 520/286/156 521/287/157
f 520/286/156 517/285/152 516/288/151
f 515/289/149 521/287/157 522/290/158
f 521/287/157 515/289/149 517/285/152
f 512/291/153 522/292/158 384/293/159
f 522/292/158 512/291/153 515/294/149
f 524/295/160 523/296/161 511/297/162
f 524/295/160 525/298/163 523/296/161
f 524/295/160 526/299/164 525/298/163
f 524/295/160 527/300/165 526/299/164
f 529/301/166 528/302/167 525/303/163
f 523/304/161 525/303/163 528/302/167
f 530/305/168 529/301/166 526/306/164
f 525/303/163 526/306/164 529/301/166
f 531/307/169 530/308/168 527/309/165
f 526/310/164 527/309/165 530/308/168
f 532/311/170 531/307/169 524/312/160
f 527/309/165 524/312/160 531/307/169
f 318/313/171 532/314/170 511/315/162
f 524/316/160 511/315/162 532/314/170
f 533/317/172 535/318/173 534/319/174
f 534/319/174 535/318/173 536/320/175
f 530/308/168 531/307/169 520/286/156
f 520/286/156 531/307/169 521/287/157
f 519/281/155 530/305/168 520/284/156
f 530/305/168 519/281/155 529/301/166
f 528/302/167 519/281/155 518/280/154
f 519/281/155 528/302/167 529/301/166
f 532/314/170 318/313/171 522/292/158
f 522/292/158 318/313/171 384/293/159
f 534/319/174 536/320/175 521/287/157
f 522/290/158 521/287/157 536/320/175
f 535/318/173 531/307/169 532/311/170
f 531/307/169 535/318/173 533/317/172
f 533/317/172 521/287/157 531/307/169
f 521/287/157 533/317/172 534/319/174
usemtl _eva.png.004
f 153/321/176 154/322/177 155/323/178
f 156/324/179 153/321/176 155/323/178
f 156/325/179 155/326/178 157/327/180
f 157/327/180 158/328/180 156/325/179
f 154/329/177 153/330/176 159/331/181
f 159/331/181 160/332/181 154/329/177
f 161/333/176 162/334/177 163/335/178
f 164/336/179 161/333/176 163/335/178
f 164/337/179 163/338/178 165/339/180
f 165/339/180 166/340/180 164/337/179
f 162/341/177 161/342/176 167/343/181
f 167/343/181 168/344/181 162/341/177
f 169/345/182 170/346/183 171/347/184
f 172/348/185 169/345/182 171/347/184
f 172/349/185 171/350/184 173/351/180
f 173/351/180 174/352/180 172/349/185
f 170/353/183 169/354/182 175/355/181
f 175/355/181 176/356/181 170/353/183
f 177/357/182 178/358/183 179/359/184
f 180/360/185 177/357/182 179/359/184
f 180/361/185 179/362/184 181/363/180
f 181/363/180 182/364/180 180/361/185
f 178/365/183 177/366/182 183/367/181
f 183/367/181 184/368/181 178/365/183
f 185/369/186 186/370/187 187/371/188
f 188/372/189 185/369/186 187/371/188
f 189/373/190 185/369/186 188/372/189
f 188/372/189 190/374/191 189/373/190
f 191/375/192 189/373/190 190/374/191
f 190/374/191 192/376/193 191/375/192
f 193/377/194 191/375/192 192/376/193
f 192/376/193 194/378/195 193/377/194
f 195/379/196 196/380/197 197/381/198
f 197/381/198 198/382/199 195/379/196
f 199/383/200 200/384/201 196/380/197
f 196/380/197 195/379/196 199/383/200
f 201/385/202 202/386/203 200/384/201
f 200/384/201 199/383/200 201/385/202
f 203/387/204 204/388/205 202/386/203
f 202/386/203 201/385/202 203/387/204
f 196/389/197 188/390/189 187/391/188
f 187/391/188 197/392/198 196/389/197
f 200/393/201 190/394/191 188/390/189
f 188/390/189 196/389/197 200/393/201
f 202/395/203 192/396/193 190/394/191
f 190/394/191 200/393/201 202/395/203
f 204/397/205 194/398/195 192/396/193
f 192/396/193 202/395/203 204/397/205
f 203/387/204 193/399/194 194/400/195
f 194/400/195 204/388/205 203/387/204
f 201/401/202 191/402/192 193/403/194
f 193/403/194 203/404/204 201/401/202
f 199/405/200 189/406/190 191/402/192
f 191/402/192 201/401/202 199/405/200
f 195/407/196 185/408/186 189/406/190
f 189/406/190 199/405/200 195/407/196
f 186/409/187 185/408/186 198/410/199
f 185/408/186 195/407/196 198/410/199
f 205/411/206 206/412/207 207/413/208
f 208/414/209 205/411/206 207/413/208
f 208/414/209 207/413/208 209/415/210
f 209/415/210 210/416/211 208/414/209
f 210/416/211 209/415/210 211/417/212
f 211/417/212 212/418/213 210/416/211
f 212/418/213 211/417/212 213/419/214
f 213/419/214 214/420/215 212/418/213
f 215/421/216 216/422/217 217/423/218
f 217/423/218 218/424/219 215/421/216
f 216/422/217 219/425/220 220/426/221
f 220/426/221 217/423/218 216/422/217
f 219/425/220 221/427/222 222/428/223
f 222/428/223 220/426/221 219/425/220
f 221/427/222 223/429/224 224/430/225
f 224/430/225 222/428/223 221/427/222
f 205/431/206 208/432/209 216/433/217
f 215/434/216 205/431/206 216/433/217
f 208/432/209 210/435/211 219/436/220
f 219/436/220 216/433/217 208/432/209
f 210/435/211 212/437/213 221/438/222
f 221/438/222 219/436/220 210/435/211
f 212/437/213 214/439/215 223/440/224
f 223/440/224 221/438/222 212/437/213
f 214/441/215 213/442/214 224/430/225
f 224/430/225 223/429/224 214/441/215
f 213/443/214 211/444/212 222/445/223
f 222/445/223 224/446/225 213/443/214
f 211/444/212 209/447/210 220/448/221
f 220/448/221 222/445/223 211/444/212
f 209/447/210 207/449/208 217/450/218
f 217/450/218 220/448/221 209/447/210
f 207/449/208 206/451/207 218/452/219
f 218/452/219 217/450/218 207/449/208
f 225/453/226 226/454/227 227/455/228
f 225/453/226 228/456/229 226/454/227
f 225/453/226 229/457/230 228/456/229
f 225/453/226 230/458/231 229/457/230
f 225/453/226 231/459/232 230/458/231
f 225/453/226 232/460/233 231/459/232
f 225/453/226 233/461/234 232/460/233
f 225/453/226 227/455/228 233/461/234
f 227/455/228 234/462/235 235/463/236
f 227/455/228 226/454/227 234/462/235
f 226/454/227 236/464/237 234/462/235
f 226/454/227 228/456/229 236/464/237
f 228/456/229 237/465/238 236/464/237
f 228/456/229 229/457/230 237/465/238
f 229/457/230 238/466/239 237/465/238
f 229/457/230 230/458/231 238/466/239
f 230/458/231 239/467/240 238/466/239
f 230/458/231 231/459/232 239/467/240
f 231/459/232 240/468/241 239/467/240
f 231/459/232 232/460/233 240/468/241
f 232/460/233 241/469/242 240/468/241
f 232/460/233 233/461/234 241/469/242
f 233/461/234 235/463/236 241/469/242
f 233/461/234 227/455/228 235/463/236
f 235/463/236 242/470/243 243/471/244
f 235/463/236 234/462/235 242/470/243
f 234/462/235 244/472/245 242/470/243
f 234/462/235 236/464/237 244/472/245
f 236/464/237 245/473/246 244/472/245
f 236/464/237 237/465/238 245/473/246
f 237/465/238 246/474/247 245/473/246
f 237/465/238 238/466/239 246/474/247
f 238/466/239 247/475/248 246/474/247
f 238/466/239 239/467/240 247/475/248
f 239/467/240 248/476/249 247/475/248
f 239/467/240 240/468/241 248/476/249
f 240/468/241 249/477/250 248/476/249
f 240/468/241 241/469/242 249/477/250
f 241/469/242 243/471/244 249/477/250
f 241/469/242 235/463/236 243/471/244
f 243/471/244 250/478/251 251/479/252
f 243/471/244 242/470/243 250/478/251
f 242/470/243 252/480/253 250/478/251
f 242/470/243 244/472/245 252/480/253
f 244/472/245 253/481/254 252/480/253
f 244/472/245 245/473/246 253/481/254
f 245/473/246 254/482/255 253/481/254
f 245/473/246 246/474/247 254/482/255
f 246/474/247 255/483/256 254/482/255
f 246/474/247 247/475/248 255/483/256
f 247/475/248 256/484/257 255/483/256
f 247/475/248 248/476/249 256/484/257
f 248/476/249 257/485/258 256/484/257
f 248/476/249 249/477/250 257/485/258
f 249/477/250 251/479/252 257/485/258
f 249/477/250 243/471/244 251/479/252
f 258/486/259 251/479/252 250/478/251
f 258/486/259 250/478/251 252/480/253
f 258/486/259 252/480/253 253/481/254
f 258/486/259 253/481/254 254/482/255
f 258/486/259 254/482/255 255/483/256
f 258/486/259 255/483/256 256/484/257
f 258/486/259 256/484/257 257/485/258
f 258/486/259 257/485/258 251/479/252
f 259/487/260 260/488/261 261/489/262
f 260/488/261 259/487/260 262/490/263
f 259/487/260 261/489/262 263/491/264
f 264/492/265 259/487/260 263/491/264
f 264/492/265 263/491/264 265/493/266
f 265/493/266 266/494/267 264/492/265
f 267/495/268 268/496/269 269/497/270
f 268/496/269 267/495/268 270/498/271
f 268/499/269 271/500/272 272/501/273
f 272/501/273 269/502/270 268/499/269
f 271/500/272 273/503/274 274/504/275
f 274/504/275 272/501/273 271/500/272
f 262/505/263 259/506/260 268/507/269
f 268/507/269 270/508/271 262/505/263
f 259/509/260 264/510/265 271/500/272
f 268/511/269 259/512/260 271/513/272
f 264/510/265 266/514/267 273/503/274
f 273/515/274 271/516/272 264/517/265
f 265/518/266 263/519/264 272/520/273
f 272/520/273 274/521/275 265/518/266
f 263/522/264 261/523/262 269/502/270
f 269/524/270 272/525/273 263/526/264
f 261/527/262 260/528/261 267/529/268
f 267/530/268 269/502/270 261/523/262
f 275/531/276 276/532/277 277/533/278
f 275/531/276 277/533/278 278/534/279
f 279/535/280 280/536/281 281/537/282
f 282/538/283 279/535/280 8/539/284
f 279/535/280 281/537/282 8/539/284
f 283/540/285 282/538/283 8/539/284
f 284/541/286 285/542/287 286/543/288
f 287/544/289 283/540/285 8/539/284
f 288/545/290 289/546/291 290/547/292
f 291/548/293 292/549/294 288/545/290
f 291/548/293 288/545/290 290/547/292
f 293/550/295 291/548/293 290/547/292
f 293/550/295 290/547/292 294/551/296
f 295/552/297 296/553/298 293/554/295
f 295/552/297 293/554/295 294/555/296
f 297/556/299 290/547/292 298/557/300
f 297/556/299 298/557/300 299/558/301
f 300/559/302 297/556/299 301/560/303
f 302/561/304 300/559/302 301/560/303
f 297/556/299 299/558/301 8/539/284
f 303/562/305 302/561/304 301/560/303
f 299/558/301 304/563/306 8/539/284
f 304/563/306 284/541/286 8/539/284
f 301/560/303 297/556/299 8/539/284
f 8/539/284 284/541/286 286/543/288
f 286/564/288 305/565/307 306/566/308
f 8/539/284 286/543/288 306/567/308
f 287/544/289 8/539/284 306/567/308
f 276/568/277 307/569/309 308/570/310
f 308/571/310 277/572/278 276/573/277
f 275/574/276 309/575/311 307/569/309
f 276/568/277 275/574/276 307/569/309
f 277/533/278 308/576/310 310/577/312
f 310/577/312 278/534/279 277/533/278
f 311/578/313 312/579/314 313/580/315
f 314/581/316 281/582/282 280/583/281
f 279/584/280 315/585/317 316/586/318
f 282/587/283 317/588/319 315/585/317
f 315/585/317 279/584/280 282/587/283
f 281/582/282 313/580/315 1/589/320
f 1/589/320 8/590/284 281/582/282
f 283/591/285 319/592/321 317/588/319
f 317/588/319 282/587/283 283/591/285
f 285/593/287 320/594/322 321/595/323
f 321/595/323 286/564/288 285/593/287
f 284/596/286 322/597/324 320/594/322
f 320/594/322 285/593/287 284/596/286
f 287/598/289 323/599/325 319/592/321
f 319/592/321 283/591/285 287/598/289
f 289/600/291 324/601/326 325/602/327
f 325/602/327 290/603/292 289/600/291
f 288/604/290 326/605/328 324/601/326
f 324/601/326 289/600/291 288/604/290
f 292/606/294 327/607/329 326/605/328
f 326/605/328 288/604/290 292/606/294
f 291/608/293 328/609/330 327/610/329
f 327/610/329 292/611/294 291/608/293
f 293/554/295 329/612/331 328/609/330
f 328/609/330 291/608/293 293/554/295
f 296/553/298 330/613/332 329/612/331
f 329/612/331 293/554/295 296/553/298
f 297/614/299 331/615/333 330/616/332
f 330/616/332 296/617/298 295/618/297
f 330/616/332 295/618/297 297/614/299
f 290/603/292 325/602/327 332/619/334
f 332/619/334 298/620/300 290/603/292
f 298/620/300 332/619/334 333/621/335
f 333/621/335 299/622/301 298/620/300
f 300/623/302 334/624/336 331/625/333
f 331/625/333 297/626/299 300/623/302
f 302/627/304 335/628/337 334/624/336
f 334/624/336 300/623/302 302/627/304
f 299/622/301 333/621/335 336/629/338
f 336/629/338 304/630/306 299/622/301
f 303/631/305 337/632/339 335/633/337
f 335/633/337 302/634/304 303/631/305
f 304/630/306 336/629/338 322/597/324
f 322/597/324 284/596/286 304/630/306
f 301/635/303 338/636/340 337/632/339
f 337/632/339 303/631/305 301/635/303
f 8/637/284 1/638/341 338/639/340
f 338/639/340 301/640/303 8/637/284
f 305/565/307 339/641/342 340/642/343
f 340/642/343 306/566/308 305/565/307
f 286/564/288 321/595/323 339/641/342
f 339/641/342 305/565/307 286/564/288
f 306/566/308 340/642/343 323/599/325
f 323/599/325 287/598/289 306/566/308
f 341/643/344 342/644/345 343/645/346
f 343/645/346 342/644/345 344/646/347
f 345/647/348 344/646/347 346/648/349
f 345/649/348 347/650/350 348/651/351
f 347/650/350 4/652/352 348/651/351
f 347/650/350 349/653/353 4/652/352
f 349/653/353 350/654/354 4/652/352
f 351/655/355 352/656/356 353/657/357
f 350/654/354 354/658/358 4/652/352
f 355/659/359 356/660/360 357/661/361
f 358/662/362 359/663/363 356/660/360
f 356/660/360 359/663/363 357/661/361
f 359/663/363 360/664/364 361/665/365
f 359/663/363 361/665/365 357/661/361
f 297/556/299 295/666/297 294/551/296
f 297/556/299 294/551/296 290/547/292
f 362/667/366 363/668/367 361/669/365
f 362/667/366 361/669/365 360/670/364
f 357/661/361 364/671/368 365/672/369
f 365/672/369 364/671/368 366/673/370
f 364/671/368 4/652/352 366/673/370
f 4/652/352 367/674/371 366/673/370
f 368/675/372 4/652/352 364/671/368
f 368/675/372 364/671/368 369/676/373
f 4/652/352 353/657/357 352/656/356
f 367/674/371 4/652/352 352/656/356
f 368/675/372 369/676/373 370/677/374
f 368/675/372 370/677/374 371/678/375
f 372/679/376 353/680/357 373/681/377
f 353/657/357 4/652/352 373/682/377
f 4/652/352 354/658/358 373/682/377
f 374/683/378 341/684/344 375/685/379
f 343/686/346 375/687/379 341/688/344
f 376/689/380 342/690/345 374/683/378
f 341/684/344 374/683/378 342/690/345
f 375/691/379 343/645/346 377/692/381
f 344/646/347 377/692/381 343/645/346
f 378/693/382 379/694/383 380/695/384
f 379/694/383 378/693/382 345/696/348
f 381/697/317 347/698/350 382/699/318
f 383/700/319 349/701/353 381/697/317
f 347/698/350 381/697/317 349/701/353
f 380/695/384 348/702/351 2/703/385
f 4/704/352 2/703/385 348/702/351
f 385/705/321 350/706/354 383/700/319
f 349/701/353 383/700/319 350/706/354
f 386/707/386 351/708/355 387/709/387
f 353/680/357 387/709/387 351/708/355
f 388/710/324 352/711/356 386/707/386
f 351/708/355 386/707/386 352/711/356
f 389/712/325 354/713/358 385/705/321
f 350/706/354 385/705/321 354/713/358
f 390/714/326 355/715/359 391/716/327
f 357/717/361 391/716/327 355/715/359
f 392/718/388 356/719/360 390/714/326
f 355/715/359 390/714/326 356/719/360
f 393/720/389 358/721/362 392/718/388
f 356/719/360 392/718/388 358/721/362
f 394/722/390 359/723/363 393/724/389
f 358/725/362 393/724/389 359/723/363
f 395/726/391 360/670/364 394/722/390
f 359/723/363 394/722/390 360/670/364
f 396/727/392 362/667/366 395/726/391
f 360/670/364 395/726/391 362/667/366
f 397/728/393 364/729/368 396/730/392
f 362/731/366 396/730/392 364/729/368
f 362/731/366 364/729/368 363/732/367
f 391/716/327 357/717/361 398/733/334
f 365/734/369 398/733/334 357/717/361
f 398/733/334 365/734/369 399/735/335
f 366/736/370 399/735/335 365/734/369
f 400/737/394 369/738/373 397/739/393
f 364/740/368 397/739/393 369/738/373
f 401/741/395 370/742/374 400/737/394
f 369/738/373 400/737/394 370/742/374
f 399/735/335 366/736/370 402/743/338
f 367/744/371 402/743/338 366/736/370
f 403/745/396 371/746/375 401/747/395
f 370/748/374 401/747/395 371/746/375
f 402/743/338 367/744/371 388/710/324
f 352/711/356 388/710/324 367/744/371
f 404/749/397 368/750/372 403/745/396
f 371/746/375 403/745/396 368/750/372
f 2/751/398 4/752/352 404/753/397
f 368/754/372 404/753/397 4/752/352
f 405/755/399 372/679/376 406/756/400
f 373/681/377 406/756/400 372/679/376
f 387/709/387 353/680/357 405/755/399
f 372/679/376 405/755/399 353/680/357
f 406/756/400 373/681/377 389/712/325
f 354/713/358 389/712/325 373/681/377
f 407/757/401 408/758/402 409/759/403
f 408/758/402 410/760/404 409/759/403
f 401/747/395 335/633/337 403/745/396
f 335/633/337 337/632/339 403/745/396
f 334/624/336 335/628/337 401/741/395
f 401/741/395 400/737/394 334/624/336
f 397/739/393 331/625/333 334/624/336
f 334/624/336 400/737/394 397/739/393
f 330/616/332 331/615/333 397/728/393
f 397/728/393 396/730/392 330/616/332
f 396/727/392 395/726/391 330/613/332
f 329/612/331 330/613/332 395/726/391
f 395/726/391 394/722/390 329/612/331
f 394/722/390 328/609/330 329/612/331
f 393/724/389 328/609/330 394/722/390
f 327/610/329 328/609/330 393/724/389
f 393/720/389 326/605/328 327/607/329
f 392/718/388 326/605/328 393/720/389
f 324/601/326 326/605/328 392/718/388
f 392/718/388 390/714/326 324/601/326
f 391/716/327 324/601/326 390/714/326
f 325/602/327 324/601/326 391/716/327
f 391/716/327 398/733/334 325/602/327
f 398/733/334 332/619/334 325/602/327
f 332/619/334 398/733/334 333/621/335
f 398/733/334 399/735/335 333/621/335
f 333/621/335 399/735/335 336/629/338
f 399/735/335 402/743/338 336/629/338
f 336/629/338 402/743/338 322/597/324
f 402/743/338 388/710/324 322/597/324
f 322/597/324 388/710/324 320/594/322
f 388/710/324 386/707/386 320/594/322
f 320/594/322 386/707/386 321/595/323
f 386/707/386 387/709/387 321/595/323
f 387/709/387 405/755/399 321/595/323
f 405/755/399 339/641/342 321/595/323
f 339/641/342 405/755/399 406/756/400
f 406/756/400 340/642/343 339/641/342
f 389/712/325 323/599/325 406/756/400
f 323/599/325 340/642/343 406/756/400
f 389/712/325 319/592/321 323/599/325
f 385/705/321 319/592/321 389/712/325
f 383/700/319 317/588/319 385/705/321
f 317/588/319 319/592/321 385/705/321
f 381/697/317 315/585/317 383/700/319
f 315/585/317 317/588/319 383/700/319
f 381/697/317 316/586/318 315/585/317
f 382/699/318 316/586/318 381/697/317
f 309/575/311 316/586/318 376/689/380
f 376/689/380 316/586/318 382/699/318
f 307/569/309 309/575/311 374/683/378
f 309/575/311 376/689/380 374/683/378
f 308/570/310 307/569/309 375/685/379
f 375/685/379 307/569/309 374/683/378
f 375/691/379 377/692/381 308/576/310
f 377/692/381 310/577/312 308/576/310
f 377/692/381 411/761/405 310/577/312
f 411/761/405 412/762/406 310/577/312
f 413/763/407 312/579/314 378/693/382
f 312/579/314 412/764/406 411/765/405
f 2/703/385 1/589/320 380/695/384
f 1/589/320 313/580/315 380/695/384
f 404/753/397 338/639/340 2/751/398
f 338/639/340 1/638/341 2/751/398
f 346/766/349 382/699/318 347/698/350
f 342/690/345 376/689/380 346/766/349
f 382/699/318 346/766/349 376/689/380
f 346/767/349 347/650/350 345/649/348
f 313/580/315 281/582/282 314/581/316
f 313/580/315 314/581/316 311/578/313
f 280/583/281 412/764/406 311/578/313
f 280/583/281 311/578/313 314/581/316
f 311/578/313 412/764/406 312/579/314
f 313/580/315 312/579/314 413/763/407
f 380/695/384 313/580/315 413/763/407
f 380/695/384 413/763/407 378/693/382
f 411/765/405 345/696/348 378/693/382
f 411/765/405 378/693/382 312/579/314
f 348/702/351 380/695/384 379/694/383
f 348/702/351 379/694/383 345/696/348
f 408/758/402 337/632/339 410/760/404
f 338/636/340 410/760/404 337/632/339
f 409/759/403 404/749/397 403/745/396
f 403/745/396 407/757/401 409/759/403
f 407/757/401 403/745/396 337/632/339
f 337/632/339 408/758/402 407/757/401
f 410/768/404 338/769/340 404/770/397
f 404/770/397 409/771/403 410/768/404
f 414/772/408 275/531/276 280/773/281
f 316/586/318 414/774/408 279/584/280
f 309/575/311 275/574/276 414/774/408
f 414/774/408 316/586/318 309/575/311
f 414/775/408 280/536/281 279/535/280
f 377/692/381 345/647/348 411/761/405
f 377/692/381 344/646/347 345/647/348
f 344/646/347 342/644/345 346/648/349
f 280/773/281 278/534/279 412/762/406
f 278/534/279 310/577/312 412/762/406
f 280/773/281 275/531/276 278/534/279
f 415/776/409 416/777/410 417/778/411
f 415/776/409 418/779/412 416/777/410
f 418/780/412 419/781/413 416/782/410
f 418/780/412 420/783/414 419/781/413
f 420/784/414 421/785/415 419/786/413
f 420/784/414 422/787/416 421/785/415
f 422/787/416 423/788/417 421/785/415
f 422/787/416 424/789/418 423/788/417
f 424/790/418 425/791/419 423/792/417
f 424/790/418 426/793/420 425/791/419
f 426/794/420 417/778/411 425/795/419
f 426/794/420 415/776/409 417/778/411
f 417/778/411 427/796/421 428/797/422
f 417/778/411 416/777/410 427/796/421
f 416/782/410 429/798/423 427/799/421
f 416/782/410 419/781/413 429/798/423
f 419/786/413 430/800/424 429/801/423
f 419/786/413 421/785/415 430/800/424
f 421/785/415 431/802/425 430/800/424
f 421/785/415 423/788/417 431/802/425
f 423/792/417 432/803/426 431/804/425
f 423/792/417 425/791/419 432/803/426
f 425/795/419 428/797/422 432/805/426
f 425/795/419 417/778/411 428/797/422
f 428/797/422 433/806/427 434/807/428
f 428/797/422 427/796/421 433/806/427
f 427/799/421 435/808/429 433/809/427
f 427/799/421 429/798/423 435/808/429
f 429/801/423 436/810/430 435/811/429
f 429/801/423 430/800/424 436/810/430
f 430/800/424 437/812/431 436/810/430
f 430/800/424 431/802/425 437/812/431
f 431/804/425 438/813/432 437/814/431
f 431/804/425 432/803/426 438/813/432
f 432/805/426 434/807/428 438/815/432
f 432/805/426 428/797/422 434/807/428
f 439/816/226 440/817/433 441/818/434
f 439/816/226 442/819/435 440/817/433
f 442/819/435 443/820/436 440/817/433
f 442/819/435 444/821/437 443/820/436
f 444/821/437 445/822/438 443/820/436
f 444/821/437 446/823/259 445/822/438
f 446/824/259 447/825/439 445/826/438
f 446/824/259 448/827/440 447/825/439
f 448/827/440 449/828/441 447/825/439
f 448/827/440 450/829/442 449/828/441
f 450/829/442 441/830/434 449/828/441
f 450/829/442 439/831/226 441/830/434
f 441/832/434 451/833/443 452/834/444
f 441/832/434 440/835/433 451/833/443
f 440/835/433 453/836/445 451/833/443
f 440/835/433 443/837/436 453/836/445
f 443/837/436 454/838/446 453/836/445
f 443/837/436 445/839/438 454/838/446
f 445/839/438 455/840/447 454/838/446
f 445/839/438 447/841/439 455/840/447
f 447/841/439 456/842/448 455/840/447
f 447/841/439 449/843/441 456/842/448
f 449/843/441 452/834/444 456/842/448
f 449/843/441 441/832/434 452/834/444
f 452/844/444 457/845/449 458/846/450
f 452/844/444 451/847/443 457/845/449
f 451/847/443 459/848/451 457/845/449
f 451/847/443 453/849/445 459/848/451
f 453/849/445 460/850/452 459/848/451
f 453/849/445 454/851/446 460/850/452
f 454/852/446 461/853/453 460/854/452
f 454/852/446 455/855/447 461/853/453
f 455/855/447 462/856/454 461/853/453
f 455/855/447 456/857/448 462/856/454
f 456/857/448 458/858/450 462/856/454
f 456/857/448 452/859/444 458/858/450
f 458/860/450 463/861/455 464/862/456
f 458/860/450 457/863/449 463/861/455
f 457/863/449 465/864/457 463/861/455
f 457/863/449 459/865/451 465/864/457
f 459/865/451 466/866/458 465/864/457
f 459/865/451 460/867/452 466/866/458
f 460/867/452 467/868/459 466/866/458
f 460/867/452 461/869/453 467/868/459
f 461/869/453 468/870/460 467/868/459
f 461/869/453 462/871/454 468/870/460
f 462/871/454 464/862/456 468/870/460
f 462/871/454 458/860/450 464/862/456
f 464/872/456 469/873/435 470/874/226
f 464/872/456 463/875/455 469/873/435
f 463/875/455 471/876/437 469/873/435
f 463/875/455 465/877/457 471/876/437
f 465/877/457 472/878/259 471/876/437
f 465/877/457 466/879/458 472/878/259
f 466/880/458 473/881/440 472/882/259
f 466/880/458 467/883/459 473/881/440
f 467/883/459 474/884/442 473/881/440
f 467/883/459 468/885/460 474/884/442
f 468/885/460 470/886/226 474/884/442
f 468/885/460 464/887/456 470/886/226
f 475/888/226 476/889/433 477/890/434
f 475/888/226 478/891/435 476/889/433
f 478/891/435 479/892/436 476/889/433
f 478/891/435 480/893/437 479/892/436
f 480/893/437 481/894/438 479/892/436
f 480/893/437 482/895/259 481/894/438
f 482/896/259 483/897/439 481/898/438
f 482/896/259 484/899/440 483/897/439
f 484/899/440 485/900/441 483/897/439
f 484/899/440 486/901/442 485/900/441
f 486/901/442 477/902/434 485/900/441
f 486/901/442 475/903/226 477/902/434
f 477/904/434 487/905/443 488/906/444
f 477/904/434 476/907/433 487/905/443
f 476/907/433 489/908/445 487/905/443
f 476/907/433 479/909/436 489/908/445
f 479/909/436 490/910/446 489/908/445
f 479/909/436 481/911/438 490/910/446
f 481/911/438 491/912/447 490/910/446
f 481/911/438 483/913/439 491/912/447
f 483/913/439 492/914/448 491/912/447
f 483/913/439 485/915/441 492/914/448
f 485/915/441 488/906/444 492/914/448
f 485/915/441 477/904/434 488/906/444
f 488/916/444 493/917/449 494/918/450
f 488/916/444 487/919/443 493/917/449
f 487/919/443 495/920/451 493/917/449
f 487/919/443 489/921/445 495/920/451
f 489/921/445 496/922/452 495/920/451
f 489/921/445 490/923/446 496/922/452
f 490/924/446 497/925/453 496/926/452
f 490/924/446 491/927/447 497/925/453
f 491/927/447 498/928/454 497/925/453
f 491/927/447 492/929/448 498/928/454
f 492/929/448 494/930/450 498/928/454
f 492/929/448 488/931/444 494/930/450
f 494/932/450 499/933/455 500/934/456
f 494/932/450 493/935/449 499/933/455
f 493/935/449 501/936/457 499/933/455
f 493/935/449 495/937/451 501/936/457
f 495/937/451 502/938/458 501/936/457
f 495/937/451 496/939/452 502/938/458
f 496/939/452 503/940/459 502/938/458
f 496/939/452 497/941/453 503/940/459
f 497/941/453 504/942/460 503/940/459
f 497/941/453 498/943/454 504/942/460
f 498/943/454 500/934/456 504/942/460
f 498/943/454 494/932/450 500/934/456
f 500/944/456 505/945/435 506/946/226
f 500/944/456 499/947/455 505/945/435
f 499/947/455 507/948/437 505/945/435
f 499/947/455 501/949/457 507/948/437
f 501/949/457 508/950/259 507/948/437
f 501/949/457 502/951/458 508/950/259
f 502/952/458 509/953/440 508/954/259
f 502/952/458 503/955/459 509/953/440
f 503/955/459 510/956/442 509/953/440
f 503/955/459 504/957/460 510/956/442
f 504/957/460 506/958/226 510/956/442
f 504/957/460 500/959/456 506/958/226
f 363/960/367 364/671/368 357/661/361
f 363/960/367 357/661/361 361/665/365
