# Blender 4.0.2
# www.blender.org
mtllib mega_wheel.mtl
o DrawCall_7
v 0.249670 -0.445033 -0.912052
v -0.249670 -0.444939 -0.912040
v 0.249670 -0.801933 -0.631158
v -0.249670 -0.999895 -0.225257
v 0.249670 -1.000003 0.225262
v 0.249670 -1.000003 -0.225250
v 0.249670 -0.801933 0.631149
v 0.249670 -0.445033 0.912043
v 0.249670 0.801940 -0.631158
v 0.249670 0.801940 0.631149
v 0.360077 0.259867 -0.532382
v 0.360077 0.468204 0.368415
v 0.360077 0.259867 0.532361
v 0.360077 0.000090 0.590892
v 0.230147 0.000090 -0.000012
v 0.360077 -0.583621 -0.131488
v 0.249670 0.445040 -0.912052
v 0.360077 0.468204 -0.368419
v 0.360077 0.583816 -0.131488
v 0.249670 0.999996 -0.225250
v 0.249670 0.999996 0.225262
v 0.360077 0.583816 0.131484
v 0.249670 0.445040 0.912043
v 0.249670 -0.000004 1.012295
v 0.360077 -0.259687 0.532361
v 0.360077 -0.468011 0.368415
v 0.360077 -0.583621 0.131484
v 0.360077 -0.468011 -0.368419
v 0.360077 0.000090 -0.590894
v 0.249670 -0.000004 -1.012285
v 0.360077 -0.259687 -0.532382
v -0.249670 0.999994 -0.225252
v -0.249670 -0.000005 1.012293
v -0.249670 -0.801933 -0.631160
v -0.249670 0.999997 0.225260
v -0.249670 -0.445048 -0.912035
v -0.249670 0.445039 -0.912035
v -0.359923 0.259869 0.532376
v -0.229993 0.000090 -0.000014
v -0.359923 0.583817 -0.131490
v -0.359923 0.259868 -0.532384
v -0.359923 0.000090 -0.590896
v -0.359923 -0.468010 -0.368421
v -0.359923 -0.583621 0.131482
v -0.249670 0.801940 0.631147
v -0.249670 0.445039 0.912041
v -0.359923 0.468206 0.368413
v -0.359923 0.583817 0.131482
v -0.359923 0.468206 -0.368421
v -0.249670 0.801940 -0.631160
v -0.249670 -0.000005 -1.012287
v -0.359923 -0.259685 -0.532384
v -0.359923 -0.583621 -0.131490
v -0.249670 -1.000003 -0.225252
v -0.249670 -0.999989 0.225260
v -0.249670 -0.801933 0.631147
v -0.359923 -0.468010 0.368413
v -0.359923 -0.259685 0.532376
v -0.359923 0.000090 0.590890
v -0.249670 -0.445034 0.912041
vn 0.6697 0.7236 -0.1670
vn -0.6698 0.7235 -0.1669
vn 0.6697 0.7236 0.1670
vn -0.6698 0.7235 0.1669
vn 0.6690 -0.0000 -0.7433
vn -0.0001 -0.4296 -0.9030
vn -0.6691 -0.0000 -0.7431
vn 0.6692 -0.3195 -0.6710
vn -0.6697 -0.5781 -0.4662
vn 0.6695 -0.5782 -0.4663
vn -0.0001 -0.9743 -0.2251
vn 0.6697 -0.7236 -0.1671
vn -0.6699 -0.7234 0.1669
vn 0.6697 -0.7236 0.1669
vn -0.6696 -0.5781 0.4662
vn 0.6694 -0.5782 0.4663
vn -0.6694 -0.3194 0.6708
vn 0.6692 -0.3195 0.6709
vn 0.6692 0.3194 -0.6710
vn -0.6694 0.3194 -0.6708
vn 0.6695 0.5782 -0.4663
vn -0.6696 0.5781 -0.4662
vn -0.6691 -0.0000 0.7431
vn 0.6694 0.5783 0.4663
vn -0.6696 0.5781 0.4663
vn 0.6692 0.3195 0.6709
vn -0.6693 0.3194 0.6709
vn 0.6690 -0.0000 0.7433
vn 0.9987 0.0216 -0.0463
vn 1.0000 -0.0000 -0.0000
vn 0.9987 -0.0000 -0.0511
vn 0.9987 0.0394 -0.0324
vn 0.9987 0.0501 -0.0117
vn 0.9987 0.0500 0.0117
vn 0.9987 0.0396 0.0325
vn 0.9987 0.0216 0.0461
vn 0.9987 -0.0000 0.0511
vn 0.9987 -0.0216 0.0462
vn 0.9987 -0.0395 0.0325
vn 0.9987 -0.0497 0.0117
vn 0.9987 -0.0498 -0.0117
vn 0.9987 -0.0395 -0.0325
vn 0.9987 -0.0215 -0.0461
vn -0.9987 0.0216 0.0461
vn -1.0000 -0.0000 -0.0000
vn -0.9987 -0.0000 0.0507
vn -0.9987 0.0394 0.0324
vn -0.9987 0.0496 0.0117
vn -0.9987 0.0496 -0.0117
vn -0.9987 0.0394 -0.0324
vn -0.9987 0.0214 -0.0460
vn -0.9987 -0.0000 -0.0508
vn -0.9987 -0.0214 -0.0460
vn -0.9987 -0.0394 -0.0323
vn -0.9987 -0.0495 -0.0117
vn -0.9987 -0.0495 0.0117
vn -0.9987 -0.0394 0.0323
vn -0.9987 -0.0215 0.0461
vn -0.9676 -0.1088 -0.2279
vn -0.9682 -0.2437 -0.0561
vt 0.890158 0.371645
vt 0.890158 0.496520
vt 0.807805 0.371645
vt 0.807805 0.496520
vt 0.880232 0.371645
vt 0.958825 0.496520
vt 0.880232 0.496520
vt 0.958825 0.371645
vt 0.833825 0.371645
vt 0.913724 0.496520
vt 0.833825 0.496520
vt 0.913724 0.371645
vt 0.788724 0.371645
vt 0.870305 0.496520
vt 0.788724 0.496520
vt 0.870305 0.371645
vt 0.952658 0.496520
vt 0.952658 0.371645
vt 0.827658 0.371645
vt 0.909239 0.496520
vt 0.827658 0.496520
vt 0.909239 0.371645
vt 0.989138 0.496520
vt 0.989138 0.371645
vt 0.801638 0.371645
vt 0.801638 0.496520
vt 0.926638 0.371645
vt 0.926638 0.496520
vt 0.846739 0.371645
vt 0.846739 0.496520
vt 0.971739 0.371645
vt 0.971739 0.496520
vt 0.864138 0.371645
vt 0.942732 0.496520
vt 0.864138 0.496520
vt 0.932805 0.371645
vt 0.932805 0.496520
vt 0.851224 0.371645
vt 0.851224 0.496520
vt 0.976224 0.371645
vt 0.976224 0.496520
vt 0.896325 0.371645
vt 0.896325 0.496520
vt 0.817732 0.371645
vt 0.817732 0.496520
vt 0.942732 0.371645
vt 0.689711 0.407751
vt 0.624814 0.373652
vt 0.696931 0.375977
vt 0.669486 0.433233
vt 0.640259 0.447374
vt 0.607819 0.447374
vt 0.578591 0.433233
vt 0.558366 0.407751
vt 0.551146 0.375977
vt 0.558366 0.344202
vt 0.578591 0.318720
vt 0.607819 0.304579
vt 0.640259 0.304579
vt 0.669486 0.318720
vt 0.689714 0.344202
vt 0.749875 0.375000
vt 0.737508 0.430575
vt 0.702857 0.475142
vt 0.652788 0.499875
vt 0.597212 0.499875
vt 0.547143 0.475142
vt 0.512493 0.430575
vt 0.500125 0.375000
vt 0.512493 0.319425
vt 0.547143 0.274857
vt 0.597212 0.250125
vt 0.652788 0.250125
vt 0.702857 0.274857
vt 0.737508 0.319425
s 1
usemtl material_8.002
f 20/1/1 32/2/2 21/3/3
f 21/3/3 32/2/2 35/4/4
f 30/5/5 2/6/6 51/7/7
f 1/8/8 2/6/6 30/5/5
f 1/9/8 34/10/9 2/11/6
f 3/12/10 34/10/9 1/9/8
f 3/13/10 4/14/11 34/15/9
f 6/16/12 4/14/11 3/13/10
f 6/16/12 55/17/13 4/14/11
f 5/18/14 55/17/13 6/16/12
f 5/19/14 56/20/15 55/21/13
f 7/22/16 56/20/15 5/19/14
f 7/22/16 60/23/17 56/20/15
f 8/24/18 60/23/17 7/22/16
f 30/5/5 51/7/7 17/25/19
f 17/25/19 51/7/7 37/26/20
f 17/27/19 37/28/20 9/29/21
f 9/29/21 37/28/20 50/30/22
f 9/31/21 50/32/22 20/1/1
f 20/1/1 50/32/22 32/2/2
f 8/33/18 33/34/23 60/35/17
f 21/36/3 35/37/4 10/38/24
f 10/38/24 35/37/4 45/39/25
f 10/40/24 45/41/25 23/42/26
f 23/42/26 45/41/25 46/43/27
f 23/42/26 46/43/27 24/44/28
f 24/44/28 46/43/27 33/45/23
f 24/46/28 33/34/23 8/33/18
usemtl material_13.002
f 11/47/29 15/48/30 29/49/31
f 18/50/32 15/48/30 11/47/29
f 19/51/33 15/48/30 18/50/32
f 22/52/34 15/48/30 19/51/33
f 12/53/35 15/48/30 22/52/34
f 13/54/36 15/48/30 12/53/35
f 14/55/37 15/48/30 13/54/36
f 25/56/38 15/48/30 14/55/37
f 26/57/39 15/48/30 25/56/38
f 27/58/40 15/48/30 26/57/39
f 16/59/41 15/48/30 27/58/40
f 28/60/42 15/48/30 16/59/41
f 31/61/43 15/48/30 28/60/42
f 29/49/31 15/48/30 31/61/43
f 11/47/29 30/62/5 17/63/19
f 30/62/5 11/47/29 29/49/31
f 18/50/32 17/63/19 9/64/21
f 17/63/19 18/50/32 11/47/29
f 19/51/33 9/64/21 20/65/1
f 9/64/21 19/51/33 18/50/32
f 22/52/34 20/65/1 21/66/3
f 20/65/1 22/52/34 19/51/33
f 12/53/35 21/66/3 10/67/24
f 21/66/3 12/53/35 22/52/34
f 13/54/36 10/67/24 23/68/26
f 10/67/24 13/54/36 12/53/35
f 14/55/37 23/68/26 24/69/28
f 23/68/26 14/55/37 13/54/36
f 25/56/38 24/69/28 8/70/18
f 24/69/28 25/56/38 14/55/37
f 26/57/39 8/70/18 7/71/16
f 8/70/18 26/57/39 25/56/38
f 27/58/40 7/71/16 5/72/14
f 7/71/16 27/58/40 26/57/39
f 16/59/41 5/72/14 6/73/12
f 5/72/14 16/59/41 27/58/40
f 28/60/42 6/73/12 3/74/10
f 6/73/12 28/60/42 16/59/41
f 31/61/43 3/74/10 1/75/8
f 3/74/10 31/61/43 28/60/42
f 29/49/31 1/75/8 30/62/5
f 1/75/8 29/49/31 31/61/43
f 38/47/44 39/48/45 59/49/46
f 47/50/47 39/48/45 38/47/44
f 48/51/48 39/48/45 47/50/47
f 40/52/49 39/48/45 48/51/48
f 49/53/50 39/48/45 40/52/49
f 41/54/51 39/48/45 49/53/50
f 42/55/52 39/48/45 41/54/51
f 52/56/53 39/48/45 42/55/52
f 43/57/54 39/48/45 52/56/53
f 53/58/55 39/48/45 43/57/54
f 44/59/56 39/48/45 53/58/55
f 57/60/57 39/48/45 44/59/56
f 58/61/58 39/48/45 57/60/57
f 59/49/46 39/48/45 58/61/58
f 38/47/44 33/62/23 46/63/27
f 33/62/23 38/47/44 59/49/46
f 47/50/47 46/63/27 45/64/25
f 46/63/27 47/50/47 38/47/44
f 48/51/48 45/64/25 35/65/4
f 45/64/25 48/51/48 47/50/47
f 40/52/49 35/65/4 32/66/2
f 35/65/4 40/52/49 48/51/48
f 49/53/50 32/66/2 50/67/22
f 32/66/2 49/53/50 40/52/49
f 41/54/51 50/67/22 37/68/20
f 50/67/22 41/54/51 49/53/50
f 42/55/52 37/68/20 51/69/7
f 37/68/20 42/55/52 41/54/51
f 52/56/53 51/69/7 36/70/59
f 51/69/7 52/56/53 42/55/52
f 43/57/54 36/70/59 34/71/9
f 36/70/59 43/57/54 52/56/53
f 53/58/55 34/71/9 54/72/60
f 34/71/9 53/58/55 43/57/54
f 44/59/56 54/72/60 55/73/13
f 54/72/60 44/59/56 53/58/55
f 57/60/57 55/73/13 56/74/15
f 55/73/13 57/60/57 44/59/56
f 58/61/58 56/74/15 60/75/17
f 56/74/15 58/61/58 57/60/57
f 59/49/46 60/75/17 33/62/23
f 60/75/17 59/49/46 58/61/58
