# Blender v3.0.1 OBJ File: ''
# www.blender.org
mtllib SUV.mtl
o Low_poly_SUV-6.002
v -0.282888 -2.271293 -0.077653
v -0.276122 -2.270552 -0.085873
v -0.104664 -2.270922 -0.090353
v -0.281276 -2.283609 0.014379
v -0.270894 -2.284627 0.024179
v -0.099722 -2.283516 0.018961
v 0.078507 -2.271756 -0.090512
v 0.088532 -2.272867 -0.079412
v 0.089732 -2.282590 0.008643
v 0.078639 -2.283701 0.019316
v 0.182410 2.035996 0.104074
v 0.175471 2.036552 0.095905
v 0.004045 2.039237 0.094552
v 0.182456 2.034977 0.196957
v 0.172189 2.034607 0.206881
v 0.001030 2.035904 0.204598
v -0.179095 2.041830 0.097674
v -0.188977 2.041460 0.109075
v -0.188605 2.038404 0.197602
v -0.177383 2.037848 0.208134
v -0.967770 0.413922 0.623317
v -0.872739 0.434942 0.625192
v -0.903909 0.428645 0.743683
v -0.986555 0.409107 0.748438
v -1.068141 0.391605 0.642241
v -1.073666 0.389198 0.689434
v -1.067026 0.386883 0.739927
v 0.864068 0.434942 0.642658
v 0.959038 0.413922 0.638700
v 0.897713 0.428645 0.760469
v 0.980441 0.409107 0.763492
v 1.059785 0.391605 0.655610
v 1.066297 0.389198 0.702678
v 1.060715 0.386883 0.753299
v 0.834648 -1.882743 -0.212335
v 0.668854 -1.889596 -0.118086
v 0.677626 -1.914412 -0.208931
v 0.817623 -1.930617 -0.069545
v 0.767204 -2.230086 0.032571
v 0.665340 -2.281942 0.032712
v 0.591087 -2.223048 -0.071803
v -0.000708 -2.137300 -0.103018
v 0.042029 -2.312870 0.060631
v -0.656738 -2.277590 0.028128
v -0.604511 -2.219344 -0.078174
v -0.848847 -1.877187 -0.214986
v -0.692057 -1.909875 -0.214035
v -0.681752 -1.885429 -0.123205
v -0.830039 -1.925710 -0.072664
v -0.780094 -2.225826 0.027567
v -0.657133 -2.278145 0.025817
v 0.836771 1.623463 0.291137
v 0.903395 1.495675 0.162366
v 0.891600 1.547161 0.070718
v 0.767229 1.786717 0.220744
v 0.508961 1.871353 -0.096872
v 0.260946 2.015995 0.078249
v 0.773213 1.711804 -0.109918
v 0.846310 1.602813 -0.097997
v 0.409269 1.942285 0.216807
v 0.267438 2.006364 0.220607
v -0.820565 1.627352 0.301547
v -0.878620 1.551976 0.081292
v -0.889422 1.500213 0.172898
v -0.751020 1.790514 0.230716
v -0.747909 1.705044 -0.100194
v -0.835477 1.607906 -0.087887
v 0.011090 1.963676 -0.072859
v 0.008119 2.012105 0.227120
v 0.000132 2.034885 0.065793
v -0.634542 1.710692 0.476474
v -0.250648 2.007568 0.224366
v -0.246120 2.017569 0.081985
v -0.686291 1.765234 0.380800
v -0.392818 1.944230 0.222335
v -0.497584 1.874872 -0.089944
v -0.761127 1.498268 0.521232
v -0.812235 1.522807 0.442590
v -0.727746 1.687820 0.401607
v 0.783282 -2.257773 0.365225
v 0.681078 -2.276293 0.377130
v 0.604914 -2.099890 0.930225
v 0.678411 -2.074610 0.927140
v 0.533322 -1.959323 1.150448
v 0.737179 -2.188694 0.685010
v 0.653938 -2.208047 0.694865
v 0.004510 -1.988029 1.138113
v -0.003714 -2.195916 0.706475
v -0.004945 -2.314444 0.412096
v 0.005327 -1.914042 1.198391
v -0.479983 -1.863667 1.192730
v -0.504944 -1.960064 1.143726
v -0.667588 -2.273330 0.371621
v -0.635184 -2.206380 0.689195
v -0.582069 -2.099427 0.924133
v -0.791334 -2.254625 0.360322
v -0.676926 -2.074240 0.921330
v -0.740020 -2.187027 0.679643
v 0.780847 -1.967935 0.689831
v 0.753736 -2.117577 0.700765
v 0.814311 -2.129430 0.383514
v 0.891724 -1.287233 0.250463
v 0.874467 -1.363350 0.565686
v 0.898728 -1.509102 0.264836
v 0.888641 -1.682357 0.212527
v 0.869166 -1.783106 0.068360
v 0.895614 -0.347898 0.542314
v 0.895801 -0.345120 0.003072
v 0.901364 0.705705 -0.111261
v 0.909228 0.725428 0.003024
v 0.873790 -0.360399 -0.109120
v 0.895852 -1.171760 0.202451
v 0.884968 -1.078234 0.056248
v 0.843654 -1.047213 -0.112879
v 0.915646 0.739504 0.500895
v 0.928580 0.902757 0.161917
v 0.939822 0.999524 0.236161
v 0.925796 0.841086 0.046375
v 0.924752 1.106200 0.265027
v -0.782182 -1.965991 0.685919
v -0.755871 -2.115910 0.695922
v -0.821321 -2.126189 0.379621
v -0.895088 -1.283066 0.250746
v -0.873549 -1.360387 0.565470
v -0.903279 -1.504935 0.264445
v -0.895129 -1.678005 0.211389
v -0.878496 -1.778290 0.066566
v -0.888292 -0.313729 0.545992
v -0.896531 -0.308821 0.006839
v -0.902785 0.730707 0.010887
v -0.896762 0.711261 -0.103636
v -0.876225 -0.355028 -0.105703
v -0.869521 -1.062492 0.056934
v -0.899105 -1.167316 0.203189
v -0.850736 -1.031008 -0.112360
v -0.901647 0.742930 0.508720
v -0.928018 1.004062 0.245442
v -0.918522 0.907480 0.170703
v -0.917883 0.846271 0.054847
v -0.911786 1.110459 0.274443
v -0.870577 0.524394 0.654711
v -0.758236 0.427627 0.788460
v -0.818210 0.656256 0.605915
v -0.906977 0.481798 0.609900
v -0.915900 0.488650 0.739456
v -0.988466 0.453092 0.619088
v -0.983514 0.450962 0.747017
v -1.061762 0.415681 0.641248
v -1.071181 0.417441 0.688019
v -1.060188 0.408922 0.738559
v -0.986558 0.409107 0.748160
v -0.903921 0.428623 0.742664
v -0.864899 0.475408 0.666319
v -0.855814 0.450314 0.569915
v 0.763191 0.427627 0.772528
v 0.862617 0.524394 0.672214
v 0.819238 0.656256 0.588768
v 0.897978 0.481798 0.626560
v 0.909704 0.488650 0.755991
v 0.979641 0.453092 0.634131
v 0.977371 0.450962 0.762135
v 1.053387 0.415681 0.654751
v 1.063783 0.417441 0.701315
v 1.053943 0.408922 0.752073
v 0.980438 0.409107 0.763215
v 0.897837 0.428593 0.759449
v 0.850795 0.475408 0.684006
v 0.850019 0.626995 0.547977
v 0.856172 0.450314 0.551987
v -0.849838 0.626995 0.565778
v 0.607241 -1.919042 1.108187
v 0.639673 -1.818571 1.092383
v 0.658257 -1.238432 1.107283
v 0.655699 -0.441887 1.146018
v 0.487719 -1.862371 1.199544
v 0.682172 0.017779 1.109532
v 0.834070 0.732188 0.678717
v 0.836044 0.834141 0.619615
v 0.647895 0.197886 1.081740
v 0.604697 -0.025650 1.174797
v 0.610817 -0.446425 1.202051
v 0.537435 -1.227598 1.207172
v 0.773430 1.495397 0.512293
v 0.829920 1.519381 0.432709
v 0.897746 1.327236 0.250771
v 0.653098 1.699858 0.464380
v 0.006377 -0.968318 1.254499
v 0.003939 0.101397 1.207481
v 0.007613 1.752548 0.505959
v 0.769976 1.672726 0.376940
v -0.585822 -0.026298 1.175966
v -0.594162 -0.447073 1.201890
v -0.525620 -1.228709 1.203209
v -0.819933 0.836919 0.627232
v 0.002489 1.162223 0.653347
v 0.322034 0.307895 1.109878
v 0.423470 0.927389 0.688574
v 0.001129 0.318266 1.133704
v -0.002059 0.988968 0.687751
v -0.481352 0.931741 0.690733
v -0.377069 0.315025 1.107197
v -0.629010 0.197794 1.084276
v -0.817743 0.734688 0.686013
v 0.727904 1.682541 0.409560
v -0.601970 -1.919876 1.101773
v -0.633983 -1.819127 1.086828
v -0.648434 -1.238895 1.104112
v -0.640034 -0.442535 1.145696
v -0.663918 0.017409 1.111219
v -0.883596 1.331403 0.260534
v -0.625255 1.566144 -0.122407
v -0.838400 1.586423 0.255188
v -0.840958 1.605282 -0.089233
v -0.611967 0.759135 0.492073
v -0.619496 1.575959 0.427606
v -0.618482 0.722558 -0.130072
v -0.806974 0.746078 0.650028
v -0.895643 0.708760 -0.118279
v -0.816368 -1.027953 0.644355
v -0.624687 -1.041472 -0.068147
v -0.851477 -1.029990 -0.113748
v -0.624499 -1.861816 -0.050183
v -0.636942 -1.039342 0.543545
v -0.811170 -1.920802 0.364142
v -0.617991 -1.859686 0.571221
v -0.780686 -1.922098 0.006460
v -0.774799 -2.061646 -0.006196
v 0.617019 -1.860519 -0.053924
v 0.826116 -1.916820 0.325883
v 0.777761 -1.973676 -0.046995
v 0.623094 -1.036935 0.526184
v 0.612709 -1.858389 0.560278
v 0.616604 -1.039065 -0.093462
v 0.790406 -1.033015 0.654015
v 0.845820 -1.046537 -0.111573
v 0.837736 0.722380 0.635646
v 0.616313 0.731540 -0.121333
v 0.898063 0.705911 -0.110754
v 0.622767 1.561792 0.495097
v 0.622626 0.723484 0.481553
v 0.616451 1.570681 -0.108092
v 0.834791 1.624389 0.176698
v -0.311361 1.907444 -0.081707
v 0.010213 1.967126 -0.074101
v 0.011178 1.965586 -0.072065
v 0.760241 -2.096557 -0.022178
v -0.774622 -2.061554 0.010748
v -0.746492 1.705101 -0.099301
v 0.510771 1.871277 -0.096761
v 0.773530 1.710738 -0.111794
v 0.624308 -2.238605 0.014343
v 0.723462 -2.159339 -0.005865
v -0.281699 -2.283516 0.035868
v -0.623798 -2.248884 0.016670
v 0.272125 -2.276293 0.031458
v -0.642295 1.775251 -0.095954
v -0.497781 1.875302 -0.089655
v -0.753481 -2.139431 0.013305
v -0.311361 1.907413 -0.081707
v 0.306903 1.903783 -0.078565
v -0.527335 1.120242 0.528924
v -0.230115 0.703357 0.659180
v -0.175183 1.178580 0.555288
v 0.234152 0.703357 0.655359
v 0.176582 1.178580 0.552393
v 0.527837 1.120242 0.520238
v -0.844207 0.791327 0.400495
v -0.529082 1.120242 0.397901
v -0.233628 0.703357 0.395470
v -0.810221 0.791327 0.626334
v 0.230640 0.703357 0.391649
v 0.844228 0.791327 0.612462
v 0.841220 0.791327 0.386623
v 0.021918 -1.341311 0.395146
v -0.592178 -1.272602 0.144504
v 0.017637 -1.271861 0.127840
v -0.628918 -1.292048 0.412055
v -0.597530 -1.336311 0.402743
v 0.017234 -1.220375 0.107008
v -0.614877 -1.227506 0.143446
v -0.580088 -1.356497 0.680006
v -0.557689 -1.396871 0.661157
v 0.026905 -1.363720 0.703283
v 0.026313 -1.400853 0.664488
v 0.607777 -1.292048 0.398919
v 0.571926 -1.272602 0.132314
v 0.594413 -1.227506 0.130782
v 0.585646 -1.336311 0.390168
v 0.554188 -1.396871 0.649236
v 0.577068 -1.356497 0.667610
v 0.022128 -1.242785 0.415146
v -0.591996 -1.187225 0.161820
v -0.597342 -1.247692 0.420707
v 0.017826 -1.183243 0.145896
v -0.557508 -1.311494 0.678473
v 0.026502 -1.312235 0.682544
v 0.572107 -1.187225 0.149630
v 0.585835 -1.247692 0.408224
v 0.554369 -1.311494 0.666552
v -0.372610 -0.235482 0.144613
v -0.595223 -0.285578 0.393181
v -0.612425 -0.235667 0.156570
v -0.620036 -0.241223 0.402423
v -0.372709 -0.185570 0.126278
v -0.620763 -0.191126 0.156194
v -0.561439 -0.332156 0.630267
v -0.569587 -0.291320 0.648132
v -0.371061 -0.290486 0.389815
v -0.369203 -0.296876 0.673352
v -0.369398 -0.335675 0.637054
v -0.121783 -0.241223 0.397206
v -0.132598 -0.235667 0.151545
v -0.124269 -0.191126 0.150996
v -0.146785 -0.285578 0.388485
v -0.177541 -0.332156 0.626247
v -0.169113 -0.291320 0.643938
v -0.595033 -0.196960 0.411237
v -0.372421 -0.146864 0.162669
v -0.612242 -0.150382 0.173978
v -0.370851 -0.192052 0.409815
v -0.561258 -0.246779 0.647582
v -0.369210 -0.247057 0.655017
v -0.146596 -0.196960 0.406542
v -0.132415 -0.150382 0.168954
v -0.177359 -0.246779 0.643562
v -0.368962 -0.331357 0.668144
v -0.482533 -0.343302 0.753049
v -0.486337 -0.325708 0.672801
v -0.495134 -0.303392 0.761237
v -0.368883 -0.290057 0.666847
v -0.490455 -0.286909 0.677474
v -0.470389 -0.358489 0.833858
v -0.474442 -0.320986 0.844735
v -0.368743 -0.352748 0.751023
v -0.368324 -0.327931 0.852885
v -0.368413 -0.365434 0.835568
v -0.242072 -0.314596 0.758587
v -0.251516 -0.335339 0.670342
v -0.247208 -0.297002 0.674927
v -0.254842 -0.353396 0.750664
v -0.266588 -0.368212 0.831724
v -0.262307 -0.331079 0.842514
v -0.482365 -0.264592 0.769068
v -0.368795 -0.252554 0.684164
v -0.486175 -0.249776 0.688264
v -0.368556 -0.265241 0.768803
v -0.470227 -0.282649 0.849322
v -0.368245 -0.286631 0.851587
v -0.254674 -0.274593 0.766683
v -0.251354 -0.259499 0.685805
v -0.266426 -0.292280 0.847187
v -0.368962 -1.381157 0.681755
v -0.482533 -1.393195 0.766659
v -0.486337 -1.375508 0.686411
v -0.495134 -1.353191 0.774848
v -0.368883 -1.339857 0.680457
v -0.490455 -1.336709 0.691085
v -0.470389 -1.408288 0.847469
v -0.474442 -1.370785 0.858346
v -0.368743 -1.402547 0.764634
v -0.368324 -1.377730 0.866495
v -0.368413 -1.415233 0.849179
v -0.242072 -1.364396 0.772198
v -0.251516 -1.385231 0.683952
v -0.247208 -1.346802 0.688537
v -0.254842 -1.403195 0.764275
v -0.266588 -1.418011 0.845335
v -0.262307 -1.380879 0.856125
v -0.482365 -1.314392 0.782678
v -0.368795 -1.302354 0.697775
v -0.486175 -1.299669 0.701875
v -0.368556 -1.315040 0.782413
v -0.470227 -1.332449 0.862932
v -0.368245 -1.336431 0.865198
v -0.254674 -1.324485 0.780294
v -0.251354 -1.309299 0.699416
v -0.266426 -1.342172 0.860798
v 0.423647 -0.358396 0.748005
v 0.308275 -0.336080 0.669758
v 0.423336 -0.336913 0.665219
v 0.298460 -0.314596 0.758206
v 0.310969 -0.353951 0.750111
v 0.423415 -0.295706 0.663922
v 0.304157 -0.297558 0.674431
v 0.321908 -0.368953 0.830840
v 0.317855 -0.331635 0.841718
v 0.424067 -0.333487 0.849958
v 0.423978 -0.370990 0.832642
v 0.549021 -0.314596 0.755582
v 0.538467 -0.336080 0.667347
v 0.542682 -0.297558 0.671933
v 0.536345 -0.353951 0.747751
v 0.525988 -0.368953 0.828703
v 0.530268 -0.331635 0.839493
v 0.423834 -0.270797 0.765783
v 0.308437 -0.260240 0.685221
v 0.311137 -0.275149 0.766130
v 0.423504 -0.258203 0.681238
v 0.322070 -0.293021 0.846304
v 0.424146 -0.292187 0.848661
v 0.536513 -0.275149 0.763770
v 0.538628 -0.260240 0.682810
v 0.526150 -0.293021 0.844167
v 0.423647 -1.408196 0.761615
v 0.308276 -1.385972 0.683368
v 0.423336 -1.386805 0.678830
v 0.298460 -1.364396 0.771816
v 0.310969 -1.403844 0.763721
v 0.423415 -1.345506 0.677532
v 0.304157 -1.347358 0.688042
v 0.321908 -1.418752 0.844451
v 0.317855 -1.381434 0.855328
v 0.424067 -1.383286 0.863569
v 0.423978 -1.420789 0.846253
v 0.549021 -1.364396 0.769192
v 0.538467 -1.385972 0.680958
v 0.542682 -1.347358 0.685544
v 0.536345 -1.403844 0.761361
v 0.525988 -1.418752 0.842314
v 0.530268 -1.381434 0.853104
v 0.423834 -1.320596 0.779393
v 0.308437 -1.310040 0.698832
v 0.311137 -1.325041 0.779740
v 0.423504 -1.308003 0.694848
v 0.322070 -1.342913 0.859914
v 0.424146 -1.342079 0.862272
v 0.536513 -1.325041 0.777380
v 0.538628 -1.310040 0.696421
v 0.526150 -1.342913 0.857777
v 0.419965 -0.235482 0.141592
v 0.195871 -0.285578 0.390176
v 0.179874 -0.235667 0.153645
v 0.170503 -0.241223 0.399517
v 0.419496 -0.185570 0.123354
v 0.171258 -0.191126 0.153272
v 0.228914 -0.332156 0.627269
v 0.220766 -0.291320 0.645135
v 0.425033 -0.290486 0.386757
v 0.430779 -0.296876 0.670161
v 0.430120 -0.335675 0.633774
v 0.679680 -0.241223 0.393999
v 0.660441 -0.235667 0.148519
v 0.668770 -0.191126 0.148062
v 0.654122 -0.285578 0.385284
v 0.630865 -0.332156 0.622782
v 0.639663 -0.291320 0.640470
v 0.196060 -0.196960 0.408232
v 0.420154 -0.146864 0.159648
v 0.180055 -0.150382 0.170960
v 0.425242 -0.192052 0.406758
v 0.229096 -0.246779 0.644677
v 0.430309 -0.247057 0.651830
v 0.660623 -0.150382 0.165927
v 0.654311 -0.196960 0.403248
v 0.631048 -0.246779 0.640190
v 0.526091 1.120242 0.389217
v -0.047613 -2.274163 0.582288
v -0.067505 -2.276201 0.469055
v -0.070517 -2.479921 0.473254
v -0.050532 -2.477883 0.586486
v 0.097928 -2.272682 0.755880
v 0.009919 -2.272867 0.681884
v 0.006908 -2.476680 0.686176
v 0.094917 -2.476402 0.760171
v -0.047485 -2.278886 0.355775
v 0.010000 -2.281756 0.256270
v 0.007080 -2.485476 0.260468
v -0.050496 -2.482606 0.360066
v 0.206248 -2.287035 0.143089
v 0.321265 -2.288702 0.143181
v 0.318254 -2.492422 0.147473
v 0.203237 -2.490755 0.147381
v 0.098127 -2.284627 0.182375
v 0.095208 -2.488347 0.186665
v 0.594810 -2.285924 0.469435
v 0.574790 -2.283238 0.582715
v 0.571778 -2.486958 0.586914
v 0.591799 -2.489644 0.473726
v 0.429285 -2.289442 0.182611
v 0.426366 -2.493162 0.186901
v 0.517386 -2.289165 0.256606
v 0.514374 -2.492977 0.260805
v 0.574826 -2.287961 0.356203
v 0.571907 -2.491681 0.360493
v 0.206041 -2.273423 0.795309
v 0.203029 -2.477143 0.799508
v 0.517213 -2.280368 0.682221
v 0.514202 -2.484088 0.686512
v 0.429086 -2.277497 0.756116
v 0.426075 -2.481217 0.760408
v 0.321057 -2.275089 0.795401
v 0.318045 -2.478809 0.799600
v -0.070517 -2.479921 0.473254
v -0.050496 -2.482606 0.360066
v 0.260641 -2.484828 0.473490
v -0.050532 -2.477883 0.586486
v 0.006908 -2.476680 0.686176
v 0.094917 -2.476402 0.760171
v 0.203029 -2.477143 0.799508
v 0.318045 -2.478809 0.799600
v 0.426075 -2.481217 0.760408
v 0.514202 -2.484088 0.686512
v 0.571778 -2.486958 0.586914
v 0.591799 -2.489644 0.473726
v 0.571907 -2.491681 0.360493
v 0.514374 -2.492977 0.260805
v 0.426366 -2.493162 0.186901
v 0.318254 -2.492422 0.147473
v 0.203237 -2.490755 0.147381
v 0.095208 -2.488347 0.186665
v 0.007080 -2.485476 0.260468
v -0.047485 -2.278886 0.355775
v -0.067505 -2.276201 0.469055
v 0.263653 -2.281016 0.469291
v -0.047613 -2.274163 0.582288
v 0.009919 -2.272867 0.681884
v 0.097928 -2.272682 0.755880
v 0.206041 -2.273423 0.795309
v 0.321057 -2.275089 0.795401
v 0.429086 -2.277497 0.756116
v 0.517213 -2.280368 0.682221
v 0.574790 -2.283238 0.582715
v 0.594810 -2.285924 0.469435
v 0.574826 -2.287961 0.356203
v 0.517386 -2.289165 0.256606
v 0.429285 -2.289442 0.182611
v 0.321265 -2.288702 0.143181
v 0.206248 -2.287035 0.143089
v 0.098127 -2.284627 0.182375
v 0.010000 -2.281756 0.256270
v -0.625255 1.566144 -0.122407
v -0.838400 1.586423 0.255188
v -0.840958 1.605282 -0.089233
v -0.611967 0.759135 0.492073
v -0.619496 1.575959 0.427606
v -0.618482 0.722558 -0.130072
v -0.895643 0.708760 -0.118279
v -0.816368 -1.027953 0.644355
v -0.624687 -1.041472 -0.068147
v -0.851477 -1.029990 -0.113748
v -0.624499 -1.861816 -0.050183
v -0.636942 -1.039342 0.543545
v -0.811170 -1.920802 0.364142
v -0.617991 -1.859686 0.571221
v -0.780686 -1.922098 0.006460
v -0.774799 -2.061646 -0.006196
v 0.617019 -1.860519 -0.053924
v 0.826116 -1.916820 0.325883
v 0.777761 -1.973676 -0.046995
v 0.623094 -1.036935 0.526184
v 0.612709 -1.858389 0.560278
v 0.616604 -1.039065 -0.093462
v 0.790406 -1.033015 0.654015
v 0.845820 -1.046537 -0.111573
v 0.837736 0.722380 0.635646
v 0.616313 0.731540 -0.121333
v 0.898063 0.705911 -0.110754
v 0.622767 1.561792 0.495097
v 0.622626 0.723484 0.481553
v 0.616451 1.570681 -0.108092
v 0.834791 1.624389 0.176698
v -0.311361 1.907444 -0.081707
v 0.010213 1.967126 -0.074101
v 0.011178 1.965586 -0.072065
v 0.760241 -2.096557 -0.022178
v -0.774622 -2.061554 0.010748
v -0.746492 1.705101 -0.099301
v 0.510771 1.871277 -0.096761
v 0.773530 1.710738 -0.111794
v 0.624308 -2.238605 0.014343
v 0.723462 -2.159339 -0.005865
v -0.281699 -2.283516 0.035868
v -0.623798 -2.248884 0.016670
v 0.272125 -2.276293 0.031458
v -0.642295 1.775251 -0.095954
v -0.497781 1.875302 -0.089655
v -0.753481 -2.139431 0.013305
v -0.311361 1.907413 -0.081707
v 0.306903 1.903783 -0.078565
v 0.604914 -2.099890 0.930225
v 0.678411 -2.074610 0.927140
v 0.533322 -1.959323 1.150448
v 0.004510 -1.988029 1.138113
v 0.005327 -1.914042 1.198391
v -0.479983 -1.863667 1.192730
v -0.504944 -1.960064 1.143726
v -0.582069 -2.099427 0.924133
v -0.676926 -2.074240 0.921330
v 0.780847 -1.967935 0.689831
v 0.874467 -1.363350 0.565686
v 0.895614 -0.347898 0.542314
v 0.915646 0.739504 0.500895
v -0.782182 -1.965991 0.685919
v -0.873549 -1.360387 0.565470
v -0.888292 -0.313729 0.545992
v -0.901647 0.742930 0.508720
v 0.607241 -1.919042 1.108187
v 0.639673 -1.818571 1.092383
v 0.658257 -1.238432 1.107283
v 0.655699 -0.441887 1.146018
v 0.487719 -1.862371 1.199544
v 0.682172 0.017779 1.109532
v 0.834070 0.732188 0.678717
v 0.647895 0.197886 1.081740
v 0.604697 -0.025650 1.174797
v 0.610817 -0.446425 1.202051
v 0.537435 -1.227598 1.207172
v 0.006377 -0.968318 1.254499
v 0.003939 0.101397 1.207481
v -0.585822 -0.026298 1.175966
v -0.594162 -0.447073 1.201890
v -0.525620 -1.228709 1.203209
v 0.322034 0.307895 1.109878
v 0.001129 0.318266 1.133704
v -0.377069 0.315025 1.107197
v -0.629010 0.197794 1.084276
v -0.817743 0.734688 0.686013
v -0.601970 -1.919876 1.101773
v -0.633983 -1.819127 1.086828
v -0.648434 -1.238895 1.104112
v -0.640034 -0.442535 1.145696
v -0.663918 0.017409 1.111219
v -0.816368 -1.027953 0.644355
v -0.636942 -1.039342 0.543545
v -0.811170 -1.920802 0.364142
v -0.617991 -1.859686 0.571221
v 0.826116 -1.916820 0.325883
v 0.623094 -1.036935 0.526184
v 0.612709 -1.858389 0.560278
v 0.790406 -1.033015 0.654015
v 0.668854 -1.889596 -0.118086
v 0.817623 -1.930617 -0.069545
v 0.767204 -2.230086 0.032571
v 0.665340 -2.281942 0.032712
v 0.591087 -2.223048 -0.071803
v -0.000708 -2.137300 -0.103018
v 0.042029 -2.312870 0.060631
v -0.656738 -2.277590 0.028128
v -0.604511 -2.219344 -0.078174
v -0.830039 -1.925710 -0.072664
v -0.780094 -2.225826 0.027567
v 0.783282 -2.257773 0.365225
v 0.681078 -2.276293 0.377130
v 0.604914 -2.099890 0.930225
v 0.678411 -2.074610 0.927140
v 0.737179 -2.188694 0.685010
v 0.653938 -2.208047 0.694865
v -0.003714 -2.195916 0.706475
v -0.004945 -2.314444 0.412096
v -0.667588 -2.273330 0.371621
v -0.635184 -2.206380 0.689195
v -0.582069 -2.099427 0.924133
v -0.791334 -2.254625 0.360322
v -0.676926 -2.074240 0.921330
v -0.740020 -2.187027 0.679643
v 0.780847 -1.967935 0.689831
v 0.753736 -2.117577 0.700765
v 0.814311 -2.129430 0.383514
v 0.891724 -1.287233 0.250463
v 0.874467 -1.363350 0.565686
v 0.898728 -1.509102 0.264836
v 0.888641 -1.682357 0.212527
v 0.869166 -1.783106 0.068360
v 0.895614 -0.347898 0.542314
v -0.782182 -1.965991 0.685919
v -0.755871 -2.115910 0.695922
v -0.821321 -2.126189 0.379621
v -0.895088 -1.283066 0.250746
v -0.873549 -1.360387 0.565470
v -0.903279 -1.504935 0.264445
v -0.895129 -1.678005 0.211389
v -0.878496 -1.778290 0.066566
v -0.888292 -0.313729 0.545992
v -0.780094 -2.225826 0.027567
v -0.657133 -2.278145 0.025817
v -0.667588 -2.273330 0.371621
vt 0.309080 0.216198
vt 0.306291 0.214365
vt 0.306222 0.169564
vt 0.341073 0.216371
vt 0.344527 0.213713
vt 0.344156 0.168983
vt 0.307754 0.121708
vt 0.311704 0.119162
vt 0.342197 0.119426
vt 0.345807 0.122390
vt 0.309080 0.216198
vt 0.306291 0.214365
vt 0.306222 0.169564
vt 0.341073 0.216371
vt 0.344527 0.213713
vt 0.344156 0.168983
vt 0.307754 0.121708
vt 0.311704 0.119162
vt 0.342197 0.119426
vt 0.345807 0.122390
vt 0.770603 0.236840
vt 0.768949 0.253058
vt 0.738674 0.246857
vt 0.738444 0.232645
vt 0.766919 0.219542
vt 0.754785 0.218192
vt 0.741630 0.218794
vt 0.769499 0.253081
vt 0.771176 0.236640
vt 0.738807 0.246794
vt 0.738575 0.232387
vt 0.767441 0.219103
vt 0.755140 0.217735
vt 0.741804 0.218345
vt 0.000000 0.000000
vt 0.000000 0.000000
vt 0.000000 0.000000
vt 0.000000 0.000000
vt 0.323739 0.103712
vt 0.347801 0.097871
vt 0.312773 0.117030
vt 0.314316 0.098738
vt 0.335192 0.096395
vt 0.311312 0.091444
vt 0.332683 0.089117
vt 0.310877 0.083596
vt 0.318076 0.082345
vt 0.327024 0.081249
vt 0.326870 0.078875
vt 0.332707 0.085203
vt 0.336609 0.092354
vt 0.318163 0.079670
vt 0.310691 0.081083
vt 0.313149 0.089042
vt 0.318745 0.096193
vt 0.325963 0.099458
vt 0.336558 0.091658
vt 0.314585 0.097784
vt 0.348404 0.097650
vt 0.324011 0.103572
vt 0.312894 0.117072
vt 0.314458 0.098529
vt 0.335622 0.096154
vt 0.311413 0.091135
vt 0.333078 0.088776
vt 0.310972 0.083179
vt 0.318270 0.081911
vt 0.327341 0.080800
vt 0.327184 0.078393
vt 0.333102 0.084808
vt 0.337058 0.092058
vt 0.318358 0.079199
vt 0.310783 0.080632
vt 0.313275 0.088700
vt 0.318948 0.095949
vt 0.326266 0.099259
vt 0.337006 0.091352
vt 0.317523 0.100920
vt 0.318286 0.098260
vt 0.313616 0.108062
vt 0.169647 0.134230
vt 0.160504 0.152086
vt 0.155097 0.136966
vt 0.151961 0.002910
vt 0.119776 0.050760
vt 0.120714 0.004188
vt 0.170887 0.134230
vt 0.156184 0.106431
vt 0.169855 0.098836
vt 0.184900 0.224900
vt 0.184900 0.224900
vt 0.184900 0.224900
vt 0.184242 0.005232
vt 0.172637 0.029996
vt 0.171305 0.002910
vt 0.155097 0.145481
vt 0.120331 0.099469
vt 0.155097 0.098836
vt 0.193762 0.170283
vt 0.182752 0.146917
vt 0.193762 0.134963
vt 0.184900 0.224900
vt 0.184900 0.224900
vt 0.184900 0.224900
vt 0.182752 0.134963
vt 0.170887 0.156380
vt 0.173934 0.135137
vt 0.120089 0.097511
vt 0.154978 0.052096
vt 0.154978 0.098836
vt 0.184349 0.134062
vt 0.170887 0.108122
vt 0.184349 0.098836
vt 0.184900 0.224900
vt 0.184900 0.224900
vt 0.184900 0.224900
vt 0.171305 0.002910
vt 0.155206 0.029361
vt 0.155384 0.003616
vt 0.154978 0.098469
vt 0.187241 0.050835
vt 0.189256 0.098469
vt 0.132042 0.178266
vt 0.119776 0.161904
vt 0.132042 0.146136
vt 0.184900 0.224900
vt 0.184900 0.224900
vt 0.184900 0.224900
vt 0.109848 0.236606
vt 0.101953 0.223027
vt 0.110988 0.229590
vt 0.031438 0.222169
vt 0.022626 0.233520
vt 0.022386 0.225585
vt 0.017934 0.075797
vt 0.032022 0.175530
vt 0.019266 0.174618
vt 0.024027 0.022281
vt 0.033875 0.027285
vt 0.019237 0.027941
vt 0.115636 0.176846
vt 0.103819 0.075640
vt 0.119776 0.077330
vt 0.104356 0.027994
vt 0.098518 0.010869
vt 0.113347 0.020183
vt 0.101941 0.244644
vt 0.107676 0.240177
vt 0.050406 0.246551
vt 0.031050 0.244288
vt 0.081873 0.246551
vt 0.033713 0.075200
vt 0.102579 0.176283
vt 0.068156 0.002910
vt 0.051868 0.004723
vt 0.032970 0.015455
vt 0.042349 0.008319
vt 0.023768 0.237965
vt 0.314731 0.097562
vt 0.169647 0.165505
vt 0.155206 0.050760
vt 0.155097 0.134230
vt 0.184900 0.224900
vt 0.184242 0.040010
vt 0.119776 0.146135
vt 0.184695 0.167229
vt 0.184900 0.224900
vt 0.182752 0.169873
vt 0.119776 0.050760
vt 0.171312 0.134963
vt 0.184900 0.224900
vt 0.171305 0.037164
vt 0.155094 0.050760
vt 0.123053 0.177280
vt 0.184900 0.224900
vt 0.087000 0.004002
vt 0.169647 0.134230
vt 0.155097 0.136966
vt 0.160504 0.152086
vt 0.151961 0.002910
vt 0.120714 0.004188
vt 0.119776 0.050760
vt 0.170887 0.134230
vt 0.169855 0.098836
vt 0.184900 0.224900
vt 0.184900 0.224900
vt 0.184242 0.005232
vt 0.171305 0.002910
vt 0.172637 0.029996
vt 0.155097 0.145481
vt 0.155097 0.098836
vt 0.120331 0.099469
vt 0.193762 0.170283
vt 0.193762 0.134963
vt 0.182752 0.146917
vt 0.184900 0.224900
vt 0.184900 0.224900
vt 0.184900 0.224900
vt 0.182752 0.134963
vt 0.173934 0.135137
vt 0.170887 0.156380
vt 0.120089 0.097511
vt 0.154978 0.098836
vt 0.154978 0.052096
vt 0.184349 0.134062
vt 0.184349 0.098836
vt 0.170887 0.108122
vt 0.184900 0.224900
vt 0.184900 0.224900
vt 0.184900 0.224900
vt 0.171305 0.002910
vt 0.155384 0.003616
vt 0.155206 0.029361
vt 0.154978 0.098469
vt 0.189256 0.098469
vt 0.187241 0.050835
vt 0.132042 0.178266
vt 0.132042 0.146136
vt 0.119776 0.161904
vt 0.184900 0.224900
vt 0.184900 0.224900
vt 0.184900 0.224900
vt 0.109848 0.236606
vt 0.110988 0.229590
vt 0.101953 0.223027
vt 0.031438 0.222169
vt 0.022386 0.225585
vt 0.022626 0.233520
vt 0.017934 0.075797
vt 0.019266 0.174618
vt 0.032022 0.175530
vt 0.024027 0.022281
vt 0.019237 0.027941
vt 0.033875 0.027285
vt 0.115636 0.176846
vt 0.119776 0.077330
vt 0.103819 0.075640
vt 0.104356 0.027994
vt 0.113347 0.020183
vt 0.098518 0.010869
vt 0.101941 0.244644
vt 0.107676 0.240177
vt 0.031050 0.244288
vt 0.050406 0.246551
vt 0.081873 0.246551
vt 0.033713 0.075200
vt 0.102579 0.176283
vt 0.068156 0.002910
vt 0.051868 0.004723
vt 0.032970 0.015455
vt 0.042349 0.008319
vt 0.023768 0.237965
vt 0.169647 0.165505
vt 0.155206 0.050760
vt 0.155097 0.134230
vt 0.184900 0.224900
vt 0.184242 0.040010
vt 0.119776 0.146135
vt 0.184695 0.167229
vt 0.184900 0.224900
vt 0.182752 0.169873
vt 0.119776 0.050760
vt 0.171312 0.134963
vt 0.184900 0.224900
vt 0.171305 0.037164
vt 0.155094 0.050760
vt 0.123053 0.177280
vt 0.184900 0.224900
vt 0.087000 0.004002
vt 0.000000 0.000000
vt 0.000000 0.000000
vt 0.000000 0.000000
vt 0.000000 0.000000
vt 0.815858 0.976839
vt 0.758477 0.998571
vt 0.825962 0.988676
vt 0.665397 0.934001
vt 0.681563 0.921883
vt 0.579866 0.874692
vt 0.589198 0.856217
vt 0.815858 0.976839
vt 0.825962 0.988676
vt 0.758477 0.998571
vt 0.628519 0.283495
vt 0.629393 0.304400
vt 0.681281 0.262747
vt 0.728360 0.300015
vt 0.718958 0.427242
vt 0.579618 0.406338
vt 0.502005 0.540690
vt 0.618316 0.625247
vt 0.591351 0.284748
vt 0.455801 0.619297
vt 0.469428 0.800938
vt 0.433865 0.777684
vt 0.429419 0.647169
vt 0.440205 0.602620
vt 0.485680 0.534818
vt 0.542888 0.397569
vt 0.613069 0.270420
vt 0.395677 0.403598
vt 0.289787 0.581089
vt 0.484587 0.242469
vt 0.169468 0.522682
vt 0.204740 0.448773
vt 0.368348 0.218355
vt 0.298751 0.323425
vt 0.346850 0.640905
vt 0.274483 0.624385
vt 0.193663 0.595887
vt 0.143013 0.566448
vt 0.628519 0.283495
vt 0.681281 0.262747
vt 0.629393 0.304400
vt 0.728360 0.300015
vt 0.718958 0.427242
vt 0.579618 0.406338
vt 0.502005 0.540690
vt 0.618316 0.625247
vt 0.591351 0.284748
vt 0.455801 0.619297
vt 0.469428 0.800938
vt 0.433865 0.777684
vt 0.429419 0.647169
vt 0.440205 0.602620
vt 0.485680 0.534818
vt 0.542888 0.397569
vt 0.613069 0.270420
vt 0.154978 0.098836
vt 0.170887 0.156380
vt 0.170887 0.108122
vt 0.172637 0.029996
vt 0.182752 0.146917
vt 0.193762 0.134963
vt 0.184349 0.098836
vt 0.120331 0.099469
vt 0.681346 0.638433
vt 0.711574 0.629232
vt 0.688957 0.627109
vt 0.730439 0.664570
vt 0.703044 0.668109
vt 0.781385 0.584390
vt 0.746659 0.565601
vt 0.828160 0.514270
vt 0.835320 0.528915
vt 0.997599 0.885684
vt 0.934367 0.920630
vt 0.949733 0.935786
vt 0.982275 0.867396
vt 0.883259 0.965221
vt 0.869997 0.953291
vt 0.815858 0.976839
vt 0.825962 0.988676
vt 0.819984 0.821615
vt 0.766518 0.864046
vt 0.874376 0.782315
vt 0.767192 0.686714
vt 0.715915 0.736315
vt 0.661566 0.778245
vt 0.997599 0.885684
vt 0.949733 0.935786
vt 0.934367 0.920630
vt 0.883259 0.965221
vt 0.815858 0.976839
vt 0.869997 0.953291
vt 0.825962 0.988676
vt 0.769132 0.161360
vt 0.762583 0.143572
vt 0.730829 0.150541
vt 0.809312 0.138677
vt 0.842765 0.235936
vt 0.797005 0.231513
vt 0.837904 0.210069
vt 0.842642 0.189137
vt 0.861697 0.174970
vt 0.817865 0.349405
vt 0.878587 0.154316
vt 0.857776 0.120132
vt 0.809312 0.122838
vt 0.763339 0.134737
vt 0.769132 0.161360
vt 0.730829 0.150541
vt 0.762583 0.143572
vt 0.809312 0.138677
vt 0.842765 0.235936
vt 0.797005 0.231513
vt 0.837904 0.210069
vt 0.842642 0.189137
vt 0.861697 0.174970
vt 0.817865 0.349405
vt 0.878587 0.154316
vt 0.857776 0.120132
vt 0.809312 0.122838
vt 0.763339 0.134737
vt 0.997599 0.885684
vt 0.934367 0.920630
vt 0.982275 0.867396
vt 0.019503 0.054553
vt 0.097255 0.093034
vt 0.008686 0.100368
vt 0.097255 0.153501
vt 0.008686 0.146183
vt 0.019503 0.191982
vt 0.080461 0.110418
vt 0.019503 0.132604
vt 0.019279 0.110894
vt 0.977970 0.149838
vt 0.940999 0.097143
vt 0.977835 0.097143
vt 0.977970 0.189907
vt 0.934940 0.149838
vt 0.940999 0.242602
vt 0.934940 0.189907
vt 0.215942 0.197233
vt 0.277734 0.222481
vt 0.215575 0.239801
vt 0.197489 0.099454
vt 0.284598 0.010110
vt 0.284598 0.097412
vt 0.197297 0.097412
vt 0.109996 0.010110
vt 0.197297 0.010110
vt 0.197297 0.097412
vt 0.284598 0.097412
vt 0.284598 0.097412
vt 0.284598 0.010110
vt 0.109996 0.010110
vt 0.197297 0.097412
vt 0.197297 0.010110
vt 0.197297 0.097412
vt 0.284598 0.010110
vt 0.284598 0.097412
vt 0.284598 0.184713
vt 0.197297 0.184713
vt 0.109996 0.010110
vt 0.197297 0.010110
vt 0.284598 0.010110
vt 0.284598 0.097412
vt 0.109996 0.184713
vt 0.109996 0.097412
vt 0.109996 0.010110
vt 0.197297 0.010110
vt 0.197315 0.099681
vt 0.109996 0.010110
vt 0.197297 0.010110
vt 0.284598 0.184713
vt 0.197297 0.184713
vt 0.109996 0.184713
vt 0.109996 0.097412
vt 0.284598 0.010110
vt 0.284598 0.097412
vt 0.284598 0.184713
vt 0.197297 0.184713
vt 0.109996 0.184713
vt 0.109996 0.097412
vt 0.109996 0.184713
vt 0.109996 0.097412
vt 0.284598 0.184713
vt 0.197297 0.184713
vt 0.109996 0.097412
vt 0.284598 0.184713
vt 0.197297 0.184713
vt 0.109996 0.184713
vt 0.109996 0.097412
vt 0.284598 0.097412
vt 0.197297 0.010110
vt 0.284598 0.010110
vt 0.197297 0.097412
vt 0.109996 0.010110
vt 0.197297 0.097412
vt 0.284598 0.097412
vt 0.284598 0.010110
vt 0.284598 0.097412
vt 0.198327 0.106683
vt 0.109996 0.010110
vt 0.197297 0.097412
vt 0.197297 0.010110
vt 0.197297 0.097412
vt 0.284598 0.010110
vt 0.284598 0.097412
vt 0.197297 0.184713
vt 0.284598 0.184713
vt 0.109996 0.010110
vt 0.197297 0.010110
vt 0.284598 0.010110
vt 0.284598 0.097412
vt 0.109996 0.184713
vt 0.109996 0.097412
vt 0.109996 0.010110
vt 0.197297 0.010110
vt 0.197297 0.010110
vt 0.109996 0.097412
vt 0.109996 0.010110
vt 0.284598 0.184713
vt 0.197297 0.184713
vt 0.109996 0.184713
vt 0.109996 0.097412
vt 0.197297 0.107713
vt 0.284598 0.010110
vt 0.284598 0.097412
vt 0.284598 0.184713
vt 0.197297 0.184713
vt 0.109996 0.184713
vt 0.109996 0.097412
vt 0.197297 0.184713
vt 0.109996 0.184713
vt 0.284598 0.184713
vt 0.109996 0.097412
vt 0.284598 0.184713
vt 0.197297 0.184713
vt 0.109996 0.184713
vt 0.109996 0.097412
vt 0.284598 0.097412
vt 0.197297 0.010110
vt 0.284598 0.010110
vt 0.197297 0.097412
vt 0.109996 0.010110
vt 0.197297 0.097412
vt 0.284598 0.097412
vt 0.284598 0.010110
vt 0.284598 0.097412
vt 0.198065 0.103575
vt 0.109996 0.010110
vt 0.197297 0.097412
vt 0.197297 0.010110
vt 0.197297 0.097412
vt 0.284598 0.010110
vt 0.284598 0.097412
vt 0.197297 0.184713
vt 0.284598 0.184713
vt 0.109996 0.010110
vt 0.197297 0.010110
vt 0.284598 0.010110
vt 0.284598 0.097412
vt 0.109996 0.184713
vt 0.109996 0.097412
vt 0.109996 0.010110
vt 0.197297 0.010110
vt 0.197297 0.010110
vt 0.109996 0.097412
vt 0.109996 0.010110
vt 0.284598 0.184713
vt 0.197297 0.184713
vt 0.109996 0.184713
vt 0.109996 0.097412
vt 0.197227 0.104256
vt 0.284598 0.010110
vt 0.284598 0.097412
vt 0.284598 0.184713
vt 0.197297 0.184713
vt 0.109996 0.184713
vt 0.109996 0.097412
vt 0.197297 0.184713
vt 0.109996 0.184713
vt 0.284598 0.184713
vt 0.109996 0.097412
vt 0.284598 0.184713
vt 0.197297 0.184713
vt 0.109996 0.184713
vt 0.109996 0.097412
vt 0.284598 0.097412
vt 0.197297 0.010110
vt 0.284598 0.010110
vt 0.197297 0.097412
vt 0.109996 0.010110
vt 0.197297 0.097412
vt 0.284598 0.097412
vt 0.284598 0.010110
vt 0.284598 0.097412
vt 0.198065 0.103575
vt 0.109996 0.010110
vt 0.197297 0.097412
vt 0.197297 0.010110
vt 0.197297 0.097412
vt 0.284598 0.010110
vt 0.284598 0.097412
vt 0.197297 0.184713
vt 0.284598 0.184713
vt 0.109996 0.010110
vt 0.197297 0.010110
vt 0.284598 0.010110
vt 0.284598 0.097412
vt 0.109996 0.184713
vt 0.109996 0.097412
vt 0.109996 0.010110
vt 0.197297 0.010110
vt 0.197297 0.010110
vt 0.109996 0.097412
vt 0.109996 0.010110
vt 0.284598 0.184713
vt 0.197297 0.184713
vt 0.109996 0.184713
vt 0.109996 0.097412
vt 0.197227 0.104256
vt 0.284598 0.010110
vt 0.284598 0.097412
vt 0.284598 0.184713
vt 0.197297 0.184713
vt 0.109996 0.184713
vt 0.109996 0.097412
vt 0.197297 0.184713
vt 0.109996 0.184713
vt 0.284598 0.184713
vt 0.109996 0.097412
vt 0.284598 0.184713
vt 0.197297 0.184713
vt 0.109996 0.184713
vt 0.109996 0.097412
vt 0.197891 0.102720
vt 0.284598 0.010110
vt 0.284598 0.097412
vt 0.197297 0.097412
vt 0.109996 0.010110
vt 0.197297 0.010110
vt 0.197297 0.097412
vt 0.284598 0.097412
vt 0.284598 0.010110
vt 0.284598 0.097412
vt 0.109996 0.010110
vt 0.197297 0.097412
vt 0.197297 0.010110
vt 0.197297 0.097412
vt 0.284598 0.010110
vt 0.284598 0.097412
vt 0.197297 0.184713
vt 0.284598 0.184713
vt 0.109996 0.010110
vt 0.197297 0.010110
vt 0.284598 0.010110
vt 0.284598 0.097412
vt 0.109996 0.184713
vt 0.109996 0.097412
vt 0.109996 0.010110
vt 0.197297 0.010110
vt 0.197297 0.103313
vt 0.109996 0.010110
vt 0.197297 0.010110
vt 0.284598 0.184713
vt 0.197297 0.184713
vt 0.109996 0.184713
vt 0.109996 0.097412
vt 0.284598 0.010110
vt 0.284598 0.097412
vt 0.284598 0.184713
vt 0.197297 0.184713
vt 0.109996 0.184713
vt 0.109996 0.097412
vt 0.109996 0.097412
vt 0.197297 0.184713
vt 0.109996 0.184713
vt 0.284598 0.184713
vt 0.109996 0.097412
vt 0.284598 0.184713
vt 0.197297 0.184713
vt 0.109996 0.184713
vt 0.109996 0.097412
vt 0.197891 0.102720
vt 0.284598 0.010110
vt 0.284598 0.097412
vt 0.197297 0.097412
vt 0.109996 0.010110
vt 0.197297 0.010110
vt 0.197297 0.097412
vt 0.284598 0.097412
vt 0.284598 0.010110
vt 0.284598 0.097412
vt 0.109996 0.010110
vt 0.197297 0.097412
vt 0.197297 0.010110
vt 0.197297 0.097412
vt 0.284598 0.010110
vt 0.284598 0.097412
vt 0.197297 0.184713
vt 0.284598 0.184713
vt 0.109996 0.010110
vt 0.197297 0.010110
vt 0.284598 0.010110
vt 0.284598 0.097412
vt 0.109996 0.184713
vt 0.109996 0.097412
vt 0.109996 0.010110
vt 0.197297 0.010110
vt 0.197297 0.103313
vt 0.109996 0.010110
vt 0.197297 0.010110
vt 0.284598 0.184713
vt 0.197297 0.184713
vt 0.109996 0.184713
vt 0.109996 0.097412
vt 0.284598 0.010110
vt 0.284598 0.097412
vt 0.284598 0.184713
vt 0.197297 0.184713
vt 0.109996 0.184713
vt 0.109996 0.097412
vt 0.109996 0.097412
vt 0.197297 0.184713
vt 0.109996 0.184713
vt 0.284598 0.184713
vt 0.109996 0.097412
vt 0.284598 0.184713
vt 0.197297 0.184713
vt 0.109996 0.184713
vt 0.109996 0.097412
vt 0.284598 0.097412
vt 0.197297 0.010110
vt 0.284598 0.010110
vt 0.197297 0.097412
vt 0.109996 0.010110
vt 0.197297 0.097412
vt 0.284598 0.097412
vt 0.284598 0.010110
vt 0.284598 0.097412
vt 0.198118 0.105024
vt 0.109996 0.010110
vt 0.197297 0.097412
vt 0.197297 0.010110
vt 0.197297 0.097412
vt 0.284598 0.010110
vt 0.284598 0.097412
vt 0.284598 0.184713
vt 0.197297 0.184713
vt 0.109996 0.010110
vt 0.197297 0.010110
vt 0.284598 0.010110
vt 0.284598 0.097412
vt 0.109996 0.184713
vt 0.109996 0.097412
vt 0.109996 0.010110
vt 0.197297 0.010110
vt 0.197297 0.010110
vt 0.109996 0.097412
vt 0.109996 0.010110
vt 0.284598 0.184713
vt 0.197297 0.184713
vt 0.109996 0.184713
vt 0.109996 0.097412
vt 0.197315 0.105862
vt 0.284598 0.010110
vt 0.284598 0.097412
vt 0.284598 0.184713
vt 0.197297 0.184713
vt 0.109996 0.184713
vt 0.109996 0.097412
vt 0.109996 0.184713
vt 0.284598 0.184713
vt 0.197297 0.184713
vt 0.109996 0.097412
vt 0.284598 0.184713
vt 0.197297 0.184713
vt 0.109996 0.184713
vt 0.109996 0.097412
vt 0.080823 0.013510
vt 0.080823 0.233025
vt 0.080823 0.147825
vt 0.977835 0.242602
vt 0.277961 0.197774
vt 0.348639 0.078338
vt 0.348230 0.080526
vt 0.308132 0.080447
vt 0.308541 0.078282
vt 0.348930 0.113133
vt 0.348882 0.115326
vt 0.308784 0.115301
vt 0.308832 0.113140
vt 0.348639 0.117519
vt 0.308541 0.117463
vt 0.347709 0.082711
vt 0.347136 0.084887
vt 0.307037 0.084790
vt 0.307611 0.082615
vt 0.346106 0.089227
vt 0.345771 0.091390
vt 0.305677 0.091349
vt 0.306008 0.089156
vt 0.346575 0.087059
vt 0.306481 0.086970
vt 0.346323 0.100038
vt 0.346844 0.102205
vt 0.306746 0.102302
vt 0.306225 0.100117
vt 0.345624 0.093550
vt 0.305525 0.093542
vt 0.345671 0.095710
vt 0.305573 0.095735
vt 0.345914 0.097873
vt 0.305816 0.097928
vt 0.348778 0.110937
vt 0.308684 0.110980
vt 0.347418 0.104381
vt 0.307320 0.104477
vt 0.347974 0.106561
vt 0.307880 0.106650
vt 0.348447 0.108747
vt 0.308349 0.108818
vt 0.606130 0.212747
vt 0.632013 0.215136
vt 0.627396 0.154100
vt 0.582803 0.203281
vt 0.564860 0.187880
vt 0.554468 0.168405
vt 0.552874 0.147206
vt 0.560258 0.126832
vt 0.575749 0.109758
vt 0.597467 0.098026
vt 0.622794 0.093052
vt 0.648677 0.095453
vt 0.672004 0.104920
vt 0.689931 0.120320
vt 0.700339 0.139795
vt 0.701933 0.160994
vt 0.694548 0.181368
vt 0.679057 0.198443
vt 0.657340 0.210174
vt 0.606130 0.212747
vt 0.632013 0.215136
vt 0.627396 0.154100
vt 0.582803 0.203281
vt 0.606130 0.212747
vt 0.564860 0.187880
vt 0.582803 0.203281
vt 0.554468 0.168405
vt 0.564860 0.187880
vt 0.552874 0.147206
vt 0.554468 0.168405
vt 0.560258 0.126832
vt 0.552874 0.147206
vt 0.575749 0.109758
vt 0.560258 0.126832
vt 0.597467 0.098026
vt 0.575749 0.109758
vt 0.622794 0.093052
vt 0.597467 0.098026
vt 0.648677 0.095453
vt 0.622794 0.093052
vt 0.672004 0.104920
vt 0.648677 0.095453
vt 0.689931 0.120320
vt 0.672004 0.104920
vt 0.700339 0.139795
vt 0.689931 0.120320
vt 0.701933 0.160994
vt 0.700339 0.139795
vt 0.694548 0.181368
vt 0.701933 0.160994
vt 0.679057 0.198443
vt 0.694548 0.181368
vt 0.657340 0.210174
vt 0.679057 0.198443
vt 0.632013 0.215136
vt 0.657340 0.210174
vt 0.715216 0.681708
vt 0.730439 0.664570
vt 0.738565 0.672878
vt 0.703044 0.668109
vt 0.681346 0.638433
vt 0.688957 0.627109
vt 0.711574 0.629232
vt 0.781385 0.584390
vt 0.746659 0.565601
vt 0.828160 0.514270
vt 0.835320 0.528915
vt 0.715216 0.681708
vt 0.738565 0.672878
vt 0.730439 0.664570
vt 0.703044 0.668109
vt 0.681346 0.638433
vt 0.711574 0.629232
vt 0.688957 0.627109
vt 0.745989 0.669828
vt 0.837374 0.596914
vt 0.836733 0.559559
vt 0.859301 0.554449
vt 0.874695 0.612482
vt 0.965301 0.600529
vt 0.986404 0.663345
vt 0.916409 0.562801
vt 0.897206 0.542155
vt 0.939730 0.662489
vt 0.964582 0.682515
vt 0.837138 0.596914
vt 0.859301 0.554449
vt 0.836733 0.559559
vt 0.874695 0.612482
vt 0.916409 0.562801
vt 0.897206 0.542155
vt 0.044280 0.451938
vt 0.000168 0.489019
vt 0.015700 0.412712
vt 0.069469 0.454138
vt 0.072916 0.413806
vt 0.050506 0.412975
vt 0.136494 0.313633
vt 0.074489 0.373115
vt 0.047360 0.372699
vt 0.116375 0.304223
vt 0.085188 0.339107
vt 0.086374 0.295131
vt 0.011393 0.331657
vt 0.013007 0.288626
vt 0.154252 0.281674
vt 0.134678 0.272986
vt 0.128998 0.297848
vt 0.106632 0.279054
vt 0.121811 0.291749
vt 0.997599 0.885684
vt 0.949733 0.935786
vt 0.934367 0.920630
vt 0.982275 0.867396
vt 0.815858 0.976839
vt 0.825962 0.988676
vt 0.758477 0.998571
vt 0.883259 0.965221
vt 0.869997 0.953291
vt 0.681563 0.921883
vt 0.766518 0.864046
vt 0.819984 0.821615
vt 0.874376 0.782315
vt 0.665397 0.934001
vt 0.579866 0.874692
vt 0.589198 0.856217
vt 0.767192 0.686714
vt 0.715915 0.736315
vt 0.661566 0.778245
vt 0.622161 0.814600
vt 0.764034 0.862010
vt 0.997599 0.885684
vt 0.934367 0.920630
vt 0.949733 0.935786
vt 0.982275 0.867396
vt 0.815858 0.976839
vt 0.758477 0.998571
vt 0.825962 0.988676
vt 0.883259 0.965221
vt 0.869997 0.953291
vt 0.769132 0.161360
vt 0.730829 0.150541
vt 0.762583 0.143572
vt 0.809312 0.138677
vt 0.842765 0.235936
vt 0.797005 0.231513
vt 0.837904 0.210069
vt 0.842642 0.189137
vt 0.861697 0.174970
vt 0.817865 0.349405
vt 0.895354 0.342785
vt 0.930564 0.464239
vt 0.914246 0.468219
vt 0.911713 0.339323
vt 0.851771 0.248789
vt 0.874727 0.257704
vt 0.900644 0.258778
vt 0.841989 0.475389
vt 0.894170 0.491340
vt 0.885020 0.503795
vt 0.909937 0.482505
vt 0.882459 0.514885
vt 0.878587 0.154316
vt 0.900031 0.158137
vt 0.857776 0.120132
vt 0.809312 0.122838
vt 0.763339 0.134737
vt 0.769132 0.161360
vt 0.762583 0.143572
vt 0.730829 0.150541
vt 0.809312 0.138677
vt 0.842765 0.235936
vt 0.797005 0.231513
vt 0.837904 0.210069
vt 0.842642 0.189137
vt 0.861697 0.174970
vt 0.817865 0.349405
vt 0.895354 0.342785
vt 0.914246 0.468219
vt 0.930564 0.464239
vt 0.911713 0.339323
vt 0.874727 0.257704
vt 0.851771 0.248789
vt 0.900644 0.258778
vt 0.841989 0.475389
vt 0.885020 0.503795
vt 0.894170 0.491340
vt 0.909937 0.482505
vt 0.882459 0.514885
vt 0.878587 0.154316
vt 0.900031 0.158137
vt 0.857776 0.120132
vt 0.809312 0.122838
vt 0.763339 0.134737
vt 0.628519 0.283495
vt 0.681281 0.262747
vt 0.629393 0.304400
vt 0.728360 0.300015
vt 0.718958 0.427242
vt 0.579618 0.406338
vt 0.502005 0.540690
vt 0.618316 0.625247
vt 0.591351 0.284748
vt 0.455801 0.619297
vt 0.469428 0.800938
vt 0.433865 0.777684
vt 0.427962 0.799294
vt 0.429419 0.647169
vt 0.440205 0.602620
vt 0.485680 0.534818
vt 0.542888 0.397569
vt 0.613069 0.270420
vt 0.351258 0.916127
vt 0.362664 0.927460
vt 0.451428 0.891445
vt 0.419726 0.927147
vt 0.407848 0.966842
vt 0.365215 0.963397
vt 0.305893 0.942884
vt 0.395677 0.403598
vt 0.289787 0.581089
vt 0.161597 0.912741
vt 0.133336 0.982771
vt 0.197741 0.999490
vt 0.232253 0.999807
vt 0.336210 0.991191
vt 0.338906 0.954315
vt 0.484587 0.242469
vt 0.021322 0.874523
vt 0.000487 0.822270
vt 0.169468 0.522682
vt 0.204740 0.448773
vt 0.368348 0.218355
vt 0.298751 0.323425
vt 0.037852 0.700017
vt 0.199530 0.800897
vt 0.346850 0.640905
vt 0.323748 0.783713
vt 0.274483 0.624385
vt 0.211226 0.768994
vt 0.114008 0.726637
vt 0.193663 0.595887
vt 0.143013 0.566448
vt 0.047836 0.678721
vt 0.327519 0.950483
vt 0.628519 0.283495
vt 0.629393 0.304400
vt 0.681281 0.262747
vt 0.728360 0.300015
vt 0.718958 0.427242
vt 0.579618 0.406338
vt 0.502005 0.540690
vt 0.618316 0.625247
vt 0.591351 0.284748
vt 0.455801 0.619297
vt 0.469428 0.800938
vt 0.433865 0.777684
vt 0.427962 0.799294
vt 0.429419 0.647169
vt 0.440205 0.602620
vt 0.485680 0.534818
vt 0.542888 0.397569
vt 0.613069 0.270420
vt 0.351258 0.916127
vt 0.362664 0.927460
vt 0.451428 0.891445
vt 0.419726 0.927147
vt 0.407848 0.966842
vt 0.365215 0.963397
vn -0.0065 -0.9928 -0.1195
vn -0.0046 -0.9956 -0.0935
vn -0.0023 -0.9932 -0.1167
vn 0.0002 -0.9928 -0.1200
vn 0.0054 -0.9938 -0.1110
vn -0.0002 -0.9936 -0.1134
vn 0.0011 -0.9945 -0.1051
vn 0.0010 -0.9944 -0.1054
vn -0.0060 -0.9940 -0.1097
vn -0.0023 -0.9940 -0.1093
vn 0.0168 0.9995 0.0257
vn 0.0152 0.9984 0.0551
vn 0.0124 0.9995 0.0282
vn 0.0087 0.9996 0.0263
vn 0.0029 0.9993 0.0368
vn 0.0104 0.9995 0.0315
vn 0.0104 0.9992 0.0379
vn 0.0172 0.9993 0.0344
vn 0.0132 0.9993 0.0349
vn 0.0796 -0.7390 -0.6690
vn -0.8407 0.2490 0.4809
vn 0.3891 -0.9200 0.0475
vn 0.2340 -0.9721 -0.0180
vn -0.5703 -0.6027 -0.5582
vn -0.6907 -0.7229 0.0183
vn -0.5613 -0.6090 0.5604
vn -0.1284 -0.9796 -0.1549
vn -0.0949 -0.7395 -0.6665
vn -0.3794 -0.9236 0.0547
vn -0.2343 -0.9721 -0.0131
vn 0.5587 -0.6027 -0.5698
vn 0.6908 -0.7231 0.0032
vn 0.5717 -0.6100 0.5486
vn -0.5468 -0.5165 -0.6590
vn -0.2493 -0.8345 -0.4915
vn -0.7475 -0.4982 -0.4394
vn -0.8845 -0.1476 -0.4426
vn -0.6302 0.5711 0.5260
vn -0.6769 -0.0742 0.7324
vn -0.2846 0.3758 -0.8819
vn 0.1511 0.7367 0.6591
vn -0.4043 0.5475 -0.7327
vn -0.2794 0.6202 0.7330
vn -0.6181 0.4986 -0.6078
vn -0.7994 0.6003 0.0248
vn -0.6047 0.4516 0.6560
vn -0.0537 0.0366 0.9979
vn 0.4392 0.1128 0.8913
vn 0.0687 -0.2019 0.9770
vn -0.9709 -0.2331 0.0558
vn 0.4523 0.7668 0.4556
vn 0.8962 0.4120 0.1647
vn 0.8416 0.2971 -0.4510
vn -0.1095 0.7285 0.6763
vn 0.3895 0.5481 -0.7402
vn 0.3137 0.6091 0.7284
vn 0.6055 0.4987 -0.6202
vn 0.7996 0.6005 0.0075
vn 0.6192 0.4510 0.6427
vn 0.0744 0.0366 0.9966
vn -0.3869 0.1205 0.9142
vn 0.0116 -0.2048 0.9787
vn 0.9574 0.2076 -0.2007
vn -0.3824 -0.2245 -0.8963
vn -0.0916 -0.9958 0.0018
vn -0.2297 -0.8151 -0.5319
vn -0.6325 0.7735 -0.0389
vn -0.8808 -0.4732 0.0177
vn -0.3177 0.2785 -0.9064
vn -0.4378 -0.1392 -0.8882
vn -0.6369 0.5332 -0.5568
vn -0.8219 -0.5672 0.0527
vn -0.2743 -0.3559 -0.8934
vn -0.5394 -0.5587 -0.6300
vn -0.4665 0.1446 -0.8726
vn -0.6336 -0.7736 -0.0026
vn -0.4445 0.8956 -0.0179
vn -0.9312 0.3645 0.0085
vn -0.7405 0.4357 -0.5116
vn 0.9548 0.0665 -0.2896
vn 0.4578 0.1639 -0.8738
vn 0.3282 0.9437 -0.0408
vn 0.2869 0.3531 -0.8905
vn 0.5942 -0.8044 0.0007
vn 0.9262 0.3769 0.0052
vn 0.2513 -0.3414 -0.9057
vn 0.8350 -0.5465 0.0643
vn 0.5625 -0.5959 -0.5732
vn 0.8476 0.5262 0.0677
vn 0.3365 0.2909 -0.8956
vn 0.6445 0.5311 -0.5501
vn 0.9460 -0.3239 -0.0147
vn 0.5789 0.8154 0.0048
vn 0.4604 -0.2443 -0.8534
vn 0.3598 -0.9276 -0.1009
vn 0.0014 0.2314 -0.9729
vn 0.1546 -0.7513 -0.6416
vn 0.0456 -0.1490 -0.9878
vn -0.0990 -0.1914 -0.9765
vn 0.2544 -0.0644 -0.9649
vn -0.0983 0.0792 -0.9920
vn -0.0041 0.0701 -0.9975
vn 0.3926 -0.4614 -0.7956
vn -0.0389 -0.1783 -0.9832
vn -0.0715 -0.1831 -0.9805
vn 0.0076 -0.1930 -0.9812
vn -0.0153 -0.1702 -0.9853
vn -0.0112 -0.1922 -0.9813
vn -0.0442 0.1218 -0.9916
vn 0.0118 0.1005 -0.9949
vn -0.1566 -0.1505 -0.9761
vn -0.0235 0.0000 0.9997
vn 0.1784 0.7923 0.5835
vn 0.3824 0.2245 0.8963
vn 0.4912 0.0548 0.8693
vn 0.6249 -0.2848 -0.7270
vn 0.6756 -0.5763 -0.4599
vn 0.2809 -0.8546 -0.4368
vn 0.3177 -0.2785 0.9064
vn 0.6369 -0.5332 0.5568
vn 0.5563 0.5209 -0.6474
vn 0.2743 0.3559 0.8934
vn 0.5394 0.5587 0.6300
vn 0.4665 -0.1446 0.8726
vn 0.3505 0.7712 -0.5314
vn 0.8887 -0.1040 -0.4465
vn 0.6702 -0.6895 -0.2747
vn 0.7405 -0.4357 0.5116
vn -0.9548 -0.0665 0.2896
vn -0.4578 -0.1639 0.8738
vn -0.2869 -0.3531 0.8905
vn -0.5988 -0.7569 -0.2619
vn -0.8900 -0.1073 -0.4432
vn -0.2684 0.8352 -0.4799
vn -0.2513 0.3414 0.9057
vn -0.5007 0.5206 -0.6916
vn -0.5625 0.5959 0.5732
vn -0.3365 -0.2909 0.8956
vn -0.6445 -0.5311 0.5501
vn -0.2493 -0.8344 -0.4915
vn -0.4604 0.2443 0.8534
vn -0.0014 -0.2314 0.9729
vn -0.0456 0.1490 0.9878
vn -0.1546 0.7513 0.6416
vn 0.0990 0.1914 0.9765
vn -0.2544 0.0644 0.9649
vn 0.0983 -0.0792 0.9920
vn -0.5021 -0.3648 0.7841
vn 0.0041 -0.0701 0.9975
vn 0.0389 0.1783 0.9832
vn 0.0715 0.1831 0.9805
vn 0.0153 0.1702 0.9853
vn -0.0076 0.1930 0.9812
vn 0.0112 0.1922 0.9813
vn 0.0442 -0.1218 0.9916
vn -0.0118 -0.1005 0.9949
vn 0.1566 0.1505 0.9761
vn 0.0235 0.0000 -0.9997
vn -0.1784 -0.7923 -0.5835
vn -0.8899 -0.1073 -0.4433
vn -0.5006 0.5206 -0.6916
vn -0.4378 -0.1391 -0.8882
vn 0.6249 -0.2847 -0.7270
vn -0.2684 0.8352 -0.4800
vn 0.3504 0.7713 -0.5314
vn 0.6755 -0.5763 -0.4599
vn -0.2866 0.7626 -0.5799
vn -0.4215 0.3764 -0.8250
vn -0.7561 0.3951 -0.5218
vn 0.0061 0.3660 -0.9306
vn 0.0051 0.6316 -0.7753
vn 0.2810 0.1996 -0.9387
vn 0.3383 0.4572 -0.8225
vn 0.2254 0.7848 -0.5773
vn 0.7414 0.4005 -0.5385
vn -0.6929 0.2430 -0.6788
vn -0.7916 0.0777 -0.6061
vn -0.9313 0.0784 -0.3557
vn -0.9286 0.0343 -0.3695
vn -0.8051 0.0368 -0.5920
vn -0.8542 0.0114 -0.5198
vn -0.9318 0.0114 -0.3628
vn -0.2741 0.1872 -0.9433
vn -0.7773 -0.0960 -0.6218
vn -0.9207 -0.0302 -0.3890
vn -0.8985 -0.0702 -0.4333
vn -0.5360 -0.2873 -0.7938
vn -0.3589 -0.1448 -0.9221
vn -0.4697 -0.0132 -0.8828
vn -0.3764 0.0314 -0.9259
vn 0.0026 0.0029 -1.0000
vn -0.0029 -0.1928 -0.9812
vn 0.3568 -0.1371 -0.9241
vn 0.4658 -0.0135 -0.8848
vn 0.3735 0.0330 -0.9271
vn -0.1218 -0.3025 -0.9453
vn -0.0047 -0.3221 -0.9467
vn 0.1301 -0.2880 -0.9488
vn 0.5364 -0.2800 -0.7962
vn 0.6533 0.2875 -0.7004
vn 0.7837 0.0748 -0.6166
vn 0.9264 0.0734 -0.3693
vn 0.9232 0.0295 -0.3832
vn 0.7973 0.0337 -0.6027
vn 0.8480 0.0078 -0.5299
vn 0.9265 0.0064 -0.3763
vn 0.7703 -0.0970 -0.6302
vn 0.9153 -0.0335 -0.4015
vn 0.8930 -0.0719 -0.4443
vn 0.5851 -0.2148 0.7820
vn 0.6914 -0.2268 0.6860
vn -0.4003 -0.0179 0.9162
vn 0.2970 -0.0131 0.9548
vn -0.6790 -0.2234 0.6993
vn -0.5807 -0.2077 0.7872
vn -0.6072 0.0406 0.7935
vn 0.4914 0.0407 0.8700
vn -0.7152 0.5678 0.4075
vn -0.1786 0.7182 0.6726
vn -0.2414 0.9181 0.3145
vn -0.3123 0.3075 0.8988
vn -0.7504 0.3385 0.5677
vn 0.0128 0.7149 0.6991
vn -0.0022 0.9594 0.2820
vn 0.0436 0.9744 0.2206
vn 0.0213 0.8723 0.4884
vn -0.1310 0.9851 -0.1116
vn -0.6777 0.7328 -0.0617
vn -0.6583 0.6788 -0.3254
vn -0.1611 0.9389 -0.3042
vn -0.2950 0.8364 -0.4620
vn -0.5634 0.6806 -0.4684
vn 0.0053 0.9807 -0.1954
vn 0.0034 0.9451 -0.3269
vn 0.1000 0.9883 -0.1156
vn 0.1281 0.9453 -0.2999
vn 0.9371 0.3417 0.0716
vn 0.6684 0.7406 -0.0695
vn 0.6382 0.6931 -0.3353
vn 0.2311 0.8589 -0.4570
vn 0.5176 0.7100 -0.4774
vn -0.9719 0.1273 -0.1978
vn -0.9363 0.2172 -0.2759
vn -0.9817 0.1740 -0.0768
vn -0.9948 0.0419 -0.0930
vn -0.9947 0.0984 -0.0307
vn -0.9625 -0.0038 -0.2711
vn -0.9759 0.1902 -0.1066
vn -0.9765 0.2155 0.0081
vn -0.9986 0.0196 -0.0499
vn 0.9697 0.1217 -0.2118
vn 0.9335 0.2123 -0.2891
vn 0.9816 0.1681 -0.0909
vn 0.9935 0.0354 -0.1078
vn 0.9947 0.0917 -0.0455
vn 0.9584 -0.0090 -0.2852
vn 0.9755 0.1841 -0.1205
vn 0.9779 0.2088 -0.0058
vn 0.9978 0.0128 -0.0651
vn 0.9735 0.2156 0.0768
vn 0.3915 0.9202 -0.0010
vn -0.4151 0.5666 0.7118
vn -0.0771 -0.6281 0.7743
vn -0.0110 0.2354 0.9718
vn 0.0902 -0.6283 0.7728
vn 0.0271 0.2355 0.9715
vn 0.4287 0.5687 0.7020
vn -0.9457 -0.3249 0.0126
vn -0.7220 0.6918 0.0096
vn -0.0717 -0.9974 0.0009
vn -0.7757 -0.2492 0.5798
vn 0.0712 -0.9975 -0.0009
vn 0.7874 -0.2494 0.5637
vn 0.9451 -0.3267 -0.0126
vn -0.0106 -0.9739 -0.2266
vn -0.3800 -0.6866 -0.6199
vn -0.0065 -0.6981 -0.7160
vn -0.9981 -0.0107 0.0603
vn -0.0087 0.2058 -0.9786
vn -0.7603 0.1434 -0.6335
vn -0.7143 -0.1503 0.6835
vn 0.0123 -0.2056 0.9786
vn 0.0046 -0.9372 0.3488
vn 0.9995 -0.0085 0.0297
vn 0.3915 -0.6711 -0.6296
vn 0.7606 0.1386 -0.6343
vn 0.5410 -0.8219 -0.1785
vn 0.3779 -0.8780 0.2939
vn 0.7495 -0.1442 0.6461
vn 0.0028 0.9723 0.2337
vn -0.3744 0.8882 -0.2664
vn -0.5036 0.8321 0.2325
vn -0.0034 0.9375 -0.3480
vn -0.3423 0.6790 0.6494
vn 0.0088 0.6976 0.7164
vn 0.3927 0.8750 -0.2832
vn 0.5442 0.8117 0.2122
vn 0.3830 0.6657 0.6404
vn -0.0075 -0.6958 -0.7182
vn -0.5801 -0.8080 -0.1033
vn -0.4942 -0.6632 -0.5621
vn -0.9949 -0.0178 0.0992
vn -0.0102 0.1999 -0.9798
vn -0.7445 0.1351 -0.6538
vn -0.4442 -0.8393 0.3135
vn -0.6778 -0.1447 0.7208
vn -0.0021 -0.9801 -0.1987
vn 0.0101 -0.1985 0.9800
vn 0.0039 -0.9199 0.3921
vn 0.9961 -0.0194 0.0859
vn 0.4842 -0.6638 -0.5700
vn 0.7330 0.1347 -0.6668
vn 0.5777 -0.8087 -0.1109
vn 0.4489 -0.8395 0.3061
vn 0.6898 -0.1453 0.7093
vn -0.5764 0.7867 0.2210
vn -0.0041 0.9214 -0.3887
vn -0.4909 0.8324 -0.2572
vn 0.0021 0.9798 0.1999
vn -0.4408 0.6525 0.6164
vn 0.0076 0.6942 0.7197
vn 0.5808 0.7856 0.2134
vn 0.4873 0.8320 -0.2651
vn 0.4519 0.6519 0.6089
vn -0.0331 -0.5993 -0.7998
vn -0.6621 -0.7440 -0.0900
vn -0.5523 -0.5293 -0.6441
vn -0.9957 -0.0137 0.0915
vn -0.0020 0.1993 -0.9799
vn -0.7269 0.1421 -0.6719
vn -0.5024 -0.7490 0.4319
vn -0.6637 -0.1440 0.7340
vn -0.0454 -0.9792 -0.1979
vn 0.0008 -0.1993 0.9799
vn -0.0335 -0.8633 0.5035
vn 0.9962 -0.0223 0.0842
vn 0.5197 -0.5541 -0.6503
vn 0.7238 0.1323 -0.6772
vn 0.6246 -0.7744 -0.1008
vn 0.4691 -0.7759 0.4217
vn 0.6665 -0.1539 0.7294
vn -0.6244 0.7514 0.2135
vn 0.0303 0.8641 -0.5024
vn -0.5225 0.7637 -0.3791
vn 0.0451 0.9787 0.2004
vn -0.4674 0.5488 0.6931
vn 0.0345 0.5980 0.8008
vn 0.6620 0.7211 0.2043
vn 0.5497 0.7394 -0.3888
vn 0.5039 0.5211 0.6888
vn -0.0331 -0.5992 -0.7999
vn -0.6618 -0.7442 -0.0901
vn -0.5524 -0.5291 -0.6441
vn -0.9957 -0.0134 0.0916
vn -0.0021 0.1994 -0.9799
vn -0.7268 0.1424 -0.6719
vn -0.5024 -0.7489 0.4321
vn -0.6636 -0.1439 0.7341
vn -0.0453 -0.9792 -0.1978
vn -0.0334 -0.8633 0.5036
vn 0.9962 -0.0220 0.0843
vn 0.5196 -0.5545 -0.6501
vn 0.7238 0.1325 -0.6772
vn 0.6246 -0.7744 -0.1006
vn 0.6665 -0.1537 0.7295
vn -0.6243 0.7515 0.2133
vn 0.0303 0.8642 -0.5022
vn -0.5227 0.7636 -0.3792
vn 0.0453 0.9787 0.2004
vn 0.0347 0.5980 0.8008
vn 0.6622 0.7209 0.2045
vn 0.5496 0.7396 -0.3886
vn 0.5040 0.5209 0.6889
vn -0.0021 -0.9801 -0.1986
vn -0.5380 -0.5403 -0.6470
vn -0.0084 -0.5996 -0.8002
vn -0.9969 -0.0138 0.0780
vn -0.6461 -0.7564 -0.1017
vn -0.0102 0.1993 -0.9799
vn -0.7258 0.1385 -0.6738
vn -0.4886 -0.7609 0.4270
vn -0.6656 -0.1476 0.7316
vn 0.0102 -0.1993 0.9799
vn 0.0052 -0.8638 0.5038
vn 0.9974 -0.0168 0.0707
vn 0.5281 -0.5409 -0.6546
vn 0.7160 0.1376 -0.6844
vn 0.6434 -0.7580 -0.1069
vn 0.4935 -0.7618 0.4197
vn 0.6762 -0.1484 0.7217
vn 0.0022 0.9798 0.2000
vn -0.5353 0.7523 -0.3840
vn -0.6428 0.7388 0.2024
vn -0.0053 0.8646 -0.5025
vn -0.4859 0.5353 0.6909
vn 0.0084 0.5985 0.8011
vn 0.6464 0.7371 0.1971
vn 0.5310 0.7515 -0.3916
vn 0.4964 0.5349 0.6837
vn -0.0020 -0.9802 -0.1981
vn -0.5381 -0.5403 -0.6469
vn -0.0084 -0.5998 -0.8001
vn -0.9969 -0.0136 0.0781
vn -0.6460 -0.7566 -0.1013
vn -0.7258 0.1388 -0.6738
vn -0.4885 -0.7608 0.4272
vn -0.6656 -0.1474 0.7316
vn 0.0102 -0.1992 0.9799
vn 0.0052 -0.8637 0.5040
vn 0.9974 -0.0162 0.0699
vn 0.5283 -0.5410 -0.6544
vn 0.7159 0.1379 -0.6844
vn 0.6432 -0.7582 -0.1066
vn 0.4935 -0.7616 0.4200
vn 0.6762 -0.1482 0.7217
vn 0.0021 0.9797 0.2006
vn -0.5353 0.7525 -0.3837
vn -0.6429 0.7386 0.2028
vn -0.0053 0.8647 -0.5023
vn -0.4858 0.5352 0.6910
vn 0.0084 0.5982 0.8013
vn 0.6465 0.7369 0.1975
vn 0.5309 0.7516 -0.3914
vn 0.4963 0.5348 0.6839
vn -0.0075 -0.6952 -0.7188
vn -0.5775 -0.8095 -0.1059
vn -0.4902 -0.6644 -0.5642
vn -0.9953 -0.0171 0.0958
vn -0.0105 0.2001 -0.9797
vn -0.7434 0.1353 -0.6550
vn -0.4417 -0.8408 0.3130
vn -0.6764 -0.1454 0.7220
vn -0.0025 -0.9800 -0.1992
vn 0.0112 -0.1991 0.9799
vn 0.0047 -0.9203 0.3911
vn 0.9983 -0.0132 0.0561
vn 0.4746 -0.6624 -0.5797
vn 0.7224 0.1370 -0.6778
vn 0.5758 -0.8073 -0.1294
vn 0.4522 -0.8404 0.2986
vn 0.6994 -0.1439 0.7001
vn -0.5738 0.7891 0.2192
vn -0.0040 0.9211 -0.3894
vn -0.4866 0.8343 -0.2591
vn 0.0019 0.9798 0.1997
vn -0.4382 0.6537 0.6170
vn 0.0079 0.6942 0.7197
vn 0.4775 0.8347 -0.2743
vn 0.5790 0.7915 0.1959
vn 0.4552 0.6552 0.6030
vn 0.7220 0.6918 -0.0096
vn -0.9396 0.0207 0.3416
vn -0.9999 0.0147 -0.0008
vn -0.9999 0.0146 -0.0006
vn -0.9396 0.0207 0.3415
vn -0.5005 0.0256 0.8654
vn -0.7663 0.0246 0.6420
vn -0.7665 0.0248 0.6418
vn -0.5003 0.0255 0.8655
vn -0.9395 0.0066 -0.3425
vn -0.7658 -0.0024 -0.6430
vn -0.7656 -0.0022 -0.6433
vn -0.9395 0.0067 -0.3426
vn -0.1732 -0.0182 -0.9847
vn 0.1742 -0.0233 -0.9844
vn 0.1740 -0.0233 -0.9845
vn -0.1734 -0.0182 -0.9847
vn -0.4999 -0.0110 -0.8660
vn -0.4997 -0.0110 -0.8661
vn 0.9999 -0.0148 0.0004
vn 0.9394 -0.0067 0.3427
vn 0.9394 -0.0068 0.3426
vn 0.9999 -0.0146 0.0008
vn 0.5004 -0.0254 -0.8654
vn 0.5003 -0.0255 -0.8655
vn 0.7662 -0.0245 -0.6421
vn 0.7661 -0.0246 -0.6423
vn 0.9397 -0.0208 -0.3415
vn 0.9398 -0.0207 -0.3412
vn -0.1739 0.0230 0.9845
vn -0.1738 0.0229 0.9845
vn 0.7657 0.0022 0.6432
vn 0.4998 0.0107 0.8661
vn 0.4996 0.0109 0.8662
vn 0.1734 0.0177 0.9847
vn 0.1731 0.0179 0.9847
vn -0.0148 -0.9997 0.0208
vn -0.0147 -0.9997 0.0207
vn -0.0146 -0.9997 0.0208
vn -0.0148 -0.9997 0.0206
vn -0.0147 -0.9997 0.0208
vn -0.0145 -0.9997 0.0210
vn -0.0146 -0.9997 0.0210
vn -0.0147 -0.9997 0.0211
vn -0.0144 -0.9997 0.0208
vn -0.0144 -0.9997 0.0209
vn -0.0147 -0.9997 0.0206
vn -0.0145 -0.9997 0.0207
vn -0.0146 -0.9997 0.0207
vn -0.0149 -0.9997 0.0208
vn -0.0148 -0.9997 0.0207
vn 0.0144 0.9997 -0.0208
vn 0.0146 0.9997 -0.0208
vn 0.0144 0.9997 -0.0209
vn 0.0147 0.9997 -0.0208
vn 0.0147 0.9997 -0.0206
vn 0.0145 0.9997 -0.0207
vn 0.0146 0.9997 -0.0207
vn 0.0149 0.9997 -0.0208
vn 0.0148 0.9997 -0.0207
vn 0.0147 0.9997 -0.0207
vn 0.0148 0.9997 -0.0208
vn 0.0148 0.9997 -0.0206
vn 0.0145 0.9997 -0.0210
vn 0.0146 0.9997 -0.0210
vn 0.0147 0.9997 -0.0211
vn 0.3569 -0.9288 -0.0996
vn 0.2007 -0.8344 -0.5134
vn 0.1958 -0.9410 0.2760
vn 0.7373 -0.5382 -0.4083
vn 0.7152 -0.5678 -0.4075
vn 0.2414 -0.9181 -0.3145
vn 0.1786 -0.7182 -0.6726
vn 0.0289 -0.6918 -0.7215
vn 0.0140 -0.9250 -0.3798
vn -0.0436 -0.9744 -0.2206
vn -0.2479 -0.6652 -0.7043
vn -0.3645 -0.9261 -0.0975
vn -0.1978 -0.9407 0.2756
vn -0.2120 -0.8312 -0.5140
vn -0.7469 -0.5317 -0.3993
vn -0.7066 -0.5871 -0.3950
vn -0.3735 -0.8669 -0.3302
vn 0.8888 0.4040 0.2164
vn 0.9469 0.2702 0.1740
vn 0.8357 0.5489 0.0179
vn 0.6645 0.7313 0.1539
vn 0.4074 0.8880 -0.2131
vn 0.2094 0.9600 -0.1858
vn 0.6990 0.7001 -0.1460
vn 0.8489 0.5250 -0.0609
vn 0.3954 0.8843 0.2484
vn 0.1786 0.9006 0.3963
vn -0.8740 0.4187 0.2464
vn -0.8333 0.5519 0.0308
vn -0.9434 0.2736 0.1872
vn -0.6828 0.7213 0.1164
vn -0.6562 0.7291 -0.1945
vn -0.8050 0.5862 -0.0915
vn 0.0028 0.8765 -0.4813
vn 0.0079 0.8991 0.4376
vn -0.0037 0.9846 -0.1747
vn -0.2885 0.5354 0.7938
vn -0.1685 0.9046 0.3915
vn -0.2066 0.9612 -0.1825
vn -0.4967 0.7136 0.4940
vn -0.3837 0.8920 0.2390
vn -0.4187 0.8816 -0.2179
vn -0.4906 0.2851 0.8234
vn -0.8374 0.3088 0.4510
vn -0.6952 0.4961 0.5202
vn 0.6777 -0.7328 0.0617
vn 0.1310 -0.9851 0.1116
vn 0.1508 -0.8528 0.4999
vn 0.6866 -0.5208 0.5072
vn 0.3158 -0.5465 0.7756
vn 0.6583 -0.6788 0.3254
vn 0.1238 -0.9358 0.3301
vn -0.0041 -0.7783 0.6279
vn -0.0028 -0.9252 0.3794
vn -0.0053 -0.9807 0.1954
vn -0.0061 -0.3660 0.9306
vn -0.2810 -0.1996 0.9387
vn -0.2549 -0.5943 0.7628
vn -0.1179 -0.9870 0.1090
vn -0.0998 -0.9403 0.3254
vn -0.1209 -0.8602 0.4954
vn -0.6684 -0.7406 0.0695
vn -0.6594 -0.5407 0.5224
vn -0.6382 -0.6931 0.3353
vn 0.9608 -0.1104 0.2543
vn 0.9363 -0.2172 0.2759
vn 0.9817 -0.1740 0.0768
vn 0.9959 -0.0371 0.0831
vn 0.9788 -0.0694 0.1925
vn 0.9625 0.0038 0.2711
vn 0.9759 -0.1902 0.1066
vn 0.9726 -0.2323 -0.0067
vn 0.9823 -0.0133 0.1869
vn 0.9949 -0.0243 -0.0974
vn 0.9969 -0.0396 -0.0677
vn 0.9966 -0.0739 -0.0354
vn 0.9816 -0.0346 -0.1879
vn 1.0000 -0.0020 0.0055
vn 0.9931 -0.0040 -0.1173
vn 0.9708 -0.0329 -0.2376
vn 0.9691 0.0529 0.2409
vn 0.9969 -0.0782 0.0004
vn 0.9949 0.0098 0.1005
vn 0.9930 -0.1173 -0.0111
vn 0.9686 0.1184 0.2185
vn -0.9576 -0.1050 0.2683
vn -0.9335 -0.2123 0.2891
vn -0.9816 -0.1681 0.0909
vn -0.9947 -0.0305 0.0980
vn -0.9763 -0.0635 0.2070
vn -0.9584 0.0090 0.2852
vn -0.9755 -0.1841 0.1205
vn -0.9742 -0.2256 0.0070
vn -0.9802 -0.0104 0.1980
vn -0.9969 -0.0239 -0.0756
vn -0.9975 -0.0671 -0.0206
vn -0.9981 -0.0328 -0.0529
vn -0.9857 -0.0292 -0.1659
vn -0.9941 0.0100 -0.1079
vn -0.9997 0.0191 -0.0161
vn -0.9916 -0.0427 -0.1222
vn -0.9656 0.0565 0.2538
vn -0.9932 0.0161 0.1155
vn -0.9973 -0.0716 0.0149
vn -0.9939 -0.1104 0.0034
vn -0.9648 0.1234 0.2322
vn 0.6929 -0.2430 0.6788
vn 0.7916 -0.0777 0.6061
vn 0.8051 -0.0368 0.5920
vn 0.8542 -0.0114 0.5198
vn 0.2741 -0.1872 0.9433
vn 0.7773 0.0960 0.6218
vn 0.6622 0.3257 0.6749
vn 0.6282 0.3002 0.7178
vn 0.4646 0.3571 0.8103
vn 0.3589 0.1448 0.9221
vn 0.4697 0.0132 0.8828
vn 0.3764 -0.0314 0.9259
vn 0.4793 0.2884 0.8289
vn 0.8341 0.3014 0.4619
vn 0.9652 0.1211 0.2319
vn 0.3121 0.5745 0.7567
vn -0.0026 -0.0029 1.0000
vn 0.0029 0.1928 0.9812
vn 0.0101 0.5144 0.8575
vn 0.6750 0.5480 0.4940
vn -0.3568 0.1371 0.9241
vn -0.4658 0.0135 0.8848
vn -0.3735 -0.0330 0.9271
vn -0.6309 0.3005 0.7153
vn 0.0057 0.2287 0.9735
vn 0.1468 0.4343 0.8887
vn 0.2038 0.5379 0.8180
vn 0.0069 0.4403 0.8978
vn 0.0062 0.3672 0.9301
vn -0.2427 0.6312 0.7366
vn -0.1626 0.4261 0.8899
vn -0.4821 0.3384 0.8081
vn -0.6717 0.3154 0.6703
vn 0.5276 0.6925 0.4920
vn -0.6533 -0.2875 0.7004
vn -0.7837 -0.0748 0.6166
vn -0.7973 -0.0337 0.6027
vn -0.8480 -0.0078 0.5299
vn -0.7703 0.0970 0.6302
vn -0.9615 0.1260 0.2444
usemtl 35plates.001
s 1
f 1/1/1 2/2/2 3/3/3
f 4/4/4 1/1/1 3/3/3
f 5/5/5 4/4/4 3/3/3
f 6/6/6 5/5/5 3/3/3
f 6/6/6 3/3/3 7/7/7
f 6/6/6 7/7/7 8/8/8
f 8/8/8 9/9/9 10/10/10
f 8/8/8 10/10/10 6/6/6
f 11/11/11 12/12/12 13/13/13
f 14/14/14 11/11/11 13/13/13
f 15/15/15 14/14/14 13/13/13
f 16/16/16 15/15/15 13/13/13
f 16/16/16 13/13/13 17/17/17
f 16/16/16 17/17/17 18/18/17
f 18/18/17 19/19/18 20/20/19
f 18/18/17 20/20/19 16/16/16
f 21/21/20 22/22/21 23/23/22
f 21/21/20 23/23/22 24/24/23
f 25/25/24 21/21/20 24/24/23
f 26/26/25 25/25/24 24/24/23
f 24/24/23 27/27/26 26/26/25
f 28/28/27 29/29/28 30/30/29
f 30/30/29 29/29/28 31/31/30
f 29/29/28 32/32/31 31/31/30
f 32/32/31 33/33/32 31/31/30
f 34/34/33 31/31/30 33/33/32
f 555/35/34 559/36/35 558/37/36
f 555/35/34 558/37/36 561/38/37
usemtl side1.001
f 141/39/38 142/40/39 143/41/21
f 141/39/38 143/41/21 144/42/40
f 145/43/41 141/39/38 144/42/40
f 145/43/41 144/42/40 146/44/42
f 147/45/43 145/43/41 146/44/42
f 147/45/43 146/44/42 148/46/44
f 147/45/43 148/46/44 149/47/45
f 149/47/45 150/48/46 147/45/43
f 150/48/46 27/49/26 151/50/47
f 147/45/43 150/48/46 151/50/47
f 147/45/43 151/50/47 152/51/48
f 152/51/48 145/43/41 147/45/43
f 26/52/25 27/49/26 150/48/46
f 26/52/25 150/48/46 149/47/45
f 25/53/24 26/52/25 149/47/45
f 25/53/24 149/47/45 148/46/44
f 21/54/20 25/53/24 148/46/44
f 21/54/20 148/46/44 146/44/42
f 144/42/40 22/55/21 21/54/20
f 146/44/42 144/42/40 21/54/20
f 153/56/49 22/55/21 142/40/39
f 141/39/38 153/56/49 142/40/39
f 153/56/49 23/57/22 22/55/21
f 153/56/49 141/39/38 145/43/41
f 145/43/41 152/51/48 153/56/49
f 22/55/21 144/42/40 143/41/21
f 142/40/39 22/55/21 154/58/50
f 155/59/27 156/60/51 157/61/52
f 157/61/52 156/60/51 158/62/53
f 156/60/51 159/63/54 158/62/53
f 158/62/53 159/63/54 160/64/55
f 159/63/54 161/65/56 160/64/55
f 160/64/55 161/65/56 162/66/57
f 162/66/57 161/65/56 163/67/58
f 164/68/59 163/67/58 161/65/56
f 34/69/33 164/68/59 165/70/60
f 164/68/59 161/65/56 165/70/60
f 165/70/60 161/65/56 166/71/61
f 159/63/54 166/71/61 161/65/56
f 34/69/33 33/72/32 164/68/59
f 164/68/59 33/72/32 163/67/58
f 33/72/32 32/73/31 163/67/58
f 163/67/58 32/73/31 162/66/57
f 32/73/31 29/74/28 162/66/57
f 162/66/57 29/74/28 160/64/55
f 28/75/27 158/62/53 29/74/28
f 158/62/53 160/64/55 29/74/28
f 28/75/27 167/76/62 155/59/27
f 167/76/62 156/60/51 155/59/27
f 30/77/29 167/76/62 28/75/27
f 156/60/51 167/76/62 159/63/54
f 166/71/61 159/63/54 167/76/62
f 158/62/53 168/78/63 157/61/52
f 158/62/53 28/75/27 169/79/27
f 170/80/21 154/58/50 22/55/21
f 158/62/53 169/79/27 168/78/63
usemtl 35bottom.001
f 211/81/64 212/82/65 213/83/66
f 211/84/64 214/85/67 215/86/68
f 216/87/69 217/88/70 214/89/67
f 218/90/71 219/91/72 217/92/70
f 220/93/73 219/94/72 221/95/74
f 222/96/75 223/97/76 220/98/73
f 222/99/75 224/100/77 225/101/78
f 226/102/79 227/103/80 224/104/77
f 228/105/81 229/106/82 230/107/83
f 228/108/81 231/109/84 232/110/85
f 233/111/86 234/112/87 231/113/84
f 235/114/88 236/115/89 234/116/87
f 237/117/90 236/118/89 238/119/91
f 237/120/90 239/121/92 240/122/93
f 241/123/94 242/124/95 239/125/92
f 243/126/96 244/127/97 245/128/98
f 246/129/99 228/130/81 230/131/83
f 222/132/75 247/133/100 226/134/79
f 218/135/71 220/136/73 221/137/74
f 248/138/101 211/139/64 213/140/66
f 235/141/88 237/142/90 238/143/91
f 241/144/94 249/145/102 250/146/103
f 251/147/104 228/130/81 252/148/105
f 222/132/75 253/149/106 254/150/107
f 253/149/106 228/130/81 255/151/108
f 220/136/73 228/130/81 222/132/75
f 216/152/69 233/153/86 220/136/73
f 211/139/64 237/142/90 216/152/69
f 245/154/98 249/145/102 211/139/64
f 211/139/64 243/155/96 245/154/98
f 256/156/109 257/157/110 211/139/64
f 222/132/75 254/150/107 258/158/111
f 170/80/21 22/55/21 143/41/21
f 28/75/27 155/59/27 169/159/27
f 211/81/64 215/160/68 212/82/65
f 211/84/64 216/161/69 214/85/67
f 216/87/69 218/162/71 217/88/70
f 218/90/71 221/163/74 219/91/72
f 220/93/73 223/164/76 219/94/72
f 222/96/75 225/165/78 223/97/76
f 222/99/75 226/166/79 224/100/77
f 226/102/79 247/167/100 227/103/80
f 228/105/81 232/168/85 229/106/82
f 228/108/81 233/169/86 231/109/84
f 233/111/86 235/170/88 234/112/87
f 235/114/88 238/171/91 236/115/89
f 237/117/90 240/172/93 236/118/89
f 237/120/90 241/173/94 239/121/92
f 241/123/94 250/174/103 242/124/95
f 243/126/96 259/175/112 244/127/97
f 246/129/99 252/148/105 228/130/81
f 222/132/75 258/158/111 247/133/100
f 218/135/71 216/152/69 220/136/73
f 248/138/101 256/156/109 211/139/64
f 235/141/88 233/153/86 237/142/90
f 241/144/94 211/139/64 249/145/102
f 251/147/104 255/151/108 228/130/81
f 222/132/75 228/130/81 253/149/106
f 220/136/73 233/153/86 228/130/81
f 216/152/69 237/142/90 233/153/86
f 211/139/64 241/144/94 237/142/90
f 245/154/98 260/176/113 249/145/102
f 211/139/64 257/157/110 243/155/96
f 531/177/114 533/178/115 532/179/116
f 531/180/114 535/181/117 534/182/118
f 536/183/119 534/184/118 217/88/70
f 537/185/120 217/92/70 538/186/121
f 539/187/122 540/188/123 538/189/121
f 541/190/124 539/191/122 542/192/125
f 541/193/124 544/194/126 543/195/127
f 545/196/128 543/197/127 546/198/129
f 547/199/130 549/200/131 548/201/132
f 547/202/130 551/203/133 550/204/134
f 552/205/135 550/206/134 553/207/136
f 554/208/137 553/209/136 555/210/34
f 556/211/138 557/212/139 555/213/34
f 556/214/138 559/215/140 558/216/36
f 560/217/141 558/218/36 561/219/37
f 562/220/142 564/221/143 563/222/144
f 565/223/145 549/224/131 547/225/130
f 541/226/124 545/227/128 566/228/146
f 537/229/120 540/230/123 539/231/122
f 567/232/147 533/233/115 531/234/114
f 554/235/137 557/236/139 556/237/138
f 560/238/141 569/239/148 568/240/149
f 570/241/150 571/242/151 547/225/130
f 541/226/124 573/243/152 572/244/153
f 572/244/153 574/245/154 547/225/130
f 539/231/122 541/226/124 547/225/130
f 536/246/119 539/231/122 552/247/135
f 531/234/114 536/246/119 556/237/138
f 564/248/143 531/234/114 568/240/149
f 531/234/114 564/248/143 562/249/142
f 575/250/155 531/234/114 576/251/156
f 541/226/124 577/252/157 573/243/152
f 531/177/114 532/179/116 535/253/117
f 531/180/114 534/182/118 536/254/119
f 536/183/119 217/88/70 537/255/120
f 537/185/120 538/186/121 540/256/123
f 539/187/122 538/189/121 542/257/125
f 541/190/124 542/192/125 544/258/126
f 541/193/124 543/195/127 545/259/128
f 545/196/128 546/198/129 566/260/146
f 547/199/130 548/201/132 551/261/133
f 547/202/130 550/204/134 552/262/135
f 552/205/135 553/207/136 554/263/137
f 554/208/137 555/210/34 557/264/139
f 556/211/138 555/213/34 559/265/140
f 556/214/138 558/216/36 560/266/141
f 560/217/141 561/219/37 569/267/148
f 562/220/142 563/222/144 578/268/158
f 565/223/145 547/225/130 571/242/151
f 541/226/124 566/228/146 577/252/157
f 537/229/120 539/231/122 536/246/119
f 567/232/147 531/234/114 575/250/155
f 554/235/137 556/237/138 552/247/135
f 560/238/141 568/240/149 531/234/114
f 570/241/150 547/225/130 574/245/154
f 541/226/124 572/244/153 547/225/130
f 539/231/122 547/225/130 552/247/135
f 536/246/119 552/247/135 556/237/138
f 531/234/114 556/237/138 560/238/141
f 564/248/143 568/240/149 579/269/159
f 531/234/114 562/249/142 576/251/156
f 551/203/160 553/207/161 548/201/132
f 538/189/121 544/194/126 543/195/127
f 535/181/117 217/88/162 532/179/163
f 551/203/160 550/206/164 553/207/161
f 538/189/121 542/192/165 544/194/126
f 535/181/117 534/184/118 217/88/162
f 569/270/148 535/271/166 533/272/115
f 569/270/148 561/38/37 558/37/36
f 558/37/36 535/271/166 569/270/148
f 535/271/166 532/273/116 533/272/115
f 580/274/167 582/275/168 581/276/169
f 584/277/170 582/275/168 583/278/171
f 585/279/172 584/277/170 586/280/173
f 583/278/171 586/280/173 584/277/170
f 587/281/174 588/282/175 586/283/173
f 597/284/176 598/285/177 581/286/169
f 598/285/177 589/287/178 581/286/169
f 598/285/177 590/288/179 589/287/178
f 598/285/177 599/289/180 590/288/179
f 599/289/180 600/290/181 590/288/179
f 600/290/181 591/291/182 590/288/179
f 601/292/183 598/285/177 597/284/176
f 600/290/181 602/293/184 591/291/182
f 591/291/182 602/293/184 592/294/185
f 602/293/184 603/295/186 592/294/185
f 603/295/186 602/293/184 604/296/187
f 605/297/188 604/296/187 602/293/184
f 605/297/188 602/293/184 600/290/181
f 606/298/189 605/297/188 600/290/181
f 606/298/189 600/290/181 607/299/190
f 607/299/190 600/290/181 599/289/180
f 607/299/190 599/289/180 601/292/183
f 601/292/183 599/289/180 598/285/177
f 581/286/169 582/300/168 597/284/176
f 597/284/176 582/300/168 601/292/183
f 601/292/183 608/301/191 607/299/190
f 607/299/190 608/301/191 606/298/189
f 606/298/189 608/301/191 609/302/192
f 606/298/189 609/302/192 605/297/188
f 584/303/170 601/292/183 582/300/168
f 608/301/191 601/292/183 584/303/170
f 610/304/193 609/302/192 611/305/194
f 585/306/172 608/301/191 584/303/170
f 612/307/195 608/301/191 585/306/172
f 611/305/194 608/301/191 612/307/195
f 611/305/194 609/302/192 608/301/191
f 604/296/187 605/297/188 613/308/196
f 613/308/196 609/302/192 614/309/197
f 605/297/188 609/302/192 613/308/196
f 614/309/197 609/302/192 615/310/198
f 615/310/198 610/304/193 616/311/199
f 615/310/198 609/302/192 610/304/193
f 618/312/200 588/313/175 619/314/201
f 619/314/201 588/313/175 593/315/202
f 619/314/201 593/315/202 594/316/203
f 619/314/201 594/316/203 620/317/204
f 620/317/204 594/316/203 621/318/205
f 621/318/205 594/316/203 595/319/206
f 585/320/172 618/312/200 619/314/201
f 621/318/205 595/319/206 622/321/207
f 595/319/206 596/322/208 622/321/207
f 622/321/207 596/322/208 617/323/209
f 617/323/209 616/324/199 622/321/207
f 610/325/193 622/321/207 616/324/199
f 610/325/193 621/318/205 622/321/207
f 611/326/194 621/318/205 610/325/193
f 611/326/194 612/327/195 621/318/205
f 612/327/195 620/317/204 621/318/205
f 612/327/195 585/320/172 620/317/204
f 585/320/172 619/314/201 620/317/204
f 588/313/175 618/312/200 586/328/173
f 618/312/200 585/320/172 586/328/173
f 629/329/210 627/330/211 630/331/212
f 623/332/213 625/333/214 626/334/215
f 629/329/210 630/331/212 628/335/216
f 623/332/213 626/334/215 624/336/217
f 633/337/218 635/338/219 634/339/220
f 631/340/221 635/338/219 633/337/218
f 632/341/222 631/340/221 633/337/218
f 636/342/223 634/339/220 635/338/219
f 637/343/224 634/339/220 636/342/223
f 638/344/225 637/343/224 639/345/226
f 633/346/218 643/347/227 642/348/228
f 633/346/218 634/349/220 643/347/227
f 646/350/229 647/351/230 644/352/231
f 646/350/229 644/352/231 645/353/232
f 643/347/227 646/350/229 642/348/228
f 649/354/233 643/347/227 634/349/220
f 643/347/227 649/354/233 648/355/234
f 648/355/234 647/351/230 643/347/227
f 647/351/230 646/350/229 643/347/227
f 649/354/233 634/349/220 637/356/224
f 638/357/225 649/354/233 637/356/224
f 650/358/235 649/354/233 638/357/225
f 650/358/235 648/355/234 649/354/233
f 650/358/235 651/359/236 648/355/234
f 641/360/237 653/361/238 650/362/235
f 655/363/239 652/364/240 651/365/236
f 655/363/239 654/366/241 652/364/240
f 650/362/235 653/361/238 655/363/239
f 651/365/236 650/362/235 655/363/239
f 656/367/242 657/368/243 645/369/232
f 656/367/242 658/370/244 657/368/243
f 659/371/245 656/367/242 660/372/246
f 656/367/242 659/371/245 661/373/247
f 656/367/242 661/373/247 662/374/248
f 662/374/248 663/375/249 656/367/242
f 656/367/242 663/375/249 658/370/244
f 664/376/250 659/371/245 660/372/246
f 663/375/249 632/377/222 658/370/244
f 633/378/218 658/370/244 632/377/222
f 633/378/218 642/379/228 658/370/244
f 657/368/243 658/370/244 642/379/228
f 645/369/232 657/368/243 646/380/229
f 657/368/243 642/379/228 646/380/229
f 665/381/251 654/382/241 666/383/252
f 665/381/251 666/383/252 667/384/253
f 668/385/254 669/386/255 665/381/251
f 665/381/251 670/387/256 668/385/254
f 665/381/251 671/388/257 670/387/256
f 671/388/257 665/381/251 672/389/258
f 665/381/251 667/384/253 672/389/258
f 673/390/259 669/386/255 668/385/254
f 672/389/258 667/384/253 640/391/260
f 641/392/237 640/391/260 667/384/253
f 641/392/237 667/384/253 653/393/238
f 666/383/252 653/393/238 667/384/253
f 654/382/241 655/394/239 666/383/252
f 666/383/252 655/394/239 653/393/238
f 674/395/261 676/396/261 675/397/261
usemtl 35abric.001
f 261/398/262 262/399/263 263/400/264
f 263/400/264 264/401/265 265/402/266
f 264/401/265 266/403/267 265/402/266
f 267/404/268 261/405/262 268/406/269
f 269/407/270 270/408/271 267/409/268
f 271/410/272 262/411/263 269/407/270
f 271/410/272 272/412/273 264/413/265
f 273/414/274 266/415/267 272/416/273
f 274/417/275 275/418/276 276/419/277
f 277/420/278 275/421/276 278/422/275
f 279/423/279 275/418/276 280/424/280
f 281/425/281 278/422/275 282/426/275
f 274/417/275 282/427/275 278/422/275
f 283/428/282 282/427/275 284/429/283
f 285/430/284 286/431/285 287/432/286
f 274/417/275 286/433/285 288/434/287
f 279/423/279 286/435/285 276/436/277
f 283/428/282 289/437/288 290/438/289
f 274/417/275 289/439/288 284/440/283
f 285/430/284 289/441/288 288/442/287
f 291/443/290 292/444/291 293/445/292
f 279/423/279 292/446/291 294/447/293
f 277/420/278 292/448/291 280/449/280
f 291/443/290 295/450/294 296/451/295
f 277/420/278 295/452/294 293/453/292
f 283/428/282 295/454/294 281/455/281
f 291/443/290 297/456/296 294/457/293
f 285/430/284 297/458/296 298/459/297
f 279/423/279 297/456/296 287/460/286
f 291/443/290 299/461/298 298/459/297
f 283/428/282 299/461/298 296/462/295
f 285/430/284 299/463/298 290/464/289
f 300/465/299 301/466/300 302/467/301
f 303/468/302 302/469/301 301/466/300
f 304/470/303 302/467/301 305/471/304
f 303/468/302 306/472/305 307/473/306
f 308/474/307 306/475/305 301/466/300
f 309/476/308 306/475/305 310/477/309
f 311/478/310 312/479/311 313/480/312
f 314/481/313 300/465/299 312/482/311
f 304/470/303 312/483/311 300/484/299
f 309/476/308 315/485/314 316/486/315
f 308/474/307 315/487/314 310/488/309
f 311/478/310 315/489/314 314/490/313
f 317/491/316 318/492/317 319/493/318
f 304/470/303 319/494/318 318/495/317
f 303/468/302 319/496/318 305/497/304
f 320/498/319 321/499/320 322/500/321
f 303/468/302 321/501/320 317/502/316
f 309/476/308 321/503/320 307/504/306
f 318/492/317 323/505/322 324/506/323
f 311/478/310 324/507/323 323/505/322
f 304/470/303 324/506/323 313/508/312
f 320/498/319 325/509/324 323/505/322
f 309/476/308 325/509/324 322/510/321
f 311/478/310 325/511/324 316/512/315
f 326/513/325 327/514/326 328/515/327
f 329/516/328 328/517/327 327/514/326
f 330/518/329 328/515/327 331/519/330
f 329/516/328 332/520/331 333/521/332
f 334/522/333 332/523/331 327/514/326
f 335/524/334 332/523/331 336/525/335
f 337/526/336 338/527/337 339/528/338
f 340/529/339 326/513/325 338/530/337
f 330/518/329 338/531/337 326/532/325
f 335/524/334 341/533/340 342/534/341
f 334/522/333 341/535/340 336/536/335
f 337/526/336 341/537/340 340/538/339
f 343/539/342 344/540/343 345/541/344
f 330/518/329 345/542/344 344/543/343
f 329/516/328 345/544/344 331/545/330
f 346/546/345 347/547/346 348/548/347
f 329/516/328 347/549/346 343/550/342
f 335/524/334 347/551/346 333/552/332
f 344/540/343 349/553/348 350/554/349
f 337/526/336 350/555/349 349/553/348
f 330/518/329 350/554/349 339/556/338
f 346/546/345 351/557/350 349/553/348
f 335/524/334 351/557/350 348/558/347
f 337/526/336 351/559/350 342/560/341
f 352/561/351 353/562/352 354/563/353
f 355/564/354 354/565/353 353/562/352
f 356/566/355 354/563/353 357/567/356
f 355/564/354 358/568/357 359/569/358
f 360/570/359 358/571/357 353/562/352
f 361/572/334 358/571/357 362/573/360
f 363/574/361 364/575/362 365/576/363
f 366/577/364 352/561/351 364/578/362
f 356/566/355 364/579/362 352/580/351
f 361/572/334 367/581/340 368/582/365
f 360/570/359 367/583/340 362/584/360
f 363/574/361 367/585/340 366/586/364
f 369/587/366 370/588/367 371/589/368
f 356/566/355 371/590/368 370/591/367
f 355/564/354 371/592/368 357/593/356
f 372/594/369 373/595/346 374/596/370
f 355/564/354 373/597/346 369/598/366
f 361/572/334 373/599/346 359/600/358
f 370/588/367 375/601/371 376/602/372
f 363/574/361 376/603/372 375/601/371
f 356/566/355 376/602/372 365/604/363
f 372/594/369 377/605/373 375/601/371
f 361/572/334 377/605/373 374/606/370
f 363/574/361 377/607/373 368/608/365
f 378/609/374 379/610/375 380/611/376
f 381/612/377 379/613/375 382/614/378
f 383/615/379 379/610/375 384/616/380
f 381/612/377 385/617/381 386/618/382
f 378/609/374 385/619/381 382/614/378
f 387/620/383 385/619/381 388/621/384
f 389/622/385 390/623/386 391/624/387
f 392/625/388 380/611/376 390/626/386
f 383/615/379 390/627/386 380/628/376
f 387/620/383 393/629/389 394/630/390
f 378/609/374 393/631/389 388/632/384
f 389/622/385 393/633/389 392/634/388
f 395/635/391 396/636/392 397/637/393
f 383/615/379 396/638/392 398/639/394
f 381/612/377 396/640/392 384/641/380
f 395/635/391 399/642/395 400/643/396
f 381/612/377 399/644/395 397/645/393
f 387/620/383 399/646/395 386/647/382
f 398/648/394 401/649/397 402/650/398
f 389/622/385 402/651/398 401/649/397
f 383/615/379 402/650/398 391/652/387
f 395/635/391 403/653/399 401/649/397
f 387/620/383 403/653/399 400/654/396
f 389/622/385 403/655/399 394/656/390
f 404/657/400 405/658/401 406/659/402
f 407/660/403 405/661/401 408/662/404
f 409/663/379 405/658/401 410/664/405
f 407/660/403 411/665/406 412/666/407
f 404/657/400 411/667/406 408/662/404
f 413/668/408 411/667/406 414/669/409
f 415/670/410 416/671/411 417/672/412
f 418/673/413 406/659/402 416/674/411
f 409/663/379 416/675/411 406/676/402
f 413/668/408 419/677/414 420/678/415
f 404/657/400 419/679/414 414/680/409
f 415/670/410 419/681/414 418/682/413
f 421/683/416 422/684/417 423/685/418
f 409/663/379 422/686/417 424/687/419
f 407/660/403 422/688/417 410/689/405
f 421/683/416 425/690/420 426/691/421
f 407/660/403 425/692/420 423/693/418
f 413/668/408 425/694/420 412/695/407
f 424/696/419 427/697/422 428/698/423
f 415/670/410 428/699/423 427/697/422
f 409/663/379 428/698/423 417/700/412
f 421/683/416 429/701/424 427/697/422
f 413/668/408 429/701/424 426/702/421
f 415/670/410 429/703/424 420/704/415
f 430/705/425 431/706/426 432/707/427
f 433/708/428 432/709/427 431/706/426
f 434/710/429 432/707/427 435/711/430
f 433/708/428 436/712/431 437/713/432
f 438/714/433 436/715/431 431/706/426
f 439/716/434 436/715/431 440/717/435
f 441/718/436 442/719/437 443/720/438
f 438/714/433 442/721/437 444/722/439
f 434/710/429 442/723/437 430/724/425
f 439/716/434 445/725/440 446/726/441
f 438/714/433 445/727/440 440/728/435
f 441/718/436 445/729/440 444/730/439
f 447/731/442 448/732/443 449/733/444
f 434/710/429 449/734/444 448/735/443
f 433/708/428 449/736/444 435/737/430
f 450/738/445 451/739/446 452/740/447
f 433/708/428 451/741/446 447/742/442
f 439/716/434 451/743/446 437/744/432
f 450/738/445 453/745/448 448/732/443
f 441/718/436 453/746/448 454/747/449
f 434/710/429 453/745/448 443/748/438
f 450/738/445 455/749/450 454/747/449
f 439/716/434 455/749/450 452/750/447
f 441/718/436 455/751/450 446/752/441
f 261/398/262 270/753/271 262/399/263
f 263/400/264 262/399/263 264/401/265
f 264/401/265 272/754/273 266/403/267
f 267/404/268 270/755/271 261/405/262
f 269/407/270 262/411/263 270/408/271
f 271/410/272 264/413/265 262/411/263
f 271/410/272 273/756/274 272/412/273
f 273/414/274 456/757/451 266/415/267
f 274/417/275 278/422/275 275/418/276
f 277/420/278 280/449/280 275/421/276
f 279/423/279 276/436/277 275/418/276
f 281/425/281 277/420/278 278/422/275
f 274/417/275 284/440/283 282/427/275
f 283/428/282 281/455/281 282/427/275
f 285/430/284 288/442/287 286/431/285
f 274/417/275 276/419/277 286/433/285
f 279/423/279 287/460/286 286/435/285
f 283/428/282 284/429/283 289/437/288
f 274/417/275 288/434/287 289/439/288
f 285/430/284 290/464/289 289/441/288
f 291/443/290 294/457/293 292/444/291
f 279/423/279 280/424/280 292/446/291
f 277/420/278 293/453/292 292/448/291
f 291/443/290 293/445/292 295/450/294
f 277/420/278 281/425/281 295/452/294
f 283/428/282 296/462/295 295/454/294
f 291/443/290 298/459/297 297/456/296
f 285/430/284 287/432/286 297/458/296
f 279/423/279 294/447/293 297/456/296
f 291/443/290 296/451/295 299/461/298
f 283/428/282 290/438/289 299/461/298
f 285/430/284 298/459/297 299/463/298
f 300/465/299 308/474/307 301/466/300
f 303/468/302 305/497/304 302/469/301
f 304/470/303 300/484/299 302/467/301
f 303/468/302 301/466/300 306/472/305
f 308/474/307 310/488/309 306/475/305
f 309/476/308 307/504/306 306/475/305
f 311/478/310 314/490/313 312/479/311
f 314/481/313 308/474/307 300/465/299
f 304/470/303 313/508/312 312/483/311
f 309/476/308 310/477/309 315/485/314
f 308/474/307 314/481/313 315/487/314
f 311/478/310 316/512/315 315/489/314
f 317/491/316 320/498/319 318/492/317
f 304/470/303 305/471/304 319/494/318
f 303/468/302 317/502/316 319/496/318
f 320/498/319 317/491/316 321/499/320
f 303/468/302 307/473/306 321/501/320
f 309/476/308 322/510/321 321/503/320
f 318/492/317 320/498/319 323/505/322
f 311/478/310 313/480/312 324/507/323
f 304/470/303 318/495/317 324/506/323
f 320/498/319 322/500/321 325/509/324
f 309/476/308 316/486/315 325/509/324
f 311/478/310 323/505/322 325/511/324
f 326/513/325 334/522/333 327/514/326
f 329/516/328 331/545/330 328/517/327
f 330/518/329 326/532/325 328/515/327
f 329/516/328 327/514/326 332/520/331
f 334/522/333 336/536/335 332/523/331
f 335/524/334 333/552/332 332/523/331
f 337/526/336 340/538/339 338/527/337
f 340/529/339 334/522/333 326/513/325
f 330/518/329 339/556/338 338/531/337
f 335/524/334 336/525/335 341/533/340
f 334/522/333 340/529/339 341/535/340
f 337/526/336 342/560/341 341/537/340
f 343/539/342 346/546/345 344/540/343
f 330/518/329 331/519/330 345/542/344
f 329/516/328 343/550/342 345/544/344
f 346/546/345 343/539/342 347/547/346
f 329/516/328 333/521/332 347/549/346
f 335/524/334 348/558/347 347/551/346
f 344/540/343 346/546/345 349/553/348
f 337/526/336 339/528/338 350/555/349
f 330/518/329 344/543/343 350/554/349
f 346/546/345 348/548/347 351/557/350
f 335/524/334 342/534/341 351/557/350
f 337/526/336 349/553/348 351/559/350
f 352/561/351 360/570/359 353/562/352
f 355/564/354 357/593/356 354/565/353
f 356/566/355 352/580/351 354/563/353
f 355/564/354 353/562/352 358/568/357
f 360/570/359 362/584/360 358/571/357
f 361/572/334 359/600/358 358/571/357
f 363/574/361 366/586/364 364/575/362
f 366/577/364 360/570/359 352/561/351
f 356/566/355 365/604/363 364/579/362
f 361/572/334 362/573/360 367/581/340
f 360/570/359 366/577/364 367/583/340
f 363/574/361 368/608/365 367/585/340
f 369/587/366 372/594/369 370/588/367
f 356/566/355 357/567/356 371/590/368
f 355/564/354 369/598/366 371/592/368
f 372/594/369 369/587/366 373/595/346
f 355/564/354 359/569/358 373/597/346
f 361/572/334 374/606/370 373/599/346
f 370/588/367 372/594/369 375/601/371
f 363/574/361 365/576/363 376/603/372
f 356/566/355 370/591/367 376/602/372
f 372/594/369 374/596/370 377/605/373
f 361/572/334 368/582/365 377/605/373
f 363/574/361 375/601/371 377/607/373
f 378/609/374 382/614/378 379/610/375
f 381/612/377 384/641/380 379/613/375
f 383/615/379 380/628/376 379/610/375
f 381/612/377 382/614/378 385/617/381
f 378/609/374 388/632/384 385/619/381
f 387/620/383 386/647/382 385/619/381
f 389/622/385 392/634/388 390/623/386
f 392/625/388 378/609/374 380/611/376
f 383/615/379 391/652/387 390/627/386
f 387/620/383 388/621/384 393/629/389
f 378/609/374 392/625/388 393/631/389
f 389/622/385 394/656/390 393/633/389
f 395/635/391 398/648/394 396/636/392
f 383/615/379 384/616/380 396/638/392
f 381/612/377 397/645/393 396/640/392
f 395/635/391 397/637/393 399/642/395
f 381/612/377 386/618/382 399/644/395
f 387/620/383 400/654/396 399/646/395
f 398/648/394 395/635/391 401/649/397
f 389/622/385 391/624/387 402/651/398
f 383/615/379 398/639/394 402/650/398
f 395/635/391 400/643/396 403/653/399
f 387/620/383 394/630/390 403/653/399
f 389/622/385 401/649/397 403/655/399
f 404/657/400 408/662/404 405/658/401
f 407/660/403 410/689/405 405/661/401
f 409/663/379 406/676/402 405/658/401
f 407/660/403 408/662/404 411/665/406
f 404/657/400 414/680/409 411/667/406
f 413/668/408 412/695/407 411/667/406
f 415/670/410 418/682/413 416/671/411
f 418/673/413 404/657/400 406/659/402
f 409/663/379 417/700/412 416/675/411
f 413/668/408 414/669/409 419/677/414
f 404/657/400 418/673/413 419/679/414
f 415/670/410 420/704/415 419/681/414
f 421/683/416 424/696/419 422/684/417
f 409/663/379 410/664/405 422/686/417
f 407/660/403 423/693/418 422/688/417
f 421/683/416 423/685/418 425/690/420
f 407/660/403 412/666/407 425/692/420
f 413/668/408 426/702/421 425/694/420
f 424/696/419 421/683/416 427/697/422
f 415/670/410 417/672/412 428/699/423
f 409/663/379 424/687/419 428/698/423
f 421/683/416 426/691/421 429/701/424
f 413/668/408 420/678/415 429/701/424
f 415/670/410 427/697/422 429/703/424
f 430/705/425 438/714/433 431/706/426
f 433/708/428 435/737/430 432/709/427
f 434/710/429 430/724/425 432/707/427
f 433/708/428 431/706/426 436/712/431
f 438/714/433 440/728/435 436/715/431
f 439/716/434 437/744/432 436/715/431
f 441/718/436 444/730/439 442/719/437
f 438/714/433 430/705/425 442/721/437
f 434/710/429 443/748/438 442/723/437
f 439/716/434 440/717/435 445/725/440
f 438/714/433 444/722/439 445/727/440
f 441/718/436 446/752/441 445/729/440
f 447/731/442 450/738/445 448/732/443
f 434/710/429 435/711/430 449/734/444
f 433/708/428 447/742/442 449/736/444
f 450/738/445 447/731/442 451/739/446
f 433/708/428 437/713/432 451/741/446
f 439/716/434 452/750/447 451/743/446
f 450/738/445 454/747/449 453/745/448
f 441/718/436 443/720/438 453/746/448
f 434/710/429 448/735/443 453/745/448
f 450/738/445 452/740/447 455/749/450
f 439/716/434 446/726/441 455/749/450
f 441/718/436 454/747/449 455/751/450
usemtl 35tyre2sf.001
f 457/758/452 458/759/453 459/760/454
f 459/760/454 460/761/455 457/758/452
f 461/762/456 462/763/457 463/764/458
f 463/764/458 464/765/459 461/762/456
f 462/763/457 457/766/452 460/767/455
f 460/767/455 463/764/458 462/763/457
f 465/768/460 466/769/461 467/770/462
f 467/770/462 468/771/463 465/768/460
f 458/759/453 465/768/460 468/771/463
f 468/771/463 459/760/454 458/759/453
f 469/772/464 470/773/465 471/774/466
f 471/774/466 472/775/467 469/772/464
f 466/769/461 473/776/468 474/777/469
f 474/777/469 467/770/462 466/769/461
f 473/776/468 469/772/464 472/775/467
f 472/775/467 474/777/469 473/776/468
f 475/778/470 476/779/471 477/780/472
f 477/780/472 478/781/473 475/778/470
f 470/773/465 479/782/474 480/783/475
f 480/783/475 471/774/466 470/773/465
f 479/782/474 481/784/476 482/785/477
f 482/785/477 480/783/475 479/782/474
f 481/784/476 483/786/478 484/787/479
f 484/787/479 482/785/477 481/784/476
f 483/786/478 475/778/470 478/781/473
f 478/781/473 484/787/479 483/786/478
f 485/788/480 461/762/456 464/765/459
f 464/765/459 486/789/481 485/788/480
f 476/779/471 487/790/482 488/791/482
f 488/791/482 477/780/472 476/779/471
f 487/790/482 489/792/483 490/793/484
f 490/793/484 488/791/482 487/790/482
f 489/792/483 491/794/485 492/795/486
f 492/795/486 490/793/484 489/792/483
f 491/794/485 485/788/480 486/789/481
f 486/789/481 492/795/486 491/794/485
usemtl 35tyre2.001
f 493/796/487 494/797/488 495/798/489
f 496/799/490 493/796/487 495/798/489
f 497/800/491 496/799/490 495/798/489
f 498/801/492 497/800/491 495/798/489
f 499/802/492 498/801/492 495/798/489
f 500/803/493 499/802/492 495/798/489
f 501/804/494 500/803/493 495/798/489
f 502/805/489 501/804/494 495/798/489
f 503/806/495 502/805/489 495/798/489
f 504/807/489 503/806/495 495/798/489
f 505/808/496 504/807/489 495/798/489
f 506/809/491 505/808/496 495/798/489
f 507/810/497 506/809/491 495/798/489
f 508/811/498 507/810/497 495/798/489
f 509/812/499 508/811/498 495/798/489
f 510/813/500 509/812/499 495/798/489
f 511/814/501 510/813/500 495/798/489
f 494/797/488 511/814/501 495/798/489
f 512/815/502 513/816/503 514/817/503
f 513/818/503 515/819/504 514/817/503
f 515/820/504 516/821/505 514/817/503
f 516/822/505 517/823/506 514/817/503
f 517/824/506 518/825/507 514/817/503
f 518/826/507 519/827/508 514/817/503
f 519/828/508 520/829/509 514/817/503
f 520/830/509 521/831/510 514/817/503
f 521/832/510 522/833/511 514/817/503
f 522/834/511 523/835/512 514/817/503
f 523/836/512 524/837/513 514/817/503
f 524/838/513 525/839/505 514/817/503
f 525/840/505 526/841/514 514/817/503
f 526/842/514 527/843/514 514/817/503
f 527/844/514 528/845/515 514/817/503
f 528/846/515 529/847/516 514/817/503
f 529/848/516 530/849/503 514/817/503
f 530/850/503 512/851/502 514/817/503
usemtl top.001
f 35/852/517 36/853/518 37/854/519
f 38/855/520 36/853/518 35/852/517
f 39/856/521 40/857/522 41/858/523
f 36/853/518 39/856/521 41/858/523
f 38/855/520 39/856/521 36/853/518
f 42/859/524 41/858/523 40/857/522
f 43/860/525 42/859/524 40/857/522
f 44/861/526 45/862/527 43/860/525
f 42/859/524 43/860/525 45/862/527
f 46/863/528 47/864/529 48/865/530
f 49/866/531 46/863/528 48/865/530
f 50/867/532 45/868/527 51/869/533
f 48/865/530 45/868/527 50/867/532
f 49/870/531 48/865/530 50/867/532
f 52/871/534 53/872/535 54/873/536
f 55/874/537 56/875/538 57/876/539
f 55/874/537 58/877/540 56/875/538
f 55/874/537 59/878/541 58/877/540
f 60/879/542 57/876/539 61/880/543
f 54/873/536 59/878/541 52/871/534
f 59/878/541 55/874/537 52/871/534
f 55/874/537 57/876/539 60/879/542
f 62/881/544 63/882/545 64/883/546
f 65/884/547 66/885/548 67/886/549
f 63/882/545 62/881/544 67/886/549
f 67/886/549 62/881/544 65/884/547
f 57/887/539 56/888/538 68/889/550
f 61/890/543 57/887/539 69/891/551
f 57/887/539 70/892/552 69/891/551
f 57/887/539 68/889/550 70/892/552
f 71/893/553 69/891/551 72/894/554
f 70/892/552 68/889/550 73/895/555
f 74/896/556 75/897/557 65/898/547
f 71/893/553 72/894/554 75/897/557
f 65/898/547 75/897/557 73/895/555
f 65/898/547 73/895/555 76/899/558
f 72/894/554 73/895/555 75/897/557
f 76/899/558 73/895/555 68/889/550
f 69/891/551 73/895/555 72/894/554
f 69/891/551 70/892/552 73/895/555
f 66/900/548 65/898/547 76/899/558
f 77/901/559 71/893/553 78/902/560
f 79/903/561 78/902/560 71/893/553
f 79/903/561 65/898/547 62/904/544
f 79/905/561 71/893/553 74/896/556
f 74/896/556 71/893/553 75/897/557
f 79/903/561 62/904/544 78/902/560
f 79/903/561 74/896/556 65/898/547
f 39/906/521 80/907/562 81/908/563
f 39/906/521 81/908/563 40/909/522
f 82/910/564 83/911/565 84/912/566
f 85/913/567 82/910/564 86/914/568
f 85/913/567 83/911/565 82/910/564
f 87/915/569 88/916/570 82/910/564
f 88/916/570 86/914/568 82/910/564
f 81/908/563 80/907/562 85/913/567
f 89/917/571 40/909/522 81/908/563
f 81/908/563 88/916/570 89/917/571
f 87/915/569 82/910/564 84/912/566
f 88/916/570 81/908/563 86/914/568
f 86/914/568 81/908/563 85/913/567
f 89/917/571 43/918/525 40/909/522
f 90/919/572 87/915/569 84/912/566
f 91/920/573 92/921/574 90/919/572
f 44/922/526 43/918/525 89/917/571
f 93/923/575 44/922/526 89/917/571
f 93/923/575 89/917/571 88/916/570
f 93/923/575 88/916/570 94/924/576
f 95/925/577 94/924/576 88/916/570
f 95/925/577 88/926/570 87/915/569
f 92/921/574 95/925/577 87/915/569
f 87/915/569 90/919/572 92/921/574
f 50/927/532 93/928/575 96/929/578
f 50/927/532 51/930/533 93/928/575
f 95/931/577 92/932/574 97/933/579
f 98/934/580 94/935/576 95/931/577
f 98/934/580 95/931/577 97/933/579
f 93/928/575 98/934/580 96/929/578
f 94/935/576 98/934/580 93/928/575
f 99/936/581 83/937/565 100/938/582
f 99/936/581 100/938/582 101/939/583
f 102/940/584 103/941/585 99/936/581
f 99/936/581 104/942/586 102/940/584
f 99/936/581 105/943/587 104/942/586
f 105/943/587 99/936/581 106/944/588
f 99/936/581 101/939/583 106/944/588
f 107/945/589 103/941/585 102/940/584
f 108/946/590 109/947/591 110/948/592
f 109/947/591 108/946/590 111/949/593
f 107/945/589 112/950/594 113/951/595
f 112/950/594 107/945/589 102/940/584
f 107/945/589 113/951/595 108/946/590
f 114/952/596 108/946/590 113/951/595
f 108/946/590 114/952/596 111/949/593
f 108/946/590 115/953/597 107/945/589
f 115/953/597 116/954/598 117/955/599
f 115/953/597 118/956/600 116/954/598
f 115/953/597 110/948/592 118/956/600
f 110/948/592 109/947/591 118/956/600
f 115/953/597 108/946/590 110/948/592
f 119/957/601 115/953/597 117/955/599
f 106/944/588 101/939/583 38/958/520
f 106/944/588 38/958/520 35/959/517
f 39/960/521 38/958/520 101/939/583
f 39/960/521 101/939/583 80/961/562
f 100/938/582 80/961/562 101/939/583
f 83/937/565 85/962/567 100/938/582
f 100/938/582 85/962/567 80/961/562
f 120/963/602 121/964/603 97/965/579
f 120/963/602 122/966/604 121/964/603
f 123/967/605 120/963/602 124/968/606
f 120/963/602 123/967/605 125/969/607
f 120/963/602 125/969/607 126/970/608
f 126/970/608 127/971/609 120/963/602
f 120/963/602 127/971/609 122/966/604
f 128/972/610 123/967/605 124/968/606
f 129/973/611 130/974/612 131/975/613
f 131/975/613 132/976/614 129/973/611
f 128/972/610 133/977/615 134/978/616
f 134/978/616 123/967/605 128/972/610
f 128/972/610 129/973/611 133/977/615
f 135/979/617 133/977/615 129/973/611
f 129/973/611 132/976/614 135/979/617
f 129/973/611 128/972/610 136/980/618
f 136/980/618 137/981/619 138/982/620
f 136/980/618 138/982/620 139/983/621
f 136/980/618 139/983/621 130/974/612
f 130/974/612 139/983/621 131/975/613
f 136/980/618 130/974/612 129/973/611
f 140/984/622 137/981/619 136/980/618
f 127/971/609 49/985/531 122/966/604
f 127/971/609 46/986/528 49/985/531
f 50/987/532 122/966/604 49/985/531
f 50/987/532 96/988/578 122/966/604
f 121/964/603 122/966/604 96/988/578
f 97/965/579 121/964/603 98/989/580
f 121/964/603 96/988/578 98/989/580
f 171/990/623 83/991/565 172/992/624
f 172/992/624 83/991/565 99/993/581
f 172/992/624 99/993/581 103/994/585
f 172/992/624 103/994/585 173/995/625
f 173/995/625 103/994/585 174/996/626
f 174/996/626 103/994/585 107/997/589
f 175/998/627 171/990/623 172/992/624
f 174/996/626 107/997/589 176/999/628
f 107/997/589 115/1000/597 176/999/628
f 176/999/628 115/1000/597 177/1001/629
f 178/1002/630 177/1001/629 115/1000/597
f 177/1001/629 179/1003/631 176/999/628
f 180/1004/632 176/999/628 179/1003/631
f 180/1004/632 174/996/626 176/999/628
f 181/1005/633 174/996/626 180/1004/632
f 181/1005/633 182/1006/634 174/996/626
f 182/1006/634 173/995/625 174/996/626
f 182/1006/634 175/998/627 173/995/625
f 175/998/627 172/992/624 173/995/625
f 83/991/565 171/990/623 84/1007/566
f 171/990/623 175/998/627 84/1007/566
f 178/1002/630 115/1000/597 183/1008/635
f 183/1008/635 115/1000/597 184/1009/636
f 115/1000/597 119/1010/601 184/1009/636
f 119/1010/601 185/1011/637 184/1009/636
f 184/1009/636 185/1011/637 53/1012/535
f 184/1009/636 53/1012/535 52/1013/534
f 183/1008/635 184/1009/636 186/1014/638
f 175/998/627 182/1006/634 187/1015/639
f 182/1006/634 181/1005/633 187/1015/639
f 181/1005/633 188/1016/640 187/1015/639
f 181/1005/633 180/1004/632 188/1016/640
f 189/1017/641 183/1008/635 186/1014/638
f 186/1014/638 69/1018/551 189/1017/641
f 69/1018/551 186/1014/638 61/1019/543
f 60/1020/542 61/1019/543 186/1014/638
f 186/1014/638 55/1021/537 60/1020/542
f 184/1009/636 190/1022/642 186/1014/638
f 90/1023/572 84/1007/566 175/998/627
f 187/1015/639 90/1023/572 175/998/627
f 189/1017/641 69/1018/551 71/1024/553
f 77/1025/559 189/1017/641 71/1024/553
f 191/1026/643 192/1027/644 188/1016/640
f 91/1028/573 90/1023/572 187/1015/639
f 193/1029/645 91/1028/573 187/1015/639
f 192/1027/644 193/1029/645 187/1015/639
f 192/1027/644 187/1015/639 188/1016/640
f 194/1030/646 195/1031/647 77/1025/559
f 196/1032/648 197/1033/649 198/1034/650
f 199/1035/651 198/1034/650 197/1033/649
f 177/1001/629 197/1033/649 196/1032/648
f 196/1032/648 179/1003/631 177/1001/629
f 178/1002/630 197/1033/649 177/1001/629
f 199/1035/651 197/1033/649 195/1031/647
f 195/1031/647 197/1033/649 178/1002/630
f 195/1031/647 194/1030/646 200/1036/652
f 199/1035/651 200/1036/652 198/1034/650
f 198/1034/650 200/1036/652 201/1037/653
f 201/1037/653 200/1036/652 202/1038/654
f 200/1036/652 203/1039/655 202/1038/654
f 194/1030/646 203/1039/655 200/1036/652
f 195/1031/647 200/1036/652 199/1035/651
f 179/1003/631 196/1032/648 180/1004/632
f 196/1032/648 198/1034/650 188/1016/640
f 180/1004/632 196/1032/648 188/1016/640
f 198/1034/650 201/1037/653 188/1016/640
f 201/1037/653 202/1038/654 191/1026/643
f 201/1037/653 191/1026/643 188/1016/640
f 189/1017/641 195/1031/647 183/1008/635
f 178/1002/630 183/1008/635 195/1031/647
f 195/1031/647 189/1017/641 77/1025/559
f 190/1022/642 55/1021/537 204/1040/656
f 205/1041/657 206/1042/658 97/1043/579
f 206/1042/658 120/1044/602 97/1043/579
f 206/1042/658 124/1045/606 120/1044/602
f 206/1042/658 207/1046/659 124/1045/606
f 207/1046/659 208/1047/660 124/1045/606
f 208/1047/660 128/1048/610 124/1045/606
f 91/1049/573 206/1042/658 205/1041/657
f 208/1047/660 209/1050/661 128/1048/610
f 128/1048/610 209/1050/661 136/1051/618
f 209/1050/661 203/1052/655 136/1051/618
f 194/1053/646 136/1051/618 203/1052/655
f 203/1052/655 209/1050/661 202/1054/654
f 191/1055/643 202/1054/654 209/1050/661
f 191/1055/643 209/1050/661 208/1047/660
f 192/1056/644 191/1055/643 208/1047/660
f 192/1056/644 208/1047/660 193/1057/645
f 193/1057/645 208/1047/660 207/1046/659
f 193/1057/645 207/1046/659 91/1049/573
f 91/1049/573 207/1046/659 206/1042/658
f 97/1043/579 92/1058/574 205/1041/657
f 205/1041/657 92/1058/574 91/1049/573
f 194/1053/646 77/1059/559 136/1051/618
f 77/1059/559 78/1060/560 136/1051/618
f 136/1051/618 78/1060/560 140/1061/622
f 140/1061/622 78/1060/560 210/1062/662
f 78/1060/560 64/1063/546 210/1062/662
f 78/1060/560 62/1064/544 64/1063/546
f 186/1014/638 204/1040/656 55/1021/537
f 184/1009/636 52/1013/534 190/1022/642
f 190/1022/642 52/1013/534 55/1021/537
