# Blender v3.0.1 OBJ File: ''
# www.blender.org
mtllib fox_kitcar.mtl
o body_Box01
v 0.310731 1.277315 0.475328
v -0.307023 1.277315 0.475328
v -0.275876 -1.754492 0.434467
v -0.730627 1.084366 0.460666
v -0.656762 -1.690645 0.420609
v 0.279584 -1.754492 0.434467
v 0.656762 -1.690644 0.420608
v 0.734335 1.084367 0.460666
v -0.645059 0.775301 0.476563
v -0.401857 1.098101 0.447668
v -0.401848 1.098096 0.318968
v -0.173848 0.688895 0.319000
v -0.173867 0.688905 0.577900
v 0.184433 0.688905 0.577926
v 0.655541 0.775301 0.476657
v 0.184452 0.688895 0.319026
v 0.412452 1.098096 0.319027
v 0.412443 1.098101 0.447727
v 0.140941 1.155501 0.476405
v -0.130459 1.155501 0.476385
v -0.645043 0.775292 0.254863
v 0.655557 0.775292 0.254957
v -0.543173 -0.822082 0.600106
v -0.576655 -0.759492 0.346801
v -0.572754 -0.802993 0.337903
v -0.565374 -0.866283 0.601306
v -0.001720 -0.873282 0.630745
v -0.001518 -0.822782 0.610343
v 0.000001 -0.754593 0.347841
v -0.540241 -0.700100 0.144101
v 0.001516 -0.696101 0.134739
v 0.001719 -0.732601 0.096540
v -0.545139 -0.739701 0.125802
v 0.548527 -0.822082 0.600485
v 0.570626 -0.866283 0.601688
v 0.573545 -0.802993 0.338186
v 0.584945 -0.759492 0.346985
v 0.534660 -0.700100 0.144179
v 0.539661 -0.739701 0.125881
v -0.543172 -0.905884 0.583009
v -0.551054 -0.846493 0.329106
v 0.000002 -0.851292 0.328244
v -0.001517 -0.909783 0.592646
v -0.523039 -0.783900 0.127006
v 0.001517 -0.783200 0.117042
v 0.548528 -0.905884 0.583388
v 0.542646 -0.846493 0.329285
v 0.517461 -0.783900 0.127181
v -0.597662 -0.028620 0.622758
v -0.622945 0.020272 0.390454
v -0.647944 -0.023228 0.381654
v -0.606162 -0.072420 0.623259
v -0.400764 -0.077819 0.650174
v -0.400462 -0.028919 0.632172
v -0.398045 0.025171 0.391571
v -0.631528 0.066062 0.157552
v -0.395527 0.069463 0.148969
v -0.395225 0.031361 0.113271
v -0.639827 0.025963 0.140053
v -0.203062 -0.028620 0.623087
v -0.194862 -0.072420 0.623489
v -0.148044 -0.023228 0.381790
v -0.173045 0.020272 0.390687
v -0.159728 0.066062 0.157586
v -0.151327 0.025963 0.140088
v -0.597660 -0.112421 0.605761
v -0.622944 -0.066730 0.372758
v -0.398044 -0.071530 0.371874
v -0.400461 -0.115920 0.614476
v -0.631527 -0.017738 0.140555
v -0.395526 -0.017539 0.131272
v -0.203060 -0.112421 0.606090
v -0.173044 -0.066730 0.372990
v -0.159727 -0.017738 0.140589
v -0.492179 -0.069271 0.828533
v -0.503174 -0.051674 0.749632
v -0.515473 -0.090374 0.741732
v -0.496179 -0.107071 0.823934
v -0.391880 -0.108970 0.833142
v -0.391980 -0.068370 0.831841
v -0.392474 -0.047374 0.750540
v -0.506068 -0.037077 0.670231
v -0.393068 -0.034977 0.667439
v -0.393166 -0.071777 0.650441
v -0.510167 -0.073677 0.659632
v -0.291779 -0.069271 0.828548
v -0.287679 -0.107071 0.823949
v -0.269573 -0.090374 0.741750
v -0.281874 -0.051674 0.749648
v -0.280068 -0.037077 0.670247
v -0.275967 -0.073677 0.659649
v -0.492178 -0.143671 0.813336
v -0.503172 -0.129074 0.733935
v -0.392472 -0.133374 0.733043
v -0.391978 -0.145771 0.816143
v -0.506067 -0.111477 0.655034
v -0.393067 -0.112277 0.651742
v -0.291778 -0.143671 0.813351
v -0.281872 -0.129074 0.733951
v -0.280067 -0.111477 0.655050
v 0.285921 -0.068471 0.823289
v 0.273527 -0.051174 0.744488
v 0.261127 -0.090374 0.736588
v 0.281821 -0.106571 0.818791
v 0.386021 -0.103471 0.827898
v 0.386021 -0.062871 0.826697
v 0.385327 -0.041874 0.745396
v 0.269433 -0.036277 0.665087
v 0.384733 -0.029477 0.662295
v 0.384634 -0.066278 0.645297
v 0.265333 -0.073077 0.654388
v 0.486021 -0.058971 0.823303
v 0.490121 -0.096671 0.818805
v 0.509527 -0.079374 0.736606
v 0.497127 -0.041274 0.744504
v 0.500033 -0.026777 0.665103
v 0.504133 -0.063177 0.654405
v 0.285922 -0.142971 0.808192
v 0.273528 -0.128474 0.728791
v 0.385328 -0.127874 0.727899
v 0.386022 -0.140271 0.810900
v 0.269434 -0.110777 0.649890
v 0.384734 -0.106878 0.646598
v 0.486022 -0.133471 0.808206
v 0.497128 -0.118574 0.728807
v 0.500034 -0.101277 0.649906
v 0.195939 -0.028620 0.617916
v 0.163356 0.020272 0.385511
v 0.138856 -0.023228 0.376611
v 0.187839 -0.072420 0.618317
v 0.384537 -0.077819 0.645231
v 0.384438 -0.028919 0.627229
v 0.383455 0.025171 0.386527
v 0.146972 0.066062 0.152408
v 0.382473 0.069463 0.143825
v 0.382376 0.031360 0.108127
v 0.138774 0.025961 0.134909
v 0.572839 -0.028620 0.617943
v 0.581039 -0.072420 0.618345
v 0.628056 -0.023228 0.376647
v 0.603655 0.020272 0.385543
v 0.618072 0.066062 0.152442
v 0.626274 0.025961 0.134944
v 0.195940 -0.112421 0.600819
v 0.163357 -0.066730 0.367815
v 0.383457 -0.071530 0.366831
v 0.384439 -0.115920 0.609532
v 0.146974 -0.017738 0.135312
v 0.382474 -0.017539 0.126129
v 0.572840 -0.112421 0.600846
v 0.603657 -0.066730 0.367846
v 0.618074 -0.017738 0.135346
v -0.066350 0.388931 0.900372
v 0.082893 0.388931 0.900372
v 0.082893 0.466731 0.890725
v -0.066350 0.466731 0.890725
v 0.082893 0.585770 0.852118
v -0.066350 0.585770 0.852118
v -0.112616 0.274278 0.893001
v 0.129158 0.274278 0.893001
v 0.129158 0.459738 0.845571
v 0.129158 0.523747 0.817745
v -0.112616 0.523747 0.817745
v -0.112616 0.459738 0.845571
v 0.012346 -0.383912 0.905060
v 0.002580 -0.365954 0.905060
v 0.002580 -0.678656 1.360189
v -0.007184 -0.383912 0.905060
v 0.012346 -0.998190 0.869654
v 0.002580 -0.980232 0.869654
v 0.002580 -1.052350 1.122966
v -0.007184 -0.998190 0.869654
v -0.715212 0.778936 0.557367
v -0.672503 0.773347 0.543305
v -0.681113 0.823590 0.534678
v -0.754590 0.820501 0.556603
v -0.766914 0.766440 0.606979
v -0.793313 0.811096 0.588611
v -0.811069 0.744086 0.628855
v -0.827863 0.797537 0.602725
v -0.863964 0.701884 0.618825
v -0.868670 0.764341 0.598941
v -0.741471 0.782855 0.478117
v -0.771532 0.823030 0.505474
v -0.697599 0.828444 0.483548
v -0.698055 0.780872 0.464055
v -0.811950 0.764352 0.472255
v -0.822368 0.809749 0.501691
v -0.854177 0.730093 0.494129
v -0.855675 0.788510 0.515805
v -0.889322 0.693652 0.539575
v -0.885031 0.759030 0.547813
v -0.430661 -0.812895 -0.117916
v -0.306738 -0.812895 -0.117916
v -0.306738 -1.585509 -0.047104
v -0.430661 -1.585509 -0.047104
v -0.430661 -0.883577 0.321879
v -0.430661 -1.488515 0.321879
v -0.306738 -1.488515 0.321879
v -0.306738 -0.883577 0.321879
v 0.300789 -0.812895 -0.117916
v 0.424712 -0.812895 -0.117916
v 0.424712 -1.585509 -0.047104
v 0.300789 -1.585509 -0.047104
v 0.300789 -0.883577 0.321879
v 0.300789 -1.488515 0.321879
v 0.424712 -1.488515 0.321879
v 0.424712 -0.883577 0.321879
v -0.430661 2.045542 -0.189207
v -0.306738 2.045542 -0.189207
v -0.306738 1.096492 -0.001551
v -0.430661 1.096492 -0.001551
v -0.430661 1.847172 0.279575
v -0.430661 1.269917 0.317130
v -0.306738 1.269916 0.317130
v -0.306738 1.847172 0.279575
v 0.300789 2.045542 -0.189207
v 0.424712 2.045542 -0.189207
v 0.424712 1.096492 -0.001551
v 0.300789 1.096492 -0.001551
v 0.300789 1.847172 0.279575
v 0.300789 1.269916 0.317130
v 0.424712 1.269916 0.317130
v 0.424712 1.847172 0.279575
v 0.580201 -1.801882 -0.154976
v 0.564069 -1.801882 -0.116029
v 0.525121 -1.711882 -0.154976
v 0.525121 -1.801882 -0.099897
v 0.486175 -1.801881 -0.116029
v 0.470042 -1.801881 -0.154976
v 0.486175 -1.801881 -0.193924
v 0.525121 -1.801882 -0.210055
v 0.564069 -1.801882 -0.193924
v 0.564069 -1.584638 -0.116028
v 0.580201 -1.584638 -0.154976
v 0.525121 -1.584638 -0.099897
v 0.486175 -1.584638 -0.116028
v 0.470042 -1.584638 -0.154976
v 0.486175 -1.584638 -0.193924
v 0.525121 -1.584638 -0.210055
v 0.564069 -1.584638 -0.193924
v 0.063116 -0.928091 -0.199127
v 0.030376 -0.916087 -0.143557
v 0.063116 -1.197831 -0.078953
v 0.030376 -1.173343 -0.027147
v -0.035105 -0.916087 -0.143557
v -0.035105 -1.173343 -0.027147
v -0.067845 -0.928091 -0.199127
v -0.067845 -1.197831 -0.078953
v -0.035105 -0.940094 -0.254695
v -0.035105 -1.222319 -0.130758
v 0.030376 -0.940094 -0.254695
v 0.030376 -1.222319 -0.130758
v 0.030376 1.208452 -0.143658
v 0.063116 1.220970 -0.199126
v -0.035105 1.208452 -0.143658
v -0.067845 1.220970 -0.199126
v -0.035105 1.233487 -0.254594
v 0.030376 1.233487 -0.254594
v 0.063116 1.506658 -0.078952
v 0.030376 1.475200 -0.030601
v -0.035105 1.475200 -0.030601
v -0.067845 1.506658 -0.078952
v -0.035105 1.538117 -0.127304
v 0.030376 1.538117 -0.127304
v -0.153866 1.461400 -0.106144
v -0.153866 1.491119 -0.057662
v -0.682960 1.461400 -0.106144
v -0.682960 1.491119 -0.057662
v -0.153866 1.550555 -0.057662
v -0.682960 1.550555 -0.057662
v -0.153866 1.580274 -0.106144
v -0.682960 1.580274 -0.106144
v -0.153866 1.550555 -0.154626
v -0.682960 1.550555 -0.154626
v -0.153866 1.491119 -0.154626
v -0.682960 1.491119 -0.154626
v -0.137158 1.446243 0.015546
v -0.137158 1.371650 -0.106144
v -0.137158 1.595429 0.015546
v -0.137158 1.670024 -0.106144
v -0.137158 1.595429 -0.227836
v -0.137158 1.446243 -0.227836
v 0.133211 1.371650 -0.106144
v 0.133211 1.446243 0.015546
v 0.133211 1.595429 0.015546
v 0.133211 1.670024 -0.106144
v 0.133211 1.595429 -0.227836
v 0.133211 1.446243 -0.227836
v 0.149920 1.461400 -0.106144
v 0.149920 1.491119 -0.057662
v 0.149920 1.550555 -0.057662
v 0.149920 1.580274 -0.106144
v 0.149920 1.550555 -0.154626
v 0.149920 1.491119 -0.154626
v 0.679013 1.461400 -0.106144
v 0.679013 1.491119 -0.057662
v 0.679013 1.550555 -0.057662
v 0.679013 1.580274 -0.106144
v 0.679013 1.550555 -0.154626
v 0.679013 1.491119 -0.154626
v -0.405729 -1.193882 0.846727
v -0.385912 -1.407496 0.877086
v -0.350941 -1.204951 0.847850
v -0.480986 -1.168162 0.852785
v -0.427594 -1.535402 0.867373
v -0.489019 -1.180345 0.831323
v -0.480986 -1.192529 0.809860
v -0.385912 -1.431863 0.834161
v -0.405729 -1.208943 0.820197
v -0.350941 -1.220011 0.821321
v -0.189465 -1.475298 0.883969
v -0.152813 -1.247085 0.852127
v -0.233700 -1.629625 0.876939
v -0.189465 -1.499665 0.841045
v -0.152813 -1.262145 0.825600
v 0.195188 -1.475298 0.883969
v 0.158535 -1.247085 0.852127
v 0.239423 -1.629625 0.876939
v 0.195188 -1.499665 0.841045
v 0.158535 -1.262145 0.825600
v 0.390798 -1.408733 0.877211
v 0.356664 -1.204951 0.847850
v 0.434991 -1.532928 0.867122
v 0.390798 -1.433101 0.834286
v 0.356664 -1.220011 0.821321
v 0.408914 -1.195654 0.846906
v 0.484172 -1.169933 0.852965
v 0.492204 -1.182117 0.831502
v 0.484172 -1.194301 0.810040
v 0.408914 -1.210715 0.820378
v 0.672470 0.823590 0.534678
v 0.663859 0.773347 0.543305
v 0.706568 0.778936 0.557367
v 0.745947 0.820501 0.556603
v 0.758270 0.766440 0.606979
v 0.784668 0.811096 0.588611
v 0.802424 0.744086 0.628855
v 0.819220 0.797537 0.602725
v 0.855319 0.701884 0.618825
v 0.860027 0.764341 0.598941
v 0.688954 0.828444 0.483548
v 0.762887 0.823030 0.505473
v 0.732827 0.782855 0.478117
v 0.689410 0.780872 0.464055
v 0.813724 0.809749 0.501691
v 0.803306 0.764353 0.472255
v 0.847030 0.788510 0.515805
v 0.845534 0.730093 0.494129
v 0.876386 0.759030 0.547813
v 0.880678 0.693652 0.539575
v 0.848309 1.934962 -0.240347
v 0.618445 2.275197 -0.250362
v 0.618445 2.275197 0.080117
v 0.848309 1.924328 -0.040057
v 0.777178 1.811774 0.351089
v 0.617911 2.108486 0.243504
v 0.848309 1.839269 0.120174
v 0.785609 1.786107 0.360523
v 0.848309 1.701047 0.220319
v 0.785609 1.509663 0.420610
v 0.848309 1.541560 0.270391
v 0.848309 1.382075 0.250363
v 0.734335 1.084366 0.460667
v 0.848309 1.222588 0.150217
v 0.873703 -0.829470 -0.080116
v 0.873703 -0.829470 -0.240348
v 0.848309 1.105631 -0.230333
v 0.848309 1.105631 -0.160231
v 0.713162 -1.669379 -0.200290
v 0.873703 -1.584371 -0.200290
v 0.873703 -1.563106 -0.000000
v 0.713162 -1.733174 -0.070103
v 0.713162 -1.765070 0.120173
v 0.713162 -1.701276 0.170246
v 0.873703 -1.488680 0.140203
v 0.873703 -1.350459 0.270390
v 0.873703 -1.137810 0.290420
v 0.848309 1.148162 0.030043
v 0.873703 -0.871999 0.100144
v 0.581618 -1.488680 0.711029
v 0.485543 -1.254767 0.841218
v 0.873703 -0.978323 0.220318
v 0.485542 -0.627454 0.891290
v 0.485542 0.127448 0.891290
v 0.445605 0.340097 0.871262
v 0.534486 0.627172 0.751088
v 0.673738 0.978042 0.550798
v 0.358793 1.982844 -0.239707
v 0.261863 2.323082 -0.249921
v 0.261863 2.323082 0.087167
v 0.358793 1.972212 -0.035411
v 0.437212 2.291185 0.158670
v 0.301804 2.131700 0.271033
v 0.358793 1.887154 0.128026
v 0.332352 1.833991 0.373180
v 0.358793 1.748932 0.230173
v 0.332352 1.557549 0.434469
v 0.358793 1.589445 0.281248
v 0.358793 1.382075 0.260818
v 0.358793 1.222587 0.158670
v 0.369501 -0.829470 -0.076271
v 0.369501 -0.774702 -0.183056
v 0.358793 1.050865 -0.172842
v 0.358793 1.105631 -0.157989
v 0.301804 -1.733225 -0.198849
v 0.369501 -1.584371 -0.198849
v 0.369501 -1.563106 0.005447
v 0.301804 -1.797020 -0.066057
v 0.301804 -1.828917 0.128025
v 0.301804 -1.765122 0.179098
v 0.369501 -1.488680 0.148454
v 0.279584 -1.754491 0.434468
v 0.369501 -1.350459 0.281247
v 0.246332 -1.532539 0.730698
v 0.358793 1.148162 0.036092
v 0.369501 -0.871999 0.107595
v 0.369501 -1.137810 0.301676
v 0.205820 -1.291608 0.863490
v 0.205820 -0.645476 0.914563
v 0.369501 -0.978324 0.230173
v 0.205819 0.132073 0.914563
v 0.188978 0.351101 0.894134
v 0.209533 0.646789 0.771556
v 0.256550 1.056069 0.567262
v -0.844600 1.934960 -0.240347
v -0.614736 2.275197 0.080117
v -0.614736 2.275197 -0.250362
v -0.844600 1.924328 -0.040057
v -0.773470 1.811774 0.351089
v -0.614202 2.108485 0.243504
v -0.844600 1.839269 0.120174
v -0.781900 1.786107 0.360523
v -0.844600 1.701047 0.220319
v -0.781900 1.509663 0.420610
v -0.844600 1.541560 0.270392
v -0.844600 1.382075 0.250363
v -0.730626 1.084365 0.460667
v -0.844600 1.222587 0.150218
v -0.869994 -0.829470 -0.080116
v -0.844600 1.105631 -0.230333
v -0.869994 -0.829470 -0.240348
v -0.844600 1.105631 -0.160231
v -0.709452 -1.669379 -0.200290
v -0.869994 -1.563106 -0.000000
v -0.869994 -1.584371 -0.200290
v -0.709452 -1.733174 -0.070103
v -0.709452 -1.765070 0.120173
v -0.709452 -1.701276 0.170246
v -0.869994 -1.488680 0.140203
v -0.656762 -1.690644 0.420609
v -0.869994 -1.350459 0.270390
v -0.577909 -1.488680 0.711029
v -0.844600 1.148162 0.030043
v -0.869994 -0.871999 0.100144
v -0.869994 -1.137810 0.290420
v -0.481833 -1.254767 0.841218
v -0.481833 -0.627454 0.891290
v -0.869994 -0.978324 0.220318
v -0.481833 0.127448 0.891290
v -0.441896 0.340097 0.871262
v -0.530778 0.627172 0.751088
v -0.670029 0.978042 0.550798
v -0.355084 1.982844 -0.239707
v -0.258154 2.323082 -0.249921
v -0.258154 2.323082 0.087167
v -0.355084 1.972212 -0.035411
v -0.433503 2.291185 0.158670
v -0.298095 2.131700 0.271033
v -0.355084 1.887153 0.128026
v -0.328644 1.833991 0.373180
v -0.355084 1.748932 0.230173
v -0.328644 1.557548 0.434469
v -0.355084 1.589445 0.281248
v -0.355084 1.382075 0.260818
v -0.355084 1.222587 0.158670
v -0.365792 -0.829470 -0.076271
v -0.365792 -0.774702 -0.183056
v -0.355084 1.050865 -0.172842
v -0.355084 1.105631 -0.157989
v -0.298094 -1.733225 -0.198849
v -0.365792 -1.584371 -0.198849
v -0.365792 -1.563106 0.005447
v -0.298094 -1.797020 -0.066057
v -0.298094 -1.828917 0.128025
v -0.298094 -1.765122 0.179098
v -0.365792 -1.488680 0.148454
v -0.275876 -1.754491 0.434468
v -0.365792 -1.350459 0.281247
v -0.242624 -1.532539 0.730698
v -0.355084 1.148162 0.036092
v -0.365792 -0.871999 0.107595
v -0.365792 -1.137810 0.301676
v -0.202111 -1.291609 0.863490
v -0.202111 -0.645476 0.914563
v -0.365792 -0.978324 0.230173
v -0.202111 0.132073 0.914563
v -0.185269 0.351101 0.894134
v -0.205824 0.646789 0.771556
v -0.252842 1.056069 0.567262
v -0.153866 -1.255362 -0.106145
v -0.153866 -1.225643 -0.057663
v -0.682960 -1.255362 -0.106145
v -0.682960 -1.225643 -0.057663
v -0.153866 -1.166206 -0.057663
v -0.682960 -1.166206 -0.057663
v -0.153866 -1.136488 -0.106145
v -0.682960 -1.136488 -0.106145
v -0.153866 -1.166206 -0.154627
v -0.682960 -1.166206 -0.154627
v -0.153866 -1.225643 -0.154627
v -0.682960 -1.225643 -0.154627
v -0.137158 -1.270519 0.015546
v -0.137158 -1.345112 -0.106145
v -0.137158 -1.121331 0.015546
v -0.137158 -1.046738 -0.106145
v -0.137158 -1.121331 -0.227836
v -0.137158 -1.270519 -0.227836
v 0.133211 -1.345112 -0.106145
v 0.133211 -1.270519 0.015546
v 0.133211 -1.121331 0.015546
v 0.133211 -1.046738 -0.106145
v 0.133211 -1.121331 -0.227836
v 0.133211 -1.270519 -0.227836
v 0.149920 -1.255362 -0.106145
v 0.149920 -1.225643 -0.057663
v 0.149920 -1.166206 -0.057663
v 0.149920 -1.136488 -0.106145
v 0.149920 -1.166206 -0.154627
v 0.149920 -1.225643 -0.154627
v 0.679012 -1.255362 -0.106145
v 0.679012 -1.225643 -0.057663
v 0.679012 -1.166206 -0.057663
v 0.679012 -1.136488 -0.106145
v 0.679012 -1.166206 -0.154627
v 0.679012 -1.225643 -0.154627
v 0.310731 1.277315 0.475328
v -0.307023 1.277315 0.475328
v 0.656762 -1.690644 0.420608
v 0.734335 1.084366 0.460667
v 0.581618 -1.488680 0.711029
v 0.485543 -1.254767 0.841218
v 0.485542 -0.627454 0.891290
v 0.485542 0.127448 0.891290
v 0.445605 0.340097 0.871262
v 0.534486 0.627172 0.751088
v 0.673738 0.978042 0.550798
v 0.279584 -1.754491 0.434468
v 0.246332 -1.532539 0.730698
v 0.205820 -1.291608 0.863490
v 0.205820 -0.645476 0.914563
v 0.205819 0.132073 0.914563
v 0.188978 0.351101 0.894134
v 0.209533 0.646789 0.771556
v 0.256550 1.056069 0.567262
v -0.730626 1.084365 0.460667
v -0.656762 -1.690644 0.420609
v -0.577909 -1.488680 0.711029
v -0.481833 -1.254767 0.841218
v -0.481833 -0.627454 0.891290
v -0.481833 0.127448 0.891290
v -0.441896 0.340097 0.871262
v -0.530778 0.627172 0.751088
v -0.670029 0.978042 0.550798
v -0.275876 -1.754491 0.434468
v -0.242624 -1.532539 0.730698
v -0.202111 -1.291609 0.863490
v -0.202111 -0.645476 0.914563
v -0.202111 0.132073 0.914563
v -0.185269 0.351101 0.894134
v -0.205824 0.646789 0.771556
v -0.252842 1.056069 0.567262
vt 0.666523 0.414490
vt 0.666523 0.414490
vt 0.666523 0.414490
vt 0.666523 0.414490
vt 0.666523 0.414490
vt 0.666523 0.414490
vt 0.666523 0.414490
vt 0.666523 0.414490
vt 0.757616 0.332647
vt 0.804443 0.319598
vt 0.804615 0.300986
vt 0.849076 0.290240
vt 0.849076 0.297289
vt 0.831028 0.296297
vt 0.862799 0.297289
vt 0.880847 0.296297
vt 0.862799 0.290240
vt 0.805983 0.300986
vt 0.805812 0.319598
vt 0.758985 0.332647
vt 0.781731 0.282963
vt 0.789226 0.288039
vt 0.791234 0.278203
vt 0.780408 0.271631
vt 0.780408 0.277298
vt 0.781731 0.265964
vt 0.791234 0.270724
vt 0.757893 0.300578
vt 0.831028 0.290263
vt 0.880847 0.290263
vt 0.759262 0.300578
vt 0.789226 0.260887
vt 0.428563 0.278631
vt 0.440287 0.278631
vt 0.440287 0.263273
vt 0.452012 0.278631
vt 0.452012 0.263273
vt 0.440287 0.263273
vt 0.452012 0.263273
vt 0.440290 0.263673
vt 0.428563 0.278631
vt 0.440287 0.278631
vt 0.440287 0.263273
vt 0.452012 0.278631
vt 0.452012 0.263273
vt 0.428563 0.278631
vt 0.440287 0.278631
vt 0.452012 0.278631
vt 0.452012 0.263273
vt 0.440287 0.263273
vt 0.452012 0.247915
vt 0.440287 0.247915
vt 0.428563 0.278631
vt 0.440287 0.278631
vt 0.452012 0.278631
vt 0.452012 0.263273
vt 0.428563 0.247915
vt 0.428563 0.263273
vt 0.428563 0.247915
vt 0.428563 0.263273
vt 0.428563 0.278631
vt 0.440287 0.278631
vt 0.440313 0.263632
vt 0.452012 0.247915
vt 0.440287 0.247915
vt 0.428563 0.247915
vt 0.428563 0.263273
vt 0.452012 0.278631
vt 0.452012 0.263273
vt 0.452012 0.247915
vt 0.440287 0.247915
vt 0.428563 0.247915
vt 0.428563 0.263273
vt 0.428563 0.263273
vt 0.452012 0.247915
vt 0.440287 0.247915
vt 0.452012 0.247915
vt 0.440287 0.247915
vt 0.428563 0.247915
vt 0.428563 0.263273
vt 0.427886 0.278588
vt 0.439917 0.278588
vt 0.439917 0.263947
vt 0.451948 0.278588
vt 0.451948 0.263947
vt 0.439917 0.263947
vt 0.451948 0.263947
vt 0.439919 0.265364
vt 0.427886 0.278588
vt 0.439917 0.278588
vt 0.439917 0.263947
vt 0.451948 0.278588
vt 0.451948 0.263947
vt 0.427886 0.278588
vt 0.439917 0.278588
vt 0.451948 0.278588
vt 0.451948 0.263947
vt 0.439917 0.263947
vt 0.451948 0.249305
vt 0.439917 0.249305
vt 0.427886 0.278588
vt 0.439917 0.278588
vt 0.451948 0.278588
vt 0.451948 0.263947
vt 0.427886 0.249305
vt 0.427886 0.263947
vt 0.427886 0.249305
vt 0.427886 0.263947
vt 0.427886 0.278588
vt 0.439917 0.278588
vt 0.440030 0.265224
vt 0.451948 0.249305
vt 0.439917 0.249305
vt 0.427886 0.249305
vt 0.427886 0.263947
vt 0.451948 0.278588
vt 0.451948 0.263947
vt 0.451948 0.249305
vt 0.439917 0.249305
vt 0.427886 0.249305
vt 0.427886 0.263947
vt 0.427886 0.263947
vt 0.451948 0.249305
vt 0.439917 0.249305
vt 0.451948 0.249305
vt 0.439917 0.249305
vt 0.427886 0.249305
vt 0.427886 0.263947
vt 0.427886 0.278588
vt 0.439917 0.278588
vt 0.439917 0.263947
vt 0.451948 0.278588
vt 0.451948 0.263947
vt 0.439917 0.263947
vt 0.451948 0.263947
vt 0.439917 0.264937
vt 0.427886 0.278588
vt 0.439917 0.278588
vt 0.439917 0.263947
vt 0.451948 0.278588
vt 0.451948 0.263947
vt 0.427886 0.263947
vt 0.427886 0.278588
vt 0.439917 0.278588
vt 0.451948 0.278588
vt 0.451948 0.263947
vt 0.439917 0.263947
vt 0.451948 0.249305
vt 0.439917 0.249305
vt 0.427886 0.278588
vt 0.439917 0.278588
vt 0.451948 0.278588
vt 0.451948 0.263947
vt 0.427886 0.249305
vt 0.427886 0.249305
vt 0.427886 0.263947
vt 0.427886 0.278588
vt 0.439917 0.278588
vt 0.439999 0.264837
vt 0.451948 0.249305
vt 0.439917 0.249305
vt 0.427886 0.249305
vt 0.427886 0.263947
vt 0.451948 0.278588
vt 0.451948 0.263947
vt 0.451948 0.249305
vt 0.439917 0.249305
vt 0.427886 0.249305
vt 0.427886 0.263947
vt 0.427886 0.263947
vt 0.451948 0.249305
vt 0.439917 0.249305
vt 0.451948 0.249305
vt 0.439917 0.249305
vt 0.427886 0.249305
vt 0.427886 0.263947
vt 0.428314 0.278318
vt 0.439177 0.278318
vt 0.439177 0.266812
vt 0.450039 0.278318
vt 0.450039 0.266812
vt 0.439177 0.266812
vt 0.450039 0.266812
vt 0.439168 0.267713
vt 0.428314 0.278318
vt 0.439177 0.278318
vt 0.439177 0.266812
vt 0.450039 0.278318
vt 0.450039 0.266812
vt 0.428314 0.266812
vt 0.428314 0.278318
vt 0.439177 0.278318
vt 0.450039 0.278318
vt 0.450039 0.266812
vt 0.439177 0.266812
vt 0.450039 0.255305
vt 0.439177 0.255305
vt 0.428314 0.278318
vt 0.439177 0.278318
vt 0.450039 0.278318
vt 0.450039 0.266812
vt 0.428314 0.255305
vt 0.428314 0.255305
vt 0.428314 0.266812
vt 0.428314 0.278318
vt 0.439177 0.278318
vt 0.439272 0.267624
vt 0.450039 0.255305
vt 0.439177 0.255305
vt 0.428314 0.255305
vt 0.428314 0.266812
vt 0.450039 0.278318
vt 0.450039 0.266812
vt 0.450039 0.255305
vt 0.439177 0.255305
vt 0.428314 0.255305
vt 0.428314 0.266812
vt 0.428314 0.266812
vt 0.450039 0.255305
vt 0.439177 0.255305
vt 0.450039 0.255305
vt 0.439177 0.255305
vt 0.428314 0.255305
vt 0.428314 0.266812
vt 0.428314 0.278318
vt 0.439177 0.278318
vt 0.439177 0.266812
vt 0.450039 0.278318
vt 0.450039 0.266812
vt 0.439177 0.266812
vt 0.450039 0.266812
vt 0.439177 0.268170
vt 0.428314 0.278318
vt 0.439177 0.278318
vt 0.439177 0.266812
vt 0.450039 0.278318
vt 0.450039 0.266812
vt 0.428314 0.266812
vt 0.428314 0.278318
vt 0.439177 0.278318
vt 0.450039 0.278318
vt 0.450039 0.266812
vt 0.439177 0.266812
vt 0.450039 0.255305
vt 0.439177 0.255305
vt 0.428314 0.278318
vt 0.439177 0.278318
vt 0.450039 0.278318
vt 0.450039 0.266812
vt 0.428314 0.255305
vt 0.428314 0.255305
vt 0.428314 0.266812
vt 0.428314 0.278318
vt 0.439177 0.278318
vt 0.439304 0.268033
vt 0.450039 0.255305
vt 0.439177 0.255305
vt 0.428314 0.255305
vt 0.428314 0.266812
vt 0.450039 0.278318
vt 0.450039 0.266812
vt 0.450039 0.255305
vt 0.439177 0.255305
vt 0.428314 0.255305
vt 0.428314 0.266812
vt 0.428314 0.266812
vt 0.450039 0.255305
vt 0.439177 0.255305
vt 0.450039 0.255305
vt 0.439177 0.255305
vt 0.428314 0.255305
vt 0.428314 0.266812
vt 0.419608 0.136159
vt 0.028038 0.130173
vt 0.057443 0.173573
vt 0.090367 0.193028
vt 0.178663 0.200511
vt 0.284918 0.200511
vt 0.314849 0.197518
vt 0.355256 0.179559
vt 0.297097 0.932929
vt 0.388094 0.865771
vt 0.304403 0.867840
vt 0.370768 0.929095
vt 0.288195 0.962107
vt 0.346728 0.960631
vt 0.450385 0.551158
vt 0.552150 0.600761
vt 0.558304 0.551158
vt 0.447375 0.600761
vt 0.320518 0.551158
vt 0.321290 0.600761
vt 0.283935 0.548171
vt 0.285773 0.593679
vt 0.215597 0.548836
vt 0.247798 0.584620
vt 0.233215 0.545720
vt 0.217657 0.598093
vt 0.172626 0.555963
vt 0.180818 0.619201
vt 0.149396 0.564176
vt 0.169655 0.628386
vt 0.489791 0.364972
vt 0.519096 0.321349
vt 0.125765 0.327366
vt 0.456698 0.384527
vt 0.367948 0.392048
vt 0.261147 0.392048
vt 0.231062 0.389040
vt 0.190447 0.370989
vt 0.140807 0.340904
vt 0.189660 0.932929
vt 0.182354 0.867840
vt 0.099152 0.865771
vt 0.117943 0.930560
vt 0.198562 0.962107
vt 0.134659 0.959166
vt 0.450385 0.478821
vt 0.558304 0.478821
vt 0.552150 0.429218
vt 0.447375 0.429218
vt 0.320518 0.478821
vt 0.321290 0.429218
vt 0.283935 0.481807
vt 0.285773 0.436300
vt 0.215597 0.485876
vt 0.233215 0.488992
vt 0.247798 0.450092
vt 0.217657 0.436619
vt 0.172626 0.478749
vt 0.180818 0.415511
vt 0.149396 0.470536
vt 0.169655 0.406326
vt 0.267178 0.504031
vt 0.267178 0.529633
vt 0.254607 0.529633
vt 0.254607 0.504031
vt 0.235373 0.529633
vt 0.235373 0.504031
vt 0.285703 0.496095
vt 0.285703 0.537570
vt 0.255737 0.537570
vt 0.245394 0.537570
vt 0.634288 0.827595
vt 0.675763 0.827595
vt 0.667827 0.817574
vt 0.642225 0.817574
vt 0.245394 0.496095
vt 0.255737 0.496095
vt 0.667457 0.223131
vt 0.695437 0.243309
vt 0.679112 0.243309
vt 0.667457 0.263487
vt 0.683140 0.209531
vt 0.721352 0.209531
vt 0.704728 0.220421
vt 0.706088 0.244562
vt 0.618058 0.910767
vt 0.628715 0.911224
vt 0.627527 0.908588
vt 0.609382 0.907298
vt 0.602427 0.917446
vt 0.598107 0.911158
vt 0.590795 0.918602
vt 0.589256 0.911396
vt 0.579895 0.911945
vt 0.580517 0.907137
vt 0.618870 0.890978
vt 0.609906 0.894532
vt 0.628151 0.895859
vt 0.629683 0.891495
vt 0.603719 0.883773
vt 0.598940 0.889433
vt 0.592514 0.885090
vt 0.590366 0.889775
vt 0.580907 0.892232
vt 0.581169 0.894419
vt 0.539339 0.629833
vt 0.540737 0.667799
vt 0.553184 0.660441
vt 0.552362 0.638108
vt 0.526676 0.628159
vt 0.527587 0.666300
vt 0.509407 0.636068
vt 0.510001 0.658483
vt 0.497930 0.658826
vt 0.497157 0.636475
vt 0.715779 0.271450
vt 0.715779 0.271450
vt 0.603298 0.282396
vt 0.603298 0.282396
vt 0.705489 0.339429
vt 0.617419 0.339429
vt 0.617419 0.339429
vt 0.705489 0.339429
vt 0.715779 0.271450
vt 0.715779 0.271450
vt 0.603298 0.282396
vt 0.603298 0.282396
vt 0.705489 0.339429
vt 0.617419 0.339429
vt 0.617419 0.339429
vt 0.705489 0.339429
vt 0.729700 0.278308
vt 0.729700 0.278308
vt 0.591532 0.307313
vt 0.591532 0.307313
vt 0.700820 0.350767
vt 0.616780 0.356571
vt 0.616780 0.356571
vt 0.700820 0.350767
vt 0.729700 0.278308
vt 0.729700 0.278308
vt 0.591532 0.307313
vt 0.591532 0.307313
vt 0.700820 0.350767
vt 0.616780 0.356571
vt 0.616780 0.356571
vt 0.700820 0.350767
vt 0.541782 0.368227
vt 0.536749 0.380378
vt 0.524598 0.368227
vt 0.524598 0.385410
vt 0.512448 0.380378
vt 0.507415 0.368227
vt 0.512448 0.356076
vt 0.524598 0.351043
vt 0.536749 0.356076
vt 0.536749 0.380378
vt 0.541782 0.368227
vt 0.524598 0.385410
vt 0.512448 0.380378
vt 0.507415 0.368227
vt 0.512448 0.356076
vt 0.524598 0.351043
vt 0.536749 0.356076
vt 0.872173 0.140335
vt 0.880745 0.140133
vt 0.880629 0.176152
vt 0.889012 0.174349
vt 0.449454 0.930590
vt 0.449224 0.934602
vt 0.478491 0.951109
vt 0.477208 0.934733
vt 0.479609 0.951274
vt 0.910518 0.100918
vt 0.913849 0.099366
vt 0.913849 0.115630
vt 0.522094 0.920264
vt 0.449027 0.937956
vt 0.846243 0.137866
vt 0.854835 0.139222
vt 0.832920 0.172743
vt 0.494110 0.920133
vt 0.448830 0.941277
vt 0.863394 0.140525
vt 0.849001 0.177560
vt 0.522094 0.920264
vt 0.462246 0.951274
vt 0.872174 0.178865
vt 0.449652 0.927236
vt 0.477636 0.927400
vt 0.449849 0.923915
vt 0.883882 0.076701
vt 0.875494 0.075372
vt 0.493222 0.920133
vt 0.494110 0.920133
vt 0.899528 0.068728
vt 0.910518 0.181017
vt 0.895854 0.181017
vt 0.493222 0.920133
vt 0.849554 0.072953
vt 0.858345 0.072697
vt 0.866905 0.074000
vt 0.478951 0.920067
vt 0.478063 0.920034
vt 0.494110 0.920133
vt 0.895854 0.043031
vt 0.464910 0.950945
vt 0.478951 0.920067
vt 0.463364 0.951109
vt 0.476945 0.950945
vt 0.832921 0.037042
vt 0.841260 0.034247
vt 0.840762 0.073208
vt 0.849600 0.031452
vt 0.450079 0.919903
vt 0.472605 0.952918
vt 0.478951 0.920067
vt 0.873148 0.032970
vt 0.478063 0.920034
vt 0.493222 0.920133
vt 0.888564 0.038471
vt 0.921173 0.052169
vt 0.918492 0.054528
vt 0.897112 0.042300
vt 0.895854 0.045256
vt 0.502975 0.920837
vt 0.463249 0.944526
vt 0.503082 0.919047
vt 0.940374 0.083875
vt 0.910928 0.087751
vt 0.910518 0.083875
vt 0.463249 0.931090
vt 0.459084 0.940627
vt 0.923140 0.041636
vt 0.900019 0.034476
vt 0.901000 0.031452
vt 0.923129 0.045150
vt 0.899130 0.037102
vt 0.922576 0.048813
vt 0.898163 0.039714
vt 0.918516 0.058218
vt 0.923979 0.055781
vt 0.913254 0.055302
vt 0.469754 0.940627
vt 0.488104 0.917168
vt 0.925761 0.033515
vt 0.927824 0.041150
vt 0.921342 0.038224
vt 0.927548 0.046209
vt 0.926406 0.050822
vt 0.471137 0.934990
vt 0.469754 0.940627
vt 0.469754 0.940627
vt 0.923206 0.068728
vt 0.487891 0.920766
vt 0.459084 0.940627
vt 0.487997 0.918958
vt 0.487767 0.922928
vt 0.939758 0.036514
vt 0.936608 0.041627
vt 0.935804 0.046255
vt 0.935800 0.051314
vt 0.936985 0.058626
vt 0.943464 0.055294
vt 0.946841 0.058373
vt 0.946058 0.065198
vt 0.487076 0.926527
vt 0.463249 0.944526
vt 0.487182 0.924719
vt 0.941621 0.040659
vt 0.947139 0.037182
vt 0.939868 0.043035
vt 0.940334 0.046871
vt 0.941475 0.051008
vt 0.972322 0.041593
vt 0.973805 0.044728
vt 0.975549 0.048293
vt 0.469754 0.940627
vt 0.487288 0.922928
vt 0.939923 0.091626
vt 0.940333 0.095496
vt 0.910518 0.095496
vt 0.502745 0.924807
vt 0.463249 0.931090
vt 0.968134 0.031452
vt 0.969605 0.035185
vt 0.970920 0.038406
vt 0.541981 0.442713
vt 0.577659 0.446228
vt 0.543830 0.452429
vt 0.537685 0.429368
vt 0.599023 0.438836
vt 0.534959 0.423559
vt 0.537062 0.422087
vt 0.598348 0.433344
vt 0.539165 0.423559
vt 0.580476 0.440983
vt 0.541998 0.437351
vt 0.543909 0.447391
vt 0.588984 0.481063
vt 0.550867 0.487563
vt 0.614760 0.473219
vt 0.614612 0.468877
vt 0.592179 0.476983
vt 0.551181 0.483700
vt 0.588984 0.549273
vt 0.550867 0.542773
vt 0.614760 0.557117
vt 0.592179 0.547474
vt 0.614612 0.555581
vt 0.551181 0.540757
vt 0.577866 0.583960
vt 0.543830 0.577907
vt 0.598609 0.591796
vt 0.580690 0.583322
vt 0.597921 0.591420
vt 0.543909 0.577066
vt 0.538900 0.440100
vt 0.535000 0.426700
vt 0.538500 0.426700
vt 0.542277 0.587172
vt 0.537981 0.600517
vt 0.540600 0.449900
vt 0.536700 0.425300
vt 0.576100 0.442100
vt 0.539471 0.600433
vt 0.537368 0.601905
vt 0.542304 0.586642
vt 0.627674 0.907307
vt 0.629005 0.909874
vt 0.618339 0.910003
vt 0.609486 0.907017
vt 0.603099 0.917532
vt 0.598440 0.911491
vt 0.591548 0.919326
vt 0.589616 0.912215
vt 0.580299 0.913278
vt 0.580655 0.908444
vt 0.627598 0.894563
vt 0.609307 0.894241
vt 0.618061 0.890200
vt 0.628887 0.890121
vt 0.598077 0.889753
vt 0.602537 0.883838
vt 0.589534 0.890566
vt 0.591422 0.885770
vt 0.580607 0.895709
vt 0.580225 0.893539
vt 0.553313 0.660616
vt 0.540820 0.667962
vt 0.539507 0.629908
vt 0.552540 0.638231
vt 0.527645 0.666430
vt 0.526819 0.628201
vt 0.510037 0.658554
vt 0.509493 0.636088
vt 0.497938 0.658870
vt 0.497214 0.636468
vt 0.975658 0.711170
vt 0.912174 0.708404
vt 0.912174 0.799677
vt 0.975658 0.766487
vt 0.956013 0.874515
vt 0.912026 0.844801
vt 0.525863 0.085276
vt 0.535898 0.058619
vt 0.523156 0.119396
vt 0.518381 0.121194
vt 0.506408 0.100242
vt 0.479470 0.130173
vt 0.483960 0.107725
vt 0.461511 0.104732
vt 0.419608 0.136159
vt 0.439063 0.089766
vt 0.150229 0.055345
vt 0.150229 0.031401
vt 0.422601 0.032897
vt 0.422601 0.043373
vt 0.399671 0.712439
vt 0.434946 0.712439
vt 0.434946 0.756448
vt 0.399671 0.741045
vt 0.399671 0.782854
vt 0.399671 0.809783
vt 0.434946 0.803182
vt 0.388094 0.865771
vt 0.028038 0.130173
vt 0.057443 0.086560
vt 0.076898 0.104655
vt 0.106829 0.110718
vt 0.428587 0.071807
vt 0.144243 0.082283
vt 0.057443 0.173573
vt 0.090367 0.193028
vt 0.129277 0.100242
vt 0.178663 0.200511
vt 0.284918 0.200511
vt 0.314849 0.197518
vt 0.355256 0.179559
vt 0.404643 0.149628
vt 0.791910 0.907763
vt 0.779693 0.948153
vt 0.824635 0.942468
vt 0.853606 0.902079
vt 0.813692 0.708526
vt 0.813692 0.801624
vt 0.911932 0.356062
vt 0.975619 0.350194
vt 0.911932 0.354759
vt 0.975619 0.348891
vt 0.862120 0.821372
vt 0.824723 0.852404
vt 0.911932 0.344336
vt 0.975619 0.338468
vt 0.041566 0.540915
vt 0.073556 0.543725
vt 0.078702 0.615616
vt 0.075944 0.614573
vt 0.911932 0.327398
vt 0.975619 0.321530
vt 0.103262 0.543725
vt 0.108407 0.615616
vt 0.911932 0.307854
vt 0.975619 0.301986
vt 0.911932 0.282443
vt 0.975619 0.282443
vt 0.133375 0.541736
vt 0.144953 0.609276
vt 0.911932 0.262899
vt 0.975619 0.262899
vt 0.913325 0.339449
vt 0.913325 0.346160
vt 0.978923 0.339449
vt 0.978923 0.339449
vt 0.840386 0.381172
vt 0.838610 0.666403
vt 0.919812 0.674960
vt 0.924024 0.372615
vt 0.911932 0.241856
vt 0.911932 0.248567
vt 0.975619 0.248567
vt 0.975619 0.248567
vt 0.787979 0.915345
vt 0.796511 0.933016
vt 0.860058 0.933016
vt 0.839824 0.922924
vt 0.913325 0.246942
vt 0.913325 0.249548
vt 0.978923 0.249548
vt 0.978923 0.246942
vt 0.309285 0.741934
vt 0.309285 0.712756
vt 0.309285 0.784579
vt 0.309285 0.811728
vt 0.913325 0.258668
vt 0.978923 0.258668
vt 0.304403 0.867840
vt 0.913325 0.275606
vt 0.978923 0.275606
vt 0.297097 0.932929
vt 0.370768 0.929095
vt 0.911932 0.253779
vt 0.975619 0.253779
vt 0.913325 0.334237
vt 0.978923 0.334237
vt 0.913325 0.301665
vt 0.978923 0.301665
vt 0.288195 0.962107
vt 0.346728 0.960631
vt 0.450385 0.551158
vt 0.558304 0.551158
vt 0.552150 0.600761
vt 0.447375 0.600761
vt 0.913325 0.321208
vt 0.978923 0.321208
vt 0.320518 0.551158
vt 0.321290 0.600761
vt 0.283935 0.548171
vt 0.285773 0.593679
vt 0.215597 0.548836
vt 0.233215 0.545720
vt 0.247798 0.584620
vt 0.217657 0.598093
vt 0.172626 0.555963
vt 0.180818 0.619201
vt 0.149396 0.564176
vt 0.169655 0.628386
vt 0.508106 0.711170
vt 0.571591 0.799677
vt 0.571591 0.708404
vt 0.508106 0.766487
vt 0.527752 0.874515
vt 0.571738 0.844801
vt 0.018964 0.276222
vt 0.019560 0.309551
vt 0.009255 0.249829
vt 0.026485 0.312324
vt 0.038519 0.291264
vt 0.065595 0.321349
vt 0.061083 0.298786
vt 0.083646 0.295777
vt 0.125765 0.327366
vt 0.106210 0.280735
vt 0.396528 0.246137
vt 0.122757 0.223574
vt 0.396528 0.222069
vt 0.122757 0.234103
vt 0.087086 0.712439
vt 0.051811 0.756448
vt 0.051811 0.712439
vt 0.087086 0.741045
vt 0.087086 0.782854
vt 0.087086 0.809783
vt 0.051811 0.803182
vt 0.099152 0.865771
vt 0.519096 0.321349
vt 0.470236 0.295378
vt 0.489791 0.282649
vt 0.489791 0.364972
vt 0.116739 0.262684
vt 0.402545 0.273214
vt 0.440151 0.301794
vt 0.456698 0.384527
vt 0.367948 0.392048
vt 0.417587 0.291264
vt 0.261147 0.392048
vt 0.231062 0.389040
vt 0.190447 0.370989
vt 0.140807 0.340904
vt 0.701936 0.907763
vt 0.669211 0.942468
vt 0.714153 0.948153
vt 0.640240 0.902078
vt 0.670073 0.708526
vt 0.670073 0.801624
vt 0.819055 0.354759
vt 0.755368 0.350194
vt 0.819055 0.356062
vt 0.755368 0.348891
vt 0.621644 0.821372
vt 0.659042 0.852404
vt 0.819055 0.344336
vt 0.755368 0.338468
vt 0.041566 0.485729
vt 0.078702 0.419856
vt 0.073556 0.482919
vt 0.075944 0.420898
vt 0.819055 0.327398
vt 0.755368 0.321530
vt 0.108407 0.419856
vt 0.103262 0.482919
vt 0.819055 0.307854
vt 0.755368 0.301986
vt 0.819055 0.282443
vt 0.755368 0.282443
vt 0.144953 0.426196
vt 0.133375 0.484907
vt 0.819055 0.262899
vt 0.755368 0.262899
vt 0.817662 0.339449
vt 0.752064 0.339449
vt 0.817662 0.346160
vt 0.752064 0.339449
vt 0.718413 0.381172
vt 0.638987 0.674960
vt 0.720190 0.666403
vt 0.634775 0.372615
vt 0.819055 0.241856
vt 0.755368 0.248567
vt 0.819055 0.248567
vt 0.755368 0.248567
vt 0.712371 0.915345
vt 0.640291 0.933016
vt 0.703838 0.933016
vt 0.660525 0.922924
vt 0.817662 0.246942
vt 0.752064 0.249548
vt 0.817662 0.249548
vt 0.752064 0.246942
vt 0.177472 0.741934
vt 0.177472 0.712756
vt 0.177472 0.784579
vt 0.177472 0.811728
vt 0.752064 0.258668
vt 0.817662 0.258668
vt 0.182354 0.867840
vt 0.752064 0.275606
vt 0.817662 0.275606
vt 0.189660 0.932929
vt 0.117943 0.930560
vt 0.755368 0.253779
vt 0.819055 0.253779
vt 0.817662 0.334237
vt 0.752064 0.334237
vt 0.752064 0.301665
vt 0.817662 0.301665
vt 0.198562 0.962107
vt 0.134659 0.959166
vt 0.450385 0.478821
vt 0.552150 0.429218
vt 0.558304 0.478821
vt 0.447375 0.429218
vt 0.752064 0.321208
vt 0.817662 0.321208
vt 0.320518 0.478821
vt 0.321290 0.429218
vt 0.283935 0.481807
vt 0.285773 0.436300
vt 0.215597 0.485876
vt 0.247798 0.450092
vt 0.233215 0.488992
vt 0.217657 0.436619
vt 0.172626 0.478749
vt 0.180818 0.415511
vt 0.149396 0.470536
vt 0.169655 0.406326
vt 0.161500 0.518700
vt 0.229500 0.518700
vt 0.161500 0.493100
vt 0.981815 0.080092
vt 0.910532 0.076345
vt 0.910518 0.068728
vt 0.981719 0.083683
vt 0.910553 0.083875
vt 0.161500 0.527200
vt 0.229500 0.527200
vt 0.161500 0.501700
vt 0.982739 0.082930
vt 0.989265 0.083185
vt 0.989238 0.083875
vt 0.982958 0.082263
vt 0.989292 0.082494
vt 0.982979 0.081626
vt 0.989314 0.081804
vt 0.982803 0.080939
vt 0.989333 0.081113
vt 0.982352 0.081223
vt 0.982737 0.081379
vt 0.981993 0.082388
vt 0.982573 0.082587
vt 0.982825 0.082231
vt 0.982870 0.081788
vt 0.982750 0.081830
vt 0.982667 0.081840
vt 0.490624 0.933648
vt 0.474347 0.951767
vt 0.490526 0.936936
vt 0.457314 0.951767
vt 0.490756 0.930327
vt 0.474347 0.968800
vt 0.982706 0.082104
vt 0.982773 0.082038
vt 0.982789 0.081923
vt 0.982777 0.081924
vt 0.982763 0.081934
vt 0.982763 0.081990
vt 0.982619 0.082034
vt 0.982770 0.082021
vt 0.982782 0.082004
vt 0.982786 0.081959
vt 0.985663 0.082555
vt 0.985740 0.082516
vt 0.477997 0.933188
vt 0.454716 0.932366
vt 0.454617 0.935654
vt 0.939964 0.087751
vt 0.940374 0.091626
vt 0.910518 0.091626
vt 0.478129 0.929899
vt 0.454847 0.929077
vt 0.491480 0.930360
vt 0.939923 0.095496
vt 0.940333 0.099366
vt 0.910518 0.099366
vt 0.478260 0.925953
vt 0.454979 0.925131
vt 0.985591 0.082615
vt 0.985582 0.082592
vt 0.985611 0.082577
vn -0.0000 0.0513 0.9987
vn -0.0044 0.0513 0.9987
vn -0.0045 0.0513 0.9987
vn 0.0030 0.0523 0.9986
vn 0.0007 0.0513 0.9987
vn 0.2093 0.0212 0.9776
vn 0.2104 0.0261 0.9773
vn 0.2091 0.0190 0.9777
vn 0.0044 0.0512 0.9987
vn 0.0044 0.0513 0.9987
vn -0.9019 0.1775 -0.3937
vn -0.0734 0.1543 0.9853
vn -0.7987 0.6017 -0.0001
vn -0.0036 -1.0000 0.0000
vn -0.0860 0.2178 0.9722
vn 0.8283 -0.1724 0.5331
vn 0.9020 0.1772 -0.3937
vn 0.1829 -0.9831 0.0001
vn 0.7988 0.6016 0.0000
vn 0.0732 0.1543 0.9853
vn -0.0067 0.2120 0.9772
vn -0.1407 0.2230 0.9646
vn -0.8069 0.5907 -0.0001
vn 0.8070 0.5906 0.0000
vn -0.4214 0.6200 0.6618
vn -0.7737 0.6168 0.1444
vn -0.9673 -0.2337 -0.0982
vn -0.7547 -0.1395 0.6411
vn -0.0006 -0.2100 0.9777
vn -0.0003 0.7487 0.6629
vn -0.0001 0.9661 0.2583
vn -0.5200 0.7812 -0.3454
vn 0.0001 0.9684 -0.2494
vn 0.0004 0.2100 -0.9777
vn -0.6847 0.0507 -0.7270
vn 0.4262 0.6195 0.6592
vn 0.7588 -0.1385 0.6364
vn 0.9222 -0.3563 -0.1501
vn 0.8271 0.5526 0.1028
vn 0.5091 0.7852 -0.3525
vn 0.6764 0.0528 -0.7347
vn -0.4228 -0.8429 0.3327
vn -0.5449 -0.8021 -0.2444
vn 0.0001 -0.9650 -0.2621
vn -0.0002 -0.9617 0.2740
vn -0.3927 -0.5999 -0.6970
vn 0.0002 -0.7297 -0.6838
vn 0.4282 -0.8418 0.3286
vn 0.4712 -0.8423 -0.2618
vn 0.3847 -0.6012 -0.7004
vn -0.4477 0.6573 0.6062
vn -0.5132 0.8330 0.2068
vn -0.9976 -0.0139 0.0683
vn -0.6946 -0.1434 0.7050
vn -0.0010 -0.1988 0.9800
vn -0.0006 0.7522 0.6589
vn -0.0010 0.9796 0.2011
vn -0.4605 0.8499 -0.2560
vn 0.0049 0.9786 -0.2055
vn 0.0003 0.1987 -0.9801
vn -0.7363 0.1344 -0.6631
vn 0.4453 0.6527 0.6129
vn 0.6875 -0.1449 0.7116
vn 0.9960 -0.0179 0.0872
vn 0.4098 0.8868 0.2135
vn 0.5520 0.7568 -0.3500
vn 0.7432 0.1328 -0.6557
vn -0.4478 -0.8418 0.3014
vn -0.5130 -0.8477 -0.1352
vn -0.0009 -0.9803 -0.1977
vn -0.0003 -0.9498 0.3129
vn -0.4602 -0.6827 -0.5676
vn 0.0049 -0.8208 -0.5712
vn 0.4455 -0.8401 0.3094
vn 0.4097 -0.8998 -0.1499
vn 0.5518 -0.5604 -0.6176
vn -0.4991 0.5241 0.6901
vn -0.4855 0.8506 0.2019
vn -0.9966 -0.0166 0.0812
vn -0.6565 -0.1509 0.7391
vn 0.0000 -0.1993 0.9799
vn -0.0001 0.6251 0.7806
vn 0.0021 0.9791 0.2034
vn -0.6145 0.6223 -0.4849
vn -0.0096 0.9431 -0.3323
vn -0.0000 0.1992 -0.9800
vn -0.7123 0.1404 -0.6877
vn 0.5014 0.5274 0.6859
vn 0.6615 -0.1500 0.7348
vn 0.9976 -0.0140 0.0684
vn 0.6070 0.7688 0.2011
vn 0.5228 0.7659 -0.3743
vn 0.7077 0.1413 -0.6922
vn -0.4990 -0.7522 0.4304
vn -0.4853 -0.8620 -0.1465
vn 0.0021 -0.9807 -0.1953
vn 0.0000 -0.8800 0.4750
vn -0.6132 -0.3832 -0.6907
vn -0.0095 -0.7384 -0.6743
vn 0.5014 -0.7535 0.4253
vn 0.6070 -0.7863 -0.1151
vn 0.5226 -0.5587 -0.6440
vn -0.5108 0.5148 0.6885
vn -0.5089 0.8352 0.2085
vn -0.9951 -0.0217 0.0962
vn -0.6464 -0.1521 0.7477
vn 0.0093 -0.1998 0.9798
vn -0.0296 0.6233 0.7814
vn -0.0443 0.9773 0.2070
vn -0.6307 0.6162 -0.4718
vn -0.0404 0.9712 -0.2347
vn -0.0082 0.1992 -0.9799
vn -0.7190 0.1385 -0.6811
vn 0.4822 0.5314 0.6965
vn 0.6592 -0.1490 0.7370
vn 0.9965 -0.0146 0.0824
vn 0.4590 0.8648 0.2037
vn 0.5987 0.6325 -0.4915
vn 0.7082 0.1416 -0.6916
vn -0.4716 -0.7636 0.4410
vn -0.4586 -0.8770 -0.1434
vn 0.0444 -0.9804 -0.1917
vn 0.0417 -0.8793 0.4745
vn -0.6084 -0.3912 -0.6906
vn 0.0343 -0.8025 -0.5957
vn 0.5207 -0.7407 0.4246
vn 0.5095 -0.8487 -0.1419
vn 0.6213 -0.3815 -0.6844
vn -0.4474 0.6492 0.6151
vn -0.4126 0.8844 0.2181
vn -0.9949 -0.0202 0.0985
vn -0.6870 -0.1457 0.7119
vn 0.0000 -0.1989 0.9800
vn -0.0001 0.7523 0.6588
vn -0.0000 0.9793 0.2026
vn -0.5565 0.7554 -0.3461
vn 0.0009 0.9910 -0.1335
vn -0.0000 0.1988 -0.9800
vn -0.7481 0.1325 -0.6502
vn 0.4485 0.6506 0.6128
vn 0.6893 -0.1452 0.7098
vn 0.9957 -0.0186 0.0910
vn 0.4135 0.8848 0.2150
vn 0.5555 0.7546 -0.3493
vn 0.7455 0.1331 -0.6531
vn -0.4473 -0.8380 0.3125
vn -0.4124 -0.8994 -0.1447
vn -0.0000 -0.9806 -0.1961
vn 0.0000 -0.9498 0.3129
vn -0.5564 -0.5603 -0.6136
vn 0.0000 -0.8603 -0.5098
vn 0.4484 -0.8384 0.3098
vn 0.4132 -0.8986 -0.1477
vn 0.5555 -0.5583 -0.6163
vn -0.8549 -0.0209 -0.5184
vn -0.5807 0.5841 -0.5671
vn -0.6141 0.4262 -0.6643
vn -0.4606 0.1696 -0.8712
vn -0.5718 0.0390 -0.8195
vn -0.5235 -0.0444 -0.8509
vn -0.3284 -0.2254 -0.9172
vn -0.5299 -0.2159 -0.8201
vn -0.0668 0.6535 -0.7539
vn -0.0802 0.7934 -0.6034
vn -0.0507 0.2869 -0.9566
vn -0.0428 0.0403 -0.9983
vn -0.0428 -0.0483 -0.9979
vn -0.0448 -0.2424 -0.9692
vn -0.0423 -0.4099 -0.9111
vn -0.0503 -0.4092 -0.9110
vn -0.1795 -0.4727 -0.8628
vn -0.0730 -0.3935 -0.9164
vn -0.2688 -0.5291 -0.8049
vn 0.6141 0.4262 -0.6643
vn 0.5796 0.5829 -0.5695
vn 0.5149 -0.3793 -0.7688
vn 0.4606 0.1696 -0.8712
vn 0.5718 0.0390 -0.8195
vn 0.5235 -0.0444 -0.8509
vn 0.3284 -0.2254 -0.9172
vn 0.5334 -0.2139 -0.8184
vn 0.5577 -0.2590 -0.7886
vn 0.0666 0.6534 -0.7541
vn 0.0795 0.7935 -0.6034
vn 0.0507 0.2869 -0.9566
vn 0.0428 0.0403 -0.9983
vn 0.0428 -0.0483 -0.9979
vn 0.0448 -0.2424 -0.9692
vn 0.0423 -0.4099 -0.9111
vn 0.0503 -0.4092 -0.9110
vn 0.0730 -0.3935 -0.9164
vn -0.2958 0.0904 0.9510
vn 0.1879 0.0611 0.9803
vn 0.3576 0.2206 0.9074
vn -0.3786 0.2078 0.9019
vn 0.3715 0.9208 0.1186
vn -0.3817 0.9166 0.1192
vn -0.1879 0.0127 0.9821
vn 0.1902 0.0007 0.9818
vn 0.7137 0.2065 0.6694
vn 0.8340 0.5202 0.1839
vn -0.8168 0.5154 0.2593
vn -0.6820 0.2171 0.6984
vn 0.9713 -0.2085 -0.1142
vn -0.0000 0.8242 0.5663
vn -0.0146 -0.5481 0.8363
vn -0.9713 -0.2085 -0.1142
vn 0.9115 -0.4080 -0.0521
vn -0.0000 0.9618 0.2738
vn 0.0003 -0.2308 0.9730
vn -0.9115 -0.4081 -0.0521
vn 0.3699 -0.5998 0.7095
vn 0.1260 -0.7293 0.6725
vn 0.1684 0.7504 0.6391
vn 0.1382 0.8831 0.4483
vn 0.6301 -0.3360 0.7001
vn 0.0203 0.8533 0.5210
vn 0.3191 -0.3767 0.8696
vn -0.3063 0.7436 0.5944
vn -0.2345 -0.7173 0.6562
vn -0.7214 0.4232 0.5482
vn -0.0985 -0.4948 -0.8634
vn -0.1822 0.9037 -0.3874
vn -0.2007 0.8501 -0.4869
vn -0.2938 -0.5929 -0.7498
vn -0.0275 -0.3424 -0.9392
vn -0.4153 0.7878 -0.4549
vn -0.1962 -0.5697 -0.7981
vn -0.6981 0.6082 -0.3778
vn -0.5278 -0.8077 -0.2627
vn -0.9276 0.3603 -0.0989
vn -0.6434 -0.0699 -0.7624
vn 0.6434 -0.0699 -0.7624
vn 0.6667 -0.0680 -0.7422
vn -0.6667 -0.0680 -0.7422
vn -1.0000 -0.0000 0.0000
vn 1.0000 0.0000 0.0000
vn -0.5275 -0.1648 -0.8334
vn 0.5275 -0.1648 -0.8334
vn 0.6280 -0.1510 -0.7634
vn -0.6280 -0.1510 -0.7634
vn 0.4605 -0.8877 -0.0000
vn 0.3256 -0.8877 0.3256
vn 0.0000 -1.0000 -0.0000
vn -0.0000 -0.8877 0.4604
vn -0.3256 -0.8877 0.3256
vn -0.4605 -0.8877 0.0000
vn -0.3256 -0.8877 -0.3256
vn -0.0000 -0.8877 -0.4604
vn 0.3256 -0.8877 -0.3256
vn 0.7071 -0.0000 0.7071
vn -0.0000 -0.0000 1.0000
vn -0.7071 -0.0000 0.7071
vn -0.7071 0.0000 -0.7071
vn -0.0000 0.0000 -1.0000
vn 0.7071 0.0000 -0.7071
vn 0.9978 -0.0126 -0.0647
vn 0.5324 0.1776 0.8276
vn 1.0000 -0.0012 -0.0063
vn 0.5042 0.3560 0.7868
vn -0.5320 0.1786 0.8277
vn -0.5034 0.3549 0.7878
vn -0.9978 -0.0131 -0.0655
vn -1.0000 -0.0020 -0.0078
vn -0.4744 -0.1815 -0.8614
vn -0.4980 -0.3487 -0.7940
vn 0.4740 -0.1810 -0.8617
vn 0.4973 -0.3500 -0.7938
vn 0.5301 -0.1680 0.8311
vn 0.9980 0.0108 -0.0624
vn -0.5303 -0.1675 0.8311
vn -0.9980 0.0106 -0.0620
vn -0.4751 0.1736 -0.8626
vn 0.4753 0.1739 -0.8625
vn 0.9984 0.0216 -0.0531
vn 0.5229 -0.3320 0.7851
vn -0.5233 -0.3325 0.7846
vn -0.9984 0.0214 -0.0524
vn -0.4733 0.3401 -0.8126
vn 0.4736 0.3396 -0.8127
vn -0.7673 -0.6413 -0.0000
vn -0.7533 -0.3185 0.5754
vn 0.0000 -0.4886 0.8725
vn -0.7533 0.3185 0.5754
vn 0.0000 0.4886 0.8725
vn -0.7673 0.6413 -0.0000
vn 0.0000 1.0000 0.0000
vn -0.7533 0.3185 -0.5754
vn 0.0000 0.4886 -0.8725
vn -0.7533 -0.3185 -0.5754
vn 0.0000 -0.4886 -0.8725
vn -0.5531 -0.4078 0.7265
vn -0.5508 -0.8347 0.0000
vn -0.5531 0.4078 0.7265
vn -0.5508 0.8347 0.0000
vn -0.5531 0.4078 -0.7265
vn -0.5531 -0.4078 -0.7265
vn 0.5508 -0.8347 0.0000
vn 0.5531 -0.4078 0.7265
vn 0.5531 0.4078 0.7265
vn 0.5508 0.8347 0.0000
vn 0.5531 0.4078 -0.7265
vn 0.5531 -0.4078 -0.7265
vn 0.7673 -0.6413 0.0000
vn 0.7533 -0.3185 0.5754
vn 0.7533 0.3185 0.5754
vn 0.7673 0.6413 0.0000
vn 0.7533 0.3185 -0.5754
vn 0.7533 -0.3185 -0.5754
vn 0.0827 0.1477 0.9856
vn -0.0988 0.0429 0.9942
vn 0.0094 0.1401 0.9901
vn -0.5398 -0.0010 0.8418
vn -0.6932 -0.7159 0.0834
vn -0.9736 -0.1510 0.1712
vn -0.7192 -0.1869 -0.6692
vn -0.1092 -0.1680 -0.9797
vn 0.0777 -0.0555 -0.9954
vn 0.0082 -0.0618 -0.9981
vn -0.0096 0.0403 0.9991
vn 0.0038 0.1376 0.9905
vn -0.2024 -0.9734 0.1078
vn -0.0106 -0.1732 -0.9848
vn 0.0049 -0.0646 -0.9979
vn 0.0091 0.0399 0.9992
vn -0.0050 0.1385 0.9904
vn 0.2026 -0.9733 0.1079
vn 0.0107 -0.1726 -0.9849
vn -0.0036 -0.0654 -0.9978
vn 0.0993 0.0421 0.9942
vn -0.0080 0.1413 0.9899
vn 0.7010 -0.7083 0.0829
vn 0.1078 -0.1679 -0.9799
vn -0.0085 -0.0632 -0.9980
vn -0.0813 0.1471 0.9858
vn 0.5388 0.0047 0.8424
vn 0.9757 -0.1422 0.1668
vn 0.7160 -0.1797 -0.6746
vn -0.0764 -0.0560 -0.9955
vn -0.1684 0.7504 0.6391
vn -0.1260 -0.7293 0.6725
vn -0.3699 -0.5998 0.7095
vn -0.1382 0.8831 0.4483
vn -0.6301 -0.3360 0.7001
vn -0.0203 0.8533 0.5210
vn -0.3192 -0.3767 0.8696
vn 0.3063 0.7436 0.5944
vn 0.2345 -0.7173 0.6562
vn 0.7214 0.4232 0.5482
vn 0.2007 0.8501 -0.4869
vn 0.1822 0.9037 -0.3875
vn 0.0985 -0.4948 -0.8634
vn 0.2938 -0.5929 -0.7498
vn 0.4153 0.7878 -0.4549
vn 0.0275 -0.3424 -0.9392
vn 0.6981 0.6082 -0.3778
vn 0.1962 -0.5697 -0.7981
vn 0.9276 0.3603 -0.0989
vn 0.5278 -0.8077 -0.2627
vn 0.7214 -0.4128 -0.5560
vn 0.4106 0.6517 -0.6377
vn 0.5314 0.8025 0.2713
vn 0.9060 -0.4114 -0.0993
vn 0.5482 0.4632 0.6964
vn 0.3704 0.5258 0.7657
vn 0.9143 -0.2088 -0.3469
vn 0.5970 0.2929 0.7469
vn 0.8511 -0.2448 -0.4645
vn 0.5773 0.0886 0.8117
vn 0.8802 -0.0163 -0.4744
vn 0.8747 0.1849 -0.4479
vn 0.7233 0.1348 0.6773
vn 0.8741 0.3315 -0.3552
vn 0.7383 -0.6700 -0.0773
vn 0.5452 -0.5700 -0.6147
vn 0.5135 0.6087 -0.6048
vn 0.7089 0.6980 -0.1019
vn 0.2886 -0.5588 -0.7775
vn 0.8230 0.1488 -0.5481
vn 0.9375 0.2735 -0.2152
vn 0.4643 -0.8419 -0.2750
vn 0.4792 -0.8124 0.3322
vn 0.5904 -0.6924 0.4148
vn 0.9202 0.2832 -0.2701
vn 0.5616 -0.7119 0.4216
vn 0.9611 0.2321 -0.1495
vn 0.9524 -0.2416 -0.1860
vn 0.7768 0.6114 -0.1506
vn 0.7854 -0.5590 -0.2659
vn 0.6141 -0.4262 0.6642
vn 0.4606 -0.1696 0.8712
vn 0.7952 -0.3690 -0.4811
vn 0.5718 -0.0390 0.8195
vn 0.5235 0.0444 0.8509
vn 0.3284 0.2254 0.9172
vn 0.5334 0.2139 0.8184
vn 0.5577 0.2590 0.7886
vn -0.0346 -0.6880 -0.7249
vn 0.0474 0.7098 -0.7028
vn 0.0427 0.9811 0.1888
vn -0.0479 -0.9640 -0.2615
vn 0.1463 0.8249 0.5461
vn 0.0362 0.4514 0.8916
vn -0.0416 -0.7616 -0.6467
vn 0.0293 0.2737 0.9614
vn -0.0307 -0.4586 -0.8881
vn 0.0309 0.1740 0.9843
vn -0.0163 -0.1114 -0.9936
vn -0.0083 0.3285 -0.9445
vn 0.0615 0.2529 0.9655
vn -0.0067 0.7145 -0.6996
vn -0.0308 -0.9463 -0.3218
vn -0.0783 -0.5125 -0.8551
vn -0.0350 0.1523 -0.9877
vn -0.0019 0.7245 -0.6893
vn 0.0423 -0.5495 -0.8345
vn -0.0015 0.6700 -0.7423
vn -0.0021 0.9574 -0.2886
vn 0.0721 -0.9519 -0.2979
vn 0.0740 -0.9331 0.3520
vn 0.0763 -0.8845 0.4602
vn -0.0057 0.7998 -0.6003
vn 0.0811 -0.9366 0.3408
vn -0.0099 0.4164 -0.9091
vn 0.0668 -0.6535 0.7539
vn -0.0028 0.9280 -0.3725
vn -0.0030 -0.8906 -0.4548
vn -0.0105 -0.1614 -0.9868
vn 0.0507 -0.2869 0.9566
vn 0.0428 -0.0403 0.9983
vn -0.0072 -0.5953 -0.8035
vn 0.0428 0.0483 0.9979
vn 0.0448 0.2424 0.9692
vn 0.0423 0.4099 0.9111
vn 0.0503 0.4092 0.9110
vn -0.7214 -0.4128 -0.5560
vn -0.5314 0.8025 0.2713
vn -0.4106 0.6517 -0.6377
vn -0.9060 -0.4114 -0.0993
vn -0.5482 0.4632 0.6964
vn -0.3704 0.5258 0.7657
vn -0.9143 -0.2088 -0.3469
vn -0.5970 0.2929 0.7469
vn -0.8511 -0.2448 -0.4645
vn -0.5773 0.0886 0.8117
vn -0.8802 -0.0163 -0.4744
vn -0.8747 0.1849 -0.4479
vn -0.7233 0.1348 0.6773
vn -0.8741 0.3315 -0.3552
vn -0.7383 -0.6700 -0.0773
vn -0.5135 0.6087 -0.6048
vn -0.5452 -0.5700 -0.6147
vn -0.7089 0.6980 -0.1019
vn -0.2886 -0.5588 -0.7775
vn -0.9375 0.2735 -0.2152
vn -0.8230 0.1488 -0.5481
vn -0.4643 -0.8419 -0.2750
vn -0.4792 -0.8124 0.3322
vn -0.5904 -0.6924 0.4147
vn -0.9202 0.2832 -0.2703
vn -0.5617 -0.7119 0.4216
vn -0.9611 0.2321 -0.1497
vn -0.6141 -0.4262 0.6643
vn -0.7768 0.6114 -0.1506
vn -0.7854 -0.5590 -0.2659
vn -0.9524 -0.2416 -0.1860
vn -0.4606 -0.1696 0.8712
vn -0.5718 -0.0390 0.8195
vn -0.7952 -0.3690 -0.4811
vn -0.5235 0.0444 0.8509
vn -0.3284 0.2254 0.9172
vn -0.5334 0.2139 0.8184
vn -0.5577 0.2590 0.7886
vn 0.0346 -0.6880 -0.7249
vn -0.0474 0.7098 -0.7028
vn -0.0427 0.9811 0.1888
vn 0.0479 -0.9640 -0.2615
vn -0.1463 0.8249 0.5461
vn -0.0362 0.4514 0.8916
vn 0.0416 -0.7616 -0.6467
vn -0.0293 0.2737 0.9614
vn 0.0307 -0.4586 -0.8881
vn -0.0309 0.1740 0.9843
vn 0.0163 -0.1114 -0.9936
vn 0.0083 0.3285 -0.9445
vn -0.0615 0.2529 0.9655
vn 0.0067 0.7145 -0.6996
vn 0.0308 -0.9463 -0.3218
vn 0.0783 -0.5125 -0.8551
vn 0.0350 0.1523 -0.9877
vn 0.0019 0.7245 -0.6893
vn -0.0423 -0.5495 -0.8345
vn 0.0015 0.6700 -0.7423
vn 0.0021 0.9574 -0.2886
vn -0.0721 -0.9519 -0.2979
vn -0.0740 -0.9331 0.3520
vn -0.0763 -0.8845 0.4602
vn 0.0057 0.7998 -0.6003
vn -0.0806 -0.9368 0.3406
vn 0.0099 0.4164 -0.9091
vn -0.0666 -0.6534 0.7541
vn 0.0028 0.9280 -0.3725
vn 0.0030 -0.8906 -0.4548
vn 0.0105 -0.1614 -0.9868
vn -0.0507 -0.2869 0.9566
vn -0.0428 -0.0403 0.9983
vn 0.0072 -0.5953 -0.8035
vn -0.0428 0.0483 0.9979
vn -0.0448 0.2424 0.9692
vn -0.0423 0.4099 0.9111
vn -0.0503 0.4092 0.9110
usemtl Inside.007
s off
f 1/1/1 2/2/1 3/3/1
f 2/2/2 4/4/3 3/3/3
f 4/4/4 5/5/4 3/3/4
f 3/3/1 6/6/5 1/1/1
f 6/6/6 7/7/7 8/8/8
f 1/1/9 6/6/9 8/8/10
s 1
f 9/9/11 10/10/12 11/11/13
f 12/12/14 13/13/15 9/14/11
f 14/15/16 13/13/15 12/12/14
f 15/16/17 14/15/16 16/17/18
f 17/18/19 18/19/20 15/20/17
f 10/21/12 9/22/11 13/23/15
f 19/24/21 20/25/22 13/23/15
f 18/26/20 19/24/21 14/27/16
f 9/9/11 11/11/13 21/28/23
f 12/12/14 9/14/11 21/29/23
f 14/15/16 12/12/14 16/17/18
f 15/16/17 16/17/18 22/30/24
f 17/18/19 15/20/17 22/31/24
f 10/21/12 13/23/15 20/25/22
f 19/24/21 13/23/15 14/27/16
f 18/26/20 14/27/16 15/32/17
f 23/33/25 24/34/26 25/35/27
f 23/36/25 26/37/28 27/38/29
f 23/36/25 28/39/30 29/40/31
f 30/41/32 31/42/33 32/43/34
f 30/44/32 33/45/35 25/35/27
f 30/41/32 24/34/26 29/40/31
f 34/46/36 28/47/30 27/38/29
f 34/48/36 35/49/37 36/50/38
f 34/51/36 37/52/39 29/40/31
f 38/53/40 37/54/39 36/50/38
f 38/55/40 39/56/41 32/43/34
f 38/57/40 31/58/33 29/40/31
f 40/59/42 26/60/28 25/35/27
f 40/61/42 41/62/43 42/63/44
f 40/64/42 43/65/45 27/38/29
f 44/66/46 33/67/35 32/43/34
f 44/68/46 45/69/47 42/63/44
f 44/70/46 41/71/43 25/35/27
f 46/72/48 35/73/37 27/38/29
f 46/72/48 43/74/45 42/63/44
f 46/75/48 47/76/49 36/50/38
f 48/77/50 45/78/47 32/43/34
f 48/79/50 39/80/41 36/50/38
f 48/77/50 47/76/49 42/63/44
f 49/81/51 50/82/52 51/83/53
f 49/84/51 52/85/54 53/86/55
f 49/84/51 54/87/56 55/88/57
f 56/89/58 57/90/59 58/91/60
f 56/92/58 59/93/61 51/83/53
f 56/89/58 50/82/52 55/88/57
f 60/94/62 54/95/56 53/86/55
f 60/96/62 61/97/63 62/98/64
f 60/99/62 63/100/65 55/88/57
f 64/101/66 63/102/65 62/98/64
f 64/103/66 65/104/67 58/91/60
f 63/100/65 64/105/66 57/106/59
f 66/107/68 52/108/54 51/83/53
f 66/109/68 67/110/69 68/111/70
f 66/112/68 69/113/71 53/86/55
f 70/114/72 59/115/61 58/91/60
f 70/116/72 71/117/73 68/111/70
f 70/118/72 67/119/69 51/83/53
f 72/120/74 61/121/63 53/86/55
f 72/120/74 69/122/71 68/111/70
f 72/123/74 73/124/75 62/98/64
f 74/125/76 71/126/73 58/91/60
f 74/127/76 65/128/67 62/98/64
f 71/117/73 74/125/76 73/124/75
f 75/129/77 76/130/78 77/131/79
f 75/132/77 78/133/80 79/134/81
f 75/132/77 80/135/82 81/136/83
f 82/137/84 83/138/85 84/139/86
f 82/140/84 85/141/87 77/131/79
f 83/142/85 82/137/84 76/130/78
f 86/143/88 80/144/82 79/134/81
f 86/145/88 87/146/89 88/147/90
f 86/148/88 89/149/91 81/136/83
f 90/150/92 89/151/91 88/147/90
f 90/152/92 91/153/93 84/139/86
f 90/154/92 83/142/85 81/136/83
f 92/155/94 78/156/80 77/131/79
f 92/157/94 93/158/95 94/159/96
f 92/160/94 95/161/97 79/134/81
f 96/162/98 85/163/87 84/139/86
f 93/158/95 96/164/98 97/165/99
f 96/166/98 93/167/95 77/131/79
f 98/168/100 87/169/89 79/134/81
f 98/168/100 95/170/97 94/159/96
f 98/171/100 99/172/101 88/147/90
f 100/173/102 97/174/99 84/139/86
f 100/175/102 91/176/93 88/147/90
f 100/173/102 99/172/101 94/159/96
f 101/177/103 102/178/104 103/179/105
f 101/180/103 104/181/106 105/182/107
f 101/180/103 106/183/108 107/184/109
f 108/185/110 109/186/111 110/187/112
f 108/188/110 111/189/113 103/179/105
f 109/190/111 108/185/110 102/178/104
f 112/191/114 106/192/108 105/182/107
f 112/193/114 113/194/115 114/195/116
f 112/196/114 115/197/117 107/184/109
f 116/198/118 115/199/117 114/195/116
f 116/200/118 117/201/119 110/187/112
f 115/197/117 116/202/118 109/190/111
f 118/203/120 104/204/106 103/179/105
f 118/205/120 119/206/121 120/207/122
f 118/208/120 121/209/123 105/182/107
f 122/210/124 111/211/113 110/187/112
f 119/206/121 122/212/124 123/213/125
f 122/214/124 119/215/121 103/179/105
f 124/216/126 113/217/115 105/182/107
f 124/216/126 121/218/123 120/207/122
f 124/219/126 125/220/127 114/195/116
f 126/221/128 123/222/125 110/187/112
f 126/223/128 117/224/119 114/195/116
f 123/213/125 126/221/128 125/220/127
f 127/225/129 128/226/130 129/227/131
f 127/228/129 130/229/132 131/230/133
f 127/228/129 132/231/134 133/232/135
f 134/233/136 135/234/137 136/235/138
f 134/236/136 137/237/139 129/227/131
f 135/238/137 134/233/136 128/226/130
f 138/239/140 132/240/134 131/230/133
f 138/241/140 139/242/141 140/243/142
f 138/244/140 141/245/143 133/232/135
f 142/246/144 141/247/143 140/243/142
f 142/248/144 143/249/145 136/235/138
f 141/245/143 142/250/144 135/238/137
f 144/251/146 130/252/132 129/227/131
f 144/253/146 145/254/147 146/255/148
f 144/256/146 147/257/149 131/230/133
f 148/258/150 137/259/139 136/235/138
f 145/254/147 148/260/150 149/261/151
f 148/262/150 145/263/147 129/227/131
f 150/264/152 139/265/141 131/230/133
f 150/264/152 147/266/149 146/255/148
f 150/267/152 151/268/153 140/243/142
f 152/269/154 149/270/151 136/235/138
f 152/271/154 143/272/145 140/243/142
f 149/261/151 152/269/154 151/268/153
f 49/81/51 51/83/53 52/108/54
f 49/84/51 53/86/55 54/95/56
f 49/84/51 55/88/57 50/82/52
f 56/89/58 58/91/60 59/115/61
f 56/92/58 51/83/53 50/82/52
f 56/89/58 55/88/57 57/106/59
f 60/94/62 53/86/55 61/121/63
f 60/96/62 62/98/64 63/102/65
f 60/99/62 55/88/57 54/87/56
f 64/101/66 62/98/64 65/128/67
f 64/103/66 58/91/60 57/90/59
f 63/100/65 57/106/59 55/88/57
f 66/107/68 51/83/53 67/119/69
f 66/109/68 68/111/70 69/122/71
f 66/112/68 53/86/55 52/85/54
f 70/114/72 58/91/60 71/126/73
f 70/116/72 68/111/70 67/110/69
f 70/118/72 51/83/53 59/93/61
f 72/120/74 53/86/55 69/113/71
f 72/120/74 68/111/70 73/124/75
f 72/123/74 62/98/64 61/97/63
f 74/125/76 58/91/60 65/104/67
f 74/127/76 62/98/64 73/124/75
f 71/117/73 73/124/75 68/111/70
f 75/129/77 77/131/79 78/156/80
f 75/132/77 79/134/81 80/144/82
f 75/132/77 81/136/83 76/130/78
f 82/137/84 84/139/86 85/163/87
f 82/140/84 77/131/79 76/130/78
f 83/142/85 76/130/78 81/136/83
f 86/143/88 79/134/81 87/169/89
f 86/145/88 88/147/90 89/151/91
f 86/148/88 81/136/83 80/135/82
f 90/150/92 88/147/90 91/176/93
f 90/152/92 84/139/86 83/138/85
f 90/154/92 81/136/83 89/149/91
f 92/155/94 77/131/79 93/167/95
f 92/157/94 94/159/96 95/170/97
f 92/160/94 79/134/81 78/133/80
f 96/162/98 84/139/86 97/174/99
f 93/158/95 97/165/99 94/159/96
f 96/166/98 77/131/79 85/141/87
f 98/168/100 79/134/81 95/161/97
f 98/168/100 94/159/96 99/172/101
f 98/171/100 88/147/90 87/146/89
f 100/173/102 84/139/86 91/153/93
f 100/175/102 88/147/90 99/172/101
f 100/173/102 94/159/96 97/165/99
f 101/177/103 103/179/105 104/204/106
f 101/180/103 105/182/107 106/192/108
f 101/180/103 107/184/109 102/178/104
f 108/185/110 110/187/112 111/211/113
f 108/188/110 103/179/105 102/178/104
f 109/190/111 102/178/104 107/184/109
f 112/191/114 105/182/107 113/217/115
f 112/193/114 114/195/116 115/199/117
f 112/196/114 107/184/109 106/183/108
f 116/198/118 114/195/116 117/224/119
f 116/200/118 110/187/112 109/186/111
f 115/197/117 109/190/111 107/184/109
f 118/203/120 103/179/105 119/215/121
f 118/205/120 120/207/122 121/218/123
f 118/208/120 105/182/107 104/181/106
f 122/210/124 110/187/112 123/222/125
f 119/206/121 123/213/125 120/207/122
f 122/214/124 103/179/105 111/189/113
f 124/216/126 105/182/107 121/209/123
f 124/216/126 120/207/122 125/220/127
f 124/219/126 114/195/116 113/194/115
f 126/221/128 110/187/112 117/201/119
f 126/223/128 114/195/116 125/220/127
f 123/213/125 125/220/127 120/207/122
f 127/225/129 129/227/131 130/252/132
f 127/228/129 131/230/133 132/240/134
f 127/228/129 133/232/135 128/226/130
f 134/233/136 136/235/138 137/259/139
f 134/236/136 129/227/131 128/226/130
f 135/238/137 128/226/130 133/232/135
f 138/239/140 131/230/133 139/265/141
f 138/241/140 140/243/142 141/247/143
f 138/244/140 133/232/135 132/231/134
f 142/246/144 140/243/142 143/272/145
f 142/248/144 136/235/138 135/234/137
f 141/245/143 135/238/137 133/232/135
f 144/251/146 129/227/131 145/263/147
f 144/253/146 146/255/148 147/266/149
f 144/256/146 131/230/133 130/229/132
f 148/258/150 136/235/138 149/270/151
f 145/254/147 149/261/151 146/255/148
f 148/262/150 129/227/131 137/237/139
f 150/264/152 131/230/133 147/257/149
f 150/264/152 146/255/148 151/268/153
f 150/267/152 140/243/142 139/242/141
f 152/269/154 136/235/138 143/249/145
f 152/271/154 140/243/142 151/268/153
f 149/261/151 151/268/153 146/255/148
f 23/33/25 25/35/27 26/60/28
f 23/36/25 27/38/29 28/47/30
f 23/36/25 29/40/31 24/34/26
f 30/41/32 32/43/34 33/67/35
f 30/44/32 25/35/27 24/34/26
f 30/41/32 29/40/31 31/58/33
f 34/46/36 27/38/29 35/73/37
f 34/48/36 36/50/38 37/54/39
f 34/51/36 29/40/31 28/39/30
f 38/53/40 36/50/38 39/80/41
f 38/55/40 32/43/34 31/42/33
f 38/57/40 29/40/31 37/52/39
f 40/59/42 25/35/27 41/71/43
f 40/61/42 42/63/44 43/74/45
f 40/64/42 27/38/29 26/37/28
f 44/66/46 32/43/34 45/78/47
f 44/68/46 42/63/44 41/62/43
f 44/70/46 25/35/27 33/45/35
f 46/72/48 27/38/29 43/65/45
f 46/72/48 42/63/44 47/76/49
f 46/75/48 36/50/38 35/49/37
f 48/77/50 32/43/34 39/56/41
f 48/79/50 36/50/38 47/76/49
f 48/77/50 42/63/44 45/69/47
f 540/273/155 539/274/156 541/275/157
f 540/273/155 541/275/157 542/276/158
f 540/273/155 542/276/158 543/277/159
f 540/273/155 543/277/159 544/278/160
f 540/273/155 544/278/160 545/279/161
f 540/273/155 545/279/161 546/280/162
f 549/281/163 539/282/156 548/283/164
f 539/282/156 549/281/163 541/284/157
f 550/285/165 541/284/157 549/281/163
f 541/284/157 550/285/165 542/286/158
f 551/287/166 542/288/158 550/289/165
f 542/288/158 551/287/166 543/290/159
f 552/291/167 543/290/159 551/287/166
f 543/290/159 552/291/167 544/292/160
f 553/293/168 544/292/160 552/291/167
f 544/292/160 553/293/168 545/294/161
f 554/295/169 545/296/161 553/297/168
f 545/296/161 554/295/169 546/298/162
f 555/299/170 546/298/162 554/295/169
f 546/298/162 555/299/170 547/300/171
f 537/301/172 547/300/171 555/299/170
f 547/300/171 537/301/172 540/302/173
f 558/303/174 557/304/175 556/305/176
f 559/306/177 558/303/174 556/305/176
f 560/307/178 559/306/177 556/305/176
f 561/308/179 560/307/178 556/305/176
f 562/309/180 561/308/179 556/305/176
f 563/310/181 562/309/180 556/305/176
f 564/311/182 563/310/181 556/305/176
f 566/312/183 565/313/184 557/314/175
f 557/314/175 558/315/174 566/312/183
f 567/316/185 566/312/183 558/315/174
f 558/315/174 559/317/177 567/316/185
f 568/318/186 567/319/185 559/320/177
f 559/320/177 560/321/178 568/318/186
f 569/322/187 568/318/186 560/321/178
f 560/321/178 561/323/179 569/322/187
f 570/324/188 569/322/187 561/323/179
f 561/323/179 562/325/180 570/324/188
f 571/326/189 570/327/188 562/328/180
f 562/328/180 563/329/181 571/326/189
f 572/330/190 571/326/189 563/329/181
f 563/329/181 564/331/182 572/330/190
f 538/332/191 572/330/190 564/331/182
f 564/331/182 556/333/176 538/332/191
f 572/330/190 538/332/191 537/301/172
f 555/299/170 572/330/190 537/301/172
f 571/326/189 555/299/170 554/295/169
f 555/299/170 571/326/189 572/330/190
f 553/297/168 570/327/188 554/295/169
f 570/327/188 571/326/189 554/295/169
f 552/291/167 569/322/187 553/293/168
f 569/322/187 570/324/188 553/293/168
f 551/287/166 568/318/186 552/291/167
f 568/318/186 569/322/187 552/291/167
f 550/289/165 567/319/185 551/287/166
f 567/319/185 568/318/186 551/287/166
f 550/285/165 566/312/183 567/316/185
f 566/312/183 550/285/165 549/281/163
f 549/281/163 548/283/164 565/313/184
f 549/281/163 565/313/184 566/312/183
usemtl _fox_kitcar.png
f 153/334/192 154/335/193 155/336/194
f 156/337/195 153/334/192 155/336/194
f 156/337/195 155/336/194 157/338/196
f 157/338/196 158/339/197 156/337/195
f 159/340/198 160/341/199 154/335/193
f 154/335/193 153/334/192 159/340/198
f 160/341/199 161/342/200 155/336/194
f 155/336/194 154/335/193 160/341/199
f 161/342/200 162/343/201 157/338/196
f 157/338/196 155/336/194 161/342/200
f 162/344/201 163/345/202 158/346/197
f 158/346/197 157/347/196 162/344/201
f 163/348/202 164/349/203 156/337/195
f 156/337/195 158/339/197 163/348/202
f 159/340/198 153/334/192 164/349/203
f 153/334/192 156/337/195 164/349/203
f 165/350/204 166/351/205 167/352/206
f 166/351/205 168/353/207 167/352/206
f 168/353/207 165/350/204 167/352/206
f 169/354/208 170/355/209 171/356/210
f 170/355/209 172/357/211 171/356/210
f 172/357/211 169/354/208 171/356/210
f 173/358/212 174/359/213 175/360/214
f 176/361/215 173/358/212 175/360/214
f 177/362/216 173/358/212 176/361/215
f 176/361/215 178/363/217 177/362/216
f 179/364/218 177/362/216 178/363/217
f 178/363/217 180/365/219 179/364/218
f 181/366/220 179/364/218 180/365/219
f 180/365/219 182/367/221 181/366/220
f 183/368/222 184/369/223 185/370/224
f 185/370/224 186/371/225 183/368/222
f 187/372/226 188/373/227 184/369/223
f 184/369/223 183/368/222 187/372/226
f 189/374/228 190/375/229 188/373/227
f 188/373/227 187/372/226 189/374/228
f 191/376/230 192/377/231 190/375/229
f 190/375/229 189/374/228 191/376/230
f 184/369/223 176/361/215 175/360/214
f 175/360/214 185/370/224 184/369/223
f 188/373/227 178/363/217 176/361/215
f 176/361/215 184/369/223 188/373/227
f 190/375/229 180/365/219 178/363/217
f 178/363/217 188/373/227 190/375/229
f 192/377/231 182/367/221 180/365/219
f 180/365/219 190/375/229 192/377/231
f 191/376/230 181/366/220 182/367/221
f 182/367/221 192/377/231 191/376/230
f 189/378/228 179/379/218 181/380/220
f 181/380/220 191/381/230 189/378/228
f 187/382/226 177/383/216 179/379/218
f 179/379/218 189/378/228 187/382/226
f 183/384/222 173/385/212 177/383/216
f 177/383/216 187/382/226 183/384/222
f 174/386/213 173/385/212 186/387/225
f 173/385/212 183/384/222 186/387/225
f 193/388/232 194/389/233 195/390/234
f 196/391/235 193/388/232 195/390/234
f 197/392/236 193/388/232 196/391/235
f 196/391/235 198/393/236 197/392/236
f 199/394/237 195/390/234 194/389/233
f 194/389/233 200/395/237 199/394/237
f 201/396/232 202/397/233 203/398/234
f 204/399/235 201/396/232 203/398/234
f 205/400/236 201/396/232 204/399/235
f 204/399/235 206/401/236 205/400/236
f 207/402/237 203/398/234 202/397/233
f 202/397/233 208/403/237 207/402/237
f 209/404/238 210/405/239 211/406/240
f 212/407/241 209/404/238 211/406/240
f 213/408/236 209/404/238 212/407/241
f 212/407/241 214/409/236 213/408/236
f 215/410/237 211/406/240 210/405/239
f 210/405/239 216/411/237 215/410/237
f 217/412/238 218/413/239 219/414/240
f 220/415/241 217/412/238 219/414/240
f 221/416/236 217/412/238 220/415/241
f 220/415/241 222/417/236 221/416/236
f 223/418/237 219/414/240 218/413/239
f 218/413/239 224/419/237 223/418/237
f 225/420/242 226/421/243 227/422/244
f 226/421/243 228/423/245 227/422/244
f 228/423/245 229/424/246 227/422/244
f 229/424/246 230/425/247 227/422/244
f 230/425/247 231/426/248 227/422/244
f 231/426/248 232/427/249 227/422/244
f 232/427/249 233/428/250 227/422/244
f 233/428/250 225/420/242 227/422/244
f 234/429/251 225/420/242 235/430/237
f 226/421/243 225/420/242 234/429/251
f 234/429/251 236/431/252 226/421/243
f 236/431/252 228/423/245 226/421/243
f 236/431/252 237/432/253 228/423/245
f 237/432/253 229/424/246 228/423/245
f 237/432/253 238/433/236 229/424/246
f 238/433/236 230/425/247 229/424/246
f 238/433/236 239/434/254 230/425/247
f 239/434/254 231/426/248 230/425/247
f 239/434/254 240/435/255 231/426/248
f 240/435/255 232/427/249 231/426/248
f 240/435/255 241/436/256 232/427/249
f 241/436/256 233/428/250 232/427/249
f 241/436/256 235/430/237 233/428/250
f 235/430/237 225/420/242 233/428/250
f 242/437/257 243/438/258 244/439/259
f 243/438/258 245/440/260 244/439/259
f 243/441/258 246/442/261 245/443/260
f 246/442/261 247/444/262 245/445/260
f 246/446/261 248/447/263 247/448/262
f 248/449/263 249/450/264 247/444/262
f 248/451/263 250/452/265 249/453/264
f 250/454/265 251/455/266 249/450/264
f 250/452/265 252/456/267 251/457/266
f 252/458/267 253/459/268 251/455/266
f 252/456/267 242/437/257 253/460/268
f 242/461/257 244/462/259 253/463/268
f 254/464/269 242/437/257 255/465/270
f 243/438/258 242/437/257 254/464/269
f 254/466/269 256/467/271 243/441/258
f 256/468/271 246/469/261 243/470/258
f 256/467/271 257/471/272 246/442/261
f 257/471/272 248/449/263 246/442/261
f 257/472/272 258/473/273 248/451/263
f 258/473/273 250/452/265 248/451/263
f 258/473/273 259/474/274 250/452/265
f 259/474/274 252/456/267 250/452/265
f 259/474/274 255/465/270 252/456/267
f 255/465/270 242/437/257 252/456/267
f 260/475/275 261/476/276 255/477/270
f 261/478/276 254/464/269 255/465/270
f 261/479/276 262/480/277 254/481/269
f 262/480/277 256/467/271 254/482/269
f 262/483/277 263/484/278 256/485/271
f 263/484/278 257/472/272 256/485/271
f 263/484/278 264/486/279 257/472/272
f 264/486/279 258/473/273 257/472/272
f 264/487/279 265/488/280 258/489/273
f 265/490/280 259/474/274 258/473/273
f 265/491/280 260/475/275 259/492/274
f 260/493/275 255/465/270 259/474/274
f 266/494/281 267/495/282 268/496/244
f 267/495/282 269/497/283 268/496/244
f 267/498/282 270/499/284 269/500/283
f 270/501/284 271/502/285 269/503/283
f 270/499/284 272/504/286 271/505/285
f 272/506/286 273/507/287 271/508/285
f 272/506/286 274/509/288 273/507/287
f 274/509/288 275/510/289 273/507/287
f 274/509/288 276/511/290 275/510/289
f 276/511/290 277/512/291 275/510/289
f 276/511/290 266/494/281 277/512/291
f 266/494/281 268/496/244 277/512/291
f 278/513/292 266/494/281 279/514/293
f 267/495/282 266/494/281 278/513/292
f 278/513/292 280/515/294 267/495/282
f 280/516/294 270/499/284 267/517/282
f 280/518/294 281/519/295 270/520/284
f 281/519/295 272/506/286 270/520/284
f 281/519/295 282/521/296 272/506/286
f 282/521/296 274/509/288 272/506/286
f 282/521/296 283/522/297 274/509/288
f 283/522/297 276/511/290 274/509/288
f 283/522/297 279/514/293 276/511/290
f 279/514/293 266/494/281 276/511/290
f 284/523/298 285/524/299 279/525/293
f 285/526/299 278/513/292 279/514/293
f 285/527/299 286/528/300 278/529/292
f 286/528/300 280/516/294 278/530/292
f 286/531/300 287/532/301 280/518/294
f 287/532/301 281/519/295 280/518/294
f 287/532/301 288/533/302 281/519/295
f 288/533/302 282/521/296 281/519/295
f 288/533/302 289/534/303 282/521/296
f 289/534/303 283/522/297 282/521/296
f 289/534/303 284/535/298 283/522/297
f 284/535/298 279/514/293 283/522/297
f 290/536/304 291/537/305 284/535/298
f 291/537/305 285/538/299 284/535/298
f 291/539/305 292/540/306 285/541/299
f 292/542/306 286/531/300 285/543/299
f 292/542/306 293/544/307 286/531/300
f 293/544/307 287/532/301 286/531/300
f 293/544/307 294/545/308 287/532/301
f 294/545/308 288/533/302 287/532/301
f 294/545/308 295/546/309 288/533/302
f 295/546/309 289/534/303 288/533/302
f 295/546/309 290/536/304 289/534/303
f 290/536/304 284/535/298 289/534/303
f 296/547/244 297/548/283 290/536/304
f 297/548/283 291/537/305 290/536/304
f 297/548/283 298/549/285 291/537/305
f 298/550/285 292/540/306 291/551/305
f 298/552/285 299/553/287 292/554/306
f 299/555/287 293/556/307 292/540/306
f 299/557/287 300/558/289 293/544/307
f 300/558/289 294/545/308 293/544/307
f 300/558/289 301/559/291 294/545/308
f 301/559/291 295/546/309 294/545/308
f 301/559/291 296/547/244 295/546/309
f 296/547/244 290/536/304 295/546/309
f 302/560/310 303/561/311 304/562/312
f 302/560/310 305/563/313 303/561/311
f 305/563/313 306/564/314 303/561/311
f 305/565/313 307/566/315 306/567/314
f 307/566/315 308/568/316 306/567/314
f 306/567/314 308/568/316 309/569/317
f 308/568/316 310/570/318 309/569/317
f 309/569/317 310/570/318 311/571/319
f 304/562/312 312/572/320 313/573/321
f 304/562/312 303/561/311 312/572/320
f 303/561/311 314/574/322 312/572/320
f 303/561/311 306/564/314 314/574/322
f 306/567/314 309/569/317 314/575/322
f 314/575/322 309/569/317 315/576/323
f 309/569/317 316/577/324 315/576/323
f 309/569/317 311/571/319 316/577/324
f 313/573/321 317/578/325 318/579/326
f 313/573/321 312/572/320 317/578/325
f 312/572/320 319/580/327 317/578/325
f 312/572/320 314/574/322 319/580/327
f 314/575/322 320/581/328 319/582/327
f 314/575/322 315/576/323 320/581/328
f 315/576/323 321/583/329 320/581/328
f 315/576/323 316/577/324 321/583/329
f 318/579/326 322/584/330 323/585/331
f 318/579/326 317/578/325 322/584/330
f 317/578/325 319/580/327 322/584/330
f 322/584/330 319/580/327 324/586/332
f 319/582/327 325/587/333 324/588/332
f 319/582/327 320/581/328 325/587/333
f 320/581/328 326/589/334 325/587/333
f 320/581/328 321/583/329 326/589/334
f 323/590/331 322/591/330 327/592/335
f 327/593/335 322/584/330 328/594/336
f 322/584/330 324/586/332 328/594/336
f 328/595/336 324/596/332 329/597/337
f 324/588/332 330/598/338 329/599/337
f 324/588/332 325/587/333 330/598/338
f 325/587/333 331/600/339 330/598/338
f 325/587/333 326/589/334 331/600/339
f 332/601/340 333/602/341 334/603/342
f 335/604/343 332/601/340 334/603/342
f 335/604/343 334/603/342 336/605/344
f 336/605/344 337/606/345 335/604/343
f 337/606/345 336/605/344 338/607/346
f 338/607/346 339/608/347 337/606/345
f 339/608/347 338/607/346 340/609/348
f 340/609/348 341/610/349 339/608/347
f 342/611/350 343/612/351 344/613/352
f 344/613/352 345/614/353 342/611/350
f 343/612/351 346/615/354 347/616/355
f 347/616/355 344/613/352 343/612/351
f 346/615/354 348/617/356 349/618/357
f 349/618/357 347/616/355 346/615/354
f 348/617/356 350/619/358 351/620/359
f 351/620/359 349/618/357 348/617/356
f 332/601/340 335/604/343 343/612/351
f 342/611/350 332/601/340 343/612/351
f 335/604/343 337/606/345 346/615/354
f 346/615/354 343/612/351 335/604/343
f 337/606/345 339/608/347 348/617/356
f 348/617/356 346/615/354 337/606/345
f 339/608/347 341/610/349 350/619/358
f 350/619/358 348/617/356 339/608/347
f 341/610/349 340/609/348 351/620/359
f 351/620/359 350/619/358 341/610/349
f 340/621/348 338/622/346 349/623/357
f 349/623/357 351/624/359 340/621/348
f 338/622/346 336/625/344 347/626/355
f 347/626/355 349/623/357 338/622/346
f 336/625/344 334/627/342 344/628/352
f 344/628/352 347/626/355 336/625/344
f 334/627/342 333/629/341 345/630/353
f 345/630/353 344/628/352 334/627/342
f 352/631/360 353/632/361 354/633/362
f 355/634/363 352/631/360 354/633/362
f 356/635/364 354/633/362 357/636/365
f 355/634/363 354/633/362 356/635/364
f 358/637/366 355/638/363 356/639/364
f 358/637/366 356/639/364 359/640/367
f 360/641/368 358/637/366 359/640/367
f 360/641/368 359/640/367 361/642/369
f 362/643/370 360/641/368 361/642/369
f 363/644/371 362/643/370 361/642/369
f 363/644/371 361/642/369 364/645/372
f 365/646/373 363/644/371 364/645/372
f 366/647/374 367/648/375 368/649/376
f 366/647/374 368/649/376 369/650/377
f 370/651/378 371/652/379 372/653/380
f 373/654/381 370/651/378 372/653/380
f 374/655/382 373/654/381 372/653/380
f 375/656/383 374/655/382 372/653/380
f 375/656/383 372/653/380 376/657/384
f 7/658/385 375/656/383 376/657/384
f 7/659/385 376/660/384 377/661/386
f 378/662/387 7/659/385 377/661/386
f 366/647/374 369/650/377 379/663/388
f 380/664/389 366/647/374 379/663/388
f 364/645/372 7/659/385 378/662/387
f 364/645/372 381/665/390 7/659/385
f 364/645/372 382/666/391 381/665/390
f 364/645/372 378/662/387 383/667/392
f 364/645/372 383/667/392 380/664/389
f 364/645/372 380/664/389 379/663/388
f 364/645/372 384/668/393 382/666/391
f 364/645/372 385/669/394 384/668/393
f 364/645/372 386/670/395 385/669/394
f 364/645/372 387/671/396 386/670/395
f 364/645/372 388/672/397 387/671/396
f 365/646/373 364/645/372 379/663/388
f 389/673/398 390/674/399 353/675/361
f 353/675/361 352/676/360 389/673/398
f 390/677/399 391/678/400 354/633/362
f 354/633/362 353/632/361 390/677/399
f 389/679/398 352/680/360 392/681/401
f 352/680/360 355/682/363 392/681/401
f 354/633/362 393/683/402 357/636/365
f 393/683/402 354/633/362 391/678/400
f 357/636/365 394/684/403 356/635/364
f 394/684/403 357/636/365 393/683/402
f 395/685/404 392/681/401 355/682/363
f 355/682/363 358/686/366 395/685/404
f 394/687/403 396/688/405 359/689/367
f 359/689/367 356/690/364 394/687/403
f 397/691/406 395/685/404 358/686/366
f 358/686/366 360/692/368 397/691/406
f 396/688/405 398/693/407 361/694/369
f 361/694/369 359/689/367 396/688/405
f 399/695/408 397/691/406 360/692/368
f 360/692/368 362/696/370 399/695/408
f 400/697/409 399/695/408 362/696/370
f 362/696/370 363/698/371 400/697/409
f 398/693/407 1/699/410 364/700/372
f 364/700/372 361/694/369 398/693/407
f 401/701/411 400/697/409 363/698/371
f 363/698/371 365/702/373 401/701/411
f 402/703/412 403/704/413 367/705/375
f 367/705/375 366/706/374 402/703/412
f 403/707/413 404/708/414 368/709/376
f 368/709/376 367/710/375 403/707/413
f 404/711/414 405/712/415 369/713/377
f 369/713/377 368/714/376 404/711/414
f 406/715/416 407/716/417 371/717/379
f 371/717/379 370/718/378 406/715/416
f 407/719/417 408/720/418 372/721/380
f 372/721/380 371/722/379 407/719/417
f 409/723/419 406/724/416 370/651/378
f 370/651/378 373/654/381 409/723/419
f 410/725/420 409/723/419 373/654/381
f 373/654/381 374/655/382 410/725/420
f 411/726/421 410/725/420 374/655/382
f 374/655/382 375/656/383 411/726/421
f 408/720/418 412/727/422 376/728/384
f 376/728/384 372/721/380 408/720/418
f 413/729/423 411/726/421 375/656/383
f 375/656/383 7/658/385 413/729/423
f 412/727/422 414/730/424 377/731/386
f 377/731/386 376/728/384 412/727/422
f 415/732/425 413/729/423 7/658/385
f 7/658/385 381/733/390 415/732/425
f 405/712/415 416/734/426 379/735/388
f 379/735/388 369/713/377 405/712/415
f 417/736/427 402/703/412 366/706/374
f 366/706/374 380/737/389 417/736/427
f 414/730/424 418/738/428 378/739/387
f 378/739/387 377/731/386 414/730/424
f 419/740/429 415/732/425 381/733/390
f 381/733/390 382/741/391 419/740/429
f 420/742/430 419/743/429 382/744/391
f 382/744/391 384/745/393 420/742/430
f 418/738/428 421/746/431 383/747/392
f 383/747/392 378/739/387 418/738/428
f 421/746/431 417/736/427 380/737/389
f 380/737/389 383/747/392 421/746/431
f 422/748/432 420/742/430 384/745/393
f 384/745/393 385/749/394 422/748/432
f 423/750/433 422/748/432 385/749/394
f 385/749/394 386/751/395 423/750/433
f 424/752/434 423/753/433 386/754/395
f 386/754/395 387/755/396 424/752/434
f 425/756/435 424/752/434 387/755/396
f 387/755/396 388/757/397 425/756/435
f 1/758/410 425/756/435 388/757/397
f 388/757/397 364/759/372 1/758/410
f 416/734/426 401/701/411 365/702/373
f 365/702/373 379/735/388 416/734/426
f 426/760/436 427/761/437 428/762/438
f 429/763/439 427/761/437 426/760/436
f 429/763/439 430/764/440 427/761/437
f 427/761/437 430/764/440 431/765/441
f 432/766/442 430/767/440 429/768/439
f 432/766/442 433/769/443 430/767/440
f 434/770/444 433/769/443 432/766/442
f 434/770/444 435/771/445 433/769/443
f 436/772/446 435/771/445 434/770/444
f 437/773/447 435/771/445 436/772/446
f 437/773/447 438/774/448 435/771/445
f 439/775/449 438/774/448 437/773/447
f 440/776/450 441/777/451 442/778/452
f 440/776/450 443/779/453 441/777/451
f 444/780/454 445/781/455 446/782/456
f 447/783/457 445/781/455 444/780/454
f 448/784/458 445/781/455 447/783/457
f 449/785/459 445/781/455 448/784/458
f 449/785/459 450/786/460 445/781/455
f 451/787/461 450/786/460 449/785/459
f 451/788/461 452/789/462 450/790/460
f 453/791/463 438/774/448 451/788/461
f 440/776/450 454/792/464 443/779/453
f 455/793/465 454/792/464 440/776/450
f 451/788/461 456/794/466 452/789/462
f 457/795/467 438/774/448 453/791/463
f 458/796/468 438/774/448 457/795/467
f 451/788/461 438/774/448 456/794/466
f 456/794/466 438/774/448 459/797/469
f 459/797/469 438/774/448 455/793/465
f 460/798/470 438/774/448 458/796/468
f 461/799/471 438/774/448 460/798/470
f 462/800/472 438/774/448 461/799/471
f 463/801/473 438/774/448 462/800/472
f 438/774/448 439/775/449 454/792/464
f 438/774/448 454/792/464 455/793/465
f 464/802/474 428/803/438 465/804/475
f 428/803/438 464/802/474 426/805/436
f 465/806/475 427/761/437 466/807/476
f 427/761/437 465/806/475 428/762/438
f 467/808/477 426/809/436 464/810/474
f 426/809/436 467/808/477 429/811/439
f 466/807/476 427/761/437 468/812/478
f 431/765/441 468/812/478 427/761/437
f 468/812/478 431/765/441 469/813/479
f 430/764/440 469/813/479 431/765/441
f 470/814/480 429/811/439 467/808/477
f 429/811/439 470/814/480 432/815/442
f 469/816/479 433/817/443 471/818/481
f 433/817/443 469/816/479 430/819/440
f 472/820/482 432/815/442 470/814/480
f 432/815/442 472/820/482 434/821/444
f 471/818/481 435/822/445 473/823/483
f 435/822/445 471/818/481 433/817/443
f 474/824/484 434/821/444 472/820/482
f 434/821/444 474/824/484 436/825/446
f 475/826/485 436/825/446 474/824/484
f 436/825/446 475/826/485 437/827/447
f 473/823/483 438/828/448 2/829/486
f 438/828/448 473/823/483 435/822/445
f 476/830/487 437/827/447 475/826/485
f 437/827/447 476/830/487 439/831/449
f 477/832/488 442/833/452 478/834/489
f 442/833/452 477/832/488 440/835/450
f 478/836/489 441/837/451 479/838/490
f 441/837/451 478/836/489 442/839/452
f 479/840/490 443/841/453 480/842/491
f 443/841/453 479/840/490 441/843/451
f 481/844/492 446/845/456 482/846/493
f 446/845/456 481/844/492 444/847/454
f 482/848/493 445/849/455 483/850/494
f 445/849/455 482/848/493 446/851/456
f 484/852/495 444/780/454 481/853/492
f 444/780/454 484/852/495 447/783/457
f 485/854/496 447/783/457 484/852/495
f 447/783/457 485/854/496 448/784/458
f 486/855/497 448/784/458 485/854/496
f 448/784/458 486/855/497 449/785/459
f 483/850/494 450/856/460 487/857/498
f 450/856/460 483/850/494 445/849/455
f 488/858/499 449/785/459 486/855/497
f 449/785/459 488/858/499 451/787/461
f 487/857/498 452/859/462 489/860/500
f 452/859/462 487/857/498 450/856/460
f 490/861/501 451/787/461 488/858/499
f 451/787/461 490/861/501 453/862/463
f 480/842/491 454/863/464 491/864/502
f 454/863/464 480/842/491 443/841/453
f 492/865/503 440/835/450 477/832/488
f 440/835/450 492/865/503 455/866/465
f 489/860/500 456/867/466 493/868/504
f 456/867/466 489/860/500 452/859/462
f 494/869/505 453/862/463 490/861/501
f 453/862/463 494/869/505 457/870/467
f 495/871/506 457/872/467 494/873/505
f 457/872/467 495/871/506 458/874/468
f 493/868/504 459/875/469 496/876/507
f 459/875/469 493/868/504 456/867/466
f 496/876/507 455/866/465 492/865/503
f 455/866/465 496/876/507 459/875/469
f 497/877/508 458/874/468 495/871/506
f 458/874/468 497/877/508 460/878/470
f 498/879/509 460/878/470 497/877/508
f 460/878/470 498/879/509 461/880/471
f 499/881/510 461/882/471 498/883/509
f 461/882/471 499/881/510 462/884/472
f 500/885/511 462/884/472 499/881/510
f 462/884/472 500/885/511 463/886/473
f 2/887/486 463/886/473 500/885/511
f 463/886/473 2/887/486 438/888/448
f 491/864/502 439/831/449 476/830/487
f 439/831/449 491/864/502 454/863/464
f 393/683/402 391/678/400 468/812/478
f 468/812/478 391/678/400 466/807/476
f 394/684/403 393/683/402 469/813/479
f 469/813/479 393/683/402 468/812/478
f 396/688/405 394/687/403 471/818/481
f 471/818/481 394/687/403 469/816/479
f 473/823/483 396/688/405 471/818/481
f 473/823/483 398/693/407 396/688/405
f 1/699/410 398/693/407 2/829/486
f 2/829/486 398/693/407 473/823/483
f 500/885/511 1/758/410 2/887/486
f 425/756/435 1/758/410 500/885/511
f 499/881/510 424/752/434 425/756/435
f 425/756/435 500/885/511 499/881/510
f 423/753/433 424/752/434 498/883/509
f 498/883/509 424/752/434 499/881/510
f 422/748/432 423/750/433 497/877/508
f 497/877/508 423/750/433 498/879/509
f 420/742/430 422/748/432 495/871/506
f 495/871/506 422/748/432 497/877/508
f 419/743/429 420/742/430 494/873/505
f 494/873/505 420/742/430 495/871/506
f 419/740/429 494/869/505 490/861/501
f 490/861/501 415/732/425 419/740/429
f 415/732/425 488/858/499 413/729/423
f 415/732/425 490/861/501 488/858/499
f 413/729/423 488/858/499 486/855/497
f 486/855/497 411/726/421 413/729/423
f 486/855/497 485/854/496 411/726/421
f 411/726/421 485/854/496 410/725/420
f 485/854/496 484/852/495 410/725/420
f 410/725/420 484/852/495 409/723/419
f 409/723/419 481/853/492 406/724/416
f 409/723/419 484/852/495 481/853/492
f 406/715/416 481/844/492 482/846/493
f 482/846/493 407/716/417 406/715/416
f 482/848/493 483/850/494 407/719/417
f 407/719/417 483/850/494 408/720/418
f 408/720/418 483/850/494 487/857/498
f 408/720/418 487/857/498 412/727/422
f 412/727/422 487/857/498 489/860/500
f 489/860/500 414/730/424 412/727/422
f 414/730/424 489/860/500 418/738/428
f 418/738/428 489/860/500 493/868/504
f 493/868/504 421/746/431 418/738/428
f 421/746/431 493/868/504 496/876/507
f 496/876/507 492/865/503 421/746/431
f 421/746/431 492/865/503 417/736/427
f 417/736/427 492/865/503 477/832/488
f 402/703/412 417/736/427 477/832/488
f 477/832/488 478/834/489 402/703/412
f 402/703/412 478/834/489 403/704/413
f 404/708/414 403/707/413 478/836/489
f 404/708/414 478/836/489 479/838/490
f 404/711/414 479/840/490 480/842/491
f 480/842/491 405/712/415 404/711/414
f 480/842/491 491/864/502 405/712/415
f 405/712/415 491/864/502 416/734/426
f 416/734/426 491/864/502 476/830/487
f 416/734/426 476/830/487 401/701/411
f 401/701/411 476/830/487 475/826/485
f 475/826/485 400/697/409 401/701/411
f 475/826/485 474/824/484 400/697/409
f 400/697/409 474/824/484 399/695/408
f 399/695/408 474/824/484 397/691/406
f 397/691/406 474/824/484 472/820/482
f 472/820/482 470/814/480 397/691/406
f 397/691/406 470/814/480 395/685/404
f 395/685/404 470/814/480 467/808/477
f 467/808/477 392/681/401 395/685/404
f 392/681/401 467/808/477 464/810/474
f 464/810/474 389/679/398 392/681/401
f 389/673/398 464/802/474 390/674/399
f 390/674/399 464/802/474 465/804/475
f 390/677/399 465/806/475 466/807/476
f 466/807/476 391/678/400 390/677/399
f 501/889/281 502/890/282 503/891/244
f 502/892/282 504/893/283 503/894/244
f 502/892/282 505/895/284 504/893/283
f 505/895/284 506/896/285 504/893/283
f 505/897/284 507/898/286 506/899/285
f 507/900/286 508/901/287 506/902/285
f 507/900/286 509/903/288 508/901/287
f 509/903/288 510/904/289 508/901/287
f 509/903/288 511/905/290 510/904/289
f 511/905/290 512/906/291 510/904/289
f 511/905/290 501/907/281 512/906/291
f 501/907/281 503/908/244 512/906/291
f 513/909/292 501/907/281 514/910/293
f 502/892/282 501/907/281 513/909/292
f 513/909/292 515/911/294 502/892/282
f 515/911/294 505/895/284 502/892/282
f 515/911/294 516/912/295 505/895/284
f 516/912/295 507/900/286 505/895/284
f 516/912/295 517/913/296 507/900/286
f 517/913/296 509/903/288 507/900/286
f 517/913/296 518/914/297 509/903/288
f 518/914/297 511/905/290 509/903/288
f 518/914/297 514/910/293 511/905/290
f 514/910/293 501/907/281 511/905/290
f 519/915/298 520/916/299 514/910/293
f 520/916/299 513/909/292 514/910/293
f 520/917/299 521/918/300 513/919/292
f 521/918/300 515/920/294 513/921/292
f 521/918/300 522/922/301 515/920/294
f 522/923/301 516/912/295 515/911/294
f 522/923/301 523/924/302 516/912/295
f 523/924/302 517/913/296 516/912/295
f 523/924/302 524/925/303 517/913/296
f 524/925/303 518/914/297 517/913/296
f 524/925/303 519/915/298 518/914/297
f 519/915/298 514/910/293 518/914/297
f 525/926/304 526/927/305 519/915/298
f 526/927/305 520/916/299 519/915/298
f 526/927/305 527/928/306 520/916/299
f 527/928/306 521/929/300 520/916/299
f 527/928/306 528/930/307 521/929/300
f 528/930/307 522/923/301 521/929/300
f 528/930/307 529/931/308 522/923/301
f 529/931/308 523/924/302 522/923/301
f 529/931/308 530/932/309 523/924/302
f 530/932/309 524/925/303 523/924/302
f 530/932/309 525/926/304 524/925/303
f 525/926/304 519/915/298 524/925/303
f 531/933/244 532/934/283 525/926/304
f 532/935/283 526/936/305 525/937/304
f 532/938/283 533/939/285 526/940/305
f 533/941/285 527/942/306 526/943/305
f 533/944/285 534/945/287 527/946/306
f 534/947/287 528/948/307 527/942/306
f 534/949/287 535/950/289 528/930/307
f 535/950/289 529/931/308 528/930/307
f 535/950/289 536/951/291 529/931/308
f 536/951/291 530/932/309 529/931/308
f 536/951/291 531/933/244 530/932/309
f 531/933/244 525/926/304 530/932/309
