# Blender v3.0.1 OBJ File: ''
# www.blender.org
mtllib fox_wrc.mtl
o body_Box01.007
v -0.066350 0.388931 0.900372
v 0.082893 0.388931 0.900372
v 0.082893 0.466731 0.890725
v -0.066350 0.466731 0.890725
v 0.082893 0.585770 0.852118
v -0.066350 0.585770 0.852118
v -0.112616 0.274278 0.893001
v 0.129158 0.274278 0.893001
v 0.129158 0.459738 0.845571
v 0.129158 0.523747 0.817745
v -0.112616 0.523747 0.817745
v -0.112616 0.459738 0.845571
v 0.012346 -0.383912 0.905060
v 0.002580 -0.365954 0.905060
v 0.002580 -0.678656 1.360189
v -0.007184 -0.383912 0.905060
v 0.012346 -0.998190 0.869654
v 0.002580 -0.980232 0.869654
v 0.002580 -1.052350 1.122966
v -0.007184 -0.998190 0.869654
v -0.715212 0.778936 0.557367
v -0.672503 0.773347 0.543305
v -0.681113 0.823590 0.534678
v -0.754590 0.820501 0.556603
v -0.766914 0.766440 0.606979
v -0.793313 0.811096 0.588611
v -0.811069 0.744086 0.628855
v -0.827863 0.797537 0.602725
v -0.863964 0.701884 0.618825
v -0.868670 0.764341 0.598941
v -0.741471 0.782855 0.478117
v -0.771532 0.823030 0.505474
v -0.697599 0.828444 0.483548
v -0.698055 0.780872 0.464055
v -0.811950 0.764352 0.472255
v -0.822368 0.809749 0.501691
v -0.854177 0.730093 0.494129
v -0.855675 0.788510 0.515805
v -0.889322 0.693652 0.539575
v -0.885031 0.759030 0.547813
v -0.430661 -0.812895 -0.117916
v -0.306738 -0.812895 -0.117916
v -0.306738 -1.585509 -0.047104
v -0.430661 -1.585509 -0.047104
v -0.430661 -0.883577 0.321879
v -0.430661 -1.488515 0.321879
v -0.306738 -1.488515 0.321879
v -0.306738 -0.883577 0.321879
v 0.300789 -0.812895 -0.117916
v 0.424712 -0.812895 -0.117916
v 0.424712 -1.585509 -0.047104
v 0.300789 -1.585509 -0.047104
v 0.300789 -0.883577 0.321879
v 0.300789 -1.488515 0.321879
v 0.424712 -1.488515 0.321879
v 0.424712 -0.883577 0.321879
v -0.430661 2.045542 -0.189207
v -0.306738 2.045542 -0.189207
v -0.306738 1.096492 -0.001551
v -0.430661 1.096492 -0.001551
v -0.430661 1.847172 0.279575
v -0.430661 1.269917 0.317130
v -0.306738 1.269916 0.317130
v -0.306738 1.847172 0.279575
v 0.300789 2.045542 -0.189207
v 0.424712 2.045542 -0.189207
v 0.424712 1.096492 -0.001551
v 0.300789 1.096492 -0.001551
v 0.300789 1.847172 0.279575
v 0.300789 1.269916 0.317130
v 0.424712 1.269916 0.317130
v 0.424712 1.847172 0.279575
v 0.580201 -1.801882 -0.154976
v 0.564069 -1.801882 -0.116029
v 0.525121 -1.711882 -0.154976
v 0.525121 -1.801882 -0.099897
v 0.486175 -1.801881 -0.116029
v 0.470042 -1.801881 -0.154976
v 0.486175 -1.801881 -0.193924
v 0.525121 -1.801882 -0.210055
v 0.564069 -1.801882 -0.193924
v 0.564069 -1.584638 -0.116028
v 0.580201 -1.584638 -0.154976
v 0.525121 -1.584638 -0.099897
v 0.486175 -1.584638 -0.116028
v 0.470042 -1.584638 -0.154976
v 0.486175 -1.584638 -0.193924
v 0.525121 -1.584638 -0.210055
v 0.564069 -1.584638 -0.193924
v 0.063116 -0.928091 -0.199127
v 0.030376 -0.916087 -0.143557
v 0.063116 -1.197831 -0.078953
v 0.030376 -1.173343 -0.027147
v -0.035105 -0.916087 -0.143557
v -0.035105 -1.173343 -0.027147
v -0.067845 -0.928091 -0.199127
v -0.067845 -1.197831 -0.078953
v -0.035105 -0.940094 -0.254695
v -0.035105 -1.222319 -0.130758
v 0.030376 -0.940094 -0.254695
v 0.030376 -1.222319 -0.130758
v 0.030376 1.208452 -0.143658
v 0.063116 1.220970 -0.199126
v -0.035105 1.208452 -0.143658
v -0.067845 1.220970 -0.199126
v -0.035105 1.233487 -0.254594
v 0.030376 1.233487 -0.254594
v 0.063116 1.506658 -0.078952
v 0.030376 1.475200 -0.030601
v -0.035105 1.475200 -0.030601
v -0.067845 1.506658 -0.078952
v -0.035105 1.538117 -0.127304
v 0.030376 1.538117 -0.127304
v -0.153866 1.461400 -0.106144
v -0.153866 1.491119 -0.057662
v -0.682960 1.461400 -0.106144
v -0.682960 1.491119 -0.057662
v -0.153866 1.550555 -0.057662
v -0.682960 1.550555 -0.057662
v -0.153866 1.580274 -0.106144
v -0.682960 1.580274 -0.106144
v -0.153866 1.550555 -0.154626
v -0.682960 1.550555 -0.154626
v -0.153866 1.491119 -0.154626
v -0.682960 1.491119 -0.154626
v -0.137158 1.446243 0.015546
v -0.137158 1.371650 -0.106144
v -0.137158 1.595429 0.015546
v -0.137158 1.670024 -0.106144
v -0.137158 1.595429 -0.227836
v -0.137158 1.446243 -0.227836
v 0.133211 1.371650 -0.106144
v 0.133211 1.446243 0.015546
v 0.133211 1.595429 0.015546
v 0.133211 1.670024 -0.106144
v 0.133211 1.595429 -0.227836
v 0.133211 1.446243 -0.227836
v 0.149920 1.461400 -0.106144
v 0.149920 1.491119 -0.057662
v 0.149920 1.550555 -0.057662
v 0.149920 1.580274 -0.106144
v 0.149920 1.550555 -0.154626
v 0.149920 1.491119 -0.154626
v 0.679013 1.461400 -0.106144
v 0.679013 1.491119 -0.057662
v 0.679013 1.550555 -0.057662
v 0.679013 1.580274 -0.106144
v 0.679013 1.550555 -0.154626
v 0.679013 1.491119 -0.154626
v -0.405729 -1.193882 0.846727
v -0.385912 -1.407496 0.877086
v -0.350941 -1.204951 0.847850
v -0.480986 -1.168162 0.852785
v -0.427594 -1.535402 0.867373
v -0.489019 -1.180345 0.831323
v -0.480986 -1.192529 0.809860
v -0.385912 -1.431863 0.834161
v -0.405729 -1.208943 0.820197
v -0.350941 -1.220011 0.821321
v -0.189465 -1.475298 0.883969
v -0.152813 -1.247085 0.852127
v -0.233700 -1.629625 0.876939
v -0.189465 -1.499665 0.841045
v -0.152813 -1.262145 0.825600
v 0.195188 -1.475298 0.883969
v 0.158535 -1.247085 0.852127
v 0.239423 -1.629625 0.876939
v 0.195188 -1.499665 0.841045
v 0.158535 -1.262145 0.825600
v 0.390798 -1.408733 0.877211
v 0.356664 -1.204951 0.847850
v 0.434991 -1.532928 0.867122
v 0.390798 -1.433101 0.834286
v 0.356664 -1.220011 0.821321
v 0.408914 -1.195654 0.846906
v 0.484172 -1.169933 0.852965
v 0.492204 -1.182117 0.831502
v 0.484172 -1.194301 0.810040
v 0.408914 -1.210715 0.820378
v 0.672470 0.823590 0.534678
v 0.663859 0.773347 0.543305
v 0.706568 0.778936 0.557367
v 0.745947 0.820501 0.556603
v 0.758270 0.766440 0.606979
v 0.784668 0.811096 0.588611
v 0.802424 0.744086 0.628855
v 0.819220 0.797537 0.602725
v 0.855319 0.701884 0.618825
v 0.860027 0.764341 0.598941
v 0.688954 0.828444 0.483548
v 0.762887 0.823030 0.505473
v 0.732827 0.782855 0.478117
v 0.689410 0.780872 0.464055
v 0.813724 0.809749 0.501691
v 0.803306 0.764353 0.472255
v 0.847030 0.788510 0.515805
v 0.845534 0.730093 0.494129
v 0.876386 0.759030 0.547813
v 0.880678 0.693652 0.539575
v 0.848309 1.934962 -0.240347
v 0.618445 2.275197 -0.250362
v 0.618445 2.275197 0.080117
v 0.848309 1.924328 -0.040057
v 0.777178 1.811774 0.351089
v 0.617911 2.108486 0.243504
v 0.848309 1.839269 0.120174
v 0.785609 1.786107 0.360523
v 0.848309 1.701047 0.220319
v 0.785609 1.509663 0.420610
v 0.848309 1.541560 0.270391
v 0.848309 1.382075 0.250363
v 0.734335 1.084366 0.460667
v 0.848309 1.222588 0.150217
v 0.873703 -0.829470 -0.080116
v 0.873703 -0.829470 -0.240348
v 0.848309 1.105631 -0.230333
v 0.848309 1.105631 -0.160231
v 0.713162 -1.669379 -0.200290
v 0.873703 -1.584371 -0.200290
v 0.873703 -1.563106 -0.000000
v 0.713162 -1.733174 -0.070103
v 0.713162 -1.765070 0.120173
v 0.713162 -1.701276 0.170246
v 0.873703 -1.488680 0.140203
v 0.660472 -1.690643 0.420609
v 0.873703 -1.350459 0.270390
v 0.873703 -1.137810 0.290420
v 0.848309 1.148162 0.030043
v 0.873703 -0.871999 0.100144
v 0.581618 -1.488680 0.711029
v 0.485543 -1.254767 0.841218
v 0.873703 -0.978323 0.220318
v 0.485542 -0.627454 0.891290
v 0.485542 0.127448 0.891290
v 0.445605 0.340097 0.871262
v 0.534486 0.627172 0.751088
v 0.673738 0.978042 0.550798
v 0.358793 1.982844 -0.239707
v 0.261863 2.323082 -0.249921
v 0.261863 2.323082 0.087167
v 0.358793 1.972212 -0.035411
v 0.437212 2.291185 0.158670
v 0.301804 2.131700 0.271033
v 0.358793 1.887154 0.128026
v 0.332352 1.833991 0.373180
v 0.358793 1.748932 0.230173
v 0.332352 1.557549 0.434469
v 0.358793 1.589445 0.281248
v 0.358793 1.382075 0.260818
v 0.310731 1.277315 0.475328
v 0.358793 1.222587 0.158670
v 0.369501 -0.829470 -0.076271
v 0.369501 -0.774702 -0.183056
v 0.358793 1.050865 -0.172842
v 0.358793 1.105631 -0.157989
v 0.301804 -1.733225 -0.198849
v 0.369501 -1.584371 -0.198849
v 0.369501 -1.563106 0.005447
v 0.301804 -1.797020 -0.066057
v 0.301804 -1.828917 0.128025
v 0.301804 -1.765122 0.179098
v 0.369501 -1.488680 0.148454
v 0.279584 -1.754491 0.434468
v 0.369501 -1.350459 0.281247
v 0.246332 -1.532539 0.730698
v 0.358793 1.148162 0.036092
v 0.369501 -0.871999 0.107595
v 0.369501 -1.137810 0.301676
v 0.205820 -1.291608 0.863490
v 0.205820 -0.645476 0.914563
v 0.369501 -0.978324 0.230173
v 0.205819 0.132073 0.914563
v 0.188978 0.351101 0.894134
v 0.209533 0.646789 0.771556
v 0.256550 1.056069 0.567262
v -0.844600 1.934960 -0.240347
v -0.614736 2.275197 0.080117
v -0.614736 2.275197 -0.250362
v -0.844600 1.924328 -0.040057
v -0.773470 1.811774 0.351089
v -0.614202 2.108485 0.243504
v -0.844600 1.839269 0.120174
v -0.781900 1.786107 0.360523
v -0.844600 1.701047 0.220319
v -0.781900 1.509663 0.420610
v -0.844600 1.541560 0.270392
v -0.844600 1.382075 0.250363
v -0.730626 1.084365 0.460667
v -0.844600 1.222587 0.150218
v -0.869994 -0.829470 -0.080116
v -0.844600 1.105631 -0.230333
v -0.869994 -0.829470 -0.240348
v -0.844600 1.105631 -0.160231
v -0.709452 -1.669379 -0.200290
v -0.869994 -1.563106 -0.000000
v -0.869994 -1.584371 -0.200290
v -0.709452 -1.733174 -0.070103
v -0.709452 -1.765070 0.120173
v -0.709452 -1.701276 0.170246
v -0.869994 -1.488680 0.140203
v -0.656762 -1.690644 0.420609
v -0.869994 -1.350459 0.270390
v -0.577909 -1.488680 0.711029
v -0.844600 1.148162 0.030043
v -0.869994 -0.871999 0.100144
v -0.869994 -1.137810 0.290420
v -0.481833 -1.254767 0.841218
v -0.481833 -0.627454 0.891290
v -0.869994 -0.978324 0.220318
v -0.481833 0.127448 0.891290
v -0.441896 0.340097 0.871262
v -0.530778 0.627172 0.751088
v -0.670029 0.978042 0.550798
v -0.355084 1.982844 -0.239707
v -0.258154 2.323082 -0.249921
v -0.258154 2.323082 0.087167
v -0.355084 1.972212 -0.035411
v -0.433503 2.291185 0.158670
v -0.298095 2.131700 0.271033
v -0.355084 1.887153 0.128026
v -0.328644 1.833991 0.373180
v -0.355084 1.748932 0.230173
v -0.328644 1.557548 0.434469
v -0.355084 1.589445 0.281248
v -0.355084 1.382075 0.260818
v -0.307023 1.277315 0.475328
v -0.355084 1.222587 0.158670
v -0.365792 -0.829470 -0.076271
v -0.365792 -0.774702 -0.183056
v -0.355084 1.050865 -0.172842
v -0.355084 1.105631 -0.157989
v -0.298094 -1.733225 -0.198849
v -0.365792 -1.584371 -0.198849
v -0.365792 -1.563106 0.005447
v -0.298094 -1.797020 -0.066057
v -0.298094 -1.828917 0.128025
v -0.298094 -1.765122 0.179098
v -0.365792 -1.488680 0.148454
v -0.275876 -1.754491 0.434468
v -0.365792 -1.350459 0.281247
v -0.242624 -1.532539 0.730698
v -0.355084 1.148162 0.036092
v -0.365792 -0.871999 0.107595
v -0.365792 -1.137810 0.301676
v -0.202111 -1.291609 0.863490
v -0.202111 -0.645476 0.914563
v -0.365792 -0.978324 0.230173
v -0.202111 0.132073 0.914563
v -0.185269 0.351101 0.894134
v -0.205824 0.646789 0.771556
v -0.252842 1.056069 0.567262
v -0.153866 -1.255362 -0.106145
v -0.153866 -1.225643 -0.057663
v -0.682960 -1.255362 -0.106145
v -0.682960 -1.225643 -0.057663
v -0.153866 -1.166206 -0.057663
v -0.682960 -1.166206 -0.057663
v -0.153866 -1.136488 -0.106145
v -0.682960 -1.136488 -0.106145
v -0.153866 -1.166206 -0.154627
v -0.682960 -1.166206 -0.154627
v -0.153866 -1.225643 -0.154627
v -0.682960 -1.225643 -0.154627
v -0.137158 -1.270519 0.015546
v -0.137158 -1.345112 -0.106145
v -0.137158 -1.121331 0.015546
v -0.137158 -1.046738 -0.106145
v -0.137158 -1.121331 -0.227836
v -0.137158 -1.270519 -0.227836
v 0.133211 -1.345112 -0.106145
v 0.133211 -1.270519 0.015546
v 0.133211 -1.121331 0.015546
v 0.133211 -1.046738 -0.106145
v 0.133211 -1.121331 -0.227836
v 0.133211 -1.270519 -0.227836
v 0.149920 -1.255362 -0.106145
v 0.149920 -1.225643 -0.057663
v 0.149920 -1.166206 -0.057663
v 0.149920 -1.136488 -0.106145
v 0.149920 -1.166206 -0.154627
v 0.149920 -1.225643 -0.154627
v 0.679012 -1.255362 -0.106145
v 0.679012 -1.225643 -0.057663
v 0.679012 -1.166206 -0.057663
v 0.679012 -1.136488 -0.106145
v 0.679012 -1.166206 -0.154627
v 0.679012 -1.225643 -0.154627
vt 0.267178 0.504031
vt 0.267178 0.529633
vt 0.254607 0.529633
vt 0.254607 0.504031
vt 0.235373 0.529633
vt 0.235373 0.504031
vt 0.285703 0.496095
vt 0.285703 0.537570
vt 0.255737 0.537570
vt 0.245394 0.537570
vt 0.634288 0.827595
vt 0.675763 0.827595
vt 0.667827 0.817574
vt 0.642225 0.817574
vt 0.245394 0.496095
vt 0.255737 0.496095
vt 0.667457 0.223131
vt 0.695437 0.243309
vt 0.679112 0.243309
vt 0.667457 0.263487
vt 0.683140 0.209531
vt 0.721352 0.209531
vt 0.704728 0.220421
vt 0.706088 0.244562
vt 0.618058 0.910767
vt 0.628715 0.911224
vt 0.627527 0.908588
vt 0.609382 0.907298
vt 0.602427 0.917446
vt 0.598107 0.911158
vt 0.590795 0.918602
vt 0.589256 0.911396
vt 0.579895 0.911945
vt 0.580517 0.907137
vt 0.618870 0.890978
vt 0.609906 0.894532
vt 0.628151 0.895859
vt 0.629683 0.891495
vt 0.603719 0.883773
vt 0.598940 0.889433
vt 0.592514 0.885090
vt 0.590366 0.889775
vt 0.580907 0.892232
vt 0.581169 0.894419
vt 0.539339 0.629833
vt 0.540737 0.667799
vt 0.553184 0.660441
vt 0.552362 0.638108
vt 0.526676 0.628159
vt 0.527587 0.666300
vt 0.509407 0.636068
vt 0.510001 0.658483
vt 0.497930 0.658826
vt 0.497157 0.636475
vt 0.715779 0.271450
vt 0.715779 0.271450
vt 0.603298 0.282396
vt 0.603298 0.282396
vt 0.705489 0.339429
vt 0.617419 0.339429
vt 0.617419 0.339429
vt 0.705489 0.339429
vt 0.715779 0.271450
vt 0.715779 0.271450
vt 0.603298 0.282396
vt 0.603298 0.282396
vt 0.705489 0.339429
vt 0.617419 0.339429
vt 0.617419 0.339429
vt 0.705489 0.339429
vt 0.729700 0.278308
vt 0.729700 0.278308
vt 0.591532 0.307313
vt 0.591532 0.307313
vt 0.700820 0.350767
vt 0.616780 0.356571
vt 0.616780 0.356571
vt 0.700820 0.350767
vt 0.729700 0.278308
vt 0.729700 0.278308
vt 0.591532 0.307313
vt 0.591532 0.307313
vt 0.700820 0.350767
vt 0.616780 0.356571
vt 0.616780 0.356571
vt 0.700820 0.350767
vt 0.541782 0.368227
vt 0.536749 0.380378
vt 0.524598 0.368227
vt 0.524598 0.385410
vt 0.512448 0.380378
vt 0.507415 0.368227
vt 0.512448 0.356076
vt 0.524598 0.351043
vt 0.536749 0.356076
vt 0.536749 0.380378
vt 0.541782 0.368227
vt 0.524598 0.385410
vt 0.512448 0.380378
vt 0.507415 0.368227
vt 0.512448 0.356076
vt 0.524598 0.351043
vt 0.536749 0.356076
vt 0.872173 0.140335
vt 0.880745 0.140133
vt 0.880629 0.176152
vt 0.889012 0.174349
vt 0.449454 0.930590
vt 0.449224 0.934602
vt 0.478491 0.951109
vt 0.477208 0.934733
vt 0.479609 0.951274
vt 0.910518 0.100918
vt 0.913849 0.099366
vt 0.913849 0.115630
vt 0.522094 0.920264
vt 0.449027 0.937956
vt 0.846243 0.137866
vt 0.854835 0.139222
vt 0.832920 0.172743
vt 0.494110 0.920133
vt 0.448830 0.941277
vt 0.863394 0.140525
vt 0.849001 0.177560
vt 0.522094 0.920264
vt 0.462246 0.951274
vt 0.872174 0.178865
vt 0.449652 0.927236
vt 0.477636 0.927400
vt 0.449849 0.923915
vt 0.883882 0.076701
vt 0.875494 0.075372
vt 0.493222 0.920133
vt 0.494110 0.920133
vt 0.899528 0.068728
vt 0.910518 0.181017
vt 0.895854 0.181017
vt 0.493222 0.920133
vt 0.849554 0.072953
vt 0.858345 0.072697
vt 0.866905 0.074000
vt 0.478951 0.920067
vt 0.478063 0.920034
vt 0.494110 0.920133
vt 0.895854 0.043031
vt 0.464910 0.950945
vt 0.478951 0.920067
vt 0.463364 0.951109
vt 0.476945 0.950945
vt 0.832921 0.037042
vt 0.841260 0.034247
vt 0.840762 0.073208
vt 0.849600 0.031452
vt 0.450079 0.919903
vt 0.472605 0.952918
vt 0.478951 0.920067
vt 0.873148 0.032970
vt 0.478063 0.920034
vt 0.493222 0.920133
vt 0.888564 0.038471
vt 0.921173 0.052169
vt 0.918492 0.054528
vt 0.897112 0.042300
vt 0.895854 0.045256
vt 0.502975 0.920837
vt 0.463249 0.944526
vt 0.503082 0.919047
vt 0.940374 0.083875
vt 0.910928 0.087751
vt 0.910518 0.083875
vt 0.463249 0.931090
vt 0.459084 0.940627
vt 0.923140 0.041636
vt 0.900019 0.034476
vt 0.901000 0.031452
vt 0.923129 0.045150
vt 0.899130 0.037102
vt 0.922576 0.048813
vt 0.898163 0.039714
vt 0.918516 0.058218
vt 0.923979 0.055781
vt 0.913254 0.055302
vt 0.469754 0.940627
vt 0.488104 0.917168
vt 0.925761 0.033515
vt 0.927824 0.041150
vt 0.921342 0.038224
vt 0.927548 0.046209
vt 0.926406 0.050822
vt 0.471137 0.934990
vt 0.469754 0.940627
vt 0.469754 0.940627
vt 0.923206 0.068728
vt 0.487891 0.920766
vt 0.459084 0.940627
vt 0.487997 0.918958
vt 0.487767 0.922928
vt 0.939758 0.036514
vt 0.936608 0.041627
vt 0.935804 0.046255
vt 0.935800 0.051314
vt 0.936985 0.058626
vt 0.943464 0.055294
vt 0.946841 0.058373
vt 0.946058 0.065198
vt 0.487076 0.926527
vt 0.463249 0.944526
vt 0.487182 0.924719
vt 0.941621 0.040659
vt 0.947139 0.037182
vt 0.939868 0.043035
vt 0.940334 0.046871
vt 0.941475 0.051008
vt 0.972322 0.041593
vt 0.973805 0.044728
vt 0.975549 0.048293
vt 0.469754 0.940627
vt 0.487288 0.922928
vt 0.939923 0.091626
vt 0.940333 0.095496
vt 0.910518 0.095496
vt 0.502745 0.924807
vt 0.463249 0.931090
vt 0.968134 0.031452
vt 0.969605 0.035185
vt 0.970920 0.038406
vt 0.541981 0.442713
vt 0.577659 0.446228
vt 0.543830 0.452429
vt 0.537685 0.429368
vt 0.599023 0.438836
vt 0.534959 0.423559
vt 0.537062 0.422087
vt 0.598348 0.433344
vt 0.539165 0.423559
vt 0.580476 0.440983
vt 0.541998 0.437351
vt 0.543909 0.447391
vt 0.588984 0.481063
vt 0.550867 0.487563
vt 0.614760 0.473219
vt 0.614612 0.468877
vt 0.592179 0.476983
vt 0.551181 0.483700
vt 0.588984 0.549273
vt 0.550867 0.542773
vt 0.614760 0.557117
vt 0.592179 0.547474
vt 0.614612 0.555581
vt 0.551181 0.540757
vt 0.577866 0.583960
vt 0.543830 0.577907
vt 0.598609 0.591796
vt 0.580690 0.583322
vt 0.597921 0.591420
vt 0.543909 0.577066
vt 0.538900 0.440100
vt 0.535000 0.426700
vt 0.538500 0.426700
vt 0.542277 0.587172
vt 0.537981 0.600517
vt 0.540600 0.449900
vt 0.536700 0.425300
vt 0.576100 0.442100
vt 0.539471 0.600433
vt 0.537368 0.601905
vt 0.542304 0.586642
vt 0.627674 0.907307
vt 0.629005 0.909874
vt 0.618339 0.910003
vt 0.609486 0.907017
vt 0.603099 0.917532
vt 0.598440 0.911491
vt 0.591548 0.919326
vt 0.589616 0.912215
vt 0.580299 0.913278
vt 0.580655 0.908444
vt 0.627598 0.894563
vt 0.609307 0.894241
vt 0.618061 0.890200
vt 0.628887 0.890121
vt 0.598077 0.889753
vt 0.602537 0.883838
vt 0.589534 0.890566
vt 0.591422 0.885770
vt 0.580607 0.895709
vt 0.580225 0.893539
vt 0.553313 0.660616
vt 0.540820 0.667962
vt 0.539507 0.629908
vt 0.552540 0.638231
vt 0.527645 0.666430
vt 0.526819 0.628201
vt 0.510037 0.658554
vt 0.509493 0.636088
vt 0.497938 0.658870
vt 0.497214 0.636468
vt 0.975658 0.711170
vt 0.912174 0.708404
vt 0.912174 0.799677
vt 0.975658 0.766487
vt 0.956013 0.874515
vt 0.912026 0.844801
vt 0.525863 0.085276
vt 0.535898 0.058619
vt 0.523156 0.119396
vt 0.518381 0.121194
vt 0.506408 0.100242
vt 0.479470 0.130173
vt 0.483960 0.107725
vt 0.461511 0.104732
vt 0.419608 0.136159
vt 0.439063 0.089766
vt 0.150229 0.055345
vt 0.150229 0.031401
vt 0.422601 0.032897
vt 0.422601 0.043373
vt 0.399671 0.712439
vt 0.434946 0.712439
vt 0.434946 0.756448
vt 0.399671 0.741045
vt 0.399671 0.782854
vt 0.399671 0.809783
vt 0.434946 0.803182
vt 0.388094 0.865771
vt 0.028038 0.130173
vt 0.057443 0.086560
vt 0.076898 0.104655
vt 0.106829 0.110718
vt 0.428587 0.071807
vt 0.144243 0.082283
vt 0.057443 0.173573
vt 0.090367 0.193028
vt 0.129277 0.100242
vt 0.178663 0.200511
vt 0.284918 0.200511
vt 0.314849 0.197518
vt 0.355256 0.179559
vt 0.404643 0.149628
vt 0.791910 0.907763
vt 0.779693 0.948153
vt 0.824635 0.942468
vt 0.853606 0.902079
vt 0.813692 0.708526
vt 0.813692 0.801624
vt 0.911932 0.356062
vt 0.975619 0.350194
vt 0.911932 0.354759
vt 0.975619 0.348891
vt 0.862120 0.821372
vt 0.824723 0.852404
vt 0.911932 0.344336
vt 0.975619 0.338468
vt 0.041566 0.550250
vt 0.073556 0.552532
vt 0.076377 0.607161
vt 0.073619 0.606187
vt 0.911932 0.327398
vt 0.975619 0.321530
vt 0.103262 0.552532
vt 0.108407 0.607161
vt 0.911932 0.307854
vt 0.975619 0.301986
vt 0.911932 0.282443
vt 0.975619 0.282443
vt 0.129112 0.548899
vt 0.144953 0.607341
vt 0.911932 0.262899
vt 0.975619 0.262899
vt 0.913325 0.339449
vt 0.913325 0.346160
vt 0.978923 0.339449
vt 0.978923 0.339449
vt 0.840386 0.381172
vt 0.838610 0.666403
vt 0.919812 0.674960
vt 0.924024 0.372615
vt 0.911932 0.241856
vt 0.911932 0.248567
vt 0.975619 0.248567
vt 0.975619 0.248567
vt 0.787979 0.915345
vt 0.796511 0.933016
vt 0.860058 0.933016
vt 0.839824 0.922924
vt 0.913325 0.246942
vt 0.913325 0.249548
vt 0.978923 0.249548
vt 0.978923 0.246942
vt 0.309285 0.741934
vt 0.309285 0.712756
vt 0.309285 0.784579
vt 0.309285 0.811728
vt 0.913325 0.258668
vt 0.978923 0.258668
vt 0.304403 0.867840
vt 0.913325 0.275606
vt 0.978923 0.275606
vt 0.297097 0.932929
vt 0.370768 0.929095
vt 0.911932 0.253779
vt 0.975619 0.253779
vt 0.913325 0.334237
vt 0.978923 0.334237
vt 0.913325 0.301665
vt 0.978923 0.301665
vt 0.288195 0.962107
vt 0.346728 0.961608
vt 0.450385 0.551158
vt 0.558304 0.551158
vt 0.552150 0.600761
vt 0.447375 0.600761
vt 0.913325 0.321208
vt 0.978923 0.321208
vt 0.320518 0.551158
vt 0.321290 0.600761
vt 0.283935 0.548171
vt 0.285773 0.593679
vt 0.215597 0.548836
vt 0.233215 0.545720
vt 0.247798 0.584620
vt 0.217657 0.598093
vt 0.172626 0.555963
vt 0.180818 0.619201
vt 0.149396 0.564176
vt 0.169655 0.628386
vt 0.508106 0.711170
vt 0.571591 0.799677
vt 0.571591 0.708404
vt 0.508106 0.766487
vt 0.527752 0.874515
vt 0.571738 0.844801
vt 0.018964 0.276222
vt 0.019560 0.309551
vt 0.009255 0.249829
vt 0.026485 0.312324
vt 0.038519 0.291264
vt 0.065595 0.321349
vt 0.061083 0.298786
vt 0.083646 0.295777
vt 0.125765 0.327366
vt 0.106210 0.280735
vt 0.396528 0.246137
vt 0.122757 0.223574
vt 0.396528 0.222069
vt 0.122757 0.234103
vt 0.087086 0.712439
vt 0.051811 0.756448
vt 0.051811 0.712439
vt 0.087086 0.741045
vt 0.087086 0.782854
vt 0.087086 0.809783
vt 0.051811 0.803182
vt 0.099152 0.865771
vt 0.519096 0.321349
vt 0.470236 0.295378
vt 0.489791 0.282649
vt 0.489791 0.364972
vt 0.116739 0.262684
vt 0.402545 0.273214
vt 0.440151 0.301794
vt 0.456698 0.384527
vt 0.367948 0.392048
vt 0.417587 0.291264
vt 0.261147 0.392048
vt 0.231062 0.389040
vt 0.190447 0.370989
vt 0.140807 0.340904
vt 0.701936 0.907763
vt 0.669211 0.942468
vt 0.714153 0.948153
vt 0.640240 0.902078
vt 0.670073 0.708526
vt 0.670073 0.801624
vt 0.819055 0.354759
vt 0.755368 0.350194
vt 0.819055 0.356062
vt 0.755368 0.348891
vt 0.621644 0.821372
vt 0.659042 0.852404
vt 0.819055 0.344336
vt 0.755368 0.338468
vt 0.041566 0.481432
vt 0.076377 0.424826
vt 0.073556 0.477987
vt 0.073619 0.425799
vt 0.819055 0.327398
vt 0.755368 0.321530
vt 0.108407 0.424826
vt 0.103262 0.477987
vt 0.819055 0.307854
vt 0.755368 0.301986
vt 0.819055 0.282443
vt 0.755368 0.282443
vt 0.144953 0.424646
vt 0.129112 0.481640
vt 0.819055 0.262899
vt 0.755368 0.262899
vt 0.817662 0.339449
vt 0.752064 0.339449
vt 0.817662 0.346160
vt 0.752064 0.339449
vt 0.718413 0.381172
vt 0.638987 0.674960
vt 0.720190 0.666403
vt 0.634775 0.372615
vt 0.819055 0.241856
vt 0.755368 0.248567
vt 0.819055 0.248567
vt 0.755368 0.248567
vt 0.712371 0.915345
vt 0.640291 0.933016
vt 0.703838 0.933016
vt 0.660525 0.922924
vt 0.817662 0.246942
vt 0.752064 0.249548
vt 0.817662 0.249548
vt 0.752064 0.246942
vt 0.177472 0.741934
vt 0.177472 0.712756
vt 0.177472 0.784579
vt 0.177472 0.811728
vt 0.752064 0.258668
vt 0.817662 0.258668
vt 0.182354 0.867840
vt 0.752064 0.275606
vt 0.817662 0.275606
vt 0.189660 0.932929
vt 0.117943 0.930560
vt 0.755368 0.253779
vt 0.819055 0.253779
vt 0.817662 0.334237
vt 0.752064 0.334237
vt 0.752064 0.301665
vt 0.817662 0.301665
vt 0.198562 0.962107
vt 0.138565 0.960143
vt 0.450385 0.478821
vt 0.552150 0.429218
vt 0.558304 0.478821
vt 0.447375 0.429218
vt 0.752064 0.321208
vt 0.817662 0.321208
vt 0.320518 0.478821
vt 0.321290 0.429218
vt 0.283935 0.481807
vt 0.285773 0.436300
vt 0.215597 0.485876
vt 0.247798 0.450092
vt 0.233215 0.488992
vt 0.217657 0.436619
vt 0.172626 0.478749
vt 0.180818 0.415511
vt 0.149396 0.470536
vt 0.169655 0.406326
vt 0.161500 0.518700
vt 0.229500 0.518700
vt 0.161500 0.493100
vt 0.981815 0.080092
vt 0.910532 0.076345
vt 0.910518 0.068728
vt 0.981719 0.083683
vt 0.910553 0.083875
vt 0.161500 0.527200
vt 0.229500 0.527200
vt 0.161500 0.501700
vt 0.982739 0.082930
vt 0.989265 0.083185
vt 0.989238 0.083875
vt 0.982958 0.082263
vt 0.989292 0.082494
vt 0.982979 0.081626
vt 0.989314 0.081804
vt 0.982803 0.080939
vt 0.989333 0.081113
vt 0.982352 0.081223
vt 0.982737 0.081379
vt 0.981993 0.082388
vt 0.982573 0.082587
vt 0.982825 0.082231
vt 0.982870 0.081788
vt 0.982750 0.081830
vt 0.982667 0.081840
vt 0.490624 0.933648
vt 0.474347 0.951767
vt 0.490526 0.936936
vt 0.457314 0.951767
vt 0.490756 0.930327
vt 0.474347 0.968800
vt 0.982706 0.082104
vt 0.982773 0.082038
vt 0.982789 0.081923
vt 0.982777 0.081924
vt 0.982763 0.081934
vt 0.982763 0.081990
vt 0.982619 0.082034
vt 0.982770 0.082021
vt 0.982782 0.082004
vt 0.982786 0.081959
vt 0.985663 0.082555
vt 0.985740 0.082516
vt 0.477997 0.933188
vt 0.454716 0.932366
vt 0.454617 0.935654
vt 0.939964 0.087751
vt 0.940374 0.091626
vt 0.910518 0.091626
vt 0.478129 0.929899
vt 0.454847 0.929077
vt 0.491480 0.930360
vt 0.939923 0.095496
vt 0.940333 0.099366
vt 0.910518 0.099366
vt 0.478260 0.925953
vt 0.454979 0.925131
vt 0.985591 0.082615
vt 0.985582 0.082592
vt 0.985611 0.082577
vn -0.2958 0.0904 0.9510
vn 0.1879 0.0611 0.9803
vn 0.3576 0.2206 0.9074
vn -0.3786 0.2078 0.9019
vn 0.3715 0.9208 0.1186
vn -0.3817 0.9166 0.1192
vn -0.1879 0.0127 0.9821
vn 0.1902 0.0007 0.9818
vn 0.7137 0.2065 0.6694
vn 0.8340 0.5202 0.1839
vn -0.8168 0.5154 0.2593
vn -0.6820 0.2171 0.6984
vn 0.9713 -0.2085 -0.1142
vn -0.0000 0.8242 0.5663
vn -0.0146 -0.5481 0.8363
vn -0.9713 -0.2085 -0.1142
vn 0.9115 -0.4080 -0.0521
vn -0.0000 0.9618 0.2738
vn 0.0009 -0.2310 0.9730
vn -0.9115 -0.4081 -0.0521
vn 0.3699 -0.5998 0.7095
vn 0.1260 -0.7293 0.6725
vn 0.1684 0.7504 0.6391
vn 0.1382 0.8831 0.4483
vn 0.6301 -0.3360 0.7001
vn 0.0203 0.8533 0.5210
vn 0.3191 -0.3767 0.8696
vn -0.3063 0.7436 0.5944
vn -0.2345 -0.7173 0.6562
vn -0.7214 0.4232 0.5482
vn -0.0985 -0.4948 -0.8634
vn -0.1822 0.9037 -0.3874
vn -0.2007 0.8501 -0.4869
vn -0.2938 -0.5929 -0.7498
vn -0.0275 -0.3424 -0.9392
vn -0.4153 0.7878 -0.4549
vn -0.1962 -0.5697 -0.7981
vn -0.6981 0.6082 -0.3778
vn -0.5278 -0.8077 -0.2627
vn -0.9276 0.3603 -0.0989
vn -0.6434 -0.0699 -0.7624
vn 0.6434 -0.0699 -0.7624
vn 0.6667 -0.0680 -0.7422
vn -0.6667 -0.0680 -0.7422
vn -1.0000 -0.0000 0.0000
vn 1.0000 0.0000 0.0000
vn -0.5275 -0.1648 -0.8334
vn 0.5275 -0.1648 -0.8334
vn 0.6280 -0.1510 -0.7634
vn -0.6280 -0.1510 -0.7634
vn 0.4605 -0.8877 -0.0000
vn 0.3256 -0.8877 0.3256
vn 0.0000 -1.0000 -0.0000
vn -0.0000 -0.8877 0.4604
vn -0.3256 -0.8877 0.3256
vn -0.4605 -0.8877 0.0000
vn -0.3256 -0.8877 -0.3256
vn -0.0000 -0.8877 -0.4604
vn 0.3256 -0.8877 -0.3256
vn 0.7071 -0.0000 0.7071
vn -0.0000 -0.0000 1.0000
vn -0.7071 -0.0000 0.7071
vn -0.7071 0.0000 -0.7071
vn -0.0000 0.0000 -1.0000
vn 0.7071 0.0000 -0.7071
vn 0.9978 -0.0126 -0.0647
vn 0.5324 0.1776 0.8276
vn 1.0000 -0.0012 -0.0063
vn 0.5042 0.3560 0.7868
vn -0.5320 0.1786 0.8277
vn -0.5034 0.3549 0.7878
vn -0.9978 -0.0131 -0.0655
vn -1.0000 -0.0020 -0.0078
vn -0.4744 -0.1815 -0.8614
vn -0.4980 -0.3487 -0.7940
vn 0.4740 -0.1810 -0.8617
vn 0.4973 -0.3500 -0.7938
vn 0.5301 -0.1680 0.8311
vn 0.9980 0.0108 -0.0624
vn -0.5303 -0.1675 0.8311
vn -0.9980 0.0106 -0.0620
vn -0.4751 0.1736 -0.8626
vn 0.4753 0.1739 -0.8625
vn 0.9984 0.0216 -0.0531
vn 0.5229 -0.3320 0.7851
vn -0.5233 -0.3325 0.7846
vn -0.9984 0.0214 -0.0524
vn -0.4733 0.3401 -0.8126
vn 0.4736 0.3396 -0.8127
vn -0.7673 -0.6413 -0.0000
vn -0.7533 -0.3185 0.5754
vn 0.0000 -0.4886 0.8725
vn -0.7533 0.3185 0.5754
vn 0.0000 0.4886 0.8725
vn -0.7673 0.6413 -0.0000
vn 0.0000 1.0000 0.0000
vn -0.7533 0.3185 -0.5754
vn 0.0000 0.4886 -0.8725
vn -0.7533 -0.3185 -0.5754
vn 0.0000 -0.4886 -0.8725
vn -0.5531 -0.4078 0.7265
vn -0.5508 -0.8347 0.0000
vn -0.5531 0.4078 0.7265
vn -0.5508 0.8347 0.0000
vn -0.5531 0.4078 -0.7265
vn -0.5531 -0.4078 -0.7265
vn 0.5508 -0.8347 0.0000
vn 0.5531 -0.4078 0.7265
vn 0.5531 0.4078 0.7265
vn 0.5508 0.8347 0.0000
vn 0.5531 0.4078 -0.7265
vn 0.5531 -0.4078 -0.7265
vn 0.7673 -0.6413 0.0000
vn 0.7533 -0.3185 0.5754
vn 0.7533 0.3185 0.5754
vn 0.7673 0.6413 0.0000
vn 0.7533 0.3185 -0.5754
vn 0.7533 -0.3185 -0.5754
vn 0.0827 0.1477 0.9856
vn -0.0988 0.0429 0.9942
vn 0.0094 0.1401 0.9901
vn -0.5398 -0.0010 0.8418
vn -0.6932 -0.7159 0.0834
vn -0.9736 -0.1510 0.1712
vn -0.7192 -0.1869 -0.6692
vn -0.1092 -0.1680 -0.9797
vn 0.0777 -0.0555 -0.9954
vn 0.0082 -0.0618 -0.9981
vn -0.0096 0.0403 0.9991
vn 0.0038 0.1376 0.9905
vn -0.2024 -0.9734 0.1078
vn -0.0106 -0.1732 -0.9848
vn 0.0049 -0.0646 -0.9979
vn 0.0091 0.0399 0.9992
vn -0.0050 0.1385 0.9904
vn 0.2026 -0.9733 0.1079
vn 0.0107 -0.1726 -0.9849
vn -0.0036 -0.0654 -0.9978
vn 0.0993 0.0421 0.9942
vn -0.0080 0.1413 0.9899
vn 0.7010 -0.7083 0.0829
vn 0.1078 -0.1679 -0.9799
vn -0.0085 -0.0632 -0.9980
vn -0.0813 0.1471 0.9858
vn 0.5388 0.0047 0.8424
vn 0.9757 -0.1422 0.1668
vn 0.7160 -0.1797 -0.6746
vn -0.0764 -0.0560 -0.9955
vn -0.1684 0.7504 0.6391
vn -0.1260 -0.7293 0.6725
vn -0.3699 -0.5998 0.7095
vn -0.1382 0.8831 0.4483
vn -0.6301 -0.3360 0.7001
vn -0.0203 0.8533 0.5210
vn -0.3192 -0.3767 0.8696
vn 0.3063 0.7436 0.5944
vn 0.2345 -0.7173 0.6562
vn 0.7214 0.4232 0.5482
vn 0.2007 0.8501 -0.4869
vn 0.1822 0.9037 -0.3875
vn 0.0985 -0.4948 -0.8634
vn 0.2938 -0.5929 -0.7498
vn 0.4153 0.7878 -0.4549
vn 0.0275 -0.3424 -0.9392
vn 0.6981 0.6082 -0.3778
vn 0.1962 -0.5697 -0.7981
vn 0.9276 0.3603 -0.0989
vn 0.5278 -0.8077 -0.2627
vn 0.7214 -0.4128 -0.5560
vn 0.4106 0.6517 -0.6377
vn 0.5314 0.8025 0.2713
vn 0.9060 -0.4114 -0.0993
vn 0.5482 0.4632 0.6964
vn 0.3704 0.5258 0.7657
vn 0.9143 -0.2088 -0.3469
vn 0.5970 0.2929 0.7469
vn 0.8511 -0.2448 -0.4645
vn 0.5773 0.0886 0.8117
vn 0.8802 -0.0163 -0.4744
vn 0.8747 0.1849 -0.4479
vn 0.7233 0.1348 0.6773
vn 0.8741 0.3315 -0.3552
vn 0.7383 -0.6700 -0.0773
vn 0.5452 -0.5700 -0.6147
vn 0.5135 0.6087 -0.6048
vn 0.7089 0.6980 -0.1019
vn 0.2886 -0.5588 -0.7775
vn 0.8230 0.1488 -0.5481
vn 0.9375 0.2735 -0.2152
vn 0.4643 -0.8419 -0.2750
vn 0.4792 -0.8124 0.3322
vn 0.5904 -0.6924 0.4147
vn 0.9202 0.2832 -0.2703
vn 0.5617 -0.7119 0.4216
vn 0.9611 0.2321 -0.1497
vn 0.9524 -0.2416 -0.1860
vn 0.7768 0.6114 -0.1506
vn 0.7854 -0.5590 -0.2659
vn 0.6141 -0.4262 0.6643
vn 0.4606 -0.1696 0.8712
vn 0.7952 -0.3690 -0.4811
vn 0.5718 -0.0390 0.8195
vn 0.5235 0.0444 0.8509
vn 0.3284 0.2254 0.9172
vn 0.5334 0.2139 0.8184
vn 0.5577 0.2590 0.7886
vn -0.0346 -0.6880 -0.7249
vn 0.0474 0.7098 -0.7028
vn 0.0427 0.9811 0.1888
vn -0.0479 -0.9640 -0.2615
vn 0.1463 0.8249 0.5461
vn 0.0362 0.4514 0.8916
vn -0.0416 -0.7616 -0.6467
vn 0.0293 0.2737 0.9614
vn -0.0307 -0.4586 -0.8881
vn 0.0309 0.1740 0.9843
vn -0.0163 -0.1114 -0.9936
vn -0.0083 0.3285 -0.9445
vn 0.0615 0.2529 0.9655
vn -0.0067 0.7145 -0.6996
vn -0.0308 -0.9463 -0.3218
vn -0.0783 -0.5125 -0.8551
vn -0.0350 0.1523 -0.9877
vn -0.0019 0.7245 -0.6893
vn 0.0423 -0.5495 -0.8345
vn -0.0015 0.6700 -0.7423
vn -0.0021 0.9574 -0.2886
vn 0.0721 -0.9519 -0.2979
vn 0.0740 -0.9331 0.3520
vn 0.0763 -0.8845 0.4602
vn -0.0057 0.7998 -0.6003
vn 0.0806 -0.9368 0.3406
vn -0.0099 0.4164 -0.9091
vn 0.0666 -0.6534 0.7541
vn -0.0028 0.9280 -0.3725
vn -0.0030 -0.8906 -0.4548
vn -0.0105 -0.1614 -0.9868
vn 0.0507 -0.2869 0.9566
vn 0.0428 -0.0403 0.9983
vn -0.0072 -0.5953 -0.8035
vn 0.0428 0.0483 0.9979
vn 0.0448 0.2424 0.9692
vn 0.0423 0.4099 0.9111
vn 0.0503 0.4092 0.9110
vn -0.7214 -0.4128 -0.5560
vn -0.5314 0.8025 0.2713
vn -0.4106 0.6517 -0.6377
vn -0.9060 -0.4114 -0.0993
vn -0.5482 0.4632 0.6964
vn -0.3704 0.5258 0.7657
vn -0.9143 -0.2088 -0.3469
vn -0.5970 0.2929 0.7469
vn -0.8511 -0.2448 -0.4645
vn -0.5773 0.0886 0.8117
vn -0.8802 -0.0163 -0.4744
vn -0.8747 0.1849 -0.4479
vn -0.7233 0.1348 0.6773
vn -0.8741 0.3315 -0.3552
vn -0.7383 -0.6700 -0.0773
vn -0.5135 0.6087 -0.6048
vn -0.5452 -0.5700 -0.6147
vn -0.7089 0.6980 -0.1019
vn -0.2886 -0.5588 -0.7775
vn -0.9375 0.2735 -0.2152
vn -0.8230 0.1488 -0.5481
vn -0.4643 -0.8419 -0.2750
vn -0.4792 -0.8124 0.3322
vn -0.5904 -0.6924 0.4147
vn -0.9202 0.2832 -0.2703
vn -0.5617 -0.7119 0.4216
vn -0.9611 0.2321 -0.1497
vn -0.6141 -0.4262 0.6643
vn -0.7768 0.6114 -0.1506
vn -0.7854 -0.5590 -0.2659
vn -0.9524 -0.2416 -0.1860
vn -0.4606 -0.1696 0.8712
vn -0.5718 -0.0390 0.8195
vn -0.7952 -0.3690 -0.4811
vn -0.5235 0.0444 0.8509
vn -0.3284 0.2254 0.9172
vn -0.5334 0.2139 0.8184
vn -0.5577 0.2590 0.7886
vn 0.0346 -0.6880 -0.7249
vn -0.0474 0.7098 -0.7028
vn -0.0427 0.9811 0.1888
vn 0.0479 -0.9640 -0.2615
vn -0.1463 0.8249 0.5461
vn -0.0362 0.4514 0.8916
vn 0.0416 -0.7616 -0.6467
vn -0.0293 0.2737 0.9614
vn 0.0307 -0.4586 -0.8881
vn -0.0309 0.1740 0.9843
vn 0.0163 -0.1114 -0.9936
vn 0.0083 0.3285 -0.9445
vn -0.0615 0.2529 0.9655
vn 0.0067 0.7145 -0.6996
vn 0.0308 -0.9463 -0.3218
vn 0.0783 -0.5125 -0.8551
vn 0.0350 0.1523 -0.9877
vn 0.0019 0.7245 -0.6893
vn -0.0423 -0.5495 -0.8345
vn 0.0015 0.6700 -0.7423
vn 0.0021 0.9574 -0.2886
vn -0.0721 -0.9519 -0.2979
vn -0.0740 -0.9331 0.3520
vn -0.0763 -0.8845 0.4602
vn 0.0057 0.7998 -0.6003
vn -0.0806 -0.9368 0.3406
vn 0.0099 0.4164 -0.9091
vn -0.0666 -0.6534 0.7541
vn 0.0028 0.9280 -0.3725
vn 0.0030 -0.8906 -0.4548
vn 0.0105 -0.1614 -0.9868
vn -0.0507 -0.2869 0.9566
vn -0.0428 -0.0403 0.9983
vn 0.0072 -0.5953 -0.8035
vn -0.0428 0.0483 0.9979
vn -0.0448 0.2424 0.9692
vn -0.0423 0.4099 0.9111
vn -0.0503 0.4092 0.9110
usemtl _fox_kitcar.png.001
s 1
f 1/1/1 2/2/2 3/3/3
f 4/4/4 1/1/1 3/3/3
f 4/4/4 3/3/3 5/5/5
f 5/5/5 6/6/6 4/4/4
f 7/7/7 8/8/8 2/2/2
f 2/2/2 1/1/1 7/7/7
f 8/8/8 9/9/9 3/3/3
f 3/3/3 2/2/2 8/8/8
f 9/9/9 10/10/10 5/5/5
f 5/5/5 3/3/3 9/9/9
f 10/11/10 11/12/11 6/13/6
f 6/13/6 5/14/5 10/11/10
f 11/15/11 12/16/12 4/4/4
f 4/4/4 6/6/6 11/15/11
f 7/7/7 1/1/1 12/16/12
f 1/1/1 4/4/4 12/16/12
f 13/17/13 14/18/14 15/19/15
f 14/18/14 16/20/16 15/19/15
f 16/20/16 13/17/13 15/19/15
f 17/21/17 18/22/18 19/23/19
f 18/22/18 20/24/20 19/23/19
f 20/24/20 17/21/17 19/23/19
f 21/25/21 22/26/22 23/27/23
f 24/28/24 21/25/21 23/27/23
f 25/29/25 21/25/21 24/28/24
f 24/28/24 26/30/26 25/29/25
f 27/31/27 25/29/25 26/30/26
f 26/30/26 28/32/28 27/31/27
f 29/33/29 27/31/27 28/32/28
f 28/32/28 30/34/30 29/33/29
f 31/35/31 32/36/32 33/37/33
f 33/37/33 34/38/34 31/35/31
f 35/39/35 36/40/36 32/36/32
f 32/36/32 31/35/31 35/39/35
f 37/41/37 38/42/38 36/40/36
f 36/40/36 35/39/35 37/41/37
f 39/43/39 40/44/40 38/42/38
f 38/42/38 37/41/37 39/43/39
f 32/36/32 24/28/24 23/27/23
f 23/27/23 33/37/33 32/36/32
f 36/40/36 26/30/26 24/28/24
f 24/28/24 32/36/32 36/40/36
f 38/42/38 28/32/28 26/30/26
f 26/30/26 36/40/36 38/42/38
f 40/44/40 30/34/30 28/32/28
f 28/32/28 38/42/38 40/44/40
f 39/43/39 29/33/29 30/34/30
f 30/34/30 40/44/40 39/43/39
f 37/45/37 27/46/27 29/47/29
f 29/47/29 39/48/39 37/45/37
f 35/49/35 25/50/25 27/46/27
f 27/46/27 37/45/37 35/49/35
f 31/51/31 21/52/21 25/50/25
f 25/50/25 35/49/35 31/51/31
f 22/53/22 21/52/21 34/54/34
f 21/52/21 31/51/31 34/54/34
f 41/55/41 42/56/42 43/57/43
f 44/58/44 41/55/41 43/57/43
f 45/59/45 41/55/41 44/58/44
f 44/58/44 46/60/45 45/59/45
f 47/61/46 43/57/43 42/56/42
f 42/56/42 48/62/46 47/61/46
f 49/63/41 50/64/42 51/65/43
f 52/66/44 49/63/41 51/65/43
f 53/67/45 49/63/41 52/66/44
f 52/66/44 54/68/45 53/67/45
f 55/69/46 51/65/43 50/64/42
f 50/64/42 56/70/46 55/69/46
f 57/71/47 58/72/48 59/73/49
f 60/74/50 57/71/47 59/73/49
f 61/75/45 57/71/47 60/74/50
f 60/74/50 62/76/45 61/75/45
f 63/77/46 59/73/49 58/72/48
f 58/72/48 64/78/46 63/77/46
f 65/79/47 66/80/48 67/81/49
f 68/82/50 65/79/47 67/81/49
f 69/83/45 65/79/47 68/82/50
f 68/82/50 70/84/45 69/83/45
f 71/85/46 67/81/49 66/80/48
f 66/80/48 72/86/46 71/85/46
f 73/87/51 74/88/52 75/89/53
f 74/88/52 76/90/54 75/89/53
f 76/90/54 77/91/55 75/89/53
f 77/91/55 78/92/56 75/89/53
f 78/92/56 79/93/57 75/89/53
f 79/93/57 80/94/58 75/89/53
f 80/94/58 81/95/59 75/89/53
f 81/95/59 73/87/51 75/89/53
f 82/96/60 73/87/51 83/97/46
f 74/88/52 73/87/51 82/96/60
f 82/96/60 84/98/61 74/88/52
f 84/98/61 76/90/54 74/88/52
f 84/98/61 85/99/62 76/90/54
f 85/99/62 77/91/55 76/90/54
f 85/99/62 86/100/45 77/91/55
f 86/100/45 78/92/56 77/91/55
f 86/100/45 87/101/63 78/92/56
f 87/101/63 79/93/57 78/92/56
f 87/101/63 88/102/64 79/93/57
f 88/102/64 80/94/58 79/93/57
f 88/102/64 89/103/65 80/94/58
f 89/103/65 81/95/59 80/94/58
f 89/103/65 83/97/46 81/95/59
f 83/97/46 73/87/51 81/95/59
f 90/104/66 91/105/67 92/106/68
f 91/105/67 93/107/69 92/106/68
f 91/108/67 94/109/70 93/110/69
f 94/109/70 95/111/71 93/112/69
f 94/113/70 96/114/72 95/115/71
f 96/116/72 97/117/73 95/111/71
f 96/118/72 98/119/74 97/120/73
f 98/121/74 99/122/75 97/117/73
f 98/119/74 100/123/76 99/124/75
f 100/125/76 101/126/77 99/122/75
f 100/123/76 90/104/66 101/127/77
f 90/128/66 92/129/68 101/130/77
f 102/131/78 90/104/66 103/132/79
f 91/105/67 90/104/66 102/131/78
f 102/133/78 104/134/80 91/108/67
f 104/135/80 94/136/70 91/137/67
f 104/134/80 105/138/81 94/109/70
f 105/138/81 96/116/72 94/109/70
f 105/139/81 106/140/82 96/118/72
f 106/140/82 98/119/74 96/118/72
f 106/140/82 107/141/83 98/119/74
f 107/141/83 100/123/76 98/119/74
f 107/141/83 103/132/79 100/123/76
f 103/132/79 90/104/66 100/123/76
f 108/142/84 109/143/85 103/144/79
f 109/145/85 102/131/78 103/132/79
f 109/146/85 110/147/86 102/148/78
f 110/147/86 104/134/80 102/149/78
f 110/150/86 111/151/87 104/152/80
f 111/151/87 105/139/81 104/152/80
f 111/151/87 112/153/88 105/139/81
f 112/153/88 106/140/82 105/139/81
f 112/154/88 113/155/89 106/156/82
f 113/157/89 107/141/83 106/140/82
f 113/158/89 108/142/84 107/159/83
f 108/160/84 103/132/79 107/141/83
f 114/161/90 115/162/91 116/163/53
f 115/162/91 117/164/92 116/163/53
f 115/165/91 118/166/93 117/167/92
f 118/168/93 119/169/94 117/170/92
f 118/166/93 120/171/95 119/172/94
f 120/173/95 121/174/96 119/175/94
f 120/173/95 122/176/97 121/174/96
f 122/176/97 123/177/98 121/174/96
f 122/176/97 124/178/99 123/177/98
f 124/178/99 125/179/100 123/177/98
f 124/178/99 114/161/90 125/179/100
f 114/161/90 116/163/53 125/179/100
f 126/180/101 114/161/90 127/181/102
f 115/162/91 114/161/90 126/180/101
f 126/180/101 128/182/103 115/162/91
f 128/183/103 118/166/93 115/184/91
f 128/185/103 129/186/104 118/187/93
f 129/186/104 120/173/95 118/187/93
f 129/186/104 130/188/105 120/173/95
f 130/188/105 122/176/97 120/173/95
f 130/188/105 131/189/106 122/176/97
f 131/189/106 124/178/99 122/176/97
f 131/189/106 127/181/102 124/178/99
f 127/181/102 114/161/90 124/178/99
f 132/190/107 133/191/108 127/192/102
f 133/193/108 126/180/101 127/181/102
f 133/194/108 134/195/109 126/196/101
f 134/195/109 128/183/103 126/197/101
f 134/198/109 135/199/110 128/185/103
f 135/199/110 129/186/104 128/185/103
f 135/199/110 136/200/111 129/186/104
f 136/200/111 130/188/105 129/186/104
f 136/200/111 137/201/112 130/188/105
f 137/201/112 131/189/106 130/188/105
f 137/201/112 132/202/107 131/189/106
f 132/202/107 127/181/102 131/189/106
f 138/203/113 139/204/114 132/202/107
f 139/204/114 133/205/108 132/202/107
f 139/206/114 140/207/115 133/208/108
f 140/209/115 134/198/109 133/210/108
f 140/209/115 141/211/116 134/198/109
f 141/211/116 135/199/110 134/198/109
f 141/211/116 142/212/117 135/199/110
f 142/212/117 136/200/111 135/199/110
f 142/212/117 143/213/118 136/200/111
f 143/213/118 137/201/112 136/200/111
f 143/213/118 138/203/113 137/201/112
f 138/203/113 132/202/107 137/201/112
f 144/214/53 145/215/92 138/203/113
f 145/215/92 139/204/114 138/203/113
f 145/215/92 146/216/94 139/204/114
f 146/217/94 140/207/115 139/218/114
f 146/219/94 147/220/96 140/221/115
f 147/222/96 141/223/116 140/207/115
f 147/224/96 148/225/98 141/211/116
f 148/225/98 142/212/117 141/211/116
f 148/225/98 149/226/100 142/212/117
f 149/226/100 143/213/118 142/212/117
f 149/226/100 144/214/53 143/213/118
f 144/214/53 138/203/113 143/213/118
f 150/227/119 151/228/120 152/229/121
f 150/227/119 153/230/122 151/228/120
f 153/230/122 154/231/123 151/228/120
f 153/232/122 155/233/124 154/234/123
f 155/233/124 156/235/125 154/234/123
f 154/234/123 156/235/125 157/236/126
f 156/235/125 158/237/127 157/236/126
f 157/236/126 158/237/127 159/238/128
f 152/229/121 160/239/129 161/240/130
f 152/229/121 151/228/120 160/239/129
f 151/228/120 162/241/131 160/239/129
f 151/228/120 154/231/123 162/241/131
f 154/234/123 157/236/126 162/242/131
f 162/242/131 157/236/126 163/243/132
f 157/236/126 164/244/133 163/243/132
f 157/236/126 159/238/128 164/244/133
f 161/240/130 165/245/134 166/246/135
f 161/240/130 160/239/129 165/245/134
f 160/239/129 167/247/136 165/245/134
f 160/239/129 162/241/131 167/247/136
f 162/242/131 168/248/137 167/249/136
f 162/242/131 163/243/132 168/248/137
f 163/243/132 169/250/138 168/248/137
f 163/243/132 164/244/133 169/250/138
f 166/246/135 170/251/139 171/252/140
f 166/246/135 165/245/134 170/251/139
f 165/245/134 167/247/136 170/251/139
f 170/251/139 167/247/136 172/253/141
f 167/249/136 173/254/142 172/255/141
f 167/249/136 168/248/137 173/254/142
f 168/248/137 174/256/143 173/254/142
f 168/248/137 169/250/138 174/256/143
f 171/257/140 170/258/139 175/259/144
f 175/260/144 170/251/139 176/261/145
f 170/251/139 172/253/141 176/261/145
f 176/262/145 172/263/141 177/264/146
f 172/255/141 178/265/147 177/266/146
f 172/255/141 173/254/142 178/265/147
f 173/254/142 179/267/148 178/265/147
f 173/254/142 174/256/143 179/267/148
f 180/268/149 181/269/150 182/270/151
f 183/271/152 180/268/149 182/270/151
f 183/271/152 182/270/151 184/272/153
f 184/272/153 185/273/154 183/271/152
f 185/273/154 184/272/153 186/274/155
f 186/274/155 187/275/156 185/273/154
f 187/275/156 186/274/155 188/276/157
f 188/276/157 189/277/158 187/275/156
f 190/278/159 191/279/160 192/280/161
f 192/280/161 193/281/162 190/278/159
f 191/279/160 194/282/163 195/283/164
f 195/283/164 192/280/161 191/279/160
f 194/282/163 196/284/165 197/285/166
f 197/285/166 195/283/164 194/282/163
f 196/284/165 198/286/167 199/287/168
f 199/287/168 197/285/166 196/284/165
f 180/268/149 183/271/152 191/279/160
f 190/278/159 180/268/149 191/279/160
f 183/271/152 185/273/154 194/282/163
f 194/282/163 191/279/160 183/271/152
f 185/273/154 187/275/156 196/284/165
f 196/284/165 194/282/163 185/273/154
f 187/275/156 189/277/158 198/286/167
f 198/286/167 196/284/165 187/275/156
f 189/277/158 188/276/157 199/287/168
f 199/287/168 198/286/167 189/277/158
f 188/288/157 186/289/155 197/290/166
f 197/290/166 199/291/168 188/288/157
f 186/289/155 184/292/153 195/293/164
f 195/293/164 197/290/166 186/289/155
f 184/292/153 182/294/151 192/295/161
f 192/295/161 195/293/164 184/292/153
f 182/294/151 181/296/150 193/297/162
f 193/297/162 192/295/161 182/294/151
f 200/298/169 201/299/170 202/300/171
f 203/301/172 200/298/169 202/300/171
f 204/302/173 202/300/171 205/303/174
f 203/301/172 202/300/171 204/302/173
f 206/304/175 203/305/172 204/306/173
f 206/304/175 204/306/173 207/307/176
f 208/308/177 206/304/175 207/307/176
f 208/308/177 207/307/176 209/309/178
f 210/310/179 208/308/177 209/309/178
f 211/311/180 210/310/179 209/309/178
f 211/311/180 209/309/178 212/312/181
f 213/313/182 211/311/180 212/312/181
f 214/314/183 215/315/184 216/316/185
f 214/314/183 216/316/185 217/317/186
f 218/318/187 219/319/188 220/320/189
f 221/321/190 218/318/187 220/320/189
f 222/322/191 221/321/190 220/320/189
f 223/323/192 222/322/191 220/320/189
f 223/323/192 220/320/189 224/324/193
f 225/325/194 223/323/192 224/324/193
f 225/326/194 224/327/193 226/328/195
f 227/329/196 225/326/194 226/328/195
f 214/314/183 217/317/186 228/330/197
f 229/331/198 214/314/183 228/330/197
f 212/312/181 225/326/194 227/329/196
f 212/312/181 230/332/199 225/326/194
f 212/312/181 231/333/200 230/332/199
f 212/312/181 227/329/196 232/334/201
f 212/312/181 232/334/201 229/331/198
f 212/312/181 229/331/198 228/330/197
f 212/312/181 233/335/202 231/333/200
f 212/312/181 234/336/203 233/335/202
f 212/312/181 235/337/204 234/336/203
f 212/312/181 236/338/205 235/337/204
f 212/312/181 237/339/206 236/338/205
f 213/313/182 212/312/181 228/330/197
f 238/340/207 239/341/208 201/342/170
f 201/342/170 200/343/169 238/340/207
f 239/344/208 240/345/209 202/300/171
f 202/300/171 201/299/170 239/344/208
f 238/346/207 200/347/169 241/348/210
f 200/347/169 203/349/172 241/348/210
f 202/300/171 242/350/211 205/303/174
f 242/350/211 202/300/171 240/345/209
f 205/303/174 243/351/212 204/302/173
f 243/351/212 205/303/174 242/350/211
f 244/352/213 241/348/210 203/349/172
f 203/349/172 206/353/175 244/352/213
f 243/354/212 245/355/214 207/356/176
f 207/356/176 204/357/173 243/354/212
f 246/358/215 244/352/213 206/353/175
f 206/353/175 208/359/177 246/358/215
f 245/355/214 247/360/216 209/361/178
f 209/361/178 207/356/176 245/355/214
f 248/362/217 246/358/215 208/359/177
f 208/359/177 210/363/179 248/362/217
f 249/364/218 248/362/217 210/363/179
f 210/363/179 211/365/180 249/364/218
f 247/360/216 250/366/219 212/367/181
f 212/367/181 209/361/178 247/360/216
f 251/368/220 249/364/218 211/365/180
f 211/365/180 213/369/182 251/368/220
f 252/370/221 253/371/222 215/372/184
f 215/372/184 214/373/183 252/370/221
f 253/374/222 254/375/223 216/376/185
f 216/376/185 215/377/184 253/374/222
f 254/378/223 255/379/224 217/380/186
f 217/380/186 216/381/185 254/378/223
f 256/382/225 257/383/226 219/384/188
f 219/384/188 218/385/187 256/382/225
f 257/386/226 258/387/227 220/388/189
f 220/388/189 219/389/188 257/386/226
f 259/390/228 256/391/225 218/318/187
f 218/318/187 221/321/190 259/390/228
f 260/392/229 259/390/228 221/321/190
f 221/321/190 222/322/191 260/392/229
f 261/393/230 260/392/229 222/322/191
f 222/322/191 223/323/192 261/393/230
f 258/387/227 262/394/231 224/395/193
f 224/395/193 220/388/189 258/387/227
f 263/396/232 261/393/230 223/323/192
f 223/323/192 225/325/194 263/396/232
f 262/394/231 264/397/233 226/398/195
f 226/398/195 224/395/193 262/394/231
f 265/399/234 263/396/232 225/325/194
f 225/325/194 230/400/199 265/399/234
f 255/379/224 266/401/235 228/402/197
f 228/402/197 217/380/186 255/379/224
f 267/403/236 252/370/221 214/373/183
f 214/373/183 229/404/198 267/403/236
f 264/397/233 268/405/237 227/406/196
f 227/406/196 226/398/195 264/397/233
f 269/407/238 265/399/234 230/400/199
f 230/400/199 231/408/200 269/407/238
f 270/409/239 269/410/238 231/411/200
f 231/411/200 233/412/202 270/409/239
f 268/405/237 271/413/240 232/414/201
f 232/414/201 227/406/196 268/405/237
f 271/413/240 267/403/236 229/404/198
f 229/404/198 232/414/201 271/413/240
f 272/415/241 270/409/239 233/412/202
f 233/412/202 234/416/203 272/415/241
f 273/417/242 272/415/241 234/416/203
f 234/416/203 235/418/204 273/417/242
f 274/419/243 273/420/242 235/421/204
f 235/421/204 236/422/205 274/419/243
f 275/423/244 274/419/243 236/422/205
f 236/422/205 237/424/206 275/423/244
f 250/425/219 275/423/244 237/424/206
f 237/424/206 212/426/181 250/425/219
f 266/401/235 251/368/220 213/369/182
f 213/369/182 228/402/197 266/401/235
f 276/427/245 277/428/246 278/429/247
f 279/430/248 277/428/246 276/427/245
f 279/430/248 280/431/249 277/428/246
f 277/428/246 280/431/249 281/432/250
f 282/433/251 280/434/249 279/435/248
f 282/433/251 283/436/252 280/434/249
f 284/437/253 283/436/252 282/433/251
f 284/437/253 285/438/254 283/436/252
f 286/439/255 285/438/254 284/437/253
f 287/440/256 285/438/254 286/439/255
f 287/440/256 288/441/257 285/438/254
f 289/442/258 288/441/257 287/440/256
f 290/443/259 291/444/260 292/445/261
f 290/443/259 293/446/262 291/444/260
f 294/447/263 295/448/264 296/449/265
f 297/450/266 295/448/264 294/447/263
f 298/451/267 295/448/264 297/450/266
f 299/452/268 295/448/264 298/451/267
f 299/452/268 300/453/269 295/448/264
f 301/454/270 300/453/269 299/452/268
f 301/455/270 302/456/271 300/457/269
f 303/458/272 288/441/257 301/455/270
f 290/443/259 304/459/273 293/446/262
f 305/460/274 304/459/273 290/443/259
f 301/455/270 306/461/275 302/456/271
f 307/462/276 288/441/257 303/458/272
f 308/463/277 288/441/257 307/462/276
f 301/455/270 288/441/257 306/461/275
f 306/461/275 288/441/257 309/464/278
f 309/464/278 288/441/257 305/460/274
f 310/465/279 288/441/257 308/463/277
f 311/466/280 288/441/257 310/465/279
f 312/467/281 288/441/257 311/466/280
f 313/468/282 288/441/257 312/467/281
f 288/441/257 289/442/258 304/459/273
f 288/441/257 304/459/273 305/460/274
f 314/469/283 278/470/247 315/471/284
f 278/470/247 314/469/283 276/472/245
f 315/473/284 277/428/246 316/474/285
f 277/428/246 315/473/284 278/429/247
f 317/475/286 276/476/245 314/477/283
f 276/476/245 317/475/286 279/478/248
f 316/474/285 277/428/246 318/479/287
f 281/432/250 318/479/287 277/428/246
f 318/479/287 281/432/250 319/480/288
f 280/431/249 319/480/288 281/432/250
f 320/481/289 279/478/248 317/475/286
f 279/478/248 320/481/289 282/482/251
f 319/483/288 283/484/252 321/485/290
f 283/484/252 319/483/288 280/486/249
f 322/487/291 282/482/251 320/481/289
f 282/482/251 322/487/291 284/488/253
f 321/485/290 285/489/254 323/490/292
f 285/489/254 321/485/290 283/484/252
f 324/491/293 284/488/253 322/487/291
f 284/488/253 324/491/293 286/492/255
f 325/493/294 286/492/255 324/491/293
f 286/492/255 325/493/294 287/494/256
f 323/490/292 288/495/257 326/496/295
f 288/495/257 323/490/292 285/489/254
f 327/497/296 287/494/256 325/493/294
f 287/494/256 327/497/296 289/498/258
f 328/499/297 292/500/261 329/501/298
f 292/500/261 328/499/297 290/502/259
f 329/503/298 291/504/260 330/505/299
f 291/504/260 329/503/298 292/506/261
f 330/507/299 293/508/262 331/509/300
f 293/508/262 330/507/299 291/510/260
f 332/511/301 296/512/265 333/513/302
f 296/512/265 332/511/301 294/514/263
f 333/515/302 295/516/264 334/517/303
f 295/516/264 333/515/302 296/518/265
f 335/519/304 294/447/263 332/520/301
f 294/447/263 335/519/304 297/450/266
f 336/521/305 297/450/266 335/519/304
f 297/450/266 336/521/305 298/451/267
f 337/522/306 298/451/267 336/521/305
f 298/451/267 337/522/306 299/452/268
f 334/517/303 300/523/269 338/524/307
f 300/523/269 334/517/303 295/516/264
f 339/525/308 299/452/268 337/522/306
f 299/452/268 339/525/308 301/454/270
f 338/524/307 302/526/271 340/527/309
f 302/526/271 338/524/307 300/523/269
f 341/528/310 301/454/270 339/525/308
f 301/454/270 341/528/310 303/529/272
f 331/509/300 304/530/273 342/531/311
f 304/530/273 331/509/300 293/508/262
f 343/532/312 290/502/259 328/499/297
f 290/502/259 343/532/312 305/533/274
f 340/527/309 306/534/275 344/535/313
f 306/534/275 340/527/309 302/526/271
f 345/536/314 303/529/272 341/528/310
f 303/529/272 345/536/314 307/537/276
f 346/538/315 307/539/276 345/540/314
f 307/539/276 346/538/315 308/541/277
f 344/535/313 309/542/278 347/543/316
f 309/542/278 344/535/313 306/534/275
f 347/543/316 305/533/274 343/532/312
f 305/533/274 347/543/316 309/542/278
f 348/544/317 308/541/277 346/538/315
f 308/541/277 348/544/317 310/545/279
f 349/546/318 310/545/279 348/544/317
f 310/545/279 349/546/318 311/547/280
f 350/548/319 311/549/280 349/550/318
f 311/549/280 350/548/319 312/551/281
f 351/552/320 312/551/281 350/548/319
f 312/551/281 351/552/320 313/553/282
f 326/554/295 313/553/282 351/552/320
f 313/553/282 326/554/295 288/555/257
f 342/531/311 289/498/258 327/497/296
f 289/498/258 342/531/311 304/530/273
f 242/350/211 240/345/209 318/479/287
f 318/479/287 240/345/209 316/474/285
f 243/351/212 242/350/211 319/480/288
f 319/480/288 242/350/211 318/479/287
f 245/355/214 243/354/212 321/485/290
f 321/485/290 243/354/212 319/483/288
f 323/490/292 245/355/214 321/485/290
f 323/490/292 247/360/216 245/355/214
f 250/366/219 247/360/216 326/496/295
f 326/496/295 247/360/216 323/490/292
f 351/552/320 250/425/219 326/554/295
f 275/423/244 250/425/219 351/552/320
f 350/548/319 274/419/243 275/423/244
f 275/423/244 351/552/320 350/548/319
f 273/420/242 274/419/243 349/550/318
f 349/550/318 274/419/243 350/548/319
f 272/415/241 273/417/242 348/544/317
f 348/544/317 273/417/242 349/546/318
f 270/409/239 272/415/241 346/538/315
f 346/538/315 272/415/241 348/544/317
f 269/410/238 270/409/239 345/540/314
f 345/540/314 270/409/239 346/538/315
f 269/407/238 345/536/314 341/528/310
f 341/528/310 265/399/234 269/407/238
f 265/399/234 339/525/308 263/396/232
f 265/399/234 341/528/310 339/525/308
f 263/396/232 339/525/308 337/522/306
f 337/522/306 261/393/230 263/396/232
f 337/522/306 336/521/305 261/393/230
f 261/393/230 336/521/305 260/392/229
f 336/521/305 335/519/304 260/392/229
f 260/392/229 335/519/304 259/390/228
f 259/390/228 332/520/301 256/391/225
f 259/390/228 335/519/304 332/520/301
f 256/382/225 332/511/301 333/513/302
f 333/513/302 257/383/226 256/382/225
f 333/515/302 334/517/303 257/386/226
f 257/386/226 334/517/303 258/387/227
f 258/387/227 334/517/303 338/524/307
f 258/387/227 338/524/307 262/394/231
f 262/394/231 338/524/307 340/527/309
f 340/527/309 264/397/233 262/394/231
f 264/397/233 340/527/309 268/405/237
f 268/405/237 340/527/309 344/535/313
f 344/535/313 271/413/240 268/405/237
f 271/413/240 344/535/313 347/543/316
f 347/543/316 343/532/312 271/413/240
f 271/413/240 343/532/312 267/403/236
f 267/403/236 343/532/312 328/499/297
f 252/370/221 267/403/236 328/499/297
f 328/499/297 329/501/298 252/370/221
f 252/370/221 329/501/298 253/371/222
f 254/375/223 253/374/222 329/503/298
f 254/375/223 329/503/298 330/505/299
f 254/378/223 330/507/299 331/509/300
f 331/509/300 255/379/224 254/378/223
f 331/509/300 342/531/311 255/379/224
f 255/379/224 342/531/311 266/401/235
f 266/401/235 342/531/311 327/497/296
f 266/401/235 327/497/296 251/368/220
f 251/368/220 327/497/296 325/493/294
f 325/493/294 249/364/218 251/368/220
f 325/493/294 324/491/293 249/364/218
f 249/364/218 324/491/293 248/362/217
f 248/362/217 324/491/293 246/358/215
f 246/358/215 324/491/293 322/487/291
f 322/487/291 320/481/289 246/358/215
f 246/358/215 320/481/289 244/352/213
f 244/352/213 320/481/289 317/475/286
f 317/475/286 241/348/210 244/352/213
f 241/348/210 317/475/286 314/477/283
f 314/477/283 238/346/207 241/348/210
f 238/340/207 314/469/283 239/341/208
f 239/341/208 314/469/283 315/471/284
f 239/344/208 315/473/284 316/474/285
f 316/474/285 240/345/209 239/344/208
f 352/556/90 353/557/91 354/558/53
f 353/559/91 355/560/92 354/561/53
f 353/559/91 356/562/93 355/560/92
f 356/562/93 357/563/94 355/560/92
f 356/564/93 358/565/95 357/566/94
f 358/567/95 359/568/96 357/569/94
f 358/567/95 360/570/97 359/568/96
f 360/570/97 361/571/98 359/568/96
f 360/570/97 362/572/99 361/571/98
f 362/572/99 363/573/100 361/571/98
f 362/572/99 352/574/90 363/573/100
f 352/574/90 354/575/53 363/573/100
f 364/576/101 352/574/90 365/577/102
f 353/559/91 352/574/90 364/576/101
f 364/576/101 366/578/103 353/559/91
f 366/578/103 356/562/93 353/559/91
f 366/578/103 367/579/104 356/562/93
f 367/579/104 358/567/95 356/562/93
f 367/579/104 368/580/105 358/567/95
f 368/580/105 360/570/97 358/567/95
f 368/580/105 369/581/106 360/570/97
f 369/581/106 362/572/99 360/570/97
f 369/581/106 365/577/102 362/572/99
f 365/577/102 352/574/90 362/572/99
f 370/582/107 371/583/108 365/577/102
f 371/583/108 364/576/101 365/577/102
f 371/584/108 372/585/109 364/586/101
f 372/585/109 366/587/103 364/588/101
f 372/585/109 373/589/110 366/587/103
f 373/590/110 367/579/104 366/578/103
f 373/590/110 374/591/111 367/579/104
f 374/591/111 368/580/105 367/579/104
f 374/591/111 375/592/112 368/580/105
f 375/592/112 369/581/106 368/580/105
f 375/592/112 370/582/107 369/581/106
f 370/582/107 365/577/102 369/581/106
f 376/593/113 377/594/114 370/582/107
f 377/594/114 371/583/108 370/582/107
f 377/594/114 378/595/115 371/583/108
f 378/595/115 372/596/109 371/583/108
f 378/595/115 379/597/116 372/596/109
f 379/597/116 373/590/110 372/596/109
f 379/597/116 380/598/117 373/590/110
f 380/598/117 374/591/111 373/590/110
f 380/598/117 381/599/118 374/591/111
f 381/599/118 375/592/112 374/591/111
f 381/599/118 376/593/113 375/592/112
f 376/593/113 370/582/107 375/592/112
f 382/600/53 383/601/92 376/593/113
f 383/602/92 377/603/114 376/604/113
f 383/605/92 384/606/94 377/607/114
f 384/608/94 378/609/115 377/610/114
f 384/611/94 385/612/96 378/613/115
f 385/614/96 379/615/116 378/609/115
f 385/616/96 386/617/98 379/597/116
f 386/617/98 380/598/117 379/597/116
f 386/617/98 387/618/100 380/598/117
f 387/618/100 381/599/118 380/598/117
f 387/618/100 382/600/53 381/599/118
f 382/600/53 376/593/113 381/599/118
