# Blender v3.0.1 OBJ File: ''
# www.blender.org
mtllib bus_wheel.mtl
o Jeep.002
v 0.362104 -0.313781 0.066355
v 0.292462 -0.414015 0.424065
v 0.292462 -0.544854 0.233411
v 0.292462 -0.592750 0.007243
v 0.362104 -0.174998 0.268925
v 0.362104 -0.268922 -0.175000
v 0.292462 -0.220091 0.550234
v 0.292462 -0.550228 -0.220094
v 0.292462 0.007242 0.592523
v 0.292462 -0.424294 -0.413785
v 0.362103 0.066354 0.313785
v 0.362103 -0.066588 -0.313785
v 0.292462 0.233408 0.544626
v 0.292462 -0.233642 -0.544626
v 0.292462 0.424060 0.413785
v 0.292462 -0.007243 -0.592523
v 0.362103 0.268688 0.175001
v 0.362103 0.174764 -0.268925
v 0.292462 0.550227 0.220094
v 0.292462 0.220090 -0.550234
v 0.292462 0.592516 -0.007242
v 0.292462 0.413780 -0.424064
v 0.362103 0.313781 -0.066355
v 0.292462 0.544619 -0.233410
v 0.397305 -0.097662 0.149766
v 0.397305 -0.174998 0.036916
v 0.397305 -0.149998 -0.097430
v 0.397305 0.036916 0.175000
v 0.397305 -0.037150 -0.175000
v 0.397305 0.149765 0.097430
v 0.397305 0.097428 -0.150000
v 0.397305 0.174764 -0.037149
v 0.427280 -0.114252 0.024066
v 0.427280 -0.097896 -0.063785
v 0.427280 -0.063785 0.097897
v 0.427280 -0.024299 -0.114252
v 0.427280 0.063551 -0.097897
v 0.427280 0.114250 -0.024299
v 0.427280 0.024064 0.114252
v 0.427280 0.097662 0.063552
v -0.208836 0.919147 -0.393924
v -0.208836 0.698356 -0.715653
v -0.240930 0.669617 -0.686214
v -0.427280 0.097662 0.063552
v -0.427280 0.114250 -0.024299
v -0.427280 -0.063785 0.097897
v -0.397305 0.149765 0.097430
v -0.397305 0.174764 -0.037149
v -0.397305 0.036916 0.175000
v -0.427280 0.024064 0.114252
v -0.427280 0.063551 -0.097897
v -0.427280 -0.024299 -0.114252
v -0.427280 -0.097896 -0.063785
v -0.397305 -0.097662 0.149766
v -0.427280 -0.114252 0.024066
v -0.397305 -0.149998 -0.097430
v -0.362103 0.268688 0.175001
v -0.362103 0.174764 -0.268925
v -0.362103 -0.066588 -0.313785
v -0.397305 -0.037150 -0.175000
v -0.362104 -0.174998 0.268925
v -0.362103 0.066354 0.313785
v -0.397305 -0.174998 0.036916
v -0.362104 -0.268922 -0.175000
v -0.292462 0.592516 -0.007242
v -0.362103 0.313781 -0.066355
v -0.292462 0.220090 -0.550234
v -0.292462 -0.007243 -0.592523
v -0.292462 -0.233642 -0.544626
v -0.292462 -0.424294 -0.413785
v -0.292462 0.424060 0.413785
v -0.292462 0.233408 0.544626
v -0.292462 -0.220091 0.550234
v -0.292462 0.007242 0.592523
v -0.292462 -0.592750 0.007243
v -0.362104 -0.313781 0.066355
v -0.397305 0.097428 -0.150000
v -0.292462 0.550227 0.220094
v -0.240930 0.356071 -0.890419
v -0.292462 0.544619 -0.233410
v -0.292462 0.413780 -0.424064
v -0.292462 -0.550228 -0.220094
v -0.292462 -0.414015 0.424065
v -0.292462 -0.544854 0.233411
v 0.208836 0.919147 -0.393924
v 0.240930 0.669617 -0.686214
v 0.208836 0.698356 -0.715653
v 0.240930 0.356071 -0.890419
v 0.208836 0.371257 -0.928503
v 0.240930 0.881298 -0.377802
v 0.208836 0.999988 -0.012148
v 0.240930 -0.011915 -0.958879
v 0.240930 0.958634 -0.011681
v 0.208836 -0.012383 -1.000000
v 0.240930 -0.377799 -0.881308
v 0.208836 -0.394154 -0.919159
v 0.240930 -0.686441 -0.669626
v 0.208836 -0.715879 -0.698364
v 0.240930 -0.890410 -0.356075
v 0.208836 -0.928727 -0.371495
v 0.240930 -0.958867 0.011682
v 0.208836 -0.999988 0.012149
v 0.240930 -0.881532 0.377804
v 0.208836 -0.919382 0.393925
v 0.240930 -0.669852 0.686215
v 0.208836 -0.698590 0.715654
v 0.240930 -0.356305 0.890421
v 0.208836 -0.371492 0.928505
v 0.240930 0.011682 0.958878
v 0.208836 0.012149 1.000000
v 0.240930 0.377565 0.881309
v 0.208836 0.393919 0.919159
v 0.240930 0.686207 0.669628
v 0.208836 0.715645 0.698365
v 0.240930 0.890176 0.356076
v 0.208836 0.928493 0.371497
v 0.323879 -0.707000 0.303037
v 0.323879 -0.769149 0.009346
v 0.323879 -0.537377 0.550468
v 0.323879 -0.714244 -0.285748
v 0.323879 -0.550461 -0.537149
v 0.323879 -0.303033 -0.707009
v 0.323879 -0.009580 -0.769159
v 0.323879 0.285511 -0.714252
v 0.323878 0.537143 -0.550466
v 0.323878 0.706767 -0.303036
v 0.323878 0.768916 -0.009344
v 0.323878 0.714010 0.285514
v 0.323878 0.550461 0.537150
v 0.323879 0.302800 0.707011
v 0.323879 0.009345 0.769159
v 0.323879 -0.285744 0.714019
v -0.208836 0.371257 -0.928503
v -0.240930 0.881298 -0.377802
v -0.208836 0.999988 -0.012148
v -0.240930 -0.011915 -0.958879
v -0.240930 0.958634 -0.011681
v -0.208836 -0.012383 -1.000000
v -0.240930 -0.377799 -0.881308
v -0.208836 -0.394154 -0.919159
v -0.240930 -0.686441 -0.669626
v -0.208836 -0.715879 -0.698364
v -0.240930 -0.890410 -0.356075
v -0.208836 -0.928727 -0.371495
v -0.240930 -0.958867 0.011682
v -0.208836 -0.999988 0.012149
v -0.240930 -0.881532 0.377804
v -0.208836 -0.919382 0.393925
v -0.240930 -0.669852 0.686215
v -0.208836 -0.698590 0.715654
v -0.240930 -0.356305 0.890421
v -0.208836 -0.371492 0.928505
v -0.240930 0.011682 0.958878
v -0.208836 0.012149 1.000000
v -0.240930 0.377565 0.881309
v -0.208836 0.393919 0.919159
v -0.240930 0.686207 0.669628
v -0.208836 0.715645 0.698365
v -0.240930 0.890176 0.356076
v -0.208836 0.928493 0.371497
v -0.323879 -0.707000 0.303037
v -0.323879 -0.769149 0.009346
v -0.323879 -0.537377 0.550468
v -0.323879 -0.714244 -0.285748
v -0.323879 -0.550461 -0.537149
v -0.323879 -0.303033 -0.707009
v -0.323879 -0.009580 -0.769159
v -0.323879 0.285511 -0.714252
v -0.323878 0.537143 -0.550466
v -0.323878 0.706767 -0.303036
v -0.323878 0.768916 -0.009344
v -0.323878 0.714010 0.285514
v -0.323878 0.550461 0.537150
v -0.323879 0.302800 0.707011
v -0.323879 0.009345 0.769159
v -0.323879 -0.285744 0.714019
vt 0.622688 0.265133
vt 0.595727 0.262031
vt 0.610484 0.255215
vt 0.627830 0.252792
vt 0.604953 0.273178
vt 0.643536 0.267858
vt 0.585762 0.272003
vt 0.645542 0.255045
vt 0.582348 0.283665
vt 0.660394 0.261581
vt 0.601113 0.287303
vt 0.655570 0.279639
vt 0.586225 0.295495
vt 0.670634 0.271553
vt 0.596186 0.305299
vt 0.674233 0.283215
vt 0.613043 0.299022
vt 0.651732 0.293764
vt 0.611132 0.311833
vt 0.670819 0.295045
vt 0.628752 0.314087
vt 0.661132 0.305017
vt 0.633890 0.301745
vt 0.646186 0.311666
vt 0.615323 0.277738
vt 0.625282 0.273305
vt 0.637003 0.274825
vt 0.613043 0.285594
vt 0.643536 0.281349
vt 0.619888 0.292244
vt 0.641255 0.289140
vt 0.631609 0.293575
vt 0.626527 0.277738
vt 0.633165 0.278627
vt 0.620924 0.280272
vt 0.637003 0.282363
vt 0.635654 0.286797
vt 0.630052 0.289330
vt 0.619683 0.284707
vt 0.623519 0.288443
vt 0.428785 0.117276
vt 0.440015 0.117275
vt 0.440015 0.114240
vt 0.623519 0.288443
vt 0.630052 0.289330
vt 0.620924 0.280272
vt 0.619888 0.292244
vt 0.631609 0.293575
vt 0.613043 0.285594
vt 0.619683 0.284707
vt 0.635654 0.286797
vt 0.637003 0.282363
vt 0.633165 0.278627
vt 0.615323 0.277738
vt 0.626527 0.277738
vt 0.637003 0.274825
vt 0.613043 0.299022
vt 0.651732 0.293764
vt 0.655570 0.279639
vt 0.643536 0.281349
vt 0.604953 0.273178
vt 0.601113 0.287303
vt 0.625282 0.273305
vt 0.643536 0.267858
vt 0.628752 0.314087
vt 0.633890 0.301745
vt 0.670819 0.295045
vt 0.674233 0.283215
vt 0.670634 0.271553
vt 0.660394 0.261581
vt 0.596186 0.305299
vt 0.586225 0.295495
vt 0.585762 0.272003
vt 0.582348 0.283665
vt 0.627830 0.252792
vt 0.622688 0.265133
vt 0.641255 0.289140
vt 0.611132 0.311833
vt 0.451304 0.114240
vt 0.646186 0.311666
vt 0.661132 0.305017
vt 0.645542 0.255045
vt 0.595727 0.262031
vt 0.610484 0.255215
vt 0.428785 0.117276
vt 0.440015 0.114240
vt 0.440015 0.117275
vt 0.451304 0.114240
vt 0.451304 0.117275
vt 0.428785 0.114241
vt 0.417557 0.117277
vt 0.462443 0.114239
vt 0.417557 0.114242
vt 0.462443 0.117274
vt 0.428786 0.144011
vt 0.417557 0.140977
vt 0.417557 0.144012
vt 0.428786 0.140976
vt 0.439985 0.144010
vt 0.439985 0.140976
vt 0.451215 0.144010
vt 0.451215 0.140975
vt 0.462443 0.144009
vt 0.462443 0.140974
vt 0.428785 0.114241
vt 0.417557 0.117277
vt 0.417557 0.114242
vt 0.428785 0.117276
vt 0.440015 0.114240
vt 0.440015 0.117275
vt 0.451214 0.114240
vt 0.451214 0.117275
vt 0.462443 0.114239
vt 0.462443 0.117274
vt 0.428696 0.143827
vt 0.417557 0.140794
vt 0.417557 0.143828
vt 0.428696 0.140794
vt 0.439985 0.143827
vt 0.439985 0.140793
vt 0.451215 0.143826
vt 0.451215 0.140792
vt 0.462443 0.143826
vt 0.462443 0.140791
vt 0.627673 0.234731
vt 0.604422 0.246152
vt 0.599677 0.238610
vt 0.627837 0.243017
vt 0.655853 0.238307
vt 0.584955 0.255053
vt 0.575861 0.249337
vt 0.610388 0.255390
vt 0.595686 0.262189
vt 0.627847 0.253000
vt 0.585762 0.272112
vt 0.651253 0.245963
vt 0.645491 0.255267
vt 0.679849 0.248730
vt 0.671188 0.254614
vt 0.660466 0.261760
vt 0.695941 0.264488
vt 0.684352 0.267717
vt 0.670666 0.271684
vt 0.701757 0.283152
vt 0.689242 0.283139
vt 0.674250 0.283261
vt 0.696394 0.301937
vt 0.684823 0.298686
vt 0.680667 0.317874
vt 0.671846 0.311976
vt 0.661110 0.304947
vt 0.656943 0.328601
vt 0.652193 0.320879
vt 0.646225 0.311563
vt 0.628948 0.332479
vt 0.628776 0.324138
vt 0.628764 0.314013
vt 0.600769 0.328904
vt 0.605362 0.321066
vt 0.611122 0.311746
vt 0.576769 0.318298
vt 0.585710 0.312415
vt 0.560681 0.302665
vt 0.572261 0.299313
vt 0.554865 0.283879
vt 0.567373 0.283891
vt 0.582363 0.283752
vt 0.560228 0.265275
vt 0.571791 0.268344
vt 0.451304 0.117275
vt 0.428785 0.114241
vt 0.417557 0.117277
vt 0.462443 0.114239
vt 0.417557 0.114242
vt 0.462443 0.117274
vt 0.428786 0.144011
vt 0.417557 0.144012
vt 0.417557 0.140977
vt 0.428786 0.140976
vt 0.439985 0.144010
vt 0.439985 0.140976
vt 0.451215 0.144010
vt 0.451215 0.140975
vt 0.462443 0.144009
vt 0.462443 0.140974
vt 0.428785 0.114241
vt 0.417557 0.114242
vt 0.417557 0.117277
vt 0.428785 0.117276
vt 0.440015 0.114240
vt 0.440015 0.117275
vt 0.451214 0.114240
vt 0.451214 0.117275
vt 0.462443 0.114239
vt 0.462443 0.117274
vt 0.428696 0.143827
vt 0.417557 0.143828
vt 0.417557 0.140794
vt 0.428696 0.140794
vt 0.439985 0.143827
vt 0.439985 0.140793
vt 0.451215 0.143826
vt 0.451215 0.140792
vt 0.462443 0.143826
vt 0.462443 0.140791
vt 0.627673 0.234731
vt 0.599677 0.238610
vt 0.604422 0.246152
vt 0.627837 0.243017
vt 0.655853 0.238307
vt 0.584955 0.255053
vt 0.575861 0.249337
vt 0.610388 0.255390
vt 0.595686 0.262189
vt 0.627847 0.253000
vt 0.585762 0.272112
vt 0.651253 0.245963
vt 0.645491 0.255267
vt 0.679849 0.248730
vt 0.671188 0.254614
vt 0.660466 0.261760
vt 0.695941 0.264488
vt 0.684352 0.267717
vt 0.670666 0.271684
vt 0.701757 0.283152
vt 0.689242 0.283139
vt 0.674250 0.283261
vt 0.696394 0.301937
vt 0.684823 0.298686
vt 0.680667 0.317874
vt 0.671846 0.311976
vt 0.661110 0.304947
vt 0.656943 0.328601
vt 0.652193 0.320879
vt 0.646225 0.311563
vt 0.628948 0.332479
vt 0.628776 0.324138
vt 0.628764 0.314013
vt 0.600769 0.328904
vt 0.605362 0.321066
vt 0.611122 0.311746
vt 0.576769 0.318298
vt 0.585710 0.312415
vt 0.560681 0.302665
vt 0.572261 0.299313
vt 0.554865 0.283879
vt 0.567373 0.283891
vt 0.582363 0.283752
vt 0.560228 0.265275
vt 0.571791 0.268344
vt 0.451214 0.116564
vt 0.462443 0.116564
vt 0.417557 0.141504
vt 0.428786 0.141503
vt 0.440015 0.141503
vt 0.451304 0.141502
vt 0.462443 0.141501
vt 0.417557 0.116750
vt 0.428786 0.116749
vt 0.439985 0.116748
vt 0.451214 0.116747
vt 0.462443 0.116747
vt 0.417557 0.141504
vt 0.428786 0.141503
vt 0.440015 0.141503
vt 0.451214 0.141502
vt 0.462443 0.141501
vt 0.417557 0.116566
vt 0.428696 0.116565
vt 0.439985 0.116564
vn 0.9736 -0.2279 0.0075
vn 1.0000 0.0026 0.0084
vn 0.9999 -0.0045 0.0156
vn 1.0000 -0.0039 0.0079
vn 0.9737 -0.1557 0.1661
vn 0.9736 -0.1663 -0.1561
vn 0.9999 0.0076 0.0144
vn 0.9999 -0.0145 0.0077
vn 1.0000 0.0079 0.0041
vn 1.0000 -0.0084 0.0027
vn 0.9737 0.0074 0.2276
vn 0.9736 -0.0074 -0.2280
vn 0.9999 0.0157 0.0048
vn 0.9999 -0.0156 -0.0047
vn 1.0000 0.0085 -0.0027
vn 1.0000 -0.0079 -0.0041
vn 0.9737 0.1660 0.1558
vn 0.9736 0.1559 -0.1665
vn 0.9999 0.0143 -0.0076
vn 0.9999 -0.0077 -0.0144
vn 1.0000 0.0039 -0.0079
vn 1.0000 -0.0025 -0.0085
vn 0.9737 0.2275 -0.0071
vn 0.9999 0.0047 -0.0157
vn 0.8741 -0.2902 0.3895
vn 0.8751 -0.4807 0.0562
vn 0.8750 -0.3799 -0.3001
vn 0.8737 0.0712 0.4811
vn 0.8750 -0.0568 -0.4808
vn 0.8742 0.3903 0.2889
vn 0.8749 0.3000 -0.3803
vn 0.8741 0.4807 -0.0707
vn 0.9214 -0.3427 0.1834
vn 0.9615 -0.2591 -0.0912
vn 0.9986 0.0075 0.0524
vn 0.9615 -0.1186 -0.2480
vn 0.9616 0.0914 -0.2589
vn 0.9615 0.2480 -0.1183
vn 0.9154 0.1605 0.3692
vn 0.9597 0.2649 0.0943
vn -0.3952 0.8487 -0.3516
vn -0.4123 0.6552 -0.6330
vn -0.8482 0.3604 -0.3882
vn -0.9665 0.1767 0.1864
vn -0.9734 0.2289 -0.0066
vn -0.8816 -0.3674 0.2964
vn -0.8904 0.4368 0.1282
vn -0.9843 0.1340 -0.1152
vn -0.9554 0.2174 0.2001
vn -0.9841 -0.0552 0.1690
vn -0.9704 0.0853 -0.2261
vn -0.9772 -0.0527 -0.2056
vn -0.9749 -0.2027 -0.0920
vn -0.9555 0.0107 0.2949
vn -0.9703 -0.1698 0.1722
vn -0.8980 -0.2642 -0.3520
vn -0.9782 0.1559 0.1370
vn -0.9637 0.1641 -0.2103
vn -0.9638 -0.0773 -0.2553
vn -0.8936 -0.2263 -0.3876
vn -0.9810 -0.1124 0.1580
vn -0.9734 0.0074 0.2288
vn -0.8750 -0.4624 0.1432
vn -0.9621 -0.2290 -0.1480
vn -0.9998 0.0158 0.0099
vn -0.9636 0.2652 -0.0335
vn -1.0000 0.0035 0.0016
vn -0.9999 0.0133 -0.0074
vn -1.0000 0.0037 -0.0014
vn -0.9999 0.0043 -0.0146
vn -0.9998 0.0043 0.0184
vn -0.9999 -0.0028 0.0128
vn -0.9999 -0.0109 0.0070
vn -0.9998 -0.0028 0.0190
vn -0.9999 -0.0001 -0.0102
vn -0.9657 -0.2457 0.0843
vn -0.8753 0.3038 -0.3763
vn -0.9998 0.0184 0.0017
vn -0.8453 0.2075 -0.4924
vn -0.9999 0.0127 0.0028
vn -0.9999 0.0147 0.0042
vn -0.9999 -0.0116 -0.0105
vn -0.9999 -0.0120 -0.0059
vn -1.0000 -0.0011 -0.0037
vn 0.4020 0.8497 -0.3412
vn 0.8592 0.3624 -0.3611
vn 0.4285 0.6128 -0.6640
vn 0.8590 0.1967 -0.4726
vn 0.4280 0.3117 -0.8483
vn 0.8595 0.4726 -0.1948
vn 0.4030 0.9151 0.0099
vn 0.8591 0.0008 -0.5119
vn 0.8598 0.5106 0.0010
vn 0.4407 0.0023 -0.8977
vn 0.8594 -0.1949 -0.4727
vn 0.4409 -0.3413 -0.8301
vn 0.8594 -0.3610 -0.3621
vn 0.4409 -0.6330 -0.6364
vn 0.8595 -0.4719 -0.1963
vn 0.4412 -0.8282 -0.3456
vn 0.8594 -0.5113 -0.0008
vn 0.4405 -0.8978 -0.0023
vn 0.8593 -0.4729 0.1948
vn 0.4406 -0.8303 0.3412
vn 0.8592 -0.3623 0.3612
vn 0.4403 -0.6365 0.6333
vn 0.8591 -0.1967 0.4725
vn 0.4401 -0.3458 0.8287
vn 0.8591 -0.0008 0.5119
vn 0.4407 -0.0023 0.8977
vn 0.8594 0.1949 0.4727
vn 0.4409 0.3413 0.8301
vn 0.8593 0.3611 0.3621
vn 0.4409 0.6330 0.6364
vn 0.8596 0.4718 0.1963
vn 0.4416 0.8279 0.3458
vn 0.9930 -0.1150 0.0269
vn 0.9930 -0.1165 -0.0191
vn 0.9930 -0.0959 0.0690
vn 0.9930 -0.1005 -0.0622
vn 0.9930 -0.0689 -0.0960
vn 0.9930 -0.0270 -0.1151
vn 0.9930 0.0191 -0.1167
vn 0.9930 0.0623 -0.1005
vn 0.9930 0.0960 -0.0689
vn 0.9930 0.1150 -0.0269
vn 0.9930 0.1166 0.0191
vn 0.9930 0.1004 0.0622
vn 0.9930 0.0691 0.0960
vn 0.9930 0.0270 0.1151
vn 0.9930 -0.0191 0.1166
vn 0.9930 -0.0623 0.1003
vn -0.4115 0.3635 -0.8358
vn -0.8547 0.4828 -0.1908
vn -0.4080 0.9129 0.0136
vn -0.8460 0.0030 -0.5332
vn -0.8554 0.5179 0.0081
vn -0.4322 0.0122 -0.9017
vn -0.8463 -0.2010 -0.4933
vn -0.4326 -0.3339 -0.8375
vn -0.8459 -0.3750 -0.3794
vn -0.4324 -0.6287 -0.6463
vn -0.8466 -0.4905 -0.2065
vn -0.4331 -0.8280 -0.3561
vn -0.8457 -0.5336 -0.0031
vn -0.4323 -0.9017 -0.0123
vn -0.8460 -0.4939 0.2010
vn -0.3938 -0.8423 0.3681
vn -0.8459 -0.3793 0.3748
vn -0.3956 -0.6498 0.6490
vn -0.8453 -0.2075 0.4923
vn -0.3946 -0.3521 0.8487
vn -0.8460 -0.0030 0.5332
vn -0.3954 -0.0006 0.9185
vn -0.8463 0.2010 0.4933
vn -0.3960 0.3511 0.8485
vn -0.8458 0.3750 0.3794
vn -0.3953 0.6491 0.6499
vn -0.8466 0.4905 0.2065
vn -0.3963 0.8479 0.3521
vn -0.9863 -0.1306 0.1012
vn -0.9893 -0.1406 -0.0385
vn -0.9812 -0.1451 0.1272
vn -0.9814 -0.1841 -0.0538
vn -0.9815 -0.1489 -0.1201
vn -0.9814 -0.0920 -0.1683
vn -0.9815 -0.0206 -0.1906
vn -0.9814 0.0539 -0.1840
vn -0.9815 0.1202 -0.1493
vn -0.9815 0.1680 -0.0917
vn -0.9815 0.1905 -0.0205
vn -0.9815 0.1838 0.0539
vn -0.9814 0.1495 0.1202
vn -0.9814 0.0920 0.1682
vn -0.9814 0.0207 0.1907
vn -0.9816 -0.0540 0.1834
usemtl materials_are_bae.001
s 1
f 1/1/1 2/2/2 3/3/3
f 4/4/4 1/1/1 3/3/3
f 2/2/2 1/1/1 5/5/5
f 6/6/6 1/1/1 4/4/4
f 2/2/2 5/5/5 7/7/7
f 6/6/6 4/4/4 8/8/8
f 5/5/5 9/9/9 7/7/7
f 10/10/10 6/6/6 8/8/8
f 9/9/9 5/5/5 11/11/11
f 10/10/10 12/12/12 6/6/6
f 9/9/9 11/11/11 13/13/13
f 12/12/12 10/10/10 14/14/14
f 11/11/11 15/15/15 13/13/13
f 16/16/16 12/12/12 14/14/14
f 15/15/15 11/11/11 17/17/17
f 16/16/16 18/18/18 12/12/12
f 15/15/15 17/17/17 19/19/19
f 18/18/18 16/16/16 20/20/20
f 17/17/17 21/21/21 19/19/19
f 22/22/22 18/18/18 20/20/20
f 21/21/21 17/17/17 23/23/23
f 22/22/22 23/23/23 18/18/18
f 21/21/21 23/23/23 24/24/24
f 23/23/23 22/22/22 24/24/24
f 25/25/25 1/1/1 26/26/26
f 26/26/26 1/1/1 6/6/6
f 1/1/1 25/25/25 5/5/5
f 26/26/26 6/6/6 27/27/27
f 28/28/28 5/5/5 25/25/25
f 12/12/12 27/27/27 6/6/6
f 5/5/5 28/28/28 11/11/11
f 27/27/27 12/12/12 29/29/29
f 30/30/30 11/11/11 28/28/28
f 18/18/18 29/29/29 12/12/12
f 11/11/11 30/30/30 17/17/17
f 29/29/29 18/18/18 31/31/31
f 32/32/32 17/17/17 30/30/30
f 23/23/23 31/31/31 18/18/18
f 17/17/17 32/32/32 23/23/23
f 31/31/31 23/23/23 32/32/32
f 33/33/33 25/25/25 26/26/26
f 26/26/26 34/34/34 33/33/33
f 34/34/34 26/26/26 27/27/27
f 25/25/25 33/33/33 35/35/35
f 34/34/34 35/35/35 33/33/33
f 35/35/35 28/28/28 25/25/25
f 27/27/27 36/36/36 34/34/34
f 36/36/36 35/35/35 34/34/34
f 36/36/36 27/27/27 29/29/29
f 29/29/29 37/37/37 36/36/36
f 37/37/37 35/35/35 36/36/36
f 37/37/37 29/29/29 31/31/31
f 31/31/31 38/38/38 37/37/37
f 38/38/38 35/35/35 37/37/37
f 38/38/38 31/31/31 32/32/32
f 28/28/28 35/35/35 39/39/39
f 39/39/39 30/30/30 28/28/28
f 40/40/40 35/35/35 38/38/38
f 35/35/35 40/40/40 39/39/39
f 32/32/32 40/40/40 38/38/38
f 39/39/39 40/40/40 30/30/30
f 40/40/40 32/32/32 30/30/30
f 41/41/41 42/42/42 43/43/43
f 44/44/44 45/45/45 46/46/46
f 44/44/44 47/47/47 48/48/48
f 49/49/49 50/50/50 46/46/46
f 50/50/50 47/47/47 44/44/44
f 51/51/51 52/52/52 46/46/46
f 52/52/52 53/53/53 46/46/46
f 54/54/54 46/46/46 55/55/55
f 56/56/56 53/53/53 52/52/52
f 53/53/53 55/55/55 46/46/46
f 48/48/48 47/47/47 57/57/57
f 58/58/58 59/59/59 60/60/60
f 61/61/61 62/62/62 49/49/49
f 63/63/63 56/56/56 64/64/64
f 56/56/56 60/60/60 59/59/59
f 49/49/49 54/54/54 61/61/61
f 65/65/65 66/66/66 57/57/57
f 58/58/58 67/67/67 68/68/68
f 68/68/68 59/59/59 58/58/58
f 59/59/59 69/69/69 70/70/70
f 71/71/71 57/57/57 62/62/62
f 62/62/62 72/72/72 71/71/71
f 61/61/61 73/73/73 74/74/74
f 64/64/64 75/75/75 76/76/76
f 45/45/45 48/48/48 77/77/77
f 50/50/50 49/49/49 47/47/47
f 52/52/52 60/60/60 56/56/56
f 46/46/46 54/54/54 49/49/49
f 47/47/47 49/49/49 62/62/62
f 59/59/59 64/64/64 56/56/56
f 71/71/71 78/78/78 57/57/57
f 68/68/68 69/69/69 59/59/59
f 79/79/79 43/43/43 42/42/42
f 77/77/77 51/51/51 45/45/45
f 45/45/45 51/51/51 46/46/46
f 46/46/46 50/50/50 44/44/44
f 48/48/48 45/45/45 44/44/44
f 60/60/60 52/52/52 51/51/51
f 51/51/51 77/77/77 60/60/60
f 63/63/63 55/55/55 53/53/53
f 53/53/53 56/56/56 63/63/63
f 55/55/55 63/63/63 54/54/54
f 77/77/77 48/48/48 66/66/66
f 66/66/66 58/58/58 77/77/77
f 57/57/57 66/66/66 48/48/48
f 60/60/60 77/77/77 58/58/58
f 62/62/62 57/57/57 47/47/47
f 63/63/63 64/64/64 76/76/76
f 76/76/76 61/61/61 54/54/54
f 54/54/54 63/63/63 76/76/76
f 66/66/66 80/80/80 81/81/81
f 81/81/81 58/58/58 66/66/66
f 65/65/65 80/80/80 66/66/66
f 81/81/81 67/67/67 58/58/58
f 57/57/57 78/78/78 65/65/65
f 70/70/70 64/64/64 59/59/59
f 74/74/74 72/72/72 62/62/62
f 70/70/70 82/82/82 64/64/64
f 74/74/74 62/62/62 61/61/61
f 83/83/83 73/73/73 61/61/61
f 64/64/64 82/82/82 75/75/75
f 83/83/83 61/61/61 76/76/76
f 76/76/76 84/84/84 83/83/83
f 75/75/75 84/84/84 76/76/76
f 85/85/85 86/86/86 87/87/87
f 88/88/88 87/87/87 86/86/86
f 87/87/87 88/88/88 89/89/89
f 86/86/86 85/85/85 90/90/90
f 91/91/91 90/90/90 85/85/85
f 92/92/92 89/89/89 88/88/88
f 90/90/90 91/91/91 93/93/93
f 89/89/89 92/92/92 94/94/94
f 95/95/95 94/96/94 92/97/92
f 94/96/94 95/95/95 96/98/96
f 97/99/97 96/98/96 95/95/95
f 96/98/96 97/99/97 98/100/98
f 99/101/99 98/100/98 97/99/97
f 98/100/98 99/101/99 100/102/100
f 101/103/101 100/102/100 99/101/99
f 100/102/100 101/103/101 102/104/102
f 103/105/103 102/106/102 101/107/101
f 102/106/102 103/105/103 104/108/104
f 105/109/105 104/108/104 103/105/103
f 104/108/104 105/109/105 106/110/106
f 107/111/107 106/110/106 105/109/105
f 106/110/106 107/111/107 108/112/108
f 109/113/109 108/112/108 107/111/107
f 108/112/108 109/113/109 110/114/110
f 111/115/111 110/116/110 109/117/109
f 110/116/110 111/115/111 112/118/112
f 113/119/113 112/118/112 111/115/111
f 112/118/112 113/119/113 114/120/114
f 115/121/115 114/120/114 113/119/113
f 114/120/114 115/121/115 116/122/116
f 93/123/93 116/122/116 115/121/115
f 116/122/116 93/123/93 91/124/91
f 101/125/101 117/126/117 103/127/103
f 117/126/117 101/125/101 118/128/118
f 99/129/99 118/128/118 101/125/101
f 119/130/119 103/127/103 117/126/117
f 103/127/103 119/130/119 105/131/105
f 118/128/118 3/132/3 117/126/117
f 2/133/2 117/126/117 3/132/3
f 117/126/117 2/133/2 119/130/119
f 3/132/3 118/128/118 4/134/4
f 7/135/7 119/130/119 2/133/2
f 120/136/120 4/134/4 118/128/118
f 118/128/118 99/129/99 120/136/120
f 4/134/4 120/136/120 8/137/8
f 97/138/97 120/136/120 99/129/99
f 121/139/121 8/137/8 120/136/120
f 120/136/120 97/138/97 121/139/121
f 8/137/8 121/139/121 10/140/10
f 95/141/95 121/139/121 97/138/97
f 122/142/122 10/140/10 121/139/121
f 121/139/121 95/141/95 122/142/122
f 10/140/10 122/142/122 14/143/14
f 92/144/92 122/142/122 95/141/95
f 123/145/123 14/143/14 122/142/122
f 122/142/122 92/144/92 123/145/123
f 14/143/14 123/145/123 16/146/16
f 88/147/88 123/145/123 92/144/92
f 124/148/124 16/146/16 123/145/123
f 123/145/123 88/147/88 124/148/124
f 16/146/16 124/148/124 20/20/20
f 86/149/86 124/148/124 88/147/88
f 125/150/125 20/20/20 124/148/124
f 124/148/124 86/149/86 125/150/125
f 20/20/20 125/150/125 22/151/22
f 90/152/90 125/150/125 86/149/86
f 126/153/126 22/151/22 125/150/125
f 125/150/125 90/152/90 126/153/126
f 22/151/22 126/153/126 24/154/24
f 93/155/93 126/153/126 90/152/90
f 127/156/127 24/154/24 126/153/126
f 126/153/126 93/155/93 127/156/127
f 24/154/24 127/156/127 21/157/21
f 115/158/115 127/156/127 93/155/93
f 128/159/128 21/157/21 127/156/127
f 127/156/127 115/158/115 128/159/128
f 21/157/21 128/159/128 19/160/19
f 113/161/113 128/159/128 115/158/115
f 129/162/129 19/160/19 128/159/128
f 128/159/128 113/161/113 129/162/129
f 19/160/19 129/162/129 15/15/15
f 111/163/111 129/162/129 113/161/113
f 130/164/130 15/15/15 129/162/129
f 129/162/129 111/163/111 130/164/130
f 15/15/15 130/164/130 13/13/13
f 109/165/109 130/164/130 111/163/111
f 131/166/131 13/13/13 130/164/130
f 130/164/130 109/165/109 131/166/131
f 13/13/13 131/166/131 9/167/9
f 107/168/107 131/166/131 109/165/109
f 132/169/132 9/167/9 131/166/131
f 107/168/107 132/169/132 131/166/131
f 9/167/9 132/169/132 7/135/7
f 105/131/105 132/169/132 107/168/107
f 7/135/7 132/169/132 119/130/119
f 132/169/132 105/131/105 119/130/119
f 42/42/42 133/170/133 79/79/79
f 43/43/43 134/171/134 41/41/41
f 135/172/135 41/41/41 134/171/134
f 136/173/136 79/79/79 133/170/133
f 134/171/134 137/174/137 135/172/135
f 133/170/133 138/175/138 136/173/136
f 139/176/139 136/177/136 138/178/138
f 138/178/138 140/179/140 139/176/139
f 141/180/141 139/176/139 140/179/140
f 140/179/140 142/181/142 141/180/141
f 143/182/143 141/180/141 142/181/142
f 142/181/142 144/183/144 143/182/143
f 145/184/145 143/182/143 144/183/144
f 144/183/144 146/185/146 145/184/145
f 147/186/147 145/187/145 146/188/146
f 146/188/146 148/189/148 147/186/147
f 149/190/149 147/186/147 148/189/148
f 148/189/148 150/191/150 149/190/149
f 151/192/151 149/190/149 150/191/150
f 150/191/150 152/193/152 151/192/151
f 153/194/153 151/192/151 152/193/152
f 152/193/152 154/195/154 153/194/153
f 155/196/155 153/197/153 154/198/154
f 154/198/154 156/199/156 155/196/155
f 157/200/157 155/196/155 156/199/156
f 156/199/156 158/201/158 157/200/157
f 159/202/159 157/200/157 158/201/158
f 158/201/158 160/203/160 159/202/159
f 137/204/137 159/202/159 160/203/160
f 160/203/160 135/205/135 137/204/137
f 145/206/145 147/207/147 161/208/161
f 161/208/161 162/209/162 145/206/145
f 143/210/143 145/206/145 162/209/162
f 163/211/163 161/208/161 147/207/147
f 147/207/147 149/212/149 163/211/163
f 162/209/162 161/208/161 84/213/84
f 83/214/83 84/213/84 161/208/161
f 161/208/161 163/211/163 83/214/83
f 84/213/84 75/215/75 162/209/162
f 73/216/73 83/214/83 163/211/163
f 164/217/164 162/209/162 75/215/75
f 162/209/162 164/217/164 143/210/143
f 75/215/75 82/218/82 164/217/164
f 141/219/141 143/210/143 164/217/164
f 165/220/165 164/217/164 82/218/82
f 164/217/164 165/220/165 141/219/141
f 82/218/82 70/221/70 165/220/165
f 139/222/139 141/219/141 165/220/165
f 166/223/166 165/220/165 70/221/70
f 165/220/165 166/223/166 139/222/139
f 70/221/70 69/224/69 166/223/166
f 136/225/136 139/222/139 166/223/166
f 167/226/167 166/223/166 69/224/69
f 166/223/166 167/226/167 136/225/136
f 69/224/69 68/227/68 167/226/167
f 79/228/79 136/225/136 167/226/167
f 168/229/168 167/226/167 68/227/68
f 167/226/167 168/229/168 79/228/79
f 68/227/68 67/67/67 168/229/168
f 43/230/43 79/228/79 168/229/168
f 169/231/169 168/229/168 67/67/67
f 168/229/168 169/231/169 43/230/43
f 67/67/67 81/232/81 169/231/169
f 134/233/134 43/230/43 169/231/169
f 170/234/170 169/231/169 81/232/81
f 169/231/169 170/234/170 134/233/134
f 81/232/81 80/235/80 170/234/170
f 137/236/137 134/233/134 170/234/170
f 171/237/171 170/234/170 80/235/80
f 170/234/170 171/237/171 137/236/137
f 80/235/80 65/238/65 171/237/171
f 159/239/159 137/236/137 171/237/171
f 172/240/172 171/237/171 65/238/65
f 171/237/171 172/240/172 159/239/159
f 65/238/65 78/241/78 172/240/172
f 157/242/157 159/239/159 172/240/172
f 173/243/173 172/240/172 78/241/78
f 172/240/172 173/243/173 157/242/157
f 78/241/78 71/71/71 173/243/173
f 155/244/155 157/242/157 173/243/173
f 174/245/174 173/243/173 71/71/71
f 173/243/173 174/245/174 155/244/155
f 71/71/71 72/72/72 174/245/174
f 153/246/153 155/244/155 174/245/174
f 175/247/175 174/245/174 72/72/72
f 174/245/174 175/247/175 153/246/153
f 72/72/72 74/248/74 175/247/175
f 151/249/151 153/246/153 175/247/175
f 176/250/176 175/247/175 74/248/74
f 151/249/151 175/247/175 176/250/176
f 74/248/74 73/216/73 176/250/176
f 149/212/149 151/249/151 176/250/176
f 73/216/73 163/211/163 176/250/176
f 176/250/176 163/211/163 149/212/149
f 160/251/160 91/124/91 135/252/135
f 135/253/135 85/85/85 41/254/41
f 85/85/85 135/253/135 91/91/91
f 41/254/41 87/87/87 42/255/42
f 87/87/87 41/254/41 85/85/85
f 42/255/42 89/89/89 133/256/133
f 89/89/89 42/255/42 87/87/87
f 94/94/94 133/256/133 89/89/89
f 133/256/133 94/94/94 138/257/138
f 96/98/96 138/258/138 94/96/94
f 138/258/138 96/98/96 140/259/140
f 98/100/98 140/259/140 96/98/96
f 140/259/140 98/100/98 142/260/142
f 100/102/100 142/260/142 98/100/98
f 142/260/142 100/102/100 144/261/144
f 102/104/102 144/261/144 100/102/100
f 144/261/144 102/104/102 146/262/146
f 104/108/104 146/263/146 102/106/102
f 146/263/146 104/108/104 148/264/148
f 106/110/106 148/264/148 104/108/104
f 148/264/148 106/110/106 150/265/150
f 108/112/108 150/265/150 106/110/106
f 150/265/150 108/112/108 152/266/152
f 110/114/110 152/266/152 108/112/108
f 152/266/152 110/114/110 154/267/154
f 112/118/112 154/268/154 110/116/110
f 154/268/154 112/118/112 156/269/156
f 114/120/114 156/269/156 112/118/112
f 156/269/156 114/120/114 158/270/158
f 116/122/116 158/270/158 114/120/114
f 158/270/158 116/122/116 160/251/160
f 91/124/91 160/251/160 116/122/116
