# Blender v3.0.1 OBJ File: ''
# www.blender.org
mtllib cordo_wrc.mtl
o seat_seat.002
v -0.754603 0.581317 0.505184
v -0.754603 -1.826362 0.651398
v -0.262733 -1.872738 0.651398
v 0.267242 -1.872738 0.651398
v 0.267242 0.696433 0.505184
v 0.759112 -1.826362 0.651398
v 0.759112 0.581317 0.505184
v -0.262733 0.696433 0.505184
v -0.645059 0.186339 0.524526
v -0.401857 0.509139 0.495631
v -0.401848 0.509134 0.366931
v -0.173848 0.099933 0.366963
v -0.173867 0.099943 0.625863
v 0.184433 0.099943 0.625889
v 0.655541 0.186339 0.524620
v 0.184452 0.099933 0.366989
v 0.412452 0.509134 0.366990
v 0.412443 0.509139 0.495690
v 0.140941 0.566539 0.524368
v -0.130459 0.566539 0.524348
v -0.645043 0.186330 0.302826
v 0.655557 0.186330 0.302920
v -0.522163 -1.231124 0.736285
v -0.555645 -1.168534 0.482980
v -0.551744 -1.212035 0.474082
v -0.544364 -1.275325 0.737485
v -0.003966 -1.282324 0.766924
v -0.003764 -1.231824 0.746522
v -0.002245 -1.163635 0.484020
v -0.519231 -1.109142 0.280280
v -0.000730 -1.105143 0.270918
v -0.000527 -1.141643 0.232719
v -0.524129 -1.148743 0.261981
v 0.569537 -1.231124 0.736664
v 0.591636 -1.275325 0.737867
v 0.594555 -1.212035 0.474365
v 0.605955 -1.168534 0.483164
v 0.555670 -1.109142 0.280358
v 0.560671 -1.148743 0.262060
v -0.522162 -1.314926 0.719188
v -0.530044 -1.255535 0.465286
v -0.002244 -1.260334 0.464424
v -0.003763 -1.318825 0.728825
v -0.502029 -1.192942 0.263185
v -0.000729 -1.192242 0.253221
v 0.569538 -1.314926 0.719567
v 0.563656 -1.255535 0.465464
v 0.538471 -1.192942 0.263360
v -0.597662 -0.590594 0.621836
v -0.622945 -0.541702 0.389532
v -0.647944 -0.585202 0.380732
v -0.606162 -0.634394 0.622337
v -0.400764 -0.639793 0.649252
v -0.400462 -0.590893 0.631250
v -0.398045 -0.536803 0.390649
v -0.631528 -0.495912 0.156630
v -0.395527 -0.492511 0.148047
v -0.395225 -0.530613 0.112349
v -0.639827 -0.536011 0.139131
v -0.203062 -0.590594 0.622165
v -0.194862 -0.634394 0.622567
v -0.148044 -0.585202 0.380868
v -0.173045 -0.541702 0.389765
v -0.159728 -0.495912 0.156664
v -0.151327 -0.536011 0.139166
v -0.597660 -0.674395 0.604839
v -0.622944 -0.628704 0.371836
v -0.398044 -0.633504 0.370952
v -0.400461 -0.677894 0.613554
v -0.631527 -0.579712 0.139633
v -0.395526 -0.579513 0.130350
v -0.203060 -0.674395 0.605168
v -0.173044 -0.628704 0.372068
v -0.159727 -0.579712 0.139667
v -0.492179 -0.631245 0.827611
v -0.503174 -0.613648 0.748710
v -0.515473 -0.652348 0.740810
v -0.496179 -0.669045 0.823012
v -0.391880 -0.670944 0.832220
v -0.391980 -0.630344 0.830919
v -0.392474 -0.609348 0.749618
v -0.506068 -0.599051 0.669309
v -0.393068 -0.596951 0.666517
v -0.393166 -0.633751 0.649519
v -0.510167 -0.635651 0.658710
v -0.291779 -0.631245 0.827626
v -0.287679 -0.669045 0.823027
v -0.269573 -0.652348 0.740828
v -0.281874 -0.613648 0.748726
v -0.280068 -0.599051 0.669325
v -0.275967 -0.635651 0.658727
v -0.492178 -0.705645 0.812414
v -0.503172 -0.691048 0.733013
v -0.392472 -0.695348 0.732121
v -0.391978 -0.707745 0.815221
v -0.506067 -0.673451 0.654112
v -0.393067 -0.674251 0.650820
v -0.291778 -0.705645 0.812429
v -0.281872 -0.691048 0.733029
v -0.280067 -0.673451 0.654128
v 0.285921 -0.630445 0.822367
v 0.273527 -0.613148 0.743566
v 0.261127 -0.652348 0.735666
v 0.281821 -0.668545 0.817869
v 0.386021 -0.665445 0.826976
v 0.386021 -0.624845 0.825775
v 0.385327 -0.603848 0.744474
v 0.269433 -0.598251 0.664165
v 0.384733 -0.591451 0.661373
v 0.384634 -0.628252 0.644375
v 0.265333 -0.635051 0.653466
v 0.486021 -0.620945 0.822381
v 0.490121 -0.658645 0.817883
v 0.509527 -0.641348 0.735684
v 0.497127 -0.603248 0.743582
v 0.500033 -0.588751 0.664181
v 0.504133 -0.625151 0.653483
v 0.285922 -0.704945 0.807270
v 0.273528 -0.690448 0.727869
v 0.385328 -0.689848 0.726977
v 0.386022 -0.702245 0.809978
v 0.269434 -0.672751 0.648968
v 0.384734 -0.668852 0.645676
v 0.486022 -0.695445 0.807284
v 0.497128 -0.680548 0.727885
v 0.500034 -0.663251 0.648984
v 0.195939 -0.590594 0.616994
v 0.163356 -0.541702 0.384589
v 0.138856 -0.585202 0.375689
v 0.187839 -0.634394 0.617395
v 0.384537 -0.639793 0.644309
v 0.384438 -0.590893 0.626307
v 0.383455 -0.536803 0.385605
v 0.146972 -0.495912 0.151486
v 0.382473 -0.492511 0.142903
v 0.382376 -0.530614 0.107205
v 0.138774 -0.536013 0.133987
v 0.572839 -0.590594 0.617021
v 0.581039 -0.634394 0.617423
v 0.628056 -0.585202 0.375725
v 0.603655 -0.541702 0.384621
v 0.618072 -0.495912 0.151520
v 0.626274 -0.536013 0.134022
v 0.195940 -0.674395 0.599897
v 0.163357 -0.628704 0.366893
v 0.383457 -0.633504 0.365909
v 0.384439 -0.677894 0.608610
v 0.146974 -0.579712 0.134390
v 0.382474 -0.579513 0.125207
v 0.572840 -0.674395 0.599924
v 0.603657 -0.628704 0.366924
v 0.618074 -0.579712 0.134424
v 0.759112 -1.826362 0.651398
v 0.739732 -1.758128 0.700137
v 0.759112 0.581317 0.505184
v 0.640910 -1.387715 0.904839
v 0.600285 -1.212258 0.953577
v 0.577421 -0.510424 0.953578
v 0.600285 -0.159508 0.934082
v 0.535271 0.171022 0.776077
v 0.267242 -1.872738 0.651398
v 0.260457 -1.802577 0.700137
v 0.225858 -1.421703 0.904839
v 0.211634 -1.241289 0.979656
v 0.203629 -0.519633 0.979656
v 0.211634 -0.065315 0.960161
v 0.188872 0.274551 0.776077
v 0.267242 0.696433 0.505184
v -0.735221 -1.758128 0.700137
v -0.754603 -1.826362 0.651398
v -0.754603 0.581317 0.505184
v -0.636399 -1.387717 0.904839
v -0.595775 -1.212258 0.953577
v -0.572912 -0.510424 0.953578
v -0.595775 -0.159508 0.934082
v -0.530761 0.171022 0.776077
v -0.255946 -1.802577 0.700137
v -0.262733 -1.872738 0.651398
v -0.221347 -1.421703 0.904839
v -0.207124 -1.241289 0.979656
v -0.199119 -0.519633 0.979656
v -0.207124 -0.065315 0.960161
v -0.184362 0.274551 0.776077
v -0.262733 0.696433 0.505184
v -0.851768 0.423797 0.509458
v -0.889943 0.390981 0.559361
v -0.800640 0.412555 0.561008
v -0.901306 0.297075 0.591449
v -0.825860 0.317062 0.606981
v -0.749728 0.333283 0.590945
v -0.806038 0.398866 0.461384
v -0.732365 0.328513 0.519218
v -0.761814 0.311803 0.441556
v -0.887711 0.380122 0.467809
v -0.832946 0.291833 0.417867
v -0.897417 0.278651 0.435916
v -0.930755 0.280365 0.513786
v -0.833817 0.348778 0.511987
v 0.852656 1.380627 -0.011443
v 0.852656 1.409871 -0.284378
v 0.759112 1.692553 -0.245388
v 0.759112 1.692553 -0.167406
v 0.759112 1.624319 -0.069929
v 0.702751 -2.245512 -0.099174
v 0.852656 -1.875100 -0.196650
v 0.759112 -2.265007 0.154267
v 0.852656 -1.816613 0.027547
v 0.759112 -2.216269 0.212753
v 0.852656 -1.046547 -0.079678
v 0.852656 -1.046547 -0.235641
v 0.759112 -0.744368 -0.235641
v 0.759112 0.191409 -0.245388
v 0.852656 0.581317 -0.235641
v 0.852656 0.591064 -0.050434
v 0.852656 -1.728884 0.183510
v 0.653746 -2.148036 0.573606
v 0.739732 -1.758128 0.700137
v 0.852656 -1.602165 0.261491
v 0.852656 -1.465697 0.300482
v 0.640910 -1.387715 0.904839
v 0.852656 -1.338978 0.290734
v 0.600285 -1.212258 0.953577
v 0.577421 -0.510424 0.953578
v 0.852656 -1.192762 0.222501
v 0.759112 1.682805 0.008053
v 0.759112 1.651522 0.100114
v 0.778693 1.501897 0.099537
v 0.746253 1.629235 0.084177
v 0.707353 1.534241 0.239977
v 0.775877 1.451303 0.194730
v 0.788736 1.473590 0.210668
v 0.720212 1.556527 0.255914
v 0.759112 1.400122 0.358969
v 0.852656 1.185673 0.271239
v 0.852656 1.302646 0.164015
v 0.759112 0.912738 0.436951
v 0.852656 1.019962 0.290735
v 0.852656 0.893242 0.280988
v 0.852656 0.766523 0.232249
v 0.852656 0.639803 0.095781
v 0.600285 -0.159508 0.934082
v 0.535271 0.171022 0.776077
v 0.852656 -1.075790 0.076285
v 0.299993 1.454897 -0.284378
v 0.267242 1.839054 -0.245388
v 0.299993 1.424828 -0.011443
v 0.267242 1.839054 -0.167406
v 0.267242 1.768893 -0.069929
v 0.299993 -1.922852 -0.196650
v 0.299993 -1.862714 0.027547
v 0.247508 -2.303726 -0.099174
v 0.267242 -2.323773 0.154267
v 0.267242 -2.273657 0.212753
v 0.299993 -1.070897 -0.235641
v 0.267242 -0.760185 -0.235641
v 0.299993 -1.070897 -0.079678
v 0.299993 0.602942 -0.235639
v 0.299993 0.612965 -0.050434
v 0.267242 0.202023 -0.245388
v 0.299993 -1.772507 0.183510
v 0.230352 -2.203497 0.622155
v 0.299993 -1.642208 0.261491
v 0.260457 -1.802577 0.700137
v 0.299993 -1.501886 0.300482
v 0.225858 -1.421703 0.904839
v 0.299993 -1.371587 0.290734
v 0.211634 -1.241289 0.979656
v 0.203629 -0.519633 0.979656
v 0.299993 -1.221242 0.222501
v 0.299993 -1.100966 0.076285
v 0.267242 1.829031 0.008053
v 0.267242 1.819008 0.076286
v 0.417022 1.755389 0.103637
v 0.267242 1.668663 0.290735
v 0.653240 1.559247 0.233917
v 0.299993 1.344643 0.164015
v 0.523711 1.637383 0.228155
v 0.267242 1.538364 0.358969
v 0.299993 1.224367 0.271239
v 0.343403 1.425254 0.374731
v 0.267242 1.519058 0.399929
v 0.149603 1.093652 0.434350
v 0.267242 1.037214 0.436951
v 0.299993 1.053977 0.290735
v 0.299993 0.923678 0.280988
v 0.299993 0.793379 0.232249
v 0.299993 0.663080 0.095781
v 0.211634 -0.065315 0.960161
v 0.188872 0.274551 0.776077
v -0.848147 -1.875100 -0.196650
v -0.754603 -2.265007 0.154267
v -0.848147 -1.816613 0.027547
v -0.698240 -2.245512 -0.099174
v -0.754603 -2.216269 0.212753
v -0.848147 -1.046547 -0.235641
v -0.848147 -1.046547 -0.079678
v -0.754603 -0.744368 -0.235641
v -0.848147 0.581317 -0.235641
v -0.754603 0.191409 -0.245388
v -0.848147 0.591064 -0.050434
v -0.848147 -1.728884 0.183510
v -0.848147 -1.602164 0.261491
v -0.649237 -2.148036 0.573605
v -0.848147 -1.465697 0.300482
v -0.848147 -1.338978 0.290734
v -0.735221 -1.758128 0.700137
v -0.636399 -1.387717 0.904839
v -0.595775 -1.212258 0.953577
v -0.848147 -1.192762 0.222501
v -0.848147 -1.075790 0.076285
v -0.754770 1.400122 0.358969
v -0.848316 1.185673 0.271239
v -0.754603 0.912738 0.436951
v -0.848147 1.019962 0.290735
v -0.848147 0.893243 0.280988
v -0.848147 0.766523 0.232249
v -0.848147 0.639803 0.095781
v -0.572912 -0.510424 0.953578
v -0.595775 -0.159508 0.934082
v -0.530761 0.171022 0.776077
v -0.295483 1.454897 -0.284378
v -0.848315 1.409871 -0.284378
v -0.262900 1.839054 -0.245388
v -0.754770 1.692553 -0.245388
v -0.295483 1.424828 -0.011443
v -0.848316 1.380627 -0.011443
v -0.295484 -1.922852 -0.196650
v -0.295484 -1.862714 0.027547
v -0.242999 -2.303726 -0.099174
v -0.262733 -2.323771 0.154267
v -0.262733 -2.273657 0.212753
v -0.295484 -1.070897 -0.235641
v -0.262733 -0.760185 -0.235641
v -0.295484 -1.070897 -0.079678
v -0.295483 0.602942 -0.235639
v -0.295483 0.612965 -0.050434
v -0.262733 0.202023 -0.245388
v -0.295484 -1.772507 0.183510
v -0.225843 -2.203497 0.622155
v -0.295484 -1.642208 0.261491
v -0.255946 -1.802577 0.700137
v -0.295484 -1.501886 0.300482
v -0.221347 -1.421703 0.904839
v -0.295484 -1.371587 0.290734
v -0.207124 -1.241289 0.979656
v -0.199119 -0.519633 0.979656
v -0.295484 -1.221242 0.222501
v -0.295484 -1.100966 0.076285
v -0.295483 1.344643 0.164015
v -0.848316 1.302646 0.164015
v -0.295483 1.224368 0.271239
v -0.262900 1.519058 0.399929
v -0.339061 1.425254 0.374731
v -0.145094 1.093652 0.434350
v -0.262733 1.037214 0.436951
v -0.295483 1.053977 0.290735
v -0.295483 0.923677 0.280988
v -0.295483 0.793379 0.232249
v -0.295483 0.663080 0.095781
v -0.207124 -0.065315 0.960161
v -0.184362 0.274551 0.776077
v -0.262900 1.538364 0.358969
v -0.262900 1.668663 0.290735
v -0.262900 1.819008 0.076286
v -0.262900 1.829031 0.008053
v -0.262900 1.768893 -0.069929
v -0.262900 1.839054 -0.167406
v 0.791551 1.524185 0.115476
v 0.445456 1.681902 0.196423
v 0.404163 1.733102 0.087699
v 0.432597 1.659615 0.180486
v 0.510853 1.615097 0.212216
v 0.666097 1.581534 0.249855
v -0.754939 1.692553 -0.167406
v -0.754939 1.624318 -0.069929
v -0.754939 1.682804 0.008053
v -0.754939 1.651522 0.100114
v -0.742080 1.629235 0.084177
v -0.774520 1.501897 0.099537
v -0.703181 1.534239 0.239977
v -0.771706 1.451303 0.194730
v -0.716040 1.556526 0.255914
v -0.784564 1.473590 0.210668
v -0.412849 1.755389 0.103637
v -0.649067 1.559246 0.233917
v -0.519540 1.637383 0.228155
v -0.787379 1.524184 0.115476
v -0.441283 1.681901 0.196423
v -0.399991 1.733102 0.087699
v -0.428425 1.659614 0.180486
v -0.506681 1.615095 0.212216
v -0.661926 1.581533 0.249855
v 0.799325 0.412555 0.561008
v 0.888628 0.390981 0.559361
v 0.850453 0.423797 0.509458
v 0.824546 0.317062 0.606981
v 0.899991 0.297075 0.591449
v 0.748414 0.333283 0.590945
v 0.804723 0.398866 0.461384
v 0.731051 0.328513 0.519218
v 0.760499 0.311803 0.441556
v 0.886396 0.380122 0.467809
v 0.831631 0.291833 0.417867
v 0.896103 0.278651 0.435916
v 0.929440 0.280365 0.513786
v 0.832502 0.348778 0.511987
v 0.488552 -1.815882 0.848167
v 0.613469 -2.105678 0.837964
v 0.591914 -1.816065 0.813374
v 0.487765 -2.105377 0.865825
v 0.559784 -2.105437 0.794734
v 0.486720 -2.105374 0.827011
v 0.668699 -2.105753 0.667219
v 0.640283 -1.816115 0.682126
v 0.608700 -2.105465 0.698636
v 0.612773 -2.105687 0.571383
v 0.583507 -1.816047 0.569832
v 0.551072 -2.105396 0.569884
v -0.488497 -1.815882 0.848167
v -0.591859 -1.816065 0.813374
v -0.613413 -2.105678 0.837964
v -0.487710 -2.105377 0.865825
v -0.559729 -2.105437 0.794734
v -0.486664 -2.105374 0.827011
v -0.640228 -1.816115 0.682126
v -0.668644 -2.105753 0.667219
v -0.608643 -2.105465 0.698636
v -0.583451 -1.816047 0.569832
v -0.612718 -2.105687 0.571383
v -0.551016 -2.105396 0.569884
v -0.476754 -1.913828 -0.023188
v -0.476755 -0.994193 -0.134098
v -0.338628 -0.994193 -0.134098
v -0.338628 -1.913828 -0.023188
v -0.338628 -1.099277 0.312187
v -0.338628 -1.734364 0.312187
v -0.476754 -1.734364 0.312187
v -0.476755 -1.099277 0.312187
v 0.338531 0.534469 -0.107047
v 0.338531 1.554677 -0.213857
v 0.476657 1.554677 -0.213857
v 0.476657 0.534469 -0.107047
v 0.476657 1.346420 0.308655
v 0.476657 0.740395 0.350514
v 0.338531 0.740395 0.350514
v 0.338531 1.346420 0.308655
v -0.476754 0.534469 -0.107047
v -0.476755 1.554677 -0.213857
v -0.338628 1.554677 -0.213857
v -0.338628 0.534469 -0.107047
v -0.338628 1.346420 0.308655
v -0.338628 0.740395 0.350514
v -0.476754 0.740395 0.350514
v -0.476755 1.346420 0.308655
v 0.338531 -1.913828 -0.023188
v 0.338531 -0.994193 -0.134098
v 0.476657 -0.994193 -0.134098
v 0.476657 -1.913828 -0.023188
v 0.476657 -1.099277 0.312187
v 0.476657 -1.734364 0.312187
v 0.338531 -1.734364 0.312187
v 0.338531 -1.099277 0.312187
v -0.421718 -2.196729 -0.155286
v -0.465128 -2.286729 -0.111875
v -0.483111 -2.286729 -0.155286
v -0.421718 -2.286729 -0.093893
v -0.378306 -2.286728 -0.111875
v -0.360325 -2.286728 -0.155286
v -0.378306 -2.286728 -0.198697
v -0.421718 -2.286729 -0.216678
v -0.465128 -2.286729 -0.198697
v -0.465128 -1.921472 -0.074701
v -0.483111 -1.921472 -0.118112
v -0.421718 -1.921472 -0.056720
v -0.378306 -1.921472 -0.074701
v -0.360324 -1.921472 -0.118112
v -0.378306 -1.921472 -0.161523
v -0.421718 -1.921472 -0.179505
v -0.465128 -1.921472 -0.161523
v 0.757899 0.951611 -0.163715
v 0.168163 0.982811 -0.109676
v 0.168163 0.951611 -0.163715
v 0.757899 0.982811 -0.109676
v 0.168163 1.045210 -0.109676
v 0.757899 1.045210 -0.109676
v 0.168163 1.076410 -0.163715
v 0.757899 1.076410 -0.163715
v 0.168163 1.045210 -0.217754
v 0.757899 1.045210 -0.217754
v 0.168163 0.982811 -0.217754
v 0.757899 0.982811 -0.217754
v 0.149540 0.935699 -0.028076
v 0.149540 0.857389 -0.163715
v 0.149540 1.092322 -0.028076
v 0.149540 1.170633 -0.163715
v 0.149540 1.092322 -0.299353
v 0.149540 0.935699 -0.299353
v -0.151818 0.935699 -0.028076
v -0.151818 0.857389 -0.163715
v -0.151818 1.092322 -0.028076
v -0.151818 1.170633 -0.163715
v -0.151818 1.092322 -0.299353
v -0.151818 0.935699 -0.299353
v -0.170441 0.982811 -0.109676
v -0.170441 0.951611 -0.163715
v -0.170441 1.045210 -0.109676
v -0.170441 1.076410 -0.163715
v -0.170441 1.045210 -0.217754
v -0.170441 0.982811 -0.217754
v -0.760177 0.982811 -0.109676
v -0.760177 0.951611 -0.163715
v -0.760177 1.045210 -0.109676
v -0.760177 1.076410 -0.163715
v -0.760177 1.045210 -0.217754
v -0.760177 0.982811 -0.217754
v -0.073688 -1.471660 -0.133406
v -0.037196 -1.175876 -0.205416
v -0.073688 -1.188477 -0.267354
v -0.037196 -1.445951 -0.075663
v 0.035789 -1.175876 -0.205416
v 0.035789 -1.445951 -0.075663
v 0.072283 -1.188477 -0.267354
v 0.072283 -1.471660 -0.133406
v 0.035789 -1.201079 -0.329292
v 0.035789 -1.497369 -0.191149
v -0.037196 -1.201079 -0.329292
v -0.037196 -1.497369 -0.191149
v -0.037196 0.686058 -0.205528
v -0.073688 0.699199 -0.267354
v 0.035790 0.686058 -0.205528
v 0.072283 0.699199 -0.267354
v 0.035790 0.712341 -0.329179
v -0.037196 0.712341 -0.329179
v -0.037196 0.966100 -0.079513
v -0.073688 0.999125 -0.133406
v 0.035790 0.966100 -0.079513
v 0.072283 0.999125 -0.133406
v 0.035789 1.032152 -0.187298
v -0.037196 1.032152 -0.187298
v 0.757899 -1.532060 -0.163716
v 0.168163 -1.500859 -0.109676
v 0.168163 -1.532060 -0.163716
v 0.757899 -1.500859 -0.109676
v 0.168163 -1.438460 -0.109676
v 0.757899 -1.438460 -0.109676
v 0.168163 -1.407260 -0.163716
v 0.757899 -1.407260 -0.163716
v 0.168163 -1.438460 -0.217755
v 0.757899 -1.438460 -0.217755
v 0.168163 -1.500859 -0.217755
v 0.757899 -1.500859 -0.217755
v 0.149540 -1.547970 -0.028076
v 0.149540 -1.626282 -0.163716
v 0.149540 -1.391349 -0.028076
v 0.149540 -1.313038 -0.163716
v 0.149540 -1.391348 -0.299355
v 0.149540 -1.547970 -0.299355
v -0.151818 -1.547970 -0.028076
v -0.151818 -1.626282 -0.163716
v -0.151818 -1.391349 -0.028076
v -0.151818 -1.313038 -0.163716
v -0.151818 -1.391348 -0.299355
v -0.151818 -1.547970 -0.299355
v -0.170441 -1.500859 -0.109676
v -0.170441 -1.532060 -0.163716
v -0.170441 -1.438460 -0.109676
v -0.170441 -1.407260 -0.163716
v -0.170441 -1.438460 -0.217755
v -0.170441 -1.500859 -0.217755
v -0.760177 -1.500859 -0.109676
v -0.760177 -1.532060 -0.163716
v -0.760177 -1.438460 -0.109676
v -0.760177 -1.407260 -0.163716
v -0.760177 -1.438460 -0.217755
v -0.760177 -1.500859 -0.217755
v -0.754603 0.581317 0.505184
v -0.754603 -1.826362 0.651398
v 0.759112 -1.826362 0.651398
v 0.759112 0.581317 0.505184
v 0.852656 -1.338978 0.290734
v -0.848147 -1.338978 0.290734
v -0.262733 -1.872738 0.651398
v 0.267242 -1.872738 0.651398
v 0.260457 -1.802577 0.700137
v -0.255946 -1.802577 0.700137
vt 0.003732 0.005713
vt 0.003732 0.005713
vt 0.004999 0.006966
vt 0.003732 0.005713
vt 0.005124 0.006970
vt 0.005030 0.009336
vt 0.004980 0.008091
vt 0.006880 0.008534
vt 0.707010 0.275224
vt 0.753837 0.262175
vt 0.754009 0.243563
vt 0.798470 0.232818
vt 0.798470 0.239866
vt 0.780422 0.238874
vt 0.812193 0.239866
vt 0.830241 0.238874
vt 0.812193 0.232818
vt 0.755377 0.243563
vt 0.755206 0.262175
vt 0.708379 0.275224
vt 0.731125 0.225540
vt 0.738620 0.230617
vt 0.740628 0.220780
vt 0.729802 0.214208
vt 0.729802 0.219875
vt 0.731125 0.208541
vt 0.740628 0.213301
vt 0.707287 0.243155
vt 0.780422 0.232840
vt 0.830241 0.232840
vt 0.708656 0.243155
vt 0.738620 0.203465
vt 0.407715 0.800369
vt 0.407715 0.818186
vt 0.441894 0.818186
vt 0.407715 0.836004
vt 0.441894 0.836004
vt 0.441894 0.818186
vt 0.441894 0.836004
vt 0.441005 0.818190
vt 0.407715 0.800369
vt 0.407715 0.818186
vt 0.441894 0.818186
vt 0.407715 0.836004
vt 0.441894 0.836004
vt 0.407715 0.800369
vt 0.407715 0.818186
vt 0.407715 0.836004
vt 0.441894 0.836004
vt 0.441894 0.818186
vt 0.476072 0.836004
vt 0.476072 0.818186
vt 0.407715 0.800369
vt 0.407715 0.818186
vt 0.407715 0.836004
vt 0.441894 0.836004
vt 0.476072 0.800369
vt 0.441894 0.800369
vt 0.476072 0.800369
vt 0.441894 0.800369
vt 0.407715 0.800369
vt 0.407715 0.818186
vt 0.441094 0.818225
vt 0.476072 0.836004
vt 0.476072 0.818186
vt 0.476072 0.800369
vt 0.441894 0.800369
vt 0.407715 0.836004
vt 0.441894 0.836004
vt 0.476072 0.836004
vt 0.476072 0.818186
vt 0.476072 0.800369
vt 0.441894 0.800369
vt 0.441894 0.800369
vt 0.476072 0.836004
vt 0.476072 0.818186
vt 0.476072 0.836004
vt 0.476072 0.818186
vt 0.476072 0.800369
vt 0.441894 0.800369
vt 0.407810 0.799340
vt 0.407810 0.817623
vt 0.440394 0.817623
vt 0.407810 0.835907
vt 0.440394 0.835907
vt 0.440394 0.817623
vt 0.440394 0.835907
vt 0.437240 0.817627
vt 0.407810 0.799340
vt 0.407810 0.817623
vt 0.440394 0.817623
vt 0.407810 0.835907
vt 0.440394 0.835907
vt 0.407810 0.799340
vt 0.407810 0.817623
vt 0.407810 0.835907
vt 0.440394 0.835907
vt 0.440394 0.817623
vt 0.472978 0.835907
vt 0.472978 0.817624
vt 0.407810 0.799340
vt 0.407810 0.817623
vt 0.407810 0.835907
vt 0.440394 0.835907
vt 0.472978 0.799340
vt 0.440394 0.799340
vt 0.472978 0.799340
vt 0.440394 0.799340
vt 0.407810 0.799340
vt 0.407810 0.817623
vt 0.437552 0.817795
vt 0.472978 0.835907
vt 0.472978 0.817624
vt 0.472978 0.799340
vt 0.440394 0.799340
vt 0.407810 0.835907
vt 0.440394 0.835907
vt 0.472978 0.835907
vt 0.472978 0.817624
vt 0.472978 0.799340
vt 0.440394 0.799340
vt 0.440394 0.799340
vt 0.472978 0.835907
vt 0.472978 0.817624
vt 0.472978 0.835907
vt 0.472978 0.817624
vt 0.472978 0.799340
vt 0.440394 0.799340
vt 0.407810 0.799340
vt 0.407810 0.817623
vt 0.440394 0.817623
vt 0.407810 0.835907
vt 0.440394 0.835907
vt 0.440394 0.817623
vt 0.440394 0.835907
vt 0.438191 0.817623
vt 0.407810 0.799340
vt 0.407810 0.817623
vt 0.440394 0.817623
vt 0.407810 0.835907
vt 0.440394 0.835907
vt 0.440394 0.799340
vt 0.407810 0.799340
vt 0.407810 0.817623
vt 0.407810 0.835907
vt 0.440394 0.835907
vt 0.440394 0.817623
vt 0.472978 0.835907
vt 0.472978 0.817624
vt 0.407810 0.799340
vt 0.407810 0.817623
vt 0.407810 0.835907
vt 0.440394 0.835907
vt 0.472978 0.799340
vt 0.472978 0.799340
vt 0.440394 0.799340
vt 0.407810 0.799340
vt 0.407810 0.817623
vt 0.438413 0.817748
vt 0.472978 0.835907
vt 0.472978 0.817624
vt 0.472978 0.799340
vt 0.440394 0.799340
vt 0.407810 0.835907
vt 0.440394 0.835907
vt 0.472978 0.835907
vt 0.472978 0.817624
vt 0.472978 0.799340
vt 0.440394 0.799340
vt 0.440394 0.799340
vt 0.472978 0.835907
vt 0.472978 0.817624
vt 0.472978 0.835907
vt 0.472978 0.817624
vt 0.472978 0.799340
vt 0.440394 0.799340
vt 0.408413 0.799990
vt 0.408413 0.816498
vt 0.434019 0.816498
vt 0.408413 0.833005
vt 0.434019 0.833005
vt 0.434019 0.816498
vt 0.434019 0.833005
vt 0.432012 0.816485
vt 0.408413 0.799990
vt 0.408413 0.816498
vt 0.434019 0.816498
vt 0.408413 0.833005
vt 0.434019 0.833005
vt 0.434019 0.799990
vt 0.408413 0.799990
vt 0.408413 0.816498
vt 0.408413 0.833005
vt 0.434019 0.833005
vt 0.434019 0.816498
vt 0.459626 0.833006
vt 0.459626 0.816498
vt 0.408413 0.799990
vt 0.408413 0.816498
vt 0.408413 0.833005
vt 0.434019 0.833005
vt 0.459626 0.799990
vt 0.459626 0.799990
vt 0.434019 0.799990
vt 0.408413 0.799990
vt 0.408413 0.816498
vt 0.432211 0.816643
vt 0.459626 0.833006
vt 0.459626 0.816498
vt 0.459626 0.799990
vt 0.434019 0.799990
vt 0.408413 0.833005
vt 0.434019 0.833005
vt 0.459626 0.833006
vt 0.459626 0.816498
vt 0.459626 0.799990
vt 0.434019 0.799990
vt 0.434019 0.799990
vt 0.459626 0.833006
vt 0.459626 0.816498
vt 0.459626 0.833006
vt 0.459626 0.816498
vt 0.459626 0.799990
vt 0.434019 0.799990
vt 0.408413 0.799990
vt 0.408413 0.816498
vt 0.434019 0.816498
vt 0.408413 0.833005
vt 0.434019 0.833005
vt 0.434019 0.816498
vt 0.434019 0.833005
vt 0.430998 0.816498
vt 0.408413 0.799990
vt 0.408413 0.816498
vt 0.434019 0.816498
vt 0.408413 0.833005
vt 0.434019 0.833005
vt 0.434019 0.799990
vt 0.408413 0.799990
vt 0.408413 0.816498
vt 0.408413 0.833005
vt 0.434019 0.833005
vt 0.434019 0.816498
vt 0.459626 0.833006
vt 0.459626 0.816498
vt 0.408413 0.799990
vt 0.408413 0.816498
vt 0.408413 0.833005
vt 0.434019 0.833005
vt 0.459626 0.799990
vt 0.459626 0.799990
vt 0.434019 0.799990
vt 0.408413 0.799990
vt 0.408413 0.816498
vt 0.431300 0.816693
vt 0.459626 0.833006
vt 0.459626 0.816498
vt 0.459626 0.799990
vt 0.434019 0.799990
vt 0.408413 0.833005
vt 0.434019 0.833005
vt 0.459626 0.833006
vt 0.459626 0.816498
vt 0.459626 0.799990
vt 0.434019 0.799990
vt 0.434019 0.799990
vt 0.459626 0.833006
vt 0.459626 0.816498
vt 0.459626 0.833006
vt 0.459626 0.816498
vt 0.459626 0.799990
vt 0.434019 0.799990
vt 0.002417 0.236557
vt 0.020222 0.250087
vt 0.633449 0.200783
vt 0.116908 0.307797
vt 0.162737 0.322407
vt 0.346592 0.324039
vt 0.438647 0.318225
vt 0.057336 0.935216
vt 0.006335 0.849860
vt 0.033576 0.985955
vt 0.950116 0.878546
vt 0.857936 0.853856
vt 0.856526 0.870589
vt 0.954058 0.862311
vt 0.930615 0.960991
vt 0.849657 0.954978
vt 0.922868 0.996512
vt 0.846837 0.993047
vt 0.370778 0.809151
vt 0.444917 0.957285
vt 0.446539 0.811018
vt 0.366144 0.951401
vt 0.366144 0.738027
vt 0.444917 0.718935
vt 0.127943 0.994172
vt 0.136262 0.935216
vt 0.118405 0.849860
vt 0.979424 0.571005
vt 0.997229 0.557475
vt 0.366197 0.521701
vt 0.882738 0.628715
vt 0.836909 0.643325
vt 0.653054 0.644958
vt 0.560999 0.639143
vt 0.300227 0.935216
vt 0.323988 0.985955
vt 0.351229 0.849860
vt 0.755642 0.870560
vt 0.754244 0.853828
vt 0.662047 0.878448
vt 0.658117 0.862209
vt 0.762449 0.954952
vt 0.681487 0.960907
vt 0.765243 0.993024
vt 0.689209 0.996434
vt 0.528169 0.811018
vt 0.529792 0.957285
vt 0.603931 0.809151
vt 0.608565 0.951401
vt 0.529792 0.718935
vt 0.608565 0.738027
vt 0.221301 0.935216
vt 0.229620 0.994172
vt 0.239158 0.849860
vt 0.001019 0.002613
vt 0.000000 0.000000
vt 0.000035 0.001327
vt 0.004537 0.003951
vt 0.002268 0.004991
vt 0.006071 0.003308
vt 0.000000 0.000000
vt 0.000000 0.000000
vt 0.002417 0.236557
vt 0.633449 0.200783
vt 0.130549 0.139560
vt 0.997229 0.557475
vt 0.869097 0.460478
vt 0.366197 0.521701
vt 0.857936 0.853856
vt 0.755642 0.870560
vt 0.856526 0.870589
vt 0.754244 0.853828
vt 0.437679 0.633249
vt 0.429552 0.643873
vt 0.448563 0.644224
vt 0.427133 0.650704
vt 0.443194 0.654011
vt 0.459402 0.650597
vt 0.447414 0.623015
vt 0.452003 0.635779
vt 0.456365 0.645965
vt 0.456111 0.638374
vt 0.453238 0.623177
vt 0.458628 0.625960
vt 0.430027 0.624383
vt 0.456829 0.618794
vt 0.441686 0.613751
vt 0.427961 0.617593
vt 0.420864 0.634171
vt 0.413498 0.624674
vt 0.410210 0.645811
vt 0.393388 0.626903
vt 0.410103 0.603346
vt 0.394919 0.598481
vt 0.378478 0.606731
vt 0.373464 0.626659
vt 0.377284 0.644721
vt 0.393769 0.654061
vt 0.011463 0.573515
vt 0.011463 0.522145
vt 0.029070 0.529483
vt 0.029070 0.544161
vt 0.029070 0.562507
vt 0.906954 0.683814
vt 0.964666 0.678302
vt 0.907308 0.717775
vt 0.969218 0.710587
vt 0.909906 0.725499
vt 0.207248 0.044263
vt 0.207273 0.004039
vt 0.286128 0.008654
vt 0.531380 0.006892
vt 0.633906 0.005348
vt 0.636431 0.053122
vt 0.976994 0.735998
vt 0.899393 0.776571
vt 0.944715 0.797988
vt 0.002417 0.236557
vt 0.633449 0.200783
vt 0.020222 0.250087
vt 0.990988 0.752878
vt 0.061577 0.131806
vt 0.097336 0.141972
vt 0.116908 0.307797
vt 0.130549 0.139560
vt 0.162737 0.322407
vt 0.346592 0.324039
vt 0.168880 0.122079
vt 0.029070 0.577184
vt 0.028129 0.588795
vt 0.024420 0.588686
vt 0.030564 0.585795
vt 0.038811 0.620836
vt 0.025914 0.612320
vt 0.023494 0.615320
vt 0.036391 0.623836
vt 0.029070 0.636489
vt 0.011463 0.626720
vt 0.011463 0.606539
vt 0.015682 0.636332
vt 0.748784 0.141456
vt 0.792216 0.136561
vt 0.720319 0.183452
vt 0.715574 0.138841
vt 0.682371 0.126169
vt 0.649182 0.090871
vt 0.438647 0.318225
vt 0.057336 0.935216
vt 0.033576 0.985955
vt 0.006335 0.849860
vt 0.199559 0.084464
vt 0.290035 0.441819
vt 0.291242 0.407305
vt 0.306487 0.405031
vt 0.301163 0.435692
vt 0.279302 0.441108
vt 0.280420 0.406945
vt 0.121647 0.529483
vt 0.121647 0.544161
vt 0.121647 0.562507
vt 0.105804 0.441820
vt 0.104382 0.407209
vt 0.113567 0.406930
vt 0.114896 0.441244
vt 0.090803 0.432097
vt 0.088814 0.403734
vt 0.843283 0.714588
vt 0.842144 0.679273
vt 0.843488 0.725562
vt 0.164417 0.440756
vt 0.163632 0.406751
vt 0.175706 0.404808
vt 0.176266 0.435084
vt 0.158289 0.441092
vt 0.157566 0.406903
vt 0.228053 0.440788
vt 0.228763 0.406801
vt 0.235978 0.406957
vt 0.235329 0.441119
vt 0.212794 0.435117
vt 0.213179 0.404842
vt 0.120619 0.406824
vt 0.121922 0.441018
vt 0.838969 0.783487
vt 0.954058 0.862311
vt 0.857936 0.853856
vt 0.850604 0.789007
vt 0.933974 0.797622
vt 0.126548 0.406859
vt 0.127770 0.441074
vt 0.950116 0.878546
vt 0.856526 0.870589
vt 0.132248 0.406920
vt 0.133349 0.441186
vt 0.930615 0.960991
vt 0.849657 0.954978
vt 0.137378 0.406981
vt 0.138346 0.441299
vt 0.922868 0.996512
vt 0.846837 0.993047
vt 0.370778 0.809151
vt 0.446539 0.811018
vt 0.444917 0.957285
vt 0.366144 0.951401
vt 0.143879 0.407033
vt 0.144689 0.441390
vt 0.151336 0.407014
vt 0.152052 0.441335
vt 0.121647 0.577184
vt 0.121647 0.587883
vt 0.096657 0.593031
vt 0.121647 0.630389
vt 0.048996 0.619695
vt 0.271783 0.440879
vt 0.272915 0.406829
vt 0.073375 0.618611
vt 0.121647 0.636489
vt 0.265559 0.440900
vt 0.266665 0.406840
vt 0.101282 0.668905
vt 0.118898 0.647207
vt 0.146109 0.745605
vt 0.118898 0.758660
vt 0.005127 0.787452
vt 0.005127 0.674718
vt 0.259015 0.441072
vt 0.259992 0.406927
vt 0.254025 0.441195
vt 0.254888 0.406988
vt 0.118898 0.837484
vt 0.005127 0.846310
vt 0.248694 0.441291
vt 0.249436 0.407036
vt 0.241381 0.441279
vt 0.242031 0.407032
vt 0.366144 0.738027
vt 0.444917 0.718935
vt 0.136262 0.935216
vt 0.127943 0.994172
vt 0.118405 0.849860
vt 0.648578 0.678302
vt 0.706626 0.717400
vt 0.644797 0.710748
vt 0.706842 0.683396
vt 0.704070 0.725147
vt 0.792373 0.324958
vt 0.792398 0.365181
vt 0.713518 0.329572
vt 0.365740 0.326266
vt 0.468266 0.327811
vt 0.363214 0.374040
vt 0.637723 0.735938
vt 0.624432 0.752457
vt 0.669968 0.796732
vt 0.714439 0.775784
vt 0.997229 0.557475
vt 0.902310 0.462890
vt 0.938069 0.452724
vt 0.869097 0.460478
vt 0.979424 0.571005
vt 0.366197 0.521701
vt 0.882738 0.628715
vt 0.836909 0.643325
vt 0.830766 0.442998
vt 0.800087 0.405382
vt 0.331154 0.636489
vt 0.348761 0.626720
vt 0.344511 0.636332
vt 0.207429 0.457472
vt 0.250862 0.462374
vt 0.279327 0.504370
vt 0.284071 0.459759
vt 0.317275 0.447087
vt 0.350464 0.411789
vt 0.653054 0.644958
vt 0.560999 0.639143
vt 0.300227 0.935216
vt 0.351229 0.849860
vt 0.323988 0.985955
vt 0.291252 0.369924
vt 0.290052 0.335400
vt 0.306496 0.372188
vt 0.301178 0.341531
vt 0.280429 0.370273
vt 0.279322 0.336103
vt 0.104384 0.369754
vt 0.105829 0.335134
vt 0.113573 0.370043
vt 0.114923 0.335723
vt 0.088808 0.373202
vt 0.090817 0.344835
vt 0.770506 0.714430
vt 0.771821 0.679109
vt 0.770258 0.725390
vt 0.163643 0.370295
vt 0.164451 0.336291
vt 0.175716 0.372261
vt 0.176297 0.341985
vt 0.157577 0.370133
vt 0.158323 0.335944
vt 0.228775 0.370350
vt 0.228085 0.336366
vt 0.235989 0.370205
vt 0.235361 0.336046
vt 0.213190 0.372287
vt 0.212825 0.342013
vt 0.120627 0.370157
vt 0.121950 0.335959
vt 0.774382 0.783186
vt 0.754244 0.853828
vt 0.658117 0.862209
vt 0.761628 0.788986
vt 0.678251 0.797536
vt 0.126557 0.370131
vt 0.127800 0.335912
vt 0.755642 0.870560
vt 0.662047 0.878448
vt 0.132258 0.370078
vt 0.133380 0.335809
vt 0.762449 0.954952
vt 0.681487 0.960907
vt 0.137388 0.370024
vt 0.138377 0.335704
vt 0.765243 0.993024
vt 0.689209 0.996434
vt 0.528169 0.811018
vt 0.603931 0.809151
vt 0.529792 0.957285
vt 0.608565 0.951401
vt 0.143889 0.369982
vt 0.144722 0.335623
vt 0.151347 0.370012
vt 0.152086 0.335690
vt 0.272924 0.370381
vt 0.271806 0.336325
vt 0.266674 0.370363
vt 0.265583 0.336298
vt 0.241522 0.647207
vt 0.259139 0.668905
vt 0.214273 0.745605
vt 0.355255 0.787452
vt 0.241484 0.758660
vt 0.355294 0.674718
vt 0.260002 0.370269
vt 0.259041 0.336128
vt 0.254898 0.370201
vt 0.254053 0.335998
vt 0.241484 0.837484
vt 0.355255 0.846310
vt 0.249446 0.370145
vt 0.248723 0.335894
vt 0.242041 0.370139
vt 0.241412 0.335896
vt 0.529792 0.718935
vt 0.608565 0.738027
vt 0.221301 0.935216
vt 0.229620 0.994172
vt 0.239158 0.849860
vt 0.238578 0.636489
vt 0.238578 0.630389
vt 0.238578 0.587883
vt 0.238578 0.577184
vt 0.238578 0.562507
vt 0.238578 0.544161
vt 0.238578 0.529483
vt 0.021985 0.595259
vt 0.089934 0.612639
vt 0.097705 0.590031
vt 0.093726 0.609639
vt 0.075795 0.615611
vt 0.046576 0.622695
vt 0.348761 0.522145
vt 0.348761 0.573515
vt 0.331154 0.529483
vt 0.331186 0.544161
vt 0.331186 0.562507
vt 0.331186 0.577184
vt 0.332127 0.588795
vt 0.329692 0.585795
vt 0.335835 0.588686
vt 0.321445 0.620836
vt 0.334342 0.612320
vt 0.323865 0.623836
vt 0.336762 0.615320
vt 0.348761 0.606539
vt 0.266800 0.593031
vt 0.311260 0.619695
vt 0.286881 0.618611
vt 0.338270 0.595259
vt 0.272152 0.612639
vt 0.264380 0.590031
vt 0.269731 0.609639
vt 0.284460 0.615611
vt 0.313680 0.622695
vt 0.337249 0.599630
vt 0.336857 0.613461
vt 0.337155 0.615051
vt 0.118898 0.642742
vt 0.241522 0.642742
vt 0.437096 0.641686
vt 0.458103 0.641298
vt 0.449123 0.629559
vt 0.443029 0.652500
vt 0.460777 0.648847
vt 0.425120 0.648728
vt 0.438366 0.618250
vt 0.421035 0.631855
vt 0.427963 0.613586
vt 0.457578 0.619761
vt 0.444696 0.608013
vt 0.459862 0.612259
vt 0.467704 0.630577
vt 0.392936 0.624977
vt 0.409838 0.606422
vt 0.413142 0.627164
vt 0.409731 0.648095
vt 0.394474 0.652869
vt 0.377954 0.644772
vt 0.372915 0.625216
vt 0.376754 0.607491
vt 0.393318 0.598325
vt 0.559631 0.711892
vt 0.580153 0.668541
vt 0.576612 0.711865
vt 0.559502 0.668586
vt 0.571333 0.668577
vt 0.559330 0.668586
vt 0.589226 0.668530
vt 0.584558 0.711857
vt 0.579369 0.668573
vt 0.580039 0.668539
vt 0.575231 0.711867
vt 0.569902 0.668583
vt 0.399118 0.711892
vt 0.382138 0.711865
vt 0.378597 0.668541
vt 0.399248 0.668586
vt 0.387416 0.668577
vt 0.399419 0.668586
vt 0.374191 0.711857
vt 0.369523 0.668530
vt 0.379380 0.668573
vt 0.383519 0.711867
vt 0.378711 0.668539
vt 0.388848 0.668583
vt 0.490995 0.657425
vt 0.491107 0.617548
vt 0.496538 0.617566
vt 0.496426 0.657443
vt 0.502343 0.654786
vt 0.502329 0.618365
vt 0.519258 0.624562
vt 0.516278 0.649354
vt 0.490813 0.617130
vt 0.490799 0.653551
vt 0.476865 0.648119
vt 0.473884 0.623327
vt 0.501798 0.617130
vt 0.501922 0.657461
vt 0.496491 0.657478
vt 0.496367 0.617147
vt 0.502611 0.653878
vt 0.502611 0.617834
vt 0.520109 0.627024
vt 0.519355 0.648356
vt 0.491412 0.617185
vt 0.491412 0.651440
vt 0.475499 0.646192
vt 0.474782 0.625919
vt 0.490813 0.657461
vt 0.490937 0.617130
vt 0.496367 0.617147
vt 0.496244 0.657478
vt 0.502397 0.652620
vt 0.502396 0.620944
vt 0.517774 0.629020
vt 0.517111 0.647767
vt 0.490734 0.617845
vt 0.490734 0.652015
vt 0.474860 0.646780
vt 0.474145 0.626557
vt 0.501969 0.617548
vt 0.502080 0.657425
vt 0.496649 0.657443
vt 0.496538 0.617566
vt 0.502209 0.654477
vt 0.502195 0.618056
vt 0.519124 0.624253
vt 0.516143 0.649045
vt 0.491210 0.617130
vt 0.491196 0.653551
vt 0.477262 0.648119
vt 0.474281 0.623327
vt 0.381169 0.576803
vt 0.375672 0.590074
vt 0.367897 0.582300
vt 0.386666 0.590074
vt 0.394440 0.582300
vt 0.394440 0.571305
vt 0.386666 0.563531
vt 0.375671 0.563531
vt 0.367897 0.571305
vt 0.365980 0.651061
vt 0.355158 0.564110
vt 0.366103 0.565154
vt 0.355035 0.650017
vt 0.357436 0.564589
vt 0.365330 0.650913
vt 0.357533 0.650496
vt 0.365233 0.565006
vt 0.355960 0.564427
vt 0.367043 0.649895
vt 0.356057 0.650333
vt 0.366946 0.563988
vt 0.358832 0.564568
vt 0.366668 0.649437
vt 0.358929 0.650474
vt 0.366571 0.563531
vt 0.367897 0.649437
vt 0.356830 0.564575
vt 0.367775 0.563531
vt 0.356952 0.650481
vt 0.366530 0.649916
vt 0.358830 0.564427
vt 0.366627 0.564009
vt 0.358733 0.650333
vt 0.368006 0.650913
vt 0.357117 0.564568
vt 0.368103 0.565006
vt 0.357020 0.650475
vt 0.365134 0.649895
vt 0.357492 0.562951
vt 0.365231 0.563988
vt 0.357395 0.648858
vt 0.007845 0.323575
vt 0.046559 0.321527
vt 0.046559 0.323575
vt 0.007845 0.321527
vt 0.046559 0.317431
vt 0.007845 0.317431
vt 0.046559 0.315383
vt 0.007845 0.315383
vt 0.046559 0.317431
vt 0.007845 0.317431
vt 0.046559 0.321527
vt 0.007845 0.321527
vt 0.047781 0.324620
vt 0.047781 0.329761
vt 0.047781 0.314338
vt 0.047781 0.309198
vt 0.047781 0.314338
vt 0.047781 0.324620
vt 0.067564 0.324620
vt 0.067564 0.329761
vt 0.067564 0.314338
vt 0.067564 0.309198
vt 0.067564 0.314338
vt 0.067564 0.324620
vt 0.068787 0.321527
vt 0.068787 0.323575
vt 0.068787 0.317431
vt 0.068787 0.315383
vt 0.068787 0.317431
vt 0.068787 0.321527
vt 0.107500 0.321527
vt 0.107500 0.323575
vt 0.107500 0.317431
vt 0.107500 0.315383
vt 0.107500 0.317431
vt 0.107500 0.321527
vt 0.062435 0.482652
vt 0.060040 0.463235
vt 0.062435 0.464062
vt 0.060040 0.480964
vt 0.055249 0.463235
vt 0.055249 0.480964
vt 0.052853 0.464062
vt 0.052853 0.482652
vt 0.055249 0.464889
vt 0.055249 0.484340
vt 0.060040 0.464889
vt 0.060040 0.484340
vt 0.060040 0.341008
vt 0.062435 0.340145
vt 0.055248 0.341008
vt 0.052853 0.340145
vt 0.055248 0.339282
vt 0.060040 0.339282
vt 0.060040 0.322624
vt 0.062435 0.320456
vt 0.055248 0.322624
vt 0.052853 0.320456
vt 0.055249 0.318288
vt 0.060040 0.318288
vt 0.007845 0.486617
vt 0.046559 0.484569
vt 0.046559 0.486617
vt 0.007845 0.484569
vt 0.046559 0.480472
vt 0.007845 0.480472
vt 0.046559 0.478424
vt 0.007845 0.478424
vt 0.046559 0.480472
vt 0.007845 0.480472
vt 0.046559 0.484569
vt 0.007845 0.484569
vt 0.047781 0.487661
vt 0.047781 0.492802
vt 0.047781 0.477380
vt 0.047781 0.472239
vt 0.047781 0.477380
vt 0.047781 0.487661
vt 0.067564 0.487661
vt 0.067564 0.492802
vt 0.067564 0.477380
vt 0.067564 0.472239
vt 0.067564 0.477380
vt 0.067564 0.487661
vt 0.068787 0.484569
vt 0.068787 0.486617
vt 0.068787 0.480472
vt 0.068787 0.478424
vt 0.068787 0.480472
vt 0.068787 0.484569
vt 0.107500 0.484569
vt 0.107500 0.486617
vt 0.107500 0.480472
vt 0.107500 0.478424
vt 0.107500 0.480472
vt 0.107500 0.484569
vn 0.5753 -0.7865 0.2246
vn -0.8359 -0.1774 -0.5195
vn 0.1110 -0.9709 0.2122
vn 0.1162 -0.9932 -0.0000
vn 0.0000 0.0000 0.0000
vn 0.1602 0.9871 0.0000
vn -0.0062 -0.0699 0.9975
vn -0.1025 -0.8582 -0.5030
vn 0.8359 -0.1774 -0.5195
vn 0.7224 0.1664 0.6712
vn -0.8073 -0.2864 0.5160
vn -0.5218 0.4666 0.7141
vn -0.7987 0.6017 -0.0001
vn -0.0942 -0.9956 0.0000
vn -0.1300 -0.6219 0.7722
vn 0.1299 -0.6219 0.7722
vn 0.8072 -0.2865 0.5161
vn 0.0942 -0.9955 0.0000
vn 0.7988 0.6016 0.0000
vn 0.5218 0.4666 0.7142
vn 0.0656 0.2180 0.9737
vn -0.0657 0.2180 0.9737
vn -0.9265 -0.3762 -0.0001
vn 0.9265 -0.3763 0.0001
vn -0.4220 0.6204 0.6611
vn -0.7738 0.6167 0.1444
vn -0.9673 -0.2337 -0.0982
vn -0.7553 -0.1394 0.6404
vn -0.0016 -0.2100 0.9777
vn -0.0008 0.7487 0.6629
vn -0.0003 0.9661 0.2583
vn -0.5206 0.7811 -0.3447
vn -0.0004 0.9684 -0.2495
vn -0.0007 0.2100 -0.9777
vn -0.6855 0.0504 -0.7263
vn 0.4256 0.6192 0.6599
vn 0.7583 -0.1386 0.6370
vn 0.9222 -0.3563 -0.1501
vn 0.8270 0.5527 0.1028
vn 0.5085 0.7853 -0.3532
vn 0.6756 0.0530 -0.7353
vn -0.4234 -0.8430 0.3319
vn -0.5450 -0.8020 -0.2444
vn -0.0002 -0.9650 -0.2621
vn -0.0007 -0.9617 0.2740
vn -0.3935 -0.6003 -0.6963
vn -0.0003 -0.7297 -0.6838
vn 0.4276 -0.8418 0.3293
vn 0.4711 -0.8423 -0.2618
vn 0.3840 -0.6008 -0.7011
vn -0.4996 0.5785 0.6448
vn -0.5204 0.8285 0.2067
vn -0.9976 -0.0139 0.0683
vn -0.6932 -0.1438 0.7063
vn -0.0010 -0.1988 0.9800
vn -0.0005 0.7449 0.6672
vn 0.0017 0.9801 0.1983
vn -0.5409 0.7684 -0.3420
vn 0.0019 0.9473 -0.3203
vn 0.0003 0.1987 -0.9801
vn -0.7282 0.1362 -0.6717
vn 0.4948 0.5763 0.6504
vn 0.6854 -0.1453 0.7135
vn 0.9960 -0.0179 0.0872
vn 0.5183 0.8278 0.2147
vn 0.5450 0.7687 -0.3348
vn 0.7347 0.1348 -0.6649
vn -0.4994 -0.7844 0.3677
vn -0.5202 -0.8435 -0.1336
vn 0.0018 -0.9797 -0.2005
vn -0.0002 -0.9463 0.3233
vn -0.5409 -0.5741 -0.6147
vn 0.0018 -0.7473 -0.6645
vn 0.4949 -0.7845 0.3738
vn 0.5182 -0.8460 -0.1257
vn 0.5451 -0.5771 -0.6081
vn -0.5066 0.5019 0.7010
vn -0.6118 0.7641 0.2044
vn -0.9966 -0.0166 0.0812
vn -0.6642 -0.1495 0.7324
vn 0.0000 -0.1993 0.9799
vn -0.0001 0.6210 0.7838
vn -0.0037 0.9805 0.1965
vn -0.5533 0.7260 -0.4084
vn -0.0045 0.8792 -0.4763
vn -0.0000 0.1992 -0.9800
vn -0.7179 0.1392 -0.6821
vn 0.5102 0.5025 0.6980
vn 0.6696 -0.1485 0.7278
vn 0.9976 -0.0140 0.0684
vn 0.6153 0.7624 0.2003
vn 0.5525 0.7228 -0.4151
vn 0.7136 0.1401 -0.6864
vn -0.5067 -0.7362 0.4487
vn -0.6117 -0.7833 -0.1103
vn -0.0038 -0.9793 -0.2022
vn -0.0000 -0.8774 0.4798
vn -0.5530 -0.5085 -0.6601
vn -0.0046 -0.6235 -0.7818
vn 0.5103 -0.7355 0.4456
vn 0.6153 -0.7801 -0.1133
vn 0.5523 -0.5027 -0.6650
vn -0.5125 0.4896 0.7054
vn -0.6283 0.7484 0.2125
vn -0.9951 -0.0238 0.0955
vn -0.6547 -0.1521 0.7404
vn 0.0093 -0.1998 0.9798
vn -0.0288 0.6190 0.7849
vn -0.0442 0.9802 0.1932
vn -0.5711 0.7146 -0.4040
vn -0.0369 0.8803 -0.4730
vn -0.0082 0.1992 -0.9799
vn -0.7238 0.1362 -0.6764
vn 0.4928 0.5172 0.6998
vn 0.6672 -0.1463 0.7304
vn 0.9965 -0.0125 0.0825
vn 0.5926 0.7785 0.2066
vn 0.5378 0.7378 -0.4081
vn 0.7133 0.1419 -0.6864
vn -0.4823 -0.7511 0.4508
vn -0.5920 -0.7991 -0.1051
vn 0.0441 -0.9777 -0.2054
vn 0.0410 -0.8767 0.4793
vn -0.5465 -0.5206 -0.6560
vn 0.0265 -0.6261 -0.7793
vn 0.5227 -0.7242 0.4499
vn 0.6290 -0.7701 -0.1061
vn 0.5625 -0.4980 -0.6600
vn -0.4944 0.5766 0.6505
vn -0.5216 0.8242 0.2205
vn -0.9949 -0.0202 0.0985
vn -0.6845 -0.1461 0.7142
vn 0.0000 -0.1989 0.9800
vn -0.0001 0.7445 0.6676
vn -0.0000 0.9805 0.1964
vn -0.5510 0.7659 -0.3314
vn 0.0000 0.9479 -0.3186
vn -0.0000 0.1988 -0.9800
vn -0.7382 0.1347 -0.6610
vn 0.4962 0.5770 0.6487
vn 0.6874 -0.1456 0.7116
vn 0.9957 -0.0186 0.0910
vn 0.5226 0.8246 0.2165
vn 0.5485 0.7668 -0.3334
vn 0.7360 0.1352 -0.6634
vn -0.4942 -0.7853 0.3730
vn -0.5213 -0.8450 -0.1190
vn 0.0000 -0.9794 -0.2022
vn -0.0000 -0.9461 0.3240
vn -0.5509 -0.5753 -0.6046
vn 0.0000 -0.7485 -0.6631
vn 0.4961 -0.7850 0.3711
vn 0.5224 -0.8438 -0.1228
vn 0.5485 -0.5752 -0.6068
vn -0.4181 0.4464 -0.7912
vn -0.5927 0.3150 -0.7413
vn -0.3668 -0.4262 -0.8269
vn -0.5418 0.2168 -0.8121
vn -0.4819 0.0672 -0.8736
vn -0.5526 -0.0277 -0.8330
vn -0.6054 -0.1364 -0.7842
vn -0.1759 -0.4679 -0.8661
vn -0.0527 0.5667 -0.8222
vn -0.0318 0.5053 -0.8623
vn -0.0273 0.4199 -0.9072
vn -0.0393 0.1967 -0.9797
vn -0.0353 -0.0222 -0.9991
vn -0.0637 -0.2779 -0.9585
vn -0.0644 -0.5031 -0.8618
vn 0.5927 0.3150 -0.7413
vn 0.4181 0.4464 -0.7912
vn 0.5752 -0.7865 0.2246
vn 0.5418 0.2168 -0.8121
vn 0.4819 0.0672 -0.8736
vn 0.5526 -0.0277 -0.8330
vn 0.6053 -0.1364 -0.7842
vn 0.1759 -0.4679 -0.8661
vn 0.0318 0.5053 -0.8623
vn 0.0527 0.5667 -0.8222
vn 0.0273 0.4199 -0.9072
vn 0.0393 0.1967 -0.9797
vn 0.0353 -0.0222 -0.9991
vn 0.0637 -0.2779 -0.9585
vn 0.0644 -0.5031 -0.8618
vn -0.7168 -0.2909 0.6337
vn -0.0160 -0.3332 0.9427
vn 0.7168 -0.2909 0.6337
vn 0.0160 -0.3332 0.9427
vn 0.7153 0.3778 0.5879
vn 0.0000 0.0000 -0.3091
vn -0.7232 -0.6176 -0.3091
vn -0.6151 0.7885 -0.0000
vn -0.0787 -0.9969 -0.0000
vn -0.9622 -0.0165 -0.2719
vn 0.9622 -0.0165 -0.2719
vn 0.0000 0.5705 -0.8213
vn -0.2256 0.9667 -0.1205
vn -0.6375 0.6069 0.4746
vn 0.3352 0.8258 0.4536
vn -0.3982 -0.6252 0.6712
vn 0.1360 -0.5937 0.7931
vn 0.6946 -0.3612 0.6222
vn 0.3216 0.7161 -0.6195
vn 0.8977 -0.4405 0.0035
vn 0.6742 -0.5351 -0.5090
vn -0.6335 0.5395 -0.5546
vn 0.1421 -0.6781 -0.7212
vn -0.3893 -0.7241 -0.5693
vn -0.6772 -0.7342 0.0481
vn 0.2064 -0.9719 0.1131
vn 0.8292 -0.5406 -0.1420
vn 0.6536 -0.4472 -0.6106
vn 0.5663 0.6105 -0.5537
vn 0.6469 0.7293 0.2227
vn 0.7689 0.6386 0.0316
vn 0.4220 -0.6897 -0.5884
vn 0.6295 0.3677 -0.6845
vn 0.6182 -0.7571 0.2112
vn 0.7841 0.5757 -0.2319
vn 0.7237 -0.5934 0.3523
vn 0.8462 -0.5314 -0.0397
vn 0.6747 -0.4749 -0.5651
vn 0.5854 0.0398 -0.8098
vn 0.6688 -0.0345 -0.7427
vn 0.6624 0.4837 -0.5720
vn 0.8396 0.5360 -0.0879
vn 0.8477 0.4013 -0.3469
vn 0.4561 -0.6539 0.6037
vn 0.7168 -0.2910 0.6337
vn 0.7224 0.1664 0.6711
vn 0.5927 -0.3150 0.7413
vn 0.8062 0.2182 -0.5499
vn 0.8344 0.0698 -0.5467
vn 0.5418 -0.2168 0.8121
vn 0.8358 -0.1774 -0.5195
vn 0.4819 -0.0672 0.8736
vn 0.5526 0.0277 0.8330
vn 0.8358 -0.1773 -0.5195
vn 0.8005 -0.3794 -0.4640
vn 0.6407 0.7568 -0.1294
vn 0.4576 0.3498 0.8175
vn -0.0738 0.5872 0.8061
vn -0.1189 0.0874 0.9891
vn 0.5149 0.7609 -0.3949
vn -0.0565 0.9966 -0.0600
vn 0.6868 0.7255 -0.0429
vn 0.5107 0.8596 0.0166
vn 0.5438 0.3400 0.7672
vn 0.9367 -0.2091 -0.2808
vn 0.8637 -0.4199 -0.2786
vn 0.5042 0.1407 0.8520
vn 0.9037 0.0185 -0.4277
vn 0.8809 0.1849 -0.4357
vn 0.8620 0.2872 -0.4178
vn 0.8764 0.4117 -0.2498
vn 0.6054 0.1364 0.7842
vn 0.1759 0.4679 0.8661
vn 0.8049 -0.5218 -0.2824
vn -0.0244 -0.6170 -0.7866
vn 0.1061 0.7619 -0.6390
vn -0.0376 -0.9637 -0.2642
vn 0.1348 0.9453 0.2969
vn 0.1516 0.9883 -0.0180
vn -0.0175 0.4874 -0.8730
vn -0.0389 0.9236 -0.3813
vn 0.0445 -0.7718 -0.6343
vn 0.0571 -0.9514 0.3025
vn 0.0592 -0.8983 0.4354
vn 0.0157 -0.7118 -0.7022
vn 0.0001 -0.0050 -1.0000
vn 0.0222 -0.9952 -0.0950
vn 0.0136 0.7007 -0.7133
vn 0.0194 0.9814 -0.1912
vn 0.0001 0.0072 -1.0000
vn -0.0290 0.7155 -0.6980
vn 0.0590 -0.6878 0.7235
vn -0.0152 0.3972 -0.9176
vn 0.0235 -0.5228 0.8521
vn 0.0161 -0.3332 0.9427
vn -0.0039 0.1019 -0.9948
vn 0.0273 -0.4199 0.9072
vn 0.0072 -0.2447 -0.9696
vn 0.0393 -0.1967 0.9797
vn 0.0353 0.0222 0.9991
vn 0.0163 -0.6065 -0.7949
vn 0.0216 -0.9044 -0.4260
vn 0.1350 0.9607 -0.2427
vn 0.1334 0.9234 0.3599
vn 0.4710 0.5620 0.6799
vn 0.1270 0.6516 0.7479
vn 0.4048 0.8837 -0.2349
vn -0.0298 -0.8064 -0.5907
vn 0.4735 0.8799 -0.0400
vn 0.2115 0.6275 0.7493
vn -0.0145 -0.4143 -0.9100
vn 0.1666 0.1373 0.9764
vn 0.3653 0.5530 0.7489
vn 0.0244 0.0783 0.9966
vn 0.0320 0.1641 0.9859
vn -0.0008 -0.0214 -0.9998
vn 0.0053 0.2126 -0.9771
vn 0.0442 0.3588 0.9324
vn 0.0124 0.5489 -0.8358
vn 0.0175 0.8538 -0.5204
vn 0.0637 0.2779 0.9585
vn 0.0644 0.5031 0.8618
vn -0.6295 0.3677 -0.6845
vn -0.6182 -0.7571 0.2112
vn -0.7841 0.5757 -0.2319
vn -0.4220 -0.6897 -0.5884
vn -0.7237 -0.5934 0.3523
vn -0.6747 -0.4749 -0.5651
vn -0.8462 -0.5314 -0.0397
vn -0.5854 0.0398 -0.8098
vn -0.6624 0.4837 -0.5720
vn -0.6688 -0.0345 -0.7427
vn -0.8396 0.5360 -0.0879
vn -0.8477 0.4013 -0.3469
vn -0.8062 0.2182 -0.5500
vn -0.7168 -0.2910 0.6337
vn -0.4561 -0.6539 0.6037
vn -0.8344 0.0698 -0.5467
vn -0.8358 -0.1773 -0.5196
vn -0.5927 -0.3150 0.7413
vn -0.7224 0.1664 0.6712
vn -0.5418 -0.2168 0.8121
vn -0.4819 -0.0672 0.8736
vn -0.8005 -0.3794 -0.4640
vn -0.8049 -0.5218 -0.2824
vn -0.5437 0.3397 0.7675
vn -0.9367 -0.2094 -0.2806
vn -0.5042 0.1406 0.8521
vn -0.9036 0.0179 -0.4280
vn -0.8809 0.1849 -0.4357
vn -0.8620 0.2872 -0.4178
vn -0.8764 0.4117 -0.2498
vn -0.5526 0.0277 0.8330
vn -0.6053 0.1364 0.7842
vn -0.1759 0.4679 0.8661
vn 0.0244 -0.6170 -0.7866
vn -0.6536 -0.4472 -0.6106
vn -0.1061 0.7619 -0.6390
vn -0.5661 0.6103 -0.5541
vn 0.0376 -0.9637 -0.2642
vn -0.8290 -0.5408 -0.1422
vn 0.0175 0.4874 -0.8730
vn 0.0389 0.9236 -0.3813
vn -0.0445 -0.7718 -0.6343
vn -0.0571 -0.9514 0.3025
vn -0.0592 -0.8983 0.4354
vn -0.0157 -0.7118 -0.7022
vn -0.0001 -0.0050 -1.0000
vn -0.0222 -0.9952 -0.0950
vn -0.0136 0.7007 -0.7133
vn -0.0194 0.9814 -0.1912
vn -0.0001 0.0072 -1.0000
vn 0.0290 0.7155 -0.6980
vn -0.0590 -0.6878 0.7235
vn -0.0161 -0.3332 0.9427
vn 0.0152 0.3972 -0.9176
vn -0.0235 -0.5228 0.8521
vn 0.0039 0.1019 -0.9948
vn -0.0273 -0.4199 0.9072
vn -0.0072 -0.2447 -0.9696
vn -0.0393 -0.1967 0.9797
vn -0.0353 0.0222 0.9991
vn -0.0163 -0.6065 -0.7949
vn -0.0216 -0.9044 -0.4260
vn 0.0298 -0.8064 -0.5907
vn -0.8636 -0.4203 -0.2785
vn 0.0145 -0.4143 -0.9100
vn -0.3653 0.5529 0.7489
vn -0.1667 0.1369 0.9765
vn -0.0248 0.0784 0.9966
vn -0.0320 0.1648 0.9858
vn 0.0008 -0.0214 -0.9998
vn -0.0053 0.2126 -0.9771
vn -0.0442 0.3588 0.9324
vn -0.0124 0.5489 -0.8358
vn -0.0175 0.8538 -0.5204
vn -0.0637 0.2779 0.9585
vn -0.0644 0.5031 0.8618
vn -0.2115 0.6275 0.7493
vn -0.1269 0.6516 0.7479
vn -0.1333 0.9234 0.3599
vn -0.1350 0.9607 -0.2427
vn -0.1516 0.9883 -0.0180
vn -0.1347 0.9453 0.2969
vn 0.2956 0.5005 0.8137
vn 0.6839 0.7294 0.0183
vn 0.7723 -0.0493 0.6334
vn 0.7967 0.5844 -0.1540
vn 0.4813 0.8393 -0.2529
vn 0.4119 0.9108 -0.0288
vn -0.6476 0.7290 0.2218
vn -0.7692 0.6382 0.0316
vn -0.6408 0.7567 -0.1294
vn -0.4577 0.3497 0.8174
vn 0.1189 0.0874 0.9890
vn 0.0738 0.5872 0.8061
vn -0.5148 0.7609 -0.3949
vn 0.0565 0.9966 -0.0600
vn -0.5109 0.8595 0.0167
vn -0.6873 0.7251 -0.0427
vn -0.4711 0.5625 0.6795
vn -0.4048 0.8837 -0.2349
vn -0.4735 0.8799 -0.0400
vn -0.2963 0.5005 0.8134
vn -0.6838 0.7294 0.0184
vn -0.7723 -0.0493 0.6334
vn -0.7967 0.5844 -0.1540
vn -0.4813 0.8393 -0.2529
vn -0.4119 0.9108 -0.0288
vn -0.3352 0.8258 0.4536
vn 0.6375 0.6069 0.4746
vn 0.2256 0.9667 -0.1205
vn -0.1360 -0.5937 0.7931
vn 0.3982 -0.6252 0.6712
vn -0.6945 -0.3612 0.6222
vn -0.3216 0.7161 -0.6195
vn -0.8977 -0.4405 0.0035
vn -0.6742 -0.5351 -0.5090
vn 0.6335 0.5395 -0.5546
vn -0.1421 -0.6781 -0.7212
vn 0.3893 -0.7241 -0.5694
vn 0.6772 -0.7342 0.0481
vn -0.2064 -0.9719 0.1131
vn -0.0644 0.9915 0.1134
vn 0.5565 -0.5755 0.5992
vn 0.1619 0.9647 0.2075
vn 0.0808 -0.6611 0.7459
vn -0.4524 -0.7592 -0.4680
vn -0.1356 -0.7277 -0.6723
vn 0.8053 -0.5858 -0.0908
vn 0.2648 0.9643 0.0059
vn -0.6138 -0.7892 -0.0221
vn 0.5533 -0.7723 -0.3121
vn -0.2810 0.9571 0.0707
vn -0.7699 -0.5372 0.3445
vn 0.0644 0.9915 0.1134
vn -0.1619 0.9647 0.2075
vn -0.5565 -0.5755 0.5992
vn -0.0808 -0.6611 0.7459
vn 0.4524 -0.7592 -0.4680
vn 0.1356 -0.7277 -0.6723
vn -0.2648 0.9643 0.0059
vn -0.8053 -0.5858 -0.0908
vn 0.6138 -0.7891 -0.0221
vn 0.2811 0.9571 0.0706
vn -0.5533 -0.7723 -0.3120
vn 0.7699 -0.5372 0.3445
vn -0.6069 -0.0952 -0.7891
vn -0.6132 -0.0946 -0.7842
vn 0.6132 -0.0946 -0.7842
vn 0.6069 -0.0952 -0.7891
vn 1.0000 0.0000 0.0000
vn -1.0000 -0.0000 0.0000
vn -0.6234 -0.0814 -0.7777
vn -0.5691 -0.0856 -0.8178
vn 0.5691 -0.0856 -0.8178
vn 0.6234 -0.0814 -0.7777
vn 0.0000 -1.0000 0.0000
vn -0.3376 -0.8931 0.2973
vn -0.4790 -0.8767 -0.0437
vn 0.0000 -0.8999 0.4360
vn 0.3376 -0.8931 0.2973
vn 0.4790 -0.8767 -0.0437
vn 0.3352 -0.8609 -0.3829
vn 0.0000 -0.8546 -0.5193
vn -0.3351 -0.8609 -0.3829
vn -0.6931 -0.0730 0.7171
vn -0.9997 -0.0025 0.0247
vn -0.0000 -0.1013 0.9949
vn 0.6931 -0.0730 0.7171
vn 0.9997 -0.0025 0.0247
vn 0.7179 0.0705 -0.6926
vn -0.0000 0.1013 -0.9949
vn -0.7179 0.0705 -0.6926
vn 0.7554 -0.3276 0.5674
vn 0.7554 -0.6552 -0.0000
vn 0.0000 -0.5000 0.8660
vn 0.7554 0.3276 0.5674
vn 0.0000 0.5000 0.8660
vn 0.7554 0.6552 0.0000
vn 0.0000 1.0000 -0.0000
vn 0.7554 0.3276 -0.5674
vn 0.0000 0.5000 -0.8660
vn 0.7554 -0.3276 -0.5674
vn 0.0000 -0.5000 -0.8660
vn 0.5505 -0.4174 0.7230
vn 0.5505 -0.8348 -0.0000
vn 0.5505 0.4174 0.7230
vn 0.5505 0.8348 -0.0000
vn 0.5505 0.4174 -0.7230
vn 0.5505 -0.4174 -0.7230
vn -0.5505 -0.4174 0.7230
vn -0.5505 -0.8348 -0.0000
vn -0.5505 0.4174 0.7230
vn -0.5505 0.8348 -0.0000
vn -0.5505 0.4174 -0.7230
vn -0.5505 -0.4174 -0.7230
vn -0.7554 -0.3276 0.5674
vn -0.7554 -0.6552 0.0000
vn -0.7554 0.3276 0.5674
vn -0.7554 0.6552 -0.0000
vn -0.7554 0.3276 -0.5674
vn -0.7554 -0.3276 -0.5674
vn -1.0000 0.0049 0.0068
vn -0.5337 0.1879 0.8245
vn -0.9976 -0.0158 -0.0678
vn -0.4959 0.3761 0.7827
vn 0.5332 0.1889 0.8246
vn 0.4951 0.3749 0.7838
vn 0.9975 -0.0163 -0.0686
vn 1.0000 0.0040 0.0053
vn 0.4726 -0.1908 -0.8604
vn 0.5024 -0.3654 -0.7837
vn -0.4723 -0.1903 -0.8607
vn -0.5016 -0.3668 -0.7835
vn -0.5313 -0.1778 0.8283
vn -0.9978 0.0137 -0.0654
vn 0.5315 -0.1774 0.8283
vn 0.9978 0.0135 -0.0650
vn 0.4734 0.1826 -0.8617
vn -0.4736 0.1828 -0.8616
vn -0.5148 -0.3511 0.7821
vn -0.9991 0.0165 -0.0387
vn 0.5152 -0.3517 0.7816
vn 0.9991 0.0162 -0.0379
vn 0.4791 0.3565 -0.8021
vn -0.4794 0.3559 -0.8022
vn 0.7554 -0.3276 -0.5675
vn -0.7554 -0.3276 -0.5675
usemtl inside.003
s 1
f 171/1/1 305/2/2 184/3/3
f 184/3/4 1/4/5 171/1/6
f 5/5/7 168/6/8 184/3/3
f 221/7/9 7/8/10 5/5/7
f 305/2/2 221/7/9 5/5/7
f 305/2/2 5/5/7 184/3/3
f 9/9/11 10/10/12 11/11/13
f 12/12/14 13/13/15 9/14/11
f 14/15/16 13/13/15 12/12/14
f 15/16/17 14/15/16 16/17/18
f 17/18/19 18/19/20 15/20/17
f 10/21/12 9/22/11 13/23/15
f 19/24/21 20/25/22 13/23/15
f 18/26/20 19/24/21 14/27/16
f 9/9/11 11/11/13 21/28/23
f 12/12/14 9/14/11 21/29/23
f 14/15/16 12/12/14 16/17/18
f 15/16/17 16/17/18 22/30/24
f 17/18/19 15/20/17 22/31/24
f 10/21/12 13/23/15 20/25/22
f 19/24/21 13/23/15 14/27/16
f 18/26/20 14/27/16 15/32/17
f 23/33/25 24/34/26 25/35/27
f 23/36/25 26/37/28 27/38/29
f 23/36/25 28/39/30 29/40/31
f 30/41/32 31/42/33 32/43/34
f 30/44/32 33/45/35 25/35/27
f 30/41/32 24/34/26 29/40/31
f 34/46/36 28/47/30 27/38/29
f 34/48/36 35/49/37 36/50/38
f 34/51/36 37/52/39 29/40/31
f 38/53/40 37/54/39 36/50/38
f 38/55/40 39/56/41 32/43/34
f 38/57/40 31/58/33 29/40/31
f 40/59/42 26/60/28 25/35/27
f 40/61/42 41/62/43 42/63/44
f 40/64/42 43/65/45 27/38/29
f 44/66/46 33/67/35 32/43/34
f 44/68/46 45/69/47 42/63/44
f 44/70/46 41/71/43 25/35/27
f 46/72/48 35/73/37 27/38/29
f 46/72/48 43/74/45 42/63/44
f 46/75/48 47/76/49 36/50/38
f 48/77/50 45/78/47 32/43/34
f 48/79/50 39/80/41 36/50/38
f 48/77/50 47/76/49 42/63/44
f 49/81/51 50/82/52 51/83/53
f 49/84/51 52/85/54 53/86/55
f 49/84/51 54/87/56 55/88/57
f 56/89/58 57/90/59 58/91/60
f 56/92/58 59/93/61 51/83/53
f 56/89/58 50/82/52 55/88/57
f 60/94/62 54/95/56 53/86/55
f 60/96/62 61/97/63 62/98/64
f 60/99/62 63/100/65 55/88/57
f 64/101/66 63/102/65 62/98/64
f 64/103/66 65/104/67 58/91/60
f 63/100/65 64/105/66 57/106/59
f 66/107/68 52/108/54 51/83/53
f 66/109/68 67/110/69 68/111/70
f 66/112/68 69/113/71 53/86/55
f 70/114/72 59/115/61 58/91/60
f 70/116/72 71/117/73 68/111/70
f 70/118/72 67/119/69 51/83/53
f 72/120/74 61/121/63 53/86/55
f 72/120/74 69/122/71 68/111/70
f 72/123/74 73/124/75 62/98/64
f 74/125/76 71/126/73 58/91/60
f 74/127/76 65/128/67 62/98/64
f 71/117/73 74/125/76 73/124/75
f 75/129/77 76/130/78 77/131/79
f 75/132/77 78/133/80 79/134/81
f 75/132/77 80/135/82 81/136/83
f 82/137/84 83/138/85 84/139/86
f 82/140/84 85/141/87 77/131/79
f 83/142/85 82/137/84 76/130/78
f 86/143/88 80/144/82 79/134/81
f 86/145/88 87/146/89 88/147/90
f 86/148/88 89/149/91 81/136/83
f 90/150/92 89/151/91 88/147/90
f 90/152/92 91/153/93 84/139/86
f 90/154/92 83/142/85 81/136/83
f 92/155/94 78/156/80 77/131/79
f 92/157/94 93/158/95 94/159/96
f 92/160/94 95/161/97 79/134/81
f 96/162/98 85/163/87 84/139/86
f 93/158/95 96/164/98 97/165/99
f 96/166/98 93/167/95 77/131/79
f 98/168/100 87/169/89 79/134/81
f 98/168/100 95/170/97 94/159/96
f 98/171/100 99/172/101 88/147/90
f 100/173/102 97/174/99 84/139/86
f 100/175/102 91/176/93 88/147/90
f 100/173/102 99/172/101 94/159/96
f 101/177/103 102/178/104 103/179/105
f 101/180/103 104/181/106 105/182/107
f 101/180/103 106/183/108 107/184/109
f 108/185/110 109/186/111 110/187/112
f 108/188/110 111/189/113 103/179/105
f 109/190/111 108/185/110 102/178/104
f 112/191/114 106/192/108 105/182/107
f 112/193/114 113/194/115 114/195/116
f 112/196/114 115/197/117 107/184/109
f 116/198/118 115/199/117 114/195/116
f 116/200/118 117/201/119 110/187/112
f 115/197/117 116/202/118 109/190/111
f 118/203/120 104/204/106 103/179/105
f 118/205/120 119/206/121 120/207/122
f 118/208/120 121/209/123 105/182/107
f 122/210/124 111/211/113 110/187/112
f 119/206/121 122/212/124 123/213/125
f 122/214/124 119/215/121 103/179/105
f 124/216/126 113/217/115 105/182/107
f 124/216/126 121/218/123 120/207/122
f 124/219/126 125/220/127 114/195/116
f 126/221/128 123/222/125 110/187/112
f 126/223/128 117/224/119 114/195/116
f 123/213/125 126/221/128 125/220/127
f 127/225/129 128/226/130 129/227/131
f 127/228/129 130/229/132 131/230/133
f 127/228/129 132/231/134 133/232/135
f 134/233/136 135/234/137 136/235/138
f 134/236/136 137/237/139 129/227/131
f 135/238/137 134/233/136 128/226/130
f 138/239/140 132/240/134 131/230/133
f 138/241/140 139/242/141 140/243/142
f 138/244/140 141/245/143 133/232/135
f 142/246/144 141/247/143 140/243/142
f 142/248/144 143/249/145 136/235/138
f 141/245/143 142/250/144 135/238/137
f 144/251/146 130/252/132 129/227/131
f 144/253/146 145/254/147 146/255/148
f 144/256/146 147/257/149 131/230/133
f 148/258/150 137/259/139 136/235/138
f 145/254/147 148/260/150 149/261/151
f 148/262/150 145/263/147 129/227/131
f 150/264/152 139/265/141 131/230/133
f 150/264/152 147/266/149 146/255/148
f 150/267/152 151/268/153 140/243/142
f 152/269/154 149/270/151 136/235/138
f 152/271/154 143/272/145 140/243/142
f 149/261/151 152/269/154 151/268/153
f 49/81/51 51/83/53 52/108/54
f 49/84/51 53/86/55 54/95/56
f 49/84/51 55/88/57 50/82/52
f 56/89/58 58/91/60 59/115/61
f 56/92/58 51/83/53 50/82/52
f 56/89/58 55/88/57 57/106/59
f 60/94/62 53/86/55 61/121/63
f 60/96/62 62/98/64 63/102/65
f 60/99/62 55/88/57 54/87/56
f 64/101/66 62/98/64 65/128/67
f 64/103/66 58/91/60 57/90/59
f 63/100/65 57/106/59 55/88/57
f 66/107/68 51/83/53 67/119/69
f 66/109/68 68/111/70 69/122/71
f 66/112/68 53/86/55 52/85/54
f 70/114/72 58/91/60 71/126/73
f 70/116/72 68/111/70 67/110/69
f 70/118/72 51/83/53 59/93/61
f 72/120/74 53/86/55 69/113/71
f 72/120/74 68/111/70 73/124/75
f 72/123/74 62/98/64 61/97/63
f 74/125/76 58/91/60 65/104/67
f 74/127/76 62/98/64 73/124/75
f 71/117/73 73/124/75 68/111/70
f 75/129/77 77/131/79 78/156/80
f 75/132/77 79/134/81 80/144/82
f 75/132/77 81/136/83 76/130/78
f 82/137/84 84/139/86 85/163/87
f 82/140/84 77/131/79 76/130/78
f 83/142/85 76/130/78 81/136/83
f 86/143/88 79/134/81 87/169/89
f 86/145/88 88/147/90 89/151/91
f 86/148/88 81/136/83 80/135/82
f 90/150/92 88/147/90 91/176/93
f 90/152/92 84/139/86 83/138/85
f 90/154/92 81/136/83 89/149/91
f 92/155/94 77/131/79 93/167/95
f 92/157/94 94/159/96 95/170/97
f 92/160/94 79/134/81 78/133/80
f 96/162/98 84/139/86 97/174/99
f 93/158/95 97/165/99 94/159/96
f 96/166/98 77/131/79 85/141/87
f 98/168/100 79/134/81 95/161/97
f 98/168/100 94/159/96 99/172/101
f 98/171/100 88/147/90 87/146/89
f 100/173/102 84/139/86 91/153/93
f 100/175/102 88/147/90 99/172/101
f 100/173/102 94/159/96 97/165/99
f 101/177/103 103/179/105 104/204/106
f 101/180/103 105/182/107 106/192/108
f 101/180/103 107/184/109 102/178/104
f 108/185/110 110/187/112 111/211/113
f 108/188/110 103/179/105 102/178/104
f 109/190/111 102/178/104 107/184/109
f 112/191/114 105/182/107 113/217/115
f 112/193/114 114/195/116 115/199/117
f 112/196/114 107/184/109 106/183/108
f 116/198/118 114/195/116 117/224/119
f 116/200/118 110/187/112 109/186/111
f 115/197/117 109/190/111 107/184/109
f 118/203/120 103/179/105 119/215/121
f 118/205/120 120/207/122 121/218/123
f 118/208/120 105/182/107 104/181/106
f 122/210/124 110/187/112 123/222/125
f 119/206/121 123/213/125 120/207/122
f 122/214/124 103/179/105 111/189/113
f 124/216/126 105/182/107 121/209/123
f 124/216/126 120/207/122 125/220/127
f 124/219/126 114/195/116 113/194/115
f 126/221/128 110/187/112 117/201/119
f 126/223/128 114/195/116 125/220/127
f 123/213/125 125/220/127 120/207/122
f 127/225/129 129/227/131 130/252/132
f 127/228/129 131/230/133 132/240/134
f 127/228/129 133/232/135 128/226/130
f 134/233/136 136/235/138 137/259/139
f 134/236/136 129/227/131 128/226/130
f 135/238/137 128/226/130 133/232/135
f 138/239/140 131/230/133 139/265/141
f 138/241/140 140/243/142 141/247/143
f 138/244/140 133/232/135 132/231/134
f 142/246/144 140/243/142 143/272/145
f 142/248/144 136/235/138 135/234/137
f 141/245/143 135/238/137 133/232/135
f 144/251/146 129/227/131 145/263/147
f 144/253/146 146/255/148 147/266/149
f 144/256/146 131/230/133 130/229/132
f 148/258/150 136/235/138 149/270/151
f 145/254/147 149/261/151 146/255/148
f 148/262/150 129/227/131 137/237/139
f 150/264/152 131/230/133 147/257/149
f 150/264/152 146/255/148 151/268/153
f 150/267/152 140/243/142 139/242/141
f 152/269/154 136/235/138 143/249/145
f 152/271/154 140/243/142 151/268/153
f 149/261/151 151/268/153 146/255/148
f 23/33/25 25/35/27 26/60/28
f 23/36/25 27/38/29 28/47/30
f 23/36/25 29/40/31 24/34/26
f 30/41/32 32/43/34 33/67/35
f 30/44/32 25/35/27 24/34/26
f 30/41/32 29/40/31 31/58/33
f 34/46/36 27/38/29 35/73/37
f 34/48/36 36/50/38 37/54/39
f 34/51/36 29/40/31 28/39/30
f 38/53/40 36/50/38 39/80/41
f 38/55/40 32/43/34 31/42/33
f 38/57/40 29/40/31 37/52/39
f 40/59/42 25/35/27 41/71/43
f 40/61/42 42/63/44 43/74/45
f 40/64/42 27/38/29 26/37/28
f 44/66/46 32/43/34 45/78/47
f 44/68/46 42/63/44 41/62/43
f 44/70/46 25/35/27 33/45/35
f 46/72/48 27/38/29 43/65/45
f 46/72/48 42/63/44 47/76/49
f 46/75/48 36/50/38 35/49/37
f 48/77/50 32/43/34 39/56/41
f 48/79/50 36/50/38 47/76/49
f 48/77/50 42/63/44 45/69/47
f 153/273/155 154/274/156 155/275/157
f 156/276/158 155/275/157 154/274/156
f 157/277/159 155/275/157 156/276/158
f 158/278/160 155/275/157 157/277/159
f 159/279/161 155/275/157 158/278/160
f 160/280/162 155/281/157 159/282/161
f 154/283/156 161/284/163 162/285/164
f 161/284/163 154/283/156 153/286/155
f 156/287/158 162/285/164 163/288/165
f 162/285/164 156/287/158 154/283/156
f 157/289/159 163/288/165 164/290/166
f 163/288/165 157/289/159 156/287/158
f 158/291/160 164/292/166 165/293/167
f 164/292/166 158/291/160 157/294/159
f 159/295/161 165/293/167 166/296/168
f 165/293/167 159/295/161 158/291/160
f 160/280/162 166/297/168 167/298/169
f 166/297/168 160/280/162 159/282/161
f 155/281/157 167/298/169 168/299/8
f 167/298/169 155/281/157 160/280/162
f 169/300/170 170/301/171 171/302/172
f 172/303/173 169/300/170 171/302/172
f 173/304/174 172/303/173 171/302/172
f 174/305/175 173/304/174 171/302/172
f 175/306/176 174/305/175 171/302/172
f 176/307/177 175/308/176 171/309/172
f 177/310/178 178/311/179 169/312/170
f 170/313/171 169/312/170 178/311/179
f 179/314/180 177/310/178 172/315/173
f 169/312/170 172/315/173 177/310/178
f 180/316/181 179/314/180 173/317/174
f 172/315/173 173/317/174 179/314/180
f 181/318/182 180/319/181 174/320/175
f 173/321/174 174/320/175 180/319/181
f 182/322/183 181/318/182 175/323/176
f 174/320/175 175/323/176 181/318/182
f 183/324/184 182/325/183 176/307/177
f 175/308/176 176/307/177 182/325/183
f 184/326/3 183/324/184 171/309/172
f 176/307/177 171/309/172 183/324/184
f 167/298/169 183/324/184 168/299/8
f 168/299/8 183/324/184 184/326/3
f 166/297/168 182/325/183 167/298/169
f 167/298/169 182/325/183 183/324/184
f 165/293/167 181/318/182 166/296/168
f 166/296/168 181/318/182 182/322/183
f 164/292/166 180/319/181 165/293/167
f 165/293/167 180/319/181 181/318/182
f 179/314/180 180/316/181 163/288/165
f 163/288/165 180/316/181 164/290/166
f 177/310/178 179/314/180 162/285/164
f 162/285/164 179/314/180 163/288/165
f 305/327/2 2/328/185 3/329/186
f 6/330/187 221/331/9 4/332/188
f 221/331/9 305/327/2 4/332/188
f 305/327/189 170/333/190 2/328/191
f 2/328/192 178/334/5 3/329/193
f 3/329/186 4/332/188 305/327/2
f 578/335/194 579/336/194 580/337/194
f 577/338/195 581/339/195 576/340/195
f 583/341/196 585/342/196 584/343/196
f 585/342/196 583/341/196 582/344/196
usemtl _cordo_wrc.png.006
f 185/345/197 186/346/198 187/347/199
f 186/346/198 188/348/200 189/349/201
f 186/346/198 189/349/201 187/347/199
f 187/347/199 189/349/201 190/350/202
f 185/345/197 187/347/199 191/351/203
f 187/352/199 190/353/202 192/354/204
f 187/352/199 192/354/204 191/355/203
f 191/355/203 192/354/204 193/356/205
f 185/345/197 191/351/203 194/357/206
f 191/351/203 193/358/205 195/359/207
f 191/351/203 195/359/207 194/357/206
f 194/357/206 195/359/207 196/360/208
f 185/345/197 194/357/206 186/346/198
f 194/357/206 196/360/208 197/361/209
f 194/357/206 197/361/209 186/346/198
f 186/346/198 197/361/209 188/348/200
f 189/362/201 188/363/200 198/364/210
f 190/365/202 189/362/201 198/364/210
f 192/366/204 190/365/202 198/364/210
f 193/367/205 192/366/204 198/364/210
f 195/368/207 193/367/205 198/364/210
f 196/369/208 195/368/207 198/364/210
f 197/370/209 196/369/208 198/364/210
f 188/363/200 197/370/209 198/364/210
f 199/371/211 200/372/212 201/373/213
f 199/371/211 201/373/213 202/374/214
f 199/371/211 202/374/214 203/375/215
f 204/376/216 205/377/217 206/378/218
f 206/378/218 205/377/217 207/379/219
f 208/380/220 206/378/218 207/379/219
f 209/381/221 210/382/222 211/383/223
f 212/384/224 213/385/225 214/386/226
f 208/380/220 207/379/219 215/387/227
f 216/388/228 208/380/220 6/389/229
f 6/390/229 7/391/230 217/392/231
f 208/380/220 215/387/227 218/393/232
f 6/390/229 218/394/232 219/395/233
f 208/380/220 218/393/232 6/389/229
f 220/396/234 217/392/231 7/391/230
f 6/390/229 221/397/235 7/391/230
f 222/398/236 220/396/234 7/391/230
f 223/399/237 222/398/236 7/391/230
f 219/395/233 221/397/238 6/390/229
f 221/397/238 224/400/239 7/391/10
f 199/371/211 203/375/215 225/401/240
f 199/371/211 225/401/240 226/402/241
f 227/403/242 228/404/243 229/405/244
f 230/406/245 227/403/242 229/405/244
f 231/407/246 232/408/247 233/409/248
f 234/410/249 235/411/250 233/409/248
f 234/410/249 233/409/248 236/412/251
f 237/413/252 234/414/249 236/415/251
f 238/416/253 237/413/252 236/415/251
f 238/416/253 236/415/251 7/391/10
f 239/417/254 238/416/253 7/391/10
f 240/418/255 239/417/254 7/391/10
f 241/419/256 223/399/237 7/391/230
f 242/420/257 241/421/256 7/422/230
f 7/391/10 224/400/239 243/423/258
f 240/418/255 212/384/224 214/386/226
f 243/423/258 211/383/223 212/384/224
f 7/391/10 243/423/258 212/384/224
f 240/418/255 7/391/10 212/384/224
f 209/381/221 211/383/223 243/423/258
f 200/424/212 244/425/259 245/426/260
f 245/426/260 201/427/213 200/424/212
f 199/428/211 246/429/261 244/425/259
f 200/424/212 199/428/211 244/425/259
f 201/373/213 245/430/260 247/431/262
f 247/431/262 202/374/214 201/373/213
f 202/374/214 247/431/262 248/432/263
f 248/432/263 203/375/215 202/374/214
f 205/433/217 249/434/264 250/435/265
f 250/435/265 207/436/219 205/433/217
f 204/437/216 251/438/266 249/434/264
f 249/434/264 205/433/217 204/437/216
f 206/378/218 252/439/267 251/440/266
f 251/440/266 204/376/216 206/378/218
f 208/380/220 253/441/268 252/439/267
f 252/439/267 206/378/218 208/380/220
f 210/442/222 254/443/269 255/444/270
f 255/444/270 211/445/223 210/442/222
f 209/446/221 256/447/271 254/443/269
f 254/443/269 210/442/222 209/446/221
f 213/448/225 257/449/272 258/450/273
f 258/450/273 214/451/226 213/448/225
f 212/452/224 259/453/274 257/449/272
f 257/449/272 213/448/225 212/452/224
f 207/436/219 250/435/265 260/454/275
f 260/454/275 215/455/227 207/436/219
f 216/388/228 261/456/276 253/441/268
f 253/441/268 208/380/220 216/388/228
f 6/457/229 4/458/188 261/459/276
f 261/459/276 216/460/228 6/457/229
f 215/455/227 260/454/275 262/461/277
f 262/461/277 218/462/232 215/455/227
f 217/463/231 263/464/278 4/458/279
f 4/458/279 6/457/229 217/463/231
f 218/462/232 262/461/277 264/465/280
f 264/465/280 219/466/233 218/462/232
f 220/467/234 265/468/281 263/464/278
f 263/464/278 217/463/231 220/467/234
f 219/466/233 264/465/280 266/469/282
f 266/469/282 221/470/238 219/466/233
f 222/471/236 267/472/283 265/468/281
f 265/468/281 220/467/234 222/471/236
f 223/473/237 268/474/284 267/475/283
f 267/475/283 222/476/236 223/473/237
f 221/470/238 266/469/282 269/477/285
f 269/477/285 224/478/239 221/470/238
f 224/478/239 269/477/285 270/479/286
f 270/479/286 243/480/258 224/478/239
f 203/375/215 248/432/263 271/481/287
f 271/481/287 225/401/240 203/375/215
f 225/401/240 271/481/287 272/482/288
f 272/482/288 226/402/241 225/401/240
f 273/483/289 272/482/288 274/484/290
f 275/485/291 229/405/244 228/404/243
f 235/486/250 276/487/292 246/429/261
f 246/429/261 199/428/211 235/486/250
f 277/488/293 274/484/290 278/489/294
f 278/489/294 233/409/248 232/408/247
f 234/490/249 279/491/295 276/487/292
f 276/487/292 235/486/250 234/490/249
f 280/492/296 281/493/297 282/494/298
f 283/495/299 236/496/251 233/497/248
f 237/498/252 284/499/300 279/491/295
f 279/491/295 234/490/249 237/498/252
f 238/500/253 285/501/301 284/499/300
f 284/499/300 237/498/252 238/500/253
f 236/496/251 283/495/299 5/502/302
f 5/502/302 7/503/10 236/496/251
f 239/504/254 286/505/303 285/501/301
f 285/501/301 238/500/253 239/504/254
f 240/506/255 287/507/304 286/505/303
f 286/505/303 239/504/254 240/506/255
f 241/508/256 288/509/305 268/474/284
f 268/474/284 223/473/237 241/508/256
f 242/420/257 289/510/306 288/511/305
f 288/511/305 241/421/256 242/420/257
f 7/422/230 5/512/302 289/510/306
f 289/510/306 242/420/257 7/422/230
f 214/451/226 258/450/273 287/507/304
f 287/507/304 240/506/255 214/451/226
f 211/445/223 255/444/270 259/453/274
f 259/453/274 212/452/224 211/445/223
f 243/480/258 270/479/286 256/447/271
f 256/447/271 209/446/221 243/480/258
f 290/513/307 291/514/308 292/515/309
f 293/516/310 291/514/308 290/513/307
f 291/514/308 294/517/311 292/515/309
f 295/518/312 296/519/313 297/520/314
f 298/521/315 299/522/316 300/523/317
f 292/515/309 294/517/311 301/524/318
f 294/517/311 302/525/319 301/524/318
f 2/526/320 294/517/311 303/527/321
f 2/526/320 302/525/319 294/517/311
f 2/528/320 304/529/322 302/530/319
f 2/528/320 305/531/323 304/529/322
f 306/532/324 1/533/325 2/528/320
f 2/528/320 1/533/325 305/531/323
f 307/534/326 1/533/325 306/532/324
f 308/535/327 1/533/325 307/534/326
f 305/531/323 1/533/325 309/536/328
f 309/536/328 1/533/325 310/537/329
f 311/538/330 312/539/331 313/540/332
f 312/541/331 314/542/333 313/543/332
f 314/542/333 315/544/334 313/543/332
f 313/543/332 315/544/334 1/533/325
f 315/544/334 316/545/335 1/533/325
f 316/545/335 317/546/336 1/533/325
f 318/547/337 1/533/325 308/535/327
f 319/548/338 1/533/325 318/547/337
f 320/549/339 1/550/325 319/551/338
f 317/546/336 299/522/316 1/533/325
f 297/520/314 310/537/329 299/522/316
f 300/523/317 299/522/316 317/546/336
f 299/522/316 310/537/329 1/533/325
f 297/520/314 296/519/313 310/537/329
f 321/552/340 322/553/341 323/554/342
f 324/555/343 323/554/342 322/553/341
f 325/556/344 326/557/345 321/552/340
f 322/553/341 321/552/340 326/557/345
f 327/558/346 290/559/307 328/560/347
f 292/561/309 328/560/347 290/559/307
f 329/562/348 293/563/310 327/558/346
f 290/559/307 327/558/346 293/563/310
f 330/564/349 291/514/308 329/565/348
f 293/516/310 329/565/348 291/514/308
f 331/566/350 294/517/311 330/564/349
f 291/514/308 330/564/349 294/517/311
f 332/567/351 295/568/312 333/569/352
f 297/570/314 333/569/352 295/568/312
f 334/571/353 296/572/313 332/567/351
f 295/568/312 332/567/351 296/572/313
f 335/573/354 298/574/315 336/575/355
f 300/576/317 336/575/355 298/574/315
f 337/577/356 299/578/316 335/573/354
f 298/574/315 335/573/354 299/578/316
f 328/560/347 292/561/309 338/579/357
f 301/580/318 338/579/357 292/561/309
f 339/581/358 303/527/321 331/566/350
f 294/517/311 331/566/350 303/527/321
f 3/582/359 2/583/320 339/584/358
f 303/585/321 339/584/358 2/583/320
f 338/579/357 301/580/318 340/586/360
f 302/587/319 340/586/360 301/580/318
f 341/588/361 306/589/324 3/582/359
f 2/583/320 3/582/359 306/589/324
f 340/586/360 302/587/319 342/590/362
f 304/591/322 342/590/362 302/587/319
f 343/592/363 307/593/326 341/588/361
f 306/589/324 341/588/361 307/593/326
f 342/590/362 304/591/322 344/594/364
f 305/595/323 344/594/364 304/591/322
f 345/596/365 308/597/327 343/592/363
f 307/593/326 343/592/363 308/597/327
f 346/598/366 318/599/337 345/600/365
f 308/601/327 345/600/365 318/599/337
f 344/594/364 305/595/323 347/602/367
f 309/603/328 347/602/367 305/595/323
f 347/602/367 309/603/328 348/604/368
f 310/605/329 348/604/368 309/603/328
f 349/606/369 350/607/370 325/556/344
f 326/557/345 325/556/344 350/607/370
f 351/608/371 312/609/331 349/606/369
f 350/607/370 349/606/369 312/609/331
f 352/610/372 353/611/373 354/612/374
f 313/613/332 355/614/375 311/615/330
f 356/616/376 314/617/333 351/608/371
f 312/609/331 351/608/371 314/617/333
f 357/618/377 315/619/334 356/616/376
f 314/617/333 356/616/376 315/619/334
f 355/614/375 313/613/332 8/620/378
f 1/621/325 8/620/378 313/613/332
f 358/622/379 316/623/335 357/618/377
f 315/619/334 357/618/377 316/623/335
f 359/624/380 317/625/336 358/622/379
f 316/623/335 358/622/379 317/625/336
f 360/626/381 319/627/338 346/598/366
f 318/599/337 346/598/366 319/627/338
f 361/628/382 320/549/339 360/629/381
f 319/551/338 360/629/381 320/549/339
f 8/630/378 1/550/325 361/628/382
f 320/549/339 361/628/382 1/550/325
f 336/575/355 300/576/317 359/624/380
f 317/625/336 359/624/380 300/576/317
f 333/569/352 297/570/314 337/577/356
f 299/578/316 337/577/356 297/570/314
f 348/604/368 310/605/329 334/571/353
f 296/572/313 334/571/353 310/605/329
f 289/510/306 5/512/302 361/628/382
f 5/512/302 8/630/378 361/628/382
f 5/502/302 283/495/299 8/620/378
f 283/495/299 355/614/375 8/620/378
f 282/494/298 281/493/297 354/612/374
f 281/493/297 352/610/372 354/612/374
f 278/489/294 274/484/290 362/631/383
f 274/484/290 363/632/384 362/631/383
f 274/484/290 272/482/288 363/632/384
f 272/482/288 364/633/385 363/632/384
f 272/482/288 271/481/287 364/633/385
f 271/481/287 365/634/386 364/633/385
f 271/481/287 248/432/263 365/634/386
f 248/432/263 366/635/387 365/634/386
f 248/432/263 247/431/262 366/635/387
f 247/431/262 367/636/388 366/635/387
f 247/431/262 245/430/260 367/636/388
f 245/430/260 323/637/342 367/636/388
f 288/511/305 289/510/306 360/629/381
f 289/510/306 361/628/382 360/629/381
f 268/474/284 288/509/305 346/598/366
f 288/509/305 360/626/381 346/598/366
f 267/475/283 268/474/284 345/600/365
f 268/474/284 346/598/366 345/600/365
f 343/592/363 265/468/281 345/596/365
f 265/468/281 267/472/283 345/596/365
f 341/588/361 263/464/278 343/592/363
f 263/464/278 265/468/281 343/592/363
f 4/458/279 263/464/278 341/588/361
f 341/588/361 3/582/359 4/458/279
f 261/459/276 4/458/188 3/582/359
f 3/582/359 339/584/358 261/459/276
f 339/581/358 331/566/350 261/456/276
f 331/566/350 253/441/268 261/456/276
f 331/566/350 330/564/349 253/441/268
f 330/564/349 252/439/267 253/441/268
f 330/564/349 329/565/348 252/439/267
f 329/565/348 251/440/266 252/439/267
f 321/552/340 323/554/342 244/425/259
f 244/425/259 323/554/342 245/426/260
f 325/556/344 321/552/340 246/429/261
f 321/552/340 244/425/259 246/429/261
f 349/606/369 325/556/344 276/487/292
f 325/556/344 246/429/261 276/487/292
f 351/608/371 349/606/369 279/491/295
f 349/606/369 276/487/292 279/491/295
f 356/616/376 351/608/371 284/499/300
f 351/608/371 279/491/295 284/499/300
f 357/618/377 356/616/376 285/501/301
f 356/616/376 284/499/300 285/501/301
f 358/622/379 357/618/377 286/505/303
f 357/618/377 285/501/301 286/505/303
f 287/507/304 359/624/380 286/505/303
f 359/624/380 358/622/379 286/505/303
f 258/450/273 336/575/355 287/507/304
f 336/575/355 359/624/380 287/507/304
f 257/449/272 335/573/354 258/450/273
f 335/573/354 336/575/355 258/450/273
f 259/453/274 337/577/356 257/449/272
f 337/577/356 335/573/354 257/449/272
f 255/444/270 333/569/352 259/453/274
f 333/569/352 337/577/356 259/453/274
f 332/567/351 333/569/352 254/443/269
f 333/569/352 255/444/270 254/443/269
f 334/571/353 332/567/351 256/447/271
f 332/567/351 254/443/269 256/447/271
f 348/604/368 334/571/353 270/479/286
f 334/571/353 256/447/271 270/479/286
f 347/602/367 348/604/368 269/477/285
f 348/604/368 270/479/286 269/477/285
f 266/469/282 344/594/364 269/477/285
f 344/594/364 347/602/367 269/477/285
f 264/465/280 342/590/362 266/469/282
f 342/590/362 344/594/364 266/469/282
f 262/461/277 340/586/360 342/590/362
f 262/461/277 342/590/362 264/465/280
f 260/454/275 338/579/357 262/461/277
f 338/579/357 340/586/360 262/461/277
f 250/435/265 328/560/347 260/454/275
f 328/560/347 338/579/357 260/454/275
f 249/434/264 327/558/346 250/435/265
f 327/558/346 328/560/347 250/435/265
f 251/438/266 329/562/348 249/434/264
f 249/434/264 329/562/348 327/558/346
f 235/411/250 199/371/211 231/407/246
f 235/411/250 231/407/246 233/409/248
f 199/371/211 226/402/241 368/638/389
f 199/371/211 368/638/389 231/407/246
f 226/402/241 272/482/288 273/483/289
f 369/639/390 273/483/289 274/484/290
f 228/404/243 370/640/391 371/641/392
f 228/404/243 371/641/392 372/642/393
f 232/408/247 373/643/394 278/489/294
f 274/484/290 277/488/293 369/639/390
f 278/489/294 373/643/394 277/488/293
f 372/642/393 275/485/291 228/404/243
f 322/644/341 326/645/345 324/646/343
f 324/646/343 326/645/345 374/647/395
f 374/647/395 326/645/345 375/648/396
f 375/648/396 326/645/345 376/649/397
f 376/649/397 326/645/345 377/650/398
f 378/651/399 379/652/400 380/653/401
f 379/652/400 381/654/402 380/653/401
f 382/655/403 383/656/404 311/538/330
f 350/657/370 312/539/331 311/538/330
f 323/637/342 324/646/343 367/636/388
f 374/647/395 367/636/388 324/646/343
f 367/636/388 374/647/395 366/635/387
f 375/648/396 366/635/387 374/647/395
f 366/635/387 375/648/396 365/634/386
f 376/649/397 365/634/386 375/648/396
f 365/634/386 376/649/397 364/633/385
f 377/650/398 364/633/385 376/649/397
f 364/633/385 384/658/405 363/632/384
f 380/653/401 385/659/406 378/651/399
f 363/632/384 386/660/407 362/631/383
f 311/538/330 362/631/383 382/655/403
f 326/645/345 350/657/370 383/656/404
f 383/656/404 350/657/370 311/538/330
f 377/650/398 326/645/345 387/661/408
f 387/661/408 326/645/345 383/656/404
f 364/633/385 377/650/398 384/658/405
f 384/658/405 388/662/409 363/632/384
f 389/663/410 378/651/399 390/664/411
f 390/664/411 378/651/399 391/665/412
f 392/666/413 382/655/403 362/631/383
f 386/660/407 363/632/384 388/662/409
f 392/666/413 362/631/383 386/660/407
f 385/659/406 391/665/412 378/651/399
f 227/403/242 368/638/389 226/402/241
f 226/402/241 228/404/243 227/403/242
f 230/406/245 231/407/246 368/638/389
f 368/638/389 227/403/242 230/406/245
f 229/405/244 232/408/247 231/407/246
f 231/407/246 230/406/245 229/405/244
f 275/485/291 373/643/394 232/408/247
f 232/408/247 229/405/244 275/485/291
f 228/404/243 226/402/241 273/483/289
f 273/483/289 370/640/391 228/404/243
f 370/640/391 273/483/289 369/639/390
f 369/639/390 371/641/392 370/640/391
f 371/641/392 369/639/390 277/488/293
f 277/488/293 372/642/393 371/641/392
f 372/642/393 277/488/293 373/643/394
f 373/643/394 275/485/291 372/642/393
f 378/651/399 377/650/398 387/661/408
f 387/661/408 379/652/400 378/651/399
f 381/654/402 383/656/404 382/655/403
f 382/655/403 380/653/401 381/654/402
f 379/652/400 387/661/408 383/656/404
f 383/667/404 381/668/402 379/669/400
f 380/653/401 382/655/403 392/666/413
f 392/666/413 385/659/406 380/653/401
f 389/663/410 384/658/405 377/650/398
f 377/650/398 378/651/399 389/663/410
f 390/664/411 388/662/409 384/658/405
f 384/658/405 389/663/410 390/664/411
f 391/665/412 386/660/407 388/662/409
f 388/662/409 390/664/411 391/665/412
f 385/659/406 392/666/413 386/660/407
f 386/660/407 391/665/412 385/659/406
f 280/492/296 233/497/248 278/670/294
f 278/670/294 281/493/297 280/492/296
f 282/494/298 283/495/299 233/497/248
f 233/497/248 280/492/296 282/494/298
f 353/611/373 311/615/330 355/614/375
f 355/614/375 354/612/374 353/611/373
f 352/610/372 362/671/383 353/611/373
f 311/615/330 353/611/373 362/671/383
f 354/612/374 355/614/375 283/495/299
f 283/495/299 282/494/298 354/612/374
f 281/493/297 278/670/294 362/671/383
f 362/671/383 352/610/372 281/493/297
f 393/672/414 394/673/415 395/674/416
f 396/675/417 397/676/418 394/673/415
f 393/672/414 396/675/417 394/673/415
f 396/675/417 393/672/414 398/677/419
f 399/678/420 393/672/414 395/674/416
f 398/677/419 393/672/414 400/679/421
f 400/679/421 393/672/414 399/678/420
f 401/680/422 400/679/421 399/678/420
f 402/681/423 399/678/420 395/674/416
f 403/682/424 401/680/422 399/678/420
f 402/681/423 403/682/424 399/678/420
f 404/683/425 403/682/424 402/681/423
f 394/673/415 402/681/423 395/674/416
f 405/684/426 404/683/425 402/681/423
f 394/673/415 405/684/426 402/681/423
f 397/676/418 405/684/426 394/673/415
f 406/685/427 397/686/418 396/687/417
f 406/685/427 396/687/417 398/688/419
f 406/685/427 398/688/419 400/689/421
f 406/685/427 400/689/421 401/690/422
f 406/685/427 401/690/422 403/691/424
f 406/685/427 403/691/424 404/692/425
f 406/685/427 404/692/425 405/693/426
f 406/685/427 405/693/426 397/686/418
f 407/694/428 408/695/429 409/696/430
f 407/694/428 410/697/431 408/695/429
f 410/697/431 411/698/432 408/695/429
f 410/697/431 412/699/433 411/698/432
f 412/699/433 409/696/430 411/698/432
f 412/699/433 407/694/428 409/696/430
f 409/696/430 413/700/434 414/701/435
f 409/696/430 408/695/429 413/700/434
f 408/695/429 415/702/436 413/700/434
f 408/695/429 411/698/432 415/702/436
f 411/698/432 414/701/435 415/702/436
f 411/698/432 409/696/430 414/701/435
f 414/701/435 416/703/437 417/704/438
f 414/701/435 413/700/434 416/703/437
f 413/700/434 418/705/439 416/703/437
f 413/700/434 415/702/436 418/705/439
f 415/702/436 417/704/438 418/705/439
f 415/702/436 414/701/435 417/704/438
f 419/706/440 420/707/441 421/708/442
f 419/706/440 421/708/442 422/709/443
f 422/709/443 421/708/442 423/710/444
f 422/709/443 423/710/444 424/711/445
f 424/711/445 423/710/444 420/707/441
f 424/711/445 420/707/441 419/706/440
f 420/707/441 425/712/446 426/713/447
f 420/707/441 426/713/447 421/708/442
f 421/708/442 426/713/447 427/714/448
f 421/708/442 427/714/448 423/710/444
f 423/710/444 427/714/448 425/712/446
f 423/710/444 425/712/446 420/707/441
f 425/712/446 428/715/449 429/716/450
f 425/712/446 429/716/450 426/713/447
f 426/713/447 429/716/450 430/717/451
f 426/713/447 430/717/451 427/714/448
f 427/714/448 430/717/451 428/715/449
f 427/714/448 428/715/449 425/712/446
f 407/694/428 422/709/443 410/697/431
f 422/709/443 407/694/428 419/706/440
f 422/709/443 424/711/445 410/697/431
f 410/697/431 424/711/445 412/699/433
f 419/706/440 407/694/428 412/699/433
f 424/711/445 419/706/440 412/699/433
f 431/718/452 432/719/453 433/720/454
f 434/721/455 431/718/452 433/720/454
f 434/722/455 433/723/454 435/724/456
f 435/724/456 436/725/456 434/722/455
f 432/726/453 431/727/452 437/728/457
f 437/728/457 438/729/457 432/726/453
f 439/730/458 440/731/459 441/732/460
f 442/733/461 439/730/458 441/732/460
f 442/734/461 441/735/460 443/736/456
f 443/736/456 444/737/456 442/734/461
f 440/738/459 439/739/458 445/740/457
f 445/740/457 446/741/457 440/738/459
f 447/742/458 448/743/459 449/744/460
f 450/745/461 447/742/458 449/744/460
f 450/746/461 449/747/460 451/748/456
f 451/748/456 452/749/456 450/746/461
f 448/750/459 447/751/458 453/752/457
f 453/752/457 454/753/457 448/750/459
f 455/754/452 456/755/453 457/756/454
f 458/757/455 455/754/452 457/756/454
f 458/758/455 457/759/454 459/760/456
f 459/760/456 460/761/456 458/758/455
f 456/762/453 455/763/452 461/764/457
f 461/764/457 462/765/457 456/762/453
f 463/766/462 464/767/463 465/768/464
f 463/766/462 466/769/465 464/767/463
f 463/766/462 467/770/466 466/769/465
f 463/766/462 468/771/467 467/770/466
f 463/766/462 469/772/468 468/771/467
f 463/766/462 470/773/469 469/772/468
f 463/766/462 471/774/470 470/773/469
f 463/766/462 465/768/464 471/774/470
f 465/775/464 472/776/471 473/777/472
f 465/775/464 464/778/463 472/776/471
f 464/779/463 474/780/473 472/781/471
f 464/779/463 466/782/465 474/780/473
f 466/783/465 475/784/474 474/785/473
f 466/783/465 467/786/466 475/784/474
f 467/787/466 476/788/475 475/789/474
f 467/787/466 468/790/467 476/788/475
f 468/791/467 477/792/476 476/793/475
f 468/791/467 469/794/468 477/792/476
f 469/795/468 478/796/477 477/797/476
f 469/795/468 470/798/469 478/796/477
f 470/799/469 479/800/478 478/801/477
f 470/799/469 471/802/470 479/800/478
f 471/803/470 473/804/472 479/805/478
f 471/803/470 465/806/464 473/804/472
f 480/807/462 481/808/479 482/809/480
f 480/807/462 483/810/481 481/808/479
f 483/810/481 484/811/482 481/808/479
f 483/810/481 485/812/483 484/811/482
f 485/812/483 486/813/484 484/811/482
f 485/812/483 487/814/485 486/813/484
f 487/814/485 488/815/486 486/813/484
f 487/814/485 489/816/487 488/815/486
f 489/816/487 490/817/488 488/815/486
f 489/816/487 491/818/489 490/817/488
f 491/818/489 482/809/480 490/817/488
f 491/818/489 480/807/462 482/809/480
f 482/809/480 492/819/490 493/820/491
f 482/809/480 481/808/479 492/819/490
f 481/808/479 494/821/492 492/819/490
f 481/808/479 484/811/482 494/821/492
f 484/811/482 495/822/493 494/821/492
f 484/811/482 486/813/484 495/822/493
f 486/813/484 496/823/494 495/822/493
f 486/813/484 488/815/486 496/823/494
f 488/815/486 497/824/495 496/823/494
f 488/815/486 490/817/488 497/824/495
f 490/817/488 493/820/491 497/824/495
f 490/817/488 482/809/480 493/820/491
f 493/820/491 498/825/496 499/826/497
f 493/820/491 492/819/490 498/825/496
f 492/819/490 500/827/498 498/825/496
f 492/819/490 494/821/492 500/827/498
f 494/821/492 501/828/499 500/827/498
f 494/821/492 495/822/493 501/828/499
f 495/822/493 502/829/500 501/828/499
f 495/822/493 496/823/494 502/829/500
f 496/823/494 503/830/501 502/829/500
f 496/823/494 497/824/495 503/830/501
f 497/824/495 499/826/497 503/830/501
f 497/824/495 493/820/491 499/826/497
f 499/826/497 504/831/502 505/832/503
f 499/826/497 498/825/496 504/831/502
f 498/825/496 506/833/504 504/831/502
f 498/825/496 500/827/498 506/833/504
f 500/827/498 507/834/505 506/833/504
f 500/827/498 501/828/499 507/834/505
f 501/828/499 508/835/506 507/834/505
f 501/828/499 502/829/500 508/835/506
f 502/829/500 509/836/507 508/835/506
f 502/829/500 503/830/501 509/836/507
f 503/830/501 505/832/503 509/836/507
f 503/830/501 499/826/497 505/832/503
f 505/832/503 510/837/481 511/838/462
f 505/832/503 504/831/502 510/837/481
f 504/831/502 512/839/483 510/837/481
f 504/831/502 506/833/504 512/839/483
f 506/833/504 513/840/485 512/839/483
f 506/833/504 507/834/505 513/840/485
f 507/834/505 514/841/487 513/840/485
f 507/834/505 508/835/506 514/841/487
f 508/835/506 515/842/489 514/841/487
f 508/835/506 509/836/507 515/842/489
f 509/836/507 511/838/462 515/842/489
f 509/836/507 505/832/503 511/838/462
f 516/843/508 517/844/509 518/845/510
f 516/843/508 519/846/511 517/844/509
f 519/846/511 520/847/512 517/844/509
f 519/846/511 521/848/513 520/847/512
f 521/848/513 522/849/514 520/847/512
f 521/848/513 523/850/515 522/849/514
f 523/850/515 524/851/516 522/849/514
f 523/850/515 525/852/517 524/851/516
f 525/852/517 526/853/518 524/851/516
f 525/852/517 527/854/519 526/853/518
f 527/854/519 518/845/510 526/853/518
f 527/854/519 516/843/508 518/845/510
f 518/845/510 528/855/520 529/856/521
f 518/845/510 517/844/509 528/855/520
f 517/844/509 530/857/522 528/855/520
f 517/844/509 520/847/512 530/857/522
f 520/847/512 531/858/523 530/857/522
f 520/847/512 522/849/514 531/858/523
f 522/849/514 532/859/524 531/858/523
f 522/849/514 524/851/516 532/859/524
f 524/851/516 533/860/525 532/859/524
f 524/851/516 526/853/518 533/860/525
f 526/853/518 529/856/521 533/860/525
f 526/853/518 518/845/510 529/856/521
f 529/856/521 534/861/526 535/862/527
f 529/856/521 528/855/520 534/861/526
f 528/855/520 536/863/528 534/861/526
f 528/855/520 530/857/522 536/863/528
f 530/857/522 537/864/529 536/863/528
f 530/857/522 531/858/523 537/864/529
f 531/858/523 538/865/530 537/864/529
f 531/858/523 532/859/524 538/865/530
f 532/859/524 539/866/531 538/865/530
f 532/859/524 533/860/525 539/866/531
f 533/860/525 535/862/527 539/866/531
f 533/860/525 529/856/521 535/862/527
f 540/867/462 541/868/479 542/869/480
f 540/867/462 543/870/481 541/868/479
f 543/870/481 544/871/482 541/868/479
f 543/870/481 545/872/483 544/871/482
f 545/872/483 546/873/484 544/871/482
f 545/872/483 547/874/485 546/873/484
f 547/874/485 548/875/486 546/873/484
f 547/874/485 549/876/487 548/875/486
f 549/876/487 550/877/532 548/875/486
f 549/876/487 551/878/489 550/877/532
f 551/878/489 542/869/480 550/877/532
f 551/878/489 540/867/462 542/869/480
f 542/869/480 552/879/490 553/880/491
f 542/869/480 541/868/479 552/879/490
f 541/868/479 554/881/492 552/879/490
f 541/868/479 544/871/482 554/881/492
f 544/871/482 555/882/493 554/881/492
f 544/871/482 546/873/484 555/882/493
f 546/873/484 556/883/494 555/882/493
f 546/873/484 548/875/486 556/883/494
f 548/875/486 557/884/495 556/883/494
f 548/875/486 550/877/532 557/884/495
f 550/877/532 553/880/491 557/884/495
f 550/877/532 542/869/480 553/880/491
f 553/880/491 558/885/496 559/886/497
f 553/880/491 552/879/490 558/885/496
f 552/879/490 560/887/498 558/885/496
f 552/879/490 554/881/492 560/887/498
f 554/881/492 561/888/499 560/887/498
f 554/881/492 555/882/493 561/888/499
f 555/882/493 562/889/500 561/888/499
f 555/882/493 556/883/494 562/889/500
f 556/883/494 563/890/501 562/889/500
f 556/883/494 557/884/495 563/890/501
f 557/884/495 559/886/497 563/890/501
f 557/884/495 553/880/491 559/886/497
f 559/886/497 564/891/502 565/892/503
f 559/886/497 558/885/496 564/891/502
f 558/885/496 566/893/504 564/891/502
f 558/885/496 560/887/498 566/893/504
f 560/887/498 567/894/505 566/893/504
f 560/887/498 561/888/499 567/894/505
f 561/888/499 568/895/506 567/894/505
f 561/888/499 562/889/500 568/895/506
f 562/889/500 569/896/533 568/895/506
f 562/889/500 563/890/501 569/896/533
f 563/890/501 565/892/503 569/896/533
f 563/890/501 559/886/497 565/892/503
f 565/892/503 570/897/481 571/898/462
f 565/892/503 564/891/502 570/897/481
f 564/891/502 572/899/483 570/897/481
f 564/891/502 566/893/504 572/899/483
f 566/893/504 573/900/485 572/899/483
f 566/893/504 567/894/505 573/900/485
f 567/894/505 574/901/487 573/900/485
f 567/894/505 568/895/506 574/901/487
f 568/895/506 575/902/489 574/901/487
f 568/895/506 569/896/533 575/902/489
f 569/896/533 571/898/462 575/902/489
f 569/896/533 565/892/503 571/898/462
