# Blender v3.0.1 OBJ File: ''
# www.blender.org
mtllib tractor_wheel.mtl
o Mesh_wheel_Cylinder01x
v 7.925900 -0.026900 -0.015200
v 15.275400 -22.602304 8.201491
v 15.275400 -24.051100 -0.015209
v 15.275400 -18.430504 15.427194
v 15.275400 -12.039008 20.790297
v 15.275400 -4.198709 23.643999
v 15.275400 4.144891 23.643999
v 15.275400 11.985191 20.790304
v 15.275400 18.376696 15.427207
v 15.275400 22.548496 8.201509
v 15.275400 23.997299 -0.015191
v 15.275400 22.548504 -8.231992
v 15.275400 18.376703 -15.457693
v 15.275400 11.985209 -20.820797
v 15.275400 4.144809 -23.674500
v 15.275400 -4.198691 -23.674500
v 15.275400 -12.038991 -20.820805
v 15.275400 -18.430496 -15.457705
v 15.275400 -22.602297 -8.232009
v 12.014500 -28.070904 10.191889
v 12.014500 -29.870701 -0.015211
v 12.014500 -22.888508 19.167990
v 12.014500 -14.948809 25.830196
v 12.014500 -5.209211 29.375099
v 12.014500 5.155388 29.375099
v 12.014500 14.894992 25.830204
v 12.014500 22.834793 19.168009
v 12.014500 28.017096 10.191911
v 12.014500 29.816900 -0.015189
v 12.014500 28.017103 -10.222389
v 12.014500 22.834707 -19.198391
v 12.014500 14.895009 -25.860697
v 12.014500 5.155411 -29.405600
v 12.014500 -5.209188 -29.405600
v 12.014500 -14.948792 -25.860704
v 12.014500 -22.888493 -19.198410
v 12.014500 -28.070896 -10.222409
v -12.140100 -28.070904 10.191889
v -12.140100 -29.870600 -0.015211
v -12.140100 -22.888508 19.167990
v -12.140100 -14.948809 25.830196
v -12.140100 -5.209211 29.375099
v -12.140100 5.155388 29.375099
v -12.140100 14.894992 25.830204
v -12.140100 22.834793 19.168009
v -12.140100 28.017096 10.191911
v -12.140100 29.816900 -0.015189
v -12.140100 28.017103 -10.222389
v -12.140100 22.834707 -19.198391
v -12.140100 14.895009 -25.860697
v -12.140100 5.155411 -29.405600
v -12.140100 -5.209188 -29.405600
v -12.140100 -14.948792 -25.860704
v -12.140100 -22.888493 -19.198410
v -12.140100 -28.070896 -10.222409
v -15.400900 -22.602304 8.201491
v -15.400900 -24.051100 -0.015209
v -15.400900 -18.430504 15.427194
v -15.400900 -12.039008 20.790297
v -15.400900 -4.198709 23.643999
v -15.400900 4.144891 23.643999
v -15.400900 11.985191 20.790304
v -15.400900 18.376696 15.427207
v -15.400900 22.548496 8.201509
v -15.400900 23.997299 -0.015191
v -15.400900 22.548504 -8.231992
v -15.400900 18.376703 -15.457693
v -15.400900 11.985209 -20.820797
v -15.400900 4.144809 -23.674500
v -15.400900 -4.198691 -23.674500
v -15.400900 -12.038991 -20.820805
v -15.400900 -18.430496 -15.457705
v -15.400900 -22.602297 -8.232009
v -8.051400 -0.026900 -0.015200
vt 0.346260 0.684044
vt 0.414079 0.733577
vt 0.418463 0.684044
vt 0.401572 0.777436
vt 0.382361 0.809682
vt 0.358767 0.826968
vt 0.333752 0.826968
vt 0.310157 0.809682
vt 0.290947 0.777436
vt 0.278440 0.733577
vt 0.274056 0.684044
vt 0.278440 0.634254
vt 0.290947 0.590656
vt 0.310157 0.558151
vt 0.333752 0.540865
vt 0.358767 0.540865
vt 0.382361 0.558151
vt 0.401572 0.590656
vt 0.414079 0.634254
vt 0.430583 0.745702
vt 0.435997 0.684044
vt 0.414982 0.799879
vt 0.391128 0.840379
vt 0.361861 0.861795
vt 0.330658 0.861795
vt 0.301391 0.840379
vt 0.277537 0.799879
vt 0.261936 0.745702
vt 0.256521 0.684044
vt 0.261936 0.622129
vt 0.277537 0.567954
vt 0.301391 0.527709
vt 0.330658 0.506296
vt 0.361861 0.506296
vt 0.391128 0.527709
vt 0.414982 0.567954
vt 0.430583 0.622129
vt 0.477835 0.898174
vt 0.516156 0.743107
vt 0.477835 0.743107
vt 0.516156 0.898174
vt 0.477835 0.743107
vt 0.477835 0.898174
vt 0.516156 0.743107
vt 0.516156 0.898174
vt 0.477835 0.743107
vt 0.477835 0.898174
vt 0.516156 0.743107
vt 0.516156 0.898174
vt 0.477835 0.743107
vt 0.477835 0.898174
vt 0.516156 0.743107
vt 0.516156 0.898174
vt 0.477835 0.743107
vt 0.477835 0.898174
vt 0.516156 0.743107
vt 0.516156 0.898174
vt 0.477835 0.743107
vt 0.477835 0.898174
vt 0.516156 0.743107
vt 0.516156 0.898174
vt 0.477835 0.743107
vt 0.477835 0.898174
vt 0.516156 0.743107
vt 0.516156 0.898174
vt 0.477835 0.743107
vt 0.477835 0.898174
vt 0.516156 0.743107
vt 0.516156 0.898174
vt 0.477835 0.743107
vt 0.477835 0.898174
vt 0.516156 0.743107
vt 0.516156 0.898174
vt 0.435997 0.684044
vt 0.414079 0.733577
vt 0.418463 0.684044
vt 0.430583 0.745702
vt 0.401572 0.777436
vt 0.414982 0.799879
vt 0.382361 0.809682
vt 0.391128 0.840379
vt 0.358767 0.826968
vt 0.361861 0.861795
vt 0.333752 0.826968
vt 0.330658 0.861795
vt 0.310157 0.809682
vt 0.301391 0.840379
vt 0.290947 0.777436
vt 0.277537 0.799879
vt 0.278440 0.733577
vt 0.261936 0.745702
vt 0.274056 0.684044
vt 0.256521 0.684044
vt 0.278440 0.634254
vt 0.261936 0.622129
vt 0.290947 0.590656
vt 0.277537 0.567954
vt 0.310157 0.558151
vt 0.301391 0.527709
vt 0.333752 0.540865
vt 0.330658 0.506296
vt 0.358767 0.540865
vt 0.361861 0.506296
vt 0.382361 0.558151
vt 0.391128 0.527709
vt 0.401572 0.590656
vt 0.414982 0.567954
vt 0.414079 0.634254
vt 0.430583 0.622129
vt 0.346260 0.684044
vn 1.0000 -0.0000 -0.0000
vn 0.9888 -0.1404 0.0511
vn 0.9888 -0.1494 0.0000
vn 0.9888 -0.1145 0.0960
vn 0.9888 -0.0747 0.1294
vn 0.9888 -0.0259 0.1472
vn 0.9888 0.0259 0.1472
vn 0.9888 0.0747 0.1294
vn 0.9888 0.1145 0.0960
vn 0.9888 0.1404 0.0511
vn 0.9888 0.1494 -0.0000
vn 0.9888 0.1404 -0.0511
vn 0.9888 0.1145 -0.0960
vn 0.9888 0.0747 -0.1294
vn 0.9888 0.0259 -0.1472
vn 0.9888 -0.0259 -0.1472
vn 0.9888 -0.0747 -0.1294
vn 0.9888 -0.1145 -0.0960
vn 0.9888 -0.1404 -0.0511
vn 0.4826 -0.8230 0.2996
vn 0.4826 -0.8758 0.0000
vn 0.4826 -0.6709 0.5630
vn 0.4826 -0.4379 0.7585
vn 0.4826 -0.1521 0.8625
vn 0.4826 0.1521 0.8625
vn 0.4826 0.4379 0.7585
vn 0.4826 0.6709 0.5630
vn 0.4826 0.8230 0.2996
vn 0.4826 0.8758 0.0000
vn 0.4826 0.8230 -0.2996
vn 0.4826 0.6709 -0.5630
vn 0.4826 0.4379 -0.7585
vn 0.4826 0.1521 -0.8625
vn 0.4826 -0.1521 -0.8625
vn 0.4826 -0.4379 -0.7585
vn 0.4826 -0.6709 -0.5630
vn 0.4826 -0.8230 -0.2996
vn -0.4826 -0.8230 0.2996
vn -0.4826 -0.8758 -0.0000
vn -0.4826 -0.6709 0.5630
vn -0.4826 -0.4379 0.7585
vn -0.4826 -0.1521 0.8625
vn -0.4826 0.1521 0.8625
vn -0.4826 0.4379 0.7585
vn -0.4826 0.6709 0.5630
vn -0.4826 0.8230 0.2996
vn -0.4826 0.8758 0.0000
vn -0.4826 0.8230 -0.2996
vn -0.4826 0.6709 -0.5630
vn -0.4826 0.4379 -0.7585
vn -0.4826 0.1521 -0.8625
vn -0.4826 -0.1521 -0.8625
vn -0.4826 -0.4379 -0.7585
vn -0.4826 -0.6709 -0.5630
vn -0.4826 -0.8230 -0.2996
vn -0.9888 -0.1404 0.0511
vn -0.9888 -0.1494 0.0000
vn -0.9888 -0.1145 0.0960
vn -0.9888 -0.0747 0.1294
vn -0.9888 -0.0259 0.1471
vn -0.9888 0.0259 0.1471
vn -0.9888 0.0747 0.1294
vn -0.9888 0.1145 0.0960
vn -0.9888 0.1404 0.0511
vn -0.9888 0.1494 0.0000
vn -0.9888 0.1404 -0.0511
vn -0.9888 0.1145 -0.0960
vn -0.9888 0.0747 -0.1294
vn -0.9888 0.0259 -0.1471
vn -0.9888 -0.0259 -0.1471
vn -0.9888 -0.0747 -0.1294
vn -0.9888 -0.1145 -0.0960
vn -0.9888 -0.1404 -0.0511
vn -1.0000 -0.0000 -0.0000
usemtl _tractor.png
s 1
f 1/1/1 2/2/2 3/3/3
f 1/1/1 4/4/4 2/2/2
f 1/1/1 5/5/5 4/4/4
f 1/1/1 6/6/6 5/5/5
f 1/1/1 7/7/7 6/6/6
f 1/1/1 8/8/8 7/7/7
f 1/1/1 9/9/9 8/8/8
f 1/1/1 10/10/10 9/9/9
f 1/1/1 11/11/11 10/10/10
f 1/1/1 12/12/12 11/11/11
f 1/1/1 13/13/13 12/12/12
f 1/1/1 14/14/14 13/13/13
f 1/1/1 15/15/15 14/14/14
f 1/1/1 16/16/16 15/15/15
f 1/1/1 17/17/17 16/16/16
f 1/1/1 18/18/18 17/17/17
f 1/1/1 19/19/19 18/18/18
f 1/1/1 3/3/3 19/19/19
f 3/3/3 20/20/20 21/21/21
f 3/3/3 2/2/2 20/20/20
f 2/2/2 22/22/22 20/20/20
f 2/2/2 4/4/4 22/22/22
f 4/4/4 23/23/23 22/22/22
f 4/4/4 5/5/5 23/23/23
f 5/5/5 24/24/24 23/23/23
f 5/5/5 6/6/6 24/24/24
f 6/6/6 25/25/25 24/24/24
f 6/6/6 7/7/7 25/25/25
f 7/7/7 26/26/26 25/25/25
f 7/7/7 8/8/8 26/26/26
f 8/8/8 27/27/27 26/26/26
f 8/8/8 9/9/9 27/27/27
f 9/9/9 28/28/28 27/27/27
f 9/9/9 10/10/10 28/28/28
f 10/10/10 29/29/29 28/28/28
f 10/10/10 11/11/11 29/29/29
f 11/11/11 30/30/30 29/29/29
f 11/11/11 12/12/12 30/30/30
f 12/12/12 31/31/31 30/30/30
f 12/12/12 13/13/13 31/31/31
f 13/13/13 32/32/32 31/31/31
f 13/13/13 14/14/14 32/32/32
f 14/14/14 33/33/33 32/32/32
f 14/14/14 15/15/15 33/33/33
f 15/15/15 34/34/34 33/33/33
f 15/15/15 16/16/16 34/34/34
f 16/16/16 35/35/35 34/34/34
f 16/16/16 17/17/17 35/35/35
f 17/17/17 36/36/36 35/35/35
f 17/17/17 18/18/18 36/36/36
f 18/18/18 37/37/37 36/36/36
f 18/18/18 19/19/19 37/37/37
f 19/19/19 21/21/21 37/37/37
f 19/19/19 3/3/3 21/21/21
f 21/38/21 38/39/38 39/40/39
f 21/38/21 20/41/20 38/39/38
f 20/41/20 40/42/40 38/39/38
f 20/41/20 22/43/22 40/42/40
f 22/43/22 41/44/41 40/42/40
f 22/43/22 23/45/23 41/44/41
f 23/45/23 42/46/42 41/44/41
f 23/45/23 24/47/24 42/46/42
f 24/47/24 43/48/43 42/46/42
f 24/47/24 25/49/25 43/48/43
f 25/49/25 44/50/44 43/48/43
f 25/49/25 26/51/26 44/50/44
f 26/51/26 45/52/45 44/50/44
f 26/51/26 27/53/27 45/52/45
f 27/53/27 46/54/46 45/52/45
f 27/53/27 28/55/28 46/54/46
f 28/55/28 47/56/47 46/54/46
f 28/55/28 29/57/29 47/56/47
f 29/57/29 48/58/48 47/56/47
f 29/57/29 30/59/30 48/58/48
f 30/59/30 49/60/49 48/58/48
f 30/59/30 31/61/31 49/60/49
f 31/61/31 50/62/50 49/60/49
f 31/61/31 32/63/32 50/62/50
f 32/63/32 51/64/51 50/62/50
f 32/63/32 33/65/33 51/64/51
f 33/65/33 52/66/52 51/64/51
f 33/65/33 34/67/34 52/66/52
f 34/67/34 53/68/53 52/66/52
f 34/67/34 35/69/35 53/68/53
f 35/69/35 54/70/54 53/68/53
f 35/69/35 36/71/36 54/70/54
f 36/71/36 55/72/55 54/70/54
f 36/71/36 37/73/37 55/72/55
f 37/73/37 39/40/39 55/72/55
f 37/73/37 21/38/21 39/40/39
f 39/74/39 56/75/56 57/76/57
f 39/74/39 38/77/38 56/75/56
f 38/77/38 58/78/58 56/75/56
f 38/77/38 40/79/40 58/78/58
f 40/79/40 59/80/59 58/78/58
f 40/79/40 41/81/41 59/80/59
f 41/81/41 60/82/60 59/80/59
f 41/81/41 42/83/42 60/82/60
f 42/83/42 61/84/61 60/82/60
f 42/83/42 43/85/43 61/84/61
f 43/85/43 62/86/62 61/84/61
f 43/85/43 44/87/44 62/86/62
f 44/87/44 63/88/63 62/86/62
f 44/87/44 45/89/45 63/88/63
f 45/89/45 64/90/64 63/88/63
f 45/89/45 46/91/46 64/90/64
f 46/91/46 65/92/65 64/90/64
f 46/91/46 47/93/47 65/92/65
f 47/93/47 66/94/66 65/92/65
f 47/93/47 48/95/48 66/94/66
f 48/95/48 67/96/67 66/94/66
f 48/95/48 49/97/49 67/96/67
f 49/97/49 68/98/68 67/96/67
f 49/97/49 50/99/50 68/98/68
f 50/99/50 69/100/69 68/98/68
f 50/99/50 51/101/51 69/100/69
f 51/101/51 70/102/70 69/100/69
f 51/101/51 52/103/52 70/102/70
f 52/103/52 71/104/71 70/102/70
f 52/103/52 53/105/53 71/104/71
f 53/105/53 72/106/72 71/104/71
f 53/105/53 54/107/54 72/106/72
f 54/107/54 73/108/73 72/106/72
f 54/107/54 55/109/55 73/108/73
f 55/109/55 57/76/57 73/108/73
f 55/109/55 39/74/39 57/76/57
f 74/110/74 57/76/57 56/75/56
f 74/110/74 56/75/56 58/78/58
f 74/110/74 58/78/58 59/80/59
f 74/110/74 59/80/59 60/82/60
f 74/110/74 60/82/60 61/84/61
f 74/110/74 61/84/61 62/86/62
f 74/110/74 62/86/62 63/88/63
f 74/110/74 63/88/63 64/90/64
f 74/110/74 64/90/64 65/92/65
f 74/110/74 65/92/65 66/94/66
f 74/110/74 66/94/66 67/96/67
f 74/110/74 67/96/67 68/98/68
f 74/110/74 68/98/68 69/100/69
f 74/110/74 69/100/69 70/102/70
f 74/110/74 70/102/70 71/104/71
f 74/110/74 71/104/71 72/106/72
f 74/110/74 72/106/72 73/108/73
f 74/110/74 73/108/73 57/76/57
