# Blender 4.0.2
# www.blender.org
mtllib lancia.mtl
o 05BonCam.001
v 0.521921 -0.112842 0.587873
v 0.548955 -0.110622 0.550366
v 0.498626 -0.090080 0.620027
v 0.566633 -0.099138 0.525771
v 0.582677 -0.075237 0.502998
v 0.596326 -0.023486 0.481454
v 0.607709 0.061809 0.460577
v 0.482663 0.128527 0.640215
v 0.485000 -0.071199 0.638795
v 0.611741 0.338167 0.422279
v 0.585124 0.653932 0.409856
v 0.579449 0.657807 0.415660
v 0.598934 0.519997 0.411525
v -0.598555 -0.024614 0.479998
v -0.583583 -0.072904 0.503797
v -0.611001 0.092235 0.454689
v -0.570851 -0.099977 0.523028
v -0.554829 -0.113000 0.545719
v -0.504376 -0.101824 0.613639
v -0.533526 -0.114595 0.574885
v -0.612952 0.283606 0.429247
v -0.615545 0.178817 0.442285
v -0.604407 0.447478 0.415270
v -0.415140 0.448793 0.640965
v -0.386245 0.483231 0.639866
v -0.425006 0.450203 0.633925
v -0.253975 1.195392 0.380597
v 0.002739 1.267798 0.374050
v -0.184111 1.230342 0.372255
v -0.078381 1.258487 0.370401
v 0.198240 1.225647 0.370155
v 0.096159 1.255889 0.369875
v 0.298857 1.155246 0.373868
v 0.483071 0.902792 0.395453
v 0.431980 0.992333 0.399768
v 0.540817 0.776417 0.400224
v -0.592185 0.580491 0.426691
v -0.608726 0.639790 0.442414
v -0.582202 0.581926 0.449898
v -0.656792 0.641580 0.425688
v -0.662331 0.565817 0.417263
v -0.608464 0.575461 0.478552
v -0.648645 0.642830 0.465313
v -0.647441 0.662951 0.444158
v -0.656792 0.641580 0.425688
v -0.648645 0.642830 0.465313
v -0.667979 0.562484 0.488289
v -0.682329 0.630485 0.449435
v -0.656792 0.641580 0.425688
v -0.696818 0.558086 0.429453
v -0.656792 0.641580 0.425688
v -0.662331 0.565817 0.417263
v -0.701108 0.556080 0.465869
v -0.648645 0.642830 0.465313
v -0.662331 0.565817 0.417263
v -0.592185 0.580491 0.426691
v -0.582202 0.581926 0.449898
v -0.608464 0.575461 0.478552
v -0.696818 0.558086 0.429453
v -0.667979 0.562484 0.488289
v -0.701108 0.556080 0.465869
v -0.635313 0.613126 0.430703
v -0.579640 0.586123 0.300548
v -0.624465 0.641194 0.437924
v -0.579640 0.586123 0.300548
v -0.656792 0.641580 0.425688
v -0.635313 0.613126 0.430703
v -0.579640 0.586123 0.300548
v -0.483124 -0.341286 0.631004
v -0.483124 -0.193432 0.642206
v -0.647333 -0.216501 0.427617
v -0.647333 -0.795354 0.433743
v -0.416773 -0.344557 0.657961
v -0.337122 -0.188541 0.669256
v -0.300706 0.060628 0.672789
v -0.478001 0.126762 0.647160
v -0.249370 0.357261 0.670891
v -0.421387 0.430771 0.647160
v -0.296787 0.569860 0.647160
v -0.092752 0.629097 0.646141
v -0.064190 0.367290 0.673468
v 0.000000 0.062603 0.677835
v 0.000000 -0.184591 0.674733
v 0.000000 -0.334203 0.663408
v -0.563006 -0.814410 0.433727
v -0.713066 -1.062869 0.387174
v -0.359573 -1.085999 0.404348
v 0.000000 -0.814133 0.438557
v 0.362582 -1.085999 0.404348
v -0.347074 -1.320402 0.372422
v 0.350083 -1.320402 0.372422
v -0.703824 -1.317485 0.364630
v -0.338202 -1.454460 0.426722
v 0.338186 -1.454460 0.426722
v -0.748896 -1.454460 0.426722
v -0.049593 0.389927 0.696706
v 0.064190 0.367290 0.673468
v 0.049593 0.389927 0.696706
v -0.062122 0.629914 0.712059
v 0.062123 0.629914 0.712059
v 0.249370 0.357261 0.670891
v 0.092752 0.629097 0.646141
v 0.296787 0.569860 0.647160
v 0.421387 0.430771 0.647160
v 0.300706 0.060628 0.672789
v 0.478001 0.126762 0.647160
v 0.337122 -0.188541 0.669256
v 0.483139 -0.193432 0.642206
v 0.416789 -0.344557 0.657961
v 0.483139 -0.341286 0.631004
v 0.647349 -0.216501 0.427617
v 0.647348 -0.795354 0.433743
v 0.563022 -0.814410 0.433727
v 0.721970 -0.244630 0.384304
v 0.721491 0.220070 0.373966
v 0.635436 0.186339 0.412680
v 0.719501 0.732403 0.350836
v 0.590920 0.685155 0.396586
v 0.719701 -0.784568 0.396432
v 0.441755 1.022879 0.381881
v 0.716168 1.041349 0.326579
v 0.713082 -1.062869 0.387174
v 0.703839 -1.317485 0.364630
v 0.748895 -1.454460 0.426722
v 0.514402 -0.691687 0.492308
v 0.482290 -0.580300 0.545464
v 0.445576 -0.465979 0.600024
v 0.414176 -0.348803 0.632518
v -0.721476 0.220070 0.373966
v -0.635421 0.186339 0.412680
v -0.719485 0.732403 0.350836
v -0.590904 0.685155 0.396586
v -0.721954 -0.244630 0.384304
v -0.719686 -0.784568 0.396432
v -0.441739 1.022879 0.381881
v -0.716152 1.041349 0.326579
v -0.800927 0.270265 0.111218
v -0.721476 0.220070 0.373966
v -0.719485 0.732403 0.350836
v -0.797424 0.756412 0.102778
v -0.721954 -0.244630 0.384304
v -0.800633 -0.343230 0.118424
v -0.716152 1.041349 0.326579
v -0.791915 1.211237 0.095680
v -0.773661 -0.509445 0.247730
v -0.719686 -0.784568 0.396432
v -0.770482 -0.751933 0.290379
v -0.672392 0.737418 -0.211338
v -0.676712 0.307112 -0.207110
v -0.679536 -0.224540 -0.201910
v -0.665263 1.146522 -0.215936
v -0.768770 -1.040665 0.263592
v -0.713066 -1.062869 0.387174
v -0.764156 -1.192885 0.261494
v -0.703824 -1.317485 0.364630
v -0.793767 -0.995238 0.188724
v -0.792733 -1.217173 0.261432
v -0.788660 -1.369979 0.199634
v -0.733481 -1.113836 -0.028859
v -0.714471 -1.361817 0.063492
v -0.782333 -1.328379 0.336516
v -0.782333 -1.417659 0.316565
v -0.748896 -1.454460 0.426722
v -0.908599 -0.917500 0.122621
v -0.912256 -0.753414 0.191471
v -0.910636 -0.550290 0.159993
v -0.904341 -0.420212 0.004162
v -0.880671 -0.380695 -0.226706
v -0.897366 -1.037672 -0.110500
v -0.484296 -1.138046 -0.097755
v -0.484296 -1.138046 -0.097755
v -0.439178 -1.361817 0.024916
v -0.714471 -1.361817 0.063492
v -0.733481 -1.113836 -0.028859
v -0.407084 -1.352295 0.020643
v -0.400538 -1.136869 -0.096792
v 0.733496 -1.113836 -0.028859
v 0.714486 -1.361817 0.063492
v 0.484312 -1.138046 -0.097755
v 0.439193 -1.361817 0.024916
v 0.410367 -1.353266 0.021079
v 0.413534 -1.137052 -0.096941
v -0.092752 0.629097 0.646141
v -0.062122 0.629914 0.712059
v 0.062123 0.629914 0.712059
v 0.092752 0.629097 0.646141
v 0.719501 0.732403 0.350836
v 0.721491 0.220070 0.373966
v 0.800942 0.270264 0.111218
v 0.797439 0.756412 0.102778
v 0.721970 -0.244630 0.384304
v 0.800649 -0.343230 0.118424
v 0.716168 1.041349 0.326579
v 0.791931 1.211237 0.095680
v 0.773677 -0.509445 0.247730
v 0.719701 -0.784568 0.396432
v 0.770498 -0.751933 0.290379
v 0.672407 0.737418 -0.211338
v 0.676728 0.307112 -0.207110
v 0.679552 -0.224540 -0.201910
v 0.665279 1.146522 -0.215936
v 0.768785 -1.040665 0.263592
v 0.713082 -1.062869 0.387174
v 0.764171 -1.192885 0.261494
v 0.703839 -1.317485 0.364630
v 0.793782 -0.995238 0.188724
v 0.792748 -1.217173 0.261432
v 0.788675 -1.369979 0.199634
v 0.733496 -1.113836 -0.028859
v 0.714486 -1.361817 0.063492
v 0.782348 -1.328379 0.336516
v 0.782348 -1.417659 0.316565
v 0.748895 -1.454460 0.426722
v 0.908615 -0.917500 0.122621
v 0.912272 -0.753414 0.191471
v 0.910652 -0.550290 0.159993
v 0.904356 -0.420212 0.004162
v 0.880686 -0.380695 -0.226706
v 0.897381 -1.037672 -0.110500
v 0.484312 -1.138046 -0.097755
v 0.000000 -0.814133 0.438557
v -0.562969 -0.814383 0.433740
v -0.511629 -0.697730 0.489449
v -0.511629 -0.697730 0.489449
v -0.443614 -0.470197 0.598018
v -0.472030 -0.581610 0.544862
v -0.402492 -0.343932 0.634855
v -0.402492 -0.343932 0.634855
v -0.443614 -0.470197 0.598018
v -0.413776 -0.471095 0.634488
v 0.000000 -0.468947 0.636890
v 0.000000 -0.341471 0.636728
v 0.414176 -0.348803 0.632518
v 0.417120 -0.465948 0.636936
v 0.445576 -0.465979 0.600024
v -0.447628 -0.581706 0.581707
v 0.000000 -0.580943 0.584419
v -0.443614 -0.470197 0.598018
v 0.000000 -0.470674 0.599470
v 0.006632 -0.470645 0.599458
v 0.445576 -0.465979 0.600024
v 0.451741 -0.583421 0.580876
v -0.472030 -0.581610 0.544862
v -0.484921 -0.697103 0.526642
v 0.000000 -0.697531 0.529797
v 0.000000 -0.586100 0.545392
v 0.005039 -0.586112 0.545358
v 0.482290 -0.580300 0.545464
v 0.486431 -0.691007 0.529529
v -0.472030 -0.581610 0.544862
v -0.511629 -0.697730 0.489449
v -0.525015 -0.816618 0.469621
v 0.000000 -0.811262 0.476513
v 0.000000 -0.697051 0.493410
v 0.005147 -0.811160 0.476518
v 0.514402 -0.691687 0.492308
v 0.524735 -0.806337 0.474486
v 0.563022 -0.814410 0.433727
v 0.482290 -0.580300 0.545464
v -0.525015 -0.816618 0.469621
v -0.562969 -0.814383 0.433740
v 0.451741 -0.583421 0.580876
v 0.000000 -0.334203 0.663408
v 0.000000 -0.341471 0.636728
v 0.416789 -0.344557 0.657961
v 0.414176 -0.348803 0.632518
v -0.402492 -0.343932 0.634855
v -0.416773 -0.344557 0.657961
v -0.402492 -0.343932 0.634855
v -0.443614 -0.470197 0.598018
v 0.000000 -0.470674 0.599470
v -0.413776 -0.471095 0.634488
v 0.000000 -0.468947 0.636890
v 0.006632 -0.470645 0.599458
v 0.445576 -0.465979 0.600024
v 0.417120 -0.465948 0.636936
v -0.472030 -0.581610 0.544862
v 0.000000 -0.586100 0.545392
v -0.447628 -0.581706 0.581707
v 0.000000 -0.580943 0.584419
v 0.005039 -0.586112 0.545358
v 0.482290 -0.580300 0.545464
v 0.451741 -0.583421 0.580876
v -0.511629 -0.697730 0.489449
v 0.000000 -0.697051 0.493410
v -0.484921 -0.697103 0.526642
v 0.000000 -0.697531 0.529797
v 0.486431 -0.691007 0.529529
v 0.514402 -0.691687 0.492308
v -0.562969 -0.814383 0.433740
v 0.000000 -0.814133 0.438557
v -0.525015 -0.816618 0.469621
v 0.000000 -0.811262 0.476513
v 0.563022 -0.814410 0.433727
v 0.005147 -0.811160 0.476518
v 0.524735 -0.806337 0.474486
v -0.714471 -1.361817 0.063492
v -0.591769 -1.387138 0.239074
v -0.788660 -1.369979 0.199634
v -0.782333 -1.417659 0.316565
v -0.395279 -1.361817 0.109875
v -0.748896 -1.454460 0.426722
v -0.338202 -1.454460 0.426722
v -0.302095 -1.390162 0.247560
v -0.367805 -1.370174 0.150469
v -0.439178 -1.361817 0.024916
v -0.395279 -1.361817 0.109875
v -0.714471 -1.361817 0.063492
v -0.403783 -1.358046 0.067132
v -0.407084 -1.352295 0.020643
v -0.302095 -1.390162 0.247560
v 0.338186 -1.454460 0.426722
v -0.338202 -1.454460 0.426722
v 0.305104 -1.390162 0.247560
v 0.269749 -1.365086 0.172866
v 0.329081 -1.370854 0.169092
v -0.270537 -1.365947 0.175428
v 0.374110 -1.368467 0.142179
v -0.321901 -1.370133 0.169111
v -0.367805 -1.370174 0.150469
v 0.714486 -1.361817 0.063492
v 0.395263 -1.361817 0.109875
v 0.439193 -1.361817 0.024916
v 0.407384 -1.358769 0.065197
v 0.410367 -1.353266 0.021079
v 0.788675 -1.369979 0.199634
v 0.591768 -1.387138 0.239074
v 0.714486 -1.361817 0.063492
v 0.782348 -1.417659 0.316565
v 0.395263 -1.361817 0.109875
v 0.748895 -1.454460 0.426722
v 0.338186 -1.454460 0.426722
v 0.305104 -1.390162 0.247560
v 0.374110 -1.368467 0.142179
v -0.265155 -1.361817 0.163125
v 0.265139 -1.361817 0.163125
v 0.141573 -1.318797 0.005613
v -0.141573 -1.318797 0.005613
v -0.294179 -1.318797 0.005613
v -0.395279 -1.361817 0.109875
v 0.000000 -1.131241 -0.092185
v 0.294164 -1.318797 0.005613
v 0.395263 -1.361817 0.109875
v -0.367805 -1.370174 0.150469
v 0.374110 -1.368467 0.142179
v 0.141573 -1.301422 -0.059118
v 0.141573 -1.318797 0.005613
v -0.141573 -1.301422 -0.059118
v -0.141573 -1.318797 0.005613
v -0.693130 -0.224555 -0.201894
v -0.678641 1.146522 -0.215920
v 0.693130 -0.224555 -0.201894
v -0.505878 1.146522 -0.215920
v 0.500337 1.146522 -0.215920
v 0.678641 1.146522 -0.215920
v 0.499972 1.427256 -0.190591
v 0.499728 1.615214 -0.173632
v 0.499423 1.849744 -0.152471
v -0.507618 1.402845 -0.192793
v -0.508924 1.595153 -0.175442
v -0.510653 1.849744 -0.152471
v 0.570120 1.602708 -0.174567
v 0.577341 1.442992 -0.189133
v -0.672919 1.442566 -0.189209
v -0.685407 1.583097 -0.176530
v 0.506871 -0.380695 -0.226706
v 0.880686 -0.380695 -0.226706
v -0.506871 -0.380695 -0.226706
v -0.507846 -0.648517 -0.154241
v -0.509227 -0.821846 -0.134759
v -0.629142 -0.648942 -0.162975
v -0.628721 -0.798213 -0.143307
v -0.510917 -1.034027 -0.110910
v 0.505126 -0.651125 -0.153948
v 0.505874 -0.817571 -0.135240
v 0.610087 -0.817038 -0.139167
v 0.613091 -0.649842 -0.161390
v 0.506864 -1.037672 -0.110500
v 0.484312 -1.138046 -0.097755
v 0.897381 -1.037672 -0.110500
v -0.897366 -1.037672 -0.110500
v -0.400476 -1.138046 -0.097755
v -0.484296 -1.138046 -0.097755
v -0.880671 -0.380695 -0.226706
v 0.585124 0.653932 0.409856
v 0.598934 0.519997 0.411525
v 0.590920 0.685155 0.396586
v 0.635436 0.186339 0.412680
v 0.611741 0.338167 0.422279
v 0.616420 0.179143 0.441002
v 0.579449 0.657807 0.415660
v 0.421387 0.430771 0.647160
v 0.427579 0.424127 0.641388
v 0.478001 0.126762 0.647160
v 0.482663 0.128527 0.640215
v 0.485000 -0.071199 0.638795
v 0.483139 -0.193432 0.642206
v 0.647349 -0.216501 0.427617
v 0.607709 0.061809 0.460577
v 0.596326 -0.023486 0.481454
v 0.582677 -0.075237 0.502998
v 0.566633 -0.099138 0.525771
v 0.548955 -0.110622 0.550366
v 0.521921 -0.112842 0.587873
v 0.498626 -0.090080 0.620027
v -0.267166 0.596711 0.637573
v -0.296787 0.569860 0.647160
v -0.221657 0.619980 0.632454
v -0.167886 0.637149 0.631919
v -0.092752 0.629097 0.646141
v -0.098260 0.648443 0.637069
v 0.089866 0.649571 0.637419
v 0.092752 0.629097 0.646141
v 0.175927 0.637585 0.631862
v 0.242324 0.609140 0.636095
v 0.296787 0.569860 0.647160
v 0.298411 0.574936 0.644187
v 0.358922 0.514863 0.640962
v 0.417294 0.452237 0.639869
v 0.421387 0.430771 0.647160
v -0.297782 0.572971 0.645338
v -0.341253 0.533971 0.639778
v -0.421387 0.430771 0.647160
v -0.386245 0.483231 0.639866
v -0.415140 0.448793 0.640965
v -0.425006 0.450203 0.633925
v -0.590904 0.685155 0.396586
v -0.579056 0.686803 0.405880
v -0.553675 0.751280 0.400464
v -0.441739 1.022879 0.381881
v -0.501058 0.864748 0.396835
v -0.432143 0.992887 0.399444
v -0.380716 1.067189 0.387565
v -0.260850 1.219538 0.369275
v -0.317954 1.141498 0.380043
v -0.253975 1.195392 0.380597
v -0.184111 1.230342 0.372255
v 0.000000 1.287231 0.365772
v -0.078381 1.258487 0.370401
v 0.002739 1.267798 0.374050
v 0.096159 1.255889 0.369875
v 0.260834 1.219538 0.369275
v 0.198240 1.225647 0.370155
v 0.298857 1.155246 0.373868
v 0.441755 1.022879 0.381881
v 0.372641 1.078275 0.382020
v 0.431980 0.992333 0.399768
v 0.483071 0.902792 0.395453
v 0.590920 0.685155 0.396586
v 0.540817 0.776417 0.400224
v 0.576064 0.690768 0.406739
v -0.421387 0.430771 0.647160
v -0.430226 0.425691 0.638040
v -0.478001 0.126762 0.647160
v -0.483296 0.128767 0.639271
v -0.485247 -0.071027 0.638400
v -0.483124 -0.193432 0.642206
v -0.504376 -0.101824 0.613639
v -0.647333 -0.216501 0.427617
v -0.533526 -0.114595 0.574885
v -0.554829 -0.113000 0.545719
v -0.570851 -0.099977 0.523028
v -0.583583 -0.072904 0.503797
v -0.598555 -0.024614 0.479998
v -0.590904 0.685155 0.396586
v -0.583581 0.657632 0.410969
v -0.592317 0.592209 0.409211
v -0.604407 0.447478 0.415270
v -0.635421 0.186339 0.412680
v -0.612952 0.283606 0.429247
v -0.615545 0.178817 0.442285
v -0.611001 0.092235 0.454689
v -0.483124 -0.193432 0.642206
v 0.483139 -0.193432 0.642206
v -0.647333 -0.216501 0.427617
v 0.647349 -0.216501 0.427617
v -0.221487 0.604532 0.647160
v -0.483124 -0.193432 0.642206
v -0.421387 0.430771 0.647160
v 0.483139 -0.193432 0.642206
v 0.221471 0.604532 0.647160
v 0.421387 0.430771 0.647160
v -0.615408 -0.677173 0.165780
v -0.904341 -0.420212 0.004178
v -0.506871 -0.380695 -0.226706
v -0.880686 -0.380695 -0.226706
v -0.910636 -0.550290 0.159993
v -0.912256 -0.753399 0.191471
v -0.908599 -0.917469 0.122621
v -0.506871 -1.037656 -0.110485
v -0.897382 -1.037656 -0.110485
v -0.615639 1.494275 0.164530
v -0.779571 1.786634 0.045192
v -0.506871 1.837461 -0.162531
v -0.709116 1.837461 -0.162531
v -0.820755 1.639891 0.197936
v -0.824350 1.419623 0.219693
v -0.791931 1.211268 0.095680
v -0.506871 1.146537 -0.215920
v -0.665279 1.146537 -0.215920
v 0.506871 -0.380695 -0.226706
v 0.904356 -0.420212 0.004178
v 0.615408 -0.677173 0.165780
v 0.880686 -0.380695 -0.226706
v 0.910652 -0.550290 0.159993
v 0.912272 -0.753399 0.191471
v 0.908615 -0.917470 0.122621
v 0.506871 -1.037656 -0.110485
v 0.897381 -1.037656 -0.110485
v 0.506871 1.837461 -0.162531
v 0.779571 1.786634 0.045192
v 0.615639 1.494275 0.164530
v 0.709116 1.837461 -0.162531
v 0.820755 1.639891 0.197936
v 0.824350 1.419623 0.219693
v 0.791931 1.211267 0.095680
v 0.506871 1.146537 -0.215920
v 0.665279 1.146537 -0.215920
v -0.152606 0.203883 0.564839
v -0.239247 0.316833 0.596131
v -0.213479 0.183207 0.650002
v -0.171601 0.222076 0.403854
v -0.293840 0.352940 0.396741
v -0.348417 0.316833 0.596131
v -0.416063 0.222076 0.403854
v -0.435058 0.203883 0.564839
v -0.374185 0.183207 0.650002
v -0.152606 0.203883 0.564839
v -0.213432 0.070349 0.412557
v -0.171601 0.222076 0.403854
v -0.216935 0.048978 0.596131
v -0.213479 0.183207 0.650002
v -0.370729 0.048978 0.596131
v -0.374185 0.183207 0.650002
v -0.435058 0.203883 0.564839
v -0.374247 0.070349 0.412557
v -0.416063 0.222076 0.403854
v 0.414428 0.176942 0.548760
v 0.321151 0.287886 0.561398
v 0.355453 0.172066 0.658516
v 0.393026 0.173717 0.406107
v 0.262840 0.301357 0.394997
v 0.212198 0.281359 0.563064
v 0.149011 0.159120 0.409810
v 0.132516 0.160076 0.553034
v 0.195039 0.162468 0.660954
v 0.414428 0.176942 0.548760
v 0.360653 0.025910 0.412017
v 0.393026 0.173717 0.406107
v 0.359881 0.026265 0.607365
v 0.355453 0.172066 0.658516
v 0.206381 0.017084 0.609695
v 0.195039 0.162468 0.660954
v 0.132516 0.160076 0.553034
v 0.200147 0.016312 0.414455
v 0.149011 0.159120 0.409810
v -0.605532 2.106257 0.094738
v -0.606705 1.934996 0.171566
v -0.606705 2.078868 0.295811
v -0.606597 2.106273 0.295904
v 0.409135 2.113479 0.295595
v 0.408379 2.113479 0.099938
v 0.409552 2.050045 0.295595
v 0.409552 1.942218 0.176766
v -0.444903 2.084778 0.319728
v -0.448606 2.112044 0.318833
v -0.606597 2.106273 0.295904
v -0.409135 2.113479 0.295595
v -0.606705 2.078868 0.295811
v -0.409536 2.050045 0.295595
v 0.606613 2.106273 0.295904
v 0.448606 2.112044 0.318833
v 0.444903 2.084778 0.319728
v 0.409135 2.113479 0.295595
v 0.606721 2.078868 0.295811
v 0.409552 2.050045 0.295595
v -0.409536 2.050045 0.295595
v -0.408364 2.113479 0.099938
v -0.409135 2.113479 0.295595
v -0.409536 1.942218 0.176766
v 0.606721 2.078868 0.295811
v 0.606721 1.934996 0.171566
v 0.605548 2.106257 0.094738
v 0.605548 2.106257 0.094738
v 0.606613 2.106273 0.295904
v 0.606721 2.078868 0.295811
v -0.365344 2.003507 0.155380
v -0.365344 2.043626 0.222224
v -0.374155 2.187205 0.061872
v -0.365344 2.043626 0.222224
v -0.374155 2.207928 0.266339
v 0.000000 2.043626 0.222224
v 0.000000 2.207928 0.266339
v -0.050966 2.207928 0.322567
v -0.138595 2.207928 0.322567
v -0.190657 2.043626 0.222224
v -0.190657 2.207928 0.266339
v 0.374170 2.187205 0.061872
v 0.365359 2.043626 0.222224
v 0.365359 2.003507 0.155380
v 0.374170 2.207928 0.266339
v 0.365359 2.043626 0.222224
v -0.374155 2.187205 0.061872
v -0.691078 2.143074 0.061764
v -0.605532 2.106257 0.094738
v -0.374170 2.210937 0.022324
v -0.690816 2.168010 0.022031
v 0.000000 2.253463 0.022324
v 0.000000 2.207928 0.061501
v -0.696263 1.969838 0.146955
v -0.606705 1.934996 0.171566
v -0.704117 1.743244 0.220619
v -0.551140 1.659256 0.265305
v -0.365344 2.003507 0.155380
v -0.366470 1.598785 0.293311
v -0.457247 1.547463 0.292864
v -0.260850 1.219538 0.369275
v -0.545786 1.425780 0.302662
v -0.441739 1.022879 0.381881
v -0.712048 1.329063 0.293342
v -0.716152 1.041349 0.326579
v 0.000000 1.630679 0.286013
v 0.000000 2.000637 0.164267
v 0.000000 1.287231 0.365772
v -0.752414 1.540674 0.292370
v -0.577079 1.542834 0.298542
v 0.365359 2.003507 0.155380
v 0.366470 1.598785 0.293311
v 0.551156 1.659256 0.265305
v 0.606721 1.934996 0.171566
v 0.457247 1.547463 0.292864
v 0.260834 1.219538 0.369275
v 0.545802 1.425780 0.302662
v 0.441755 1.022879 0.381881
v 0.712063 1.329063 0.293342
v 0.716168 1.041349 0.326579
v 0.577094 1.542834 0.298542
v 0.752429 1.540674 0.292370
v 0.704132 1.743244 0.220619
v 0.696278 1.969838 0.146955
v 0.605548 2.106257 0.094738
v 0.691094 2.143074 0.061764
v 0.374170 2.187205 0.061872
v 0.374170 2.210937 0.022324
v 0.690831 2.168010 0.022031
v -0.605532 2.106257 0.094738
v -0.606705 1.934996 0.171566
v -0.365344 2.003507 0.155380
v 0.365359 2.003507 0.155380
v 0.606721 1.934996 0.171566
v 0.605548 2.106257 0.094738
v -0.691078 2.143074 0.061764
v -0.752877 2.019523 0.029237
v -0.696263 1.969838 0.146955
v -0.704117 1.743244 0.220619
v -0.690816 2.168010 0.022031
v -0.656529 2.091537 -0.097724
v -0.709101 1.837446 -0.162547
v -0.779556 1.786618 0.045192
v -0.820739 1.639860 0.197936
v -0.752414 1.540674 0.292370
v -0.824334 1.419592 0.219693
v -0.712048 1.329063 0.293342
v -0.791915 1.211237 0.095680
v -0.716152 1.041349 0.326579
v -0.296957 2.095209 -0.162593
v -0.374170 2.210937 0.022324
v 0.000000 2.253463 0.022324
v 0.296957 2.095209 -0.162593
v 0.374170 2.210937 0.022324
v -0.690816 2.168010 0.022031
v -0.656529 2.091537 -0.097724
v 0.690831 2.168010 0.022031
v 0.656530 2.091537 -0.097724
v -0.301370 1.860437 -0.208035
v -0.709101 1.837446 -0.162547
v -0.296957 2.095209 -0.162593
v -0.656529 2.091537 -0.097724
v 0.296957 2.095209 -0.162593
v 0.301370 1.860437 -0.208035
v 0.709101 1.837446 -0.162547
v 0.656530 2.091537 -0.097724
v 0.696278 1.969838 0.146955
v 0.752892 2.019523 0.029237
v 0.691094 2.143074 0.061764
v 0.704132 1.743244 0.220619
v 0.690831 2.168010 0.022031
v 0.656530 2.091537 -0.097724
v 0.709101 1.837446 -0.162547
v 0.779556 1.786618 0.045192
v 0.820755 1.639860 0.197936
v 0.752429 1.540674 0.292370
v 0.824334 1.419592 0.219693
v 0.712063 1.329063 0.293342
v 0.791931 1.211237 0.095680
v 0.716168 1.041349 0.326579
v -0.484402 -1.351416 -0.129230
v -0.469472 -1.351416 -0.143507
v -0.486021 -1.351417 -0.092563
v -0.399352 -1.351416 -0.092559
v -0.415903 -1.351416 -0.143500
v -0.441566 -1.351416 -0.151622
v -0.401632 -1.351416 -0.112139
v -0.442690 -1.351416 -0.061065
v -0.410041 -1.351416 -0.065462
v -0.470321 -1.351417 -0.071537
v -0.606597 2.106273 0.295904
v -0.448606 2.112044 0.318833
v -0.605532 2.106257 0.094738
v -0.409135 2.113479 0.295595
v -0.408364 2.113479 0.099938
v 0.605548 2.106257 0.094738
v 0.448606 2.112044 0.318833
v 0.606613 2.106273 0.295904
v 0.409135 2.113479 0.295595
v 0.408379 2.113479 0.099938
v -0.374155 2.187205 0.061872
v -0.374155 2.207928 0.266339
v -0.190657 2.207928 0.266339
v 0.000000 2.207928 0.061501
v -0.249092 2.207928 0.322567
v -0.319084 2.207928 0.322567
v 0.000000 2.207928 0.266339
v -0.138595 2.207928 0.322567
v -0.050966 2.207928 0.322567
v 0.190673 2.207928 0.266339
v 0.374170 2.187205 0.061872
v 0.374170 2.207928 0.266339
v 0.249107 2.207928 0.322567
v 0.319099 2.207928 0.322567
v 0.138595 2.207928 0.322567
v 0.050951 2.207928 0.322567
v 0.362004 -1.351416 -0.123685
v 0.376259 -1.351416 -0.143498
v 0.359691 -1.351416 -0.092518
v 0.446458 -1.351416 -0.092510
v 0.429889 -1.351416 -0.143498
v 0.402994 -1.351416 -0.152440
v 0.446528 -1.351416 -0.115362
v 0.403082 -1.351416 -0.060987
v 0.430136 -1.351416 -0.069050
v 0.368724 -1.351416 -0.070947
v 0.190673 2.207928 0.266339
v 0.190673 2.043626 0.222224
v 0.249107 2.207928 0.322567
v 0.365359 2.043626 0.222224
v 0.319099 2.207928 0.322567
v 0.374170 2.207928 0.266339
v -0.249092 2.207928 0.322567
v -0.190657 2.043626 0.222224
v -0.190657 2.207928 0.266339
v -0.365344 2.043626 0.222224
v -0.319084 2.207928 0.322567
v -0.374155 2.207928 0.266339
v 0.050951 2.207928 0.322567
v 0.000000 2.207928 0.266339
v 0.000000 2.043626 0.222224
v 0.138595 2.207928 0.322567
v 0.190673 2.043626 0.222224
v 0.190673 2.207928 0.266339
v -0.606705 1.934996 0.171566
v -0.409536 1.942218 0.176766
v -0.409536 2.050045 0.295595
v -0.444903 2.084778 0.319728
v -0.606705 2.078868 0.295811
v 0.409552 2.050045 0.295595
v 0.409552 1.942218 0.176766
v 0.606721 1.934996 0.171566
v 0.444903 2.084778 0.319728
v 0.606721 2.078868 0.295811
v 0.000000 2.000637 0.164267
v 0.000000 2.043626 0.222224
v -0.190657 2.043626 0.222224
v -0.365344 2.003507 0.155380
v -0.365344 2.043626 0.222224
v 0.190673 2.043626 0.222224
v 0.365359 2.003507 0.155380
v 0.365359 2.043626 0.222224
v -0.485500 -1.353947 -0.092154
v -0.442233 -1.353947 -0.060707
v -0.442233 -1.118095 -0.076029
v -0.472276 -1.081555 -0.096459
v -0.412190 -1.081555 -0.096459
v -0.398967 -1.353947 -0.092154
v -0.423671 -1.037996 -0.111195
v -0.415493 -1.353947 -0.143012
v -0.460796 -1.037996 -0.111195
v -0.468974 -1.353947 -0.143012
v -0.472276 -1.081555 -0.096459
v -0.485500 -1.353947 -0.092154
v -0.398967 -1.353947 -0.092154
v -0.412190 -1.081555 -0.096459
v 0.402994 -1.118095 -0.076029
v 0.402994 -1.353947 -0.060707
v 0.446260 -1.353947 -0.092154
v 0.433037 -1.081555 -0.096459
v 0.372935 -1.081555 -0.096459
v 0.384416 -1.037996 -0.111195
v 0.359712 -1.353947 -0.092154
v 0.376238 -1.353947 -0.143012
v 0.421556 -1.037996 -0.111195
v 0.429735 -1.353947 -0.143012
v 0.433037 -1.081555 -0.096459
v 0.446260 -1.353947 -0.092154
v 0.372935 -1.081555 -0.096459
v 0.359712 -1.353947 -0.092154
v 0.647349 -0.216501 0.427617
v 0.635436 0.186339 0.412680
v -0.647333 -0.216501 0.427617
v -0.635421 0.186339 0.412680
v -0.590904 0.685155 0.396586
v 0.590920 0.685155 0.396586
v -0.441739 1.022879 0.381881
v 0.441755 1.022879 0.381881
v 0.260834 1.219538 0.369275
v 0.000000 1.287231 0.365772
v -0.260850 1.219538 0.369275
v 0.616420 0.179143 0.441002
v 0.427579 0.424127 0.641388
v -0.485247 -0.071027 0.638400
v -0.483296 0.128767 0.639271
v -0.430226 0.425691 0.638040
v -0.592317 0.592209 0.409211
v -0.583581 0.657632 0.410969
v -0.579056 0.686803 0.405880
v -0.553675 0.751280 0.400464
v -0.341253 0.533971 0.639778
v -0.297782 0.572971 0.645338
v -0.501058 0.864748 0.396835
v -0.432143 0.992887 0.399444
v -0.380716 1.067189 0.387565
v -0.267166 0.596711 0.637573
v -0.221657 0.619980 0.632454
v -0.167886 0.637149 0.631919
v -0.098260 0.648443 0.637069
v -0.317954 1.141498 0.380043
v 0.089866 0.649571 0.637419
v 0.175927 0.637585 0.631862
v 0.242324 0.609140 0.636095
v 0.298411 0.574936 0.644187
v 0.372641 1.078275 0.382020
v 0.358922 0.514863 0.640962
v 0.576064 0.690768 0.406739
v 0.417294 0.452237 0.639869
vn 0.8111 0.0039 0.5849
vn 0.8135 0.0151 0.5814
vn 0.8114 0.0052 0.5845
vn 0.8075 0.0197 0.5896
vn 0.8002 0.0382 0.5985
vn 0.7956 0.0417 0.6043
vn 0.8223 0.0257 0.5684
vn 0.8093 0.0592 0.5845
vn 0.8118 0.0053 0.5840
vn 0.8142 0.0933 0.5731
vn 0.7424 0.0887 0.6641
vn 0.7614 0.1009 0.6404
vn 0.8158 0.0912 0.5710
vn -0.8043 0.0427 0.5926
vn -0.8044 0.0426 0.5925
vn -0.8233 0.0328 0.5667
vn -0.8045 0.0425 0.5924
vn -0.8111 0.0242 0.5844
vn -0.8012 0.0086 0.5983
vn -0.8055 0.0456 0.5908
vn -0.8157 0.0913 0.5712
vn -0.8067 0.0882 0.5843
vn -0.7802 0.0927 0.6186
vn -0.4830 0.4296 0.7630
vn -0.4668 0.4111 0.7830
vn -0.4829 0.4101 0.7737
vn -0.1714 0.3772 0.9101
vn 0.0009 0.4011 0.9160
vn -0.0877 0.3935 0.9152
vn -0.0851 0.3802 0.9210
vn 0.0223 0.0843 0.9962
vn 0.1219 0.3822 0.9160
vn 0.2047 0.3862 0.8994
vn 0.5768 0.2924 0.7628
vn 0.3956 0.3739 0.8389
vn 0.5803 0.2950 0.7591
vn 0.5664 0.2919 -0.7707
vn 0.7166 0.6892 -0.1070
vn 0.8792 0.4296 0.2060
vn -0.2496 0.4813 -0.8403
vn -0.1668 0.1210 -0.9785
vn 0.3866 0.3488 0.8538
vn -0.0523 0.5571 0.8288
vn -0.0352 0.9985 -0.0416
vn 0.3866 0.3487 0.8538
vn -0.3324 0.3324 0.8826
vn -0.8480 0.5130 0.1328
vn -0.8203 0.2313 -0.5230
vn -0.8633 0.3216 0.3889
vn 0.2086 -0.9775 -0.0295
vn 0.2084 -0.9776 -0.0292
vn 0.2085 -0.9776 -0.0294
vn 0.2086 -0.9776 -0.0293
vn 0.2085 -0.9776 -0.0291
vn 0.2088 -0.9775 -0.0293
vn 0.0301 -0.9761 0.2154
vn 0.3921 -0.3011 -0.8692
vn 0.7573 0.6529 -0.0146
vn 0.3920 -0.3011 -0.8693
vn -0.5732 0.5576 -0.6004
vn -0.5731 0.5576 -0.6005
vn 0.3921 -0.3011 -0.8693
vn -0.5718 -0.1085 0.8132
vn -0.4095 -0.0156 0.9122
vn -0.6053 0.0079 0.7959
vn -0.3176 -0.1407 0.9377
vn 0.0082 -0.2091 0.9779
vn -0.0909 -0.0165 0.9957
vn -0.0821 0.0038 0.9966
vn -0.1376 0.0106 0.9904
vn -0.0621 0.0518 0.9967
vn -0.1134 0.0548 0.9920
vn -0.0526 0.0992 0.9937
vn -0.4967 0.4407 0.7477
vn -0.1499 -0.1096 0.9826
vn -0.0001 -0.0007 1.0000
vn 0.0009 -0.0431 0.9991
vn 0.0015 -0.0742 0.9972
vn -0.0448 -0.2737 0.9608
vn -0.5726 -0.0960 0.8142
vn -0.0254 -0.1315 0.9910
vn -0.0000 -0.1203 0.9927
vn 0.0257 -0.1315 0.9910
vn -0.0117 0.1319 0.9912
vn 0.0118 0.1320 0.9912
vn -0.2738 0.2870 0.9180
vn -0.0000 0.3754 0.9269
vn -0.3825 0.3574 0.8520
vn -0.3904 -0.3284 0.8601
vn 0.1496 -0.1092 0.9827
vn 0.3904 -0.3284 0.8601
vn -0.4430 0.5775 0.6857
vn 0.4430 0.5775 0.6857
vn 0.0614 0.0529 0.9967
vn 0.4967 0.4407 0.7477
vn 0.0526 0.0992 0.9937
vn 0.1142 0.0565 0.9918
vn 0.0771 0.0063 0.9970
vn 0.1429 0.0145 0.9896
vn 0.0858 -0.0230 0.9960
vn 0.4136 -0.0207 0.9102
vn 0.0123 -0.1798 0.9836
vn 0.5718 -0.1085 0.8132
vn 0.6053 0.0079 0.7959
vn 0.3176 -0.1407 0.9377
vn 0.0541 -0.2350 0.9705
vn 0.7844 0.0154 0.6200
vn 0.7464 0.0298 0.6649
vn 0.3890 0.0458 0.9201
vn 0.6961 0.0708 0.7145
vn 0.2978 0.1081 0.9485
vn 0.7228 -0.0083 0.6911
vn 0.2173 0.1040 0.9706
vn 0.7427 0.0518 0.6676
vn 0.5728 -0.0960 0.8141
vn 0.2739 0.2870 0.9179
vn 0.3824 0.3574 0.8521
vn 0.0010 -0.4304 0.9026
vn 0.0012 -0.4304 0.9026
vn -0.0520 -0.4401 0.8965
vn -0.9447 -0.2936 0.1460
vn -0.7464 0.0297 0.6649
vn -0.3890 0.0458 0.9201
vn -0.6961 0.0708 0.7145
vn -0.2978 0.1081 0.9485
vn -0.7844 0.0154 0.6200
vn -0.7228 -0.0083 0.6911
vn -0.2173 0.1040 0.9706
vn -0.7427 0.0518 0.6676
vn -0.9993 0.0055 -0.0381
vn -0.7464 0.0298 0.6648
vn -0.9993 0.0131 -0.0350
vn -0.9259 0.3188 0.2026
vn -0.9949 0.0105 -0.1006
vn -0.8262 0.1451 0.5443
vn -0.7906 -0.0152 0.6121
vn -0.9295 0.0071 -0.3688
vn -0.9323 0.0019 -0.3618
vn -0.9148 0.3383 -0.2205
vn -0.9271 0.0080 -0.3746
vn -0.9353 -0.0344 0.3522
vn -0.5726 -0.0961 0.8142
vn -0.6423 0.2042 0.7388
vn -0.9072 -0.2752 0.3181
vn -0.8578 0.2260 0.4616
vn -0.9864 -0.0792 -0.1443
vn -0.5967 -0.6860 -0.4163
vn -0.5992 -0.3546 -0.7178
vn -0.8093 0.2545 0.5294
vn -0.9845 -0.0382 0.1711
vn -0.6411 -0.5467 0.5386
vn -0.5839 -0.0903 0.8068
vn -0.6363 0.3139 0.7047
vn -0.7131 0.6739 0.1932
vn -0.6228 0.7801 0.0597
vn -0.4913 -0.8491 0.1941
vn -0.1137 -0.5053 -0.8554
vn -0.0489 -0.4877 -0.8716
vn -0.5967 -0.6861 -0.4163
vn 0.1193 -0.7139 -0.6900
vn 0.0182 -0.4804 -0.8769
vn 0.5967 -0.6861 -0.4163
vn 0.5992 -0.3546 -0.7178
vn 0.1137 -0.5053 -0.8554
vn 0.0489 -0.4877 -0.8716
vn -0.1195 -0.7141 -0.6898
vn -0.0182 -0.4802 -0.8770
vn -0.4966 0.4407 0.7477
vn 0.7464 0.0297 0.6648
vn 0.9993 0.0055 -0.0381
vn 0.9993 0.0131 -0.0350
vn 0.9259 0.3188 0.2026
vn 0.9949 0.0105 -0.1006
vn 0.8262 0.1451 0.5443
vn 0.7906 -0.0152 0.6122
vn 0.9295 0.0071 -0.3688
vn 0.9323 0.0019 -0.3618
vn 0.9148 0.3383 -0.2205
vn 0.9271 0.0080 -0.3746
vn 0.9353 -0.0344 0.3522
vn 0.6423 0.2042 0.7388
vn 0.9072 -0.2752 0.3181
vn 0.8578 0.2260 0.4616
vn 0.9864 -0.0792 -0.1443
vn 0.5967 -0.6860 -0.4163
vn 0.8093 0.2545 0.5294
vn 0.9845 -0.0383 0.1712
vn 0.3824 0.3573 0.8521
vn 0.6411 -0.5467 0.5386
vn 0.5839 -0.0903 0.8068
vn 0.6363 0.3139 0.7047
vn 0.7131 0.6739 0.1932
vn 0.6228 0.7801 0.0597
vn 0.4913 -0.8491 0.1941
vn 0.1138 -0.5052 -0.8555
vn -0.0458 -0.2724 0.9611
vn -0.0001 -0.1181 0.9930
vn -0.0067 -0.4265 0.9045
vn -0.0046 -0.4306 0.9026
vn -0.0022 -0.4301 0.9028
vn 0.0464 -0.4382 0.8977
vn -0.0010 -0.4304 0.9026
vn 0.7863 -0.3947 0.4753
vn -0.1460 0.0107 0.9892
vn -0.4318 -0.0600 0.9000
vn -0.4477 0.0371 0.8934
vn 0.0017 0.0041 1.0000
vn 0.0027 0.0013 1.0000
vn 0.1622 0.0354 0.9861
vn 0.4412 0.0449 0.8963
vn 0.4335 -0.0788 0.8977
vn -0.5004 -0.1077 0.8591
vn -0.0012 -0.1380 0.9904
vn -0.0005 -0.1352 0.9908
vn 0.0012 -0.1352 0.9908
vn 0.4397 -0.1220 0.8898
vn -0.4332 -0.1136 0.8941
vn -0.5038 -0.0794 0.8602
vn -0.0007 -0.1401 0.9901
vn 0.0019 -0.1386 0.9903
vn 0.0038 -0.1385 0.9904
vn 0.4106 -0.1149 0.9045
vn 0.4702 -0.1084 0.8759
vn -0.5038 -0.0795 0.8602
vn -0.3999 -0.1038 0.9107
vn -0.4069 -0.1055 0.9074
vn -0.0031 -0.1476 0.9890
vn -0.0019 -0.1463 0.9892
vn 0.0029 -0.1468 0.9892
vn 0.4035 -0.1174 0.9074
vn 0.4420 -0.0988 0.8916
vn 0.7241 -0.0418 0.6884
vn 0.4702 -0.1085 0.8758
vn -0.4070 -0.1055 0.9073
vn -0.6877 -0.0434 0.7247
vn -0.0075 -0.9661 0.2579
vn -0.0079 -0.9653 0.2610
vn -0.0160 -0.9852 0.1705
vn -0.0158 -0.9860 0.1662
vn 0.0243 -0.9997 -0.0027
vn 0.0250 -0.9996 -0.0116
vn 0.0244 -0.9997 -0.0027
vn -0.0010 -0.9997 -0.0238
vn 0.0045 -0.9990 0.0442
vn -0.0008 -0.9998 -0.0210
vn 0.0073 -0.9989 0.0455
vn 0.0078 -0.9989 0.0467
vn 0.0075 -0.9999 0.0101
vn 0.0072 -1.0000 0.0064
vn -0.0095 -0.9999 0.0037
vn -0.0006 -0.9918 0.1277
vn -0.0091 -0.9999 0.0089
vn 0.0055 -0.9919 0.1266
vn 0.0058 -0.9912 0.1319
vn -0.0045 -0.9974 -0.0719
vn -0.0062 -0.9956 -0.0931
vn 0.0012 -0.9999 0.0160
vn 0.0063 -0.9999 -0.0115
vn 0.0011 -0.9999 0.0150
vn 0.0063 -0.9999 -0.0132
vn 0.0106 -0.9996 0.0248
vn 0.0105 -0.9996 0.0261
vn 0.0010 -0.9980 -0.0632
vn 0.0045 -0.9974 0.0725
vn 0.0012 -0.9983 -0.0590
vn 0.0051 -0.9967 0.0816
vn 0.0091 -0.9812 0.1929
vn 0.0182 -0.9509 0.3090
vn 0.0099 -0.9791 0.2032
vn -0.0251 -0.9939 -0.1073
vn -0.0017 -0.9672 -0.2538
vn -0.0362 -0.9698 -0.2410
vn 0.0099 -0.9384 -0.3454
vn 0.0249 -0.9908 -0.1328
vn 0.0105 -0.9440 -0.3299
vn -0.0000 -0.9412 -0.3377
vn 0.0168 -0.9527 -0.3034
vn 0.0144 -0.9774 -0.2110
vn 0.1055 -0.9929 -0.0545
vn 0.2650 -0.9545 -0.1369
vn -0.0000 -0.9412 -0.3378
vn -0.0169 -0.9530 -0.3026
vn -0.0694 -0.9552 -0.2878
vn -0.1101 -0.9568 -0.2691
vn 0.0686 -0.9544 -0.2904
vn -0.0104 -0.9781 -0.2081
vn 0.1114 -0.9558 -0.2721
vn 0.0251 -0.9939 -0.1073
vn -0.0200 -0.9910 -0.1324
vn -0.1055 -0.9929 -0.0545
vn -0.2649 -0.9545 -0.1370
vn 0.0362 -0.9698 -0.2410
vn 0.0017 -0.9672 -0.2538
vn -0.0099 -0.9384 -0.3454
vn -0.0105 -0.9440 -0.3299
vn -0.0168 -0.9530 -0.3025
vn 0.0463 -0.9571 -0.2862
vn -0.0455 -0.9573 -0.2856
vn -0.0000 -0.7786 -0.6275
vn 0.0572 -0.7656 -0.6407
vn 0.1672 -0.9587 -0.2302
vn -0.0000 -0.4705 -0.8824
vn -0.0571 -0.7656 -0.6408
vn -0.1691 -0.9590 -0.2275
vn -0.1101 -0.9568 -0.2690
vn -0.0000 -0.9658 -0.2592
vn -0.0000 0.0921 -0.9958
vn -0.0000 -0.0102 -0.9999
vn -0.0000 0.0233 -0.9997
vn -0.0000 0.0231 -0.9997
vn 0.0003 0.0901 -0.9959
vn 0.0008 0.0899 -0.9960
vn -0.0000 0.0899 -0.9960
vn 0.0022 0.0901 -0.9959
vn 0.0003 0.0908 -0.9959
vn 0.0094 0.0284 -0.9996
vn -0.0000 0.1569 -0.9876
vn -0.0000 0.0177 -0.9998
vn 0.0077 -0.1534 -0.9881
vn -0.0116 -0.1147 -0.9933
vn 0.0615 -0.1190 -0.9910
vn 0.0451 -0.1304 -0.9904
vn -0.0060 -0.1270 -0.9919
vn 0.0045 -0.1769 -0.9842
vn -0.0123 -0.1117 -0.9937
vn -0.0477 -0.1185 -0.9918
vn -0.0666 -0.1303 -0.9892
vn -0.0000 -0.1212 -0.9926
vn -0.0000 -0.1259 -0.9920
vn -0.0000 -0.1260 -0.9920
vn -0.0000 -0.1254 -0.9921
vn 0.7936 0.1072 0.5990
vn 0.8159 0.0912 0.5710
vn 0.7850 0.1132 0.6091
vn 0.8196 0.0713 0.5684
vn 0.8189 0.0632 0.5705
vn 0.7517 0.1349 0.6455
vn 0.7506 0.1382 0.6461
vn 0.7512 0.1388 0.6453
vn 0.8193 0.0703 0.5691
vn 0.8174 0.0837 0.5700
vn 0.8114 0.0040 0.5845
vn 0.8052 0.0190 0.5928
vn 0.7973 0.0420 0.6021
vn 0.7956 0.0418 0.6043
vn 0.7956 0.0417 0.6044
vn 0.7956 0.0418 0.6044
vn 0.7966 0.0394 0.6032
vn 0.8111 0.0040 0.5849
vn -0.1404 0.4666 0.8732
vn -0.3041 0.4099 0.8600
vn -0.1403 0.4665 0.8733
vn -0.1241 0.4335 0.8926
vn -0.0618 0.4136 0.9084
vn -0.0756 0.4056 0.9109
vn 0.0506 0.3987 0.9157
vn 0.0663 0.3995 0.9143
vn 0.1148 0.4030 0.9080
vn 0.1170 0.4152 0.9022
vn 0.2937 0.4051 0.8658
vn 0.2553 0.4265 0.8677
vn 0.4045 0.3624 0.8397
vn 0.4809 0.3628 0.7982
vn 0.4923 0.3611 0.7920
vn -0.2534 0.4272 0.8679
vn -0.4666 0.4173 0.7798
vn -0.4820 0.4290 0.7640
vn -0.4831 0.4297 0.7629
vn -0.4841 0.4287 0.7628
vn -0.6127 0.3043 0.7294
vn -0.6139 0.3029 0.7289
vn -0.6129 0.3026 0.7299
vn -0.4178 0.3565 0.8357
vn -0.5536 0.2818 0.7837
vn -0.4981 0.3139 0.8083
vn -0.3572 0.3833 0.8517
vn -0.1758 0.3790 0.9086
vn -0.2915 0.3368 0.8953
vn -0.2107 0.3652 0.9068
vn -0.0918 0.4009 0.9115
vn -0.0053 0.3917 0.9201
vn -0.0851 0.3804 0.9209
vn 0.0106 0.3931 0.9194
vn 0.0905 0.3949 0.9143
vn 0.0233 0.0894 0.9957
vn 0.0222 0.0843 0.9962
vn 0.0285 0.0910 0.9954
vn 0.3857 0.3602 0.8494
vn 0.3220 0.3995 0.8583
vn 0.4909 0.3179 0.8112
vn 0.5574 0.2803 0.7815
vn 0.6119 0.3070 0.7290
vn 0.6133 0.3077 0.7274
vn 0.6128 0.3083 0.7276
vn -0.7487 0.1394 0.6480
vn -0.7492 0.1395 0.6475
vn -0.8192 0.0696 0.5693
vn -0.8175 0.0832 0.5699
vn -0.8094 0.0043 0.5873
vn -0.7951 0.0051 0.6065
vn -0.7951 0.0073 0.6065
vn -0.8033 0.0345 0.5946
vn -0.8055 0.0458 0.5908
vn -0.8052 0.0449 0.5913
vn -0.8044 0.0428 0.5926
vn -0.8086 0.0444 0.5867
vn -0.7849 0.1104 0.6098
vn -0.7764 0.1170 0.6192
vn -0.8053 0.0918 0.5857
vn -0.8157 0.0912 0.5712
vn -0.8188 0.0685 0.5700
vn -0.8159 0.0912 0.5709
vn -0.8218 0.0589 0.5667
vn -0.8313 0.0320 0.5549
vn -0.0006 0.7920 -0.6105
vn 0.0006 0.7921 -0.6104
vn -0.0000 0.5591 0.8291
vn -0.0017 0.0068 -1.0000
vn -0.0006 0.7921 -0.6105
vn -0.0075 0.0087 -0.9999
vn 0.0006 0.7920 -0.6105
vn 0.0017 0.0068 -1.0000
vn 0.0075 0.0087 -0.9999
vn -0.5626 -0.1161 -0.8185
vn -0.2112 -0.8394 -0.5008
vn -0.5533 -0.6728 -0.4911
vn -0.0000 -0.9857 -0.1687
vn -0.2142 -0.5356 -0.8169
vn -0.1251 0.1572 -0.9796
vn -0.1783 0.6234 -0.7613
vn -0.5830 0.4906 -0.6476
vn -0.0000 0.8888 -0.4583
vn -0.6588 -0.0016 -0.7523
vn -0.3891 -0.6650 -0.6375
vn -0.6301 -0.5680 -0.5295
vn -0.0000 -0.9713 -0.2377
vn -0.4180 -0.4019 -0.8147
vn -0.3210 0.2162 -0.9220
vn -0.4649 0.5849 -0.6647
vn -0.6154 0.6449 -0.4532
vn -0.0000 0.9791 -0.2034
vn 0.5533 -0.6728 -0.4911
vn 0.2112 -0.8394 -0.5008
vn 0.5626 -0.1161 -0.8185
vn 0.2142 -0.5356 -0.8169
vn 0.1251 0.1572 -0.9796
vn 0.1783 0.6234 -0.7613
vn 0.5830 0.4906 -0.6476
vn 0.6301 -0.5680 -0.5295
vn 0.3891 -0.6650 -0.6375
vn 0.6588 -0.0016 -0.7523
vn 0.4180 -0.4019 -0.8147
vn 0.3210 0.2162 -0.9220
vn 0.4649 0.5849 -0.6647
vn 0.6154 0.6449 -0.4532
vn 0.9672 0.1262 0.2206
vn 0.4108 0.7565 0.5089
vn 0.4360 0.0113 0.8999
vn 0.9565 0.2712 -0.1078
vn -0.0000 0.9990 -0.0436
vn -0.4108 0.7565 0.5089
vn -0.9564 0.2713 -0.1078
vn -0.9672 0.1262 0.2206
vn -0.4360 0.0114 0.8999
vn 0.6075 -0.7849 -0.1216
vn 0.4676 -0.7673 0.4390
vn -0.4676 -0.7673 0.4390
vn -0.6076 -0.7849 -0.1215
vn -0.9565 0.2713 -0.1078
vn 0.9682 0.2079 0.1391
vn 0.3799 0.8643 0.3296
vn 0.4643 0.1945 0.8641
vn 0.9457 0.2774 -0.1697
vn -0.0619 0.9848 -0.1622
vn -0.4695 0.8133 0.3437
vn -0.9780 0.1587 -0.1357
vn -0.9812 0.0901 0.1706
vn -0.4574 0.1393 0.8783
vn 0.9682 0.2079 0.1390
vn 0.6312 -0.7747 -0.0381
vn 0.9456 0.2775 -0.1698
vn 0.5226 -0.6945 0.4945
vn 0.4642 0.1945 0.8641
vn -0.4213 -0.7510 0.5085
vn -0.5331 -0.8458 -0.0193
vn -0.2696 0.6518 0.7088
vn -0.3012 0.3211 0.8978
vn -0.8706 0.0020 0.4920
vn -0.7508 0.0018 0.6605
vn -0.8799 0.0146 0.4749
vn -1.0000 -0.0053 0.0043
vn -0.9662 -0.0057 0.2578
vn -1.0000 -0.0049 0.0044
vn 0.2906 0.0323 0.9563
vn 0.1715 0.0556 0.9836
vn 0.8798 0.0149 0.4750
vn -0.8706 0.0019 0.4920
vn 0.9662 -0.0056 0.2579
vn 0.1459 -0.0012 0.9893
vn -0.1715 0.0556 0.9836
vn -0.2907 0.0323 0.9563
vn 0.6280 0.0002 0.7782
vn 0.9662 -0.0056 0.2578
vn 1.0000 -0.0053 0.0043
vn 0.8798 0.0148 0.4750
vn 1.0000 -0.0049 0.0044
vn 0.6280 0.0001 0.7782
vn 0.3012 0.3211 0.8978
vn 0.2494 0.6555 0.7129
vn 1.0000 0.0040 -0.0053
vn 0.6889 0.7248 -0.0037
vn -0.3776 0.3152 0.8707
vn -0.9989 -0.0452 0.0144
vn -0.2775 0.8277 0.4878
vn -0.9985 -0.0550 0.0056
vn -0.2775 0.8277 0.4877
vn 0.1758 -0.4728 0.8635
vn 0.7292 -0.1775 0.6609
vn 0.2796 -0.4358 0.8555
vn -0.2754 -0.4360 0.8568
vn -0.1756 -0.4720 0.8639
vn -0.7219 -0.1795 0.6684
vn 0.2775 0.8278 0.4876
vn 0.9989 -0.0452 0.0144
vn 0.3776 0.3152 0.8707
vn 0.2775 0.8277 0.4877
vn 0.9985 -0.0550 0.0056
vn -0.5268 0.5914 0.6105
vn -0.2696 0.6519 0.7088
vn -0.1250 0.9918 -0.0270
vn -0.5596 0.8270 -0.0544
vn -0.0000 0.9965 0.0830
vn -0.0000 0.6522 0.7580
vn -0.5226 0.3284 0.7868
vn -0.3012 0.3212 0.8978
vn -0.4283 0.3993 0.8107
vn -0.0486 0.2970 0.9536
vn -0.3777 0.3152 0.8706
vn -0.0472 0.2440 0.9686
vn -0.0606 0.1631 0.9848
vn -0.0778 0.1740 0.9817
vn -0.0835 0.1025 0.9912
vn -0.1445 0.1456 0.9787
vn -0.4961 -0.0464 0.8670
vn -0.5023 0.1063 0.8581
vn -0.0000 0.2751 0.9614
vn -0.0000 0.3126 0.9499
vn -0.0000 0.2054 0.9787
vn -0.4108 0.1401 0.9009
vn -0.0078 0.1497 0.9887
vn 0.3777 0.3152 0.8706
vn 0.0472 0.2440 0.9686
vn 0.0486 0.2970 0.9536
vn 0.3012 0.3212 0.8978
vn 0.0606 0.1631 0.9848
vn 0.0778 0.1740 0.9817
vn 0.0835 0.1025 0.9912
vn 0.1445 0.1456 0.9787
vn 0.4961 -0.0464 0.8670
vn 0.5023 0.1063 0.8581
vn 0.0078 0.1497 0.9887
vn 0.4109 0.1400 0.9009
vn 0.4283 0.3993 0.8106
vn 0.5226 0.3284 0.7868
vn 0.5268 0.5914 0.6105
vn 0.1250 0.9918 -0.0270
vn 0.5596 0.8270 -0.0544
vn -0.0550 0.4090 0.9109
vn 0.0550 0.4090 0.9109
vn -0.9628 0.2692 0.0234
vn -0.4283 0.3993 0.8106
vn -0.4577 0.5288 -0.7148
vn -0.6473 0.2335 -0.7256
vn -0.9483 0.2407 0.2069
vn -0.6299 0.4082 0.6608
vn -0.4108 0.1400 0.9009
vn -0.6995 -0.1914 0.6886
vn -0.8873 -0.1372 0.4403
vn -0.0792 0.5373 -0.8397
vn 0.0792 0.5373 -0.8397
vn 0.5596 0.8269 -0.0544
vn 0.4577 0.5288 -0.7148
vn -0.0612 0.1908 -0.9797
vn -0.6473 0.2336 -0.7256
vn -0.0793 0.5373 -0.8397
vn -0.4577 0.5288 -0.7147
vn 0.0793 0.5373 -0.8397
vn 0.0612 0.1908 -0.9797
vn 0.6472 0.2335 -0.7257
vn 0.9628 0.2692 0.0233
vn 0.5597 0.8269 -0.0544
vn 0.6472 0.2335 -0.7256
vn 0.9483 0.2407 0.2069
vn 0.6299 0.4082 0.6608
vn 0.6995 -0.1914 0.6885
vn 0.8873 -0.1371 0.4403
vn -0.0000 -1.0000 -0.0000
vn -0.0365 0.9993 -0.0003
vn -0.2697 0.6519 0.7087
vn -0.0365 0.9993 -0.0002
vn -0.0366 0.9993 -0.0001
vn 0.0365 0.9993 -0.0003
vn 0.0365 0.9993 -0.0002
vn 0.0366 0.9993 -0.0001
vn -0.0000 0.9978 -0.0670
vn -0.0173 0.9993 -0.0341
vn -0.0000 0.9996 -0.0269
vn -0.0000 1.0000 -0.0000
vn 0.0173 0.9993 -0.0341
vn -0.6808 -0.1900 0.7075
vn -0.1746 -0.4672 0.8667
vn -0.2524 -0.4374 0.8631
vn 0.1714 -0.4779 0.8615
vn 0.2706 -0.4451 0.8536
vn 0.6968 -0.2206 0.6825
vn 0.2524 -0.4374 0.8631
vn 0.1746 -0.4672 0.8667
vn 0.6807 -0.1900 0.7075
vn -0.1714 -0.4779 0.8615
vn -0.2706 -0.4451 0.8536
vn -0.6968 -0.2206 0.6825
vn -0.2796 -0.4358 0.8555
vn -0.7293 -0.1774 0.6608
vn -0.1758 -0.4728 0.8634
vn 0.2753 -0.4360 0.8568
vn 0.1756 -0.4720 0.8639
vn 0.7217 -0.1795 0.6685
vn -0.0483 -0.6904 0.7218
vn 0.0094 -0.7405 0.6720
vn -0.0660 -0.6771 0.7329
vn -0.0999 -0.6431 0.7592
vn -0.0877 -0.6511 0.7539
vn 0.0660 -0.6771 0.7330
vn -0.0094 -0.7405 0.6720
vn 0.0483 -0.6904 0.7218
vn 0.0999 -0.6431 0.7592
vn 0.0877 -0.6511 0.7539
vn -0.0000 -0.8106 0.5856
vn -0.0000 -0.8032 0.5957
vn -0.0150 -0.8334 0.5525
vn -0.0052 -0.8514 0.5245
vn -0.0000 -0.8574 0.5146
vn 0.0150 -0.8334 0.5525
vn 0.0052 -0.8514 0.5245
vn -0.9485 0.0572 0.3117
vn -0.0034 0.0585 0.9983
vn -0.0119 0.0563 0.9983
vn -0.9764 0.0752 -0.2025
vn 0.9540 0.0453 -0.2962
vn 0.9508 0.0596 0.3042
vn 0.2239 0.0959 -0.9699
vn 0.5741 0.0967 -0.8131
vn -0.2227 0.1034 -0.9694
vn -0.5709 0.0887 -0.8162
vn 0.9507 0.0596 0.3042
vn 0.9540 0.0454 -0.2962
vn 0.0120 0.0563 0.9983
vn 0.0035 0.0585 0.9983
vn 0.9485 0.0572 0.3117
vn 0.9764 0.0752 -0.2025
vn -0.9541 0.0454 -0.2961
vn -0.2239 0.0959 -0.9699
vn -0.9507 0.0596 0.3043
vn -0.9541 0.0453 -0.2961
vn -0.5741 0.0967 -0.8131
vn 0.2227 0.1034 -0.9694
vn 0.5709 0.0887 -0.8162
vn -0.0000 0.0347 0.9994
vn -0.0000 0.0369 0.9993
vn -0.0003 0.0494 0.9988
vn -0.0000 0.0495 0.9988
vn 0.0003 0.0628 0.9980
vn 0.0010 0.0591 0.9983
vn -0.0042 0.0678 0.9977
vn 0.8201 0.0684 0.5681
vn 0.7502 0.1372 0.6468
vn -0.7944 0.0051 0.6074
vn -0.8136 0.0788 0.5761
vn -0.7884 0.1104 0.6052
vn -0.7811 0.0889 0.6180
vn -0.7816 0.0878 0.6175
vn -0.6139 0.3029 0.7290
vn -0.5597 0.3073 0.7696
vn -0.4648 0.4100 0.7848
vn -0.3663 0.4036 0.8384
vn -0.4184 0.3555 0.8358
vn -0.2897 0.3634 0.8854
vn -0.1214 0.4428 0.8884
vn -0.1286 0.4407 0.8884
vn -0.1345 0.4384 0.8887
vn -0.0873 0.4059 0.9097
vn 0.0687 0.4051 0.9117
vn 0.1195 0.4200 0.8996
vn 0.1244 0.4190 0.8994
vn 0.3126 0.3867 0.8676
vn 0.3220 0.3996 0.8583
vn 0.4765 0.3826 0.7916
vn 0.5685 0.3118 0.7613
vn 0.4769 0.4312 0.7659
vt 0.279455 0.027168
vt 0.280067 0.044325
vt 0.285742 0.012461
vt 0.283239 0.055459
vt 0.289839 0.065860
vt 0.304128 0.075732
vt 0.327679 0.085337
vt 0.346111 0.003218
vt 0.290957 0.003876
vt 0.403995 0.102557
vt 0.493888 0.108639
vt 0.494986 0.105751
vt 0.454197 0.107550
vt 0.197659 0.076321
vt 0.210967 0.065428
vt 0.165447 0.087961
vt 0.218425 0.056637
vt 0.222009 0.046280
vt 0.218922 0.015361
vt 0.222449 0.033003
vt 0.112526 0.099680
vt 0.141421 0.093364
vt 0.067254 0.105878
vt 0.011332 0.146748
vt 0.020709 0.152085
vt 0.011718 0.144928
vt 0.206476 0.175970
vt 0.227130 0.223136
vt 0.217114 0.191404
vt 0.223817 0.208828
vt 0.211644 0.259784
vt 0.221863 0.240920
vt 0.191564 0.278355
vt 0.121555 0.312444
vt 0.145855 0.302908
vt 0.092084 0.323022
vt 0.459580 0.497214
vt 0.468392 0.492537
vt 0.454268 0.490308
vt 0.494008 0.497514
vt 0.496966 0.500023
vt 0.468253 0.481789
vt 0.489671 0.485723
vt 0.489036 0.492022
vt 0.499970 0.478898
vt 0.507621 0.490452
vt 0.515349 0.496388
vt 0.517625 0.485557
vt 0.474928 0.526455
vt 0.512313 0.523645
vt 0.517625 0.516738
vt 0.503641 0.508220
vt 0.456545 0.522820
vt 0.471923 0.505329
vt 0.454268 0.511989
vt 0.901420 0.602772
vt 0.899330 0.579748
vt 0.907337 0.603092
vt 0.891493 0.603505
vt 0.300728 0.654831
vt 0.337137 0.655626
vt 0.331548 0.624430
vt 0.174485 0.623725
vt 0.299859 0.666667
vt 0.338484 0.678841
vt 0.415139 0.685542
vt 0.433228 0.656140
vt 0.496260 0.695009
vt 0.516361 0.663313
vt 0.554398 0.686275
vt 0.570598 0.723867
vt 0.499000 0.729122
vt 0.415680 0.740954
vt 0.339553 0.740954
vt 0.300756 0.740954
vt 0.175048 0.639193
vt 0.102478 0.611754
vt 0.101587 0.674701
vt 0.175267 0.740954
vt 0.101587 0.807755
vt 0.037502 0.677003
vt 0.037502 0.805453
vt 0.038693 0.613782
vt 0.000830 0.678634
vt 0.000830 0.803253
vt -0.000147 0.608183
vt 0.505195 0.731817
vt 0.499000 0.752776
vt 0.505195 0.750092
vt 0.570813 0.729504
vt 0.570813 0.752394
vt 0.496260 0.786889
vt 0.570598 0.758031
vt 0.554398 0.795624
vt 0.516361 0.818586
vt 0.415139 0.796357
vt 0.433228 0.825758
vt 0.338484 0.803057
vt 0.337137 0.826683
vt 0.299859 0.813613
vt 0.300728 0.827068
vt 0.327673 0.858861
vt 0.173255 0.861437
vt 0.174704 0.842463
vt 0.323851 0.877124
vt 0.450922 0.877031
vt 0.441707 0.854211
vt 0.591033 0.878721
vt 0.571125 0.846151
vt 0.173285 0.875881
vt 0.671351 0.819791
vt 0.671640 0.872160
vt 0.100633 0.875894
vt 0.035001 0.877265
vt -0.000147 0.884131
vt 0.205210 0.833369
vt 0.235657 0.826914
vt 0.266025 0.820371
vt 0.294089 0.813148
vt 0.450922 0.609615
vt 0.441707 0.629091
vt 0.591033 0.608953
vt 0.571513 0.637557
vt 0.323851 0.607972
vt 0.174675 0.611159
vt 0.671473 0.661673
vt 0.670864 0.611113
vt 0.473317 0.395113
vt 0.461732 0.447564
vt 0.605142 0.443805
vt 0.611848 0.395154
vt 0.325824 0.448615
vt 0.304058 0.396050
vt 0.679980 0.438167
vt 0.734860 0.392981
vt 0.257535 0.414928
vt 0.180534 0.449367
vt 0.189671 0.425090
vt 0.606536 0.335498
vt 0.486093 0.336293
vt 0.337278 0.335398
vt 0.713665 0.334620
vt 0.108844 0.421560
vt 0.102634 0.449162
vt 0.066239 0.425292
vt 0.031363 0.444878
vt 0.121559 0.411467
vt 0.059441 0.425281
vt 0.016665 0.413542
vt 0.088370 0.370147
vt 0.018957 0.387689
vt 0.028312 0.439540
vt 0.003316 0.435750
vt 0.000399 0.453808
vt 0.147134 0.398922
vt 0.193069 0.416094
vt 0.256689 0.410937
vt 0.293419 0.371258
vt 0.303542 0.334430
vt 0.113497 0.354640
vt 0.081587 0.357066
vt 0.068082 0.554484
vt 0.081726 0.531636
vt 0.000051 0.524450
vt 0.001073 0.541651
vt 0.091431 0.532431
vt 0.093410 0.554304
vt 0.441158 0.541651
vt 0.438262 0.524450
vt 0.360989 0.554484
vt 0.347345 0.531636
vt 0.338627 0.532350
vt 0.339585 0.554332
vt 0.582463 0.759078
vt 0.598876 0.753638
vt 0.598876 0.731587
vt 0.582463 0.726147
vt 0.605142 0.889906
vt 0.461732 0.886202
vt 0.475778 0.944902
vt 0.611848 0.946513
vt 0.320940 0.884032
vt 0.299136 0.945606
vt 0.679887 0.895217
vt 0.730377 0.946878
vt 0.251654 0.916943
vt 0.180989 0.884480
vt 0.191517 0.909545
vt 0.604095 0.999333
vt 0.486093 0.999505
vt 0.337278 0.998781
vt 0.713723 0.998572
vt 0.111305 0.918556
vt 0.102019 0.886293
vt 0.071161 0.916365
vt 0.034439 0.896779
vt 0.121559 0.930190
vt 0.059441 0.916375
vt 0.016665 0.928114
vt 0.088370 0.971509
vt 0.018957 0.953967
vt 0.028312 0.902117
vt 0.003316 0.905906
vt -0.000216 0.884988
vt 0.136339 0.939463
vt 0.194578 0.916949
vt 0.255122 0.922927
vt 0.294042 0.961961
vt 0.300218 0.999651
vt 0.111930 0.987017
vt 0.081587 0.984590
vt 0.205696 0.648291
vt 0.265653 0.661881
vt 0.235803 0.655269
vt 0.294783 0.668196
vt 0.271422 0.664125
vt 0.271379 0.740954
vt 0.295724 0.740954
vt 0.271562 0.817740
vt 0.241305 0.659211
vt 0.240655 0.740954
vt 0.265721 0.740954
vt 0.265731 0.740954
vt 0.241092 0.823748
vt 0.210654 0.651749
vt 0.210056 0.740954
vt 0.235960 0.740954
vt 0.235959 0.740876
vt 0.210674 0.831395
vt 0.180547 0.644765
vt 0.179814 0.740954
vt 0.205631 0.740954
vt 0.179841 0.740894
vt 0.180640 0.836675
vt 0.179841 0.740876
vt 0.018813 0.521833
vt 0.049920 0.491370
vt -0.000097 0.498390
vt 0.000941 0.477555
vt 0.095541 0.514383
vt 0.012829 0.457108
vt 0.110579 0.457928
vt 0.121949 0.490262
vt 0.102783 0.507151
vt 0.094999 0.515808
vt 0.092428 0.523771
vt 0.123185 0.490162
vt 0.316789 0.456782
vt 0.112251 0.456782
vt 0.306800 0.490162
vt 0.296099 0.504072
vt 0.314044 0.504777
vt 0.132724 0.503595
vt 0.327662 0.509791
vt 0.117191 0.504773
vt 0.103309 0.508247
vt 0.334057 0.515808
vt 0.337724 0.524131
vt 0.438891 0.498514
vt 0.391038 0.491483
vt 0.421115 0.521947
vt 0.435373 0.477679
vt 0.332105 0.514507
vt 0.429622 0.456411
vt 0.316974 0.458052
vt 0.308193 0.489976
vt 0.326495 0.508752
vt 0.147270 0.505886
vt 0.294704 0.505886
vt 0.257349 0.535229
vt 0.179720 0.535229
vt 0.125570 0.535229
vt 0.220680 0.553442
vt 0.303485 0.535229
vt 0.257349 0.547288
vt 0.179720 0.547288
vt 0.463850 0.264471
vt 0.461849 0.165215
vt 0.272912 0.264471
vt 0.438055 0.165215
vt 0.299470 0.165215
vt 0.274913 0.165215
vt 0.299520 0.144890
vt 0.299553 0.131282
vt 0.299594 0.114303
vt 0.438296 0.146657
vt 0.438476 0.132735
vt 0.438715 0.114303
vt 0.289858 0.132186
vt 0.288864 0.143751
vt 0.461063 0.143782
vt 0.462783 0.133607
vt 0.298975 0.275826
vt 0.247078 0.275773
vt 0.438031 0.275455
vt 0.438329 0.295169
vt 0.438519 0.307715
vt 0.455000 0.295247
vt 0.454921 0.306080
vt 0.438752 0.323073
vt 0.298808 0.295379
vt 0.298705 0.307414
vt 0.284409 0.307442
vt 0.283981 0.295323
vt 0.298569 0.323329
vt 0.301675 0.330607
vt 0.244783 0.323337
vt 0.491980 0.323337
vt 0.423542 0.330607
vt 0.435087 0.330607
vt 0.489684 0.275773
vt 0.495312 0.108643
vt 0.455887 0.107560
vt 0.501186 0.113625
vt 0.364429 0.106862
vt 0.406046 0.102603
vt 0.362456 0.094056
vt 0.496402 0.105776
vt 0.433295 0.002274
vt 0.429614 0.006227
vt 0.348096 0.002685
vt 0.348579 0.003979
vt 0.293822 0.004632
vt 0.260310 0.003080
vt 0.253989 0.100106
vt 0.330280 0.085507
vt 0.306898 0.075971
vt 0.292712 0.066170
vt 0.286160 0.055844
vt 0.283010 0.044791
vt 0.282403 0.027757
vt 0.288644 0.013155
vt 0.060003 0.173540
vt 0.052698 0.168135
vt 0.066354 0.181848
vt 0.071061 0.191665
vt 0.068722 0.205479
vt 0.073957 0.204471
vt 0.074262 0.238898
vt 0.068722 0.239425
vt 0.071055 0.254659
vt 0.063384 0.266819
vt 0.049622 0.276770
vt 0.050995 0.277067
vt 0.037738 0.288057
vt 0.015794 0.300708
vt 0.010140 0.301626
vt 0.053540 0.167952
vt 0.042960 0.160025
vt 0.011370 0.145329
vt 0.029244 0.151775
vt 0.016244 0.146476
vt 0.016627 0.144669
vt 0.074883 0.115123
vt 0.075329 0.117291
vt 0.084472 0.121117
vt 0.158210 0.141604
vt 0.115212 0.130707
vt 0.149850 0.143360
vt 0.169923 0.152786
vt 0.211173 0.174714
vt 0.190089 0.164250
vt 0.206965 0.176231
vt 0.223009 0.188027
vt 0.226974 0.223108
vt 0.231969 0.208517
vt 0.232902 0.223609
vt 0.230425 0.239970
vt 0.202066 0.270190
vt 0.222009 0.258699
vt 0.203617 0.277135
vt 0.157966 0.303301
vt 0.184109 0.290568
vt 0.154351 0.301512
vt 0.137590 0.310980
vt 0.074716 0.330607
vt 0.107204 0.321481
vt 0.076242 0.327895
vt 0.075707 0.002002
vt 0.077681 0.004970
vt 0.159246 0.002260
vt 0.159084 0.004406
vt 0.210598 0.004228
vt 0.247419 0.003075
vt 0.219075 0.015625
vt 0.253748 0.100106
vt 0.222577 0.032831
vt 0.222140 0.046116
vt 0.218736 0.056500
vt 0.211177 0.065332
vt 0.197659 0.076248
vt 0.006543 0.114137
vt 0.014111 0.107830
vt 0.027275 0.108586
vt 0.067730 0.105900
vt 0.143300 0.106862
vt 0.112522 0.099747
vt 0.141825 0.093476
vt 0.165524 0.087702
vt 0.962834 0.454094
vt 0.780020 0.454094
vt 0.993905 0.561263
vt 0.748950 0.561263
vt 0.999840 0.594099
vt 0.969234 0.599627
vt 0.993180 0.598320
vt 0.969234 0.579213
vt 0.999840 0.584740
vt 0.993180 0.580510
vt 0.973065 0.596304
vt 0.975804 0.599537
vt 0.976223 0.595087
vt 0.976223 0.599268
vt 0.974412 0.599607
vt 0.972257 0.599627
vt 0.970506 0.599577
vt 0.969234 0.595087
vt 0.969234 0.599457
vt 0.996188 0.596304
vt 0.999301 0.598140
vt 0.999840 0.595087
vt 0.999840 0.597352
vt 0.997745 0.598599
vt 0.995395 0.598639
vt 0.992492 0.595087
vt 0.992492 0.596863
vt 0.976223 0.583742
vt 0.975804 0.579292
vt 0.973065 0.582525
vt 0.976223 0.579562
vt 0.974412 0.579223
vt 0.972257 0.579213
vt 0.970506 0.579253
vt 0.969234 0.583742
vt 0.969234 0.579372
vt 0.999840 0.583742
vt 0.999301 0.580689
vt 0.996188 0.582525
vt 0.999840 0.581478
vt 0.997745 0.580230
vt 0.995395 0.580190
vt 0.993180 0.580560
vt 0.992492 0.583742
vt 0.992492 0.581977
vt 0.901773 0.120074
vt 0.930529 0.154845
vt 0.996646 0.144504
vt 0.753828 0.127697
vt 0.747291 0.176749
vt 0.930529 0.198652
vt 0.753828 0.225795
vt 0.901773 0.233418
vt 0.996646 0.208994
vt 0.996646 0.271907
vt 0.942953 0.328523
vt 0.979879 0.331758
vt 0.939858 0.260276
vt 0.942909 0.233527
vt 0.804079 0.260276
vt 0.801028 0.233527
vt 0.747291 0.271907
vt 0.800977 0.328523
vt 0.764059 0.331758
vt 0.891454 0.120074
vt 0.903310 0.157578
vt 0.994364 0.143785
vt 0.757706 0.128682
vt 0.747291 0.181023
vt 0.904868 0.201385
vt 0.761178 0.226785
vt 0.895465 0.233418
vt 0.996646 0.208280
vt 0.996646 0.276773
vt 0.949084 0.329478
vt 0.977714 0.331758
vt 0.948405 0.254180
vt 0.944482 0.234467
vt 0.812625 0.253283
vt 0.802594 0.233527
vt 0.747291 0.275123
vt 0.807115 0.328537
vt 0.761880 0.330330
vt 0.987285 0.404979
vt 0.936377 0.418933
vt 0.979140 0.441480
vt 0.987285 0.441501
vt 0.989046 0.893023
vt 0.989046 0.929534
vt 0.970183 0.893023
vt 0.938138 0.915193
vt 0.772277 0.344900
vt 0.765096 0.345635
vt 0.766612 0.376951
vt 0.764714 0.337806
vt 0.773823 0.376971
vt 0.781417 0.337888
vt 0.766612 0.957124
vt 0.765096 0.988429
vt 0.772277 0.989164
vt 0.764714 0.996258
vt 0.773823 0.957093
vt 0.781417 0.996176
vt 0.968499 0.442878
vt 0.987361 0.406368
vt 0.987361 0.442878
vt 0.936454 0.420698
vt 0.976766 0.893839
vt 0.934004 0.916387
vt 0.984912 0.930340
vt 0.984912 0.893819
vt 0.731420 0.476848
vt 0.731420 0.484421
vt 0.733824 0.511542
vt 0.733824 0.515461
vt 0.632023 0.484421
vt 0.632023 0.515461
vt 0.646856 0.515461
vt 0.669732 0.515461
vt 0.683896 0.484421
vt 0.683896 0.515461
vt 0.529618 0.511542
vt 0.532022 0.484421
vt 0.532022 0.476848
vt 0.529618 0.515461
vt 0.983002 0.673355
vt 0.971075 0.615634
vt 0.960061 0.631210
vt 0.989417 0.673355
vt 0.977811 0.615675
vt 0.999365 0.741508
vt 0.987055 0.741508
vt 0.922689 0.614685
vt 0.913273 0.630996
vt 0.861431 0.613256
vt 0.838725 0.641121
vt 0.931784 0.674958
vt 0.822374 0.674754
vt 0.808502 0.658218
vt 0.719853 0.693994
vt 0.775599 0.642091
vt 0.671578 0.661697
vt 0.749464 0.611806
vt 0.671198 0.611061
vt 0.830993 0.741508
vt 0.931018 0.741508
vt 0.738149 0.741508
vt 0.806665 0.604457
vt 0.807247 0.636396
vt 0.931784 0.808049
vt 0.822374 0.808253
vt 0.838725 0.841896
vt 0.913273 0.852011
vt 0.808502 0.824788
vt 0.716162 0.789012
vt 0.775599 0.840915
vt 0.671456 0.819894
vt 0.749464 0.871200
vt 0.671686 0.871945
vt 0.807247 0.846621
vt 0.806665 0.878549
vt 0.861431 0.869761
vt 0.922689 0.868322
vt 0.959573 0.851796
vt 0.971075 0.867383
vt 0.983002 0.809651
vt 0.989417 0.809651
vt 0.977811 0.867332
vt 0.992460 0.386790
vt 0.958271 0.380686
vt 0.944522 0.402785
vt 0.881825 0.421823
vt 0.999365 0.379739
vt 0.978206 0.357673
vt 0.912806 0.344676
vt 0.898750 0.383267
vt 0.856900 0.416870
vt 0.823820 0.442784
vt 0.779953 0.419723
vt 0.768674 0.430273
vt 0.734613 0.393160
vt 0.680231 0.438059
vt 0.776375 0.601691
vt 0.797381 0.567753
vt 0.695596 0.567753
vt 0.614801 0.601691
vt 0.593779 0.567753
vt 0.883534 0.567804
vt 0.874210 0.589790
vt 0.507642 0.567804
vt 0.516966 0.589790
vt 0.356502 0.600109
vt 0.502158 0.604294
vt 0.354940 0.557311
vt 0.483586 0.557974
vt 0.145046 0.557311
vt 0.143484 0.600109
vt 0.000632 0.604294
vt 0.015286 0.557974
vt 0.944522 0.931279
vt 0.958271 0.952402
vt 0.992460 0.947600
vt 0.884538 0.913000
vt 0.999365 0.953433
vt 0.986507 0.975593
vt 0.912767 0.989388
vt 0.901152 0.950713
vt 0.855650 0.916822
vt 0.829648 0.892349
vt 0.781515 0.912739
vt 0.767209 0.903792
vt 0.729242 0.945788
vt 0.680270 0.895927
vt 0.926790 0.581962
vt 0.930947 0.584800
vt 0.926153 0.574669
vt 0.949842 0.574669
vt 0.945588 0.584799
vt 0.938618 0.586414
vt 0.949322 0.578563
vt 0.937829 0.568406
vt 0.946930 0.569588
vt 0.930332 0.570488
vt 0.253907 0.953998
vt 0.203979 0.949456
vt 0.253570 0.993827
vt 0.191501 0.954060
vt 0.191271 0.992806
vt 0.191608 0.993827
vt 0.241199 0.949456
vt 0.191271 0.953998
vt 0.253677 0.954060
vt 0.253907 0.992806
vt 0.733824 0.562424
vt 0.733824 0.525617
vt 0.683896 0.525617
vt 0.632023 0.562486
vt 0.699788 0.515502
vt 0.718835 0.515502
vt 0.632023 0.525617
vt 0.580134 0.525617
vt 0.530207 0.562424
vt 0.530207 0.525617
vt 0.567173 0.515502
vt 0.545196 0.515502
vt 0.594313 0.515502
vt 0.618151 0.515502
vt 0.927287 0.580859
vt 0.931282 0.584799
vt 0.926472 0.574660
vt 0.950072 0.574659
vt 0.945869 0.584799
vt 0.938607 0.586577
vt 0.950227 0.579203
vt 0.938086 0.568390
vt 0.945493 0.569994
vt 0.928801 0.570371
vt 0.582622 0.515461
vt 0.582622 0.484421
vt 0.569660 0.515502
vt 0.535098 0.484421
vt 0.547683 0.515502
vt 0.532694 0.515461
vt 0.620638 0.515502
vt 0.634510 0.515461
vt 0.634510 0.484421
vt 0.596800 0.515502
vt 0.811702 0.376971
vt 0.809803 0.337888
vt 0.809803 0.996176
vt 0.811702 0.957093
vt 0.632023 0.476297
vt 0.580134 0.484421
vt 0.532611 0.476848
vt 0.532611 0.484421
vt 0.459412 0.483238
vt 0.459412 0.488667
vt 0.499902 0.488667
vt 0.506180 0.484899
vt 0.506180 0.492429
vt 0.459412 0.494090
vt 0.513657 0.490993
vt 0.459412 0.492018
vt 0.513657 0.486335
vt 0.459412 0.485309
vt 0.509811 0.330805
vt 0.568797 0.328777
vt 0.509811 0.110618
vt 0.568797 0.112646
vt 0.641838 0.120216
vt 0.641838 0.321206
vt 0.691289 0.145584
vt 0.691289 0.295838
vt 0.720087 0.265069
vt 0.729998 0.220709
vt 0.720087 0.176346
vt 0.360089 0.093948
vt 0.433271 0.002797
vt 0.210417 0.004097
vt 0.155243 0.003648
vt 0.075769 0.002279
vt 0.027280 0.108583
vt 0.009833 0.108642
vt 0.075401 0.117346
vt 0.084670 0.121205
vt 0.038215 0.160395
vt 0.048871 0.168380
vt 0.115266 0.130865
vt 0.150034 0.143529
vt 0.170007 0.152697
vt 0.055382 0.174008
vt 0.061779 0.182376
vt 0.066520 0.192264
vt 0.069437 0.205163
vt 0.190198 0.164488
vt 0.069744 0.239839
vt 0.066513 0.255715
vt 0.058787 0.267963
vt 0.046331 0.278286
vt 0.173259 0.291885
vt 0.032955 0.289356
vt 0.071805 0.329482
vt 0.010888 0.302083
s 1
usemtl lancia.001
f 1/1/1 2/2/2 3/3/3
f 4/4/4 5/5/5 2/2/2
f 6/6/6 7/7/7 5/5/5
f 3/3/3 8/8/8 9/9/9
f 10/10/10 11/11/11 12/12/12
f 13/13/13 11/11/11 10/10/10
f 14/14/14 15/15/15 16/16/16
f 17/17/17 18/18/18 15/15/15
f 19/19/19 18/18/18 20/20/20
f 21/21/21 22/22/22 23/23/23
f 24/24/24 25/25/25 26/26/26
f 27/27/27 28/28/28 29/29/29
f 29/29/29 28/28/28 30/30/30
f 31/31/31 32/32/32 33/33/33
f 34/34/34 35/35/35 36/36/36
f 37/37/37 38/38/38 39/39/39
f 40/40/40 38/38/38 37/37/37
f 41/41/41 40/40/40 37/37/37
f 39/39/39 38/38/38 42/42/42
f 38/38/38 43/43/43 42/42/42
f 38/38/38 44/44/44 43/43/43
f 38/38/38 45/40/40 44/44/44
f 42/42/45 46/43/43 47/45/46
f 44/44/44 48/46/47 46/43/43
f 49/40/40 48/46/47 44/44/44
f 50/47/48 48/46/47 51/40/40
f 50/47/48 51/40/40 52/41/41
f 53/48/49 48/46/47 50/47/48
f 47/45/46 54/43/43 53/48/49
f 54/43/43 48/46/47 53/48/49
f 55/49/50 56/50/51 57/51/52
f 55/49/50 57/51/52 58/52/52
f 59/53/53 55/49/50 58/52/52
f 59/53/53 58/52/52 60/54/54
f 61/55/55 59/53/53 60/54/54
f 62/56/56 63/57/57 64/58/58
f 65/57/59 66/59/60 64/58/58
f 67/56/56 66/59/61 68/57/62
f 69/60/63 70/61/64 71/62/65
f 71/62/65 72/63/66 69/60/63
f 69/60/63 73/64/67 70/61/64
f 72/63/66 73/64/67 69/60/63
f 74/65/68 70/61/64 73/64/67
f 70/61/64 74/65/68 75/66/69
f 75/66/69 76/67/70 70/61/64
f 76/67/70 75/66/69 77/68/71
f 77/68/71 78/69/72 76/67/70
f 78/69/72 77/68/71 79/70/73
f 79/70/73 77/68/71 80/71/74
f 81/72/75 80/71/74 77/68/71
f 81/72/75 77/68/71 75/66/69
f 75/66/69 82/73/76 81/72/75
f 82/73/76 75/66/69 74/65/68
f 74/65/68 83/74/77 82/73/76
f 83/74/77 74/65/68 73/64/67
f 73/64/67 84/75/78 83/74/77
f 73/64/67 72/63/66 85/76/79
f 86/77/80 85/76/79 72/63/66
f 85/76/79 86/77/80 87/78/81
f 85/76/79 87/78/81 88/79/82
f 89/80/83 88/79/82 87/78/81
f 86/77/80 90/81/84 87/78/81
f 87/78/81 90/81/84 89/80/83
f 91/82/85 89/80/83 90/81/84
f 90/81/84 86/77/80 92/83/86
f 90/81/84 93/84/87 91/82/85
f 94/85/87 91/82/85 93/84/87
f 90/81/84 92/83/86 95/86/88
f 93/84/87 90/81/84 95/86/88
f 81/72/75 96/87/89 80/71/74
f 96/87/89 81/72/75 97/88/90
f 82/73/76 97/88/90 81/72/75
f 97/88/90 98/89/91 96/87/89
f 96/87/89 98/89/91 99/90/92
f 99/90/92 80/71/74 96/87/89
f 100/91/93 99/90/92 98/89/91
f 82/73/76 101/92/94 97/88/90
f 101/92/94 102/93/95 97/88/90
f 98/89/91 102/93/95 100/91/93
f 102/93/95 98/89/91 97/88/90
f 102/93/95 101/92/94 103/94/96
f 103/94/96 101/92/94 104/95/97
f 105/96/98 104/95/97 101/92/94
f 101/92/94 82/73/76 105/96/98
f 104/95/97 105/96/98 106/97/99
f 107/98/100 106/97/99 105/96/98
f 106/97/99 107/98/100 108/99/101
f 109/100/102 108/99/101 107/98/100
f 108/99/101 109/100/102 110/101/103
f 108/99/101 110/101/103 111/102/104
f 112/103/105 111/102/104 110/101/103
f 109/100/102 112/103/105 110/101/103
f 105/96/98 83/74/77 107/98/100
f 83/74/77 105/96/98 82/73/76
f 84/75/78 107/98/100 83/74/77
f 107/98/100 84/75/78 109/100/102
f 112/103/105 109/100/102 113/104/106
f 112/103/105 114/105/107 111/102/104
f 115/106/108 111/102/104 114/105/107
f 111/102/104 115/106/108 116/107/109
f 117/108/110 116/107/109 115/106/108
f 116/107/109 117/108/110 118/109/111
f 114/105/107 112/103/105 119/110/112
f 117/108/110 120/111/113 118/109/111
f 121/112/114 120/111/113 117/108/110
f 113/104/106 122/113/115 112/103/105
f 112/103/105 122/113/115 119/110/112
f 122/113/115 113/104/106 89/80/83
f 88/79/82 89/80/83 113/104/106
f 89/80/83 91/82/85 122/113/115
f 123/114/116 122/113/115 91/82/85
f 124/115/117 123/114/116 91/82/85
f 124/115/117 91/82/85 94/85/87
f 125/116/118 113/104/106 126/117/119
f 126/117/119 113/104/106 127/118/120
f 113/104/106 109/100/102 127/118/120
f 109/100/102 128/119/121 127/118/120
f 129/120/122 130/121/123 131/122/124
f 132/123/125 131/122/124 130/121/123
f 130/121/123 129/120/122 71/62/65
f 133/124/126 71/62/65 129/120/122
f 71/62/65 133/124/126 72/63/66
f 134/125/127 72/63/66 133/124/126
f 132/123/125 135/126/128 131/122/124
f 131/122/124 135/126/128 136/127/129
f 134/125/127 86/77/80 72/63/66
f 137/128/130 138/129/131 139/130/124
f 139/130/124 140/131/132 137/128/130
f 138/129/131 137/128/130 141/132/126
f 142/133/133 141/132/126 137/128/130
f 140/131/132 139/130/124 143/134/129
f 143/134/129 144/135/134 140/131/132
f 141/132/126 142/133/133 145/136/135
f 145/136/135 146/137/127 141/132/126
f 146/137/127 145/136/135 147/138/136
f 140/131/132 148/139/137 137/128/130
f 149/140/138 137/128/130 148/139/137
f 137/128/130 149/140/138 142/133/133
f 150/141/139 142/133/133 149/140/138
f 148/139/137 140/131/132 151/142/140
f 144/135/134 151/142/140 140/131/132
f 147/138/136 152/143/141 146/137/127
f 153/144/142 146/137/127 152/143/141
f 152/143/141 154/145/143 153/144/142
f 155/146/86 153/144/142 154/145/143
f 147/138/136 156/147/144 152/143/141
f 156/147/144 154/145/143 152/143/141
f 154/145/143 156/147/144 157/148/145
f 157/148/145 156/147/144 158/149/146
f 159/150/147 158/149/146 156/147/144
f 159/150/147 160/151/148 158/149/146
f 157/148/145 161/152/149 154/145/143
f 157/148/145 158/149/146 161/152/149
f 154/145/143 161/152/149 155/146/86
f 162/153/150 161/152/149 158/149/146
f 163/154/88 161/152/149 162/153/150
f 161/152/149 163/154/88 155/146/86
f 156/147/144 164/155/151 159/150/147
f 164/155/151 156/147/144 165/156/152
f 147/138/136 165/156/152 156/147/144
f 165/156/152 147/138/136 166/157/153
f 145/136/135 166/157/153 147/138/136
f 166/157/153 145/136/135 142/133/133
f 142/133/133 167/158/154 166/157/153
f 167/158/154 142/133/133 168/159/155
f 150/141/139 168/159/155 142/133/133
f 169/160/156 159/150/147 164/155/151
f 169/160/156 170/161/157 159/150/147
f 171/162/157 172/163/158 173/164/148
f 173/164/148 174/165/159 171/162/157
f 172/163/158 171/162/157 175/166/160
f 176/167/161 175/166/160 171/162/157
f 177/168/162 178/169/163 179/170/164
f 180/171/165 179/170/164 178/169/163
f 180/171/165 181/172/166 179/170/164
f 182/173/167 179/170/164 181/172/166
f 183/174/168 184/175/92 185/176/93
f 183/174/168 185/176/93 186/177/95
f 187/178/110 188/179/169 189/180/170
f 189/180/170 190/181/171 187/178/110
f 191/182/107 189/180/170 188/179/169
f 189/180/170 191/182/107 192/183/172
f 193/184/114 187/178/110 190/181/171
f 190/181/171 194/185/173 193/184/114
f 195/186/174 192/183/172 191/182/107
f 191/182/107 196/187/112 195/186/174
f 197/188/175 195/186/174 196/187/112
f 189/180/170 198/189/176 190/181/171
f 198/189/176 189/180/170 199/190/177
f 192/183/172 199/190/177 189/180/170
f 199/190/177 192/183/172 200/191/178
f 201/192/179 190/181/171 198/189/176
f 190/181/171 201/192/179 194/185/173
f 196/187/112 202/193/180 197/188/175
f 202/193/180 196/187/112 203/194/115
f 203/194/115 204/195/181 202/193/180
f 204/195/181 203/194/115 205/196/116
f 202/193/180 206/197/182 197/188/175
f 202/193/180 204/195/181 206/197/182
f 207/198/183 206/197/182 204/195/181
f 208/199/184 206/197/182 207/198/183
f 206/197/182 208/199/184 209/200/185
f 208/199/184 210/201/163 209/200/185
f 204/195/181 211/202/186 207/198/183
f 211/202/186 208/199/184 207/198/183
f 205/196/116 211/202/186 204/195/181
f 208/199/184 211/202/186 212/203/187
f 212/203/187 211/202/186 213/204/188
f 205/196/116 213/204/188 211/202/186
f 209/200/185 214/205/189 206/197/182
f 215/206/190 206/197/182 214/205/189
f 206/197/182 215/206/190 197/188/175
f 216/207/191 197/188/175 215/206/190
f 197/188/175 216/207/191 195/186/174
f 192/183/172 195/186/174 216/207/191
f 216/207/191 217/208/192 192/183/172
f 218/209/193 192/183/172 217/208/192
f 192/183/172 218/209/193 200/191/178
f 214/205/189 209/200/185 219/210/194
f 209/200/185 220/211/195 219/210/194
f 85/76/196 221/79/197 222/76/198
f 222/76/198 223/212/199 85/76/196
f 85/76/79 224/212/200 73/64/67
f 224/212/200 225/213/201 73/64/67
f 226/214/202 225/213/201 224/212/200
f 73/64/67 225/213/201 227/215/203
f 228/215/204 229/213/205 230/216/206
f 230/216/206 231/217/207 228/215/204
f 232/218/208 228/215/204 231/217/207
f 232/218/208 231/217/207 233/119/209
f 234/219/210 233/119/209 231/217/207
f 235/118/211 233/119/209 234/219/210
f 236/220/212 237/221/213 238/213/205
f 239/222/214 238/213/205 237/221/213
f 239/222/214 237/221/213 240/223/215
f 237/221/213 241/118/211 240/223/215
f 242/224/216 241/118/211 237/221/213
f 236/220/212 238/213/205 243/214/217
f 244/225/218 245/226/219 243/214/217
f 246/227/220 243/214/217 245/226/219
f 245/226/219 247/228/221 246/227/220
f 248/117/222 247/228/221 245/226/219
f 249/229/223 248/117/222 245/226/219
f 244/225/224 250/214/217 251/212/225
f 252/230/226 253/231/227 251/212/225
f 254/232/228 251/212/225 253/231/227
f 253/231/227 255/233/229 254/232/228
f 255/233/229 256/116/230 254/232/228
f 257/234/231 256/116/230 255/233/229
f 257/234/231 258/104/232 256/116/230
f 249/229/233 256/116/230 259/117/222
f 260/230/234 251/212/225 261/76/235
f 262/224/216 259/117/222 241/118/211
f 263/75/236 264/218/237 265/100/238
f 266/119/239 265/100/238 264/218/237
f 264/218/237 263/75/236 267/215/240
f 268/64/241 269/215/242 263/75/236
f 270/213/243 271/222/244 272/216/245
f 273/217/246 272/216/245 271/222/244
f 271/222/244 274/223/247 273/217/246
f 274/223/247 275/118/248 273/217/246
f 275/118/248 276/219/249 273/217/246
f 277/214/250 278/227/251 279/220/252
f 280/221/253 279/220/252 278/227/251
f 278/227/251 281/228/254 280/221/253
f 281/228/254 282/117/255 280/221/253
f 282/117/255 283/224/256 280/221/253
f 284/212/257 285/232/258 286/225/259
f 287/226/260 286/225/259 285/232/258
f 287/226/260 285/232/258 288/229/261
f 289/116/262 288/229/261 285/232/258
f 290/76/263 291/79/264 292/230/265
f 293/231/266 292/230/265 291/79/264
f 291/79/264 294/104/267 293/231/266
f 294/104/267 295/235/268 293/231/266
f 296/234/269 295/235/268 294/104/267
f 297/236/270 298/237/271 299/238/272
f 299/238/272 298/237/271 300/239/273
f 297/236/270 301/240/274 298/237/271
f 298/237/271 302/241/275 300/239/273
f 298/237/271 303/242/276 302/241/275
f 304/243/277 303/242/276 298/237/271
f 305/244/278 304/243/277 298/237/271
f 301/240/274 305/244/278 298/237/271
f 306/163/279 307/245/274 308/164/270
f 306/163/279 309/246/280 307/245/274
f 310/166/280 309/246/280 306/163/279
f 311/247/277 312/248/281 313/249/281
f 314/250/282 312/248/281 311/247/277
f 314/250/282 311/247/277 315/251/283
f 314/250/282 315/251/283 316/252/284
f 317/253/285 315/251/283 311/247/277
f 318/254/286 314/250/282 316/252/284
f 317/253/285 311/247/277 319/255/287
f 311/247/277 320/256/278 319/255/287
f 321/169/288 322/257/289 323/171/290
f 322/257/289 324/258/291 323/171/290
f 323/171/290 324/258/291 325/172/291
f 326/259/292 327/260/293 328/261/288
f 329/262/294 327/260/293 326/259/292
f 327/260/293 330/263/289 328/261/288
f 329/262/294 331/264/295 327/260/293
f 331/264/295 332/265/276 327/260/293
f 327/260/293 332/265/276 333/266/296
f 327/260/293 334/267/286 330/263/289
f 333/266/296 334/267/286 327/260/293
f 317/253/285 335/268/297 315/251/283
f 336/269/298 315/251/283 335/268/297
f 335/268/297 317/253/285 319/255/287
f 336/269/298 335/268/297 337/270/299
f 338/271/299 337/270/299 335/268/297
f 335/268/297 339/272/300 338/271/299
f 335/268/297 340/245/301 339/272/300
f 340/245/301 335/268/297 319/255/287
f 309/246/280 339/272/300 340/245/301
f 341/273/302 337/270/299 338/271/299
f 341/273/302 338/271/299 339/272/300
f 176/167/161 341/273/302 339/272/300
f 337/270/299 342/274/303 336/269/298
f 342/274/303 337/270/299 341/273/302
f 342/274/303 343/257/304 336/269/298
f 336/269/298 316/252/284 315/251/283
f 343/257/304 316/252/284 336/269/298
f 344/256/287 340/245/301 319/255/287
f 345/254/305 316/252/284 343/257/304
f 175/166/160 176/167/161 339/272/300
f 175/166/160 339/272/300 309/246/280
f 341/273/302 182/173/167 342/274/303
f 342/274/303 182/173/167 181/172/166
f 342/274/303 181/172/166 324/258/291
f 343/257/304 342/274/303 324/258/291
f 346/275/306 347/270/306 348/276/306
f 347/270/306 349/271/306 348/276/306
f 350/277/307 351/278/308 352/279/307
f 351/278/308 353/280/309 352/279/307
f 353/280/309 354/281/310 352/279/307
f 354/281/310 355/282/308 352/279/307
f 354/281/310 353/280/309 356/283/311
f 353/280/309 357/284/312 356/283/311
f 358/285/313 357/284/312 353/280/309
f 359/286/313 358/285/313 353/280/309
f 360/287/313 358/285/313 359/286/313
f 361/288/313 358/285/313 360/287/313
f 357/284/312 362/289/314 356/283/311
f 363/290/315 356/283/311 362/289/314
f 359/286/313 364/291/313 360/287/313
f 365/292/313 360/287/313 364/291/313
f 352/279/307 366/293/316 350/277/307
f 367/294/317 366/293/316 352/279/307
f 368/295/318 366/293/316 369/296/319
f 366/293/316 370/297/320 369/296/319
f 369/296/319 370/297/320 371/298/321
f 372/299/322 371/298/321 370/297/320
f 373/300/323 370/297/320 366/293/316
f 374/301/324 373/300/323 366/293/316
f 375/302/325 373/300/323 374/301/324
f 375/302/325 374/301/324 376/303/326
f 377/304/327 376/303/326 374/301/324
f 378/305/328 373/300/323 375/302/325
f 379/306/329 373/300/323 378/305/328
f 380/307/330 379/306/329 378/305/328
f 381/308/331 373/300/323 379/306/329
f 382/309/330 381/308/331 379/306/329
f 383/310/330 381/308/331 382/309/330
f 350/277/307 368/295/318 384/311/317
f 368/295/318 350/277/307 366/293/316
f 385/312/332 386/313/333 387/314/334
f 386/313/333 388/315/335 387/314/334
f 389/316/333 388/315/335 386/313/333
f 390/317/336 388/315/335 389/316/333
f 385/312/332 387/314/334 391/318/337
f 387/314/334 392/319/338 391/318/337
f 391/318/337 392/319/338 393/320/339
f 393/320/339 392/319/338 394/321/340
f 395/322/341 393/320/339 394/321/340
f 395/322/341 394/321/340 396/323/342
f 394/321/340 397/324/343 396/323/342
f 388/315/335 390/317/336 398/325/344
f 390/317/336 399/326/345 398/325/344
f 399/326/345 400/327/346 398/325/344
f 400/327/346 401/328/347 398/325/344
f 401/328/347 402/329/348 398/325/344
f 398/325/344 402/329/348 397/324/343
f 402/329/348 403/330/349 397/324/343
f 403/330/349 404/331/349 397/324/343
f 404/331/349 405/332/349 397/324/343
f 397/324/343 405/332/349 396/323/342
f 406/333/350 407/334/351 408/335/352
f 407/334/351 409/336/353 408/335/352
f 410/337/354 409/336/353 407/334/351
f 411/338/355 409/336/353 410/337/354
f 411/338/355 410/337/354 412/339/356
f 413/340/357 412/339/356 410/337/354
f 412/339/356 413/340/357 414/341/358
f 414/341/358 413/340/357 415/342/359
f 415/342/359 413/340/357 416/343/360
f 417/344/361 415/342/359 416/343/360
f 418/345/362 417/344/361 416/343/360
f 419/346/363 418/345/362 416/343/360
f 420/347/364 419/346/363 416/343/360
f 407/334/351 406/333/350 421/348/365
f 421/348/365 422/349/366 407/334/351
f 422/349/366 423/350/367 407/334/351
f 424/351/368 423/350/367 422/349/366
f 425/352/368 423/350/367 424/351/368
f 426/353/369 423/350/367 425/352/368
f 427/354/370 423/350/367 426/353/369
f 426/353/369 428/355/371 427/354/370
f 428/355/371 429/356/372 427/354/370
f 427/354/370 429/356/372 430/357/373
f 430/357/373 429/356/372 431/358/374
f 432/359/375 430/357/373 431/358/374
f 432/359/375 433/360/376 430/357/373
f 430/357/373 433/360/376 434/361/377
f 434/361/377 433/360/376 435/362/378
f 436/363/379 434/361/377 435/362/378
f 436/363/379 437/364/380 434/361/377
f 434/361/377 437/364/380 438/365/381
f 438/365/381 437/364/380 439/366/382
f 440/367/383 438/365/381 439/366/382
f 440/367/383 441/368/384 438/365/381
f 438/365/381 441/368/384 442/369/385
f 441/368/384 443/370/386 442/369/385
f 443/370/386 444/371/387 442/369/385
f 442/369/385 444/371/387 445/372/388
f 445/372/388 444/371/387 446/373/389
f 447/374/390 445/372/388 446/373/389
f 447/374/390 448/375/391 445/372/388
f 445/372/388 448/375/391 449/376/392
f 449/376/392 448/375/391 450/377/393
f 451/378/394 449/376/392 450/377/393
f 449/376/392 451/378/394 420/347/364
f 419/346/363 420/347/364 451/378/394
f 452/379/395 453/380/396 454/381/397
f 455/382/398 454/381/397 453/380/396
f 455/382/398 456/383/399 454/381/397
f 454/381/397 456/383/399 457/384/400
f 456/383/399 458/385/401 457/384/400
f 457/384/400 458/385/401 459/386/402
f 459/386/402 458/385/401 460/387/403
f 461/388/404 459/386/402 460/387/403
f 461/388/404 462/389/405 459/386/402
f 462/389/405 463/390/14 459/386/402
f 463/390/14 464/391/406 459/386/402
f 452/379/395 465/392/407 453/380/396
f 466/393/408 453/380/396 465/392/407
f 466/393/408 465/392/407 467/394/409
f 465/392/407 468/395/410 467/394/409
f 469/396/411 468/395/410 465/392/407
f 459/386/402 464/391/406 469/396/411
f 470/397/412 468/395/410 469/396/411
f 471/398/413 470/397/412 469/396/411
f 464/391/406 472/399/414 469/396/411
f 472/399/414 471/398/413 469/396/411
f 473/400/415 474/401/416 475/402/417
f 476/403/417 475/402/417 474/401/416
f 477/404/418 478/405/419 479/406/420
f 478/405/419 477/404/418 480/407/421
f 481/408/422 480/407/421 477/404/418
f 482/409/423 480/407/421 481/408/422
f 483/410/424 484/411/425 485/412/426
f 484/411/425 486/413/427 485/412/426
f 487/414/428 484/411/425 483/410/424
f 488/415/429 487/414/428 483/410/424
f 489/416/430 488/415/429 483/410/424
f 490/417/431 489/416/430 483/410/424
f 485/412/426 490/417/431 483/410/424
f 490/417/431 491/418/432 489/416/430
f 492/419/433 493/420/434 494/421/435
f 493/420/434 495/422/436 494/421/435
f 496/423/437 493/420/434 492/419/433
f 497/424/438 496/423/437 492/419/433
f 498/406/439 497/424/438 492/419/433
f 499/425/440 498/406/439 492/419/433
f 492/419/433 494/421/435 499/425/440
f 499/425/440 500/426/441 498/406/439
f 501/427/442 502/428/443 503/429/444
f 501/427/442 504/430/427 502/428/443
f 503/429/444 502/428/443 505/431/445
f 503/429/444 505/431/445 506/432/446
f 503/429/444 506/432/446 507/433/447
f 503/429/444 507/433/447 508/434/448
f 503/429/444 508/434/448 501/427/442
f 507/433/447 509/435/432 508/434/448
f 510/436/449 511/437/450 512/438/451
f 510/436/449 513/439/436 511/437/450
f 512/438/451 511/437/450 514/440/452
f 512/438/451 514/440/452 515/441/453
f 512/438/451 515/441/453 516/442/454
f 512/438/451 516/442/454 517/443/455
f 517/443/455 510/436/449 512/438/451
f 516/442/454 518/444/441 517/443/455
f 519/445/456 520/446/457 521/447/458
f 519/445/456 522/448/459 520/446/457
f 522/448/459 523/449/460 520/446/457
f 524/450/461 520/446/457 523/449/460
f 523/449/460 525/451/462 524/450/461
f 524/450/461 525/451/462 526/452/463
f 527/453/464 524/450/461 526/452/463
f 527/453/464 520/446/457 524/450/461
f 527/453/464 521/447/458 520/446/457
f 528/454/456 529/455/465 530/456/459
f 528/454/456 531/457/466 529/455/465
f 532/458/458 531/457/466 528/454/456
f 533/459/467 531/457/466 532/458/458
f 533/459/467 532/458/458 534/460/464
f 535/461/463 533/459/467 534/460/464
f 536/462/468 533/459/467 535/461/463
f 536/462/468 531/457/466 533/459/467
f 536/462/468 529/455/465 531/457/466
f 537/463/469 536/462/468 535/461/463
f 538/464/470 539/465/471 540/466/472
f 538/464/470 541/467/473 539/465/471
f 541/467/473 542/468/474 539/465/471
f 543/469/475 539/465/471 542/468/474
f 542/468/474 544/470/476 543/469/475
f 543/469/475 544/470/476 545/471/477
f 546/472/478 543/469/475 545/471/477
f 546/472/478 539/465/471 543/469/475
f 546/472/478 540/466/472 539/465/471
f 547/473/479 548/474/480 549/475/481
f 547/473/479 550/476/482 548/474/480
f 551/477/483 550/476/482 547/473/479
f 552/478/484 550/476/482 551/477/483
f 552/478/484 551/477/483 553/479/478
f 554/480/477 552/478/484 553/479/478
f 555/481/485 552/478/484 554/480/477
f 555/481/485 550/476/482 552/478/484
f 555/481/485 548/474/480 550/476/482
f 556/482/476 555/481/485 554/480/477
f 557/483/486 558/484/487 559/485/488
f 559/485/488 560/486/489 557/483/486
f 561/487/490 562/488/491 563/489/492
f 563/489/492 562/488/491 564/490/493
f 565/491/494 566/492/495 567/493/489
f 566/492/495 565/491/494 568/494/496
f 569/495/497 565/491/494 567/493/489
f 568/494/496 565/491/494 570/496/498
f 571/497/499 572/498/500 573/499/501
f 574/500/490 573/499/501 572/498/500
f 571/497/499 573/499/501 575/501/502
f 576/502/492 573/499/501 574/500/490
f 577/503/503 578/504/504 579/505/505
f 580/506/506 578/504/504 577/503/503
f 581/507/507 582/508/508 583/509/509
f 584/509/510 585/510/511 586/507/510
f 587/511/512 588/512/513 589/513/514
f 590/512/513 591/514/515 589/513/516
f 592/515/517 593/516/518 594/517/519
f 594/517/519 595/518/520 592/515/517
f 595/518/520 596/519/521 592/515/517
f 595/518/520 597/520/522 596/519/521
f 598/521/523 599/522/524 600/523/525
f 598/521/526 601/524/527 602/522/524
f 603/525/516 604/526/528 605/527/529
f 603/525/516 606/528/530 604/526/528
f 607/529/531 604/526/528 606/528/530
f 606/528/530 603/525/516 608/530/532
f 609/531/533 608/530/532 603/525/516
f 604/526/528 610/532/534 605/527/529
f 605/527/529 610/532/534 611/533/535
f 610/532/534 612/534/536 611/533/535
f 611/533/535 612/534/536 613/535/537
f 614/536/538 611/533/535 613/535/537
f 603/525/516 605/527/529 614/536/538
f 614/536/538 613/535/537 615/537/539
f 615/537/539 613/535/537 616/538/540
f 615/537/539 616/538/540 617/539/541
f 616/538/540 618/540/542 617/539/541
f 619/541/543 617/539/541 618/540/542
f 620/542/544 619/541/543 618/540/542
f 621/543/545 619/541/543 620/542/544
f 615/537/539 622/544/546 614/536/538
f 623/545/547 614/536/538 622/544/546
f 622/544/546 615/537/539 624/546/548
f 617/539/541 624/546/548 615/537/539
f 612/534/536 625/547/549 613/535/537
f 626/548/550 616/538/540 613/535/537
f 613/535/537 625/547/549 626/548/550
f 618/540/542 616/538/540 626/548/550
f 626/548/550 620/542/544 618/540/542
f 625/547/549 620/542/544 626/548/550
f 622/544/546 627/549/551 623/545/547
f 627/549/551 622/544/546 628/550/552
f 624/546/548 628/550/552 622/544/546
f 628/550/552 629/551/553 627/549/551
f 629/551/553 630/552/554 627/549/551
f 631/553/555 629/551/553 628/550/552
f 632/554/556 631/553/555 628/550/552
f 628/550/552 624/546/548 632/554/556
f 632/554/556 633/555/557 631/553/555
f 633/555/557 632/554/556 634/556/558
f 633/555/557 634/556/558 635/557/559
f 635/557/559 634/556/558 636/558/560
f 629/551/553 631/553/555 637/559/561
f 637/559/561 631/553/555 633/555/557
f 633/555/557 635/557/559 637/559/561
f 637/559/561 638/560/562 629/551/553
f 637/559/561 635/557/559 638/560/562
f 629/551/553 638/560/562 639/561/563
f 629/551/553 639/561/563 630/552/554
f 630/552/554 639/561/563 640/562/564
f 630/552/554 640/562/564 641/563/509
f 641/563/509 640/562/564 642/564/565
f 641/563/509 642/564/565 643/565/526
f 642/564/565 644/566/566 643/565/526
f 644/566/566 642/564/565 645/567/567
f 608/530/532 643/565/526 644/566/566
f 643/565/526 608/530/532 609/531/533
f 627/549/551 641/563/509 643/565/526
f 646/527/568 647/533/568 648/536/568
f 649/549/569 650/552/569 651/563/569
f 652/568/528 653/569/570 654/570/534
f 654/570/534 653/569/570 655/571/571
f 656/572/531 653/569/570 652/568/528
f 656/572/531 657/573/572 653/569/570
f 658/574/573 653/569/570 657/573/572
f 653/569/570 658/574/573 659/575/574
f 659/575/574 655/571/571 653/569/570
f 659/575/574 660/576/575 655/571/571
f 661/577/576 655/571/571 660/576/575
f 660/576/575 662/578/577 661/577/576
f 663/579/544 661/577/576 662/578/577
f 662/578/577 664/580/578 663/579/544
f 664/580/578 665/581/545 663/579/544
f 666/582/579 667/583/530 668/584/532
f 668/584/532 669/585/580 666/582/579
f 670/586/566 669/585/580 668/584/532
f 667/583/530 666/582/579 671/587/531
f 672/588/572 671/587/531 666/582/579
f 673/589/581 669/585/580 670/586/566
f 669/585/580 673/589/581 674/590/582
f 675/591/583 676/592/584 677/593/585
f 678/594/586 677/593/585 676/592/584
f 677/593/585 679/595/587 675/591/583
f 680/596/588 675/591/583 679/595/587
f 679/595/587 681/597/589 680/596/588
f 681/597/589 679/595/587 682/598/582
f 683/599/564 684/600/590 685/601/565
f 686/602/563 684/600/590 683/599/564
f 685/601/565 684/600/590 687/603/591
f 684/600/590 688/604/582 687/603/591
f 688/604/582 684/600/590 689/605/592
f 690/606/593 689/605/592 684/600/590
f 684/600/590 686/602/563 690/606/593
f 686/602/563 691/607/594 690/606/593
f 691/607/594 686/602/563 692/608/562
f 692/608/562 693/609/595 691/607/594
f 693/609/595 692/608/562 694/610/559
f 694/610/559 695/611/596 693/609/595
f 694/610/559 696/612/560 695/611/596
f 697/613/597 698/614/597 699/615/597
f 698/614/597 700/616/597 699/615/597
f 701/617/597 700/616/597 698/614/597
f 702/618/597 701/617/597 698/614/597
f 703/619/597 700/616/597 701/617/597
f 700/616/597 704/620/597 699/615/597
f 705/621/597 704/620/597 700/616/597
f 704/620/597 706/622/597 699/615/597
f 707/623/598 708/624/598 709/625/599
f 708/624/598 710/626/600 709/625/599
f 710/626/600 711/627/601 709/625/599
f 712/628/509 713/629/602 714/630/511
f 712/628/509 715/631/603 713/629/602
f 712/628/509 716/632/604 715/631/603
f 717/633/516 718/634/605 719/635/606
f 717/633/516 719/635/606 720/636/607
f 721/637/608 719/635/606 718/634/605
f 718/634/605 722/638/608 721/637/608
f 719/635/606 723/639/608 720/636/607
f 724/518/608 723/639/608 719/635/606
f 725/517/608 723/639/608 724/518/608
f 720/636/607 723/639/608 726/640/609
f 720/636/607 726/640/609 727/641/526
f 726/640/609 728/642/605 727/641/526
f 728/642/605 726/640/609 729/643/608
f 729/643/608 730/644/608 728/642/605
f 726/640/609 723/639/608 731/645/608
f 731/645/608 723/639/608 732/646/608
f 733/647/597 734/648/597 735/649/597
f 734/648/597 736/650/597 735/649/597
f 737/651/597 736/650/597 734/648/597
f 738/652/597 737/651/597 734/648/597
f 739/653/597 736/650/597 737/651/597
f 736/650/597 740/654/597 735/649/597
f 741/655/597 740/654/597 736/650/597
f 740/654/597 742/656/597 735/649/597
f 743/657/610 744/658/611 745/659/612
f 744/658/611 746/660/613 745/659/612
f 745/659/612 746/660/613 747/661/614
f 748/662/615 747/661/614 746/660/613
f 749/637/616 750/519/617 751/520/618
f 749/637/616 752/512/619 750/519/617
f 753/638/620 752/512/619 749/637/616
f 752/512/619 753/638/620 754/514/621
f 755/663/622 756/664/623 757/665/624
f 757/665/624 758/666/625 755/663/622
f 757/665/624 759/658/626 758/666/625
f 759/658/626 760/657/627 758/666/625
f 761/667/628 762/668/629 763/496/630
f 761/667/628 763/496/630 764/491/631
f 761/667/628 764/491/631 765/495/632
f 766/502/633 767/669/634 768/670/635
f 769/499/636 766/502/633 768/670/635
f 770/501/637 769/499/636 768/670/635
f 771/671/638 772/515/639 773/519/640
f 771/671/638 773/519/640 774/511/641
f 773/519/640 775/512/642 774/511/641
f 776/672/643 772/515/639 771/671/638
f 777/673/644 776/672/643 771/671/638
f 777/673/644 778/674/642 776/672/643
f 779/675/645 780/676/646 781/677/647
f 782/678/648 779/675/645 781/677/647
f 781/677/647 780/676/646 783/679/649
f 783/679/649 784/680/650 785/681/651
f 784/680/650 786/682/652 785/681/651
f 785/681/651 786/682/652 787/683/653
f 786/682/652 788/684/654 787/683/653
f 787/683/653 788/684/654 789/678/648
f 788/684/654 790/675/645 789/678/648
f 780/676/646 791/680/655 792/679/656
f 793/677/657 794/676/658 795/680/659
f 793/677/657 795/680/659 796/679/660
f 797/678/661 794/676/658 793/677/657
f 798/683/662 799/675/663 797/678/664
f 798/683/662 800/684/665 799/675/663
f 801/681/666 800/684/665 798/683/662
f 801/681/666 802/682/667 800/684/665
f 803/679/660 802/682/667 801/681/666
f 803/679/660 804/680/659 802/682/667
f 805/678/661 806/675/663 794/676/658
usemtl lancia_NONE.001
f 807/685/417 808/686/668 809/687/417
f 809/687/417 808/686/668 810/688/668
f 810/688/668 808/686/668 811/689/669
f 808/686/668 812/690/669 811/689/669
f 811/689/669 812/690/669 813/691/670
f 812/690/669 814/692/671 813/691/670
f 814/692/671 815/693/672 813/691/670
f 815/693/672 816/694/673 813/691/670
f 816/694/673 817/695/674 813/691/670
usemtl Glass.002
f 2/2/2 8/8/8 3/3/3
f 7/7/7 8/8/8 2/2/2
f 5/5/5 7/7/7 2/2/2
f 818/696/675 8/8/8 7/7/7
f 818/696/675 10/10/10 8/8/8
f 8/8/8 10/10/10 12/12/12
f 819/697/676 8/8/8 12/12/12
f 820/698/677 821/699/678 19/19/19
f 821/699/678 18/18/18 19/19/19
f 16/16/16 18/18/18 821/699/678
f 22/22/22 16/16/16 821/699/678
f 15/15/15 18/18/18 16/16/16
f 821/699/678 822/700/679 22/22/22
f 22/22/22 822/700/679 23/23/23
f 822/700/679 823/701/680 23/23/23
f 824/702/681 823/701/680 822/700/679
f 825/703/682 26/26/26 826/704/683
f 26/26/26 25/25/25 826/704/683
f 25/25/25 827/705/684 826/704/683
f 827/705/684 828/706/685 826/704/683
f 826/704/683 828/706/685 829/707/374
f 828/706/685 830/708/686 829/707/374
f 830/708/686 828/706/685 831/709/687
f 828/706/685 832/710/688 831/709/687
f 832/710/688 833/711/689 831/709/687
f 833/711/689 834/712/690 831/709/687
f 834/712/690 835/713/691 831/709/687
f 831/709/687 835/713/691 836/714/378
f 835/713/691 27/27/27 836/714/378
f 835/713/691 28/28/28 27/27/27
f 837/715/692 28/28/28 835/713/691
f 28/28/28 837/715/692 32/32/32
f 32/32/32 837/715/692 33/33/33
f 837/715/692 838/716/693 33/33/33
f 838/716/693 839/717/694 33/33/33
f 839/717/694 840/718/695 33/33/33
f 33/33/33 840/718/695 841/719/696
f 840/718/695 35/35/35 841/719/696
f 840/718/695 842/720/697 35/35/35
f 35/35/35 842/720/697 36/36/36
f 842/720/697 843/721/698 36/36/36
f 844/722/699 843/721/698 842/720/697
