# Blender v3.0.1 OBJ File: ''
# www.blender.org
mtllib eva.mtl
o Cube.001
v -0.645059 0.775301 0.525448
v -0.401857 1.098101 0.496553
v -0.401848 1.098096 0.367853
v -0.173848 0.688895 0.367885
v -0.173867 0.688905 0.626785
v 0.184433 0.688905 0.626811
v 0.655541 0.775301 0.525542
v 0.184452 0.688895 0.367911
v 0.412452 1.098096 0.367912
v 0.412443 1.098101 0.496612
v 0.140941 1.155501 0.525290
v -0.130459 1.155501 0.525270
v -0.645043 0.775292 0.303748
v 0.655557 0.775292 0.303842
v -0.522163 -0.822082 0.737208
v -0.555645 -0.759492 0.483903
v -0.551744 -0.802993 0.475005
v -0.544364 -0.866283 0.738408
v -0.003966 -0.873282 0.767847
v -0.003764 -0.822782 0.747445
v -0.002245 -0.754593 0.484943
v -0.519231 -0.700100 0.281203
v -0.000730 -0.696101 0.271841
v -0.000527 -0.732601 0.233642
v -0.524129 -0.739701 0.262904
v 0.569537 -0.822082 0.737587
v 0.591636 -0.866283 0.738790
v 0.594555 -0.802993 0.475288
v 0.605955 -0.759492 0.484087
v 0.555670 -0.700100 0.281281
v 0.560671 -0.739701 0.262983
v -0.522162 -0.905884 0.720111
v -0.530044 -0.846493 0.466208
v -0.002244 -0.851292 0.465346
v -0.003763 -0.909783 0.729748
v -0.502029 -0.783900 0.264108
v -0.000729 -0.783200 0.254144
v 0.569538 -0.905884 0.720490
v 0.563656 -0.846493 0.466387
v 0.538471 -0.783900 0.264283
v -0.597662 -0.028620 0.622758
v -0.622945 0.020272 0.390454
v -0.647944 -0.023228 0.381654
v -0.606162 -0.072420 0.623259
v -0.400764 -0.077819 0.650174
v -0.400462 -0.028919 0.632172
v -0.398045 0.025171 0.391571
v -0.631528 0.066062 0.157552
v -0.395527 0.069463 0.148969
v -0.395225 0.031361 0.113271
v -0.639827 0.025963 0.140053
v -0.203062 -0.028620 0.623087
v -0.194862 -0.072420 0.623489
v -0.148044 -0.023228 0.381790
v -0.173045 0.020272 0.390687
v -0.159728 0.066062 0.157586
v -0.151327 0.025963 0.140088
v -0.597660 -0.112421 0.605761
v -0.622944 -0.066730 0.372758
v -0.398044 -0.071530 0.371874
v -0.400461 -0.115920 0.614476
v -0.631527 -0.017738 0.140555
v -0.395526 -0.017539 0.131272
v -0.203060 -0.112421 0.606090
v -0.173044 -0.066730 0.372990
v -0.159727 -0.017738 0.140589
v -0.492179 -0.069271 0.828533
v -0.503174 -0.051674 0.749632
v -0.515473 -0.090374 0.741732
v -0.496179 -0.107071 0.823934
v -0.391880 -0.108970 0.833142
v -0.391980 -0.068370 0.831841
v -0.392474 -0.047374 0.750540
v -0.506068 -0.037077 0.670231
v -0.393068 -0.034977 0.667439
v -0.393166 -0.071777 0.650441
v -0.510167 -0.073677 0.659632
v -0.291779 -0.069271 0.828548
v -0.287679 -0.107071 0.823949
v -0.269573 -0.090374 0.741750
v -0.281874 -0.051674 0.749648
v -0.280068 -0.037077 0.670247
v -0.275967 -0.073677 0.659649
v -0.492178 -0.143671 0.813336
v -0.503172 -0.129074 0.733935
v -0.392472 -0.133374 0.733043
v -0.391978 -0.145771 0.816143
v -0.506067 -0.111477 0.655034
v -0.393067 -0.112277 0.651742
v -0.291778 -0.143671 0.813351
v -0.281872 -0.129074 0.733951
v -0.280067 -0.111477 0.655050
v 0.285921 -0.068471 0.823289
v 0.273527 -0.051174 0.744488
v 0.261127 -0.090374 0.736588
v 0.281821 -0.106571 0.818791
v 0.386021 -0.103471 0.827898
v 0.386021 -0.062871 0.826697
v 0.385327 -0.041874 0.745396
v 0.269433 -0.036277 0.665087
v 0.384733 -0.029477 0.662295
v 0.384634 -0.066278 0.645297
v 0.265333 -0.073077 0.654388
v 0.486021 -0.058971 0.823303
v 0.490121 -0.096671 0.818805
v 0.509527 -0.079374 0.736606
v 0.497127 -0.041274 0.744504
v 0.500033 -0.026777 0.665103
v 0.504133 -0.063177 0.654405
v 0.285922 -0.142971 0.808192
v 0.273528 -0.128474 0.728791
v 0.385328 -0.127874 0.727899
v 0.386022 -0.140271 0.810900
v 0.269434 -0.110777 0.649890
v 0.384734 -0.106878 0.646598
v 0.486022 -0.133471 0.808206
v 0.497128 -0.118574 0.728807
v 0.500034 -0.101277 0.649906
v 0.195939 -0.028620 0.617916
v 0.163356 0.020272 0.385511
v 0.138856 -0.023228 0.376611
v 0.187839 -0.072420 0.618317
v 0.384537 -0.077819 0.645231
v 0.384438 -0.028919 0.627229
v 0.383455 0.025171 0.386527
v 0.146972 0.066062 0.152408
v 0.382473 0.069463 0.143825
v 0.382376 0.031360 0.108127
v 0.138774 0.025961 0.134909
v 0.572839 -0.028620 0.617943
v 0.581039 -0.072420 0.618345
v 0.628056 -0.023228 0.376647
v 0.603655 0.020272 0.385543
v 0.618072 0.066062 0.152442
v 0.626274 0.025961 0.134944
v 0.195940 -0.112421 0.600819
v 0.163357 -0.066730 0.367815
v 0.383457 -0.071530 0.366831
v 0.384439 -0.115920 0.609532
v 0.146974 -0.017738 0.135312
v 0.382474 -0.017539 0.126129
v 0.572840 -0.112421 0.600846
v 0.603657 -0.066730 0.367846
v 0.618074 -0.017738 0.135346
v 0.347841 -1.575330 0.008113
v 0.347841 -0.741534 -0.073023
v 0.489829 -0.741534 -0.073023
v 0.489829 -1.575330 0.008113
v 0.489829 -0.817811 0.344829
v 0.489829 -1.470654 0.344829
v 0.347841 -1.470654 0.344829
v 0.347841 -0.817811 0.344829
v -0.490239 -1.575330 0.008113
v -0.490239 -0.741534 -0.073023
v -0.348251 -0.741534 -0.073023
v -0.348251 -1.575330 0.008113
v -0.348251 -0.817811 0.344829
v -0.348251 -1.470654 0.344829
v -0.490239 -1.470654 0.344829
v -0.490239 -0.817811 0.344829
v 0.347841 1.032198 0.072110
v 0.347841 2.056402 -0.142901
v 0.489829 2.056402 -0.142901
v 0.489829 1.032198 0.072110
v 0.489829 1.842323 0.394220
v 0.489829 1.219355 0.437248
v 0.347841 1.219355 0.437248
v 0.347841 1.842323 0.394220
v -0.490239 1.032198 0.072110
v -0.490239 2.056402 -0.142901
v -0.348251 2.056402 -0.142901
v -0.348251 1.032198 0.072110
v -0.348251 1.842323 0.394220
v -0.348251 1.219355 0.437248
v -0.490239 1.219355 0.437248
v -0.490239 1.842323 0.394220
v -0.813183 0.901772 0.601327
v -0.764247 0.895740 0.585215
v -0.774114 0.949961 0.575331
v -0.858302 0.946629 0.600452
v -0.872422 0.888286 0.658172
v -0.902669 0.936477 0.637126
v -0.923013 0.864162 0.683236
v -0.942256 0.921846 0.653297
v -0.983619 0.818616 0.671745
v -0.989012 0.886020 0.648963
v -0.843270 0.906000 0.510525
v -0.877712 0.949357 0.541870
v -0.793002 0.955198 0.516748
v -0.793525 0.903859 0.494412
v -0.924022 0.886033 0.503807
v -0.935959 0.935024 0.537535
v -0.972407 0.849060 0.528871
v -0.974122 0.912103 0.553706
v -1.012674 0.809734 0.580942
v -1.007757 0.880289 0.590380
v 0.776793 0.949961 0.575331
v 0.766926 0.895739 0.585215
v 0.815861 0.901772 0.601327
v 0.860981 0.946629 0.600452
v 0.875101 0.888286 0.658172
v 0.905348 0.936477 0.637126
v 0.925693 0.864161 0.683236
v 0.944934 0.921846 0.653297
v 0.986298 0.818616 0.671745
v 0.991691 0.886020 0.648963
v 0.795681 0.955198 0.516748
v 0.880392 0.949357 0.541870
v 0.845948 0.906000 0.510525
v 0.796204 0.903859 0.494412
v 0.938639 0.935024 0.537535
v 0.926701 0.886033 0.503807
v 0.976801 0.912103 0.553706
v 0.975085 0.849060 0.528871
v 1.010436 0.880289 0.590380
v 1.015353 0.809734 0.580942
v 0.541942 -1.973966 -0.219077
v 0.497317 -2.063966 -0.174452
v 0.478833 -2.063966 -0.219077
v 0.541942 -2.063966 -0.155968
v 0.586566 -2.063964 -0.174452
v 0.605051 -2.063964 -0.219077
v 0.586566 -2.063964 -0.263702
v 0.541942 -2.063966 -0.282186
v 0.497317 -2.063966 -0.263702
v 0.497317 -1.829518 -0.174452
v 0.478833 -1.829518 -0.219077
v 0.541942 -1.829518 -0.155968
v 0.586566 -1.829518 -0.174452
v 0.605051 -1.829518 -0.219077
v 0.586566 -1.829518 -0.263702
v 0.541942 -1.829518 -0.282186
v 0.497317 -1.829518 -0.263702
v 0.408512 -1.816167 -0.170435
v 0.382028 -1.816167 -0.219077
v 0.541941 -1.816167 -0.150288
v 0.675369 -1.816167 -0.170435
v 0.701853 -1.816167 -0.219077
v 0.675369 -1.816167 -0.267718
v 0.541941 -1.816167 -0.287866
v 0.408513 -1.816167 -0.267718
v 0.408512 -1.573607 -0.157463
v 0.382028 -1.573607 -0.173896
v 0.541941 -1.573607 -0.150657
v 0.675369 -1.573606 -0.157463
v 0.701854 -1.573606 -0.173896
v 0.675369 -1.573606 -0.190329
v 0.541941 -1.573607 -0.197136
v 0.408513 -1.573607 -0.190329
v 0.541941 -1.573607 -0.173896
v -0.714385 -1.845278 0.900257
v -0.746864 -1.546943 0.591857
v -0.681931 -1.546943 0.867803
v -0.746864 -1.845276 0.543175
v 0.682237 -1.546943 0.867609
v 0.714407 -1.845278 0.900345
v 0.746973 -1.546943 0.591706
v 0.746973 -1.845277 0.543025
v -0.763099 -1.546943 0.591706
v -0.726556 -1.845278 0.912428
v -0.694101 -1.546943 0.879973
v -0.763099 -1.845276 0.543025
v 0.726470 -1.845278 0.912621
v 0.694301 -1.546943 0.879885
v 0.763210 -1.845277 0.543175
v 0.763210 -1.546943 0.591857
v 0.837182 1.940973 0.094242
v 0.878917 1.940973 -0.261464
v 0.728306 2.250781 -0.227041
v 0.726042 2.250781 0.128665
v 0.837182 1.631164 0.392576
v 0.726042 2.101615 0.346679
v 0.726042 1.527895 0.472897
v 0.837182 1.504946 0.404050
v 0.805078 1.183663 0.530268
v 0.837182 1.309881 0.369628
v 0.903958 -0.778459 0.025395
v 0.837182 -0.801408 -0.192618
v 0.837182 1.057444 -0.215567
v 0.837182 1.183663 0.254883
v 0.837182 -1.937373 -0.146721
v 0.837182 -1.547243 -0.146721
v 0.903958 -1.500000 0.130000
v 0.837182 -2.063592 0.117189
v 0.782575 -2.052117 -0.123772
v 0.837182 -2.017694 0.197510
v 0.865451 -1.803964 0.173223
v 0.808059 -1.730825 0.579227
v 0.782575 -1.971796 0.541742
v 0.837182 -1.455449 0.622063
v 0.886282 -1.350000 0.323729
v 0.886282 -1.088268 0.323729
v 0.663880 -1.157115 0.851552
v 0.663880 0.472250 0.908924
v 0.562902 -0.835832 0.977770
v 0.562902 0.185390 0.989245
v 0.903958 -0.904678 0.231934
v 0.837182 1.103342 -0.146721
v 0.837182 1.114817 0.094242
v 0.329496 2.032768 -0.261464
v 0.329496 2.342577 -0.227041
v 0.329496 2.032768 0.094243
v 0.368867 2.342577 0.128665
v 0.565423 1.990368 0.373976
v -0.006229 1.982499 0.408991
v 0.329496 1.527895 0.512421
v 0.649710 1.799747 0.420653
v 0.329496 1.631164 0.392576
v 0.329496 1.826228 0.312256
v 0.329496 1.504946 0.404050
v 0.316918 1.183663 0.530268
v 0.329496 1.309881 0.369628
v 0.329496 -0.765661 -0.026487
v 0.329496 1.021697 -0.049436
v 0.329496 -0.778459 0.025395
v 0.329496 1.183663 0.254883
v 0.329496 -1.547243 -0.146721
v 0.329496 -1.500000 0.130000
v 0.329496 -1.986054 -0.146721
v 0.329496 -2.100799 -0.123772
v 0.329496 -2.112274 0.117189
v 0.329496 -2.066375 0.197510
v 0.329496 -2.020478 0.541742
v 0.329496 -1.455449 0.622063
v 0.329496 -1.350000 0.323729
v 0.329496 -1.088268 0.323729
v 0.261600 -1.214745 0.874500
v 0.222038 -0.870972 1.000719
v 0.329496 -0.904678 0.231934
v 0.222038 0.221735 1.012193
v 0.261600 0.528675 0.931873
v 0.329496 1.103342 0.033468
v 0.329496 1.114817 0.094242
v -0.873966 1.940973 -0.261464
v -0.832231 1.940973 0.094242
v -0.723355 2.250781 -0.227041
v -0.721091 2.250781 0.128665
v -0.721091 2.101615 0.346679
v -0.832231 1.826228 0.312256
v -0.832231 1.631164 0.392576
v -0.721091 1.527895 0.472897
v -0.800126 1.183663 0.530268
v -0.832231 1.504946 0.404050
v -0.832231 1.309881 0.369628
v -0.832231 -0.801408 -0.192618
v -0.899007 -0.778459 0.025395
v -0.832231 1.057444 -0.215567
v -0.832231 1.183663 0.254883
v -0.832231 -1.547243 -0.146721
v -0.832231 -1.937373 -0.146721
v -0.899007 -1.500000 0.130000
v -0.777624 -2.052117 -0.123772
v -0.832231 -2.063592 0.117189
v -0.832231 -2.017694 0.197510
v -0.864732 -1.771962 0.169586
v -0.777624 -1.971796 0.541742
v -0.802874 -1.733035 0.578883
v -0.832231 -1.455449 0.622063
v -0.881331 -1.350000 0.323729
v -0.881331 -1.088268 0.323729
v -0.899007 -0.904678 0.231934
v -0.658930 0.472250 0.908924
v -0.658929 -1.157115 0.851552
v -0.557952 -0.835832 0.977770
v -0.557952 0.185390 0.989245
v -0.832231 1.103342 -0.146721
v -0.832231 1.114817 0.094242
v -0.324545 2.032768 -0.261464
v -0.324545 2.342577 -0.227041
v -0.324545 2.032768 0.094243
v -0.363657 2.342577 0.128665
v -0.572782 1.979380 0.380342
v -0.647212 1.773715 0.444075
v -0.324545 1.527895 0.512421
v -0.324545 1.631164 0.392576
v -0.324545 1.826228 0.312256
v -0.324545 1.504946 0.404050
v -0.311967 1.183663 0.530268
v -0.324545 1.309881 0.369628
v -0.324545 -0.765661 -0.026487
v -0.324545 1.021697 -0.049436
v -0.324545 -0.778459 0.025395
v -0.324545 1.183663 0.254883
v -0.324545 -1.547243 -0.146721
v -0.324545 -1.500000 0.130000
v -0.324545 -1.986054 -0.146721
v -0.324545 -2.100799 -0.123772
v -0.324545 -2.112274 0.117189
v -0.324545 -2.066375 0.197510
v -0.324545 -2.020478 0.541742
v -0.324545 -1.455449 0.622063
v -0.324545 -1.350000 0.323729
v -0.324545 -1.088268 0.323729
v -0.256650 -1.214745 0.874500
v -0.217089 -0.870972 1.000719
v -0.324545 -0.904678 0.231934
v -0.217089 0.221735 1.012193
v -0.256650 0.528675 0.931873
v -0.324545 1.103342 0.033468
v -0.324545 1.114817 0.094242
v -0.148996 0.308234 1.036438
v 0.149730 0.308234 1.036438
v -0.175909 0.501584 1.036565
v 0.176642 0.501584 1.036565
v -0.454920 2.193409 0.346679
v 0.460737 2.193409 0.346679
v -0.174090 1.738556 0.464138
v 0.837182 1.826228 0.312256
v -0.075929 -1.170803 0.001333
v -0.038416 -0.866747 -0.072690
v -0.075929 -0.879702 -0.136359
v -0.038416 -1.144375 0.060690
v 0.036610 -0.866747 -0.072690
v 0.036610 -1.144375 0.060690
v 0.074123 -0.879702 -0.136359
v 0.074123 -1.170803 0.001332
v 0.036610 -0.892656 -0.200030
v 0.036610 -1.197230 -0.058024
v -0.038416 -0.892656 -0.200030
v -0.038416 -1.197230 -0.058024
v -0.038416 1.190738 -0.072804
v -0.075929 1.204247 -0.136359
v 0.036610 1.190738 -0.072804
v 0.074123 1.204247 -0.136359
v 0.036610 1.217756 -0.199914
v -0.038416 1.217756 -0.199913
v -0.038416 1.478609 0.056733
v -0.075929 1.512558 0.001334
v 0.036610 1.478609 0.056733
v 0.074123 1.512559 0.001334
v 0.036610 1.546508 -0.054066
v -0.038416 1.546508 -0.054066
v 0.778908 1.463716 -0.029823
v 0.172684 1.495788 0.025727
v 0.172684 1.463716 -0.029823
v 0.778908 1.495788 0.025727
v 0.172684 1.559932 0.025727
v 0.778908 1.559932 0.025727
v 0.172684 1.592004 -0.029823
v 0.778908 1.592004 -0.029823
v 0.172684 1.559932 -0.085373
v 0.778908 1.559932 -0.085373
v 0.172684 1.495788 -0.085373
v 0.778908 1.495788 -0.085373
v 0.153540 1.447360 0.109608
v 0.153540 1.366859 -0.029823
v 0.153540 1.608361 0.109608
v 0.153540 1.688861 -0.029823
v 0.153540 1.608361 -0.169254
v 0.153540 1.447360 -0.169254
v -0.156243 1.447360 0.109608
v -0.156243 1.366859 -0.029823
v -0.156243 1.608361 0.109608
v -0.156243 1.688861 -0.029823
v -0.156243 1.608361 -0.169254
v -0.156243 1.447360 -0.169254
v -0.175386 1.495788 0.025727
v -0.175386 1.463716 -0.029823
v -0.175386 1.559932 0.025727
v -0.175386 1.592004 -0.029823
v -0.175386 1.559932 -0.085373
v -0.175386 1.495788 -0.085373
v -0.781609 1.495788 0.025727
v -0.781609 1.463716 -0.029823
v -0.781609 1.559932 0.025727
v -0.781609 1.592004 -0.029823
v -0.781609 1.559932 -0.085373
v -0.781609 1.495788 -0.085373
v 0.778908 -1.232889 -0.029823
v 0.172684 -1.200818 0.025727
v 0.172684 -1.232889 -0.029823
v 0.778908 -1.200818 0.025727
v 0.172684 -1.136673 0.025727
v 0.778908 -1.136673 0.025727
v 0.172684 -1.104602 -0.029823
v 0.778908 -1.104602 -0.029823
v 0.172684 -1.136673 -0.085374
v 0.778908 -1.136673 -0.085374
v 0.172684 -1.200818 -0.085374
v 0.778908 -1.200818 -0.085374
v 0.153540 -1.249246 0.109607
v 0.153540 -1.329746 -0.029823
v 0.153540 -1.088245 0.109607
v 0.153540 -1.007745 -0.029823
v 0.153540 -1.088245 -0.169255
v 0.153540 -1.249246 -0.169255
v -0.156243 -1.249246 0.109607
v -0.156243 -1.329746 -0.029823
v -0.156243 -1.088245 0.109607
v -0.156243 -1.007745 -0.029823
v -0.156243 -1.088245 -0.169255
v -0.156243 -1.249246 -0.169255
v -0.175386 -1.200818 0.025727
v -0.175386 -1.232889 -0.029823
v -0.175386 -1.136673 0.025727
v -0.175386 -1.104602 -0.029823
v -0.175386 -1.136673 -0.085374
v -0.175386 -1.200818 -0.085374
v -0.781609 -1.200818 0.025727
v -0.781609 -1.232889 -0.029823
v -0.781609 -1.136673 0.025727
v -0.781609 -1.104602 -0.029823
v -0.781609 -1.136673 -0.085374
v -0.781609 -1.200818 -0.085374
v 0.805078 1.183663 0.530268
v 0.837182 -1.455449 0.622063
v 0.663880 -1.157115 0.851552
v 0.663880 0.472250 0.908924
v 0.562902 -0.835832 0.977770
v 0.562902 0.185390 0.989245
v 0.316918 1.183663 0.530268
v 0.329496 -1.455449 0.622063
v 0.261600 -1.214745 0.874500
v 0.222038 -0.870972 1.000719
v 0.222038 0.221735 1.012193
v 0.261600 0.528675 0.931873
v -0.800126 1.183663 0.530268
v -0.832231 -1.455449 0.622063
v -0.658930 0.472250 0.908924
v -0.658929 -1.157115 0.851552
v -0.557952 -0.835832 0.977770
v -0.557952 0.185390 0.989245
v -0.311967 1.183663 0.530268
v -0.324545 -1.455449 0.622063
v -0.256650 -1.214745 0.874500
v -0.217089 -0.870972 1.000719
v -0.217089 0.221735 1.012193
v -0.256650 0.528675 0.931873
v -0.148996 0.308234 1.036438
v 0.149730 0.308234 1.036438
v -0.175909 0.501584 1.036565
v 0.176642 0.501584 1.036565
vt 0.234375 0.593750
vt 0.234375 0.593750
vt 0.234375 0.593750
vt 0.234375 0.593750
vt 0.234375 0.593750
vt 0.234375 0.593750
vt 0.234375 0.593750
vt 0.234375 0.593750
vt 0.450775 0.614812
vt 0.497602 0.601763
vt 0.497773 0.583151
vt 0.542235 0.572406
vt 0.542235 0.579454
vt 0.524187 0.578462
vt 0.555957 0.579454
vt 0.574005 0.578462
vt 0.555957 0.572406
vt 0.499142 0.583151
vt 0.498971 0.601763
vt 0.452144 0.614812
vt 0.474889 0.565128
vt 0.482384 0.570205
vt 0.484393 0.560368
vt 0.473567 0.553796
vt 0.473567 0.559463
vt 0.474889 0.548129
vt 0.484393 0.552889
vt 0.451051 0.582743
vt 0.524187 0.572428
vt 0.574005 0.572428
vt 0.452420 0.582743
vt 0.482384 0.543053
vt 0.484713 0.919497
vt 0.502530 0.919497
vt 0.502530 0.898425
vt 0.520348 0.919497
vt 0.520348 0.898425
vt 0.502530 0.898425
vt 0.520348 0.898425
vt 0.502534 0.898973
vt 0.484713 0.919497
vt 0.502530 0.919497
vt 0.502530 0.898425
vt 0.520348 0.919497
vt 0.520348 0.898425
vt 0.484713 0.919497
vt 0.502530 0.919497
vt 0.520348 0.919497
vt 0.520348 0.898425
vt 0.502530 0.898425
vt 0.520348 0.877352
vt 0.502530 0.877352
vt 0.484713 0.919497
vt 0.502530 0.919497
vt 0.520348 0.919497
vt 0.520348 0.898425
vt 0.484713 0.877352
vt 0.484713 0.898425
vt 0.484713 0.877352
vt 0.484713 0.898425
vt 0.484713 0.919497
vt 0.502530 0.919497
vt 0.502569 0.898918
vt 0.520348 0.877352
vt 0.502530 0.877352
vt 0.484713 0.877352
vt 0.484713 0.898425
vt 0.520348 0.919497
vt 0.520348 0.898425
vt 0.520348 0.877352
vt 0.502530 0.877352
vt 0.484713 0.877352
vt 0.484713 0.898425
vt 0.484713 0.898425
vt 0.520348 0.877352
vt 0.502530 0.877352
vt 0.520348 0.877352
vt 0.502530 0.877352
vt 0.484713 0.877352
vt 0.484713 0.898425
vt 0.483684 0.919438
vt 0.501967 0.919438
vt 0.501967 0.899349
vt 0.520250 0.919438
vt 0.520251 0.899349
vt 0.501967 0.899349
vt 0.520251 0.899349
vt 0.501971 0.901294
vt 0.483684 0.919438
vt 0.501967 0.919438
vt 0.501967 0.899349
vt 0.520250 0.919438
vt 0.520251 0.899349
vt 0.483684 0.919438
vt 0.501967 0.919438
vt 0.520250 0.919438
vt 0.520251 0.899349
vt 0.501967 0.899349
vt 0.520251 0.879260
vt 0.501968 0.879260
vt 0.483684 0.919438
vt 0.501967 0.919438
vt 0.520250 0.919438
vt 0.520251 0.899349
vt 0.483684 0.879260
vt 0.483684 0.899349
vt 0.483684 0.879260
vt 0.483684 0.899349
vt 0.483684 0.919438
vt 0.501967 0.919438
vt 0.502139 0.901101
vt 0.520251 0.879260
vt 0.501968 0.879260
vt 0.483684 0.879260
vt 0.483684 0.899349
vt 0.520250 0.919438
vt 0.520251 0.899349
vt 0.520251 0.879260
vt 0.501968 0.879260
vt 0.483684 0.879260
vt 0.483684 0.899349
vt 0.483684 0.899349
vt 0.520251 0.879260
vt 0.501968 0.879260
vt 0.520251 0.879260
vt 0.501968 0.879260
vt 0.483684 0.879260
vt 0.483684 0.899349
vt 0.483684 0.919438
vt 0.501967 0.919438
vt 0.501967 0.899349
vt 0.520250 0.919438
vt 0.520251 0.899349
vt 0.501967 0.899349
vt 0.520251 0.899349
vt 0.501967 0.900707
vt 0.483684 0.919438
vt 0.501967 0.919438
vt 0.501967 0.899349
vt 0.520250 0.919438
vt 0.520251 0.899349
vt 0.483684 0.899349
vt 0.483684 0.919438
vt 0.501967 0.919438
vt 0.520250 0.919438
vt 0.520251 0.899349
vt 0.501967 0.899349
vt 0.520251 0.879260
vt 0.501968 0.879260
vt 0.483684 0.919438
vt 0.501967 0.919438
vt 0.520250 0.919438
vt 0.520251 0.899349
vt 0.483684 0.879260
vt 0.483684 0.879260
vt 0.483684 0.899349
vt 0.483684 0.919438
vt 0.501967 0.919438
vt 0.502092 0.900571
vt 0.520251 0.879260
vt 0.501968 0.879260
vt 0.483684 0.879260
vt 0.483684 0.899349
vt 0.520250 0.919438
vt 0.520251 0.899349
vt 0.520251 0.879260
vt 0.501968 0.879260
vt 0.483684 0.879260
vt 0.483684 0.899349
vt 0.483684 0.899349
vt 0.520251 0.879260
vt 0.501968 0.879260
vt 0.520251 0.879260
vt 0.501968 0.879260
vt 0.483684 0.879260
vt 0.483684 0.899349
vt 0.484334 0.919067
vt 0.500842 0.919067
vt 0.500842 0.903279
vt 0.517349 0.919067
vt 0.517349 0.903279
vt 0.500842 0.903279
vt 0.517349 0.903279
vt 0.500829 0.904517
vt 0.484334 0.919067
vt 0.500842 0.919067
vt 0.500842 0.903279
vt 0.517349 0.919067
vt 0.517349 0.903279
vt 0.484334 0.903279
vt 0.484334 0.919067
vt 0.500842 0.919067
vt 0.517349 0.919067
vt 0.517349 0.903279
vt 0.500842 0.903279
vt 0.517350 0.887492
vt 0.500842 0.887492
vt 0.484334 0.919067
vt 0.500842 0.919067
vt 0.517349 0.919067
vt 0.517349 0.903279
vt 0.484334 0.887492
vt 0.484334 0.887492
vt 0.484334 0.903279
vt 0.484334 0.919067
vt 0.500842 0.919067
vt 0.500987 0.904394
vt 0.517350 0.887492
vt 0.500842 0.887492
vt 0.484334 0.887492
vt 0.484334 0.903279
vt 0.517349 0.919067
vt 0.517349 0.903279
vt 0.517350 0.887492
vt 0.500842 0.887492
vt 0.484334 0.887492
vt 0.484334 0.903279
vt 0.484334 0.903279
vt 0.517350 0.887492
vt 0.500842 0.887492
vt 0.517350 0.887492
vt 0.500842 0.887492
vt 0.484334 0.887492
vt 0.484334 0.903279
vt 0.484334 0.919067
vt 0.500842 0.919067
vt 0.500842 0.903279
vt 0.517349 0.919067
vt 0.517349 0.903279
vt 0.500842 0.903279
vt 0.517349 0.903279
vt 0.500842 0.905142
vt 0.484334 0.919067
vt 0.500842 0.919067
vt 0.500842 0.903279
vt 0.517349 0.919067
vt 0.517349 0.903279
vt 0.484334 0.903279
vt 0.484334 0.919067
vt 0.500842 0.919067
vt 0.517349 0.919067
vt 0.517349 0.903279
vt 0.500842 0.903279
vt 0.517350 0.887492
vt 0.500842 0.887492
vt 0.484334 0.919067
vt 0.500842 0.919067
vt 0.517349 0.919067
vt 0.517349 0.903279
vt 0.484334 0.887492
vt 0.484334 0.887492
vt 0.484334 0.903279
vt 0.484334 0.919067
vt 0.500842 0.919067
vt 0.501037 0.904956
vt 0.517350 0.887492
vt 0.500842 0.887492
vt 0.484334 0.887492
vt 0.484334 0.903279
vt 0.517349 0.919067
vt 0.517349 0.903279
vt 0.517350 0.887492
vt 0.500842 0.887492
vt 0.484334 0.887492
vt 0.484334 0.903279
vt 0.484334 0.903279
vt 0.517350 0.887492
vt 0.500842 0.887492
vt 0.517350 0.887492
vt 0.500842 0.887492
vt 0.484334 0.887492
vt 0.484334 0.903279
vt 0.874174 0.234565
vt 0.905640 0.235765
vt 0.873723 0.343891
vt 0.187222 0.235131
vt 0.510351 0.246509
vt 0.128058 0.189620
vt 0.250938 0.260162
vt 0.453462 0.262438
vt 0.651435 0.171416
vt 0.879105 0.648251
vt 0.824992 0.599972
vt 0.814004 0.638925
vt 0.907151 0.599972
vt 0.862764 0.700244
vt 0.807602 0.694558
vt 0.375792 0.801849
vt 0.435710 0.987543
vt 0.435710 0.795460
vt 0.375792 0.981366
vt 0.358041 0.751424
vt 0.428756 0.741505
vt 0.009927 0.846876
vt 0.114731 0.973184
vt 0.104064 0.846876
vt 0.037156 0.984065
vt 0.331615 0.505905
vt 0.718257 0.448369
vt 0.188925 0.429958
vt 0.658419 0.494398
vt 0.593979 0.519714
vt 0.389151 0.522015
vt 0.730136 0.638925
vt 0.719149 0.599972
vt 0.665036 0.648251
vt 0.636990 0.599972
vt 0.736538 0.694558
vt 0.681377 0.700244
vt 0.512903 0.795460
vt 0.512903 0.987543
vt 0.572822 0.801849
vt 0.572822 0.981366
vt 0.519857 0.741505
vt 0.590572 0.751424
vt 0.225338 0.846876
vt 0.214670 0.973184
vt 0.319474 0.846876
vt 0.292246 0.984065
vt 0.500933 0.780255
vt 0.505664 0.746267
vt 0.448421 0.780255
vt 0.443690 0.746267
vt 0.505858 0.597835
vt 0.505985 0.639318
vt 0.498944 0.639340
vt 0.498817 0.597857
vt 0.506175 0.639381
vt 0.506097 0.597835
vt 0.526366 0.603569
vt 0.523292 0.635799
vt 0.478547 0.597835
vt 0.478468 0.639381
vt 0.461352 0.635799
vt 0.458277 0.603569
vt 0.564518 0.597778
vt 0.564645 0.639261
vt 0.557604 0.639283
vt 0.557476 0.597800
vt 0.526445 0.639381
vt 0.526366 0.597835
vt 0.546636 0.603569
vt 0.543561 0.635799
vt 0.498817 0.597835
vt 0.498738 0.639381
vt 0.481622 0.635799
vt 0.478547 0.603569
vt 0.557317 0.597778
vt 0.557476 0.649600
vt 0.550435 0.649622
vt 0.550276 0.597800
vt 0.502528 0.597835
vt 0.502457 0.545935
vt 0.526366 0.561765
vt 0.522149 0.592445
vt 0.550276 0.545935
vt 0.550205 0.597835
vt 0.530583 0.592445
vt 0.526366 0.561765
vt 0.557317 0.545935
vt 0.557476 0.597757
vt 0.550435 0.597778
vt 0.550276 0.545957
vt 0.478618 0.597835
vt 0.478547 0.545935
vt 0.502457 0.561765
vt 0.498240 0.592445
vt 0.478547 0.545935
vt 0.478476 0.597835
vt 0.458854 0.592445
vt 0.454637 0.561765
vt 0.160940 0.469314
vt 0.152807 0.450907
vt 0.173606 0.447011
vt 0.183327 0.479564
vt 0.159597 0.500388
vt 0.182977 0.501777
vt 0.156930 0.523935
vt 0.182698 0.519162
vt 0.152930 0.546298
vt 0.178865 0.537300
vt 0.104906 0.467877
vt 0.082277 0.476156
vt 0.090762 0.447011
vt 0.111994 0.451460
vt 0.107427 0.491567
vt 0.083975 0.493343
vt 0.111689 0.516545
vt 0.085954 0.511148
vt 0.112131 0.545640
vt 0.087278 0.533785
vt 0.122179 0.507722
vt 0.146033 0.505827
vt 0.149007 0.538212
vt 0.125260 0.540611
vt 0.112131 0.486753
vt 0.152807 0.484425
vt 0.112225 0.468623
vt 0.152807 0.466892
vt 0.120240 0.448029
vt 0.144112 0.447011
vt 0.093838 0.556016
vt 0.075476 0.540479
vt 0.012884 0.518457
vt 0.075476 0.525181
vt 0.060589 0.548975
vt 0.023771 0.545020
vt 0.012761 0.493860
vt 0.075454 0.501439
vt 0.028755 0.465790
vt 0.065478 0.471021
vt 0.067718 0.452989
vt 0.031207 0.447011
vt 0.173047 0.450769
vt 0.152482 0.454622
vt 0.160524 0.472822
vt 0.182659 0.482957
vt 0.159195 0.503546
vt 0.182313 0.504920
vt 0.156559 0.526828
vt 0.182037 0.522108
vt 0.152604 0.548940
vt 0.178247 0.540043
vt 0.090653 0.447907
vt 0.082264 0.476725
vt 0.104639 0.468538
vt 0.111647 0.452307
vt 0.083943 0.493718
vt 0.107131 0.491962
vt 0.085899 0.511323
vt 0.111345 0.516659
vt 0.087208 0.533705
vt 0.111782 0.545427
vt 0.148894 0.537931
vt 0.145954 0.505911
vt 0.122368 0.507784
vt 0.125414 0.540302
vt 0.152651 0.484749
vt 0.112433 0.487051
vt 0.152652 0.467414
vt 0.112526 0.469125
vt 0.144054 0.447756
vt 0.120451 0.448762
vt 0.075539 0.540323
vt 0.093695 0.555686
vt 0.061302 0.548940
vt 0.076021 0.525414
vt 0.014133 0.518764
vt 0.024897 0.545028
vt 0.076000 0.501938
vt 0.014012 0.494444
vt 0.066136 0.471862
vt 0.029827 0.466690
vt 0.068351 0.454033
vt 0.032251 0.448122
vt 0.033490 0.612593
vt 0.024869 0.629823
vt 0.021273 0.611977
vt 0.033490 0.637478
vt 0.042019 0.630554
vt 0.045525 0.613270
vt 0.042019 0.595650
vt 0.033490 0.587857
vt 0.024869 0.594555
vt 0.037153 0.621538
vt 0.033154 0.601548
vt 0.046723 0.630186
vt 0.056166 0.622559
vt 0.060039 0.603351
vt 0.056166 0.583678
vt 0.046723 0.574841
vt 0.037153 0.582151
vt 0.018426 0.621924
vt 0.012523 0.599709
vt 0.047571 0.632246
vt 0.075569 0.624950
vt 0.080974 0.604334
vt 0.075569 0.582922
vt 0.047571 0.571527
vt 0.018426 0.578224
vt 0.032311 0.617471
vt 0.025599 0.608630
vt 0.065246 0.622794
vt 0.096511 0.621590
vt 0.102500 0.614053
vt 0.096511 0.605481
vt 0.065246 0.599369
vt 0.032311 0.600523
vt 0.065246 0.611065
vt 0.417930 0.658213
vt 0.372285 0.670050
vt 0.423191 0.670050
vt 0.371329 0.658214
vt 0.580186 0.666013
vt 0.579695 0.658437
vt 0.625203 0.669688
vt 0.625699 0.660347
vt 0.336467 0.705210
vt 0.375760 0.668207
vt 0.371987 0.704992
vt 0.330243 0.668487
vt 0.391529 0.674373
vt 0.575660 0.674373
vt 0.571584 0.712179
vt 0.395642 0.712179
vt 0.636362 0.674373
vt 0.636362 0.712179
vt 0.330816 0.657704
vt 0.364684 0.657972
vt 0.365715 0.659229
vt 0.330651 0.659229
vt 0.393071 0.674373
vt 0.574131 0.674373
vt 0.340733 0.658439
vt 0.361139 0.657905
vt 0.351109 0.658811
vt 0.578258 0.674373
vt 0.330651 0.659229
vt 0.365720 0.659229
vt 0.364679 0.660478
vt 0.330994 0.660478
vt 0.357763 0.660595
vt 0.358626 0.661973
vt 0.330651 0.661973
vt 0.570055 0.712179
vt 0.397184 0.712179
vt 0.364351 0.658019
vt 0.332850 0.659574
vt 0.347486 0.661735
vt 0.357835 0.661973
vt 0.331097 0.663440
vt 0.330651 0.661973
vt 0.330852 0.712179
vt 0.656237 0.936559
vt 0.648227 0.868292
vt 0.678597 0.874898
vt 0.679032 0.943165
vt 0.740181 0.144109
vt 0.833479 0.135007
vt 0.719702 0.160038
vt 0.715150 0.146385
vt 0.651435 0.171416
vt 0.676466 0.139558
vt 0.262316 0.071291
vt 0.257764 0.028056
vt 0.626404 0.023505
vt 0.651435 0.116802
vt 0.032485 0.037158
vt 0.109854 0.037158
vt 0.116680 0.094047
vt 0.007454 0.089496
vt 0.009729 0.041709
vt 0.016556 0.105425
vt 0.058942 0.100608
vt 0.980275 0.861666
vt 0.975144 0.854119
vt 0.986138 0.784815
vt 0.991829 0.779926
vt 0.128058 0.189620
vt 0.137160 0.130456
vt 0.200876 0.130456
vt 0.187222 0.235131
vt 0.510351 0.246509
vt 0.250938 0.260162
vt 0.453462 0.262438
vt 0.237284 0.112251
vt 0.977127 0.234630
vt 0.975284 0.231191
vt 0.972830 0.219134
vt 0.637782 0.084945
vt 0.972704 0.141745
vt 0.942556 0.139744
vt 0.941677 0.122804
vt 0.043254 0.328010
vt 0.102889 0.302237
vt 0.151429 0.328010
vt 0.969391 0.160583
vt 0.942179 0.158934
vt 0.755137 0.874898
vt 0.747581 0.943165
vt 0.056749 0.689636
vt 0.167132 0.691156
vt 0.102305 0.778937
vt 0.040474 0.726444
vt 0.025735 0.778937
vt 0.025735 0.668155
vt 0.969959 0.184869
vt 0.942960 0.186267
vt 0.942619 0.174888
vt 0.970207 0.191446
vt 0.943211 0.193237
vt 0.104734 0.845406
vt 0.010474 0.845406
vt 0.970833 0.201721
vt 0.943680 0.204209
vt 0.977126 0.344257
vt 0.945542 0.344214
vt 0.945519 0.235770
vt 0.977091 0.355829
vt 0.945241 0.348260
vt 0.971611 0.210387
vt 0.944230 0.213940
vt 0.968058 0.419438
vt 0.941693 0.418633
vt 0.942101 0.403371
vt 0.971984 0.404684
vt 0.967605 0.439670
vt 0.941173 0.441578
vt 0.964661 0.445692
vt 0.941036 0.447762
vt 0.983370 0.776027
vt 0.881158 0.776027
vt 0.881158 0.739818
vt 0.972376 0.739818
vt 0.881158 0.784815
vt 0.881158 0.854119
vt 0.906166 0.599741
vt 0.824007 0.599741
vt 0.824007 0.508303
vt 0.897329 0.516181
vt 0.901453 0.555177
vt 0.942470 0.392071
vt 0.971493 0.393938
vt 0.943237 0.374546
vt 0.972620 0.377611
vt 0.879105 0.648251
vt 0.814004 0.638925
vt 0.824992 0.599972
vt 0.907151 0.599972
vt 0.862764 0.700244
vt 0.807602 0.694558
vt 0.943995 0.362770
vt 0.974775 0.367692
vt 0.375792 0.801849
vt 0.435710 0.795460
vt 0.435710 0.987543
vt 0.375792 0.981366
vt 0.358041 0.751424
vt 0.428756 0.741505
vt 0.009927 0.846876
vt 0.104064 0.846876
vt 0.114731 0.973184
vt 0.037156 0.984065
vt 0.945160 0.228354
vt 0.944993 0.224256
vt 0.986105 0.868292
vt 0.978096 0.936559
vt 0.957200 0.874898
vt 0.956766 0.943165
vt 0.956766 0.985006
vt 0.978096 0.978400
vt 0.004810 0.393135
vt 0.099169 0.402340
vt 0.119882 0.418450
vt 0.188925 0.429958
vt 0.124485 0.404642
vt 0.163609 0.397737
vt 0.587075 0.284967
vt 0.582472 0.328694
vt 0.214241 0.280364
vt 0.188925 0.374723
vt 0.736668 0.294172
vt 0.814917 0.294172
vt 0.729764 0.351709
vt 0.837932 0.298775
vt 0.840233 0.347106
vt 0.831028 0.363216
vt 0.781741 0.357615
vt 0.073447 0.181125
vt 0.654880 0.854119
vt 0.649796 0.861596
vt 0.637343 0.779194
vt 0.643886 0.784815
vt 0.718257 0.448369
vt 0.709051 0.388531
vt 0.644611 0.388531
vt 0.607788 0.370120
vt 0.331615 0.505905
vt 0.658419 0.494398
vt 0.593979 0.519714
vt 0.389151 0.522015
vt 0.876045 0.231195
vt 0.878529 0.219314
vt 0.202734 0.342503
vt 0.906770 0.140465
vt 0.877070 0.143462
vt 0.906959 0.123701
vt 0.091794 0.328010
vt 0.151429 0.353784
vt 0.043254 0.353784
vt 0.907786 0.159480
vt 0.880950 0.161917
vt 0.880661 0.874898
vt 0.888167 0.943165
vt 0.276529 0.691758
vt 0.290901 0.731470
vt 0.228596 0.778937
vt 0.305166 0.668155
vt 0.907689 0.186620
vt 0.881024 0.185775
vt 0.907782 0.175324
vt 0.907560 0.193535
vt 0.880907 0.192192
vt 0.305166 0.778937
vt 0.226167 0.845406
vt 0.320428 0.845406
vt 0.907246 0.204428
vt 0.880426 0.202259
vt 0.905165 0.344054
vt 0.905413 0.348071
vt 0.873724 0.355326
vt 0.906795 0.214093
vt 0.879722 0.210741
vt 0.907562 0.418064
vt 0.881475 0.418084
vt 0.907585 0.402903
vt 0.878004 0.403452
vt 0.907274 0.440815
vt 0.881268 0.438048
vt 0.907157 0.446850
vt 0.883984 0.444073
vt 0.749481 0.776027
vt 0.647270 0.776027
vt 0.749481 0.739818
vt 0.658264 0.739818
vt 0.749481 0.784815
vt 0.749481 0.854119
vt 0.718164 0.599741
vt 0.636005 0.599741
vt 0.718164 0.508303
vt 0.644842 0.516181
vt 0.640756 0.554819
vt 0.907487 0.391675
vt 0.878744 0.392909
vt 0.907061 0.374240
vt 0.877932 0.376809
vt 0.730136 0.638925
vt 0.665036 0.648251
vt 0.719149 0.599972
vt 0.636990 0.599972
vt 0.736538 0.694558
vt 0.681377 0.700244
vt 0.906483 0.362520
vt 0.875927 0.367036
vt 0.512903 0.795460
vt 0.572822 0.801849
vt 0.512903 0.987543
vt 0.572822 0.981366
vt 0.519857 0.741505
vt 0.590572 0.751424
vt 0.225338 0.846876
vt 0.319474 0.846876
vt 0.214670 0.973184
vt 0.292246 0.984065
vt 0.905968 0.228401
vt 0.906101 0.224345
vt 0.500933 0.780255
vt 0.448421 0.780255
vt 0.505664 0.746267
vt 0.443690 0.746267
vt 0.905682 0.985006
vt 0.729949 0.985006
vt 0.199544 0.738259
vt 0.076964 0.650430
vt 0.253771 0.650430
vt 0.881146 0.174838
vt 0.060045 0.386230
vt 0.443584 0.746477
vt 0.428497 0.727886
vt 0.520530 0.727886
vt 0.506191 0.746477
vt 0.656237 0.978400
vt 0.679032 0.985006
vt 0.969566 0.173724
vt 0.778866 0.128180
vt 0.413552 0.635230
vt 0.390088 0.629910
vt 0.391073 0.624734
vt 0.411528 0.640078
vt 0.406282 0.587652
vt 0.384830 0.593371
vt 0.384848 0.587586
vt 0.406265 0.593437
vt 0.411527 0.600188
vt 0.391073 0.615532
vt 0.390088 0.610356
vt 0.413552 0.605036
vt 0.392055 0.620133
vt 0.415574 0.609309
vt 0.204027 0.599871
vt 0.227516 0.594014
vt 0.227534 0.599799
vt 0.204010 0.594086
vt 0.415575 0.630957
vt 0.392055 0.620133
vt 0.231438 0.630388
vt 0.230382 0.625227
vt 0.226181 0.592885
vt 0.226199 0.587099
vt 0.230382 0.615039
vt 0.231438 0.609878
vt 0.229324 0.619625
vt 0.390247 0.593515
vt 0.390264 0.599300
vt 0.229324 0.620641
vt 0.209272 0.640395
vt 0.206642 0.635865
vt 0.204010 0.592817
vt 0.204027 0.587031
vt 0.206642 0.604401
vt 0.209272 0.599871
vt 0.204010 0.608357
vt 0.415575 0.593437
vt 0.415592 0.599222
vt 0.204010 0.631909
vt 0.204176 0.541435
vt 0.250928 0.539116
vt 0.250921 0.541578
vt 0.204183 0.538973
vt 0.250943 0.534170
vt 0.204198 0.534027
vt 0.250951 0.531686
vt 0.204206 0.531543
vt 0.300559 0.531543
vt 0.253822 0.534151
vt 0.253814 0.531686
vt 0.300567 0.534008
vt 0.253837 0.539097
vt 0.300582 0.538954
vt 0.253845 0.541578
vt 0.300590 0.541435
vt 0.244051 0.548115
vt 0.235296 0.541592
vt 0.247665 0.541578
vt 0.239123 0.548120
vt 0.229078 0.552337
vt 0.236646 0.552401
vt 0.235228 0.563068
vt 0.239096 0.556677
vt 0.247596 0.563055
vt 0.244024 0.556671
vt 0.253814 0.552310
vt 0.246501 0.552390
vt 0.228912 0.563145
vt 0.235165 0.587013
vt 0.228985 0.587031
vt 0.235092 0.563125
vt 0.247579 0.586974
vt 0.247506 0.563087
vt 0.253814 0.586955
vt 0.253741 0.563068
vt 0.228912 0.586955
vt 0.222652 0.563087
vt 0.228839 0.563068
vt 0.222725 0.586974
vt 0.210238 0.563125
vt 0.210311 0.587012
vt 0.204010 0.563145
vt 0.204083 0.587031
vt 0.222762 0.563068
vt 0.214221 0.556526
vt 0.219149 0.556532
vt 0.210394 0.563055
vt 0.211744 0.552245
vt 0.204176 0.552310
vt 0.214194 0.547970
vt 0.210325 0.541578
vt 0.219121 0.547975
vt 0.222694 0.541591
vt 0.221599 0.552256
vt 0.228912 0.552336
vt 0.204206 0.531543
vt 0.250943 0.528937
vt 0.250951 0.531399
vt 0.204198 0.529081
vt 0.250928 0.523991
vt 0.204183 0.524135
vt 0.250921 0.521507
vt 0.204176 0.521651
vt 0.300559 0.521507
vt 0.253822 0.524116
vt 0.253814 0.521651
vt 0.300567 0.523972
vt 0.253837 0.529061
vt 0.300582 0.528918
vt 0.253845 0.531543
vt 0.300590 0.531399
vt 0.204206 0.511472
vt 0.250943 0.508866
vt 0.250951 0.511328
vt 0.204198 0.509010
vt 0.250928 0.503920
vt 0.204183 0.504064
vt 0.250921 0.501436
vt 0.204176 0.501580
vt 0.250951 0.511615
vt 0.204198 0.513937
vt 0.204206 0.511472
vt 0.250943 0.514080
vt 0.204183 0.518883
vt 0.250928 0.519026
vt 0.204176 0.521364
vt 0.250921 0.521507
vt 0.293524 0.548115
vt 0.284769 0.541592
vt 0.297137 0.541578
vt 0.288596 0.548120
vt 0.278551 0.552337
vt 0.286119 0.552401
vt 0.284701 0.563068
vt 0.288569 0.556677
vt 0.297069 0.563055
vt 0.293497 0.556672
vt 0.303287 0.552310
vt 0.295974 0.552391
vt 0.278717 0.563145
vt 0.284969 0.587013
vt 0.278790 0.587031
vt 0.284896 0.563125
vt 0.297384 0.586974
vt 0.297311 0.563087
vt 0.303619 0.586955
vt 0.303546 0.563068
vt 0.278717 0.586955
vt 0.272457 0.563087
vt 0.278643 0.563068
vt 0.272530 0.586974
vt 0.260042 0.563125
vt 0.260116 0.587012
vt 0.253814 0.563145
vt 0.253888 0.587031
vt 0.272401 0.563068
vt 0.263860 0.556526
vt 0.268787 0.556532
vt 0.260033 0.563055
vt 0.261382 0.552245
vt 0.253814 0.552310
vt 0.263833 0.547970
vt 0.259964 0.541578
vt 0.268760 0.547975
vt 0.272332 0.541592
vt 0.271238 0.552256
vt 0.278551 0.552337
vt 0.253845 0.511472
vt 0.300582 0.508866
vt 0.300590 0.511328
vt 0.253837 0.509010
vt 0.300567 0.503920
vt 0.253822 0.504064
vt 0.300559 0.501436
vt 0.253814 0.501580
vt 0.300559 0.511472
vt 0.253822 0.514080
vt 0.253814 0.511615
vt 0.300567 0.513937
vt 0.253837 0.519026
vt 0.300582 0.518883
vt 0.253845 0.521507
vt 0.300590 0.521364
vt 0.773933 0.439708
vn 0.0000 0.0348 0.9994
vn -0.9019 0.1775 -0.3937
vn -0.0734 0.1543 0.9853
vn -0.7987 0.6017 -0.0001
vn -0.0036 -1.0000 0.0000
vn -0.0860 0.2178 0.9722
vn 0.8283 -0.1724 0.5331
vn 0.9020 0.1772 -0.3937
vn 0.1829 -0.9831 0.0001
vn 0.7988 0.6016 0.0000
vn 0.0732 0.1543 0.9853
vn -0.0067 0.2120 0.9772
vn -0.1407 0.2230 0.9646
vn -0.8069 0.5907 -0.0001
vn 0.8070 0.5906 0.0000
vn -0.4220 0.6204 0.6611
vn -0.7738 0.6167 0.1444
vn -0.9673 -0.2337 -0.0982
vn -0.7553 -0.1394 0.6404
vn -0.0016 -0.2100 0.9777
vn -0.0008 0.7487 0.6629
vn -0.0003 0.9661 0.2583
vn -0.5206 0.7811 -0.3447
vn -0.0004 0.9684 -0.2495
vn -0.0007 0.2100 -0.9777
vn -0.6855 0.0504 -0.7263
vn 0.4256 0.6192 0.6599
vn 0.7583 -0.1386 0.6370
vn 0.9222 -0.3563 -0.1501
vn 0.8270 0.5527 0.1028
vn 0.5085 0.7853 -0.3532
vn 0.6756 0.0530 -0.7353
vn -0.4234 -0.8430 0.3319
vn -0.5450 -0.8020 -0.2444
vn -0.0002 -0.9650 -0.2621
vn -0.0007 -0.9617 0.2740
vn -0.3935 -0.6003 -0.6963
vn -0.0003 -0.7297 -0.6838
vn 0.4276 -0.8418 0.3293
vn 0.4711 -0.8423 -0.2618
vn 0.3840 -0.6008 -0.7011
vn -0.4477 0.6573 0.6062
vn -0.5132 0.8330 0.2068
vn -0.9976 -0.0139 0.0683
vn -0.6946 -0.1434 0.7050
vn -0.0010 -0.1988 0.9800
vn -0.0006 0.7522 0.6589
vn -0.0010 0.9796 0.2011
vn -0.4605 0.8499 -0.2560
vn 0.0049 0.9786 -0.2055
vn 0.0003 0.1987 -0.9801
vn -0.7363 0.1344 -0.6631
vn 0.4453 0.6527 0.6129
vn 0.6875 -0.1449 0.7116
vn 0.9961 -0.0178 0.0869
vn 0.4098 0.8868 0.2135
vn 0.5520 0.7568 -0.3500
vn 0.7432 0.1328 -0.6557
vn -0.4478 -0.8418 0.3014
vn -0.5130 -0.8477 -0.1352
vn -0.0009 -0.9803 -0.1977
vn -0.0003 -0.9498 0.3129
vn -0.4602 -0.6827 -0.5676
vn 0.0049 -0.8208 -0.5712
vn 0.4455 -0.8401 0.3094
vn 0.4097 -0.8998 -0.1499
vn 0.5518 -0.5604 -0.6176
vn -0.4991 0.5241 0.6901
vn -0.4855 0.8506 0.2019
vn -0.9966 -0.0166 0.0812
vn -0.6565 -0.1509 0.7391
vn 0.0000 -0.1993 0.9799
vn -0.0001 0.6251 0.7806
vn 0.0021 0.9791 0.2034
vn -0.6145 0.6223 -0.4849
vn -0.0096 0.9431 -0.3323
vn -0.0000 0.1992 -0.9800
vn -0.7123 0.1404 -0.6877
vn 0.5014 0.5274 0.6859
vn 0.6615 -0.1500 0.7348
vn 0.9976 -0.0140 0.0684
vn 0.6070 0.7688 0.2011
vn 0.5228 0.7659 -0.3743
vn 0.7077 0.1413 -0.6922
vn -0.4990 -0.7522 0.4304
vn -0.4853 -0.8620 -0.1465
vn 0.0021 -0.9807 -0.1953
vn 0.0000 -0.8800 0.4750
vn -0.6132 -0.3832 -0.6907
vn -0.0095 -0.7384 -0.6743
vn 0.5014 -0.7535 0.4253
vn 0.6070 -0.7863 -0.1151
vn 0.5226 -0.5587 -0.6440
vn -0.5108 0.5148 0.6885
vn -0.5089 0.8352 0.2085
vn -0.9951 -0.0218 0.0961
vn -0.6464 -0.1521 0.7477
vn 0.0093 -0.1998 0.9798
vn -0.0296 0.6233 0.7814
vn -0.0443 0.9773 0.2070
vn -0.6307 0.6162 -0.4718
vn -0.0404 0.9712 -0.2347
vn -0.0082 0.1992 -0.9799
vn -0.7190 0.1385 -0.6811
vn 0.4822 0.5314 0.6965
vn 0.6592 -0.1490 0.7370
vn 0.9965 -0.0146 0.0824
vn 0.4590 0.8648 0.2037
vn 0.5987 0.6325 -0.4915
vn 0.7082 0.1416 -0.6916
vn -0.4716 -0.7636 0.4410
vn -0.4586 -0.8770 -0.1434
vn 0.0444 -0.9804 -0.1917
vn 0.0417 -0.8793 0.4745
vn -0.6084 -0.3912 -0.6906
vn 0.0343 -0.8025 -0.5957
vn 0.5207 -0.7407 0.4246
vn 0.5095 -0.8487 -0.1419
vn 0.6213 -0.3815 -0.6844
vn -0.4474 0.6492 0.6151
vn -0.4126 0.8844 0.2181
vn -0.9949 -0.0202 0.0985
vn -0.6870 -0.1457 0.7119
vn 0.0000 -0.1989 0.9800
vn -0.0001 0.7523 0.6588
vn -0.0000 0.9793 0.2026
vn -0.5565 0.7554 -0.3461
vn 0.0009 0.9910 -0.1335
vn -0.0000 0.1988 -0.9800
vn -0.7481 0.1325 -0.6502
vn 0.4485 0.6506 0.6128
vn 0.6894 -0.1452 0.7097
vn 0.9957 -0.0186 0.0910
vn 0.4135 0.8848 0.2150
vn 0.5555 0.7546 -0.3493
vn 0.7455 0.1331 -0.6531
vn -0.4473 -0.8380 0.3125
vn -0.4124 -0.8994 -0.1447
vn -0.0000 -0.9806 -0.1961
vn 0.0000 -0.9498 0.3129
vn -0.5564 -0.5603 -0.6136
vn 0.0000 -0.8603 -0.5098
vn 0.4484 -0.8384 0.3098
vn 0.4132 -0.8986 -0.1477
vn 0.5555 -0.5583 -0.6163
vn -0.5024 0.3878 -0.7728
vn 0.1646 0.3825 -0.9092
vn -0.3638 -0.6314 -0.6848
vn -0.4501 0.3250 -0.8317
vn -0.5693 -0.2139 -0.7938
vn -0.3924 0.4248 -0.8159
vn -0.4063 0.1196 -0.9059
vn -0.3408 -0.0666 -0.9378
vn -0.3037 -0.4317 -0.8493
vn -0.0415 0.6883 -0.7243
vn -0.0589 0.5456 -0.8360
vn -0.0405 0.1823 -0.9824
vn -0.1164 -0.0168 -0.9931
vn -0.1985 -0.3738 -0.9060
vn 0.0000 -0.5227 -0.8525
vn 0.5693 -0.2139 -0.7938
vn 0.3917 0.4230 -0.8171
vn 0.3037 -0.4317 -0.8493
vn 0.4501 0.3250 -0.8317
vn 0.4063 0.1196 -0.9059
vn 0.3408 -0.0666 -0.9378
vn 0.0589 0.5456 -0.8360
vn 0.0415 0.6883 -0.7243
vn 0.0405 0.1823 -0.9824
vn 0.1170 -0.0149 -0.9930
vn 0.2019 -0.3738 -0.9053
vn 0.1089 0.1132 -0.9876
vn 0.4448 -0.0283 -0.8952
vn -0.1025 0.1135 -0.9882
vn -0.4297 -0.0317 -0.9024
vn -0.6563 -0.0731 -0.7509
vn -0.6356 -0.0748 -0.7684
vn 0.6356 -0.0748 -0.7684
vn 0.6563 -0.0731 -0.7509
vn 1.0000 0.0000 0.0000
vn -1.0000 0.0000 0.0000
vn -0.6388 -0.1581 -0.7530
vn -0.5311 -0.1741 -0.8292
vn 0.5311 -0.1741 -0.8292
vn 0.6388 -0.1581 -0.7530
vn 0.3665 -0.5941 0.7161
vn 0.1334 -0.7244 0.6763
vn 0.1697 0.7551 0.6332
vn 0.1401 0.8891 0.4358
vn 0.6268 -0.3308 0.7055
vn 0.0253 0.8609 0.5082
vn 0.3111 -0.3732 0.8740
vn -0.2962 0.7547 0.5854
vn -0.2478 -0.7089 0.6604
vn -0.7176 0.4377 0.5418
vn -0.1047 -0.4894 -0.8658
vn -0.1726 0.9085 -0.3806
vn -0.1960 0.8534 -0.4830
vn -0.2924 -0.5886 -0.7537
vn -0.0326 -0.3372 -0.9409
vn -0.4042 0.7964 -0.4497
vn -0.2133 -0.5699 -0.7936
vn -0.6863 0.6218 -0.3772
vn -0.5423 -0.7989 -0.2601
vn -0.9219 0.3752 -0.0967
vn -0.1697 0.7551 0.6332
vn -0.1334 -0.7244 0.6763
vn -0.3665 -0.5941 0.7161
vn -0.1401 0.8891 0.4358
vn -0.6268 -0.3308 0.7055
vn -0.0253 0.8609 0.5082
vn -0.3111 -0.3732 0.8740
vn 0.2962 0.7547 0.5854
vn 0.2478 -0.7089 0.6604
vn 0.7176 0.4377 0.5418
vn 0.1960 0.8534 -0.4830
vn 0.1726 0.9085 -0.3806
vn 0.1047 -0.4894 -0.8658
vn 0.2924 -0.5886 -0.7537
vn 0.4043 0.7964 -0.4497
vn 0.0326 -0.3372 -0.9409
vn 0.6863 0.6218 -0.3772
vn 0.2132 -0.5699 -0.7936
vn 0.9219 0.3752 -0.0967
vn 0.5423 -0.7989 -0.2601
vn 0.0000 -1.0000 -0.0000
vn -0.3418 -0.8754 0.3418
vn -0.4833 -0.8754 0.0000
vn 0.0000 -0.8755 0.4833
vn 0.3418 -0.8754 0.3417
vn 0.4833 -0.8754 0.0000
vn 0.3418 -0.8754 -0.3417
vn 0.0000 -0.8755 -0.4833
vn -0.3418 -0.8754 -0.3418
vn -0.4512 -0.5763 0.6814
vn -0.6651 -0.7468 0.0031
vn -0.0602 -0.2480 0.9669
vn 0.4739 -0.6907 0.5463
vn 0.6651 -0.7468 -0.0031
vn 0.4512 -0.5763 -0.6814
vn 0.0602 -0.2480 -0.9669
vn -0.4739 -0.6907 -0.5463
vn -0.4835 -0.5714 0.6631
vn -0.8303 -0.5567 -0.0263
vn -0.0487 -0.2364 0.9704
vn 0.4756 -0.5881 0.6541
vn 0.8327 -0.5507 -0.0568
vn 0.4967 -0.4466 -0.7442
vn 0.0510 -0.0613 -0.9968
vn -0.4923 -0.4611 -0.7382
vn -0.2586 0.6178 0.7426
vn -0.8117 0.5728 0.1138
vn -0.0116 0.6898 0.7239
vn 0.2384 0.6429 0.7279
vn 0.8100 0.5839 0.0554
vn 0.2338 0.7407 -0.6298
vn 0.0091 0.8081 -0.5890
vn -0.2117 0.7641 -0.6094
vn -0.0000 1.0000 -0.0000
vn 0.2719 -0.9092 -0.3154
vn 0.6997 0.7063 -0.1078
vn 0.3293 0.8445 -0.4224
vn 0.6469 -0.7603 -0.0588
vn -0.3297 0.8445 -0.4220
vn -0.2718 -0.9092 -0.3154
vn -0.7035 0.7024 -0.1082
vn -0.6510 -0.7567 -0.0593
vn -0.7657 0.6316 0.1215
vn -0.5480 -0.5382 0.6403
vn -0.4676 0.6470 0.6023
vn -0.6850 -0.7254 0.0678
vn 0.5476 -0.5381 0.6407
vn 0.4680 0.6470 0.6020
vn 0.6806 -0.7295 0.0677
vn 0.7617 0.6365 0.1211
vn 0.8363 -0.5404 -0.0927
vn 0.6951 -0.4715 -0.5428
vn 0.5196 0.6416 -0.5642
vn 0.6343 0.7403 0.2226
vn 0.9843 -0.0432 -0.1708
vn 0.5440 0.4624 0.7002
vn 0.2361 0.1971 0.9515
vn 0.8359 0.0502 -0.5465
vn 0.8412 0.0561 0.5378
vn 0.8325 0.2501 -0.4944
vn 0.8013 -0.5490 -0.2378
vn 0.3638 -0.6314 -0.6848
vn 0.5024 0.3878 -0.7728
vn 0.8432 0.4176 -0.3385
vn 0.6663 -0.1930 -0.7203
vn 0.5037 0.5311 -0.6813
vn 0.8216 0.5147 -0.2451
vn 0.6548 -0.7420 0.1439
vn 0.3963 -0.6953 -0.5996
vn 0.7392 -0.6190 0.2654
vn 0.8079 0.1270 0.5754
vn 0.6455 -0.1784 0.7427
vn 0.5323 -0.5826 0.6142
vn 0.8308 -0.1104 0.5455
vn 0.8686 0.2520 -0.4268
vn 0.8197 -0.1591 -0.5502
vn 0.4501 -0.3250 0.8317
vn 0.3924 -0.4248 0.8159
vn 0.5693 0.2139 0.7938
vn 0.4063 -0.1196 0.9059
vn 0.3408 0.0666 0.9378
vn 0.8259 -0.4365 -0.3569
vn 0.3037 0.4317 0.8493
vn 0.6046 0.7409 -0.2923
vn 0.9921 0.0793 -0.0972
vn -0.0557 -0.6399 -0.7664
vn 0.0788 0.7579 -0.6476
vn -0.0604 -0.9362 -0.3461
vn 0.1085 0.9562 0.2720
vn 0.0403 0.2143 0.9759
vn 0.0007 0.2481 0.9687
vn 0.0495 0.1444 0.9883
vn 0.0742 0.2306 0.9702
vn 0.0000 -0.2383 -0.9712
vn 0.0000 -0.5659 -0.8245
vn 0.0000 0.0420 -0.9991
vn 0.0263 0.0762 0.9967
vn 0.0000 0.4406 -0.8977
vn -0.1018 -0.6633 -0.7414
vn -0.1646 0.3825 -0.9092
vn 0.0000 -0.9229 -0.3850
vn 0.0000 0.8145 -0.5802
vn 0.0000 0.6449 -0.7643
vn 0.0000 0.9155 -0.4023
vn 0.0056 -0.1019 -0.9948
vn 0.0382 -0.7648 -0.6432
vn 0.0461 -0.9717 0.2315
vn 0.0471 -0.9452 0.3230
vn 0.0365 -0.7204 0.6926
vn 0.0000 -0.1407 0.9900
vn 0.0000 0.4403 -0.8978
vn 0.0000 -0.2298 -0.9732
vn 0.0589 -0.5456 0.8360
vn 0.0415 -0.6883 0.7243
vn 0.0405 -0.1823 0.9824
vn 0.0000 -0.6765 -0.7365
vn 0.1164 0.0168 0.9931
vn 0.1798 0.4818 0.8576
vn 0.0000 0.5227 0.8525
vn -0.0779 0.8984 -0.4322
vn -0.0119 0.9593 -0.2821
vn -0.6951 -0.4715 -0.5428
vn -0.8329 -0.5427 -0.1081
vn -0.5196 0.6417 -0.5642
vn -0.6237 0.7458 0.2339
vn -0.5330 0.4830 0.6947
vn -0.9376 -0.2896 -0.1925
vn -0.9843 -0.0432 -0.1708
vn -0.2470 0.1821 0.9517
vn -0.8412 0.0561 0.5378
vn -0.8359 0.0502 -0.5465
vn -0.8325 0.2501 -0.4944
vn -0.8013 -0.5490 -0.2378
vn -0.8432 0.4176 -0.3385
vn -0.5037 0.5311 -0.6813
vn -0.6663 -0.1930 -0.7203
vn -0.8217 0.5151 -0.2438
vn -0.3963 -0.6953 -0.5996
vn -0.6544 -0.7425 0.1434
vn -0.7376 -0.6201 0.2672
vn -0.9877 -0.1168 0.1037
vn -0.5325 -0.5826 0.6140
vn 0.4033 -0.4164 0.8148
vn -0.8318 -0.1158 0.5428
vn -0.8686 0.2520 -0.4268
vn -0.8197 -0.1591 -0.5502
vn -0.8259 -0.4365 -0.3569
vn -0.5693 0.2139 0.7938
vn -0.3037 0.4317 0.8493
vn -0.3917 -0.4230 0.8170
vn -0.4501 -0.3250 0.8317
vn -0.4063 -0.1196 0.9059
vn -0.3408 0.0666 0.9378
vn -0.6046 0.7409 -0.2923
vn -0.9921 0.0793 -0.0972
vn 0.0557 -0.6399 -0.7664
vn -0.0788 0.7579 -0.6475
vn 0.0604 -0.9362 -0.3461
vn -0.1145 0.9543 0.2761
vn -0.0226 0.2439 0.9695
vn -0.1454 0.2293 0.9624
vn -0.0431 0.1390 0.9893
vn -0.0263 0.0762 0.9967
vn 0.1018 -0.6633 -0.7414
vn -0.0056 -0.1019 -0.9948
vn -0.0382 -0.7648 -0.6432
vn -0.0461 -0.9717 0.2315
vn -0.0471 -0.9452 0.3230
vn -0.0365 -0.7204 0.6926
vn -0.0589 -0.5456 0.8360
vn -0.0415 -0.6883 0.7243
vn -0.0405 -0.1823 0.9824
vn -0.1170 0.0149 0.9930
vn -0.1823 0.4848 0.8554
vn 0.0779 0.8984 -0.4322
vn 0.0119 0.9593 -0.2821
vn -0.1089 -0.1132 0.9876
vn 0.1025 -0.1135 0.9882
vn -0.3228 0.5327 0.7823
vn 0.3107 0.5358 0.7851
vn -0.1317 0.5990 0.7899
vn 0.1137 0.5794 0.8071
vn -0.0248 0.2384 0.9708
vn 0.9388 -0.2820 -0.1977
vn -1.0000 0.0049 0.0068
vn -0.5337 0.1879 0.8245
vn -0.9976 -0.0158 -0.0678
vn -0.4959 0.3760 0.7827
vn 0.5332 0.1889 0.8246
vn 0.4951 0.3749 0.7838
vn 0.9975 -0.0163 -0.0686
vn 1.0000 0.0040 0.0053
vn 0.4726 -0.1908 -0.8604
vn 0.5024 -0.3654 -0.7837
vn -0.4723 -0.1903 -0.8607
vn -0.5016 -0.3668 -0.7835
vn -0.5313 -0.1778 0.8283
vn -0.9978 0.0137 -0.0654
vn 0.5315 -0.1774 0.8283
vn 0.9978 0.0135 -0.0650
vn 0.4734 0.1826 -0.8617
vn -0.4736 0.1828 -0.8616
vn -0.5148 -0.3511 0.7821
vn -0.9991 0.0165 -0.0387
vn 0.5152 -0.3517 0.7816
vn 0.9991 0.0162 -0.0379
vn 0.4791 0.3565 -0.8021
vn -0.4794 0.3559 -0.8022
vn 0.7554 -0.3276 0.5674
vn 0.7554 -0.6552 0.0000
vn 0.0000 -0.5000 0.8660
vn 0.7554 0.3276 0.5674
vn 0.0000 0.5000 0.8660
vn 0.7554 0.6552 0.0000
vn 0.7554 0.3276 -0.5674
vn 0.0000 0.5000 -0.8660
vn 0.7554 -0.3276 -0.5674
vn 0.0000 -0.5000 -0.8660
vn 0.5505 -0.4174 0.7230
vn 0.5505 -0.8348 -0.0000
vn 0.5505 0.4174 0.7230
vn 0.5505 0.8348 -0.0000
vn 0.5505 0.4174 -0.7230
vn 0.5505 -0.4174 -0.7230
vn -0.5505 -0.4174 0.7230
vn -0.5505 -0.8348 0.0000
vn -0.5505 0.4174 0.7230
vn -0.5505 0.8348 0.0000
vn -0.5505 0.4174 -0.7230
vn -0.5505 -0.4174 -0.7230
vn -0.7554 -0.3276 0.5674
vn -0.7554 -0.6552 -0.0000
vn -0.7554 0.3276 0.5674
vn -0.7554 0.6552 -0.0000
vn -0.7554 0.3276 -0.5674
vn -0.7554 -0.3276 -0.5674
usemtl inside.006
s off
f 378/1/1 324/2/1 311/3/1
f 311/3/1 324/2/1 275/4/1
f 275/4/1 324/2/1 290/5/1
f 324/2/1 378/1/1 391/6/1
f 391/6/1 342/7/1 358/8/1
f 378/1/1 342/7/1 391/6/1
s 1
f 1/9/2 2/10/3 3/11/4
f 4/12/5 5/13/6 1/14/2
f 6/15/7 5/13/6 4/12/5
f 7/16/8 6/15/7 8/17/9
f 9/18/10 10/19/11 7/20/8
f 2/21/3 1/22/2 5/23/6
f 11/24/12 12/25/13 5/23/6
f 10/26/11 11/24/12 6/27/7
f 1/9/2 3/11/4 13/28/14
f 4/12/5 1/14/2 13/29/14
f 6/15/7 4/12/5 8/17/9
f 7/16/8 8/17/9 14/30/15
f 9/18/10 7/20/8 14/31/15
f 2/21/3 5/23/6 12/25/13
f 11/24/12 5/23/6 6/27/7
f 10/26/11 6/27/7 7/32/8
f 15/33/16 16/34/17 17/35/18
f 15/36/16 18/37/19 19/38/20
f 15/36/16 20/39/21 21/40/22
f 22/41/23 23/42/24 24/43/25
f 22/44/23 25/45/26 17/35/18
f 22/41/23 16/34/17 21/40/22
f 26/46/27 20/47/21 19/38/20
f 26/48/27 27/49/28 28/50/29
f 26/51/27 29/52/30 21/40/22
f 30/53/31 29/54/30 28/50/29
f 30/55/31 31/56/32 24/43/25
f 30/57/31 23/58/24 21/40/22
f 32/59/33 18/60/19 17/35/18
f 32/61/33 33/62/34 34/63/35
f 32/64/33 35/65/36 19/38/20
f 36/66/37 25/67/26 24/43/25
f 36/68/37 37/69/38 34/63/35
f 36/70/37 33/71/34 17/35/18
f 38/72/39 27/73/28 19/38/20
f 38/72/39 35/74/36 34/63/35
f 38/75/39 39/76/40 28/50/29
f 40/77/41 37/78/38 24/43/25
f 40/79/41 31/80/32 28/50/29
f 40/77/41 39/76/40 34/63/35
f 41/81/42 42/82/43 43/83/44
f 41/84/42 44/85/45 45/86/46
f 41/84/42 46/87/47 47/88/48
f 48/89/49 49/90/50 50/91/51
f 48/92/49 51/93/52 43/83/44
f 48/89/49 42/82/43 47/88/48
f 52/94/53 46/95/47 45/86/46
f 52/96/53 53/97/54 54/98/55
f 52/99/53 55/100/56 47/88/48
f 56/101/57 55/102/56 54/98/55
f 56/103/57 57/104/58 50/91/51
f 55/100/56 56/105/57 49/106/50
f 58/107/59 44/108/45 43/83/44
f 58/109/59 59/110/60 60/111/61
f 58/112/59 61/113/62 45/86/46
f 62/114/63 51/115/52 50/91/51
f 62/116/63 63/117/64 60/111/61
f 62/118/63 59/119/60 43/83/44
f 64/120/65 53/121/54 45/86/46
f 64/120/65 61/122/62 60/111/61
f 64/123/65 65/124/66 54/98/55
f 66/125/67 63/126/64 50/91/51
f 66/127/67 57/128/58 54/98/55
f 63/117/64 66/125/67 65/124/66
f 67/129/68 68/130/69 69/131/70
f 67/132/68 70/133/71 71/134/72
f 67/132/68 72/135/73 73/136/74
f 74/137/75 75/138/76 76/139/77
f 74/140/75 77/141/78 69/131/70
f 75/142/76 74/137/75 68/130/69
f 78/143/79 72/144/73 71/134/72
f 78/145/79 79/146/80 80/147/81
f 78/148/79 81/149/82 73/136/74
f 82/150/83 81/151/82 80/147/81
f 82/152/83 83/153/84 76/139/77
f 82/154/83 75/142/76 73/136/74
f 84/155/85 70/156/71 69/131/70
f 84/157/85 85/158/86 86/159/87
f 84/160/85 87/161/88 71/134/72
f 88/162/89 77/163/78 76/139/77
f 85/158/86 88/164/89 89/165/90
f 88/166/89 85/167/86 69/131/70
f 90/168/91 79/169/80 71/134/72
f 90/168/91 87/170/88 86/159/87
f 90/171/91 91/172/92 80/147/81
f 92/173/93 89/174/90 76/139/77
f 92/175/93 83/176/84 80/147/81
f 92/173/93 91/172/92 86/159/87
f 93/177/94 94/178/95 95/179/96
f 93/180/94 96/181/97 97/182/98
f 93/180/94 98/183/99 99/184/100
f 100/185/101 101/186/102 102/187/103
f 100/188/101 103/189/104 95/179/96
f 101/190/102 100/185/101 94/178/95
f 104/191/105 98/192/99 97/182/98
f 104/193/105 105/194/106 106/195/107
f 104/196/105 107/197/108 99/184/100
f 108/198/109 107/199/108 106/195/107
f 108/200/109 109/201/110 102/187/103
f 107/197/108 108/202/109 101/190/102
f 110/203/111 96/204/97 95/179/96
f 110/205/111 111/206/112 112/207/113
f 110/208/111 113/209/114 97/182/98
f 114/210/115 103/211/104 102/187/103
f 111/206/112 114/212/115 115/213/116
f 114/214/115 111/215/112 95/179/96
f 116/216/117 105/217/106 97/182/98
f 116/216/117 113/218/114 112/207/113
f 116/219/117 117/220/118 106/195/107
f 118/221/119 115/222/116 102/187/103
f 118/223/119 109/224/110 106/195/107
f 115/213/116 118/221/119 117/220/118
f 119/225/120 120/226/121 121/227/122
f 119/228/120 122/229/123 123/230/124
f 119/228/120 124/231/125 125/232/126
f 126/233/127 127/234/128 128/235/129
f 126/236/127 129/237/130 121/227/122
f 127/238/128 126/233/127 120/226/121
f 130/239/131 124/240/125 123/230/124
f 130/241/131 131/242/132 132/243/133
f 130/244/131 133/245/134 125/232/126
f 134/246/135 133/247/134 132/243/133
f 134/248/135 135/249/136 128/235/129
f 133/245/134 134/250/135 127/238/128
f 136/251/137 122/252/123 121/227/122
f 136/253/137 137/254/138 138/255/139
f 136/256/137 139/257/140 123/230/124
f 140/258/141 129/259/130 128/235/129
f 137/254/138 140/260/141 141/261/142
f 140/262/141 137/263/138 121/227/122
f 142/264/143 131/265/132 123/230/124
f 142/264/143 139/266/140 138/255/139
f 142/267/143 143/268/144 132/243/133
f 144/269/145 141/270/142 128/235/129
f 144/271/145 135/272/136 132/243/133
f 141/261/142 144/269/145 143/268/144
f 41/81/42 43/83/44 44/108/45
f 41/84/42 45/86/46 46/95/47
f 41/84/42 47/88/48 42/82/43
f 48/89/49 50/91/51 51/115/52
f 48/92/49 43/83/44 42/82/43
f 48/89/49 47/88/48 49/106/50
f 52/94/53 45/86/46 53/121/54
f 52/96/53 54/98/55 55/102/56
f 52/99/53 47/88/48 46/87/47
f 56/101/57 54/98/55 57/128/58
f 56/103/57 50/91/51 49/90/50
f 55/100/56 49/106/50 47/88/48
f 58/107/59 43/83/44 59/119/60
f 58/109/59 60/111/61 61/122/62
f 58/112/59 45/86/46 44/85/45
f 62/114/63 50/91/51 63/126/64
f 62/116/63 60/111/61 59/110/60
f 62/118/63 43/83/44 51/93/52
f 64/120/65 45/86/46 61/113/62
f 64/120/65 60/111/61 65/124/66
f 64/123/65 54/98/55 53/97/54
f 66/125/67 50/91/51 57/104/58
f 66/127/67 54/98/55 65/124/66
f 63/117/64 65/124/66 60/111/61
f 67/129/68 69/131/70 70/156/71
f 67/132/68 71/134/72 72/144/73
f 67/132/68 73/136/74 68/130/69
f 74/137/75 76/139/77 77/163/78
f 74/140/75 69/131/70 68/130/69
f 75/142/76 68/130/69 73/136/74
f 78/143/79 71/134/72 79/169/80
f 78/145/79 80/147/81 81/151/82
f 78/148/79 73/136/74 72/135/73
f 82/150/83 80/147/81 83/176/84
f 82/152/83 76/139/77 75/138/76
f 82/154/83 73/136/74 81/149/82
f 84/155/85 69/131/70 85/167/86
f 84/157/85 86/159/87 87/170/88
f 84/160/85 71/134/72 70/133/71
f 88/162/89 76/139/77 89/174/90
f 85/158/86 89/165/90 86/159/87
f 88/166/89 69/131/70 77/141/78
f 90/168/91 71/134/72 87/161/88
f 90/168/91 86/159/87 91/172/92
f 90/171/91 80/147/81 79/146/80
f 92/173/93 76/139/77 83/153/84
f 92/175/93 80/147/81 91/172/92
f 92/173/93 86/159/87 89/165/90
f 93/177/94 95/179/96 96/204/97
f 93/180/94 97/182/98 98/192/99
f 93/180/94 99/184/100 94/178/95
f 100/185/101 102/187/103 103/211/104
f 100/188/101 95/179/96 94/178/95
f 101/190/102 94/178/95 99/184/100
f 104/191/105 97/182/98 105/217/106
f 104/193/105 106/195/107 107/199/108
f 104/196/105 99/184/100 98/183/99
f 108/198/109 106/195/107 109/224/110
f 108/200/109 102/187/103 101/186/102
f 107/197/108 101/190/102 99/184/100
f 110/203/111 95/179/96 111/215/112
f 110/205/111 112/207/113 113/218/114
f 110/208/111 97/182/98 96/181/97
f 114/210/115 102/187/103 115/222/116
f 111/206/112 115/213/116 112/207/113
f 114/214/115 95/179/96 103/189/104
f 116/216/117 97/182/98 113/209/114
f 116/216/117 112/207/113 117/220/118
f 116/219/117 106/195/107 105/194/106
f 118/221/119 102/187/103 109/201/110
f 118/223/119 106/195/107 117/220/118
f 115/213/116 117/220/118 112/207/113
f 119/225/120 121/227/122 122/252/123
f 119/228/120 123/230/124 124/240/125
f 119/228/120 125/232/126 120/226/121
f 126/233/127 128/235/129 129/259/130
f 126/236/127 121/227/122 120/226/121
f 127/238/128 120/226/121 125/232/126
f 130/239/131 123/230/124 131/265/132
f 130/241/131 132/243/133 133/247/134
f 130/244/131 125/232/126 124/231/125
f 134/246/135 132/243/133 135/272/136
f 134/248/135 128/235/129 127/234/128
f 133/245/134 127/238/128 125/232/126
f 136/251/137 121/227/122 137/263/138
f 136/253/137 138/255/139 139/266/140
f 136/256/137 123/230/124 122/229/123
f 140/258/141 128/235/129 141/270/142
f 137/254/138 141/261/142 138/255/139
f 140/262/141 121/227/122 129/237/130
f 142/264/143 123/230/124 139/257/140
f 142/264/143 138/255/139 143/268/144
f 142/267/143 132/243/133 131/242/132
f 144/269/145 128/235/129 135/249/136
f 144/271/145 132/243/133 143/268/144
f 141/261/142 143/268/144 138/255/139
f 15/33/16 17/35/18 18/60/19
f 15/36/16 19/38/20 20/47/21
f 15/36/16 21/40/22 16/34/17
f 22/41/23 24/43/25 25/67/26
f 22/44/23 17/35/18 16/34/17
f 22/41/23 21/40/22 23/58/24
f 26/46/27 19/38/20 27/73/28
f 26/48/27 28/50/29 29/54/30
f 26/51/27 21/40/22 20/39/21
f 30/53/31 28/50/29 31/80/32
f 30/55/31 24/43/25 23/42/24
f 30/57/31 21/40/22 29/52/30
f 32/59/33 17/35/18 33/71/34
f 32/61/33 34/63/35 35/74/36
f 32/64/33 19/38/20 18/37/19
f 36/66/37 24/43/25 37/78/38
f 36/68/37 34/63/35 33/62/34
f 36/70/37 17/35/18 25/45/26
f 38/72/39 19/38/20 35/65/36
f 38/72/39 34/63/35 39/76/40
f 38/75/39 28/50/29 27/49/28
f 40/77/41 24/43/25 31/56/32
f 40/79/41 28/50/29 39/76/40
f 40/77/41 34/63/35 37/69/38
f 347/273/146 381/274/147 345/275/148
f 507/276/149 508/277/150 506/278/151
f 509/279/152 508/277/150 507/276/149
f 510/280/153 508/277/150 509/279/152
f 508/277/150 505/281/154 506/278/151
f 507/282/149 512/283/155 513/284/156
f 512/283/155 507/282/149 506/285/151
f 509/286/152 513/284/156 514/287/157
f 513/284/156 509/286/152 507/282/149
f 510/288/153 514/289/157 515/290/158
f 514/289/157 510/288/153 509/291/152
f 508/292/150 515/290/158 516/293/159
f 515/290/158 508/292/150 510/288/153
f 505/294/154 516/295/159 511/296/160
f 516/295/159 505/294/154 508/297/150
f 519/298/161 518/299/162 517/300/163
f 519/298/161 520/301/164 518/299/162
f 519/298/161 521/302/165 520/301/164
f 519/298/161 522/303/166 521/302/165
f 525/304/167 524/305/168 520/306/164
f 518/307/162 520/306/164 524/305/168
f 526/308/169 525/304/167 521/309/165
f 520/306/164 521/309/165 525/304/167
f 527/310/170 526/311/169 522/312/166
f 521/313/165 522/312/166 526/311/169
f 528/314/171 527/310/170 519/315/161
f 522/312/166 519/315/161 527/310/170
f 523/316/160 528/317/171 517/318/163
f 519/319/161 517/318/163 528/317/171
f 529/320/172 531/321/173 530/322/174
f 530/322/174 531/321/173 532/323/175
f 526/311/169 527/310/170 514/289/157
f 514/289/157 527/310/170 515/290/158
f 513/284/156 526/308/169 514/287/157
f 526/308/169 513/284/156 525/304/167
f 524/305/168 513/284/156 512/283/155
f 513/284/156 524/305/168 525/304/167
f 528/317/171 523/316/160 516/295/159
f 516/295/159 523/316/160 511/296/160
f 530/322/174 532/323/175 515/290/158
f 516/293/159 515/290/158 532/323/175
f 531/321/173 527/310/170 528/314/171
f 527/310/170 531/321/173 529/320/172
f 529/320/172 515/290/158 527/310/170
f 515/290/158 529/320/172 530/322/174
usemtl _eva.png.001
f 145/324/176 146/325/177 147/326/178
f 148/327/179 145/324/176 147/326/178
f 148/328/179 147/329/178 149/330/180
f 149/330/180 150/331/180 148/328/179
f 146/332/177 145/333/176 151/334/181
f 151/334/181 152/335/181 146/332/177
f 153/336/176 154/337/177 155/338/178
f 156/339/179 153/336/176 155/338/178
f 156/340/179 155/341/178 157/342/180
f 157/342/180 158/343/180 156/340/179
f 154/344/177 153/345/176 159/346/181
f 159/346/181 160/347/181 154/344/177
f 161/348/182 162/349/183 163/350/184
f 164/351/185 161/348/182 163/350/184
f 164/352/185 163/353/184 165/354/180
f 165/354/180 166/355/180 164/352/185
f 162/356/183 161/357/182 167/358/181
f 167/358/181 168/359/181 162/356/183
f 169/360/182 170/361/183 171/362/184
f 172/363/185 169/360/182 171/362/184
f 172/364/185 171/365/184 173/366/180
f 173/366/180 174/367/180 172/364/185
f 170/368/183 169/369/182 175/370/181
f 175/370/181 176/371/181 170/368/183
f 177/372/186 178/373/187 179/374/188
f 180/375/189 177/372/186 179/374/188
f 181/376/190 177/372/186 180/375/189
f 180/375/189 182/377/191 181/376/190
f 183/378/192 181/376/190 182/377/191
f 182/377/191 184/379/193 183/378/192
f 185/380/194 183/378/192 184/379/193
f 184/379/193 186/381/195 185/380/194
f 187/382/196 188/383/197 189/384/198
f 189/384/198 190/385/199 187/382/196
f 191/386/200 192/387/201 188/383/197
f 188/383/197 187/382/196 191/386/200
f 193/388/202 194/389/203 192/387/201
f 192/387/201 191/386/200 193/388/202
f 195/390/204 196/391/205 194/389/203
f 194/389/203 193/388/202 195/390/204
f 188/392/197 180/393/189 179/394/188
f 179/394/188 189/395/198 188/392/197
f 192/396/201 182/397/191 180/393/189
f 180/393/189 188/392/197 192/396/201
f 194/398/203 184/399/193 182/397/191
f 182/397/191 192/396/201 194/398/203
f 196/400/205 186/401/195 184/399/193
f 184/399/193 194/398/203 196/400/205
f 195/390/204 185/402/194 186/403/195
f 186/403/195 196/391/205 195/390/204
f 193/404/202 183/405/192 185/406/194
f 185/406/194 195/407/204 193/404/202
f 191/408/200 181/409/190 183/405/192
f 183/405/192 193/404/202 191/408/200
f 187/410/196 177/411/186 181/409/190
f 181/409/190 191/408/200 187/410/196
f 178/412/187 177/411/186 190/413/199
f 177/411/186 187/410/196 190/413/199
f 197/414/206 198/415/207 199/416/208
f 200/417/209 197/414/206 199/416/208
f 200/417/209 199/416/208 201/418/210
f 201/418/210 202/419/211 200/417/209
f 202/419/211 201/418/210 203/420/212
f 203/420/212 204/421/213 202/419/211
f 204/421/213 203/420/212 205/422/214
f 205/422/214 206/423/215 204/421/213
f 207/424/216 208/425/217 209/426/218
f 209/426/218 210/427/219 207/424/216
f 208/425/217 211/428/220 212/429/221
f 212/429/221 209/426/218 208/425/217
f 211/428/220 213/430/222 214/431/223
f 214/431/223 212/429/221 211/428/220
f 213/430/222 215/432/224 216/433/225
f 216/433/225 214/431/223 213/430/222
f 197/434/206 200/435/209 208/436/217
f 207/437/216 197/434/206 208/436/217
f 200/435/209 202/438/211 211/439/220
f 211/439/220 208/436/217 200/435/209
f 202/438/211 204/440/213 213/441/222
f 213/441/222 211/439/220 202/438/211
f 204/440/213 206/442/215 215/443/224
f 215/443/224 213/441/222 204/440/213
f 206/444/215 205/445/214 216/433/225
f 216/433/225 215/432/224 206/444/215
f 205/446/214 203/447/212 214/448/223
f 214/448/223 216/449/225 205/446/214
f 203/447/212 201/450/210 212/451/221
f 212/451/221 214/448/223 203/447/212
f 201/450/210 199/452/208 209/453/218
f 209/453/218 212/451/221 201/450/210
f 199/452/208 198/454/207 210/455/219
f 210/455/219 209/453/218 199/452/208
f 217/456/226 218/457/227 219/458/228
f 217/456/226 220/459/229 218/457/227
f 217/456/226 221/460/230 220/459/229
f 217/456/226 222/461/231 221/460/230
f 217/456/226 223/462/232 222/461/231
f 217/456/226 224/463/233 223/462/232
f 217/456/226 225/464/234 224/463/233
f 217/456/226 219/458/228 225/464/234
f 219/458/228 226/465/235 227/466/236
f 219/458/228 218/457/227 226/465/235
f 218/457/227 228/467/237 226/465/235
f 218/457/227 220/459/229 228/467/237
f 220/459/229 229/468/238 228/467/237
f 220/459/229 221/460/230 229/468/238
f 221/460/230 230/469/239 229/468/238
f 221/460/230 222/461/231 230/469/239
f 222/461/231 231/470/240 230/469/239
f 222/461/231 223/462/232 231/470/240
f 223/462/232 232/471/241 231/470/240
f 223/462/232 224/463/233 232/471/241
f 224/463/233 233/472/242 232/471/241
f 224/463/233 225/464/234 233/472/242
f 225/464/234 227/466/236 233/472/242
f 225/464/234 219/458/228 227/466/236
f 227/466/236 234/473/243 235/474/244
f 227/466/236 226/465/235 234/473/243
f 226/465/235 236/475/245 234/473/243
f 226/465/235 228/467/237 236/475/245
f 228/467/237 237/476/246 236/475/245
f 228/467/237 229/468/238 237/476/246
f 229/468/238 238/477/247 237/476/246
f 229/468/238 230/469/239 238/477/247
f 230/469/239 239/478/248 238/477/247
f 230/469/239 231/470/240 239/478/248
f 231/470/240 240/479/249 239/478/248
f 231/470/240 232/471/241 240/479/249
f 232/471/241 241/480/250 240/479/249
f 232/471/241 233/472/242 241/480/250
f 233/472/242 235/474/244 241/480/250
f 233/472/242 227/466/236 235/474/244
f 235/474/244 242/481/251 243/482/252
f 235/474/244 234/473/243 242/481/251
f 234/473/243 244/483/253 242/481/251
f 234/473/243 236/475/245 244/483/253
f 236/475/245 245/484/254 244/483/253
f 236/475/245 237/476/246 245/484/254
f 237/476/246 246/485/255 245/484/254
f 237/476/246 238/477/247 246/485/255
f 238/477/247 247/486/256 246/485/255
f 238/477/247 239/478/248 247/486/256
f 239/478/248 248/487/257 247/486/256
f 239/478/248 240/479/249 248/487/257
f 240/479/249 249/488/258 248/487/257
f 240/479/249 241/480/250 249/488/258
f 241/480/250 243/482/252 249/488/258
f 241/480/250 235/474/244 243/482/252
f 250/489/259 243/482/252 242/481/251
f 250/489/259 242/481/251 244/483/253
f 250/489/259 244/483/253 245/484/254
f 250/489/259 245/484/254 246/485/255
f 250/489/259 246/485/255 247/486/256
f 250/489/259 247/486/256 248/487/257
f 250/489/259 248/487/257 249/488/258
f 250/489/259 249/488/258 243/482/252
f 251/490/260 252/491/261 253/492/262
f 252/491/261 251/490/260 254/493/263
f 251/490/260 253/492/262 255/494/264
f 256/495/265 251/490/260 255/494/264
f 256/495/265 255/494/264 257/496/266
f 257/496/266 258/497/267 256/495/265
f 259/498/268 260/499/269 261/500/270
f 260/499/269 259/498/268 262/501/271
f 260/502/269 263/503/272 264/504/273
f 264/504/273 261/505/270 260/502/269
f 263/503/272 265/506/274 266/507/275
f 266/507/275 264/504/273 263/503/272
f 254/508/263 251/509/260 260/510/269
f 260/510/269 262/511/271 254/508/263
f 251/512/260 256/513/265 263/503/272
f 260/514/269 251/515/260 263/516/272
f 256/513/265 258/517/267 265/506/274
f 265/518/274 263/519/272 256/520/265
f 257/521/266 255/522/264 264/523/273
f 264/523/273 266/524/275 257/521/266
f 255/525/264 253/526/262 261/505/270
f 261/527/270 264/528/273 255/529/264
f 253/530/262 252/531/261 259/532/268
f 259/533/268 261/505/270 253/526/262
f 267/534/276 268/535/277 269/536/278
f 267/534/276 269/536/278 270/537/279
f 271/538/280 272/539/281 273/540/282
f 274/541/283 271/538/280 275/542/284
f 271/538/280 273/540/282 275/542/284
f 276/543/285 274/541/283 275/542/284
f 277/544/286 278/545/287 279/546/288
f 280/547/289 276/543/285 275/542/284
f 281/548/290 282/549/291 283/550/292
f 284/551/293 285/552/294 281/548/290
f 284/551/293 281/548/290 283/550/292
f 286/553/295 284/551/293 283/550/292
f 286/553/295 283/550/292 287/554/296
f 288/555/297 289/556/298 286/557/295
f 288/555/297 286/557/295 287/558/296
f 290/559/299 283/550/292 291/560/300
f 290/559/299 291/560/300 292/561/301
f 293/562/302 290/559/303 294/563/304
f 295/564/305 293/562/302 294/563/304
f 290/559/299 292/561/301 275/542/284
f 296/565/306 295/564/305 294/563/304
f 292/561/301 297/566/307 275/542/284
f 297/566/307 277/544/286 275/542/284
f 294/563/304 290/559/303 275/542/308
f 275/542/284 277/544/286 279/546/288
f 279/567/288 298/568/309 299/569/310
f 275/542/284 279/546/288 299/570/310
f 280/547/289 275/542/284 299/570/310
f 268/571/277 300/572/311 301/573/312
f 301/574/312 269/575/278 268/576/277
f 267/577/276 302/578/313 300/572/311
f 268/571/277 267/577/276 300/572/311
f 269/536/278 301/579/312 303/580/314
f 303/580/314 270/537/279 269/536/278
f 304/581/315 305/582/316 306/583/317
f 307/584/318 273/585/282 272/586/281
f 271/587/280 308/588/319 309/589/320
f 274/590/283 310/591/321 308/588/319
f 308/588/319 271/587/280 274/590/283
f 273/585/282 306/583/317 311/592/322
f 311/592/322 275/593/284 273/585/282
f 276/594/285 312/595/323 310/591/321
f 310/591/321 274/590/283 276/594/285
f 278/596/287 313/597/324 314/598/325
f 314/598/325 279/567/288 278/596/287
f 277/599/286 315/600/326 313/597/324
f 313/597/324 278/596/287 277/599/286
f 280/601/289 316/602/327 312/595/323
f 312/595/323 276/594/285 280/601/289
f 282/603/291 317/604/328 318/605/329
f 318/605/329 283/606/292 282/603/291
f 281/607/290 319/608/330 317/604/328
f 317/604/328 282/603/291 281/607/290
f 285/609/294 320/610/331 319/608/330
f 319/608/330 281/607/290 285/609/294
f 284/611/293 321/612/332 320/613/331
f 320/613/331 285/614/294 284/611/293
f 286/557/295 322/615/333 321/612/332
f 321/612/332 284/611/293 286/557/295
f 289/556/298 323/616/334 322/615/333
f 322/615/333 286/557/295 289/556/298
f 290/617/299 324/618/335 323/619/334
f 323/619/334 289/620/298 288/621/297
f 323/619/334 288/621/297 290/617/299
f 283/606/292 318/605/329 325/622/336
f 325/622/336 291/623/300 283/606/292
f 291/623/300 325/622/336 326/624/337
f 326/624/337 292/625/301 291/623/300
f 293/626/302 327/627/338 324/628/339
f 324/628/339 290/629/303 293/626/302
f 295/630/305 328/631/340 327/627/338
f 327/627/338 293/626/302 295/630/305
f 292/625/301 326/624/337 329/632/341
f 329/632/341 297/633/307 292/625/301
f 296/634/306 330/635/342 328/636/340
f 328/636/340 295/637/305 296/634/306
f 297/633/307 329/632/341 315/600/326
f 315/600/326 277/599/286 297/633/307
f 294/638/304 331/639/343 330/635/342
f 330/635/342 296/634/306 294/638/304
f 275/640/308 311/641/344 331/642/343
f 331/642/343 294/643/304 275/640/308
f 298/568/309 332/644/345 333/645/346
f 333/645/346 299/569/310 298/568/309
f 279/567/288 314/598/325 332/644/345
f 332/644/345 298/568/309 279/567/288
f 299/569/310 333/645/346 316/602/327
f 316/602/327 280/601/289 299/569/310
f 334/646/347 335/647/348 336/648/349
f 336/648/349 335/647/348 337/649/350
f 338/650/351 337/649/350 339/651/352
f 338/652/351 340/653/353 341/654/354
f 340/653/353 342/655/355 341/654/354
f 340/653/353 343/656/356 342/655/355
f 343/656/356 344/657/357 342/655/355
f 345/658/148 346/659/358 347/660/146
f 344/657/357 348/661/359 342/655/355
f 349/662/360 350/663/361 351/664/362
f 352/665/363 353/666/364 350/663/361
f 350/663/361 353/666/364 351/664/362
f 353/666/364 354/667/365 355/668/366
f 353/666/364 355/668/366 351/664/362
f 290/559/299 288/669/297 287/554/296
f 290/559/299 287/554/296 283/550/292
f 356/670/367 357/671/368 355/672/366
f 356/670/367 355/672/366 354/673/365
f 351/664/362 358/674/369 359/675/370
f 359/675/370 358/674/369 360/676/371
f 358/674/369 342/655/355 360/676/371
f 342/655/355 361/677/372 360/676/371
f 362/678/373 342/655/374 358/674/375
f 362/678/373 358/674/375 363/679/376
f 342/655/355 347/660/146 346/659/358
f 361/677/372 342/655/355 346/659/358
f 362/678/373 363/679/376 364/680/377
f 362/678/373 364/680/377 365/681/378
f 366/682/379 347/273/146 367/683/380
f 347/660/146 342/655/355 367/684/380
f 342/655/355 348/661/359 367/684/380
f 368/685/381 334/686/347 369/687/382
f 336/688/349 369/689/382 334/690/347
f 370/691/383 335/692/348 368/685/381
f 334/686/347 368/685/381 335/692/348
f 369/693/382 336/648/349 371/694/384
f 337/649/350 371/694/384 336/648/349
f 372/695/385 373/696/386 374/697/387
f 373/696/386 372/695/385 338/698/351
f 375/699/319 340/700/353 376/701/320
f 377/702/321 343/703/356 375/699/319
f 340/700/353 375/699/319 343/703/356
f 374/697/387 341/704/354 378/705/388
f 342/706/355 378/705/388 341/704/354
f 379/707/323 344/708/357 377/702/321
f 343/703/356 377/702/321 344/708/357
f 380/709/389 345/275/148 381/274/147
f 382/710/326 346/711/358 380/709/389
f 345/275/148 380/709/389 346/711/358
f 383/712/327 348/713/359 379/707/323
f 344/708/357 379/707/323 348/713/359
f 384/714/328 349/715/360 385/716/329
f 351/717/362 385/716/329 349/715/360
f 386/718/390 350/719/361 384/714/328
f 349/715/360 384/714/328 350/719/361
f 387/720/391 352/721/363 386/718/390
f 350/719/361 386/718/390 352/721/363
f 388/722/392 353/723/364 387/724/391
f 352/725/363 387/724/391 353/723/364
f 389/726/393 354/673/365 388/722/392
f 353/723/364 388/722/392 354/673/365
f 390/727/394 356/670/367 389/726/393
f 354/673/365 389/726/393 356/670/367
f 391/728/335 358/729/369 390/730/394
f 356/731/367 390/730/394 358/729/369
f 356/731/367 358/729/369 357/732/368
f 385/716/329 351/717/362 392/733/336
f 359/734/370 392/733/336 351/717/362
f 392/733/336 359/734/370 393/735/337
f 360/736/371 393/735/337 359/734/370
f 394/737/395 363/738/376 391/739/396
f 358/740/375 391/739/396 363/738/376
f 395/741/397 364/742/377 394/737/395
f 363/738/376 394/737/395 364/742/377
f 393/735/337 360/736/371 396/743/341
f 361/744/372 396/743/341 360/736/371
f 397/745/398 365/746/378 395/747/397
f 364/748/377 395/747/397 365/746/378
f 396/743/341 361/744/372 382/710/326
f 346/711/358 382/710/326 361/744/372
f 398/749/399 362/750/373 397/745/398
f 365/746/378 397/745/398 362/750/373
f 378/751/344 342/752/374 398/753/399
f 362/754/373 398/753/399 342/752/374
f 399/755/400 366/682/379 400/756/401
f 367/683/380 400/756/401 366/682/379
f 381/274/147 347/273/146 399/755/400
f 366/682/379 399/755/400 347/273/146
f 400/756/401 367/683/380 383/712/327
f 348/713/359 383/712/327 367/683/380
f 401/757/402 402/758/403 403/759/404
f 402/758/403 404/760/405 403/759/404
f 395/747/397 328/636/340 397/745/398
f 328/636/340 330/635/342 397/745/398
f 327/627/338 328/631/340 395/741/397
f 395/741/397 394/737/395 327/627/338
f 391/739/396 324/628/339 327/627/338
f 327/627/338 394/737/395 391/739/396
f 323/619/334 324/618/335 391/728/335
f 391/728/335 390/730/394 323/619/334
f 390/727/394 389/726/393 323/616/334
f 322/615/333 323/616/334 389/726/393
f 389/726/393 388/722/392 322/615/333
f 388/722/392 321/612/332 322/615/333
f 387/724/391 321/612/332 388/722/392
f 320/613/331 321/612/332 387/724/391
f 387/720/391 319/608/330 320/610/331
f 386/718/390 319/608/330 387/720/391
f 317/604/328 319/608/330 386/718/390
f 386/718/390 384/714/328 317/604/328
f 385/716/329 317/604/328 384/714/328
f 318/605/329 317/604/328 385/716/329
f 385/716/329 392/733/336 318/605/329
f 392/733/336 325/622/336 318/605/329
f 325/622/336 392/733/336 326/624/337
f 392/733/336 393/735/337 326/624/337
f 326/624/337 393/735/337 329/632/341
f 393/735/337 396/743/341 329/632/341
f 329/632/341 396/743/341 315/600/326
f 396/743/341 382/710/326 315/600/326
f 315/600/326 382/710/326 313/597/324
f 382/710/326 380/709/389 313/597/324
f 313/597/324 380/709/389 314/598/325
f 380/709/389 381/274/147 314/598/325
f 381/274/147 399/755/400 314/598/325
f 399/755/400 332/644/345 314/598/325
f 332/644/345 399/755/400 400/756/401
f 400/756/401 333/645/346 332/644/345
f 383/712/327 316/602/327 400/756/401
f 316/602/327 333/645/346 400/756/401
f 383/712/327 312/595/323 316/602/327
f 379/707/323 312/595/323 383/712/327
f 377/702/321 310/591/321 379/707/323
f 310/591/321 312/595/323 379/707/323
f 375/699/319 308/588/319 377/702/321
f 308/588/319 310/591/321 377/702/321
f 375/699/319 309/589/320 308/588/319
f 376/701/320 309/589/320 375/699/319
f 302/578/313 309/589/320 370/691/383
f 370/691/383 309/589/320 376/701/320
f 300/572/311 302/578/313 368/685/381
f 302/578/313 370/691/383 368/685/381
f 301/573/312 300/572/311 369/687/382
f 369/687/382 300/572/311 368/685/381
f 369/693/382 371/694/384 301/579/312
f 371/694/384 303/580/314 301/579/312
f 371/694/384 405/761/406 303/580/314
f 405/761/406 406/762/407 303/580/314
f 407/763/408 305/582/316 372/695/385
f 305/582/316 406/764/407 405/765/406
f 378/705/388 311/592/322 374/697/387
f 311/592/322 306/583/317 374/697/387
f 398/753/399 331/642/343 378/751/344
f 331/642/343 311/641/344 378/751/344
f 339/766/352 376/701/320 340/700/353
f 335/692/348 370/691/383 339/766/352
f 376/701/320 339/766/352 370/691/383
f 339/767/352 340/653/353 338/652/351
f 306/583/317 273/585/282 307/584/318
f 306/583/317 307/584/318 304/581/315
f 272/586/281 406/764/407 304/581/315
f 272/586/281 304/581/315 307/584/318
f 304/581/315 406/764/407 305/582/316
f 306/583/317 305/582/316 407/763/408
f 374/697/387 306/583/317 407/763/408
f 374/697/387 407/763/408 372/695/385
f 405/765/406 338/698/351 372/695/385
f 405/765/406 372/695/385 305/582/316
f 341/704/354 374/697/387 373/696/386
f 341/704/354 373/696/386 338/698/351
f 402/758/403 330/635/342 404/760/405
f 331/639/343 404/760/405 330/635/342
f 403/759/404 398/749/399 397/745/398
f 397/745/398 401/757/402 403/759/404
f 401/757/402 397/745/398 330/635/342
f 330/635/342 402/758/403 401/757/402
f 404/768/405 331/769/343 398/770/399
f 398/770/399 403/771/404 404/768/405
f 408/772/409 267/534/276 272/773/281
f 309/589/320 408/774/409 271/587/280
f 302/578/313 267/577/276 408/774/409
f 408/774/409 309/589/320 302/578/313
f 408/775/409 272/539/281 271/538/280
f 371/694/384 338/650/351 405/761/406
f 371/694/384 337/649/350 338/650/351
f 337/649/350 335/647/348 339/651/352
f 272/773/281 270/537/279 406/762/407
f 270/537/279 303/580/314 406/762/407
f 272/773/281 267/534/276 270/537/279
f 409/776/410 410/777/411 411/778/412
f 409/776/410 412/779/413 410/777/411
f 412/780/413 413/781/414 410/782/411
f 412/780/413 414/783/415 413/781/414
f 414/784/415 415/785/416 413/786/414
f 414/784/415 416/787/417 415/785/416
f 416/787/417 417/788/418 415/785/416
f 416/787/417 418/789/419 417/788/418
f 418/790/419 419/791/420 417/792/418
f 418/790/419 420/793/421 419/791/420
f 420/794/421 411/778/412 419/795/420
f 420/794/421 409/776/410 411/778/412
f 411/778/412 421/796/422 422/797/423
f 411/778/412 410/777/411 421/796/422
f 410/782/411 423/798/424 421/799/422
f 410/782/411 413/781/414 423/798/424
f 413/786/414 424/800/425 423/801/424
f 413/786/414 415/785/416 424/800/425
f 415/785/416 425/802/426 424/800/425
f 415/785/416 417/788/418 425/802/426
f 417/792/418 426/803/427 425/804/426
f 417/792/418 419/791/420 426/803/427
f 419/795/420 422/797/423 426/805/427
f 419/795/420 411/778/412 422/797/423
f 422/797/423 427/806/428 428/807/429
f 422/797/423 421/796/422 427/806/428
f 421/799/422 429/808/430 427/809/428
f 421/799/422 423/798/424 429/808/430
f 423/801/424 430/810/431 429/811/430
f 423/801/424 424/800/425 430/810/431
f 424/800/425 431/812/432 430/810/431
f 424/800/425 425/802/426 431/812/432
f 425/804/426 432/813/433 431/814/432
f 425/804/426 426/803/427 432/813/433
f 426/805/427 428/807/429 432/815/433
f 426/805/427 422/797/423 428/807/429
f 433/816/226 434/817/434 435/818/435
f 433/816/226 436/819/436 434/817/434
f 436/819/436 437/820/437 434/817/434
f 436/819/436 438/821/438 437/820/437
f 438/821/438 439/822/439 437/820/437
f 438/821/438 440/823/259 439/822/439
f 440/824/259 441/825/440 439/826/439
f 440/824/259 442/827/441 441/825/440
f 442/827/441 443/828/442 441/825/440
f 442/827/441 444/829/443 443/828/442
f 444/829/443 435/830/435 443/828/442
f 444/829/443 433/831/226 435/830/435
f 435/832/435 445/833/444 446/834/445
f 435/832/435 434/835/434 445/833/444
f 434/835/434 447/836/446 445/833/444
f 434/835/434 437/837/437 447/836/446
f 437/837/437 448/838/447 447/836/446
f 437/837/437 439/839/439 448/838/447
f 439/839/439 449/840/448 448/838/447
f 439/839/439 441/841/440 449/840/448
f 441/841/440 450/842/449 449/840/448
f 441/841/440 443/843/442 450/842/449
f 443/843/442 446/834/445 450/842/449
f 443/843/442 435/832/435 446/834/445
f 446/844/445 451/845/450 452/846/451
f 446/844/445 445/847/444 451/845/450
f 445/847/444 453/848/452 451/845/450
f 445/847/444 447/849/446 453/848/452
f 447/849/446 454/850/453 453/848/452
f 447/849/446 448/851/447 454/850/453
f 448/852/447 455/853/454 454/854/453
f 448/852/447 449/855/448 455/853/454
f 449/855/448 456/856/455 455/853/454
f 449/855/448 450/857/449 456/856/455
f 450/857/449 452/858/451 456/856/455
f 450/857/449 446/859/445 452/858/451
f 452/860/451 457/861/456 458/862/457
f 452/860/451 451/863/450 457/861/456
f 451/863/450 459/864/458 457/861/456
f 451/863/450 453/865/452 459/864/458
f 453/865/452 460/866/459 459/864/458
f 453/865/452 454/867/453 460/866/459
f 454/867/453 461/868/460 460/866/459
f 454/867/453 455/869/454 461/868/460
f 455/869/454 462/870/461 461/868/460
f 455/869/454 456/871/455 462/870/461
f 456/871/455 458/862/457 462/870/461
f 456/871/455 452/860/451 458/862/457
f 458/872/457 463/873/436 464/874/226
f 458/872/457 457/875/456 463/873/436
f 457/875/456 465/876/438 463/873/436
f 457/875/456 459/877/458 465/876/438
f 459/877/458 466/878/259 465/876/438
f 459/877/458 460/879/459 466/878/259
f 460/880/459 467/881/441 466/882/259
f 460/880/459 461/883/460 467/881/441
f 461/883/460 468/884/443 467/881/441
f 461/883/460 462/885/461 468/884/443
f 462/885/461 464/886/226 468/884/443
f 462/885/461 458/887/457 464/886/226
f 469/888/226 470/889/434 471/890/435
f 469/888/226 472/891/436 470/889/434
f 472/891/436 473/892/437 470/889/434
f 472/891/436 474/893/438 473/892/437
f 474/893/438 475/894/439 473/892/437
f 474/893/438 476/895/259 475/894/439
f 476/896/259 477/897/440 475/898/439
f 476/896/259 478/899/441 477/897/440
f 478/899/441 479/900/442 477/897/440
f 478/899/441 480/901/443 479/900/442
f 480/901/443 471/902/435 479/900/442
f 480/901/443 469/903/226 471/902/435
f 471/904/435 481/905/444 482/906/445
f 471/904/435 470/907/434 481/905/444
f 470/907/434 483/908/446 481/905/444
f 470/907/434 473/909/437 483/908/446
f 473/909/437 484/910/447 483/908/446
f 473/909/437 475/911/439 484/910/447
f 475/911/439 485/912/448 484/910/447
f 475/911/439 477/913/440 485/912/448
f 477/913/440 486/914/449 485/912/448
f 477/913/440 479/915/442 486/914/449
f 479/915/442 482/906/445 486/914/449
f 479/915/442 471/904/435 482/906/445
f 482/916/445 487/917/450 488/918/451
f 482/916/445 481/919/444 487/917/450
f 481/919/444 489/920/452 487/917/450
f 481/919/444 483/921/446 489/920/452
f 483/921/446 490/922/453 489/920/452
f 483/921/446 484/923/447 490/922/453
f 484/924/447 491/925/454 490/926/453
f 484/924/447 485/927/448 491/925/454
f 485/927/448 492/928/455 491/925/454
f 485/927/448 486/929/449 492/928/455
f 486/929/449 488/930/451 492/928/455
f 486/929/449 482/931/445 488/930/451
f 488/932/451 493/933/456 494/934/457
f 488/932/451 487/935/450 493/933/456
f 487/935/450 495/936/458 493/933/456
f 487/935/450 489/937/452 495/936/458
f 489/937/452 496/938/459 495/936/458
f 489/937/452 490/939/453 496/938/459
f 490/939/453 497/940/460 496/938/459
f 490/939/453 491/941/454 497/940/460
f 491/941/454 498/942/461 497/940/460
f 491/941/454 492/943/455 498/942/461
f 492/943/455 494/934/457 498/942/461
f 492/943/455 488/932/451 494/934/457
f 494/944/457 499/945/436 500/946/226
f 494/944/457 493/947/456 499/945/436
f 493/947/456 501/948/438 499/945/436
f 493/947/456 495/949/458 501/948/438
f 495/949/458 502/950/259 501/948/438
f 495/949/458 496/951/459 502/950/259
f 496/952/459 503/953/441 502/954/259
f 496/952/459 497/955/460 503/953/441
f 497/955/460 504/956/443 503/953/441
f 497/955/460 498/957/461 504/956/443
f 498/957/461 500/958/226 504/956/443
f 498/957/461 494/959/457 500/958/226
f 357/960/368 358/674/369 351/664/362
f 357/960/368 351/664/362 355/668/366
