# Blender v3.0.1 OBJ File: ''
# www.blender.org
mtllib plimouth_wheel.mtl
o Cylinder.002
v -0.218839 -0.963230 0.219363
v -0.218839 -0.830113 0.535577
v -0.276338 -0.774050 0.499403
v -0.276338 -0.898177 0.204546
v -0.218839 -0.596875 0.787188
v -0.218839 -0.291638 0.943854
v -0.276338 -0.271943 0.880103
v -0.276338 -0.556560 0.734021
v -0.218839 0.048769 0.986675
v -0.276338 0.045474 0.920033
v -0.218839 0.383292 0.910487
v -0.276338 0.357404 0.848992
v -0.218839 0.671583 0.724481
v -0.276338 0.626225 0.675551
v -0.218839 0.878873 0.451092
v -0.276338 0.819512 0.420624
v -0.218839 0.980154 0.123293
v -0.276338 0.913955 0.114966
v -0.218839 0.963215 -0.219379
v -0.276338 0.898158 -0.204561
v -0.218839 0.830095 -0.535589
v -0.276338 0.774029 -0.499415
v -0.218839 0.596853 -0.787203
v -0.276338 0.556542 -0.734036
v -0.218839 0.291623 -0.943869
v -0.276338 0.271922 -0.880119
v -0.218839 -0.048784 -0.986690
v -0.276338 -0.045489 -0.920048
v -0.218839 -0.383307 -0.910502
v -0.276338 -0.357422 -0.849007
v -0.218839 -0.671604 -0.724499
v -0.276338 -0.626243 -0.675566
v 0.218694 -0.980170 -0.123314
v 0.218694 -0.878891 -0.451113
v 0.276193 -0.819518 -0.420663
v 0.276193 -0.913970 -0.115005
v -0.218839 -0.980173 -0.123308
v -0.276338 -0.913970 -0.114981
v -0.235387 -0.619822 0.141154
v -0.235387 -0.630723 -0.079350
v -0.297934 -0.804940 -0.101264
v -0.297934 -0.791032 0.180146
v -0.175445 -0.685197 -0.739162
v 0.175302 -0.685197 -0.739162
v 0.175302 -0.896676 -0.460238
v -0.175445 -0.896676 -0.460238
v -0.235387 -0.534164 0.344630
v -0.297934 -0.681708 0.439824
v -0.235387 -0.384077 0.506536
v -0.297934 -0.490170 0.646456
v -0.235387 -0.187667 0.607348
v -0.297934 -0.239504 0.775111
v -0.235387 0.031378 0.634903
v -0.297934 0.040048 0.810278
v -0.235387 0.246637 0.585877
v -0.297934 0.314767 0.747714
v -0.235387 0.432146 0.466185
v -0.297934 0.551519 0.594959
v -0.235387 0.565533 0.290265
v -0.297934 0.721747 0.370445
v -0.235387 0.630705 0.079335
v -0.297934 0.804922 0.101248
v -0.235387 0.619804 -0.141169
v -0.297934 0.791011 -0.180159
v -0.235387 0.534146 -0.344645
v -0.297934 0.681693 -0.439840
v -0.235387 0.384059 -0.506551
v -0.297934 0.490148 -0.646471
v -0.235387 0.187649 -0.607363
v -0.297934 0.239483 -0.775126
v -0.235387 -0.031396 -0.634916
v -0.297934 -0.040069 -0.810294
v -0.235387 -0.246655 -0.585892
v -0.297934 -0.314783 -0.747729
v -0.235387 -0.432164 -0.466201
v -0.297934 -0.551537 -0.594977
v -0.235387 -0.565551 -0.290280
v -0.297934 -0.721765 -0.370460
v -0.156462 0.085406 -0.112659
v -0.156462 0.041721 -0.135079
v -0.296806 0.034661 -0.112219
v -0.296806 0.070950 -0.093594
v 0.302751 -0.000009 -0.000006
v 0.296667 -0.098699 0.063662
v 0.296667 -0.114526 0.026070
v 0.156320 -0.054859 -0.130304
v 0.156320 -0.006984 -0.141208
v 0.296667 -0.005808 -0.117309
v 0.296667 -0.045574 -0.108254
v 0.156320 0.125763 0.064550
v 0.156320 0.096095 0.103674
v 0.296667 0.079832 0.086125
v 0.296667 0.104474 0.053625
v 0.156320 -0.096116 -0.103689
v 0.296667 -0.079850 -0.086140
v 0.156320 0.140256 0.017640
v 0.296667 0.116518 0.014654
v 0.156320 -0.125778 -0.064566
v 0.296667 -0.104492 -0.053640
v 0.156320 0.137834 -0.031396
v 0.296667 0.114505 -0.026085
v 0.156320 -0.085425 0.112643
v 0.156320 -0.118803 0.076634
v 0.296667 -0.070971 0.093576
v 0.156320 -0.140275 -0.017655
v 0.296667 -0.116539 -0.014669
v 0.156320 0.118785 -0.076649
v 0.296667 0.098678 -0.063677
v 0.156320 -0.041745 0.135064
v 0.296667 -0.034682 0.112201
v 0.156320 -0.137852 0.031381
v 0.156320 0.085409 -0.112656
v 0.296667 0.070950 -0.093591
v 0.156320 0.006966 0.141193
v 0.296667 0.005787 0.117294
v 0.156320 0.041730 -0.135079
v 0.296667 0.034661 -0.112216
v 0.156320 0.054838 0.130289
v 0.296667 0.045556 0.108239
v -0.218839 -0.878891 -0.451107
v -0.276338 -0.819530 -0.420639
v -0.175445 -0.846916 0.546414
v 0.175302 -0.846916 0.546414
v 0.175302 -0.608952 0.803121
v -0.175445 -0.608952 0.803121
v 0.175302 -0.297540 0.962957
v -0.175445 -0.297540 0.962957
v 0.175302 0.049751 1.006646
v -0.175445 0.049751 1.006646
v 0.175302 0.391049 0.928915
v -0.175445 0.391049 0.928915
v 0.175302 0.685158 0.739162
v -0.175445 0.685176 0.739147
v 0.175302 0.896649 0.460244
v -0.175445 0.896658 0.460223
v 0.175302 0.999992 0.125788
v -0.175445 0.999992 0.125788
v 0.175302 0.982713 -0.223795
v -0.175445 0.982710 -0.223817
v 0.175302 0.846895 -0.546429
v -0.175445 0.846895 -0.546429
v 0.175302 0.608955 -0.803121
v -0.175445 0.608937 -0.803133
v 0.175302 0.297525 -0.962973
v -0.175445 0.297525 -0.962973
v 0.175302 -0.049748 -1.006661
v -0.175445 -0.049769 -1.006661
v 0.175302 -0.391070 -0.928930
v -0.175445 -0.391070 -0.928930
v -0.175445 -0.982725 0.223804
v 0.175302 -0.982725 0.223804
v -0.156462 -0.140275 -0.017652
v -0.156462 -0.125781 -0.064563
v -0.156462 -0.137852 0.031387
v -0.156462 -0.118800 0.076637
v -0.156462 -0.085422 0.112643
v -0.156462 -0.041742 0.135064
v -0.156462 0.006969 0.141193
v -0.156462 0.054841 0.130289
v -0.156462 0.096095 0.103671
v -0.156462 0.125763 0.064547
v -0.156462 0.140256 0.017637
v -0.156462 0.137834 -0.031399
v -0.156462 0.118779 -0.076652
v -0.156462 -0.006990 -0.141208
v -0.156462 -0.054862 -0.130304
v -0.156462 -0.096116 -0.103686
v -0.296806 0.045559 0.108236
v -0.296806 0.005787 0.117294
v -0.296806 -0.005808 -0.117309
v -0.296806 0.079832 0.086122
v -0.296806 -0.116539 -0.014666
v -0.296806 -0.104498 -0.053637
v -0.296806 -0.045580 -0.108251
v -0.296806 0.104477 0.053622
v -0.296806 -0.114520 0.026073
v -0.296806 -0.079850 -0.086137
v -0.296806 0.116518 0.014651
v -0.296806 -0.098699 0.063665
v -0.296806 0.114505 -0.026088
v -0.296806 -0.070971 0.093579
v -0.296806 0.098678 -0.063680
v -0.296806 -0.034682 0.112204
v -0.302893 -0.000009 -0.000006
v 0.235248 -0.384092 0.506527
v 0.235248 -0.534173 0.344614
v 0.235248 -0.187682 0.607342
v 0.235248 0.031363 0.634903
v 0.235248 0.246622 0.585883
v 0.235248 0.432134 0.466197
v 0.235248 0.565524 0.290280
v 0.235248 0.630702 0.079350
v 0.235248 0.619807 -0.141151
v 0.235248 0.534155 -0.344630
v 0.235248 0.384074 -0.506539
v 0.235248 0.187664 -0.607357
v 0.235248 -0.031378 -0.634919
v 0.235248 -0.246640 -0.585898
v 0.235248 -0.432152 -0.466213
v 0.235248 -0.565542 -0.290295
v 0.235248 -0.630720 -0.079365
v 0.235248 -0.619828 0.141135
v 0.218694 -0.671595 -0.724502
v 0.276193 -0.626225 -0.675582
v 0.218694 0.048763 0.986675
v 0.218694 -0.291647 0.943854
v 0.276193 -0.271964 0.880097
v 0.276193 0.045450 0.920036
v 0.218694 0.383286 0.910490
v 0.276193 0.357380 0.849001
v 0.218700 0.671565 0.724499
v 0.276193 0.626206 0.675566
v 0.218694 0.980154 0.123299
v 0.218694 0.878861 0.451116
v 0.276193 0.819500 0.420648
v 0.276193 0.913949 0.114990
v 0.218694 0.963218 -0.219351
v 0.276193 0.898161 -0.204537
v 0.218694 0.830098 -0.535586
v 0.276193 0.774044 -0.499397
v 0.218694 0.596875 -0.787188
v 0.276193 0.556560 -0.734021
v 0.218694 0.291626 -0.943866
v 0.276193 0.271949 -0.880113
v 0.218694 -0.048763 -0.986690
v 0.276193 -0.045465 -0.920051
v 0.218694 -0.383304 -0.910505
v 0.276193 -0.357398 -0.849017
v 0.218694 -0.963233 0.219357
v 0.276193 -0.898180 0.204522
v 0.297795 -0.681720 0.439806
v 0.297795 -0.791035 0.180125
v 0.218694 -0.596875 0.787185
v 0.276193 -0.556578 0.734006
v -0.175445 -1.000010 -0.125803
v 0.175302 -1.000010 -0.125803
v 0.297795 -0.490185 0.646444
v 0.297795 -0.239522 0.775105
v 0.297795 0.040026 0.810278
v 0.297795 0.314743 0.747720
v 0.297795 0.551501 0.594974
v 0.297795 0.721738 0.370463
v 0.297795 0.804919 0.101270
v 0.297795 0.791017 -0.180137
v 0.297789 0.681702 -0.439821
v 0.297789 0.490167 -0.646456
v 0.297789 0.239504 -0.775120
v 0.297789 -0.040045 -0.810294
v 0.297789 -0.314764 -0.747735
v 0.297789 -0.551522 -0.594989
v 0.297789 -0.721759 -0.370481
v 0.297789 -0.804937 -0.101285
v 0.218694 -0.830116 0.535571
v 0.276193 -0.774062 0.499382
vt 0.145483 0.442857
vt 0.214335 0.538139
vt 0.175463 0.437187
vt 0.369978 0.700870
vt 0.285391 0.619708
vt 0.266064 0.643331
vt 0.474763 0.688876
vt 0.380063 0.672062
vt 0.456558 0.717825
vt 0.353823 0.660671
vt 0.458656 0.687375
vt 0.341435 0.688561
vt 0.264442 0.599721
vt 0.243262 0.621694
vt 0.201303 0.511878
vt 0.173891 0.525282
vt 0.172016 0.407740
vt 0.141671 0.410960
vt 0.180115 0.299859
vt 0.150493 0.292512
vt 0.224623 0.201265
vt 0.199302 0.184220
vt 0.300164 0.123831
vt 0.389193 0.047574
vt 0.282198 0.099156
vt 0.507375 0.035699
vt 0.397635 0.076908
vt 0.358441 0.058213
vt 0.486285 0.066002
vt 0.486664 0.035489
vt 0.256659 0.119437
vt 0.369234 0.086762
vt 0.188095 0.553726
vt 0.175463 0.437187
vt 0.145483 0.442857
vt 0.143348 0.324100
vt 0.173470 0.329033
vt 0.188095 0.553726
vt 0.270394 0.414475
vt 0.210945 0.334978
vt 0.212720 0.429957
vt 0.500334 0.949772
vt 0.318431 0.794542
vt 0.499700 0.796328
vt 0.246869 0.518601
vt 0.297053 0.483552
vt 0.309287 0.590226
vt 0.345729 0.539342
vt 0.392428 0.636179
vt 0.410547 0.575121
vt 0.475415 0.650924
vt 0.474840 0.586573
vt 0.392547 0.566986
vt 0.461443 0.649527
vt 0.369388 0.626060
vt 0.290907 0.572519
vt 0.331407 0.525227
vt 0.288237 0.465072
vt 0.235480 0.495372
vt 0.268247 0.393784
vt 0.209774 0.403915
vt 0.273845 0.319960
vt 0.216903 0.309180
vt 0.255999 0.222600
vt 0.304359 0.252498
vt 0.322355 0.154617
vt 0.356103 0.199543
vt 0.422833 0.167477
vt 0.407958 0.113423
vt 0.496509 0.160164
vt 0.502490 0.103997
vt 0.402836 0.174542
vt 0.485633 0.103948
vt 0.382827 0.122194
vt 0.301455 0.171222
vt 0.339436 0.212787
vt 0.241768 0.245120
vt 0.292950 0.270405
vt 0.515336 0.330389
vt 0.521445 0.348268
vt 0.510135 0.337926
vt 0.485985 0.375147
vt 0.518997 0.404909
vt 0.506859 0.414246
vt 0.449972 0.408288
vt 0.444415 0.388429
vt 0.451500 0.402010
vt 0.515336 0.330389
vt 0.495986 0.332064
vt 0.498485 0.324254
vt 0.462790 0.412351
vt 0.463707 0.419808
vt 0.480671 0.331414
vt 0.480550 0.324254
vt 0.480550 0.425943
vt 0.476961 0.418213
vt 0.463707 0.330389
vt 0.466066 0.336032
vt 0.529069 0.408288
vt 0.527228 0.391982
vt 0.538033 0.392757
vt 0.492254 0.418864
vt 0.498485 0.425943
vt 0.449972 0.341916
vt 0.453928 0.345366
vt 0.530523 0.377022
vt 0.541143 0.375102
vt 0.515336 0.419808
vt 0.441001 0.357440
vt 0.445697 0.358296
vt 0.528510 0.361846
vt 0.538033 0.357440
vt 0.437891 0.375102
vt 0.442402 0.373253
vt 0.529069 0.341916
vt 0.521445 0.348268
vt 0.441001 0.392757
vt 0.181961 0.211779
vt 0.276569 0.142575
vt 0.208580 0.226712
vt 0.268970 0.340452
vt 0.500334 0.949772
vt 0.318431 0.794542
vt 0.499700 0.796328
vt 0.499980 0.949769
vt 0.318077 0.794539
vt 0.499639 0.795965
vt 0.499980 0.949769
vt 0.318077 0.794539
vt 0.499639 0.795965
vt 0.499980 0.949769
vt 0.318077 0.794539
vt 0.499639 0.795965
vt 0.499639 0.795965
vt 0.318711 0.947973
vt 0.318077 0.794539
vt 0.499639 0.795965
vt 0.318711 0.947973
vt 0.318077 0.794539
vt 0.499639 0.795965
vt 0.318711 0.947973
vt 0.318077 0.794539
vt 0.499639 0.795965
vt 0.318711 0.947973
vt 0.318077 0.794539
vt 0.499627 0.795966
vt 0.318711 0.947973
vt 0.318077 0.794539
vt 0.499639 0.795965
vt 0.318711 0.947973
vt 0.318077 0.794539
vt 0.499627 0.795966
vt 0.318711 0.947973
vt 0.318077 0.794539
vt 0.499639 0.795965
vt 0.318711 0.947973
vt 0.318077 0.794539
vt 0.499639 0.795965
vt 0.318711 0.947973
vt 0.318077 0.794539
vt 0.500334 0.949772
vt 0.318431 0.794542
vt 0.499700 0.796328
vt 0.500334 0.949772
vt 0.318431 0.794542
vt 0.499700 0.796328
vt 0.439712 0.352730
vt 0.434085 0.369255
vt 0.434441 0.386705
vt 0.440751 0.402972
vt 0.452240 0.416099
vt 0.467536 0.424502
vt 0.481990 0.427172
vt 0.480717 0.426299
vt 0.463820 0.421938
vt 0.449427 0.412065
vt 0.439271 0.397868
vt 0.434592 0.381048
vt 0.435935 0.363651
vt 0.443154 0.347755
vt 0.455364 0.335295
vt 0.471108 0.327773
vt 0.488475 0.326081
vt 0.484083 0.326680
vt 0.465572 0.330071
vt 0.450640 0.339117
vt 0.437891 0.375102
vt 0.444415 0.388429
vt 0.441001 0.392757
vt 0.529069 0.341916
vt 0.528510 0.361846
vt 0.441001 0.357440
vt 0.442402 0.373253
vt 0.515336 0.419808
vt 0.518997 0.404909
vt 0.529069 0.408288
vt 0.541143 0.375102
vt 0.538033 0.357440
vt 0.449972 0.341916
vt 0.445697 0.358296
vt 0.498485 0.425943
vt 0.506859 0.414246
vt 0.538033 0.392757
vt 0.530523 0.377022
vt 0.463707 0.330389
vt 0.453928 0.345366
vt 0.476961 0.418213
vt 0.492254 0.418864
vt 0.527228 0.391982
vt 0.480550 0.324254
vt 0.466066 0.336032
vt 0.480550 0.425943
vt 0.462790 0.412351
vt 0.498485 0.324254
vt 0.480671 0.331414
vt 0.463707 0.419808
vt 0.451500 0.402010
vt 0.495986 0.332064
vt 0.449972 0.408288
vt 0.485985 0.375147
vt 0.450640 0.339117
vt 0.292950 0.270405
vt 0.439712 0.352730
vt 0.402836 0.174542
vt 0.339436 0.212787
vt 0.484083 0.326680
vt 0.465572 0.330071
vt 0.488475 0.326081
vt 0.422833 0.167477
vt 0.496509 0.160164
vt 0.455364 0.335295
vt 0.471108 0.327773
vt 0.443154 0.347755
vt 0.356103 0.199543
vt 0.273845 0.319960
vt 0.304359 0.252498
vt 0.434592 0.381048
vt 0.435935 0.363651
vt 0.439271 0.397868
vt 0.268247 0.393784
vt 0.331407 0.525227
vt 0.288237 0.465072
vt 0.463820 0.421938
vt 0.449427 0.412065
vt 0.480717 0.426299
vt 0.392547 0.566986
vt 0.481990 0.427172
vt 0.410547 0.575121
vt 0.474840 0.586573
vt 0.452240 0.416099
vt 0.467536 0.424502
vt 0.297053 0.483552
vt 0.345729 0.539342
vt 0.434441 0.386705
vt 0.440751 0.402972
vt 0.434085 0.369255
vt 0.270394 0.414475
vt 0.268970 0.340452
vt 0.266064 0.643331
vt 0.214335 0.538139
vt 0.358441 0.058213
vt 0.486285 0.066002
vt 0.486664 0.035489
vt 0.507375 0.035699
vt 0.397635 0.076908
vt 0.389193 0.047574
vt 0.300164 0.123831
vt 0.282198 0.099156
vt 0.199302 0.184220
vt 0.180115 0.299859
vt 0.150493 0.292512
vt 0.172016 0.407740
vt 0.141671 0.410960
vt 0.201303 0.511878
vt 0.173891 0.525282
vt 0.264442 0.599721
vt 0.243262 0.621694
vt 0.353823 0.660671
vt 0.341435 0.688561
vt 0.458656 0.687375
vt 0.456558 0.717825
vt 0.369978 0.700870
vt 0.285391 0.619708
vt 0.224623 0.201265
vt 0.474383 0.719390
vt 0.380063 0.672062
vt 0.173470 0.329033
vt 0.143348 0.324100
vt 0.210945 0.334978
vt 0.256659 0.119437
vt 0.369234 0.086762
vt 0.505276 0.066150
vt 0.500334 0.949772
vt 0.318431 0.794542
vt 0.499700 0.796328
vt 0.510135 0.337926
vt 0.241768 0.245120
vt 0.382827 0.122194
vt 0.301455 0.171222
vt 0.485633 0.103948
vt 0.407958 0.113423
vt 0.502490 0.103997
vt 0.322355 0.154617
vt 0.255999 0.222600
vt 0.209774 0.403915
vt 0.216903 0.309180
vt 0.235480 0.495372
vt 0.290907 0.572519
vt 0.369388 0.626060
vt 0.464281 0.585317
vt 0.392428 0.636179
vt 0.475415 0.650924
vt 0.309287 0.590226
vt 0.212720 0.429957
vt 0.246869 0.518601
vt 0.181961 0.211779
vt 0.276569 0.142575
vt 0.208580 0.226712
vt 0.474763 0.688876
vt 0.505276 0.066150
vt 0.318431 0.794542
vt 0.499638 0.785110
vt 0.499700 0.796328
vt 0.319335 0.783146
vt 0.499638 0.785110
vt 0.499638 0.785110
vt 0.499638 0.785110
vt 0.318949 0.783174
vt 0.499586 0.784717
vt 0.499586 0.784717
vt 0.499586 0.784717
vt 0.499586 0.784717
vt 0.499586 0.784717
vt 0.499586 0.784717
vt 0.499586 0.784717
vt 0.499586 0.784717
vt 0.499586 0.784717
vt 0.499586 0.784717
vt 0.499586 0.784717
vt 0.318949 0.783174
vt 0.499586 0.784717
vt 0.319335 0.783146
vt 0.499638 0.785110
vt 0.499638 0.785110
vt 0.500334 0.949772
vt 0.318865 0.959958
vt 0.318771 0.948336
vt 0.318865 0.959958
vt 0.318771 0.948336
vt 0.318865 0.959958
vt 0.318771 0.948336
vt 0.318865 0.959958
vt 0.318771 0.948336
vt 0.318812 0.959565
vt 0.318711 0.947973
vt 0.318812 0.959565
vt 0.318711 0.947973
vt 0.318812 0.959565
vt 0.318711 0.947973
vt 0.318865 0.959958
vt 0.318771 0.948336
vt 0.318865 0.959958
vt 0.318771 0.948336
vt 0.499980 0.949769
vt 0.318812 0.959565
vt 0.499980 0.949769
vt 0.318812 0.959565
vt 0.499980 0.949769
vt 0.318812 0.959565
vt 0.499980 0.949769
vt 0.318812 0.959565
vt 0.499980 0.949769
vt 0.318812 0.959565
vt 0.499980 0.949769
vt 0.318812 0.959565
vt 0.499980 0.949769
vt 0.318812 0.959565
vt 0.499980 0.949769
vt 0.318812 0.959565
vt 0.499980 0.949769
vt 0.318812 0.959565
vt 0.474383 0.719390
vt 0.464281 0.585317
vt 0.483046 0.160285
vt 0.483046 0.160285
vt 0.461443 0.649527
vt 0.319335 0.783146
vt 0.319335 0.783146
vt 0.319335 0.783146
vt 0.318949 0.783174
vt 0.318949 0.783174
vt 0.318949 0.783174
vt 0.318949 0.783174
vt 0.318960 0.783174
vt 0.318949 0.783174
vt 0.318949 0.783174
vt 0.318949 0.783174
vt 0.318949 0.783174
vt 0.318960 0.783174
vt 0.319335 0.783146
vt 0.500364 0.961438
vt 0.500364 0.961438
vt 0.500364 0.961438
vt 0.500364 0.961438
vt 0.499989 0.961466
vt 0.499989 0.961466
vt 0.499989 0.961466
vt 0.500364 0.961438
vt 0.500364 0.961438
vt 0.499989 0.961466
vt 0.499989 0.961466
vt 0.499989 0.961466
vt 0.499989 0.961466
vt 0.499989 0.961466
vt 0.499989 0.961466
vt 0.499989 0.961466
vt 0.499989 0.961466
vt 0.499989 0.961466
vn -0.5907 -0.7868 0.1792
vn -0.8880 -0.3863 0.2493
vn -0.8880 -0.4483 0.1021
vn -0.5907 -0.2382 0.7710
vn -0.8880 -0.2778 0.3664
vn -0.5907 -0.4875 0.6430
vn -0.8880 0.0227 0.4592
vn -0.8880 -0.1357 0.4393
vn -0.5907 0.0398 0.8059
vn -0.8880 0.1784 0.4237
vn -0.5907 0.3131 0.7437
vn -0.8880 0.3126 0.3372
vn -0.5907 0.5486 0.5918
vn -0.8880 0.4090 0.2099
vn -0.5906 0.7179 0.3685
vn -0.8880 0.4562 0.0574
vn -0.5907 0.8006 0.1007
vn -0.8880 0.4483 -0.1021
vn -0.5907 0.7868 -0.1792
vn -0.8880 0.3863 -0.2493
vn -0.5907 0.6780 -0.4375
vn -0.8880 0.2778 -0.3664
vn -0.5907 0.2382 -0.7710
vn -0.5907 0.4875 -0.6430
vn -0.5907 -0.0398 -0.8059
vn -0.8880 0.1357 -0.4393
vn -0.5907 -0.3131 -0.7437
vn -0.8880 -0.0227 -0.4592
vn -0.5907 -0.5486 -0.5918
vn -0.8880 -0.1784 -0.4237
vn 0.5906 -0.7179 -0.3685
vn 0.8880 -0.4562 -0.0574
vn 0.5907 -0.8006 -0.1007
vn -0.5907 -0.8006 -0.1007
vn -0.8880 -0.4562 -0.0574
vn -0.5907 -0.6780 0.4375
vn -0.9420 0.3272 -0.0745
vn -0.9990 0.0443 0.0056
vn -0.9990 0.0435 -0.0099
vn 0.2095 -0.6648 -0.7171
vn -0.2094 -0.8699 -0.4465
vn -0.2094 -0.6648 -0.7171
vn -0.9990 0.0375 -0.0242
vn -0.9420 0.2820 -0.1819
vn -0.9990 0.0270 -0.0356
vn -0.9420 0.2027 -0.2674
vn -0.9990 0.0132 -0.0426
vn -0.9420 0.0991 -0.3206
vn -0.9990 -0.0022 -0.0446
vn -0.9420 -0.0166 -0.3351
vn -0.9420 -0.1302 -0.3093
vn -0.9990 -0.0173 -0.0411
vn -0.9990 -0.0303 -0.0327
vn -0.9420 -0.2281 -0.2461
vn -0.9420 -0.2985 -0.1532
vn -0.9990 -0.0397 -0.0204
vn -0.9420 -0.3329 -0.0419
vn -0.9990 -0.0443 -0.0056
vn -0.9420 -0.3272 0.0745
vn -0.9990 -0.0435 0.0099
vn -0.9990 -0.0375 0.0242
vn -0.9420 -0.2820 0.1819
vn -0.9990 -0.0270 0.0356
vn -0.9420 -0.2027 0.2674
vn -0.9420 -0.0991 0.3206
vn -0.9990 -0.0132 0.0426
vn -0.9420 0.0166 0.3351
vn -0.9990 0.0022 0.0446
vn -0.9420 0.1302 0.3093
vn -0.9990 0.0173 0.0411
vn -0.9990 0.0303 0.0327
vn -0.9420 0.2281 0.2461
vn -0.9990 0.0397 0.0204
vn -0.9420 0.2985 0.1532
vn -0.1681 0.5956 -0.7855
vn -0.1681 0.2910 -0.9419
vn 1.0000 0.0000 0.0000
vn 0.9987 -0.0435 0.0280
vn 0.9987 -0.0504 0.0115
vn 0.1681 -0.3825 -0.9086
vn 0.1681 -0.0486 -0.9846
vn 0.1680 -0.3825 -0.9086
vn 0.1681 0.6701 0.7230
vn 0.1681 0.8770 0.4502
vn 0.1681 -0.6701 -0.7229
vn 0.1681 -0.6701 -0.7230
vn 0.1681 0.9781 0.1231
vn 0.1680 0.9781 0.1230
vn 0.1680 -0.8770 -0.4502
vn 0.1681 -0.8770 -0.4502
vn 0.1681 0.9612 -0.2189
vn 0.1680 -0.8283 0.5344
vn 0.1681 -0.5956 0.7855
vn 0.1680 -0.9781 -0.1231
vn 0.1681 0.8283 -0.5344
vn 0.1681 -0.2910 0.9418
vn 0.1680 -0.9612 0.2189
vn 0.1681 0.5956 -0.7855
vn 0.1681 0.0486 0.9846
vn 0.1681 0.0487 0.9846
vn 0.1681 -0.8283 0.5344
vn 0.1681 0.2910 -0.9418
vn 0.1680 0.3825 0.9086
vn 0.1680 0.3824 0.9086
vn 0.1681 -0.0487 -0.9846
vn -0.5906 -0.7179 -0.3685
vn -0.8880 -0.3126 -0.3372
vn -0.8880 -0.4090 -0.2099
vn -0.9420 0.3329 0.0419
vn 0.2094 -0.8216 0.5301
vn -0.2094 -0.5908 0.7792
vn -0.2094 -0.8217 0.5301
vn 0.2094 -0.5908 0.7792
vn -0.2094 -0.2887 0.9342
vn 0.2094 -0.2887 0.9343
vn -0.2094 0.0483 0.9766
vn 0.2094 0.0483 0.9766
vn -0.2094 0.3794 0.9012
vn 0.2094 0.6647 0.7171
vn -0.2094 0.6647 0.7171
vn 0.2094 0.8699 0.4465
vn -0.2094 0.8699 0.4465
vn 0.2094 0.9702 0.1220
vn -0.2094 0.9702 0.1220
vn 0.2094 0.9534 -0.2171
vn -0.2094 0.9534 -0.2171
vn 0.2094 0.8217 -0.5301
vn -0.2094 0.8217 -0.5301
vn 0.2094 0.5908 -0.7792
vn -0.2094 0.5908 -0.7792
vn 0.2094 0.2887 -0.9342
vn -0.2094 0.2887 -0.9342
vn 0.2094 -0.0483 -0.9766
vn -0.2094 -0.0483 -0.9766
vn 0.2094 -0.3794 -0.9012
vn -0.2094 -0.3794 -0.9012
vn 0.2094 -0.9534 0.2171
vn -0.2094 -0.9534 0.2171
vn -0.9875 0.1403 0.0720
vn -0.9875 0.1564 0.0197
vn -0.9875 0.1537 -0.0350
vn -0.9875 0.1325 -0.0855
vn -0.9875 0.0953 -0.1256
vn -0.9875 0.0465 -0.1506
vn -0.9875 -0.0078 -0.1575
vn -0.9875 -0.0612 -0.1453
vn -0.9875 -0.1072 -0.1156
vn -0.9875 -0.1403 -0.0720
vn -0.9875 -0.1564 -0.0197
vn -0.9875 -0.1537 0.0350
vn -0.9875 -0.1325 0.0855
vn -0.9875 -0.0953 0.1256
vn -0.9875 -0.0465 0.1506
vn -0.9875 0.0078 0.1575
vn -0.9875 0.0612 0.1453
vn -0.9875 0.1072 0.1156
vn -0.1681 0.3825 0.9085
vn -0.1681 0.0487 0.9846
vn -0.1681 0.2910 -0.9418
vn -0.1681 -0.0487 -0.9846
vn -0.1681 0.6701 0.7230
vn -0.1680 -0.9781 -0.1230
vn -0.1680 -0.8770 -0.4502
vn -0.1681 -0.8770 -0.4502
vn -0.1681 -0.3825 -0.9085
vn -0.1681 0.8770 0.4502
vn -0.1680 -0.9612 0.2189
vn -0.1681 -0.9781 -0.1230
vn -0.1681 -0.6702 -0.7229
vn -0.1681 0.9781 0.1230
vn -0.1681 -0.8284 0.5344
vn -0.1681 -0.9612 0.2189
vn -0.1681 -0.6701 -0.7230
vn -0.1681 0.9612 -0.2189
vn -0.1680 -0.8283 0.5345
vn -0.1680 -0.5956 0.7855
vn -0.1680 0.8283 -0.5344
vn -0.1680 0.9612 -0.2189
vn -0.1680 -0.2910 0.9419
vn -0.1681 -0.2910 0.9418
vn -1.0000 0.0000 0.0000
vn -0.9987 -0.0460 -0.0236
vn -0.9987 -0.0514 -0.0065
vn -0.9987 -0.0505 0.0115
vn -0.9987 -0.0435 0.0281
vn -0.9987 -0.0313 0.0412
vn -0.9987 -0.0153 0.0495
vn -0.9987 0.0026 0.0517
vn -0.9987 0.0201 0.0477
vn -0.9987 0.0352 0.0380
vn -0.9987 0.0460 0.0236
vn -0.9987 0.0514 0.0065
vn -0.9987 0.0505 -0.0115
vn -0.9987 0.0435 -0.0281
vn -0.9987 0.0313 -0.0412
vn -0.9987 0.0153 -0.0495
vn -0.9987 -0.0026 -0.0517
vn -0.9987 -0.0201 -0.0477
vn -0.9987 -0.0352 -0.0380
vn 0.9875 0.0953 -0.1256
vn 0.9875 0.1325 -0.0855
vn 0.9875 0.0466 -0.1506
vn 0.9875 -0.0078 -0.1575
vn 0.9875 -0.0612 -0.1453
vn 0.9875 -0.1072 -0.1156
vn 0.9875 -0.1403 -0.0720
vn 0.9875 -0.1564 -0.0197
vn 0.9875 -0.1537 0.0350
vn 0.9875 -0.1325 0.0855
vn 0.9875 -0.0953 0.1256
vn 0.9875 -0.0466 0.1506
vn 0.9875 0.0078 0.1575
vn 0.9875 0.0612 0.1453
vn 0.9875 0.1072 0.1156
vn 0.9875 0.1403 0.0720
vn 0.9875 0.1564 0.0197
vn 0.9875 0.1537 -0.0350
vn 0.5907 -0.5485 -0.5918
vn 0.8880 -0.4090 -0.2100
vn 0.5907 -0.2382 0.7710
vn 0.8880 0.0227 0.4592
vn 0.5907 0.0398 0.8059
vn 0.8880 0.1784 0.4238
vn 0.5907 0.3131 0.7437
vn 0.8880 0.3125 0.3372
vn 0.5907 0.5485 0.5918
vn 0.5907 0.7179 0.3685
vn 0.8880 0.4562 0.0574
vn 0.5907 0.8006 0.1007
vn 0.8880 0.4483 -0.1021
vn 0.5907 0.7868 -0.1792
vn 0.8880 0.3863 -0.2492
vn 0.5907 0.6781 -0.4375
vn 0.8880 0.2778 -0.3663
vn 0.5907 0.4875 -0.6430
vn 0.8880 0.1357 -0.4393
vn 0.5907 0.2382 -0.7709
vn 0.8880 -0.0227 -0.4592
vn 0.5907 -0.0398 -0.8059
vn 0.5907 -0.3131 -0.7437
vn 0.8880 -0.3125 -0.3372
vn 0.8880 0.4090 0.2100
vn 0.8880 -0.1784 -0.4238
vn 0.8880 -0.4483 0.1021
vn 0.5907 -0.7868 0.1792
vn 0.9420 0.2820 -0.1819
vn 0.9990 0.0435 -0.0099
vn 0.9420 0.3272 -0.0745
vn 0.5907 -0.4875 0.6430
vn 0.8880 -0.1357 0.4393
vn 0.2094 -0.9702 -0.1220
vn -0.2094 -0.9702 -0.1220
vn 0.1681 0.6702 0.7229
vn 0.9420 0.2027 -0.2674
vn 0.9990 0.0375 -0.0242
vn 0.9990 0.0132 -0.0426
vn 0.9990 0.0269 -0.0355
vn 0.9420 0.0991 -0.3206
vn 0.9990 -0.0022 -0.0445
vn 0.9420 -0.0166 -0.3351
vn 0.9990 -0.0173 -0.0411
vn 0.9420 -0.1302 -0.3093
vn 0.9990 -0.0303 -0.0327
vn 0.9420 -0.2985 -0.1532
vn 0.9420 -0.2281 -0.2461
vn 0.9420 -0.3329 -0.0419
vn 0.9990 -0.0397 -0.0204
vn 0.9990 -0.0435 0.0099
vn 0.9990 -0.0443 -0.0056
vn 0.9420 -0.3272 0.0745
vn 0.9990 -0.0375 0.0242
vn 0.9420 -0.2819 0.1819
vn 0.9990 -0.0270 0.0355
vn 0.9420 -0.2027 0.2674
vn 0.9990 -0.0132 0.0426
vn 0.9420 0.0166 0.3351
vn 0.9420 -0.0991 0.3206
vn 0.9990 0.0173 0.0411
vn 0.9990 0.0022 0.0446
vn 0.9420 0.2281 0.2461
vn 0.9420 0.1302 0.3092
vn 0.9420 0.2985 0.1532
vn 0.9990 0.0303 0.0327
vn 0.9990 0.0443 0.0056
vn 0.9990 0.0397 0.0204
vn 0.5907 -0.6780 0.4375
vn 0.8880 -0.2778 0.3664
vn 0.9420 0.3329 0.0419
vn 0.9987 -0.0513 -0.0065
vn 0.9987 -0.0460 -0.0236
vn 0.9987 -0.0352 -0.0379
vn 0.9987 -0.0201 -0.0477
vn 0.9987 -0.0026 -0.0517
vn 0.9987 0.0153 -0.0494
vn 0.9987 0.0313 -0.0412
vn 0.9987 0.0435 -0.0280
vn 0.9987 0.0504 -0.0115
vn 0.9987 0.0513 0.0065
vn 0.9987 0.0460 0.0236
vn 0.9987 0.0352 0.0379
vn 0.9987 0.0201 0.0477
vn 0.9987 0.0026 0.0517
vn 0.9987 -0.0153 0.0494
vn 0.9987 -0.0313 0.0412
vn 0.8880 -0.3864 0.2493
vn 0.2094 -0.8699 -0.4465
vn 0.2094 0.3794 0.9012
usemtl OldCar.002
s 1
f 1/1/1 3/2/2 4/3/3
f 6/4/4 8/5/5 5/6/6
f 6/4/4 10/7/7 7/8/8
f 9/9/9 12/10/10 10/11/7
f 11/12/11 14/13/12 12/10/10
f 13/14/13 16/15/14 14/13/12
f 15/16/15 18/17/16 16/15/14
f 17/18/17 20/19/18 18/17/16
f 19/20/19 22/21/20 20/19/18
f 21/22/21 24/23/22 22/21/20
f 25/24/23 24/23/22 23/25/24
f 27/26/25 26/27/26 25/24/23
f 29/28/27 28/29/28 27/30/25
f 31/31/29 30/32/30 29/28/27
f 34/33/31 36/34/32 33/35/33
f 37/36/34 4/3/3 38/37/35
f 5/6/6 3/2/2 2/38/36
f 39/39/37 41/40/38 42/41/39
f 44/42/40 46/43/41 43/44/42
f 39/39/37 48/45/43 47/46/44
f 47/46/44 50/47/45 49/48/46
f 49/48/46 52/49/47 51/50/48
f 51/50/48 54/51/49 53/52/50
f 55/53/51 54/54/49 56/55/52
f 55/53/51 58/56/53 57/57/54
f 59/58/55 58/56/53 60/59/56
f 61/60/57 60/59/56 62/61/58
f 63/62/59 62/61/58 64/63/60
f 63/62/59 66/64/61 65/65/62
f 65/65/62 68/66/63 67/67/64
f 69/68/65 68/66/63 70/69/66
f 71/70/67 70/69/66 72/71/68
f 73/72/69 72/73/68 74/74/70
f 73/72/69 76/75/71 75/76/72
f 75/76/72 78/77/73 77/78/74
f 79/79/75 81/80/76 82/81/75
f 83/82/77 84/83/78 85/84/79
f 86/85/80 88/86/81 89/87/82
f 91/88/83 93/89/84 90/90/84
f 86/85/80 95/91/85 94/92/86
f 90/90/84 97/93/87 96/94/88
f 98/95/89 95/91/85 99/96/90
f 100/97/91 97/93/87 101/98/91
f 103/99/92 104/100/93 102/101/93
f 98/95/89 106/102/94 105/103/94
f 107/104/95 101/98/91 108/105/95
f 102/101/93 110/106/96 109/107/96
f 111/108/97 106/102/94 85/84/97
f 112/109/98 108/105/95 113/110/98
f 109/107/96 115/111/99 114/112/100
f 103/99/92 85/84/97 84/83/101
f 116/113/102 113/110/98 117/114/102
f 118/115/103 115/111/99 119/116/104
f 87/117/105 117/114/102 88/86/81
f 120/118/106 32/119/107 31/31/29
f 120/118/106 38/37/35 121/120/108
f 40/121/109 78/77/73 41/40/38
f 123/122/110 125/123/111 122/124/112
f 124/125/113 127/126/114 125/127/111
f 126/128/115 129/129/116 127/130/114
f 128/131/117 131/132/118 129/133/116
f 131/134/118 132/135/119 133/136/120
f 133/137/120 134/138/121 135/139/122
f 135/140/122 136/141/123 137/142/124
f 137/143/124 138/144/125 139/145/126
f 139/146/126 140/147/127 141/148/128
f 141/149/128 142/150/129 143/151/130
f 143/152/130 144/153/131 145/154/132
f 145/155/132 146/156/133 147/157/134
f 147/158/134 148/159/135 149/160/136
f 148/161/135 43/162/42 149/163/136
f 151/164/137 122/165/112 150/166/138
f 153/167/139 40/121/140 152/168/140
f 154/169/141 40/121/140 39/39/141
f 154/169/141 47/46/142 155/170/142
f 155/170/142 49/48/143 156/171/143
f 157/172/144 49/48/143 51/50/144
f 158/173/145 51/50/144 53/52/145
f 158/174/145 55/53/146 159/175/146
f 159/175/146 57/57/147 160/176/147
f 161/177/148 57/57/147 59/58/148
f 161/177/148 61/60/149 162/178/149
f 163/179/150 61/60/149 63/62/150
f 163/179/150 65/65/151 164/180/151
f 79/181/152 65/65/151 67/67/152
f 79/181/152 69/68/153 80/182/153
f 165/183/154 69/68/153 71/70/154
f 165/184/154 73/72/155 166/185/155
f 166/185/155 75/76/156 167/186/156
f 153/167/139 75/76/156 77/78/139
f 159/187/157 169/188/158 158/189/158
f 80/190/159 170/191/160 81/80/76
f 160/192/161 168/193/157 159/187/157
f 152/194/162 173/195/163 153/196/164
f 166/197/165 170/191/160 165/198/160
f 161/199/166 171/200/161 160/192/161
f 154/201/167 172/202/168 152/194/162
f 167/203/169 174/204/165 166/197/165
f 162/205/170 175/206/166 161/199/166
f 154/201/167 179/207/171 176/208/172
f 153/196/164 177/209/173 167/203/169
f 163/210/174 178/211/170 162/205/170
f 155/212/175 181/213/176 179/207/171
f 164/214/177 180/215/178 163/210/174
f 156/216/176 183/217/179 181/213/176
f 164/214/177 82/81/75 182/218/177
f 157/219/180 169/188/158 183/217/179
f 184/220/181 173/195/182 172/202/183
f 184/220/181 172/202/183 176/208/184
f 184/220/181 176/208/184 179/207/185
f 184/220/181 179/207/185 181/213/186
f 184/220/181 181/213/186 183/217/187
f 184/220/181 183/217/187 169/188/188
f 184/220/181 169/188/188 168/193/189
f 184/220/181 168/193/189 171/200/190
f 184/220/181 171/200/190 175/206/191
f 184/220/181 175/206/191 178/211/192
f 184/220/181 178/211/192 180/215/193
f 184/220/181 180/215/193 182/218/194
f 184/220/181 182/218/194 82/81/195
f 184/220/181 82/81/195 81/80/196
f 184/220/181 81/80/196 170/191/197
f 184/220/181 170/191/197 174/204/198
f 184/220/181 174/204/198 177/209/199
f 184/220/181 177/209/199 173/195/182
f 102/221/200 186/222/201 103/223/201
f 102/221/200 187/224/202 185/225/200
f 114/226/203 187/224/202 109/227/202
f 114/228/203 189/229/204 188/230/203
f 91/231/205 189/229/204 118/232/204
f 90/233/206 190/234/205 91/231/205
f 90/233/206 192/235/207 191/236/206
f 100/237/208 192/235/207 96/238/207
f 107/239/209 193/240/208 100/237/208
f 107/239/209 195/241/210 194/242/209
f 116/243/211 195/241/210 112/244/210
f 87/245/212 196/246/211 116/243/211
f 87/247/212 198/248/213 197/249/212
f 94/250/214 198/248/213 86/251/213
f 94/250/214 200/252/215 199/253/214
f 105/254/216 200/252/215 98/255/215
f 111/256/217 201/257/216 105/254/216
f 111/256/217 186/222/201 202/258/217
f 203/259/218 35/260/219 34/33/31
f 206/261/220 208/262/221 205/263/222
f 205/264/222 210/265/223 209/266/224
f 209/266/224 212/267/225 211/268/226
f 214/269/227 216/270/228 213/271/229
f 213/271/229 218/272/230 217/273/231
f 217/273/231 220/274/232 219/275/233
f 219/275/233 222/276/234 221/277/235
f 221/277/235 224/278/236 223/279/237
f 223/279/237 226/280/238 225/281/239
f 227/282/240 204/283/241 203/259/218
f 211/268/226 215/284/242 214/269/227
f 225/285/239 228/286/243 227/282/240
f 33/35/33 230/287/244 229/288/245
f 186/222/246 232/289/247 202/258/248
f 233/290/249 207/291/250 206/261/220
f 78/77/73 38/37/35 41/40/38
f 41/40/38 4/3/3 42/41/39
f 42/41/39 3/2/2 48/45/43
f 50/47/45 3/2/2 8/5/5
f 52/49/47 8/5/5 7/8/8
f 54/51/49 7/8/8 10/7/7
f 56/55/52 10/11/7 12/10/10
f 56/55/52 14/13/12 58/56/53
f 58/56/53 16/15/14 60/59/56
f 60/59/56 18/17/16 62/61/58
f 62/61/58 20/19/18 64/63/60
f 64/63/60 22/21/20 66/64/61
f 66/64/61 24/23/22 68/66/63
f 68/66/63 26/27/26 70/69/66
f 70/69/66 28/292/28 72/71/68
f 72/73/68 30/32/30 74/74/70
f 76/75/71 30/32/30 32/119/107
f 76/75/71 121/120/108 78/77/73
f 236/293/251 150/294/138 235/295/252
f 91/88/83 119/116/104 92/296/253
f 185/225/254 231/297/255 186/222/246
f 185/225/254 238/298/256 237/299/257
f 187/224/258 239/300/259 238/298/256
f 188/230/260 240/301/261 239/302/259
f 189/229/262 241/303/263 240/301/261
f 191/236/264 241/303/263 190/234/265
f 192/235/266 242/304/267 191/236/264
f 192/235/266 244/305/268 243/306/269
f 193/240/270 245/307/271 244/305/268
f 194/242/272 246/308/273 245/307/271
f 195/241/274 247/309/275 246/308/273
f 197/310/276 247/309/275 196/246/277
f 197/249/276 249/311/278 248/312/279
f 199/253/280 249/311/278 198/248/281
f 200/252/282 250/313/283 199/253/280
f 200/252/282 252/314/284 251/315/285
f 253/316/286 234/317/287 233/290/249
f 202/258/248 252/314/284 201/257/288
f 83/82/77 85/84/79 106/102/289
f 83/82/77 106/102/289 99/96/290
f 83/82/77 99/96/290 95/91/291
f 83/82/77 95/91/291 89/87/292
f 83/82/77 89/87/292 88/86/293
f 83/82/77 88/86/293 117/114/294
f 83/82/77 117/114/294 113/110/295
f 83/82/77 113/110/295 108/105/296
f 83/82/77 108/105/296 101/98/297
f 83/82/77 101/98/297 97/93/298
f 83/82/77 97/93/298 93/89/299
f 83/82/77 93/89/299 92/296/300
f 83/82/77 92/296/300 119/116/301
f 83/82/77 119/116/301 115/111/302
f 83/82/77 115/111/302 110/106/303
f 83/82/77 110/106/303 104/100/304
f 83/82/77 104/100/304 84/83/78
f 232/289/247 254/318/305 230/287/244
f 252/314/284 230/287/244 36/34/32
f 251/315/285 36/34/32 35/260/219
f 250/313/283 35/260/219 204/283/241
f 249/311/278 204/283/241 228/286/243
f 248/312/279 228/286/243 226/319/238
f 247/309/275 226/280/238 224/278/236
f 247/309/275 222/276/234 246/308/273
f 246/308/273 220/274/232 245/307/271
f 245/307/271 218/272/230 244/305/268
f 244/305/268 216/270/228 243/306/269
f 242/304/267 216/270/228 215/284/242
f 241/303/263 215/284/242 212/267/225
f 241/303/263 210/265/223 240/301/261
f 240/301/261 208/320/221 239/302/259
f 239/300/259 207/291/250 238/298/256
f 238/298/256 234/317/287 237/299/257
f 237/299/257 254/318/305 231/297/255
f 229/288/245 254/318/305 253/316/286
f 235/321/252 120/322/106 46/323/41
f 235/295/252 1/324/1 37/325/34
f 122/165/112 1/326/1 150/166/138
f 125/123/111 2/327/36 122/124/112
f 125/127/111 6/328/4 5/329/6
f 129/129/116 6/330/4 127/130/114
f 131/132/118 9/331/9 129/133/116
f 133/136/120 11/332/11 131/134/118
f 135/139/122 13/333/13 133/137/120
f 137/142/124 15/334/15 135/140/122
f 139/145/126 17/335/17 137/143/124
f 141/148/128 19/336/19 139/146/126
f 143/151/130 21/337/21 141/149/128
f 145/154/132 23/338/24 143/152/130
f 147/157/134 25/339/23 145/155/132
f 147/158/134 29/340/27 27/341/25
f 149/163/136 31/342/29 29/343/27
f 46/43/41 31/344/29 43/44/42
f 45/345/306 33/346/33 236/347/251
f 236/293/251 229/348/245 151/349/137
f 151/164/137 253/350/286 123/351/110
f 123/122/110 233/352/249 124/353/113
f 124/125/113 206/354/220 126/355/115
f 126/128/115 205/356/222 128/357/117
f 128/131/117 209/358/224 130/359/307
f 148/161/135 203/360/218 44/361/40
f 44/42/40 34/362/31 45/363/306
f 132/364/119 214/365/227 134/138/121
f 130/366/307 211/367/226 132/135/119
f 134/368/121 213/369/229 136/141/123
f 136/370/123 217/371/231 138/144/125
f 138/372/125 219/373/233 140/147/127
f 140/374/127 221/375/235 142/150/129
f 142/376/129 223/377/237 144/153/131
f 144/378/131 225/379/239 146/156/133
f 146/380/133 227/381/240 148/159/135
f 45/345/306 235/321/252 46/323/41
f 1/1/1 2/38/36 3/2/2
f 6/4/4 7/8/8 8/5/5
f 6/4/4 9/382/9 10/7/7
f 9/9/9 11/12/11 12/10/10
f 11/12/11 13/14/13 14/13/12
f 13/14/13 15/16/15 16/15/14
f 15/16/15 17/18/17 18/17/16
f 17/18/17 19/20/19 20/19/18
f 19/20/19 21/22/21 22/21/20
f 21/22/21 23/25/24 24/23/22
f 25/24/23 26/27/26 24/23/22
f 27/26/25 28/292/28 26/27/26
f 29/28/27 30/32/30 28/29/28
f 31/31/29 32/119/107 30/32/30
f 34/33/31 35/260/219 36/34/32
f 37/36/34 1/1/1 4/3/3
f 5/6/6 8/5/5 3/2/2
f 39/39/37 40/121/109 41/40/38
f 44/42/40 45/363/306 46/43/41
f 39/39/37 42/41/39 48/45/43
f 47/46/44 48/45/43 50/47/45
f 49/48/46 50/47/45 52/49/47
f 51/50/48 52/49/47 54/51/49
f 55/53/51 53/383/50 54/54/49
f 55/53/51 56/55/52 58/56/53
f 59/58/55 57/57/54 58/56/53
f 61/60/57 59/58/55 60/59/56
f 63/62/59 61/60/57 62/61/58
f 63/62/59 64/63/60 66/64/61
f 65/65/62 66/64/61 68/66/63
f 69/68/65 67/67/64 68/66/63
f 71/70/67 69/68/65 70/69/66
f 73/72/69 71/384/67 72/73/68
f 73/72/69 74/74/70 76/75/71
f 75/76/72 76/75/71 78/77/73
f 79/79/75 80/190/159 81/80/76
f 86/85/80 87/117/105 88/86/81
f 91/88/83 92/296/253 93/89/84
f 86/85/80 89/87/82 95/91/85
f 90/90/84 93/89/84 97/93/87
f 98/95/89 94/92/86 95/91/85
f 100/97/91 96/94/88 97/93/87
f 103/99/92 84/83/101 104/100/93
f 98/95/89 99/96/90 106/102/94
f 107/104/95 100/97/91 101/98/91
f 102/101/93 104/100/93 110/106/96
f 111/108/97 105/103/94 106/102/94
f 112/109/98 107/104/95 108/105/95
f 109/107/96 110/106/96 115/111/99
f 103/99/92 111/108/97 85/84/97
f 116/113/102 112/109/98 113/110/98
f 118/115/103 114/112/100 115/111/99
f 87/117/105 116/113/102 117/114/102
f 120/118/106 121/120/108 32/119/107
f 120/118/106 37/36/34 38/37/35
f 40/121/109 77/78/74 78/77/73
f 123/122/110 124/353/113 125/123/111
f 124/125/113 126/355/115 127/126/114
f 126/128/115 128/357/117 129/129/116
f 128/131/117 130/359/307 131/132/118
f 131/134/118 130/366/307 132/135/119
f 133/137/120 132/364/119 134/138/121
f 135/140/122 134/368/121 136/141/123
f 137/143/124 136/370/123 138/144/125
f 139/146/126 138/372/125 140/147/127
f 141/149/128 140/374/127 142/150/129
f 143/152/130 142/376/129 144/153/131
f 145/155/132 144/378/131 146/156/133
f 147/158/134 146/380/133 148/159/135
f 148/161/135 44/361/40 43/162/42
f 151/164/137 123/351/110 122/165/112
f 153/167/139 77/78/139 40/121/140
f 154/169/141 152/168/140 40/121/140
f 154/169/141 39/39/141 47/46/142
f 155/170/142 47/46/142 49/48/143
f 157/172/144 156/171/143 49/48/143
f 158/173/145 157/172/144 51/50/144
f 158/174/145 53/383/145 55/53/146
f 159/175/146 55/53/146 57/57/147
f 161/177/148 160/176/147 57/57/147
f 161/177/148 59/58/148 61/60/149
f 163/179/150 162/178/149 61/60/149
f 163/179/150 63/62/150 65/65/151
f 79/181/152 164/180/151 65/65/151
f 79/181/152 67/67/152 69/68/153
f 165/183/154 80/182/153 69/68/153
f 165/184/154 71/384/154 73/72/155
f 166/185/155 73/72/155 75/76/156
f 153/167/139 167/186/156 75/76/156
f 159/187/157 168/193/157 169/188/158
f 80/190/159 165/198/160 170/191/160
f 160/192/161 171/200/161 168/193/157
f 152/194/162 172/202/168 173/195/163
f 166/197/165 174/204/165 170/191/160
f 161/199/166 175/206/166 171/200/161
f 154/201/167 176/208/172 172/202/168
f 167/203/169 177/209/173 174/204/165
f 162/205/170 178/211/170 175/206/166
f 154/201/167 155/212/175 179/207/171
f 153/196/164 173/195/163 177/209/173
f 163/210/174 180/215/178 178/211/170
f 155/212/175 156/216/176 181/213/176
f 164/214/177 182/218/177 180/215/178
f 156/216/176 157/219/180 183/217/179
f 164/214/177 79/79/75 82/81/75
f 157/219/180 158/189/158 169/188/158
f 102/221/200 185/225/200 186/222/201
f 102/221/200 109/227/202 187/224/202
f 114/226/203 188/385/203 187/224/202
f 114/228/203 118/232/204 189/229/204
f 91/231/205 190/234/205 189/229/204
f 90/233/206 191/236/206 190/234/205
f 90/233/206 96/238/207 192/235/207
f 100/237/208 193/240/208 192/235/207
f 107/239/209 194/242/209 193/240/208
f 107/239/209 112/244/210 195/241/210
f 116/243/211 196/246/211 195/241/210
f 87/245/212 197/310/212 196/246/211
f 87/247/212 86/251/213 198/248/213
f 94/250/214 199/253/214 198/248/213
f 94/250/214 98/255/215 200/252/215
f 105/254/216 201/257/216 200/252/215
f 111/256/217 202/258/217 201/257/216
f 111/256/217 103/223/201 186/222/201
f 203/259/218 204/283/241 35/260/219
f 206/261/220 207/291/250 208/262/221
f 205/264/222 208/320/221 210/265/223
f 209/266/224 210/265/223 212/267/225
f 214/269/227 215/284/242 216/270/228
f 213/271/229 216/270/228 218/272/230
f 217/273/231 218/272/230 220/274/232
f 219/275/233 220/274/232 222/276/234
f 221/277/235 222/276/234 224/278/236
f 223/279/237 224/278/236 226/280/238
f 227/282/240 228/286/243 204/283/241
f 211/268/226 212/267/225 215/284/242
f 225/285/239 226/319/238 228/286/243
f 33/35/33 36/34/32 230/287/244
f 186/222/246 231/297/255 232/289/247
f 233/290/249 234/317/287 207/291/250
f 78/77/73 121/120/108 38/37/35
f 41/40/38 38/37/35 4/3/3
f 42/41/39 4/3/3 3/2/2
f 50/47/45 48/45/43 3/2/2
f 52/49/47 50/47/45 8/5/5
f 54/51/49 52/49/47 7/8/8
f 56/55/52 54/54/49 10/11/7
f 56/55/52 12/10/10 14/13/12
f 58/56/53 14/13/12 16/15/14
f 60/59/56 16/15/14 18/17/16
f 62/61/58 18/17/16 20/19/18
f 64/63/60 20/19/18 22/21/20
f 66/64/61 22/21/20 24/23/22
f 68/66/63 24/23/22 26/27/26
f 70/69/66 26/27/26 28/292/28
f 72/73/68 28/29/28 30/32/30
f 76/75/71 74/74/70 30/32/30
f 76/75/71 32/119/107 121/120/108
f 236/293/251 151/349/137 150/294/138
f 91/88/83 118/115/103 119/116/104
f 185/225/254 237/299/257 231/297/255
f 185/225/254 187/224/258 238/298/256
f 187/224/258 188/385/260 239/300/259
f 188/230/260 189/229/262 240/301/261
f 189/229/262 190/234/265 241/303/263
f 191/236/264 242/304/267 241/303/263
f 192/235/266 243/306/269 242/304/267
f 192/235/266 193/240/270 244/305/268
f 193/240/270 194/242/272 245/307/271
f 194/242/272 195/241/274 246/308/273
f 195/241/274 196/246/277 247/309/275
f 197/310/276 248/386/279 247/309/275
f 197/249/276 198/248/281 249/311/278
f 199/253/280 250/313/283 249/311/278
f 200/252/282 251/315/285 250/313/283
f 200/252/282 201/257/288 252/314/284
f 253/316/286 254/318/305 234/317/287
f 202/258/248 232/289/247 252/314/284
f 232/289/247 231/297/255 254/318/305
f 252/314/284 232/289/247 230/287/244
f 251/315/285 252/314/284 36/34/32
f 250/313/283 251/315/285 35/260/219
f 249/311/278 250/313/283 204/283/241
f 248/312/279 249/311/278 228/286/243
f 247/309/275 248/386/279 226/280/238
f 247/309/275 224/278/236 222/276/234
f 246/308/273 222/276/234 220/274/232
f 245/307/271 220/274/232 218/272/230
f 244/305/268 218/272/230 216/270/228
f 242/304/267 243/306/269 216/270/228
f 241/303/263 242/304/267 215/284/242
f 241/303/263 212/267/225 210/265/223
f 240/301/261 210/265/223 208/320/221
f 239/300/259 208/262/221 207/291/250
f 238/298/256 207/291/250 234/317/287
f 237/299/257 234/317/287 254/318/305
f 229/288/245 230/287/244 254/318/305
f 235/321/252 37/387/34 120/322/106
f 235/295/252 150/294/138 1/324/1
f 122/165/112 2/388/36 1/326/1
f 125/123/111 5/389/6 2/327/36
f 125/127/111 127/126/114 6/328/4
f 129/129/116 9/390/9 6/330/4
f 131/132/118 11/391/11 9/331/9
f 133/136/120 13/392/13 11/332/11
f 135/139/122 15/393/15 13/333/13
f 137/142/124 17/394/17 15/334/15
f 139/145/126 19/395/19 17/335/17
f 141/148/128 21/396/21 19/336/19
f 143/151/130 23/397/24 21/337/21
f 145/154/132 25/398/23 23/338/24
f 147/157/134 27/399/25 25/339/23
f 147/158/134 149/160/136 29/340/27
f 149/163/136 43/162/42 31/342/29
f 46/43/41 120/400/106 31/344/29
f 45/345/306 34/401/31 33/346/33
f 236/293/251 33/402/33 229/348/245
f 151/164/137 229/403/245 253/350/286
f 123/122/110 253/404/286 233/352/249
f 124/125/113 233/405/249 206/354/220
f 126/128/115 206/406/220 205/356/222
f 128/131/117 205/407/222 209/358/224
f 148/161/135 227/408/240 203/360/218
f 44/42/40 203/409/218 34/362/31
f 132/364/119 211/410/226 214/365/227
f 130/366/307 209/411/224 211/367/226
f 134/368/121 214/412/227 213/369/229
f 136/370/123 213/413/229 217/371/231
f 138/372/125 217/414/231 219/373/233
f 140/374/127 219/415/233 221/375/235
f 142/376/129 221/416/235 223/377/237
f 144/378/131 223/417/237 225/379/239
f 146/380/133 225/418/239 227/381/240
f 45/345/306 236/347/251 235/321/252
