# Blender v3.0.1 OBJ File: ''
# www.blender.org
mtllib uaz_wheel.mtl
o Jeep.003
v 0.225465 -0.313683 0.066370
v 0.302332 -0.413916 0.424076
v 0.302332 -0.544755 0.233424
v 0.302332 -0.592652 0.007258
v 0.225465 -0.174899 0.268938
v 0.225465 -0.268823 -0.174982
v 0.302332 -0.219993 0.550243
v 0.302332 -0.550129 -0.220076
v 0.302332 0.007341 0.592532
v 0.302332 -0.424196 -0.413765
v 0.225464 0.066452 0.313797
v 0.225464 -0.066490 -0.313766
v 0.302332 0.233507 0.544635
v 0.302332 -0.233543 -0.544604
v 0.302332 0.424158 0.413796
v 0.302332 -0.007144 -0.592501
v 0.225464 0.268787 0.175015
v 0.225464 0.174863 -0.268907
v 0.302332 0.550325 0.220107
v 0.302332 0.220189 -0.550211
v 0.302332 0.592614 -0.007226
v 0.302332 0.413878 -0.424044
v 0.225464 0.313880 -0.066339
v 0.302332 0.544718 -0.233391
v 0.162614 -0.097564 0.149780
v 0.162614 -0.174899 0.036931
v 0.162614 -0.149900 -0.097413
v 0.162614 0.037014 0.175014
v 0.162614 -0.037051 -0.174982
v 0.162614 0.149863 0.097444
v 0.162614 0.097527 -0.149982
v 0.162614 0.174863 -0.037133
v 0.243221 -0.114153 0.024081
v 0.243221 -0.097797 -0.063769
v 0.243221 -0.063686 0.097912
v 0.243221 -0.024201 -0.114235
v 0.243221 0.063649 -0.097881
v 0.243221 0.114349 -0.024283
v 0.243221 0.024163 0.114267
v 0.243221 0.097761 0.063567
v -0.215885 0.919246 -0.393903
v -0.215885 0.698454 -0.715629
v -0.249062 0.669716 -0.686190
v -0.243221 0.097761 0.063567
v -0.243221 0.114349 -0.024283
v -0.243221 -0.063686 0.097912
v -0.162614 0.149863 0.097444
v -0.162614 0.174863 -0.037133
v -0.162614 0.037014 0.175014
v -0.243221 0.024163 0.114267
v -0.243221 0.063649 -0.097881
v -0.243221 -0.024201 -0.114235
v -0.243221 -0.097797 -0.063769
v -0.162614 -0.097564 0.149780
v -0.243221 -0.114153 0.024081
v -0.162614 -0.149900 -0.097413
v -0.225464 0.268787 0.175015
v -0.225464 0.174863 -0.268907
v -0.225464 -0.066490 -0.313766
v -0.162614 -0.037051 -0.174982
v -0.225465 -0.174899 0.268938
v -0.225464 0.066452 0.313797
v -0.162614 -0.174899 0.036931
v -0.225465 -0.268823 -0.174982
v -0.302332 0.592614 -0.007226
v -0.225464 0.313880 -0.066339
v -0.302332 0.220189 -0.550211
v -0.302332 -0.007144 -0.592501
v -0.302332 -0.233543 -0.544604
v -0.302332 -0.424196 -0.413765
v -0.302332 0.424158 0.413796
v -0.302332 0.233507 0.544635
v -0.302332 -0.219993 0.550243
v -0.302332 0.007341 0.592532
v -0.302332 -0.592652 0.007258
v -0.225465 -0.313683 0.066370
v -0.162614 0.097527 -0.149982
v -0.302332 0.550325 0.220107
v -0.249062 0.356169 -0.890393
v -0.302332 0.544718 -0.233391
v -0.302332 0.413878 -0.424044
v -0.302332 -0.550129 -0.220076
v -0.302332 -0.413916 0.424076
v -0.302332 -0.544755 0.233424
v 0.215885 0.919246 -0.393903
v 0.249062 0.669716 -0.686190
v 0.215885 0.698454 -0.715629
v 0.249062 0.356169 -0.890393
v 0.215885 0.371356 -0.928477
v 0.249062 0.881396 -0.377782
v 0.215885 1.000087 -0.012132
v 0.249062 -0.011817 -0.958851
v 0.249062 0.958732 -0.011665
v 0.215885 -0.012285 -0.999972
v 0.249062 -0.377701 -0.881282
v 0.215885 -0.394055 -0.919132
v 0.249062 -0.686343 -0.669603
v 0.215885 -0.715781 -0.698341
v 0.249062 -0.890312 -0.356055
v 0.215885 -0.928629 -0.371475
v 0.249062 -0.958768 0.011697
v 0.215885 -0.999890 0.012165
v 0.249062 -0.881433 0.377815
v 0.215885 -0.919283 0.393936
v 0.249062 -0.669753 0.686223
v 0.215885 -0.698492 0.715661
v 0.249062 -0.356207 0.890426
v 0.215885 -0.371393 0.928509
v 0.249062 0.011780 0.958882
v 0.215885 0.012247 1.000004
v 0.249062 0.377663 0.881314
v 0.215885 0.394018 0.919164
v 0.249062 0.686305 0.669635
v 0.215885 0.715744 0.698372
v 0.249062 0.890275 0.356088
v 0.215885 0.928592 0.371508
v 0.334810 -0.706902 0.303049
v 0.334810 -0.769050 0.009361
v 0.334810 -0.537278 0.550477
v 0.334810 -0.714146 -0.285729
v 0.334810 -0.550362 -0.537127
v 0.334810 -0.302935 -0.706985
v 0.334810 -0.009481 -0.769134
v 0.334810 0.285609 -0.714228
v 0.334809 0.537241 -0.550444
v 0.334809 0.706866 -0.303017
v 0.334809 0.769014 -0.009329
v 0.334809 0.714108 0.285527
v 0.334809 0.550559 0.537159
v 0.334810 0.302898 0.707018
v 0.334810 0.009444 0.769165
v 0.334810 -0.285646 0.714026
v -0.215885 0.371356 -0.928477
v -0.249062 0.881396 -0.377782
v -0.215885 1.000087 -0.012132
v -0.249062 -0.011817 -0.958851
v -0.249062 0.958732 -0.011665
v -0.215885 -0.012285 -0.999972
v -0.249062 -0.377701 -0.881282
v -0.215885 -0.394055 -0.919132
v -0.249062 -0.686343 -0.669603
v -0.215885 -0.715781 -0.698341
v -0.249062 -0.890312 -0.356055
v -0.215885 -0.928629 -0.371475
v -0.249062 -0.958768 0.011697
v -0.215885 -0.999890 0.012165
v -0.249062 -0.881433 0.377815
v -0.215885 -0.919283 0.393936
v -0.249062 -0.669753 0.686223
v -0.215885 -0.698492 0.715661
v -0.249062 -0.356207 0.890426
v -0.215885 -0.371393 0.928509
v -0.249062 0.011780 0.958882
v -0.215885 0.012247 1.000004
v -0.249062 0.377663 0.881314
v -0.215885 0.394018 0.919164
v -0.249062 0.686305 0.669635
v -0.215885 0.715744 0.698372
v -0.249062 0.890275 0.356088
v -0.215885 0.928592 0.371508
v -0.334810 -0.706902 0.303049
v -0.334810 -0.769050 0.009361
v -0.334810 -0.537278 0.550477
v -0.334810 -0.714146 -0.285729
v -0.334810 -0.550362 -0.537127
v -0.334810 -0.302935 -0.706985
v -0.334810 -0.009481 -0.769134
v -0.334810 0.285609 -0.714228
v -0.334809 0.537241 -0.550444
v -0.334809 0.706866 -0.303017
v -0.334809 0.769014 -0.009329
v -0.334809 0.714108 0.285527
v -0.334809 0.550559 0.537159
v -0.334810 0.302898 0.707018
v -0.334810 0.009444 0.769165
v -0.334810 -0.285646 0.714026
vt 0.865044 0.318704
vt 0.827421 0.316835
vt 0.848580 0.302176
vt 0.873448 0.296965
vt 0.836492 0.338132
vt 0.898612 0.325286
vt 0.813136 0.338281
vt 0.898843 0.301812
vt 0.808241 0.363360
vt 0.920139 0.315867
vt 0.830312 0.372243
vt 0.917982 0.353735
vt 0.813798 0.388804
vt 0.934818 0.337313
vt 0.828081 0.409886
vt 0.939978 0.362391
vt 0.849519 0.400544
vt 0.911805 0.387847
vt 0.849509 0.423940
vt 0.935086 0.387835
vt 0.874771 0.428786
vt 0.921195 0.409280
vt 0.883080 0.407120
vt 0.899768 0.423578
vt 0.853189 0.349144
vt 0.869220 0.338441
vt 0.888092 0.342109
vt 0.849519 0.368116
vt 0.898612 0.357866
vt 0.860537 0.384175
vt 0.894938 0.376680
vt 0.879405 0.387390
vt 0.871227 0.349144
vt 0.881912 0.351290
vt 0.862206 0.355263
vt 0.888092 0.360314
vt 0.885920 0.371021
vt 0.876903 0.377140
vt 0.860206 0.365973
vt 0.866383 0.374997
vt 0.882283 0.678808
vt 0.882282 0.622012
vt 0.871738 0.622012
vt 0.866383 0.374997
vt 0.876903 0.377140
vt 0.862206 0.355263
vt 0.860537 0.384175
vt 0.879405 0.387390
vt 0.849519 0.368116
vt 0.860206 0.365973
vt 0.885920 0.371021
vt 0.888092 0.360314
vt 0.881912 0.351290
vt 0.853189 0.349144
vt 0.871227 0.349144
vt 0.888092 0.342109
vt 0.849519 0.400544
vt 0.911805 0.387847
vt 0.917982 0.353735
vt 0.898612 0.357866
vt 0.836492 0.338132
vt 0.830312 0.372243
vt 0.869220 0.338441
vt 0.898612 0.325286
vt 0.874771 0.428786
vt 0.883080 0.407120
vt 0.935086 0.387835
vt 0.939978 0.362391
vt 0.934818 0.337313
vt 0.920139 0.315867
vt 0.828081 0.409886
vt 0.813798 0.388804
vt 0.813136 0.338281
vt 0.808241 0.363360
vt 0.873448 0.296965
vt 0.865044 0.318704
vt 0.894938 0.376680
vt 0.849509 0.423940
vt 0.871737 0.564913
vt 0.899768 0.423578
vt 0.921195 0.409280
vt 0.898843 0.301812
vt 0.827421 0.316835
vt 0.848580 0.302176
vt 0.880843 0.678531
vt 0.871279 0.621879
vt 0.880841 0.621879
vt 0.871277 0.567028
vt 0.880841 0.622164
vt 0.871279 0.622164
vt 0.880840 0.567028
vt 0.871280 0.678531
vt 0.880844 0.735180
vt 0.871276 0.512626
vt 0.871281 0.735180
vt 0.880839 0.512626
vt 0.983341 0.678770
vt 0.974079 0.733855
vt 0.983343 0.733855
vt 0.974076 0.678771
vt 0.983338 0.623032
vt 0.974074 0.623032
vt 0.983336 0.567545
vt 0.974072 0.567546
vt 0.983334 0.512062
vt 0.974069 0.512062
vt 0.870414 0.675719
vt 0.879979 0.733106
vt 0.870416 0.733106
vt 0.879977 0.675718
vt 0.870412 0.622797
vt 0.879977 0.675538
vt 0.870414 0.675538
vt 0.879974 0.622797
vt 0.870409 0.566185
vt 0.879974 0.622682
vt 0.870412 0.622682
vt 0.879972 0.566185
vt 0.870407 0.512046
vt 0.879972 0.565996
vt 0.870409 0.565997
vt 0.879969 0.512046
vt 0.983341 0.678065
vt 0.974079 0.732897
vt 0.983343 0.732897
vt 0.974076 0.678065
vt 0.983338 0.622496
vt 0.974074 0.622496
vt 0.983336 0.567220
vt 0.974072 0.567220
vt 0.983334 0.511844
vt 0.974072 0.567117
vt 0.983336 0.567116
vt 0.974069 0.511844
vt 0.873526 0.243873
vt 0.834390 0.272706
vt 0.826404 0.253667
vt 0.873803 0.264791
vt 0.920957 0.252900
vt 0.801627 0.295180
vt 0.786316 0.280747
vt 0.848294 0.301555
vt 0.826969 0.316348
vt 0.873617 0.296356
vt 0.812574 0.337940
vt 0.913212 0.272229
vt 0.899210 0.301287
vt 0.961345 0.279217
vt 0.946765 0.294071
vt 0.920932 0.315415
vt 0.988429 0.318998
vt 0.968923 0.327151
vt 0.935728 0.337007
vt 0.998219 0.366119
vt 0.977154 0.366087
vt 0.940926 0.362197
vt 0.989192 0.413548
vt 0.969716 0.405339
vt 0.935996 0.387788
vt 0.962721 0.453785
vt 0.947874 0.438893
vt 0.921867 0.409381
vt 0.922790 0.480866
vt 0.914794 0.461370
vt 0.900275 0.423776
vt 0.875669 0.490656
vt 0.875382 0.469598
vt 0.874950 0.429107
vt 0.828241 0.481633
vt 0.835973 0.461843
vt 0.849359 0.424174
vt 0.787847 0.454855
vt 0.802896 0.440002
vt 0.827950 0.410197
vt 0.760769 0.415384
vt 0.780258 0.406922
vt 0.813242 0.388721
vt 0.750979 0.367956
vt 0.772031 0.367986
vt 0.807642 0.363265
vt 0.760006 0.320985
vt 0.779469 0.328736
vt 0.882281 0.564913
vt 0.871739 0.678808
vt 0.882282 0.731178
vt 0.882281 0.679012
vt 0.871738 0.679012
vt 0.871735 0.508572
vt 0.871739 0.731178
vt 0.882279 0.508572
vt 0.983141 0.677781
vt 0.983143 0.732801
vt 0.973596 0.732801
vt 0.973593 0.677782
vt 0.983139 0.623909
vt 0.983141 0.677741
vt 0.973593 0.677741
vt 0.973591 0.623909
vt 0.983136 0.567792
vt 0.973589 0.567793
vt 0.983172 0.511479
vt 0.983174 0.567703
vt 0.973627 0.567704
vt 0.973624 0.511479
vt 0.870893 0.676917
vt 0.870703 0.732369
vt 0.880085 0.732369
vt 0.880083 0.676917
vt 0.870699 0.620602
vt 0.870893 0.677116
vt 0.880083 0.677115
vt 0.880081 0.620602
vt 0.870697 0.567893
vt 0.880079 0.567893
vt 0.870696 0.511287
vt 0.870697 0.567679
vt 0.880079 0.567678
vt 0.880077 0.511287
vt 0.983759 0.677412
vt 0.983761 0.733215
vt 0.973832 0.733215
vt 0.973829 0.677412
vt 0.983757 0.624059
vt 0.973827 0.624059
vt 0.983673 0.569045
vt 0.983675 0.624092
vt 0.973748 0.624092
vt 0.973745 0.569046
vt 0.983592 0.511141
vt 0.983595 0.568971
vt 0.973664 0.511141
vt 0.873526 0.243873
vt 0.826404 0.253667
vt 0.834390 0.272706
vt 0.873803 0.264791
vt 0.920957 0.252900
vt 0.801627 0.295180
vt 0.786316 0.280747
vt 0.848294 0.301555
vt 0.826969 0.316348
vt 0.873617 0.296356
vt 0.812574 0.337940
vt 0.913212 0.272229
vt 0.899210 0.301287
vt 0.961345 0.279217
vt 0.946765 0.294071
vt 0.920932 0.315415
vt 0.988429 0.318998
vt 0.968923 0.327151
vt 0.935728 0.337007
vt 0.998219 0.366119
vt 0.977154 0.366087
vt 0.940926 0.362197
vt 0.989192 0.413548
vt 0.969716 0.405339
vt 0.935996 0.387788
vt 0.962721 0.453785
vt 0.947874 0.438893
vt 0.921867 0.409381
vt 0.922790 0.480866
vt 0.914794 0.461370
vt 0.900275 0.423776
vt 0.875669 0.490656
vt 0.875382 0.469598
vt 0.874950 0.429107
vt 0.828241 0.481633
vt 0.835973 0.461843
vt 0.849359 0.424174
vt 0.787847 0.454855
vt 0.802896 0.440002
vt 0.827940 0.410208
vt 0.760769 0.415384
vt 0.780258 0.406922
vt 0.813242 0.388721
vt 0.750979 0.367956
vt 0.772031 0.367986
vt 0.807642 0.363265
vt 0.760006 0.320985
vt 0.779469 0.328736
vt 0.882982 0.566315
vt 0.972620 0.510830
vt 0.882979 0.510831
vt 0.973582 0.733941
vt 0.880607 0.677963
vt 0.973580 0.677963
vt 0.880609 0.733943
vt 0.880604 0.621981
vt 0.973577 0.621980
vt 0.880601 0.565701
vt 0.973573 0.565699
vt 0.880600 0.510168
vt 0.973570 0.510167
vt 0.971702 0.677525
vt 0.884889 0.732667
vt 0.971704 0.732666
vt 0.884886 0.677527
vt 0.971699 0.621730
vt 0.884883 0.621731
vt 0.971696 0.566186
vt 0.884881 0.566187
vt 0.971694 0.510646
vt 0.884878 0.510647
vt 0.882909 0.677887
vt 0.972516 0.732808
vt 0.882913 0.732810
vt 0.972511 0.677884
vt 0.882905 0.622960
vt 0.972507 0.622957
vt 0.882900 0.567784
vt 0.972503 0.567781
vt 0.882896 0.513255
vt 0.972498 0.513253
vt 0.972628 0.677585
vt 0.882991 0.732628
vt 0.972630 0.732627
vt 0.882988 0.677586
vt 0.972625 0.621802
vt 0.882985 0.621803
vt 0.972622 0.566314
vn 0.9473 0.3033 -0.1032
vn 0.9749 0.1650 -0.1494
vn 0.9765 0.2012 -0.0775
vn 0.9749 0.2224 0.0110
vn 0.9473 0.1414 -0.2874
vn 0.9473 0.2875 0.1413
vn 0.9765 0.0875 -0.1972
vn 0.9765 0.1971 0.0876
vn 0.9749 0.0110 -0.2224
vn 0.9749 0.1495 0.1650
vn 0.9473 -0.1034 -0.3033
vn 0.9473 0.1034 0.3033
vn 0.9765 -0.0775 -0.2012
vn 0.9765 0.0775 0.2012
vn 0.9749 -0.1494 -0.1651
vn 0.9749 -0.0110 0.2224
vn 0.9473 -0.2874 -0.1414
vn 0.9473 -0.1414 0.2876
vn 0.9765 -0.1971 -0.0875
vn 0.9765 -0.0875 0.1970
vn 0.9749 -0.2225 -0.0110
vn 0.9749 -0.1650 0.1494
vn 0.9473 -0.3032 0.1033
vn 0.9765 -0.2013 0.0775
vn 0.9721 -0.1538 0.1771
vn 0.9722 -0.2334 0.0166
vn 0.9722 -0.1771 -0.1535
vn 0.9722 0.0166 0.2337
vn 0.9723 -0.0168 -0.2333
vn 0.9722 0.1771 0.1530
vn 0.9722 0.1531 -0.1771
vn 0.9721 0.2341 -0.0164
vn 0.7684 -0.6022 0.2165
vn 0.8538 -0.4711 -0.2217
vn 0.9592 -0.1206 0.2557
vn 0.8537 -0.1767 -0.4899
vn 0.8539 0.2211 -0.4711
vn 0.8537 0.4901 -0.1763
vn 0.7689 0.2173 0.6014
vn 0.8536 0.4714 0.2216
vn -0.3884 0.8513 -0.3527
vn -0.4056 0.6573 -0.6352
vn -0.8405 0.3688 -0.3969
vn -0.8668 0.3795 0.3235
vn -0.8790 0.4741 -0.0516
vn -0.7184 -0.5135 0.4693
vn -0.9759 0.2173 0.0186
vn -0.9972 -0.0467 -0.0589
vn -0.9906 0.1369 0.0067
vn -0.9090 -0.0160 0.4165
vn -0.8726 0.2150 -0.4386
vn -0.8877 -0.1082 -0.4475
vn -0.8818 -0.4157 -0.2226
vn -0.9906 0.0910 0.1022
vn -0.8634 -0.4351 0.2553
vn -0.9775 -0.0834 -0.1939
vn -0.9417 -0.2967 -0.1587
vn -0.9599 -0.1337 0.2464
vn -0.9600 0.0366 0.2777
vn -0.9760 -0.1407 -0.1665
vn -0.9380 0.1829 -0.2945
vn -0.9476 -0.1034 -0.3022
vn -0.9722 -0.2202 0.0794
vn -0.9621 0.2278 0.1500
vn -0.9777 -0.2098 0.0082
vn -0.9603 -0.2680 0.0780
vn -0.9739 -0.0755 0.2139
vn -0.9757 0.0118 0.2190
vn -0.9739 0.0980 0.2046
vn -0.9757 0.1633 0.1464
vn -0.9777 -0.1540 -0.1425
vn -0.9764 -0.0972 -0.1927
vn -0.9764 0.0676 -0.2051
vn -0.9784 -0.0007 -0.2065
vn -0.9740 0.2263 -0.0085
vn -0.9575 0.2869 -0.0296
vn -0.9724 0.1589 -0.1709
vn -0.9782 -0.1928 -0.0774
vn -0.8375 0.2120 -0.5036
vn -0.9764 -0.1928 0.0972
vn -0.9757 -0.1465 0.1632
vn -0.9773 0.2004 0.0682
vn -0.9750 0.1492 -0.1649
vn -0.9739 0.2047 -0.0979
vn 0.3953 0.8524 -0.3424
vn 0.8518 0.3710 -0.3699
vn 0.4219 0.6150 -0.6662
vn 0.8516 0.2013 -0.4840
vn 0.4213 0.3129 -0.8512
vn 0.8521 0.4838 -0.1996
vn 0.3963 0.9181 0.0098
vn 0.8516 0.0007 -0.5241
vn 0.8525 0.5228 0.0008
vn 0.4340 0.0023 -0.9009
vn 0.8520 -0.1997 -0.4840
vn 0.4342 -0.3426 -0.8331
vn 0.8520 -0.3697 -0.3707
vn 0.4342 -0.6353 -0.6387
vn 0.8521 -0.4832 -0.2009
vn 0.4345 -0.8312 -0.3468
vn 0.8520 -0.5236 -0.0007
vn 0.4338 -0.9010 -0.0023
vn 0.8519 -0.4842 0.1996
vn 0.4339 -0.8333 0.3425
vn 0.8518 -0.3709 0.3699
vn 0.4336 -0.6387 0.6356
vn 0.8517 -0.2013 0.4839
vn 0.4334 -0.3470 0.8317
vn 0.8516 -0.0007 0.5241
vn 0.4340 -0.0023 0.9009
vn 0.8520 0.1997 0.4840
vn 0.4342 0.3426 0.8331
vn 0.8519 0.3698 0.3707
vn 0.4342 0.6353 0.6387
vn 0.8522 0.4831 0.2009
vn 0.4349 0.8309 0.3470
vn 0.9925 -0.1188 0.0285
vn 0.9925 -0.1207 -0.0191
vn 0.9925 -0.0989 0.0719
vn 0.9925 -0.1043 -0.0638
vn 0.9925 -0.0718 -0.0989
vn 0.9925 -0.0286 -0.1189
vn 0.9925 0.0191 -0.1208
vn 0.9925 0.0639 -0.1043
vn 0.9925 0.0989 -0.0719
vn 0.9925 0.1188 -0.0285
vn 0.9925 0.1207 0.0191
vn 0.9925 0.1042 0.0638
vn 0.9925 0.0720 0.0989
vn 0.9925 0.0286 0.1189
vn 0.9925 -0.0191 0.1207
vn 0.9925 -0.0638 0.1041
vn -0.4048 0.3646 -0.8386
vn -0.8472 0.4940 -0.1956
vn -0.4013 0.9159 0.0136
vn -0.8382 0.0029 -0.5453
vn -0.8479 0.5301 0.0080
vn -0.4255 0.0121 -0.9049
vn -0.8386 -0.2058 -0.5044
vn -0.4259 -0.3352 -0.8404
vn -0.8381 -0.3836 -0.3878
vn -0.4257 -0.6310 -0.6485
vn -0.8389 -0.5017 -0.2110
vn -0.4264 -0.8310 -0.3573
vn -0.8380 -0.5457 -0.0030
vn -0.4256 -0.9048 -0.0122
vn -0.8382 -0.5050 0.2058
vn -0.3870 -0.8449 0.3692
vn -0.8382 -0.3878 0.3835
vn -0.3889 -0.6518 0.6511
vn -0.8376 -0.2120 0.5035
vn -0.3879 -0.3532 0.8514
vn -0.8382 -0.0029 0.5453
vn -0.3887 -0.0005 0.9214
vn -0.8386 0.2058 0.5044
vn -0.3893 0.3522 0.8511
vn -0.8381 0.3837 0.3878
vn -0.3886 0.6511 0.6519
vn -0.8389 0.5017 0.2110
vn -0.3895 0.8506 0.3532
vn -0.9856 -0.1344 0.1030
vn -0.9887 -0.1448 -0.0386
vn -0.9803 -0.1481 0.1303
vn -0.9806 -0.1882 -0.0554
vn -0.9807 -0.1520 -0.1231
vn -0.9806 -0.0938 -0.1723
vn -0.9806 -0.0207 -0.1949
vn -0.9806 0.0555 -0.1880
vn -0.9806 0.1232 -0.1525
vn -0.9807 0.1720 -0.0935
vn -0.9806 0.1948 -0.0206
vn -0.9806 0.1878 0.0555
vn -0.9806 0.1526 0.1232
vn -0.9806 0.0937 0.1722
vn -0.9806 0.0208 0.1950
vn -0.9807 -0.0556 0.1874
usemtl materials_are_bae.002
s 1
f 1/1/1 2/2/2 3/3/3
f 4/4/4 1/1/1 3/3/3
f 2/2/2 1/1/1 5/5/5
f 6/6/6 1/1/1 4/4/4
f 2/2/2 5/5/5 7/7/7
f 6/6/6 4/4/4 8/8/8
f 5/5/5 9/9/9 7/7/7
f 10/10/10 6/6/6 8/8/8
f 9/9/9 5/5/5 11/11/11
f 10/10/10 12/12/12 6/6/6
f 9/9/9 11/11/11 13/13/13
f 12/12/12 10/10/10 14/14/14
f 11/11/11 15/15/15 13/13/13
f 16/16/16 12/12/12 14/14/14
f 15/15/15 11/11/11 17/17/17
f 16/16/16 18/18/18 12/12/12
f 15/15/15 17/17/17 19/19/19
f 18/18/18 16/16/16 20/20/20
f 17/17/17 21/21/21 19/19/19
f 22/22/22 18/18/18 20/20/20
f 21/21/21 17/17/17 23/23/23
f 22/22/22 23/23/23 18/18/18
f 21/21/21 23/23/23 24/24/24
f 23/23/23 22/22/22 24/24/24
f 25/25/25 1/1/1 26/26/26
f 26/26/26 1/1/1 6/6/6
f 1/1/1 25/25/25 5/5/5
f 26/26/26 6/6/6 27/27/27
f 28/28/28 5/5/5 25/25/25
f 12/12/12 27/27/27 6/6/6
f 5/5/5 28/28/28 11/11/11
f 27/27/27 12/12/12 29/29/29
f 30/30/30 11/11/11 28/28/28
f 18/18/18 29/29/29 12/12/12
f 11/11/11 30/30/30 17/17/17
f 29/29/29 18/18/18 31/31/31
f 32/32/32 17/17/17 30/30/30
f 23/23/23 31/31/31 18/18/18
f 17/17/17 32/32/32 23/23/23
f 31/31/31 23/23/23 32/32/32
f 33/33/33 25/25/25 26/26/26
f 26/26/26 34/34/34 33/33/33
f 34/34/34 26/26/26 27/27/27
f 25/25/25 33/33/33 35/35/35
f 34/34/34 35/35/35 33/33/33
f 35/35/35 28/28/28 25/25/25
f 27/27/27 36/36/36 34/34/34
f 36/36/36 35/35/35 34/34/34
f 36/36/36 27/27/27 29/29/29
f 29/29/29 37/37/37 36/36/36
f 37/37/37 35/35/35 36/36/36
f 37/37/37 29/29/29 31/31/31
f 31/31/31 38/38/38 37/37/37
f 38/38/38 35/35/35 37/37/37
f 38/38/38 31/31/31 32/32/32
f 28/28/28 35/35/35 39/39/39
f 39/39/39 30/30/30 28/28/28
f 40/40/40 35/35/35 38/38/38
f 35/35/35 40/40/40 39/39/39
f 32/32/32 40/40/40 38/38/38
f 39/39/39 40/40/40 30/30/30
f 40/40/40 32/32/32 30/30/30
f 41/41/41 42/42/42 43/43/43
f 44/44/44 45/45/45 46/46/46
f 44/44/44 47/47/47 48/48/48
f 49/49/49 50/50/50 46/46/46
f 50/50/50 47/47/47 44/44/44
f 51/51/51 52/52/52 46/46/46
f 52/52/52 53/53/53 46/46/46
f 54/54/54 46/46/46 55/55/55
f 56/56/56 53/53/53 52/52/52
f 53/53/53 55/55/55 46/46/46
f 48/48/48 47/47/47 57/57/57
f 58/58/58 59/59/59 60/60/60
f 61/61/61 62/62/62 49/49/49
f 63/63/63 56/56/56 64/64/64
f 56/56/56 60/60/60 59/59/59
f 49/49/49 54/54/54 61/61/61
f 65/65/65 66/66/66 57/57/57
f 58/58/58 67/67/67 68/68/68
f 68/68/68 59/59/59 58/58/58
f 59/59/59 69/69/69 70/70/70
f 71/71/71 57/57/57 62/62/62
f 62/62/62 72/72/72 71/71/71
f 61/61/61 73/73/73 74/74/74
f 64/64/64 75/75/75 76/76/76
f 45/45/45 48/48/48 77/77/77
f 50/50/50 49/49/49 47/47/47
f 52/52/52 60/60/60 56/56/56
f 46/46/46 54/54/54 49/49/49
f 47/47/47 49/49/49 62/62/62
f 59/59/59 64/64/64 56/56/56
f 71/71/71 78/78/78 57/57/57
f 68/68/68 69/69/69 59/59/59
f 79/79/79 43/43/43 42/42/42
f 77/77/77 51/51/51 45/45/45
f 45/45/45 51/51/51 46/46/46
f 46/46/46 50/50/50 44/44/44
f 48/48/48 45/45/45 44/44/44
f 60/60/60 52/52/52 51/51/51
f 51/51/51 77/77/77 60/60/60
f 63/63/63 55/55/55 53/53/53
f 53/53/53 56/56/56 63/63/63
f 55/55/55 63/63/63 54/54/54
f 77/77/77 48/48/48 66/66/66
f 66/66/66 58/58/58 77/77/77
f 57/57/57 66/66/66 48/48/48
f 60/60/60 77/77/77 58/58/58
f 62/62/62 57/57/57 47/47/47
f 63/63/63 64/64/64 76/76/76
f 76/76/76 61/61/61 54/54/54
f 54/54/54 63/63/63 76/76/76
f 66/66/66 80/80/80 81/81/81
f 81/81/81 58/58/58 66/66/66
f 65/65/65 80/80/80 66/66/66
f 81/81/81 67/67/67 58/58/58
f 57/57/57 78/78/78 65/65/65
f 70/70/70 64/64/64 59/59/59
f 74/74/74 72/72/72 62/62/62
f 70/70/70 82/82/82 64/64/64
f 74/74/74 62/62/62 61/61/61
f 83/83/83 73/73/73 61/61/61
f 64/64/64 82/82/82 75/75/75
f 83/83/83 61/61/61 76/76/76
f 76/76/76 84/84/84 83/83/83
f 75/75/75 84/84/84 76/76/76
f 85/85/85 86/86/86 87/87/87
f 88/88/88 87/89/87 86/90/86
f 87/89/87 88/88/88 89/91/89
f 86/86/86 85/85/85 90/92/90
f 91/93/91 90/92/90 85/85/85
f 92/94/92 89/91/89 88/88/88
f 90/92/90 91/93/91 93/95/93
f 89/91/89 92/94/92 94/96/94
f 95/97/95 94/98/94 92/99/92
f 94/98/94 95/97/95 96/100/96
f 97/101/97 96/100/96 95/97/95
f 96/100/96 97/101/97 98/102/98
f 99/103/99 98/102/98 97/101/97
f 98/102/98 99/103/99 100/104/100
f 101/105/101 100/104/100 99/103/99
f 100/104/100 101/105/101 102/106/102
f 103/107/103 102/108/102 101/109/101
f 102/108/102 103/107/103 104/110/104
f 105/111/105 104/112/104 103/113/103
f 104/112/104 105/111/105 106/114/106
f 107/115/107 106/116/106 105/117/105
f 106/116/106 107/115/107 108/118/108
f 109/119/109 108/120/108 107/121/107
f 108/120/108 109/119/109 110/122/110
f 111/123/111 110/124/110 109/125/109
f 110/124/110 111/123/111 112/126/112
f 113/127/113 112/126/112 111/123/111
f 112/126/112 113/127/113 114/128/114
f 115/129/115 114/128/114 113/127/113
f 114/128/114 115/129/115 116/130/116
f 93/131/93 116/132/116 115/133/115
f 116/132/116 93/131/93 91/134/91
f 101/135/101 117/136/117 103/137/103
f 117/136/117 101/135/101 118/138/118
f 99/139/99 118/138/118 101/135/101
f 119/140/119 103/137/103 117/136/117
f 103/137/103 119/140/119 105/141/105
f 118/138/118 3/142/3 117/136/117
f 2/143/2 117/136/117 3/142/3
f 117/136/117 2/143/2 119/140/119
f 3/142/3 118/138/118 4/144/4
f 7/145/7 119/140/119 2/143/2
f 120/146/120 4/144/4 118/138/118
f 118/138/118 99/139/99 120/146/120
f 4/144/4 120/146/120 8/147/8
f 97/148/97 120/146/120 99/139/99
f 121/149/121 8/147/8 120/146/120
f 120/146/120 97/148/97 121/149/121
f 8/147/8 121/149/121 10/150/10
f 95/151/95 121/149/121 97/148/97
f 122/152/122 10/150/10 121/149/121
f 121/149/121 95/151/95 122/152/122
f 10/150/10 122/152/122 14/153/14
f 92/154/92 122/152/122 95/151/95
f 123/155/123 14/153/14 122/152/122
f 122/152/122 92/154/92 123/155/123
f 14/153/14 123/155/123 16/156/16
f 88/157/88 123/155/123 92/154/92
f 124/158/124 16/156/16 123/155/123
f 123/155/123 88/157/88 124/158/124
f 16/156/16 124/158/124 20/159/20
f 86/160/86 124/158/124 88/157/88
f 125/161/125 20/159/20 124/158/124
f 124/158/124 86/160/86 125/161/125
f 20/159/20 125/161/125 22/162/22
f 90/163/90 125/161/125 86/160/86
f 126/164/126 22/162/22 125/161/125
f 125/161/125 90/163/90 126/164/126
f 22/162/22 126/164/126 24/165/24
f 93/166/93 126/164/126 90/163/90
f 127/167/127 24/165/24 126/164/126
f 126/164/126 93/166/93 127/167/127
f 24/165/24 127/167/127 21/168/21
f 115/169/115 127/167/127 93/166/93
f 128/170/128 21/168/21 127/167/127
f 127/167/127 115/169/115 128/170/128
f 21/168/21 128/170/128 19/171/19
f 113/172/113 128/170/128 115/169/115
f 129/173/129 19/171/19 128/170/128
f 128/170/128 113/172/113 129/173/129
f 19/171/19 129/173/129 15/174/15
f 111/175/111 129/173/129 113/172/113
f 130/176/130 15/174/15 129/173/129
f 129/173/129 111/175/111 130/176/130
f 15/174/15 130/176/130 13/177/13
f 109/178/109 130/176/130 111/175/111
f 131/179/131 13/177/13 130/176/130
f 130/176/130 109/178/109 131/179/131
f 13/177/13 131/179/131 9/180/9
f 107/181/107 131/179/131 109/178/109
f 132/182/132 9/180/9 131/179/131
f 107/181/107 132/182/132 131/179/131
f 9/180/9 132/182/132 7/145/7
f 105/141/105 132/182/132 107/181/107
f 7/145/7 132/182/132 119/140/119
f 132/182/132 105/141/105 119/140/119
f 42/42/42 133/183/133 79/79/79
f 43/43/43 134/184/134 41/41/41
f 135/185/135 41/186/41 134/187/134
f 136/188/136 79/79/79 133/183/133
f 134/187/134 137/189/137 135/185/135
f 133/183/133 138/190/138 136/188/136
f 139/191/139 136/192/136 138/193/138
f 138/193/138 140/194/140 139/191/139
f 141/195/141 139/196/139 140/197/140
f 140/197/140 142/198/142 141/195/141
f 143/199/143 141/195/141 142/198/142
f 142/198/142 144/200/144 143/199/143
f 145/201/145 143/202/143 144/203/144
f 144/203/144 146/204/146 145/201/145
f 147/205/147 145/206/145 146/207/146
f 146/207/146 148/208/148 147/205/147
f 149/209/149 147/210/147 148/211/148
f 148/211/148 150/212/150 149/209/149
f 151/213/151 149/209/149 150/212/150
f 150/212/150 152/214/152 151/213/151
f 153/215/153 151/216/151 152/217/152
f 152/217/152 154/218/154 153/215/153
f 155/219/155 153/220/153 154/221/154
f 154/221/154 156/222/156 155/219/155
f 157/223/157 155/219/155 156/222/156
f 156/222/156 158/224/158 157/223/157
f 159/225/159 157/226/157 158/227/158
f 158/227/158 160/228/160 159/225/159
f 137/229/137 159/230/159 160/228/160
f 160/228/160 135/231/135 137/229/137
f 145/232/145 147/233/147 161/234/161
f 161/234/161 162/235/162 145/232/145
f 143/236/143 145/232/145 162/235/162
f 163/237/163 161/234/161 147/233/147
f 147/233/147 149/238/149 163/237/163
f 162/235/162 161/234/161 84/239/84
f 83/240/83 84/239/84 161/234/161
f 161/234/161 163/237/163 83/240/83
f 84/239/84 75/241/75 162/235/162
f 73/242/73 83/240/83 163/237/163
f 164/243/164 162/235/162 75/241/75
f 162/235/162 164/243/164 143/236/143
f 75/241/75 82/244/82 164/243/164
f 141/245/141 143/236/143 164/243/164
f 165/246/165 164/243/164 82/244/82
f 164/243/164 165/246/165 141/245/141
f 82/244/82 70/247/70 165/246/165
f 139/248/139 141/245/141 165/246/165
f 166/249/166 165/246/165 70/247/70
f 165/246/165 166/249/166 139/248/139
f 70/247/70 69/250/69 166/249/166
f 136/251/136 139/248/139 166/249/166
f 167/252/167 166/249/166 69/250/69
f 166/249/166 167/252/167 136/251/136
f 69/250/69 68/253/68 167/252/167
f 79/254/79 136/251/136 167/252/167
f 168/255/168 167/252/167 68/253/68
f 167/252/167 168/255/168 79/254/79
f 68/253/68 67/256/67 168/255/168
f 43/257/43 79/254/79 168/255/168
f 169/258/169 168/255/168 67/256/67
f 168/255/168 169/258/169 43/257/43
f 67/256/67 81/259/81 169/258/169
f 134/260/134 43/257/43 169/258/169
f 170/261/170 169/258/169 81/259/81
f 169/258/169 170/261/170 134/260/134
f 81/259/81 80/262/80 170/261/170
f 137/263/137 134/260/134 170/261/170
f 171/264/171 170/261/170 80/262/80
f 170/261/170 171/264/171 137/263/137
f 80/262/80 65/265/65 171/264/171
f 159/266/159 137/263/137 171/264/171
f 172/267/172 171/264/171 65/265/65
f 171/264/171 172/267/172 159/266/159
f 65/265/65 78/268/78 172/267/172
f 157/269/157 159/266/159 172/267/172
f 173/270/173 172/267/172 78/268/78
f 172/267/172 173/270/173 157/269/157
f 78/268/78 71/271/71 173/270/173
f 155/272/155 157/269/157 173/270/173
f 174/273/174 173/270/173 71/271/71
f 173/270/173 174/273/174 155/272/155
f 71/271/71 72/274/72 174/273/174
f 153/275/153 155/272/155 174/273/174
f 175/276/175 174/273/174 72/274/72
f 174/273/174 175/276/175 153/275/153
f 72/274/72 74/277/74 175/276/175
f 151/278/151 153/275/153 175/276/175
f 176/279/176 175/276/175 74/277/74
f 151/278/151 175/276/175 176/279/176
f 74/277/74 73/242/73 176/279/176
f 149/238/149 151/278/151 176/279/176
f 73/242/73 163/237/163 176/279/176
f 176/279/176 163/237/163 149/238/149
f 160/280/160 91/281/91 135/282/135
f 135/283/135 85/284/85 41/285/41
f 85/284/85 135/283/135 91/286/91
f 41/285/41 87/287/87 42/288/42
f 87/287/87 41/285/41 85/284/85
f 42/288/42 89/289/89 133/290/133
f 89/289/89 42/288/42 87/287/87
f 94/291/94 133/290/133 89/289/89
f 133/290/133 94/291/94 138/292/138
f 96/293/96 138/294/138 94/295/94
f 138/294/138 96/293/96 140/296/140
f 98/297/98 140/296/140 96/293/96
f 140/296/140 98/297/98 142/298/142
f 100/299/100 142/298/142 98/297/98
f 142/298/142 100/299/100 144/300/144
f 102/301/102 144/300/144 100/299/100
f 144/300/144 102/301/102 146/302/146
f 104/303/104 146/304/146 102/305/102
f 146/304/146 104/303/104 148/306/148
f 106/307/106 148/306/148 104/303/104
f 148/306/148 106/307/106 150/308/150
f 108/309/108 150/308/150 106/307/106
f 150/308/150 108/309/108 152/310/152
f 110/311/110 152/310/152 108/309/108
f 152/310/152 110/311/110 154/312/154
f 112/313/112 154/314/154 110/315/110
f 154/314/154 112/313/112 156/316/156
f 114/317/114 156/316/156 112/313/112
f 156/316/156 114/317/114 158/318/158
f 116/319/116 158/318/158 114/317/114
f 158/318/158 116/319/116 160/280/160
f 91/281/91 160/280/160 116/319/116
