# Blender v3.0.1 OBJ File: ''
# www.blender.org
mtllib evo_kitcar_wheel.mtl
o Mesh_wheel_Cylinder01x
v 0.197287 -0.000000 0.000001
v 0.378789 -0.768128 0.279574
v 0.378789 -0.817423 0.000001
v 0.378789 -0.626183 0.525429
v 0.378789 -0.408712 0.707908
v 0.378789 -0.141946 0.805005
v 0.378789 0.141945 0.805005
v 0.378789 0.408711 0.707909
v 0.378789 0.626182 0.525429
v 0.378789 0.768128 0.279575
v 0.378789 0.817423 0.000002
v 0.378789 0.768128 -0.279575
v 0.378789 0.626183 -0.525430
v 0.378789 0.408712 -0.707909
v 0.378789 0.141942 -0.805006
v 0.378789 -0.141945 -0.805006
v 0.378789 -0.408711 -0.707909
v 0.378789 -0.626182 -0.525430
v 0.378789 -0.768128 -0.279576
v 0.298258 -0.954197 0.347297
v 0.298258 -1.015435 0.000001
v 0.298258 -0.777866 0.652709
v 0.298258 -0.507718 0.879391
v 0.298258 -0.176328 1.000006
v 0.298258 0.176327 1.000006
v 0.298258 0.507717 0.879391
v 0.298258 0.777869 0.652710
v 0.298258 0.954197 0.347298
v 0.298258 1.015435 0.000002
v 0.298258 0.954197 -0.347298
v 0.298258 0.777866 -0.652707
v 0.298258 0.507718 -0.879392
v 0.298258 0.176328 -1.000007
v 0.298258 -0.176327 -1.000007
v 0.298258 -0.507717 -0.879392
v 0.298258 -0.777866 -0.652707
v 0.298258 -0.954197 -0.347299
v -0.298259 -0.954197 0.347297
v -0.298259 -1.015432 0.000001
v -0.298259 -0.777866 0.652709
v -0.298259 -0.507718 0.879391
v -0.298259 -0.176328 1.000006
v -0.298259 0.176327 1.000006
v -0.298259 0.507717 0.879391
v -0.298259 0.777869 0.652710
v -0.298259 0.954197 0.347298
v -0.298259 1.015435 0.000002
v -0.298259 0.954197 -0.347298
v -0.298259 0.777866 -0.652707
v -0.298259 0.507718 -0.879392
v -0.298259 0.176328 -1.000007
v -0.298259 -0.176327 -1.000007
v -0.298259 -0.507717 -0.879392
v -0.298259 -0.777866 -0.652707
v -0.298259 -0.954197 -0.347299
v -0.378787 -0.768128 0.279574
v -0.378787 -0.817423 0.000001
v -0.378787 -0.626183 0.525429
v -0.378787 -0.408712 0.707908
v -0.378787 -0.141946 0.805005
v -0.378787 0.141945 0.805005
v -0.378787 0.408711 0.707909
v -0.378787 0.626182 0.525429
v -0.378787 0.768128 0.279575
v -0.378787 0.817423 0.000002
v -0.378787 0.768128 -0.279575
v -0.378787 0.626183 -0.525430
v -0.378787 0.408712 -0.707909
v -0.378787 0.141942 -0.805006
v -0.378787 -0.141945 -0.805006
v -0.378787 -0.408711 -0.707909
v -0.378787 -0.626182 -0.525430
v -0.378787 -0.768128 -0.279576
v -0.197286 -0.000000 0.000001
vt 0.725443 0.065820
vt 0.766231 0.080708
vt 0.768867 0.065820
vt 0.758709 0.093892
vt 0.747155 0.103585
vt 0.732965 0.108780
vt 0.717920 0.108780
vt 0.703730 0.103585
vt 0.692176 0.093892
vt 0.684654 0.080708
vt 0.682017 0.065820
vt 0.684654 0.050854
vt 0.692176 0.037749
vt 0.703730 0.027979
vt 0.717920 0.022783
vt 0.732965 0.022783
vt 0.747155 0.027979
vt 0.758709 0.037749
vt 0.766231 0.050854
vt 0.682017 0.065820
vt 0.669105 0.086330
vt 0.665448 0.065517
vt 0.684654 0.080708
vt 0.679642 0.104618
vt 0.692176 0.093892
vt 0.695753 0.118289
vt 0.703730 0.103585
vt 0.715520 0.125518
vt 0.717920 0.108780
vt 0.736595 0.125518
vt 0.732965 0.108780
vt 0.756362 0.118289
vt 0.747155 0.103585
vt 0.772473 0.104618
vt 0.758709 0.093892
vt 0.783010 0.086330
vt 0.766231 0.080708
vt 0.786667 0.065517
vt 0.768867 0.065820
vt 0.783010 0.044617
vt 0.766231 0.050854
vt 0.772473 0.026330
vt 0.758709 0.037749
vt 0.756362 0.012745
vt 0.747155 0.027979
vt 0.736595 0.005517
vt 0.732965 0.022783
vt 0.715520 0.005517
vt 0.717920 0.022783
vt 0.695753 0.012745
vt 0.703730 0.027979
vt 0.679642 0.026330
vt 0.692176 0.037749
vt 0.669105 0.044617
vt 0.684654 0.050854
vt 0.841280 0.075315
vt 0.830710 0.021796
vt 0.841280 0.021796
vt 0.830710 0.075315
vt 0.820056 0.021796
vt 0.820056 0.075315
vt 0.809318 0.021796
vt 0.809318 0.075315
vt 0.798498 0.021796
vt 0.798498 0.075315
vt 0.991351 0.075315
vt 0.980530 0.021796
vt 0.991351 0.021796
vt 0.980530 0.075315
vt 0.969627 0.021796
vt 0.969627 0.075315
vt 0.958889 0.021796
vt 0.958889 0.075315
vt 0.948319 0.021796
vt 0.948319 0.075315
vt 0.937748 0.021796
vt 0.937748 0.075315
vt 0.927177 0.021796
vt 0.927177 0.075315
vt 0.916524 0.021796
vt 0.916524 0.075315
vt 0.905786 0.021796
vt 0.905786 0.075315
vt 0.894966 0.021796
vt 0.894966 0.075315
vt 0.884062 0.021796
vt 0.884062 0.075315
vt 0.873242 0.021796
vt 0.873242 0.075315
vt 0.862505 0.021796
vt 0.862505 0.075315
vt 0.851851 0.021796
vt 0.851851 0.075315
vt 0.786667 0.065517
vt 0.766231 0.080708
vt 0.768867 0.065820
vt 0.783010 0.086330
vt 0.758709 0.093892
vt 0.772473 0.104618
vt 0.747155 0.103585
vt 0.756362 0.118289
vt 0.732965 0.108780
vt 0.736595 0.125518
vt 0.717920 0.108780
vt 0.715520 0.125518
vt 0.703730 0.103585
vt 0.695753 0.118289
vt 0.692176 0.093892
vt 0.679642 0.104618
vt 0.684654 0.080708
vt 0.669105 0.086330
vt 0.682017 0.065820
vt 0.665448 0.065517
vt 0.684654 0.050854
vt 0.669105 0.044617
vt 0.692176 0.037749
vt 0.679642 0.026330
vt 0.703730 0.027979
vt 0.695753 0.012745
vt 0.717920 0.022783
vt 0.715520 0.005517
vt 0.732965 0.022783
vt 0.736595 0.005517
vt 0.747155 0.027979
vt 0.756362 0.012745
vt 0.758709 0.037749
vt 0.772473 0.026330
vt 0.766231 0.050854
vt 0.783010 0.044617
vt 0.725443 0.065820
vn 1.0000 -0.0000 -0.0000
vn 0.9932 -0.1094 0.0398
vn 0.9932 -0.1164 0.0000
vn 0.9932 -0.0892 0.0748
vn 0.9932 -0.0582 0.1008
vn 0.9932 -0.0202 0.1147
vn 0.9932 0.0202 0.1147
vn 0.9932 0.0582 0.1008
vn 0.9932 0.0892 0.0748
vn 0.9932 0.1094 0.0398
vn 0.9932 0.1164 -0.0000
vn 0.9932 0.1094 -0.0398
vn 0.9932 0.0892 -0.0748
vn 0.9932 0.0582 -0.1008
vn 0.9932 0.0202 -0.1147
vn 0.9932 -0.0202 -0.1147
vn 0.9932 -0.0582 -0.1008
vn 0.9932 -0.0892 -0.0748
vn 0.9932 -0.1094 -0.0398
vn 0.5314 -0.7961 0.2897
vn 0.5314 -0.8472 -0.0000
vn 0.5314 -0.6490 0.5445
vn 0.5314 -0.4236 0.7337
vn 0.5314 -0.1471 0.8343
vn 0.5314 0.1471 0.8343
vn 0.5314 0.4236 0.7337
vn 0.5314 0.6490 0.5445
vn 0.5314 0.7961 0.2897
vn 0.5314 0.8472 0.0000
vn 0.5314 0.7961 -0.2897
vn 0.5314 0.6490 -0.5445
vn 0.5314 0.4236 -0.7337
vn 0.5314 0.1471 -0.8343
vn 0.5314 -0.1471 -0.8343
vn 0.5314 -0.4236 -0.7337
vn 0.5314 -0.6490 -0.5445
vn 0.5314 -0.7961 -0.2897
vn -0.5314 -0.7961 0.2897
vn -0.5314 -0.8471 -0.0000
vn -0.5314 -0.6490 0.5445
vn -0.5314 -0.4236 0.7337
vn -0.5314 -0.1471 0.8343
vn -0.5314 0.1471 0.8343
vn -0.5314 0.4236 0.7337
vn -0.5314 0.6490 0.5445
vn -0.5314 0.7961 0.2897
vn -0.5314 0.8471 0.0000
vn -0.5314 0.7961 -0.2897
vn -0.5314 0.6490 -0.5445
vn -0.5314 0.4236 -0.7337
vn -0.5314 0.1471 -0.8343
vn -0.5314 -0.1471 -0.8343
vn -0.5314 -0.4236 -0.7337
vn -0.5314 -0.6490 -0.5445
vn -0.5314 -0.7961 -0.2897
vn -0.9932 -0.1094 0.0398
vn -0.9932 -0.1164 0.0000
vn -0.9932 -0.0892 0.0748
vn -0.9932 -0.0582 0.1008
vn -0.9932 -0.0202 0.1147
vn -0.9932 0.0202 0.1147
vn -0.9932 0.0582 0.1008
vn -0.9932 0.0892 0.0748
vn -0.9932 0.1094 0.0398
vn -0.9932 0.1164 0.0000
vn -0.9932 0.1094 -0.0398
vn -0.9932 0.0892 -0.0748
vn -0.9932 0.0582 -0.1008
vn -0.9932 0.0202 -0.1147
vn -0.9932 -0.0202 -0.1147
vn -0.9932 -0.0582 -0.1008
vn -0.9932 -0.0892 -0.0748
vn -0.9932 -0.1094 -0.0398
vn -1.0000 -0.0000 -0.0000
usemtl _evo_kitcar.png
s 1
f 1/1/1 2/2/2 3/3/3
f 1/1/1 4/4/4 2/2/2
f 1/1/1 5/5/5 4/4/4
f 1/1/1 6/6/6 5/5/5
f 1/1/1 7/7/7 6/6/6
f 1/1/1 8/8/8 7/7/7
f 1/1/1 9/9/9 8/8/8
f 1/1/1 10/10/10 9/9/9
f 1/1/1 11/11/11 10/10/10
f 1/1/1 12/12/12 11/11/11
f 1/1/1 13/13/13 12/12/12
f 1/1/1 14/14/14 13/13/13
f 1/1/1 15/15/15 14/14/14
f 1/1/1 16/16/16 15/15/15
f 1/1/1 17/17/17 16/16/16
f 1/1/1 18/18/18 17/17/17
f 1/1/1 19/19/19 18/18/18
f 1/1/1 3/3/3 19/19/19
f 3/20/3 20/21/20 21/22/21
f 3/20/3 2/23/2 20/21/20
f 2/23/2 22/24/22 20/21/20
f 2/23/2 4/25/4 22/24/22
f 4/25/4 23/26/23 22/24/22
f 4/25/4 5/27/5 23/26/23
f 5/27/5 24/28/24 23/26/23
f 5/27/5 6/29/6 24/28/24
f 6/29/6 25/30/25 24/28/24
f 6/29/6 7/31/7 25/30/25
f 7/31/7 26/32/26 25/30/25
f 7/31/7 8/33/8 26/32/26
f 8/33/8 27/34/27 26/32/26
f 8/33/8 9/35/9 27/34/27
f 9/35/9 28/36/28 27/34/27
f 9/35/9 10/37/10 28/36/28
f 10/37/10 29/38/29 28/36/28
f 10/37/10 11/39/11 29/38/29
f 11/39/11 30/40/30 29/38/29
f 11/39/11 12/41/12 30/40/30
f 12/41/12 31/42/31 30/40/30
f 12/41/12 13/43/13 31/42/31
f 13/43/13 32/44/32 31/42/31
f 13/43/13 14/45/14 32/44/32
f 14/45/14 33/46/33 32/44/32
f 14/45/14 15/47/15 33/46/33
f 15/47/15 34/48/34 33/46/33
f 15/47/15 16/49/16 34/48/34
f 16/49/16 35/50/35 34/48/34
f 16/49/16 17/51/17 35/50/35
f 17/51/17 36/52/36 35/50/35
f 17/51/17 18/53/18 36/52/36
f 18/53/18 37/54/37 36/52/36
f 18/53/18 19/55/19 37/54/37
f 19/55/19 21/22/21 37/54/37
f 19/55/19 3/20/3 21/22/21
f 21/56/21 38/57/38 39/58/39
f 21/56/21 20/59/20 38/57/38
f 20/59/20 40/60/40 38/57/38
f 20/59/20 22/61/22 40/60/40
f 22/61/22 41/62/41 40/60/40
f 22/61/22 23/63/23 41/62/41
f 23/63/23 42/64/42 41/62/41
f 23/63/23 24/65/24 42/64/42
f 24/66/24 43/67/43 42/68/42
f 24/66/24 25/69/25 43/67/43
f 25/69/25 44/70/44 43/67/43
f 25/69/25 26/71/26 44/70/44
f 26/71/26 45/72/45 44/70/44
f 26/71/26 27/73/27 45/72/45
f 27/73/27 46/74/46 45/72/45
f 27/73/27 28/75/28 46/74/46
f 28/75/28 47/76/47 46/74/46
f 28/75/28 29/77/29 47/76/47
f 29/77/29 48/78/48 47/76/47
f 29/77/29 30/79/30 48/78/48
f 30/79/30 49/80/49 48/78/48
f 30/79/30 31/81/31 49/80/49
f 31/81/31 50/82/50 49/80/49
f 31/81/31 32/83/32 50/82/50
f 32/83/32 51/84/51 50/82/50
f 32/83/32 33/85/33 51/84/51
f 33/85/33 52/86/52 51/84/51
f 33/85/33 34/87/34 52/86/52
f 34/87/34 53/88/53 52/86/52
f 34/87/34 35/89/35 53/88/53
f 35/89/35 54/90/54 53/88/53
f 35/89/35 36/91/36 54/90/54
f 36/91/36 55/92/55 54/90/54
f 36/91/36 37/93/37 55/92/55
f 37/93/37 39/58/39 55/92/55
f 37/93/37 21/56/21 39/58/39
f 39/94/39 56/95/56 57/96/57
f 39/94/39 38/97/38 56/95/56
f 38/97/38 58/98/58 56/95/56
f 38/97/38 40/99/40 58/98/58
f 40/99/40 59/100/59 58/98/58
f 40/99/40 41/101/41 59/100/59
f 41/101/41 60/102/60 59/100/59
f 41/101/41 42/103/42 60/102/60
f 42/103/42 61/104/61 60/102/60
f 42/103/42 43/105/43 61/104/61
f 43/105/43 62/106/62 61/104/61
f 43/105/43 44/107/44 62/106/62
f 44/107/44 63/108/63 62/106/62
f 44/107/44 45/109/45 63/108/63
f 45/109/45 64/110/64 63/108/63
f 45/109/45 46/111/46 64/110/64
f 46/111/46 65/112/65 64/110/64
f 46/111/46 47/113/47 65/112/65
f 47/113/47 66/114/66 65/112/65
f 47/113/47 48/115/48 66/114/66
f 48/115/48 67/116/67 66/114/66
f 48/115/48 49/117/49 67/116/67
f 49/117/49 68/118/68 67/116/67
f 49/117/49 50/119/50 68/118/68
f 50/119/50 69/120/69 68/118/68
f 50/119/50 51/121/51 69/120/69
f 51/121/51 70/122/70 69/120/69
f 51/121/51 52/123/52 70/122/70
f 52/123/52 71/124/71 70/122/70
f 52/123/52 53/125/53 71/124/71
f 53/125/53 72/126/72 71/124/71
f 53/125/53 54/127/54 72/126/72
f 54/127/54 73/128/73 72/126/72
f 54/127/54 55/129/55 73/128/73
f 55/129/55 57/96/57 73/128/73
f 55/129/55 39/94/39 57/96/57
f 74/130/74 57/96/57 56/95/56
f 74/130/74 56/95/56 58/98/58
f 74/130/74 58/98/58 59/100/59
f 74/130/74 59/100/59 60/102/60
f 74/130/74 60/102/60 61/104/61
f 74/130/74 61/104/61 62/106/62
f 74/130/74 62/106/62 63/108/63
f 74/130/74 63/108/63 64/110/64
f 74/130/74 64/110/64 65/112/65
f 74/130/74 65/112/65 66/114/66
f 74/130/74 66/114/66 67/116/67
f 74/130/74 67/116/67 68/118/68
f 74/130/74 68/118/68 69/120/69
f 74/130/74 69/120/69 70/122/70
f 74/130/74 70/122/70 71/124/71
f 74/130/74 71/124/71 72/126/72
f 74/130/74 72/126/72 73/128/73
f 74/130/74 73/128/73 57/96/57
