# Blender v3.0.1 OBJ File: ''
# www.blender.org
mtllib evo_kitcar.mtl
o evo.001
v 0.347841 -1.575330 0.008113
v 0.347841 -0.741534 -0.073023
v 0.489829 -0.741534 -0.073023
v 0.489829 -1.575330 0.008113
v 0.489829 -0.817811 0.344829
v 0.489829 -1.470654 0.344829
v 0.347841 -1.470654 0.344829
v 0.347841 -0.817811 0.344829
v -0.490239 -1.575330 0.008113
v -0.490239 -0.741534 -0.073023
v -0.348251 -0.741534 -0.073023
v -0.348251 -1.575330 0.008113
v -0.348251 -0.817811 0.344829
v -0.348251 -1.470654 0.344829
v -0.490239 -1.470654 0.344829
v -0.490239 -0.817811 0.344829
v 0.347841 1.032198 0.072110
v 0.347841 2.056402 -0.142901
v 0.489829 2.056402 -0.142901
v 0.489829 1.032198 0.072110
v 0.489829 1.842323 0.394219
v 0.489829 1.219355 0.437248
v 0.347841 1.219355 0.437248
v 0.347841 1.842323 0.394219
v -0.490239 1.032198 0.072110
v -0.490239 2.056402 -0.142901
v -0.348251 2.056402 -0.142901
v -0.348251 1.032198 0.072110
v -0.348251 1.842323 0.394219
v -0.348251 1.219355 0.437248
v -0.490239 1.219355 0.437248
v -0.490239 1.842323 0.394219
v -0.813183 0.901772 0.601327
v -0.764247 0.895740 0.585215
v -0.774114 0.949961 0.575331
v -0.858302 0.946629 0.600452
v -0.872422 0.888286 0.658172
v -0.902669 0.936477 0.637126
v -0.923013 0.864162 0.683236
v -0.942256 0.921846 0.653297
v -0.983619 0.818616 0.671745
v -0.989012 0.886020 0.648963
v -0.843270 0.906000 0.510525
v -0.877712 0.949357 0.541870
v -0.793002 0.955198 0.516748
v -0.793525 0.903859 0.494412
v -0.924022 0.886033 0.503807
v -0.935959 0.935024 0.537535
v -0.972407 0.849060 0.528871
v -0.974122 0.912103 0.553706
v -1.012674 0.809734 0.580942
v -1.007757 0.880289 0.590380
v 0.776793 0.949961 0.575331
v 0.766926 0.895739 0.585215
v 0.815861 0.901772 0.601327
v 0.860981 0.946629 0.600452
v 0.875101 0.888286 0.658172
v 0.905348 0.936477 0.637126
v 0.925693 0.864161 0.683236
v 0.944934 0.921846 0.653297
v 0.986298 0.818616 0.671745
v 0.991691 0.886020 0.648963
v 0.795681 0.955198 0.516748
v 0.880392 0.949357 0.541870
v 0.845948 0.906000 0.510525
v 0.796204 0.903859 0.494412
v 0.938639 0.935024 0.537535
v 0.926701 0.886033 0.503807
v 0.976801 0.912103 0.553706
v 0.975085 0.849060 0.528871
v 1.010436 0.880289 0.590380
v 1.015353 0.809734 0.580942
v 0.541942 -1.973966 -0.219077
v 0.497317 -2.063966 -0.174452
v 0.478833 -2.063966 -0.219077
v 0.541942 -2.063966 -0.155968
v 0.586566 -2.063964 -0.174452
v 0.605051 -2.063964 -0.219077
v 0.586566 -2.063964 -0.263702
v 0.541942 -2.063966 -0.282186
v 0.497317 -2.063966 -0.263702
v 0.497317 -1.829518 -0.174452
v 0.478833 -1.829518 -0.219077
v 0.541942 -1.829518 -0.155968
v 0.586566 -1.829518 -0.174452
v 0.605051 -1.829518 -0.219077
v 0.586566 -1.829518 -0.263702
v 0.541942 -1.829518 -0.282186
v 0.497317 -1.829518 -0.263702
v 0.408512 -1.816167 -0.170435
v 0.382028 -1.816167 -0.219077
v 0.541941 -1.816167 -0.150288
v 0.675369 -1.816167 -0.170435
v 0.701853 -1.816167 -0.219077
v 0.675369 -1.816167 -0.267717
v 0.541941 -1.816167 -0.287866
v 0.408513 -1.816167 -0.267717
v 0.408512 -1.573607 -0.157463
v 0.382028 -1.573607 -0.173896
v 0.541941 -1.573607 -0.150657
v 0.675369 -1.573606 -0.157463
v 0.701854 -1.573606 -0.173896
v 0.675369 -1.573606 -0.190329
v 0.541941 -1.573607 -0.197136
v 0.408513 -1.573607 -0.190329
v 0.541941 -1.573607 -0.173896
v -0.714385 -1.845278 0.900258
v -0.746864 -1.546943 0.591857
v -0.681931 -1.546943 0.867803
v -0.746864 -1.845276 0.543175
v 0.682237 -1.546943 0.867609
v 0.714407 -1.845278 0.900345
v 0.746973 -1.546943 0.591706
v 0.746973 -1.845277 0.543025
v -0.763099 -1.546943 0.591706
v -0.726556 -1.845278 0.912428
v -0.694101 -1.546943 0.879973
v -0.763099 -1.845276 0.543025
v 0.726470 -1.845278 0.912622
v 0.694301 -1.546943 0.879885
v 0.763210 -1.845277 0.543175
v 0.763210 -1.546943 0.591857
v 0.837182 1.940973 0.094242
v 0.878917 1.940973 -0.261464
v 0.728306 2.250781 -0.227041
v 0.726042 2.250781 0.128665
v 0.837182 1.631164 0.392576
v 0.726042 2.101615 0.346679
v 0.726042 1.527895 0.472897
v 0.837182 1.504946 0.404050
v 0.805078 1.183663 0.530268
v 0.837182 1.309881 0.369628
v 0.903958 -0.778459 0.025395
v 0.837182 -0.801408 -0.192618
v 0.837182 1.057444 -0.215567
v 0.837182 1.183663 0.254883
v 0.837182 -1.937373 -0.146721
v 0.837182 -1.547243 -0.146721
v 0.903958 -1.512821 0.140139
v 0.837182 -2.063592 0.117190
v 0.782575 -2.052117 -0.123772
v 0.837182 -2.017694 0.197511
v 0.865451 -1.803964 0.173223
v 0.808059 -1.730825 0.579227
v 0.782575 -1.971796 0.541742
v 0.837182 -1.455449 0.622063
v 0.886282 -1.409551 0.323729
v 0.886282 -1.088268 0.323729
v 0.663880 -1.157115 0.851552
v 0.663880 0.472250 0.908924
v 0.562902 -0.835832 0.977770
v 0.562902 0.185390 0.989245
v 0.903958 -0.904678 0.231935
v 0.837182 1.103342 -0.146721
v 0.837182 1.114817 0.094242
v 0.329496 2.032768 -0.261464
v 0.329496 2.342577 -0.227041
v 0.329496 2.032768 0.094242
v 0.368867 2.342577 0.128665
v 0.565423 1.990368 0.373976
v -0.006229 1.982499 0.408991
v 0.329496 1.527895 0.512421
v 0.649710 1.799747 0.420653
v 0.329496 1.631164 0.392576
v 0.329496 1.826228 0.312256
v 0.329496 1.504946 0.404050
v 0.316918 1.183663 0.530268
v 0.329496 1.309881 0.369628
v 0.329496 -0.765661 -0.026487
v 0.329496 1.021697 -0.049436
v 0.329496 -0.778459 0.025395
v 0.329496 1.183663 0.254883
v 0.329496 -1.547243 -0.146721
v 0.329496 -1.512821 0.140139
v 0.329496 -1.986054 -0.146721
v 0.329496 -2.100799 -0.123772
v 0.329496 -2.112274 0.117190
v 0.329496 -2.066375 0.197511
v 0.329496 -2.020478 0.541742
v 0.329496 -1.455449 0.622063
v 0.329496 -1.409551 0.323729
v 0.329496 -1.088268 0.323729
v 0.261600 -1.214745 0.874500
v 0.222038 -0.870972 1.000719
v 0.329496 -0.904678 0.231935
v 0.222038 0.221735 1.012193
v 0.261600 0.528675 0.931873
v 0.329496 1.103342 0.033468
v 0.329496 1.114817 0.094242
v -0.873966 1.940973 -0.261464
v -0.832231 1.940973 0.094242
v -0.723355 2.250781 -0.227041
v -0.721091 2.250781 0.128665
v -0.721091 2.101615 0.346679
v -0.832231 1.826228 0.312256
v -0.832231 1.631164 0.392576
v -0.721091 1.527895 0.472897
v -0.800126 1.183663 0.530268
v -0.832231 1.504946 0.404050
v -0.832231 1.309881 0.369628
v -0.832231 -0.801408 -0.192618
v -0.899007 -0.778459 0.025395
v -0.832231 1.057444 -0.215567
v -0.832231 1.183663 0.254883
v -0.832231 -1.547243 -0.146721
v -0.832231 -1.937373 -0.146721
v -0.899007 -1.512821 0.140139
v -0.777624 -2.052117 -0.123772
v -0.832231 -2.063592 0.117190
v -0.832231 -2.017694 0.197511
v -0.864732 -1.771962 0.169587
v -0.777624 -1.971796 0.541742
v -0.802874 -1.733035 0.578883
v -0.832231 -1.455449 0.622063
v -0.881331 -1.409551 0.323729
v -0.881331 -1.088268 0.323729
v -0.899007 -0.904678 0.231935
v -0.658930 0.472250 0.908924
v -0.658929 -1.157115 0.851552
v -0.557952 -0.835832 0.977770
v -0.557952 0.185390 0.989245
v -0.832231 1.103342 -0.146721
v -0.832231 1.114817 0.094242
v -0.324545 2.032768 -0.261464
v -0.324545 2.342577 -0.227041
v -0.324545 2.032768 0.094242
v -0.363657 2.342577 0.128665
v -0.572782 1.979380 0.380342
v -0.647212 1.773715 0.444075
v -0.324545 1.527895 0.512421
v -0.324545 1.631164 0.392576
v -0.324545 1.826228 0.312256
v -0.324545 1.504946 0.404050
v -0.311967 1.183663 0.530268
v -0.324545 1.309881 0.369628
v -0.324545 -0.765661 -0.026487
v -0.324545 1.021697 -0.049436
v -0.324545 -0.778459 0.025395
v -0.324545 1.183663 0.254883
v -0.324545 -1.547243 -0.146721
v -0.324545 -1.512821 0.140139
v -0.324545 -1.986054 -0.146721
v -0.324545 -2.100799 -0.123772
v -0.324545 -2.112274 0.117190
v -0.324545 -2.066375 0.197511
v -0.324545 -2.020478 0.541742
v -0.324545 -1.455449 0.622063
v -0.324545 -1.409551 0.323729
v -0.324545 -1.088268 0.323729
v -0.256650 -1.214745 0.874500
v -0.217089 -0.870972 1.000719
v -0.324545 -0.904678 0.231935
v -0.217089 0.221735 1.012193
v -0.256650 0.528675 0.931873
v -0.324545 1.103342 0.033468
v -0.324545 1.114817 0.094242
v -0.148996 0.308234 1.036438
v 0.149730 0.308234 1.036438
v -0.175909 0.501584 1.036565
v 0.176642 0.501584 1.036565
v -0.454920 2.193409 0.346679
v 0.460737 2.193409 0.346679
v -0.174090 1.738556 0.464138
v 0.837182 1.826228 0.312256
v -0.075929 -1.170803 0.001333
v -0.038416 -0.866747 -0.072690
v -0.075929 -0.879702 -0.136359
v -0.038416 -1.144375 0.060690
v 0.036610 -0.866747 -0.072690
v 0.036610 -1.144375 0.060690
v 0.074123 -0.879702 -0.136359
v 0.074123 -1.170803 0.001332
v 0.036610 -0.892656 -0.200030
v 0.036610 -1.197230 -0.058024
v -0.038416 -0.892656 -0.200030
v -0.038416 -1.197230 -0.058024
v -0.038416 1.190738 -0.072804
v -0.075929 1.204247 -0.136359
v 0.036610 1.190738 -0.072804
v 0.074123 1.204247 -0.136359
v 0.036610 1.217756 -0.199914
v -0.038416 1.217756 -0.199913
v -0.038416 1.478609 0.056733
v -0.075929 1.512558 0.001334
v 0.036610 1.478609 0.056733
v 0.074123 1.512559 0.001334
v 0.036610 1.546508 -0.054066
v -0.038416 1.546508 -0.054066
v 0.778908 1.463716 -0.029823
v 0.172684 1.495788 0.025727
v 0.172684 1.463716 -0.029823
v 0.778908 1.495788 0.025727
v 0.172684 1.559932 0.025727
v 0.778908 1.559932 0.025727
v 0.172684 1.592004 -0.029823
v 0.778908 1.592004 -0.029823
v 0.172684 1.559932 -0.085373
v 0.778908 1.559932 -0.085373
v 0.172684 1.495788 -0.085373
v 0.778908 1.495788 -0.085373
v 0.153540 1.447360 0.109607
v 0.153540 1.366859 -0.029823
v 0.153540 1.608361 0.109607
v 0.153540 1.688861 -0.029823
v 0.153540 1.608361 -0.169254
v 0.153540 1.447360 -0.169254
v -0.156243 1.447360 0.109607
v -0.156243 1.366859 -0.029823
v -0.156243 1.608361 0.109607
v -0.156243 1.688861 -0.029823
v -0.156243 1.608361 -0.169254
v -0.156243 1.447360 -0.169254
v -0.175386 1.495788 0.025727
v -0.175386 1.463716 -0.029823
v -0.175386 1.559932 0.025727
v -0.175386 1.592004 -0.029823
v -0.175386 1.559932 -0.085373
v -0.175386 1.495788 -0.085373
v -0.781609 1.495788 0.025727
v -0.781609 1.463716 -0.029823
v -0.781609 1.559932 0.025727
v -0.781609 1.592004 -0.029823
v -0.781609 1.559932 -0.085373
v -0.781609 1.495788 -0.085373
v 0.778908 -1.232889 -0.029823
v 0.172684 -1.200818 0.025727
v 0.172684 -1.232889 -0.029823
v 0.778908 -1.200818 0.025727
v 0.172684 -1.136673 0.025727
v 0.778908 -1.136673 0.025727
v 0.172684 -1.104602 -0.029823
v 0.778908 -1.104602 -0.029823
v 0.172684 -1.136673 -0.085374
v 0.778908 -1.136673 -0.085374
v 0.172684 -1.200818 -0.085374
v 0.778908 -1.200818 -0.085374
v 0.153540 -1.249246 0.109607
v 0.153540 -1.329746 -0.029823
v 0.153540 -1.088245 0.109607
v 0.153540 -1.007745 -0.029823
v 0.153540 -1.088245 -0.169255
v 0.153540 -1.249246 -0.169255
v -0.156243 -1.249246 0.109607
v -0.156243 -1.329746 -0.029823
v -0.156243 -1.088245 0.109607
v -0.156243 -1.007745 -0.029823
v -0.156243 -1.088245 -0.169255
v -0.156243 -1.249246 -0.169255
v -0.175386 -1.200818 0.025727
v -0.175386 -1.232889 -0.029823
v -0.175386 -1.136673 0.025727
v -0.175386 -1.104602 -0.029823
v -0.175386 -1.136673 -0.085374
v -0.175386 -1.200818 -0.085374
v -0.781609 -1.200818 0.025727
v -0.781609 -1.232889 -0.029823
v -0.781609 -1.136673 0.025727
v -0.781609 -1.104602 -0.029823
v -0.781609 -1.136673 -0.085374
v -0.781609 -1.200818 -0.085374
v 0.320227 1.196022 0.454461
v -0.315224 1.196022 0.454461
v -0.327934 -1.470646 0.547215
v -0.808481 1.196022 0.454461
v -0.840920 -1.470646 0.547215
v 0.332936 -1.470646 0.547215
v 0.845923 -1.470646 0.547215
v 0.813484 1.196022 0.454461
v -0.645059 0.775301 0.525448
v -0.401857 1.098101 0.496553
v -0.401848 1.098096 0.367853
v -0.173848 0.688895 0.367885
v -0.173867 0.688905 0.626785
v 0.184433 0.688905 0.626811
v 0.655541 0.775301 0.525542
v 0.184452 0.688895 0.367911
v 0.412452 1.098096 0.367912
v 0.412443 1.098101 0.496612
v 0.140941 1.155501 0.525290
v -0.130459 1.155501 0.525270
v -0.645043 0.775292 0.303748
v 0.655557 0.775292 0.303842
v -0.522163 -0.822082 0.737208
v -0.555645 -0.759492 0.483903
v -0.551744 -0.802993 0.475005
v -0.544364 -0.866283 0.738408
v -0.003966 -0.873282 0.767847
v -0.003764 -0.822782 0.747445
v -0.002245 -0.754593 0.484943
v -0.519231 -0.700100 0.281203
v -0.000730 -0.696101 0.271841
v -0.000527 -0.732601 0.233642
v -0.524129 -0.739701 0.262904
v 0.569537 -0.822082 0.737587
v 0.591636 -0.866283 0.738790
v 0.594555 -0.802993 0.475288
v 0.605955 -0.759492 0.484087
v 0.555670 -0.700100 0.281281
v 0.560671 -0.739701 0.262983
v -0.522162 -0.905884 0.720111
v -0.530044 -0.846493 0.466208
v -0.002244 -0.851292 0.465346
v -0.003763 -0.909783 0.729748
v -0.502029 -0.783900 0.264108
v -0.000729 -0.783200 0.254144
v 0.569538 -0.905884 0.720490
v 0.563656 -0.846493 0.466387
v 0.538471 -0.783900 0.264283
v -0.597662 -0.028620 0.622758
v -0.622945 0.020272 0.390454
v -0.647944 -0.023228 0.381654
v -0.606162 -0.072420 0.623259
v -0.400764 -0.077819 0.650174
v -0.400462 -0.028919 0.632172
v -0.398045 0.025171 0.391571
v -0.631528 0.066062 0.157552
v -0.395527 0.069463 0.148969
v -0.395225 0.031361 0.113271
v -0.639827 0.025963 0.140053
v -0.203062 -0.028620 0.623087
v -0.194862 -0.072420 0.623489
v -0.148044 -0.023228 0.381790
v -0.173045 0.020272 0.390687
v -0.159728 0.066062 0.157586
v -0.151327 0.025963 0.140088
v -0.597660 -0.112421 0.605761
v -0.622944 -0.066730 0.372758
v -0.398044 -0.071530 0.371874
v -0.400461 -0.115920 0.614476
v -0.631527 -0.017738 0.140555
v -0.395526 -0.017539 0.131272
v -0.203060 -0.112421 0.606090
v -0.173044 -0.066730 0.372990
v -0.159727 -0.017738 0.140589
v -0.492179 -0.069271 0.828533
v -0.503174 -0.051674 0.749632
v -0.515473 -0.090374 0.741732
v -0.496179 -0.107071 0.823934
v -0.391880 -0.108970 0.833142
v -0.391980 -0.068370 0.831841
v -0.392474 -0.047374 0.750540
v -0.506068 -0.037077 0.670231
v -0.393068 -0.034977 0.667439
v -0.393166 -0.071777 0.650441
v -0.510167 -0.073677 0.659632
v -0.291779 -0.069271 0.828548
v -0.287679 -0.107071 0.823949
v -0.269573 -0.090374 0.741750
v -0.281874 -0.051674 0.749648
v -0.280068 -0.037077 0.670247
v -0.275967 -0.073677 0.659649
v -0.492178 -0.143671 0.813336
v -0.503172 -0.129074 0.733935
v -0.392472 -0.133374 0.733043
v -0.391978 -0.145771 0.816143
v -0.506067 -0.111477 0.655034
v -0.393067 -0.112277 0.651742
v -0.291778 -0.143671 0.813351
v -0.281872 -0.129074 0.733951
v -0.280067 -0.111477 0.655050
v 0.285921 -0.068471 0.823289
v 0.273527 -0.051174 0.744488
v 0.261127 -0.090374 0.736588
v 0.281821 -0.106571 0.818791
v 0.386021 -0.103471 0.827898
v 0.386021 -0.062871 0.826697
v 0.385327 -0.041874 0.745396
v 0.269433 -0.036277 0.665087
v 0.384733 -0.029477 0.662295
v 0.384634 -0.066278 0.645297
v 0.265333 -0.073077 0.654388
v 0.486021 -0.058971 0.823303
v 0.490121 -0.096671 0.818805
v 0.509527 -0.079374 0.736606
v 0.497127 -0.041274 0.744504
v 0.500033 -0.026777 0.665103
v 0.504133 -0.063177 0.654405
v 0.285922 -0.142971 0.808192
v 0.273528 -0.128474 0.728791
v 0.385328 -0.127874 0.727899
v 0.386022 -0.140271 0.810900
v 0.269434 -0.110777 0.649890
v 0.384734 -0.106878 0.646598
v 0.486022 -0.133471 0.808206
v 0.497128 -0.118574 0.728807
v 0.500034 -0.101277 0.649906
v 0.195939 -0.028620 0.617916
v 0.163356 0.020272 0.385511
v 0.138856 -0.023228 0.376611
v 0.187839 -0.072420 0.618317
v 0.384537 -0.077819 0.645231
v 0.384438 -0.028919 0.627229
v 0.383455 0.025171 0.386527
v 0.146972 0.066062 0.152408
v 0.382473 0.069463 0.143825
v 0.382376 0.031360 0.108127
v 0.138774 0.025961 0.134909
v 0.572839 -0.028620 0.617943
v 0.581039 -0.072420 0.618345
v 0.628056 -0.023228 0.376647
v 0.603655 0.020272 0.385543
v 0.618072 0.066062 0.152442
v 0.626274 0.025961 0.134944
v 0.195940 -0.112421 0.600819
v 0.163357 -0.066730 0.367815
v 0.383457 -0.071530 0.366831
v 0.384439 -0.115920 0.609532
v 0.146974 -0.017738 0.135312
v 0.382474 -0.017539 0.126129
v 0.572840 -0.112421 0.600846
v 0.603657 -0.066730 0.367846
v 0.618074 -0.017738 0.135346
vt 0.240234 0.568359
vt 0.240234 0.568359
vt 0.240234 0.568359
vt 0.240234 0.568359
vt 0.240234 0.568359
vt 0.240234 0.568359
vt 0.240234 0.568359
vt 0.240234 0.568359
vt 0.450677 0.630284
vt 0.497504 0.617235
vt 0.497676 0.598623
vt 0.542137 0.587877
vt 0.542137 0.594926
vt 0.524089 0.593934
vt 0.555860 0.594926
vt 0.573908 0.593934
vt 0.555860 0.587877
vt 0.499044 0.598623
vt 0.498873 0.617235
vt 0.452046 0.630284
vt 0.474792 0.580600
vt 0.482287 0.585676
vt 0.484295 0.575840
vt 0.473469 0.569268
vt 0.473469 0.574935
vt 0.474792 0.563601
vt 0.484295 0.568361
vt 0.450954 0.598215
vt 0.524089 0.587900
vt 0.573908 0.587900
vt 0.452323 0.598215
vt 0.482287 0.558524
vt 0.488070 0.919772
vt 0.505888 0.919772
vt 0.505888 0.898700
vt 0.523706 0.919772
vt 0.523706 0.898700
vt 0.505888 0.898700
vt 0.523706 0.898700
vt 0.505892 0.899248
vt 0.488070 0.919772
vt 0.505888 0.919772
vt 0.505888 0.898700
vt 0.523706 0.919772
vt 0.523706 0.898700
vt 0.488070 0.919772
vt 0.505888 0.919772
vt 0.523706 0.919772
vt 0.523706 0.898700
vt 0.505888 0.898700
vt 0.523706 0.877628
vt 0.505888 0.877628
vt 0.488070 0.919772
vt 0.505888 0.919772
vt 0.523706 0.919772
vt 0.523706 0.898700
vt 0.488070 0.877628
vt 0.488070 0.898700
vt 0.488070 0.877628
vt 0.488070 0.898700
vt 0.488070 0.919772
vt 0.505888 0.919772
vt 0.505927 0.899193
vt 0.523706 0.877628
vt 0.505888 0.877628
vt 0.488070 0.877628
vt 0.488070 0.898700
vt 0.523706 0.919772
vt 0.523706 0.898700
vt 0.523706 0.877628
vt 0.505888 0.877628
vt 0.488070 0.877628
vt 0.488070 0.898700
vt 0.488070 0.898700
vt 0.523706 0.877628
vt 0.505888 0.877628
vt 0.523706 0.877628
vt 0.505888 0.877628
vt 0.488070 0.877628
vt 0.488070 0.898700
vt 0.487042 0.919713
vt 0.505325 0.919713
vt 0.505325 0.899624
vt 0.523608 0.919713
vt 0.523608 0.899624
vt 0.505325 0.899624
vt 0.523608 0.899624
vt 0.505329 0.901569
vt 0.487042 0.919713
vt 0.505325 0.919713
vt 0.505325 0.899624
vt 0.523608 0.919713
vt 0.523608 0.899624
vt 0.487042 0.919713
vt 0.505325 0.919713
vt 0.523608 0.919713
vt 0.523608 0.899624
vt 0.505325 0.899624
vt 0.523608 0.879535
vt 0.505325 0.879535
vt 0.487042 0.919713
vt 0.505325 0.919713
vt 0.523608 0.919713
vt 0.523608 0.899624
vt 0.487042 0.879535
vt 0.487042 0.899624
vt 0.487042 0.879535
vt 0.487042 0.899624
vt 0.487042 0.919713
vt 0.505325 0.919713
vt 0.505497 0.901376
vt 0.523608 0.879535
vt 0.505325 0.879535
vt 0.487042 0.879535
vt 0.487042 0.899624
vt 0.523608 0.919713
vt 0.523608 0.899624
vt 0.523608 0.879535
vt 0.505325 0.879535
vt 0.487042 0.879535
vt 0.487042 0.899624
vt 0.487042 0.899624
vt 0.523608 0.879535
vt 0.505325 0.879535
vt 0.523608 0.879535
vt 0.505325 0.879535
vt 0.487042 0.879535
vt 0.487042 0.899624
vt 0.487042 0.919713
vt 0.505325 0.919713
vt 0.505325 0.899624
vt 0.523608 0.919713
vt 0.523608 0.899624
vt 0.505325 0.899624
vt 0.523608 0.899624
vt 0.505325 0.900983
vt 0.487042 0.919713
vt 0.505325 0.919713
vt 0.505325 0.899624
vt 0.523608 0.919713
vt 0.523608 0.899624
vt 0.487042 0.899624
vt 0.487042 0.919713
vt 0.505325 0.919713
vt 0.523608 0.919713
vt 0.523608 0.899624
vt 0.505325 0.899624
vt 0.523608 0.879535
vt 0.505325 0.879535
vt 0.487042 0.919713
vt 0.505325 0.919713
vt 0.523608 0.919713
vt 0.523608 0.899624
vt 0.487042 0.879535
vt 0.487042 0.879535
vt 0.487042 0.899624
vt 0.487042 0.919713
vt 0.505325 0.919713
vt 0.505450 0.900846
vt 0.523608 0.879535
vt 0.505325 0.879535
vt 0.487042 0.879535
vt 0.487042 0.899624
vt 0.523608 0.919713
vt 0.523608 0.899624
vt 0.523608 0.879535
vt 0.505325 0.879535
vt 0.487042 0.879535
vt 0.487042 0.899624
vt 0.487042 0.899624
vt 0.523608 0.879535
vt 0.505325 0.879535
vt 0.523608 0.879535
vt 0.505325 0.879535
vt 0.487042 0.879535
vt 0.487042 0.899624
vt 0.487692 0.919342
vt 0.504200 0.919342
vt 0.504200 0.903555
vt 0.520707 0.919342
vt 0.520707 0.903555
vt 0.504200 0.903555
vt 0.520707 0.903555
vt 0.504187 0.904792
vt 0.487692 0.919342
vt 0.504200 0.919342
vt 0.504200 0.903555
vt 0.520707 0.919342
vt 0.520707 0.903555
vt 0.487692 0.903555
vt 0.487692 0.919342
vt 0.504200 0.919342
vt 0.520707 0.919342
vt 0.520707 0.903555
vt 0.504200 0.903555
vt 0.520707 0.887767
vt 0.504200 0.887767
vt 0.487692 0.919342
vt 0.504200 0.919342
vt 0.520707 0.919342
vt 0.520707 0.903555
vt 0.487692 0.887767
vt 0.487692 0.887767
vt 0.487692 0.903555
vt 0.487692 0.919342
vt 0.504200 0.919342
vt 0.504345 0.904669
vt 0.520707 0.887767
vt 0.504200 0.887767
vt 0.487692 0.887767
vt 0.487692 0.903555
vt 0.520707 0.919342
vt 0.520707 0.903555
vt 0.520707 0.887767
vt 0.504200 0.887767
vt 0.487692 0.887767
vt 0.487692 0.903555
vt 0.487692 0.903555
vt 0.520707 0.887767
vt 0.504200 0.887767
vt 0.520707 0.887767
vt 0.504200 0.887767
vt 0.487692 0.887767
vt 0.487692 0.903555
vt 0.487692 0.919342
vt 0.504200 0.919342
vt 0.504200 0.903555
vt 0.520707 0.919342
vt 0.520707 0.903555
vt 0.504200 0.903555
vt 0.520707 0.903555
vt 0.504200 0.905418
vt 0.487692 0.919342
vt 0.504200 0.919342
vt 0.504200 0.903555
vt 0.520707 0.919342
vt 0.520707 0.903555
vt 0.487692 0.903555
vt 0.487692 0.919342
vt 0.504200 0.919342
vt 0.520707 0.919342
vt 0.520707 0.903555
vt 0.504200 0.903555
vt 0.520707 0.887767
vt 0.504200 0.887767
vt 0.487692 0.919342
vt 0.504200 0.919342
vt 0.520707 0.919342
vt 0.520707 0.903555
vt 0.487692 0.887767
vt 0.487692 0.887767
vt 0.487692 0.903555
vt 0.487692 0.919342
vt 0.504200 0.919342
vt 0.504394 0.905231
vt 0.520707 0.887767
vt 0.504200 0.887767
vt 0.487692 0.887767
vt 0.487692 0.903555
vt 0.520707 0.919342
vt 0.520707 0.903555
vt 0.520707 0.887767
vt 0.504200 0.887767
vt 0.487692 0.887767
vt 0.487692 0.903555
vt 0.487692 0.903555
vt 0.520707 0.887767
vt 0.504200 0.887767
vt 0.520707 0.887767
vt 0.504200 0.887767
vt 0.487692 0.887767
vt 0.487692 0.903555
vt 0.505858 0.597835
vt 0.505985 0.639318
vt 0.498944 0.639340
vt 0.498817 0.597857
vt 0.506175 0.639381
vt 0.506097 0.597835
vt 0.526366 0.603569
vt 0.523292 0.635799
vt 0.478547 0.597835
vt 0.478468 0.639381
vt 0.461352 0.635799
vt 0.458277 0.603569
vt 0.564518 0.597778
vt 0.564645 0.639261
vt 0.557604 0.639283
vt 0.557476 0.597800
vt 0.526445 0.639381
vt 0.526366 0.597835
vt 0.546636 0.603569
vt 0.543561 0.635799
vt 0.498817 0.597835
vt 0.498738 0.639381
vt 0.481622 0.635799
vt 0.478547 0.603569
vt 0.557317 0.597778
vt 0.557476 0.649600
vt 0.550435 0.649622
vt 0.550276 0.597800
vt 0.502528 0.597835
vt 0.502457 0.545935
vt 0.526366 0.561765
vt 0.522149 0.592445
vt 0.550276 0.545935
vt 0.550205 0.597835
vt 0.530583 0.592445
vt 0.526366 0.561765
vt 0.557317 0.545935
vt 0.557476 0.597757
vt 0.550435 0.597778
vt 0.550276 0.545957
vt 0.478618 0.597835
vt 0.478547 0.545935
vt 0.502457 0.561765
vt 0.498240 0.592445
vt 0.478547 0.545935
vt 0.478476 0.597835
vt 0.458854 0.592445
vt 0.454637 0.561765
vt 0.160940 0.469314
vt 0.152807 0.450907
vt 0.173606 0.447011
vt 0.183327 0.479564
vt 0.159597 0.500388
vt 0.182977 0.501777
vt 0.156930 0.523935
vt 0.182698 0.519162
vt 0.152930 0.546298
vt 0.178865 0.537300
vt 0.104906 0.467877
vt 0.082277 0.476156
vt 0.090762 0.447011
vt 0.111994 0.451460
vt 0.107427 0.491567
vt 0.083975 0.493343
vt 0.111689 0.516545
vt 0.085954 0.511148
vt 0.112131 0.545640
vt 0.087278 0.533785
vt 0.122179 0.507722
vt 0.146033 0.505827
vt 0.149007 0.538212
vt 0.125260 0.540611
vt 0.112131 0.486753
vt 0.152807 0.484425
vt 0.112225 0.468623
vt 0.152807 0.466892
vt 0.120240 0.448029
vt 0.144112 0.447011
vt 0.093838 0.556016
vt 0.075476 0.540479
vt 0.012884 0.518457
vt 0.075476 0.525181
vt 0.060589 0.548975
vt 0.023771 0.545020
vt 0.012761 0.493860
vt 0.075454 0.501439
vt 0.028755 0.465790
vt 0.065478 0.471021
vt 0.067718 0.452989
vt 0.031207 0.447011
vt 0.173047 0.450769
vt 0.152482 0.454622
vt 0.160524 0.472822
vt 0.182659 0.482957
vt 0.159195 0.503546
vt 0.182313 0.504920
vt 0.156559 0.526828
vt 0.182037 0.522108
vt 0.152604 0.548940
vt 0.178247 0.540043
vt 0.090653 0.447907
vt 0.082264 0.476725
vt 0.104639 0.468538
vt 0.111647 0.452307
vt 0.083943 0.493718
vt 0.107131 0.491962
vt 0.085899 0.511323
vt 0.111345 0.516659
vt 0.087208 0.533705
vt 0.111782 0.545427
vt 0.148894 0.537931
vt 0.145954 0.505911
vt 0.122368 0.507784
vt 0.125414 0.540302
vt 0.152651 0.484749
vt 0.112433 0.487051
vt 0.152652 0.467414
vt 0.112526 0.469125
vt 0.144054 0.447756
vt 0.120451 0.448762
vt 0.075539 0.540323
vt 0.093695 0.555686
vt 0.061302 0.548940
vt 0.076021 0.525414
vt 0.014133 0.518764
vt 0.024897 0.545028
vt 0.076000 0.501938
vt 0.014012 0.494444
vt 0.066136 0.471862
vt 0.029827 0.466690
vt 0.068351 0.454033
vt 0.032251 0.448122
vt 0.033490 0.612593
vt 0.024869 0.629823
vt 0.021273 0.611977
vt 0.033490 0.637478
vt 0.042019 0.630554
vt 0.045525 0.613270
vt 0.042019 0.595650
vt 0.033490 0.587857
vt 0.024869 0.594555
vt 0.037153 0.621538
vt 0.033154 0.601548
vt 0.046723 0.630186
vt 0.056166 0.622559
vt 0.060039 0.603351
vt 0.056166 0.583678
vt 0.046723 0.574841
vt 0.037153 0.582151
vt 0.018426 0.621924
vt 0.012523 0.599709
vt 0.047571 0.632246
vt 0.075569 0.624950
vt 0.080974 0.604334
vt 0.075569 0.582922
vt 0.047571 0.571527
vt 0.018426 0.578224
vt 0.032311 0.617471
vt 0.025599 0.608630
vt 0.065246 0.622794
vt 0.096511 0.621590
vt 0.102500 0.614053
vt 0.096511 0.605481
vt 0.065246 0.599369
vt 0.032311 0.600523
vt 0.065246 0.611065
vt 0.417930 0.658213
vt 0.372285 0.670050
vt 0.423191 0.670050
vt 0.371329 0.658214
vt 0.580186 0.666013
vt 0.579695 0.658437
vt 0.625203 0.669688
vt 0.625699 0.660347
vt 0.336467 0.705210
vt 0.375760 0.668207
vt 0.371987 0.704992
vt 0.330243 0.668487
vt 0.391529 0.674373
vt 0.575660 0.674373
vt 0.571584 0.712179
vt 0.395642 0.712179
vt 0.636362 0.674373
vt 0.636362 0.712179
vt 0.330816 0.657704
vt 0.364684 0.657972
vt 0.365715 0.659229
vt 0.330651 0.659229
vt 0.393071 0.674373
vt 0.574131 0.674373
vt 0.340733 0.658439
vt 0.361139 0.657905
vt 0.351109 0.658811
vt 0.578258 0.674373
vt 0.330651 0.659229
vt 0.365720 0.659229
vt 0.364679 0.660478
vt 0.330994 0.660478
vt 0.357763 0.660595
vt 0.358626 0.661973
vt 0.330651 0.661973
vt 0.570055 0.712179
vt 0.397184 0.712179
vt 0.364351 0.658019
vt 0.332850 0.659574
vt 0.347486 0.661735
vt 0.357835 0.661973
vt 0.331097 0.663440
vt 0.330651 0.661973
vt 0.330852 0.712179
vt 0.657702 0.936559
vt 0.649692 0.868292
vt 0.678597 0.874898
vt 0.679032 0.943165
vt 0.740181 0.144109
vt 0.833479 0.135007
vt 0.719702 0.160038
vt 0.715150 0.146385
vt 0.651435 0.171416
vt 0.676466 0.139558
vt 0.262316 0.071291
vt 0.257764 0.028056
vt 0.626404 0.023505
vt 0.651435 0.116802
vt 0.032485 0.037158
vt 0.109854 0.037158
vt 0.116680 0.094047
vt 0.007454 0.089496
vt 0.009729 0.041709
vt 0.016556 0.105425
vt 0.058942 0.100608
vt 0.984343 0.861666
vt 0.972376 0.854119
vt 0.983370 0.784815
vt 0.995897 0.779926
vt 0.128058 0.189620
vt 0.137160 0.130456
vt 0.200876 0.130456
vt 0.187222 0.235131
vt 0.510351 0.246509
vt 0.250938 0.260162
vt 0.453462 0.262438
vt 0.237284 0.112251
vt 0.977127 0.234630
vt 0.975284 0.231191
vt 0.972830 0.219134
vt 0.637782 0.084945
vt 0.972704 0.141745
vt 0.942556 0.139744
vt 0.941677 0.122804
vt 0.043254 0.328010
vt 0.102889 0.302237
vt 0.151429 0.328010
vt 0.969391 0.160583
vt 0.942179 0.158934
vt 0.755137 0.874898
vt 0.747581 0.943165
vt 0.056134 0.689636
vt 0.166517 0.691156
vt 0.101690 0.778937
vt 0.039859 0.726444
vt 0.025120 0.778937
vt 0.025120 0.668155
vt 0.969959 0.184869
vt 0.942960 0.186267
vt 0.942619 0.174888
vt 0.970207 0.191446
vt 0.943211 0.193237
vt 0.104119 0.845406
vt 0.009859 0.845406
vt 0.970833 0.201721
vt 0.943680 0.204209
vt 0.977126 0.344257
vt 0.945542 0.344214
vt 0.945519 0.235770
vt 0.977091 0.355829
vt 0.945241 0.348260
vt 0.971611 0.210387
vt 0.944230 0.213940
vt 0.968058 0.419438
vt 0.941693 0.418633
vt 0.942101 0.403371
vt 0.971984 0.404684
vt 0.967605 0.439670
vt 0.941173 0.441578
vt 0.964661 0.445692
vt 0.941036 0.447762
vt 0.983370 0.768645
vt 0.881158 0.768645
vt 0.881158 0.720132
vt 0.972376 0.720132
vt 0.881158 0.784815
vt 0.881158 0.854119
vt 0.906166 0.599741
vt 0.824007 0.599741
vt 0.824007 0.508303
vt 0.897329 0.516181
vt 0.901453 0.555177
vt 0.942470 0.392071
vt 0.971493 0.393938
vt 0.943237 0.374546
vt 0.972620 0.377611
vt 0.879105 0.648251
vt 0.814004 0.638925
vt 0.824992 0.599972
vt 0.907151 0.599972
vt 0.862764 0.700244
vt 0.807602 0.694558
vt 0.943995 0.362770
vt 0.974775 0.367692
vt 0.375792 0.801849
vt 0.435710 0.795460
vt 0.435710 0.987543
vt 0.375792 0.981366
vt 0.358041 0.751424
vt 0.428756 0.741505
vt 0.009927 0.846876
vt 0.104064 0.846876
vt 0.114731 0.973184
vt 0.037156 0.984065
vt 0.945160 0.228354
vt 0.944993 0.224256
vt 0.986105 0.868292
vt 0.978096 0.936559
vt 0.957200 0.874898
vt 0.956766 0.943165
vt 0.956766 0.985006
vt 0.978096 0.978400
vt 0.004810 0.393135
vt 0.099169 0.402340
vt 0.119882 0.418450
vt 0.188925 0.429958
vt 0.124485 0.404642
vt 0.163609 0.397737
vt 0.587075 0.284967
vt 0.582472 0.328694
vt 0.214241 0.280364
vt 0.188925 0.374723
vt 0.736668 0.294172
vt 0.814917 0.294172
vt 0.729764 0.351709
vt 0.837932 0.298775
vt 0.840233 0.347106
vt 0.831028 0.363216
vt 0.781741 0.357615
vt 0.073447 0.181125
vt 0.658264 0.854119
vt 0.645368 0.861596
vt 0.632914 0.779194
vt 0.647270 0.784815
vt 0.718257 0.448369
vt 0.709051 0.388531
vt 0.644611 0.388531
vt 0.607788 0.370120
vt 0.331615 0.505905
vt 0.658419 0.494398
vt 0.593979 0.519714
vt 0.389151 0.522015
vt 0.876045 0.231195
vt 0.874174 0.234565
vt 0.878529 0.219314
vt 0.202734 0.342503
vt 0.906770 0.140465
vt 0.877070 0.143462
vt 0.906959 0.123701
vt 0.091794 0.328010
vt 0.151429 0.353784
vt 0.043254 0.353784
vt 0.907786 0.159480
vt 0.880950 0.161917
vt 0.880661 0.874898
vt 0.888167 0.943165
vt 0.275914 0.691758
vt 0.290286 0.731470
vt 0.227981 0.778937
vt 0.304551 0.668155
vt 0.907689 0.186620
vt 0.881024 0.185775
vt 0.907782 0.175324
vt 0.907560 0.193535
vt 0.880907 0.192192
vt 0.304551 0.778937
vt 0.225552 0.845406
vt 0.319813 0.845406
vt 0.907246 0.204428
vt 0.880426 0.202259
vt 0.905165 0.344054
vt 0.873723 0.343891
vt 0.905640 0.235765
vt 0.905413 0.348071
vt 0.873724 0.355326
vt 0.906795 0.214093
vt 0.879722 0.210741
vt 0.907562 0.418064
vt 0.881475 0.418084
vt 0.907585 0.402903
vt 0.878004 0.403452
vt 0.907274 0.440815
vt 0.881268 0.438048
vt 0.907157 0.446850
vt 0.883984 0.444073
vt 0.749481 0.768645
vt 0.647270 0.768645
vt 0.749481 0.720132
vt 0.658264 0.720132
vt 0.749481 0.784815
vt 0.749481 0.854119
vt 0.718164 0.599741
vt 0.636005 0.599741
vt 0.718164 0.508303
vt 0.644842 0.516181
vt 0.640756 0.554819
vt 0.907487 0.391675
vt 0.878744 0.392909
vt 0.907061 0.374240
vt 0.877932 0.376809
vt 0.730136 0.638925
vt 0.665036 0.648251
vt 0.719149 0.599972
vt 0.636990 0.599972
vt 0.736538 0.694558
vt 0.681377 0.700244
vt 0.906483 0.362520
vt 0.875927 0.367036
vt 0.512903 0.795460
vt 0.572822 0.801849
vt 0.512903 0.987543
vt 0.572822 0.981366
vt 0.519857 0.741505
vt 0.590572 0.751424
vt 0.225338 0.846876
vt 0.319474 0.846876
vt 0.214670 0.973184
vt 0.292246 0.984065
vt 0.905968 0.228401
vt 0.906101 0.224345
vt 0.500933 0.780255
vt 0.448421 0.780255
vt 0.505664 0.746267
vt 0.443690 0.746267
vt 0.905682 0.985006
vt 0.729949 0.985006
vt 0.198929 0.738259
vt 0.076349 0.650430
vt 0.253156 0.650430
vt 0.881146 0.174838
vt 0.060045 0.386230
vt 0.443584 0.746477
vt 0.428497 0.727886
vt 0.520530 0.727886
vt 0.506191 0.746477
vt 0.657702 0.978400
vt 0.679032 0.985006
vt 0.969566 0.173724
vt 0.778866 0.128180
vt 0.413552 0.635230
vt 0.390088 0.629910
vt 0.391073 0.624734
vt 0.411528 0.640078
vt 0.406282 0.587652
vt 0.384830 0.593371
vt 0.384848 0.587586
vt 0.406265 0.593437
vt 0.411527 0.600188
vt 0.391073 0.615532
vt 0.390088 0.610356
vt 0.413552 0.605036
vt 0.392055 0.620133
vt 0.415574 0.609309
vt 0.204027 0.599871
vt 0.227516 0.594014
vt 0.227534 0.599799
vt 0.204010 0.594086
vt 0.415575 0.630957
vt 0.392055 0.620133
vt 0.231438 0.630388
vt 0.230382 0.625227
vt 0.226181 0.592885
vt 0.226199 0.587099
vt 0.230382 0.615039
vt 0.231438 0.609878
vt 0.229324 0.619625
vt 0.390247 0.593515
vt 0.390264 0.599300
vt 0.229324 0.620641
vt 0.209272 0.640395
vt 0.206642 0.635865
vt 0.204010 0.592817
vt 0.204027 0.587031
vt 0.206642 0.604401
vt 0.209272 0.599871
vt 0.204010 0.608357
vt 0.415575 0.593437
vt 0.415592 0.599222
vt 0.204010 0.631909
vt 0.204176 0.541435
vt 0.250928 0.539116
vt 0.250921 0.541578
vt 0.204183 0.538973
vt 0.250943 0.534170
vt 0.204198 0.534027
vt 0.250951 0.531686
vt 0.204206 0.531543
vt 0.300559 0.531543
vt 0.253822 0.534151
vt 0.253814 0.531686
vt 0.300567 0.534008
vt 0.253837 0.539097
vt 0.300582 0.538954
vt 0.253845 0.541578
vt 0.300590 0.541435
vt 0.244051 0.548115
vt 0.235296 0.541592
vt 0.247665 0.541578
vt 0.239123 0.548120
vt 0.229078 0.552337
vt 0.236646 0.552401
vt 0.235228 0.563068
vt 0.239096 0.556677
vt 0.247596 0.563055
vt 0.244024 0.556671
vt 0.253814 0.552310
vt 0.246501 0.552390
vt 0.228912 0.563145
vt 0.235165 0.587013
vt 0.228985 0.587031
vt 0.235092 0.563125
vt 0.247579 0.586974
vt 0.247506 0.563087
vt 0.253814 0.586955
vt 0.253741 0.563068
vt 0.228912 0.586955
vt 0.222652 0.563087
vt 0.228839 0.563068
vt 0.222725 0.586974
vt 0.210238 0.563125
vt 0.210311 0.587012
vt 0.204010 0.563145
vt 0.204083 0.587031
vt 0.222762 0.563068
vt 0.214221 0.556526
vt 0.219149 0.556532
vt 0.210394 0.563055
vt 0.211744 0.552245
vt 0.204176 0.552310
vt 0.214194 0.547970
vt 0.210325 0.541578
vt 0.219121 0.547975
vt 0.222694 0.541591
vt 0.221599 0.552256
vt 0.228912 0.552336
vt 0.204206 0.531543
vt 0.250943 0.528937
vt 0.250951 0.531399
vt 0.204198 0.529081
vt 0.250928 0.523991
vt 0.204183 0.524135
vt 0.250921 0.521507
vt 0.204176 0.521651
vt 0.300559 0.521507
vt 0.253822 0.524116
vt 0.253814 0.521651
vt 0.300567 0.523972
vt 0.253837 0.529061
vt 0.300582 0.528918
vt 0.253845 0.531543
vt 0.300590 0.531399
vt 0.204206 0.511472
vt 0.250943 0.508866
vt 0.250951 0.511328
vt 0.204198 0.509010
vt 0.250928 0.503920
vt 0.204183 0.504064
vt 0.250921 0.501436
vt 0.204176 0.501580
vt 0.250951 0.511615
vt 0.204198 0.513937
vt 0.204206 0.511472
vt 0.250943 0.514080
vt 0.204183 0.518883
vt 0.250928 0.519026
vt 0.204176 0.521364
vt 0.250921 0.521507
vt 0.293524 0.548115
vt 0.284769 0.541592
vt 0.297137 0.541578
vt 0.288596 0.548120
vt 0.278551 0.552337
vt 0.286119 0.552401
vt 0.284701 0.563068
vt 0.288569 0.556677
vt 0.297069 0.563055
vt 0.293497 0.556672
vt 0.303287 0.552310
vt 0.295974 0.552391
vt 0.278717 0.563145
vt 0.284969 0.587013
vt 0.278790 0.587031
vt 0.284896 0.563125
vt 0.297384 0.586974
vt 0.297311 0.563087
vt 0.303619 0.586955
vt 0.303546 0.563068
vt 0.278717 0.586955
vt 0.272457 0.563087
vt 0.278643 0.563068
vt 0.272530 0.586974
vt 0.260042 0.563125
vt 0.260116 0.587012
vt 0.253814 0.563145
vt 0.253888 0.587031
vt 0.272401 0.563068
vt 0.263860 0.556526
vt 0.268787 0.556532
vt 0.260033 0.563055
vt 0.261382 0.552245
vt 0.253814 0.552310
vt 0.263833 0.547970
vt 0.259964 0.541578
vt 0.268760 0.547975
vt 0.272332 0.541592
vt 0.271238 0.552256
vt 0.278551 0.552337
vt 0.253845 0.511472
vt 0.300582 0.508866
vt 0.300590 0.511328
vt 0.253837 0.509010
vt 0.300567 0.503920
vt 0.253822 0.504064
vt 0.300559 0.501436
vt 0.253814 0.501580
vt 0.300559 0.511472
vt 0.253822 0.514080
vt 0.253814 0.511615
vt 0.300567 0.513937
vt 0.253837 0.519026
vt 0.300582 0.518883
vt 0.253845 0.521507
vt 0.300590 0.521364
vt 0.773933 0.439708
vn 0.0000 0.0348 0.9994
vn -0.9019 0.1775 -0.3937
vn -0.0734 0.1543 0.9853
vn -0.7987 0.6017 -0.0001
vn -0.0036 -1.0000 0.0000
vn -0.0860 0.2178 0.9722
vn 0.8283 -0.1724 0.5331
vn 0.9020 0.1772 -0.3937
vn 0.1829 -0.9831 0.0001
vn 0.7988 0.6016 0.0000
vn 0.0732 0.1543 0.9853
vn -0.0067 0.2120 0.9772
vn -0.1407 0.2230 0.9646
vn -0.8069 0.5907 -0.0001
vn 0.8070 0.5906 0.0000
vn -0.4220 0.6204 0.6611
vn -0.7738 0.6167 0.1444
vn -0.9673 -0.2337 -0.0982
vn -0.7553 -0.1394 0.6404
vn -0.0016 -0.2100 0.9777
vn -0.0008 0.7487 0.6629
vn -0.0003 0.9661 0.2583
vn -0.5206 0.7811 -0.3447
vn -0.0004 0.9684 -0.2495
vn -0.0007 0.2100 -0.9777
vn -0.6855 0.0504 -0.7263
vn 0.4256 0.6192 0.6599
vn 0.7583 -0.1386 0.6370
vn 0.9222 -0.3563 -0.1501
vn 0.8270 0.5527 0.1028
vn 0.5085 0.7853 -0.3532
vn 0.6756 0.0530 -0.7353
vn -0.4234 -0.8430 0.3319
vn -0.5450 -0.8020 -0.2444
vn -0.0002 -0.9650 -0.2621
vn -0.0007 -0.9617 0.2740
vn -0.3935 -0.6003 -0.6963
vn -0.0003 -0.7297 -0.6838
vn 0.4276 -0.8418 0.3293
vn 0.4711 -0.8423 -0.2618
vn 0.3840 -0.6008 -0.7011
vn -0.4477 0.6573 0.6062
vn -0.5132 0.8330 0.2068
vn -0.9976 -0.0139 0.0683
vn -0.6946 -0.1434 0.7050
vn -0.0010 -0.1988 0.9800
vn -0.0006 0.7522 0.6589
vn -0.0010 0.9796 0.2011
vn -0.4605 0.8499 -0.2560
vn 0.0049 0.9786 -0.2055
vn 0.0003 0.1987 -0.9801
vn -0.7363 0.1344 -0.6631
vn 0.4453 0.6527 0.6129
vn 0.6875 -0.1449 0.7116
vn 0.9960 -0.0179 0.0872
vn 0.4098 0.8868 0.2135
vn 0.5520 0.7568 -0.3500
vn 0.7432 0.1328 -0.6557
vn -0.4478 -0.8418 0.3014
vn -0.5130 -0.8477 -0.1352
vn -0.0009 -0.9803 -0.1977
vn -0.0003 -0.9498 0.3129
vn -0.4602 -0.6827 -0.5676
vn 0.0049 -0.8208 -0.5712
vn 0.4455 -0.8401 0.3094
vn 0.4097 -0.8998 -0.1499
vn 0.5518 -0.5604 -0.6176
vn -0.4991 0.5241 0.6901
vn -0.4855 0.8506 0.2019
vn -0.9966 -0.0166 0.0812
vn -0.6565 -0.1509 0.7391
vn 0.0000 -0.1993 0.9799
vn -0.0001 0.6251 0.7806
vn 0.0021 0.9791 0.2034
vn -0.6145 0.6223 -0.4849
vn -0.0096 0.9431 -0.3323
vn -0.0000 0.1992 -0.9800
vn -0.7123 0.1404 -0.6877
vn 0.5014 0.5274 0.6859
vn 0.6615 -0.1500 0.7348
vn 0.9976 -0.0140 0.0684
vn 0.6070 0.7688 0.2011
vn 0.5228 0.7659 -0.3743
vn 0.7077 0.1413 -0.6922
vn -0.4990 -0.7522 0.4304
vn -0.4853 -0.8620 -0.1465
vn 0.0021 -0.9807 -0.1953
vn 0.0000 -0.8800 0.4750
vn -0.6132 -0.3832 -0.6907
vn -0.0095 -0.7384 -0.6743
vn 0.5014 -0.7535 0.4253
vn 0.6070 -0.7863 -0.1151
vn 0.5226 -0.5587 -0.6440
vn -0.5108 0.5148 0.6885
vn -0.5089 0.8352 0.2085
vn -0.9951 -0.0218 0.0961
vn -0.6464 -0.1521 0.7477
vn 0.0093 -0.1998 0.9798
vn -0.0296 0.6233 0.7814
vn -0.0443 0.9773 0.2070
vn -0.6307 0.6162 -0.4718
vn -0.0404 0.9712 -0.2347
vn -0.0082 0.1992 -0.9799
vn -0.7190 0.1385 -0.6811
vn 0.4822 0.5314 0.6965
vn 0.6592 -0.1490 0.7370
vn 0.9965 -0.0145 0.0824
vn 0.4590 0.8648 0.2037
vn 0.5987 0.6325 -0.4915
vn 0.7082 0.1416 -0.6916
vn -0.4716 -0.7636 0.4410
vn -0.4586 -0.8770 -0.1434
vn 0.0444 -0.9804 -0.1917
vn 0.0417 -0.8793 0.4745
vn -0.6084 -0.3912 -0.6906
vn 0.0343 -0.8025 -0.5957
vn 0.5207 -0.7407 0.4246
vn 0.5095 -0.8487 -0.1419
vn 0.6213 -0.3815 -0.6844
vn -0.4474 0.6492 0.6151
vn -0.4126 0.8844 0.2181
vn -0.9949 -0.0202 0.0985
vn -0.6870 -0.1457 0.7119
vn 0.0000 -0.1989 0.9800
vn -0.0001 0.7523 0.6588
vn -0.0000 0.9793 0.2026
vn -0.5565 0.7554 -0.3461
vn 0.0009 0.9910 -0.1335
vn -0.0000 0.1988 -0.9800
vn -0.7481 0.1325 -0.6502
vn 0.4485 0.6506 0.6128
vn 0.6894 -0.1452 0.7097
vn 0.9957 -0.0186 0.0910
vn 0.4135 0.8848 0.2150
vn 0.5555 0.7546 -0.3493
vn 0.7455 0.1331 -0.6531
vn -0.4473 -0.8380 0.3125
vn -0.4124 -0.8994 -0.1447
vn -0.0000 -0.9806 -0.1961
vn 0.0000 -0.9498 0.3129
vn -0.5564 -0.5603 -0.6136
vn 0.0000 -0.8603 -0.5098
vn 0.4484 -0.8384 0.3098
vn 0.4132 -0.8986 -0.1477
vn 0.5555 -0.5583 -0.6163
vn -0.6563 -0.0731 -0.7509
vn -0.6356 -0.0748 -0.7684
vn 0.6356 -0.0748 -0.7684
vn 0.6563 -0.0731 -0.7509
vn 1.0000 0.0000 0.0000
vn -1.0000 0.0000 0.0000
vn -0.6388 -0.1581 -0.7530
vn -0.5311 -0.1741 -0.8292
vn 0.5311 -0.1741 -0.8292
vn 0.6388 -0.1581 -0.7530
vn 0.3665 -0.5941 0.7161
vn 0.1334 -0.7244 0.6763
vn 0.1697 0.7551 0.6332
vn 0.1401 0.8891 0.4358
vn 0.6268 -0.3308 0.7055
vn 0.0253 0.8609 0.5082
vn 0.3111 -0.3732 0.8740
vn -0.2962 0.7547 0.5854
vn -0.2478 -0.7089 0.6604
vn -0.7176 0.4377 0.5418
vn -0.1047 -0.4894 -0.8658
vn -0.1726 0.9085 -0.3806
vn -0.1960 0.8534 -0.4830
vn -0.2924 -0.5886 -0.7537
vn -0.0326 -0.3372 -0.9409
vn -0.4042 0.7964 -0.4497
vn -0.2133 -0.5699 -0.7936
vn -0.6863 0.6218 -0.3772
vn -0.5423 -0.7989 -0.2601
vn -0.9219 0.3752 -0.0967
vn -0.1697 0.7551 0.6332
vn -0.1334 -0.7244 0.6763
vn -0.3665 -0.5941 0.7161
vn -0.1401 0.8891 0.4358
vn -0.6268 -0.3308 0.7055
vn -0.0253 0.8609 0.5082
vn -0.3111 -0.3732 0.8740
vn 0.2962 0.7547 0.5854
vn 0.2478 -0.7089 0.6604
vn 0.7176 0.4377 0.5418
vn 0.1960 0.8534 -0.4830
vn 0.1726 0.9085 -0.3806
vn 0.1047 -0.4894 -0.8658
vn 0.2924 -0.5886 -0.7537
vn 0.4043 0.7964 -0.4497
vn 0.0326 -0.3372 -0.9409
vn 0.6863 0.6218 -0.3772
vn 0.2132 -0.5699 -0.7936
vn 0.9219 0.3752 -0.0967
vn 0.5423 -0.7989 -0.2601
vn 0.0000 -1.0000 -0.0000
vn -0.3418 -0.8754 0.3418
vn -0.4833 -0.8754 0.0000
vn 0.0000 -0.8755 0.4833
vn 0.3418 -0.8754 0.3417
vn 0.4833 -0.8754 0.0000
vn 0.3418 -0.8754 -0.3417
vn 0.0000 -0.8755 -0.4833
vn -0.3418 -0.8754 -0.3418
vn -0.4512 -0.5763 0.6814
vn -0.6651 -0.7468 0.0031
vn -0.0602 -0.2480 0.9669
vn 0.4739 -0.6907 0.5463
vn 0.6651 -0.7468 -0.0031
vn 0.4512 -0.5763 -0.6814
vn 0.0602 -0.2480 -0.9669
vn -0.4739 -0.6907 -0.5463
vn -0.4835 -0.5714 0.6631
vn -0.8303 -0.5567 -0.0263
vn -0.0487 -0.2364 0.9704
vn 0.4756 -0.5881 0.6541
vn 0.8327 -0.5507 -0.0568
vn 0.4967 -0.4466 -0.7442
vn 0.0510 -0.0613 -0.9968
vn -0.4923 -0.4611 -0.7382
vn -0.2586 0.6178 0.7426
vn -0.8117 0.5728 0.1138
vn -0.0116 0.6898 0.7239
vn 0.2384 0.6429 0.7279
vn 0.8100 0.5839 0.0554
vn 0.2338 0.7407 -0.6298
vn 0.0091 0.8081 -0.5890
vn -0.2117 0.7641 -0.6094
vn -0.0000 1.0000 -0.0000
vn 0.2719 -0.9092 -0.3154
vn 0.6997 0.7063 -0.1078
vn 0.3293 0.8445 -0.4224
vn 0.6469 -0.7603 -0.0588
vn -0.3297 0.8445 -0.4220
vn -0.2718 -0.9092 -0.3154
vn -0.7035 0.7024 -0.1082
vn -0.6510 -0.7567 -0.0593
vn -0.7657 0.6316 0.1215
vn -0.5480 -0.5382 0.6403
vn -0.4676 0.6470 0.6023
vn -0.6850 -0.7254 0.0678
vn 0.5476 -0.5381 0.6407
vn 0.4680 0.6470 0.6020
vn 0.6806 -0.7295 0.0677
vn 0.7617 0.6365 0.1211
vn 0.8363 -0.5404 -0.0927
vn 0.6951 -0.4715 -0.5428
vn 0.5196 0.6416 -0.5642
vn 0.6343 0.7403 0.2226
vn 0.9843 -0.0432 -0.1708
vn 0.5440 0.4624 0.7002
vn 0.2361 0.1971 0.9515
vn 0.8359 0.0502 -0.5465
vn 0.7125 0.1863 0.6764
vn 0.8325 0.2501 -0.4944
vn 0.8013 -0.5490 -0.2378
vn 0.3638 -0.6314 -0.6848
vn 0.5024 0.3878 -0.7728
vn 0.8432 0.4176 -0.3385
vn 0.6661 -0.1927 -0.7206
vn 0.5051 0.5487 -0.6662
vn 0.8135 0.5497 -0.1899
vn 0.6540 -0.7427 0.1435
vn 0.3963 -0.6953 -0.5996
vn 0.7381 -0.6197 0.2668
vn 0.9977 0.0476 -0.0476
vn 0.6455 -0.1784 0.7427
vn 0.5323 -0.5826 0.6142
vn 0.7192 -0.2189 0.6594
vn 0.8903 0.2602 -0.3737
vn 0.8197 -0.1591 -0.5502
vn 0.4501 -0.3250 0.8317
vn 0.5693 0.2139 0.7938
vn 0.4063 -0.1196 0.9059
vn 0.3408 0.0666 0.9378
vn 0.8259 -0.4365 -0.3569
vn 0.6046 0.7409 -0.2923
vn 0.9921 0.0793 -0.0972
vn -0.0557 -0.6399 -0.7664
vn 0.0788 0.7579 -0.6476
vn -0.0604 -0.9362 -0.3461
vn 0.1085 0.9562 0.2720
vn 0.0403 0.2143 0.9759
vn 0.0007 0.2481 0.9687
vn 0.0495 0.1444 0.9883
vn 0.0742 0.2306 0.9702
vn 0.0000 -0.2383 -0.9712
vn 0.0000 -0.5659 -0.8245
vn 0.0000 0.0420 -0.9991
vn 0.0135 0.3081 0.9513
vn 0.0000 0.4406 -0.8977
vn -0.1018 -0.6633 -0.7414
vn -0.1646 0.3825 -0.9092
vn 0.0000 -0.9229 -0.3850
vn 0.0000 0.8145 -0.5802
vn 0.0000 0.6636 -0.7480
vn 0.0000 0.9505 -0.3107
vn 0.0056 -0.1019 -0.9948
vn 0.0382 -0.7648 -0.6432
vn 0.0461 -0.9717 0.2315
vn 0.0471 -0.9452 0.3230
vn 0.0365 -0.7204 0.6926
vn 0.0218 -0.4352 0.9001
vn 0.0000 0.5048 -0.8632
vn 0.0000 -0.2298 -0.9732
vn 0.0589 -0.5456 0.8360
vn 0.0405 -0.1823 0.9824
vn 0.0000 -0.6765 -0.7365
vn 0.1164 0.0168 0.9931
vn 0.1798 0.4818 0.8576
vn -0.0779 0.8984 -0.4322
vn -0.0119 0.9593 -0.2821
vn -0.6951 -0.4715 -0.5428
vn -0.8330 -0.5427 -0.1081
vn -0.5196 0.6417 -0.5642
vn -0.6237 0.7458 0.2339
vn -0.5330 0.4830 0.6947
vn -0.9376 -0.2896 -0.1925
vn -0.9843 -0.0432 -0.1708
vn -0.2470 0.1821 0.9517
vn -0.7125 0.1863 0.6764
vn -0.8359 0.0502 -0.5465
vn -0.8325 0.2501 -0.4944
vn -0.3638 -0.6314 -0.6848
vn -0.8013 -0.5490 -0.2378
vn -0.5024 0.3878 -0.7728
vn -0.8432 0.4176 -0.3385
vn -0.5051 0.5487 -0.6662
vn -0.6661 -0.1927 -0.7206
vn -0.8133 0.5502 -0.1892
vn -0.3963 -0.6953 -0.5996
vn -0.6540 -0.7427 0.1435
vn -0.7376 -0.6201 0.2672
vn -0.9859 -0.1215 0.1150
vn -0.5325 -0.5827 0.6139
vn 0.6573 -0.3784 0.6517
vn -0.7194 -0.2187 0.6593
vn -0.8903 0.2602 -0.3737
vn -0.8197 -0.1591 -0.5502
vn -0.8259 -0.4365 -0.3569
vn -0.5693 0.2139 0.7938
vn -0.4501 -0.3250 0.8317
vn -0.4063 -0.1196 0.9059
vn -0.3408 0.0666 0.9378
vn -0.6046 0.7409 -0.2923
vn -0.9921 0.0793 -0.0972
vn 0.0557 -0.6399 -0.7664
vn -0.0788 0.7579 -0.6475
vn 0.0604 -0.9362 -0.3461
vn -0.1145 0.9543 0.2761
vn -0.0226 0.2439 0.9695
vn -0.1454 0.2293 0.9624
vn -0.0431 0.1390 0.9893
vn -0.0135 0.3081 0.9513
vn 0.1018 -0.6633 -0.7414
vn 0.1646 0.3825 -0.9092
vn -0.0056 -0.1019 -0.9948
vn -0.0382 -0.7648 -0.6432
vn -0.0461 -0.9717 0.2315
vn -0.0471 -0.9452 0.3230
vn -0.0365 -0.7204 0.6926
vn -0.0218 -0.4352 0.9001
vn -0.0589 -0.5456 0.8360
vn -0.0405 -0.1823 0.9824
vn -0.1170 0.0149 0.9930
vn -0.1823 0.4848 0.8554
vn 0.0779 0.8984 -0.4322
vn 0.0119 0.9593 -0.2821
vn -0.1089 -0.1132 0.9876
vn 0.1025 -0.1135 0.9882
vn -0.3228 0.5327 0.7823
vn 0.3107 0.5358 0.7851
vn -0.1317 0.5990 0.7899
vn 0.1137 0.5794 0.8071
vn -0.0248 0.2384 0.9708
vn 0.9388 -0.2820 -0.1977
vn -1.0000 0.0049 0.0068
vn -0.5337 0.1879 0.8245
vn -0.9976 -0.0158 -0.0678
vn -0.4959 0.3760 0.7827
vn 0.5332 0.1889 0.8246
vn 0.4951 0.3749 0.7838
vn 0.9975 -0.0163 -0.0686
vn 1.0000 0.0040 0.0053
vn 0.4726 -0.1908 -0.8604
vn 0.5024 -0.3654 -0.7837
vn -0.4723 -0.1903 -0.8607
vn -0.5016 -0.3668 -0.7835
vn -0.5313 -0.1778 0.8283
vn -0.9978 0.0137 -0.0654
vn 0.5315 -0.1774 0.8283
vn 0.9978 0.0135 -0.0650
vn 0.4734 0.1826 -0.8617
vn -0.4736 0.1828 -0.8616
vn -0.5148 -0.3511 0.7821
vn -0.9991 0.0165 -0.0387
vn 0.5152 -0.3517 0.7816
vn 0.9991 0.0162 -0.0379
vn 0.4791 0.3565 -0.8021
vn -0.4794 0.3559 -0.8022
vn 0.7554 -0.3276 0.5674
vn 0.7554 -0.6552 0.0000
vn 0.0000 -0.5000 0.8660
vn 0.7554 0.3276 0.5674
vn 0.0000 0.5000 0.8660
vn 0.7554 0.6552 0.0000
vn 0.7554 0.3276 -0.5674
vn 0.0000 0.5000 -0.8660
vn 0.7554 -0.3276 -0.5674
vn 0.0000 -0.5000 -0.8660
vn 0.5505 -0.4174 0.7230
vn 0.5505 -0.8348 0.0000
vn 0.5505 0.4174 0.7230
vn 0.5505 0.8348 0.0000
vn 0.5505 0.4174 -0.7230
vn 0.5505 -0.4174 -0.7230
vn -0.5505 -0.4174 0.7230
vn -0.5505 -0.8348 0.0000
vn -0.5505 0.4174 0.7230
vn -0.5505 0.8348 0.0000
vn -0.5505 0.4174 -0.7230
vn -0.5505 -0.4174 -0.7230
vn -0.7554 -0.3276 0.5674
vn -0.7554 -0.6552 -0.0000
vn -0.7554 0.3276 0.5674
vn -0.7554 0.6552 -0.0000
vn -0.7554 0.3276 -0.5674
vn -0.7554 -0.3276 -0.5674
usemtl Inside
s off
f 361/1/1 362/2/1 363/3/1
f 362/2/1 364/4/1 363/3/1
f 364/4/1 365/5/1 363/3/1
f 363/3/1 366/6/1 361/1/1
f 366/6/1 367/7/1 368/8/1
f 361/1/1 366/6/1 368/8/1
s 1
f 369/9/2 370/10/3 371/11/4
f 372/12/5 373/13/6 369/14/2
f 374/15/7 373/13/6 372/12/5
f 375/16/8 374/15/7 376/17/9
f 377/18/10 378/19/11 375/20/8
f 370/21/3 369/22/2 373/23/6
f 379/24/12 380/25/13 373/23/6
f 378/26/11 379/24/12 374/27/7
f 369/9/2 371/11/4 381/28/14
f 372/12/5 369/14/2 381/29/14
f 374/15/7 372/12/5 376/17/9
f 375/16/8 376/17/9 382/30/15
f 377/18/10 375/20/8 382/31/15
f 370/21/3 373/23/6 380/25/13
f 379/24/12 373/23/6 374/27/7
f 378/26/11 374/27/7 375/32/8
f 383/33/16 384/34/17 385/35/18
f 383/36/16 386/37/19 387/38/20
f 383/36/16 388/39/21 389/40/22
f 390/41/23 391/42/24 392/43/25
f 390/44/23 393/45/26 385/35/18
f 390/41/23 384/34/17 389/40/22
f 394/46/27 388/47/21 387/38/20
f 394/48/27 395/49/28 396/50/29
f 394/51/27 397/52/30 389/40/22
f 398/53/31 397/54/30 396/50/29
f 398/55/31 399/56/32 392/43/25
f 398/57/31 391/58/24 389/40/22
f 400/59/33 386/60/19 385/35/18
f 400/61/33 401/62/34 402/63/35
f 400/64/33 403/65/36 387/38/20
f 404/66/37 393/67/26 392/43/25
f 404/68/37 405/69/38 402/63/35
f 404/70/37 401/71/34 385/35/18
f 406/72/39 395/73/28 387/38/20
f 406/72/39 403/74/36 402/63/35
f 406/75/39 407/76/40 396/50/29
f 408/77/41 405/78/38 392/43/25
f 408/79/41 399/80/32 396/50/29
f 408/77/41 407/76/40 402/63/35
f 409/81/42 410/82/43 411/83/44
f 409/84/42 412/85/45 413/86/46
f 409/84/42 414/87/47 415/88/48
f 416/89/49 417/90/50 418/91/51
f 416/92/49 419/93/52 411/83/44
f 416/89/49 410/82/43 415/88/48
f 420/94/53 414/95/47 413/86/46
f 420/96/53 421/97/54 422/98/55
f 420/99/53 423/100/56 415/88/48
f 424/101/57 423/102/56 422/98/55
f 424/103/57 425/104/58 418/91/51
f 423/100/56 424/105/57 417/106/50
f 426/107/59 412/108/45 411/83/44
f 426/109/59 427/110/60 428/111/61
f 426/112/59 429/113/62 413/86/46
f 430/114/63 419/115/52 418/91/51
f 430/116/63 431/117/64 428/111/61
f 430/118/63 427/119/60 411/83/44
f 432/120/65 421/121/54 413/86/46
f 432/120/65 429/122/62 428/111/61
f 432/123/65 433/124/66 422/98/55
f 434/125/67 431/126/64 418/91/51
f 434/127/67 425/128/58 422/98/55
f 431/117/64 434/125/67 433/124/66
f 435/129/68 436/130/69 437/131/70
f 435/132/68 438/133/71 439/134/72
f 435/132/68 440/135/73 441/136/74
f 442/137/75 443/138/76 444/139/77
f 442/140/75 445/141/78 437/131/70
f 443/142/76 442/137/75 436/130/69
f 446/143/79 440/144/73 439/134/72
f 446/145/79 447/146/80 448/147/81
f 446/148/79 449/149/82 441/136/74
f 450/150/83 449/151/82 448/147/81
f 450/152/83 451/153/84 444/139/77
f 450/154/83 443/142/76 441/136/74
f 452/155/85 438/156/71 437/131/70
f 452/157/85 453/158/86 454/159/87
f 452/160/85 455/161/88 439/134/72
f 456/162/89 445/163/78 444/139/77
f 453/158/86 456/164/89 457/165/90
f 456/166/89 453/167/86 437/131/70
f 458/168/91 447/169/80 439/134/72
f 458/168/91 455/170/88 454/159/87
f 458/171/91 459/172/92 448/147/81
f 460/173/93 457/174/90 444/139/77
f 460/175/93 451/176/84 448/147/81
f 460/173/93 459/172/92 454/159/87
f 461/177/94 462/178/95 463/179/96
f 461/180/94 464/181/97 465/182/98
f 461/180/94 466/183/99 467/184/100
f 468/185/101 469/186/102 470/187/103
f 468/188/101 471/189/104 463/179/96
f 469/190/102 468/185/101 462/178/95
f 472/191/105 466/192/99 465/182/98
f 472/193/105 473/194/106 474/195/107
f 472/196/105 475/197/108 467/184/100
f 476/198/109 475/199/108 474/195/107
f 476/200/109 477/201/110 470/187/103
f 475/197/108 476/202/109 469/190/102
f 478/203/111 464/204/97 463/179/96
f 478/205/111 479/206/112 480/207/113
f 478/208/111 481/209/114 465/182/98
f 482/210/115 471/211/104 470/187/103
f 479/206/112 482/212/115 483/213/116
f 482/214/115 479/215/112 463/179/96
f 484/216/117 473/217/106 465/182/98
f 484/216/117 481/218/114 480/207/113
f 484/219/117 485/220/118 474/195/107
f 486/221/119 483/222/116 470/187/103
f 486/223/119 477/224/110 474/195/107
f 483/213/116 486/221/119 485/220/118
f 487/225/120 488/226/121 489/227/122
f 487/228/120 490/229/123 491/230/124
f 487/228/120 492/231/125 493/232/126
f 494/233/127 495/234/128 496/235/129
f 494/236/127 497/237/130 489/227/122
f 495/238/128 494/233/127 488/226/121
f 498/239/131 492/240/125 491/230/124
f 498/241/131 499/242/132 500/243/133
f 498/244/131 501/245/134 493/232/126
f 502/246/135 501/247/134 500/243/133
f 502/248/135 503/249/136 496/235/129
f 501/245/134 502/250/135 495/238/128
f 504/251/137 490/252/123 489/227/122
f 504/253/137 505/254/138 506/255/139
f 504/256/137 507/257/140 491/230/124
f 508/258/141 497/259/130 496/235/129
f 505/254/138 508/260/141 509/261/142
f 508/262/141 505/263/138 489/227/122
f 510/264/143 499/265/132 491/230/124
f 510/264/143 507/266/140 506/255/139
f 510/267/143 511/268/144 500/243/133
f 512/269/145 509/270/142 496/235/129
f 512/271/145 503/272/136 500/243/133
f 509/261/142 512/269/145 511/268/144
f 409/81/42 411/83/44 412/108/45
f 409/84/42 413/86/46 414/95/47
f 409/84/42 415/88/48 410/82/43
f 416/89/49 418/91/51 419/115/52
f 416/92/49 411/83/44 410/82/43
f 416/89/49 415/88/48 417/106/50
f 420/94/53 413/86/46 421/121/54
f 420/96/53 422/98/55 423/102/56
f 420/99/53 415/88/48 414/87/47
f 424/101/57 422/98/55 425/128/58
f 424/103/57 418/91/51 417/90/50
f 423/100/56 417/106/50 415/88/48
f 426/107/59 411/83/44 427/119/60
f 426/109/59 428/111/61 429/122/62
f 426/112/59 413/86/46 412/85/45
f 430/114/63 418/91/51 431/126/64
f 430/116/63 428/111/61 427/110/60
f 430/118/63 411/83/44 419/93/52
f 432/120/65 413/86/46 429/113/62
f 432/120/65 428/111/61 433/124/66
f 432/123/65 422/98/55 421/97/54
f 434/125/67 418/91/51 425/104/58
f 434/127/67 422/98/55 433/124/66
f 431/117/64 433/124/66 428/111/61
f 435/129/68 437/131/70 438/156/71
f 435/132/68 439/134/72 440/144/73
f 435/132/68 441/136/74 436/130/69
f 442/137/75 444/139/77 445/163/78
f 442/140/75 437/131/70 436/130/69
f 443/142/76 436/130/69 441/136/74
f 446/143/79 439/134/72 447/169/80
f 446/145/79 448/147/81 449/151/82
f 446/148/79 441/136/74 440/135/73
f 450/150/83 448/147/81 451/176/84
f 450/152/83 444/139/77 443/138/76
f 450/154/83 441/136/74 449/149/82
f 452/155/85 437/131/70 453/167/86
f 452/157/85 454/159/87 455/170/88
f 452/160/85 439/134/72 438/133/71
f 456/162/89 444/139/77 457/174/90
f 453/158/86 457/165/90 454/159/87
f 456/166/89 437/131/70 445/141/78
f 458/168/91 439/134/72 455/161/88
f 458/168/91 454/159/87 459/172/92
f 458/171/91 448/147/81 447/146/80
f 460/173/93 444/139/77 451/153/84
f 460/175/93 448/147/81 459/172/92
f 460/173/93 454/159/87 457/165/90
f 461/177/94 463/179/96 464/204/97
f 461/180/94 465/182/98 466/192/99
f 461/180/94 467/184/100 462/178/95
f 468/185/101 470/187/103 471/211/104
f 468/188/101 463/179/96 462/178/95
f 469/190/102 462/178/95 467/184/100
f 472/191/105 465/182/98 473/217/106
f 472/193/105 474/195/107 475/199/108
f 472/196/105 467/184/100 466/183/99
f 476/198/109 474/195/107 477/224/110
f 476/200/109 470/187/103 469/186/102
f 475/197/108 469/190/102 467/184/100
f 478/203/111 463/179/96 479/215/112
f 478/205/111 480/207/113 481/218/114
f 478/208/111 465/182/98 464/181/97
f 482/210/115 470/187/103 483/222/116
f 479/206/112 483/213/116 480/207/113
f 482/214/115 463/179/96 471/189/104
f 484/216/117 465/182/98 481/209/114
f 484/216/117 480/207/113 485/220/118
f 484/219/117 474/195/107 473/194/106
f 486/221/119 470/187/103 477/201/110
f 486/223/119 474/195/107 485/220/118
f 483/213/116 485/220/118 480/207/113
f 487/225/120 489/227/122 490/252/123
f 487/228/120 491/230/124 492/240/125
f 487/228/120 493/232/126 488/226/121
f 494/233/127 496/235/129 497/259/130
f 494/236/127 489/227/122 488/226/121
f 495/238/128 488/226/121 493/232/126
f 498/239/131 491/230/124 499/265/132
f 498/241/131 500/243/133 501/247/134
f 498/244/131 493/232/126 492/231/125
f 502/246/135 500/243/133 503/272/136
f 502/248/135 496/235/129 495/234/128
f 501/245/134 495/238/128 493/232/126
f 504/251/137 489/227/122 505/263/138
f 504/253/137 506/255/139 507/266/140
f 504/256/137 491/230/124 490/229/123
f 508/258/141 496/235/129 509/270/142
f 505/254/138 509/261/142 506/255/139
f 508/262/141 489/227/122 497/237/130
f 510/264/143 491/230/124 507/257/140
f 510/264/143 506/255/139 511/268/144
f 510/267/143 500/243/133 499/242/132
f 512/269/145 496/235/129 503/249/136
f 512/271/145 500/243/133 511/268/144
f 509/261/142 511/268/144 506/255/139
f 383/33/16 385/35/18 386/60/19
f 383/36/16 387/38/20 388/47/21
f 383/36/16 389/40/22 384/34/17
f 390/41/23 392/43/25 393/67/26
f 390/44/23 385/35/18 384/34/17
f 390/41/23 389/40/22 391/58/24
f 394/46/27 387/38/20 395/73/28
f 394/48/27 396/50/29 397/54/30
f 394/51/27 389/40/22 388/39/21
f 398/53/31 396/50/29 399/80/32
f 398/55/31 392/43/25 391/42/24
f 398/57/31 389/40/22 397/52/30
f 400/59/33 385/35/18 401/71/34
f 400/61/33 402/63/35 403/74/36
f 400/64/33 387/38/20 386/37/19
f 404/66/37 392/43/25 405/78/38
f 404/68/37 402/63/35 401/62/34
f 404/70/37 385/35/18 393/45/26
f 406/72/39 387/38/20 403/65/36
f 406/72/39 402/63/35 407/76/40
f 406/75/39 396/50/29 395/49/28
f 408/77/41 392/43/25 399/56/32
f 408/79/41 396/50/29 407/76/40
f 408/77/41 402/63/35 405/69/38
usemtl _eva.png.007
f 1/273/146 2/274/147 3/275/148
f 4/276/149 1/273/146 3/275/148
f 4/277/149 3/278/148 5/279/150
f 5/279/150 6/280/150 4/277/149
f 2/281/147 1/282/146 7/283/151
f 7/283/151 8/284/151 2/281/147
f 9/285/146 10/286/147 11/287/148
f 12/288/149 9/285/146 11/287/148
f 12/289/149 11/290/148 13/291/150
f 13/291/150 14/292/150 12/289/149
f 10/293/147 9/294/146 15/295/151
f 15/295/151 16/296/151 10/293/147
f 17/297/152 18/298/153 19/299/154
f 20/300/155 17/297/152 19/299/154
f 20/301/155 19/302/154 21/303/150
f 21/303/150 22/304/150 20/301/155
f 18/305/153 17/306/152 23/307/151
f 23/307/151 24/308/151 18/305/153
f 25/309/152 26/310/153 27/311/154
f 28/312/155 25/309/152 27/311/154
f 28/313/155 27/314/154 29/315/150
f 29/315/150 30/316/150 28/313/155
f 26/317/153 25/318/152 31/319/151
f 31/319/151 32/320/151 26/317/153
f 33/321/156 34/322/157 35/323/158
f 36/324/159 33/321/156 35/323/158
f 37/325/160 33/321/156 36/324/159
f 36/324/159 38/326/161 37/325/160
f 39/327/162 37/325/160 38/326/161
f 38/326/161 40/328/163 39/327/162
f 41/329/164 39/327/162 40/328/163
f 40/328/163 42/330/165 41/329/164
f 43/331/166 44/332/167 45/333/168
f 45/333/168 46/334/169 43/331/166
f 47/335/170 48/336/171 44/332/167
f 44/332/167 43/331/166 47/335/170
f 49/337/172 50/338/173 48/336/171
f 48/336/171 47/335/170 49/337/172
f 51/339/174 52/340/175 50/338/173
f 50/338/173 49/337/172 51/339/174
f 44/341/167 36/342/159 35/343/158
f 35/343/158 45/344/168 44/341/167
f 48/345/171 38/346/161 36/342/159
f 36/342/159 44/341/167 48/345/171
f 50/347/173 40/348/163 38/346/161
f 38/346/161 48/345/171 50/347/173
f 52/349/175 42/350/165 40/348/163
f 40/348/163 50/347/173 52/349/175
f 51/339/174 41/351/164 42/352/165
f 42/352/165 52/340/175 51/339/174
f 49/353/172 39/354/162 41/355/164
f 41/355/164 51/356/174 49/353/172
f 47/357/170 37/358/160 39/354/162
f 39/354/162 49/353/172 47/357/170
f 43/359/166 33/360/156 37/358/160
f 37/358/160 47/357/170 43/359/166
f 34/361/157 33/360/156 46/362/169
f 33/360/156 43/359/166 46/362/169
f 53/363/176 54/364/177 55/365/178
f 56/366/179 53/363/176 55/365/178
f 56/366/179 55/365/178 57/367/180
f 57/367/180 58/368/181 56/366/179
f 58/368/181 57/367/180 59/369/182
f 59/369/182 60/370/183 58/368/181
f 60/370/183 59/369/182 61/371/184
f 61/371/184 62/372/185 60/370/183
f 63/373/186 64/374/187 65/375/188
f 65/375/188 66/376/189 63/373/186
f 64/374/187 67/377/190 68/378/191
f 68/378/191 65/375/188 64/374/187
f 67/377/190 69/379/192 70/380/193
f 70/380/193 68/378/191 67/377/190
f 69/379/192 71/381/194 72/382/195
f 72/382/195 70/380/193 69/379/192
f 53/383/176 56/384/179 64/385/187
f 63/386/186 53/383/176 64/385/187
f 56/384/179 58/387/181 67/388/190
f 67/388/190 64/385/187 56/384/179
f 58/387/181 60/389/183 69/390/192
f 69/390/192 67/388/190 58/387/181
f 60/389/183 62/391/185 71/392/194
f 71/392/194 69/390/192 60/389/183
f 62/393/185 61/394/184 72/382/195
f 72/382/195 71/381/194 62/393/185
f 61/395/184 59/396/182 70/397/193
f 70/397/193 72/398/195 61/395/184
f 59/396/182 57/399/180 68/400/191
f 68/400/191 70/397/193 59/396/182
f 57/399/180 55/401/178 65/402/188
f 65/402/188 68/400/191 57/399/180
f 55/401/178 54/403/177 66/404/189
f 66/404/189 65/402/188 55/401/178
f 73/405/196 74/406/197 75/407/198
f 73/405/196 76/408/199 74/406/197
f 73/405/196 77/409/200 76/408/199
f 73/405/196 78/410/201 77/409/200
f 73/405/196 79/411/202 78/410/201
f 73/405/196 80/412/203 79/411/202
f 73/405/196 81/413/204 80/412/203
f 73/405/196 75/407/198 81/413/204
f 75/407/198 82/414/205 83/415/206
f 75/407/198 74/406/197 82/414/205
f 74/406/197 84/416/207 82/414/205
f 74/406/197 76/408/199 84/416/207
f 76/408/199 85/417/208 84/416/207
f 76/408/199 77/409/200 85/417/208
f 77/409/200 86/418/209 85/417/208
f 77/409/200 78/410/201 86/418/209
f 78/410/201 87/419/210 86/418/209
f 78/410/201 79/411/202 87/419/210
f 79/411/202 88/420/211 87/419/210
f 79/411/202 80/412/203 88/420/211
f 80/412/203 89/421/212 88/420/211
f 80/412/203 81/413/204 89/421/212
f 81/413/204 83/415/206 89/421/212
f 81/413/204 75/407/198 83/415/206
f 83/415/206 90/422/213 91/423/214
f 83/415/206 82/414/205 90/422/213
f 82/414/205 92/424/215 90/422/213
f 82/414/205 84/416/207 92/424/215
f 84/416/207 93/425/216 92/424/215
f 84/416/207 85/417/208 93/425/216
f 85/417/208 94/426/217 93/425/216
f 85/417/208 86/418/209 94/426/217
f 86/418/209 95/427/218 94/426/217
f 86/418/209 87/419/210 95/427/218
f 87/419/210 96/428/219 95/427/218
f 87/419/210 88/420/211 96/428/219
f 88/420/211 97/429/220 96/428/219
f 88/420/211 89/421/212 97/429/220
f 89/421/212 91/423/214 97/429/220
f 89/421/212 83/415/206 91/423/214
f 91/423/214 98/430/221 99/431/222
f 91/423/214 90/422/213 98/430/221
f 90/422/213 100/432/223 98/430/221
f 90/422/213 92/424/215 100/432/223
f 92/424/215 101/433/224 100/432/223
f 92/424/215 93/425/216 101/433/224
f 93/425/216 102/434/225 101/433/224
f 93/425/216 94/426/217 102/434/225
f 94/426/217 103/435/226 102/434/225
f 94/426/217 95/427/218 103/435/226
f 95/427/218 104/436/227 103/435/226
f 95/427/218 96/428/219 104/436/227
f 96/428/219 105/437/228 104/436/227
f 96/428/219 97/429/220 105/437/228
f 97/429/220 99/431/222 105/437/228
f 97/429/220 91/423/214 99/431/222
f 106/438/229 99/431/222 98/430/221
f 106/438/229 98/430/221 100/432/223
f 106/438/229 100/432/223 101/433/224
f 106/438/229 101/433/224 102/434/225
f 106/438/229 102/434/225 103/435/226
f 106/438/229 103/435/226 104/436/227
f 106/438/229 104/436/227 105/437/228
f 106/438/229 105/437/228 99/431/222
f 107/439/230 108/440/231 109/441/232
f 108/440/231 107/439/230 110/442/233
f 107/439/230 109/441/232 111/443/234
f 112/444/235 107/439/230 111/443/234
f 112/444/235 111/443/234 113/445/236
f 113/445/236 114/446/237 112/444/235
f 115/447/238 116/448/239 117/449/240
f 116/448/239 115/447/238 118/450/241
f 116/451/239 119/452/242 120/453/243
f 120/453/243 117/454/240 116/451/239
f 119/452/242 121/455/244 122/456/245
f 122/456/245 120/453/243 119/452/242
f 110/457/233 107/458/230 116/459/239
f 116/459/239 118/460/241 110/457/233
f 107/461/230 112/462/235 119/452/242
f 116/463/239 107/464/230 119/465/242
f 112/462/235 114/466/237 121/455/244
f 121/467/244 119/468/242 112/469/235
f 113/470/236 111/471/234 120/472/243
f 120/472/243 122/473/245 113/470/236
f 111/474/234 109/475/232 117/454/240
f 117/476/240 120/477/243 111/478/234
f 109/479/232 108/480/231 115/481/238
f 115/482/238 117/454/240 109/475/232
f 123/483/246 124/484/247 125/485/248
f 123/483/246 125/485/248 126/486/249
f 127/487/250 128/488/251 129/489/252
f 130/490/253 127/487/250 131/491/254
f 127/487/250 129/489/252 131/491/254
f 132/492/255 130/490/253 131/491/254
f 133/493/256 134/494/257 135/495/258
f 136/496/259 132/492/255 131/491/254
f 137/497/260 138/498/261 139/499/262
f 140/500/263 141/501/264 137/497/260
f 140/500/263 137/497/260 139/499/262
f 142/502/265 140/500/263 139/499/262
f 142/502/265 139/499/262 143/503/266
f 144/504/267 145/505/268 142/506/265
f 144/504/267 142/506/265 143/507/266
f 146/508/269 139/499/262 147/509/270
f 146/508/269 147/509/270 148/510/271
f 149/511/272 146/508/269 150/512/273
f 151/513/274 149/511/272 150/512/273
f 146/508/269 148/510/271 131/491/254
f 152/514/275 151/513/274 150/512/273
f 148/510/271 153/515/276 131/491/254
f 153/515/276 133/493/256 131/491/254
f 150/512/273 146/508/269 131/491/254
f 131/491/254 133/493/256 135/495/258
f 135/516/258 154/517/277 155/518/278
f 131/491/254 135/495/258 155/519/278
f 136/496/259 131/491/254 155/519/278
f 124/520/247 156/521/279 157/522/280
f 157/523/280 125/524/248 124/525/247
f 123/526/246 158/527/281 156/521/279
f 124/520/247 123/526/246 156/521/279
f 125/485/248 157/528/280 159/529/282
f 159/529/282 126/486/249 125/485/248
f 160/530/283 161/531/284 162/532/285
f 163/533/286 129/534/252 128/535/251
f 127/536/250 164/537/287 165/538/288
f 130/539/253 166/540/289 164/537/287
f 164/537/287 127/536/250 130/539/253
f 129/534/252 162/532/285 167/541/290
f 167/541/290 131/542/254 129/534/252
f 132/543/255 168/544/291 166/540/289
f 166/540/289 130/539/253 132/543/255
f 134/545/257 169/546/292 170/547/293
f 170/547/293 135/516/258 134/545/257
f 133/548/256 171/549/294 169/546/292
f 169/546/292 134/545/257 133/548/256
f 136/550/259 172/551/295 168/544/291
f 168/544/291 132/543/255 136/550/259
f 138/552/261 173/553/296 174/554/297
f 174/554/297 139/555/262 138/552/261
f 137/556/260 175/557/298 173/553/296
f 173/553/296 138/552/261 137/556/260
f 141/558/264 176/559/299 175/557/298
f 175/557/298 137/556/260 141/558/264
f 140/560/263 177/561/300 176/562/299
f 176/562/299 141/563/264 140/560/263
f 142/506/265 178/564/301 177/561/300
f 177/561/300 140/560/263 142/506/265
f 145/505/268 179/565/302 178/564/301
f 178/564/301 142/506/265 145/505/268
f 146/566/269 180/567/303 179/568/302
f 179/568/302 145/569/268 144/570/267
f 179/568/302 144/570/267 146/566/269
f 139/555/262 174/554/297 181/571/304
f 181/571/304 147/572/270 139/555/262
f 147/572/270 181/571/304 182/573/305
f 182/573/305 148/574/271 147/572/270
f 149/575/272 183/576/306 180/577/303
f 180/577/303 146/578/269 149/575/272
f 151/579/274 184/580/307 183/576/306
f 183/576/306 149/575/272 151/579/274
f 148/574/271 182/573/305 185/581/308
f 185/581/308 153/582/276 148/574/271
f 152/583/275 186/584/309 184/585/307
f 184/585/307 151/586/274 152/583/275
f 153/582/276 185/581/308 171/549/294
f 171/549/294 133/548/256 153/582/276
f 150/587/273 187/588/310 186/584/309
f 186/584/309 152/583/275 150/587/273
f 131/589/254 167/590/290 187/591/310
f 187/591/310 150/592/273 131/589/254
f 154/517/277 188/593/311 189/594/312
f 189/594/312 155/518/278 154/517/277
f 135/516/258 170/547/293 188/593/311
f 188/593/311 154/517/277 135/516/258
f 155/518/278 189/594/312 172/551/295
f 172/551/295 136/550/259 155/518/278
f 190/595/313 191/596/314 192/597/315
f 192/597/315 191/596/314 193/598/316
f 194/599/317 193/598/316 195/600/318
f 194/601/317 196/602/319 197/603/320
f 196/602/319 198/604/321 197/603/320
f 196/602/319 199/605/322 198/604/321
f 199/605/322 200/606/323 198/604/321
f 201/607/324 202/608/325 203/609/326
f 200/606/323 204/610/327 198/604/321
f 205/611/328 206/612/329 207/613/330
f 208/614/331 209/615/332 206/612/329
f 206/612/329 209/615/332 207/613/330
f 209/615/332 210/616/333 211/617/334
f 209/615/332 211/617/334 207/613/330
f 146/508/269 144/618/267 143/503/266
f 146/508/269 143/503/266 139/499/262
f 212/619/335 213/620/336 211/621/334
f 212/619/335 211/621/334 210/622/333
f 207/613/330 214/623/337 215/624/338
f 215/624/338 214/623/337 216/625/339
f 214/623/337 198/604/321 216/625/339
f 198/604/321 217/626/340 216/625/339
f 218/627/341 198/604/321 214/623/337
f 218/627/341 214/623/337 219/628/342
f 198/604/321 203/609/326 202/608/325
f 217/626/340 198/604/321 202/608/325
f 218/627/341 219/628/342 220/629/343
f 218/627/341 220/629/343 221/630/344
f 222/631/345 203/632/326 223/633/346
f 203/609/326 198/604/321 223/634/346
f 198/604/321 204/610/327 223/634/346
f 224/635/347 190/636/313 225/637/348
f 192/638/315 225/639/348 190/640/313
f 226/641/349 191/642/314 224/635/347
f 190/636/313 224/635/347 191/642/314
f 225/643/348 192/597/315 227/644/350
f 193/598/316 227/644/350 192/597/315
f 228/645/351 229/646/352 230/647/353
f 229/646/352 228/645/351 194/648/317
f 231/649/287 196/650/319 232/651/288
f 233/652/289 199/653/322 231/649/287
f 196/650/319 231/649/287 199/653/322
f 230/647/353 197/654/320 234/655/354
f 198/656/321 234/655/354 197/654/320
f 235/657/291 200/658/323 233/652/289
f 199/653/322 233/652/289 200/658/323
f 236/659/355 201/660/324 237/661/356
f 203/632/326 237/661/356 201/660/324
f 238/662/294 202/663/325 236/659/355
f 201/660/324 236/659/355 202/663/325
f 239/664/295 204/665/327 235/657/291
f 200/658/323 235/657/291 204/665/327
f 240/666/296 205/667/328 241/668/297
f 207/669/330 241/668/297 205/667/328
f 242/670/357 206/671/329 240/666/296
f 205/667/328 240/666/296 206/671/329
f 243/672/358 208/673/331 242/670/357
f 206/671/329 242/670/357 208/673/331
f 244/674/359 209/675/332 243/676/358
f 208/677/331 243/676/358 209/675/332
f 245/678/360 210/622/333 244/674/359
f 209/675/332 244/674/359 210/622/333
f 246/679/361 212/619/335 245/678/360
f 210/622/333 245/678/360 212/619/335
f 247/680/362 214/681/337 246/682/361
f 212/683/335 246/682/361 214/681/337
f 212/683/335 214/681/337 213/684/336
f 241/668/297 207/669/330 248/685/304
f 215/686/338 248/685/304 207/669/330
f 248/685/304 215/686/338 249/687/305
f 216/688/339 249/687/305 215/686/338
f 250/689/363 219/690/342 247/691/362
f 214/692/337 247/691/362 219/690/342
f 251/693/364 220/694/343 250/689/363
f 219/690/342 250/689/363 220/694/343
f 249/687/305 216/688/339 252/695/308
f 217/696/340 252/695/308 216/688/339
f 253/697/365 221/698/344 251/699/364
f 220/700/343 251/699/364 221/698/344
f 252/695/308 217/696/340 238/662/294
f 202/663/325 238/662/294 217/696/340
f 254/701/366 218/702/341 253/697/365
f 221/698/344 253/697/365 218/702/341
f 234/703/354 198/704/321 254/705/366
f 218/706/341 254/705/366 198/704/321
f 255/707/367 222/631/345 256/708/368
f 223/633/346 256/708/368 222/631/345
f 237/661/356 203/632/326 255/707/367
f 222/631/345 255/707/367 203/632/326
f 256/708/368 223/633/346 239/664/295
f 204/665/327 239/664/295 223/633/346
f 257/709/369 258/710/370 259/711/371
f 258/710/370 260/712/372 259/711/371
f 251/699/364 184/585/307 253/697/365
f 184/585/307 186/584/309 253/697/365
f 183/576/306 184/580/307 251/693/364
f 251/693/364 250/689/363 183/576/306
f 247/691/362 180/577/303 183/576/306
f 183/576/306 250/689/363 247/691/362
f 179/568/302 180/567/303 247/680/362
f 247/680/362 246/682/361 179/568/302
f 246/679/361 245/678/360 179/565/302
f 178/564/301 179/565/302 245/678/360
f 245/678/360 244/674/359 178/564/301
f 244/674/359 177/561/300 178/564/301
f 243/676/358 177/561/300 244/674/359
f 176/562/299 177/561/300 243/676/358
f 243/672/358 175/557/298 176/559/299
f 242/670/357 175/557/298 243/672/358
f 173/553/296 175/557/298 242/670/357
f 242/670/357 240/666/296 173/553/296
f 241/668/297 173/553/296 240/666/296
f 174/554/297 173/553/296 241/668/297
f 241/668/297 248/685/304 174/554/297
f 248/685/304 181/571/304 174/554/297
f 181/571/304 248/685/304 182/573/305
f 248/685/304 249/687/305 182/573/305
f 182/573/305 249/687/305 185/581/308
f 249/687/305 252/695/308 185/581/308
f 185/581/308 252/695/308 171/549/294
f 252/695/308 238/662/294 171/549/294
f 171/549/294 238/662/294 169/546/292
f 238/662/294 236/659/355 169/546/292
f 169/546/292 236/659/355 170/547/293
f 236/659/355 237/661/356 170/547/293
f 237/661/356 255/707/367 170/547/293
f 255/707/367 188/593/311 170/547/293
f 188/593/311 255/707/367 256/708/368
f 256/708/368 189/594/312 188/593/311
f 239/664/295 172/551/295 256/708/368
f 172/551/295 189/594/312 256/708/368
f 239/664/295 168/544/291 172/551/295
f 235/657/291 168/544/291 239/664/295
f 233/652/289 166/540/289 235/657/291
f 166/540/289 168/544/291 235/657/291
f 231/649/287 164/537/287 233/652/289
f 164/537/287 166/540/289 233/652/289
f 231/649/287 165/538/288 164/537/287
f 232/651/288 165/538/288 231/649/287
f 158/527/281 165/538/288 226/641/349
f 226/641/349 165/538/288 232/651/288
f 156/521/279 158/527/281 224/635/347
f 158/527/281 226/641/349 224/635/347
f 157/522/280 156/521/279 225/637/348
f 225/637/348 156/521/279 224/635/347
f 225/643/348 227/644/350 157/528/280
f 227/644/350 159/529/282 157/528/280
f 227/644/350 261/713/373 159/529/282
f 261/713/373 262/714/374 159/529/282
f 263/715/375 161/531/284 228/645/351
f 161/531/284 262/716/374 261/717/373
f 234/655/354 167/541/290 230/647/353
f 167/541/290 162/532/285 230/647/353
f 254/705/366 187/591/310 234/703/354
f 187/591/310 167/590/290 234/703/354
f 195/718/318 232/651/288 196/650/319
f 191/642/314 226/641/349 195/718/318
f 232/651/288 195/718/318 226/641/349
f 195/719/318 196/602/319 194/601/317
f 162/532/285 129/534/252 163/533/286
f 162/532/285 163/533/286 160/530/283
f 128/535/251 262/716/374 160/530/283
f 128/535/251 160/530/283 163/533/286
f 160/530/283 262/716/374 161/531/284
f 162/532/285 161/531/284 263/715/375
f 230/647/353 162/532/285 263/715/375
f 230/647/353 263/715/375 228/645/351
f 261/717/373 194/648/317 228/645/351
f 261/717/373 228/645/351 161/531/284
f 197/654/320 230/647/353 229/646/352
f 197/654/320 229/646/352 194/648/317
f 258/710/370 186/584/309 260/712/372
f 187/588/310 260/712/372 186/584/309
f 259/711/371 254/701/366 253/697/365
f 253/697/365 257/709/369 259/711/371
f 257/709/369 253/697/365 186/584/309
f 186/584/309 258/710/370 257/709/369
f 260/720/372 187/721/310 254/722/366
f 254/722/366 259/723/371 260/720/372
f 264/724/376 123/483/246 128/725/251
f 165/538/288 264/726/376 127/536/250
f 158/527/281 123/526/246 264/726/376
f 264/726/376 165/538/288 158/527/281
f 264/727/376 128/488/251 127/487/250
f 227/644/350 194/599/317 261/713/373
f 227/644/350 193/598/316 194/599/317
f 193/598/316 191/596/314 195/600/318
f 128/725/251 126/486/249 262/714/374
f 126/486/249 159/529/282 262/714/374
f 128/725/251 123/483/246 126/486/249
f 265/728/377 266/729/378 267/730/379
f 265/728/377 268/731/380 266/729/378
f 268/732/380 269/733/381 266/734/378
f 268/732/380 270/735/382 269/733/381
f 270/736/382 271/737/383 269/738/381
f 270/736/382 272/739/384 271/737/383
f 272/739/384 273/740/385 271/737/383
f 272/739/384 274/741/386 273/740/385
f 274/742/386 275/743/387 273/744/385
f 274/742/386 276/745/388 275/743/387
f 276/746/388 267/730/379 275/747/387
f 276/746/388 265/728/377 267/730/379
f 267/730/379 277/748/389 278/749/390
f 267/730/379 266/729/378 277/748/389
f 266/734/378 279/750/391 277/751/389
f 266/734/378 269/733/381 279/750/391
f 269/738/381 280/752/392 279/753/391
f 269/738/381 271/737/383 280/752/392
f 271/737/383 281/754/393 280/752/392
f 271/737/383 273/740/385 281/754/393
f 273/744/385 282/755/394 281/756/393
f 273/744/385 275/743/387 282/755/394
f 275/747/387 278/749/390 282/757/394
f 275/747/387 267/730/379 278/749/390
f 278/749/390 283/758/395 284/759/396
f 278/749/390 277/748/389 283/758/395
f 277/751/389 285/760/397 283/761/395
f 277/751/389 279/750/391 285/760/397
f 279/753/391 286/762/398 285/763/397
f 279/753/391 280/752/392 286/762/398
f 280/752/392 287/764/399 286/762/398
f 280/752/392 281/754/393 287/764/399
f 281/756/393 288/765/400 287/766/399
f 281/756/393 282/755/394 288/765/400
f 282/757/394 284/759/396 288/767/400
f 282/757/394 278/749/390 284/759/396
f 289/768/196 290/769/401 291/770/402
f 289/768/196 292/771/403 290/769/401
f 292/771/403 293/772/404 290/769/401
f 292/771/403 294/773/405 293/772/404
f 294/773/405 295/774/406 293/772/404
f 294/773/405 296/775/229 295/774/406
f 296/776/229 297/777/407 295/778/406
f 296/776/229 298/779/408 297/777/407
f 298/779/408 299/780/409 297/777/407
f 298/779/408 300/781/410 299/780/409
f 300/781/410 291/782/402 299/780/409
f 300/781/410 289/783/196 291/782/402
f 291/784/402 301/785/411 302/786/412
f 291/784/402 290/787/401 301/785/411
f 290/787/401 303/788/413 301/785/411
f 290/787/401 293/789/404 303/788/413
f 293/789/404 304/790/414 303/788/413
f 293/789/404 295/791/406 304/790/414
f 295/791/406 305/792/415 304/790/414
f 295/791/406 297/793/407 305/792/415
f 297/793/407 306/794/416 305/792/415
f 297/793/407 299/795/409 306/794/416
f 299/795/409 302/786/412 306/794/416
f 299/795/409 291/784/402 302/786/412
f 302/796/412 307/797/417 308/798/418
f 302/796/412 301/799/411 307/797/417
f 301/799/411 309/800/419 307/797/417
f 301/799/411 303/801/413 309/800/419
f 303/801/413 310/802/420 309/800/419
f 303/801/413 304/803/414 310/802/420
f 304/804/414 311/805/421 310/806/420
f 304/804/414 305/807/415 311/805/421
f 305/807/415 312/808/422 311/805/421
f 305/807/415 306/809/416 312/808/422
f 306/809/416 308/810/418 312/808/422
f 306/809/416 302/811/412 308/810/418
f 308/812/418 313/813/423 314/814/424
f 308/812/418 307/815/417 313/813/423
f 307/815/417 315/816/425 313/813/423
f 307/815/417 309/817/419 315/816/425
f 309/817/419 316/818/426 315/816/425
f 309/817/419 310/819/420 316/818/426
f 310/819/420 317/820/427 316/818/426
f 310/819/420 311/821/421 317/820/427
f 311/821/421 318/822/428 317/820/427
f 311/821/421 312/823/422 318/822/428
f 312/823/422 314/814/424 318/822/428
f 312/823/422 308/812/418 314/814/424
f 314/824/424 319/825/403 320/826/196
f 314/824/424 313/827/423 319/825/403
f 313/827/423 321/828/405 319/825/403
f 313/827/423 315/829/425 321/828/405
f 315/829/425 322/830/229 321/828/405
f 315/829/425 316/831/426 322/830/229
f 316/832/426 323/833/408 322/834/229
f 316/832/426 317/835/427 323/833/408
f 317/835/427 324/836/410 323/833/408
f 317/835/427 318/837/428 324/836/410
f 318/837/428 320/838/196 324/836/410
f 318/837/428 314/839/424 320/838/196
f 325/840/196 326/841/401 327/842/402
f 325/840/196 328/843/403 326/841/401
f 328/843/403 329/844/404 326/841/401
f 328/843/403 330/845/405 329/844/404
f 330/845/405 331/846/406 329/844/404
f 330/845/405 332/847/229 331/846/406
f 332/848/229 333/849/407 331/850/406
f 332/848/229 334/851/408 333/849/407
f 334/851/408 335/852/409 333/849/407
f 334/851/408 336/853/410 335/852/409
f 336/853/410 327/854/402 335/852/409
f 336/853/410 325/855/196 327/854/402
f 327/856/402 337/857/411 338/858/412
f 327/856/402 326/859/401 337/857/411
f 326/859/401 339/860/413 337/857/411
f 326/859/401 329/861/404 339/860/413
f 329/861/404 340/862/414 339/860/413
f 329/861/404 331/863/406 340/862/414
f 331/863/406 341/864/415 340/862/414
f 331/863/406 333/865/407 341/864/415
f 333/865/407 342/866/416 341/864/415
f 333/865/407 335/867/409 342/866/416
f 335/867/409 338/858/412 342/866/416
f 335/867/409 327/856/402 338/858/412
f 338/868/412 343/869/417 344/870/418
f 338/868/412 337/871/411 343/869/417
f 337/871/411 345/872/419 343/869/417
f 337/871/411 339/873/413 345/872/419
f 339/873/413 346/874/420 345/872/419
f 339/873/413 340/875/414 346/874/420
f 340/876/414 347/877/421 346/878/420
f 340/876/414 341/879/415 347/877/421
f 341/879/415 348/880/422 347/877/421
f 341/879/415 342/881/416 348/880/422
f 342/881/416 344/882/418 348/880/422
f 342/881/416 338/883/412 344/882/418
f 344/884/418 349/885/423 350/886/424
f 344/884/418 343/887/417 349/885/423
f 343/887/417 351/888/425 349/885/423
f 343/887/417 345/889/419 351/888/425
f 345/889/419 352/890/426 351/888/425
f 345/889/419 346/891/420 352/890/426
f 346/891/420 353/892/427 352/890/426
f 346/891/420 347/893/421 353/892/427
f 347/893/421 354/894/428 353/892/427
f 347/893/421 348/895/422 354/894/428
f 348/895/422 350/886/424 354/894/428
f 348/895/422 344/884/418 350/886/424
f 350/896/424 355/897/403 356/898/196
f 350/896/424 349/899/423 355/897/403
f 349/899/423 357/900/405 355/897/403
f 349/899/423 351/901/425 357/900/405
f 351/901/425 358/902/229 357/900/405
f 351/901/425 352/903/426 358/902/229
f 352/904/426 359/905/408 358/906/229
f 352/904/426 353/907/427 359/905/408
f 353/907/427 360/908/410 359/905/408
f 353/907/427 354/909/428 360/908/410
f 354/909/428 356/910/196 360/908/410
f 354/909/428 350/911/424 356/910/196
f 213/912/336 214/623/337 207/613/330
f 213/912/336 207/613/330 211/617/334
