# Blender v3.0.1 OBJ File: ''
# www.blender.org
mtllib truck_wheel.mtl
o Jeep.004
v 6.815759 -9.482559 2.006351
v 9.139426 -12.512578 12.819700
v 9.139426 -16.467819 7.056346
v 9.139426 -17.915710 0.219420
v 6.815759 -5.287158 8.129914
v 6.815759 -8.126457 -5.289673
v 9.139426 -6.650334 16.633705
v 9.139426 -16.630264 -6.652826
v 9.139426 0.221904 17.912079
v 9.139426 -12.823329 -12.507997
v 6.815721 2.008842 9.486001
v 6.815721 -2.009970 -9.485056
v 9.139426 7.058849 16.464190
v 9.139426 -7.059962 -16.463238
v 9.139426 12.822200 12.508944
v 9.139426 -0.215967 -17.911144
v 6.815721 8.125359 5.290656
v 6.815721 5.286058 -8.128975
v 9.139426 16.636185 6.653775
v 9.139426 6.656256 -16.632753
v 9.139426 17.914574 -0.218436
v 9.139426 12.511434 -12.818728
v 6.815721 9.488510 -2.005398
v 9.139426 16.466682 -7.055367
v 4.915788 -2.949333 4.527819
v 4.915788 -5.287155 1.116416
v 4.915788 -4.531433 -2.944776
v 4.915788 1.118928 5.290616
v 4.915788 -1.120056 -5.289665
v 4.915788 4.530320 2.945719
v 4.915788 2.948205 -4.533930
v 4.915788 5.286057 -1.122535
v 7.352500 -3.450828 0.727958
v 7.352500 -2.956390 -1.927711
v 7.352500 -1.925224 2.959846
v 7.352500 -0.731582 -3.453308
v 7.352500 1.924096 -2.958903
v 7.352500 3.456734 -0.734071
v 7.352500 0.730439 3.454251
v 7.352500 2.955285 1.921599
v -6.526137 27.788567 -11.907601
v -6.526137 21.114090 -21.633276
v -7.529077 20.245338 -20.743349
v -7.352500 2.955285 1.921599
v -7.352500 3.456734 -0.734071
v -7.352500 -1.925224 2.959846
v -4.915787 4.530320 2.945719
v -4.915787 5.286057 -1.122535
v -4.915787 1.118928 5.290616
v -7.352500 0.730439 3.454251
v -7.352500 1.924096 -2.958903
v -7.352500 -0.731582 -3.453308
v -7.352500 -2.956390 -1.927711
v -4.915787 -2.949333 4.527819
v -7.352500 -3.450828 0.727958
v -4.915787 -4.531433 -2.944776
v -6.815721 8.125359 5.290656
v -6.815721 5.286058 -8.128975
v -6.815721 -2.009970 -9.485056
v -4.915787 -1.120056 -5.289665
v -6.815758 -5.287158 8.129914
v -6.815721 2.008842 9.486001
v -4.915787 -5.287155 1.116416
v -6.815758 -8.126457 -5.289673
v -9.139428 17.914574 -0.218436
v -6.815721 9.488510 -2.005398
v -9.139428 6.656256 -16.632753
v -9.139428 -0.215967 -17.911144
v -9.139428 -7.059962 -16.463238
v -9.139428 -12.823329 -12.507997
v -9.139428 12.822200 12.508944
v -9.139428 7.058849 16.464190
v -9.139428 -6.650334 16.633705
v -9.139428 0.221904 17.912079
v -9.139428 -17.915710 0.219420
v -6.815758 -9.482559 2.006351
v -4.915787 2.948205 -4.533930
v -9.139428 16.636185 6.653775
v -7.529077 10.766905 -26.916359
v -9.139428 16.466682 -7.055367
v -9.139428 12.511434 -12.818728
v -9.139428 -16.630264 -6.652826
v -9.139428 -12.512578 12.819700
v -9.139428 -16.467819 7.056346
v 6.526137 27.788567 -11.907601
v 7.529077 20.245338 -20.743349
v 6.526137 21.114090 -21.633276
v 7.529077 10.766905 -26.916359
v 6.526137 11.225986 -28.067616
v 7.529077 26.644386 -11.420256
v 6.526137 30.232361 -0.366759
v 7.529077 -0.357226 -28.985836
v 7.529077 28.982224 -0.352628
v 6.526137 -0.371363 -30.228912
v 7.529077 -11.417797 -26.640942
v 6.526137 -11.912188 -27.785133
v 7.529077 -20.747971 -20.241913
v 6.526137 -21.637878 -21.110657
v 7.529077 -26.913895 -10.763458
v 6.526137 -28.072220 -11.229602
v 7.529077 -28.983322 0.353614
v 6.526137 -30.226410 0.367739
v 7.529077 -26.645508 11.421250
v 6.526137 -27.789703 11.908591
v 7.529077 -20.246475 20.744333
v 6.526137 -21.115234 21.634254
v 7.529077 -10.768033 26.917343
v 6.526137 -11.227124 28.068600
v 7.529077 0.356113 28.986773
v 6.526137 0.370235 30.229855
v 7.529077 11.416667 26.641891
v 6.526137 11.911059 27.786085
v 7.529077 20.746834 20.242899
v 6.526137 21.636749 21.111610
v 7.529077 26.912773 10.764443
v 6.526137 28.071091 11.230597
v 10.121215 -21.369461 9.161106
v 10.121215 -23.248199 0.282980
v 10.121215 -16.241791 16.640768
v 10.121215 -21.588440 -8.637512
v 10.121215 -16.637314 -16.237228
v 10.121215 -9.157641 -21.371988
v 10.121215 -0.286616 -23.250732
v 10.121215 8.633885 -21.590933
v 10.121184 16.240662 -16.639784
v 10.121184 21.368370 -9.160121
v 10.121184 23.247101 -0.282004
v 10.121184 21.587311 8.631392
v 10.121184 16.643265 16.238173
v 10.121215 9.156543 21.372965
v 10.121215 0.285480 23.251673
v 10.121215 -8.635008 21.584820
v -6.526137 11.225986 -28.067616
v -7.529077 26.644386 -11.420256
v -6.526137 30.232361 -0.366759
v -7.529077 -0.357226 -28.985836
v -7.529077 28.982224 -0.352628
v -6.526137 -0.371363 -30.228912
v -7.529077 -11.417797 -26.640942
v -6.526137 -11.912188 -27.785133
v -7.529077 -20.747971 -20.241913
v -6.526137 -21.637878 -21.110657
v -7.529077 -26.913895 -10.763458
v -6.526137 -28.072220 -11.229602
v -7.529077 -28.983322 0.353614
v -6.526137 -30.226410 0.367739
v -7.529077 -26.645508 11.421250
v -6.526137 -27.789703 11.908591
v -7.529077 -20.246475 20.744333
v -6.526137 -21.115234 21.634254
v -7.529077 -10.768033 26.917343
v -6.526137 -11.227124 28.068600
v -7.529077 0.356113 28.986773
v -6.526137 0.370235 30.229855
v -7.529077 11.416667 26.641891
v -6.526137 11.911059 27.786085
v -7.529077 20.746834 20.242899
v -6.526137 21.636749 21.111610
v -7.529077 26.912773 10.764443
v -6.526137 28.071091 11.230597
v -10.121217 -21.369461 9.161106
v -10.121217 -23.248199 0.282980
v -10.121217 -16.241791 16.640768
v -10.121217 -21.588440 -8.637512
v -10.121217 -16.637314 -16.237228
v -10.121217 -9.157641 -21.371988
v -10.121217 -0.286616 -23.250732
v -10.121217 8.633885 -21.590933
v -10.121186 16.240662 -16.639784
v -10.121186 21.368370 -9.160121
v -10.121186 23.247101 -0.282004
v -10.121186 21.587311 8.631392
v -10.121186 16.643265 16.238173
v -10.121217 9.156543 21.372965
v -10.121217 0.285480 23.251673
v -10.121217 -8.635008 21.584820
vt 0.459445 0.255951
vt 0.324455 0.220104
vt 0.396047 0.170505
vt 0.480183 0.152874
vt 0.380696 0.309537
vt 0.552029 0.274106
vt 0.276124 0.292661
vt 0.566103 0.169271
vt 0.259562 0.377513
vt 0.638152 0.216827
vt 0.363650 0.403619
vt 0.605454 0.352572
vt 0.278365 0.463597
vt 0.687820 0.289385
vt 0.326688 0.534930
vt 0.705278 0.374236
vt 0.416624 0.481677
vt 0.588418 0.446654
vt 0.399185 0.582476
vt 0.688725 0.460320
vt 0.484657 0.598875
vt 0.641731 0.532878
vt 0.509189 0.499814
vt 0.569233 0.581253
vt 0.429656 0.340221
vt 0.472372 0.311701
vt 0.522657 0.321474
vt 0.419875 0.390773
vt 0.550689 0.363461
vt 0.449235 0.433566
vt 0.540899 0.413593
vt 0.499512 0.442130
vt 0.477721 0.340221
vt 0.506190 0.345939
vt 0.453684 0.356526
vt 0.522657 0.369985
vt 0.516872 0.398514
vt 0.492843 0.414818
vt 0.448353 0.385064
vt 0.464811 0.409109
vt 0.582630 0.945429
vt 0.505836 0.945432
vt 0.505836 0.964181
vt 0.464811 0.409109
vt 0.492843 0.414818
vt 0.453684 0.356526
vt 0.449235 0.433566
vt 0.499512 0.442130
vt 0.419875 0.390773
vt 0.448353 0.385064
vt 0.516872 0.398514
vt 0.522657 0.369985
vt 0.506190 0.345939
vt 0.429656 0.340221
vt 0.477721 0.340221
vt 0.522657 0.321474
vt 0.416624 0.481677
vt 0.588418 0.446654
vt 0.605454 0.352572
vt 0.550689 0.363461
vt 0.380696 0.309537
vt 0.363650 0.403619
vt 0.472372 0.311701
vt 0.552029 0.274106
vt 0.484657 0.598875
vt 0.509189 0.499814
vt 0.688725 0.460320
vt 0.705278 0.374236
vt 0.687820 0.289385
vt 0.638152 0.216827
vt 0.326688 0.534930
vt 0.278365 0.463597
vt 0.276124 0.292661
vt 0.259562 0.377513
vt 0.480183 0.152874
vt 0.459445 0.255951
vt 0.540899 0.413593
vt 0.399185 0.582476
vt 0.428634 0.964183
vt 0.569233 0.581253
vt 0.641731 0.532878
vt 0.566103 0.169271
vt 0.324455 0.220104
vt 0.396047 0.170505
vt 0.561557 0.946622
vt 0.482134 0.962584
vt 0.482134 0.946625
vt 0.405236 0.962587
vt 0.482533 0.946625
vt 0.482533 0.962584
vt 0.405236 0.946627
vt 0.561558 0.962582
vt 0.640976 0.946620
vt 0.328967 0.962589
vt 0.640976 0.962580
vt 0.328967 0.946629
vt 0.570951 0.780695
vt 0.653685 0.796152
vt 0.653685 0.780691
vt 0.570952 0.796156
vt 0.487236 0.780699
vt 0.487236 0.796160
vt 0.403898 0.780703
vt 0.403899 0.796164
vt 0.320566 0.780706
vt 0.320566 0.796168
vt 0.562708 0.962580
vt 0.639252 0.946617
vt 0.639253 0.962577
vt 0.562707 0.946620
vt 0.490809 0.962584
vt 0.561155 0.946620
vt 0.561156 0.962580
vt 0.490809 0.946625
vt 0.413114 0.962589
vt 0.488470 0.946625
vt 0.488470 0.962584
vt 0.413114 0.946629
vt 0.340901 0.962592
vt 0.412863 0.946629
vt 0.412864 0.962589
vt 0.340901 0.946633
vt 0.573947 0.780695
vt 0.656615 0.796152
vt 0.656615 0.780691
vt 0.573947 0.796156
vt 0.490166 0.780699
vt 0.490166 0.796160
vt 0.406828 0.780703
vt 0.406828 0.796164
vt 0.320566 0.780706
vt 0.403899 0.796164
vt 0.403898 0.780703
vt 0.320566 0.796168
vt 0.478930 0.018685
vt 0.364969 0.102645
vt 0.341713 0.047204
vt 0.479737 0.079598
vt 0.617049 0.044971
vt 0.269561 0.168090
vt 0.224978 0.126062
vt 0.395077 0.168402
vt 0.322928 0.218453
vt 0.480754 0.150814
vt 0.274223 0.291508
vt 0.594496 0.101258
vt 0.567344 0.167497
vt 0.734658 0.121607
vt 0.692202 0.164860
vt 0.640838 0.215297
vt 0.813526 0.237448
vt 0.756726 0.261189
vt 0.690897 0.288352
vt 0.842035 0.374665
vt 0.780694 0.374570
vt 0.708486 0.373580
vt 0.815749 0.512775
vt 0.759034 0.488873
vt 0.691802 0.460162
vt 0.738667 0.629947
vt 0.695432 0.586580
vt 0.644002 0.533216
vt 0.622388 0.708805
vt 0.599103 0.652034
vt 0.570948 0.581922
vt 0.485171 0.737315
vt 0.484335 0.675993
vt 0.485263 0.599959
vt 0.347062 0.711038
vt 0.369576 0.653412
vt 0.398681 0.583267
vt 0.229434 0.633063
vt 0.273257 0.589810
vt 0.326245 0.535979
vt 0.150584 0.518123
vt 0.207337 0.493481
vt 0.276481 0.463318
vt 0.122075 0.380014
vt 0.183378 0.380099
vt 0.257539 0.377193
vt 0.148361 0.243234
vt 0.205038 0.265806
vt 0.428634 0.945434
vt 0.582631 0.964178
vt 0.697569 0.942351
vt 0.627035 0.942353
vt 0.627036 0.961102
vt 0.352457 0.964185
vt 0.697569 0.961100
vt 0.352457 0.945436
vt 0.592482 0.781013
vt 0.675216 0.781009
vt 0.675216 0.796943
vt 0.592483 0.796947
vt 0.511148 0.781017
vt 0.592094 0.781013
vt 0.592095 0.796947
vt 0.511148 0.796951
vt 0.426765 0.781021
vt 0.511007 0.781017
vt 0.511007 0.796951
vt 0.426766 0.796955
vt 0.341812 0.782255
vt 0.426356 0.782252
vt 0.426357 0.798185
vt 0.341812 0.798189
vt 0.584517 0.963356
vt 0.660374 0.963691
vt 0.660373 0.947139
vt 0.584517 0.947142
vt 0.507478 0.963698
vt 0.584788 0.963356
vt 0.584787 0.947142
vt 0.507478 0.947145
vt 0.435373 0.963701
vt 0.435372 0.947149
vt 0.357936 0.963704
vt 0.435080 0.963701
vt 0.435079 0.947149
vt 0.357936 0.947152
vt 0.594390 0.779524
vt 0.681368 0.779519
vt 0.681368 0.797792
vt 0.594390 0.797797
vt 0.511231 0.779528
vt 0.511231 0.797801
vt 0.425483 0.779682
vt 0.511282 0.779678
vt 0.511282 0.797948
vt 0.425484 0.797952
vt 0.335230 0.780238
vt 0.425367 0.780234
vt 0.425367 0.798504
vt 0.335230 0.798509
vt 0.478930 0.018685
vt 0.341713 0.047204
vt 0.364969 0.102645
vt 0.479737 0.079598
vt 0.617049 0.044971
vt 0.269561 0.168090
vt 0.224978 0.126062
vt 0.395077 0.168402
vt 0.322928 0.218453
vt 0.480754 0.150814
vt 0.274223 0.291508
vt 0.594496 0.101258
vt 0.567344 0.167497
vt 0.734658 0.121607
vt 0.692202 0.164860
vt 0.640838 0.215297
vt 0.813526 0.237448
vt 0.756726 0.261189
vt 0.690897 0.288352
vt 0.842035 0.374665
vt 0.780694 0.374570
vt 0.708486 0.373580
vt 0.815749 0.512775
vt 0.759034 0.488873
vt 0.691802 0.460162
vt 0.738667 0.629947
vt 0.695432 0.586580
vt 0.644002 0.533216
vt 0.622388 0.708805
vt 0.599103 0.652034
vt 0.570948 0.581922
vt 0.485171 0.737315
vt 0.484335 0.675993
vt 0.485263 0.599959
vt 0.347062 0.711038
vt 0.369576 0.653412
vt 0.398681 0.583267
vt 0.229434 0.633063
vt 0.273257 0.589810
vt 0.326213 0.536019
vt 0.150584 0.518123
vt 0.207337 0.493481
vt 0.276481 0.463318
vt 0.122075 0.380014
vt 0.183378 0.380099
vt 0.257539 0.377193
vt 0.148361 0.243234
vt 0.205038 0.265806
vt 0.401950 0.946132
vt 0.316663 0.796534
vt 0.316665 0.946137
vt 0.637490 0.799596
vt 0.560307 0.943376
vt 0.560306 0.799600
vt 0.637492 0.943372
vt 0.483118 0.943380
vt 0.483117 0.799604
vt 0.405519 0.943385
vt 0.405517 0.799609
vt 0.328950 0.943388
vt 0.328949 0.799614
vt 0.569975 0.799088
vt 0.652710 0.943981
vt 0.652709 0.799084
vt 0.569977 0.943986
vt 0.486260 0.799092
vt 0.486262 0.943991
vt 0.402922 0.799097
vt 0.402924 0.943995
vt 0.319589 0.799101
vt 0.319591 0.944000
vt 0.562563 0.946255
vt 0.637112 0.796708
vt 0.637115 0.946248
vt 0.562559 0.796715
vt 0.488006 0.946262
vt 0.488002 0.796722
vt 0.413111 0.946270
vt 0.413107 0.796730
vt 0.339094 0.946276
vt 0.339090 0.796738
vt 0.572983 0.796521
vt 0.657590 0.946118
vt 0.657588 0.796517
vt 0.572985 0.946123
vt 0.487239 0.796525
vt 0.487241 0.946128
vt 0.401948 0.796530
vn 0.9473 0.3033 -0.1032
vn 0.9749 0.1650 -0.1494
vn 0.9765 0.2012 -0.0775
vn 0.9749 0.2224 0.0110
vn 0.9473 0.1414 -0.2874
vn 0.9473 0.2875 0.1413
vn 0.9765 0.0875 -0.1972
vn 0.9765 0.1971 0.0876
vn 0.9749 0.0110 -0.2224
vn 0.9749 0.1495 0.1650
vn 0.9473 -0.1034 -0.3033
vn 0.9473 0.1034 0.3033
vn 0.9765 -0.0775 -0.2012
vn 0.9765 0.0775 0.2012
vn 0.9749 -0.1494 -0.1651
vn 0.9749 -0.0110 0.2224
vn 0.9473 -0.2874 -0.1414
vn 0.9473 -0.1414 0.2876
vn 0.9765 -0.1971 -0.0875
vn 0.9765 -0.0875 0.1970
vn 0.9749 -0.2225 -0.0110
vn 0.9749 -0.1650 0.1494
vn 0.9473 -0.3032 0.1033
vn 0.9765 -0.2013 0.0775
vn 0.9721 -0.1538 0.1771
vn 0.9722 -0.2334 0.0166
vn 0.9722 -0.1771 -0.1535
vn 0.9722 0.0166 0.2337
vn 0.9723 -0.0168 -0.2333
vn 0.9722 0.1771 0.1530
vn 0.9722 0.1531 -0.1771
vn 0.9721 0.2341 -0.0164
vn 0.7684 -0.6022 0.2165
vn 0.8538 -0.4711 -0.2217
vn 0.9592 -0.1206 0.2557
vn 0.8537 -0.1767 -0.4899
vn 0.8539 0.2211 -0.4711
vn 0.8537 0.4901 -0.1763
vn 0.7689 0.2173 0.6014
vn 0.8536 0.4714 0.2216
vn -0.3884 0.8513 -0.3527
vn -0.4056 0.6573 -0.6352
vn -0.8405 0.3688 -0.3969
vn -0.8668 0.3795 0.3235
vn -0.8790 0.4741 -0.0516
vn -0.7184 -0.5135 0.4693
vn -0.9759 0.2173 0.0186
vn -0.9972 -0.0467 -0.0589
vn -0.9906 0.1369 0.0067
vn -0.9090 -0.0160 0.4165
vn -0.8726 0.2150 -0.4386
vn -0.8877 -0.1082 -0.4475
vn -0.8818 -0.4157 -0.2226
vn -0.9906 0.0910 0.1022
vn -0.8634 -0.4351 0.2553
vn -0.9775 -0.0834 -0.1939
vn -0.9417 -0.2967 -0.1587
vn -0.9599 -0.1337 0.2464
vn -0.9600 0.0366 0.2777
vn -0.9760 -0.1407 -0.1665
vn -0.9380 0.1829 -0.2945
vn -0.9476 -0.1034 -0.3022
vn -0.9722 -0.2202 0.0794
vn -0.9621 0.2278 0.1500
vn -0.9777 -0.2098 0.0082
vn -0.9603 -0.2680 0.0780
vn -0.9739 -0.0755 0.2139
vn -0.9757 0.0118 0.2190
vn -0.9739 0.0980 0.2046
vn -0.9757 0.1633 0.1464
vn -0.9777 -0.1540 -0.1425
vn -0.9764 -0.0972 -0.1927
vn -0.9764 0.0676 -0.2051
vn -0.9784 -0.0007 -0.2065
vn -0.9740 0.2263 -0.0085
vn -0.9575 0.2869 -0.0296
vn -0.9724 0.1589 -0.1709
vn -0.9782 -0.1928 -0.0774
vn -0.8375 0.2120 -0.5036
vn -0.9764 -0.1928 0.0972
vn -0.9757 -0.1465 0.1632
vn -0.9773 0.2004 0.0682
vn -0.9750 0.1492 -0.1649
vn -0.9739 0.2047 -0.0979
vn 0.3953 0.8524 -0.3424
vn 0.8518 0.3710 -0.3699
vn 0.4219 0.6150 -0.6662
vn 0.8516 0.2013 -0.4840
vn 0.4213 0.3129 -0.8512
vn 0.8521 0.4838 -0.1996
vn 0.3963 0.9181 0.0098
vn 0.8516 0.0007 -0.5241
vn 0.8525 0.5228 0.0008
vn 0.4340 0.0023 -0.9009
vn 0.8520 -0.1997 -0.4840
vn 0.4342 -0.3426 -0.8331
vn 0.8520 -0.3697 -0.3707
vn 0.4342 -0.6353 -0.6387
vn 0.8521 -0.4832 -0.2009
vn 0.4345 -0.8312 -0.3468
vn 0.8520 -0.5236 -0.0007
vn 0.4338 -0.9010 -0.0023
vn 0.8519 -0.4842 0.1996
vn 0.4339 -0.8333 0.3425
vn 0.8518 -0.3709 0.3699
vn 0.4336 -0.6387 0.6356
vn 0.8517 -0.2013 0.4839
vn 0.4334 -0.3470 0.8317
vn 0.8516 -0.0007 0.5241
vn 0.4340 -0.0023 0.9009
vn 0.8520 0.1997 0.4840
vn 0.4342 0.3426 0.8331
vn 0.8519 0.3698 0.3707
vn 0.4342 0.6353 0.6387
vn 0.8522 0.4831 0.2009
vn 0.4349 0.8309 0.3470
vn 0.9925 -0.1188 0.0285
vn 0.9925 -0.1207 -0.0191
vn 0.9925 -0.0989 0.0719
vn 0.9925 -0.1043 -0.0638
vn 0.9925 -0.0718 -0.0989
vn 0.9925 -0.0286 -0.1189
vn 0.9925 0.0191 -0.1208
vn 0.9925 0.0639 -0.1043
vn 0.9925 0.0989 -0.0719
vn 0.9925 0.1188 -0.0285
vn 0.9925 0.1207 0.0191
vn 0.9925 0.1042 0.0638
vn 0.9925 0.0720 0.0989
vn 0.9925 0.0286 0.1189
vn 0.9925 -0.0191 0.1207
vn 0.9925 -0.0638 0.1041
vn -0.4048 0.3646 -0.8386
vn -0.8472 0.4940 -0.1956
vn -0.4013 0.9159 0.0136
vn -0.8382 0.0029 -0.5453
vn -0.8479 0.5301 0.0080
vn -0.4255 0.0121 -0.9049
vn -0.8386 -0.2058 -0.5044
vn -0.4259 -0.3352 -0.8404
vn -0.8381 -0.3836 -0.3878
vn -0.4257 -0.6310 -0.6485
vn -0.8389 -0.5017 -0.2110
vn -0.4264 -0.8310 -0.3573
vn -0.8380 -0.5457 -0.0030
vn -0.4256 -0.9048 -0.0122
vn -0.8382 -0.5050 0.2058
vn -0.3870 -0.8449 0.3692
vn -0.8382 -0.3878 0.3835
vn -0.3889 -0.6518 0.6511
vn -0.8376 -0.2120 0.5035
vn -0.3879 -0.3532 0.8514
vn -0.8382 -0.0029 0.5453
vn -0.3887 -0.0005 0.9214
vn -0.8386 0.2058 0.5044
vn -0.3893 0.3522 0.8511
vn -0.8381 0.3837 0.3878
vn -0.3886 0.6511 0.6519
vn -0.8389 0.5017 0.2110
vn -0.3895 0.8506 0.3532
vn -0.9856 -0.1344 0.1030
vn -0.9887 -0.1448 -0.0386
vn -0.9803 -0.1481 0.1303
vn -0.9806 -0.1882 -0.0554
vn -0.9807 -0.1520 -0.1231
vn -0.9806 -0.0938 -0.1723
vn -0.9806 -0.0207 -0.1949
vn -0.9806 0.0555 -0.1880
vn -0.9806 0.1232 -0.1525
vn -0.9807 0.1720 -0.0935
vn -0.9806 0.1948 -0.0206
vn -0.9806 0.1878 0.0555
vn -0.9806 0.1526 0.1232
vn -0.9806 0.0937 0.1722
vn -0.9806 0.0208 0.1950
vn -0.9807 -0.0556 0.1874
usemtl materials_are_bae
s 1
f 1/1/1 2/2/2 3/3/3
f 4/4/4 1/1/1 3/3/3
f 2/2/2 1/1/1 5/5/5
f 6/6/6 1/1/1 4/4/4
f 2/2/2 5/5/5 7/7/7
f 6/6/6 4/4/4 8/8/8
f 5/5/5 9/9/9 7/7/7
f 10/10/10 6/6/6 8/8/8
f 9/9/9 5/5/5 11/11/11
f 10/10/10 12/12/12 6/6/6
f 9/9/9 11/11/11 13/13/13
f 12/12/12 10/10/10 14/14/14
f 11/11/11 15/15/15 13/13/13
f 16/16/16 12/12/12 14/14/14
f 15/15/15 11/11/11 17/17/17
f 16/16/16 18/18/18 12/12/12
f 15/15/15 17/17/17 19/19/19
f 18/18/18 16/16/16 20/20/20
f 17/17/17 21/21/21 19/19/19
f 22/22/22 18/18/18 20/20/20
f 21/21/21 17/17/17 23/23/23
f 22/22/22 23/23/23 18/18/18
f 21/21/21 23/23/23 24/24/24
f 23/23/23 22/22/22 24/24/24
f 25/25/25 1/1/1 26/26/26
f 26/26/26 1/1/1 6/6/6
f 1/1/1 25/25/25 5/5/5
f 26/26/26 6/6/6 27/27/27
f 28/28/28 5/5/5 25/25/25
f 12/12/12 27/27/27 6/6/6
f 5/5/5 28/28/28 11/11/11
f 27/27/27 12/12/12 29/29/29
f 30/30/30 11/11/11 28/28/28
f 18/18/18 29/29/29 12/12/12
f 11/11/11 30/30/30 17/17/17
f 29/29/29 18/18/18 31/31/31
f 32/32/32 17/17/17 30/30/30
f 23/23/23 31/31/31 18/18/18
f 17/17/17 32/32/32 23/23/23
f 31/31/31 23/23/23 32/32/32
f 33/33/33 25/25/25 26/26/26
f 26/26/26 34/34/34 33/33/33
f 34/34/34 26/26/26 27/27/27
f 25/25/25 33/33/33 35/35/35
f 34/34/34 35/35/35 33/33/33
f 35/35/35 28/28/28 25/25/25
f 27/27/27 36/36/36 34/34/34
f 36/36/36 35/35/35 34/34/34
f 36/36/36 27/27/27 29/29/29
f 29/29/29 37/37/37 36/36/36
f 37/37/37 35/35/35 36/36/36
f 37/37/37 29/29/29 31/31/31
f 31/31/31 38/38/38 37/37/37
f 38/38/38 35/35/35 37/37/37
f 38/38/38 31/31/31 32/32/32
f 28/28/28 35/35/35 39/39/39
f 39/39/39 30/30/30 28/28/28
f 40/40/40 35/35/35 38/38/38
f 35/35/35 40/40/40 39/39/39
f 32/32/32 40/40/40 38/38/38
f 39/39/39 40/40/40 30/30/30
f 40/40/40 32/32/32 30/30/30
f 41/41/41 42/42/42 43/43/43
f 44/44/44 45/45/45 46/46/46
f 44/44/44 47/47/47 48/48/48
f 49/49/49 50/50/50 46/46/46
f 50/50/50 47/47/47 44/44/44
f 51/51/51 52/52/52 46/46/46
f 52/52/52 53/53/53 46/46/46
f 54/54/54 46/46/46 55/55/55
f 56/56/56 53/53/53 52/52/52
f 53/53/53 55/55/55 46/46/46
f 48/48/48 47/47/47 57/57/57
f 58/58/58 59/59/59 60/60/60
f 61/61/61 62/62/62 49/49/49
f 63/63/63 56/56/56 64/64/64
f 56/56/56 60/60/60 59/59/59
f 49/49/49 54/54/54 61/61/61
f 65/65/65 66/66/66 57/57/57
f 58/58/58 67/67/67 68/68/68
f 68/68/68 59/59/59 58/58/58
f 59/59/59 69/69/69 70/70/70
f 71/71/71 57/57/57 62/62/62
f 62/62/62 72/72/72 71/71/71
f 61/61/61 73/73/73 74/74/74
f 64/64/64 75/75/75 76/76/76
f 45/45/45 48/48/48 77/77/77
f 50/50/50 49/49/49 47/47/47
f 52/52/52 60/60/60 56/56/56
f 46/46/46 54/54/54 49/49/49
f 47/47/47 49/49/49 62/62/62
f 59/59/59 64/64/64 56/56/56
f 71/71/71 78/78/78 57/57/57
f 68/68/68 69/69/69 59/59/59
f 79/79/79 43/43/43 42/42/42
f 77/77/77 51/51/51 45/45/45
f 45/45/45 51/51/51 46/46/46
f 46/46/46 50/50/50 44/44/44
f 48/48/48 45/45/45 44/44/44
f 60/60/60 52/52/52 51/51/51
f 51/51/51 77/77/77 60/60/60
f 63/63/63 55/55/55 53/53/53
f 53/53/53 56/56/56 63/63/63
f 55/55/55 63/63/63 54/54/54
f 77/77/77 48/48/48 66/66/66
f 66/66/66 58/58/58 77/77/77
f 57/57/57 66/66/66 48/48/48
f 60/60/60 77/77/77 58/58/58
f 62/62/62 57/57/57 47/47/47
f 63/63/63 64/64/64 76/76/76
f 76/76/76 61/61/61 54/54/54
f 54/54/54 63/63/63 76/76/76
f 66/66/66 80/80/80 81/81/81
f 81/81/81 58/58/58 66/66/66
f 65/65/65 80/80/80 66/66/66
f 81/81/81 67/67/67 58/58/58
f 57/57/57 78/78/78 65/65/65
f 70/70/70 64/64/64 59/59/59
f 74/74/74 72/72/72 62/62/62
f 70/70/70 82/82/82 64/64/64
f 74/74/74 62/62/62 61/61/61
f 83/83/83 73/73/73 61/61/61
f 64/64/64 82/82/82 75/75/75
f 83/83/83 61/61/61 76/76/76
f 76/76/76 84/84/84 83/83/83
f 75/75/75 84/84/84 76/76/76
f 85/85/85 86/86/86 87/87/87
f 88/88/88 87/89/87 86/90/86
f 87/89/87 88/88/88 89/91/89
f 86/86/86 85/85/85 90/92/90
f 91/93/91 90/92/90 85/85/85
f 92/94/92 89/91/89 88/88/88
f 90/92/90 91/93/91 93/95/93
f 89/91/89 92/94/92 94/96/94
f 95/97/95 94/98/94 92/99/92
f 94/98/94 95/97/95 96/100/96
f 97/101/97 96/100/96 95/97/95
f 96/100/96 97/101/97 98/102/98
f 99/103/99 98/102/98 97/101/97
f 98/102/98 99/103/99 100/104/100
f 101/105/101 100/104/100 99/103/99
f 100/104/100 101/105/101 102/106/102
f 103/107/103 102/108/102 101/109/101
f 102/108/102 103/107/103 104/110/104
f 105/111/105 104/112/104 103/113/103
f 104/112/104 105/111/105 106/114/106
f 107/115/107 106/116/106 105/117/105
f 106/116/106 107/115/107 108/118/108
f 109/119/109 108/120/108 107/121/107
f 108/120/108 109/119/109 110/122/110
f 111/123/111 110/124/110 109/125/109
f 110/124/110 111/123/111 112/126/112
f 113/127/113 112/126/112 111/123/111
f 112/126/112 113/127/113 114/128/114
f 115/129/115 114/128/114 113/127/113
f 114/128/114 115/129/115 116/130/116
f 93/131/93 116/132/116 115/133/115
f 116/132/116 93/131/93 91/134/91
f 101/135/101 117/136/117 103/137/103
f 117/136/117 101/135/101 118/138/118
f 99/139/99 118/138/118 101/135/101
f 119/140/119 103/137/103 117/136/117
f 103/137/103 119/140/119 105/141/105
f 118/138/118 3/142/3 117/136/117
f 2/143/2 117/136/117 3/142/3
f 117/136/117 2/143/2 119/140/119
f 3/142/3 118/138/118 4/144/4
f 7/145/7 119/140/119 2/143/2
f 120/146/120 4/144/4 118/138/118
f 118/138/118 99/139/99 120/146/120
f 4/144/4 120/146/120 8/147/8
f 97/148/97 120/146/120 99/139/99
f 121/149/121 8/147/8 120/146/120
f 120/146/120 97/148/97 121/149/121
f 8/147/8 121/149/121 10/150/10
f 95/151/95 121/149/121 97/148/97
f 122/152/122 10/150/10 121/149/121
f 121/149/121 95/151/95 122/152/122
f 10/150/10 122/152/122 14/153/14
f 92/154/92 122/152/122 95/151/95
f 123/155/123 14/153/14 122/152/122
f 122/152/122 92/154/92 123/155/123
f 14/153/14 123/155/123 16/156/16
f 88/157/88 123/155/123 92/154/92
f 124/158/124 16/156/16 123/155/123
f 123/155/123 88/157/88 124/158/124
f 16/156/16 124/158/124 20/159/20
f 86/160/86 124/158/124 88/157/88
f 125/161/125 20/159/20 124/158/124
f 124/158/124 86/160/86 125/161/125
f 20/159/20 125/161/125 22/162/22
f 90/163/90 125/161/125 86/160/86
f 126/164/126 22/162/22 125/161/125
f 125/161/125 90/163/90 126/164/126
f 22/162/22 126/164/126 24/165/24
f 93/166/93 126/164/126 90/163/90
f 127/167/127 24/165/24 126/164/126
f 126/164/126 93/166/93 127/167/127
f 24/165/24 127/167/127 21/168/21
f 115/169/115 127/167/127 93/166/93
f 128/170/128 21/168/21 127/167/127
f 127/167/127 115/169/115 128/170/128
f 21/168/21 128/170/128 19/171/19
f 113/172/113 128/170/128 115/169/115
f 129/173/129 19/171/19 128/170/128
f 128/170/128 113/172/113 129/173/129
f 19/171/19 129/173/129 15/174/15
f 111/175/111 129/173/129 113/172/113
f 130/176/130 15/174/15 129/173/129
f 129/173/129 111/175/111 130/176/130
f 15/174/15 130/176/130 13/177/13
f 109/178/109 130/176/130 111/175/111
f 131/179/131 13/177/13 130/176/130
f 130/176/130 109/178/109 131/179/131
f 13/177/13 131/179/131 9/180/9
f 107/181/107 131/179/131 109/178/109
f 132/182/132 9/180/9 131/179/131
f 107/181/107 132/182/132 131/179/131
f 9/180/9 132/182/132 7/145/7
f 105/141/105 132/182/132 107/181/107
f 7/145/7 132/182/132 119/140/119
f 132/182/132 105/141/105 119/140/119
f 42/42/42 133/183/133 79/79/79
f 43/43/43 134/184/134 41/41/41
f 135/185/135 41/186/41 134/187/134
f 136/188/136 79/79/79 133/183/133
f 134/187/134 137/189/137 135/185/135
f 133/183/133 138/190/138 136/188/136
f 139/191/139 136/192/136 138/193/138
f 138/193/138 140/194/140 139/191/139
f 141/195/141 139/196/139 140/197/140
f 140/197/140 142/198/142 141/195/141
f 143/199/143 141/200/141 142/201/142
f 142/201/142 144/202/144 143/199/143
f 145/203/145 143/204/143 144/205/144
f 144/205/144 146/206/146 145/203/145
f 147/207/147 145/208/145 146/209/146
f 146/209/146 148/210/148 147/207/147
f 149/211/149 147/212/147 148/213/148
f 148/213/148 150/214/150 149/211/149
f 151/215/151 149/211/149 150/214/150
f 150/214/150 152/216/152 151/215/151
f 153/217/153 151/218/151 152/219/152
f 152/219/152 154/220/154 153/217/153
f 155/221/155 153/222/153 154/223/154
f 154/223/154 156/224/156 155/221/155
f 157/225/157 155/221/155 156/224/156
f 156/224/156 158/226/158 157/225/157
f 159/227/159 157/228/157 158/229/158
f 158/229/158 160/230/160 159/227/159
f 137/231/137 159/232/159 160/233/160
f 160/233/160 135/234/135 137/231/137
f 145/235/145 147/236/147 161/237/161
f 161/237/161 162/238/162 145/235/145
f 143/239/143 145/235/145 162/238/162
f 163/240/163 161/237/161 147/236/147
f 147/236/147 149/241/149 163/240/163
f 162/238/162 161/237/161 84/242/84
f 83/243/83 84/242/84 161/237/161
f 161/237/161 163/240/163 83/243/83
f 84/242/84 75/244/75 162/238/162
f 73/245/73 83/243/83 163/240/163
f 164/246/164 162/238/162 75/244/75
f 162/238/162 164/246/164 143/239/143
f 75/244/75 82/247/82 164/246/164
f 141/248/141 143/239/143 164/246/164
f 165/249/165 164/246/164 82/247/82
f 164/246/164 165/249/165 141/248/141
f 82/247/82 70/250/70 165/249/165
f 139/251/139 141/248/141 165/249/165
f 166/252/166 165/249/165 70/250/70
f 165/249/165 166/252/166 139/251/139
f 70/250/70 69/253/69 166/252/166
f 136/254/136 139/251/139 166/252/166
f 167/255/167 166/252/166 69/253/69
f 166/252/166 167/255/167 136/254/136
f 69/253/69 68/256/68 167/255/167
f 79/257/79 136/254/136 167/255/167
f 168/258/168 167/255/167 68/256/68
f 167/255/167 168/258/168 79/257/79
f 68/256/68 67/259/67 168/258/168
f 43/260/43 79/257/79 168/258/168
f 169/261/169 168/258/168 67/259/67
f 168/258/168 169/261/169 43/260/43
f 67/259/67 81/262/81 169/261/169
f 134/263/134 43/260/43 169/261/169
f 170/264/170 169/261/169 81/262/81
f 169/261/169 170/264/170 134/263/134
f 81/262/81 80/265/80 170/264/170
f 137/266/137 134/263/134 170/264/170
f 171/267/171 170/264/170 80/265/80
f 170/264/170 171/267/171 137/266/137
f 80/265/80 65/268/65 171/267/171
f 159/269/159 137/266/137 171/267/171
f 172/270/172 171/267/171 65/268/65
f 171/267/171 172/270/172 159/269/159
f 65/268/65 78/271/78 172/270/172
f 157/272/157 159/269/159 172/270/172
f 173/273/173 172/270/172 78/271/78
f 172/270/172 173/273/173 157/272/157
f 78/271/78 71/274/71 173/273/173
f 155/275/155 157/272/157 173/273/173
f 174/276/174 173/273/173 71/274/71
f 173/273/173 174/276/174 155/275/155
f 71/274/71 72/277/72 174/276/174
f 153/278/153 155/275/155 174/276/174
f 175/279/175 174/276/174 72/277/72
f 174/276/174 175/279/175 153/278/153
f 72/277/72 74/280/74 175/279/175
f 151/281/151 153/278/153 175/279/175
f 176/282/176 175/279/175 74/280/74
f 151/281/151 175/279/175 176/282/176
f 74/280/74 73/245/73 176/282/176
f 149/241/149 151/281/151 176/282/176
f 73/245/73 163/240/163 176/282/176
f 176/282/176 163/240/163 149/241/149
f 160/283/160 91/284/91 135/285/135
f 135/286/135 85/287/85 41/288/41
f 85/287/85 135/286/135 91/289/91
f 41/288/41 87/290/87 42/291/42
f 87/290/87 41/288/41 85/287/85
f 42/291/42 89/292/89 133/293/133
f 89/292/89 42/291/42 87/290/87
f 94/294/94 133/293/133 89/292/89
f 133/293/133 94/294/94 138/295/138
f 96/296/96 138/297/138 94/298/94
f 138/297/138 96/296/96 140/299/140
f 98/300/98 140/299/140 96/296/96
f 140/299/140 98/300/98 142/301/142
f 100/302/100 142/301/142 98/300/98
f 142/301/142 100/302/100 144/303/144
f 102/304/102 144/303/144 100/302/100
f 144/303/144 102/304/102 146/305/146
f 104/306/104 146/307/146 102/308/102
f 146/307/146 104/306/104 148/309/148
f 106/310/106 148/309/148 104/306/104
f 148/309/148 106/310/106 150/311/150
f 108/312/108 150/311/150 106/310/106
f 150/311/150 108/312/108 152/313/152
f 110/314/110 152/313/152 108/312/108
f 152/313/152 110/314/110 154/315/154
f 112/316/112 154/317/154 110/318/110
f 154/317/154 112/316/112 156/319/156
f 114/320/114 156/319/156 112/316/112
f 156/319/156 114/320/114 158/321/158
f 116/322/116 158/321/158 114/320/114
f 158/321/158 116/322/116 160/283/160
f 91/284/91 160/283/160 116/322/116
