# Blender v3.0.1 OBJ File: ''
# www.blender.org
mtllib scooter_wheel.mtl
o Cylinder_Cylinder.003
v 0.161174 -0.923883 0.382683
v -0.161174 -0.923883 0.382683
v -0.161174 -1.000004 -0.000000
v 0.161174 -0.707109 0.707107
v -0.161174 -0.707109 0.707107
v 0.161174 -0.382685 0.923879
v -0.161174 -0.382685 0.923879
v 0.161174 -0.000000 1.000000
v -0.161174 -0.000000 1.000000
v 0.161174 0.382685 0.923879
v -0.161174 0.382685 0.923879
v 0.161174 0.707109 0.707107
v -0.161174 0.707109 0.707107
v 0.161174 0.923883 0.382683
v -0.161174 0.923883 0.382683
v 0.161174 1.000004 0.000000
v -0.161174 1.000004 0.000000
v 0.161174 0.923883 -0.382683
v -0.161174 0.923883 -0.382683
v 0.161174 0.707110 -0.707106
v -0.161174 0.707110 -0.707107
v 0.161174 0.382685 -0.923879
v -0.161174 0.382685 -0.923880
v 0.161174 0.000000 -1.000000
v -0.161174 0.000000 -1.000000
v 0.161174 -0.382685 -0.923879
v -0.161174 -0.382685 -0.923879
v 0.161174 -0.707109 -0.707107
v -0.161174 -0.707109 -0.707107
v -0.200000 -0.598722 -0.598719
v -0.200000 -0.324026 -0.782265
v 0.161174 -1.000004 -0.000000
v -0.161174 -0.923883 -0.382683
v 0.161174 -0.923883 -0.382683
v -0.200000 0.324026 0.782265
v -0.200000 -0.000000 0.846717
v 0.191749 0.510743 -0.510741
v 0.191749 0.276412 -0.667316
v 0.200000 0.324026 -0.782265
v 0.200000 -0.324026 0.782265
v 0.191749 -0.276412 0.667316
v 0.191749 -0.000000 0.722297
v -0.200000 -0.782268 0.324024
v -0.200000 -0.846720 -0.000000
v 0.200000 0.782268 -0.324024
v 0.200000 0.598722 -0.598719
v -0.200000 0.598722 -0.598719
v -0.200000 0.782268 -0.324025
v 0.200000 0.324026 0.782265
v 0.200000 0.598722 0.598719
v 0.200000 -0.598722 -0.598719
v 0.200000 -0.782268 -0.324024
v -0.200000 0.598722 0.598719
v -0.200000 -0.782268 -0.324024
v 0.200000 -0.782268 0.324025
v 0.200000 -0.598722 0.598719
v -0.200000 -0.598722 0.598719
v -0.200000 0.324026 -0.782265
v 0.200000 0.782268 0.324025
v 0.200000 -0.846720 -0.000000
v -0.200000 0.782268 0.324024
v 0.200000 0.000000 -0.846717
v -0.200000 -0.324026 0.782265
v -0.200000 0.000000 -0.846717
v 0.200000 0.846720 0.000000
v -0.200000 0.846720 0.000000
v 0.200000 -0.000000 0.846717
v 0.200000 -0.324026 -0.782265
v -0.191749 0.000000 -0.675012
v -0.191749 0.258317 -0.623630
v -0.191749 0.276412 -0.667316
v -0.191749 0.258317 0.623629
v -0.191749 -0.000000 0.675012
v -0.191749 -0.000000 0.722297
v -0.191749 -0.276412 0.667316
v -0.191749 0.510743 -0.510741
v 0.191749 0.276412 0.667316
v 0.191749 0.000000 -0.722297
v -0.191749 0.276412 0.667316
v -0.191749 0.000000 -0.722298
v 0.191749 0.510743 0.510741
v 0.191749 -0.276412 -0.667316
v -0.191749 0.510743 0.510741
v -0.191749 -0.276412 -0.667316
v 0.191749 0.667318 0.276411
v 0.191749 -0.510743 -0.510741
v -0.191749 0.667318 0.276411
v 0.191749 -0.722300 -0.000000
v 0.191749 -0.667318 0.276411
v -0.191749 -0.510743 -0.510741
v 0.191749 0.722300 0.000000
v -0.191749 -0.667318 0.276411
v -0.191749 -0.722300 -0.000000
v 0.191749 -0.667319 -0.276411
v -0.191749 0.722300 0.000000
v 0.191749 -0.510743 0.510741
v -0.191749 -0.667319 -0.276411
v 0.191749 0.667318 -0.276411
v -0.191749 -0.510743 0.510741
v -0.191749 0.667318 -0.276411
v 0.101341 -0.258317 -0.623629
v 0.101341 -0.477307 -0.477305
v 0.191749 -0.477307 -0.477305
v 0.101341 0.477307 0.477305
v 0.101341 0.623632 0.258316
v 0.191749 0.623632 0.258316
v 0.191749 0.258317 0.623630
v 0.191749 0.477307 0.477305
v 0.191749 0.000000 -0.675012
v 0.191749 -0.258317 -0.623629
v -0.191749 0.477307 0.477305
v -0.191749 -0.258317 -0.623630
v -0.191749 0.623632 0.258316
v 0.191749 -0.675014 -0.000000
v 0.191749 -0.623632 0.258316
v -0.191749 -0.477307 -0.477305
v 0.191749 0.675014 0.000000
v -0.191749 -0.623632 0.258316
v -0.191749 -0.675014 -0.000000
v 0.191749 -0.623632 -0.258316
v -0.191749 0.675014 0.000000
v 0.191749 -0.477307 0.477305
v -0.191749 -0.623632 -0.258316
v 0.191749 0.623632 -0.258316
v -0.191749 -0.477307 0.477305
v -0.191749 0.623632 -0.258316
v 0.191749 -0.258317 0.623630
v 0.191749 0.477307 -0.477305
v -0.191749 -0.258317 0.623629
v -0.191749 0.477307 -0.477305
v 0.191749 -0.000000 0.675012
v 0.191749 0.258317 -0.623630
v 0.079536 -0.249514 0.103352
v 0.079536 -0.190969 0.190969
v 0.101341 -0.477307 0.477305
v -0.079536 0.270072 0.000000
v -0.079536 0.249514 0.103352
v -0.101341 0.623632 0.258316
v -0.101341 0.477307 0.477305
v 0.101341 -0.675014 -0.000000
v 0.101341 -0.623632 0.258316
v -0.101341 -0.477307 -0.477305
v -0.101341 -0.258317 -0.623630
v 0.101341 0.675014 0.000000
v -0.101341 -0.623632 0.258316
v -0.101341 -0.675014 -0.000000
v 0.101341 -0.623632 -0.258316
v -0.101341 0.675014 0.000000
v -0.101341 -0.623632 -0.258316
v 0.101341 0.623632 -0.258316
v -0.101341 -0.477307 0.477305
v -0.101341 0.623632 -0.258316
v 0.101341 -0.258317 0.623630
v 0.101341 0.477307 -0.477305
v -0.101341 -0.258317 0.623629
v -0.101341 0.477307 -0.477305
v 0.101341 -0.000000 0.675012
v 0.101341 0.258317 -0.623630
v -0.101341 -0.000000 0.675012
v -0.101341 0.258317 -0.623630
v 0.101341 0.258317 0.623630
v 0.101341 0.000000 -0.675012
v -0.101341 0.258317 0.623629
v -0.101341 0.000000 -0.675012
v -0.079536 -0.103352 0.249513
v -0.108872 -0.073449 0.177321
v -0.108872 -0.135716 0.135716
v 0.108872 0.177322 -0.073449
v 0.108872 0.135716 -0.135715
v 0.079536 0.190970 -0.190969
v 0.079536 0.249514 0.103352
v -0.079536 0.190969 0.190969
v 0.079536 -0.103352 -0.249513
v -0.079536 -0.103352 -0.249513
v -0.079536 0.000000 -0.270071
v -0.079536 -0.190969 0.190969
v -0.079536 -0.249514 0.103352
v 0.079536 -0.249514 -0.103351
v 0.079536 -0.270072 -0.000000
v 0.079536 0.190969 0.190969
v -0.079536 -0.270072 -0.000000
v -0.079536 -0.249514 -0.103351
v 0.079536 0.249514 -0.103351
v -0.079536 0.190970 -0.190969
v -0.079536 0.249514 -0.103352
v 0.079536 -0.103352 0.249513
v 0.079536 -0.000000 0.270071
v -0.079536 -0.000000 0.270071
v 0.079536 0.000000 -0.270071
v 0.079536 0.103352 -0.249513
v -0.079536 0.103352 -0.249513
v 0.079536 0.103352 0.249513
v -0.079536 0.103352 0.249513
v 0.079536 0.270072 0.000000
v 0.079536 -0.190969 -0.190969
v -0.079536 -0.190969 -0.190969
v -0.108872 0.177322 -0.073449
v -0.108872 0.000000 -0.191931
v -0.108872 -0.000000 0.191931
v 0.108872 0.177322 0.073449
v 0.108872 -0.135716 -0.135715
v -0.108872 0.135716 -0.135715
v 0.108872 -0.073449 0.177321
v 0.108872 -0.000000 0.191931
v 0.108872 0.073449 -0.177321
v -0.108872 0.073449 -0.177321
v 0.108872 0.073449 0.177321
v 0.108872 0.000000 -0.191931
v -0.108872 0.073449 0.177321
v 0.108872 0.135716 0.135716
v 0.108872 -0.073449 -0.177321
v -0.108872 0.135716 0.135716
v -0.108872 -0.073449 -0.177321
v -0.108872 0.177322 0.073449
v 0.108872 -0.191931 -0.000000
v 0.108872 -0.177322 0.073449
v -0.108872 -0.135716 -0.135715
v 0.108872 0.191931 0.000000
v -0.108872 -0.177322 0.073449
v -0.108872 -0.191931 -0.000000
v 0.108872 -0.177322 -0.073449
v -0.108872 0.191931 0.000000
v 0.108872 -0.135716 0.135716
v -0.108872 -0.177322 -0.073449
vt 0.997981 0.598375
vt 0.937763 0.598375
vt 0.937763 0.628734
vt 0.997981 0.568015
vt 0.937763 0.568015
vt 0.997981 0.537656
vt 0.937763 0.537656
vt 0.997981 0.507297
vt 0.937763 0.507297
vt 0.997980 0.962689
vt 0.937763 0.962689
vt 0.937763 0.993048
vt 0.997980 0.932329
vt 0.937763 0.932329
vt 0.997980 0.901970
vt 0.937763 0.901970
vt 0.997980 0.871610
vt 0.937763 0.871610
vt 0.997980 0.841251
vt 0.937763 0.841251
vt 0.997980 0.810891
vt 0.937763 0.810891
vt 0.997980 0.780532
vt 0.937763 0.780532
vt 0.997980 0.750172
vt 0.937763 0.750172
vt 0.997981 0.719813
vt 0.937763 0.719813
vt 0.997981 0.689453
vt 0.937763 0.689453
vt 0.714464 0.975279
vt 0.691588 0.975277
vt 0.689489 0.985841
vt 0.997981 0.628734
vt 0.937763 0.659094
vt 0.997981 0.659094
vt 0.716555 0.849675
vt 0.714457 0.860239
vt 0.735592 0.868999
vt 0.693296 0.868787
vt 0.712767 0.868791
vt 0.714466 0.860238
vt 0.691588 0.975277
vt 0.693289 0.966726
vt 0.675303 0.959268
vt 0.760517 0.929207
vt 0.751768 0.950346
vt 0.760727 0.956323
vt 0.664470 0.860041
vt 0.670458 0.868992
vt 0.691591 0.860236
vt 0.645527 0.929191
vt 0.645527 0.906309
vt 0.634962 0.904213
vt 0.645334 0.956320
vt 0.654290 0.950336
vt 0.645541 0.929193
vt 0.771096 0.904216
vt 0.760531 0.906321
vt 0.760532 0.929203
vt 0.689475 0.849674
vt 0.691591 0.860236
vt 0.735598 0.966525
vt 0.716569 0.985841
vt 0.735598 0.966525
vt 0.714464 0.975279
vt 0.716569 0.985841
vt 0.689485 0.849674
vt 0.760518 0.906325
vt 0.771082 0.931303
vt 0.654278 0.950333
vt 0.634962 0.931296
vt 0.634977 0.931297
vt 0.645527 0.906309
vt 0.751777 0.950344
vt 0.760727 0.956323
vt 0.664458 0.860040
vt 0.670446 0.868991
vt 0.741586 0.975476
vt 0.689489 0.985841
vt 0.735592 0.868999
vt 0.741582 0.860042
vt 0.751766 0.885183
vt 0.771082 0.904221
vt 0.670453 0.966517
vt 0.645323 0.956319
vt 0.634973 0.904217
vt 0.654286 0.885172
vt 0.654275 0.885170
vt 0.670453 0.966517
vt 0.751776 0.885180
vt 0.741582 0.860042
vt 0.664476 0.975474
vt 0.741588 0.975476
vt 0.854380 0.909226
vt 0.861078 0.915883
vt 0.862457 0.914982
vt 0.836259 0.952999
vt 0.827576 0.949381
vt 0.826646 0.950732
vt 0.730748 0.876252
vt 0.744515 0.890030
vt 0.661530 0.945486
vt 0.654081 0.927487
vt 0.661541 0.945490
vt 0.730748 0.876252
vt 0.712767 0.868791
vt 0.675303 0.959268
vt 0.654096 0.927489
vt 0.744525 0.890029
vt 0.693285 0.868788
vt 0.693289 0.966726
vt 0.654093 0.908007
vt 0.751977 0.908027
vt 0.675295 0.876239
vt 0.744522 0.945502
vt 0.730750 0.959275
vt 0.712760 0.966727
vt 0.661541 0.890012
vt 0.751960 0.927510
vt 0.744514 0.945507
vt 0.751976 0.927506
vt 0.661529 0.890009
vt 0.712760 0.966727
vt 0.730750 0.959275
vt 0.675308 0.876239
vt 0.751963 0.908029
vt 0.654083 0.908005
vt 0.837547 0.946362
vt 0.831345 0.943744
vt 0.827589 0.949463
vt 0.850637 0.915064
vt 0.855446 0.919832
vt 0.861116 0.916001
vt 0.845693 0.905704
vt 0.854427 0.909324
vt 0.855359 0.907964
vt 0.845944 0.954648
vt 0.845646 0.953040
vt 0.836266 0.953048
vt 0.845673 0.953025
vt 0.835915 0.954603
vt 0.845654 0.905674
vt 0.855304 0.907866
vt 0.862499 0.915103
vt 0.826667 0.950816
vt 0.855283 0.950823
vt 0.854390 0.949442
vt 0.817286 0.934168
vt 0.817263 0.924744
vt 0.815654 0.924407
vt 0.835940 0.904086
vt 0.836242 0.905697
vt 0.864701 0.924744
vt 0.817294 0.924638
vt 0.820899 0.915944
vt 0.819546 0.915014
vt 0.820914 0.942853
vt 0.861078 0.942785
vt 0.820853 0.916019
vt 0.827556 0.909298
vt 0.864642 0.934177
vt 0.866247 0.934527
vt 0.817300 0.934051
vt 0.815688 0.924298
vt 0.815671 0.934473
vt 0.864703 0.934062
vt 0.862435 0.943719
vt 0.827517 0.909330
vt 0.826618 0.907951
vt 0.826662 0.907923
vt 0.860987 0.942851
vt 0.862334 0.943784
vt 0.820926 0.942728
vt 0.815688 0.934354
vt 0.864705 0.924611
vt 0.866315 0.934404
vt 0.836242 0.905697
vt 0.835940 0.904086
vt 0.854328 0.949473
vt 0.819553 0.943624
vt 0.846034 0.904092
vt 0.825935 0.926370
vt 0.828253 0.920856
vt 0.826575 0.919788
vt 0.853657 0.937957
vt 0.849396 0.942153
vt 0.850571 0.943761
vt 0.844322 0.946321
vt 0.823983 0.932786
vt 0.823987 0.926035
vt 0.837614 0.912394
vt 0.844375 0.912411
vt 0.857985 0.926087
vt 0.824000 0.925935
vt 0.826598 0.919715
vt 0.826545 0.939011
vt 0.855366 0.938997
vt 0.831378 0.914960
vt 0.857930 0.932839
vt 0.823975 0.932669
vt 0.857971 0.932754
vt 0.831360 0.915006
vt 0.855286 0.939055
vt 0.826597 0.938887
vt 0.857984 0.925985
vt 0.837615 0.912424
vt 0.850523 0.943827
vt 0.831352 0.943686
vt 0.855406 0.919729
vt 0.844385 0.912441
vt 0.844282 0.946342
vt 0.837574 0.946294
vt 0.850640 0.914944
vt 0.915549 0.180930
vt 0.921855 0.176688
vt 0.919938 0.171942
vt 0.945482 0.172556
vt 0.943468 0.177218
vt 0.949775 0.181360
vt 0.887372 0.095297
vt 0.877420 0.095297
vt 0.877420 0.098033
vt 0.887372 0.095297
vt 0.877420 0.095297
vt 0.877420 0.098032
vt 0.825920 0.932191
vt 0.825952 0.926199
vt 0.828187 0.937886
vt 0.825920 0.932352
vt 0.887372 0.098033
vt 0.876056 0.108548
vt 0.876056 0.115386
vt 0.877420 0.125901
vt 0.887371 0.125901
vt 0.828275 0.920693
vt 0.832523 0.916509
vt 0.856008 0.932566
vt 0.853673 0.938058
vt 0.876056 0.115387
vt 0.888736 0.115387
vt 0.856025 0.926440
vt 0.855987 0.932439
vt 0.832511 0.916646
vt 0.838061 0.914386
vt 0.876056 0.108548
vt 0.888735 0.115386
vt 0.832389 0.941993
vt 0.828188 0.937738
vt 0.887371 0.125901
vt 0.887371 0.098032
vt 0.849410 0.942246
vt 0.843874 0.944477
vt 0.887372 0.095297
vt 0.877420 0.095297
vt 0.877420 0.098033
vt 0.849539 0.916605
vt 0.853761 0.920879
vt 0.844056 0.914423
vt 0.849580 0.916750
vt 0.876056 0.115386
vt 0.877420 0.125901
vt 0.887375 0.125901
vt 0.843857 0.944383
vt 0.837887 0.944328
vt 0.888735 0.108548
vt 0.887372 0.098033
vt 0.887375 0.095296
vt 0.877420 0.095297
vt 0.877420 0.098032
vt 0.837896 0.944451
vt 0.832403 0.942124
vt 0.876056 0.108548
vt 0.876056 0.115387
vt 0.888735 0.115387
vt 0.888740 0.108547
vt 0.887375 0.098032
vt 0.838043 0.914264
vt 0.844012 0.914288
vt 0.853805 0.921018
vt 0.856060 0.926579
vt 0.877420 0.125901
vt 0.887371 0.125901
vt 0.876056 0.108548
vt 0.888740 0.115386
vt 0.945435 0.172379
vt 0.940027 0.158887
vt 0.925427 0.180342
vt 0.943662 0.162730
vt 0.925346 0.180478
vt 0.945493 0.167282
vt 0.952883 0.173813
vt 0.925590 0.158885
vt 0.930319 0.157000
vt 0.928808 0.149567
vt 0.939822 0.180727
vt 0.921191 0.186645
vt 0.943595 0.162543
vt 0.952934 0.165757
vt 0.935413 0.157068
vt 0.936860 0.149617
vt 0.935139 0.182548
vt 0.936615 0.189981
vt 0.930047 0.182373
vt 0.949895 0.158288
vt 0.940098 0.159078
vt 0.930054 0.182479
vt 0.935078 0.182472
vt 0.928575 0.189781
vt 0.936801 0.149436
vt 0.935332 0.156872
vt 0.949953 0.158474
vt 0.921210 0.186820
vt 0.939788 0.180608
vt 0.936593 0.189854
vt 0.919926 0.172186
vt 0.919955 0.167114
vt 0.912523 0.165662
vt 0.930263 0.156817
vt 0.945552 0.167466
vt 0.952982 0.165944
vt 0.912546 0.165433
vt 0.919986 0.166845
vt 0.921983 0.162177
vt 0.921800 0.176852
vt 0.943431 0.177056
vt 0.944032 0.186859
vt 0.921950 0.162437
vt 0.915636 0.158257
vt 0.921371 0.152419
vt 0.925607 0.158660
vt 0.952911 0.173984
vt 0.912503 0.173696
vt 0.949754 0.181224
vt 0.915666 0.158038
vt 0.876056 0.115387
vt 0.877420 0.125901
vt 0.887371 0.125901
vt 0.887372 0.095297
vt 0.877420 0.095297
vt 0.877420 0.098033
vt 0.887372 0.098033
vt 0.876056 0.108548
vt 0.888735 0.115387
vt 0.876056 0.115387
vt 0.877420 0.125901
vt 0.887371 0.125901
vt 0.876056 0.108548
vt 0.888735 0.115387
vt 0.887372 0.098033
vt 0.877420 0.098033
vt 0.887372 0.095297
vt 0.877420 0.095297
vt 0.887372 0.098033
vt 0.877420 0.098033
vt 0.876056 0.108548
vt 0.887371 0.125901
vt 0.888736 0.115387
vt 0.876056 0.115387
vt 0.887372 0.095297
vt 0.877420 0.095297
vt 0.876056 0.115387
vt 0.877420 0.125901
vt 0.887371 0.125901
vt 0.887372 0.098033
vt 0.887372 0.095297
vt 0.877420 0.095297
vt 0.876056 0.108548
vt 0.888740 0.108547
vt 0.997980 0.993048
vt 0.771098 0.931300
vt 0.716564 0.849674
vt 0.760722 0.879197
vt 0.664476 0.975474
vt 0.645327 0.879195
vt 0.645316 0.879193
vt 0.760722 0.879197
vt 0.835929 0.954648
vt 0.845969 0.954640
vt 0.845987 0.904067
vt 0.866323 0.924450
vt 0.819544 0.943752
vt 0.819495 0.915091
vt 0.866325 0.924309
vt 0.855217 0.950848
vt 0.912502 0.173480
vt 0.888740 0.108547
vt 0.888735 0.108548
vt 0.877420 0.125901
vt 0.921355 0.152603
vt 0.944051 0.186984
vt 0.944223 0.152548
vt 0.944278 0.152742
vt 0.928587 0.189946
vt 0.928784 0.149404
vt 0.915548 0.181129
vt 0.888735 0.108548
vt 0.888735 0.108548
vt 0.888740 0.108547
vt 0.877420 0.125901
vt 0.888736 0.115387
vt 0.877420 0.098033
vn 0.5796 -0.7529 0.3118
vn -0.5796 -0.7529 0.3118
vn -0.5796 -0.8149 -0.0000
vn 0.5796 -0.5762 0.5762
vn -0.5796 -0.5762 0.5762
vn 0.5796 -0.3118 0.7529
vn -0.5796 -0.3118 0.7529
vn 0.5796 -0.0000 0.8149
vn -0.5796 0.0000 0.8149
vn 0.5796 0.3118 0.7529
vn -0.5796 0.3118 0.7529
vn 0.5796 0.5762 0.5762
vn -0.5796 0.5762 0.5762
vn 0.5796 0.7529 0.3118
vn -0.5796 0.7529 0.3118
vn 0.5796 0.8149 -0.0000
vn -0.5796 0.8149 0.0000
vn 0.5796 0.7529 -0.3118
vn -0.5796 0.7529 -0.3118
vn 0.5796 0.5762 -0.5762
vn -0.5796 0.5762 -0.5762
vn 0.5796 0.3118 -0.7529
vn -0.5796 0.3118 -0.7529
vn 0.5796 0.0000 -0.8149
vn -0.5796 -0.0000 -0.8149
vn 0.5796 -0.3118 -0.7529
vn -0.5796 -0.3118 -0.7529
vn 0.5796 -0.5762 -0.5762
vn -0.5796 -0.5762 -0.5762
vn -0.9939 -0.0779 -0.0779
vn -0.9939 -0.0421 -0.1017
vn 0.5796 -0.8149 0.0000
vn -0.5796 -0.7529 -0.3118
vn 0.5796 -0.7529 -0.3118
vn -0.9939 0.0421 0.1017
vn -0.9939 0.0000 0.1101
vn 0.9993 -0.0263 0.0263
vn 0.9993 -0.0142 0.0344
vn 0.9939 0.0421 -0.1017
vn 0.9939 -0.0421 0.1017
vn 0.9993 0.0142 -0.0344
vn 0.9993 -0.0000 -0.0372
vn -0.9939 -0.1017 0.0421
vn -0.9939 -0.1101 -0.0000
vn 0.9939 0.1017 -0.0421
vn 0.9939 0.0779 -0.0779
vn -0.9939 0.0779 -0.0779
vn -0.9939 0.1017 -0.0421
vn 0.9939 0.0421 0.1017
vn 0.9939 0.0779 0.0779
vn 0.9939 -0.0779 -0.0779
vn 0.9939 -0.1017 -0.0421
vn -0.9939 0.0779 0.0779
vn -0.9939 -0.1017 -0.0421
vn 0.9939 -0.1017 0.0421
vn 0.9939 -0.0779 0.0779
vn -0.9939 -0.0779 0.0779
vn -0.9939 0.0421 -0.1017
vn 0.9939 0.1017 0.0421
vn 0.9939 -0.1101 0.0000
vn -0.9939 0.1017 0.0421
vn 0.9939 -0.0000 -0.1101
vn -0.9939 -0.0421 0.1017
vn -0.9939 -0.0000 -0.1101
vn 0.9939 0.1101 -0.0000
vn -0.9939 0.1101 0.0000
vn 0.9939 -0.0000 0.1101
vn 0.9939 -0.0421 -0.1017
vn -0.7538 0.0000 0.6571
vn -0.7538 -0.2515 0.6071
vn -0.9993 -0.0142 0.0344
vn -0.7538 -0.2515 -0.6071
vn -0.7538 0.0000 -0.6571
vn -0.9993 0.0000 -0.0372
vn -0.9993 0.0142 -0.0344
vn -0.9993 -0.0263 0.0263
vn 0.9993 -0.0142 -0.0344
vn 0.9993 -0.0000 0.0372
vn -0.9993 -0.0142 -0.0344
vn -0.9993 -0.0000 0.0372
vn 0.9993 -0.0263 -0.0263
vn 0.9993 0.0142 0.0344
vn -0.9993 -0.0263 -0.0263
vn -0.9993 0.0142 0.0344
vn 0.9993 -0.0344 -0.0142
vn 0.9993 0.0263 0.0263
vn -0.9993 -0.0344 -0.0142
vn 0.9993 0.0372 -0.0000
vn 0.9993 0.0344 -0.0142
vn -0.9993 0.0263 0.0263
vn 0.9993 -0.0372 -0.0000
vn -0.9993 0.0344 -0.0142
vn -0.9993 0.0372 -0.0000
vn 0.9993 0.0344 0.0142
vn -0.9993 -0.0372 0.0000
vn 0.9993 0.0263 -0.0263
vn -0.9993 0.0344 0.0142
vn 0.9993 -0.0344 0.0142
vn -0.9993 0.0263 -0.0263
vn -0.9993 -0.0344 0.0142
vn 0.2722 0.5808 0.7672
vn 0.2722 0.4866 0.8302
vn 0.7538 0.4647 0.4647
vn 0.2722 -0.4866 -0.8302
vn 0.2722 -0.9532 -0.1319
vn 0.7538 -0.6071 -0.2515
vn 0.7538 -0.2515 -0.6071
vn 0.7538 -0.4647 -0.4647
vn 0.7538 0.0000 0.6571
vn 0.7538 0.2515 0.6071
vn -0.7538 -0.4647 -0.4647
vn -0.7538 0.2515 0.6071
vn -0.7538 -0.6071 -0.2515
vn 0.7538 0.6571 -0.0000
vn 0.7538 0.6071 -0.2515
vn -0.7538 0.4647 0.4647
vn 0.7538 -0.6571 0.0000
vn -0.7538 0.6071 -0.2515
vn -0.7538 0.6571 0.0000
vn 0.7538 0.6071 0.2515
vn -0.7538 -0.6571 -0.0000
vn 0.7538 0.4647 -0.4647
vn -0.7538 0.6071 0.2515
vn 0.7538 -0.6071 0.2515
vn -0.7538 0.4647 -0.4647
vn -0.7538 -0.6071 0.2515
vn 0.7538 0.2515 -0.6071
vn 0.7538 -0.4647 0.4647
vn -0.7538 0.2515 -0.6071
vn -0.7538 -0.4647 0.4647
vn 0.7538 -0.0000 -0.6571
vn 0.7538 -0.2515 0.6071
vn 0.8141 -0.5571 -0.1638
vn 0.8141 -0.0619 0.5774
vn 0.2722 0.8302 -0.4866
vn -0.8141 0.4521 -0.3645
vn -0.8141 0.2782 0.5098
vn -0.2722 -0.9532 -0.1319
vn -0.2722 -0.4866 -0.8302
vn 0.2722 0.9311 0.2429
vn 0.2722 0.7672 -0.5808
vn -0.2722 0.4866 0.8302
vn -0.2722 0.5808 0.7672
vn 0.2722 -0.9311 -0.2429
vn -0.2722 0.7672 -0.5808
vn -0.2722 0.9311 0.2429
vn 0.2722 0.9532 0.1319
vn -0.2722 -0.9311 -0.2429
vn -0.2722 0.9532 0.1319
vn 0.2722 -0.7672 0.5808
vn -0.2722 0.8302 -0.4866
vn -0.2722 -0.7672 0.5808
vn 0.2722 0.1319 -0.9532
vn 0.2722 -0.8302 0.4866
vn -0.2722 0.1319 -0.9532
vn -0.2722 -0.8302 0.4866
vn 0.2722 0.2429 -0.9311
vn 0.2722 -0.1319 0.9532
vn -0.2722 0.2429 -0.9311
vn -0.2722 -0.1319 0.9532
vn 0.2722 -0.5808 -0.7672
vn 0.2722 -0.2429 0.9311
vn -0.2722 -0.5808 -0.7672
vn -0.2722 -0.2429 0.9311
vn -0.8141 -0.5098 0.2782
vn -0.9798 -0.0766 0.1848
vn -0.9798 -0.1414 0.1415
vn 0.9798 0.1848 -0.0766
vn 0.9798 0.1414 -0.1414
vn 0.8141 0.0619 -0.5774
vn 0.8141 0.2782 0.5098
vn -0.8141 0.5774 0.0619
vn 0.8141 0.1638 -0.5571
vn -0.8141 0.1638 -0.5571
vn -0.8141 -0.3645 -0.4521
vn -0.8141 -0.0619 0.5774
vn -0.8141 -0.5571 -0.1638
vn 0.8141 -0.2782 -0.5098
vn 0.8141 -0.4521 0.3645
vn 0.8141 0.5774 0.0619
vn -0.8141 -0.4521 0.3645
vn -0.8141 -0.2782 -0.5098
vn 0.8141 0.5571 0.1638
vn -0.8141 0.0619 -0.5774
vn -0.8141 0.5571 0.1638
vn 0.8141 -0.5098 0.2782
vn 0.8141 0.3645 0.4521
vn -0.8141 0.3645 0.4521
vn 0.8141 -0.3645 -0.4521
vn 0.8141 0.5098 -0.2782
vn -0.8141 0.5098 -0.2782
vn 0.8141 -0.1638 0.5571
vn -0.8141 -0.1638 0.5571
vn 0.8141 0.4521 -0.3645
vn 0.8141 -0.5774 -0.0619
vn -0.8141 -0.5774 -0.0619
vn -0.9798 0.1848 -0.0766
vn -0.9798 -0.0000 -0.2000
vn -0.9798 -0.0000 0.2000
vn 0.9798 0.1848 0.0766
vn 0.9798 -0.1414 -0.1414
vn -0.9798 0.1414 -0.1414
vn 0.9798 -0.0766 0.1848
vn 0.9798 -0.0000 0.2000
vn 0.9798 0.0766 -0.1848
vn -0.9798 0.0766 -0.1848
vn 0.9798 0.0766 0.1848
vn 0.9798 0.0000 -0.2000
vn -0.9798 0.0766 0.1848
vn 0.9798 0.1414 0.1415
vn 0.9798 -0.0766 -0.1848
vn -0.9798 0.1415 0.1415
vn -0.9798 -0.0766 -0.1848
vn -0.9798 0.1848 0.0766
vn 0.9798 -0.2000 0.0000
vn 0.9798 -0.1848 0.0766
vn -0.9798 -0.1414 -0.1414
vn 0.9798 0.2000 -0.0000
vn -0.9798 -0.1848 0.0766
vn -0.9798 -0.2000 0.0000
vn 0.9798 -0.1848 -0.0766
vn -0.9798 0.2000 0.0000
vn 0.9798 -0.1414 0.1415
vn -0.9798 -0.1848 -0.0766
usemtl wheel.002
s 1
f 1/1/1 2/2/2 3/3/3
f 1/1/1 4/4/4 5/5/5
f 6/6/6 7/7/7 5/5/5
f 8/8/8 9/9/9 7/7/7
f 10/10/10 11/11/11 9/12/9
f 12/13/12 13/14/13 11/11/11
f 14/15/14 15/16/15 13/14/13
f 16/17/16 17/18/17 15/16/15
f 18/19/18 19/20/19 17/18/17
f 20/21/20 21/22/21 19/20/19
f 22/23/22 23/24/23 21/22/21
f 22/23/22 24/25/24 25/26/25
f 26/27/26 27/28/27 25/26/25
f 28/29/28 29/30/29 27/28/27
f 30/31/30 31/32/31 27/33/27
f 32/34/32 3/3/3 33/35/33
f 34/36/34 33/35/33 29/30/29
f 11/37/11 35/38/35 36/39/36
f 37/40/37 38/41/38 39/42/39
f 40/43/40 41/44/41 42/45/42
f 43/46/43 44/47/44 3/48/3
f 18/49/18 45/50/45 46/51/46
f 47/52/47 48/53/48 19/54/19
f 10/55/10 49/56/49 50/57/50
f 28/58/28 51/59/51 52/60/52
f 13/61/13 53/62/53 35/38/35
f 54/63/54 30/31/30 29/64/29
f 55/65/55 56/66/56 4/67/4
f 20/68/20 46/51/46 39/42/39
f 57/69/57 43/46/43 2/70/2
f 58/71/58 47/52/47 21/72/21
f 12/73/12 50/57/50 59/74/59
f 52/60/52 60/75/60 32/76/32
f 15/77/15 61/78/61 53/62/53
f 44/47/44 54/63/54 33/79/33
f 56/66/56 40/43/40 6/80/6
f 39/42/39 62/81/62 24/82/24
f 63/83/63 57/69/57 5/84/5
f 64/85/64 58/71/58 23/86/23
f 14/87/14 59/74/59 65/88/65
f 66/89/66 61/78/61 15/77/15
f 6/80/6 40/43/40 67/90/67
f 24/82/24 62/81/62 68/91/68
f 9/92/9 36/39/36 63/83/63
f 27/33/27 31/32/31 64/85/64
f 65/88/65 45/50/45 18/49/18
f 19/54/19 48/53/48 66/89/66
f 8/93/8 67/90/67 49/56/49
f 68/91/68 51/59/51 28/58/28
f 60/75/60 55/65/55 1/94/1
f 69/95/69 70/96/70 71/97/71
f 72/98/72 73/99/73 74/100/74
f 74/101/74 75/102/75 63/83/63
f 71/103/71 76/104/76 47/52/47
f 42/45/42 77/105/77 49/56/49
f 38/41/38 78/106/78 62/81/62
f 79/107/79 74/101/74 36/39/36
f 80/108/80 71/103/71 58/71/58
f 77/105/77 81/109/81 50/57/50
f 62/81/62 78/106/78 82/110/82
f 83/111/83 79/107/79 35/38/35
f 31/32/31 84/112/84 80/108/80
f 81/109/81 85/113/85 59/74/59
f 68/91/68 82/110/82 86/114/86
f 61/78/61 87/115/87 83/111/83
f 88/116/88 89/117/89 55/65/55
f 90/118/90 84/112/84 31/32/31
f 85/113/85 91/119/91 65/88/65
f 43/46/43 92/120/92 93/121/93
f 51/59/51 86/114/86 94/122/94
f 95/123/95 87/115/87 61/78/61
f 89/117/89 96/124/96 56/66/56
f 97/125/97 90/118/90 30/31/30
f 91/119/91 98/126/98 45/50/45
f 99/127/99 92/120/92 43/46/43
f 94/122/94 88/116/88 60/75/60
f 100/128/100 95/123/95 66/89/66
f 96/124/96 41/44/41 40/43/40
f 93/121/93 97/125/97 54/63/54
f 98/126/98 37/40/37 46/51/46
f 75/102/75 99/127/99 57/69/57
f 76/104/76 100/128/100 48/53/48
f 101/129/101 102/130/102 103/131/103
f 104/132/104 105/133/105 106/134/106
f 107/135/107 108/136/108 81/137/81
f 78/138/78 109/139/109 110/140/110
f 111/141/111 72/98/72 79/142/79
f 112/143/112 69/95/69 80/144/80
f 108/136/108 106/134/106 85/145/85
f 110/140/110 103/131/103 86/146/86
f 87/147/87 113/148/113 111/141/111
f 114/149/114 115/150/115 89/151/89
f 90/152/90 116/153/116 112/143/112
f 85/145/85 106/134/106 117/154/117
f 118/155/118 119/156/119 93/157/93
f 86/146/86 103/131/103 120/158/120
f 121/159/121 113/148/113 87/147/87
f 89/151/89 115/150/115 122/160/122
f 123/161/123 116/153/116 90/152/90
f 117/154/117 124/162/124 98/163/98
f 125/164/125 118/155/118 92/165/92
f 120/158/120 114/149/114 88/166/88
f 126/167/126 121/159/121 95/168/95
f 122/160/122 127/169/127 41/170/41
f 119/156/119 123/161/123 97/171/97
f 124/162/124 128/172/128 37/173/37
f 129/174/129 125/164/125 99/175/99
f 130/176/130 126/167/126 100/177/100
f 127/169/127 131/178/131 42/179/42
f 37/173/37 128/172/128 132/180/132
f 73/99/73 129/174/129 75/181/75
f 71/97/71 70/96/70 130/176/130
f 131/178/131 107/135/107 77/182/77
f 132/180/132 109/139/109 78/138/78
f 133/183/133 134/184/134 135/185/135
f 136/186/136 137/187/137 138/188/138
f 138/188/138 139/189/139 111/141/111
f 140/190/140 141/191/141 115/150/115
f 116/153/116 142/192/142 143/193/143
f 105/133/105 144/194/144 117/154/117
f 145/195/145 146/196/146 119/156/119
f 102/130/102 147/197/147 120/158/120
f 148/198/148 138/188/138 113/148/113
f 141/191/141 135/185/135 122/160/122
f 149/199/149 142/192/142 116/153/116
f 117/154/117 144/194/144 150/200/150
f 151/201/151 145/195/145 118/155/118
f 147/197/147 140/190/140 114/149/114
f 152/202/152 148/198/148 121/159/121
f 135/185/135 153/203/153 127/169/127
f 146/196/146 149/199/149 123/161/123
f 150/200/150 154/204/154 128/172/128
f 155/205/155 151/201/151 125/164/125
f 156/206/156 152/202/152 126/167/126
f 153/203/153 157/207/157 131/178/131
f 154/204/154 158/208/158 132/180/132
f 159/209/159 155/205/155 129/174/129
f 160/210/160 156/206/156 130/176/130
f 131/178/131 157/207/157 161/211/161
f 158/208/158 162/212/162 109/139/109
f 72/98/72 163/213/163 159/209/159
f 164/214/164 160/210/160 70/96/70
f 161/211/161 104/132/104 108/136/108
f 162/212/162 101/129/101 110/140/110
f 111/141/111 139/189/139 163/213/163
f 143/193/143 164/214/164 69/95/69
f 165/215/165 166/216/166 167/217/167
f 168/218/168 169/219/169 170/220/170
f 171/221/171 137/222/137 172/223/172
f 173/224/173 174/225/174 175/226/175
f 176/227/176 177/228/177 145/195/145
f 178/229/178 179/230/179 140/190/140
f 180/231/180 172/223/172 139/232/139
f 143/233/143 174/234/174 173/235/173
f 146/196/146 181/236/181 182/237/182
f 150/200/150 183/238/183 170/239/170
f 139/232/139 138/240/138 105/241/105
f 184/242/184 185/243/185 152/202/152
f 153/203/153 186/244/186 187/245/187
f 164/246/164 143/233/143 101/247/101
f 188/248/188 165/249/165 155/205/155
f 171/250/171 105/241/105 138/240/138
f 189/251/189 175/226/175 164/246/164
f 190/252/190 189/253/189 162/212/162
f 183/254/183 185/255/185 136/256/136
f 164/214/164 175/257/175 191/258/191
f 192/259/192 180/260/180 104/132/104
f 160/261/160 191/262/191 190/263/190
f 139/189/139 172/264/172 193/265/193
f 144/266/144 194/267/194 136/256/136
f 190/268/190 191/269/191 184/270/184
f 173/271/173 195/272/195 102/130/102
f 148/273/148 152/274/152 150/275/150
f 154/276/154 170/277/170 184/270/184
f 142/192/142 196/278/196 174/279/174
f 105/133/105 171/280/171 194/281/194
f 152/274/152 185/282/185 183/283/183
f 156/284/156 160/261/160 158/285/158
f 197/286/197 198/287/198 199/288/199
f 200/289/200 201/290/201 168/218/168
f 202/291/202 197/286/197 185/292/185
f 203/293/203 204/294/204 187/295/187
f 170/220/170 169/219/169 205/296/205
f 188/297/188 199/288/199 166/216/166
f 206/298/206 202/291/202 184/299/184
f 204/294/204 207/300/207 192/301/192
f 205/296/205 208/302/208 189/303/189
f 209/304/209 199/288/199 188/297/188
f 198/287/198 206/298/206 191/305/191
f 192/301/192 207/300/207 210/306/210
f 189/303/189 208/302/208 211/307/211
f 212/308/212 209/304/209 193/309/193
f 174/310/174 213/311/213 198/287/198
f 210/306/210 200/289/200 171/312/171
f 211/307/211 201/290/201 195/313/195
f 214/314/214 212/308/212 172/315/172
f 215/316/215 216/317/216 133/318/133
f 217/319/217 213/311/213 174/310/174
f 200/289/200 218/320/218 194/321/194
f 177/322/177 219/323/219 220/324/220
f 195/313/195 201/290/201 221/325/221
f 222/326/222 214/314/214 137/327/137
f 216/317/216 223/328/223 134/329/134
f 182/330/182 224/331/224 217/319/217
f 218/320/218 168/218/168 183/332/183
f 167/217/167 219/323/219 177/322/177
f 221/325/221 215/316/215 179/333/179
f 197/286/197 222/326/222 136/334/136
f 134/329/134 223/328/223 203/293/203
f 181/335/181 220/324/220 224/331/224
f 163/336/163 193/337/193 192/338/192
f 192/339/192 193/340/193 188/341/188
f 187/342/187 188/341/188 159/343/159
f 159/343/159 163/336/163 161/344/161
f 155/345/155 165/346/165 186/347/186
f 151/348/151 155/345/155 153/349/153
f 134/350/134 176/351/176 151/348/151
f 134/350/134 186/352/186 165/353/165
f 179/354/179 181/355/181 146/356/146
f 133/357/133 141/358/141 145/359/145
f 179/354/179 133/360/133 177/361/177
f 146/356/146 145/359/145 141/358/141
f 149/362/149 182/363/182 178/364/178
f 195/365/195 178/366/178 182/367/182
f 142/368/142 102/369/102 195/365/195
f 102/369/102 142/368/142 149/362/149
f 32/34/32 1/1/1 3/3/3
f 2/2/2 1/1/1 5/5/5
f 4/4/4 6/6/6 5/5/5
f 6/6/6 8/8/8 7/7/7
f 8/370/8 10/10/10 9/12/9
f 10/10/10 12/13/12 11/11/11
f 12/13/12 14/15/14 13/14/13
f 14/15/14 16/17/16 15/16/15
f 16/17/16 18/19/18 17/18/17
f 18/19/18 20/21/20 19/20/19
f 20/21/20 22/23/22 21/22/21
f 23/24/23 22/23/22 25/26/25
f 24/25/24 26/27/26 25/26/25
f 26/27/26 28/29/28 27/28/27
f 29/64/29 30/31/30 27/33/27
f 34/36/34 32/34/32 33/35/33
f 28/29/28 34/36/34 29/30/29
f 9/92/9 11/37/11 36/39/36
f 46/51/46 37/40/37 39/42/39
f 67/90/67 40/43/40 42/45/42
f 2/70/2 43/46/43 3/48/3
f 20/68/20 18/49/18 46/51/46
f 21/72/21 47/52/47 19/54/19
f 12/73/12 10/55/10 50/57/50
f 34/371/34 28/58/28 52/60/52
f 11/37/11 13/61/13 35/38/35
f 33/79/33 54/63/54 29/64/29
f 1/94/1 55/65/55 4/67/4
f 22/372/22 20/68/20 39/42/39
f 5/84/5 57/69/57 2/70/2
f 23/86/23 58/71/58 21/72/21
f 14/87/14 12/73/12 59/74/59
f 34/371/34 52/60/52 32/76/32
f 13/61/13 15/77/15 53/62/53
f 3/48/3 44/47/44 33/79/33
f 4/67/4 56/66/56 6/80/6
f 22/372/22 39/42/39 24/82/24
f 7/373/7 63/83/63 5/84/5
f 25/374/25 64/85/64 23/86/23
f 16/375/16 14/87/14 65/88/65
f 17/376/17 66/89/66 15/77/15
f 8/93/8 6/80/6 67/90/67
f 26/377/26 24/82/24 68/91/68
f 7/373/7 9/92/9 63/83/63
f 25/374/25 27/33/27 64/85/64
f 16/375/16 65/88/65 18/49/18
f 17/376/17 19/54/19 66/89/66
f 10/55/10 8/93/8 49/56/49
f 26/377/26 68/91/68 28/58/28
f 32/76/32 60/75/60 1/94/1
f 80/144/80 69/95/69 71/97/71
f 79/142/79 72/98/72 74/100/74
f 36/39/36 74/101/74 63/83/63
f 58/71/58 71/103/71 47/52/47
f 67/90/67 42/45/42 49/56/49
f 39/42/39 38/41/38 62/81/62
f 35/38/35 79/107/79 36/39/36
f 64/85/64 80/108/80 58/71/58
f 49/56/49 77/105/77 50/57/50
f 68/91/68 62/81/62 82/110/82
f 53/62/53 83/111/83 35/38/35
f 64/85/64 31/32/31 80/108/80
f 50/57/50 81/109/81 59/74/59
f 51/59/51 68/91/68 86/114/86
f 53/62/53 61/78/61 83/111/83
f 60/75/60 88/116/88 55/65/55
f 30/31/30 90/118/90 31/32/31
f 59/74/59 85/113/85 65/88/65
f 44/47/44 43/46/43 93/121/93
f 52/60/52 51/59/51 94/122/94
f 66/89/66 95/123/95 61/78/61
f 55/65/55 89/117/89 56/66/56
f 54/63/54 97/125/97 30/31/30
f 65/88/65 91/119/91 45/50/45
f 57/69/57 99/127/99 43/46/43
f 52/60/52 94/122/94 60/75/60
f 48/53/48 100/128/100 66/89/66
f 56/66/56 96/124/96 40/43/40
f 44/47/44 93/121/93 54/63/54
f 45/50/45 98/126/98 46/51/46
f 63/83/63 75/102/75 57/69/57
f 47/52/47 76/104/76 48/53/48
f 110/140/110 101/129/101 103/131/103
f 108/136/108 104/132/104 106/134/106
f 77/182/77 107/135/107 81/137/81
f 82/378/82 78/138/78 110/140/110
f 83/379/83 111/141/111 79/142/79
f 84/380/84 112/143/112 80/144/80
f 81/137/81 108/136/108 85/145/85
f 82/378/82 110/140/110 86/146/86
f 83/379/83 87/147/87 111/141/111
f 88/166/88 114/149/114 89/151/89
f 84/380/84 90/152/90 112/143/112
f 91/381/91 85/145/85 117/154/117
f 92/165/92 118/155/118 93/157/93
f 94/382/94 86/146/86 120/158/120
f 95/168/95 121/159/121 87/147/87
f 96/383/96 89/151/89 122/160/122
f 97/171/97 123/161/123 90/152/90
f 91/381/91 117/154/117 98/163/98
f 99/175/99 125/164/125 92/165/92
f 94/382/94 120/158/120 88/166/88
f 100/177/100 126/167/126 95/168/95
f 96/383/96 122/160/122 41/170/41
f 93/157/93 119/156/119 97/171/97
f 98/163/98 124/162/124 37/173/37
f 75/181/75 129/174/129 99/175/99
f 76/384/76 130/176/130 100/177/100
f 41/170/41 127/169/127 42/179/42
f 38/385/38 37/173/37 132/180/132
f 74/100/74 73/99/73 75/181/75
f 76/384/76 71/97/71 130/176/130
f 42/179/42 131/178/131 77/182/77
f 38/385/38 132/180/132 78/138/78
f 141/191/141 133/183/133 135/185/135
f 148/198/148 136/186/136 138/188/138
f 113/148/113 138/188/138 111/141/111
f 114/149/114 140/190/140 115/150/115
f 112/143/112 116/153/116 143/193/143
f 106/134/106 105/133/105 117/154/117
f 118/155/118 145/195/145 119/156/119
f 103/131/103 102/130/102 120/158/120
f 121/159/121 148/198/148 113/148/113
f 115/150/115 141/191/141 122/160/122
f 123/161/123 149/199/149 116/153/116
f 124/162/124 117/154/117 150/200/150
f 125/164/125 151/201/151 118/155/118
f 120/158/120 147/197/147 114/149/114
f 126/167/126 152/202/152 121/159/121
f 122/160/122 135/185/135 127/169/127
f 119/156/119 146/196/146 123/161/123
f 124/162/124 150/200/150 128/172/128
f 129/174/129 155/205/155 125/164/125
f 130/176/130 156/206/156 126/167/126
f 127/169/127 153/203/153 131/178/131
f 128/172/128 154/204/154 132/180/132
f 73/99/73 159/209/159 129/174/129
f 70/96/70 160/210/160 130/176/130
f 107/135/107 131/178/131 161/211/161
f 132/180/132 158/208/158 109/139/109
f 73/99/73 72/98/72 159/209/159
f 69/95/69 164/214/164 70/96/70
f 107/135/107 161/211/161 108/136/108
f 109/139/109 162/212/162 110/140/110
f 72/98/72 111/141/111 163/213/163
f 112/143/112 143/193/143 69/95/69
f 176/386/176 165/215/165 167/217/167
f 183/332/183 168/218/168 170/220/170
f 180/231/180 171/221/171 172/223/172
f 189/251/189 173/224/173 175/226/175
f 151/201/151 176/227/176 145/195/145
f 147/197/147 178/229/178 140/190/140
f 104/387/104 180/231/180 139/232/139
f 101/247/101 143/233/143 173/235/173
f 149/199/149 146/196/146 182/237/182
f 154/204/154 150/200/150 170/239/170
f 104/387/104 139/232/139 105/241/105
f 156/206/156 184/242/184 152/202/152
f 157/207/157 153/203/153 187/245/187
f 162/388/162 164/246/164 101/247/101
f 159/209/159 188/248/188 155/205/155
f 137/389/137 171/250/171 138/240/138
f 162/388/162 189/251/189 164/246/164
f 158/208/158 190/252/190 162/212/162
f 194/267/194 183/254/183 136/256/136
f 160/210/160 164/214/164 191/258/191
f 161/211/161 192/259/192 104/132/104
f 158/285/158 160/261/160 190/263/190
f 163/213/163 139/189/139 193/265/193
f 148/273/148 144/266/144 136/256/136
f 170/277/170 190/268/190 184/270/184
f 101/129/101 173/271/173 102/130/102
f 144/266/144 148/273/148 150/275/150
f 156/284/156 154/276/154 184/270/184
f 143/193/143 142/192/142 174/279/174
f 144/194/144 105/133/105 194/281/194
f 150/275/150 152/274/152 183/283/183
f 154/276/154 156/284/156 158/285/158
f 220/324/220 219/323/219 199/288/199
f 167/217/167 166/216/166 199/288/199
f 199/288/199 209/304/209 212/308/212
f 212/308/212 214/314/214 222/326/222
f 222/326/222 197/286/197 199/288/199
f 202/291/202 206/298/206 198/287/198
f 198/287/198 213/311/213 217/319/217
f 217/319/217 224/331/224 220/324/220
f 219/323/219 167/217/167 199/288/199
f 199/288/199 212/308/212 222/326/222
f 197/286/197 202/291/202 198/287/198
f 198/287/198 217/319/217 199/288/199
f 220/324/220 199/288/199 217/319/217
f 216/317/216 215/316/215 201/290/201
f 221/325/221 201/290/201 215/316/215
f 211/307/211 208/302/208 201/290/201
f 205/296/205 169/219/169 208/302/208
f 168/218/168 218/320/218 200/289/200
f 200/289/200 210/306/210 207/300/207
f 207/300/207 204/294/204 216/317/216
f 203/293/203 223/328/223 216/317/216
f 216/317/216 201/290/201 207/300/207
f 208/302/208 169/219/169 168/218/168
f 168/218/168 201/290/201 208/302/208
f 204/294/204 203/293/203 216/317/216
f 201/290/201 200/289/200 207/300/207
f 184/299/184 202/291/202 185/292/185
f 186/390/186 203/293/203 187/295/187
f 190/391/190 170/220/170 205/296/205
f 165/215/165 188/297/188 166/216/166
f 191/305/191 206/298/206 184/299/184
f 187/295/187 204/294/204 192/301/192
f 190/391/190 205/296/205 189/303/189
f 193/309/193 209/304/209 188/297/188
f 175/392/175 198/287/198 191/305/191
f 180/393/180 192/301/192 210/306/210
f 173/394/173 189/303/189 211/307/211
f 172/315/172 212/308/212 193/309/193
f 175/392/175 174/310/174 198/287/198
f 180/393/180 210/306/210 171/312/171
f 173/394/173 211/307/211 195/313/195
f 137/327/137 214/314/214 172/315/172
f 179/333/179 215/316/215 133/318/133
f 196/395/196 217/319/217 174/310/174
f 171/312/171 200/289/200 194/321/194
f 181/335/181 177/322/177 220/324/220
f 178/396/178 195/313/195 221/325/221
f 136/334/136 222/326/222 137/327/137
f 133/318/133 216/317/216 134/329/134
f 196/395/196 182/330/182 217/319/217
f 194/321/194 218/320/218 183/332/183
f 176/386/176 167/217/167 177/322/177
f 178/396/178 221/325/221 179/333/179
f 185/292/185 197/286/197 136/334/136
f 186/390/186 134/329/134 203/293/203
f 182/330/182 181/335/181 224/331/224
f 161/344/161 163/336/163 192/338/192
f 187/342/187 192/339/192 188/341/188
f 157/397/157 187/342/187 159/343/159
f 157/397/157 159/343/159 161/344/161
f 153/349/153 155/345/155 186/347/186
f 135/398/135 151/348/151 153/349/153
f 135/398/135 134/350/134 151/348/151
f 176/351/176 134/350/134 165/353/165
f 140/399/140 179/354/179 146/356/146
f 177/400/177 133/357/133 145/359/145
f 181/355/181 179/354/179 177/361/177
f 140/399/140 146/356/146 141/358/141
f 147/401/147 149/362/149 178/364/178
f 196/402/196 195/365/195 182/367/182
f 196/402/196 142/368/142 195/365/195
f 147/401/147 102/369/102 149/362/149
