# Blender v3.0.1 OBJ File: ''
# www.blender.org
mtllib focus.mtl
o body_Box01.001
v -0.066350 0.388931 0.900372
v 0.082893 0.388931 0.900372
v 0.082893 0.466731 0.890725
v -0.066350 0.466731 0.890725
v 0.082893 0.585770 0.852118
v -0.066350 0.585770 0.852118
v -0.112616 0.274278 0.893001
v 0.129158 0.274278 0.893001
v 0.129158 0.459739 0.845571
v 0.129158 0.523748 0.817745
v -0.112616 0.523748 0.817745
v -0.112616 0.459739 0.845571
v 0.012346 -0.383912 0.905060
v 0.002580 -0.365954 0.905060
v 0.002580 -0.678656 1.360189
v -0.007184 -0.383912 0.905060
v 0.012346 -0.998190 0.869654
v 0.002580 -0.980232 0.869654
v 0.002580 -1.052350 1.122966
v -0.007184 -0.998190 0.869654
v -0.715212 0.778937 0.557367
v -0.672503 0.773347 0.543305
v -0.681113 0.823590 0.534678
v -0.754590 0.820502 0.556603
v -0.766914 0.766441 0.606979
v -0.793313 0.811096 0.588611
v -0.811069 0.744087 0.628855
v -0.827863 0.797538 0.602725
v -0.863964 0.701884 0.618825
v -0.868670 0.764342 0.598941
v -0.741471 0.782855 0.478117
v -0.771532 0.823030 0.505474
v -0.697599 0.828444 0.483548
v -0.698055 0.780872 0.464055
v -0.811950 0.764352 0.472255
v -0.822368 0.809750 0.501691
v -0.854177 0.730093 0.494129
v -0.855675 0.788511 0.515805
v -0.889322 0.693652 0.539575
v -0.885031 0.759031 0.547813
v -0.430661 -0.812896 -0.117916
v -0.306738 -0.812896 -0.117916
v -0.306738 -1.585510 -0.047104
v -0.430661 -1.585510 -0.047104
v -0.430661 -0.883577 0.321879
v -0.430661 -1.488515 0.321879
v -0.306738 -1.488515 0.321879
v -0.306738 -0.883577 0.321879
v 0.300789 -0.812896 -0.117916
v 0.424712 -0.812896 -0.117916
v 0.424712 -1.585510 -0.047104
v 0.300789 -1.585510 -0.047104
v 0.300789 -0.883577 0.321879
v 0.300789 -1.488515 0.321879
v 0.424712 -1.488515 0.321879
v 0.424712 -0.883577 0.321879
v -0.430661 2.045543 -0.189207
v -0.306738 2.045543 -0.189207
v -0.306738 1.096492 -0.001551
v -0.430661 1.096492 -0.001551
v -0.430661 1.847173 0.279575
v -0.430661 1.269918 0.317130
v -0.306738 1.269917 0.317130
v -0.306738 1.847173 0.279575
v 0.300789 2.045543 -0.189207
v 0.424712 2.045543 -0.189207
v 0.424712 1.096492 -0.001551
v 0.300789 1.096492 -0.001551
v 0.300789 1.847173 0.279575
v 0.300789 1.269917 0.317130
v 0.424712 1.269917 0.317130
v 0.424712 1.847173 0.279575
v 0.580201 -1.801882 -0.154976
v 0.564069 -1.801882 -0.116029
v 0.525121 -1.711882 -0.154976
v 0.525121 -1.801882 -0.099897
v 0.486175 -1.801881 -0.116029
v 0.470042 -1.801881 -0.154976
v 0.486175 -1.801881 -0.193924
v 0.525121 -1.801882 -0.210055
v 0.564069 -1.801882 -0.193924
v 0.564069 -1.584639 -0.116028
v 0.580201 -1.584639 -0.154976
v 0.525121 -1.584639 -0.099897
v 0.486175 -1.584639 -0.116028
v 0.470042 -1.584639 -0.154976
v 0.486175 -1.584639 -0.193924
v 0.525121 -1.584639 -0.210055
v 0.564069 -1.584639 -0.193924
v 0.063116 -0.928091 -0.199127
v 0.030376 -0.916088 -0.143557
v 0.063116 -1.197831 -0.078953
v 0.030376 -1.173343 -0.027147
v -0.035105 -0.916088 -0.143557
v -0.035105 -1.173343 -0.027147
v -0.067845 -0.928091 -0.199127
v -0.067845 -1.197831 -0.078953
v -0.035105 -0.940094 -0.254695
v -0.035105 -1.222320 -0.130758
v 0.030376 -0.940094 -0.254695
v 0.030376 -1.222320 -0.130758
v 0.030376 1.208452 -0.143658
v 0.063116 1.220971 -0.199126
v -0.035105 1.208452 -0.143658
v -0.067845 1.220971 -0.199126
v -0.035105 1.233488 -0.254594
v 0.030376 1.233488 -0.254594
v 0.063116 1.506658 -0.078952
v 0.030376 1.475201 -0.030601
v -0.035105 1.475201 -0.030601
v -0.067845 1.506658 -0.078952
v -0.035105 1.538118 -0.127304
v 0.030376 1.538118 -0.127304
v -0.153866 1.461400 -0.106144
v -0.153866 1.491119 -0.057662
v -0.682960 1.461400 -0.106144
v -0.682960 1.491119 -0.057662
v -0.153866 1.550555 -0.057662
v -0.682960 1.550555 -0.057662
v -0.153866 1.580274 -0.106144
v -0.682960 1.580274 -0.106144
v -0.153866 1.550555 -0.154626
v -0.682960 1.550555 -0.154626
v -0.153866 1.491119 -0.154626
v -0.682960 1.491119 -0.154626
v -0.137158 1.446244 0.015546
v -0.137158 1.371650 -0.106144
v -0.137158 1.595430 0.015546
v -0.137158 1.670024 -0.106144
v -0.137158 1.595430 -0.227836
v -0.137158 1.446244 -0.227836
v 0.133211 1.371650 -0.106144
v 0.133211 1.446244 0.015546
v 0.133211 1.595430 0.015546
v 0.133211 1.670024 -0.106144
v 0.133211 1.595430 -0.227836
v 0.133211 1.446244 -0.227836
v 0.149920 1.461400 -0.106144
v 0.149920 1.491119 -0.057662
v 0.149920 1.550555 -0.057662
v 0.149920 1.580274 -0.106144
v 0.149920 1.550555 -0.154626
v 0.149920 1.491119 -0.154626
v 0.679013 1.461400 -0.106144
v 0.679013 1.491119 -0.057662
v 0.679013 1.550555 -0.057662
v 0.679013 1.580274 -0.106144
v 0.679013 1.550555 -0.154626
v 0.679013 1.491119 -0.154626
v -0.405729 -1.193882 0.846727
v -0.385912 -1.407497 0.877086
v -0.350941 -1.204952 0.847850
v -0.480986 -1.168162 0.852785
v -0.427594 -1.535403 0.867373
v -0.489019 -1.180346 0.831323
v -0.480986 -1.192529 0.809860
v -0.385912 -1.431864 0.834161
v -0.405729 -1.208943 0.820197
v -0.350941 -1.220011 0.821321
v -0.189465 -1.475298 0.883969
v -0.152813 -1.247086 0.852127
v -0.233700 -1.629626 0.876939
v -0.189465 -1.499665 0.841045
v -0.152813 -1.262145 0.825600
v 0.195188 -1.475298 0.883969
v 0.158535 -1.247086 0.852127
v 0.239423 -1.629626 0.876939
v 0.195188 -1.499665 0.841045
v 0.158535 -1.262145 0.825600
v 0.390798 -1.408733 0.877211
v 0.356664 -1.204952 0.847850
v 0.434991 -1.532929 0.867122
v 0.390798 -1.433101 0.834286
v 0.356664 -1.220011 0.821321
v 0.408914 -1.195654 0.846906
v 0.484172 -1.169933 0.852965
v 0.492204 -1.182118 0.831502
v 0.484172 -1.194301 0.810040
v 0.408914 -1.210715 0.820378
v 0.672470 0.823590 0.534678
v 0.663859 0.773347 0.543305
v 0.706568 0.778937 0.557367
v 0.745947 0.820502 0.556603
v 0.758270 0.766441 0.606979
v 0.784668 0.811096 0.588611
v 0.802424 0.744087 0.628855
v 0.819220 0.797538 0.602725
v 0.855319 0.701884 0.618825
v 0.860027 0.764342 0.598941
v 0.688954 0.828444 0.483548
v 0.762887 0.823030 0.505473
v 0.732827 0.782855 0.478117
v 0.689410 0.780872 0.464055
v 0.813724 0.809750 0.501691
v 0.803306 0.764353 0.472255
v 0.847030 0.788511 0.515805
v 0.845534 0.730093 0.494129
v 0.876386 0.759031 0.547813
v 0.880678 0.693652 0.539575
v 0.848309 1.934962 -0.240347
v 0.618445 2.275198 -0.250362
v 0.618445 2.275198 0.080117
v 0.848309 1.924329 -0.040057
v 0.777178 1.811774 0.351089
v 0.617911 2.108486 0.243504
v 0.848309 1.839269 0.120174
v 0.785609 1.786107 0.360523
v 0.848309 1.701048 0.220319
v 0.785609 1.509664 0.420610
v 0.848309 1.541561 0.270391
v 0.848309 1.382075 0.250363
v 0.734335 1.084367 0.460667
v 0.848309 1.222589 0.150217
v 0.873703 -0.829470 -0.080116
v 0.873703 -0.829470 -0.240348
v 0.848309 1.105632 -0.230333
v 0.848309 1.105632 -0.160231
v 0.713162 -1.669380 -0.200290
v 0.873703 -1.584372 -0.200290
v 0.873703 -1.563107 -0.000000
v 0.713162 -1.733174 -0.070103
v 0.713162 -1.765071 0.120173
v 0.713162 -1.701276 0.170246
v 0.873703 -1.488681 0.140203
v 0.656762 -1.580645 0.420609
v 0.873703 -1.350459 0.270390
v 0.873703 -1.137810 0.290420
v 0.848309 1.148162 0.030043
v 0.873703 -0.871999 0.100144
v 0.581618 -1.488681 0.711029
v 0.485543 -1.254767 0.841218
v 0.873703 -0.978323 0.220318
v 0.485542 -0.627454 0.891290
v 0.485542 0.127448 0.891290
v 0.445605 0.340097 0.871262
v 0.534486 0.627173 0.751088
v 0.673738 0.978042 0.550798
v 0.358793 1.982845 -0.239707
v 0.261863 2.323083 -0.249921
v 0.261863 2.323083 0.087167
v 0.358793 1.972213 -0.035411
v 0.437212 2.291186 0.158670
v 0.301804 2.131700 0.271033
v 0.358793 1.887155 0.128026
v 0.332352 1.833992 0.373180
v 0.358793 1.748932 0.230173
v 0.332352 1.557549 0.434469
v 0.358793 1.589446 0.281248
v 0.358793 1.382075 0.260818
v 0.310731 1.277315 0.475328
v 0.358793 1.222588 0.158670
v 0.369501 -0.829470 -0.076271
v 0.369501 -0.774702 -0.183056
v 0.358793 1.050865 -0.172842
v 0.358793 1.105632 -0.157989
v 0.301804 -1.733226 -0.198849
v 0.369501 -1.584372 -0.198849
v 0.369501 -1.563107 0.005447
v 0.301804 -1.797021 -0.066057
v 0.301804 -1.828918 0.128025
v 0.301804 -1.765122 0.179098
v 0.369501 -1.488681 0.148454
v 0.279584 -1.754492 0.434468
v 0.369501 -1.350459 0.281247
v 0.246332 -1.532540 0.730698
v 0.358793 1.148162 0.036092
v 0.369501 -0.871999 0.107595
v 0.369501 -1.137810 0.301676
v 0.205820 -1.291608 0.863490
v 0.205820 -0.645476 0.914563
v 0.369501 -0.978324 0.230173
v 0.205819 0.132073 0.914563
v 0.188978 0.351101 0.894134
v 0.209533 0.646789 0.771556
v 0.256550 1.056070 0.567262
v -0.844600 1.934960 -0.240347
v -0.614736 2.275198 0.080117
v -0.614736 2.275198 -0.250362
v -0.844600 1.924329 -0.040057
v -0.773470 1.811774 0.351089
v -0.614202 2.108486 0.243504
v -0.844600 1.839269 0.120174
v -0.781900 1.786107 0.360523
v -0.844600 1.701048 0.220319
v -0.781900 1.509664 0.420610
v -0.844600 1.541561 0.270392
v -0.844600 1.382075 0.250363
v -0.730626 1.084366 0.460667
v -0.844600 1.222588 0.150218
v -0.869994 -0.829470 -0.080116
v -0.844600 1.105632 -0.230333
v -0.869994 -0.829470 -0.240348
v -0.844600 1.105632 -0.160231
v -0.709452 -1.669380 -0.200290
v -0.869994 -1.563107 -0.000000
v -0.869994 -1.584372 -0.200290
v -0.709452 -1.733174 -0.070103
v -0.709452 -1.765071 0.120173
v -0.709452 -1.701276 0.170246
v -0.869994 -1.488681 0.140203
v -0.656762 -1.690645 0.420609
v -0.869994 -1.350459 0.270390
v -0.577909 -1.488681 0.711029
v -0.844600 1.148162 0.030043
v -0.869994 -0.871999 0.100144
v -0.869994 -1.137810 0.290420
v -0.481833 -1.254767 0.841218
v -0.481833 -0.627454 0.891290
v -0.869994 -0.978324 0.220318
v -0.481833 0.127448 0.891290
v -0.441896 0.340097 0.871262
v -0.530778 0.627173 0.751088
v -0.670029 0.978042 0.550798
v -0.355084 1.982845 -0.239707
v -0.258154 2.323083 -0.249921
v -0.258154 2.323083 0.087167
v -0.355084 1.972213 -0.035411
v -0.433503 2.291186 0.158670
v -0.298095 2.131700 0.271033
v -0.355084 1.887153 0.128026
v -0.328644 1.833992 0.373180
v -0.355084 1.748932 0.230173
v -0.328644 1.557548 0.434469
v -0.355084 1.589446 0.281248
v -0.355084 1.382075 0.260818
v -0.307023 1.277315 0.475328
v -0.355084 1.222588 0.158670
v -0.365792 -0.829470 -0.076271
v -0.365792 -0.774702 -0.183056
v -0.355084 1.050865 -0.172842
v -0.355084 1.105632 -0.157989
v -0.298094 -1.733226 -0.198849
v -0.365792 -1.584372 -0.198849
v -0.365792 -1.563107 0.005447
v -0.298094 -1.797021 -0.066057
v -0.298094 -1.828918 0.128025
v -0.298094 -1.765122 0.179098
v -0.365792 -1.488681 0.148454
v -0.275876 -1.754492 0.434468
v -0.365792 -1.350459 0.281247
v -0.242624 -1.532540 0.730698
v -0.355084 1.148162 0.036092
v -0.365792 -0.871999 0.107595
v -0.365792 -1.137810 0.301676
v -0.202111 -1.291609 0.863490
v -0.202111 -0.645476 0.914563
v -0.365792 -0.978324 0.230173
v -0.202111 0.132073 0.914563
v -0.185269 0.351101 0.894134
v -0.205824 0.646789 0.771556
v -0.252842 1.056070 0.567262
v -0.153866 -1.255363 -0.106145
v -0.153866 -1.225644 -0.057663
v -0.682960 -1.255363 -0.106145
v -0.682960 -1.225644 -0.057663
v -0.153866 -1.166207 -0.057663
v -0.682960 -1.166207 -0.057663
v -0.153866 -1.136489 -0.106145
v -0.682960 -1.136489 -0.106145
v -0.153866 -1.166207 -0.154627
v -0.682960 -1.166207 -0.154627
v -0.153866 -1.225644 -0.154627
v -0.682960 -1.225644 -0.154627
v -0.137158 -1.270519 0.015546
v -0.137158 -1.345113 -0.106145
v -0.137158 -1.121331 0.015546
v -0.137158 -1.046739 -0.106145
v -0.137158 -1.121331 -0.227836
v -0.137158 -1.270519 -0.227836
v 0.133211 -1.345113 -0.106145
v 0.133211 -1.270519 0.015546
v 0.133211 -1.121331 0.015546
v 0.133211 -1.046739 -0.106145
v 0.133211 -1.121331 -0.227836
v 0.133211 -1.270519 -0.227836
v 0.149920 -1.255363 -0.106145
v 0.149920 -1.225644 -0.057663
v 0.149920 -1.166207 -0.057663
v 0.149920 -1.136489 -0.106145
v 0.149920 -1.166207 -0.154627
v 0.149920 -1.225644 -0.154627
v 0.679012 -1.255363 -0.106145
v 0.679012 -1.225644 -0.057663
v 0.679012 -1.166207 -0.057663
v 0.679012 -1.136489 -0.106145
v 0.679012 -1.166207 -0.154627
v 0.679012 -1.225644 -0.154627
v 0.320227 1.196022 0.454461
v -0.315224 1.196022 0.454461
v -0.645059 0.775301 0.525448
v -0.401857 1.098101 0.496553
v -0.401848 1.098096 0.367853
v -0.173848 0.688895 0.367885
v -0.173867 0.688905 0.626785
v 0.184433 0.688905 0.626811
v 0.655541 0.775301 0.525542
v 0.184452 0.688895 0.367911
v 0.412452 1.098096 0.367912
v 0.412443 1.098101 0.496612
v 0.140941 1.155501 0.525290
v -0.130459 1.155501 0.525270
v -0.645043 0.775292 0.303748
v 0.655557 0.775292 0.303842
v -0.543173 -0.822082 0.600106
v -0.576655 -0.759492 0.346801
v -0.572754 -0.802993 0.337903
v -0.565374 -0.866283 0.601306
v -0.001720 -0.873282 0.630745
v -0.001518 -0.822782 0.610343
v 0.000001 -0.754593 0.347841
v -0.540241 -0.700100 0.144101
v 0.001516 -0.696101 0.134739
v 0.001719 -0.732601 0.096540
v -0.545139 -0.739701 0.125802
v 0.548527 -0.822082 0.600485
v 0.570626 -0.866283 0.601688
v 0.573545 -0.802993 0.338186
v 0.584945 -0.759492 0.346985
v 0.534660 -0.700100 0.144179
v 0.539661 -0.739701 0.125881
v -0.543172 -0.905884 0.583009
v -0.551054 -0.846493 0.329106
v 0.000002 -0.851292 0.328244
v -0.001517 -0.909783 0.592646
v -0.523039 -0.783900 0.127006
v 0.001517 -0.783200 0.117042
v 0.548528 -0.905884 0.583388
v 0.542646 -0.846493 0.329285
v 0.517461 -0.783900 0.127181
v -0.597662 -0.028620 0.622758
v -0.622945 0.020272 0.390454
v -0.647944 -0.023228 0.381654
v -0.606162 -0.072420 0.623259
v -0.400764 -0.077819 0.650174
v -0.400462 -0.028919 0.632172
v -0.398045 0.025171 0.391571
v -0.631528 0.066062 0.157552
v -0.395527 0.069463 0.148969
v -0.395225 0.031361 0.113271
v -0.639827 0.025963 0.140053
v -0.203062 -0.028620 0.623087
v -0.194862 -0.072420 0.623489
v -0.148044 -0.023228 0.381790
v -0.173045 0.020272 0.390687
v -0.159728 0.066062 0.157586
v -0.151327 0.025963 0.140088
v -0.597660 -0.112421 0.605761
v -0.622944 -0.066730 0.372758
v -0.398044 -0.071530 0.371874
v -0.400461 -0.115920 0.614476
v -0.631527 -0.017738 0.140555
v -0.395526 -0.017539 0.131272
v -0.203060 -0.112421 0.606090
v -0.173044 -0.066730 0.372990
v -0.159727 -0.017738 0.140589
v -0.492179 -0.069271 0.828533
v -0.503174 -0.051674 0.749632
v -0.515473 -0.090374 0.741732
v -0.496179 -0.107071 0.823934
v -0.391880 -0.108970 0.833142
v -0.391980 -0.068370 0.831841
v -0.392474 -0.047374 0.750540
v -0.506068 -0.037077 0.670231
v -0.393068 -0.034977 0.667439
v -0.393166 -0.071777 0.650441
v -0.510167 -0.073677 0.659632
v -0.291779 -0.069271 0.828548
v -0.287679 -0.107071 0.823949
v -0.269573 -0.090374 0.741750
v -0.281874 -0.051674 0.749648
v -0.280068 -0.037077 0.670247
v -0.275967 -0.073677 0.659649
v -0.492178 -0.143671 0.813336
v -0.503172 -0.129074 0.733935
v -0.392472 -0.133374 0.733043
v -0.391978 -0.145771 0.816143
v -0.506067 -0.111477 0.655034
v -0.393067 -0.112277 0.651742
v -0.291778 -0.143671 0.813351
v -0.281872 -0.129074 0.733951
v -0.280067 -0.111477 0.655050
v 0.285921 -0.068471 0.823289
v 0.273527 -0.051174 0.744488
v 0.261127 -0.090374 0.736588
v 0.281821 -0.106571 0.818791
v 0.386021 -0.103471 0.827898
v 0.386021 -0.062871 0.826697
v 0.385327 -0.041874 0.745396
v 0.269433 -0.036277 0.665087
v 0.384733 -0.029477 0.662295
v 0.384634 -0.066278 0.645297
v 0.265333 -0.073077 0.654388
v 0.486021 -0.058971 0.823303
v 0.490121 -0.096671 0.818805
v 0.509527 -0.079374 0.736606
v 0.497127 -0.041274 0.744504
v 0.500033 -0.026777 0.665103
v 0.504133 -0.063177 0.654405
v 0.285922 -0.142971 0.808192
v 0.273528 -0.128474 0.728791
v 0.385328 -0.127874 0.727899
v 0.386022 -0.140271 0.810900
v 0.269434 -0.110777 0.649890
v 0.384734 -0.106878 0.646598
v 0.486022 -0.133471 0.808206
v 0.497128 -0.118574 0.728807
v 0.500034 -0.101277 0.649906
v 0.195939 -0.028620 0.617916
v 0.163356 0.020272 0.385511
v 0.138856 -0.023228 0.376611
v 0.187839 -0.072420 0.618317
v 0.384537 -0.077819 0.645231
v 0.384438 -0.028919 0.627229
v 0.383455 0.025171 0.386527
v 0.146972 0.066062 0.152408
v 0.382473 0.069463 0.143825
v 0.382376 0.031360 0.108127
v 0.138774 0.025961 0.134909
v 0.572839 -0.028620 0.617943
v 0.581039 -0.072420 0.618345
v 0.628056 -0.023228 0.376647
v 0.603655 0.020272 0.385543
v 0.618072 0.066062 0.152442
v 0.626274 0.025961 0.134944
v 0.195940 -0.112421 0.600819
v 0.163357 -0.066730 0.367815
v 0.383457 -0.071530 0.366831
v 0.384439 -0.115920 0.609532
v 0.146974 -0.017738 0.135312
v 0.382474 -0.017539 0.126129
v 0.572840 -0.112421 0.600846
v 0.603657 -0.066730 0.367846
v 0.618074 -0.017738 0.135346
vt 0.666523 0.414490
vt 0.666523 0.414490
vt 0.666523 0.414490
vt 0.666523 0.414490
vt 0.666523 0.414490
vt 0.666523 0.414490
vt 0.666523 0.414490
vt 0.666523 0.414490
vt 0.757616 0.332647
vt 0.804443 0.319598
vt 0.804615 0.300986
vt 0.849076 0.290240
vt 0.849076 0.297289
vt 0.831028 0.296297
vt 0.862799 0.297289
vt 0.880847 0.296297
vt 0.862799 0.290240
vt 0.805983 0.300986
vt 0.805812 0.319598
vt 0.758985 0.332647
vt 0.781731 0.282963
vt 0.789226 0.288039
vt 0.791234 0.278203
vt 0.780408 0.271631
vt 0.780408 0.277298
vt 0.781731 0.265964
vt 0.791234 0.270724
vt 0.757893 0.300578
vt 0.831028 0.290263
vt 0.880847 0.290263
vt 0.759262 0.300578
vt 0.789226 0.260887
vt 0.438464 0.277991
vt 0.456282 0.277991
vt 0.456282 0.256919
vt 0.474100 0.277991
vt 0.474100 0.256919
vt 0.456282 0.256919
vt 0.474100 0.256919
vt 0.456286 0.257467
vt 0.438464 0.277991
vt 0.456282 0.277991
vt 0.456282 0.256919
vt 0.474100 0.277991
vt 0.474100 0.256919
vt 0.438464 0.277991
vt 0.456282 0.277991
vt 0.474100 0.277991
vt 0.474100 0.256919
vt 0.456282 0.256919
vt 0.474100 0.235847
vt 0.456282 0.235847
vt 0.438464 0.277991
vt 0.456282 0.277991
vt 0.474100 0.277991
vt 0.474100 0.256919
vt 0.438464 0.235847
vt 0.438464 0.256919
vt 0.438464 0.235847
vt 0.438464 0.256919
vt 0.438464 0.277991
vt 0.456282 0.277991
vt 0.456321 0.257412
vt 0.474100 0.235847
vt 0.456282 0.235847
vt 0.438464 0.235847
vt 0.438464 0.256919
vt 0.474100 0.277991
vt 0.474100 0.256919
vt 0.474100 0.235847
vt 0.456282 0.235847
vt 0.438464 0.235847
vt 0.438464 0.256919
vt 0.438464 0.256919
vt 0.474100 0.235847
vt 0.456282 0.235847
vt 0.474100 0.235847
vt 0.456282 0.235847
vt 0.438464 0.235847
vt 0.438464 0.256919
vt 0.437436 0.277932
vt 0.455719 0.277932
vt 0.455719 0.257843
vt 0.474002 0.277932
vt 0.474002 0.257843
vt 0.455719 0.257843
vt 0.474002 0.257843
vt 0.455723 0.259788
vt 0.437436 0.277932
vt 0.455719 0.277932
vt 0.455719 0.257843
vt 0.474002 0.277932
vt 0.474002 0.257843
vt 0.437436 0.277932
vt 0.455719 0.277932
vt 0.474002 0.277932
vt 0.474002 0.257843
vt 0.455719 0.257843
vt 0.474002 0.237754
vt 0.455719 0.237754
vt 0.437436 0.277932
vt 0.455719 0.277932
vt 0.474002 0.277932
vt 0.474002 0.257843
vt 0.437436 0.237754
vt 0.437436 0.257843
vt 0.437436 0.237754
vt 0.437436 0.257843
vt 0.437436 0.277932
vt 0.455719 0.277932
vt 0.455891 0.259595
vt 0.474002 0.237754
vt 0.455719 0.237754
vt 0.437436 0.237754
vt 0.437436 0.257843
vt 0.474002 0.277932
vt 0.474002 0.257843
vt 0.474002 0.237754
vt 0.455719 0.237754
vt 0.437436 0.237754
vt 0.437436 0.257843
vt 0.437436 0.257843
vt 0.474002 0.237754
vt 0.455719 0.237754
vt 0.474002 0.237754
vt 0.455719 0.237754
vt 0.437436 0.237754
vt 0.437436 0.257843
vt 0.437436 0.277932
vt 0.455719 0.277932
vt 0.455719 0.257843
vt 0.474002 0.277932
vt 0.474002 0.257843
vt 0.455719 0.257843
vt 0.474002 0.257843
vt 0.455719 0.259202
vt 0.437436 0.277932
vt 0.455719 0.277932
vt 0.455719 0.257843
vt 0.474002 0.277932
vt 0.474002 0.257843
vt 0.437436 0.257843
vt 0.437436 0.277932
vt 0.455719 0.277932
vt 0.474002 0.277932
vt 0.474002 0.257843
vt 0.455719 0.257843
vt 0.474002 0.237754
vt 0.455719 0.237754
vt 0.437436 0.277932
vt 0.455719 0.277932
vt 0.474002 0.277932
vt 0.474002 0.257843
vt 0.437436 0.237754
vt 0.437436 0.237754
vt 0.437436 0.257843
vt 0.437436 0.277932
vt 0.455719 0.277932
vt 0.455844 0.259065
vt 0.474002 0.237754
vt 0.455719 0.237754
vt 0.437436 0.237754
vt 0.437436 0.257843
vt 0.474002 0.277932
vt 0.474002 0.257843
vt 0.474002 0.237754
vt 0.455719 0.237754
vt 0.437436 0.237754
vt 0.437436 0.257843
vt 0.437436 0.257843
vt 0.474002 0.237754
vt 0.455719 0.237754
vt 0.474002 0.237754
vt 0.455719 0.237754
vt 0.437436 0.237754
vt 0.437436 0.257843
vt 0.438086 0.277561
vt 0.454594 0.277561
vt 0.454594 0.261774
vt 0.471101 0.277561
vt 0.471101 0.261774
vt 0.454594 0.261774
vt 0.471101 0.261774
vt 0.454581 0.263011
vt 0.438086 0.277561
vt 0.454594 0.277561
vt 0.454594 0.261774
vt 0.471101 0.277561
vt 0.471101 0.261774
vt 0.438086 0.261774
vt 0.438086 0.277561
vt 0.454594 0.277561
vt 0.471101 0.277561
vt 0.471101 0.261774
vt 0.454594 0.261774
vt 0.471101 0.245986
vt 0.454594 0.245986
vt 0.438086 0.277561
vt 0.454594 0.277561
vt 0.471101 0.277561
vt 0.471101 0.261774
vt 0.438086 0.245986
vt 0.438086 0.245986
vt 0.438086 0.261774
vt 0.438086 0.277561
vt 0.454594 0.277561
vt 0.454739 0.262888
vt 0.471101 0.245986
vt 0.454594 0.245986
vt 0.438086 0.245986
vt 0.438086 0.261774
vt 0.471101 0.277561
vt 0.471101 0.261774
vt 0.471101 0.245986
vt 0.454594 0.245986
vt 0.438086 0.245986
vt 0.438086 0.261774
vt 0.438086 0.261774
vt 0.471101 0.245986
vt 0.454594 0.245986
vt 0.471101 0.245986
vt 0.454594 0.245986
vt 0.438086 0.245986
vt 0.438086 0.261774
vt 0.438086 0.277561
vt 0.454594 0.277561
vt 0.454594 0.261774
vt 0.471101 0.277561
vt 0.471101 0.261774
vt 0.454594 0.261774
vt 0.471101 0.261774
vt 0.454594 0.263637
vt 0.438086 0.277561
vt 0.454594 0.277561
vt 0.454594 0.261774
vt 0.471101 0.277561
vt 0.471101 0.261774
vt 0.438086 0.261774
vt 0.438086 0.277561
vt 0.454594 0.277561
vt 0.471101 0.277561
vt 0.471101 0.261774
vt 0.454594 0.261774
vt 0.471101 0.245986
vt 0.454594 0.245986
vt 0.438086 0.277561
vt 0.454594 0.277561
vt 0.471101 0.277561
vt 0.471101 0.261774
vt 0.438086 0.245986
vt 0.438086 0.245986
vt 0.438086 0.261774
vt 0.438086 0.277561
vt 0.454594 0.277561
vt 0.454788 0.263450
vt 0.471101 0.245986
vt 0.454594 0.245986
vt 0.438086 0.245986
vt 0.438086 0.261774
vt 0.471101 0.277561
vt 0.471101 0.261774
vt 0.471101 0.245986
vt 0.454594 0.245986
vt 0.438086 0.245986
vt 0.438086 0.261774
vt 0.438086 0.261774
vt 0.471101 0.245986
vt 0.454594 0.245986
vt 0.471101 0.245986
vt 0.454594 0.245986
vt 0.438086 0.245986
vt 0.438086 0.261774
vt 0.267178 0.504031
vt 0.267178 0.529633
vt 0.254607 0.529633
vt 0.254607 0.504031
vt 0.243063 0.529633
vt 0.243063 0.504031
vt 0.285703 0.496095
vt 0.285703 0.537570
vt 0.255737 0.537570
vt 0.245394 0.537570
vt 0.243087 0.537570
vt 0.243087 0.496095
vt 0.233066 0.504031
vt 0.233066 0.529633
vt 0.245394 0.496095
vt 0.255737 0.496095
vt 0.667457 0.223131
vt 0.695437 0.243309
vt 0.679112 0.243309
vt 0.667457 0.263487
vt 0.683140 0.209531
vt 0.721352 0.209531
vt 0.704728 0.220421
vt 0.706088 0.244562
vt 0.618058 0.910767
vt 0.628715 0.911224
vt 0.627527 0.908588
vt 0.609382 0.907298
vt 0.602427 0.917446
vt 0.598107 0.911158
vt 0.590795 0.918602
vt 0.589256 0.911396
vt 0.579895 0.911945
vt 0.580517 0.907137
vt 0.618870 0.890978
vt 0.609906 0.894532
vt 0.628151 0.895859
vt 0.629683 0.891495
vt 0.603719 0.883773
vt 0.598940 0.889433
vt 0.592514 0.885090
vt 0.590366 0.889775
vt 0.580907 0.892232
vt 0.581169 0.894419
vt 0.539339 0.629833
vt 0.540737 0.667799
vt 0.553184 0.660441
vt 0.552362 0.638108
vt 0.526676 0.628159
vt 0.527587 0.666300
vt 0.509407 0.636068
vt 0.510001 0.658483
vt 0.497930 0.658826
vt 0.497157 0.636475
vt 0.715779 0.271450
vt 0.715779 0.271450
vt 0.603298 0.282396
vt 0.603298 0.282396
vt 0.705489 0.339429
vt 0.617419 0.339429
vt 0.617419 0.339429
vt 0.705489 0.339429
vt 0.715779 0.271450
vt 0.715779 0.271450
vt 0.603298 0.282396
vt 0.603298 0.282396
vt 0.705489 0.339429
vt 0.617419 0.339429
vt 0.617419 0.339429
vt 0.705489 0.339429
vt 0.729700 0.278308
vt 0.729700 0.278308
vt 0.591532 0.307313
vt 0.591532 0.307313
vt 0.700820 0.350767
vt 0.616780 0.356571
vt 0.616780 0.356571
vt 0.700820 0.350767
vt 0.729700 0.278308
vt 0.729700 0.278308
vt 0.591532 0.307313
vt 0.591532 0.307313
vt 0.700820 0.350767
vt 0.616780 0.356571
vt 0.616780 0.356571
vt 0.700820 0.350767
vt 0.544550 0.368227
vt 0.537364 0.381301
vt 0.524598 0.368227
vt 0.524842 0.386509
vt 0.511227 0.381599
vt 0.504837 0.368227
vt 0.510910 0.354538
vt 0.524598 0.348582
vt 0.539210 0.353923
vt 0.537359 0.381233
vt 0.544590 0.368105
vt 0.524598 0.386333
vt 0.511340 0.381730
vt 0.504607 0.368349
vt 0.510983 0.354489
vt 0.524720 0.348357
vt 0.539068 0.353879
vt 0.872173 0.140335
vt 0.880745 0.140133
vt 0.880629 0.176152
vt 0.889012 0.174349
vt 0.449454 0.930590
vt 0.449224 0.934602
vt 0.478491 0.951109
vt 0.477208 0.934733
vt 0.479609 0.951274
vt 0.910518 0.100918
vt 0.913849 0.099366
vt 0.913849 0.115630
vt 0.522094 0.920264
vt 0.449027 0.937956
vt 0.846243 0.137866
vt 0.854835 0.139222
vt 0.832920 0.172743
vt 0.494110 0.920133
vt 0.448830 0.941277
vt 0.863394 0.140525
vt 0.849001 0.177560
vt 0.522094 0.920264
vt 0.462246 0.951274
vt 0.872174 0.178865
vt 0.449652 0.927236
vt 0.477636 0.927400
vt 0.449849 0.923915
vt 0.883882 0.076701
vt 0.875494 0.075372
vt 0.493222 0.920133
vt 0.494110 0.920133
vt 0.899528 0.068728
vt 0.910518 0.181017
vt 0.895854 0.181017
vt 0.493222 0.920133
vt 0.849554 0.072953
vt 0.858345 0.072697
vt 0.866905 0.074000
vt 0.478951 0.920067
vt 0.478063 0.920034
vt 0.494110 0.920133
vt 0.895854 0.043031
vt 0.464910 0.950945
vt 0.478951 0.920067
vt 0.463364 0.951109
vt 0.476945 0.950945
vt 0.832921 0.037042
vt 0.841260 0.034247
vt 0.840762 0.073208
vt 0.849600 0.031452
vt 0.450079 0.919903
vt 0.472605 0.952918
vt 0.478951 0.920067
vt 0.873148 0.032970
vt 0.478063 0.920034
vt 0.493222 0.920133
vt 0.888564 0.038471
vt 0.921173 0.052169
vt 0.918492 0.054528
vt 0.897112 0.042300
vt 0.895854 0.045256
vt 0.502975 0.920837
vt 0.463249 0.944526
vt 0.503082 0.919047
vt 0.940374 0.083875
vt 0.910928 0.087751
vt 0.910518 0.083875
vt 0.463249 0.931090
vt 0.459084 0.940627
vt 0.923140 0.041636
vt 0.900019 0.034476
vt 0.901000 0.031452
vt 0.923129 0.045150
vt 0.899130 0.037102
vt 0.922576 0.048813
vt 0.898163 0.039714
vt 0.918516 0.058218
vt 0.923979 0.055781
vt 0.913254 0.055302
vt 0.469754 0.940627
vt 0.488104 0.917168
vt 0.925761 0.033515
vt 0.927824 0.041150
vt 0.921342 0.038224
vt 0.927548 0.046209
vt 0.926406 0.050822
vt 0.471137 0.934990
vt 0.469754 0.940627
vt 0.469754 0.940627
vt 0.923206 0.068728
vt 0.487891 0.920766
vt 0.459084 0.940627
vt 0.487997 0.918958
vt 0.487767 0.922928
vt 0.939758 0.036514
vt 0.936608 0.041627
vt 0.935804 0.046255
vt 0.935800 0.051314
vt 0.936985 0.058626
vt 0.943464 0.055294
vt 0.946841 0.058373
vt 0.946058 0.065198
vt 0.487076 0.926527
vt 0.463249 0.944526
vt 0.487182 0.924719
vt 0.941621 0.040659
vt 0.947139 0.037182
vt 0.939868 0.043035
vt 0.940334 0.046871
vt 0.941475 0.051008
vt 0.972322 0.041593
vt 0.973805 0.044728
vt 0.975549 0.048293
vt 0.469754 0.940627
vt 0.487288 0.922928
vt 0.939923 0.091626
vt 0.940333 0.095496
vt 0.910518 0.095496
vt 0.502745 0.924807
vt 0.463249 0.931090
vt 0.968134 0.031452
vt 0.969605 0.035185
vt 0.970920 0.038406
vt 0.558431 0.449695
vt 0.582230 0.440482
vt 0.549367 0.447815
vt 0.570960 0.438892
vt 0.598248 0.439611
vt 0.543264 0.420483
vt 0.552749 0.417473
vt 0.588296 0.433436
vt 0.537935 0.416792
vt 0.580168 0.439445
vt 0.541998 0.437351
vt 0.545755 0.448314
vt 0.588984 0.481063
vt 0.556680 0.484075
vt 0.620961 0.473607
vt 0.619650 0.469265
vt 0.592179 0.476983
vt 0.553119 0.483700
vt 0.592214 0.547735
vt 0.558618 0.544323
vt 0.622123 0.555567
vt 0.592179 0.547474
vt 0.621975 0.550930
vt 0.554281 0.540757
vt 0.585231 0.570438
vt 0.558029 0.584544
vt 0.608988 0.580551
vt 0.580592 0.586398
vt 0.594685 0.583349
vt 0.547527 0.584214
vt 0.518538 0.434230
vt 0.549457 0.436236
vt 0.554495 0.424547
vt 0.595454 0.580608
vt 0.596295 0.584221
vt 0.546752 0.447747
vt 0.536085 0.422224
vt 0.577330 0.440254
vt 0.533227 0.607908
vt 0.565003 0.604346
vt 0.543442 0.592623
vt 0.627674 0.907307
vt 0.629005 0.909874
vt 0.618339 0.910003
vt 0.609486 0.907017
vt 0.603099 0.917532
vt 0.598440 0.911491
vt 0.591548 0.919326
vt 0.589616 0.912215
vt 0.580299 0.913278
vt 0.580655 0.908444
vt 0.627598 0.894563
vt 0.609307 0.894241
vt 0.618061 0.890200
vt 0.628887 0.890121
vt 0.598077 0.889753
vt 0.602537 0.883838
vt 0.589534 0.890566
vt 0.591422 0.885770
vt 0.580607 0.895709
vt 0.580225 0.893539
vt 0.553313 0.660616
vt 0.540820 0.667962
vt 0.539507 0.629908
vt 0.552540 0.638231
vt 0.527645 0.666430
vt 0.526819 0.628201
vt 0.510037 0.658554
vt 0.509493 0.636088
vt 0.497938 0.658870
vt 0.497214 0.636468
vt 0.980580 0.693945
vt 0.912174 0.688718
vt 0.912174 0.799677
vt 0.985501 0.766487
vt 0.947032 0.879976
vt 0.912026 0.844801
vt 0.532699 0.089182
vt 0.544184 0.063285
vt 0.536153 0.110995
vt 0.524729 0.121194
vt 0.515685 0.103660
vt 0.479470 0.130173
vt 0.482495 0.110655
vt 0.461511 0.104732
vt 0.426444 0.137624
vt 0.441016 0.086348
vt 0.146741 0.056120
vt 0.147516 0.031789
vt 0.428949 0.029479
vt 0.428460 0.044350
vt 0.398441 0.706902
vt 0.440483 0.710593
vt 0.451556 0.756448
vt 0.399671 0.741045
vt 0.399671 0.782854
vt 0.399671 0.809783
vt 0.450941 0.797645
vt 0.413932 0.874813
vt 0.027023 0.128414
vt 0.053568 0.091369
vt 0.076898 0.107725
vt 0.104891 0.107230
vt 0.433470 0.070830
vt 0.138817 0.080345
vt 0.062223 0.164094
vt 0.102784 0.192625
vt 0.126177 0.095204
vt 0.199737 0.206004
vt 0.267920 0.205457
vt 0.325777 0.196541
vt 0.358186 0.180047
vt 0.406108 0.151093
vt 0.791910 0.907763
vt 0.779693 0.948153
vt 0.824635 0.942468
vt 0.853606 0.902079
vt 0.816153 0.687609
vt 0.813692 0.801624
vt 0.911932 0.356062
vt 0.975619 0.350194
vt 0.911932 0.354759
vt 0.975619 0.348891
vt 0.862120 0.821372
vt 0.824723 0.852404
vt 0.911932 0.344336
vt 0.975619 0.338468
vt 0.044007 0.550256
vt 0.073556 0.554718
vt 0.078702 0.606429
vt 0.075944 0.605467
vt 0.911932 0.327398
vt 0.975619 0.321530
vt 0.103262 0.554718
vt 0.108407 0.606429
vt 0.911932 0.307854
vt 0.975619 0.301986
vt 0.911932 0.282443
vt 0.975619 0.282443
vt 0.133375 0.552252
vt 0.150812 0.599114
vt 0.911932 0.262899
vt 0.975619 0.262899
vt 0.913325 0.339449
vt 0.913325 0.346160
vt 0.978923 0.339449
vt 0.978923 0.339449
vt 0.840386 0.381172
vt 0.838610 0.666403
vt 0.919812 0.674960
vt 0.924024 0.372615
vt 0.911932 0.241856
vt 0.911932 0.248567
vt 0.975619 0.248567
vt 0.975619 0.248567
vt 0.787979 0.915345
vt 0.796511 0.933016
vt 0.860058 0.933016
vt 0.839824 0.922924
vt 0.913325 0.246942
vt 0.913325 0.249548
vt 0.978923 0.249548
vt 0.978923 0.246942
vt 0.309285 0.741934
vt 0.309900 0.709680
vt 0.309285 0.784579
vt 0.309285 0.811728
vt 0.913325 0.258668
vt 0.978923 0.258668
vt 0.304403 0.876629
vt 0.913325 0.275606
vt 0.978923 0.275606
vt 0.297097 0.932929
vt 0.387270 0.929007
vt 0.911932 0.253779
vt 0.975619 0.253779
vt 0.913325 0.334237
vt 0.978923 0.334237
vt 0.913325 0.301665
vt 0.978923 0.301665
vt 0.285937 0.978386
vt 0.360179 0.967671
vt 0.450385 0.551158
vt 0.563171 0.547763
vt 0.553677 0.605349
vt 0.449456 0.602880
vt 0.913325 0.321208
vt 0.978923 0.321208
vt 0.320518 0.551158
vt 0.323858 0.600907
vt 0.283935 0.548171
vt 0.285773 0.604137
vt 0.215597 0.548836
vt 0.233215 0.545720
vt 0.253657 0.583643
vt 0.221563 0.602488
vt 0.172626 0.555963
vt 0.183748 0.623107
vt 0.149396 0.564176
vt 0.167702 0.631316
vt 0.501954 0.689023
vt 0.571591 0.799677
vt 0.572821 0.689948
vt 0.495802 0.771116
vt 0.530682 0.876468
vt 0.571738 0.844801
vt 0.017011 0.287452
vt 0.009182 0.312372
vt 0.003024 0.250689
vt 0.025997 0.316719
vt 0.039007 0.297123
vt 0.065595 0.321349
vt 0.061083 0.301716
vt 0.084134 0.295289
vt 0.119417 0.329319
vt 0.103280 0.279270
vt 0.397993 0.246625
vt 0.117386 0.222109
vt 0.398969 0.222557
vt 0.115921 0.236056
vt 0.086471 0.706902
vt 0.040122 0.744759
vt 0.058578 0.706902
vt 0.087086 0.741045
vt 0.087086 0.782854
vt 0.087086 0.809783
vt 0.045659 0.802567
vt 0.078363 0.871122
vt 0.522270 0.321349
vt 0.471213 0.297809
vt 0.493697 0.282649
vt 0.484608 0.355594
vt 0.112344 0.261707
vt 0.405963 0.272726
vt 0.442592 0.298864
vt 0.445847 0.383752
vt 0.348262 0.397585
vt 0.420028 0.288334
vt 0.261147 0.395466
vt 0.225203 0.388063
vt 0.187517 0.371966
vt 0.148131 0.348716
vt 0.701936 0.907763
vt 0.669211 0.942468
vt 0.714153 0.948153
vt 0.640240 0.902078
vt 0.671303 0.690070
vt 0.670073 0.801624
vt 0.819055 0.354759
vt 0.755368 0.350194
vt 0.819055 0.356062
vt 0.755368 0.348891
vt 0.621644 0.821372
vt 0.659042 0.852404
vt 0.819055 0.344336
vt 0.755368 0.338468
vt 0.043031 0.482793
vt 0.078702 0.427597
vt 0.073068 0.476378
vt 0.075944 0.428559
vt 0.819055 0.327398
vt 0.755368 0.321530
vt 0.108407 0.427597
vt 0.102774 0.474425
vt 0.819055 0.307854
vt 0.755368 0.301986
vt 0.819055 0.282443
vt 0.755368 0.282443
vt 0.144953 0.433447
vt 0.133375 0.475426
vt 0.819055 0.262899
vt 0.755368 0.262899
vt 0.817662 0.339449
vt 0.752064 0.339449
vt 0.817662 0.346160
vt 0.752064 0.339449
vt 0.718413 0.381172
vt 0.638987 0.674960
vt 0.720190 0.666403
vt 0.634775 0.372615
vt 0.819055 0.241856
vt 0.755368 0.248567
vt 0.819055 0.248567
vt 0.755368 0.248567
vt 0.712371 0.915345
vt 0.640291 0.933016
vt 0.703838 0.933016
vt 0.660525 0.922924
vt 0.817662 0.246942
vt 0.752064 0.249548
vt 0.817662 0.249548
vt 0.752064 0.246942
vt 0.177472 0.741934
vt 0.178087 0.709680
vt 0.177472 0.784579
vt 0.177472 0.811728
vt 0.752064 0.258668
vt 0.817662 0.258668
vt 0.182354 0.876629
vt 0.752064 0.275606
vt 0.817662 0.275606
vt 0.189660 0.932929
vt 0.105531 0.927377
vt 0.755368 0.253779
vt 0.819055 0.253779
vt 0.817662 0.334237
vt 0.752064 0.334237
vt 0.752064 0.301665
vt 0.817662 0.301665
vt 0.201014 0.978386
vt 0.130885 0.966441
vt 0.450385 0.478821
vt 0.550230 0.417211
vt 0.560150 0.484222
vt 0.451049 0.426777
vt 0.752064 0.321208
vt 0.817662 0.321208
vt 0.320518 0.478821
vt 0.319825 0.431659
vt 0.283935 0.481807
vt 0.285285 0.428976
vt 0.215597 0.485876
vt 0.253169 0.443744
vt 0.233215 0.488992
vt 0.220587 0.428807
vt 0.172626 0.478749
vt 0.183259 0.410628
vt 0.149396 0.470536
vt 0.169167 0.401931
vt 0.161500 0.518700
vt 0.229500 0.518700
vt 0.161500 0.493100
vt 0.981815 0.080092
vt 0.910532 0.076345
vt 0.910518 0.068728
vt 0.981719 0.083683
vt 0.910553 0.083875
vt 0.161500 0.527200
vt 0.229500 0.527200
vt 0.161500 0.501700
vt 0.982739 0.082930
vt 0.989265 0.083185
vt 0.989238 0.083875
vt 0.982958 0.082263
vt 0.989292 0.082494
vt 0.982979 0.081626
vt 0.989314 0.081804
vt 0.982803 0.080939
vt 0.989333 0.081113
vt 0.982352 0.081223
vt 0.982737 0.081379
vt 0.981993 0.082388
vt 0.982573 0.082587
vt 0.982825 0.082231
vt 0.982870 0.081788
vt 0.982750 0.081830
vt 0.982667 0.081840
vt 0.490624 0.933648
vt 0.474347 0.951767
vt 0.490526 0.936936
vt 0.457314 0.951767
vt 0.490756 0.930327
vt 0.474347 0.968800
vt 0.982706 0.082104
vt 0.982773 0.082038
vt 0.982789 0.081923
vt 0.982777 0.081924
vt 0.982763 0.081934
vt 0.982763 0.081990
vt 0.982619 0.082034
vt 0.982770 0.082021
vt 0.982782 0.082004
vt 0.982786 0.081959
vt 0.985663 0.082555
vt 0.985740 0.082516
vt 0.477997 0.933188
vt 0.454716 0.932366
vt 0.454617 0.935654
vt 0.939964 0.087751
vt 0.940374 0.091626
vt 0.910518 0.091626
vt 0.478129 0.929899
vt 0.454847 0.929077
vt 0.491480 0.930360
vt 0.939923 0.095496
vt 0.940333 0.099366
vt 0.910518 0.099366
vt 0.478260 0.925953
vt 0.454979 0.925131
vt 0.985591 0.082615
vt 0.985582 0.082592
vt 0.985611 0.082577
vn -0.0000 0.0348 0.9994
vn 0.0000 0.0346 0.9994
vn 0.0006 0.0347 0.9994
vn 0.2119 0.0036 0.9773
vn 0.2129 0.0090 0.9770
vn 0.2116 0.0019 0.9774
vn -0.9019 0.1775 -0.3937
vn -0.0734 0.1543 0.9853
vn -0.7987 0.6017 -0.0001
vn -0.0036 -1.0000 0.0000
vn -0.0860 0.2178 0.9722
vn 0.8283 -0.1724 0.5331
vn 0.9020 0.1772 -0.3937
vn 0.1829 -0.9831 0.0001
vn 0.7988 0.6016 0.0000
vn 0.0732 0.1543 0.9853
vn -0.0067 0.2120 0.9772
vn -0.1407 0.2230 0.9646
vn -0.8069 0.5907 -0.0001
vn 0.8070 0.5906 0.0000
vn -0.4214 0.6200 0.6618
vn -0.7737 0.6168 0.1444
vn -0.9673 -0.2337 -0.0982
vn -0.7547 -0.1395 0.6411
vn -0.0006 -0.2100 0.9777
vn -0.0003 0.7487 0.6629
vn -0.0001 0.9661 0.2583
vn -0.5200 0.7812 -0.3454
vn 0.0001 0.9684 -0.2494
vn 0.0004 0.2100 -0.9777
vn -0.6847 0.0507 -0.7270
vn 0.4262 0.6195 0.6592
vn 0.7588 -0.1385 0.6364
vn 0.9222 -0.3563 -0.1501
vn 0.8271 0.5526 0.1028
vn 0.5091 0.7852 -0.3525
vn 0.6764 0.0528 -0.7347
vn -0.4228 -0.8429 0.3327
vn -0.5449 -0.8021 -0.2444
vn 0.0001 -0.9650 -0.2621
vn -0.0002 -0.9617 0.2740
vn -0.3927 -0.5999 -0.6970
vn 0.0002 -0.7297 -0.6838
vn 0.4282 -0.8418 0.3286
vn 0.4712 -0.8423 -0.2618
vn 0.3847 -0.6012 -0.7004
vn -0.4477 0.6573 0.6062
vn -0.5132 0.8330 0.2068
vn -0.9976 -0.0139 0.0683
vn -0.6946 -0.1434 0.7050
vn -0.0010 -0.1988 0.9800
vn -0.0006 0.7522 0.6589
vn -0.0010 0.9796 0.2011
vn -0.4605 0.8499 -0.2560
vn 0.0049 0.9786 -0.2055
vn 0.0003 0.1987 -0.9801
vn -0.7363 0.1344 -0.6631
vn 0.4453 0.6527 0.6129
vn 0.6875 -0.1449 0.7116
vn 0.9960 -0.0179 0.0872
vn 0.4098 0.8868 0.2135
vn 0.5520 0.7568 -0.3500
vn 0.7432 0.1328 -0.6557
vn -0.4478 -0.8418 0.3014
vn -0.5130 -0.8477 -0.1352
vn -0.0009 -0.9803 -0.1977
vn -0.0003 -0.9498 0.3129
vn -0.4602 -0.6827 -0.5676
vn 0.0049 -0.8208 -0.5712
vn 0.4455 -0.8401 0.3094
vn 0.4097 -0.8998 -0.1499
vn 0.5518 -0.5604 -0.6176
vn -0.4991 0.5241 0.6901
vn -0.4855 0.8506 0.2019
vn -0.9966 -0.0166 0.0812
vn -0.6565 -0.1509 0.7391
vn 0.0000 -0.1993 0.9799
vn -0.0001 0.6251 0.7806
vn 0.0021 0.9791 0.2034
vn -0.6145 0.6223 -0.4849
vn -0.0096 0.9431 -0.3323
vn -0.0000 0.1992 -0.9800
vn -0.7123 0.1404 -0.6877
vn 0.5014 0.5274 0.6859
vn 0.6615 -0.1500 0.7348
vn 0.9976 -0.0140 0.0684
vn 0.6070 0.7688 0.2011
vn 0.5228 0.7659 -0.3743
vn 0.7077 0.1413 -0.6922
vn -0.4990 -0.7522 0.4304
vn -0.4853 -0.8620 -0.1465
vn 0.0021 -0.9807 -0.1953
vn 0.0000 -0.8800 0.4750
vn -0.6132 -0.3832 -0.6907
vn -0.0095 -0.7384 -0.6743
vn 0.5014 -0.7535 0.4253
vn 0.6070 -0.7863 -0.1151
vn 0.5226 -0.5587 -0.6440
vn -0.5108 0.5148 0.6885
vn -0.5089 0.8352 0.2085
vn -0.9951 -0.0217 0.0962
vn -0.6464 -0.1521 0.7477
vn 0.0093 -0.1998 0.9798
vn -0.0296 0.6233 0.7814
vn -0.0443 0.9773 0.2070
vn -0.6307 0.6162 -0.4718
vn -0.0404 0.9712 -0.2347
vn -0.0082 0.1992 -0.9799
vn -0.7190 0.1385 -0.6811
vn 0.4822 0.5314 0.6965
vn 0.6592 -0.1490 0.7370
vn 0.9965 -0.0146 0.0824
vn 0.4590 0.8648 0.2037
vn 0.5987 0.6325 -0.4915
vn 0.7082 0.1416 -0.6916
vn -0.4716 -0.7636 0.4410
vn -0.4586 -0.8770 -0.1434
vn 0.0444 -0.9804 -0.1917
vn 0.0417 -0.8793 0.4745
vn -0.6084 -0.3912 -0.6906
vn 0.0343 -0.8025 -0.5957
vn 0.5207 -0.7407 0.4246
vn 0.5095 -0.8487 -0.1419
vn 0.6213 -0.3815 -0.6844
vn -0.4474 0.6492 0.6151
vn -0.4126 0.8844 0.2181
vn -0.9949 -0.0202 0.0985
vn -0.6870 -0.1457 0.7119
vn 0.0000 -0.1989 0.9800
vn -0.0001 0.7523 0.6588
vn -0.0000 0.9793 0.2026
vn -0.5565 0.7554 -0.3461
vn 0.0009 0.9910 -0.1335
vn -0.0000 0.1988 -0.9800
vn -0.7481 0.1325 -0.6502
vn 0.4485 0.6506 0.6128
vn 0.6893 -0.1452 0.7098
vn 0.9957 -0.0186 0.0910
vn 0.4135 0.8848 0.2150
vn 0.5555 0.7546 -0.3493
vn 0.7455 0.1331 -0.6531
vn -0.4473 -0.8380 0.3125
vn -0.4124 -0.8994 -0.1447
vn -0.0000 -0.9806 -0.1961
vn 0.0000 -0.9498 0.3129
vn -0.5564 -0.5603 -0.6136
vn 0.0000 -0.8603 -0.5098
vn 0.4484 -0.8384 0.3098
vn 0.4132 -0.8986 -0.1477
vn 0.5555 -0.5583 -0.6163
vn -0.2958 0.0904 0.9510
vn 0.1879 0.0611 0.9803
vn 0.3576 0.2206 0.9074
vn -0.3786 0.2078 0.9019
vn 0.3715 0.9208 0.1186
vn -0.3817 0.9166 0.1192
vn -0.1879 0.0127 0.9821
vn 0.1902 0.0007 0.9818
vn 0.7136 0.2065 0.6694
vn 0.8340 0.5202 0.1839
vn -0.8168 0.5154 0.2593
vn -0.6820 0.2171 0.6984
vn 0.9713 -0.2085 -0.1142
vn -0.0000 0.8242 0.5663
vn -0.0284 -0.5509 0.8341
vn -0.9713 -0.2085 -0.1142
vn 0.9115 -0.4080 -0.0521
vn -0.0000 0.9618 0.2738
vn 0.0003 -0.2308 0.9730
vn -0.9115 -0.4081 -0.0521
vn 0.3699 -0.5998 0.7095
vn 0.1260 -0.7293 0.6725
vn 0.1684 0.7504 0.6391
vn 0.1382 0.8831 0.4483
vn 0.6301 -0.3360 0.7001
vn 0.0203 0.8533 0.5210
vn 0.3192 -0.3767 0.8696
vn -0.3063 0.7436 0.5944
vn -0.2345 -0.7173 0.6562
vn -0.7214 0.4232 0.5482
vn -0.0985 -0.4948 -0.8634
vn -0.1822 0.9037 -0.3875
vn -0.2007 0.8501 -0.4869
vn -0.2938 -0.5929 -0.7498
vn -0.0275 -0.3424 -0.9392
vn -0.4153 0.7878 -0.4549
vn -0.1962 -0.5697 -0.7981
vn -0.6981 0.6082 -0.3778
vn -0.5278 -0.8077 -0.2627
vn -0.9276 0.3603 -0.0989
vn -0.6434 -0.0699 -0.7624
vn 0.6434 -0.0699 -0.7624
vn 0.6667 -0.0680 -0.7422
vn -0.6667 -0.0680 -0.7422
vn -1.0000 -0.0000 0.0000
vn 1.0000 0.0000 0.0000
vn -0.5275 -0.1648 -0.8334
vn 0.5275 -0.1648 -0.8334
vn 0.6280 -0.1510 -0.7634
vn -0.6280 -0.1510 -0.7634
vn 0.4605 -0.8877 -0.0000
vn 0.3256 -0.8877 0.3256
vn 0.0000 -1.0000 -0.0000
vn -0.0000 -0.8877 0.4604
vn -0.3256 -0.8877 0.3256
vn -0.4605 -0.8877 0.0000
vn -0.3256 -0.8877 -0.3256
vn -0.0000 -0.8877 -0.4604
vn 0.3256 -0.8877 -0.3256
vn 0.7071 -0.0000 0.7071
vn -0.0000 -0.0000 1.0000
vn -0.7071 -0.0000 0.7071
vn -0.7071 0.0000 -0.7071
vn -0.0000 0.0000 -1.0000
vn 0.7071 0.0000 -0.7071
vn 0.9978 -0.0126 -0.0647
vn 0.5324 0.1776 0.8276
vn 1.0000 -0.0012 -0.0063
vn 0.5042 0.3560 0.7868
vn -0.5320 0.1786 0.8277
vn -0.5034 0.3549 0.7878
vn -0.9978 -0.0131 -0.0655
vn -1.0000 -0.0020 -0.0078
vn -0.4744 -0.1815 -0.8614
vn -0.4980 -0.3487 -0.7940
vn 0.4740 -0.1810 -0.8617
vn 0.4973 -0.3500 -0.7938
vn 0.5301 -0.1680 0.8311
vn 0.9980 0.0108 -0.0624
vn -0.5303 -0.1675 0.8311
vn -0.9980 0.0106 -0.0620
vn -0.4751 0.1736 -0.8626
vn 0.4753 0.1739 -0.8625
vn 0.9984 0.0216 -0.0531
vn 0.5229 -0.3320 0.7851
vn -0.5233 -0.3325 0.7846
vn -0.9984 0.0214 -0.0524
vn -0.4733 0.3401 -0.8126
vn 0.4736 0.3396 -0.8127
vn -0.7673 -0.6413 -0.0000
vn -0.7533 -0.3185 0.5754
vn 0.0000 -0.4886 0.8725
vn -0.7533 0.3185 0.5754
vn 0.0000 0.4886 0.8725
vn -0.7673 0.6413 0.0000
vn 0.0000 1.0000 0.0000
vn -0.7533 0.3185 -0.5754
vn 0.0000 0.4886 -0.8725
vn -0.7533 -0.3185 -0.5754
vn 0.0000 -0.4886 -0.8725
vn -0.5531 -0.4078 0.7265
vn -0.5508 -0.8347 0.0000
vn -0.5531 0.4078 0.7265
vn -0.5508 0.8347 0.0000
vn -0.5531 0.4078 -0.7265
vn -0.5531 -0.4078 -0.7265
vn 0.5508 -0.8347 0.0000
vn 0.5531 -0.4078 0.7265
vn 0.5531 0.4078 0.7265
vn 0.5508 0.8347 0.0000
vn 0.5531 0.4078 -0.7265
vn 0.5531 -0.4078 -0.7265
vn 0.7673 -0.6413 0.0000
vn 0.7533 -0.3185 0.5754
vn 0.7533 0.3185 0.5754
vn 0.7673 0.6413 0.0000
vn 0.7533 0.3185 -0.5754
vn 0.7533 -0.3185 -0.5754
vn 0.0827 0.1477 0.9856
vn -0.0988 0.0429 0.9942
vn 0.0094 0.1401 0.9901
vn -0.5398 -0.0010 0.8418
vn -0.6932 -0.7159 0.0834
vn -0.9736 -0.1510 0.1712
vn -0.7192 -0.1869 -0.6692
vn -0.1092 -0.1680 -0.9797
vn 0.0777 -0.0555 -0.9954
vn 0.0082 -0.0618 -0.9981
vn -0.0096 0.0403 0.9991
vn 0.0038 0.1376 0.9905
vn -0.2024 -0.9734 0.1078
vn -0.0106 -0.1732 -0.9848
vn 0.0049 -0.0646 -0.9979
vn 0.0091 0.0399 0.9992
vn -0.0050 0.1385 0.9904
vn 0.2026 -0.9733 0.1079
vn 0.0107 -0.1726 -0.9849
vn -0.0036 -0.0654 -0.9978
vn 0.0993 0.0421 0.9942
vn -0.0080 0.1413 0.9899
vn 0.7010 -0.7083 0.0829
vn 0.1078 -0.1679 -0.9799
vn -0.0085 -0.0632 -0.9980
vn -0.0813 0.1471 0.9858
vn 0.5387 0.0047 0.8425
vn 0.9757 -0.1422 0.1668
vn 0.7159 -0.1797 -0.6746
vn -0.0764 -0.0560 -0.9955
vn -0.1684 0.7504 0.6391
vn -0.1260 -0.7293 0.6725
vn -0.3699 -0.5998 0.7095
vn -0.1382 0.8831 0.4483
vn -0.6301 -0.3360 0.7001
vn -0.0203 0.8533 0.5210
vn -0.3192 -0.3767 0.8696
vn 0.3063 0.7436 0.5944
vn 0.2345 -0.7173 0.6562
vn 0.7214 0.4232 0.5482
vn 0.2007 0.8501 -0.4869
vn 0.1822 0.9037 -0.3875
vn 0.0985 -0.4948 -0.8634
vn 0.2938 -0.5929 -0.7498
vn 0.4153 0.7878 -0.4549
vn 0.0275 -0.3424 -0.9392
vn 0.6981 0.6082 -0.3778
vn 0.1962 -0.5697 -0.7981
vn 0.9276 0.3603 -0.0989
vn 0.5278 -0.8077 -0.2627
vn 0.7214 -0.4128 -0.5560
vn 0.4106 0.6517 -0.6377
vn 0.5314 0.8025 0.2713
vn 0.9060 -0.4114 -0.0993
vn 0.5482 0.4632 0.6964
vn 0.3704 0.5258 0.7657
vn 0.9143 -0.2088 -0.3469
vn 0.5970 0.2929 0.7469
vn 0.8511 -0.2448 -0.4645
vn 0.5773 0.0886 0.8117
vn 0.8802 -0.0163 -0.4744
vn 0.8747 0.1849 -0.4479
vn 0.7234 0.1332 0.6775
vn 0.8741 0.3315 -0.3552
vn 0.7383 -0.6700 -0.0773
vn 0.5452 -0.5700 -0.6147
vn 0.5135 0.6087 -0.6048
vn 0.7089 0.6980 -0.1019
vn 0.2886 -0.5588 -0.7775
vn 0.8230 0.1488 -0.5481
vn 0.9375 0.2735 -0.2152
vn 0.4643 -0.8419 -0.2750
vn 0.4792 -0.8124 0.3322
vn 0.5968 -0.6287 0.4987
vn 0.9428 0.3044 -0.1357
vn 0.5369 -0.7099 0.4559
vn 0.9776 0.1905 0.0898
vn 0.9282 -0.3714 0.0228
vn 0.7768 0.6114 -0.1506
vn 0.7854 -0.5590 -0.2659
vn 0.7260 -0.4741 0.4983
vn 0.4606 -0.1696 0.8712
vn 0.7952 -0.3690 -0.4811
vn 0.5718 -0.0390 0.8195
vn 0.5235 0.0444 0.8509
vn 0.3284 0.2254 0.9172
vn 0.5334 0.2139 0.8184
vn 0.5577 0.2590 0.7886
vn -0.0346 -0.6880 -0.7249
vn 0.0474 0.7098 -0.7028
vn 0.0427 0.9811 0.1888
vn -0.0479 -0.9640 -0.2615
vn 0.1463 0.8249 0.5461
vn 0.0362 0.4514 0.8916
vn -0.0416 -0.7616 -0.6467
vn 0.0293 0.2737 0.9614
vn -0.0307 -0.4586 -0.8881
vn 0.0309 0.1740 0.9843
vn -0.0163 -0.1114 -0.9936
vn -0.0083 0.3285 -0.9445
vn 0.0615 0.2529 0.9655
vn -0.0067 0.7145 -0.6996
vn -0.0308 -0.9463 -0.3218
vn -0.0783 -0.5125 -0.8551
vn -0.0350 0.1523 -0.9877
vn -0.0019 0.7245 -0.6893
vn 0.0423 -0.5495 -0.8345
vn -0.0015 0.6700 -0.7423
vn -0.0021 0.9574 -0.2886
vn 0.0721 -0.9519 -0.2979
vn 0.0740 -0.9331 0.3520
vn 0.0763 -0.8845 0.4602
vn -0.0057 0.7998 -0.6003
vn 0.1225 -0.9250 0.3597
vn -0.0099 0.4164 -0.9091
vn 0.0868 -0.6646 0.7422
vn -0.0028 0.9280 -0.3725
vn -0.0030 -0.8906 -0.4548
vn -0.0105 -0.1614 -0.9868
vn 0.0507 -0.2869 0.9566
vn 0.0428 -0.0403 0.9983
vn -0.0072 -0.5953 -0.8035
vn 0.0428 0.0483 0.9979
vn 0.0448 0.2424 0.9692
vn 0.0423 0.4099 0.9111
vn 0.0503 0.4092 0.9110
vn -0.7214 -0.4128 -0.5560
vn -0.5314 0.8025 0.2713
vn -0.4106 0.6517 -0.6377
vn -0.9060 -0.4114 -0.0993
vn -0.5482 0.4632 0.6964
vn -0.3704 0.5258 0.7657
vn -0.9143 -0.2088 -0.3469
vn -0.5970 0.2929 0.7469
vn -0.8511 -0.2448 -0.4645
vn -0.5773 0.0886 0.8117
vn -0.8802 -0.0163 -0.4744
vn -0.8747 0.1849 -0.4479
vn -0.7233 0.1348 0.6773
vn -0.8741 0.3315 -0.3552
vn -0.7383 -0.6700 -0.0773
vn -0.5135 0.6087 -0.6048
vn -0.5452 -0.5700 -0.6147
vn -0.7089 0.6980 -0.1019
vn -0.2886 -0.5588 -0.7775
vn -0.9375 0.2735 -0.2152
vn -0.8230 0.1488 -0.5481
vn -0.4643 -0.8419 -0.2750
vn -0.4792 -0.8124 0.3322
vn -0.5904 -0.6924 0.4148
vn -0.9202 0.2832 -0.2703
vn -0.5617 -0.7119 0.4216
vn -0.9611 0.2321 -0.1497
vn -0.6141 -0.4262 0.6643
vn -0.5616 -0.7119 0.4216
vn -0.7768 0.6114 -0.1506
vn -0.7854 -0.5590 -0.2659
vn -0.9524 -0.2416 -0.1860
vn -0.4606 -0.1696 0.8712
vn -0.5718 -0.0390 0.8195
vn -0.7952 -0.3690 -0.4811
vn -0.5235 0.0444 0.8509
vn -0.3284 0.2254 0.9172
vn -0.5334 0.2139 0.8184
vn -0.5577 0.2590 0.7886
vn 0.0346 -0.6880 -0.7249
vn -0.0474 0.7098 -0.7028
vn -0.0427 0.9811 0.1888
vn 0.0479 -0.9640 -0.2615
vn -0.1463 0.8249 0.5461
vn -0.0362 0.4514 0.8916
vn 0.0416 -0.7616 -0.6467
vn -0.0293 0.2737 0.9614
vn 0.0307 -0.4586 -0.8881
vn -0.0309 0.1740 0.9843
vn 0.0163 -0.1114 -0.9936
vn 0.0083 0.3285 -0.9445
vn -0.0615 0.2529 0.9655
vn 0.0067 0.7145 -0.6996
vn 0.0308 -0.9463 -0.3218
vn 0.0783 -0.5125 -0.8551
vn 0.0350 0.1523 -0.9877
vn 0.0019 0.7245 -0.6893
vn -0.0423 -0.5495 -0.8345
vn 0.0015 0.6700 -0.7423
vn 0.0021 0.9574 -0.2886
vn -0.0721 -0.9519 -0.2979
vn -0.0740 -0.9331 0.3520
vn -0.0763 -0.8845 0.4602
vn 0.0057 0.7998 -0.6003
vn -0.0806 -0.9368 0.3406
vn 0.0099 0.4164 -0.9091
vn -0.0666 -0.6534 0.7541
vn 0.0028 0.9280 -0.3725
vn 0.0030 -0.8906 -0.4548
vn 0.0105 -0.1614 -0.9868
vn -0.0507 -0.2869 0.9566
vn -0.0428 -0.0403 0.9983
vn 0.0072 -0.5953 -0.8035
vn -0.0428 0.0483 0.9979
vn -0.0448 0.2424 0.9692
vn -0.0423 0.4099 0.9111
vn -0.0503 0.4092 0.9110
usemtl Inside
s off
f 388/1/1 389/2/1 339/3/1
f 389/2/1 288/4/1 339/3/1
f 288/4/2 301/5/2 339/3/2
f 339/3/1 263/6/3 388/1/1
f 263/6/4 225/7/5 212/8/6
f 388/1/1 263/6/1 212/8/1
s 1
f 390/9/7 391/10/8 392/11/9
f 393/12/10 394/13/11 390/14/7
f 395/15/12 394/13/11 393/12/10
f 396/16/13 395/15/12 397/17/14
f 398/18/15 399/19/16 396/20/13
f 391/21/8 390/22/7 394/23/11
f 400/24/17 401/25/18 394/23/11
f 399/26/16 400/24/17 395/27/12
f 390/9/7 392/11/9 402/28/19
f 393/12/10 390/14/7 402/29/19
f 395/15/12 393/12/10 397/17/14
f 396/16/13 397/17/14 403/30/20
f 398/18/15 396/20/13 403/31/20
f 391/21/8 394/23/11 401/25/18
f 400/24/17 394/23/11 395/27/12
f 399/26/16 395/27/12 396/32/13
f 404/33/21 405/34/22 406/35/23
f 404/36/21 407/37/24 408/38/25
f 404/36/21 409/39/26 410/40/27
f 411/41/28 412/42/29 413/43/30
f 411/44/28 414/45/31 406/35/23
f 411/41/28 405/34/22 410/40/27
f 415/46/32 409/47/26 408/38/25
f 415/48/32 416/49/33 417/50/34
f 415/51/32 418/52/35 410/40/27
f 419/53/36 418/54/35 417/50/34
f 419/55/36 420/56/37 413/43/30
f 419/57/36 412/58/29 410/40/27
f 421/59/38 407/60/24 406/35/23
f 421/61/38 422/62/39 423/63/40
f 421/64/38 424/65/41 408/38/25
f 425/66/42 414/67/31 413/43/30
f 425/68/42 426/69/43 423/63/40
f 425/70/42 422/71/39 406/35/23
f 427/72/44 416/73/33 408/38/25
f 427/72/44 424/74/41 423/63/40
f 427/75/44 428/76/45 417/50/34
f 429/77/46 426/78/43 413/43/30
f 429/79/46 420/80/37 417/50/34
f 429/77/46 428/76/45 423/63/40
f 430/81/47 431/82/48 432/83/49
f 430/84/47 433/85/50 434/86/51
f 430/84/47 435/87/52 436/88/53
f 437/89/54 438/90/55 439/91/56
f 437/92/54 440/93/57 432/83/49
f 437/89/54 431/82/48 436/88/53
f 441/94/58 435/95/52 434/86/51
f 441/96/58 442/97/59 443/98/60
f 441/99/58 444/100/61 436/88/53
f 445/101/62 444/102/61 443/98/60
f 445/103/62 446/104/63 439/91/56
f 444/100/61 445/105/62 438/106/55
f 447/107/64 433/108/50 432/83/49
f 447/109/64 448/110/65 449/111/66
f 447/112/64 450/113/67 434/86/51
f 451/114/68 440/115/57 439/91/56
f 451/116/68 452/117/69 449/111/66
f 451/118/68 448/119/65 432/83/49
f 453/120/70 442/121/59 434/86/51
f 453/120/70 450/122/67 449/111/66
f 453/123/70 454/124/71 443/98/60
f 455/125/72 452/126/69 439/91/56
f 455/127/72 446/128/63 443/98/60
f 452/117/69 455/125/72 454/124/71
f 456/129/73 457/130/74 458/131/75
f 456/132/73 459/133/76 460/134/77
f 456/132/73 461/135/78 462/136/79
f 463/137/80 464/138/81 465/139/82
f 463/140/80 466/141/83 458/131/75
f 464/142/81 463/137/80 457/130/74
f 467/143/84 461/144/78 460/134/77
f 467/145/84 468/146/85 469/147/86
f 467/148/84 470/149/87 462/136/79
f 471/150/88 470/151/87 469/147/86
f 471/152/88 472/153/89 465/139/82
f 471/154/88 464/142/81 462/136/79
f 473/155/90 459/156/76 458/131/75
f 473/157/90 474/158/91 475/159/92
f 473/160/90 476/161/93 460/134/77
f 477/162/94 466/163/83 465/139/82
f 474/158/91 477/164/94 478/165/95
f 477/166/94 474/167/91 458/131/75
f 479/168/96 468/169/85 460/134/77
f 479/168/96 476/170/93 475/159/92
f 479/171/96 480/172/97 469/147/86
f 481/173/98 478/174/95 465/139/82
f 481/175/98 472/176/89 469/147/86
f 481/173/98 480/172/97 475/159/92
f 482/177/99 483/178/100 484/179/101
f 482/180/99 485/181/102 486/182/103
f 482/180/99 487/183/104 488/184/105
f 489/185/106 490/186/107 491/187/108
f 489/188/106 492/189/109 484/179/101
f 490/190/107 489/185/106 483/178/100
f 493/191/110 487/192/104 486/182/103
f 493/193/110 494/194/111 495/195/112
f 493/196/110 496/197/113 488/184/105
f 497/198/114 496/199/113 495/195/112
f 497/200/114 498/201/115 491/187/108
f 496/197/113 497/202/114 490/190/107
f 499/203/116 485/204/102 484/179/101
f 499/205/116 500/206/117 501/207/118
f 499/208/116 502/209/119 486/182/103
f 503/210/120 492/211/109 491/187/108
f 500/206/117 503/212/120 504/213/121
f 503/214/120 500/215/117 484/179/101
f 505/216/122 494/217/111 486/182/103
f 505/216/122 502/218/119 501/207/118
f 505/219/122 506/220/123 495/195/112
f 507/221/124 504/222/121 491/187/108
f 507/223/124 498/224/115 495/195/112
f 504/213/121 507/221/124 506/220/123
f 508/225/125 509/226/126 510/227/127
f 508/228/125 511/229/128 512/230/129
f 508/228/125 513/231/130 514/232/131
f 515/233/132 516/234/133 517/235/134
f 515/236/132 518/237/135 510/227/127
f 516/238/133 515/233/132 509/226/126
f 519/239/136 513/240/130 512/230/129
f 519/241/136 520/242/137 521/243/138
f 519/244/136 522/245/139 514/232/131
f 523/246/140 522/247/139 521/243/138
f 523/248/140 524/249/141 517/235/134
f 522/245/139 523/250/140 516/238/133
f 525/251/142 511/252/128 510/227/127
f 525/253/142 526/254/143 527/255/144
f 525/256/142 528/257/145 512/230/129
f 529/258/146 518/259/135 517/235/134
f 526/254/143 529/260/146 530/261/147
f 529/262/146 526/263/143 510/227/127
f 531/264/148 520/265/137 512/230/129
f 531/264/148 528/266/145 527/255/144
f 531/267/148 532/268/149 521/243/138
f 533/269/150 530/270/147 517/235/134
f 533/271/150 524/272/141 521/243/138
f 530/261/147 533/269/150 532/268/149
f 430/81/47 432/83/49 433/108/50
f 430/84/47 434/86/51 435/95/52
f 430/84/47 436/88/53 431/82/48
f 437/89/54 439/91/56 440/115/57
f 437/92/54 432/83/49 431/82/48
f 437/89/54 436/88/53 438/106/55
f 441/94/58 434/86/51 442/121/59
f 441/96/58 443/98/60 444/102/61
f 441/99/58 436/88/53 435/87/52
f 445/101/62 443/98/60 446/128/63
f 445/103/62 439/91/56 438/90/55
f 444/100/61 438/106/55 436/88/53
f 447/107/64 432/83/49 448/119/65
f 447/109/64 449/111/66 450/122/67
f 447/112/64 434/86/51 433/85/50
f 451/114/68 439/91/56 452/126/69
f 451/116/68 449/111/66 448/110/65
f 451/118/68 432/83/49 440/93/57
f 453/120/70 434/86/51 450/113/67
f 453/120/70 449/111/66 454/124/71
f 453/123/70 443/98/60 442/97/59
f 455/125/72 439/91/56 446/104/63
f 455/127/72 443/98/60 454/124/71
f 452/117/69 454/124/71 449/111/66
f 456/129/73 458/131/75 459/156/76
f 456/132/73 460/134/77 461/144/78
f 456/132/73 462/136/79 457/130/74
f 463/137/80 465/139/82 466/163/83
f 463/140/80 458/131/75 457/130/74
f 464/142/81 457/130/74 462/136/79
f 467/143/84 460/134/77 468/169/85
f 467/145/84 469/147/86 470/151/87
f 467/148/84 462/136/79 461/135/78
f 471/150/88 469/147/86 472/176/89
f 471/152/88 465/139/82 464/138/81
f 471/154/88 462/136/79 470/149/87
f 473/155/90 458/131/75 474/167/91
f 473/157/90 475/159/92 476/170/93
f 473/160/90 460/134/77 459/133/76
f 477/162/94 465/139/82 478/174/95
f 474/158/91 478/165/95 475/159/92
f 477/166/94 458/131/75 466/141/83
f 479/168/96 460/134/77 476/161/93
f 479/168/96 475/159/92 480/172/97
f 479/171/96 469/147/86 468/146/85
f 481/173/98 465/139/82 472/153/89
f 481/175/98 469/147/86 480/172/97
f 481/173/98 475/159/92 478/165/95
f 482/177/99 484/179/101 485/204/102
f 482/180/99 486/182/103 487/192/104
f 482/180/99 488/184/105 483/178/100
f 489/185/106 491/187/108 492/211/109
f 489/188/106 484/179/101 483/178/100
f 490/190/107 483/178/100 488/184/105
f 493/191/110 486/182/103 494/217/111
f 493/193/110 495/195/112 496/199/113
f 493/196/110 488/184/105 487/183/104
f 497/198/114 495/195/112 498/224/115
f 497/200/114 491/187/108 490/186/107
f 496/197/113 490/190/107 488/184/105
f 499/203/116 484/179/101 500/215/117
f 499/205/116 501/207/118 502/218/119
f 499/208/116 486/182/103 485/181/102
f 503/210/120 491/187/108 504/222/121
f 500/206/117 504/213/121 501/207/118
f 503/214/120 484/179/101 492/189/109
f 505/216/122 486/182/103 502/209/119
f 505/216/122 501/207/118 506/220/123
f 505/219/122 495/195/112 494/194/111
f 507/221/124 491/187/108 498/201/115
f 507/223/124 495/195/112 506/220/123
f 504/213/121 506/220/123 501/207/118
f 508/225/125 510/227/127 511/252/128
f 508/228/125 512/230/129 513/240/130
f 508/228/125 514/232/131 509/226/126
f 515/233/132 517/235/134 518/259/135
f 515/236/132 510/227/127 509/226/126
f 516/238/133 509/226/126 514/232/131
f 519/239/136 512/230/129 520/265/137
f 519/241/136 521/243/138 522/247/139
f 519/244/136 514/232/131 513/231/130
f 523/246/140 521/243/138 524/272/141
f 523/248/140 517/235/134 516/234/133
f 522/245/139 516/238/133 514/232/131
f 525/251/142 510/227/127 526/263/143
f 525/253/142 527/255/144 528/266/145
f 525/256/142 512/230/129 511/229/128
f 529/258/146 517/235/134 530/270/147
f 526/254/143 530/261/147 527/255/144
f 529/262/146 510/227/127 518/237/135
f 531/264/148 512/230/129 528/257/145
f 531/264/148 527/255/144 532/268/149
f 531/267/148 521/243/138 520/242/137
f 533/269/150 517/235/134 524/249/141
f 533/271/150 521/243/138 532/268/149
f 530/261/147 532/268/149 527/255/144
f 404/33/21 406/35/23 407/60/24
f 404/36/21 408/38/25 409/47/26
f 404/36/21 410/40/27 405/34/22
f 411/41/28 413/43/30 414/67/31
f 411/44/28 406/35/23 405/34/22
f 411/41/28 410/40/27 412/58/29
f 415/46/32 408/38/25 416/73/33
f 415/48/32 417/50/34 418/54/35
f 415/51/32 410/40/27 409/39/26
f 419/53/36 417/50/34 420/80/37
f 419/55/36 413/43/30 412/42/29
f 419/57/36 410/40/27 418/52/35
f 421/59/38 406/35/23 422/71/39
f 421/61/38 423/63/40 424/74/41
f 421/64/38 408/38/25 407/37/24
f 425/66/42 413/43/30 426/78/43
f 425/68/42 423/63/40 422/62/39
f 425/70/42 406/35/23 414/45/31
f 427/72/44 408/38/25 424/65/41
f 427/72/44 423/63/40 428/76/45
f 427/75/44 417/50/34 416/49/33
f 429/77/46 413/43/30 420/56/37
f 429/79/46 417/50/34 428/76/45
f 429/77/46 423/63/40 426/69/43
usemtl _focus.png.005
f 1/273/151 2/274/152 3/275/153
f 4/276/154 1/273/151 3/275/153
f 4/276/154 3/275/153 5/277/155
f 5/277/155 6/278/156 4/276/154
f 7/279/157 8/280/158 2/274/152
f 2/274/152 1/273/151 7/279/157
f 8/280/158 9/281/159 3/275/153
f 3/275/153 2/274/152 8/280/158
f 9/281/159 10/282/160 5/277/155
f 5/277/155 3/275/153 9/281/159
f 10/283/160 11/284/161 6/285/156
f 6/285/156 5/286/155 10/283/160
f 11/287/161 12/288/162 4/276/154
f 4/276/154 6/278/156 11/287/161
f 7/279/157 1/273/151 12/288/162
f 1/273/151 4/276/154 12/288/162
f 13/289/163 14/290/164 15/291/165
f 14/290/164 16/292/166 15/291/165
f 16/292/166 13/289/163 15/291/165
f 17/293/167 18/294/168 19/295/169
f 18/294/168 20/296/170 19/295/169
f 20/296/170 17/293/167 19/295/169
f 21/297/171 22/298/172 23/299/173
f 24/300/174 21/297/171 23/299/173
f 25/301/175 21/297/171 24/300/174
f 24/300/174 26/302/176 25/301/175
f 27/303/177 25/301/175 26/302/176
f 26/302/176 28/304/178 27/303/177
f 29/305/179 27/303/177 28/304/178
f 28/304/178 30/306/180 29/305/179
f 31/307/181 32/308/182 33/309/183
f 33/309/183 34/310/184 31/307/181
f 35/311/185 36/312/186 32/308/182
f 32/308/182 31/307/181 35/311/185
f 37/313/187 38/314/188 36/312/186
f 36/312/186 35/311/185 37/313/187
f 39/315/189 40/316/190 38/314/188
f 38/314/188 37/313/187 39/315/189
f 32/308/182 24/300/174 23/299/173
f 23/299/173 33/309/183 32/308/182
f 36/312/186 26/302/176 24/300/174
f 24/300/174 32/308/182 36/312/186
f 38/314/188 28/304/178 26/302/176
f 26/302/176 36/312/186 38/314/188
f 40/316/190 30/306/180 28/304/178
f 28/304/178 38/314/188 40/316/190
f 39/315/189 29/305/179 30/306/180
f 30/306/180 40/316/190 39/315/189
f 37/317/187 27/318/177 29/319/179
f 29/319/179 39/320/189 37/317/187
f 35/321/185 25/322/175 27/318/177
f 27/318/177 37/317/187 35/321/185
f 31/323/181 21/324/171 25/322/175
f 25/322/175 35/321/185 31/323/181
f 22/325/172 21/324/171 34/326/184
f 21/324/171 31/323/181 34/326/184
f 41/327/191 42/328/192 43/329/193
f 44/330/194 41/327/191 43/329/193
f 45/331/195 41/327/191 44/330/194
f 44/330/194 46/332/195 45/331/195
f 47/333/196 43/329/193 42/328/192
f 42/328/192 48/334/196 47/333/196
f 49/335/191 50/336/192 51/337/193
f 52/338/194 49/335/191 51/337/193
f 53/339/195 49/335/191 52/338/194
f 52/338/194 54/340/195 53/339/195
f 55/341/196 51/337/193 50/336/192
f 50/336/192 56/342/196 55/341/196
f 57/343/197 58/344/198 59/345/199
f 60/346/200 57/343/197 59/345/199
f 61/347/195 57/343/197 60/346/200
f 60/346/200 62/348/195 61/347/195
f 63/349/196 59/345/199 58/344/198
f 58/344/198 64/350/196 63/349/196
f 65/351/197 66/352/198 67/353/199
f 68/354/200 65/351/197 67/353/199
f 69/355/195 65/351/197 68/354/200
f 68/354/200 70/356/195 69/355/195
f 71/357/196 67/353/199 66/352/198
f 66/352/198 72/358/196 71/357/196
f 73/359/201 74/360/202 75/361/203
f 74/360/202 76/362/204 75/361/203
f 76/362/204 77/363/205 75/361/203
f 77/363/205 78/364/206 75/361/203
f 78/364/206 79/365/207 75/361/203
f 79/365/207 80/366/208 75/361/203
f 80/366/208 81/367/209 75/361/203
f 81/367/209 73/359/201 75/361/203
f 82/368/210 73/359/201 83/369/196
f 74/360/202 73/359/201 82/368/210
f 82/368/210 84/370/211 74/360/202
f 84/370/211 76/362/204 74/360/202
f 84/370/211 85/371/212 76/362/204
f 85/371/212 77/363/205 76/362/204
f 85/371/212 86/372/195 77/363/205
f 86/372/195 78/364/206 77/363/205
f 86/372/195 87/373/213 78/364/206
f 87/373/213 79/365/207 78/364/206
f 87/373/213 88/374/214 79/365/207
f 88/374/214 80/366/208 79/365/207
f 88/374/214 89/375/215 80/366/208
f 89/375/215 81/367/209 80/366/208
f 89/375/215 83/369/196 81/367/209
f 83/369/196 73/359/201 81/367/209
f 90/376/216 91/377/217 92/378/218
f 91/377/217 93/379/219 92/378/218
f 91/380/217 94/381/220 93/382/219
f 94/381/220 95/383/221 93/384/219
f 94/385/220 96/386/222 95/387/221
f 96/388/222 97/389/223 95/383/221
f 96/390/222 98/391/224 97/392/223
f 98/393/224 99/394/225 97/389/223
f 98/391/224 100/395/226 99/396/225
f 100/397/226 101/398/227 99/394/225
f 100/395/226 90/376/216 101/399/227
f 90/400/216 92/401/218 101/402/227
f 102/403/228 90/376/216 103/404/229
f 91/377/217 90/376/216 102/403/228
f 102/405/228 104/406/230 91/380/217
f 104/407/230 94/408/220 91/409/217
f 104/406/230 105/410/231 94/381/220
f 105/410/231 96/388/222 94/381/220
f 105/411/231 106/412/232 96/390/222
f 106/412/232 98/391/224 96/390/222
f 106/412/232 107/413/233 98/391/224
f 107/413/233 100/395/226 98/391/224
f 107/413/233 103/404/229 100/395/226
f 103/404/229 90/376/216 100/395/226
f 108/414/234 109/415/235 103/416/229
f 109/417/235 102/403/228 103/404/229
f 109/418/235 110/419/236 102/420/228
f 110/419/236 104/406/230 102/421/228
f 110/422/236 111/423/237 104/424/230
f 111/423/237 105/411/231 104/424/230
f 111/423/237 112/425/238 105/411/231
f 112/425/238 106/412/232 105/411/231
f 112/426/238 113/427/239 106/428/232
f 113/429/239 107/413/233 106/412/232
f 113/430/239 108/414/234 107/431/233
f 108/432/234 103/404/229 107/413/233
f 114/433/240 115/434/241 116/435/203
f 115/434/241 117/436/242 116/435/203
f 115/437/241 118/438/243 117/439/242
f 118/440/243 119/441/244 117/442/242
f 118/438/243 120/443/245 119/444/244
f 120/445/245 121/446/246 119/447/244
f 120/445/245 122/448/247 121/446/246
f 122/448/247 123/449/248 121/446/246
f 122/448/247 124/450/249 123/449/248
f 124/450/249 125/451/250 123/449/248
f 124/450/249 114/433/240 125/451/250
f 114/433/240 116/435/203 125/451/250
f 126/452/251 114/433/240 127/453/252
f 115/434/241 114/433/240 126/452/251
f 126/452/251 128/454/253 115/434/241
f 128/455/253 118/438/243 115/456/241
f 128/457/253 129/458/254 118/459/243
f 129/458/254 120/445/245 118/459/243
f 129/458/254 130/460/255 120/445/245
f 130/460/255 122/448/247 120/445/245
f 130/460/255 131/461/256 122/448/247
f 131/461/256 124/450/249 122/448/247
f 131/461/256 127/453/252 124/450/249
f 127/453/252 114/433/240 124/450/249
f 132/462/257 133/463/258 127/464/252
f 133/465/258 126/452/251 127/453/252
f 133/466/258 134/467/259 126/468/251
f 134/467/259 128/455/253 126/469/251
f 134/470/259 135/471/260 128/457/253
f 135/471/260 129/458/254 128/457/253
f 135/471/260 136/472/261 129/458/254
f 136/472/261 130/460/255 129/458/254
f 136/472/261 137/473/262 130/460/255
f 137/473/262 131/461/256 130/460/255
f 137/473/262 132/474/257 131/461/256
f 132/474/257 127/453/252 131/461/256
f 138/475/263 139/476/264 132/474/257
f 139/476/264 133/477/258 132/474/257
f 139/478/264 140/479/265 133/480/258
f 140/481/265 134/470/259 133/482/258
f 140/481/265 141/483/266 134/470/259
f 141/483/266 135/471/260 134/470/259
f 141/483/266 142/484/267 135/471/260
f 142/484/267 136/472/261 135/471/260
f 142/484/267 143/485/268 136/472/261
f 143/485/268 137/473/262 136/472/261
f 143/485/268 138/475/263 137/473/262
f 138/475/263 132/474/257 137/473/262
f 144/486/203 145/487/242 138/475/263
f 145/487/242 139/476/264 138/475/263
f 145/487/242 146/488/244 139/476/264
f 146/489/244 140/479/265 139/490/264
f 146/491/244 147/492/246 140/493/265
f 147/494/246 141/495/266 140/479/265
f 147/496/246 148/497/248 141/483/266
f 148/497/248 142/484/267 141/483/266
f 148/497/248 149/498/250 142/484/267
f 149/498/250 143/485/268 142/484/267
f 149/498/250 144/486/203 143/485/268
f 144/486/203 138/475/263 143/485/268
f 150/499/269 151/500/270 152/501/271
f 150/499/269 153/502/272 151/500/270
f 153/502/272 154/503/273 151/500/270
f 153/504/272 155/505/274 154/506/273
f 155/505/274 156/507/275 154/506/273
f 154/506/273 156/507/275 157/508/276
f 156/507/275 158/509/277 157/508/276
f 157/508/276 158/509/277 159/510/278
f 152/501/271 160/511/279 161/512/280
f 152/501/271 151/500/270 160/511/279
f 151/500/270 162/513/281 160/511/279
f 151/500/270 154/503/273 162/513/281
f 154/506/273 157/508/276 162/514/281
f 162/514/281 157/508/276 163/515/282
f 157/508/276 164/516/283 163/515/282
f 157/508/276 159/510/278 164/516/283
f 161/512/280 165/517/284 166/518/285
f 161/512/280 160/511/279 165/517/284
f 160/511/279 167/519/286 165/517/284
f 160/511/279 162/513/281 167/519/286
f 162/514/281 168/520/287 167/521/286
f 162/514/281 163/515/282 168/520/287
f 163/515/282 169/522/288 168/520/287
f 163/515/282 164/516/283 169/522/288
f 166/518/285 170/523/289 171/524/290
f 166/518/285 165/517/284 170/523/289
f 165/517/284 167/519/286 170/523/289
f 170/523/289 167/519/286 172/525/291
f 167/521/286 173/526/292 172/527/291
f 167/521/286 168/520/287 173/526/292
f 168/520/287 174/528/293 173/526/292
f 168/520/287 169/522/288 174/528/293
f 171/529/290 170/530/289 175/531/294
f 175/532/294 170/523/289 176/533/295
f 170/523/289 172/525/291 176/533/295
f 176/534/295 172/535/291 177/536/296
f 172/527/291 178/537/297 177/538/296
f 172/527/291 173/526/292 178/537/297
f 173/526/292 179/539/298 178/537/297
f 173/526/292 174/528/293 179/539/298
f 180/540/299 181/541/300 182/542/301
f 183/543/302 180/540/299 182/542/301
f 183/543/302 182/542/301 184/544/303
f 184/544/303 185/545/304 183/543/302
f 185/545/304 184/544/303 186/546/305
f 186/546/305 187/547/306 185/545/304
f 187/547/306 186/546/305 188/548/307
f 188/548/307 189/549/308 187/547/306
f 190/550/309 191/551/310 192/552/311
f 192/552/311 193/553/312 190/550/309
f 191/551/310 194/554/313 195/555/314
f 195/555/314 192/552/311 191/551/310
f 194/554/313 196/556/315 197/557/316
f 197/557/316 195/555/314 194/554/313
f 196/556/315 198/558/317 199/559/318
f 199/559/318 197/557/316 196/556/315
f 180/540/299 183/543/302 191/551/310
f 190/550/309 180/540/299 191/551/310
f 183/543/302 185/545/304 194/554/313
f 194/554/313 191/551/310 183/543/302
f 185/545/304 187/547/306 196/556/315
f 196/556/315 194/554/313 185/545/304
f 187/547/306 189/549/308 198/558/317
f 198/558/317 196/556/315 187/547/306
f 189/549/308 188/548/307 199/559/318
f 199/559/318 198/558/317 189/549/308
f 188/560/307 186/561/305 197/562/316
f 197/562/316 199/563/318 188/560/307
f 186/561/305 184/564/303 195/565/314
f 195/565/314 197/562/316 186/561/305
f 184/564/303 182/566/301 192/567/311
f 192/567/311 195/565/314 184/564/303
f 182/566/301 181/568/300 193/569/312
f 193/569/312 192/567/311 182/566/301
f 200/570/319 201/571/320 202/572/321
f 203/573/322 200/570/319 202/572/321
f 204/574/323 202/572/321 205/575/324
f 203/573/322 202/572/321 204/574/323
f 206/576/325 203/577/322 204/578/323
f 206/576/325 204/578/323 207/579/326
f 208/580/327 206/576/325 207/579/326
f 208/580/327 207/579/326 209/581/328
f 210/582/329 208/580/327 209/581/328
f 211/583/330 210/582/329 209/581/328
f 211/583/330 209/581/328 212/584/331
f 213/585/332 211/583/330 212/584/331
f 214/586/333 215/587/334 216/588/335
f 214/586/333 216/588/335 217/589/336
f 218/590/337 219/591/338 220/592/339
f 221/593/340 218/590/337 220/592/339
f 222/594/341 221/593/340 220/592/339
f 223/595/342 222/594/341 220/592/339
f 223/595/342 220/592/339 224/596/343
f 225/597/344 223/595/342 224/596/343
f 225/598/344 224/599/343 226/600/345
f 227/601/346 225/598/344 226/600/345
f 214/586/333 217/589/336 228/602/347
f 229/603/348 214/586/333 228/602/347
f 212/584/331 225/598/344 227/601/346
f 212/584/331 230/604/349 225/598/344
f 212/584/331 231/605/350 230/604/349
f 212/584/331 227/601/346 232/606/351
f 212/584/331 232/606/351 229/603/348
f 212/584/331 229/603/348 228/602/347
f 212/584/331 233/607/352 231/605/350
f 212/584/331 234/608/353 233/607/352
f 212/584/331 235/609/354 234/608/353
f 212/584/331 236/610/355 235/609/354
f 212/584/331 237/611/356 236/610/355
f 213/585/332 212/584/331 228/602/347
f 238/612/357 239/613/358 201/614/320
f 201/614/320 200/615/319 238/612/357
f 239/616/358 240/617/359 202/572/321
f 202/572/321 201/571/320 239/616/358
f 238/618/357 200/619/319 241/620/360
f 200/619/319 203/621/322 241/620/360
f 202/572/321 242/622/361 205/575/324
f 242/622/361 202/572/321 240/617/359
f 205/575/324 243/623/362 204/574/323
f 243/623/362 205/575/324 242/622/361
f 244/624/363 241/620/360 203/621/322
f 203/621/322 206/625/325 244/624/363
f 243/626/362 245/627/364 207/628/326
f 207/628/326 204/629/323 243/626/362
f 246/630/365 244/624/363 206/625/325
f 206/625/325 208/631/327 246/630/365
f 245/627/364 247/632/366 209/633/328
f 209/633/328 207/628/326 245/627/364
f 248/634/367 246/630/365 208/631/327
f 208/631/327 210/635/329 248/634/367
f 249/636/368 248/634/367 210/635/329
f 210/635/329 211/637/330 249/636/368
f 247/632/366 250/638/369 212/639/331
f 212/639/331 209/633/328 247/632/366
f 251/640/370 249/636/368 211/637/330
f 211/637/330 213/641/332 251/640/370
f 252/642/371 253/643/372 215/644/334
f 215/644/334 214/645/333 252/642/371
f 253/646/372 254/647/373 216/648/335
f 216/648/335 215/649/334 253/646/372
f 254/650/373 255/651/374 217/652/336
f 217/652/336 216/653/335 254/650/373
f 256/654/375 257/655/376 219/656/338
f 219/656/338 218/657/337 256/654/375
f 257/658/376 258/659/377 220/660/339
f 220/660/339 219/661/338 257/658/376
f 259/662/378 256/663/375 218/590/337
f 218/590/337 221/593/340 259/662/378
f 260/664/379 259/662/378 221/593/340
f 221/593/340 222/594/341 260/664/379
f 261/665/380 260/664/379 222/594/341
f 222/594/341 223/595/342 261/665/380
f 258/659/377 262/666/381 224/667/343
f 224/667/343 220/660/339 258/659/377
f 263/668/382 261/665/380 223/595/342
f 223/595/342 225/597/344 263/668/382
f 262/666/381 264/669/383 226/670/345
f 226/670/345 224/667/343 262/666/381
f 265/671/384 263/668/382 225/597/344
f 225/597/344 230/672/349 265/671/384
f 255/651/374 266/673/385 228/674/347
f 228/674/347 217/652/336 255/651/374
f 267/675/386 252/642/371 214/645/333
f 214/645/333 229/676/348 267/675/386
f 264/669/383 268/677/387 227/678/346
f 227/678/346 226/670/345 264/669/383
f 269/679/388 265/671/384 230/672/349
f 230/672/349 231/680/350 269/679/388
f 270/681/389 269/682/388 231/683/350
f 231/683/350 233/684/352 270/681/389
f 268/677/387 271/685/390 232/686/351
f 232/686/351 227/678/346 268/677/387
f 271/685/390 267/675/386 229/676/348
f 229/676/348 232/686/351 271/685/390
f 272/687/391 270/681/389 233/684/352
f 233/684/352 234/688/353 272/687/391
f 273/689/392 272/687/391 234/688/353
f 234/688/353 235/690/354 273/689/392
f 274/691/393 273/692/392 235/693/354
f 235/693/354 236/694/355 274/691/393
f 275/695/394 274/691/393 236/694/355
f 236/694/355 237/696/356 275/695/394
f 250/697/369 275/695/394 237/696/356
f 237/696/356 212/698/331 250/697/369
f 266/673/385 251/640/370 213/641/332
f 213/641/332 228/674/347 266/673/385
f 276/699/395 277/700/396 278/701/397
f 279/702/398 277/700/396 276/699/395
f 279/702/398 280/703/399 277/700/396
f 277/700/396 280/703/399 281/704/400
f 282/705/401 280/706/399 279/707/398
f 282/705/401 283/708/402 280/706/399
f 284/709/403 283/708/402 282/705/401
f 284/709/403 285/710/404 283/708/402
f 286/711/405 285/710/404 284/709/403
f 287/712/406 285/710/404 286/711/405
f 287/712/406 288/713/407 285/710/404
f 289/714/408 288/713/407 287/712/406
f 290/715/409 291/716/410 292/717/411
f 290/715/409 293/718/412 291/716/410
f 294/719/413 295/720/414 296/721/415
f 297/722/416 295/720/414 294/719/413
f 298/723/417 295/720/414 297/722/416
f 299/724/418 295/720/414 298/723/417
f 299/724/418 300/725/419 295/720/414
f 301/726/420 300/725/419 299/724/418
f 301/727/420 302/728/421 300/729/419
f 303/730/422 288/713/407 301/727/423
f 290/715/409 304/731/424 293/718/412
f 305/732/425 304/731/424 290/715/409
f 301/727/420 306/733/426 302/728/421
f 307/734/427 288/713/407 303/730/422
f 308/735/428 288/713/407 307/734/427
f 301/727/420 288/713/407 306/733/426
f 306/733/426 288/713/407 309/736/429
f 309/736/429 288/713/407 305/732/425
f 310/737/430 288/713/407 308/735/428
f 311/738/431 288/713/407 310/737/430
f 312/739/432 288/713/407 311/738/431
f 313/740/433 288/713/407 312/739/432
f 288/713/407 289/714/408 304/731/424
f 288/713/407 304/731/424 305/732/425
f 314/741/434 278/742/397 315/743/435
f 278/742/397 314/741/434 276/744/395
f 315/745/435 277/700/396 316/746/436
f 277/700/396 315/745/435 278/701/397
f 317/747/437 276/748/395 314/749/434
f 276/748/395 317/747/437 279/750/398
f 316/746/436 277/700/396 318/751/438
f 281/704/400 318/751/438 277/700/396
f 318/751/438 281/704/400 319/752/439
f 280/703/399 319/752/439 281/704/400
f 320/753/440 279/750/398 317/747/437
f 279/750/398 320/753/440 282/754/401
f 319/755/439 283/756/402 321/757/441
f 283/756/402 319/755/439 280/758/399
f 322/759/442 282/754/401 320/753/440
f 282/754/401 322/759/442 284/760/403
f 321/757/441 285/761/404 323/762/443
f 285/761/404 321/757/441 283/756/402
f 324/763/444 284/760/403 322/759/442
f 284/760/403 324/763/444 286/764/405
f 325/765/445 286/764/405 324/763/444
f 286/764/405 325/765/445 287/766/406
f 323/762/443 288/767/407 326/768/446
f 288/767/407 323/762/443 285/761/404
f 327/769/447 287/766/406 325/765/445
f 287/766/406 327/769/447 289/770/408
f 328/771/448 292/772/411 329/773/449
f 292/772/411 328/771/448 290/774/409
f 329/775/449 291/776/410 330/777/450
f 291/776/410 329/775/449 292/778/411
f 330/779/450 293/780/412 331/781/451
f 293/780/412 330/779/450 291/782/410
f 332/783/452 296/784/415 333/785/453
f 296/784/415 332/783/452 294/786/413
f 333/787/453 295/788/414 334/789/454
f 295/788/414 333/787/453 296/790/415
f 335/791/455 294/719/413 332/792/452
f 294/719/413 335/791/455 297/722/416
f 336/793/456 297/722/416 335/791/455
f 297/722/416 336/793/456 298/723/417
f 337/794/457 298/723/417 336/793/456
f 298/723/417 337/794/457 299/724/418
f 334/789/454 300/795/419 338/796/458
f 300/795/419 334/789/454 295/788/414
f 339/797/459 299/724/418 337/794/457
f 299/724/418 339/797/459 301/726/420
f 338/796/458 302/798/421 340/799/460
f 302/798/421 338/796/458 300/795/419
f 341/800/461 301/726/423 339/797/459
f 301/726/423 341/800/461 303/801/422
f 331/781/451 304/802/424 342/803/462
f 304/802/424 331/781/451 293/780/412
f 343/804/463 290/774/409 328/771/448
f 290/774/409 343/804/463 305/805/425
f 340/799/460 306/806/426 344/807/464
f 306/806/426 340/799/460 302/798/421
f 345/808/465 303/801/422 341/800/461
f 303/801/422 345/808/465 307/809/427
f 346/810/466 307/811/427 345/812/465
f 307/811/427 346/810/466 308/813/428
f 344/807/464 309/814/429 347/815/467
f 309/814/429 344/807/464 306/806/426
f 347/815/467 305/805/425 343/804/463
f 305/805/425 347/815/467 309/814/429
f 348/816/468 308/813/428 346/810/466
f 308/813/428 348/816/468 310/817/430
f 349/818/469 310/817/430 348/816/468
f 310/817/430 349/818/469 311/819/431
f 350/820/470 311/821/431 349/822/469
f 311/821/431 350/820/470 312/823/432
f 351/824/471 312/823/432 350/820/470
f 312/823/432 351/824/471 313/825/433
f 326/826/446 313/825/433 351/824/471
f 313/825/433 326/826/446 288/827/407
f 342/803/462 289/770/408 327/769/447
f 289/770/408 342/803/462 304/802/424
f 242/622/361 240/617/359 318/751/438
f 318/751/438 240/617/359 316/746/436
f 243/623/362 242/622/361 319/752/439
f 319/752/439 242/622/361 318/751/438
f 245/627/364 243/626/362 321/757/441
f 321/757/441 243/626/362 319/755/439
f 323/762/443 245/627/364 321/757/441
f 323/762/443 247/632/366 245/627/364
f 250/638/369 247/632/366 326/768/446
f 326/768/446 247/632/366 323/762/443
f 351/824/471 250/697/369 326/826/446
f 275/695/394 250/697/369 351/824/471
f 350/820/470 274/691/393 275/695/394
f 275/695/394 351/824/471 350/820/470
f 273/692/392 274/691/393 349/822/469
f 349/822/469 274/691/393 350/820/470
f 272/687/391 273/689/392 348/816/468
f 348/816/468 273/689/392 349/818/469
f 270/681/389 272/687/391 346/810/466
f 346/810/466 272/687/391 348/816/468
f 269/682/388 270/681/389 345/812/465
f 345/812/465 270/681/389 346/810/466
f 269/679/388 345/808/465 341/800/461
f 341/800/461 265/671/384 269/679/388
f 265/671/384 339/797/459 263/668/382
f 265/671/384 341/800/461 339/797/459
f 263/668/382 339/797/459 337/794/457
f 337/794/457 261/665/380 263/668/382
f 337/794/457 336/793/456 261/665/380
f 261/665/380 336/793/456 260/664/379
f 336/793/456 335/791/455 260/664/379
f 260/664/379 335/791/455 259/662/378
f 259/662/378 332/792/452 256/663/375
f 259/662/378 335/791/455 332/792/452
f 256/654/375 332/783/452 333/785/453
f 333/785/453 257/655/376 256/654/375
f 333/787/453 334/789/454 257/658/376
f 257/658/376 334/789/454 258/659/377
f 258/659/377 334/789/454 338/796/458
f 258/659/377 338/796/458 262/666/381
f 262/666/381 338/796/458 340/799/460
f 340/799/460 264/669/383 262/666/381
f 264/669/383 340/799/460 268/677/387
f 268/677/387 340/799/460 344/807/464
f 344/807/464 271/685/390 268/677/387
f 271/685/390 344/807/464 347/815/467
f 347/815/467 343/804/463 271/685/390
f 271/685/390 343/804/463 267/675/386
f 267/675/386 343/804/463 328/771/448
f 252/642/371 267/675/386 328/771/448
f 328/771/448 329/773/449 252/642/371
f 252/642/371 329/773/449 253/643/372
f 254/647/373 253/646/372 329/775/449
f 254/647/373 329/775/449 330/777/450
f 254/650/373 330/779/450 331/781/451
f 331/781/451 255/651/374 254/650/373
f 331/781/451 342/803/462 255/651/374
f 255/651/374 342/803/462 266/673/385
f 266/673/385 342/803/462 327/769/447
f 266/673/385 327/769/447 251/640/370
f 251/640/370 327/769/447 325/765/445
f 325/765/445 249/636/368 251/640/370
f 325/765/445 324/763/444 249/636/368
f 249/636/368 324/763/444 248/634/367
f 248/634/367 324/763/444 246/630/365
f 246/630/365 324/763/444 322/759/442
f 322/759/442 320/753/440 246/630/365
f 246/630/365 320/753/440 244/624/363
f 244/624/363 320/753/440 317/747/437
f 317/747/437 241/620/360 244/624/363
f 241/620/360 317/747/437 314/749/434
f 314/749/434 238/618/357 241/620/360
f 238/612/357 314/741/434 239/613/358
f 239/613/358 314/741/434 315/743/435
f 239/616/358 315/745/435 316/746/436
f 316/746/436 240/617/359 239/616/358
f 352/828/240 353/829/241 354/830/203
f 353/831/241 355/832/242 354/833/203
f 353/831/241 356/834/243 355/832/242
f 356/834/243 357/835/244 355/832/242
f 356/836/243 358/837/245 357/838/244
f 358/839/245 359/840/246 357/841/244
f 358/839/245 360/842/247 359/840/246
f 360/842/247 361/843/248 359/840/246
f 360/842/247 362/844/249 361/843/248
f 362/844/249 363/845/250 361/843/248
f 362/844/249 352/846/240 363/845/250
f 352/846/240 354/847/203 363/845/250
f 364/848/251 352/846/240 365/849/252
f 353/831/241 352/846/240 364/848/251
f 364/848/251 366/850/253 353/831/241
f 366/850/253 356/834/243 353/831/241
f 366/850/253 367/851/254 356/834/243
f 367/851/254 358/839/245 356/834/243
f 367/851/254 368/852/255 358/839/245
f 368/852/255 360/842/247 358/839/245
f 368/852/255 369/853/256 360/842/247
f 369/853/256 362/844/249 360/842/247
f 369/853/256 365/849/252 362/844/249
f 365/849/252 352/846/240 362/844/249
f 370/854/257 371/855/258 365/849/252
f 371/855/258 364/848/251 365/849/252
f 371/856/258 372/857/259 364/858/251
f 372/857/259 366/859/253 364/860/251
f 372/857/259 373/861/260 366/859/253
f 373/862/260 367/851/254 366/850/253
f 373/862/260 374/863/261 367/851/254
f 374/863/261 368/852/255 367/851/254
f 374/863/261 375/864/262 368/852/255
f 375/864/262 369/853/256 368/852/255
f 375/864/262 370/854/257 369/853/256
f 370/854/257 365/849/252 369/853/256
f 376/865/263 377/866/264 370/854/257
f 377/866/264 371/855/258 370/854/257
f 377/866/264 378/867/265 371/855/258
f 378/867/265 372/868/259 371/855/258
f 378/867/265 379/869/266 372/868/259
f 379/869/266 373/862/260 372/868/259
f 379/869/266 380/870/267 373/862/260
f 380/870/267 374/863/261 373/862/260
f 380/870/267 381/871/268 374/863/261
f 381/871/268 375/864/262 374/863/261
f 381/871/268 376/865/263 375/864/262
f 376/865/263 370/854/257 375/864/262
f 382/872/203 383/873/242 376/865/263
f 383/874/242 377/875/264 376/876/263
f 383/877/242 384/878/244 377/879/264
f 384/880/244 378/881/265 377/882/264
f 384/883/244 385/884/246 378/885/265
f 385/886/246 379/887/266 378/881/265
f 385/888/246 386/889/248 379/869/266
f 386/889/248 380/870/267 379/869/266
f 386/889/248 387/890/250 380/870/267
f 387/890/250 381/871/268 380/870/267
f 387/890/250 382/872/203 381/871/268
f 382/872/203 376/865/263 381/871/268
