# Blender 4.0.2
# www.blender.org
mtllib Toreador_wheel.mtl
o DrawCall_9
v -0.369263 0.226735 -0.999998
v -0.369263 -0.226737 -0.999998
v 0.369203 0.918065 0.445041
v -0.369263 0.918065 0.445041
v -0.369263 1.018976 0.000002
v -0.369263 0.635321 0.801932
v -0.369263 0.226735 1.000001
v -0.369263 -0.226737 1.000001
v 0.369203 -0.635323 0.801932
v -0.369263 -0.635323 0.801932
v -0.369263 -0.918067 0.445041
v -0.369263 -1.018978 0.000002
v -0.369263 -0.918067 -0.445038
v 0.369203 -0.635323 -0.801946
v -0.369263 -0.635323 -0.801946
v 0.369203 -0.226737 -0.999998
v 0.369203 1.018976 0.000002
v 0.369203 0.635321 -0.801946
v -0.369263 0.635321 -0.801946
v -0.369263 0.918065 -0.445038
v 0.504595 -0.574899 -0.278674
v 0.504595 -0.638099 0.000002
v 0.293205 -0.000001 0.000002
v 0.504595 0.397848 0.502184
v 0.504595 0.574897 0.278695
v 0.504595 0.141990 0.626210
v 0.504595 -0.141993 0.626210
v 0.504595 -0.397850 0.502184
v 0.504595 -0.574899 0.278695
v 0.504595 0.638097 0.000002
v 0.504595 -0.397850 -0.502163
v 0.504595 -0.141993 -0.626207
v 0.504595 0.141990 -0.626207
v 0.504595 0.397848 -0.502163
v 0.504595 0.574897 -0.278674
v 0.369203 0.635321 0.801932
v 0.369203 0.226735 1.000001
v 0.369203 -0.226737 1.000001
v 0.369203 -0.918067 0.445041
v 0.369203 -1.018978 0.000002
v 0.369203 -0.918067 -0.445038
v 0.369203 0.226735 -0.999998
v 0.369203 0.918065 -0.445038
v -0.504595 -0.574899 0.278680
v -0.504595 -0.638099 0.000004
v -0.293206 -0.000001 0.000004
v -0.504595 0.397848 -0.502178
v -0.504595 0.574897 -0.278689
v -0.504595 0.141990 -0.626205
v -0.504595 -0.141993 -0.626205
v -0.504595 -0.397850 -0.502178
v -0.504595 -0.574899 -0.278689
v -0.504595 0.638097 0.000004
v -0.504595 -0.397850 0.502169
v -0.504595 -0.141993 0.626213
v -0.504595 0.141990 0.626213
v -0.504595 0.397848 0.502169
v -0.504595 0.574897 0.278680
vn 0.5416 0.1881 -0.8193
vn -0.5416 -0.1880 -0.8193
vn -0.5416 0.1880 -0.8193
vn 0.5413 0.7584 0.3632
vn -0.5413 0.8408 -0.0000
vn -0.5414 0.7583 0.3631
vn 0.5415 0.5260 0.6559
vn -0.5415 0.5260 0.6558
vn 0.5416 0.1881 0.8193
vn -0.5416 0.1881 0.8193
vn 0.5416 -0.1881 0.8193
vn -0.5416 -0.1881 0.8193
vn 0.5415 -0.5260 0.6559
vn -0.5415 -0.5260 0.6558
vn 0.5413 -0.7584 0.3632
vn -0.5414 -0.7583 0.3631
vn 0.5412 -0.8409 -0.0000
vn -0.5413 -0.8408 -0.0000
vn 0.5413 -0.7584 -0.3631
vn -0.5414 -0.7583 -0.3631
vn 0.5415 -0.5260 -0.6559
vn -0.5415 -0.5260 -0.6558
vn 0.5416 -0.1881 -0.8193
vn 0.5412 0.8409 -0.0000
vn 0.5415 0.5260 -0.6559
vn -0.5415 0.5260 -0.6558
vn 0.5413 0.7584 -0.3632
vn -0.5414 0.7583 -0.3631
vn 0.9984 -0.0513 -0.0243
vn 1.0000 -0.0000 -0.0000
vn 0.9984 -0.0568 -0.0000
vn 0.9984 0.0359 0.0442
vn 0.9984 0.0514 0.0243
vn 0.9984 0.0129 0.0555
vn 0.9984 -0.0129 0.0555
vn 0.9984 -0.0359 0.0442
vn 0.9984 -0.0513 0.0243
vn 0.9984 0.0568 -0.0000
vn 0.9984 -0.0359 -0.0442
vn 0.9984 -0.0129 -0.0555
vn 0.9984 0.0129 -0.0555
vn 0.9984 0.0359 -0.0442
vn 0.9984 0.0513 -0.0243
vn -0.9984 -0.0513 0.0243
vn -1.0000 -0.0000 -0.0000
vn -0.9984 -0.0567 -0.0000
vn -0.9984 0.0358 -0.0442
vn -0.9984 0.0513 -0.0243
vn -0.9984 0.0129 -0.0555
vn -0.9984 -0.0129 -0.0555
vn -0.9984 -0.0358 -0.0442
vn -0.9984 -0.0513 -0.0243
vn -0.9984 0.0567 -0.0000
vn -0.9984 -0.0358 0.0441
vn -0.9984 -0.0129 0.0555
vn -0.9984 0.0129 0.0555
vn -0.9984 0.0358 0.0442
vn -0.9984 0.0513 0.0243
vt 0.351888 0.500303
vt 0.269535 0.375428
vt 0.351888 0.375428
vt 0.420555 0.500303
vt 0.341961 0.375428
vt 0.420555 0.375428
vt 0.295555 0.500303
vt 0.295555 0.375428
vt 0.375454 0.500303
vt 0.375454 0.375428
vt 0.250454 0.500303
vt 0.250454 0.375428
vt 0.332035 0.500303
vt 0.332035 0.375428
vt 0.414388 0.500303
vt 0.414388 0.375428
vt 0.289388 0.500303
vt 0.289388 0.375428
vt 0.370969 0.500303
vt 0.370969 0.375428
vt 0.450868 0.500303
vt 0.450868 0.375428
vt 0.325868 0.500303
vt 0.325868 0.375428
vt 0.404461 0.500303
vt 0.404461 0.375428
vt 0.279461 0.500303
vt 0.279461 0.375428
vt 0.358055 0.500303
vt 0.358055 0.375428
vt 0.437954 0.500303
vt 0.437954 0.375428
vt 0.312954 0.500303
vt 0.312954 0.375428
vt 0.394535 0.500303
vt 0.394535 0.375428
vt 0.269535 0.500303
vt 0.341961 0.500303
vt 0.433469 0.500303
vt 0.433469 0.375428
vt 0.308469 0.500303
vt 0.308469 0.375428
vt 0.388368 0.500303
vt 0.388368 0.375428
vt 0.263368 0.500303
vt 0.263368 0.375428
vt 0.553007 0.340200
vt 0.623462 0.375000
vt 0.545265 0.375000
vt 0.672217 0.437710
vt 0.693915 0.409800
vt 0.640862 0.453197
vt 0.606062 0.453197
vt 0.574707 0.437710
vt 0.553007 0.409800
vt 0.701660 0.375000
vt 0.574707 0.312290
vt 0.606062 0.296802
vt 0.640862 0.296802
vt 0.672217 0.312290
vt 0.693915 0.340200
vt 0.749875 0.375000
vt 0.737508 0.430575
vt 0.702857 0.475142
vt 0.652788 0.499875
vt 0.597212 0.499875
vt 0.547143 0.475142
vt 0.512493 0.430575
vt 0.500125 0.375000
vt 0.512493 0.319425
vt 0.547143 0.274857
vt 0.597212 0.250125
vt 0.652788 0.250125
vt 0.702857 0.274857
vt 0.737508 0.319425
s 1
usemtl material_2
f 42/1/1 2/2/2 1/3/3
f 3/4/4 5/5/5 4/6/6
f 3/7/4 4/8/6 36/9/7
f 36/9/7 4/8/6 6/10/8
f 36/11/7 6/12/8 37/13/9
f 37/13/9 6/12/8 7/14/10
f 37/13/9 7/14/10 38/15/11
f 38/15/11 7/14/10 8/16/12
f 38/17/11 8/18/12 9/19/13
f 9/19/13 8/18/12 10/20/14
f 9/19/13 10/20/14 39/21/15
f 39/21/15 10/20/14 11/22/16
f 39/23/15 11/24/16 40/25/17
f 40/25/17 11/24/16 12/26/18
f 40/27/17 12/28/18 41/29/19
f 41/29/19 12/28/18 13/30/20
f 41/29/19 13/30/20 14/31/21
f 14/31/21 13/30/20 15/32/22
f 14/33/21 15/34/22 16/35/23
f 16/35/23 15/34/22 2/36/2
f 16/37/23 2/2/2 42/1/1
f 17/38/24 5/5/5 3/4/4
f 42/1/1 1/3/3 18/39/25
f 18/39/25 1/3/3 19/40/26
f 18/41/25 19/42/26 43/43/27
f 43/43/27 19/42/26 20/44/28
f 43/45/27 20/46/28 17/38/24
f 17/38/24 20/46/28 5/5/5
usemtl material_3
f 21/47/29 23/48/30 22/49/31
f 24/50/32 23/48/30 25/51/33
f 26/52/34 23/48/30 24/50/32
f 27/53/35 23/48/30 26/52/34
f 28/54/36 23/48/30 27/53/35
f 29/55/37 23/48/30 28/54/36
f 22/49/31 23/48/30 29/55/37
f 25/51/33 23/48/30 30/56/38
f 31/57/39 23/48/30 21/47/29
f 32/58/40 23/48/30 31/57/39
f 33/59/41 23/48/30 32/58/40
f 34/60/42 23/48/30 33/59/41
f 35/61/43 23/48/30 34/60/42
f 30/56/38 23/48/30 35/61/43
f 25/51/33 17/62/24 3/63/4
f 17/62/24 25/51/33 30/56/38
f 24/50/32 3/63/4 36/64/7
f 3/63/4 24/50/32 25/51/33
f 26/52/34 36/64/7 37/65/9
f 36/64/7 26/52/34 24/50/32
f 27/53/35 37/65/9 38/66/11
f 37/65/9 27/53/35 26/52/34
f 28/54/36 38/66/11 9/67/13
f 38/66/11 28/54/36 27/53/35
f 29/55/37 9/67/13 39/68/15
f 9/67/13 29/55/37 28/54/36
f 22/49/31 39/68/15 40/69/17
f 39/68/15 22/49/31 29/55/37
f 21/47/29 40/69/17 41/70/19
f 40/69/17 21/47/29 22/49/31
f 31/57/39 41/70/19 14/71/21
f 41/70/19 31/57/39 21/47/29
f 32/58/40 14/71/21 16/72/23
f 14/71/21 32/58/40 31/57/39
f 33/59/41 16/72/23 42/73/1
f 16/72/23 33/59/41 32/58/40
f 34/60/42 42/73/1 18/74/25
f 42/73/1 34/60/42 33/59/41
f 35/61/43 18/74/25 43/75/27
f 18/74/25 35/61/43 34/60/42
f 30/56/38 43/75/27 17/62/24
f 43/75/27 30/56/38 35/61/43
f 44/47/44 46/48/45 45/49/46
f 47/50/47 46/48/45 48/51/48
f 49/52/49 46/48/45 47/50/47
f 50/53/50 46/48/45 49/52/49
f 51/54/51 46/48/45 50/53/50
f 52/55/52 46/48/45 51/54/51
f 45/49/46 46/48/45 52/55/52
f 48/51/48 46/48/45 53/56/53
f 54/57/54 46/48/45 44/47/44
f 55/58/55 46/48/45 54/57/54
f 56/59/56 46/48/45 55/58/55
f 57/60/57 46/48/45 56/59/56
f 58/61/58 46/48/45 57/60/57
f 53/56/53 46/48/45 58/61/58
f 48/51/48 5/62/5 20/63/28
f 5/62/5 48/51/48 53/56/53
f 47/50/47 20/63/28 19/64/26
f 20/63/28 47/50/47 48/51/48
f 49/52/49 19/64/26 1/65/3
f 19/64/26 49/52/49 47/50/47
f 50/53/50 1/65/3 2/66/2
f 1/65/3 50/53/50 49/52/49
f 51/54/51 2/66/2 15/67/22
f 2/66/2 51/54/51 50/53/50
f 52/55/52 15/67/22 13/68/20
f 15/67/22 52/55/52 51/54/51
f 45/49/46 13/68/20 12/69/18
f 13/68/20 45/49/46 52/55/52
f 44/47/44 12/69/18 11/70/16
f 12/69/18 44/47/44 45/49/46
f 54/57/54 11/70/16 10/71/14
f 11/70/16 54/57/54 44/47/44
f 55/58/55 10/71/14 8/72/12
f 10/71/14 55/58/55 54/57/54
f 56/59/56 8/72/12 7/73/10
f 8/72/12 56/59/56 55/58/55
f 57/60/57 7/73/10 6/74/8
f 7/73/10 57/60/57 56/59/56
f 58/61/58 6/74/8 4/75/6
f 6/74/8 58/61/58 57/60/57
f 53/56/53 4/75/6 5/62/5
f 4/75/6 53/56/53 58/61/58
