# Blender v3.0.1 OBJ File: ''
# www.blender.org
mtllib seat.mtl
o seat_seat.003
v -0.851768 0.423797 0.509458
v -0.889943 0.390981 0.559361
v -0.800640 0.412555 0.561008
v -0.901306 0.297075 0.591449
v -0.825860 0.317061 0.606981
v -0.749728 0.333283 0.590945
v -0.806038 0.398866 0.461384
v -0.732365 0.328513 0.519218
v -0.761814 0.311803 0.441556
v -0.887711 0.380122 0.467809
v -0.832946 0.291833 0.417867
v -0.897417 0.278651 0.435916
v -0.930755 0.280364 0.513786
v -0.833817 0.348778 0.511987
v 0.852656 1.380627 -0.011443
v 0.852656 1.409871 -0.284378
v 0.759112 1.692553 -0.245387
v 0.759112 1.692553 -0.167406
v 0.759112 1.624319 -0.069928
v 0.702751 -2.245512 -0.099174
v 0.852656 -1.875100 -0.196650
v 0.759112 -2.265007 0.154266
v 0.852656 -1.816613 0.027546
v 0.759112 -2.216269 0.212752
v 0.852656 -1.046547 -0.079678
v 0.852656 -1.046547 -0.235641
v 0.759112 -0.744368 -0.235641
v 0.759112 0.191409 -0.245388
v 0.852656 0.581317 -0.235640
v 0.852656 0.591064 -0.050434
v 0.852656 -1.728884 0.183509
v 0.653746 -2.148036 0.573605
v 0.759112 -1.826362 0.651398
v 0.759112 0.581317 0.505184
v 0.739732 -1.758128 0.700136
v 0.852656 -1.602165 0.261491
v 0.852656 -1.465697 0.300481
v 0.640910 -1.387715 0.904838
v 0.852656 -1.338978 0.290734
v 0.600285 -1.212258 0.953577
v 0.577421 -0.510425 0.953578
v 0.852656 -1.192762 0.222501
v 0.759112 1.682805 0.008053
v 0.759112 1.651522 0.100115
v 0.778693 1.501897 0.099538
v 0.746253 1.629235 0.084177
v 0.707353 1.534241 0.239977
v 0.775877 1.451303 0.194730
v 0.788736 1.473590 0.210669
v 0.720212 1.556527 0.255915
v 0.759112 1.400122 0.358970
v 0.852656 1.185673 0.271240
v 0.852656 1.302646 0.164015
v 0.759112 0.912738 0.436951
v 0.852656 1.019962 0.290735
v 0.852656 0.893242 0.280988
v 0.852656 0.766523 0.232249
v 0.852656 0.639803 0.095782
v 0.600285 -0.159508 0.934082
v 0.535271 0.171022 0.776077
v 0.852656 -1.075790 0.076285
v 0.299993 1.454897 -0.284377
v 0.267242 1.839054 -0.245387
v 0.299993 1.424828 -0.011443
v 0.267242 1.839054 -0.167406
v 0.267242 1.768893 -0.069928
v 0.299993 -1.922852 -0.196650
v 0.299993 -1.862714 0.027546
v 0.247508 -2.303726 -0.099174
v 0.267242 -2.323773 0.154266
v 0.267242 -2.273657 0.212752
v 0.299993 -1.070897 -0.235641
v 0.267242 -0.760185 -0.235641
v 0.299993 -1.070897 -0.079678
v 0.299993 0.602942 -0.235639
v 0.299993 0.612965 -0.050434
v 0.267242 0.202023 -0.245388
v 0.299993 -1.772507 0.183509
v 0.230352 -2.203497 0.622154
v 0.267242 -1.872738 0.651398
v 0.299993 -1.642208 0.261491
v 0.260457 -1.802577 0.700136
v 0.299993 -1.501886 0.300481
v 0.225858 -1.421703 0.904838
v 0.299993 -1.371587 0.290734
v 0.211634 -1.241289 0.979655
v 0.203629 -0.519634 0.979656
v 0.299993 -1.221242 0.222501
v 0.299993 -1.100966 0.076285
v 0.267242 1.829031 0.008053
v 0.267242 1.819008 0.076287
v 0.417022 1.755389 0.103637
v 0.262900 1.668660 0.290735
v 0.653240 1.559247 0.233918
v 0.299993 1.344643 0.164015
v 0.523711 1.637383 0.228155
v 0.262900 1.570000 0.335000
v 0.299993 1.224367 0.271240
v 0.339061 1.425250 0.374731
v 0.267242 1.519058 0.359837
v 0.149603 1.093652 0.434351
v 0.267242 1.037214 0.436951
v 0.299993 1.053977 0.290735
v 0.299993 0.923678 0.280988
v 0.267242 0.696433 0.505184
v 0.299993 0.793379 0.232249
v 0.299993 0.663080 0.095782
v 0.211634 -0.065315 0.960161
v 0.188872 0.274551 0.776077
v -0.848147 -1.875100 -0.196650
v -0.754603 -2.265007 0.154266
v -0.848147 -1.816613 0.027546
v -0.698240 -2.245512 -0.099174
v -0.754603 -2.216269 0.212752
v -0.848147 -1.046547 -0.235641
v -0.848147 -1.046547 -0.079678
v -0.754603 -0.744368 -0.235641
v -0.848147 0.581317 -0.235640
v -0.754603 0.191409 -0.245388
v -0.848147 0.591064 -0.050434
v -0.848147 -1.728884 0.183509
v -0.848147 -1.602164 0.261491
v -0.754603 -1.826362 0.651398
v -0.649237 -2.148036 0.573604
v -0.848147 -1.465697 0.300481
v -0.848147 -1.338978 0.290734
v -0.735221 -1.758128 0.700136
v -0.754603 0.581317 0.505184
v -0.636399 -1.387717 0.904838
v -0.595775 -1.212258 0.953577
v -0.848147 -1.192762 0.222501
v -0.848147 -1.075790 0.076285
v -0.754770 1.400122 0.358970
v -0.848316 1.185673 0.271240
v -0.759112 0.912738 0.436951
v -0.848147 1.019962 0.290735
v -0.848147 0.893243 0.280988
v -0.848147 0.766523 0.232249
v -0.848147 0.639803 0.095782
v -0.572912 -0.510425 0.953578
v -0.595775 -0.159508 0.934082
v -0.530761 0.171022 0.776077
v -0.295483 1.454897 -0.284377
v -0.848315 1.409871 -0.284378
v -0.262900 1.839054 -0.245387
v -0.754770 1.692553 -0.245387
v -0.295483 1.424828 -0.011443
v -0.848316 1.380627 -0.011443
v -0.295484 -1.922852 -0.196650
v -0.295484 -1.862714 0.027546
v -0.242999 -2.303726 -0.099174
v -0.262733 -2.323771 0.154266
v -0.262733 -2.273657 0.212752
v -0.295484 -1.070897 -0.235641
v -0.262733 -0.760185 -0.235641
v -0.295484 -1.070897 -0.079678
v -0.295483 0.602942 -0.235639
v -0.295483 0.612965 -0.050434
v -0.262733 0.202023 -0.245388
v -0.295484 -1.772507 0.183509
v -0.225843 -2.203497 0.622154
v -0.262733 -1.872738 0.651398
v -0.295484 -1.642208 0.261491
v -0.255946 -1.802577 0.700136
v -0.295484 -1.501886 0.300481
v -0.221347 -1.421703 0.904838
v -0.295484 -1.371587 0.290734
v -0.207124 -1.241289 0.979655
v -0.199119 -0.519634 0.979656
v -0.295484 -1.221242 0.222501
v -0.295484 -1.100966 0.076285
v -0.295483 1.344643 0.164015
v -0.848316 1.302646 0.164015
v -0.295483 1.224368 0.271240
v -0.262900 1.519058 0.359837
v -0.339061 1.425250 0.374731
v -0.149603 1.093650 0.434351
v -0.267242 1.037210 0.436951
v -0.295483 1.053977 0.290735
v -0.295483 0.923677 0.280988
v -0.262733 0.696433 0.505184
v -0.295483 0.793379 0.232249
v -0.295483 0.663080 0.095782
v -0.207124 -0.065315 0.960161
v -0.184362 0.274551 0.776077
v -0.262900 1.570000 0.335000
v -0.262900 1.668660 0.290735
v -0.262900 1.819008 0.076287
v -0.262900 1.829031 0.008053
v -0.262900 1.768893 -0.069928
v -0.262900 1.839054 -0.167406
v 0.791551 1.524185 0.115476
v 0.445456 1.681902 0.196424
v 0.404163 1.733102 0.087700
v 0.432597 1.659615 0.180486
v 0.510853 1.615097 0.212217
v 0.666097 1.581534 0.249855
v -0.754939 1.692553 -0.167406
v -0.754939 1.624318 -0.069928
v -0.754939 1.682804 0.008053
v -0.754939 1.651522 0.100115
v -0.742080 1.629235 0.084177
v -0.774520 1.501897 0.099538
v -0.703181 1.534239 0.239977
v -0.771706 1.451303 0.194730
v -0.716040 1.556526 0.255915
v -0.784564 1.473590 0.210669
v -0.412849 1.755389 0.103637
v -0.649067 1.559246 0.233918
v -0.519540 1.637383 0.228155
v -0.787379 1.524184 0.115476
v -0.441283 1.681901 0.196424
v -0.399991 1.733102 0.087700
v -0.428425 1.659614 0.180486
v -0.506681 1.615095 0.212217
v -0.661926 1.581533 0.249855
v 0.799325 0.412555 0.561008
v 0.888628 0.390981 0.559361
v 0.850453 0.423797 0.509458
v 0.824546 0.317061 0.606981
v 0.899991 0.297075 0.591449
v 0.748414 0.333283 0.590945
v 0.804723 0.398866 0.461384
v 0.731051 0.328513 0.519218
v 0.760499 0.311803 0.441556
v 0.886396 0.380122 0.467809
v 0.831631 0.291833 0.417867
v 0.896103 0.278651 0.435916
v 0.929440 0.280364 0.513786
v 0.832502 0.348778 0.511987
v 0.488552 -1.815882 0.848166
v 0.613469 -2.105678 0.837963
v 0.591914 -1.816065 0.813373
v 0.487765 -2.105377 0.865825
v 0.559784 -2.105437 0.794733
v 0.486720 -2.105374 0.827010
v 0.668699 -2.105753 0.667218
v 0.640283 -1.816115 0.682125
v 0.608700 -2.105465 0.698635
v 0.612773 -2.105687 0.571383
v 0.583507 -1.816047 0.569831
v 0.551072 -2.105396 0.569883
v -0.488497 -1.815882 0.848166
v -0.591859 -1.816065 0.813373
v -0.613413 -2.105678 0.837963
v -0.487710 -2.105377 0.865825
v -0.559729 -2.105437 0.794733
v -0.486664 -2.105374 0.827010
v -0.640228 -1.816115 0.682125
v -0.668644 -2.105753 0.667218
v -0.608643 -2.105465 0.698635
v -0.583451 -1.816047 0.569831
v -0.612718 -2.105687 0.571383
v -0.551016 -2.105396 0.569883
v -0.476754 -1.913828 -0.023189
v -0.476755 -0.994193 -0.134099
v -0.338628 -0.994193 -0.134099
v -0.338628 -1.913828 -0.023189
v -0.338628 -1.099277 0.312187
v -0.338628 -1.734364 0.312187
v -0.476754 -1.734364 0.312187
v -0.476755 -1.099277 0.312187
v 0.338531 0.534469 -0.107046
v 0.338531 1.554677 -0.213857
v 0.476657 1.554677 -0.213857
v 0.476657 0.534469 -0.107046
v 0.476657 1.346420 0.308655
v 0.476657 0.740395 0.350514
v 0.338531 0.740395 0.350514
v 0.338531 1.346420 0.308655
v -0.476754 0.534469 -0.107046
v -0.476755 1.554677 -0.213857
v -0.338628 1.554677 -0.213857
v -0.338628 0.534469 -0.107046
v -0.338628 1.346420 0.308655
v -0.338628 0.740395 0.350514
v -0.476754 0.740395 0.350514
v -0.476755 1.346420 0.308655
v 0.338531 -1.913828 -0.023189
v 0.338531 -0.994193 -0.134099
v 0.476657 -0.994193 -0.134099
v 0.476657 -1.913828 -0.023189
v 0.476657 -1.099277 0.312187
v 0.476657 -1.734364 0.312187
v 0.338531 -1.734364 0.312187
v 0.338531 -1.099277 0.312187
v -0.421718 -2.161268 -0.155286
v -0.465128 -2.286729 -0.111876
v -0.483111 -2.286729 -0.155286
v -0.421718 -2.286729 -0.093894
v -0.378306 -2.286728 -0.111876
v -0.360325 -2.286728 -0.155286
v -0.378306 -2.286728 -0.198698
v -0.421718 -2.286729 -0.216679
v -0.465128 -2.286729 -0.198698
v -0.465128 -1.921472 -0.074702
v -0.483111 -1.921472 -0.118113
v -0.421718 -1.921472 -0.056720
v -0.378306 -1.921472 -0.074702
v -0.360324 -1.921472 -0.118113
v -0.378306 -1.921472 -0.161524
v -0.421718 -1.921472 -0.179506
v -0.465128 -1.921472 -0.161524
v 0.757899 0.951611 -0.163715
v 0.168163 0.982811 -0.109676
v 0.168163 0.951611 -0.163715
v 0.757899 0.982811 -0.109676
v 0.168163 1.045210 -0.109676
v 0.757899 1.045210 -0.109676
v 0.168163 1.076410 -0.163715
v 0.757899 1.076410 -0.163715
v 0.168163 1.045210 -0.217754
v 0.757899 1.045210 -0.217754
v 0.168163 0.982811 -0.217754
v 0.757899 0.982811 -0.217754
v 0.149540 0.935699 -0.028076
v 0.149540 0.857389 -0.163715
v 0.149540 1.092322 -0.028076
v 0.149540 1.170633 -0.163715
v 0.149540 1.092322 -0.299353
v 0.149540 0.935699 -0.299353
v -0.151818 0.935699 -0.028076
v -0.151818 0.857389 -0.163715
v -0.151818 1.092322 -0.028076
v -0.151818 1.170633 -0.163715
v -0.151818 1.092322 -0.299353
v -0.151818 0.935699 -0.299353
v -0.170441 0.982811 -0.109676
v -0.170441 0.951611 -0.163715
v -0.170441 1.045210 -0.109676
v -0.170441 1.076410 -0.163715
v -0.170441 1.045210 -0.217754
v -0.170441 0.982811 -0.217754
v -0.760177 0.982811 -0.109676
v -0.760177 0.951611 -0.163715
v -0.760177 1.045210 -0.109676
v -0.760177 1.076410 -0.163715
v -0.760177 1.045210 -0.217754
v -0.760177 0.982811 -0.217754
v -0.073688 -1.471660 -0.133407
v -0.037196 -1.175876 -0.205416
v -0.073688 -1.188477 -0.267354
v -0.037196 -1.445951 -0.075664
v 0.035789 -1.175876 -0.205416
v 0.035789 -1.445951 -0.075664
v 0.072283 -1.188477 -0.267354
v 0.072283 -1.471660 -0.133407
v 0.035789 -1.201079 -0.329292
v 0.035789 -1.497369 -0.191150
v -0.037196 -1.201079 -0.329292
v -0.037196 -1.497369 -0.191150
v -0.037196 0.686058 -0.205528
v -0.073688 0.699199 -0.267353
v 0.035790 0.686058 -0.205528
v 0.072283 0.699199 -0.267353
v 0.035790 0.712341 -0.329179
v -0.037196 0.712341 -0.329179
v -0.037196 0.966100 -0.079513
v -0.073688 0.999125 -0.133405
v 0.035790 0.966100 -0.079513
v 0.072283 0.999125 -0.133405
v 0.035789 1.032152 -0.187298
v -0.037196 1.032152 -0.187298
v 0.757899 -1.532060 -0.163716
v 0.168163 -1.500859 -0.109677
v 0.168163 -1.532060 -0.163716
v 0.757899 -1.500859 -0.109677
v 0.168163 -1.438460 -0.109677
v 0.757899 -1.438460 -0.109677
v 0.168163 -1.407260 -0.163716
v 0.757899 -1.407260 -0.163716
v 0.168163 -1.438460 -0.217755
v 0.757899 -1.438460 -0.217755
v 0.168163 -1.500859 -0.217755
v 0.757899 -1.500859 -0.217755
v 0.149540 -1.547970 -0.028077
v 0.149540 -1.626282 -0.163716
v 0.149540 -1.391349 -0.028077
v 0.149540 -1.313038 -0.163716
v 0.149540 -1.391348 -0.299355
v 0.149540 -1.547970 -0.299355
v -0.151818 -1.547970 -0.028077
v -0.151818 -1.626282 -0.163716
v -0.151818 -1.391349 -0.028077
v -0.151818 -1.313038 -0.163716
v -0.151818 -1.391348 -0.299355
v -0.151818 -1.547970 -0.299355
v -0.170441 -1.500859 -0.109677
v -0.170441 -1.532060 -0.163716
v -0.170441 -1.438460 -0.109677
v -0.170441 -1.407260 -0.163716
v -0.170441 -1.438460 -0.217755
v -0.170441 -1.500859 -0.217755
v -0.760177 -1.500859 -0.109677
v -0.760177 -1.532060 -0.163716
v -0.760177 -1.438460 -0.109677
v -0.760177 -1.407260 -0.163716
v -0.760177 -1.438460 -0.217755
v -0.760177 -1.500859 -0.217755
vt 0.437679 0.633249
vt 0.429552 0.643873
vt 0.448563 0.644224
vt 0.427133 0.650704
vt 0.443194 0.654011
vt 0.459402 0.650597
vt 0.447414 0.623015
vt 0.452003 0.635779
vt 0.456365 0.645965
vt 0.456111 0.638374
vt 0.453238 0.623177
vt 0.458628 0.625960
vt 0.430027 0.624383
vt 0.456829 0.618794
vt 0.441686 0.613751
vt 0.427961 0.617593
vt 0.420864 0.634171
vt 0.413498 0.624674
vt 0.410210 0.645811
vt 0.393388 0.626903
vt 0.410103 0.603346
vt 0.394919 0.598481
vt 0.378478 0.606731
vt 0.373464 0.626659
vt 0.377284 0.644721
vt 0.393769 0.654061
vt 0.001668 0.591503
vt 0.001226 0.525046
vt 0.026878 0.518166
vt 0.026905 0.535749
vt 0.026938 0.559284
vt 0.937219 0.650729
vt 0.987345 0.666714
vt 0.943173 0.684306
vt 0.987703 0.688617
vt 0.942894 0.698908
vt 0.234376 0.048914
vt 0.239089 0.010643
vt 0.307831 0.009429
vt 0.539991 0.006117
vt 0.637782 0.005348
vt 0.644639 0.052603
vt 0.981223 0.712579
vt 0.934595 0.769976
vt 0.943085 0.766660
vt -0.003810 0.218084
vt 0.640425 0.192257
vt 0.022325 0.233970
vt 0.987251 0.726229
vt 0.065950 0.142002
vt 0.109145 0.147644
vt 0.139250 0.292934
vt 0.158906 0.149688
vt 0.189865 0.313106
vt 0.378371 0.312413
vt 0.198014 0.123595
vt 0.026737 0.586090
vt 0.025771 0.602155
vt 0.025294 0.605252
vt 0.029315 0.604317
vt 0.030693 0.623357
vt 0.019912 0.618692
vt 0.021017 0.626057
vt 0.046480 0.630437
vt 0.030199 0.629700
vt 0.007213 0.632399
vt 0.006252 0.626192
vt 0.046725 0.636051
vt 0.007684 0.636151
vt 0.752659 0.142176
vt 0.790666 0.124935
vt 0.776901 0.175701
vt 0.713536 0.143724
vt 0.682945 0.128153
vt 0.656786 0.087941
vt 0.470426 0.302723
vt 0.055207 0.952160
vt 0.050773 0.992176
vt -0.000989 0.847907
vt 0.225137 0.089115
vt 0.290035 0.441819
vt 0.291242 0.407305
vt 0.306487 0.405031
vt 0.301163 0.435692
vt 0.279302 0.441108
vt 0.280420 0.406945
vt 0.113961 0.514935
vt 0.117630 0.535763
vt 0.117670 0.559464
vt 0.105804 0.441820
vt 0.104382 0.407209
vt 0.113567 0.406930
vt 0.114896 0.441244
vt 0.090803 0.432097
vt 0.088814 0.403734
vt 0.857519 0.684264
vt 0.853580 0.651656
vt 0.848282 0.698031
vt 0.164417 0.440756
vt 0.163632 0.406751
vt 0.175706 0.404808
vt 0.176266 0.435084
vt 0.158289 0.441092
vt 0.157566 0.406903
vt 0.228053 0.440788
vt 0.228763 0.406801
vt 0.235978 0.406957
vt 0.235329 0.441119
vt 0.212794 0.435117
vt 0.213179 0.404842
vt 0.120619 0.406824
vt 0.121922 0.441018
vt 0.842211 0.779676
vt 0.972435 0.832367
vt 0.859044 0.848245
vt 0.882855 0.810911
vt 0.976374 0.810470
vt 0.126548 0.406859
vt 0.127770 0.441074
vt 0.966985 0.851733
vt 0.858897 0.862292
vt 0.132248 0.406920
vt 0.133349 0.441186
vt 0.931435 0.969116
vt 0.856276 0.954001
vt 0.137378 0.406981
vt 0.138346 0.441299
vt 0.922380 0.985101
vt 0.852263 0.991497
vt 0.365352 0.808376
vt 0.446539 0.808693
vt 0.444917 0.992140
vt 0.366144 0.986256
vt 0.143879 0.407033
vt 0.144689 0.441390
vt 0.151336 0.407014
vt 0.152052 0.441335
vt 0.117670 0.585456
vt 0.117590 0.595163
vt 0.100994 0.603084
vt 0.117696 0.629350
vt 0.041513 0.628886
vt 0.271783 0.440879
vt 0.272915 0.406829
vt 0.074071 0.625609
vt 0.117318 0.629354
vt 0.265559 0.440900
vt 0.266665 0.406840
vt 0.086643 0.701989
vt 0.101900 0.687784
vt 0.133176 0.755268
vt 0.111139 0.763684
vt 0.005123 0.783551
vt 0.000659 0.699124
vt 0.259015 0.441072
vt 0.259992 0.406927
vt 0.254025 0.441195
vt 0.254888 0.406988
vt 0.111749 0.846412
vt 0.008801 0.845852
vt 0.248694 0.441291
vt 0.249436 0.407036
vt 0.241381 0.441279
vt 0.242031 0.407032
vt 0.366144 0.749653
vt 0.444917 0.730561
vt 0.123078 0.950625
vt 0.130204 0.999128
vt 0.118405 0.849860
vt 0.620387 0.662605
vt 0.666715 0.687082
vt 0.620216 0.694391
vt 0.674297 0.651214
vt 0.666737 0.701028
vt 0.763809 0.329353
vt 0.771115 0.373133
vt 0.693907 0.329572
vt 0.365740 0.326266
vt 0.469056 0.324881
vt 0.359796 0.370165
vt 0.627786 0.710572
vt 0.622473 0.730801
vt 0.666582 0.768787
vt 0.676284 0.771519
vt 0.999670 0.536006
vt 0.891080 0.466308
vt 0.916489 0.455573
vt 0.850170 0.467314
vt 0.975630 0.552323
vt 0.372142 0.512424
vt 0.858262 0.615461
vt 0.807892 0.629095
vt 0.809152 0.446708
vt 0.778966 0.416659
vt 0.309835 0.635954
vt 0.344240 0.634949
vt 0.342794 0.637682
vt 0.215730 0.450148
vt 0.252815 0.460421
vt 0.226104 0.486792
vt 0.287489 0.462689
vt 0.319228 0.449040
vt 0.350836 0.407898
vt 0.623757 0.632263
vt 0.529749 0.618635
vt 0.299437 0.951944
vt 0.356600 0.841559
vt 0.300912 0.989988
vt 0.291252 0.369924
vt 0.290052 0.335400
vt 0.306496 0.372188
vt 0.301178 0.341531
vt 0.280429 0.370273
vt 0.279322 0.336103
vt 0.104384 0.369754
vt 0.105829 0.335134
vt 0.113573 0.370043
vt 0.114923 0.335723
vt 0.088808 0.373202
vt 0.090817 0.344835
vt 0.749843 0.684160
vt 0.754665 0.651366
vt 0.759148 0.698835
vt 0.163643 0.370295
vt 0.164451 0.336291
vt 0.175716 0.372261
vt 0.176297 0.341985
vt 0.157577 0.370133
vt 0.158323 0.335944
vt 0.228775 0.370350
vt 0.228085 0.336366
vt 0.235989 0.370205
vt 0.235361 0.336046
vt 0.213190 0.372287
vt 0.212825 0.342013
vt 0.120627 0.370157
vt 0.121950 0.335959
vt 0.765815 0.780251
vt 0.760592 0.848217
vt 0.646877 0.833251
vt 0.738398 0.809340
vt 0.639940 0.807612
vt 0.126557 0.370131
vt 0.127800 0.335912
vt 0.760669 0.862507
vt 0.651847 0.852325
vt 0.132258 0.370078
vt 0.133380 0.335809
vt 0.766355 0.953975
vt 0.687887 0.965591
vt 0.137388 0.370024
vt 0.138377 0.335704
vt 0.767568 0.990699
vt 0.696713 0.985255
vt 0.528169 0.808693
vt 0.607807 0.808376
vt 0.529792 0.992140
vt 0.608565 0.986256
vt 0.143889 0.369982
vt 0.144722 0.335623
vt 0.151347 0.370012
vt 0.152086 0.335690
vt 0.272924 0.370381
vt 0.271806 0.336325
vt 0.266674 0.370363
vt 0.265583 0.336298
vt 0.251906 0.689183
vt 0.269721 0.701478
vt 0.219568 0.754496
vt 0.340650 0.781515
vt 0.240853 0.762200
vt 0.348679 0.695521
vt 0.260002 0.370269
vt 0.259041 0.336128
vt 0.254898 0.370201
vt 0.254053 0.335998
vt 0.241192 0.844451
vt 0.332777 0.839334
vt 0.249446 0.370145
vt 0.248723 0.335894
vt 0.242041 0.370139
vt 0.241412 0.335896
vt 0.529792 0.730561
vt 0.608565 0.749653
vt 0.234485 0.949398
vt 0.228463 0.997663
vt 0.239158 0.849860
vt 0.240080 0.630237
vt 0.239805 0.629279
vt 0.240363 0.593627
vt 0.240326 0.584594
vt 0.239423 0.559150
vt 0.239516 0.535604
vt 0.243053 0.515791
vt 0.019646 0.604625
vt 0.100936 0.616532
vt 0.100637 0.600683
vt 0.097464 0.614577
vt 0.089187 0.620514
vt 0.053888 0.629519
vt 0.355008 0.527954
vt 0.351053 0.593874
vt 0.330266 0.523235
vt 0.329713 0.536697
vt 0.328585 0.559530
vt 0.328264 0.586390
vt 0.328192 0.598810
vt 0.322192 0.602261
vt 0.336119 0.614479
vt 0.320354 0.622467
vt 0.324836 0.626314
vt 0.309760 0.627213
vt 0.331647 0.624895
vt 0.309835 0.635179
vt 0.346370 0.624010
vt 0.255067 0.602448
vt 0.305967 0.627422
vt 0.283471 0.625693
vt 0.335209 0.602865
vt 0.256203 0.616374
vt 0.255321 0.600314
vt 0.257916 0.614666
vt 0.268305 0.622072
vt 0.301966 0.627943
vt 0.070165 0.626586
vt 0.336119 0.614479
vt 0.334265 0.620832
vt 0.095974 0.678543
vt 0.256434 0.678971
vt 0.437096 0.641686
vt 0.458103 0.641298
vt 0.449123 0.629559
vt 0.443029 0.652500
vt 0.460777 0.648847
vt 0.425120 0.648728
vt 0.438366 0.618250
vt 0.421035 0.631855
vt 0.427963 0.613586
vt 0.457578 0.619761
vt 0.444696 0.608013
vt 0.459862 0.612259
vt 0.467704 0.630577
vt 0.392936 0.624977
vt 0.409838 0.606422
vt 0.413142 0.627164
vt 0.409731 0.648095
vt 0.394474 0.652869
vt 0.377954 0.644772
vt 0.372915 0.625216
vt 0.376754 0.607491
vt 0.393318 0.598325
vt 0.559631 0.711892
vt 0.580153 0.668541
vt 0.576612 0.711865
vt 0.559502 0.668586
vt 0.571333 0.668577
vt 0.559330 0.668586
vt 0.589226 0.668530
vt 0.584558 0.711857
vt 0.579369 0.668573
vt 0.580039 0.668539
vt 0.575231 0.711867
vt 0.569902 0.668583
vt 0.399118 0.711892
vt 0.382138 0.711865
vt 0.378597 0.668541
vt 0.399248 0.668586
vt 0.387416 0.668577
vt 0.399419 0.668586
vt 0.374191 0.711857
vt 0.369523 0.668530
vt 0.379380 0.668573
vt 0.383519 0.711867
vt 0.378711 0.668539
vt 0.388848 0.668583
vt 0.490995 0.657425
vt 0.491107 0.617548
vt 0.496538 0.617566
vt 0.496426 0.657443
vt 0.502343 0.654786
vt 0.502329 0.618365
vt 0.519258 0.624562
vt 0.516278 0.649354
vt 0.490813 0.617130
vt 0.490799 0.653551
vt 0.476865 0.648119
vt 0.473884 0.623327
vt 0.501798 0.617130
vt 0.501922 0.657461
vt 0.496491 0.657478
vt 0.496367 0.617147
vt 0.502611 0.653878
vt 0.502611 0.617834
vt 0.520109 0.627024
vt 0.519355 0.648356
vt 0.491412 0.617185
vt 0.491412 0.651440
vt 0.475499 0.646192
vt 0.474782 0.625919
vt 0.490813 0.657461
vt 0.490937 0.617130
vt 0.496367 0.617147
vt 0.496244 0.657478
vt 0.502397 0.652620
vt 0.502396 0.620944
vt 0.517774 0.629020
vt 0.517111 0.647767
vt 0.490734 0.617845
vt 0.490734 0.652015
vt 0.474860 0.646780
vt 0.474145 0.626557
vt 0.501969 0.617548
vt 0.502080 0.657425
vt 0.496649 0.657443
vt 0.496538 0.617566
vt 0.502209 0.654477
vt 0.502195 0.618056
vt 0.519124 0.624253
vt 0.516143 0.649045
vt 0.491210 0.617130
vt 0.491196 0.653551
vt 0.477262 0.648119
vt 0.474281 0.623327
vt 0.381169 0.576803
vt 0.375672 0.590074
vt 0.367897 0.582300
vt 0.386666 0.590074
vt 0.394440 0.582300
vt 0.394440 0.571305
vt 0.386666 0.563531
vt 0.375671 0.563531
vt 0.367897 0.571305
vt 0.365980 0.651061
vt 0.355158 0.564110
vt 0.366103 0.565154
vt 0.355035 0.650017
vt 0.357436 0.564589
vt 0.365330 0.650913
vt 0.357533 0.650496
vt 0.365233 0.565006
vt 0.355960 0.564427
vt 0.367043 0.649895
vt 0.356057 0.650333
vt 0.366946 0.563988
vt 0.358832 0.564568
vt 0.366668 0.649437
vt 0.358929 0.650474
vt 0.366571 0.563531
vt 0.367897 0.649437
vt 0.356830 0.564575
vt 0.367775 0.563531
vt 0.356952 0.650481
vt 0.366530 0.649916
vt 0.358830 0.564427
vt 0.366627 0.564009
vt 0.358733 0.650333
vt 0.368006 0.650913
vt 0.357117 0.564568
vt 0.368103 0.565006
vt 0.357020 0.650475
vt 0.365134 0.649895
vt 0.357492 0.562951
vt 0.365231 0.563988
vt 0.357395 0.648858
vt 0.007845 0.323575
vt 0.046559 0.321527
vt 0.046559 0.323575
vt 0.007845 0.321527
vt 0.046559 0.317431
vt 0.007845 0.317431
vt 0.046559 0.315383
vt 0.007845 0.315383
vt 0.046559 0.317431
vt 0.007845 0.317431
vt 0.046559 0.321527
vt 0.007845 0.321527
vt 0.047781 0.324620
vt 0.047781 0.329761
vt 0.047781 0.314338
vt 0.047781 0.309198
vt 0.047781 0.314338
vt 0.047781 0.324620
vt 0.067564 0.324620
vt 0.067564 0.329761
vt 0.067564 0.314338
vt 0.067564 0.309198
vt 0.067564 0.314338
vt 0.067564 0.324620
vt 0.068787 0.321527
vt 0.068787 0.323575
vt 0.068787 0.317431
vt 0.068787 0.315383
vt 0.068787 0.317431
vt 0.068787 0.321527
vt 0.107500 0.321527
vt 0.107500 0.323575
vt 0.107500 0.317431
vt 0.107500 0.315383
vt 0.107500 0.317431
vt 0.107500 0.321527
vt 0.062435 0.482652
vt 0.060040 0.463235
vt 0.062435 0.464062
vt 0.060040 0.480964
vt 0.055249 0.463235
vt 0.055249 0.480964
vt 0.052853 0.464062
vt 0.052853 0.482652
vt 0.055249 0.464889
vt 0.055249 0.484340
vt 0.060040 0.464889
vt 0.060040 0.484340
vt 0.060040 0.341008
vt 0.062435 0.340145
vt 0.055248 0.341008
vt 0.052853 0.340145
vt 0.055248 0.339282
vt 0.060040 0.339282
vt 0.060040 0.322624
vt 0.062435 0.320456
vt 0.055248 0.322624
vt 0.052853 0.320456
vt 0.055249 0.318288
vt 0.060040 0.318288
vt 0.007845 0.486617
vt 0.046559 0.484569
vt 0.046559 0.486617
vt 0.007845 0.484569
vt 0.046559 0.480472
vt 0.007845 0.480472
vt 0.046559 0.478424
vt 0.007845 0.478424
vt 0.046559 0.480472
vt 0.007845 0.480472
vt 0.046559 0.484569
vt 0.007845 0.484569
vt 0.047781 0.487661
vt 0.047781 0.492802
vt 0.047781 0.477380
vt 0.047781 0.472239
vt 0.047781 0.477380
vt 0.047781 0.487661
vt 0.067564 0.487661
vt 0.067564 0.492802
vt 0.067564 0.477380
vt 0.067564 0.472239
vt 0.067564 0.477380
vt 0.067564 0.487661
vt 0.068787 0.484569
vt 0.068787 0.486617
vt 0.068787 0.480472
vt 0.068787 0.478424
vt 0.068787 0.480472
vt 0.068787 0.484569
vt 0.107500 0.484569
vt 0.107500 0.486617
vt 0.107500 0.480472
vt 0.107500 0.478424
vt 0.107500 0.480472
vt 0.107500 0.484569
vn -0.2256 0.9667 -0.1205
vn -0.6375 0.6069 0.4746
vn 0.3352 0.8258 0.4536
vn -0.3982 -0.6252 0.6712
vn 0.1360 -0.5937 0.7931
vn 0.6946 -0.3612 0.6222
vn 0.3216 0.7161 -0.6195
vn 0.8977 -0.4405 0.0035
vn 0.6742 -0.5351 -0.5090
vn -0.6335 0.5395 -0.5546
vn 0.1421 -0.6781 -0.7212
vn -0.3893 -0.7241 -0.5694
vn -0.6772 -0.7342 0.0481
vn 0.2064 -0.9719 0.1131
vn 0.8292 -0.5406 -0.1420
vn 0.6536 -0.4472 -0.6106
vn 0.5663 0.6105 -0.5537
vn 0.6469 0.7293 0.2227
vn 0.7689 0.6386 0.0316
vn 0.4220 -0.6897 -0.5884
vn 0.6295 0.3677 -0.6845
vn 0.6182 -0.7571 0.2112
vn 0.7841 0.5757 -0.2319
vn 0.7237 -0.5934 0.3523
vn 0.8462 -0.5314 -0.0397
vn 0.6747 -0.4749 -0.5651
vn 0.5854 0.0398 -0.8098
vn 0.6688 -0.0345 -0.7427
vn 0.6624 0.4837 -0.5720
vn 0.8396 0.5360 -0.0879
vn 0.8477 0.4013 -0.3469
vn 0.4561 -0.6539 0.6037
vn 0.7168 -0.2910 0.6337
vn 0.7224 0.1664 0.6712
vn 0.5927 -0.3150 0.7413
vn 0.8062 0.2182 -0.5499
vn 0.8344 0.0698 -0.5467
vn 0.5418 -0.2168 0.8121
vn 0.8358 -0.1773 -0.5196
vn 0.4819 -0.0672 0.8736
vn 0.5526 0.0277 0.8330
vn 0.8005 -0.3794 -0.4640
vn 0.6407 0.7568 -0.1294
vn 0.4576 0.3498 0.8175
vn -0.0738 0.5872 0.8061
vn -0.1189 0.0874 0.9890
vn 0.5149 0.7609 -0.3949
vn -0.0565 0.9966 -0.0600
vn 0.6868 0.7255 -0.0429
vn 0.5091 0.8605 0.0180
vn 0.5422 0.3412 0.7679
vn 0.9367 -0.2091 -0.2808
vn 0.8637 -0.4199 -0.2786
vn 0.5042 0.1407 0.8520
vn 0.9037 0.0185 -0.4277
vn 0.8809 0.1849 -0.4357
vn 0.8620 0.2872 -0.4178
vn 0.8764 0.4117 -0.2498
vn 0.6054 0.1364 0.7842
vn 0.1759 0.4679 0.8661
vn 0.8049 -0.5218 -0.2824
vn -0.0244 -0.6170 -0.7866
vn 0.1061 0.7619 -0.6390
vn -0.0376 -0.9637 -0.2642
vn 0.1348 0.9453 0.2969
vn 0.1516 0.9883 -0.0180
vn -0.0175 0.4874 -0.8730
vn -0.0389 0.9236 -0.3813
vn 0.0445 -0.7718 -0.6343
vn 0.0571 -0.9514 0.3025
vn 0.0592 -0.8983 0.4354
vn 0.0157 -0.7118 -0.7022
vn 0.0001 -0.0050 -1.0000
vn 0.0222 -0.9952 -0.0950
vn 0.0136 0.7007 -0.7133
vn 0.0194 0.9814 -0.1912
vn 0.0001 0.0072 -1.0000
vn -0.0290 0.7155 -0.6980
vn 0.0590 -0.6878 0.7235
vn 0.0160 -0.3332 0.9427
vn -0.0152 0.3972 -0.9176
vn 0.0235 -0.5228 0.8521
vn -0.0039 0.1019 -0.9948
vn 0.0273 -0.4199 0.9072
vn 0.0072 -0.2447 -0.9696
vn 0.0393 -0.1967 0.9797
vn 0.0353 0.0222 0.9991
vn 0.0163 -0.6065 -0.7949
vn 0.0216 -0.9044 -0.4260
vn 0.1350 0.9607 -0.2427
vn 0.1337 0.9231 0.3606
vn 0.4699 0.5615 0.6811
vn 0.1251 0.6283 0.7679
vn 0.4048 0.8837 -0.2349
vn -0.0298 -0.8064 -0.5906
vn 0.4693 0.8820 -0.0424
vn 0.1004 0.4275 0.8984
vn -0.0145 -0.4143 -0.9100
vn 0.0502 0.2127 0.9758
vn 0.1656 0.3498 0.9221
vn 0.0120 0.1125 0.9936
vn 0.0320 0.1641 0.9859
vn -0.0008 -0.0214 -0.9998
vn 0.0053 0.2126 -0.9771
vn 0.0442 0.3588 0.9324
vn 0.0124 0.5489 -0.8358
vn 0.0175 0.8538 -0.5204
vn 0.0637 0.2779 0.9585
vn 0.0644 0.5031 0.8618
vn -0.6295 0.3677 -0.6845
vn -0.6182 -0.7571 0.2112
vn -0.7841 0.5757 -0.2319
vn -0.4220 -0.6897 -0.5884
vn -0.7237 -0.5934 0.3523
vn -0.6747 -0.4749 -0.5651
vn -0.8462 -0.5314 -0.0397
vn -0.5854 0.0398 -0.8098
vn -0.6624 0.4837 -0.5720
vn -0.6688 -0.0345 -0.7427
vn -0.8396 0.5360 -0.0879
vn -0.8477 0.4013 -0.3469
vn -0.8062 0.2182 -0.5499
vn -0.7168 -0.2910 0.6337
vn -0.4561 -0.6539 0.6037
vn -0.8344 0.0698 -0.5467
vn -0.8358 -0.1773 -0.5196
vn -0.5927 -0.3150 0.7413
vn -0.7223 0.1652 0.6715
vn -0.5418 -0.2168 0.8121
vn -0.4819 -0.0672 0.8736
vn -0.8005 -0.3794 -0.4640
vn -0.8049 -0.5218 -0.2824
vn -0.5420 0.3417 0.7678
vn -0.9359 -0.2045 -0.2868
vn -0.5155 0.1368 0.8459
vn -0.8985 0.0166 -0.4386
vn -0.8782 0.1791 -0.4436
vn -0.8620 0.2872 -0.4178
vn -0.8764 0.4117 -0.2498
vn -0.5526 0.0277 0.8330
vn -0.6053 0.1364 0.7842
vn -0.1759 0.4679 0.8661
vn 0.0244 -0.6170 -0.7866
vn -0.6536 -0.4472 -0.6106
vn -0.1061 0.7619 -0.6390
vn -0.5661 0.6103 -0.5541
vn 0.0376 -0.9637 -0.2642
vn -0.8290 -0.5408 -0.1422
vn 0.0175 0.4874 -0.8730
vn 0.0389 0.9236 -0.3813
vn -0.0445 -0.7718 -0.6343
vn -0.0571 -0.9514 0.3025
vn -0.0592 -0.8983 0.4354
vn -0.0157 -0.7118 -0.7022
vn -0.0001 -0.0050 -1.0000
vn -0.0222 -0.9952 -0.0950
vn -0.0136 0.7007 -0.7133
vn -0.0194 0.9814 -0.1912
vn -0.0001 0.0072 -1.0000
vn 0.0290 0.7155 -0.6980
vn -0.0590 -0.6878 0.7235
vn -0.0160 -0.3332 0.9427
vn 0.0152 0.3972 -0.9176
vn -0.0235 -0.5228 0.8521
vn 0.0039 0.1019 -0.9948
vn -0.0273 -0.4199 0.9072
vn -0.0072 -0.2447 -0.9696
vn -0.0393 -0.1967 0.9797
vn -0.0353 0.0222 0.9991
vn -0.0163 -0.6065 -0.7949
vn -0.0216 -0.9044 -0.4260
vn 0.0298 -0.8064 -0.5906
vn -0.8636 -0.4203 -0.2785
vn 0.0145 -0.4143 -0.9100
vn -0.1379 0.3394 0.9305
vn -0.0502 0.2127 0.9758
vn -0.0125 0.1127 0.9935
vn -0.0321 0.1649 0.9858
vn 0.0008 -0.0214 -0.9998
vn -0.0053 0.2126 -0.9771
vn -0.0440 0.3586 0.9325
vn -0.0124 0.5489 -0.8358
vn -0.0175 0.8538 -0.5204
vn -0.0637 0.2779 0.9585
vn -0.0644 0.5031 0.8618
vn -0.1017 0.4261 0.8990
vn -0.1275 0.6286 0.7672
vn -0.1333 0.9234 0.3599
vn -0.1350 0.9607 -0.2427
vn -0.1516 0.9883 -0.0180
vn -0.1347 0.9453 0.2969
vn 0.2957 0.5005 0.8137
vn 0.6825 0.7306 0.0211
vn 0.7723 -0.0493 0.6334
vn 0.7967 0.5844 -0.1540
vn 0.4813 0.8393 -0.2529
vn 0.4130 0.9104 -0.0226
vn -0.6476 0.7290 0.2218
vn -0.7692 0.6382 0.0316
vn -0.6408 0.7567 -0.1294
vn -0.4577 0.3497 0.8174
vn 0.1189 0.0874 0.9891
vn 0.0738 0.5872 0.8061
vn -0.5149 0.7609 -0.3949
vn 0.0565 0.9966 -0.0600
vn -0.5097 0.8602 0.0176
vn -0.6873 0.7251 -0.0427
vn -0.4711 0.5624 0.6795
vn -0.4048 0.8837 -0.2349
vn -0.4701 0.8815 -0.0440
vn -0.2963 0.5005 0.8134
vn -0.6838 0.7294 0.0184
vn -0.7723 -0.0493 0.6334
vn -0.7967 0.5844 -0.1540
vn -0.4813 0.8393 -0.2529
vn -0.4131 0.9103 -0.0241
vn -0.3352 0.8258 0.4536
vn 0.6375 0.6069 0.4746
vn 0.2256 0.9667 -0.1205
vn -0.1360 -0.5937 0.7931
vn 0.3982 -0.6252 0.6712
vn -0.6945 -0.3612 0.6222
vn -0.3216 0.7161 -0.6195
vn -0.8977 -0.4405 0.0035
vn -0.6742 -0.5351 -0.5090
vn 0.6335 0.5395 -0.5545
vn -0.1421 -0.6781 -0.7212
vn 0.3893 -0.7241 -0.5694
vn 0.6772 -0.7342 0.0481
vn -0.2064 -0.9719 0.1131
vn -0.0644 0.9915 0.1134
vn 0.5565 -0.5755 0.5992
vn 0.1619 0.9647 0.2075
vn 0.0808 -0.6611 0.7459
vn -0.4524 -0.7592 -0.4680
vn -0.1356 -0.7277 -0.6723
vn 0.8053 -0.5858 -0.0908
vn 0.2648 0.9643 0.0059
vn -0.6138 -0.7892 -0.0221
vn 0.5533 -0.7723 -0.3121
vn -0.2811 0.9571 0.0707
vn -0.7699 -0.5372 0.3445
vn 0.0644 0.9915 0.1134
vn -0.1619 0.9647 0.2075
vn -0.5565 -0.5755 0.5992
vn -0.0808 -0.6611 0.7459
vn 0.4524 -0.7592 -0.4680
vn 0.1356 -0.7277 -0.6723
vn -0.2648 0.9643 0.0059
vn -0.8053 -0.5858 -0.0908
vn 0.6138 -0.7891 -0.0221
vn 0.2811 0.9571 0.0707
vn -0.5533 -0.7723 -0.3120
vn 0.7699 -0.5372 0.3445
vn -0.6069 -0.0952 -0.7891
vn -0.6132 -0.0946 -0.7842
vn 0.6132 -0.0946 -0.7842
vn 0.6069 -0.0952 -0.7891
vn 1.0000 0.0000 0.0000
vn -1.0000 -0.0000 0.0000
vn -0.6234 -0.0814 -0.7777
vn -0.5691 -0.0856 -0.8178
vn 0.5691 -0.0856 -0.8178
vn 0.6234 -0.0814 -0.7777
vn 0.0000 -1.0000 -0.0000
vn -0.3041 -0.9182 0.2538
vn -0.4251 -0.9034 -0.0564
vn 0.0000 -0.9244 0.3814
vn 0.3041 -0.9182 0.2538
vn 0.4251 -0.9034 -0.0564
vn 0.2894 -0.8895 -0.3537
vn 0.0000 -0.8844 -0.4668
vn -0.2893 -0.8895 -0.3537
vn -0.6931 -0.0730 0.7171
vn -0.9997 -0.0025 0.0247
vn -0.0000 -0.1013 0.9949
vn 0.6931 -0.0730 0.7171
vn 0.9997 -0.0025 0.0247
vn 0.7179 0.0705 -0.6926
vn -0.0000 0.1013 -0.9949
vn -0.7179 0.0705 -0.6926
vn 0.7554 -0.3276 0.5674
vn 0.7554 -0.6552 -0.0000
vn 0.0000 -0.5000 0.8660
vn 0.7554 0.3276 0.5674
vn 0.0000 0.5000 0.8660
vn 0.7554 0.6552 0.0000
vn 0.0000 1.0000 -0.0000
vn 0.7554 0.3276 -0.5674
vn 0.0000 0.5000 -0.8660
vn 0.7554 -0.3276 -0.5674
vn 0.0000 -0.5000 -0.8660
vn 0.5505 -0.4174 0.7230
vn 0.5505 -0.8348 -0.0000
vn 0.5505 0.4174 0.7230
vn 0.5505 0.8348 -0.0000
vn 0.5505 0.4174 -0.7230
vn 0.5505 -0.4174 -0.7230
vn -0.5505 -0.4174 0.7230
vn -0.5505 -0.8348 -0.0000
vn -0.5505 0.4174 0.7230
vn -0.5505 0.8348 -0.0000
vn -0.5505 0.4174 -0.7230
vn -0.5505 -0.4174 -0.7230
vn -0.7554 -0.3276 0.5674
vn -0.7554 -0.6552 0.0000
vn -0.7554 0.3276 0.5674
vn -0.7554 0.6552 -0.0000
vn -0.7554 0.3276 -0.5674
vn -0.7554 -0.3276 -0.5674
vn -1.0000 0.0049 0.0068
vn -0.5337 0.1879 0.8245
vn -0.9976 -0.0158 -0.0678
vn -0.4959 0.3760 0.7827
vn 0.5332 0.1889 0.8246
vn 0.4951 0.3749 0.7838
vn 0.9975 -0.0163 -0.0686
vn 1.0000 0.0040 0.0053
vn 0.4726 -0.1908 -0.8604
vn 0.5024 -0.3654 -0.7837
vn -0.4723 -0.1903 -0.8607
vn -0.5016 -0.3668 -0.7835
vn -0.5313 -0.1778 0.8283
vn -0.9978 0.0137 -0.0654
vn 0.5315 -0.1774 0.8283
vn 0.9978 0.0135 -0.0650
vn 0.4734 0.1826 -0.8617
vn -0.4736 0.1828 -0.8616
vn -0.5148 -0.3511 0.7821
vn -0.9991 0.0165 -0.0387
vn 0.5152 -0.3517 0.7816
vn 0.9991 0.0162 -0.0379
vn 0.4791 0.3565 -0.8021
vn -0.4794 0.3559 -0.8022
vn 0.7554 -0.3276 0.5675
vn 0.7554 -0.3276 -0.5675
vn -0.7554 -0.3276 0.5675
vn -0.7554 -0.3276 -0.5675
usemtl seat.png
s 1
f 1/1/1 2/2/2 3/3/3
f 2/2/2 4/4/4 5/5/5
f 2/2/2 5/5/5 3/3/3
f 3/3/3 5/5/5 6/6/6
f 1/1/1 3/3/3 7/7/7
f 3/8/3 6/9/6 8/10/8
f 3/8/3 8/10/8 7/11/7
f 7/11/7 8/10/8 9/12/9
f 1/1/1 7/7/7 10/13/10
f 7/7/7 9/14/9 11/15/11
f 7/7/7 11/15/11 10/13/10
f 10/13/10 11/15/11 12/16/12
f 1/1/1 10/13/10 2/2/2
f 10/13/10 12/16/12 13/17/13
f 10/13/10 13/17/13 2/2/2
f 2/2/2 13/17/13 4/4/4
f 5/18/5 4/19/4 14/20/14
f 6/21/6 5/18/5 14/20/14
f 8/22/8 6/21/6 14/20/14
f 9/23/9 8/22/8 14/20/14
f 11/24/11 9/23/9 14/20/14
f 12/25/12 11/24/11 14/20/14
f 13/26/13 12/25/12 14/20/14
f 4/19/4 13/26/13 14/20/14
f 15/27/15 16/28/16 17/29/17
f 15/27/15 17/29/17 18/30/18
f 15/27/15 18/30/18 19/31/19
f 20/32/20 21/33/21 22/34/22
f 22/34/22 21/33/21 23/35/23
f 24/36/24 22/34/22 23/35/23
f 25/37/25 26/38/26 27/39/27
f 28/40/28 29/41/29 30/42/30
f 24/36/24 23/35/23 31/43/31
f 32/44/32 24/36/24 33/45/33
f 33/46/33 34/47/34 35/48/35
f 24/36/24 31/43/31 36/49/36
f 33/46/33 36/50/36 37/51/37
f 24/36/24 36/49/36 33/45/33
f 38/52/38 35/48/35 34/47/34
f 33/46/33 39/53/39 34/47/34
f 40/54/40 38/52/38 34/47/34
f 41/55/41 40/54/40 34/47/34
f 37/51/37 39/53/39 33/46/33
f 39/53/39 42/56/42 34/47/34
f 15/27/15 19/31/19 43/57/43
f 15/27/15 43/57/43 44/58/44
f 45/59/45 46/60/46 47/61/47
f 48/62/48 45/59/45 47/61/47
f 49/63/49 50/64/50 51/65/51
f 52/66/52 53/67/53 51/68/51
f 52/66/52 51/68/51 54/69/54
f 55/70/55 52/71/52 54/72/54
f 56/73/56 55/70/55 54/72/54
f 56/73/56 54/72/54 34/47/34
f 57/74/57 56/73/56 34/47/34
f 58/75/58 57/74/57 34/47/34
f 59/76/59 41/55/41 34/47/34
f 60/77/60 59/78/59 34/79/34
f 34/47/34 42/56/42 61/80/61
f 58/75/58 28/40/28 30/42/30
f 61/80/61 27/39/27 28/40/28
f 34/47/34 61/80/61 28/40/28
f 58/75/58 34/47/34 28/40/28
f 25/37/25 27/39/27 61/80/61
f 16/81/16 62/82/62 63/83/63
f 63/83/63 17/84/17 16/81/16
f 15/85/15 64/86/64 62/82/62
f 16/81/16 15/85/15 62/82/62
f 17/29/17 63/87/63 65/88/65
f 65/88/65 18/30/18 17/29/17
f 18/30/18 65/88/65 66/89/66
f 66/89/66 19/31/19 18/30/18
f 21/90/21 67/91/67 68/92/68
f 68/92/68 23/93/23 21/90/21
f 20/94/20 69/95/69 67/91/67
f 67/91/67 21/90/21 20/94/20
f 22/34/22 70/96/70 69/97/69
f 69/97/69 20/32/20 22/34/22
f 24/36/24 71/98/71 70/96/70
f 70/96/70 22/34/22 24/36/24
f 26/99/26 72/100/72 73/101/73
f 73/101/73 27/102/27 26/99/26
f 25/103/25 74/104/74 72/100/72
f 72/100/72 26/99/26 25/103/25
f 29/105/29 75/106/75 76/107/76
f 76/107/76 30/108/30 29/105/29
f 28/109/28 77/110/77 75/106/75
f 75/106/75 29/105/29 28/109/28
f 23/93/23 68/92/68 78/111/78
f 78/111/78 31/112/31 23/93/23
f 32/44/32 79/113/79 71/98/71
f 71/98/71 24/36/24 32/44/32
f 33/114/33 80/115/80 79/116/79
f 79/116/79 32/117/32 33/114/33
f 31/112/31 78/111/78 81/118/81
f 81/118/81 36/119/36 31/112/31
f 35/120/35 82/121/82 80/115/80
f 80/115/80 33/114/33 35/120/35
f 36/119/36 81/118/81 83/122/83
f 83/122/83 37/123/37 36/119/36
f 38/124/38 84/125/84 82/121/82
f 82/121/82 35/120/35 38/124/38
f 37/123/37 83/122/83 85/126/85
f 85/126/85 39/127/39 37/123/37
f 40/128/40 86/129/86 84/125/84
f 84/125/84 38/124/38 40/128/40
f 41/130/41 87/131/87 86/132/86
f 86/132/86 40/133/40 41/130/41
f 39/127/39 85/126/85 88/134/88
f 88/134/88 42/135/42 39/127/39
f 42/135/42 88/134/88 89/136/89
f 89/136/89 61/137/61 42/135/42
f 19/31/19 66/89/66 90/138/90
f 90/138/90 43/57/43 19/31/19
f 43/57/43 90/138/90 91/139/91
f 91/139/91 44/58/44 43/57/43
f 92/140/92 91/139/91 93/141/93
f 94/142/94 47/61/47 46/60/46
f 53/143/53 95/144/95 64/86/64
f 64/86/64 15/85/15 53/143/53
f 96/145/96 93/141/93 97/146/97
f 97/146/97 51/68/51 50/64/50
f 52/147/52 98/148/98 95/144/95
f 95/144/95 53/143/53 52/147/52
f 99/149/99 100/150/100 101/151/101
f 102/152/102 54/153/54 51/154/51
f 55/155/55 103/156/103 98/148/98
f 98/148/98 52/147/52 55/155/55
f 56/157/56 104/158/104 103/156/103
f 103/156/103 55/155/55 56/157/56
f 54/153/54 102/152/102 105/159/105
f 105/159/105 34/160/34 54/153/54
f 57/161/57 106/162/106 104/158/104
f 104/158/104 56/157/56 57/161/57
f 58/163/58 107/164/107 106/162/106
f 106/162/106 57/161/57 58/163/58
f 59/165/59 108/166/108 87/131/87
f 87/131/87 41/130/41 59/165/59
f 60/77/60 109/167/109 108/168/108
f 108/168/108 59/78/59 60/77/60
f 34/79/34 105/169/105 109/167/109
f 109/167/109 60/77/60 34/79/34
f 30/108/30 76/107/76 107/164/107
f 107/164/107 58/163/58 30/108/30
f 27/102/27 73/101/73 77/110/77
f 77/110/77 28/109/28 27/102/27
f 61/137/61 89/136/89 74/104/74
f 74/104/74 25/103/25 61/137/61
f 110/170/110 111/171/111 112/172/112
f 113/173/113 111/171/111 110/170/110
f 111/171/111 114/174/114 112/172/112
f 115/175/115 116/176/116 117/177/117
f 118/178/118 119/179/119 120/180/120
f 112/172/112 114/174/114 121/181/121
f 114/174/114 122/182/122 121/181/121
f 123/183/123 114/174/114 124/184/124
f 123/183/123 122/182/122 114/174/114
f 123/185/123 125/186/125 122/187/122
f 123/185/123 126/188/126 125/186/125
f 127/189/127 128/190/128 123/185/123
f 123/185/123 128/190/128 126/188/126
f 129/191/129 128/190/128 127/189/127
f 130/192/130 128/190/128 129/191/129
f 126/188/126 128/190/128 131/193/131
f 131/193/131 128/190/128 132/194/132
f 133/195/133 134/196/134 135/197/135
f 134/198/134 136/199/136 135/200/135
f 136/199/136 137/201/137 135/200/135
f 135/200/135 137/201/137 128/190/128
f 137/201/137 138/202/138 128/190/128
f 138/202/138 139/203/139 128/190/128
f 140/204/140 128/190/128 130/192/130
f 141/205/141 128/190/128 140/204/140
f 142/206/142 128/207/128 141/208/141
f 139/203/139 119/179/119 128/190/128
f 117/177/117 132/194/132 119/179/119
f 120/180/120 119/179/119 139/203/139
f 119/179/119 132/194/132 128/190/128
f 117/177/117 116/176/116 132/194/132
f 143/209/143 144/210/144 145/211/145
f 146/212/146 145/211/145 144/210/144
f 147/213/147 148/214/148 143/209/143
f 144/210/144 143/209/143 148/214/148
f 149/215/149 110/216/110 150/217/150
f 112/218/112 150/217/150 110/216/110
f 151/219/151 113/220/113 149/215/149
f 110/216/110 149/215/149 113/220/113
f 152/221/152 111/171/111 151/222/151
f 113/173/113 151/222/151 111/171/111
f 153/223/153 114/174/114 152/221/152
f 111/171/111 152/221/152 114/174/114
f 154/224/154 115/225/115 155/226/155
f 117/227/117 155/226/155 115/225/115
f 156/228/156 116/229/116 154/224/154
f 115/225/115 154/224/154 116/229/116
f 157/230/157 118/231/118 158/232/158
f 120/233/120 158/232/158 118/231/118
f 159/234/159 119/235/119 157/230/157
f 118/231/118 157/230/157 119/235/119
f 150/217/150 112/218/112 160/236/160
f 121/237/121 160/236/160 112/218/112
f 161/238/161 124/184/124 153/223/153
f 114/174/114 153/223/153 124/184/124
f 162/239/162 123/240/123 161/241/161
f 124/242/124 161/241/161 123/240/123
f 160/236/160 121/237/121 163/243/163
f 122/244/122 163/243/163 121/237/121
f 164/245/164 127/246/127 162/239/162
f 123/240/123 162/239/162 127/246/127
f 163/243/163 122/244/122 165/247/165
f 125/248/125 165/247/165 122/244/122
f 166/249/166 129/250/129 164/245/164
f 127/246/127 164/245/164 129/250/129
f 165/247/165 125/248/125 167/251/167
f 126/252/126 167/251/167 125/248/125
f 168/253/168 130/254/130 166/249/166
f 129/250/129 166/249/166 130/254/130
f 169/255/169 140/256/140 168/257/168
f 130/258/130 168/257/168 140/256/140
f 167/251/167 126/252/126 170/259/170
f 131/260/131 170/259/170 126/252/126
f 170/259/170 131/260/131 171/261/171
f 132/262/132 171/261/171 131/260/131
f 172/263/172 173/264/173 147/213/147
f 148/214/148 147/213/147 173/264/173
f 174/265/174 134/266/134 172/263/172
f 173/264/173 172/263/172 134/266/134
f 175/267/175 176/268/176 177/269/177
f 135/270/135 178/271/178 133/272/133
f 179/273/179 136/274/136 174/265/174
f 134/266/134 174/265/174 136/274/136
f 180/275/180 137/276/137 179/273/179
f 136/274/136 179/273/179 137/276/137
f 178/271/178 135/270/135 181/277/181
f 128/278/128 181/277/181 135/270/135
f 182/279/182 138/280/138 180/275/180
f 137/276/137 180/275/180 138/280/138
f 183/281/183 139/282/139 182/279/182
f 138/280/138 182/279/182 139/282/139
f 184/283/184 141/284/141 169/255/169
f 140/256/140 169/255/169 141/284/141
f 185/285/185 142/206/142 184/286/184
f 141/208/141 184/286/184 142/206/142
f 181/287/181 128/207/128 185/285/185
f 142/206/142 185/285/185 128/207/128
f 158/232/158 120/233/120 183/281/183
f 139/282/139 183/281/183 120/233/120
f 155/226/155 117/227/117 159/234/159
f 119/235/119 159/234/159 117/227/117
f 171/261/171 132/262/132 156/228/156
f 116/229/116 156/228/156 132/262/132
f 109/167/109 105/169/105 185/285/185
f 105/169/105 181/287/181 185/285/185
f 105/159/105 102/152/102 181/277/181
f 102/152/102 178/271/178 181/277/181
f 101/151/101 100/150/100 177/269/177
f 100/150/100 175/267/175 177/269/177
f 97/146/97 93/141/93 186/288/186
f 93/141/93 187/289/187 186/288/186
f 93/141/93 91/139/91 187/289/187
f 91/139/91 188/290/188 187/289/187
f 91/139/91 90/138/90 188/290/188
f 90/138/90 189/291/189 188/290/188
f 90/138/90 66/89/66 189/291/189
f 66/89/66 190/292/190 189/291/189
f 66/89/66 65/88/65 190/292/190
f 65/88/65 191/293/191 190/292/190
f 65/88/65 63/87/63 191/293/191
f 63/87/63 145/294/145 191/293/191
f 108/168/108 109/167/109 184/286/184
f 109/167/109 185/285/185 184/286/184
f 87/131/87 108/166/108 169/255/169
f 108/166/108 184/283/184 169/255/169
f 86/132/86 87/131/87 168/257/168
f 87/131/87 169/255/169 168/257/168
f 166/249/166 84/125/84 168/253/168
f 84/125/84 86/129/86 168/253/168
f 164/245/164 82/121/82 166/249/166
f 82/121/82 84/125/84 166/249/166
f 80/115/80 82/121/82 164/245/164
f 164/245/164 162/239/162 80/115/80
f 79/116/79 80/115/80 162/239/162
f 162/239/162 161/241/161 79/116/79
f 161/238/161 153/223/153 79/113/79
f 153/223/153 71/98/71 79/113/79
f 153/223/153 152/221/152 71/98/71
f 152/221/152 70/96/70 71/98/71
f 152/221/152 151/222/151 70/96/70
f 151/222/151 69/97/69 70/96/70
f 143/209/143 145/211/145 62/82/62
f 62/82/62 145/211/145 63/83/63
f 147/213/147 143/209/143 64/86/64
f 143/209/143 62/82/62 64/86/64
f 172/263/172 147/213/147 95/144/95
f 147/213/147 64/86/64 95/144/95
f 174/265/174 172/263/172 98/148/98
f 172/263/172 95/144/95 98/148/98
f 179/273/179 174/265/174 103/156/103
f 174/265/174 98/148/98 103/156/103
f 180/275/180 179/273/179 104/158/104
f 179/273/179 103/156/103 104/158/104
f 182/279/182 180/275/180 106/162/106
f 180/275/180 104/158/104 106/162/106
f 107/164/107 183/281/183 106/162/106
f 183/281/183 182/279/182 106/162/106
f 76/107/76 158/232/158 107/164/107
f 158/232/158 183/281/183 107/164/107
f 75/106/75 157/230/157 76/107/76
f 157/230/157 158/232/158 76/107/76
f 77/110/77 159/234/159 75/106/75
f 159/234/159 157/230/157 75/106/75
f 73/101/73 155/226/155 77/110/77
f 155/226/155 159/234/159 77/110/77
f 154/224/154 155/226/155 72/100/72
f 155/226/155 73/101/73 72/100/72
f 156/228/156 154/224/154 74/104/74
f 154/224/154 72/100/72 74/104/74
f 171/261/171 156/228/156 89/136/89
f 156/228/156 74/104/74 89/136/89
f 170/259/170 171/261/171 88/134/88
f 171/261/171 89/136/89 88/134/88
f 85/126/85 167/251/167 88/134/88
f 167/251/167 170/259/170 88/134/88
f 83/122/83 165/247/165 85/126/85
f 165/247/165 167/251/167 85/126/85
f 81/118/81 163/243/163 165/247/165
f 81/118/81 165/247/165 83/122/83
f 78/111/78 160/236/160 81/118/81
f 160/236/160 163/243/163 81/118/81
f 68/92/68 150/217/150 78/111/78
f 150/217/150 160/236/160 78/111/78
f 67/91/67 149/215/149 68/92/68
f 149/215/149 150/217/150 68/92/68
f 69/95/69 151/219/151 67/91/67
f 67/91/67 151/219/151 149/215/149
f 53/67/53 15/27/15 49/63/49
f 53/67/53 49/63/49 51/68/51
f 15/27/15 44/58/44 192/295/192
f 15/27/15 192/295/192 49/63/49
f 44/58/44 91/139/91 92/140/92
f 193/296/193 92/140/92 93/141/93
f 46/60/46 194/297/194 195/298/195
f 46/60/46 195/298/195 196/299/196
f 50/64/50 197/300/197 97/146/97
f 93/141/93 96/145/96 193/296/193
f 97/146/97 197/300/197 96/145/96
f 196/299/196 94/142/94 46/60/46
f 144/301/144 148/302/148 146/303/146
f 146/303/146 148/302/148 198/304/198
f 198/304/198 148/302/148 199/305/199
f 199/305/199 148/302/148 200/306/200
f 200/306/200 148/302/148 201/307/201
f 202/308/202 203/309/203 204/310/204
f 203/309/203 205/311/205 204/310/204
f 206/312/206 207/313/207 133/314/133
f 173/315/173 134/196/134 133/195/133
f 145/294/145 146/303/146 191/293/191
f 198/304/198 191/293/191 146/303/146
f 191/293/191 198/304/198 190/292/190
f 199/305/199 190/292/190 198/304/198
f 190/292/190 199/305/199 189/291/189
f 200/306/200 189/291/189 199/305/199
f 189/291/189 200/306/200 188/290/188
f 201/307/201 188/290/188 200/306/200
f 188/290/188 208/316/208 187/289/187
f 204/310/204 209/317/209 202/308/202
f 187/289/187 210/318/210 186/288/186
f 133/314/133 186/288/186 206/312/206
f 148/302/148 173/315/173 207/313/207
f 207/313/207 173/315/173 133/195/133
f 201/307/201 148/302/148 211/319/211
f 211/319/211 148/302/148 207/313/207
f 188/290/188 201/307/201 208/316/208
f 208/316/208 212/320/212 187/289/187
f 213/321/213 202/308/202 214/322/214
f 214/322/214 202/308/202 215/323/215
f 216/324/216 206/312/206 186/288/186
f 210/318/210 187/289/187 212/320/212
f 216/324/216 186/288/186 210/318/210
f 209/317/209 215/323/215 202/308/202
f 45/59/45 192/295/192 44/58/44
f 44/58/44 46/60/46 45/59/45
f 48/62/48 49/63/49 192/295/192
f 192/295/192 45/59/45 48/62/48
f 47/61/47 50/64/50 49/63/49
f 49/63/49 48/62/48 47/61/47
f 94/142/94 197/300/197 50/64/50
f 50/64/50 47/61/47 94/142/94
f 46/60/46 44/58/44 92/140/92
f 92/140/92 194/297/194 46/60/46
f 194/297/194 92/140/92 193/296/193
f 193/296/193 195/298/195 194/297/194
f 195/298/195 193/296/193 96/325/96
f 96/325/96 196/299/196 195/298/195
f 196/299/196 96/325/96 197/300/197
f 197/300/197 94/142/94 196/299/196
f 202/308/202 201/307/201 211/319/211
f 211/319/211 203/309/203 202/308/202
f 205/311/205 207/313/207 206/312/206
f 206/312/206 204/310/204 205/311/205
f 203/309/203 211/319/211 207/313/207
f 207/326/207 205/311/205 203/327/203
f 204/310/204 206/312/206 216/324/216
f 216/324/216 209/317/209 204/310/204
f 213/321/213 208/316/208 201/307/201
f 201/307/201 202/308/202 213/321/213
f 214/322/214 212/320/212 208/316/208
f 208/316/208 213/321/213 214/322/214
f 215/323/215 210/318/210 212/320/212
f 212/320/212 214/322/214 215/323/215
f 209/317/209 216/324/216 210/318/210
f 210/318/210 215/323/215 209/317/209
f 99/149/99 51/154/51 97/328/97
f 97/328/97 100/150/100 99/149/99
f 101/151/101 102/152/102 51/154/51
f 51/154/51 99/149/99 101/151/101
f 176/268/176 133/272/133 178/271/178
f 178/271/178 177/269/177 176/268/176
f 175/267/175 186/329/186 176/268/176
f 133/272/133 176/268/176 186/329/186
f 177/269/177 178/271/178 102/152/102
f 102/152/102 101/151/101 177/269/177
f 100/150/100 97/328/97 186/329/186
f 186/329/186 175/267/175 100/150/100
f 217/330/217 218/331/218 219/332/219
f 220/333/220 221/334/221 218/331/218
f 217/330/217 220/333/220 218/331/218
f 220/333/220 217/330/217 222/335/222
f 223/336/223 217/330/217 219/332/219
f 222/335/222 217/330/217 224/337/224
f 224/337/224 217/330/217 223/336/223
f 225/338/225 224/337/224 223/336/223
f 226/339/226 223/336/223 219/332/219
f 227/340/227 225/338/225 223/336/223
f 226/339/226 227/340/227 223/336/223
f 228/341/228 227/340/227 226/339/226
f 218/331/218 226/339/226 219/332/219
f 229/342/229 228/341/228 226/339/226
f 218/331/218 229/342/229 226/339/226
f 221/334/221 229/342/229 218/331/218
f 230/343/230 221/344/221 220/345/220
f 230/343/230 220/345/220 222/346/222
f 230/343/230 222/346/222 224/347/224
f 230/343/230 224/347/224 225/348/225
f 230/343/230 225/348/225 227/349/227
f 230/343/230 227/349/227 228/350/228
f 230/343/230 228/350/228 229/351/229
f 230/343/230 229/351/229 221/344/221
f 231/352/231 232/353/232 233/354/233
f 231/352/231 234/355/234 232/353/232
f 234/355/234 235/356/235 232/353/232
f 234/355/234 236/357/236 235/356/235
f 236/357/236 233/354/233 235/356/235
f 236/357/236 231/352/231 233/354/233
f 233/354/233 237/358/237 238/359/238
f 233/354/233 232/353/232 237/358/237
f 232/353/232 239/360/239 237/358/237
f 232/353/232 235/356/235 239/360/239
f 235/356/235 238/359/238 239/360/239
f 235/356/235 233/354/233 238/359/238
f 238/359/238 240/361/240 241/362/241
f 238/359/238 237/358/237 240/361/240
f 237/358/237 242/363/242 240/361/240
f 237/358/237 239/360/239 242/363/242
f 239/360/239 241/362/241 242/363/242
f 239/360/239 238/359/238 241/362/241
f 243/364/243 244/365/244 245/366/245
f 243/364/243 245/366/245 246/367/246
f 246/367/246 245/366/245 247/368/247
f 246/367/246 247/368/247 248/369/248
f 248/369/248 247/368/247 244/365/244
f 248/369/248 244/365/244 243/364/243
f 244/365/244 249/370/249 250/371/250
f 244/365/244 250/371/250 245/366/245
f 245/366/245 250/371/250 251/372/251
f 245/366/245 251/372/251 247/368/247
f 247/368/247 251/372/251 249/370/249
f 247/368/247 249/370/249 244/365/244
f 249/370/249 252/373/252 253/374/253
f 249/370/249 253/374/253 250/371/250
f 250/371/250 253/374/253 254/375/254
f 250/371/250 254/375/254 251/372/251
f 251/372/251 254/375/254 252/373/252
f 251/372/251 252/373/252 249/370/249
f 231/352/231 246/367/246 234/355/234
f 246/367/246 231/352/231 243/364/243
f 246/367/246 248/369/248 234/355/234
f 234/355/234 248/369/248 236/357/236
f 243/364/243 231/352/231 236/357/236
f 248/369/248 243/364/243 236/357/236
f 255/376/255 256/377/256 257/378/257
f 258/379/258 255/376/255 257/378/257
f 258/380/258 257/381/257 259/382/259
f 259/382/259 260/383/259 258/380/258
f 256/384/256 255/385/255 261/386/260
f 261/386/260 262/387/260 256/384/256
f 263/388/261 264/389/262 265/390/263
f 266/391/264 263/388/261 265/390/263
f 266/392/264 265/393/263 267/394/259
f 267/394/259 268/395/259 266/392/264
f 264/396/262 263/397/261 269/398/260
f 269/398/260 270/399/260 264/396/262
f 271/400/261 272/401/262 273/402/263
f 274/403/264 271/400/261 273/402/263
f 274/404/264 273/405/263 275/406/259
f 275/406/259 276/407/259 274/404/264
f 272/408/262 271/409/261 277/410/260
f 277/410/260 278/411/260 272/408/262
f 279/412/255 280/413/256 281/414/257
f 282/415/258 279/412/255 281/414/257
f 282/416/258 281/417/257 283/418/259
f 283/418/259 284/419/259 282/416/258
f 280/420/256 279/421/255 285/422/260
f 285/422/260 286/423/260 280/420/256
f 287/424/265 288/425/266 289/426/267
f 287/424/265 290/427/268 288/425/266
f 287/424/265 291/428/269 290/427/268
f 287/424/265 292/429/270 291/428/269
f 287/424/265 293/430/271 292/429/270
f 287/424/265 294/431/272 293/430/271
f 287/424/265 295/432/273 294/431/272
f 287/424/265 289/426/267 295/432/273
f 289/433/267 296/434/274 297/435/275
f 289/433/267 288/436/266 296/434/274
f 288/437/266 298/438/276 296/439/274
f 288/437/266 290/440/268 298/438/276
f 290/441/268 299/442/277 298/443/276
f 290/441/268 291/444/269 299/442/277
f 291/445/269 300/446/278 299/447/277
f 291/445/269 292/448/270 300/446/278
f 292/449/270 301/450/279 300/451/278
f 292/449/270 293/452/271 301/450/279
f 293/453/271 302/454/280 301/455/279
f 293/453/271 294/456/272 302/454/280
f 294/457/272 303/458/281 302/459/280
f 294/457/272 295/460/273 303/458/281
f 295/461/273 297/462/275 303/463/281
f 295/461/273 289/464/267 297/462/275
f 304/465/265 305/466/282 306/467/283
f 304/465/265 307/468/284 305/466/282
f 307/468/284 308/469/285 305/466/282
f 307/468/284 309/470/286 308/469/285
f 309/470/286 310/471/287 308/469/285
f 309/470/286 311/472/288 310/471/287
f 311/472/288 312/473/289 310/471/287
f 311/472/288 313/474/290 312/473/289
f 313/474/290 314/475/291 312/473/289
f 313/474/290 315/476/292 314/475/291
f 315/476/292 306/467/283 314/475/291
f 315/476/292 304/465/265 306/467/283
f 306/467/283 316/477/293 317/478/294
f 306/467/283 305/466/282 316/477/293
f 305/466/282 318/479/295 316/477/293
f 305/466/282 308/469/285 318/479/295
f 308/469/285 319/480/296 318/479/295
f 308/469/285 310/471/287 319/480/296
f 310/471/287 320/481/297 319/480/296
f 310/471/287 312/473/289 320/481/297
f 312/473/289 321/482/298 320/481/297
f 312/473/289 314/475/291 321/482/298
f 314/475/291 317/478/294 321/482/298
f 314/475/291 306/467/283 317/478/294
f 317/478/294 322/483/299 323/484/300
f 317/478/294 316/477/293 322/483/299
f 316/477/293 324/485/301 322/483/299
f 316/477/293 318/479/295 324/485/301
f 318/479/295 325/486/302 324/485/301
f 318/479/295 319/480/296 325/486/302
f 319/480/296 326/487/303 325/486/302
f 319/480/296 320/481/297 326/487/303
f 320/481/297 327/488/304 326/487/303
f 320/481/297 321/482/298 327/488/304
f 321/482/298 323/484/300 327/488/304
f 321/482/298 317/478/294 323/484/300
f 323/484/300 328/489/305 329/490/306
f 323/484/300 322/483/299 328/489/305
f 322/483/299 330/491/307 328/489/305
f 322/483/299 324/485/301 330/491/307
f 324/485/301 331/492/308 330/491/307
f 324/485/301 325/486/302 331/492/308
f 325/486/302 332/493/309 331/492/308
f 325/486/302 326/487/303 332/493/309
f 326/487/303 333/494/310 332/493/309
f 326/487/303 327/488/304 333/494/310
f 327/488/304 329/490/306 333/494/310
f 327/488/304 323/484/300 329/490/306
f 329/490/306 334/495/284 335/496/265
f 329/490/306 328/489/305 334/495/284
f 328/489/305 336/497/286 334/495/284
f 328/489/305 330/491/307 336/497/286
f 330/491/307 337/498/288 336/497/286
f 330/491/307 331/492/308 337/498/288
f 331/492/308 338/499/290 337/498/288
f 331/492/308 332/493/309 338/499/290
f 332/493/309 339/500/292 338/499/290
f 332/493/309 333/494/310 339/500/292
f 333/494/310 335/496/265 339/500/292
f 333/494/310 329/490/306 335/496/265
f 340/501/311 341/502/312 342/503/313
f 340/501/311 343/504/314 341/502/312
f 343/504/314 344/505/315 341/502/312
f 343/504/314 345/506/316 344/505/315
f 345/506/316 346/507/317 344/505/315
f 345/506/316 347/508/318 346/507/317
f 347/508/318 348/509/319 346/507/317
f 347/508/318 349/510/320 348/509/319
f 349/510/320 350/511/321 348/509/319
f 349/510/320 351/512/322 350/511/321
f 351/512/322 342/503/313 350/511/321
f 351/512/322 340/501/311 342/503/313
f 342/503/313 352/513/323 353/514/324
f 342/503/313 341/502/312 352/513/323
f 341/502/312 354/515/325 352/513/323
f 341/502/312 344/505/315 354/515/325
f 344/505/315 355/516/326 354/515/325
f 344/505/315 346/507/317 355/516/326
f 346/507/317 356/517/327 355/516/326
f 346/507/317 348/509/319 356/517/327
f 348/509/319 357/518/328 356/517/327
f 348/509/319 350/511/321 357/518/328
f 350/511/321 353/514/324 357/518/328
f 350/511/321 342/503/313 353/514/324
f 353/514/324 358/519/329 359/520/330
f 353/514/324 352/513/323 358/519/329
f 352/513/323 360/521/331 358/519/329
f 352/513/323 354/515/325 360/521/331
f 354/515/325 361/522/332 360/521/331
f 354/515/325 355/516/326 361/522/332
f 355/516/326 362/523/333 361/522/332
f 355/516/326 356/517/327 362/523/333
f 356/517/327 363/524/334 362/523/333
f 356/517/327 357/518/328 363/524/334
f 357/518/328 359/520/330 363/524/334
f 357/518/328 353/514/324 359/520/330
f 364/525/265 365/526/335 366/527/283
f 364/525/265 367/528/284 365/526/335
f 367/528/284 368/529/285 365/526/335
f 367/528/284 369/530/286 368/529/285
f 369/530/286 370/531/287 368/529/285
f 369/530/286 371/532/288 370/531/287
f 371/532/288 372/533/289 370/531/287
f 371/532/288 373/534/290 372/533/289
f 373/534/290 374/535/336 372/533/289
f 373/534/290 375/536/292 374/535/336
f 375/536/292 366/527/283 374/535/336
f 375/536/292 364/525/265 366/527/283
f 366/527/283 376/537/293 377/538/294
f 366/527/283 365/526/335 376/537/293
f 365/526/335 378/539/295 376/537/293
f 365/526/335 368/529/285 378/539/295
f 368/529/285 379/540/296 378/539/295
f 368/529/285 370/531/287 379/540/296
f 370/531/287 380/541/297 379/540/296
f 370/531/287 372/533/289 380/541/297
f 372/533/289 381/542/298 380/541/297
f 372/533/289 374/535/336 381/542/298
f 374/535/336 377/538/294 381/542/298
f 374/535/336 366/527/283 377/538/294
f 377/538/294 382/543/299 383/544/300
f 377/538/294 376/537/293 382/543/299
f 376/537/293 384/545/301 382/543/299
f 376/537/293 378/539/295 384/545/301
f 378/539/295 385/546/302 384/545/301
f 378/539/295 379/540/296 385/546/302
f 379/540/296 386/547/303 385/546/302
f 379/540/296 380/541/297 386/547/303
f 380/541/297 387/548/304 386/547/303
f 380/541/297 381/542/298 387/548/304
f 381/542/298 383/544/300 387/548/304
f 381/542/298 377/538/294 383/544/300
f 383/544/300 388/549/337 389/550/306
f 383/544/300 382/543/299 388/549/337
f 382/543/299 390/551/307 388/549/337
f 382/543/299 384/545/301 390/551/307
f 384/545/301 391/552/308 390/551/307
f 384/545/301 385/546/302 391/552/308
f 385/546/302 392/553/309 391/552/308
f 385/546/302 386/547/303 392/553/309
f 386/547/303 393/554/338 392/553/309
f 386/547/303 387/548/304 393/554/338
f 387/548/304 389/550/306 393/554/338
f 387/548/304 383/544/300 389/550/306
f 389/550/306 394/555/284 395/556/265
f 389/550/306 388/549/337 394/555/284
f 388/549/337 396/557/286 394/555/284
f 388/549/337 390/551/307 396/557/286
f 390/551/307 397/558/288 396/557/286
f 390/551/307 391/552/308 397/558/288
f 391/552/308 398/559/290 397/558/288
f 391/552/308 392/553/309 398/559/290
f 392/553/309 399/560/292 398/559/290
f 392/553/309 393/554/338 399/560/292
f 393/554/338 395/556/265 399/560/292
f 393/554/338 389/550/306 395/556/265
