# Blender v3.0.1 OBJ File: ''
# www.blender.org
mtllib dumptrack_wheel.mtl
o Jeep.002
v 0.274325 -0.313781 0.066354
v 0.302332 -0.414014 0.424060
v 0.302332 -0.544854 0.233408
v 0.302332 -0.592750 0.007243
v 0.274325 -0.174998 0.268922
v 0.274325 -0.268922 -0.174998
v 0.302332 -0.220091 0.550227
v 0.302332 -0.550228 -0.220091
v 0.302332 0.007242 0.592516
v 0.302332 -0.424294 -0.413780
v 0.274324 0.066354 0.313781
v 0.274324 -0.066588 -0.313781
v 0.302332 0.233408 0.544620
v 0.302332 -0.233642 -0.544620
v 0.302332 0.424060 0.413780
v 0.302332 -0.007243 -0.592516
v 0.274324 0.268688 0.174999
v 0.274324 0.174764 -0.268922
v 0.302332 0.550227 0.220091
v 0.302332 0.220090 -0.550227
v 0.302332 0.592516 -0.007241
v 0.302332 0.413780 -0.424059
v 0.274324 0.313781 -0.066354
v 0.302332 0.544619 -0.233407
v 0.310714 -0.097662 0.149765
v 0.310714 -0.174998 0.036915
v 0.310714 -0.149998 -0.097429
v 0.310714 0.036916 0.174998
v 0.310714 -0.037150 -0.174998
v 0.310714 0.149765 0.097429
v 0.310714 0.097428 -0.149998
v 0.310714 0.174764 -0.037149
v 0.341701 -0.114252 0.024065
v 0.341701 -0.097896 -0.063784
v 0.341701 -0.063785 0.097896
v 0.341701 -0.024299 -0.114251
v 0.341701 0.063551 -0.097896
v 0.341701 0.114250 -0.024299
v 0.341701 0.024064 0.114251
v 0.341701 0.097662 0.063551
v -0.215885 0.919147 -0.393919
v -0.215885 0.698356 -0.715644
v -0.249062 0.669617 -0.686206
v -0.341701 0.097662 0.063551
v -0.341701 0.114250 -0.024299
v -0.341701 -0.063785 0.097896
v -0.310714 0.149765 0.097429
v -0.310714 0.174764 -0.037149
v -0.310714 0.036916 0.174998
v -0.341701 0.024064 0.114251
v -0.341701 0.063551 -0.097896
v -0.341701 -0.024299 -0.114251
v -0.341701 -0.097896 -0.063784
v -0.310714 -0.097662 0.149765
v -0.341701 -0.114252 0.024065
v -0.310714 -0.149998 -0.097429
v -0.274324 0.268688 0.174999
v -0.274324 0.174764 -0.268922
v -0.274324 -0.066588 -0.313781
v -0.310714 -0.037150 -0.174998
v -0.274325 -0.174998 0.268922
v -0.274324 0.066354 0.313781
v -0.310714 -0.174998 0.036915
v -0.274325 -0.268922 -0.174998
v -0.302332 0.592516 -0.007241
v -0.274324 0.313781 -0.066354
v -0.302332 0.220090 -0.550227
v -0.302332 -0.007243 -0.592516
v -0.302332 -0.233642 -0.544620
v -0.302332 -0.424294 -0.413780
v -0.302332 0.424060 0.413780
v -0.302332 0.233408 0.544620
v -0.302332 -0.220091 0.550227
v -0.302332 0.007242 0.592516
v -0.302332 -0.592750 0.007243
v -0.274325 -0.313781 0.066354
v -0.310714 0.097428 -0.149998
v -0.302332 0.550227 0.220091
v -0.249062 0.356071 -0.890409
v -0.302332 0.544619 -0.233407
v -0.302332 0.413780 -0.424059
v -0.302332 -0.550228 -0.220091
v -0.302332 -0.414014 0.424060
v -0.302332 -0.544854 0.233408
v 0.215885 0.919147 -0.393919
v 0.249062 0.669617 -0.686206
v 0.215885 0.698356 -0.715644
v 0.249062 0.356071 -0.890409
v 0.215885 0.371257 -0.928492
v 0.249062 0.881298 -0.377798
v 0.215885 0.999988 -0.012148
v 0.249062 -0.011916 -0.958867
v 0.249062 0.958634 -0.011681
v 0.215885 -0.012383 -0.999988
v 0.249062 -0.377799 -0.881298
v 0.215885 -0.394154 -0.919148
v 0.249062 -0.686441 -0.669618
v 0.215885 -0.715879 -0.698356
v 0.249062 -0.890410 -0.356071
v 0.215885 -0.928727 -0.371491
v 0.249062 -0.958867 0.011682
v 0.215885 -0.999988 0.012149
v 0.249062 -0.881532 0.377799
v 0.215885 -0.919382 0.393921
v 0.249062 -0.669852 0.686207
v 0.215885 -0.698590 0.715645
v 0.249062 -0.356305 0.890410
v 0.215885 -0.371492 0.928494
v 0.249062 0.011682 0.958867
v 0.215885 0.012149 0.999988
v 0.249062 0.377565 0.881298
v 0.215885 0.393919 0.919148
v 0.249062 0.686207 0.669620
v 0.215885 0.715645 0.698357
v 0.249062 0.890176 0.356072
v 0.215885 0.928493 0.371493
v 0.334810 -0.707000 0.303034
v 0.334810 -0.769149 0.009345
v 0.334810 -0.537377 0.550461
v 0.334810 -0.714244 -0.285744
v 0.334810 -0.550461 -0.537143
v 0.334810 -0.303033 -0.707001
v 0.334810 -0.009580 -0.769150
v 0.334810 0.285510 -0.714244
v 0.334809 0.537143 -0.550460
v 0.334809 0.706767 -0.303032
v 0.334809 0.768916 -0.009344
v 0.334809 0.714010 0.285511
v 0.334809 0.550461 0.537143
v 0.334810 0.302800 0.707002
v 0.334810 0.009345 0.769150
v 0.334810 -0.285744 0.714010
v -0.215885 0.371257 -0.928492
v -0.249062 0.881298 -0.377798
v -0.215885 0.999988 -0.012148
v -0.249062 -0.011916 -0.958867
v -0.249062 0.958634 -0.011681
v -0.215885 -0.012383 -0.999988
v -0.249062 -0.377799 -0.881298
v -0.215885 -0.394154 -0.919148
v -0.249062 -0.686441 -0.669618
v -0.215885 -0.715879 -0.698356
v -0.249062 -0.890410 -0.356071
v -0.215885 -0.928727 -0.371491
v -0.249062 -0.958867 0.011682
v -0.215885 -0.999988 0.012149
v -0.249062 -0.881532 0.377799
v -0.215885 -0.919382 0.393921
v -0.249062 -0.669852 0.686207
v -0.215885 -0.698590 0.715645
v -0.249062 -0.356305 0.890410
v -0.215885 -0.371492 0.928494
v -0.249062 0.011682 0.958867
v -0.215885 0.012149 0.999988
v -0.249062 0.377565 0.881298
v -0.215885 0.393919 0.919148
v -0.249062 0.686207 0.669620
v -0.215885 0.715645 0.698357
v -0.249062 0.890176 0.356072
v -0.215885 0.928493 0.371493
v -0.334810 -0.707000 0.303034
v -0.334810 -0.769149 0.009345
v -0.334810 -0.537377 0.550461
v -0.334810 -0.714244 -0.285744
v -0.334810 -0.550461 -0.537143
v -0.334810 -0.303033 -0.707001
v -0.334810 -0.009580 -0.769150
v -0.334810 0.285510 -0.714244
v -0.334809 0.537143 -0.550460
v -0.334809 0.706767 -0.303032
v -0.334809 0.768916 -0.009344
v -0.334809 0.714010 0.285511
v -0.334809 0.550461 0.537143
v -0.334810 0.302800 0.707002
v -0.334810 0.009345 0.769150
v -0.334810 -0.285744 0.714010
vt 0.162308 0.760609
vt 0.147738 0.755581
vt 0.155713 0.744530
vt 0.165087 0.740602
vt 0.152724 0.773652
vt 0.173575 0.765028
vt 0.142353 0.771748
vt 0.174659 0.744255
vt 0.140508 0.790654
vt 0.182685 0.754851
vt 0.150649 0.796552
vt 0.180078 0.784127
vt 0.142603 0.809834
vt 0.188219 0.771018
vt 0.147986 0.825728
vt 0.190164 0.789924
vt 0.157096 0.815552
vt 0.178004 0.807027
vt 0.156063 0.836322
vt 0.188319 0.809104
vt 0.165585 0.839976
vt 0.183084 0.825271
vt 0.168362 0.819967
vt 0.175007 0.836050
vt 0.158328 0.781045
vt 0.163710 0.773859
vt 0.170044 0.776322
vt 0.157096 0.793781
vt 0.173575 0.786900
vt 0.160795 0.804563
vt 0.172342 0.799531
vt 0.167129 0.806720
vt 0.164383 0.781045
vt 0.167970 0.782486
vt 0.161355 0.785153
vt 0.170044 0.788544
vt 0.169315 0.795732
vt 0.166288 0.799839
vt 0.160684 0.792343
vt 0.162757 0.798401
vt 0.356762 0.749192
vt 0.367992 0.749191
vt 0.367992 0.745979
vt 0.162757 0.798401
vt 0.166288 0.799839
vt 0.161355 0.785153
vt 0.160795 0.804563
vt 0.167129 0.806720
vt 0.157096 0.793781
vt 0.160684 0.792343
vt 0.169315 0.795732
vt 0.170044 0.788544
vt 0.167970 0.782486
vt 0.158328 0.781045
vt 0.164383 0.781045
vt 0.170044 0.776322
vt 0.157096 0.815552
vt 0.178004 0.807027
vt 0.180078 0.784127
vt 0.173575 0.786900
vt 0.152724 0.773652
vt 0.150649 0.796552
vt 0.163710 0.773859
vt 0.173575 0.765028
vt 0.165585 0.839976
vt 0.168362 0.819967
vt 0.188319 0.809104
vt 0.190164 0.789924
vt 0.188219 0.771018
vt 0.182685 0.754851
vt 0.147986 0.825728
vt 0.142603 0.809834
vt 0.142353 0.771748
vt 0.140508 0.790654
vt 0.165087 0.740602
vt 0.162308 0.760609
vt 0.172342 0.799531
vt 0.156063 0.836322
vt 0.379281 0.745979
vt 0.175007 0.836050
vt 0.183084 0.825271
vt 0.174659 0.744255
vt 0.147738 0.755581
vt 0.155713 0.744530
vt 0.356762 0.749192
vt 0.367992 0.745979
vt 0.367992 0.749191
vt 0.379281 0.745979
vt 0.379281 0.749191
vt 0.356762 0.745980
vt 0.345534 0.749193
vt 0.390420 0.745978
vt 0.345534 0.745981
vt 0.390420 0.749190
vt 0.356763 0.777490
vt 0.345534 0.774279
vt 0.345534 0.777491
vt 0.356763 0.774278
vt 0.367962 0.777489
vt 0.367962 0.774278
vt 0.379192 0.777489
vt 0.379192 0.774277
vt 0.390420 0.777488
vt 0.390420 0.774276
vt 0.356762 0.745980
vt 0.345534 0.749193
vt 0.345534 0.745981
vt 0.356762 0.749192
vt 0.367992 0.745979
vt 0.367992 0.749191
vt 0.379191 0.745979
vt 0.379191 0.749191
vt 0.390420 0.745978
vt 0.390420 0.749190
vt 0.356673 0.777296
vt 0.345534 0.774085
vt 0.345534 0.777297
vt 0.356673 0.774085
vt 0.367962 0.777296
vt 0.367962 0.774084
vt 0.379192 0.777295
vt 0.379192 0.774083
vt 0.390420 0.777294
vt 0.390420 0.774082
vt 0.165002 0.711321
vt 0.152437 0.729836
vt 0.149873 0.717610
vt 0.165091 0.724754
vt 0.180231 0.717118
vt 0.141917 0.744268
vt 0.137002 0.735000
vt 0.155661 0.744813
vt 0.147716 0.755836
vt 0.165096 0.740939
vt 0.142353 0.771925
vt 0.177745 0.729530
vt 0.174631 0.744614
vt 0.193199 0.734017
vt 0.188518 0.743556
vt 0.182724 0.755141
vt 0.201895 0.759563
vt 0.195632 0.764798
vt 0.188236 0.771230
vt 0.205038 0.789822
vt 0.198275 0.789801
vt 0.190173 0.790000
vt 0.202140 0.820277
vt 0.195887 0.815007
vt 0.193641 0.846116
vt 0.188874 0.836553
vt 0.183072 0.825157
vt 0.180820 0.863506
vt 0.178253 0.850987
vt 0.175028 0.835884
vt 0.165691 0.869793
vt 0.165598 0.856270
vt 0.165592 0.839856
vt 0.150463 0.863998
vt 0.152945 0.851291
vt 0.156058 0.836180
vt 0.137493 0.846803
vt 0.142325 0.837265
vt 0.128799 0.821457
vt 0.135057 0.816023
vt 0.125656 0.791001
vt 0.132415 0.791020
vt 0.140516 0.790796
vt 0.128554 0.760839
vt 0.134803 0.765816
vt 0.379281 0.749191
vt 0.356762 0.745980
vt 0.345534 0.749193
vt 0.390420 0.745978
vt 0.345534 0.745981
vt 0.390420 0.749190
vt 0.356763 0.777490
vt 0.345534 0.777491
vt 0.345534 0.774279
vt 0.356763 0.774278
vt 0.367962 0.777489
vt 0.367962 0.774278
vt 0.379192 0.777489
vt 0.379192 0.774277
vt 0.390420 0.777488
vt 0.390420 0.774276
vt 0.356762 0.745980
vt 0.345534 0.745981
vt 0.345534 0.749193
vt 0.356762 0.749192
vt 0.367992 0.745979
vt 0.367992 0.749191
vt 0.379191 0.745979
vt 0.379191 0.749191
vt 0.390420 0.745978
vt 0.390420 0.749190
vt 0.356673 0.777296
vt 0.345534 0.777297
vt 0.345534 0.774085
vt 0.356673 0.774085
vt 0.367962 0.777296
vt 0.367962 0.774084
vt 0.379192 0.777295
vt 0.379192 0.774083
vt 0.390420 0.777294
vt 0.390420 0.774082
vt 0.165002 0.711321
vt 0.149873 0.717610
vt 0.152437 0.729836
vt 0.165091 0.724754
vt 0.180231 0.717118
vt 0.141917 0.744268
vt 0.137002 0.735000
vt 0.155661 0.744813
vt 0.147716 0.755836
vt 0.165096 0.740939
vt 0.142353 0.771925
vt 0.177745 0.729530
vt 0.174631 0.744614
vt 0.193199 0.734017
vt 0.188518 0.743556
vt 0.182724 0.755141
vt 0.201895 0.759563
vt 0.195632 0.764798
vt 0.188236 0.771230
vt 0.205038 0.789822
vt 0.198275 0.789801
vt 0.190173 0.790000
vt 0.202140 0.820277
vt 0.195887 0.815007
vt 0.193641 0.846116
vt 0.188874 0.836553
vt 0.183072 0.825157
vt 0.180820 0.863506
vt 0.178253 0.850987
vt 0.175028 0.835884
vt 0.165691 0.869793
vt 0.165598 0.856270
vt 0.165592 0.839856
vt 0.150463 0.863998
vt 0.152945 0.851291
vt 0.156058 0.836180
vt 0.137493 0.846803
vt 0.142325 0.837265
vt 0.128799 0.821457
vt 0.135057 0.816023
vt 0.125656 0.791001
vt 0.132415 0.791020
vt 0.140516 0.790796
vt 0.128554 0.760839
vt 0.134803 0.765816
vt 0.379191 0.748439
vt 0.390420 0.748438
vt 0.345534 0.774837
vt 0.356763 0.774836
vt 0.367992 0.774836
vt 0.379281 0.774835
vt 0.390420 0.774834
vt 0.345534 0.748635
vt 0.356763 0.748634
vt 0.367962 0.748633
vt 0.379191 0.748632
vt 0.390420 0.748632
vt 0.345534 0.774837
vt 0.356763 0.774836
vt 0.367992 0.774836
vt 0.379191 0.774835
vt 0.390420 0.774834
vt 0.345534 0.748441
vt 0.356673 0.748440
vt 0.367962 0.748439
vn 0.9989 -0.0359 -0.0298
vn 0.9887 0.1128 -0.0987
vn 0.9897 0.1351 -0.0476
vn 0.9887 0.1496 0.0100
vn 0.9990 -0.0450 0.0027
vn 0.9989 -0.0036 -0.0460
vn 0.9897 0.0617 -0.1292
vn 0.9897 0.1291 0.0619
vn 0.9887 0.0100 -0.1496
vn 0.9887 0.0987 0.1129
vn 0.9990 -0.0299 0.0338
vn 0.9989 0.0299 -0.0351
vn 0.9897 -0.0475 -0.1349
vn 0.9897 0.0476 0.1350
vn 0.9887 -0.0986 -0.1129
vn 0.9887 -0.0100 0.1496
vn 0.9990 0.0027 0.0451
vn 0.9989 0.0459 -0.0037
vn 0.9897 -0.1291 -0.0617
vn 0.9897 -0.0618 0.1291
vn 0.9887 -0.1498 -0.0100
vn 0.9887 -0.1127 0.0986
vn 0.9990 0.0337 0.0301
vn 0.9897 -0.1350 0.0475
vn 0.8692 -0.2947 0.3971
vn 0.8702 -0.4893 0.0578
vn 0.8701 -0.3871 -0.3050
vn 0.8688 0.0734 0.4897
vn 0.8701 -0.0584 -0.4894
vn 0.8693 0.3979 0.2934
vn 0.8700 0.3049 -0.3875
vn 0.8691 0.4892 -0.0729
vn 0.9181 -0.3505 0.1849
vn 0.9594 -0.2656 -0.0953
vn 0.9983 0.0037 0.0585
vn 0.9593 -0.1204 -0.2554
vn 0.9594 0.0954 -0.2654
vn 0.9593 0.2555 -0.1201
vn 0.9121 0.1623 0.3765
vn 0.9575 0.2713 0.0983
vn -0.3884 0.8513 -0.3527
vn -0.4056 0.6573 -0.6352
vn -0.8405 0.3688 -0.3969
vn -0.9645 0.1830 0.1906
vn -0.9716 0.2364 -0.0080
vn -0.8777 -0.3720 0.3022
vn -0.8859 0.4443 0.1332
vn -0.9826 0.1436 -0.1175
vn -0.9529 0.2194 0.2094
vn -0.9828 -0.0539 0.1765
vn -0.9685 0.0893 -0.2326
vn -0.9755 -0.0544 -0.2130
vn -0.9732 -0.2092 -0.0960
vn -0.9530 0.0056 0.3029
vn -0.9685 -0.1775 0.1745
vn -0.8938 -0.2717 -0.3569
vn -0.9996 -0.0066 0.0279
vn -0.9976 0.0536 -0.0446
vn -0.9976 -0.0340 -0.0606
vn -0.8894 -0.2284 -0.3959
vn -1.0000 -0.0058 -0.0051
vn -0.9989 -0.0299 0.0355
vn -0.8702 -0.4709 0.1452
vn -0.9973 -0.0614 -0.0392
vn -0.9905 -0.1373 0.0087
vn -0.9976 0.0695 0.0062
vn -0.9881 -0.0501 0.1457
vn -0.9892 0.0122 0.1461
vn -0.9881 0.0677 0.1384
vn -0.9892 0.1122 0.0946
vn -0.9905 -0.1031 -0.0907
vn -0.9897 -0.0668 -0.1267
vn -0.9897 0.0424 -0.1369
vn -0.9910 -0.0013 -0.1340
vn -0.9881 0.1536 -0.0090
vn -0.9978 -0.0522 0.0402
vn -0.8704 0.3088 -0.3834
vn -0.9908 -0.1249 -0.0520
vn -0.8375 0.2120 -0.5036
vn -0.9897 -0.1268 0.0668
vn -0.9892 -0.0946 0.1120
vn -0.9903 0.1322 0.0429
vn -0.9887 0.0974 -0.1137
vn -0.9880 0.1386 -0.0676
vn 0.3953 0.8524 -0.3424
vn 0.8518 0.3710 -0.3699
vn 0.4219 0.6150 -0.6662
vn 0.8516 0.2013 -0.4840
vn 0.4213 0.3129 -0.8512
vn 0.8521 0.4838 -0.1996
vn 0.3963 0.9181 0.0098
vn 0.8516 0.0007 -0.5241
vn 0.8525 0.5228 0.0008
vn 0.4340 0.0023 -0.9009
vn 0.8520 -0.1997 -0.4840
vn 0.4342 -0.3426 -0.8331
vn 0.8520 -0.3697 -0.3707
vn 0.4342 -0.6353 -0.6387
vn 0.8521 -0.4832 -0.2009
vn 0.4345 -0.8312 -0.3468
vn 0.8520 -0.5236 -0.0007
vn 0.4338 -0.9010 -0.0023
vn 0.8519 -0.4842 0.1996
vn 0.4339 -0.8333 0.3425
vn 0.8518 -0.3709 0.3699
vn 0.4336 -0.6387 0.6356
vn 0.8516 -0.2013 0.4839
vn 0.4334 -0.3470 0.8317
vn 0.8516 -0.0007 0.5241
vn 0.4340 -0.0023 0.9009
vn 0.8520 0.1997 0.4840
vn 0.4342 0.3426 0.8331
vn 0.8519 0.3698 0.3707
vn 0.4342 0.6353 0.6387
vn 0.8522 0.4831 0.2009
vn 0.4349 0.8309 0.3470
vn 0.9925 -0.1188 0.0285
vn 0.9925 -0.1207 -0.0191
vn 0.9925 -0.0989 0.0719
vn 0.9925 -0.1043 -0.0638
vn 0.9925 -0.0718 -0.0989
vn 0.9925 -0.0286 -0.1189
vn 0.9925 0.0191 -0.1208
vn 0.9925 0.0639 -0.1043
vn 0.9925 0.0989 -0.0719
vn 0.9925 0.1188 -0.0285
vn 0.9925 0.1207 0.0191
vn 0.9925 0.1042 0.0638
vn 0.9925 0.0720 0.0989
vn 0.9925 0.0286 0.1189
vn 0.9925 -0.0191 0.1207
vn 0.9925 -0.0638 0.1041
vn -0.4048 0.3646 -0.8386
vn -0.8472 0.4940 -0.1956
vn -0.4013 0.9159 0.0136
vn -0.8382 0.0029 -0.5453
vn -0.8479 0.5301 0.0080
vn -0.4255 0.0121 -0.9049
vn -0.8386 -0.2058 -0.5044
vn -0.4259 -0.3352 -0.8404
vn -0.8381 -0.3836 -0.3878
vn -0.4257 -0.6310 -0.6485
vn -0.8389 -0.5017 -0.2110
vn -0.4264 -0.8310 -0.3573
vn -0.8380 -0.5457 -0.0030
vn -0.4256 -0.9048 -0.0122
vn -0.8382 -0.5050 0.2058
vn -0.3870 -0.8449 0.3692
vn -0.8382 -0.3878 0.3835
vn -0.3889 -0.6518 0.6511
vn -0.8376 -0.2120 0.5035
vn -0.3879 -0.3532 0.8514
vn -0.8382 -0.0029 0.5453
vn -0.3887 -0.0005 0.9214
vn -0.8386 0.2058 0.5044
vn -0.3893 0.3522 0.8511
vn -0.8381 0.3837 0.3878
vn -0.3886 0.6511 0.6519
vn -0.8389 0.5017 0.2110
vn -0.3895 0.8506 0.3532
vn -0.9856 -0.1344 0.1030
vn -0.9887 -0.1448 -0.0386
vn -0.9803 -0.1481 0.1303
vn -0.9806 -0.1882 -0.0554
vn -0.9807 -0.1520 -0.1231
vn -0.9806 -0.0938 -0.1723
vn -0.9806 -0.0207 -0.1949
vn -0.9806 0.0555 -0.1880
vn -0.9806 0.1232 -0.1525
vn -0.9807 0.1720 -0.0935
vn -0.9806 0.1948 -0.0206
vn -0.9806 0.1878 0.0555
vn -0.9806 0.1526 0.1232
vn -0.9806 0.0937 0.1722
vn -0.9806 0.0208 0.1950
vn -0.9807 -0.0556 0.1874
usemtl materials_are_bae.001
s 1
f 1/1/1 2/2/2 3/3/3
f 4/4/4 1/1/1 3/3/3
f 2/2/2 1/1/1 5/5/5
f 6/6/6 1/1/1 4/4/4
f 2/2/2 5/5/5 7/7/7
f 6/6/6 4/4/4 8/8/8
f 5/5/5 9/9/9 7/7/7
f 10/10/10 6/6/6 8/8/8
f 9/9/9 5/5/5 11/11/11
f 10/10/10 12/12/12 6/6/6
f 9/9/9 11/11/11 13/13/13
f 12/12/12 10/10/10 14/14/14
f 11/11/11 15/15/15 13/13/13
f 16/16/16 12/12/12 14/14/14
f 15/15/15 11/11/11 17/17/17
f 16/16/16 18/18/18 12/12/12
f 15/15/15 17/17/17 19/19/19
f 18/18/18 16/16/16 20/20/20
f 17/17/17 21/21/21 19/19/19
f 22/22/22 18/18/18 20/20/20
f 21/21/21 17/17/17 23/23/23
f 22/22/22 23/23/23 18/18/18
f 21/21/21 23/23/23 24/24/24
f 23/23/23 22/22/22 24/24/24
f 25/25/25 1/1/1 26/26/26
f 26/26/26 1/1/1 6/6/6
f 1/1/1 25/25/25 5/5/5
f 26/26/26 6/6/6 27/27/27
f 28/28/28 5/5/5 25/25/25
f 12/12/12 27/27/27 6/6/6
f 5/5/5 28/28/28 11/11/11
f 27/27/27 12/12/12 29/29/29
f 30/30/30 11/11/11 28/28/28
f 18/18/18 29/29/29 12/12/12
f 11/11/11 30/30/30 17/17/17
f 29/29/29 18/18/18 31/31/31
f 32/32/32 17/17/17 30/30/30
f 23/23/23 31/31/31 18/18/18
f 17/17/17 32/32/32 23/23/23
f 31/31/31 23/23/23 32/32/32
f 33/33/33 25/25/25 26/26/26
f 26/26/26 34/34/34 33/33/33
f 34/34/34 26/26/26 27/27/27
f 25/25/25 33/33/33 35/35/35
f 34/34/34 35/35/35 33/33/33
f 35/35/35 28/28/28 25/25/25
f 27/27/27 36/36/36 34/34/34
f 36/36/36 35/35/35 34/34/34
f 36/36/36 27/27/27 29/29/29
f 29/29/29 37/37/37 36/36/36
f 37/37/37 35/35/35 36/36/36
f 37/37/37 29/29/29 31/31/31
f 31/31/31 38/38/38 37/37/37
f 38/38/38 35/35/35 37/37/37
f 38/38/38 31/31/31 32/32/32
f 28/28/28 35/35/35 39/39/39
f 39/39/39 30/30/30 28/28/28
f 40/40/40 35/35/35 38/38/38
f 35/35/35 40/40/40 39/39/39
f 32/32/32 40/40/40 38/38/38
f 39/39/39 40/40/40 30/30/30
f 40/40/40 32/32/32 30/30/30
f 41/41/41 42/42/42 43/43/43
f 44/44/44 45/45/45 46/46/46
f 44/44/44 47/47/47 48/48/48
f 49/49/49 50/50/50 46/46/46
f 50/50/50 47/47/47 44/44/44
f 51/51/51 52/52/52 46/46/46
f 52/52/52 53/53/53 46/46/46
f 54/54/54 46/46/46 55/55/55
f 56/56/56 53/53/53 52/52/52
f 53/53/53 55/55/55 46/46/46
f 48/48/48 47/47/47 57/57/57
f 58/58/58 59/59/59 60/60/60
f 61/61/61 62/62/62 49/49/49
f 63/63/63 56/56/56 64/64/64
f 56/56/56 60/60/60 59/59/59
f 49/49/49 54/54/54 61/61/61
f 65/65/65 66/66/66 57/57/57
f 58/58/58 67/67/67 68/68/68
f 68/68/68 59/59/59 58/58/58
f 59/59/59 69/69/69 70/70/70
f 71/71/71 57/57/57 62/62/62
f 62/62/62 72/72/72 71/71/71
f 61/61/61 73/73/73 74/74/74
f 64/64/64 75/75/75 76/76/76
f 45/45/45 48/48/48 77/77/77
f 50/50/50 49/49/49 47/47/47
f 52/52/52 60/60/60 56/56/56
f 46/46/46 54/54/54 49/49/49
f 47/47/47 49/49/49 62/62/62
f 59/59/59 64/64/64 56/56/56
f 71/71/71 78/78/78 57/57/57
f 68/68/68 69/69/69 59/59/59
f 79/79/79 43/43/43 42/42/42
f 77/77/77 51/51/51 45/45/45
f 45/45/45 51/51/51 46/46/46
f 46/46/46 50/50/50 44/44/44
f 48/48/48 45/45/45 44/44/44
f 60/60/60 52/52/52 51/51/51
f 51/51/51 77/77/77 60/60/60
f 63/63/63 55/55/55 53/53/53
f 53/53/53 56/56/56 63/63/63
f 55/55/55 63/63/63 54/54/54
f 77/77/77 48/48/48 66/66/66
f 66/66/66 58/58/58 77/77/77
f 57/57/57 66/66/66 48/48/48
f 60/60/60 77/77/77 58/58/58
f 62/62/62 57/57/57 47/47/47
f 63/63/63 64/64/64 76/76/76
f 76/76/76 61/61/61 54/54/54
f 54/54/54 63/63/63 76/76/76
f 66/66/66 80/80/80 81/81/81
f 81/81/81 58/58/58 66/66/66
f 65/65/65 80/80/80 66/66/66
f 81/81/81 67/67/67 58/58/58
f 57/57/57 78/78/78 65/65/65
f 70/70/70 64/64/64 59/59/59
f 74/74/74 72/72/72 62/62/62
f 70/70/70 82/82/82 64/64/64
f 74/74/74 62/62/62 61/61/61
f 83/83/83 73/73/73 61/61/61
f 64/64/64 82/82/82 75/75/75
f 83/83/83 61/61/61 76/76/76
f 76/76/76 84/84/84 83/83/83
f 75/75/75 84/84/84 76/76/76
f 85/85/85 86/86/86 87/87/87
f 88/88/88 87/87/87 86/86/86
f 87/87/87 88/88/88 89/89/89
f 86/86/86 85/85/85 90/90/90
f 91/91/91 90/90/90 85/85/85
f 92/92/92 89/89/89 88/88/88
f 90/90/90 91/91/91 93/93/93
f 89/89/89 92/92/92 94/94/94
f 95/95/95 94/96/94 92/97/92
f 94/96/94 95/95/95 96/98/96
f 97/99/97 96/98/96 95/95/95
f 96/98/96 97/99/97 98/100/98
f 99/101/99 98/100/98 97/99/97
f 98/100/98 99/101/99 100/102/100
f 101/103/101 100/102/100 99/101/99
f 100/102/100 101/103/101 102/104/102
f 103/105/103 102/106/102 101/107/101
f 102/106/102 103/105/103 104/108/104
f 105/109/105 104/108/104 103/105/103
f 104/108/104 105/109/105 106/110/106
f 107/111/107 106/110/106 105/109/105
f 106/110/106 107/111/107 108/112/108
f 109/113/109 108/112/108 107/111/107
f 108/112/108 109/113/109 110/114/110
f 111/115/111 110/116/110 109/117/109
f 110/116/110 111/115/111 112/118/112
f 113/119/113 112/118/112 111/115/111
f 112/118/112 113/119/113 114/120/114
f 115/121/115 114/120/114 113/119/113
f 114/120/114 115/121/115 116/122/116
f 93/123/93 116/122/116 115/121/115
f 116/122/116 93/123/93 91/124/91
f 101/125/101 117/126/117 103/127/103
f 117/126/117 101/125/101 118/128/118
f 99/129/99 118/128/118 101/125/101
f 119/130/119 103/127/103 117/126/117
f 103/127/103 119/130/119 105/131/105
f 118/128/118 3/132/3 117/126/117
f 2/133/2 117/126/117 3/132/3
f 117/126/117 2/133/2 119/130/119
f 3/132/3 118/128/118 4/134/4
f 7/135/7 119/130/119 2/133/2
f 120/136/120 4/134/4 118/128/118
f 118/128/118 99/129/99 120/136/120
f 4/134/4 120/136/120 8/137/8
f 97/138/97 120/136/120 99/129/99
f 121/139/121 8/137/8 120/136/120
f 120/136/120 97/138/97 121/139/121
f 8/137/8 121/139/121 10/140/10
f 95/141/95 121/139/121 97/138/97
f 122/142/122 10/140/10 121/139/121
f 121/139/121 95/141/95 122/142/122
f 10/140/10 122/142/122 14/143/14
f 92/144/92 122/142/122 95/141/95
f 123/145/123 14/143/14 122/142/122
f 122/142/122 92/144/92 123/145/123
f 14/143/14 123/145/123 16/146/16
f 88/147/88 123/145/123 92/144/92
f 124/148/124 16/146/16 123/145/123
f 123/145/123 88/147/88 124/148/124
f 16/146/16 124/148/124 20/20/20
f 86/149/86 124/148/124 88/147/88
f 125/150/125 20/20/20 124/148/124
f 124/148/124 86/149/86 125/150/125
f 20/20/20 125/150/125 22/151/22
f 90/152/90 125/150/125 86/149/86
f 126/153/126 22/151/22 125/150/125
f 125/150/125 90/152/90 126/153/126
f 22/151/22 126/153/126 24/154/24
f 93/155/93 126/153/126 90/152/90
f 127/156/127 24/154/24 126/153/126
f 126/153/126 93/155/93 127/156/127
f 24/154/24 127/156/127 21/157/21
f 115/158/115 127/156/127 93/155/93
f 128/159/128 21/157/21 127/156/127
f 127/156/127 115/158/115 128/159/128
f 21/157/21 128/159/128 19/160/19
f 113/161/113 128/159/128 115/158/115
f 129/162/129 19/160/19 128/159/128
f 128/159/128 113/161/113 129/162/129
f 19/160/19 129/162/129 15/15/15
f 111/163/111 129/162/129 113/161/113
f 130/164/130 15/15/15 129/162/129
f 129/162/129 111/163/111 130/164/130
f 15/15/15 130/164/130 13/13/13
f 109/165/109 130/164/130 111/163/111
f 131/166/131 13/13/13 130/164/130
f 130/164/130 109/165/109 131/166/131
f 13/13/13 131/166/131 9/167/9
f 107/168/107 131/166/131 109/165/109
f 132/169/132 9/167/9 131/166/131
f 107/168/107 132/169/132 131/166/131
f 9/167/9 132/169/132 7/135/7
f 105/131/105 132/169/132 107/168/107
f 7/135/7 132/169/132 119/130/119
f 132/169/132 105/131/105 119/130/119
f 42/42/42 133/170/133 79/79/79
f 43/43/43 134/171/134 41/41/41
f 135/172/135 41/41/41 134/171/134
f 136/173/136 79/79/79 133/170/133
f 134/171/134 137/174/137 135/172/135
f 133/170/133 138/175/138 136/173/136
f 139/176/139 136/177/136 138/178/138
f 138/178/138 140/179/140 139/176/139
f 141/180/141 139/176/139 140/179/140
f 140/179/140 142/181/142 141/180/141
f 143/182/143 141/180/141 142/181/142
f 142/181/142 144/183/144 143/182/143
f 145/184/145 143/182/143 144/183/144
f 144/183/144 146/185/146 145/184/145
f 147/186/147 145/187/145 146/188/146
f 146/188/146 148/189/148 147/186/147
f 149/190/149 147/186/147 148/189/148
f 148/189/148 150/191/150 149/190/149
f 151/192/151 149/190/149 150/191/150
f 150/191/150 152/193/152 151/192/151
f 153/194/153 151/192/151 152/193/152
f 152/193/152 154/195/154 153/194/153
f 155/196/155 153/197/153 154/198/154
f 154/198/154 156/199/156 155/196/155
f 157/200/157 155/196/155 156/199/156
f 156/199/156 158/201/158 157/200/157
f 159/202/159 157/200/157 158/201/158
f 158/201/158 160/203/160 159/202/159
f 137/204/137 159/202/159 160/203/160
f 160/203/160 135/205/135 137/204/137
f 145/206/145 147/207/147 161/208/161
f 161/208/161 162/209/162 145/206/145
f 143/210/143 145/206/145 162/209/162
f 163/211/163 161/208/161 147/207/147
f 147/207/147 149/212/149 163/211/163
f 162/209/162 161/208/161 84/213/84
f 83/214/83 84/213/84 161/208/161
f 161/208/161 163/211/163 83/214/83
f 84/213/84 75/215/75 162/209/162
f 73/216/73 83/214/83 163/211/163
f 164/217/164 162/209/162 75/215/75
f 162/209/162 164/217/164 143/210/143
f 75/215/75 82/218/82 164/217/164
f 141/219/141 143/210/143 164/217/164
f 165/220/165 164/217/164 82/218/82
f 164/217/164 165/220/165 141/219/141
f 82/218/82 70/221/70 165/220/165
f 139/222/139 141/219/141 165/220/165
f 166/223/166 165/220/165 70/221/70
f 165/220/165 166/223/166 139/222/139
f 70/221/70 69/224/69 166/223/166
f 136/225/136 139/222/139 166/223/166
f 167/226/167 166/223/166 69/224/69
f 166/223/166 167/226/167 136/225/136
f 69/224/69 68/227/68 167/226/167
f 79/228/79 136/225/136 167/226/167
f 168/229/168 167/226/167 68/227/68
f 167/226/167 168/229/168 79/228/79
f 68/227/68 67/67/67 168/229/168
f 43/230/43 79/228/79 168/229/168
f 169/231/169 168/229/168 67/67/67
f 168/229/168 169/231/169 43/230/43
f 67/67/67 81/232/81 169/231/169
f 134/233/134 43/230/43 169/231/169
f 170/234/170 169/231/169 81/232/81
f 169/231/169 170/234/170 134/233/134
f 81/232/81 80/235/80 170/234/170
f 137/236/137 134/233/134 170/234/170
f 171/237/171 170/234/170 80/235/80
f 170/234/170 171/237/171 137/236/137
f 80/235/80 65/238/65 171/237/171
f 159/239/159 137/236/137 171/237/171
f 172/240/172 171/237/171 65/238/65
f 171/237/171 172/240/172 159/239/159
f 65/238/65 78/241/78 172/240/172
f 157/242/157 159/239/159 172/240/172
f 173/243/173 172/240/172 78/241/78
f 172/240/172 173/243/173 157/242/157
f 78/241/78 71/71/71 173/243/173
f 155/244/155 157/242/157 173/243/173
f 174/245/174 173/243/173 71/71/71
f 173/243/173 174/245/174 155/244/155
f 71/71/71 72/72/72 174/245/174
f 153/246/153 155/244/155 174/245/174
f 175/247/175 174/245/174 72/72/72
f 174/245/174 175/247/175 153/246/153
f 72/72/72 74/248/74 175/247/175
f 151/249/151 153/246/153 175/247/175
f 176/250/176 175/247/175 74/248/74
f 151/249/151 175/247/175 176/250/176
f 74/248/74 73/216/73 176/250/176
f 149/212/149 151/249/151 176/250/176
f 73/216/73 163/211/163 176/250/176
f 176/250/176 163/211/163 149/212/149
f 160/251/160 91/124/91 135/252/135
f 135/253/135 85/85/85 41/254/41
f 85/85/85 135/253/135 91/91/91
f 41/254/41 87/87/87 42/255/42
f 87/87/87 41/254/41 85/85/85
f 42/255/42 89/89/89 133/256/133
f 89/89/89 42/255/42 87/87/87
f 94/94/94 133/256/133 89/89/89
f 133/256/133 94/94/94 138/257/138
f 96/98/96 138/258/138 94/96/94
f 138/258/138 96/98/96 140/259/140
f 98/100/98 140/259/140 96/98/96
f 140/259/140 98/100/98 142/260/142
f 100/102/100 142/260/142 98/100/98
f 142/260/142 100/102/100 144/261/144
f 102/104/102 144/261/144 100/102/100
f 144/261/144 102/104/102 146/262/146
f 104/108/104 146/263/146 102/106/102
f 146/263/146 104/108/104 148/264/148
f 106/110/106 148/264/148 104/108/104
f 148/264/148 106/110/106 150/265/150
f 108/112/108 150/265/150 106/110/106
f 150/265/150 108/112/108 152/266/152
f 110/114/110 152/266/152 108/112/108
f 152/266/152 110/114/110 154/267/154
f 112/118/112 154/268/154 110/116/110
f 154/268/154 112/118/112 156/269/156
f 114/120/114 156/269/156 112/118/112
f 156/269/156 114/120/114 158/270/158
f 116/122/116 158/270/158 114/120/114
f 158/270/158 116/122/116 160/251/160
f 91/124/91 160/251/160 116/122/116
